G04 #@! TF.GenerationSoftware,KiCad,Pcbnew,(5.0.0)*
G04 #@! TF.CreationDate,2019-01-09T16:35:05-03:00*
G04 #@! TF.ProjectId,Antena,416E74656E612E6B696361645F706362,rev?*
G04 #@! TF.SameCoordinates,Original*
G04 #@! TF.FileFunction,Copper,L2,Bot,Signal*
G04 #@! TF.FilePolarity,Positive*
%FSLAX46Y46*%
G04 Gerber Fmt 4.6, Leading zero omitted, Abs format (unit mm)*
G04 Created by KiCad (PCBNEW (5.0.0)) date 01/09/19 16:35:05*
%MOMM*%
%LPD*%
G01*
G04 APERTURE LIST*
G04 #@! TA.AperFunction,ViaPad*
%ADD10C,0.600000*%
G04 #@! TD*
G04 #@! TA.AperFunction,Conductor*
%ADD11C,0.200000*%
G04 #@! TD*
G04 APERTURE END LIST*
D10*
G04 #@! TO.N,GND*
X-9855200Y-1422400D03*
X-8839200Y-1422400D03*
X-7823200Y-1422400D03*
X-9906000Y-2489200D03*
X-8839200Y-2489200D03*
G04 #@! TD*
D11*
G04 #@! TO.N,GND*
G36*
X-2995600Y-4572000D02*
X-2987988Y-4610268D01*
X-2966311Y-4642711D01*
X-2933868Y-4664388D01*
X-2895600Y-4672000D01*
X7575001Y-4672000D01*
X7575001Y-6575000D01*
X-10575000Y-6575000D01*
X-10575000Y-3971987D01*
X-7038000Y-3971987D01*
X-7038000Y-4257613D01*
X-6982277Y-4537749D01*
X-6872973Y-4801633D01*
X-6714289Y-5039121D01*
X-6512321Y-5241089D01*
X-6274833Y-5399773D01*
X-6010949Y-5509077D01*
X-5730813Y-5564800D01*
X-5445187Y-5564800D01*
X-5165051Y-5509077D01*
X-4901167Y-5399773D01*
X-4663679Y-5241089D01*
X-4461711Y-5039121D01*
X-4303027Y-4801633D01*
X-4193723Y-4537749D01*
X-4138000Y-4257613D01*
X-4138000Y-3971987D01*
X-4193723Y-3691851D01*
X-4303027Y-3427967D01*
X-4461711Y-3190479D01*
X-4663679Y-2988511D01*
X-4901167Y-2829827D01*
X-5165051Y-2720523D01*
X-5445187Y-2664800D01*
X-5730813Y-2664800D01*
X-6010949Y-2720523D01*
X-6274833Y-2829827D01*
X-6512321Y-2988511D01*
X-6714289Y-3190479D01*
X-6872973Y-3427967D01*
X-6982277Y-3691851D01*
X-7038000Y-3971987D01*
X-10575000Y-3971987D01*
X-10575000Y6575000D01*
X-2995600Y6575000D01*
X-2995600Y-4572000D01*
X-2995600Y-4572000D01*
G37*
X-2995600Y-4572000D02*
X-2987988Y-4610268D01*
X-2966311Y-4642711D01*
X-2933868Y-4664388D01*
X-2895600Y-4672000D01*
X7575001Y-4672000D01*
X7575001Y-6575000D01*
X-10575000Y-6575000D01*
X-10575000Y-3971987D01*
X-7038000Y-3971987D01*
X-7038000Y-4257613D01*
X-6982277Y-4537749D01*
X-6872973Y-4801633D01*
X-6714289Y-5039121D01*
X-6512321Y-5241089D01*
X-6274833Y-5399773D01*
X-6010949Y-5509077D01*
X-5730813Y-5564800D01*
X-5445187Y-5564800D01*
X-5165051Y-5509077D01*
X-4901167Y-5399773D01*
X-4663679Y-5241089D01*
X-4461711Y-5039121D01*
X-4303027Y-4801633D01*
X-4193723Y-4537749D01*
X-4138000Y-4257613D01*
X-4138000Y-3971987D01*
X-4193723Y-3691851D01*
X-4303027Y-3427967D01*
X-4461711Y-3190479D01*
X-4663679Y-2988511D01*
X-4901167Y-2829827D01*
X-5165051Y-2720523D01*
X-5445187Y-2664800D01*
X-5730813Y-2664800D01*
X-6010949Y-2720523D01*
X-6274833Y-2829827D01*
X-6512321Y-2988511D01*
X-6714289Y-3190479D01*
X-6872973Y-3427967D01*
X-6982277Y-3691851D01*
X-7038000Y-3971987D01*
X-10575000Y-3971987D01*
X-10575000Y6575000D01*
X-2995600Y6575000D01*
X-2995600Y-4572000D01*
G04 #@! TD*
M02*
