G04 #@! TF.GenerationSoftware,KiCad,Pcbnew,(5.0.0)*
G04 #@! TF.CreationDate,2019-01-09T16:35:05-03:00*
G04 #@! TF.ProjectId,Antena,416E74656E612E6B696361645F706362,rev?*
G04 #@! TF.SameCoordinates,Original*
G04 #@! TF.FileFunction,Copper,L1,Top,Signal*
G04 #@! TF.FilePolarity,Positive*
%FSLAX46Y46*%
G04 Gerber Fmt 4.6, Leading zero omitted, Abs format (unit mm)*
G04 Created by KiCad (PCBNEW (5.0.0)) date 01/09/19 16:35:05*
%MOMM*%
%LPD*%
G01*
G04 APERTURE LIST*
G04 #@! TA.AperFunction,SMDPad,CuDef*
%ADD10R,1.200000X2.150000*%
G04 #@! TD*
G04 #@! TA.AperFunction,SMDPad,CuDef*
%ADD11R,3.000000X3.000000*%
G04 #@! TD*
G04 #@! TA.AperFunction,ViaPad*
%ADD12C,0.600000*%
G04 #@! TD*
G04 #@! TA.AperFunction,Conductor*
%ADD13C,0.400000*%
G04 #@! TD*
G04 #@! TA.AperFunction,Conductor*
%ADD14C,0.500000*%
G04 #@! TD*
G04 #@! TA.AperFunction,Conductor*
%ADD15C,0.050000*%
G04 #@! TD*
G04 #@! TA.AperFunction,Conductor*
%ADD16C,0.200000*%
G04 #@! TD*
G04 APERTURE END LIST*
D10*
G04 #@! TO.P,ANT1,1*
G04 #@! TO.N,Net-(ANT1-Pad1)*
X-1106800Y4673600D03*
G04 #@! TO.P,ANT1,2*
G04 #@! TO.N,Net-(ANT1-Pad2)*
X6593200Y4673600D03*
G04 #@! TD*
D11*
G04 #@! TO.P,J2,1*
G04 #@! TO.N,GND*
X-8331200Y1066800D03*
G04 #@! TD*
G04 #@! TO.P,J1,1*
G04 #@! TO.N,Net-(ANT1-Pad1)*
X-4775200Y4673600D03*
G04 #@! TD*
D12*
G04 #@! TO.N,GND*
X-9855200Y-1422400D03*
X-8839200Y-1422400D03*
X-7823200Y-1422400D03*
X-9906000Y-2489200D03*
X-8839200Y-2489200D03*
G04 #@! TD*
D13*
G04 #@! TO.N,Net-(ANT1-Pad1)*
X-4775200Y4673600D02*
X-1106800Y4673600D01*
D14*
G04 #@! TO.N,Net-(ANT1-Pad2)*
X6593200Y4673600D02*
X6908800Y4358000D01*
X6908800Y4358000D02*
X6908800Y-1270000D01*
G04 #@! TD*
D15*
G04 #@! TO.N,Net-(ANT1-Pad2)*
G36*
X533800Y-1496460D02*
X78340Y-1496460D01*
X78340Y940200D01*
X533800Y940200D01*
X533800Y-1496460D01*
X533800Y-1496460D01*
G37*
X533800Y-1496460D02*
X78340Y-1496460D01*
X78340Y940200D01*
X533800Y940200D01*
X533800Y-1496460D01*
G36*
X7137800Y-1499000D02*
X75800Y-1499000D01*
X75800Y-1142600D01*
X7137800Y-1142600D01*
X7137800Y-1499000D01*
X7137800Y-1499000D01*
G37*
X7137800Y-1499000D02*
X75800Y-1499000D01*
X75800Y-1142600D01*
X7137800Y-1142600D01*
X7137800Y-1499000D01*
D16*
G04 #@! TO.N,GND*
G36*
X-10141366Y2732587D02*
X-10167750Y2668891D01*
X-10181200Y2601272D01*
X-10181200Y1454300D01*
X-10093700Y1366800D01*
X-8631200Y1366800D01*
X-8631200Y1386800D01*
X-8031200Y1386800D01*
X-8031200Y1366800D01*
X-6568700Y1366800D01*
X-6481200Y1454300D01*
X-6481200Y2601272D01*
X-6494650Y2668891D01*
X-6521034Y2732587D01*
X-6529194Y2744800D01*
X-6094400Y2744800D01*
X-6094400Y-2755089D01*
X-6274833Y-2829827D01*
X-6512321Y-2988511D01*
X-6624210Y-3100400D01*
X-10517200Y-3100400D01*
X-10517200Y679300D01*
X-10181200Y679300D01*
X-10181200Y-467672D01*
X-10167750Y-535291D01*
X-10141366Y-598987D01*
X-10103063Y-656312D01*
X-10054312Y-705063D01*
X-9996987Y-743366D01*
X-9933291Y-769750D01*
X-9865672Y-783200D01*
X-8718700Y-783200D01*
X-8631200Y-695700D01*
X-8631200Y766800D01*
X-8031200Y766800D01*
X-8031200Y-695700D01*
X-7943700Y-783200D01*
X-6796728Y-783200D01*
X-6729109Y-769750D01*
X-6665413Y-743366D01*
X-6608088Y-705063D01*
X-6559337Y-656312D01*
X-6521034Y-598987D01*
X-6494650Y-535291D01*
X-6481200Y-467672D01*
X-6481200Y679300D01*
X-6568700Y766800D01*
X-8031200Y766800D01*
X-8631200Y766800D01*
X-10093700Y766800D01*
X-10181200Y679300D01*
X-10517200Y679300D01*
X-10517200Y2744800D01*
X-10133206Y2744800D01*
X-10141366Y2732587D01*
X-10141366Y2732587D01*
G37*
X-10141366Y2732587D02*
X-10167750Y2668891D01*
X-10181200Y2601272D01*
X-10181200Y1454300D01*
X-10093700Y1366800D01*
X-8631200Y1366800D01*
X-8631200Y1386800D01*
X-8031200Y1386800D01*
X-8031200Y1366800D01*
X-6568700Y1366800D01*
X-6481200Y1454300D01*
X-6481200Y2601272D01*
X-6494650Y2668891D01*
X-6521034Y2732587D01*
X-6529194Y2744800D01*
X-6094400Y2744800D01*
X-6094400Y-2755089D01*
X-6274833Y-2829827D01*
X-6512321Y-2988511D01*
X-6624210Y-3100400D01*
X-10517200Y-3100400D01*
X-10517200Y679300D01*
X-10181200Y679300D01*
X-10181200Y-467672D01*
X-10167750Y-535291D01*
X-10141366Y-598987D01*
X-10103063Y-656312D01*
X-10054312Y-705063D01*
X-9996987Y-743366D01*
X-9933291Y-769750D01*
X-9865672Y-783200D01*
X-8718700Y-783200D01*
X-8631200Y-695700D01*
X-8631200Y766800D01*
X-8031200Y766800D01*
X-8031200Y-695700D01*
X-7943700Y-783200D01*
X-6796728Y-783200D01*
X-6729109Y-769750D01*
X-6665413Y-743366D01*
X-6608088Y-705063D01*
X-6559337Y-656312D01*
X-6521034Y-598987D01*
X-6494650Y-535291D01*
X-6481200Y-467672D01*
X-6481200Y679300D01*
X-6568700Y766800D01*
X-8031200Y766800D01*
X-8631200Y766800D01*
X-10093700Y766800D01*
X-10181200Y679300D01*
X-10517200Y679300D01*
X-10517200Y2744800D01*
X-10133206Y2744800D01*
X-10141366Y2732587D01*
G04 #@! TD*
M02*
