G04 #@! TF.GenerationSoftware,KiCad,Pcbnew,(5.0.0)*
G04 #@! TF.CreationDate,2019-01-09T16:39:41-03:00*
G04 #@! TF.ProjectId,PCB_B,5043425F422E6B696361645F70636200,rev?*
G04 #@! TF.SameCoordinates,Original*
G04 #@! TF.FileFunction,Soldermask,Top*
G04 #@! TF.FilePolarity,Negative*
%FSLAX46Y46*%
G04 Gerber Fmt 4.6, Leading zero omitted, Abs format (unit mm)*
G04 Created by KiCad (PCBNEW (5.0.0)) date 01/09/19 16:39:41*
%MOMM*%
%LPD*%
G01*
G04 APERTURE LIST*
%ADD10C,0.100000*%
G04 APERTURE END LIST*
D10*
G36*
X-3871470Y-24330877D02*
X-3819990Y-24346493D01*
X-3772558Y-24371846D01*
X-3730973Y-24405973D01*
X-3696846Y-24447558D01*
X-3671493Y-24494990D01*
X-3655877Y-24546470D01*
X-3650000Y-24606140D01*
X-3650000Y-25393860D01*
X-3655877Y-25453530D01*
X-3671493Y-25505010D01*
X-3696846Y-25552442D01*
X-3730973Y-25594027D01*
X-3772558Y-25628154D01*
X-3819990Y-25653507D01*
X-3871470Y-25669123D01*
X-3931140Y-25675000D01*
X-4818860Y-25675000D01*
X-4878530Y-25669123D01*
X-4930010Y-25653507D01*
X-4977442Y-25628154D01*
X-5019027Y-25594027D01*
X-5053154Y-25552442D01*
X-5078507Y-25505010D01*
X-5094123Y-25453530D01*
X-5100000Y-25393860D01*
X-5100000Y-24606140D01*
X-5094123Y-24546470D01*
X-5078507Y-24494990D01*
X-5053154Y-24447558D01*
X-5019027Y-24405973D01*
X-4977442Y-24371846D01*
X-4930010Y-24346493D01*
X-4878530Y-24330877D01*
X-4818860Y-24325000D01*
X-3931140Y-24325000D01*
X-3871470Y-24330877D01*
X-3871470Y-24330877D01*
G37*
G36*
X-5621470Y-24330877D02*
X-5569990Y-24346493D01*
X-5522558Y-24371846D01*
X-5480973Y-24405973D01*
X-5446846Y-24447558D01*
X-5421493Y-24494990D01*
X-5405877Y-24546470D01*
X-5400000Y-24606140D01*
X-5400000Y-25393860D01*
X-5405877Y-25453530D01*
X-5421493Y-25505010D01*
X-5446846Y-25552442D01*
X-5480973Y-25594027D01*
X-5522558Y-25628154D01*
X-5569990Y-25653507D01*
X-5621470Y-25669123D01*
X-5681140Y-25675000D01*
X-6568860Y-25675000D01*
X-6628530Y-25669123D01*
X-6680010Y-25653507D01*
X-6727442Y-25628154D01*
X-6769027Y-25594027D01*
X-6803154Y-25552442D01*
X-6828507Y-25505010D01*
X-6844123Y-25453530D01*
X-6850000Y-25393860D01*
X-6850000Y-24606140D01*
X-6844123Y-24546470D01*
X-6828507Y-24494990D01*
X-6803154Y-24447558D01*
X-6769027Y-24405973D01*
X-6727442Y-24371846D01*
X-6680010Y-24346493D01*
X-6628530Y-24330877D01*
X-6568860Y-24325000D01*
X-5681140Y-24325000D01*
X-5621470Y-24330877D01*
X-5621470Y-24330877D01*
G37*
G36*
X5110870Y-22405973D02*
X5303115Y-22444212D01*
X5494203Y-22523364D01*
X5666177Y-22638273D01*
X5812430Y-22784526D01*
X5927339Y-22956500D01*
X6006491Y-23147588D01*
X6046841Y-23350446D01*
X6046841Y-23557278D01*
X6006491Y-23760136D01*
X5927339Y-23951224D01*
X5812430Y-24123198D01*
X5666177Y-24269451D01*
X5494203Y-24384360D01*
X5303115Y-24463512D01*
X5122729Y-24499392D01*
X5100258Y-24503862D01*
X4893424Y-24503862D01*
X4870953Y-24499392D01*
X4690567Y-24463512D01*
X4499479Y-24384360D01*
X4327505Y-24269451D01*
X4181252Y-24123198D01*
X4066343Y-23951224D01*
X3987191Y-23760136D01*
X3946841Y-23557278D01*
X3946841Y-23350446D01*
X3987191Y-23147588D01*
X4066343Y-22956500D01*
X4181252Y-22784526D01*
X4327505Y-22638273D01*
X4499479Y-22523364D01*
X4690567Y-22444212D01*
X4882812Y-22405973D01*
X4893424Y-22403862D01*
X5100258Y-22403862D01*
X5110870Y-22405973D01*
X5110870Y-22405973D01*
G37*
G36*
X-5621470Y-22330877D02*
X-5569990Y-22346493D01*
X-5522558Y-22371846D01*
X-5480973Y-22405973D01*
X-5446846Y-22447558D01*
X-5421493Y-22494990D01*
X-5405877Y-22546470D01*
X-5400000Y-22606140D01*
X-5400000Y-23393860D01*
X-5405877Y-23453530D01*
X-5421493Y-23505010D01*
X-5446846Y-23552442D01*
X-5480973Y-23594027D01*
X-5522558Y-23628154D01*
X-5569990Y-23653507D01*
X-5621470Y-23669123D01*
X-5681140Y-23675000D01*
X-6568860Y-23675000D01*
X-6628530Y-23669123D01*
X-6680010Y-23653507D01*
X-6727442Y-23628154D01*
X-6769027Y-23594027D01*
X-6803154Y-23552442D01*
X-6828507Y-23505010D01*
X-6844123Y-23453530D01*
X-6850000Y-23393860D01*
X-6850000Y-22606140D01*
X-6844123Y-22546470D01*
X-6828507Y-22494990D01*
X-6803154Y-22447558D01*
X-6769027Y-22405973D01*
X-6727442Y-22371846D01*
X-6680010Y-22346493D01*
X-6628530Y-22330877D01*
X-6568860Y-22325000D01*
X-5681140Y-22325000D01*
X-5621470Y-22330877D01*
X-5621470Y-22330877D01*
G37*
G36*
X-3871470Y-22330877D02*
X-3819990Y-22346493D01*
X-3772558Y-22371846D01*
X-3730973Y-22405973D01*
X-3696846Y-22447558D01*
X-3671493Y-22494990D01*
X-3655877Y-22546470D01*
X-3650000Y-22606140D01*
X-3650000Y-23393860D01*
X-3655877Y-23453530D01*
X-3671493Y-23505010D01*
X-3696846Y-23552442D01*
X-3730973Y-23594027D01*
X-3772558Y-23628154D01*
X-3819990Y-23653507D01*
X-3871470Y-23669123D01*
X-3931140Y-23675000D01*
X-4818860Y-23675000D01*
X-4878530Y-23669123D01*
X-4930010Y-23653507D01*
X-4977442Y-23628154D01*
X-5019027Y-23594027D01*
X-5053154Y-23552442D01*
X-5078507Y-23505010D01*
X-5094123Y-23453530D01*
X-5100000Y-23393860D01*
X-5100000Y-22606140D01*
X-5094123Y-22546470D01*
X-5078507Y-22494990D01*
X-5053154Y-22447558D01*
X-5019027Y-22405973D01*
X-4977442Y-22371846D01*
X-4930010Y-22346493D01*
X-4878530Y-22330877D01*
X-4818860Y-22325000D01*
X-3931140Y-22325000D01*
X-3871470Y-22330877D01*
X-3871470Y-22330877D01*
G37*
G36*
X962574Y-17026817D02*
X1563135Y-17275577D01*
X2103630Y-17636725D01*
X2563275Y-18096370D01*
X2924423Y-18636865D01*
X3173183Y-19237426D01*
X3300000Y-19874977D01*
X3300000Y-20525023D01*
X3173183Y-21162574D01*
X2924423Y-21763135D01*
X2563275Y-22303630D01*
X2103630Y-22763275D01*
X1563135Y-23124423D01*
X962574Y-23373183D01*
X325023Y-23500000D01*
X-325023Y-23500000D01*
X-962574Y-23373183D01*
X-1563135Y-23124423D01*
X-2103630Y-22763275D01*
X-2563275Y-22303630D01*
X-2924423Y-21763135D01*
X-3173183Y-21162574D01*
X-3300000Y-20525023D01*
X-3300000Y-19874977D01*
X-3173183Y-19237426D01*
X-2924423Y-18636865D01*
X-2563275Y-18096370D01*
X-2103630Y-17636725D01*
X-1563135Y-17275577D01*
X-962574Y-17026817D01*
X-325023Y-16900000D01*
X325023Y-16900000D01*
X962574Y-17026817D01*
X962574Y-17026817D01*
G37*
G36*
X5125548Y-19871458D02*
X5202677Y-19879055D01*
X5334628Y-19919082D01*
X5400604Y-19939095D01*
X5583013Y-20036595D01*
X5742895Y-20167808D01*
X5874108Y-20327690D01*
X5971608Y-20510099D01*
X5971608Y-20510100D01*
X6031648Y-20708026D01*
X6051921Y-20913862D01*
X6031648Y-21119698D01*
X6007299Y-21199965D01*
X5971608Y-21317625D01*
X5874108Y-21500034D01*
X5742895Y-21659916D01*
X5583013Y-21791129D01*
X5400604Y-21888629D01*
X5334628Y-21908642D01*
X5202677Y-21948669D01*
X5125548Y-21956265D01*
X5048421Y-21963862D01*
X4945261Y-21963862D01*
X4868134Y-21956265D01*
X4791005Y-21948669D01*
X4659054Y-21908642D01*
X4593078Y-21888629D01*
X4410669Y-21791129D01*
X4250787Y-21659916D01*
X4119574Y-21500034D01*
X4022074Y-21317625D01*
X3986383Y-21199965D01*
X3962034Y-21119698D01*
X3941761Y-20913862D01*
X3962034Y-20708026D01*
X4022074Y-20510100D01*
X4022074Y-20510099D01*
X4119574Y-20327690D01*
X4250787Y-20167808D01*
X4410669Y-20036595D01*
X4593078Y-19939095D01*
X4659054Y-19919082D01*
X4791005Y-19879055D01*
X4868134Y-19871458D01*
X4945261Y-19863862D01*
X5048421Y-19863862D01*
X5125548Y-19871458D01*
X5125548Y-19871458D01*
G37*
G36*
X-3775000Y-21680000D02*
X-4825000Y-21680000D01*
X-4825000Y-20220000D01*
X-3775000Y-20220000D01*
X-3775000Y-21680000D01*
X-3775000Y-21680000D01*
G37*
G36*
X-5675000Y-21680000D02*
X-6725000Y-21680000D01*
X-6725000Y-20220000D01*
X-5675000Y-20220000D01*
X-5675000Y-21680000D01*
X-5675000Y-21680000D01*
G37*
G36*
X8367721Y-20374697D02*
X8472364Y-20418041D01*
X8566544Y-20480970D01*
X8646630Y-20561056D01*
X8709559Y-20655236D01*
X8731425Y-20708026D01*
X8752903Y-20759879D01*
X8775000Y-20870967D01*
X8775000Y-20984233D01*
X8760921Y-21055010D01*
X8752903Y-21095321D01*
X8709559Y-21199964D01*
X8646630Y-21294144D01*
X8566544Y-21374230D01*
X8472364Y-21437159D01*
X8367721Y-21480503D01*
X8256633Y-21502600D01*
X8143367Y-21502600D01*
X8032279Y-21480503D01*
X7927636Y-21437159D01*
X7833456Y-21374230D01*
X7753370Y-21294144D01*
X7690441Y-21199964D01*
X7647097Y-21095321D01*
X7639079Y-21055010D01*
X7625000Y-20984233D01*
X7625000Y-20870967D01*
X7647097Y-20759879D01*
X7668575Y-20708026D01*
X7690441Y-20655236D01*
X7753370Y-20561056D01*
X7833456Y-20480970D01*
X7927636Y-20418041D01*
X8032279Y-20374697D01*
X8143367Y-20352600D01*
X8256633Y-20352600D01*
X8367721Y-20374697D01*
X8367721Y-20374697D01*
G37*
G36*
X-7796470Y-19780877D02*
X-7744990Y-19796493D01*
X-7697558Y-19821846D01*
X-7655973Y-19855973D01*
X-7621846Y-19897558D01*
X-7596493Y-19944990D01*
X-7580877Y-19996470D01*
X-7575000Y-20056140D01*
X-7575000Y-20943860D01*
X-7580877Y-21003530D01*
X-7596493Y-21055010D01*
X-7621846Y-21102442D01*
X-7655973Y-21144027D01*
X-7697558Y-21178154D01*
X-7744990Y-21203507D01*
X-7796470Y-21219123D01*
X-7856140Y-21225000D01*
X-8643860Y-21225000D01*
X-8703530Y-21219123D01*
X-8755010Y-21203507D01*
X-8802442Y-21178154D01*
X-8844027Y-21144027D01*
X-8878154Y-21102442D01*
X-8903507Y-21055010D01*
X-8919123Y-21003530D01*
X-8925000Y-20943860D01*
X-8925000Y-20056140D01*
X-8919123Y-19996470D01*
X-8903507Y-19944990D01*
X-8878154Y-19897558D01*
X-8844027Y-19855973D01*
X-8802442Y-19821846D01*
X-8755010Y-19796493D01*
X-8703530Y-19780877D01*
X-8643860Y-19775000D01*
X-7856140Y-19775000D01*
X-7796470Y-19780877D01*
X-7796470Y-19780877D01*
G37*
G36*
X-11296470Y-19780877D02*
X-11244990Y-19796493D01*
X-11197558Y-19821846D01*
X-11155973Y-19855973D01*
X-11121846Y-19897558D01*
X-11096493Y-19944990D01*
X-11080877Y-19996470D01*
X-11075000Y-20056140D01*
X-11075000Y-20943860D01*
X-11080877Y-21003530D01*
X-11096493Y-21055010D01*
X-11121846Y-21102442D01*
X-11155973Y-21144027D01*
X-11197558Y-21178154D01*
X-11244990Y-21203507D01*
X-11296470Y-21219123D01*
X-11356140Y-21225000D01*
X-12143860Y-21225000D01*
X-12203530Y-21219123D01*
X-12255010Y-21203507D01*
X-12302442Y-21178154D01*
X-12344027Y-21144027D01*
X-12378154Y-21102442D01*
X-12403507Y-21055010D01*
X-12419123Y-21003530D01*
X-12425000Y-20943860D01*
X-12425000Y-20056140D01*
X-12419123Y-19996470D01*
X-12403507Y-19944990D01*
X-12378154Y-19897558D01*
X-12344027Y-19855973D01*
X-12302442Y-19821846D01*
X-12255010Y-19796493D01*
X-12203530Y-19780877D01*
X-12143860Y-19775000D01*
X-11356140Y-19775000D01*
X-11296470Y-19780877D01*
X-11296470Y-19780877D01*
G37*
G36*
X-3775000Y-19480000D02*
X-6725000Y-19480000D01*
X-6725000Y-18020000D01*
X-3775000Y-18020000D01*
X-3775000Y-19480000D01*
X-3775000Y-19480000D01*
G37*
G36*
X-11296470Y-18030877D02*
X-11244990Y-18046493D01*
X-11197558Y-18071846D01*
X-11155973Y-18105973D01*
X-11121846Y-18147558D01*
X-11096493Y-18194990D01*
X-11080877Y-18246470D01*
X-11075000Y-18306140D01*
X-11075000Y-19193860D01*
X-11080877Y-19253530D01*
X-11096493Y-19305010D01*
X-11121846Y-19352442D01*
X-11155973Y-19394027D01*
X-11197558Y-19428154D01*
X-11244990Y-19453507D01*
X-11296470Y-19469123D01*
X-11356140Y-19475000D01*
X-12143860Y-19475000D01*
X-12203530Y-19469123D01*
X-12255010Y-19453507D01*
X-12302442Y-19428154D01*
X-12344027Y-19394027D01*
X-12378154Y-19352442D01*
X-12403507Y-19305010D01*
X-12419123Y-19253530D01*
X-12425000Y-19193860D01*
X-12425000Y-18306140D01*
X-12419123Y-18246470D01*
X-12403507Y-18194990D01*
X-12378154Y-18147558D01*
X-12344027Y-18105973D01*
X-12302442Y-18071846D01*
X-12255010Y-18046493D01*
X-12203530Y-18030877D01*
X-12143860Y-18025000D01*
X-11356140Y-18025000D01*
X-11296470Y-18030877D01*
X-11296470Y-18030877D01*
G37*
G36*
X-7796470Y-18030877D02*
X-7744990Y-18046493D01*
X-7697558Y-18071846D01*
X-7655973Y-18105973D01*
X-7621846Y-18147558D01*
X-7596493Y-18194990D01*
X-7580877Y-18246470D01*
X-7575000Y-18306140D01*
X-7575000Y-19193860D01*
X-7580877Y-19253530D01*
X-7596493Y-19305010D01*
X-7621846Y-19352442D01*
X-7655973Y-19394027D01*
X-7697558Y-19428154D01*
X-7744990Y-19453507D01*
X-7796470Y-19469123D01*
X-7856140Y-19475000D01*
X-8643860Y-19475000D01*
X-8703530Y-19469123D01*
X-8755010Y-19453507D01*
X-8802442Y-19428154D01*
X-8844027Y-19394027D01*
X-8878154Y-19352442D01*
X-8903507Y-19305010D01*
X-8919123Y-19253530D01*
X-8925000Y-19193860D01*
X-8925000Y-18306140D01*
X-8919123Y-18246470D01*
X-8903507Y-18194990D01*
X-8878154Y-18147558D01*
X-8844027Y-18105973D01*
X-8802442Y-18071846D01*
X-8755010Y-18046493D01*
X-8703530Y-18030877D01*
X-8643860Y-18025000D01*
X-7856140Y-18025000D01*
X-7796470Y-18030877D01*
X-7796470Y-18030877D01*
G37*
G36*
X5093916Y-17328343D02*
X5202677Y-17339055D01*
X5332809Y-17378530D01*
X5400604Y-17399095D01*
X5583013Y-17496595D01*
X5742895Y-17627808D01*
X5874108Y-17787690D01*
X5971608Y-17970099D01*
X5986745Y-18020000D01*
X6031648Y-18168026D01*
X6051921Y-18373862D01*
X6031648Y-18579698D01*
X5991621Y-18711649D01*
X5971608Y-18777625D01*
X5874108Y-18960034D01*
X5742895Y-19119916D01*
X5583013Y-19251129D01*
X5400604Y-19348629D01*
X5334628Y-19368642D01*
X5202677Y-19408669D01*
X5125548Y-19416266D01*
X5048421Y-19423862D01*
X4945261Y-19423862D01*
X4868134Y-19416266D01*
X4791005Y-19408669D01*
X4659054Y-19368642D01*
X4593078Y-19348629D01*
X4410669Y-19251129D01*
X4250787Y-19119916D01*
X4119574Y-18960034D01*
X4022074Y-18777625D01*
X4002061Y-18711649D01*
X3962034Y-18579698D01*
X3941761Y-18373862D01*
X3962034Y-18168026D01*
X4006937Y-18020000D01*
X4022074Y-17970099D01*
X4119574Y-17787690D01*
X4250787Y-17627808D01*
X4410669Y-17496595D01*
X4593078Y-17399095D01*
X4660873Y-17378530D01*
X4791005Y-17339055D01*
X4899766Y-17328343D01*
X4945261Y-17323862D01*
X5048421Y-17323862D01*
X5093916Y-17328343D01*
X5093916Y-17328343D01*
G37*
G36*
X-9546470Y-17905877D02*
X-9494990Y-17921493D01*
X-9447558Y-17946846D01*
X-9405973Y-17980973D01*
X-9371846Y-18022558D01*
X-9346493Y-18069990D01*
X-9330877Y-18121470D01*
X-9325000Y-18181140D01*
X-9325000Y-19068860D01*
X-9330877Y-19128530D01*
X-9346493Y-19180010D01*
X-9371846Y-19227442D01*
X-9405973Y-19269027D01*
X-9447558Y-19303154D01*
X-9494990Y-19328507D01*
X-9546470Y-19344123D01*
X-9606140Y-19350000D01*
X-10393860Y-19350000D01*
X-10453530Y-19344123D01*
X-10505010Y-19328507D01*
X-10552442Y-19303154D01*
X-10594027Y-19269027D01*
X-10628154Y-19227442D01*
X-10653507Y-19180010D01*
X-10669123Y-19128530D01*
X-10675000Y-19068860D01*
X-10675000Y-18181140D01*
X-10669123Y-18121470D01*
X-10653507Y-18069990D01*
X-10628154Y-18022558D01*
X-10594027Y-17980973D01*
X-10552442Y-17946846D01*
X-10505010Y-17921493D01*
X-10453530Y-17905877D01*
X-10393860Y-17900000D01*
X-9606140Y-17900000D01*
X-9546470Y-17905877D01*
X-9546470Y-17905877D01*
G37*
G36*
X-9546470Y-16155877D02*
X-9494990Y-16171493D01*
X-9447558Y-16196846D01*
X-9405973Y-16230973D01*
X-9371846Y-16272558D01*
X-9346493Y-16319990D01*
X-9330877Y-16371470D01*
X-9325000Y-16431140D01*
X-9325000Y-17318860D01*
X-9330877Y-17378530D01*
X-9346493Y-17430010D01*
X-9371846Y-17477442D01*
X-9405973Y-17519027D01*
X-9447558Y-17553154D01*
X-9494990Y-17578507D01*
X-9546470Y-17594123D01*
X-9606140Y-17600000D01*
X-10393860Y-17600000D01*
X-10453530Y-17594123D01*
X-10505010Y-17578507D01*
X-10552442Y-17553154D01*
X-10594027Y-17519027D01*
X-10628154Y-17477442D01*
X-10653507Y-17430010D01*
X-10669123Y-17378530D01*
X-10675000Y-17318860D01*
X-10675000Y-16431140D01*
X-10669123Y-16371470D01*
X-10653507Y-16319990D01*
X-10628154Y-16272558D01*
X-10594027Y-16230973D01*
X-10552442Y-16196846D01*
X-10505010Y-16171493D01*
X-10453530Y-16155877D01*
X-10393860Y-16150000D01*
X-9606140Y-16150000D01*
X-9546470Y-16155877D01*
X-9546470Y-16155877D01*
G37*
G36*
X-3871470Y-15580877D02*
X-3819990Y-15596493D01*
X-3772558Y-15621846D01*
X-3730973Y-15655973D01*
X-3696846Y-15697558D01*
X-3671493Y-15744990D01*
X-3655877Y-15796470D01*
X-3650000Y-15856140D01*
X-3650000Y-16643860D01*
X-3655877Y-16703530D01*
X-3671493Y-16755010D01*
X-3696846Y-16802442D01*
X-3730973Y-16844027D01*
X-3772558Y-16878154D01*
X-3819990Y-16903507D01*
X-3871470Y-16919123D01*
X-3931140Y-16925000D01*
X-4818860Y-16925000D01*
X-4878530Y-16919123D01*
X-4930010Y-16903507D01*
X-4977442Y-16878154D01*
X-5019027Y-16844027D01*
X-5053154Y-16802442D01*
X-5078507Y-16755010D01*
X-5094123Y-16703530D01*
X-5100000Y-16643860D01*
X-5100000Y-15856140D01*
X-5094123Y-15796470D01*
X-5078507Y-15744990D01*
X-5053154Y-15697558D01*
X-5019027Y-15655973D01*
X-4977442Y-15621846D01*
X-4930010Y-15596493D01*
X-4878530Y-15580877D01*
X-4818860Y-15575000D01*
X-3931140Y-15575000D01*
X-3871470Y-15580877D01*
X-3871470Y-15580877D01*
G37*
G36*
X-5621470Y-15580877D02*
X-5569990Y-15596493D01*
X-5522558Y-15621846D01*
X-5480973Y-15655973D01*
X-5446846Y-15697558D01*
X-5421493Y-15744990D01*
X-5405877Y-15796470D01*
X-5400000Y-15856140D01*
X-5400000Y-16643860D01*
X-5405877Y-16703530D01*
X-5421493Y-16755010D01*
X-5446846Y-16802442D01*
X-5480973Y-16844027D01*
X-5522558Y-16878154D01*
X-5569990Y-16903507D01*
X-5621470Y-16919123D01*
X-5681140Y-16925000D01*
X-6568860Y-16925000D01*
X-6628530Y-16919123D01*
X-6680010Y-16903507D01*
X-6727442Y-16878154D01*
X-6769027Y-16844027D01*
X-6803154Y-16802442D01*
X-6828507Y-16755010D01*
X-6844123Y-16703530D01*
X-6850000Y-16643860D01*
X-6850000Y-15856140D01*
X-6844123Y-15796470D01*
X-6828507Y-15744990D01*
X-6803154Y-15697558D01*
X-6769027Y-15655973D01*
X-6727442Y-15621846D01*
X-6680010Y-15596493D01*
X-6628530Y-15580877D01*
X-6568860Y-15575000D01*
X-5681140Y-15575000D01*
X-5621470Y-15580877D01*
X-5621470Y-15580877D01*
G37*
G36*
X9652983Y-14526900D02*
X9780374Y-14579668D01*
X9895024Y-14656274D01*
X9992526Y-14753776D01*
X10048240Y-14837159D01*
X10069132Y-14868426D01*
X10121900Y-14995817D01*
X10148800Y-15131055D01*
X10148800Y-15268945D01*
X10121900Y-15404183D01*
X10073512Y-15521000D01*
X10069132Y-15531574D01*
X10008815Y-15621846D01*
X9992525Y-15646225D01*
X9895025Y-15743725D01*
X9780374Y-15820332D01*
X9652983Y-15873100D01*
X9517745Y-15900000D01*
X9379855Y-15900000D01*
X9244617Y-15873100D01*
X9117226Y-15820332D01*
X9002575Y-15743725D01*
X8905075Y-15646225D01*
X8888786Y-15621846D01*
X8828468Y-15531574D01*
X8824088Y-15521000D01*
X8775700Y-15404183D01*
X8748800Y-15268945D01*
X8748800Y-15131055D01*
X8775700Y-14995817D01*
X8828467Y-14868427D01*
X8840476Y-14850454D01*
X8852027Y-14828843D01*
X8859140Y-14805394D01*
X8861356Y-14782896D01*
X8862997Y-14782398D01*
X8884608Y-14770846D01*
X8903549Y-14755301D01*
X9002575Y-14656275D01*
X9117226Y-14579668D01*
X9244617Y-14526900D01*
X9379855Y-14500000D01*
X9517745Y-14500000D01*
X9652983Y-14526900D01*
X9652983Y-14526900D01*
G37*
G36*
X-9496470Y-14330877D02*
X-9444990Y-14346493D01*
X-9397558Y-14371846D01*
X-9355973Y-14405973D01*
X-9321846Y-14447558D01*
X-9296493Y-14494990D01*
X-9280877Y-14546470D01*
X-9275000Y-14606140D01*
X-9275000Y-15393860D01*
X-9280877Y-15453530D01*
X-9296493Y-15505010D01*
X-9321846Y-15552442D01*
X-9355973Y-15594027D01*
X-9397558Y-15628154D01*
X-9444990Y-15653507D01*
X-9496470Y-15669123D01*
X-9556140Y-15675000D01*
X-10443860Y-15675000D01*
X-10503530Y-15669123D01*
X-10555010Y-15653507D01*
X-10602442Y-15628154D01*
X-10644027Y-15594027D01*
X-10678154Y-15552442D01*
X-10703507Y-15505010D01*
X-10719123Y-15453530D01*
X-10725000Y-15393860D01*
X-10725000Y-14606140D01*
X-10719123Y-14546470D01*
X-10703507Y-14494990D01*
X-10678154Y-14447558D01*
X-10644027Y-14405973D01*
X-10602442Y-14371846D01*
X-10555010Y-14346493D01*
X-10503530Y-14330877D01*
X-10443860Y-14325000D01*
X-9556140Y-14325000D01*
X-9496470Y-14330877D01*
X-9496470Y-14330877D01*
G37*
G36*
X-7746470Y-14330877D02*
X-7694990Y-14346493D01*
X-7647558Y-14371846D01*
X-7605973Y-14405973D01*
X-7571846Y-14447558D01*
X-7546493Y-14494990D01*
X-7530877Y-14546470D01*
X-7525000Y-14606140D01*
X-7525000Y-15393860D01*
X-7530877Y-15453530D01*
X-7546493Y-15505010D01*
X-7571846Y-15552442D01*
X-7605973Y-15594027D01*
X-7647558Y-15628154D01*
X-7694990Y-15653507D01*
X-7746470Y-15669123D01*
X-7806140Y-15675000D01*
X-8693860Y-15675000D01*
X-8753530Y-15669123D01*
X-8805010Y-15653507D01*
X-8852442Y-15628154D01*
X-8894027Y-15594027D01*
X-8928154Y-15552442D01*
X-8953507Y-15505010D01*
X-8969123Y-15453530D01*
X-8975000Y-15393860D01*
X-8975000Y-14606140D01*
X-8969123Y-14546470D01*
X-8953507Y-14494990D01*
X-8928154Y-14447558D01*
X-8894027Y-14405973D01*
X-8852442Y-14371846D01*
X-8805010Y-14346493D01*
X-8753530Y-14330877D01*
X-8693860Y-14325000D01*
X-7806140Y-14325000D01*
X-7746470Y-14330877D01*
X-7746470Y-14330877D01*
G37*
G36*
X5254653Y-13826397D02*
X5301440Y-13840589D01*
X5344558Y-13863637D01*
X5382349Y-13894651D01*
X5413363Y-13932442D01*
X5436411Y-13975560D01*
X5450603Y-14022347D01*
X5456000Y-14077141D01*
X5456000Y-15264859D01*
X5450603Y-15319653D01*
X5436411Y-15366440D01*
X5413363Y-15409558D01*
X5382349Y-15447349D01*
X5344558Y-15478363D01*
X5301440Y-15501411D01*
X5254653Y-15515603D01*
X5199859Y-15521000D01*
X1912141Y-15521000D01*
X1857347Y-15515603D01*
X1810560Y-15501411D01*
X1767442Y-15478363D01*
X1729651Y-15447349D01*
X1698637Y-15409558D01*
X1675589Y-15366440D01*
X1661397Y-15319653D01*
X1656000Y-15264859D01*
X1656000Y-14077141D01*
X1661397Y-14022347D01*
X1675589Y-13975560D01*
X1698637Y-13932442D01*
X1729651Y-13894651D01*
X1767442Y-13863637D01*
X1810560Y-13840589D01*
X1857347Y-13826397D01*
X1912141Y-13821000D01*
X5199859Y-13821000D01*
X5254653Y-13826397D01*
X5254653Y-13826397D01*
G37*
G36*
X-5621470Y-13830877D02*
X-5569990Y-13846493D01*
X-5522558Y-13871846D01*
X-5480973Y-13905973D01*
X-5446846Y-13947558D01*
X-5421493Y-13994990D01*
X-5405877Y-14046470D01*
X-5400000Y-14106140D01*
X-5400000Y-14893860D01*
X-5405877Y-14953530D01*
X-5421493Y-15005010D01*
X-5446846Y-15052442D01*
X-5480973Y-15094027D01*
X-5522558Y-15128154D01*
X-5569990Y-15153507D01*
X-5621470Y-15169123D01*
X-5681140Y-15175000D01*
X-6568860Y-15175000D01*
X-6628530Y-15169123D01*
X-6680010Y-15153507D01*
X-6727442Y-15128154D01*
X-6769027Y-15094027D01*
X-6803154Y-15052442D01*
X-6828507Y-15005010D01*
X-6844123Y-14953530D01*
X-6850000Y-14893860D01*
X-6850000Y-14106140D01*
X-6844123Y-14046470D01*
X-6828507Y-13994990D01*
X-6803154Y-13947558D01*
X-6769027Y-13905973D01*
X-6727442Y-13871846D01*
X-6680010Y-13846493D01*
X-6628530Y-13830877D01*
X-6568860Y-13825000D01*
X-5681140Y-13825000D01*
X-5621470Y-13830877D01*
X-5621470Y-13830877D01*
G37*
G36*
X-3871470Y-13830877D02*
X-3819990Y-13846493D01*
X-3772558Y-13871846D01*
X-3730973Y-13905973D01*
X-3696846Y-13947558D01*
X-3671493Y-13994990D01*
X-3655877Y-14046470D01*
X-3650000Y-14106140D01*
X-3650000Y-14893860D01*
X-3655877Y-14953530D01*
X-3671493Y-15005010D01*
X-3696846Y-15052442D01*
X-3730973Y-15094027D01*
X-3772558Y-15128154D01*
X-3819990Y-15153507D01*
X-3871470Y-15169123D01*
X-3931140Y-15175000D01*
X-4818860Y-15175000D01*
X-4878530Y-15169123D01*
X-4930010Y-15153507D01*
X-4977442Y-15128154D01*
X-5019027Y-15094027D01*
X-5053154Y-15052442D01*
X-5078507Y-15005010D01*
X-5094123Y-14953530D01*
X-5100000Y-14893860D01*
X-5100000Y-14106140D01*
X-5094123Y-14046470D01*
X-5078507Y-13994990D01*
X-5053154Y-13947558D01*
X-5019027Y-13905973D01*
X-4977442Y-13871846D01*
X-4930010Y-13846493D01*
X-4878530Y-13830877D01*
X-4818860Y-13825000D01*
X-3931140Y-13825000D01*
X-3871470Y-13830877D01*
X-3871470Y-13830877D01*
G37*
G36*
X8282292Y-13757704D02*
X8367721Y-13774697D01*
X8472364Y-13818041D01*
X8566544Y-13880970D01*
X8646630Y-13961056D01*
X8709559Y-14055236D01*
X8726716Y-14096657D01*
X8752903Y-14159879D01*
X8775000Y-14270967D01*
X8775000Y-14384233D01*
X8752903Y-14495321D01*
X8739823Y-14526900D01*
X8708409Y-14602738D01*
X8699676Y-14619078D01*
X8692563Y-14642527D01*
X8690347Y-14665026D01*
X8688707Y-14665523D01*
X8667096Y-14677074D01*
X8648154Y-14692620D01*
X8566544Y-14774230D01*
X8472364Y-14837159D01*
X8396875Y-14868427D01*
X8367721Y-14880503D01*
X8256633Y-14902600D01*
X8143367Y-14902600D01*
X8032279Y-14880503D01*
X8003125Y-14868427D01*
X7927636Y-14837159D01*
X7833456Y-14774230D01*
X7753370Y-14694144D01*
X7690441Y-14599964D01*
X7647097Y-14495321D01*
X7632881Y-14423851D01*
X7625000Y-14384233D01*
X7625000Y-14270967D01*
X7647097Y-14159879D01*
X7673284Y-14096657D01*
X7690441Y-14055236D01*
X7753370Y-13961056D01*
X7833456Y-13880970D01*
X7927636Y-13818041D01*
X8032279Y-13774697D01*
X8117708Y-13757704D01*
X8143367Y-13752600D01*
X8256633Y-13752600D01*
X8282292Y-13757704D01*
X8282292Y-13757704D01*
G37*
G36*
X-11664470Y-12105710D02*
X-11614621Y-12120831D01*
X-11568689Y-12145382D01*
X-11528426Y-12178426D01*
X-11495382Y-12218689D01*
X-11470831Y-12264621D01*
X-11455710Y-12314470D01*
X-11450000Y-12372444D01*
X-11450000Y-13627556D01*
X-11455710Y-13685530D01*
X-11470831Y-13735379D01*
X-11495382Y-13781311D01*
X-11528426Y-13821574D01*
X-11568689Y-13854618D01*
X-11614621Y-13879169D01*
X-11664470Y-13894290D01*
X-11722444Y-13900000D01*
X-12727556Y-13900000D01*
X-12785530Y-13894290D01*
X-12835379Y-13879169D01*
X-12881311Y-13854618D01*
X-12921574Y-13821574D01*
X-12954618Y-13781311D01*
X-12979169Y-13735379D01*
X-12994290Y-13685530D01*
X-13000000Y-13627556D01*
X-13000000Y-12372444D01*
X-12994290Y-12314470D01*
X-12979169Y-12264621D01*
X-12954618Y-12218689D01*
X-12921574Y-12178426D01*
X-12881311Y-12145382D01*
X-12835379Y-12120831D01*
X-12785530Y-12105710D01*
X-12727556Y-12100000D01*
X-11722444Y-12100000D01*
X-11664470Y-12105710D01*
X-11664470Y-12105710D01*
G37*
G36*
X-13714470Y-12105710D02*
X-13664621Y-12120831D01*
X-13618689Y-12145382D01*
X-13578426Y-12178426D01*
X-13545382Y-12218689D01*
X-13520831Y-12264621D01*
X-13505710Y-12314470D01*
X-13500000Y-12372444D01*
X-13500000Y-13627556D01*
X-13505710Y-13685530D01*
X-13520831Y-13735379D01*
X-13545382Y-13781311D01*
X-13578426Y-13821574D01*
X-13618689Y-13854618D01*
X-13664621Y-13879169D01*
X-13714470Y-13894290D01*
X-13772444Y-13900000D01*
X-14777556Y-13900000D01*
X-14835530Y-13894290D01*
X-14885379Y-13879169D01*
X-14931311Y-13854618D01*
X-14971574Y-13821574D01*
X-15004618Y-13781311D01*
X-15029169Y-13735379D01*
X-15044290Y-13685530D01*
X-15050000Y-13627556D01*
X-15050000Y-12372444D01*
X-15044290Y-12314470D01*
X-15029169Y-12264621D01*
X-15004618Y-12218689D01*
X-14971574Y-12178426D01*
X-14931311Y-12145382D01*
X-14885379Y-12120831D01*
X-14835530Y-12105710D01*
X-14777556Y-12100000D01*
X-13772444Y-12100000D01*
X-13714470Y-12105710D01*
X-13714470Y-12105710D01*
G37*
G36*
X-7546470Y-11655877D02*
X-7494990Y-11671493D01*
X-7447558Y-11696846D01*
X-7405973Y-11730973D01*
X-7371846Y-11772558D01*
X-7346493Y-11819990D01*
X-7330877Y-11871470D01*
X-7325000Y-11931140D01*
X-7325000Y-12818860D01*
X-7330877Y-12878530D01*
X-7346493Y-12930010D01*
X-7371846Y-12977442D01*
X-7405973Y-13019027D01*
X-7447558Y-13053154D01*
X-7494990Y-13078507D01*
X-7546470Y-13094123D01*
X-7606140Y-13100000D01*
X-8393860Y-13100000D01*
X-8453530Y-13094123D01*
X-8505010Y-13078507D01*
X-8552442Y-13053154D01*
X-8594027Y-13019027D01*
X-8628154Y-12977442D01*
X-8653507Y-12930010D01*
X-8669123Y-12878530D01*
X-8675602Y-12812748D01*
X-8680383Y-12788714D01*
X-8689760Y-12766075D01*
X-8703374Y-12745701D01*
X-8720701Y-12728374D01*
X-8741076Y-12714760D01*
X-8763715Y-12705382D01*
X-8787748Y-12700602D01*
X-8812252Y-12700602D01*
X-8836286Y-12705383D01*
X-8858925Y-12714760D01*
X-8879299Y-12728374D01*
X-8896626Y-12745701D01*
X-8910240Y-12766076D01*
X-8919618Y-12788715D01*
X-8925000Y-12825000D01*
X-8925000Y-13654825D01*
X-8930186Y-13707482D01*
X-8943753Y-13752204D01*
X-8965790Y-13793433D01*
X-8995439Y-13829561D01*
X-9031567Y-13859210D01*
X-9072796Y-13881247D01*
X-9117518Y-13894814D01*
X-9170175Y-13900000D01*
X-10829825Y-13900000D01*
X-10882482Y-13894814D01*
X-10927204Y-13881247D01*
X-10968433Y-13859210D01*
X-11004561Y-13829561D01*
X-11034210Y-13793433D01*
X-11056247Y-13752204D01*
X-11069814Y-13707482D01*
X-11075000Y-13654825D01*
X-11075000Y-12320175D01*
X-11069814Y-12267518D01*
X-11056247Y-12222796D01*
X-11034210Y-12181567D01*
X-11004561Y-12145439D01*
X-10968433Y-12115790D01*
X-10927204Y-12093753D01*
X-10882482Y-12080186D01*
X-10829825Y-12075000D01*
X-9170175Y-12075000D01*
X-9117518Y-12080186D01*
X-9072796Y-12093753D01*
X-9031567Y-12115790D01*
X-8995439Y-12145439D01*
X-8965790Y-12181567D01*
X-8943753Y-12222796D01*
X-8930186Y-12267518D01*
X-8924398Y-12326287D01*
X-8919617Y-12350321D01*
X-8910240Y-12372960D01*
X-8896626Y-12393334D01*
X-8879299Y-12410661D01*
X-8858924Y-12424275D01*
X-8836285Y-12433653D01*
X-8812252Y-12438433D01*
X-8787748Y-12438433D01*
X-8763714Y-12433652D01*
X-8741075Y-12424275D01*
X-8720701Y-12410661D01*
X-8703374Y-12393334D01*
X-8689760Y-12372959D01*
X-8680382Y-12350320D01*
X-8675000Y-12314035D01*
X-8675000Y-11931140D01*
X-8669123Y-11871470D01*
X-8653507Y-11819990D01*
X-8628154Y-11772558D01*
X-8594027Y-11730973D01*
X-8552442Y-11696846D01*
X-8505010Y-11671493D01*
X-8453530Y-11655877D01*
X-8393860Y-11650000D01*
X-7606140Y-11650000D01*
X-7546470Y-11655877D01*
X-7546470Y-11655877D01*
G37*
G36*
X-3775000Y-13330000D02*
X-4825000Y-13330000D01*
X-4825000Y-11870000D01*
X-3775000Y-11870000D01*
X-3775000Y-13330000D01*
X-3775000Y-13330000D01*
G37*
G36*
X-5675000Y-13330000D02*
X-6725000Y-13330000D01*
X-6725000Y-11870000D01*
X-5675000Y-11870000D01*
X-5675000Y-13330000D01*
X-5675000Y-13330000D01*
G37*
G36*
X8429130Y-11738277D02*
X8480610Y-11753893D01*
X8528042Y-11779246D01*
X8569627Y-11813373D01*
X8603754Y-11854958D01*
X8629107Y-11902390D01*
X8644723Y-11953870D01*
X8650600Y-12013540D01*
X8650600Y-12901260D01*
X8644723Y-12960930D01*
X8629107Y-13012410D01*
X8603754Y-13059842D01*
X8569627Y-13101427D01*
X8528042Y-13135554D01*
X8480610Y-13160907D01*
X8429130Y-13176523D01*
X8369460Y-13182400D01*
X7581740Y-13182400D01*
X7522070Y-13176523D01*
X7470590Y-13160907D01*
X7423158Y-13135554D01*
X7381573Y-13101427D01*
X7347446Y-13059842D01*
X7322093Y-13012410D01*
X7306477Y-12960930D01*
X7300600Y-12901260D01*
X7300600Y-12013540D01*
X7306477Y-11953870D01*
X7322093Y-11902390D01*
X7347446Y-11854958D01*
X7381573Y-11813373D01*
X7423158Y-11779246D01*
X7470590Y-11753893D01*
X7522070Y-11738277D01*
X7581740Y-11732400D01*
X8369460Y-11732400D01*
X8429130Y-11738277D01*
X8429130Y-11738277D01*
G37*
G36*
X9804183Y-11026900D02*
X9928375Y-11078343D01*
X9931574Y-11079668D01*
X10038720Y-11151260D01*
X10046225Y-11156275D01*
X10143725Y-11253775D01*
X10220332Y-11368426D01*
X10273100Y-11495817D01*
X10300000Y-11631055D01*
X10300000Y-11768945D01*
X10273100Y-11904183D01*
X10238588Y-11987500D01*
X10220332Y-12031574D01*
X10143726Y-12146224D01*
X10046224Y-12243726D01*
X9950017Y-12308009D01*
X9931574Y-12320332D01*
X9804183Y-12373100D01*
X9668945Y-12400000D01*
X9531055Y-12400000D01*
X9395817Y-12373100D01*
X9268426Y-12320332D01*
X9249983Y-12308009D01*
X9153776Y-12243726D01*
X9056274Y-12146224D01*
X8979668Y-12031574D01*
X8961412Y-11987500D01*
X8926900Y-11904183D01*
X8900000Y-11768945D01*
X8900000Y-11631055D01*
X8926900Y-11495817D01*
X8979668Y-11368426D01*
X9056275Y-11253775D01*
X9153775Y-11156275D01*
X9161281Y-11151260D01*
X9268426Y-11079668D01*
X9271625Y-11078343D01*
X9395817Y-11026900D01*
X9531055Y-11000000D01*
X9668945Y-11000000D01*
X9804183Y-11026900D01*
X9804183Y-11026900D01*
G37*
G36*
X-11600000Y-11600000D02*
X-14400000Y-11600000D01*
X-14400000Y-9800000D01*
X-11600000Y-9800000D01*
X-11600000Y-11600000D01*
X-11600000Y-11600000D01*
G37*
G36*
X8429130Y-9988277D02*
X8480610Y-10003893D01*
X8528042Y-10029246D01*
X8569627Y-10063373D01*
X8603754Y-10104958D01*
X8629107Y-10152390D01*
X8644723Y-10203870D01*
X8650600Y-10263540D01*
X8650600Y-11151260D01*
X8644723Y-11210930D01*
X8629107Y-11262410D01*
X8603754Y-11309842D01*
X8569627Y-11351427D01*
X8528042Y-11385554D01*
X8480610Y-11410907D01*
X8429130Y-11426523D01*
X8369460Y-11432400D01*
X7581740Y-11432400D01*
X7522070Y-11426523D01*
X7470590Y-11410907D01*
X7423158Y-11385554D01*
X7381573Y-11351427D01*
X7347446Y-11309842D01*
X7322093Y-11262410D01*
X7306477Y-11210930D01*
X7300600Y-11151260D01*
X7300600Y-10263540D01*
X7306477Y-10203870D01*
X7322093Y-10152390D01*
X7347446Y-10104958D01*
X7381573Y-10063373D01*
X7423158Y-10029246D01*
X7470590Y-10003893D01*
X7522070Y-9988277D01*
X7581740Y-9982400D01*
X8369460Y-9982400D01*
X8429130Y-9988277D01*
X8429130Y-9988277D01*
G37*
G36*
X-9381470Y-7530877D02*
X-9329990Y-7546493D01*
X-9282558Y-7571846D01*
X-9240973Y-7605973D01*
X-9206846Y-7647558D01*
X-9181493Y-7694990D01*
X-9165877Y-7746470D01*
X-9160000Y-7806140D01*
X-9160000Y-8593860D01*
X-9165877Y-8653530D01*
X-9181493Y-8705010D01*
X-9206846Y-8752442D01*
X-9240973Y-8794027D01*
X-9282558Y-8828154D01*
X-9329990Y-8853507D01*
X-9336172Y-8855382D01*
X-9358811Y-8864760D01*
X-9379186Y-8878373D01*
X-9396513Y-8895700D01*
X-9410127Y-8916075D01*
X-9419504Y-8938714D01*
X-9424285Y-8962747D01*
X-9424285Y-8987251D01*
X-9419505Y-9011285D01*
X-9410127Y-9033924D01*
X-9396514Y-9054299D01*
X-9379187Y-9071626D01*
X-9358812Y-9085240D01*
X-9336173Y-9094617D01*
X-9312140Y-9099398D01*
X-9299887Y-9100000D01*
X-9170175Y-9100000D01*
X-9117518Y-9105186D01*
X-9072796Y-9118753D01*
X-9031567Y-9140790D01*
X-8995439Y-9170439D01*
X-8965790Y-9206567D01*
X-8943753Y-9247796D01*
X-8930186Y-9292518D01*
X-8925000Y-9345175D01*
X-8925000Y-10175000D01*
X-8922598Y-10199386D01*
X-8915485Y-10222835D01*
X-8903934Y-10244446D01*
X-8888388Y-10263388D01*
X-8869446Y-10278934D01*
X-8847835Y-10290485D01*
X-8824386Y-10297598D01*
X-8800000Y-10300000D01*
X-8775614Y-10297598D01*
X-8752165Y-10290485D01*
X-8730554Y-10278934D01*
X-8711612Y-10263388D01*
X-8696066Y-10244446D01*
X-8684515Y-10222835D01*
X-8675602Y-10187252D01*
X-8669123Y-10121470D01*
X-8653507Y-10069990D01*
X-8628154Y-10022558D01*
X-8594027Y-9980973D01*
X-8552442Y-9946846D01*
X-8505010Y-9921493D01*
X-8453530Y-9905877D01*
X-8393860Y-9900000D01*
X-7606140Y-9900000D01*
X-7546470Y-9905877D01*
X-7494990Y-9921493D01*
X-7447558Y-9946846D01*
X-7405973Y-9980973D01*
X-7371846Y-10022558D01*
X-7346493Y-10069990D01*
X-7330877Y-10121470D01*
X-7325000Y-10181140D01*
X-7325000Y-11068860D01*
X-7330877Y-11128530D01*
X-7346493Y-11180010D01*
X-7371846Y-11227442D01*
X-7405973Y-11269027D01*
X-7447558Y-11303154D01*
X-7494990Y-11328507D01*
X-7546470Y-11344123D01*
X-7606140Y-11350000D01*
X-8393860Y-11350000D01*
X-8453530Y-11344123D01*
X-8505010Y-11328507D01*
X-8552442Y-11303154D01*
X-8594027Y-11269027D01*
X-8628154Y-11227442D01*
X-8653507Y-11180010D01*
X-8669123Y-11128530D01*
X-8675000Y-11068860D01*
X-8675000Y-10685965D01*
X-8677402Y-10661579D01*
X-8684515Y-10638130D01*
X-8696066Y-10616519D01*
X-8711612Y-10597577D01*
X-8730554Y-10582031D01*
X-8752165Y-10570480D01*
X-8775614Y-10563367D01*
X-8800000Y-10560965D01*
X-8824386Y-10563367D01*
X-8847835Y-10570480D01*
X-8869446Y-10582031D01*
X-8888388Y-10597577D01*
X-8903934Y-10616519D01*
X-8915485Y-10638130D01*
X-8924398Y-10673713D01*
X-8930186Y-10732482D01*
X-8943753Y-10777204D01*
X-8965790Y-10818433D01*
X-8995439Y-10854561D01*
X-9031567Y-10884210D01*
X-9072796Y-10906247D01*
X-9117518Y-10919814D01*
X-9170175Y-10925000D01*
X-10829825Y-10925000D01*
X-10882482Y-10919814D01*
X-10927204Y-10906247D01*
X-10968433Y-10884210D01*
X-11004561Y-10854561D01*
X-11034210Y-10818433D01*
X-11056247Y-10777204D01*
X-11069814Y-10732482D01*
X-11075000Y-10679825D01*
X-11075000Y-9345175D01*
X-11069814Y-9292518D01*
X-11056247Y-9247796D01*
X-11034210Y-9206567D01*
X-11004561Y-9170439D01*
X-10968433Y-9140790D01*
X-10927204Y-9118753D01*
X-10882482Y-9105186D01*
X-10829825Y-9100000D01*
X-10470113Y-9100000D01*
X-10445727Y-9097598D01*
X-10422278Y-9090485D01*
X-10400667Y-9078934D01*
X-10381725Y-9063388D01*
X-10366179Y-9044446D01*
X-10354628Y-9022835D01*
X-10347515Y-8999386D01*
X-10345113Y-8975000D01*
X-10347515Y-8950614D01*
X-10354628Y-8927165D01*
X-10366179Y-8905554D01*
X-10381725Y-8886612D01*
X-10400667Y-8871066D01*
X-10422278Y-8859515D01*
X-10433828Y-8855382D01*
X-10440010Y-8853507D01*
X-10487442Y-8828154D01*
X-10529027Y-8794027D01*
X-10563154Y-8752442D01*
X-10588507Y-8705010D01*
X-10604123Y-8653530D01*
X-10610000Y-8593860D01*
X-10610000Y-7806140D01*
X-10604123Y-7746470D01*
X-10588507Y-7694990D01*
X-10563154Y-7647558D01*
X-10529027Y-7605973D01*
X-10487442Y-7571846D01*
X-10440010Y-7546493D01*
X-10388530Y-7530877D01*
X-10328860Y-7525000D01*
X-9441140Y-7525000D01*
X-9381470Y-7530877D01*
X-9381470Y-7530877D01*
G37*
G36*
X-3775000Y-11130000D02*
X-6725000Y-11130000D01*
X-6725000Y-9670000D01*
X-3775000Y-9670000D01*
X-3775000Y-11130000D01*
X-3775000Y-11130000D01*
G37*
G36*
X5254653Y-9376397D02*
X5301440Y-9390589D01*
X5344558Y-9413637D01*
X5382349Y-9444651D01*
X5413363Y-9482442D01*
X5436411Y-9525560D01*
X5450603Y-9572347D01*
X5456000Y-9627141D01*
X5456000Y-10814859D01*
X5450603Y-10869653D01*
X5436411Y-10916440D01*
X5413363Y-10959558D01*
X5382349Y-10997349D01*
X5344558Y-11028363D01*
X5301440Y-11051411D01*
X5254653Y-11065603D01*
X5199859Y-11071000D01*
X1912141Y-11071000D01*
X1857347Y-11065603D01*
X1810560Y-11051411D01*
X1767442Y-11028363D01*
X1729651Y-10997349D01*
X1698637Y-10959558D01*
X1675589Y-10916440D01*
X1661397Y-10869653D01*
X1656000Y-10814859D01*
X1656000Y-9627141D01*
X1661397Y-9572347D01*
X1675589Y-9525560D01*
X1698637Y-9482442D01*
X1729651Y-9444651D01*
X1767442Y-9413637D01*
X1810560Y-9390589D01*
X1857347Y-9376397D01*
X1912141Y-9371000D01*
X5199859Y-9371000D01*
X5254653Y-9376397D01*
X5254653Y-9376397D01*
G37*
G36*
X23885530Y-8055710D02*
X23935379Y-8070831D01*
X23981311Y-8095382D01*
X24021574Y-8128426D01*
X24054618Y-8168689D01*
X24079169Y-8214621D01*
X24094290Y-8264470D01*
X24100000Y-8322444D01*
X24100000Y-9327556D01*
X24094290Y-9385530D01*
X24079169Y-9435379D01*
X24054618Y-9481311D01*
X24021574Y-9521574D01*
X23981311Y-9554618D01*
X23935379Y-9579169D01*
X23885530Y-9594290D01*
X23827556Y-9600000D01*
X22572444Y-9600000D01*
X22514470Y-9594290D01*
X22464621Y-9579169D01*
X22418689Y-9554618D01*
X22378426Y-9521574D01*
X22345382Y-9481311D01*
X22320831Y-9435379D01*
X22305710Y-9385530D01*
X22300000Y-9327556D01*
X22300000Y-8322444D01*
X22305710Y-8264470D01*
X22320831Y-8214621D01*
X22345382Y-8168689D01*
X22378426Y-8128426D01*
X22418689Y-8095382D01*
X22464621Y-8070831D01*
X22514470Y-8055710D01*
X22572444Y-8050000D01*
X23827556Y-8050000D01*
X23885530Y-8055710D01*
X23885530Y-8055710D01*
G37*
G36*
X13953530Y-7905877D02*
X14005010Y-7921493D01*
X14052442Y-7946846D01*
X14094027Y-7980973D01*
X14128154Y-8022558D01*
X14153507Y-8069990D01*
X14169123Y-8121470D01*
X14175000Y-8181140D01*
X14175000Y-9068860D01*
X14169123Y-9128530D01*
X14153507Y-9180010D01*
X14128154Y-9227442D01*
X14094027Y-9269027D01*
X14052442Y-9303154D01*
X14005010Y-9328507D01*
X13953530Y-9344123D01*
X13893860Y-9350000D01*
X13106140Y-9350000D01*
X13046470Y-9344123D01*
X12994990Y-9328507D01*
X12947558Y-9303154D01*
X12905973Y-9269027D01*
X12871846Y-9227442D01*
X12846493Y-9180010D01*
X12830877Y-9128530D01*
X12825000Y-9068860D01*
X12825000Y-8181140D01*
X12830877Y-8121470D01*
X12846493Y-8069990D01*
X12871846Y-8022558D01*
X12905973Y-7980973D01*
X12947558Y-7946846D01*
X12994990Y-7921493D01*
X13046470Y-7905877D01*
X13106140Y-7900000D01*
X13893860Y-7900000D01*
X13953530Y-7905877D01*
X13953530Y-7905877D01*
G37*
G36*
X21900000Y-9350000D02*
X19100000Y-9350000D01*
X19100000Y-7550000D01*
X21900000Y-7550000D01*
X21900000Y-9350000D01*
X21900000Y-9350000D01*
G37*
G36*
X10453530Y-7905877D02*
X10505010Y-7921493D01*
X10552442Y-7946846D01*
X10594027Y-7980973D01*
X10628154Y-8022558D01*
X10653507Y-8069990D01*
X10669123Y-8121470D01*
X10675000Y-8181140D01*
X10675000Y-9068860D01*
X10669123Y-9128530D01*
X10653507Y-9180010D01*
X10628154Y-9227442D01*
X10594027Y-9269027D01*
X10552442Y-9303154D01*
X10505010Y-9328507D01*
X10453530Y-9344123D01*
X10393860Y-9350000D01*
X9606140Y-9350000D01*
X9546470Y-9344123D01*
X9494990Y-9328507D01*
X9447558Y-9303154D01*
X9405973Y-9269027D01*
X9371846Y-9227442D01*
X9346493Y-9180010D01*
X9330877Y-9128530D01*
X9325000Y-9068860D01*
X9325000Y-8181140D01*
X9330877Y-8121470D01*
X9346493Y-8069990D01*
X9371846Y-8022558D01*
X9405973Y-7980973D01*
X9447558Y-7946846D01*
X9494990Y-7921493D01*
X9546470Y-7905877D01*
X9606140Y-7900000D01*
X10393860Y-7900000D01*
X10453530Y-7905877D01*
X10453530Y-7905877D01*
G37*
G36*
X12203530Y-7905877D02*
X12255010Y-7921493D01*
X12302442Y-7946846D01*
X12344027Y-7980973D01*
X12378154Y-8022558D01*
X12403507Y-8069990D01*
X12419123Y-8121470D01*
X12425000Y-8181140D01*
X12425000Y-9068860D01*
X12419123Y-9128530D01*
X12403507Y-9180010D01*
X12378154Y-9227442D01*
X12344027Y-9269027D01*
X12302442Y-9303154D01*
X12255010Y-9328507D01*
X12203530Y-9344123D01*
X12143860Y-9350000D01*
X11356140Y-9350000D01*
X11296470Y-9344123D01*
X11244990Y-9328507D01*
X11197558Y-9303154D01*
X11155973Y-9269027D01*
X11121846Y-9227442D01*
X11096493Y-9180010D01*
X11080877Y-9128530D01*
X11075000Y-9068860D01*
X11075000Y-8181140D01*
X11080877Y-8121470D01*
X11096493Y-8069990D01*
X11121846Y-8022558D01*
X11155973Y-7980973D01*
X11197558Y-7946846D01*
X11244990Y-7921493D01*
X11296470Y-7905877D01*
X11356140Y-7900000D01*
X12143860Y-7900000D01*
X12203530Y-7905877D01*
X12203530Y-7905877D01*
G37*
G36*
X-15314470Y-7505710D02*
X-15264621Y-7520831D01*
X-15218689Y-7545382D01*
X-15178426Y-7578426D01*
X-15145382Y-7618689D01*
X-15120831Y-7664621D01*
X-15105710Y-7714470D01*
X-15100000Y-7772444D01*
X-15100000Y-8777556D01*
X-15105710Y-8835530D01*
X-15120831Y-8885379D01*
X-15145382Y-8931311D01*
X-15178426Y-8971574D01*
X-15218689Y-9004618D01*
X-15264621Y-9029169D01*
X-15314470Y-9044290D01*
X-15372444Y-9050000D01*
X-16627556Y-9050000D01*
X-16685530Y-9044290D01*
X-16735379Y-9029169D01*
X-16781311Y-9004618D01*
X-16821574Y-8971574D01*
X-16854618Y-8931311D01*
X-16879169Y-8885379D01*
X-16894290Y-8835530D01*
X-16900000Y-8777556D01*
X-16900000Y-7772444D01*
X-16894290Y-7714470D01*
X-16879169Y-7664621D01*
X-16854618Y-7618689D01*
X-16821574Y-7578426D01*
X-16781311Y-7545382D01*
X-16735379Y-7520831D01*
X-16685530Y-7505710D01*
X-16627556Y-7500000D01*
X-15372444Y-7500000D01*
X-15314470Y-7505710D01*
X-15314470Y-7505710D01*
G37*
G36*
X7004183Y-7626900D02*
X7131574Y-7679668D01*
X7246224Y-7756274D01*
X7343726Y-7853776D01*
X7378538Y-7905877D01*
X7420332Y-7968426D01*
X7473100Y-8095817D01*
X7500000Y-8231055D01*
X7500000Y-8368945D01*
X7473100Y-8504183D01*
X7435954Y-8593860D01*
X7420332Y-8631574D01*
X7343726Y-8746224D01*
X7246224Y-8843726D01*
X7153691Y-8905554D01*
X7131574Y-8920332D01*
X7004183Y-8973100D01*
X6868945Y-9000000D01*
X6731055Y-9000000D01*
X6595817Y-8973100D01*
X6468426Y-8920332D01*
X6446309Y-8905554D01*
X6353776Y-8843726D01*
X6256274Y-8746224D01*
X6179668Y-8631574D01*
X6164046Y-8593860D01*
X6126900Y-8504183D01*
X6100000Y-8368945D01*
X6100000Y-8231055D01*
X6126900Y-8095817D01*
X6179668Y-7968426D01*
X6221462Y-7905877D01*
X6256274Y-7853776D01*
X6353776Y-7756274D01*
X6468426Y-7679668D01*
X6595817Y-7626900D01*
X6731055Y-7600000D01*
X6868945Y-7600000D01*
X7004183Y-7626900D01*
X7004183Y-7626900D01*
G37*
G36*
X-7631470Y-7530877D02*
X-7579990Y-7546493D01*
X-7532558Y-7571846D01*
X-7490973Y-7605973D01*
X-7456846Y-7647558D01*
X-7431493Y-7694990D01*
X-7415877Y-7746470D01*
X-7410000Y-7806140D01*
X-7410000Y-8593860D01*
X-7415877Y-8653530D01*
X-7431493Y-8705010D01*
X-7456846Y-8752442D01*
X-7490973Y-8794027D01*
X-7532558Y-8828154D01*
X-7579990Y-8853507D01*
X-7631470Y-8869123D01*
X-7691140Y-8875000D01*
X-8578860Y-8875000D01*
X-8638530Y-8869123D01*
X-8690010Y-8853507D01*
X-8737442Y-8828154D01*
X-8779027Y-8794027D01*
X-8813154Y-8752442D01*
X-8838507Y-8705010D01*
X-8854123Y-8653530D01*
X-8860000Y-8593860D01*
X-8860000Y-7806140D01*
X-8854123Y-7746470D01*
X-8838507Y-7694990D01*
X-8813154Y-7647558D01*
X-8779027Y-7605973D01*
X-8737442Y-7571846D01*
X-8690010Y-7546493D01*
X-8638530Y-7530877D01*
X-8578860Y-7525000D01*
X-7691140Y-7525000D01*
X-7631470Y-7530877D01*
X-7631470Y-7530877D01*
G37*
G36*
X13080300Y-5929463D02*
X13073261Y-5924760D01*
X13050622Y-5915383D01*
X13026589Y-5910602D01*
X13014336Y-5910000D01*
X12235664Y-5910000D01*
X12211278Y-5912402D01*
X12187829Y-5919515D01*
X12166218Y-5931066D01*
X12147276Y-5946612D01*
X12131730Y-5965554D01*
X12120179Y-5987165D01*
X12113066Y-6010614D01*
X12110664Y-6035000D01*
X12113066Y-6059386D01*
X12120179Y-6082835D01*
X12131730Y-6104446D01*
X12147276Y-6123388D01*
X12166218Y-6138934D01*
X12187829Y-6150485D01*
X12199379Y-6154618D01*
X12255010Y-6171493D01*
X12302442Y-6196846D01*
X12344027Y-6230973D01*
X12378154Y-6272558D01*
X12403507Y-6319990D01*
X12419123Y-6371470D01*
X12425000Y-6431140D01*
X12425000Y-7318860D01*
X12419123Y-7378530D01*
X12403507Y-7430010D01*
X12378154Y-7477442D01*
X12344027Y-7519027D01*
X12302442Y-7553154D01*
X12255010Y-7578507D01*
X12203530Y-7594123D01*
X12143860Y-7600000D01*
X11356140Y-7600000D01*
X11296470Y-7594123D01*
X11244990Y-7578507D01*
X11197558Y-7553154D01*
X11155973Y-7519027D01*
X11121846Y-7477442D01*
X11096493Y-7430010D01*
X11080877Y-7378530D01*
X11075000Y-7318860D01*
X11075000Y-6431140D01*
X11080877Y-6371470D01*
X11096493Y-6319990D01*
X11121846Y-6272558D01*
X11155973Y-6230973D01*
X11197558Y-6196846D01*
X11244990Y-6171493D01*
X11300621Y-6154618D01*
X11323260Y-6145240D01*
X11343635Y-6131627D01*
X11360962Y-6114300D01*
X11374576Y-6093925D01*
X11383953Y-6071286D01*
X11388734Y-6047253D01*
X11388734Y-6022748D01*
X11383954Y-5998715D01*
X11374576Y-5976076D01*
X11360963Y-5955701D01*
X11343636Y-5938374D01*
X11323261Y-5924760D01*
X11300622Y-5915383D01*
X11276589Y-5910602D01*
X11264336Y-5910000D01*
X10485664Y-5910000D01*
X10461278Y-5912402D01*
X10437829Y-5919515D01*
X10419700Y-5929205D01*
X10419700Y-4087600D01*
X13080300Y-4087600D01*
X13080300Y-5929463D01*
X13080300Y-5929463D01*
G37*
G36*
X13116912Y-6113388D02*
X13135854Y-6128934D01*
X13157465Y-6140485D01*
X13180914Y-6147598D01*
X13205300Y-6150000D01*
X13893860Y-6150000D01*
X13953530Y-6155877D01*
X14005010Y-6171493D01*
X14052442Y-6196846D01*
X14094027Y-6230973D01*
X14128154Y-6272558D01*
X14153507Y-6319990D01*
X14169123Y-6371470D01*
X14175000Y-6431140D01*
X14175000Y-7318860D01*
X14169123Y-7378530D01*
X14153507Y-7430010D01*
X14128154Y-7477442D01*
X14094027Y-7519027D01*
X14052442Y-7553154D01*
X14005010Y-7578507D01*
X13953530Y-7594123D01*
X13893860Y-7600000D01*
X13106140Y-7600000D01*
X13046470Y-7594123D01*
X12994990Y-7578507D01*
X12947558Y-7553154D01*
X12905973Y-7519027D01*
X12871846Y-7477442D01*
X12846493Y-7430010D01*
X12830877Y-7378530D01*
X12825000Y-7318860D01*
X12825000Y-6431140D01*
X12830877Y-6371470D01*
X12846493Y-6319990D01*
X12871846Y-6272558D01*
X12905973Y-6230973D01*
X12947558Y-6196846D01*
X12994990Y-6171493D01*
X13050621Y-6154618D01*
X13073260Y-6145240D01*
X13093635Y-6131627D01*
X13110962Y-6114300D01*
X13113968Y-6109801D01*
X13116912Y-6113388D01*
X13116912Y-6113388D01*
G37*
G36*
X10397276Y-6123388D02*
X10416218Y-6138934D01*
X10437829Y-6150485D01*
X10449379Y-6154618D01*
X10505010Y-6171493D01*
X10552442Y-6196846D01*
X10594027Y-6230973D01*
X10628154Y-6272558D01*
X10653507Y-6319990D01*
X10669123Y-6371470D01*
X10675000Y-6431140D01*
X10675000Y-7318860D01*
X10669123Y-7378530D01*
X10653507Y-7430010D01*
X10628154Y-7477442D01*
X10594027Y-7519027D01*
X10552442Y-7553154D01*
X10505010Y-7578507D01*
X10453530Y-7594123D01*
X10393860Y-7600000D01*
X9606140Y-7600000D01*
X9546470Y-7594123D01*
X9494990Y-7578507D01*
X9447558Y-7553154D01*
X9405973Y-7519027D01*
X9371846Y-7477442D01*
X9346493Y-7430010D01*
X9330877Y-7378530D01*
X9325000Y-7318860D01*
X9325000Y-6431140D01*
X9330877Y-6371470D01*
X9346493Y-6319990D01*
X9371846Y-6272558D01*
X9405973Y-6230973D01*
X9447558Y-6196846D01*
X9494990Y-6171493D01*
X9546470Y-6155877D01*
X9606140Y-6150000D01*
X10294700Y-6150000D01*
X10319086Y-6147598D01*
X10342535Y-6140485D01*
X10364146Y-6128934D01*
X10383088Y-6113388D01*
X10386078Y-6109744D01*
X10397276Y-6123388D01*
X10397276Y-6123388D01*
G37*
G36*
X-3331470Y-6210877D02*
X-3279990Y-6226493D01*
X-3232558Y-6251846D01*
X-3190973Y-6285973D01*
X-3156846Y-6327558D01*
X-3131493Y-6374990D01*
X-3115877Y-6426470D01*
X-3110000Y-6486140D01*
X-3110000Y-7273860D01*
X-3115877Y-7333530D01*
X-3131493Y-7385010D01*
X-3156846Y-7432442D01*
X-3190973Y-7474027D01*
X-3232558Y-7508154D01*
X-3279990Y-7533507D01*
X-3331470Y-7549123D01*
X-3391140Y-7555000D01*
X-4278860Y-7555000D01*
X-4338530Y-7549123D01*
X-4390010Y-7533507D01*
X-4437442Y-7508154D01*
X-4479027Y-7474027D01*
X-4513154Y-7432442D01*
X-4538507Y-7385010D01*
X-4554123Y-7333530D01*
X-4560000Y-7273860D01*
X-4560000Y-6486140D01*
X-4554123Y-6426470D01*
X-4538507Y-6374990D01*
X-4513154Y-6327558D01*
X-4479027Y-6285973D01*
X-4437442Y-6251846D01*
X-4390010Y-6226493D01*
X-4338530Y-6210877D01*
X-4278860Y-6205000D01*
X-3391140Y-6205000D01*
X-3331470Y-6210877D01*
X-3331470Y-6210877D01*
G37*
G36*
X-5081470Y-6210877D02*
X-5029990Y-6226493D01*
X-4982558Y-6251846D01*
X-4940973Y-6285973D01*
X-4906846Y-6327558D01*
X-4881493Y-6374990D01*
X-4865877Y-6426470D01*
X-4860000Y-6486140D01*
X-4860000Y-7273860D01*
X-4865877Y-7333530D01*
X-4881493Y-7385010D01*
X-4906846Y-7432442D01*
X-4940973Y-7474027D01*
X-4982558Y-7508154D01*
X-5029990Y-7533507D01*
X-5081470Y-7549123D01*
X-5141140Y-7555000D01*
X-6028860Y-7555000D01*
X-6088530Y-7549123D01*
X-6140010Y-7533507D01*
X-6187442Y-7508154D01*
X-6229027Y-7474027D01*
X-6263154Y-7432442D01*
X-6288507Y-7385010D01*
X-6304123Y-7333530D01*
X-6310000Y-7273860D01*
X-6310000Y-6486140D01*
X-6304123Y-6426470D01*
X-6288507Y-6374990D01*
X-6263154Y-6327558D01*
X-6229027Y-6285973D01*
X-6187442Y-6251846D01*
X-6140010Y-6226493D01*
X-6088530Y-6210877D01*
X-6028860Y-6205000D01*
X-5141140Y-6205000D01*
X-5081470Y-6210877D01*
X-5081470Y-6210877D01*
G37*
G36*
X23885530Y-6005710D02*
X23935379Y-6020831D01*
X23981311Y-6045382D01*
X24021574Y-6078426D01*
X24054618Y-6118689D01*
X24079169Y-6164621D01*
X24094290Y-6214470D01*
X24100000Y-6272444D01*
X24100000Y-7277556D01*
X24094290Y-7335530D01*
X24079169Y-7385379D01*
X24054618Y-7431311D01*
X24021574Y-7471574D01*
X23981311Y-7504618D01*
X23935379Y-7529169D01*
X23885530Y-7544290D01*
X23827556Y-7550000D01*
X22572444Y-7550000D01*
X22514470Y-7544290D01*
X22464621Y-7529169D01*
X22418689Y-7504618D01*
X22378426Y-7471574D01*
X22345382Y-7431311D01*
X22320831Y-7385379D01*
X22305710Y-7335530D01*
X22300000Y-7277556D01*
X22300000Y-6272444D01*
X22305710Y-6214470D01*
X22320831Y-6164621D01*
X22345382Y-6118689D01*
X22378426Y-6078426D01*
X22418689Y-6045382D01*
X22464621Y-6020831D01*
X22514470Y-6005710D01*
X22572444Y-6000000D01*
X23827556Y-6000000D01*
X23885530Y-6005710D01*
X23885530Y-6005710D01*
G37*
G36*
X-11600000Y-7200000D02*
X-14400000Y-7200000D01*
X-14400000Y-5400000D01*
X-11600000Y-5400000D01*
X-11600000Y-7200000D01*
X-11600000Y-7200000D01*
G37*
G36*
X18435530Y-5505710D02*
X18485379Y-5520831D01*
X18531311Y-5545382D01*
X18571574Y-5578426D01*
X18604618Y-5618689D01*
X18629169Y-5664621D01*
X18644290Y-5714470D01*
X18650000Y-5772444D01*
X18650000Y-6777556D01*
X18644290Y-6835530D01*
X18629169Y-6885379D01*
X18604618Y-6931311D01*
X18571574Y-6971574D01*
X18531311Y-7004618D01*
X18485379Y-7029169D01*
X18435530Y-7044290D01*
X18377556Y-7050000D01*
X17122444Y-7050000D01*
X17064470Y-7044290D01*
X17014621Y-7029169D01*
X16968689Y-7004618D01*
X16928426Y-6971574D01*
X16895382Y-6931311D01*
X16870831Y-6885379D01*
X16855710Y-6835530D01*
X16850000Y-6777556D01*
X16850000Y-5772444D01*
X16855710Y-5714470D01*
X16870831Y-5664621D01*
X16895382Y-5618689D01*
X16928426Y-5578426D01*
X16968689Y-5545382D01*
X17014621Y-5520831D01*
X17064470Y-5505710D01*
X17122444Y-5500000D01*
X18377556Y-5500000D01*
X18435530Y-5505710D01*
X18435530Y-5505710D01*
G37*
G36*
X-15314470Y-5455710D02*
X-15264621Y-5470831D01*
X-15218689Y-5495382D01*
X-15178426Y-5528426D01*
X-15145382Y-5568689D01*
X-15120831Y-5614621D01*
X-15105710Y-5664470D01*
X-15100000Y-5722444D01*
X-15100000Y-6727556D01*
X-15105710Y-6785530D01*
X-15120831Y-6835379D01*
X-15145382Y-6881311D01*
X-15178426Y-6921574D01*
X-15218689Y-6954618D01*
X-15264621Y-6979169D01*
X-15314470Y-6994290D01*
X-15372444Y-7000000D01*
X-16627556Y-7000000D01*
X-16685530Y-6994290D01*
X-16735379Y-6979169D01*
X-16781311Y-6954618D01*
X-16821574Y-6921574D01*
X-16854618Y-6881311D01*
X-16879169Y-6835379D01*
X-16894290Y-6785530D01*
X-16900000Y-6727556D01*
X-16900000Y-5722444D01*
X-16894290Y-5664470D01*
X-16879169Y-5614621D01*
X-16854618Y-5568689D01*
X-16821574Y-5528426D01*
X-16781311Y-5495382D01*
X-16735379Y-5470831D01*
X-16685530Y-5455710D01*
X-16627556Y-5450000D01*
X-15372444Y-5450000D01*
X-15314470Y-5455710D01*
X-15314470Y-5455710D01*
G37*
G36*
X6453530Y-4405877D02*
X6505010Y-4421493D01*
X6552442Y-4446846D01*
X6594027Y-4480973D01*
X6628154Y-4522558D01*
X6653507Y-4569990D01*
X6669123Y-4621470D01*
X6675000Y-4681140D01*
X6675000Y-5568860D01*
X6669123Y-5628530D01*
X6653507Y-5680010D01*
X6628154Y-5727442D01*
X6594027Y-5769027D01*
X6552442Y-5803154D01*
X6505010Y-5828507D01*
X6453530Y-5844123D01*
X6393860Y-5850000D01*
X5606140Y-5850000D01*
X5546470Y-5844123D01*
X5494990Y-5828507D01*
X5447558Y-5803154D01*
X5405973Y-5769027D01*
X5371846Y-5727442D01*
X5346493Y-5680010D01*
X5330877Y-5628530D01*
X5325000Y-5568860D01*
X5325000Y-4681140D01*
X5330877Y-4621470D01*
X5346493Y-4569990D01*
X5371846Y-4522558D01*
X5405973Y-4480973D01*
X5447558Y-4446846D01*
X5494990Y-4421493D01*
X5546470Y-4405877D01*
X5606140Y-4400000D01*
X6393860Y-4400000D01*
X6453530Y-4405877D01*
X6453530Y-4405877D01*
G37*
G36*
X-5391470Y-4140877D02*
X-5339990Y-4156493D01*
X-5292558Y-4181846D01*
X-5250973Y-4215973D01*
X-5216846Y-4257558D01*
X-5191493Y-4304990D01*
X-5175877Y-4356470D01*
X-5170000Y-4416140D01*
X-5170000Y-5203860D01*
X-5175877Y-5263530D01*
X-5191493Y-5315010D01*
X-5216846Y-5362442D01*
X-5250973Y-5404027D01*
X-5292558Y-5438154D01*
X-5339990Y-5463507D01*
X-5391470Y-5479123D01*
X-5451140Y-5485000D01*
X-6338860Y-5485000D01*
X-6398530Y-5479123D01*
X-6450010Y-5463507D01*
X-6497442Y-5438154D01*
X-6539027Y-5404027D01*
X-6573154Y-5362442D01*
X-6598507Y-5315010D01*
X-6614123Y-5263530D01*
X-6620000Y-5203860D01*
X-6620000Y-4416140D01*
X-6614123Y-4356470D01*
X-6598507Y-4304990D01*
X-6573154Y-4257558D01*
X-6539027Y-4215973D01*
X-6497442Y-4181846D01*
X-6450010Y-4156493D01*
X-6398530Y-4140877D01*
X-6338860Y-4135000D01*
X-5451140Y-4135000D01*
X-5391470Y-4140877D01*
X-5391470Y-4140877D01*
G37*
G36*
X-3641470Y-4140877D02*
X-3589990Y-4156493D01*
X-3542558Y-4181846D01*
X-3500973Y-4215973D01*
X-3466846Y-4257558D01*
X-3441493Y-4304990D01*
X-3425877Y-4356470D01*
X-3420000Y-4416140D01*
X-3420000Y-5203860D01*
X-3425877Y-5263530D01*
X-3441493Y-5315010D01*
X-3466846Y-5362442D01*
X-3500973Y-5404027D01*
X-3542558Y-5438154D01*
X-3589990Y-5463507D01*
X-3641470Y-5479123D01*
X-3701140Y-5485000D01*
X-4588860Y-5485000D01*
X-4648530Y-5479123D01*
X-4700010Y-5463507D01*
X-4747442Y-5438154D01*
X-4789027Y-5404027D01*
X-4823154Y-5362442D01*
X-4848507Y-5315010D01*
X-4864123Y-5263530D01*
X-4870000Y-5203860D01*
X-4870000Y-4416140D01*
X-4864123Y-4356470D01*
X-4848507Y-4304990D01*
X-4823154Y-4257558D01*
X-4789027Y-4215973D01*
X-4747442Y-4181846D01*
X-4700010Y-4156493D01*
X-4648530Y-4140877D01*
X-4588860Y-4135000D01*
X-3701140Y-4135000D01*
X-3641470Y-4140877D01*
X-3641470Y-4140877D01*
G37*
G36*
X-7336470Y-4000877D02*
X-7284990Y-4016493D01*
X-7237558Y-4041846D01*
X-7195973Y-4075973D01*
X-7161846Y-4117558D01*
X-7136493Y-4164990D01*
X-7120877Y-4216470D01*
X-7115000Y-4276140D01*
X-7115000Y-5063860D01*
X-7120877Y-5123530D01*
X-7136493Y-5175010D01*
X-7161846Y-5222442D01*
X-7195973Y-5264027D01*
X-7237558Y-5298154D01*
X-7284990Y-5323507D01*
X-7336470Y-5339123D01*
X-7396140Y-5345000D01*
X-8283860Y-5345000D01*
X-8343530Y-5339123D01*
X-8395010Y-5323507D01*
X-8442442Y-5298154D01*
X-8484027Y-5264027D01*
X-8518154Y-5222442D01*
X-8543507Y-5175010D01*
X-8559123Y-5123530D01*
X-8565000Y-5063860D01*
X-8565000Y-4276140D01*
X-8559123Y-4216470D01*
X-8543507Y-4164990D01*
X-8518154Y-4117558D01*
X-8484027Y-4075973D01*
X-8442442Y-4041846D01*
X-8395010Y-4016493D01*
X-8343530Y-4000877D01*
X-8283860Y-3995000D01*
X-7396140Y-3995000D01*
X-7336470Y-4000877D01*
X-7336470Y-4000877D01*
G37*
G36*
X-9086470Y-4000877D02*
X-9034990Y-4016493D01*
X-8987558Y-4041846D01*
X-8945973Y-4075973D01*
X-8911846Y-4117558D01*
X-8886493Y-4164990D01*
X-8870877Y-4216470D01*
X-8865000Y-4276140D01*
X-8865000Y-5063860D01*
X-8870877Y-5123530D01*
X-8886493Y-5175010D01*
X-8911846Y-5222442D01*
X-8945973Y-5264027D01*
X-8987558Y-5298154D01*
X-9034990Y-5323507D01*
X-9086470Y-5339123D01*
X-9146140Y-5345000D01*
X-10033860Y-5345000D01*
X-10093530Y-5339123D01*
X-10145010Y-5323507D01*
X-10192442Y-5298154D01*
X-10234027Y-5264027D01*
X-10268154Y-5222442D01*
X-10293507Y-5175010D01*
X-10309123Y-5123530D01*
X-10315000Y-5063860D01*
X-10315000Y-4276140D01*
X-10309123Y-4216470D01*
X-10293507Y-4164990D01*
X-10268154Y-4117558D01*
X-10234027Y-4075973D01*
X-10192442Y-4041846D01*
X-10145010Y-4016493D01*
X-10093530Y-4000877D01*
X-10033860Y-3995000D01*
X-9146140Y-3995000D01*
X-9086470Y-4000877D01*
X-9086470Y-4000877D01*
G37*
G36*
X-13150000Y-5050000D02*
X-14550000Y-5050000D01*
X-14550000Y-1450000D01*
X-13150000Y-1450000D01*
X-13150000Y-5050000D01*
X-13150000Y-5050000D01*
G37*
G36*
X-10950000Y-5050000D02*
X-12350000Y-5050000D01*
X-12350000Y-1450000D01*
X-10950000Y-1450000D01*
X-10950000Y-5050000D01*
X-10950000Y-5050000D01*
G37*
G36*
X18435530Y-3455710D02*
X18485379Y-3470831D01*
X18531311Y-3495382D01*
X18571574Y-3528426D01*
X18604618Y-3568689D01*
X18629169Y-3614621D01*
X18644290Y-3664470D01*
X18650000Y-3722444D01*
X18650000Y-4727556D01*
X18644290Y-4785530D01*
X18629169Y-4835379D01*
X18604618Y-4881311D01*
X18571574Y-4921574D01*
X18531311Y-4954618D01*
X18485379Y-4979169D01*
X18435530Y-4994290D01*
X18377556Y-5000000D01*
X17122444Y-5000000D01*
X17064470Y-4994290D01*
X17014621Y-4979169D01*
X16968689Y-4954618D01*
X16928426Y-4921574D01*
X16895382Y-4881311D01*
X16870831Y-4835379D01*
X16855710Y-4785530D01*
X16850000Y-4727556D01*
X16850000Y-3722444D01*
X16855710Y-3664470D01*
X16870831Y-3614621D01*
X16895382Y-3568689D01*
X16928426Y-3528426D01*
X16968689Y-3495382D01*
X17014621Y-3470831D01*
X17064470Y-3455710D01*
X17122444Y-3450000D01*
X18377556Y-3450000D01*
X18435530Y-3455710D01*
X18435530Y-3455710D01*
G37*
G36*
X21900000Y-4950000D02*
X19100000Y-4950000D01*
X19100000Y-3150000D01*
X21900000Y-3150000D01*
X21900000Y-4950000D01*
X21900000Y-4950000D01*
G37*
G36*
X-24671293Y-2767597D02*
X-24594164Y-2775193D01*
X-24462213Y-2815220D01*
X-24396237Y-2835233D01*
X-24213828Y-2932733D01*
X-24053946Y-3063946D01*
X-23922733Y-3223828D01*
X-23825233Y-3406237D01*
X-23825233Y-3406238D01*
X-23765193Y-3604164D01*
X-23744920Y-3810000D01*
X-23765193Y-4015836D01*
X-23796050Y-4117558D01*
X-23825233Y-4213763D01*
X-23922733Y-4396172D01*
X-24053946Y-4556054D01*
X-24213828Y-4687267D01*
X-24396237Y-4784767D01*
X-24420052Y-4791991D01*
X-24594164Y-4844807D01*
X-24649398Y-4850247D01*
X-24748420Y-4860000D01*
X-24851580Y-4860000D01*
X-24950602Y-4850247D01*
X-25005836Y-4844807D01*
X-25179948Y-4791991D01*
X-25203763Y-4784767D01*
X-25386172Y-4687267D01*
X-25546054Y-4556054D01*
X-25677267Y-4396172D01*
X-25774767Y-4213763D01*
X-25803950Y-4117558D01*
X-25834807Y-4015836D01*
X-25855080Y-3810000D01*
X-25834807Y-3604164D01*
X-25774767Y-3406238D01*
X-25774767Y-3406237D01*
X-25677267Y-3223828D01*
X-25546054Y-3063946D01*
X-25386172Y-2932733D01*
X-25203763Y-2835233D01*
X-25137787Y-2815220D01*
X-25005836Y-2775193D01*
X-24928707Y-2767597D01*
X-24851580Y-2760000D01*
X-24748420Y-2760000D01*
X-24671293Y-2767597D01*
X-24671293Y-2767597D01*
G37*
G36*
X24915985Y-2762500D02*
X25106274Y-2800350D01*
X25297362Y-2879502D01*
X25469336Y-2994411D01*
X25615589Y-3140664D01*
X25730498Y-3312638D01*
X25809650Y-3503726D01*
X25850000Y-3706584D01*
X25850000Y-3913416D01*
X25809650Y-4116274D01*
X25730498Y-4307362D01*
X25615589Y-4479336D01*
X25469336Y-4625589D01*
X25297362Y-4740498D01*
X25106274Y-4819650D01*
X24925888Y-4855530D01*
X24903417Y-4860000D01*
X24696583Y-4860000D01*
X24674112Y-4855530D01*
X24493726Y-4819650D01*
X24302638Y-4740498D01*
X24130664Y-4625589D01*
X23984411Y-4479336D01*
X23869502Y-4307362D01*
X23790350Y-4116274D01*
X23750000Y-3913416D01*
X23750000Y-3706584D01*
X23790350Y-3503726D01*
X23869502Y-3312638D01*
X23984411Y-3140664D01*
X24130664Y-2994411D01*
X24302638Y-2879502D01*
X24493726Y-2800350D01*
X24684015Y-2762500D01*
X24696583Y-2760000D01*
X24903417Y-2760000D01*
X24915985Y-2762500D01*
X24915985Y-2762500D01*
G37*
G36*
X6453530Y-2655877D02*
X6505010Y-2671493D01*
X6552442Y-2696846D01*
X6594027Y-2730973D01*
X6628154Y-2772558D01*
X6653507Y-2819990D01*
X6669123Y-2871470D01*
X6675000Y-2931140D01*
X6675000Y-3818860D01*
X6669123Y-3878530D01*
X6653507Y-3930010D01*
X6628154Y-3977442D01*
X6594027Y-4019027D01*
X6552442Y-4053154D01*
X6505010Y-4078507D01*
X6453530Y-4094123D01*
X6393860Y-4100000D01*
X5606140Y-4100000D01*
X5546470Y-4094123D01*
X5494990Y-4078507D01*
X5447558Y-4053154D01*
X5405973Y-4019027D01*
X5371846Y-3977442D01*
X5346493Y-3930010D01*
X5330877Y-3878530D01*
X5325000Y-3818860D01*
X5325000Y-2931140D01*
X5330877Y-2871470D01*
X5346493Y-2819990D01*
X5371846Y-2772558D01*
X5405973Y-2730973D01*
X5447558Y-2696846D01*
X5494990Y-2671493D01*
X5546470Y-2655877D01*
X5606140Y-2650000D01*
X6393860Y-2650000D01*
X6453530Y-2655877D01*
X6453530Y-2655877D01*
G37*
G36*
X-3525000Y-3830000D02*
X-4575000Y-3830000D01*
X-4575000Y-2370000D01*
X-3525000Y-2370000D01*
X-3525000Y-3830000D01*
X-3525000Y-3830000D01*
G37*
G36*
X-5425000Y-3830000D02*
X-6475000Y-3830000D01*
X-6475000Y-2370000D01*
X-5425000Y-2370000D01*
X-5425000Y-3830000D01*
X-5425000Y-3830000D01*
G37*
G36*
X12889800Y-3801800D02*
X10610200Y-3801800D01*
X10610200Y-1827000D01*
X12889800Y-1827000D01*
X12889800Y-3801800D01*
X12889800Y-3801800D01*
G37*
G36*
X2404183Y-2426900D02*
X2531574Y-2479668D01*
X2646224Y-2556274D01*
X2743726Y-2653776D01*
X2814702Y-2760000D01*
X2820332Y-2768426D01*
X2873100Y-2895817D01*
X2900000Y-3031055D01*
X2900000Y-3168945D01*
X2873100Y-3304183D01*
X2820332Y-3431574D01*
X2743726Y-3546224D01*
X2646224Y-3643726D01*
X2531574Y-3720332D01*
X2404183Y-3773100D01*
X2268945Y-3800000D01*
X2131055Y-3800000D01*
X1995817Y-3773100D01*
X1868426Y-3720332D01*
X1753776Y-3643726D01*
X1656274Y-3546224D01*
X1579668Y-3431574D01*
X1526900Y-3304183D01*
X1500000Y-3168945D01*
X1500000Y-3031055D01*
X1526900Y-2895817D01*
X1579668Y-2768426D01*
X1585298Y-2760000D01*
X1656274Y-2653776D01*
X1753776Y-2556274D01*
X1868426Y-2479668D01*
X1995817Y-2426900D01*
X2131055Y-2400000D01*
X2268945Y-2400000D01*
X2404183Y-2426900D01*
X2404183Y-2426900D01*
G37*
G36*
X-9064470Y-255710D02*
X-9014621Y-270831D01*
X-8968689Y-295382D01*
X-8928426Y-328426D01*
X-8895382Y-368689D01*
X-8870831Y-414621D01*
X-8855710Y-464470D01*
X-8850000Y-522444D01*
X-8850000Y-1527556D01*
X-8855710Y-1585530D01*
X-8870831Y-1635379D01*
X-8895382Y-1681311D01*
X-8928426Y-1721574D01*
X-8968689Y-1754618D01*
X-9014624Y-1779170D01*
X-9022086Y-1781434D01*
X-9044725Y-1790812D01*
X-9065100Y-1804426D01*
X-9082426Y-1821753D01*
X-9096040Y-1842128D01*
X-9105417Y-1864767D01*
X-9110197Y-1888801D01*
X-9110197Y-1913305D01*
X-9105416Y-1937338D01*
X-9096038Y-1959977D01*
X-9082424Y-1980352D01*
X-9065097Y-1997678D01*
X-9044723Y-2011291D01*
X-8987558Y-2041846D01*
X-8945973Y-2075973D01*
X-8911846Y-2117558D01*
X-8886493Y-2164990D01*
X-8870877Y-2216470D01*
X-8865000Y-2276140D01*
X-8865000Y-3063860D01*
X-8870877Y-3123530D01*
X-8886493Y-3175010D01*
X-8911846Y-3222442D01*
X-8945973Y-3264027D01*
X-8987558Y-3298154D01*
X-9034990Y-3323507D01*
X-9086470Y-3339123D01*
X-9146140Y-3345000D01*
X-10033860Y-3345000D01*
X-10093530Y-3339123D01*
X-10145010Y-3323507D01*
X-10192442Y-3298154D01*
X-10234027Y-3264027D01*
X-10268154Y-3222442D01*
X-10293507Y-3175010D01*
X-10309123Y-3123530D01*
X-10315000Y-3063860D01*
X-10315000Y-2276140D01*
X-10309123Y-2216470D01*
X-10293507Y-2164990D01*
X-10268154Y-2117558D01*
X-10234027Y-2075973D01*
X-10192444Y-2041848D01*
X-10180082Y-2035240D01*
X-10159707Y-2021626D01*
X-10142380Y-2004299D01*
X-10128767Y-1983924D01*
X-10119389Y-1961285D01*
X-10114609Y-1937252D01*
X-10114609Y-1912747D01*
X-10119390Y-1888714D01*
X-10128767Y-1866075D01*
X-10142381Y-1845700D01*
X-10159708Y-1828373D01*
X-10180083Y-1814760D01*
X-10202722Y-1805382D01*
X-10239007Y-1800000D01*
X-10377556Y-1800000D01*
X-10435530Y-1794290D01*
X-10485379Y-1779169D01*
X-10531311Y-1754618D01*
X-10571574Y-1721574D01*
X-10604618Y-1681311D01*
X-10629169Y-1635379D01*
X-10644290Y-1585530D01*
X-10650000Y-1527556D01*
X-10650000Y-522444D01*
X-10644290Y-464470D01*
X-10629169Y-414621D01*
X-10604618Y-368689D01*
X-10571574Y-328426D01*
X-10531311Y-295382D01*
X-10485379Y-270831D01*
X-10435530Y-255710D01*
X-10377556Y-250000D01*
X-9122444Y-250000D01*
X-9064470Y-255710D01*
X-9064470Y-255710D01*
G37*
G36*
X-7336470Y-2000877D02*
X-7284990Y-2016493D01*
X-7237558Y-2041846D01*
X-7195973Y-2075973D01*
X-7161846Y-2117558D01*
X-7136493Y-2164990D01*
X-7120877Y-2216470D01*
X-7115000Y-2276140D01*
X-7115000Y-3063860D01*
X-7120877Y-3123530D01*
X-7136493Y-3175010D01*
X-7161846Y-3222442D01*
X-7195973Y-3264027D01*
X-7237558Y-3298154D01*
X-7284990Y-3323507D01*
X-7336470Y-3339123D01*
X-7396140Y-3345000D01*
X-8283860Y-3345000D01*
X-8343530Y-3339123D01*
X-8395010Y-3323507D01*
X-8442442Y-3298154D01*
X-8484027Y-3264027D01*
X-8518154Y-3222442D01*
X-8543507Y-3175010D01*
X-8559123Y-3123530D01*
X-8565000Y-3063860D01*
X-8565000Y-2276140D01*
X-8559123Y-2216470D01*
X-8543507Y-2164990D01*
X-8518154Y-2117558D01*
X-8484027Y-2075973D01*
X-8442442Y-2041846D01*
X-8395010Y-2016493D01*
X-8343530Y-2000877D01*
X-8283860Y-1995000D01*
X-7396140Y-1995000D01*
X-7336470Y-2000877D01*
X-7336470Y-2000877D01*
G37*
G36*
X9703530Y-1655877D02*
X9755010Y-1671493D01*
X9802442Y-1696846D01*
X9844027Y-1730973D01*
X9878154Y-1772558D01*
X9903507Y-1819990D01*
X9919123Y-1871470D01*
X9925000Y-1931140D01*
X9925000Y-2818860D01*
X9919123Y-2878530D01*
X9903507Y-2930010D01*
X9878154Y-2977442D01*
X9844027Y-3019027D01*
X9802442Y-3053154D01*
X9755010Y-3078507D01*
X9703530Y-3094123D01*
X9643860Y-3100000D01*
X8856140Y-3100000D01*
X8796470Y-3094123D01*
X8744990Y-3078507D01*
X8697558Y-3053154D01*
X8655973Y-3019027D01*
X8621846Y-2977442D01*
X8596493Y-2930010D01*
X8580877Y-2878530D01*
X8575000Y-2818860D01*
X8575000Y-1931140D01*
X8580877Y-1871470D01*
X8596493Y-1819990D01*
X8621846Y-1772558D01*
X8655973Y-1730973D01*
X8697558Y-1696846D01*
X8744990Y-1671493D01*
X8796470Y-1655877D01*
X8856140Y-1650000D01*
X9643860Y-1650000D01*
X9703530Y-1655877D01*
X9703530Y-1655877D01*
G37*
G36*
X20200000Y-2800000D02*
X18800000Y-2800000D01*
X18800000Y800000D01*
X20200000Y800000D01*
X20200000Y-2800000D01*
X20200000Y-2800000D01*
G37*
G36*
X22400000Y-2800000D02*
X21000000Y-2800000D01*
X21000000Y800000D01*
X22400000Y800000D01*
X22400000Y-2800000D01*
X22400000Y-2800000D01*
G37*
G36*
X24928707Y-227597D02*
X25005836Y-235193D01*
X25102069Y-264385D01*
X25203763Y-295233D01*
X25386172Y-392733D01*
X25546054Y-523946D01*
X25677267Y-683828D01*
X25774767Y-866237D01*
X25792244Y-923851D01*
X25834807Y-1064164D01*
X25855080Y-1270000D01*
X25834807Y-1475836D01*
X25803662Y-1578507D01*
X25774767Y-1673763D01*
X25677267Y-1856172D01*
X25546054Y-2016054D01*
X25386172Y-2147267D01*
X25203763Y-2244767D01*
X25137787Y-2264780D01*
X25005836Y-2304807D01*
X24928707Y-2312403D01*
X24851580Y-2320000D01*
X24748420Y-2320000D01*
X24671293Y-2312404D01*
X24594164Y-2304807D01*
X24462213Y-2264780D01*
X24396237Y-2244767D01*
X24213828Y-2147267D01*
X24053946Y-2016054D01*
X23922733Y-1856172D01*
X23825233Y-1673763D01*
X23796338Y-1578507D01*
X23765193Y-1475836D01*
X23744920Y-1270000D01*
X23765193Y-1064164D01*
X23807756Y-923851D01*
X23825233Y-866237D01*
X23922733Y-683828D01*
X24053946Y-523946D01*
X24213828Y-392733D01*
X24396237Y-295233D01*
X24497931Y-264385D01*
X24594164Y-235193D01*
X24671293Y-227597D01*
X24748420Y-220000D01*
X24851580Y-220000D01*
X24928707Y-227597D01*
X24928707Y-227597D01*
G37*
G36*
X-24671293Y-227597D02*
X-24594164Y-235193D01*
X-24497931Y-264385D01*
X-24396237Y-295233D01*
X-24213828Y-392733D01*
X-24053946Y-523946D01*
X-23922733Y-683828D01*
X-23825233Y-866237D01*
X-23807756Y-923851D01*
X-23765193Y-1064164D01*
X-23744920Y-1270000D01*
X-23765193Y-1475836D01*
X-23796338Y-1578507D01*
X-23825233Y-1673763D01*
X-23922733Y-1856172D01*
X-24053946Y-2016054D01*
X-24213828Y-2147267D01*
X-24396237Y-2244767D01*
X-24462213Y-2264780D01*
X-24594164Y-2304807D01*
X-24671293Y-2312404D01*
X-24748420Y-2320000D01*
X-24851580Y-2320000D01*
X-24928707Y-2312403D01*
X-25005836Y-2304807D01*
X-25137787Y-2264780D01*
X-25203763Y-2244767D01*
X-25386172Y-2147267D01*
X-25546054Y-2016054D01*
X-25677267Y-1856172D01*
X-25774767Y-1673763D01*
X-25803662Y-1578507D01*
X-25834807Y-1475836D01*
X-25855080Y-1270000D01*
X-25834807Y-1064164D01*
X-25792244Y-923851D01*
X-25774767Y-866237D01*
X-25677267Y-683828D01*
X-25546054Y-523946D01*
X-25386172Y-392733D01*
X-25203763Y-295233D01*
X-25102069Y-264385D01*
X-25005836Y-235193D01*
X-24928707Y-227597D01*
X-24851580Y-220000D01*
X-24748420Y-220000D01*
X-24671293Y-227597D01*
X-24671293Y-227597D01*
G37*
G36*
X18128530Y-830877D02*
X18180010Y-846493D01*
X18227442Y-871846D01*
X18269027Y-905973D01*
X18303154Y-947558D01*
X18328507Y-994990D01*
X18344123Y-1046470D01*
X18350000Y-1106140D01*
X18350000Y-1893860D01*
X18344123Y-1953530D01*
X18328507Y-2005010D01*
X18303154Y-2052442D01*
X18269027Y-2094027D01*
X18227442Y-2128154D01*
X18180010Y-2153507D01*
X18128530Y-2169123D01*
X18068860Y-2175000D01*
X17181140Y-2175000D01*
X17121470Y-2169123D01*
X17069990Y-2153507D01*
X17022558Y-2128154D01*
X16980973Y-2094027D01*
X16946846Y-2052442D01*
X16921493Y-2005010D01*
X16905877Y-1953530D01*
X16900000Y-1893860D01*
X16900000Y-1106140D01*
X16905877Y-1046470D01*
X16921493Y-994990D01*
X16946846Y-947558D01*
X16980973Y-905973D01*
X17022558Y-871846D01*
X17069990Y-846493D01*
X17121470Y-830877D01*
X17181140Y-825000D01*
X18068860Y-825000D01*
X18128530Y-830877D01*
X18128530Y-830877D01*
G37*
G36*
X16378530Y-830877D02*
X16430010Y-846493D01*
X16477442Y-871846D01*
X16519027Y-905973D01*
X16553154Y-947558D01*
X16578507Y-994990D01*
X16594123Y-1046470D01*
X16600000Y-1106140D01*
X16600000Y-1893860D01*
X16594123Y-1953530D01*
X16578507Y-2005010D01*
X16553154Y-2052442D01*
X16519027Y-2094027D01*
X16477442Y-2128154D01*
X16430010Y-2153507D01*
X16378530Y-2169123D01*
X16318860Y-2175000D01*
X15431140Y-2175000D01*
X15371470Y-2169123D01*
X15319990Y-2153507D01*
X15272558Y-2128154D01*
X15230973Y-2094027D01*
X15196846Y-2052442D01*
X15171493Y-2005010D01*
X15155877Y-1953530D01*
X15150000Y-1893860D01*
X15150000Y-1106140D01*
X15155877Y-1046470D01*
X15171493Y-994990D01*
X15196846Y-947558D01*
X15230973Y-905973D01*
X15272558Y-871846D01*
X15319990Y-846493D01*
X15371470Y-830877D01*
X15431140Y-825000D01*
X16318860Y-825000D01*
X16378530Y-830877D01*
X16378530Y-830877D01*
G37*
G36*
X3713750Y2785603D02*
X3726002Y2785001D01*
X4098997Y2785001D01*
X4111250Y2785603D01*
X4112499Y2785726D01*
X4112500Y2785726D01*
X4113750Y2785603D01*
X4126002Y2785001D01*
X4498997Y2785001D01*
X4511250Y2785603D01*
X4512499Y2785726D01*
X4512500Y2785726D01*
X4513750Y2785603D01*
X4526002Y2785001D01*
X4898997Y2785001D01*
X4911250Y2785603D01*
X4912499Y2785726D01*
X4912500Y2785726D01*
X4913750Y2785603D01*
X4926002Y2785001D01*
X5298997Y2785001D01*
X5311250Y2785603D01*
X5312499Y2785726D01*
X5312500Y2785726D01*
X5313750Y2785603D01*
X5326002Y2785001D01*
X5698997Y2785001D01*
X5711250Y2785603D01*
X5712499Y2785726D01*
X5712500Y2785726D01*
X5713750Y2785603D01*
X5726002Y2785001D01*
X5862500Y2785001D01*
X5862500Y1977632D01*
X5861970Y1972249D01*
X5861970Y1947745D01*
X5866752Y1923712D01*
X5876130Y1901073D01*
X5889744Y1880699D01*
X5907072Y1863372D01*
X5927447Y1849759D01*
X5950086Y1840382D01*
X5986368Y1835001D01*
X6565000Y1835001D01*
X6565000Y1035001D01*
X6012500Y1035001D01*
X5988114Y1032599D01*
X5964665Y1025486D01*
X5943054Y1013935D01*
X5924112Y998389D01*
X5908566Y979447D01*
X5897015Y957836D01*
X5889902Y934387D01*
X5887500Y910001D01*
X5887500Y-239999D01*
X5889902Y-264385D01*
X5897015Y-287834D01*
X5908566Y-309445D01*
X5924112Y-328387D01*
X5943054Y-343933D01*
X5964665Y-355484D01*
X5988114Y-362597D01*
X6012500Y-364999D01*
X6565000Y-364999D01*
X6565000Y-1164999D01*
X5986368Y-1164999D01*
X5961982Y-1167401D01*
X5938533Y-1174514D01*
X5916922Y-1186065D01*
X5897980Y-1201611D01*
X5882434Y-1220553D01*
X5870883Y-1242164D01*
X5863770Y-1265613D01*
X5861970Y-1302247D01*
X5862500Y-1307630D01*
X5862500Y-2114999D01*
X5726003Y-2114999D01*
X5713750Y-2115601D01*
X5712501Y-2115724D01*
X5712500Y-2115724D01*
X5711250Y-2115601D01*
X5698998Y-2114999D01*
X5326003Y-2114999D01*
X5313750Y-2115601D01*
X5312501Y-2115724D01*
X5312500Y-2115724D01*
X5311250Y-2115601D01*
X5298998Y-2114999D01*
X4926003Y-2114999D01*
X4913750Y-2115601D01*
X4912501Y-2115724D01*
X4912500Y-2115724D01*
X4911250Y-2115601D01*
X4898998Y-2114999D01*
X4526003Y-2114999D01*
X4513750Y-2115601D01*
X4512501Y-2115724D01*
X4512500Y-2115724D01*
X4511250Y-2115601D01*
X4498998Y-2114999D01*
X4126003Y-2114999D01*
X4113750Y-2115601D01*
X4112501Y-2115724D01*
X4112500Y-2115724D01*
X4111250Y-2115601D01*
X4098998Y-2114999D01*
X3726003Y-2114999D01*
X3713750Y-2115601D01*
X3712501Y-2115724D01*
X3712500Y-2115724D01*
X3711250Y-2115601D01*
X3698998Y-2114999D01*
X3562500Y-2114999D01*
X3562500Y-1690009D01*
X3562501Y-1689999D01*
X3562501Y-1635379D01*
X3562500Y-1307639D01*
X3563031Y-1302247D01*
X3563032Y-1277753D01*
X3558252Y-1253719D01*
X3548876Y-1231080D01*
X3535263Y-1210704D01*
X3517937Y-1193376D01*
X3497563Y-1179762D01*
X3474924Y-1170383D01*
X3450891Y-1165601D01*
X3438633Y-1164999D01*
X2860000Y-1164999D01*
X2860000Y-364999D01*
X3412500Y-364999D01*
X3436886Y-362597D01*
X3460335Y-355484D01*
X3481946Y-343933D01*
X3500888Y-328387D01*
X3516434Y-309445D01*
X3527985Y-287834D01*
X3535098Y-264385D01*
X3537500Y-239999D01*
X3537500Y910001D01*
X3535098Y934387D01*
X3527985Y957836D01*
X3516434Y979447D01*
X3500888Y998389D01*
X3481946Y1013935D01*
X3460335Y1025486D01*
X3436886Y1032599D01*
X3412500Y1035001D01*
X2860000Y1035001D01*
X2860000Y1835001D01*
X3438633Y1835001D01*
X3463019Y1837403D01*
X3486468Y1844516D01*
X3508079Y1856067D01*
X3527021Y1871613D01*
X3542567Y1890555D01*
X3554118Y1912166D01*
X3561231Y1935615D01*
X3563031Y1972249D01*
X3562501Y1977632D01*
X3562500Y2648503D01*
X3562500Y2785001D01*
X3698997Y2785001D01*
X3711250Y2785603D01*
X3712499Y2785726D01*
X3712500Y2785726D01*
X3713750Y2785603D01*
X3713750Y2785603D01*
G37*
G36*
X-3525000Y-1630000D02*
X-6475000Y-1630000D01*
X-6475000Y-170000D01*
X-3525000Y-170000D01*
X-3525000Y-1630000D01*
X-3525000Y-1630000D01*
G37*
G36*
X-7296470Y-155877D02*
X-7244990Y-171493D01*
X-7197558Y-196846D01*
X-7155973Y-230973D01*
X-7121846Y-272558D01*
X-7096493Y-319990D01*
X-7080877Y-371470D01*
X-7075000Y-431140D01*
X-7075000Y-1318860D01*
X-7080877Y-1378530D01*
X-7096493Y-1430010D01*
X-7121846Y-1477442D01*
X-7155973Y-1519027D01*
X-7197558Y-1553154D01*
X-7244990Y-1578507D01*
X-7296470Y-1594123D01*
X-7356140Y-1600000D01*
X-8143860Y-1600000D01*
X-8203530Y-1594123D01*
X-8255010Y-1578507D01*
X-8302442Y-1553154D01*
X-8344027Y-1519027D01*
X-8378154Y-1477442D01*
X-8403507Y-1430010D01*
X-8419123Y-1378530D01*
X-8425000Y-1318860D01*
X-8425000Y-431140D01*
X-8419123Y-371470D01*
X-8403507Y-319990D01*
X-8378154Y-272558D01*
X-8344027Y-230973D01*
X-8302442Y-196846D01*
X-8255010Y-171493D01*
X-8203530Y-155877D01*
X-8143860Y-150000D01*
X-7356140Y-150000D01*
X-7296470Y-155877D01*
X-7296470Y-155877D01*
G37*
G36*
X11188497Y3719958D02*
X11231827Y3706814D01*
X11271755Y3685472D01*
X11306751Y3656751D01*
X11335472Y3621755D01*
X11356814Y3581827D01*
X11369958Y3538497D01*
X11375000Y3487304D01*
X11375000Y2037696D01*
X11369958Y1986503D01*
X11356814Y1943173D01*
X11335473Y1903248D01*
X11315819Y1879299D01*
X11302206Y1858924D01*
X11292828Y1836285D01*
X11288048Y1812252D01*
X11288048Y1787747D01*
X11292829Y1763714D01*
X11302206Y1741075D01*
X11315820Y1720701D01*
X11333147Y1703373D01*
X11353522Y1689760D01*
X11376161Y1680382D01*
X11412446Y1675000D01*
X11418860Y1675000D01*
X11478530Y1669123D01*
X11530010Y1653507D01*
X11577442Y1628154D01*
X11619027Y1594027D01*
X11653154Y1552442D01*
X11678507Y1505010D01*
X11694123Y1453530D01*
X11700000Y1393860D01*
X11700000Y606140D01*
X11694123Y546470D01*
X11678508Y494993D01*
X11662543Y465125D01*
X11653165Y442486D01*
X11648385Y418452D01*
X11648385Y393948D01*
X11653165Y369914D01*
X11662543Y347275D01*
X11676157Y326901D01*
X11693484Y309574D01*
X11713858Y295960D01*
X11736497Y286582D01*
X11772783Y281200D01*
X13080300Y281200D01*
X13080300Y-1541200D01*
X10419700Y-1541200D01*
X10419700Y274036D01*
X10417298Y298422D01*
X10410185Y321871D01*
X10398634Y343482D01*
X10373999Y370662D01*
X10330976Y405970D01*
X10296846Y447558D01*
X10271493Y494990D01*
X10255877Y546470D01*
X10250000Y606140D01*
X10250000Y1393860D01*
X10255877Y1453530D01*
X10271493Y1505010D01*
X10296848Y1552446D01*
X10332347Y1595702D01*
X10345961Y1616076D01*
X10355338Y1638716D01*
X10360118Y1662749D01*
X10360118Y1687253D01*
X10355337Y1711287D01*
X10345960Y1733926D01*
X10332346Y1754300D01*
X10315018Y1771627D01*
X10294644Y1785241D01*
X10272004Y1794618D01*
X10235720Y1800000D01*
X9964280Y1800000D01*
X9939894Y1797598D01*
X9916445Y1790485D01*
X9894834Y1778934D01*
X9875892Y1763388D01*
X9860346Y1744446D01*
X9848795Y1722835D01*
X9841682Y1699386D01*
X9839280Y1675000D01*
X9841682Y1650614D01*
X9848795Y1627165D01*
X9867653Y1595702D01*
X9903152Y1552446D01*
X9928507Y1505010D01*
X9944123Y1453530D01*
X9950000Y1393860D01*
X9950000Y606140D01*
X9944123Y546470D01*
X9928507Y494990D01*
X9903154Y447558D01*
X9869027Y405973D01*
X9827442Y371846D01*
X9780011Y346494D01*
X9720120Y328326D01*
X9697481Y318948D01*
X9677107Y305334D01*
X9659780Y288007D01*
X9646166Y267633D01*
X9636788Y244994D01*
X9632008Y220960D01*
X9632008Y196456D01*
X9636788Y172422D01*
X9646166Y149783D01*
X9659780Y129409D01*
X9677107Y112082D01*
X9697481Y98468D01*
X9720121Y89090D01*
X9755010Y78507D01*
X9802442Y53154D01*
X9844027Y19027D01*
X9878154Y-22558D01*
X9903507Y-69990D01*
X9919123Y-121470D01*
X9925000Y-181140D01*
X9925000Y-1068860D01*
X9919123Y-1128530D01*
X9903507Y-1180010D01*
X9878154Y-1227442D01*
X9844027Y-1269027D01*
X9802442Y-1303154D01*
X9755010Y-1328507D01*
X9703530Y-1344123D01*
X9643860Y-1350000D01*
X8856140Y-1350000D01*
X8796470Y-1344123D01*
X8744990Y-1328507D01*
X8697558Y-1303154D01*
X8655973Y-1269027D01*
X8621846Y-1227442D01*
X8596493Y-1180010D01*
X8580877Y-1128530D01*
X8575000Y-1068860D01*
X8575000Y-181140D01*
X8580877Y-121470D01*
X8596493Y-69990D01*
X8621846Y-22558D01*
X8655973Y19027D01*
X8697558Y53154D01*
X8744993Y78508D01*
X8765908Y84853D01*
X8788547Y94230D01*
X8808921Y107845D01*
X8826248Y125172D01*
X8839862Y145547D01*
X8849239Y168186D01*
X8854019Y192219D01*
X8854019Y216723D01*
X8849238Y240757D01*
X8839861Y263396D01*
X8826246Y283770D01*
X8808919Y301097D01*
X8788544Y314711D01*
X8765905Y324088D01*
X8741872Y328868D01*
X8721470Y330877D01*
X8669990Y346493D01*
X8622558Y371846D01*
X8580973Y405973D01*
X8546846Y447558D01*
X8521493Y494990D01*
X8505877Y546470D01*
X8500000Y606140D01*
X8500000Y1393860D01*
X8505877Y1453530D01*
X8521493Y1505010D01*
X8546848Y1552446D01*
X8582347Y1595702D01*
X8595961Y1616076D01*
X8605338Y1638716D01*
X8610118Y1662749D01*
X8610118Y1687253D01*
X8605337Y1711287D01*
X8595960Y1733926D01*
X8582346Y1754300D01*
X8565018Y1771627D01*
X8544644Y1785241D01*
X8522004Y1794618D01*
X8485720Y1800000D01*
X7862696Y1800000D01*
X7811503Y1805042D01*
X7768173Y1818186D01*
X7728245Y1839528D01*
X7693249Y1868249D01*
X7664528Y1903245D01*
X7643186Y1943173D01*
X7630042Y1986503D01*
X7625000Y2037696D01*
X7625000Y3487304D01*
X7630042Y3538497D01*
X7643186Y3581827D01*
X7664528Y3621755D01*
X7693249Y3656751D01*
X7728245Y3685472D01*
X7768173Y3706814D01*
X7811503Y3719958D01*
X7862696Y3725000D01*
X11137304Y3725000D01*
X11188497Y3719958D01*
X11188497Y3719958D01*
G37*
G36*
X-13714470Y644290D02*
X-13664621Y629169D01*
X-13618689Y604618D01*
X-13578426Y571574D01*
X-13545382Y531311D01*
X-13520831Y485379D01*
X-13505710Y435530D01*
X-13500000Y377556D01*
X-13500000Y-877556D01*
X-13505710Y-935530D01*
X-13520831Y-985379D01*
X-13545382Y-1031311D01*
X-13578426Y-1071574D01*
X-13618689Y-1104618D01*
X-13664621Y-1129169D01*
X-13714470Y-1144290D01*
X-13772444Y-1150000D01*
X-14777556Y-1150000D01*
X-14835530Y-1144290D01*
X-14885379Y-1129169D01*
X-14931311Y-1104618D01*
X-14971574Y-1071574D01*
X-15004618Y-1031311D01*
X-15029169Y-985379D01*
X-15044290Y-935530D01*
X-15050000Y-877556D01*
X-15050000Y377556D01*
X-15044290Y435530D01*
X-15029169Y485379D01*
X-15004618Y531311D01*
X-14971574Y571574D01*
X-14931311Y604618D01*
X-14885379Y629169D01*
X-14835530Y644290D01*
X-14777556Y650000D01*
X-13772444Y650000D01*
X-13714470Y644290D01*
X-13714470Y644290D01*
G37*
G36*
X-11664470Y644290D02*
X-11614621Y629169D01*
X-11568689Y604618D01*
X-11528426Y571574D01*
X-11495382Y531311D01*
X-11470831Y485379D01*
X-11455710Y435530D01*
X-11450000Y377556D01*
X-11450000Y-877556D01*
X-11455710Y-935530D01*
X-11470831Y-985379D01*
X-11495382Y-1031311D01*
X-11528426Y-1071574D01*
X-11568689Y-1104618D01*
X-11614621Y-1129169D01*
X-11664470Y-1144290D01*
X-11722444Y-1150000D01*
X-12727556Y-1150000D01*
X-12785530Y-1144290D01*
X-12835379Y-1129169D01*
X-12881311Y-1104618D01*
X-12921574Y-1071574D01*
X-12954618Y-1031311D01*
X-12979169Y-985379D01*
X-12994290Y-935530D01*
X-13000000Y-877556D01*
X-13000000Y377556D01*
X-12994290Y435530D01*
X-12979169Y485379D01*
X-12954618Y531311D01*
X-12921574Y571574D01*
X-12881311Y604618D01*
X-12835379Y629169D01*
X-12785530Y644290D01*
X-12727556Y650000D01*
X-11722444Y650000D01*
X-11664470Y644290D01*
X-11664470Y644290D01*
G37*
G36*
X16378530Y919123D02*
X16430010Y903507D01*
X16477442Y878154D01*
X16519027Y844027D01*
X16553154Y802442D01*
X16578507Y755010D01*
X16594123Y703530D01*
X16600000Y643860D01*
X16600000Y-143860D01*
X16594123Y-203530D01*
X16578507Y-255010D01*
X16553154Y-302442D01*
X16519027Y-344027D01*
X16477442Y-378154D01*
X16430010Y-403507D01*
X16378530Y-419123D01*
X16318860Y-425000D01*
X15431140Y-425000D01*
X15371470Y-419123D01*
X15319990Y-403507D01*
X15272558Y-378154D01*
X15230973Y-344027D01*
X15196846Y-302442D01*
X15171493Y-255010D01*
X15155877Y-203530D01*
X15150000Y-143860D01*
X15150000Y643860D01*
X15155877Y703530D01*
X15171493Y755010D01*
X15196846Y802442D01*
X15230973Y844027D01*
X15272558Y878154D01*
X15319990Y903507D01*
X15371470Y919123D01*
X15431140Y925000D01*
X16318860Y925000D01*
X16378530Y919123D01*
X16378530Y919123D01*
G37*
G36*
X18128530Y919123D02*
X18180010Y903507D01*
X18227442Y878154D01*
X18269027Y844027D01*
X18303154Y802442D01*
X18328507Y755010D01*
X18344123Y703530D01*
X18350000Y643860D01*
X18350000Y-143860D01*
X18344123Y-203530D01*
X18328507Y-255010D01*
X18303154Y-302442D01*
X18269027Y-344027D01*
X18227442Y-378154D01*
X18180010Y-403507D01*
X18128530Y-419123D01*
X18068860Y-425000D01*
X17181140Y-425000D01*
X17121470Y-419123D01*
X17069990Y-403507D01*
X17022558Y-378154D01*
X16980973Y-344027D01*
X16946846Y-302442D01*
X16921493Y-255010D01*
X16905877Y-203530D01*
X16900000Y-143860D01*
X16900000Y643860D01*
X16905877Y703530D01*
X16921493Y755010D01*
X16946846Y802442D01*
X16980973Y844027D01*
X17022558Y878154D01*
X17069990Y903507D01*
X17121470Y919123D01*
X17181140Y925000D01*
X18068860Y925000D01*
X18128530Y919123D01*
X18128530Y919123D01*
G37*
G36*
X-7296470Y1594123D02*
X-7244990Y1578507D01*
X-7197558Y1553154D01*
X-7155973Y1519027D01*
X-7121846Y1477442D01*
X-7096493Y1430010D01*
X-7080877Y1378530D01*
X-7075000Y1318860D01*
X-7075000Y431140D01*
X-7080877Y371470D01*
X-7096493Y319990D01*
X-7121846Y272558D01*
X-7155973Y230973D01*
X-7197558Y196846D01*
X-7244990Y171493D01*
X-7296470Y155877D01*
X-7356140Y150000D01*
X-8143860Y150000D01*
X-8203530Y155877D01*
X-8255010Y171493D01*
X-8302442Y196846D01*
X-8344027Y230973D01*
X-8378154Y272558D01*
X-8403507Y319990D01*
X-8419123Y371470D01*
X-8425000Y431140D01*
X-8425000Y1318860D01*
X-8419123Y1378530D01*
X-8403507Y1430010D01*
X-8378154Y1477442D01*
X-8344027Y1519027D01*
X-8302442Y1553154D01*
X-8255010Y1578507D01*
X-8203530Y1594123D01*
X-8143860Y1600000D01*
X-7356140Y1600000D01*
X-7296470Y1594123D01*
X-7296470Y1594123D01*
G37*
G36*
X-24671293Y2312404D02*
X-24594164Y2304807D01*
X-24472142Y2267792D01*
X-24396237Y2244767D01*
X-24213828Y2147267D01*
X-24053946Y2016054D01*
X-23922733Y1856172D01*
X-23825233Y1673763D01*
X-23807734Y1616076D01*
X-23765193Y1475836D01*
X-23744920Y1270000D01*
X-23765193Y1064164D01*
X-23776926Y1025486D01*
X-23825233Y866237D01*
X-23922733Y683828D01*
X-24053946Y523946D01*
X-24213828Y392733D01*
X-24396237Y295233D01*
X-24460798Y275649D01*
X-24594164Y235193D01*
X-24671293Y227597D01*
X-24748420Y220000D01*
X-24851580Y220000D01*
X-24928707Y227597D01*
X-25005836Y235193D01*
X-25139202Y275649D01*
X-25203763Y295233D01*
X-25386172Y392733D01*
X-25546054Y523946D01*
X-25677267Y683828D01*
X-25774767Y866237D01*
X-25823074Y1025486D01*
X-25834807Y1064164D01*
X-25855080Y1270000D01*
X-25834807Y1475836D01*
X-25792266Y1616076D01*
X-25774767Y1673763D01*
X-25677267Y1856172D01*
X-25546054Y2016054D01*
X-25386172Y2147267D01*
X-25203763Y2244767D01*
X-25127858Y2267792D01*
X-25005836Y2304807D01*
X-24928707Y2312403D01*
X-24851580Y2320000D01*
X-24748420Y2320000D01*
X-24671293Y2312404D01*
X-24671293Y2312404D01*
G37*
G36*
X24928707Y2312403D02*
X25005836Y2304807D01*
X25127858Y2267792D01*
X25203763Y2244767D01*
X25386172Y2147267D01*
X25546054Y2016054D01*
X25677267Y1856172D01*
X25774767Y1673763D01*
X25792266Y1616076D01*
X25834807Y1475836D01*
X25855080Y1270000D01*
X25834807Y1064164D01*
X25823074Y1025486D01*
X25774767Y866237D01*
X25677267Y683828D01*
X25546054Y523946D01*
X25386172Y392733D01*
X25203763Y295233D01*
X25139202Y275649D01*
X25005836Y235193D01*
X24928707Y227597D01*
X24851580Y220000D01*
X24748420Y220000D01*
X24671293Y227597D01*
X24594164Y235193D01*
X24460798Y275649D01*
X24396237Y295233D01*
X24213828Y392733D01*
X24053946Y523946D01*
X23922733Y683828D01*
X23825233Y866237D01*
X23776926Y1025486D01*
X23765193Y1064164D01*
X23744920Y1270000D01*
X23765193Y1475836D01*
X23807734Y1616076D01*
X23825233Y1673763D01*
X23922733Y1856172D01*
X24053946Y2016054D01*
X24213828Y2147267D01*
X24396237Y2244767D01*
X24472142Y2267792D01*
X24594164Y2304807D01*
X24671293Y2312404D01*
X24748420Y2320000D01*
X24851580Y2320000D01*
X24928707Y2312403D01*
X24928707Y2312403D01*
G37*
G36*
X-9064470Y1794290D02*
X-9014621Y1779169D01*
X-8968689Y1754618D01*
X-8928426Y1721574D01*
X-8895382Y1681311D01*
X-8870831Y1635379D01*
X-8855710Y1585530D01*
X-8850000Y1527556D01*
X-8850000Y522444D01*
X-8855710Y464470D01*
X-8870831Y414621D01*
X-8895382Y368689D01*
X-8928426Y328426D01*
X-8968689Y295382D01*
X-9014621Y270831D01*
X-9064470Y255710D01*
X-9122444Y250000D01*
X-10377556Y250000D01*
X-10435530Y255710D01*
X-10485379Y270831D01*
X-10531311Y295382D01*
X-10571574Y328426D01*
X-10604618Y368689D01*
X-10629169Y414621D01*
X-10644290Y464470D01*
X-10650000Y522444D01*
X-10650000Y1527556D01*
X-10644290Y1585530D01*
X-10629169Y1635379D01*
X-10604618Y1681311D01*
X-10571574Y1721574D01*
X-10531311Y1754618D01*
X-10485379Y1779169D01*
X-10435530Y1794290D01*
X-10377556Y1800000D01*
X-9122444Y1800000D01*
X-9064470Y1794290D01*
X-9064470Y1794290D01*
G37*
G36*
X-3621470Y1919123D02*
X-3569990Y1903507D01*
X-3522558Y1878154D01*
X-3480973Y1844027D01*
X-3446846Y1802442D01*
X-3421493Y1755010D01*
X-3405877Y1703530D01*
X-3400000Y1643860D01*
X-3400000Y856140D01*
X-3405877Y796470D01*
X-3421493Y744990D01*
X-3446846Y697558D01*
X-3480973Y655973D01*
X-3522558Y621846D01*
X-3569990Y596493D01*
X-3621470Y580877D01*
X-3681140Y575000D01*
X-4568860Y575000D01*
X-4628530Y580877D01*
X-4680010Y596493D01*
X-4727442Y621846D01*
X-4769027Y655973D01*
X-4803154Y697558D01*
X-4828507Y744990D01*
X-4844123Y796470D01*
X-4850000Y856140D01*
X-4850000Y1643860D01*
X-4844123Y1703530D01*
X-4828507Y1755010D01*
X-4803154Y1802442D01*
X-4769027Y1844027D01*
X-4727442Y1878154D01*
X-4680010Y1903507D01*
X-4628530Y1919123D01*
X-4568860Y1925000D01*
X-3681140Y1925000D01*
X-3621470Y1919123D01*
X-3621470Y1919123D01*
G37*
G36*
X-5371470Y1919123D02*
X-5319990Y1903507D01*
X-5272558Y1878154D01*
X-5230973Y1844027D01*
X-5196846Y1802442D01*
X-5171493Y1755010D01*
X-5155877Y1703530D01*
X-5150000Y1643860D01*
X-5150000Y856140D01*
X-5155877Y796470D01*
X-5171493Y744990D01*
X-5196846Y697558D01*
X-5230973Y655973D01*
X-5272558Y621846D01*
X-5319990Y596493D01*
X-5371470Y580877D01*
X-5431140Y575000D01*
X-6318860Y575000D01*
X-6378530Y580877D01*
X-6430010Y596493D01*
X-6477442Y621846D01*
X-6519027Y655973D01*
X-6553154Y697558D01*
X-6578507Y744990D01*
X-6594123Y796470D01*
X-6600000Y856140D01*
X-6600000Y1643860D01*
X-6594123Y1703530D01*
X-6578507Y1755010D01*
X-6553154Y1802442D01*
X-6519027Y1844027D01*
X-6477442Y1878154D01*
X-6430010Y1903507D01*
X-6378530Y1919123D01*
X-6318860Y1925000D01*
X-5431140Y1925000D01*
X-5371470Y1919123D01*
X-5371470Y1919123D01*
G37*
G36*
X-11575000Y1070000D02*
X-14525000Y1070000D01*
X-14525000Y2690000D01*
X-11575000Y2690000D01*
X-11575000Y1070000D01*
X-11575000Y1070000D01*
G37*
G36*
X18580000Y2371726D02*
X18582402Y2347340D01*
X18589515Y2323891D01*
X18601066Y2302280D01*
X18616612Y2283338D01*
X18635554Y2267792D01*
X18657165Y2256241D01*
X18680614Y2249128D01*
X18705000Y2246726D01*
X18729386Y2249128D01*
X18752835Y2256241D01*
X18774446Y2267792D01*
X18793388Y2283338D01*
X18853775Y2343725D01*
X18857918Y2346493D01*
X18968426Y2420332D01*
X19095817Y2473100D01*
X19231055Y2500000D01*
X19368945Y2500000D01*
X19504183Y2473100D01*
X19631574Y2420332D01*
X19746224Y2343726D01*
X19843726Y2246224D01*
X19892084Y2173851D01*
X19920332Y2131574D01*
X19973100Y2004183D01*
X20000000Y1868945D01*
X20000000Y1731055D01*
X19973100Y1595817D01*
X19920332Y1468426D01*
X19843725Y1353775D01*
X19746225Y1256275D01*
X19631574Y1179668D01*
X19504183Y1126900D01*
X19368945Y1100000D01*
X19231055Y1100000D01*
X19095817Y1126900D01*
X18968426Y1179668D01*
X18853775Y1256275D01*
X18756275Y1353775D01*
X18679668Y1468426D01*
X18626900Y1595817D01*
X18611272Y1674386D01*
X18604159Y1697835D01*
X18592608Y1719446D01*
X18577063Y1738388D01*
X18558121Y1753934D01*
X18536510Y1765485D01*
X18513061Y1772598D01*
X18488674Y1775000D01*
X17120000Y1775000D01*
X17120000Y4725000D01*
X18580000Y4725000D01*
X18580000Y2371726D01*
X18580000Y2371726D01*
G37*
G36*
X1804183Y3073100D02*
X1931574Y3020332D01*
X2046224Y2943726D01*
X2143726Y2846224D01*
X2213646Y2741580D01*
X2220332Y2731574D01*
X2273100Y2604183D01*
X2300000Y2468945D01*
X2300000Y2331055D01*
X2273100Y2195817D01*
X2231958Y2096493D01*
X2220332Y2068426D01*
X2143726Y1953776D01*
X2046224Y1856274D01*
X1952313Y1793525D01*
X1931574Y1779668D01*
X1804183Y1726900D01*
X1668945Y1700000D01*
X1531055Y1700000D01*
X1395817Y1726900D01*
X1268426Y1779668D01*
X1247687Y1793525D01*
X1153776Y1856274D01*
X1056274Y1953776D01*
X979668Y2068426D01*
X968042Y2096493D01*
X926900Y2195817D01*
X900000Y2331055D01*
X900000Y2468945D01*
X926900Y2604183D01*
X979668Y2731574D01*
X986354Y2741580D01*
X1056274Y2846224D01*
X1153776Y2943726D01*
X1268426Y3020332D01*
X1395817Y3073100D01*
X1531055Y3100000D01*
X1668945Y3100000D01*
X1804183Y3073100D01*
X1804183Y3073100D01*
G37*
G36*
X16380000Y1775000D02*
X14920000Y1775000D01*
X14920000Y2825000D01*
X16380000Y2825000D01*
X16380000Y1775000D01*
X16380000Y1775000D01*
G37*
G36*
X12804183Y3373100D02*
X12931574Y3320332D01*
X13046224Y3243726D01*
X13143726Y3146224D01*
X13182964Y3087500D01*
X13220332Y3031574D01*
X13273100Y2904183D01*
X13300000Y2768945D01*
X13300000Y2631055D01*
X13273100Y2495817D01*
X13221749Y2371846D01*
X13220332Y2368426D01*
X13143726Y2253776D01*
X13046224Y2156274D01*
X12963037Y2100691D01*
X12931574Y2079668D01*
X12804183Y2026900D01*
X12668945Y2000000D01*
X12531055Y2000000D01*
X12395817Y2026900D01*
X12268426Y2079668D01*
X12236963Y2100691D01*
X12153776Y2156274D01*
X12056274Y2253776D01*
X11979668Y2368426D01*
X11978251Y2371846D01*
X11926900Y2495817D01*
X11900000Y2631055D01*
X11900000Y2768945D01*
X11926900Y2904183D01*
X11979668Y3031574D01*
X12017036Y3087500D01*
X12056274Y3146224D01*
X12153776Y3243726D01*
X12268426Y3320332D01*
X12395817Y3373100D01*
X12531055Y3400000D01*
X12668945Y3400000D01*
X12804183Y3373100D01*
X12804183Y3373100D01*
G37*
G36*
X-7296470Y5844123D02*
X-7244990Y5828507D01*
X-7197558Y5803154D01*
X-7155973Y5769027D01*
X-7121846Y5727442D01*
X-7096493Y5680010D01*
X-7080877Y5628530D01*
X-7075000Y5568860D01*
X-7075000Y4681140D01*
X-7080877Y4621470D01*
X-7096493Y4569990D01*
X-7121846Y4522558D01*
X-7155973Y4480973D01*
X-7197558Y4446846D01*
X-7244990Y4421493D01*
X-7296470Y4405877D01*
X-7356140Y4400000D01*
X-8143860Y4400000D01*
X-8203530Y4405877D01*
X-8255010Y4421493D01*
X-8302442Y4446846D01*
X-8344027Y4480973D01*
X-8378154Y4522558D01*
X-8403507Y4569990D01*
X-8419123Y4621470D01*
X-8425602Y4687252D01*
X-8430383Y4711286D01*
X-8439760Y4733925D01*
X-8453374Y4754299D01*
X-8470701Y4771626D01*
X-8491076Y4785240D01*
X-8513715Y4794618D01*
X-8537748Y4799398D01*
X-8562252Y4799398D01*
X-8586286Y4794617D01*
X-8608925Y4785240D01*
X-8629299Y4771626D01*
X-8646626Y4754299D01*
X-8660240Y4733924D01*
X-8669618Y4711285D01*
X-8675000Y4675000D01*
X-8675000Y3857675D01*
X-8680186Y3805018D01*
X-8693753Y3760296D01*
X-8715790Y3719067D01*
X-8745439Y3682939D01*
X-8781571Y3653287D01*
X-8828189Y3628369D01*
X-8848564Y3614755D01*
X-8865891Y3597428D01*
X-8879505Y3577054D01*
X-8888882Y3554415D01*
X-8893663Y3530381D01*
X-8893663Y3505877D01*
X-8888883Y3481844D01*
X-8879505Y3459205D01*
X-8865891Y3438830D01*
X-8848564Y3421503D01*
X-8828189Y3407889D01*
X-8772558Y3378154D01*
X-8730973Y3344027D01*
X-8696846Y3302442D01*
X-8671493Y3255010D01*
X-8655877Y3203530D01*
X-8650000Y3143860D01*
X-8650000Y2356140D01*
X-8655877Y2296470D01*
X-8671493Y2244990D01*
X-8696846Y2197558D01*
X-8730973Y2155973D01*
X-8772558Y2121846D01*
X-8819990Y2096493D01*
X-8871470Y2080877D01*
X-8931140Y2075000D01*
X-9818860Y2075000D01*
X-9878530Y2080877D01*
X-9930010Y2096493D01*
X-9977442Y2121846D01*
X-10019027Y2155973D01*
X-10053154Y2197558D01*
X-10078507Y2244990D01*
X-10094123Y2296470D01*
X-10100000Y2356140D01*
X-10100000Y3143860D01*
X-10094123Y3203530D01*
X-10078507Y3255010D01*
X-10053154Y3302442D01*
X-10019027Y3344027D01*
X-9975980Y3379353D01*
X-9958740Y3390873D01*
X-9941413Y3408200D01*
X-9927799Y3428574D01*
X-9918421Y3451213D01*
X-9913640Y3475246D01*
X-9913640Y3499750D01*
X-9918420Y3523784D01*
X-9927797Y3546423D01*
X-9941411Y3566798D01*
X-9958738Y3584125D01*
X-9979112Y3597739D01*
X-10001751Y3607117D01*
X-10025784Y3611898D01*
X-10038038Y3612500D01*
X-10579825Y3612500D01*
X-10632482Y3617686D01*
X-10677204Y3631253D01*
X-10718433Y3653290D01*
X-10754561Y3682939D01*
X-10784210Y3719067D01*
X-10806247Y3760296D01*
X-10819814Y3805018D01*
X-10825000Y3857675D01*
X-10825000Y5192325D01*
X-10819814Y5244982D01*
X-10806247Y5289704D01*
X-10784210Y5330933D01*
X-10754561Y5367061D01*
X-10718433Y5396710D01*
X-10677204Y5418747D01*
X-10632482Y5432314D01*
X-10579825Y5437500D01*
X-8920175Y5437500D01*
X-8867518Y5432314D01*
X-8822796Y5418747D01*
X-8781567Y5396710D01*
X-8745439Y5367061D01*
X-8715790Y5330933D01*
X-8693753Y5289704D01*
X-8680186Y5244982D01*
X-8674398Y5186213D01*
X-8669617Y5162179D01*
X-8660240Y5139540D01*
X-8646626Y5119166D01*
X-8629299Y5101839D01*
X-8608924Y5088225D01*
X-8586285Y5078847D01*
X-8562252Y5074067D01*
X-8537748Y5074067D01*
X-8513714Y5078848D01*
X-8491075Y5088225D01*
X-8470701Y5101839D01*
X-8453374Y5119166D01*
X-8439760Y5139541D01*
X-8430382Y5162180D01*
X-8425000Y5198465D01*
X-8425000Y5568860D01*
X-8419123Y5628530D01*
X-8403507Y5680010D01*
X-8378154Y5727442D01*
X-8344027Y5769027D01*
X-8302442Y5803154D01*
X-8255010Y5828507D01*
X-8203530Y5844123D01*
X-8143860Y5850000D01*
X-7356140Y5850000D01*
X-7296470Y5844123D01*
X-7296470Y5844123D01*
G37*
G36*
X-7121470Y3419123D02*
X-7069990Y3403507D01*
X-7022558Y3378154D01*
X-6980973Y3344027D01*
X-6946846Y3302442D01*
X-6921493Y3255010D01*
X-6905877Y3203530D01*
X-6900000Y3143860D01*
X-6900000Y2356140D01*
X-6905877Y2296470D01*
X-6921493Y2244990D01*
X-6946846Y2197558D01*
X-6980973Y2155973D01*
X-7022558Y2121846D01*
X-7069990Y2096493D01*
X-7121470Y2080877D01*
X-7181140Y2075000D01*
X-8068860Y2075000D01*
X-8128530Y2080877D01*
X-8180010Y2096493D01*
X-8227442Y2121846D01*
X-8269027Y2155973D01*
X-8303154Y2197558D01*
X-8328507Y2244990D01*
X-8344123Y2296470D01*
X-8350000Y2356140D01*
X-8350000Y3143860D01*
X-8344123Y3203530D01*
X-8328507Y3255010D01*
X-8303154Y3302442D01*
X-8269027Y3344027D01*
X-8227442Y3378154D01*
X-8180010Y3403507D01*
X-8128530Y3419123D01*
X-8068860Y3425000D01*
X-7181140Y3425000D01*
X-7121470Y3419123D01*
X-7121470Y3419123D01*
G37*
G36*
X-3525000Y3920000D02*
X-3624235Y3920000D01*
X-3648621Y3917598D01*
X-3672070Y3910485D01*
X-3693681Y3898934D01*
X-3712623Y3883388D01*
X-3728169Y3864446D01*
X-3739720Y3842835D01*
X-3746833Y3819386D01*
X-3749235Y3795000D01*
X-3746833Y3770614D01*
X-3739720Y3747165D01*
X-3728169Y3725554D01*
X-3712623Y3706612D01*
X-3693681Y3691066D01*
X-3672070Y3679515D01*
X-3636487Y3670602D01*
X-3621470Y3669123D01*
X-3569990Y3653507D01*
X-3522558Y3628154D01*
X-3480973Y3594027D01*
X-3446846Y3552442D01*
X-3421493Y3505010D01*
X-3405877Y3453530D01*
X-3400000Y3393860D01*
X-3400000Y2606140D01*
X-3405877Y2546470D01*
X-3421493Y2494990D01*
X-3446846Y2447558D01*
X-3480973Y2405973D01*
X-3522558Y2371846D01*
X-3569990Y2346493D01*
X-3621470Y2330877D01*
X-3681140Y2325000D01*
X-4568860Y2325000D01*
X-4628530Y2330877D01*
X-4680010Y2346493D01*
X-4727442Y2371846D01*
X-4769027Y2405973D01*
X-4803154Y2447558D01*
X-4828507Y2494990D01*
X-4844123Y2546470D01*
X-4850000Y2606140D01*
X-4850000Y3393860D01*
X-4844123Y3453530D01*
X-4828507Y3505010D01*
X-4803154Y3552442D01*
X-4769027Y3594027D01*
X-4727442Y3628154D01*
X-4680010Y3653507D01*
X-4628530Y3669123D01*
X-4613513Y3670602D01*
X-4589479Y3675383D01*
X-4566840Y3684760D01*
X-4546466Y3698374D01*
X-4529139Y3715701D01*
X-4515525Y3736076D01*
X-4506147Y3758715D01*
X-4501367Y3782748D01*
X-4501367Y3807252D01*
X-4506148Y3831286D01*
X-4515525Y3853925D01*
X-4529139Y3874299D01*
X-4546466Y3891626D01*
X-4566841Y3905240D01*
X-4575000Y3908620D01*
X-4575000Y5380000D01*
X-3525000Y5380000D01*
X-3525000Y3920000D01*
X-3525000Y3920000D01*
G37*
G36*
X-5425000Y3908919D02*
X-5443681Y3898934D01*
X-5462623Y3883388D01*
X-5478169Y3864446D01*
X-5489720Y3842835D01*
X-5496833Y3819386D01*
X-5499235Y3795000D01*
X-5496833Y3770614D01*
X-5489720Y3747165D01*
X-5478169Y3725554D01*
X-5462623Y3706612D01*
X-5443681Y3691066D01*
X-5422070Y3679515D01*
X-5386487Y3670602D01*
X-5371470Y3669123D01*
X-5319990Y3653507D01*
X-5272558Y3628154D01*
X-5230973Y3594027D01*
X-5196846Y3552442D01*
X-5171493Y3505010D01*
X-5155877Y3453530D01*
X-5150000Y3393860D01*
X-5150000Y2606140D01*
X-5155877Y2546470D01*
X-5171493Y2494990D01*
X-5196846Y2447558D01*
X-5230973Y2405973D01*
X-5272558Y2371846D01*
X-5319990Y2346493D01*
X-5371470Y2330877D01*
X-5431140Y2325000D01*
X-6318860Y2325000D01*
X-6378530Y2330877D01*
X-6430010Y2346493D01*
X-6477442Y2371846D01*
X-6519027Y2405973D01*
X-6553154Y2447558D01*
X-6578507Y2494990D01*
X-6594123Y2546470D01*
X-6600000Y2606140D01*
X-6600000Y3393860D01*
X-6594123Y3453530D01*
X-6578507Y3505010D01*
X-6553154Y3552442D01*
X-6519027Y3594027D01*
X-6477442Y3628154D01*
X-6430010Y3653507D01*
X-6378530Y3669123D01*
X-6363513Y3670602D01*
X-6339479Y3675383D01*
X-6316840Y3684760D01*
X-6296466Y3698374D01*
X-6279139Y3715701D01*
X-6265525Y3736076D01*
X-6256147Y3758715D01*
X-6251367Y3782748D01*
X-6251367Y3807252D01*
X-6256148Y3831286D01*
X-6265525Y3853925D01*
X-6279139Y3874299D01*
X-6296466Y3891626D01*
X-6316841Y3905240D01*
X-6339480Y3914618D01*
X-6375765Y3920000D01*
X-6475000Y3920000D01*
X-6475000Y5380000D01*
X-5425000Y5380000D01*
X-5425000Y3908919D01*
X-5425000Y3908919D01*
G37*
G36*
X-24674112Y4855530D02*
X-24493726Y4819650D01*
X-24302638Y4740498D01*
X-24130664Y4625589D01*
X-23984411Y4479336D01*
X-23869502Y4307362D01*
X-23790350Y4116274D01*
X-23754470Y3935888D01*
X-23751309Y3920000D01*
X-23750000Y3913416D01*
X-23750000Y3706584D01*
X-23790350Y3503726D01*
X-23869502Y3312638D01*
X-23984411Y3140664D01*
X-24130664Y2994411D01*
X-24302638Y2879502D01*
X-24493726Y2800350D01*
X-24674112Y2764470D01*
X-24696583Y2760000D01*
X-24903417Y2760000D01*
X-24925888Y2764470D01*
X-25106274Y2800350D01*
X-25297362Y2879502D01*
X-25469336Y2994411D01*
X-25615589Y3140664D01*
X-25730498Y3312638D01*
X-25809650Y3503726D01*
X-25850000Y3706584D01*
X-25850000Y3913416D01*
X-25848690Y3920000D01*
X-25845530Y3935888D01*
X-25809650Y4116274D01*
X-25730498Y4307362D01*
X-25615589Y4479336D01*
X-25469336Y4625589D01*
X-25297362Y4740498D01*
X-25106274Y4819650D01*
X-24925888Y4855530D01*
X-24903417Y4860000D01*
X-24696583Y4860000D01*
X-24674112Y4855530D01*
X-24674112Y4855530D01*
G37*
G36*
X24801030Y4959042D02*
X24808143Y4935593D01*
X24819694Y4913982D01*
X24835240Y4895040D01*
X24854182Y4879494D01*
X24875793Y4867943D01*
X24899242Y4860830D01*
X24903415Y4860000D01*
X24903416Y4860000D01*
X25106274Y4819650D01*
X25297362Y4740498D01*
X25469336Y4625589D01*
X25615589Y4479336D01*
X25730498Y4307362D01*
X25809650Y4116274D01*
X25845530Y3935888D01*
X25848691Y3920000D01*
X25850000Y3913416D01*
X25850000Y3706584D01*
X25809650Y3503726D01*
X25730498Y3312638D01*
X25615589Y3140664D01*
X25469336Y2994411D01*
X25297362Y2879502D01*
X25106274Y2800350D01*
X24925888Y2764470D01*
X24903417Y2760000D01*
X24696583Y2760000D01*
X24674112Y2764470D01*
X24493726Y2800350D01*
X24302638Y2879502D01*
X24130664Y2994411D01*
X23984411Y3140664D01*
X23869502Y3312638D01*
X23790350Y3503726D01*
X23750000Y3706584D01*
X23750000Y3913416D01*
X23751310Y3920000D01*
X23754470Y3935888D01*
X23790350Y4116274D01*
X23869502Y4307362D01*
X23984411Y4479336D01*
X24130664Y4625589D01*
X24302638Y4740498D01*
X24493726Y4819650D01*
X24696584Y4860000D01*
X24696585Y4860000D01*
X24700758Y4860830D01*
X24724207Y4867943D01*
X24745818Y4879494D01*
X24764760Y4895040D01*
X24780306Y4913982D01*
X24791857Y4935593D01*
X24798970Y4959042D01*
X24800000Y4969499D01*
X24801030Y4959042D01*
X24801030Y4959042D01*
G37*
G36*
X4628530Y4919123D02*
X4680010Y4903507D01*
X4727442Y4878154D01*
X4769027Y4844027D01*
X4803154Y4802442D01*
X4828507Y4755010D01*
X4844123Y4703530D01*
X4846132Y4683128D01*
X4850912Y4659095D01*
X4860289Y4636456D01*
X4873903Y4616081D01*
X4891230Y4598754D01*
X4911604Y4585140D01*
X4934243Y4575762D01*
X4958276Y4570981D01*
X4982781Y4570981D01*
X5006814Y4575761D01*
X5029453Y4585138D01*
X5049828Y4598752D01*
X5067155Y4616079D01*
X5080769Y4636453D01*
X5090147Y4659092D01*
X5096492Y4680007D01*
X5121846Y4727442D01*
X5155973Y4769027D01*
X5197558Y4803154D01*
X5244990Y4828507D01*
X5296470Y4844123D01*
X5356140Y4850000D01*
X6143860Y4850000D01*
X6203530Y4844123D01*
X6255010Y4828507D01*
X6302442Y4803154D01*
X6344027Y4769027D01*
X6378154Y4727442D01*
X6403507Y4680010D01*
X6419123Y4628530D01*
X6425000Y4568860D01*
X6425000Y3681140D01*
X6419123Y3621470D01*
X6403507Y3569990D01*
X6378154Y3522558D01*
X6344027Y3480973D01*
X6302442Y3446846D01*
X6255010Y3421493D01*
X6203530Y3405877D01*
X6143860Y3400000D01*
X5356140Y3400000D01*
X5296470Y3405877D01*
X5244990Y3421493D01*
X5197558Y3446846D01*
X5155973Y3480973D01*
X5121846Y3522558D01*
X5096493Y3569990D01*
X5080877Y3621470D01*
X5075000Y3681140D01*
X5075000Y3714887D01*
X5072598Y3739273D01*
X5065485Y3762722D01*
X5053934Y3784333D01*
X5038388Y3803275D01*
X5019446Y3818821D01*
X4997835Y3830372D01*
X4974386Y3837485D01*
X4950000Y3839887D01*
X4925614Y3837485D01*
X4902165Y3830372D01*
X4880554Y3818821D01*
X4861612Y3803275D01*
X4846066Y3784333D01*
X4834515Y3762722D01*
X4830382Y3751172D01*
X4828507Y3744990D01*
X4803154Y3697558D01*
X4769027Y3655973D01*
X4727442Y3621846D01*
X4680010Y3596493D01*
X4628530Y3580877D01*
X4568860Y3575000D01*
X3681140Y3575000D01*
X3621470Y3580877D01*
X3569990Y3596493D01*
X3522558Y3621846D01*
X3480973Y3655973D01*
X3446846Y3697558D01*
X3421493Y3744990D01*
X3405877Y3796470D01*
X3400000Y3856140D01*
X3400000Y4643860D01*
X3405877Y4703530D01*
X3421493Y4755010D01*
X3446846Y4802442D01*
X3480973Y4844027D01*
X3522558Y4878154D01*
X3569990Y4903507D01*
X3621470Y4919123D01*
X3681140Y4925000D01*
X4568860Y4925000D01*
X4628530Y4919123D01*
X4628530Y4919123D01*
G37*
G36*
X2878530Y4919123D02*
X2930010Y4903507D01*
X2977442Y4878154D01*
X3019027Y4844027D01*
X3053154Y4802442D01*
X3078507Y4755010D01*
X3094123Y4703530D01*
X3100000Y4643860D01*
X3100000Y3856140D01*
X3094123Y3796470D01*
X3078507Y3744990D01*
X3053154Y3697558D01*
X3019027Y3655973D01*
X2977442Y3621846D01*
X2930010Y3596493D01*
X2878530Y3580877D01*
X2818860Y3575000D01*
X1931140Y3575000D01*
X1871470Y3580877D01*
X1819990Y3596493D01*
X1772558Y3621846D01*
X1730973Y3655973D01*
X1696846Y3697558D01*
X1671493Y3744990D01*
X1655877Y3796470D01*
X1650000Y3856140D01*
X1650000Y4643860D01*
X1655877Y4703530D01*
X1671493Y4755010D01*
X1696846Y4802442D01*
X1730973Y4844027D01*
X1772558Y4878154D01*
X1819990Y4903507D01*
X1871470Y4919123D01*
X1931140Y4925000D01*
X2818860Y4925000D01*
X2878530Y4919123D01*
X2878530Y4919123D01*
G37*
G36*
X16380000Y3675000D02*
X14920000Y3675000D01*
X14920000Y4725000D01*
X16380000Y4725000D01*
X16380000Y3675000D01*
X16380000Y3675000D01*
G37*
G36*
X-11575000Y3690000D02*
X-12625000Y3690000D01*
X-12625000Y5310000D01*
X-11575000Y5310000D01*
X-11575000Y3690000D01*
X-11575000Y3690000D01*
G37*
G36*
X-13475000Y3690000D02*
X-14525000Y3690000D01*
X-14525000Y5310000D01*
X-13475000Y5310000D01*
X-13475000Y3690000D01*
X-13475000Y3690000D01*
G37*
G36*
X14423530Y5714123D02*
X14475010Y5698507D01*
X14522442Y5673154D01*
X14564027Y5639027D01*
X14598154Y5597442D01*
X14623507Y5550010D01*
X14639123Y5498530D01*
X14645000Y5438860D01*
X14645000Y4551140D01*
X14639123Y4491470D01*
X14623507Y4439990D01*
X14598154Y4392558D01*
X14564027Y4350973D01*
X14522442Y4316846D01*
X14475010Y4291493D01*
X14423530Y4275877D01*
X14363860Y4270000D01*
X13576140Y4270000D01*
X13516470Y4275877D01*
X13464990Y4291493D01*
X13417558Y4316846D01*
X13375973Y4350973D01*
X13341846Y4392558D01*
X13316493Y4439990D01*
X13300877Y4491470D01*
X13295000Y4551140D01*
X13295000Y5438860D01*
X13300877Y5498530D01*
X13316493Y5550010D01*
X13341846Y5597442D01*
X13375973Y5639027D01*
X13417558Y5673154D01*
X13464990Y5698507D01*
X13516470Y5714123D01*
X13576140Y5720000D01*
X14363860Y5720000D01*
X14423530Y5714123D01*
X14423530Y5714123D01*
G37*
G36*
X19963530Y5714123D02*
X20015010Y5698507D01*
X20062442Y5673154D01*
X20104027Y5639027D01*
X20138154Y5597442D01*
X20163507Y5550010D01*
X20179123Y5498530D01*
X20185000Y5438860D01*
X20185000Y4551140D01*
X20179123Y4491470D01*
X20163507Y4439990D01*
X20138154Y4392558D01*
X20104027Y4350973D01*
X20062442Y4316846D01*
X20015010Y4291493D01*
X19963530Y4275877D01*
X19903860Y4270000D01*
X19116140Y4270000D01*
X19056470Y4275877D01*
X19004990Y4291493D01*
X18957558Y4316846D01*
X18915973Y4350973D01*
X18881846Y4392558D01*
X18856493Y4439990D01*
X18840877Y4491470D01*
X18835000Y4551140D01*
X18835000Y5438860D01*
X18840877Y5498530D01*
X18856493Y5550010D01*
X18881846Y5597442D01*
X18915973Y5639027D01*
X18957558Y5673154D01*
X19004990Y5698507D01*
X19056470Y5714123D01*
X19116140Y5720000D01*
X19903860Y5720000D01*
X19963530Y5714123D01*
X19963530Y5714123D01*
G37*
G36*
X25004183Y6473100D02*
X25128375Y6421657D01*
X25131574Y6420332D01*
X25246224Y6343726D01*
X25343726Y6246224D01*
X25408020Y6150000D01*
X25420332Y6131574D01*
X25473100Y6004183D01*
X25500000Y5868945D01*
X25500000Y5731055D01*
X25473100Y5595817D01*
X25428233Y5487500D01*
X25420332Y5468426D01*
X25343726Y5353776D01*
X25246224Y5256274D01*
X25157283Y5196846D01*
X25131574Y5179668D01*
X25004182Y5126900D01*
X24899242Y5106026D01*
X24875793Y5098913D01*
X24854182Y5087362D01*
X24835240Y5071816D01*
X24819694Y5052874D01*
X24808143Y5031263D01*
X24801030Y5007814D01*
X24800000Y4997357D01*
X24798970Y5007814D01*
X24791857Y5031263D01*
X24780306Y5052874D01*
X24764760Y5071816D01*
X24745818Y5087362D01*
X24724207Y5098913D01*
X24700758Y5106026D01*
X24595818Y5126900D01*
X24468426Y5179668D01*
X24442717Y5196846D01*
X24353776Y5256274D01*
X24256274Y5353776D01*
X24179668Y5468426D01*
X24171767Y5487500D01*
X24126900Y5595817D01*
X24100000Y5731055D01*
X24100000Y5868945D01*
X24126900Y6004183D01*
X24179668Y6131574D01*
X24191980Y6150000D01*
X24256274Y6246224D01*
X24353776Y6343726D01*
X24468426Y6420332D01*
X24471625Y6421657D01*
X24595817Y6473100D01*
X24731055Y6500000D01*
X24868945Y6500000D01*
X25004183Y6473100D01*
X25004183Y6473100D01*
G37*
G36*
X18128530Y6419123D02*
X18180010Y6403507D01*
X18227442Y6378154D01*
X18269027Y6344027D01*
X18303154Y6302442D01*
X18328507Y6255010D01*
X18344123Y6203530D01*
X18350000Y6143860D01*
X18350000Y5356140D01*
X18344123Y5296470D01*
X18328507Y5244990D01*
X18303154Y5197558D01*
X18269027Y5155973D01*
X18227442Y5121846D01*
X18180010Y5096493D01*
X18128530Y5080877D01*
X18068860Y5075000D01*
X17181140Y5075000D01*
X17121470Y5080877D01*
X17069990Y5096493D01*
X17022558Y5121846D01*
X16980973Y5155973D01*
X16946846Y5197558D01*
X16921493Y5244990D01*
X16905877Y5296470D01*
X16900000Y5356140D01*
X16900000Y6143860D01*
X16905877Y6203530D01*
X16921493Y6255010D01*
X16946846Y6302442D01*
X16980973Y6344027D01*
X17022558Y6378154D01*
X17069990Y6403507D01*
X17121470Y6419123D01*
X17181140Y6425000D01*
X18068860Y6425000D01*
X18128530Y6419123D01*
X18128530Y6419123D01*
G37*
G36*
X16378530Y6419123D02*
X16430010Y6403507D01*
X16477442Y6378154D01*
X16519027Y6344027D01*
X16553154Y6302442D01*
X16578507Y6255010D01*
X16594123Y6203530D01*
X16600000Y6143860D01*
X16600000Y5356140D01*
X16594123Y5296470D01*
X16578507Y5244990D01*
X16553154Y5197558D01*
X16519027Y5155973D01*
X16477442Y5121846D01*
X16430010Y5096493D01*
X16378530Y5080877D01*
X16318860Y5075000D01*
X15431140Y5075000D01*
X15371470Y5080877D01*
X15319990Y5096493D01*
X15272558Y5121846D01*
X15230973Y5155973D01*
X15196846Y5197558D01*
X15171493Y5244990D01*
X15155877Y5296470D01*
X15150000Y5356140D01*
X15150000Y6143860D01*
X15155877Y6203530D01*
X15171493Y6255010D01*
X15196846Y6302442D01*
X15230973Y6344027D01*
X15272558Y6378154D01*
X15319990Y6403507D01*
X15371470Y6419123D01*
X15431140Y6425000D01*
X16318860Y6425000D01*
X16378530Y6419123D01*
X16378530Y6419123D01*
G37*
G36*
X6203530Y6594123D02*
X6255010Y6578507D01*
X6302442Y6553154D01*
X6344027Y6519027D01*
X6378154Y6477442D01*
X6403507Y6430010D01*
X6419123Y6378530D01*
X6425000Y6318860D01*
X6425000Y5431140D01*
X6419123Y5371470D01*
X6403507Y5319990D01*
X6378154Y5272558D01*
X6344027Y5230973D01*
X6302442Y5196846D01*
X6255010Y5171493D01*
X6203530Y5155877D01*
X6143860Y5150000D01*
X5356140Y5150000D01*
X5296470Y5155877D01*
X5244990Y5171493D01*
X5197558Y5196846D01*
X5155973Y5230973D01*
X5121846Y5272558D01*
X5096493Y5319990D01*
X5080877Y5371470D01*
X5075000Y5431140D01*
X5075000Y6318860D01*
X5080877Y6378530D01*
X5096493Y6430010D01*
X5121846Y6477442D01*
X5155973Y6519027D01*
X5197558Y6553154D01*
X5244990Y6578507D01*
X5296470Y6594123D01*
X5356140Y6600000D01*
X6143860Y6600000D01*
X6203530Y6594123D01*
X6203530Y6594123D01*
G37*
G36*
X14462715Y7530000D02*
X14465117Y7505614D01*
X14472230Y7482165D01*
X14483781Y7460554D01*
X14499327Y7441612D01*
X14518269Y7426066D01*
X14520585Y7424678D01*
X14564027Y7389027D01*
X14598154Y7347442D01*
X14623507Y7300010D01*
X14639123Y7248530D01*
X14645000Y7188860D01*
X14645000Y6301140D01*
X14639123Y6241470D01*
X14623507Y6189990D01*
X14598154Y6142558D01*
X14564027Y6100973D01*
X14522442Y6066846D01*
X14475010Y6041493D01*
X14423530Y6025877D01*
X14363860Y6020000D01*
X13576140Y6020000D01*
X13516470Y6025877D01*
X13464990Y6041493D01*
X13417558Y6066846D01*
X13375973Y6100973D01*
X13341846Y6142558D01*
X13316493Y6189990D01*
X13300877Y6241470D01*
X13295000Y6301140D01*
X13295000Y7188860D01*
X13300877Y7248530D01*
X13316493Y7300010D01*
X13341846Y7347442D01*
X13375973Y7389027D01*
X13417558Y7423154D01*
X13464990Y7448507D01*
X13516470Y7464123D01*
X13576140Y7470000D01*
X14352342Y7470000D01*
X14376728Y7472402D01*
X14400177Y7479515D01*
X14421788Y7491066D01*
X14440730Y7506612D01*
X14456276Y7525554D01*
X14463633Y7539318D01*
X14462715Y7530000D01*
X14462715Y7530000D01*
G37*
G36*
X19025686Y7482259D02*
X19048325Y7472882D01*
X19072358Y7468101D01*
X19096865Y7468101D01*
X19116143Y7470000D01*
X19903860Y7470000D01*
X19963530Y7464123D01*
X20015010Y7448507D01*
X20062442Y7423154D01*
X20104027Y7389027D01*
X20138154Y7347442D01*
X20163507Y7300010D01*
X20179123Y7248530D01*
X20185000Y7188860D01*
X20185000Y6301140D01*
X20179123Y6241470D01*
X20163507Y6189990D01*
X20138154Y6142558D01*
X20104027Y6100973D01*
X20062442Y6066846D01*
X20015010Y6041493D01*
X19963530Y6025877D01*
X19903860Y6020000D01*
X19116140Y6020000D01*
X19056470Y6025877D01*
X19004990Y6041493D01*
X18957558Y6066846D01*
X18915973Y6100973D01*
X18881846Y6142558D01*
X18856493Y6189990D01*
X18840877Y6241470D01*
X18835000Y6301140D01*
X18835000Y7188860D01*
X18840877Y7248530D01*
X18856493Y7300010D01*
X18881846Y7347442D01*
X18915973Y7389027D01*
X18960878Y7425879D01*
X18974141Y7434741D01*
X18991468Y7452068D01*
X19005082Y7472442D01*
X19012734Y7490913D01*
X19025686Y7482259D01*
X19025686Y7482259D01*
G37*
G36*
X-3525000Y6120000D02*
X-6475000Y6120000D01*
X-6475000Y7580000D01*
X-3525000Y7580000D01*
X-3525000Y6120000D01*
X-3525000Y6120000D01*
G37*
G36*
X-8867518Y8407314D02*
X-8822796Y8393747D01*
X-8781567Y8371710D01*
X-8745439Y8342061D01*
X-8715790Y8305933D01*
X-8693753Y8264704D01*
X-8680186Y8219982D01*
X-8675000Y8167325D01*
X-8675000Y7325000D01*
X-8672598Y7300614D01*
X-8665485Y7277165D01*
X-8653934Y7255554D01*
X-8638388Y7236612D01*
X-8619446Y7221066D01*
X-8597835Y7209515D01*
X-8574386Y7202402D01*
X-8550000Y7200000D01*
X-8525614Y7202402D01*
X-8502165Y7209515D01*
X-8480554Y7221066D01*
X-8461612Y7236612D01*
X-8446066Y7255554D01*
X-8434515Y7277165D01*
X-8425602Y7312748D01*
X-8419123Y7378530D01*
X-8403507Y7430010D01*
X-8378154Y7477442D01*
X-8344027Y7519027D01*
X-8302442Y7553154D01*
X-8255010Y7578507D01*
X-8203530Y7594123D01*
X-8143860Y7600000D01*
X-7356140Y7600000D01*
X-7296470Y7594123D01*
X-7244990Y7578507D01*
X-7197558Y7553154D01*
X-7155973Y7519027D01*
X-7121846Y7477442D01*
X-7096493Y7430010D01*
X-7080877Y7378530D01*
X-7075000Y7318860D01*
X-7075000Y6431140D01*
X-7080877Y6371470D01*
X-7096493Y6319990D01*
X-7121846Y6272558D01*
X-7155973Y6230973D01*
X-7197558Y6196846D01*
X-7244990Y6171493D01*
X-7296470Y6155877D01*
X-7356140Y6150000D01*
X-8143860Y6150000D01*
X-8203530Y6155877D01*
X-8255010Y6171493D01*
X-8302442Y6196846D01*
X-8344027Y6230973D01*
X-8378154Y6272558D01*
X-8403507Y6319990D01*
X-8419123Y6371470D01*
X-8425000Y6431140D01*
X-8425000Y6826535D01*
X-8427402Y6850921D01*
X-8434515Y6874370D01*
X-8446066Y6895981D01*
X-8461612Y6914923D01*
X-8480554Y6930469D01*
X-8502165Y6942020D01*
X-8525614Y6949133D01*
X-8550000Y6951535D01*
X-8574386Y6949133D01*
X-8597835Y6942020D01*
X-8619446Y6930469D01*
X-8638388Y6914923D01*
X-8653934Y6895981D01*
X-8665485Y6874370D01*
X-8674398Y6838787D01*
X-8680186Y6780018D01*
X-8693753Y6735296D01*
X-8715790Y6694067D01*
X-8745439Y6657939D01*
X-8781567Y6628290D01*
X-8822796Y6606253D01*
X-8867518Y6592686D01*
X-8920175Y6587500D01*
X-10579825Y6587500D01*
X-10632482Y6592686D01*
X-10677204Y6606253D01*
X-10718433Y6628290D01*
X-10754561Y6657939D01*
X-10784210Y6694067D01*
X-10806247Y6735296D01*
X-10819814Y6780018D01*
X-10825000Y6832675D01*
X-10825000Y8167325D01*
X-10819814Y8219982D01*
X-10806247Y8264704D01*
X-10784210Y8305933D01*
X-10754561Y8342061D01*
X-10718433Y8371710D01*
X-10677204Y8393747D01*
X-10632482Y8407314D01*
X-10579825Y8412500D01*
X-8920175Y8412500D01*
X-8867518Y8407314D01*
X-8867518Y8407314D01*
G37*
G36*
X-13464470Y8394290D02*
X-13414621Y8379169D01*
X-13368689Y8354618D01*
X-13328426Y8321574D01*
X-13295382Y8281311D01*
X-13270831Y8235379D01*
X-13255710Y8185530D01*
X-13250000Y8127556D01*
X-13250000Y6872444D01*
X-13255710Y6814470D01*
X-13270831Y6764621D01*
X-13295382Y6718689D01*
X-13328426Y6678426D01*
X-13368689Y6645382D01*
X-13414621Y6620831D01*
X-13464470Y6605710D01*
X-13522444Y6600000D01*
X-14527556Y6600000D01*
X-14585530Y6605710D01*
X-14635379Y6620831D01*
X-14681311Y6645382D01*
X-14721574Y6678426D01*
X-14754618Y6718689D01*
X-14779169Y6764621D01*
X-14794290Y6814470D01*
X-14800000Y6872444D01*
X-14800000Y8127556D01*
X-14794290Y8185530D01*
X-14779169Y8235379D01*
X-14754618Y8281311D01*
X-14721574Y8321574D01*
X-14681311Y8354618D01*
X-14635379Y8379169D01*
X-14585530Y8394290D01*
X-14527556Y8400000D01*
X-13522444Y8400000D01*
X-13464470Y8394290D01*
X-13464470Y8394290D01*
G37*
G36*
X-11414470Y8394290D02*
X-11364621Y8379169D01*
X-11318689Y8354618D01*
X-11278426Y8321574D01*
X-11245382Y8281311D01*
X-11220831Y8235379D01*
X-11205710Y8185530D01*
X-11200000Y8127556D01*
X-11200000Y6872444D01*
X-11205710Y6814470D01*
X-11220831Y6764621D01*
X-11245382Y6718689D01*
X-11278426Y6678426D01*
X-11318689Y6645382D01*
X-11364621Y6620831D01*
X-11414470Y6605710D01*
X-11472444Y6600000D01*
X-12477556Y6600000D01*
X-12535530Y6605710D01*
X-12585379Y6620831D01*
X-12631311Y6645382D01*
X-12671574Y6678426D01*
X-12704618Y6718689D01*
X-12729169Y6764621D01*
X-12744290Y6814470D01*
X-12750000Y6872444D01*
X-12750000Y8127556D01*
X-12744290Y8185530D01*
X-12729169Y8235379D01*
X-12704618Y8281311D01*
X-12671574Y8321574D01*
X-12631311Y8354618D01*
X-12585379Y8379169D01*
X-12535530Y8394290D01*
X-12477556Y8400000D01*
X-11472444Y8400000D01*
X-11414470Y8394290D01*
X-11414470Y8394290D01*
G37*
G36*
X22900000Y7000000D02*
X21500000Y7000000D01*
X21500000Y8400000D01*
X22900000Y8400000D01*
X22900000Y7000000D01*
X22900000Y7000000D01*
G37*
G36*
X15952482Y9799814D02*
X15997204Y9786247D01*
X16038433Y9764210D01*
X16074561Y9734561D01*
X16104210Y9698433D01*
X16126247Y9657204D01*
X16139814Y9612482D01*
X16145000Y9559825D01*
X16145000Y7900175D01*
X16139814Y7847518D01*
X16126247Y7802796D01*
X16104210Y7761567D01*
X16074561Y7725439D01*
X16038433Y7695790D01*
X15997204Y7673753D01*
X15952482Y7660186D01*
X15899825Y7655000D01*
X14587715Y7655000D01*
X14563329Y7652598D01*
X14539880Y7645485D01*
X14518269Y7633934D01*
X14499327Y7618388D01*
X14483781Y7599446D01*
X14476424Y7585682D01*
X14477342Y7595000D01*
X14474940Y7619386D01*
X14467827Y7642835D01*
X14456276Y7664446D01*
X14440730Y7683388D01*
X14431640Y7691627D01*
X14390439Y7725439D01*
X14360790Y7761567D01*
X14338753Y7802796D01*
X14325186Y7847518D01*
X14320000Y7900175D01*
X14320000Y9559825D01*
X14325186Y9612482D01*
X14338753Y9657204D01*
X14360790Y9698433D01*
X14390439Y9734561D01*
X14426567Y9764210D01*
X14467796Y9786247D01*
X14512518Y9799814D01*
X14565175Y9805000D01*
X15899825Y9805000D01*
X15952482Y9799814D01*
X15952482Y9799814D01*
G37*
G36*
X4700000Y9510932D02*
X4702402Y9486546D01*
X4709515Y9463097D01*
X4721066Y9441486D01*
X4736612Y9422544D01*
X4755554Y9406998D01*
X4777165Y9395447D01*
X4800614Y9388334D01*
X4825000Y9385932D01*
X4837252Y9386534D01*
X4872443Y9390000D01*
X5877556Y9390000D01*
X5935530Y9384290D01*
X5985379Y9369169D01*
X6031311Y9344618D01*
X6071574Y9311574D01*
X6104618Y9271311D01*
X6129169Y9225379D01*
X6144290Y9175530D01*
X6150000Y9117556D01*
X6150000Y7862444D01*
X6144290Y7804470D01*
X6129169Y7754621D01*
X6104618Y7708689D01*
X6071574Y7668426D01*
X6031311Y7635382D01*
X5985379Y7610831D01*
X5935530Y7595710D01*
X5877556Y7590000D01*
X4872444Y7590000D01*
X4814470Y7595710D01*
X4764621Y7610831D01*
X4718689Y7635382D01*
X4678426Y7668426D01*
X4645382Y7708689D01*
X4620831Y7754621D01*
X4605710Y7804470D01*
X4600000Y7862444D01*
X4600000Y9117556D01*
X4605710Y9175530D01*
X4620831Y9225379D01*
X4645752Y9272002D01*
X4658495Y9291074D01*
X4667873Y9313713D01*
X4672654Y9337746D01*
X4672654Y9362250D01*
X4667874Y9386284D01*
X4658497Y9408923D01*
X4644883Y9429298D01*
X4627557Y9446625D01*
X4607182Y9460239D01*
X4584543Y9469617D01*
X4560510Y9474398D01*
X4548256Y9475000D01*
X4151744Y9475000D01*
X4127358Y9472598D01*
X4103909Y9465485D01*
X4082298Y9453934D01*
X4063356Y9438388D01*
X4047810Y9419446D01*
X4036259Y9397835D01*
X4029146Y9374386D01*
X4026744Y9350000D01*
X4029146Y9325614D01*
X4036259Y9302165D01*
X4047810Y9280554D01*
X4054495Y9271540D01*
X4079169Y9225379D01*
X4094290Y9175530D01*
X4100000Y9117556D01*
X4100000Y7862444D01*
X4094290Y7804470D01*
X4079169Y7754621D01*
X4054618Y7708689D01*
X4021574Y7668426D01*
X3981311Y7635382D01*
X3935379Y7610831D01*
X3885530Y7595710D01*
X3827556Y7590000D01*
X2822444Y7590000D01*
X2764470Y7595710D01*
X2714621Y7610831D01*
X2668689Y7635382D01*
X2628426Y7668426D01*
X2595382Y7708689D01*
X2570831Y7754621D01*
X2555710Y7804470D01*
X2550000Y7862444D01*
X2550000Y9117556D01*
X2555710Y9175530D01*
X2570831Y9225379D01*
X2595752Y9272002D01*
X2608495Y9291074D01*
X2617873Y9313713D01*
X2622654Y9337746D01*
X2622654Y9362250D01*
X2617874Y9386284D01*
X2608497Y9408923D01*
X2594883Y9429298D01*
X2577557Y9446625D01*
X2557182Y9460239D01*
X2534543Y9469617D01*
X2510510Y9474398D01*
X2498256Y9475000D01*
X1800000Y9475000D01*
X1800000Y10925000D01*
X4700000Y10925000D01*
X4700000Y9510932D01*
X4700000Y9510932D01*
G37*
G36*
X18927482Y9799814D02*
X18972204Y9786247D01*
X19013433Y9764210D01*
X19049561Y9734561D01*
X19079210Y9698433D01*
X19101247Y9657204D01*
X19114814Y9612482D01*
X19120000Y9559825D01*
X19120000Y7900175D01*
X19114814Y7847518D01*
X19101247Y7802796D01*
X19079210Y7761567D01*
X19049561Y7725439D01*
X19005313Y7689126D01*
X18987985Y7671799D01*
X18974371Y7651424D01*
X18966720Y7632952D01*
X18953767Y7641607D01*
X18931128Y7650985D01*
X18907094Y7655765D01*
X18882588Y7655765D01*
X18874822Y7655000D01*
X17540175Y7655000D01*
X17487518Y7660186D01*
X17442796Y7673753D01*
X17401567Y7695790D01*
X17365439Y7725439D01*
X17335790Y7761567D01*
X17313753Y7802796D01*
X17300186Y7847518D01*
X17295000Y7900175D01*
X17295000Y9559825D01*
X17300186Y9612482D01*
X17313753Y9657204D01*
X17335790Y9698433D01*
X17365439Y9734561D01*
X17401567Y9764210D01*
X17442796Y9786247D01*
X17487518Y9799814D01*
X17540175Y9805000D01*
X18874825Y9805000D01*
X18927482Y9799814D01*
X18927482Y9799814D01*
G37*
G36*
X11188497Y9694958D02*
X11231827Y9681814D01*
X11271755Y9660472D01*
X11306751Y9631751D01*
X11335472Y9596755D01*
X11356814Y9556827D01*
X11369958Y9513497D01*
X11375000Y9462304D01*
X11375000Y8012696D01*
X11369958Y7961503D01*
X11356814Y7918173D01*
X11335472Y7878245D01*
X11306751Y7843249D01*
X11271755Y7814528D01*
X11231827Y7793186D01*
X11188497Y7780042D01*
X11137304Y7775000D01*
X7862696Y7775000D01*
X7811503Y7780042D01*
X7768173Y7793186D01*
X7728245Y7814528D01*
X7693249Y7843249D01*
X7664528Y7878245D01*
X7643186Y7918173D01*
X7630042Y7961503D01*
X7625000Y8012696D01*
X7625000Y9462304D01*
X7630042Y9513497D01*
X7643186Y9556827D01*
X7664528Y9596755D01*
X7693249Y9631751D01*
X7728245Y9660472D01*
X7768173Y9681814D01*
X7811503Y9694958D01*
X7862696Y9700000D01*
X11137304Y9700000D01*
X11188497Y9694958D01*
X11188497Y9694958D01*
G37*
G36*
X-6721470Y10069123D02*
X-6669990Y10053507D01*
X-6622558Y10028154D01*
X-6580973Y9994027D01*
X-6546846Y9952442D01*
X-6521493Y9905010D01*
X-6505877Y9853530D01*
X-6500000Y9793860D01*
X-6500000Y9006140D01*
X-6505877Y8946470D01*
X-6521493Y8894990D01*
X-6546846Y8847558D01*
X-6580973Y8805973D01*
X-6622558Y8771846D01*
X-6669990Y8746493D01*
X-6721470Y8730877D01*
X-6781140Y8725000D01*
X-7668860Y8725000D01*
X-7728530Y8730877D01*
X-7780010Y8746493D01*
X-7827442Y8771846D01*
X-7869027Y8805973D01*
X-7903154Y8847558D01*
X-7928507Y8894990D01*
X-7944123Y8946470D01*
X-7950000Y9006140D01*
X-7950000Y9793860D01*
X-7944123Y9853530D01*
X-7928507Y9905010D01*
X-7903154Y9952442D01*
X-7869027Y9994027D01*
X-7827442Y10028154D01*
X-7780010Y10053507D01*
X-7728530Y10069123D01*
X-7668860Y10075000D01*
X-6781140Y10075000D01*
X-6721470Y10069123D01*
X-6721470Y10069123D01*
G37*
G36*
X-8471470Y10069123D02*
X-8419990Y10053507D01*
X-8372558Y10028154D01*
X-8330973Y9994027D01*
X-8296846Y9952442D01*
X-8271493Y9905010D01*
X-8255877Y9853530D01*
X-8250000Y9793860D01*
X-8250000Y9006140D01*
X-8255877Y8946470D01*
X-8271493Y8894990D01*
X-8296846Y8847558D01*
X-8330973Y8805973D01*
X-8372558Y8771846D01*
X-8419990Y8746493D01*
X-8471470Y8730877D01*
X-8531140Y8725000D01*
X-9418860Y8725000D01*
X-9478530Y8730877D01*
X-9530010Y8746493D01*
X-9577442Y8771846D01*
X-9619027Y8805973D01*
X-9653154Y8847558D01*
X-9678507Y8894990D01*
X-9694123Y8946470D01*
X-9700000Y9006140D01*
X-9700000Y9793860D01*
X-9694123Y9853530D01*
X-9678507Y9905010D01*
X-9653154Y9952442D01*
X-9619027Y9994027D01*
X-9577442Y10028154D01*
X-9530010Y10053507D01*
X-9478530Y10069123D01*
X-9418860Y10075000D01*
X-8531140Y10075000D01*
X-8471470Y10069123D01*
X-8471470Y10069123D01*
G37*
G36*
X-11522842Y16721262D02*
X-10913181Y16468732D01*
X-10364497Y16102113D01*
X-9897887Y15635503D01*
X-9531268Y15086819D01*
X-9278738Y14477158D01*
X-9150000Y13829948D01*
X-9150000Y13170052D01*
X-9278738Y12522842D01*
X-9531268Y11913181D01*
X-9897887Y11364497D01*
X-10364497Y10897887D01*
X-10913181Y10531268D01*
X-11522842Y10278738D01*
X-12170052Y10150000D01*
X-12829948Y10150000D01*
X-13477158Y10278738D01*
X-14086819Y10531268D01*
X-14635503Y10897887D01*
X-15102113Y11364497D01*
X-15468732Y11913181D01*
X-15721262Y12522842D01*
X-15850000Y13170052D01*
X-15850000Y13829948D01*
X-15721262Y14477158D01*
X-15468732Y15086819D01*
X-15102113Y15635503D01*
X-14635503Y16102113D01*
X-14086819Y16468732D01*
X-13477158Y16721262D01*
X-12829948Y16850000D01*
X-12170052Y16850000D01*
X-11522842Y16721262D01*
X-11522842Y16721262D01*
G37*
G36*
X13462574Y16673183D02*
X14063135Y16424423D01*
X14603630Y16063275D01*
X15063275Y15603630D01*
X15424423Y15063135D01*
X15673183Y14462574D01*
X15800000Y13825023D01*
X15800000Y13174977D01*
X15673183Y12537426D01*
X15424423Y11936865D01*
X15063275Y11396370D01*
X14603630Y10936725D01*
X14063135Y10575577D01*
X13462574Y10326817D01*
X12825023Y10200000D01*
X12174977Y10200000D01*
X11537426Y10326817D01*
X10936865Y10575577D01*
X10396370Y10936725D01*
X9936725Y11396370D01*
X9575577Y11936865D01*
X9326817Y12537426D01*
X9200000Y13174977D01*
X9200000Y13825023D01*
X9326817Y14462574D01*
X9575577Y15063135D01*
X9936725Y15603630D01*
X10396370Y16063275D01*
X10936865Y16424423D01*
X11537426Y16673183D01*
X12174977Y16800000D01*
X12825023Y16800000D01*
X13462574Y16673183D01*
X13462574Y16673183D01*
G37*
G36*
X18182262Y10350841D02*
X16082262Y10350841D01*
X16082262Y12450841D01*
X18182262Y12450841D01*
X18182262Y10350841D01*
X18182262Y10350841D01*
G37*
G36*
X19800969Y12443245D02*
X19878098Y12435648D01*
X20009400Y12395818D01*
X20076025Y12375608D01*
X20258434Y12278108D01*
X20418316Y12146895D01*
X20549529Y11987013D01*
X20647029Y11804604D01*
X20647029Y11804603D01*
X20707069Y11606677D01*
X20727342Y11400841D01*
X20707069Y11195005D01*
X20667042Y11063054D01*
X20647029Y10997078D01*
X20549529Y10814669D01*
X20418316Y10654787D01*
X20258434Y10523574D01*
X20076025Y10426074D01*
X20011448Y10406485D01*
X19878098Y10366034D01*
X19800969Y10358437D01*
X19723842Y10350841D01*
X19620682Y10350841D01*
X19543555Y10358437D01*
X19466426Y10366034D01*
X19333076Y10406485D01*
X19268499Y10426074D01*
X19086090Y10523574D01*
X18926208Y10654787D01*
X18794995Y10814669D01*
X18697495Y10997078D01*
X18677482Y11063054D01*
X18637455Y11195005D01*
X18617182Y11400841D01*
X18637455Y11606677D01*
X18697495Y11804603D01*
X18697495Y11804604D01*
X18794995Y11987013D01*
X18926208Y12146895D01*
X19086090Y12278108D01*
X19268499Y12375608D01*
X19335124Y12395818D01*
X19466426Y12435648D01*
X19543555Y12443244D01*
X19620682Y12450841D01*
X19723842Y12450841D01*
X19800969Y12443245D01*
X19800969Y12443245D01*
G37*
G36*
X22338150Y12446371D02*
X22518536Y12410491D01*
X22709624Y12331339D01*
X22881598Y12216430D01*
X23027851Y12070177D01*
X23142760Y11898203D01*
X23221912Y11707115D01*
X23249412Y11568860D01*
X23260623Y11512500D01*
X23262262Y11504257D01*
X23262262Y11297425D01*
X23221912Y11094567D01*
X23142760Y10903479D01*
X23027851Y10731505D01*
X22881598Y10585252D01*
X22709624Y10470343D01*
X22518536Y10391191D01*
X22338150Y10355311D01*
X22315679Y10350841D01*
X22108845Y10350841D01*
X22086374Y10355311D01*
X21905988Y10391191D01*
X21714900Y10470343D01*
X21542926Y10585252D01*
X21396673Y10731505D01*
X21281764Y10903479D01*
X21202612Y11094567D01*
X21162262Y11297425D01*
X21162262Y11504257D01*
X21163902Y11512500D01*
X21175112Y11568860D01*
X21202612Y11707115D01*
X21281764Y11898203D01*
X21396673Y12070177D01*
X21542926Y12216430D01*
X21714900Y12331339D01*
X21905988Y12410491D01*
X22086374Y12446371D01*
X22108845Y12450841D01*
X22315679Y12450841D01*
X22338150Y12446371D01*
X22338150Y12446371D01*
G37*
G36*
X6453530Y11844123D02*
X6505010Y11828507D01*
X6552442Y11803154D01*
X6594027Y11769027D01*
X6628154Y11727442D01*
X6653507Y11680010D01*
X6669123Y11628530D01*
X6675000Y11568860D01*
X6675000Y10681140D01*
X6669123Y10621470D01*
X6653507Y10569990D01*
X6628154Y10522558D01*
X6594027Y10480973D01*
X6552442Y10446846D01*
X6505010Y10421493D01*
X6453530Y10405877D01*
X6393860Y10400000D01*
X5606140Y10400000D01*
X5546470Y10405877D01*
X5494990Y10421493D01*
X5447558Y10446846D01*
X5405973Y10480973D01*
X5371846Y10522558D01*
X5346493Y10569990D01*
X5330877Y10621470D01*
X5325000Y10681140D01*
X5325000Y11568860D01*
X5330877Y11628530D01*
X5346493Y11680010D01*
X5371846Y11727442D01*
X5405973Y11769027D01*
X5447558Y11803154D01*
X5494990Y11828507D01*
X5546470Y11844123D01*
X5606140Y11850000D01*
X6393860Y11850000D01*
X6453530Y11844123D01*
X6453530Y11844123D01*
G37*
G36*
X-19599031Y12543245D02*
X-19521902Y12535648D01*
X-19389951Y12495621D01*
X-19323975Y12475608D01*
X-19141566Y12378108D01*
X-18981684Y12246895D01*
X-18850471Y12087013D01*
X-18752971Y11904604D01*
X-18736407Y11850000D01*
X-18692931Y11706677D01*
X-18672658Y11500841D01*
X-18692931Y11295005D01*
X-18732958Y11163054D01*
X-18752971Y11097078D01*
X-18850471Y10914669D01*
X-18981684Y10754787D01*
X-19141566Y10623574D01*
X-19323975Y10526074D01*
X-19389951Y10506061D01*
X-19521902Y10466034D01*
X-19599031Y10458437D01*
X-19676158Y10450841D01*
X-19779318Y10450841D01*
X-19856445Y10458437D01*
X-19933574Y10466034D01*
X-20065525Y10506061D01*
X-20131501Y10526074D01*
X-20313910Y10623574D01*
X-20473792Y10754787D01*
X-20605005Y10914669D01*
X-20702505Y11097078D01*
X-20722518Y11163054D01*
X-20762545Y11295005D01*
X-20782818Y11500841D01*
X-20762545Y11706677D01*
X-20719069Y11850000D01*
X-20702505Y11904604D01*
X-20605005Y12087013D01*
X-20473792Y12246895D01*
X-20313910Y12378108D01*
X-20131501Y12475608D01*
X-20065525Y12495621D01*
X-19933574Y12535648D01*
X-19856445Y12543245D01*
X-19779318Y12550841D01*
X-19676158Y12550841D01*
X-19599031Y12543245D01*
X-19599031Y12543245D01*
G37*
G36*
X-22139031Y12543245D02*
X-22061902Y12535648D01*
X-21929951Y12495621D01*
X-21863975Y12475608D01*
X-21681566Y12378108D01*
X-21521684Y12246895D01*
X-21390471Y12087013D01*
X-21292971Y11904604D01*
X-21276407Y11850000D01*
X-21232931Y11706677D01*
X-21212658Y11500841D01*
X-21232931Y11295005D01*
X-21272958Y11163054D01*
X-21292971Y11097078D01*
X-21390471Y10914669D01*
X-21521684Y10754787D01*
X-21681566Y10623574D01*
X-21863975Y10526074D01*
X-21929951Y10506061D01*
X-22061902Y10466034D01*
X-22139031Y10458437D01*
X-22216158Y10450841D01*
X-22319318Y10450841D01*
X-22396445Y10458437D01*
X-22473574Y10466034D01*
X-22605525Y10506061D01*
X-22671501Y10526074D01*
X-22853910Y10623574D01*
X-23013792Y10754787D01*
X-23145005Y10914669D01*
X-23242505Y11097078D01*
X-23262518Y11163054D01*
X-23302545Y11295005D01*
X-23322818Y11500841D01*
X-23302545Y11706677D01*
X-23259069Y11850000D01*
X-23242505Y11904604D01*
X-23145005Y12087013D01*
X-23013792Y12246895D01*
X-22853910Y12378108D01*
X-22671501Y12475608D01*
X-22605525Y12495621D01*
X-22473574Y12535648D01*
X-22396445Y12543245D01*
X-22319318Y12550841D01*
X-22216158Y12550841D01*
X-22139031Y12543245D01*
X-22139031Y12543245D01*
G37*
G36*
X-17061850Y12546371D02*
X-16881464Y12510491D01*
X-16690376Y12431339D01*
X-16518402Y12316430D01*
X-16372149Y12170177D01*
X-16257240Y11998203D01*
X-16178088Y11807115D01*
X-16137738Y11604257D01*
X-16137738Y11397425D01*
X-16178088Y11194567D01*
X-16257240Y11003479D01*
X-16372149Y10831505D01*
X-16518402Y10685252D01*
X-16690376Y10570343D01*
X-16881464Y10491191D01*
X-17061850Y10455311D01*
X-17084321Y10450841D01*
X-17291155Y10450841D01*
X-17313626Y10455311D01*
X-17494012Y10491191D01*
X-17685100Y10570343D01*
X-17857074Y10685252D01*
X-18003327Y10831505D01*
X-18118236Y11003479D01*
X-18197388Y11194567D01*
X-18237738Y11397425D01*
X-18237738Y11604257D01*
X-18197388Y11807115D01*
X-18118236Y11998203D01*
X-18003327Y12170177D01*
X-17857074Y12316430D01*
X-17685100Y12431339D01*
X-17494012Y12510491D01*
X-17313626Y12546371D01*
X-17291155Y12550841D01*
X-17084321Y12550841D01*
X-17061850Y12546371D01*
X-17061850Y12546371D01*
G37*
G36*
X504183Y13273100D02*
X631574Y13220332D01*
X699452Y13174978D01*
X746225Y13143725D01*
X843725Y13046225D01*
X920332Y12931574D01*
X973100Y12804183D01*
X1000000Y12668945D01*
X1000000Y12531055D01*
X973100Y12395817D01*
X924342Y12278108D01*
X920332Y12268426D01*
X854685Y12170177D01*
X843725Y12153775D01*
X746225Y12056275D01*
X631574Y11979668D01*
X504183Y11926900D01*
X368945Y11900000D01*
X231055Y11900000D01*
X95817Y11926900D01*
X-31574Y11979668D01*
X-146225Y12056275D01*
X-243725Y12153775D01*
X-254684Y12170177D01*
X-320332Y12268426D01*
X-324342Y12278108D01*
X-373100Y12395817D01*
X-400000Y12531055D01*
X-400000Y12668945D01*
X-373100Y12804183D01*
X-320332Y12931574D01*
X-243725Y13046225D01*
X-146225Y13143725D01*
X-99451Y13174978D01*
X-31574Y13220332D01*
X95817Y13273100D01*
X231055Y13300000D01*
X368945Y13300000D01*
X504183Y13273100D01*
X504183Y13273100D01*
G37*
G36*
X4700000Y12075000D02*
X3700000Y12075000D01*
X3700000Y13525000D01*
X4700000Y13525000D01*
X4700000Y12075000D01*
X4700000Y12075000D01*
G37*
G36*
X2800000Y12075000D02*
X1800000Y12075000D01*
X1800000Y13525000D01*
X2800000Y13525000D01*
X2800000Y12075000D01*
X2800000Y12075000D01*
G37*
G36*
X6453530Y13594123D02*
X6505010Y13578507D01*
X6552442Y13553154D01*
X6594027Y13519027D01*
X6628154Y13477442D01*
X6653507Y13430010D01*
X6669123Y13378530D01*
X6675000Y13318860D01*
X6675000Y12431140D01*
X6669123Y12371470D01*
X6653507Y12319990D01*
X6628154Y12272558D01*
X6594027Y12230973D01*
X6552442Y12196846D01*
X6505010Y12171493D01*
X6453530Y12155877D01*
X6393860Y12150000D01*
X5606140Y12150000D01*
X5546470Y12155877D01*
X5494990Y12171493D01*
X5447558Y12196846D01*
X5405973Y12230973D01*
X5371846Y12272558D01*
X5346493Y12319990D01*
X5330877Y12371470D01*
X5325000Y12431140D01*
X5325000Y13318860D01*
X5330877Y13378530D01*
X5346493Y13430010D01*
X5371846Y13477442D01*
X5405973Y13519027D01*
X5447558Y13553154D01*
X5494990Y13578507D01*
X5546470Y13594123D01*
X5606140Y13600000D01*
X6393860Y13600000D01*
X6453530Y13594123D01*
X6453530Y13594123D01*
G37*
G36*
X4835530Y15644290D02*
X4885379Y15629169D01*
X4931311Y15604618D01*
X4971574Y15571574D01*
X5004618Y15531311D01*
X5029169Y15485379D01*
X5044290Y15435530D01*
X5050000Y15377556D01*
X5050000Y14122444D01*
X5044290Y14064470D01*
X5029169Y14014621D01*
X5004618Y13968689D01*
X4971574Y13928426D01*
X4931311Y13895382D01*
X4885379Y13870831D01*
X4835530Y13855710D01*
X4777556Y13850000D01*
X3772444Y13850000D01*
X3714470Y13855710D01*
X3664621Y13870831D01*
X3618689Y13895382D01*
X3578426Y13928426D01*
X3545382Y13968689D01*
X3520831Y14014621D01*
X3505710Y14064470D01*
X3500000Y14122444D01*
X3500000Y15377556D01*
X3505710Y15435530D01*
X3520831Y15485379D01*
X3545382Y15531311D01*
X3578426Y15571574D01*
X3618689Y15604618D01*
X3664621Y15629169D01*
X3714470Y15644290D01*
X3772444Y15650000D01*
X4777556Y15650000D01*
X4835530Y15644290D01*
X4835530Y15644290D01*
G37*
G36*
X2785530Y15644290D02*
X2835379Y15629169D01*
X2881311Y15604618D01*
X2921574Y15571574D01*
X2954618Y15531311D01*
X2979169Y15485379D01*
X2994290Y15435530D01*
X3000000Y15377556D01*
X3000000Y14122444D01*
X2994290Y14064470D01*
X2979169Y14014621D01*
X2954618Y13968689D01*
X2921574Y13928426D01*
X2881311Y13895382D01*
X2835379Y13870831D01*
X2785530Y13855710D01*
X2727556Y13850000D01*
X1722444Y13850000D01*
X1664470Y13855710D01*
X1614621Y13870831D01*
X1568689Y13895382D01*
X1528426Y13928426D01*
X1495382Y13968689D01*
X1470831Y14014621D01*
X1455710Y14064470D01*
X1450000Y14122444D01*
X1450000Y15377556D01*
X1455710Y15435530D01*
X1470831Y15485379D01*
X1495382Y15531311D01*
X1528426Y15571574D01*
X1568689Y15604618D01*
X1614621Y15629169D01*
X1664470Y15644290D01*
X1722444Y15650000D01*
X2727556Y15650000D01*
X2785530Y15644290D01*
X2785530Y15644290D01*
G37*
G36*
X-5995817Y16673100D02*
X-5868426Y16620332D01*
X-5753776Y16543726D01*
X-5656274Y16446224D01*
X-5579668Y16331574D01*
X-5526900Y16204182D01*
X-5505932Y16098766D01*
X-5498819Y16075316D01*
X-5487268Y16053705D01*
X-5471723Y16034763D01*
X-5452781Y16019218D01*
X-5431170Y16007666D01*
X-5407721Y16000553D01*
X-5402106Y16000000D01*
X-5407720Y15999447D01*
X-5431170Y15992334D01*
X-5452780Y15980783D01*
X-5471722Y15965237D01*
X-5487268Y15946295D01*
X-5498819Y15924684D01*
X-5505932Y15901234D01*
X-5526900Y15795818D01*
X-5579668Y15668426D01*
X-5656274Y15553776D01*
X-5753776Y15456274D01*
X-5784822Y15435530D01*
X-5868426Y15379668D01*
X-5995817Y15326900D01*
X-6131055Y15300000D01*
X-6268945Y15300000D01*
X-6404183Y15326900D01*
X-6531574Y15379668D01*
X-6615178Y15435530D01*
X-6646224Y15456274D01*
X-6743726Y15553776D01*
X-6820332Y15668426D01*
X-6873100Y15795817D01*
X-6900000Y15931055D01*
X-6900000Y16068945D01*
X-6873100Y16204183D01*
X-6820332Y16331574D01*
X-6743726Y16446224D01*
X-6646224Y16543726D01*
X-6531574Y16620332D01*
X-6404183Y16673100D01*
X-6268945Y16700000D01*
X-6131055Y16700000D01*
X-5995817Y16673100D01*
X-5995817Y16673100D01*
G37*
G36*
X-1095818Y16673100D02*
X-968427Y16620332D01*
X-853777Y16543726D01*
X-756275Y16446224D01*
X-679669Y16331574D01*
X-626901Y16204183D01*
X-600001Y16068945D01*
X-600001Y15931055D01*
X-626901Y15795817D01*
X-679669Y15668426D01*
X-756275Y15553776D01*
X-853777Y15456274D01*
X-884823Y15435530D01*
X-968427Y15379668D01*
X-1095818Y15326900D01*
X-1231056Y15300000D01*
X-1368946Y15300000D01*
X-1504184Y15326900D01*
X-1631575Y15379668D01*
X-1715179Y15435530D01*
X-1746225Y15456274D01*
X-1843727Y15553776D01*
X-1920333Y15668426D01*
X-1973101Y15795818D01*
X-1994070Y15901235D01*
X-2001183Y15924685D01*
X-2012734Y15946295D01*
X-2028280Y15965237D01*
X-2047222Y15980783D01*
X-2068833Y15992334D01*
X-2092282Y15999447D01*
X-2097897Y16000000D01*
X-2092283Y16000553D01*
X-2068833Y16007666D01*
X-2047222Y16019217D01*
X-2028280Y16034762D01*
X-2012735Y16053704D01*
X-2001183Y16075315D01*
X-1994070Y16098765D01*
X-1973101Y16204182D01*
X-1920333Y16331574D01*
X-1843727Y16446224D01*
X-1746225Y16543726D01*
X-1631575Y16620332D01*
X-1504184Y16673100D01*
X-1368946Y16700000D01*
X-1231056Y16700000D01*
X-1095818Y16673100D01*
X-1095818Y16673100D01*
G37*
G36*
X-2729151Y16673100D02*
X-2601760Y16620332D01*
X-2487110Y16543726D01*
X-2389608Y16446224D01*
X-2313002Y16331574D01*
X-2260234Y16204182D01*
X-2239266Y16098766D01*
X-2232153Y16075316D01*
X-2220602Y16053705D01*
X-2205057Y16034763D01*
X-2186115Y16019218D01*
X-2164504Y16007666D01*
X-2141055Y16000553D01*
X-2135440Y16000000D01*
X-2141054Y15999447D01*
X-2164504Y15992334D01*
X-2186114Y15980783D01*
X-2205056Y15965237D01*
X-2220602Y15946295D01*
X-2232153Y15924684D01*
X-2239266Y15901234D01*
X-2260234Y15795818D01*
X-2313002Y15668426D01*
X-2389608Y15553776D01*
X-2487110Y15456274D01*
X-2518156Y15435530D01*
X-2601760Y15379668D01*
X-2729151Y15326900D01*
X-2864389Y15300000D01*
X-3002279Y15300000D01*
X-3137517Y15326900D01*
X-3264908Y15379668D01*
X-3348512Y15435530D01*
X-3379558Y15456274D01*
X-3477060Y15553776D01*
X-3553666Y15668426D01*
X-3606434Y15795818D01*
X-3627403Y15901235D01*
X-3634516Y15924685D01*
X-3646067Y15946295D01*
X-3661613Y15965237D01*
X-3680555Y15980783D01*
X-3702166Y15992334D01*
X-3725615Y15999447D01*
X-3731230Y16000000D01*
X-3725616Y16000553D01*
X-3702166Y16007666D01*
X-3680555Y16019217D01*
X-3661613Y16034762D01*
X-3646068Y16053704D01*
X-3634516Y16075315D01*
X-3627403Y16098765D01*
X-3606434Y16204182D01*
X-3553666Y16331574D01*
X-3477060Y16446224D01*
X-3379558Y16543726D01*
X-3264908Y16620332D01*
X-3137517Y16673100D01*
X-3002279Y16700000D01*
X-2864389Y16700000D01*
X-2729151Y16673100D01*
X-2729151Y16673100D01*
G37*
G36*
X-4362484Y16673100D02*
X-4235093Y16620332D01*
X-4120443Y16543726D01*
X-4022941Y16446224D01*
X-3946335Y16331574D01*
X-3893567Y16204182D01*
X-3872599Y16098766D01*
X-3865486Y16075316D01*
X-3853935Y16053705D01*
X-3838390Y16034763D01*
X-3819448Y16019218D01*
X-3797837Y16007666D01*
X-3774388Y16000553D01*
X-3768773Y16000000D01*
X-3774387Y15999447D01*
X-3797837Y15992334D01*
X-3819447Y15980783D01*
X-3838389Y15965237D01*
X-3853935Y15946295D01*
X-3865486Y15924684D01*
X-3872599Y15901234D01*
X-3893567Y15795818D01*
X-3946335Y15668426D01*
X-4022941Y15553776D01*
X-4120443Y15456274D01*
X-4151489Y15435530D01*
X-4235093Y15379668D01*
X-4362484Y15326900D01*
X-4497722Y15300000D01*
X-4635612Y15300000D01*
X-4770850Y15326900D01*
X-4898241Y15379668D01*
X-4981845Y15435530D01*
X-5012891Y15456274D01*
X-5110393Y15553776D01*
X-5186999Y15668426D01*
X-5239767Y15795818D01*
X-5260736Y15901235D01*
X-5267849Y15924685D01*
X-5279400Y15946295D01*
X-5294946Y15965237D01*
X-5313888Y15980783D01*
X-5335499Y15992334D01*
X-5358948Y15999447D01*
X-5364563Y16000000D01*
X-5358949Y16000553D01*
X-5335499Y16007666D01*
X-5313888Y16019217D01*
X-5294946Y16034762D01*
X-5279401Y16053704D01*
X-5267849Y16075315D01*
X-5260736Y16098765D01*
X-5239767Y16204182D01*
X-5186999Y16331574D01*
X-5110393Y16446224D01*
X-5012891Y16543726D01*
X-4898241Y16620332D01*
X-4770850Y16673100D01*
X-4635612Y16700000D01*
X-4497722Y16700000D01*
X-4362484Y16673100D01*
X-4362484Y16673100D01*
G37*
G36*
X1717721Y19252903D02*
X1822364Y19209559D01*
X1916544Y19146630D01*
X1996630Y19066544D01*
X2059559Y18972364D01*
X2102903Y18867721D01*
X2125000Y18756632D01*
X2125000Y18643368D01*
X2102903Y18532279D01*
X2059559Y18427636D01*
X1996630Y18333456D01*
X1916544Y18253370D01*
X1822364Y18190441D01*
X1717721Y18147097D01*
X1606633Y18125000D01*
X1493367Y18125000D01*
X1382279Y18147097D01*
X1277636Y18190441D01*
X1183456Y18253370D01*
X1103370Y18333456D01*
X1040441Y18427636D01*
X997097Y18532279D01*
X975000Y18643368D01*
X975000Y18756632D01*
X997097Y18867721D01*
X1040441Y18972364D01*
X1103370Y19066544D01*
X1183456Y19146630D01*
X1277636Y19209559D01*
X1382279Y19252903D01*
X1493367Y19275000D01*
X1606633Y19275000D01*
X1717721Y19252903D01*
X1717721Y19252903D01*
G37*
G36*
X6204183Y23873100D02*
X6331574Y23820332D01*
X6446225Y23743725D01*
X6543725Y23646225D01*
X6620332Y23531574D01*
X6673100Y23404183D01*
X6700000Y23268945D01*
X6700000Y23131055D01*
X6673100Y22995817D01*
X6620332Y22868426D01*
X6543725Y22753775D01*
X6446225Y22656275D01*
X6367890Y22603933D01*
X6348948Y22588388D01*
X6333403Y22569446D01*
X6321852Y22547835D01*
X6314739Y22524386D01*
X6312337Y22500000D01*
X6314739Y22475613D01*
X6321852Y22452164D01*
X6333404Y22430553D01*
X6348949Y22411611D01*
X6367890Y22396067D01*
X6446225Y22343725D01*
X6543725Y22246225D01*
X6620332Y22131574D01*
X6673100Y22004183D01*
X6700000Y21868945D01*
X6700000Y21731055D01*
X6673100Y21595817D01*
X6620332Y21468426D01*
X6543725Y21353775D01*
X6446225Y21256275D01*
X6331574Y21179668D01*
X6204183Y21126900D01*
X6068945Y21100000D01*
X5931055Y21100000D01*
X5795817Y21126900D01*
X5668426Y21179668D01*
X5553775Y21256275D01*
X5456275Y21353775D01*
X5379668Y21468426D01*
X5326900Y21595817D01*
X5300000Y21731055D01*
X5300000Y21868945D01*
X5326900Y22004183D01*
X5379668Y22131574D01*
X5456275Y22246225D01*
X5553775Y22343725D01*
X5632110Y22396067D01*
X5651052Y22411612D01*
X5666597Y22430554D01*
X5678148Y22452165D01*
X5685261Y22475614D01*
X5687663Y22500000D01*
X5685261Y22524387D01*
X5678148Y22547836D01*
X5666596Y22569447D01*
X5651051Y22588389D01*
X5632110Y22603933D01*
X5553775Y22656275D01*
X5456275Y22753775D01*
X5379668Y22868426D01*
X5326900Y22995817D01*
X5300000Y23131055D01*
X5300000Y23268945D01*
X5326900Y23404183D01*
X5379668Y23531574D01*
X5456275Y23646225D01*
X5553775Y23743725D01*
X5668426Y23820332D01*
X5795817Y23873100D01*
X5931055Y23900000D01*
X6068945Y23900000D01*
X6204183Y23873100D01*
X6204183Y23873100D01*
G37*
G36*
X1717721Y25852903D02*
X1822364Y25809559D01*
X1916544Y25746630D01*
X1996630Y25666544D01*
X2059559Y25572364D01*
X2102903Y25467721D01*
X2125000Y25356632D01*
X2125000Y25243368D01*
X2102903Y25132279D01*
X2059559Y25027636D01*
X1996630Y24933456D01*
X1916544Y24853370D01*
X1822364Y24790441D01*
X1717721Y24747097D01*
X1606633Y24725000D01*
X1493367Y24725000D01*
X1382279Y24747097D01*
X1277636Y24790441D01*
X1183456Y24853370D01*
X1103370Y24933456D01*
X1040441Y25027636D01*
X997097Y25132279D01*
X975000Y25243368D01*
X975000Y25356632D01*
X997097Y25467721D01*
X1040441Y25572364D01*
X1103370Y25666544D01*
X1183456Y25746630D01*
X1277636Y25809559D01*
X1382279Y25852903D01*
X1493367Y25875000D01*
X1606633Y25875000D01*
X1717721Y25852903D01*
X1717721Y25852903D01*
G37*
M02*
