G04 #@! TF.GenerationSoftware,KiCad,Pcbnew,(5.0.0)*
G04 #@! TF.CreationDate,2019-01-09T16:39:41-03:00*
G04 #@! TF.ProjectId,PCB_B,5043425F422E6B696361645F70636200,rev?*
G04 #@! TF.SameCoordinates,Original*
G04 #@! TF.FileFunction,Soldermask,Bot*
G04 #@! TF.FilePolarity,Negative*
%FSLAX46Y46*%
G04 Gerber Fmt 4.6, Leading zero omitted, Abs format (unit mm)*
G04 Created by KiCad (PCBNEW (5.0.0)) date 01/09/19 16:39:41*
%MOMM*%
%LPD*%
G01*
G04 APERTURE LIST*
%ADD10C,0.100000*%
G04 APERTURE END LIST*
D10*
G36*
X5122729Y-22408332D02*
X5303115Y-22444212D01*
X5494203Y-22523364D01*
X5666177Y-22638273D01*
X5812430Y-22784526D01*
X5927339Y-22956500D01*
X6006491Y-23147588D01*
X6046841Y-23350446D01*
X6046841Y-23557278D01*
X6006491Y-23760136D01*
X5927339Y-23951224D01*
X5812430Y-24123198D01*
X5666177Y-24269451D01*
X5494203Y-24384360D01*
X5303115Y-24463512D01*
X5122729Y-24499392D01*
X5100258Y-24503862D01*
X4893424Y-24503862D01*
X4870953Y-24499392D01*
X4690567Y-24463512D01*
X4499479Y-24384360D01*
X4327505Y-24269451D01*
X4181252Y-24123198D01*
X4066343Y-23951224D01*
X3987191Y-23760136D01*
X3946841Y-23557278D01*
X3946841Y-23350446D01*
X3987191Y-23147588D01*
X4066343Y-22956500D01*
X4181252Y-22784526D01*
X4327505Y-22638273D01*
X4499479Y-22523364D01*
X4690567Y-22444212D01*
X4870953Y-22408332D01*
X4893424Y-22403862D01*
X5100258Y-22403862D01*
X5122729Y-22408332D01*
X5122729Y-22408332D01*
G37*
G36*
X962574Y-17026817D02*
X1563135Y-17275577D01*
X2103630Y-17636725D01*
X2563275Y-18096370D01*
X2924423Y-18636865D01*
X3173183Y-19237426D01*
X3300000Y-19874977D01*
X3300000Y-20525023D01*
X3173183Y-21162574D01*
X2924423Y-21763135D01*
X2563275Y-22303630D01*
X2103630Y-22763275D01*
X1563135Y-23124423D01*
X962574Y-23373183D01*
X325023Y-23500000D01*
X-325023Y-23500000D01*
X-962574Y-23373183D01*
X-1563135Y-23124423D01*
X-2103630Y-22763275D01*
X-2563275Y-22303630D01*
X-2924423Y-21763135D01*
X-3173183Y-21162574D01*
X-3300000Y-20525023D01*
X-3300000Y-19874977D01*
X-3173183Y-19237426D01*
X-2924423Y-18636865D01*
X-2563275Y-18096370D01*
X-2103630Y-17636725D01*
X-1563135Y-17275577D01*
X-962574Y-17026817D01*
X-325023Y-16900000D01*
X325023Y-16900000D01*
X962574Y-17026817D01*
X962574Y-17026817D01*
G37*
G36*
X10800000Y-14227600D02*
X8900000Y-14227600D01*
X8875614Y-14230002D01*
X8852165Y-14237115D01*
X8830554Y-14248666D01*
X8811612Y-14264212D01*
X8796066Y-14283154D01*
X8784515Y-14304765D01*
X8777402Y-14328214D01*
X8775000Y-14352600D01*
X8775000Y-14384232D01*
X8752903Y-14495321D01*
X8709559Y-14599964D01*
X8646630Y-14694144D01*
X8566544Y-14774230D01*
X8529973Y-14798666D01*
X8511031Y-14814212D01*
X8495485Y-14833154D01*
X8483934Y-14854764D01*
X8476821Y-14878214D01*
X8474419Y-14902600D01*
X8476821Y-14926986D01*
X8483934Y-14950435D01*
X8495485Y-14972046D01*
X8511031Y-14990988D01*
X8529973Y-15006534D01*
X8551583Y-15018085D01*
X8575033Y-15025198D01*
X8599419Y-15027600D01*
X8900000Y-15027600D01*
X8900000Y-20227600D01*
X8599419Y-20227600D01*
X8575033Y-20230002D01*
X8551584Y-20237115D01*
X8529973Y-20248666D01*
X8511031Y-20264212D01*
X8495485Y-20283154D01*
X8483934Y-20304765D01*
X8476821Y-20328214D01*
X8474419Y-20352600D01*
X8476821Y-20376986D01*
X8483934Y-20400435D01*
X8495485Y-20422046D01*
X8511031Y-20440988D01*
X8529973Y-20456534D01*
X8566544Y-20480970D01*
X8646630Y-20561056D01*
X8709559Y-20655236D01*
X8752903Y-20759879D01*
X8775000Y-20870968D01*
X8775000Y-20902600D01*
X8777402Y-20926986D01*
X8784515Y-20950435D01*
X8796066Y-20972046D01*
X8811612Y-20990988D01*
X8830554Y-21006534D01*
X8852165Y-21018085D01*
X8875614Y-21025198D01*
X8900000Y-21027600D01*
X10800000Y-21027600D01*
X10800000Y-22227600D01*
X8600000Y-22227600D01*
X8600000Y-21571365D01*
X8597598Y-21546979D01*
X8590485Y-21523530D01*
X8578934Y-21501919D01*
X8563388Y-21482977D01*
X8544446Y-21467431D01*
X8522835Y-21455880D01*
X8499386Y-21448767D01*
X8475000Y-21446365D01*
X8450614Y-21448767D01*
X8427172Y-21455878D01*
X8367721Y-21480503D01*
X8256633Y-21502600D01*
X8143367Y-21502600D01*
X8032279Y-21480503D01*
X7927636Y-21437159D01*
X7833456Y-21374230D01*
X7753370Y-21294144D01*
X7690441Y-21199964D01*
X7647097Y-21095321D01*
X7625000Y-20984232D01*
X7625000Y-20870968D01*
X7647097Y-20759879D01*
X7690441Y-20655236D01*
X7753370Y-20561056D01*
X7833456Y-20480970D01*
X7870027Y-20456534D01*
X7888969Y-20440988D01*
X7904515Y-20422046D01*
X7916066Y-20400436D01*
X7923179Y-20376986D01*
X7925581Y-20352600D01*
X7923179Y-20328214D01*
X7916066Y-20304765D01*
X7904515Y-20283154D01*
X7888969Y-20264212D01*
X7870027Y-20248666D01*
X7848417Y-20237115D01*
X7824967Y-20230002D01*
X7800581Y-20227600D01*
X6900000Y-20227600D01*
X6900000Y-15027600D01*
X7800581Y-15027600D01*
X7824967Y-15025198D01*
X7848416Y-15018085D01*
X7870027Y-15006534D01*
X7888969Y-14990988D01*
X7904515Y-14972046D01*
X7916066Y-14950435D01*
X7923179Y-14926986D01*
X7925581Y-14902600D01*
X7923179Y-14878214D01*
X7916066Y-14854765D01*
X7904515Y-14833154D01*
X7888969Y-14814212D01*
X7870027Y-14798666D01*
X7833456Y-14774230D01*
X7753370Y-14694144D01*
X7690441Y-14599964D01*
X7647097Y-14495321D01*
X7625000Y-14384232D01*
X7625000Y-14270968D01*
X7647097Y-14159879D01*
X7690441Y-14055236D01*
X7753370Y-13961056D01*
X7833456Y-13880970D01*
X7927636Y-13818041D01*
X8032279Y-13774697D01*
X8143367Y-13752600D01*
X8256633Y-13752600D01*
X8367721Y-13774697D01*
X8427172Y-13799322D01*
X8450613Y-13806433D01*
X8475000Y-13808835D01*
X8499386Y-13806433D01*
X8522835Y-13799320D01*
X8544446Y-13787769D01*
X8563388Y-13772224D01*
X8578934Y-13753282D01*
X8590485Y-13731671D01*
X8597598Y-13708222D01*
X8600000Y-13683835D01*
X8600000Y-13027600D01*
X10800000Y-13027600D01*
X10800000Y-14227600D01*
X10800000Y-14227600D01*
G37*
G36*
X5125548Y-19871458D02*
X5202677Y-19879055D01*
X5334628Y-19919082D01*
X5400604Y-19939095D01*
X5583013Y-20036595D01*
X5742895Y-20167808D01*
X5874108Y-20327690D01*
X5971608Y-20510099D01*
X5971608Y-20510100D01*
X6031648Y-20708026D01*
X6051921Y-20913862D01*
X6031648Y-21119698D01*
X6007299Y-21199965D01*
X5971608Y-21317625D01*
X5874108Y-21500034D01*
X5742895Y-21659916D01*
X5583013Y-21791129D01*
X5400604Y-21888629D01*
X5334628Y-21908642D01*
X5202677Y-21948669D01*
X5125548Y-21956265D01*
X5048421Y-21963862D01*
X4945261Y-21963862D01*
X4868134Y-21956265D01*
X4791005Y-21948669D01*
X4659054Y-21908642D01*
X4593078Y-21888629D01*
X4410669Y-21791129D01*
X4250787Y-21659916D01*
X4119574Y-21500034D01*
X4022074Y-21317625D01*
X3986383Y-21199965D01*
X3962034Y-21119698D01*
X3941761Y-20913862D01*
X3962034Y-20708026D01*
X4022074Y-20510100D01*
X4022074Y-20510099D01*
X4119574Y-20327690D01*
X4250787Y-20167808D01*
X4410669Y-20036595D01*
X4593078Y-19939095D01*
X4659054Y-19919082D01*
X4791005Y-19879055D01*
X4868134Y-19871458D01*
X4945261Y-19863862D01*
X5048421Y-19863862D01*
X5125548Y-19871458D01*
X5125548Y-19871458D01*
G37*
G36*
X12500000Y-20227600D02*
X10500000Y-20227600D01*
X10500000Y-15027600D01*
X12500000Y-15027600D01*
X12500000Y-20227600D01*
X12500000Y-20227600D01*
G37*
G36*
X5125548Y-17331458D02*
X5202677Y-17339055D01*
X5334628Y-17379082D01*
X5400604Y-17399095D01*
X5583013Y-17496595D01*
X5742895Y-17627808D01*
X5874108Y-17787690D01*
X5971608Y-17970099D01*
X5971608Y-17970100D01*
X6031648Y-18168026D01*
X6051921Y-18373862D01*
X6031648Y-18579698D01*
X5991621Y-18711649D01*
X5971608Y-18777625D01*
X5874108Y-18960034D01*
X5742895Y-19119916D01*
X5583013Y-19251129D01*
X5400604Y-19348629D01*
X5334628Y-19368642D01*
X5202677Y-19408669D01*
X5125548Y-19416266D01*
X5048421Y-19423862D01*
X4945261Y-19423862D01*
X4868134Y-19416266D01*
X4791005Y-19408669D01*
X4659054Y-19368642D01*
X4593078Y-19348629D01*
X4410669Y-19251129D01*
X4250787Y-19119916D01*
X4119574Y-18960034D01*
X4022074Y-18777625D01*
X4002061Y-18711649D01*
X3962034Y-18579698D01*
X3941761Y-18373862D01*
X3962034Y-18168026D01*
X4022074Y-17970100D01*
X4022074Y-17970099D01*
X4119574Y-17787690D01*
X4250787Y-17627808D01*
X4410669Y-17496595D01*
X4593078Y-17399095D01*
X4659054Y-17379082D01*
X4791005Y-17339055D01*
X4868134Y-17331458D01*
X4945261Y-17323862D01*
X5048421Y-17323862D01*
X5125548Y-17331458D01*
X5125548Y-17331458D01*
G37*
G36*
X24925888Y-2764470D02*
X25106274Y-2800350D01*
X25297362Y-2879502D01*
X25469336Y-2994411D01*
X25615589Y-3140664D01*
X25730498Y-3312638D01*
X25809650Y-3503726D01*
X25850000Y-3706584D01*
X25850000Y-3913416D01*
X25809650Y-4116274D01*
X25730498Y-4307362D01*
X25615589Y-4479336D01*
X25469336Y-4625589D01*
X25297362Y-4740498D01*
X25106274Y-4819650D01*
X24925888Y-4855530D01*
X24903417Y-4860000D01*
X24696583Y-4860000D01*
X24674112Y-4855530D01*
X24493726Y-4819650D01*
X24302638Y-4740498D01*
X24130664Y-4625589D01*
X23984411Y-4479336D01*
X23869502Y-4307362D01*
X23790350Y-4116274D01*
X23750000Y-3913416D01*
X23750000Y-3706584D01*
X23790350Y-3503726D01*
X23869502Y-3312638D01*
X23984411Y-3140664D01*
X24130664Y-2994411D01*
X24302638Y-2879502D01*
X24493726Y-2800350D01*
X24674112Y-2764470D01*
X24696583Y-2760000D01*
X24903417Y-2760000D01*
X24925888Y-2764470D01*
X24925888Y-2764470D01*
G37*
G36*
X-24671293Y-2767597D02*
X-24594164Y-2775193D01*
X-24462213Y-2815220D01*
X-24396237Y-2835233D01*
X-24213828Y-2932733D01*
X-24053946Y-3063946D01*
X-23922733Y-3223828D01*
X-23825233Y-3406237D01*
X-23825233Y-3406238D01*
X-23765193Y-3604164D01*
X-23744920Y-3810000D01*
X-23765193Y-4015836D01*
X-23805220Y-4147787D01*
X-23825233Y-4213763D01*
X-23922733Y-4396172D01*
X-24053946Y-4556054D01*
X-24213828Y-4687267D01*
X-24396237Y-4784767D01*
X-24462213Y-4804780D01*
X-24594164Y-4844807D01*
X-24671293Y-4852404D01*
X-24748420Y-4860000D01*
X-24851580Y-4860000D01*
X-24928707Y-4852404D01*
X-25005836Y-4844807D01*
X-25137787Y-4804780D01*
X-25203763Y-4784767D01*
X-25386172Y-4687267D01*
X-25546054Y-4556054D01*
X-25677267Y-4396172D01*
X-25774767Y-4213763D01*
X-25794780Y-4147787D01*
X-25834807Y-4015836D01*
X-25855080Y-3810000D01*
X-25834807Y-3604164D01*
X-25774767Y-3406238D01*
X-25774767Y-3406237D01*
X-25677267Y-3223828D01*
X-25546054Y-3063946D01*
X-25386172Y-2932733D01*
X-25203763Y-2835233D01*
X-25137787Y-2815220D01*
X-25005836Y-2775193D01*
X-24928707Y-2767597D01*
X-24851580Y-2760000D01*
X-24748420Y-2760000D01*
X-24671293Y-2767597D01*
X-24671293Y-2767597D01*
G37*
G36*
X24928707Y-227597D02*
X25005836Y-235193D01*
X25137787Y-275220D01*
X25203763Y-295233D01*
X25386172Y-392733D01*
X25546054Y-523946D01*
X25677267Y-683828D01*
X25774767Y-866237D01*
X25774767Y-866238D01*
X25834807Y-1064164D01*
X25855080Y-1270000D01*
X25834807Y-1475836D01*
X25794780Y-1607787D01*
X25774767Y-1673763D01*
X25677267Y-1856172D01*
X25546054Y-2016054D01*
X25386172Y-2147267D01*
X25203763Y-2244767D01*
X25137787Y-2264780D01*
X25005836Y-2304807D01*
X24928707Y-2312403D01*
X24851580Y-2320000D01*
X24748420Y-2320000D01*
X24671293Y-2312404D01*
X24594164Y-2304807D01*
X24462213Y-2264780D01*
X24396237Y-2244767D01*
X24213828Y-2147267D01*
X24053946Y-2016054D01*
X23922733Y-1856172D01*
X23825233Y-1673763D01*
X23805220Y-1607787D01*
X23765193Y-1475836D01*
X23744920Y-1270000D01*
X23765193Y-1064164D01*
X23825233Y-866238D01*
X23825233Y-866237D01*
X23922733Y-683828D01*
X24053946Y-523946D01*
X24213828Y-392733D01*
X24396237Y-295233D01*
X24462213Y-275220D01*
X24594164Y-235193D01*
X24671293Y-227597D01*
X24748420Y-220000D01*
X24851580Y-220000D01*
X24928707Y-227597D01*
X24928707Y-227597D01*
G37*
G36*
X-24671293Y-227597D02*
X-24594164Y-235193D01*
X-24462213Y-275220D01*
X-24396237Y-295233D01*
X-24213828Y-392733D01*
X-24053946Y-523946D01*
X-23922733Y-683828D01*
X-23825233Y-866237D01*
X-23825233Y-866238D01*
X-23765193Y-1064164D01*
X-23744920Y-1270000D01*
X-23765193Y-1475836D01*
X-23805220Y-1607787D01*
X-23825233Y-1673763D01*
X-23922733Y-1856172D01*
X-24053946Y-2016054D01*
X-24213828Y-2147267D01*
X-24396237Y-2244767D01*
X-24462213Y-2264780D01*
X-24594164Y-2304807D01*
X-24671293Y-2312404D01*
X-24748420Y-2320000D01*
X-24851580Y-2320000D01*
X-24928707Y-2312403D01*
X-25005836Y-2304807D01*
X-25137787Y-2264780D01*
X-25203763Y-2244767D01*
X-25386172Y-2147267D01*
X-25546054Y-2016054D01*
X-25677267Y-1856172D01*
X-25774767Y-1673763D01*
X-25794780Y-1607787D01*
X-25834807Y-1475836D01*
X-25855080Y-1270000D01*
X-25834807Y-1064164D01*
X-25774767Y-866238D01*
X-25774767Y-866237D01*
X-25677267Y-683828D01*
X-25546054Y-523946D01*
X-25386172Y-392733D01*
X-25203763Y-295233D01*
X-25137787Y-275220D01*
X-25005836Y-235193D01*
X-24928707Y-227597D01*
X-24851580Y-220000D01*
X-24748420Y-220000D01*
X-24671293Y-227597D01*
X-24671293Y-227597D01*
G37*
G36*
X24928707Y2312403D02*
X25005836Y2304807D01*
X25137787Y2264780D01*
X25203763Y2244767D01*
X25386172Y2147267D01*
X25546054Y2016054D01*
X25677267Y1856172D01*
X25774767Y1673763D01*
X25774767Y1673762D01*
X25834807Y1475836D01*
X25855080Y1270000D01*
X25834807Y1064164D01*
X25794780Y932213D01*
X25774767Y866237D01*
X25677267Y683828D01*
X25546054Y523946D01*
X25386172Y392733D01*
X25203763Y295233D01*
X25137787Y275220D01*
X25005836Y235193D01*
X24928707Y227597D01*
X24851580Y220000D01*
X24748420Y220000D01*
X24671293Y227597D01*
X24594164Y235193D01*
X24462213Y275220D01*
X24396237Y295233D01*
X24213828Y392733D01*
X24053946Y523946D01*
X23922733Y683828D01*
X23825233Y866237D01*
X23805220Y932213D01*
X23765193Y1064164D01*
X23744920Y1270000D01*
X23765193Y1475836D01*
X23825233Y1673762D01*
X23825233Y1673763D01*
X23922733Y1856172D01*
X24053946Y2016054D01*
X24213828Y2147267D01*
X24396237Y2244767D01*
X24462213Y2264780D01*
X24594164Y2304807D01*
X24671293Y2312404D01*
X24748420Y2320000D01*
X24851580Y2320000D01*
X24928707Y2312403D01*
X24928707Y2312403D01*
G37*
G36*
X-24671293Y2312404D02*
X-24594164Y2304807D01*
X-24462213Y2264780D01*
X-24396237Y2244767D01*
X-24213828Y2147267D01*
X-24053946Y2016054D01*
X-23922733Y1856172D01*
X-23825233Y1673763D01*
X-23825233Y1673762D01*
X-23765193Y1475836D01*
X-23744920Y1270000D01*
X-23765193Y1064164D01*
X-23805220Y932213D01*
X-23825233Y866237D01*
X-23922733Y683828D01*
X-24053946Y523946D01*
X-24213828Y392733D01*
X-24396237Y295233D01*
X-24462213Y275220D01*
X-24594164Y235193D01*
X-24671293Y227597D01*
X-24748420Y220000D01*
X-24851580Y220000D01*
X-24928707Y227597D01*
X-25005836Y235193D01*
X-25137787Y275220D01*
X-25203763Y295233D01*
X-25386172Y392733D01*
X-25546054Y523946D01*
X-25677267Y683828D01*
X-25774767Y866237D01*
X-25794780Y932213D01*
X-25834807Y1064164D01*
X-25855080Y1270000D01*
X-25834807Y1475836D01*
X-25774767Y1673762D01*
X-25774767Y1673763D01*
X-25677267Y1856172D01*
X-25546054Y2016054D01*
X-25386172Y2147267D01*
X-25203763Y2244767D01*
X-25137787Y2264780D01*
X-25005836Y2304807D01*
X-24928707Y2312403D01*
X-24851580Y2320000D01*
X-24748420Y2320000D01*
X-24671293Y2312404D01*
X-24671293Y2312404D01*
G37*
G36*
X-24674112Y4855530D02*
X-24493726Y4819650D01*
X-24302638Y4740498D01*
X-24130664Y4625589D01*
X-23984411Y4479336D01*
X-23869502Y4307362D01*
X-23790350Y4116274D01*
X-23750000Y3913416D01*
X-23750000Y3706584D01*
X-23790350Y3503726D01*
X-23869502Y3312638D01*
X-23984411Y3140664D01*
X-24130664Y2994411D01*
X-24302638Y2879502D01*
X-24493726Y2800350D01*
X-24674112Y2764470D01*
X-24696583Y2760000D01*
X-24903417Y2760000D01*
X-24925888Y2764470D01*
X-25106274Y2800350D01*
X-25297362Y2879502D01*
X-25469336Y2994411D01*
X-25615589Y3140664D01*
X-25730498Y3312638D01*
X-25809650Y3503726D01*
X-25850000Y3706584D01*
X-25850000Y3913416D01*
X-25809650Y4116274D01*
X-25730498Y4307362D01*
X-25615589Y4479336D01*
X-25469336Y4625589D01*
X-25297362Y4740498D01*
X-25106274Y4819650D01*
X-24925888Y4855530D01*
X-24903417Y4860000D01*
X-24696583Y4860000D01*
X-24674112Y4855530D01*
X-24674112Y4855530D01*
G37*
G36*
X24925888Y4855530D02*
X25106274Y4819650D01*
X25297362Y4740498D01*
X25469336Y4625589D01*
X25615589Y4479336D01*
X25730498Y4307362D01*
X25809650Y4116274D01*
X25850000Y3913416D01*
X25850000Y3706584D01*
X25809650Y3503726D01*
X25730498Y3312638D01*
X25615589Y3140664D01*
X25469336Y2994411D01*
X25297362Y2879502D01*
X25106274Y2800350D01*
X24925888Y2764470D01*
X24903417Y2760000D01*
X24696583Y2760000D01*
X24674112Y2764470D01*
X24493726Y2800350D01*
X24302638Y2879502D01*
X24130664Y2994411D01*
X23984411Y3140664D01*
X23869502Y3312638D01*
X23790350Y3503726D01*
X23750000Y3706584D01*
X23750000Y3913416D01*
X23790350Y4116274D01*
X23869502Y4307362D01*
X23984411Y4479336D01*
X24130664Y4625589D01*
X24302638Y4740498D01*
X24493726Y4819650D01*
X24674112Y4855530D01*
X24696583Y4860000D01*
X24903417Y4860000D01*
X24925888Y4855530D01*
X24925888Y4855530D01*
G37*
G36*
X22900000Y7000000D02*
X21500000Y7000000D01*
X21500000Y8400000D01*
X22900000Y8400000D01*
X22900000Y7000000D01*
X22900000Y7000000D01*
G37*
G36*
X-11522842Y16721262D02*
X-10913181Y16468732D01*
X-10364497Y16102113D01*
X-9897887Y15635503D01*
X-9531268Y15086819D01*
X-9278738Y14477158D01*
X-9150000Y13829948D01*
X-9150000Y13170052D01*
X-9278738Y12522842D01*
X-9531268Y11913181D01*
X-9897887Y11364497D01*
X-10364497Y10897887D01*
X-10913181Y10531268D01*
X-11522842Y10278738D01*
X-12170052Y10150000D01*
X-12829948Y10150000D01*
X-13477158Y10278738D01*
X-14086819Y10531268D01*
X-14635503Y10897887D01*
X-15102113Y11364497D01*
X-15468732Y11913181D01*
X-15721262Y12522842D01*
X-15850000Y13170052D01*
X-15850000Y13829948D01*
X-15721262Y14477158D01*
X-15468732Y15086819D01*
X-15102113Y15635503D01*
X-14635503Y16102113D01*
X-14086819Y16468732D01*
X-13477158Y16721262D01*
X-12829948Y16850000D01*
X-12170052Y16850000D01*
X-11522842Y16721262D01*
X-11522842Y16721262D01*
G37*
G36*
X13462574Y16673183D02*
X14063135Y16424423D01*
X14603630Y16063275D01*
X15063275Y15603630D01*
X15424423Y15063135D01*
X15673183Y14462574D01*
X15800000Y13825023D01*
X15800000Y13174977D01*
X15673183Y12537426D01*
X15424423Y11936865D01*
X15063275Y11396370D01*
X14603630Y10936725D01*
X14063135Y10575577D01*
X13462574Y10326817D01*
X12825023Y10200000D01*
X12174977Y10200000D01*
X11537426Y10326817D01*
X10936865Y10575577D01*
X10396370Y10936725D01*
X9936725Y11396370D01*
X9575577Y11936865D01*
X9326817Y12537426D01*
X9200000Y13174977D01*
X9200000Y13825023D01*
X9326817Y14462574D01*
X9575577Y15063135D01*
X9936725Y15603630D01*
X10396370Y16063275D01*
X10936865Y16424423D01*
X11537426Y16673183D01*
X12174977Y16800000D01*
X12825023Y16800000D01*
X13462574Y16673183D01*
X13462574Y16673183D01*
G37*
G36*
X22338150Y12446371D02*
X22518536Y12410491D01*
X22709624Y12331339D01*
X22881598Y12216430D01*
X23027851Y12070177D01*
X23142760Y11898203D01*
X23221912Y11707115D01*
X23262262Y11504257D01*
X23262262Y11297425D01*
X23221912Y11094567D01*
X23142760Y10903479D01*
X23027851Y10731505D01*
X22881598Y10585252D01*
X22709624Y10470343D01*
X22518536Y10391191D01*
X22338150Y10355311D01*
X22315679Y10350841D01*
X22108845Y10350841D01*
X22086374Y10355311D01*
X21905988Y10391191D01*
X21714900Y10470343D01*
X21542926Y10585252D01*
X21396673Y10731505D01*
X21281764Y10903479D01*
X21202612Y11094567D01*
X21162262Y11297425D01*
X21162262Y11504257D01*
X21202612Y11707115D01*
X21281764Y11898203D01*
X21396673Y12070177D01*
X21542926Y12216430D01*
X21714900Y12331339D01*
X21905988Y12410491D01*
X22086374Y12446371D01*
X22108845Y12450841D01*
X22315679Y12450841D01*
X22338150Y12446371D01*
X22338150Y12446371D01*
G37*
G36*
X19800969Y12443245D02*
X19878098Y12435648D01*
X20010049Y12395621D01*
X20076025Y12375608D01*
X20258434Y12278108D01*
X20418316Y12146895D01*
X20549529Y11987013D01*
X20647029Y11804604D01*
X20647029Y11804603D01*
X20707069Y11606677D01*
X20727342Y11400841D01*
X20707069Y11195005D01*
X20667042Y11063054D01*
X20647029Y10997078D01*
X20549529Y10814669D01*
X20418316Y10654787D01*
X20258434Y10523574D01*
X20076025Y10426074D01*
X20010049Y10406061D01*
X19878098Y10366034D01*
X19800969Y10358437D01*
X19723842Y10350841D01*
X19620682Y10350841D01*
X19543555Y10358437D01*
X19466426Y10366034D01*
X19334475Y10406061D01*
X19268499Y10426074D01*
X19086090Y10523574D01*
X18926208Y10654787D01*
X18794995Y10814669D01*
X18697495Y10997078D01*
X18677482Y11063054D01*
X18637455Y11195005D01*
X18617182Y11400841D01*
X18637455Y11606677D01*
X18697495Y11804603D01*
X18697495Y11804604D01*
X18794995Y11987013D01*
X18926208Y12146895D01*
X19086090Y12278108D01*
X19268499Y12375608D01*
X19334475Y12395621D01*
X19466426Y12435648D01*
X19543555Y12443244D01*
X19620682Y12450841D01*
X19723842Y12450841D01*
X19800969Y12443245D01*
X19800969Y12443245D01*
G37*
G36*
X18182262Y10350841D02*
X16082262Y10350841D01*
X16082262Y12450841D01*
X18182262Y12450841D01*
X18182262Y10350841D01*
X18182262Y10350841D01*
G37*
G36*
X-17061850Y12546371D02*
X-16881464Y12510491D01*
X-16690376Y12431339D01*
X-16518402Y12316430D01*
X-16372149Y12170177D01*
X-16257240Y11998203D01*
X-16178088Y11807115D01*
X-16137738Y11604257D01*
X-16137738Y11397425D01*
X-16178088Y11194567D01*
X-16257240Y11003479D01*
X-16372149Y10831505D01*
X-16518402Y10685252D01*
X-16690376Y10570343D01*
X-16881464Y10491191D01*
X-17061850Y10455311D01*
X-17084321Y10450841D01*
X-17291155Y10450841D01*
X-17313626Y10455311D01*
X-17494012Y10491191D01*
X-17685100Y10570343D01*
X-17857074Y10685252D01*
X-18003327Y10831505D01*
X-18118236Y11003479D01*
X-18197388Y11194567D01*
X-18237738Y11397425D01*
X-18237738Y11604257D01*
X-18197388Y11807115D01*
X-18118236Y11998203D01*
X-18003327Y12170177D01*
X-17857074Y12316430D01*
X-17685100Y12431339D01*
X-17494012Y12510491D01*
X-17313626Y12546371D01*
X-17291155Y12550841D01*
X-17084321Y12550841D01*
X-17061850Y12546371D01*
X-17061850Y12546371D01*
G37*
G36*
X-19599031Y12543245D02*
X-19521902Y12535648D01*
X-19389951Y12495621D01*
X-19323975Y12475608D01*
X-19141566Y12378108D01*
X-18981684Y12246895D01*
X-18850471Y12087013D01*
X-18752971Y11904604D01*
X-18732958Y11838628D01*
X-18692931Y11706677D01*
X-18672658Y11500841D01*
X-18692931Y11295005D01*
X-18732958Y11163054D01*
X-18752971Y11097078D01*
X-18850471Y10914669D01*
X-18981684Y10754787D01*
X-19141566Y10623574D01*
X-19323975Y10526074D01*
X-19332217Y10523574D01*
X-19521902Y10466034D01*
X-19599031Y10458437D01*
X-19676158Y10450841D01*
X-19779318Y10450841D01*
X-19856445Y10458437D01*
X-19933574Y10466034D01*
X-20123259Y10523574D01*
X-20131501Y10526074D01*
X-20313910Y10623574D01*
X-20473792Y10754787D01*
X-20605005Y10914669D01*
X-20702505Y11097078D01*
X-20722518Y11163054D01*
X-20762545Y11295005D01*
X-20782818Y11500841D01*
X-20762545Y11706677D01*
X-20722518Y11838628D01*
X-20702505Y11904604D01*
X-20605005Y12087013D01*
X-20473792Y12246895D01*
X-20313910Y12378108D01*
X-20131501Y12475608D01*
X-20065525Y12495621D01*
X-19933574Y12535648D01*
X-19856445Y12543245D01*
X-19779318Y12550841D01*
X-19676158Y12550841D01*
X-19599031Y12543245D01*
X-19599031Y12543245D01*
G37*
G36*
X-22139031Y12543245D02*
X-22061902Y12535648D01*
X-21929951Y12495621D01*
X-21863975Y12475608D01*
X-21681566Y12378108D01*
X-21521684Y12246895D01*
X-21390471Y12087013D01*
X-21292971Y11904604D01*
X-21272958Y11838628D01*
X-21232931Y11706677D01*
X-21212658Y11500841D01*
X-21232931Y11295005D01*
X-21272958Y11163054D01*
X-21292971Y11097078D01*
X-21390471Y10914669D01*
X-21521684Y10754787D01*
X-21681566Y10623574D01*
X-21863975Y10526074D01*
X-21872217Y10523574D01*
X-22061902Y10466034D01*
X-22139031Y10458437D01*
X-22216158Y10450841D01*
X-22319318Y10450841D01*
X-22396445Y10458437D01*
X-22473574Y10466034D01*
X-22663259Y10523574D01*
X-22671501Y10526074D01*
X-22853910Y10623574D01*
X-23013792Y10754787D01*
X-23145005Y10914669D01*
X-23242505Y11097078D01*
X-23262518Y11163054D01*
X-23302545Y11295005D01*
X-23322818Y11500841D01*
X-23302545Y11706677D01*
X-23262518Y11838628D01*
X-23242505Y11904604D01*
X-23145005Y12087013D01*
X-23013792Y12246895D01*
X-22853910Y12378108D01*
X-22671501Y12475608D01*
X-22605525Y12495621D01*
X-22473574Y12535648D01*
X-22396445Y12543245D01*
X-22319318Y12550841D01*
X-22216158Y12550841D01*
X-22139031Y12543245D01*
X-22139031Y12543245D01*
G37*
G36*
X1150000Y25943765D02*
X1152402Y25919379D01*
X1159515Y25895930D01*
X1171066Y25874319D01*
X1186612Y25855377D01*
X1205554Y25839831D01*
X1227165Y25828280D01*
X1250614Y25821167D01*
X1275000Y25818765D01*
X1299386Y25821167D01*
X1322828Y25828278D01*
X1382279Y25852903D01*
X1493367Y25875000D01*
X1606633Y25875000D01*
X1705283Y25855377D01*
X1717721Y25852903D01*
X1822364Y25809559D01*
X1916544Y25746630D01*
X1996630Y25666544D01*
X2059559Y25572364D01*
X2102903Y25467721D01*
X2125000Y25356632D01*
X2125000Y25243368D01*
X2102903Y25132279D01*
X2059559Y25027636D01*
X1996630Y24933456D01*
X1916544Y24853370D01*
X1879973Y24828934D01*
X1861031Y24813388D01*
X1845485Y24794446D01*
X1833934Y24772836D01*
X1826821Y24749386D01*
X1824419Y24725000D01*
X1826821Y24700614D01*
X1833934Y24677165D01*
X1845485Y24655554D01*
X1861031Y24636612D01*
X1879973Y24621066D01*
X1901583Y24609515D01*
X1925033Y24602402D01*
X1949419Y24600000D01*
X2850000Y24600000D01*
X2850000Y19400000D01*
X1949419Y19400000D01*
X1925033Y19397598D01*
X1901584Y19390485D01*
X1879973Y19378934D01*
X1861031Y19363388D01*
X1845485Y19344446D01*
X1833934Y19322835D01*
X1826821Y19299386D01*
X1824419Y19275000D01*
X1826821Y19250614D01*
X1833934Y19227165D01*
X1845485Y19205554D01*
X1861031Y19186612D01*
X1879973Y19171066D01*
X1916544Y19146630D01*
X1996630Y19066544D01*
X2059559Y18972364D01*
X2102903Y18867721D01*
X2125000Y18756632D01*
X2125000Y18643368D01*
X2102903Y18532279D01*
X2059559Y18427636D01*
X1996630Y18333456D01*
X1916544Y18253370D01*
X1822364Y18190441D01*
X1717721Y18147097D01*
X1606633Y18125000D01*
X1493367Y18125000D01*
X1382279Y18147097D01*
X1322828Y18171722D01*
X1299387Y18178833D01*
X1275000Y18181235D01*
X1250614Y18178833D01*
X1227165Y18171720D01*
X1205554Y18160169D01*
X1186612Y18144624D01*
X1171066Y18125682D01*
X1159515Y18104071D01*
X1152402Y18080622D01*
X1150000Y18056235D01*
X1150000Y17400000D01*
X-1050000Y17400000D01*
X-1050000Y18600000D01*
X850000Y18600000D01*
X874386Y18602402D01*
X897835Y18609515D01*
X919446Y18621066D01*
X938388Y18636612D01*
X953934Y18655554D01*
X965485Y18677165D01*
X972598Y18700614D01*
X975000Y18725000D01*
X975000Y18756632D01*
X997097Y18867721D01*
X1040441Y18972364D01*
X1103370Y19066544D01*
X1183456Y19146630D01*
X1220027Y19171066D01*
X1238969Y19186612D01*
X1254515Y19205554D01*
X1266066Y19227164D01*
X1273179Y19250614D01*
X1275581Y19275000D01*
X1273179Y19299386D01*
X1266066Y19322835D01*
X1254515Y19344446D01*
X1238969Y19363388D01*
X1220027Y19378934D01*
X1198417Y19390485D01*
X1174967Y19397598D01*
X1150581Y19400000D01*
X850000Y19400000D01*
X850000Y24600000D01*
X1150581Y24600000D01*
X1174967Y24602402D01*
X1198416Y24609515D01*
X1220027Y24621066D01*
X1238969Y24636612D01*
X1254515Y24655554D01*
X1266066Y24677165D01*
X1273179Y24700614D01*
X1275581Y24725000D01*
X1273179Y24749386D01*
X1266066Y24772835D01*
X1254515Y24794446D01*
X1238969Y24813388D01*
X1220027Y24828934D01*
X1183456Y24853370D01*
X1103370Y24933456D01*
X1040441Y25027636D01*
X997097Y25132279D01*
X975000Y25243368D01*
X975000Y25275000D01*
X972598Y25299386D01*
X965485Y25322835D01*
X953934Y25344446D01*
X938388Y25363388D01*
X919446Y25378934D01*
X897835Y25390485D01*
X874386Y25397598D01*
X850000Y25400000D01*
X-1050000Y25400000D01*
X-1050000Y26600000D01*
X1150000Y26600000D01*
X1150000Y25943765D01*
X1150000Y25943765D01*
G37*
G36*
X-750000Y19400000D02*
X-2750000Y19400000D01*
X-2750000Y24600000D01*
X-750000Y24600000D01*
X-750000Y19400000D01*
X-750000Y19400000D01*
G37*
M02*
