M48
;DRILL file {KiCad (5.0.0)} date 01/09/19 16:39:45
;FORMAT={-:-/ absolute / metric / decimal}
FMAT,2
METRIC,TZ
T1C0.300
T2C0.400
T3C0.500
T4C0.750
T5C1.000
T6C3.200
%
G90
G05
M71
T1
X4.212Y1.235
X4.212Y0.335
X4.212Y-0.565
X5.212Y1.235
X5.212Y0.335
X5.212Y-0.565
T2
X-22.8Y1.3
X-14.478Y-19.71
X-13.25Y-14.48
X-13.Y3.1
X-12.97Y-7.85
X-11.26Y1.91
X-11.Y-0.5
X-9.9Y-21.8
X-9.85Y22.68
X-9.75Y1.99
X-9.59Y-3.72
X-9.452Y-14.085
X-8.49Y22.68
X-7.07Y16.89
X-5.7Y22.5
X-5.43Y18.12
X-5.25Y-11.5
X-5.25Y-17.5
X-5.13Y-5.84
X-5.01Y11.54
X-5.Y5.7
X-5.Y0.
X-4.35Y21.42
X-4.125Y2.18
X-3.18Y-4.11
X-2.9Y18.1
X-2.642Y-24.994
X-2.54Y-14.51
X-1.8Y18.1
X-0.152Y-14.529
X-0.13Y2.18
X-0.13Y-3.71
X1.22Y11.55
X1.34Y-0.22
X1.89Y8.29
X2.3Y16.22
X2.6Y-1.727
X2.65Y6.89
X3.Y2.34
X3.4Y-4.7
X3.68Y24.61
X3.708Y25.552
X4.24Y21.86
X4.28Y23.19
X4.4Y5.85
X5.486Y-12.802
X5.54Y9.54
X6.Y-6.5
X6.2Y14.8
X7.07Y3.03
X7.093Y5.993
X7.46Y-3.26
X8.2Y4.7
X8.469Y0.914
X9.449Y-16.51
X9.7Y-19.378
X10.058Y-17.831
X10.313Y-2.813
X10.8Y-11.7
X10.9Y4.7
X11.125Y-10.668
X11.726Y1.562
X11.849Y-9.849
X12.24Y5.35
X12.72Y1.45
X14.732Y-18.44
X14.783Y-19.71
X14.834Y-16.815
X16.75Y3.25
X17.625Y-0.6
X17.8Y1.5
X20.5Y-6.2
X20.8Y2.2
X22.2Y9.4
T3
X22.2Y7.7
T4
X1.55Y25.3
X1.55Y18.7
X8.2Y-14.328
X8.2Y-20.928
T5
X-24.8Y3.81
X-24.8Y1.27
X-24.8Y-1.27
X-24.8Y-3.81
X-22.268Y11.501
X-19.728Y11.501
X-17.188Y11.501
X4.997Y-18.374
X4.997Y-20.914
X4.997Y-23.454
X17.132Y11.401
X19.672Y11.401
X22.212Y11.401
X24.8Y3.81
X24.8Y1.27
X24.8Y-1.27
X24.8Y-3.81
T6
X-12.5Y13.5
X0.Y-20.2
X12.5Y13.5
T0
M30
