G04 #@! TF.GenerationSoftware,KiCad,Pcbnew,(5.0.0)*
G04 #@! TF.CreationDate,2019-01-09T16:39:40-03:00*
G04 #@! TF.ProjectId,PCB_B,5043425F422E6B696361645F70636200,rev?*
G04 #@! TF.SameCoordinates,Original*
G04 #@! TF.FileFunction,Paste,Top*
G04 #@! TF.FilePolarity,Positive*
%FSLAX46Y46*%
G04 Gerber Fmt 4.6, Leading zero omitted, Abs format (unit mm)*
G04 Created by KiCad (PCBNEW (5.0.0)) date 01/09/19 16:39:40*
%MOMM*%
%LPD*%
G01*
G04 APERTURE LIST*
%ADD10R,0.450000X1.400000*%
%ADD11C,0.100000*%
%ADD12C,1.300000*%
%ADD13C,0.950000*%
%ADD14R,0.575000X0.400000*%
%ADD15R,0.775000X1.100000*%
%ADD16R,0.200000X0.200000*%
%ADD17O,0.200000X0.850000*%
%ADD18C,1.150000*%
%ADD19R,1.000000X3.200000*%
%ADD20C,1.425000*%
%ADD21C,1.525000*%
%ADD22R,0.650000X1.220000*%
%ADD23R,0.650000X1.060000*%
%ADD24R,1.060000X0.650000*%
%ADD25R,1.879600X1.574800*%
%ADD26R,0.279400X1.422400*%
%ADD27R,0.600000X1.050000*%
G04 APERTURE END LIST*
D10*
G04 #@! TO.C,IC2*
X-13975000Y-10700000D03*
X-13325000Y-10700000D03*
X-12675000Y-10700000D03*
X-12025000Y-10700000D03*
X-12025000Y-6300000D03*
X-12675000Y-6300000D03*
X-13325000Y-6300000D03*
X-13975000Y-6300000D03*
G04 #@! TD*
D11*
G04 #@! TO.C,F1*
G36*
X5030504Y-9572204D02*
X5054773Y-9575804D01*
X5078571Y-9581765D01*
X5101671Y-9590030D01*
X5123849Y-9600520D01*
X5144893Y-9613133D01*
X5164598Y-9627747D01*
X5182777Y-9644223D01*
X5199253Y-9662402D01*
X5213867Y-9682107D01*
X5226480Y-9703151D01*
X5236970Y-9725329D01*
X5245235Y-9748429D01*
X5251196Y-9772227D01*
X5254796Y-9796496D01*
X5256000Y-9821000D01*
X5256000Y-10621000D01*
X5254796Y-10645504D01*
X5251196Y-10669773D01*
X5245235Y-10693571D01*
X5236970Y-10716671D01*
X5226480Y-10738849D01*
X5213867Y-10759893D01*
X5199253Y-10779598D01*
X5182777Y-10797777D01*
X5164598Y-10814253D01*
X5144893Y-10828867D01*
X5123849Y-10841480D01*
X5101671Y-10851970D01*
X5078571Y-10860235D01*
X5054773Y-10866196D01*
X5030504Y-10869796D01*
X5006000Y-10871000D01*
X2106000Y-10871000D01*
X2081496Y-10869796D01*
X2057227Y-10866196D01*
X2033429Y-10860235D01*
X2010329Y-10851970D01*
X1988151Y-10841480D01*
X1967107Y-10828867D01*
X1947402Y-10814253D01*
X1929223Y-10797777D01*
X1912747Y-10779598D01*
X1898133Y-10759893D01*
X1885520Y-10738849D01*
X1875030Y-10716671D01*
X1866765Y-10693571D01*
X1860804Y-10669773D01*
X1857204Y-10645504D01*
X1856000Y-10621000D01*
X1856000Y-9821000D01*
X1857204Y-9796496D01*
X1860804Y-9772227D01*
X1866765Y-9748429D01*
X1875030Y-9725329D01*
X1885520Y-9703151D01*
X1898133Y-9682107D01*
X1912747Y-9662402D01*
X1929223Y-9644223D01*
X1947402Y-9627747D01*
X1967107Y-9613133D01*
X1988151Y-9600520D01*
X2010329Y-9590030D01*
X2033429Y-9581765D01*
X2057227Y-9575804D01*
X2081496Y-9572204D01*
X2106000Y-9571000D01*
X5006000Y-9571000D01*
X5030504Y-9572204D01*
X5030504Y-9572204D01*
G37*
D12*
X3556000Y-10221000D03*
D11*
G36*
X5030504Y-14022204D02*
X5054773Y-14025804D01*
X5078571Y-14031765D01*
X5101671Y-14040030D01*
X5123849Y-14050520D01*
X5144893Y-14063133D01*
X5164598Y-14077747D01*
X5182777Y-14094223D01*
X5199253Y-14112402D01*
X5213867Y-14132107D01*
X5226480Y-14153151D01*
X5236970Y-14175329D01*
X5245235Y-14198429D01*
X5251196Y-14222227D01*
X5254796Y-14246496D01*
X5256000Y-14271000D01*
X5256000Y-15071000D01*
X5254796Y-15095504D01*
X5251196Y-15119773D01*
X5245235Y-15143571D01*
X5236970Y-15166671D01*
X5226480Y-15188849D01*
X5213867Y-15209893D01*
X5199253Y-15229598D01*
X5182777Y-15247777D01*
X5164598Y-15264253D01*
X5144893Y-15278867D01*
X5123849Y-15291480D01*
X5101671Y-15301970D01*
X5078571Y-15310235D01*
X5054773Y-15316196D01*
X5030504Y-15319796D01*
X5006000Y-15321000D01*
X2106000Y-15321000D01*
X2081496Y-15319796D01*
X2057227Y-15316196D01*
X2033429Y-15310235D01*
X2010329Y-15301970D01*
X1988151Y-15291480D01*
X1967107Y-15278867D01*
X1947402Y-15264253D01*
X1929223Y-15247777D01*
X1912747Y-15229598D01*
X1898133Y-15209893D01*
X1885520Y-15188849D01*
X1875030Y-15166671D01*
X1866765Y-15143571D01*
X1860804Y-15119773D01*
X1857204Y-15095504D01*
X1856000Y-15071000D01*
X1856000Y-14271000D01*
X1857204Y-14246496D01*
X1860804Y-14222227D01*
X1866765Y-14198429D01*
X1875030Y-14175329D01*
X1885520Y-14153151D01*
X1898133Y-14132107D01*
X1912747Y-14112402D01*
X1929223Y-14094223D01*
X1947402Y-14077747D01*
X1967107Y-14063133D01*
X1988151Y-14050520D01*
X2010329Y-14040030D01*
X2033429Y-14031765D01*
X2057227Y-14025804D01*
X2081496Y-14022204D01*
X2106000Y-14021000D01*
X5006000Y-14021000D01*
X5030504Y-14022204D01*
X5030504Y-14022204D01*
G37*
D12*
X3556000Y-14671000D03*
G04 #@! TD*
D11*
G04 #@! TO.C,R22*
G36*
X8236379Y-10183544D02*
X8259434Y-10186963D01*
X8282043Y-10192627D01*
X8303987Y-10200479D01*
X8325057Y-10210444D01*
X8345048Y-10222426D01*
X8363768Y-10236310D01*
X8381038Y-10251962D01*
X8396690Y-10269232D01*
X8410574Y-10287952D01*
X8422556Y-10307943D01*
X8432521Y-10329013D01*
X8440373Y-10350957D01*
X8446037Y-10373566D01*
X8449456Y-10396621D01*
X8450600Y-10419900D01*
X8450600Y-10994900D01*
X8449456Y-11018179D01*
X8446037Y-11041234D01*
X8440373Y-11063843D01*
X8432521Y-11085787D01*
X8422556Y-11106857D01*
X8410574Y-11126848D01*
X8396690Y-11145568D01*
X8381038Y-11162838D01*
X8363768Y-11178490D01*
X8345048Y-11192374D01*
X8325057Y-11204356D01*
X8303987Y-11214321D01*
X8282043Y-11222173D01*
X8259434Y-11227837D01*
X8236379Y-11231256D01*
X8213100Y-11232400D01*
X7738100Y-11232400D01*
X7714821Y-11231256D01*
X7691766Y-11227837D01*
X7669157Y-11222173D01*
X7647213Y-11214321D01*
X7626143Y-11204356D01*
X7606152Y-11192374D01*
X7587432Y-11178490D01*
X7570162Y-11162838D01*
X7554510Y-11145568D01*
X7540626Y-11126848D01*
X7528644Y-11106857D01*
X7518679Y-11085787D01*
X7510827Y-11063843D01*
X7505163Y-11041234D01*
X7501744Y-11018179D01*
X7500600Y-10994900D01*
X7500600Y-10419900D01*
X7501744Y-10396621D01*
X7505163Y-10373566D01*
X7510827Y-10350957D01*
X7518679Y-10329013D01*
X7528644Y-10307943D01*
X7540626Y-10287952D01*
X7554510Y-10269232D01*
X7570162Y-10251962D01*
X7587432Y-10236310D01*
X7606152Y-10222426D01*
X7626143Y-10210444D01*
X7647213Y-10200479D01*
X7669157Y-10192627D01*
X7691766Y-10186963D01*
X7714821Y-10183544D01*
X7738100Y-10182400D01*
X8213100Y-10182400D01*
X8236379Y-10183544D01*
X8236379Y-10183544D01*
G37*
D13*
X7975600Y-10707400D03*
D11*
G36*
X8236379Y-11933544D02*
X8259434Y-11936963D01*
X8282043Y-11942627D01*
X8303987Y-11950479D01*
X8325057Y-11960444D01*
X8345048Y-11972426D01*
X8363768Y-11986310D01*
X8381038Y-12001962D01*
X8396690Y-12019232D01*
X8410574Y-12037952D01*
X8422556Y-12057943D01*
X8432521Y-12079013D01*
X8440373Y-12100957D01*
X8446037Y-12123566D01*
X8449456Y-12146621D01*
X8450600Y-12169900D01*
X8450600Y-12744900D01*
X8449456Y-12768179D01*
X8446037Y-12791234D01*
X8440373Y-12813843D01*
X8432521Y-12835787D01*
X8422556Y-12856857D01*
X8410574Y-12876848D01*
X8396690Y-12895568D01*
X8381038Y-12912838D01*
X8363768Y-12928490D01*
X8345048Y-12942374D01*
X8325057Y-12954356D01*
X8303987Y-12964321D01*
X8282043Y-12972173D01*
X8259434Y-12977837D01*
X8236379Y-12981256D01*
X8213100Y-12982400D01*
X7738100Y-12982400D01*
X7714821Y-12981256D01*
X7691766Y-12977837D01*
X7669157Y-12972173D01*
X7647213Y-12964321D01*
X7626143Y-12954356D01*
X7606152Y-12942374D01*
X7587432Y-12928490D01*
X7570162Y-12912838D01*
X7554510Y-12895568D01*
X7540626Y-12876848D01*
X7528644Y-12856857D01*
X7518679Y-12835787D01*
X7510827Y-12813843D01*
X7505163Y-12791234D01*
X7501744Y-12768179D01*
X7500600Y-12744900D01*
X7500600Y-12169900D01*
X7501744Y-12146621D01*
X7505163Y-12123566D01*
X7510827Y-12100957D01*
X7518679Y-12079013D01*
X7528644Y-12057943D01*
X7540626Y-12037952D01*
X7554510Y-12019232D01*
X7570162Y-12001962D01*
X7587432Y-11986310D01*
X7606152Y-11972426D01*
X7626143Y-11960444D01*
X7647213Y-11950479D01*
X7669157Y-11942627D01*
X7691766Y-11936963D01*
X7714821Y-11933544D01*
X7738100Y-11932400D01*
X8213100Y-11932400D01*
X8236379Y-11933544D01*
X8236379Y-11933544D01*
G37*
D13*
X7975600Y-12457400D03*
G04 #@! TD*
D11*
G04 #@! TO.C,C13*
G36*
X-3524221Y-6406144D02*
X-3501166Y-6409563D01*
X-3478557Y-6415227D01*
X-3456613Y-6423079D01*
X-3435543Y-6433044D01*
X-3415552Y-6445026D01*
X-3396832Y-6458910D01*
X-3379562Y-6474562D01*
X-3363910Y-6491832D01*
X-3350026Y-6510552D01*
X-3338044Y-6530543D01*
X-3328079Y-6551613D01*
X-3320227Y-6573557D01*
X-3314563Y-6596166D01*
X-3311144Y-6619221D01*
X-3310000Y-6642500D01*
X-3310000Y-7117500D01*
X-3311144Y-7140779D01*
X-3314563Y-7163834D01*
X-3320227Y-7186443D01*
X-3328079Y-7208387D01*
X-3338044Y-7229457D01*
X-3350026Y-7249448D01*
X-3363910Y-7268168D01*
X-3379562Y-7285438D01*
X-3396832Y-7301090D01*
X-3415552Y-7314974D01*
X-3435543Y-7326956D01*
X-3456613Y-7336921D01*
X-3478557Y-7344773D01*
X-3501166Y-7350437D01*
X-3524221Y-7353856D01*
X-3547500Y-7355000D01*
X-4122500Y-7355000D01*
X-4145779Y-7353856D01*
X-4168834Y-7350437D01*
X-4191443Y-7344773D01*
X-4213387Y-7336921D01*
X-4234457Y-7326956D01*
X-4254448Y-7314974D01*
X-4273168Y-7301090D01*
X-4290438Y-7285438D01*
X-4306090Y-7268168D01*
X-4319974Y-7249448D01*
X-4331956Y-7229457D01*
X-4341921Y-7208387D01*
X-4349773Y-7186443D01*
X-4355437Y-7163834D01*
X-4358856Y-7140779D01*
X-4360000Y-7117500D01*
X-4360000Y-6642500D01*
X-4358856Y-6619221D01*
X-4355437Y-6596166D01*
X-4349773Y-6573557D01*
X-4341921Y-6551613D01*
X-4331956Y-6530543D01*
X-4319974Y-6510552D01*
X-4306090Y-6491832D01*
X-4290438Y-6474562D01*
X-4273168Y-6458910D01*
X-4254448Y-6445026D01*
X-4234457Y-6433044D01*
X-4213387Y-6423079D01*
X-4191443Y-6415227D01*
X-4168834Y-6409563D01*
X-4145779Y-6406144D01*
X-4122500Y-6405000D01*
X-3547500Y-6405000D01*
X-3524221Y-6406144D01*
X-3524221Y-6406144D01*
G37*
D13*
X-3835000Y-6880000D03*
D11*
G36*
X-5274221Y-6406144D02*
X-5251166Y-6409563D01*
X-5228557Y-6415227D01*
X-5206613Y-6423079D01*
X-5185543Y-6433044D01*
X-5165552Y-6445026D01*
X-5146832Y-6458910D01*
X-5129562Y-6474562D01*
X-5113910Y-6491832D01*
X-5100026Y-6510552D01*
X-5088044Y-6530543D01*
X-5078079Y-6551613D01*
X-5070227Y-6573557D01*
X-5064563Y-6596166D01*
X-5061144Y-6619221D01*
X-5060000Y-6642500D01*
X-5060000Y-7117500D01*
X-5061144Y-7140779D01*
X-5064563Y-7163834D01*
X-5070227Y-7186443D01*
X-5078079Y-7208387D01*
X-5088044Y-7229457D01*
X-5100026Y-7249448D01*
X-5113910Y-7268168D01*
X-5129562Y-7285438D01*
X-5146832Y-7301090D01*
X-5165552Y-7314974D01*
X-5185543Y-7326956D01*
X-5206613Y-7336921D01*
X-5228557Y-7344773D01*
X-5251166Y-7350437D01*
X-5274221Y-7353856D01*
X-5297500Y-7355000D01*
X-5872500Y-7355000D01*
X-5895779Y-7353856D01*
X-5918834Y-7350437D01*
X-5941443Y-7344773D01*
X-5963387Y-7336921D01*
X-5984457Y-7326956D01*
X-6004448Y-7314974D01*
X-6023168Y-7301090D01*
X-6040438Y-7285438D01*
X-6056090Y-7268168D01*
X-6069974Y-7249448D01*
X-6081956Y-7229457D01*
X-6091921Y-7208387D01*
X-6099773Y-7186443D01*
X-6105437Y-7163834D01*
X-6108856Y-7140779D01*
X-6110000Y-7117500D01*
X-6110000Y-6642500D01*
X-6108856Y-6619221D01*
X-6105437Y-6596166D01*
X-6099773Y-6573557D01*
X-6091921Y-6551613D01*
X-6081956Y-6530543D01*
X-6069974Y-6510552D01*
X-6056090Y-6491832D01*
X-6040438Y-6474562D01*
X-6023168Y-6458910D01*
X-6004448Y-6445026D01*
X-5984457Y-6433044D01*
X-5963387Y-6423079D01*
X-5941443Y-6415227D01*
X-5918834Y-6409563D01*
X-5895779Y-6406144D01*
X-5872500Y-6405000D01*
X-5297500Y-6405000D01*
X-5274221Y-6406144D01*
X-5274221Y-6406144D01*
G37*
D13*
X-5585000Y-6880000D03*
G04 #@! TD*
D14*
G04 #@! TO.C,U9*
X6077500Y-764999D03*
X3347500Y-764999D03*
X3347500Y1435001D03*
X6077500Y1435001D03*
D15*
X5200000Y985001D03*
X5200000Y-314999D03*
X4225000Y-314999D03*
X4225000Y985001D03*
D16*
X5712500Y2635001D03*
X5312500Y2635001D03*
X4912500Y2635001D03*
X4512500Y2635001D03*
X4112500Y2635001D03*
X3712500Y2635001D03*
X3712500Y-1964999D03*
X4112500Y-1964999D03*
X5712500Y-1964999D03*
X5312500Y-1964999D03*
X4912500Y-1964999D03*
D17*
X5712500Y2310001D03*
X5312500Y2310001D03*
X4912500Y2310001D03*
X4512500Y2310001D03*
X4112500Y2310001D03*
X3712500Y2310001D03*
X5712500Y-1639999D03*
X5312500Y-1639999D03*
X4912500Y-1639999D03*
X3712500Y-1639999D03*
X4112500Y-1639999D03*
X4512500Y-1639999D03*
D16*
X4512500Y-1964999D03*
G04 #@! TD*
D11*
G04 #@! TO.C,R16*
G36*
X11285779Y1473856D02*
X11308834Y1470437D01*
X11331443Y1464773D01*
X11353387Y1456921D01*
X11374457Y1446956D01*
X11394448Y1434974D01*
X11413168Y1421090D01*
X11430438Y1405438D01*
X11446090Y1388168D01*
X11459974Y1369448D01*
X11471956Y1349457D01*
X11481921Y1328387D01*
X11489773Y1306443D01*
X11495437Y1283834D01*
X11498856Y1260779D01*
X11500000Y1237500D01*
X11500000Y762500D01*
X11498856Y739221D01*
X11495437Y716166D01*
X11489773Y693557D01*
X11481921Y671613D01*
X11471956Y650543D01*
X11459974Y630552D01*
X11446090Y611832D01*
X11430438Y594562D01*
X11413168Y578910D01*
X11394448Y565026D01*
X11374457Y553044D01*
X11353387Y543079D01*
X11331443Y535227D01*
X11308834Y529563D01*
X11285779Y526144D01*
X11262500Y525000D01*
X10687500Y525000D01*
X10664221Y526144D01*
X10641166Y529563D01*
X10618557Y535227D01*
X10596613Y543079D01*
X10575543Y553044D01*
X10555552Y565026D01*
X10536832Y578910D01*
X10519562Y594562D01*
X10503910Y611832D01*
X10490026Y630552D01*
X10478044Y650543D01*
X10468079Y671613D01*
X10460227Y693557D01*
X10454563Y716166D01*
X10451144Y739221D01*
X10450000Y762500D01*
X10450000Y1237500D01*
X10451144Y1260779D01*
X10454563Y1283834D01*
X10460227Y1306443D01*
X10468079Y1328387D01*
X10478044Y1349457D01*
X10490026Y1369448D01*
X10503910Y1388168D01*
X10519562Y1405438D01*
X10536832Y1421090D01*
X10555552Y1434974D01*
X10575543Y1446956D01*
X10596613Y1456921D01*
X10618557Y1464773D01*
X10641166Y1470437D01*
X10664221Y1473856D01*
X10687500Y1475000D01*
X11262500Y1475000D01*
X11285779Y1473856D01*
X11285779Y1473856D01*
G37*
D13*
X10975000Y1000000D03*
D11*
G36*
X9535779Y1473856D02*
X9558834Y1470437D01*
X9581443Y1464773D01*
X9603387Y1456921D01*
X9624457Y1446956D01*
X9644448Y1434974D01*
X9663168Y1421090D01*
X9680438Y1405438D01*
X9696090Y1388168D01*
X9709974Y1369448D01*
X9721956Y1349457D01*
X9731921Y1328387D01*
X9739773Y1306443D01*
X9745437Y1283834D01*
X9748856Y1260779D01*
X9750000Y1237500D01*
X9750000Y762500D01*
X9748856Y739221D01*
X9745437Y716166D01*
X9739773Y693557D01*
X9731921Y671613D01*
X9721956Y650543D01*
X9709974Y630552D01*
X9696090Y611832D01*
X9680438Y594562D01*
X9663168Y578910D01*
X9644448Y565026D01*
X9624457Y553044D01*
X9603387Y543079D01*
X9581443Y535227D01*
X9558834Y529563D01*
X9535779Y526144D01*
X9512500Y525000D01*
X8937500Y525000D01*
X8914221Y526144D01*
X8891166Y529563D01*
X8868557Y535227D01*
X8846613Y543079D01*
X8825543Y553044D01*
X8805552Y565026D01*
X8786832Y578910D01*
X8769562Y594562D01*
X8753910Y611832D01*
X8740026Y630552D01*
X8728044Y650543D01*
X8718079Y671613D01*
X8710227Y693557D01*
X8704563Y716166D01*
X8701144Y739221D01*
X8700000Y762500D01*
X8700000Y1237500D01*
X8701144Y1260779D01*
X8704563Y1283834D01*
X8710227Y1306443D01*
X8718079Y1328387D01*
X8728044Y1349457D01*
X8740026Y1369448D01*
X8753910Y1388168D01*
X8769562Y1405438D01*
X8786832Y1421090D01*
X8805552Y1434974D01*
X8825543Y1446956D01*
X8846613Y1456921D01*
X8868557Y1464773D01*
X8891166Y1470437D01*
X8914221Y1473856D01*
X8937500Y1475000D01*
X9512500Y1475000D01*
X9535779Y1473856D01*
X9535779Y1473856D01*
G37*
D13*
X9225000Y1000000D03*
G04 #@! TD*
D11*
G04 #@! TO.C,C1*
G36*
X18224505Y-3651204D02*
X18248773Y-3654804D01*
X18272572Y-3660765D01*
X18295671Y-3669030D01*
X18317850Y-3679520D01*
X18338893Y-3692132D01*
X18358599Y-3706747D01*
X18376777Y-3723223D01*
X18393253Y-3741401D01*
X18407868Y-3761107D01*
X18420480Y-3782150D01*
X18430970Y-3804329D01*
X18439235Y-3827428D01*
X18445196Y-3851227D01*
X18448796Y-3875495D01*
X18450000Y-3899999D01*
X18450000Y-4550001D01*
X18448796Y-4574505D01*
X18445196Y-4598773D01*
X18439235Y-4622572D01*
X18430970Y-4645671D01*
X18420480Y-4667850D01*
X18407868Y-4688893D01*
X18393253Y-4708599D01*
X18376777Y-4726777D01*
X18358599Y-4743253D01*
X18338893Y-4757868D01*
X18317850Y-4770480D01*
X18295671Y-4780970D01*
X18272572Y-4789235D01*
X18248773Y-4795196D01*
X18224505Y-4798796D01*
X18200001Y-4800000D01*
X17299999Y-4800000D01*
X17275495Y-4798796D01*
X17251227Y-4795196D01*
X17227428Y-4789235D01*
X17204329Y-4780970D01*
X17182150Y-4770480D01*
X17161107Y-4757868D01*
X17141401Y-4743253D01*
X17123223Y-4726777D01*
X17106747Y-4708599D01*
X17092132Y-4688893D01*
X17079520Y-4667850D01*
X17069030Y-4645671D01*
X17060765Y-4622572D01*
X17054804Y-4598773D01*
X17051204Y-4574505D01*
X17050000Y-4550001D01*
X17050000Y-3899999D01*
X17051204Y-3875495D01*
X17054804Y-3851227D01*
X17060765Y-3827428D01*
X17069030Y-3804329D01*
X17079520Y-3782150D01*
X17092132Y-3761107D01*
X17106747Y-3741401D01*
X17123223Y-3723223D01*
X17141401Y-3706747D01*
X17161107Y-3692132D01*
X17182150Y-3679520D01*
X17204329Y-3669030D01*
X17227428Y-3660765D01*
X17251227Y-3654804D01*
X17275495Y-3651204D01*
X17299999Y-3650000D01*
X18200001Y-3650000D01*
X18224505Y-3651204D01*
X18224505Y-3651204D01*
G37*
D18*
X17750000Y-4225000D03*
D11*
G36*
X18224505Y-5701204D02*
X18248773Y-5704804D01*
X18272572Y-5710765D01*
X18295671Y-5719030D01*
X18317850Y-5729520D01*
X18338893Y-5742132D01*
X18358599Y-5756747D01*
X18376777Y-5773223D01*
X18393253Y-5791401D01*
X18407868Y-5811107D01*
X18420480Y-5832150D01*
X18430970Y-5854329D01*
X18439235Y-5877428D01*
X18445196Y-5901227D01*
X18448796Y-5925495D01*
X18450000Y-5949999D01*
X18450000Y-6600001D01*
X18448796Y-6624505D01*
X18445196Y-6648773D01*
X18439235Y-6672572D01*
X18430970Y-6695671D01*
X18420480Y-6717850D01*
X18407868Y-6738893D01*
X18393253Y-6758599D01*
X18376777Y-6776777D01*
X18358599Y-6793253D01*
X18338893Y-6807868D01*
X18317850Y-6820480D01*
X18295671Y-6830970D01*
X18272572Y-6839235D01*
X18248773Y-6845196D01*
X18224505Y-6848796D01*
X18200001Y-6850000D01*
X17299999Y-6850000D01*
X17275495Y-6848796D01*
X17251227Y-6845196D01*
X17227428Y-6839235D01*
X17204329Y-6830970D01*
X17182150Y-6820480D01*
X17161107Y-6807868D01*
X17141401Y-6793253D01*
X17123223Y-6776777D01*
X17106747Y-6758599D01*
X17092132Y-6738893D01*
X17079520Y-6717850D01*
X17069030Y-6695671D01*
X17060765Y-6672572D01*
X17054804Y-6648773D01*
X17051204Y-6624505D01*
X17050000Y-6600001D01*
X17050000Y-5949999D01*
X17051204Y-5925495D01*
X17054804Y-5901227D01*
X17060765Y-5877428D01*
X17069030Y-5854329D01*
X17079520Y-5832150D01*
X17092132Y-5811107D01*
X17106747Y-5791401D01*
X17123223Y-5773223D01*
X17141401Y-5756747D01*
X17161107Y-5742132D01*
X17182150Y-5729520D01*
X17204329Y-5719030D01*
X17227428Y-5710765D01*
X17251227Y-5704804D01*
X17275495Y-5701204D01*
X17299999Y-5700000D01*
X18200001Y-5700000D01*
X18224505Y-5701204D01*
X18224505Y-5701204D01*
G37*
D18*
X17750000Y-6275000D03*
G04 #@! TD*
D11*
G04 #@! TO.C,C2*
G36*
X23674505Y-8251204D02*
X23698773Y-8254804D01*
X23722572Y-8260765D01*
X23745671Y-8269030D01*
X23767850Y-8279520D01*
X23788893Y-8292132D01*
X23808599Y-8306747D01*
X23826777Y-8323223D01*
X23843253Y-8341401D01*
X23857868Y-8361107D01*
X23870480Y-8382150D01*
X23880970Y-8404329D01*
X23889235Y-8427428D01*
X23895196Y-8451227D01*
X23898796Y-8475495D01*
X23900000Y-8499999D01*
X23900000Y-9150001D01*
X23898796Y-9174505D01*
X23895196Y-9198773D01*
X23889235Y-9222572D01*
X23880970Y-9245671D01*
X23870480Y-9267850D01*
X23857868Y-9288893D01*
X23843253Y-9308599D01*
X23826777Y-9326777D01*
X23808599Y-9343253D01*
X23788893Y-9357868D01*
X23767850Y-9370480D01*
X23745671Y-9380970D01*
X23722572Y-9389235D01*
X23698773Y-9395196D01*
X23674505Y-9398796D01*
X23650001Y-9400000D01*
X22749999Y-9400000D01*
X22725495Y-9398796D01*
X22701227Y-9395196D01*
X22677428Y-9389235D01*
X22654329Y-9380970D01*
X22632150Y-9370480D01*
X22611107Y-9357868D01*
X22591401Y-9343253D01*
X22573223Y-9326777D01*
X22556747Y-9308599D01*
X22542132Y-9288893D01*
X22529520Y-9267850D01*
X22519030Y-9245671D01*
X22510765Y-9222572D01*
X22504804Y-9198773D01*
X22501204Y-9174505D01*
X22500000Y-9150001D01*
X22500000Y-8499999D01*
X22501204Y-8475495D01*
X22504804Y-8451227D01*
X22510765Y-8427428D01*
X22519030Y-8404329D01*
X22529520Y-8382150D01*
X22542132Y-8361107D01*
X22556747Y-8341401D01*
X22573223Y-8323223D01*
X22591401Y-8306747D01*
X22611107Y-8292132D01*
X22632150Y-8279520D01*
X22654329Y-8269030D01*
X22677428Y-8260765D01*
X22701227Y-8254804D01*
X22725495Y-8251204D01*
X22749999Y-8250000D01*
X23650001Y-8250000D01*
X23674505Y-8251204D01*
X23674505Y-8251204D01*
G37*
D18*
X23200000Y-8825000D03*
D11*
G36*
X23674505Y-6201204D02*
X23698773Y-6204804D01*
X23722572Y-6210765D01*
X23745671Y-6219030D01*
X23767850Y-6229520D01*
X23788893Y-6242132D01*
X23808599Y-6256747D01*
X23826777Y-6273223D01*
X23843253Y-6291401D01*
X23857868Y-6311107D01*
X23870480Y-6332150D01*
X23880970Y-6354329D01*
X23889235Y-6377428D01*
X23895196Y-6401227D01*
X23898796Y-6425495D01*
X23900000Y-6449999D01*
X23900000Y-7100001D01*
X23898796Y-7124505D01*
X23895196Y-7148773D01*
X23889235Y-7172572D01*
X23880970Y-7195671D01*
X23870480Y-7217850D01*
X23857868Y-7238893D01*
X23843253Y-7258599D01*
X23826777Y-7276777D01*
X23808599Y-7293253D01*
X23788893Y-7307868D01*
X23767850Y-7320480D01*
X23745671Y-7330970D01*
X23722572Y-7339235D01*
X23698773Y-7345196D01*
X23674505Y-7348796D01*
X23650001Y-7350000D01*
X22749999Y-7350000D01*
X22725495Y-7348796D01*
X22701227Y-7345196D01*
X22677428Y-7339235D01*
X22654329Y-7330970D01*
X22632150Y-7320480D01*
X22611107Y-7307868D01*
X22591401Y-7293253D01*
X22573223Y-7276777D01*
X22556747Y-7258599D01*
X22542132Y-7238893D01*
X22529520Y-7217850D01*
X22519030Y-7195671D01*
X22510765Y-7172572D01*
X22504804Y-7148773D01*
X22501204Y-7124505D01*
X22500000Y-7100001D01*
X22500000Y-6449999D01*
X22501204Y-6425495D01*
X22504804Y-6401227D01*
X22510765Y-6377428D01*
X22519030Y-6354329D01*
X22529520Y-6332150D01*
X22542132Y-6311107D01*
X22556747Y-6291401D01*
X22573223Y-6273223D01*
X22591401Y-6256747D01*
X22611107Y-6242132D01*
X22632150Y-6229520D01*
X22654329Y-6219030D01*
X22677428Y-6210765D01*
X22701227Y-6204804D01*
X22725495Y-6201204D01*
X22749999Y-6200000D01*
X23650001Y-6200000D01*
X23674505Y-6201204D01*
X23674505Y-6201204D01*
G37*
D18*
X23200000Y-6775000D03*
G04 #@! TD*
D11*
G04 #@! TO.C,C3*
G36*
X5724505Y9188796D02*
X5748773Y9185196D01*
X5772572Y9179235D01*
X5795671Y9170970D01*
X5817850Y9160480D01*
X5838893Y9147868D01*
X5858599Y9133253D01*
X5876777Y9116777D01*
X5893253Y9098599D01*
X5907868Y9078893D01*
X5920480Y9057850D01*
X5930970Y9035671D01*
X5939235Y9012572D01*
X5945196Y8988773D01*
X5948796Y8964505D01*
X5950000Y8940001D01*
X5950000Y8039999D01*
X5948796Y8015495D01*
X5945196Y7991227D01*
X5939235Y7967428D01*
X5930970Y7944329D01*
X5920480Y7922150D01*
X5907868Y7901107D01*
X5893253Y7881401D01*
X5876777Y7863223D01*
X5858599Y7846747D01*
X5838893Y7832132D01*
X5817850Y7819520D01*
X5795671Y7809030D01*
X5772572Y7800765D01*
X5748773Y7794804D01*
X5724505Y7791204D01*
X5700001Y7790000D01*
X5049999Y7790000D01*
X5025495Y7791204D01*
X5001227Y7794804D01*
X4977428Y7800765D01*
X4954329Y7809030D01*
X4932150Y7819520D01*
X4911107Y7832132D01*
X4891401Y7846747D01*
X4873223Y7863223D01*
X4856747Y7881401D01*
X4842132Y7901107D01*
X4829520Y7922150D01*
X4819030Y7944329D01*
X4810765Y7967428D01*
X4804804Y7991227D01*
X4801204Y8015495D01*
X4800000Y8039999D01*
X4800000Y8940001D01*
X4801204Y8964505D01*
X4804804Y8988773D01*
X4810765Y9012572D01*
X4819030Y9035671D01*
X4829520Y9057850D01*
X4842132Y9078893D01*
X4856747Y9098599D01*
X4873223Y9116777D01*
X4891401Y9133253D01*
X4911107Y9147868D01*
X4932150Y9160480D01*
X4954329Y9170970D01*
X4977428Y9179235D01*
X5001227Y9185196D01*
X5025495Y9188796D01*
X5049999Y9190000D01*
X5700001Y9190000D01*
X5724505Y9188796D01*
X5724505Y9188796D01*
G37*
D18*
X5375000Y8490000D03*
D11*
G36*
X3674505Y9188796D02*
X3698773Y9185196D01*
X3722572Y9179235D01*
X3745671Y9170970D01*
X3767850Y9160480D01*
X3788893Y9147868D01*
X3808599Y9133253D01*
X3826777Y9116777D01*
X3843253Y9098599D01*
X3857868Y9078893D01*
X3870480Y9057850D01*
X3880970Y9035671D01*
X3889235Y9012572D01*
X3895196Y8988773D01*
X3898796Y8964505D01*
X3900000Y8940001D01*
X3900000Y8039999D01*
X3898796Y8015495D01*
X3895196Y7991227D01*
X3889235Y7967428D01*
X3880970Y7944329D01*
X3870480Y7922150D01*
X3857868Y7901107D01*
X3843253Y7881401D01*
X3826777Y7863223D01*
X3808599Y7846747D01*
X3788893Y7832132D01*
X3767850Y7819520D01*
X3745671Y7809030D01*
X3722572Y7800765D01*
X3698773Y7794804D01*
X3674505Y7791204D01*
X3650001Y7790000D01*
X2999999Y7790000D01*
X2975495Y7791204D01*
X2951227Y7794804D01*
X2927428Y7800765D01*
X2904329Y7809030D01*
X2882150Y7819520D01*
X2861107Y7832132D01*
X2841401Y7846747D01*
X2823223Y7863223D01*
X2806747Y7881401D01*
X2792132Y7901107D01*
X2779520Y7922150D01*
X2769030Y7944329D01*
X2760765Y7967428D01*
X2754804Y7991227D01*
X2751204Y8015495D01*
X2750000Y8039999D01*
X2750000Y8940001D01*
X2751204Y8964505D01*
X2754804Y8988773D01*
X2760765Y9012572D01*
X2769030Y9035671D01*
X2779520Y9057850D01*
X2792132Y9078893D01*
X2806747Y9098599D01*
X2823223Y9116777D01*
X2841401Y9133253D01*
X2861107Y9147868D01*
X2882150Y9160480D01*
X2904329Y9170970D01*
X2927428Y9179235D01*
X2951227Y9185196D01*
X2975495Y9188796D01*
X2999999Y9190000D01*
X3650001Y9190000D01*
X3674505Y9188796D01*
X3674505Y9188796D01*
G37*
D18*
X3325000Y8490000D03*
G04 #@! TD*
D11*
G04 #@! TO.C,C4*
G36*
X6260779Y13398856D02*
X6283834Y13395437D01*
X6306443Y13389773D01*
X6328387Y13381921D01*
X6349457Y13371956D01*
X6369448Y13359974D01*
X6388168Y13346090D01*
X6405438Y13330438D01*
X6421090Y13313168D01*
X6434974Y13294448D01*
X6446956Y13274457D01*
X6456921Y13253387D01*
X6464773Y13231443D01*
X6470437Y13208834D01*
X6473856Y13185779D01*
X6475000Y13162500D01*
X6475000Y12587500D01*
X6473856Y12564221D01*
X6470437Y12541166D01*
X6464773Y12518557D01*
X6456921Y12496613D01*
X6446956Y12475543D01*
X6434974Y12455552D01*
X6421090Y12436832D01*
X6405438Y12419562D01*
X6388168Y12403910D01*
X6369448Y12390026D01*
X6349457Y12378044D01*
X6328387Y12368079D01*
X6306443Y12360227D01*
X6283834Y12354563D01*
X6260779Y12351144D01*
X6237500Y12350000D01*
X5762500Y12350000D01*
X5739221Y12351144D01*
X5716166Y12354563D01*
X5693557Y12360227D01*
X5671613Y12368079D01*
X5650543Y12378044D01*
X5630552Y12390026D01*
X5611832Y12403910D01*
X5594562Y12419562D01*
X5578910Y12436832D01*
X5565026Y12455552D01*
X5553044Y12475543D01*
X5543079Y12496613D01*
X5535227Y12518557D01*
X5529563Y12541166D01*
X5526144Y12564221D01*
X5525000Y12587500D01*
X5525000Y13162500D01*
X5526144Y13185779D01*
X5529563Y13208834D01*
X5535227Y13231443D01*
X5543079Y13253387D01*
X5553044Y13274457D01*
X5565026Y13294448D01*
X5578910Y13313168D01*
X5594562Y13330438D01*
X5611832Y13346090D01*
X5630552Y13359974D01*
X5650543Y13371956D01*
X5671613Y13381921D01*
X5693557Y13389773D01*
X5716166Y13395437D01*
X5739221Y13398856D01*
X5762500Y13400000D01*
X6237500Y13400000D01*
X6260779Y13398856D01*
X6260779Y13398856D01*
G37*
D13*
X6000000Y12875000D03*
D11*
G36*
X6260779Y11648856D02*
X6283834Y11645437D01*
X6306443Y11639773D01*
X6328387Y11631921D01*
X6349457Y11621956D01*
X6369448Y11609974D01*
X6388168Y11596090D01*
X6405438Y11580438D01*
X6421090Y11563168D01*
X6434974Y11544448D01*
X6446956Y11524457D01*
X6456921Y11503387D01*
X6464773Y11481443D01*
X6470437Y11458834D01*
X6473856Y11435779D01*
X6475000Y11412500D01*
X6475000Y10837500D01*
X6473856Y10814221D01*
X6470437Y10791166D01*
X6464773Y10768557D01*
X6456921Y10746613D01*
X6446956Y10725543D01*
X6434974Y10705552D01*
X6421090Y10686832D01*
X6405438Y10669562D01*
X6388168Y10653910D01*
X6369448Y10640026D01*
X6349457Y10628044D01*
X6328387Y10618079D01*
X6306443Y10610227D01*
X6283834Y10604563D01*
X6260779Y10601144D01*
X6237500Y10600000D01*
X5762500Y10600000D01*
X5739221Y10601144D01*
X5716166Y10604563D01*
X5693557Y10610227D01*
X5671613Y10618079D01*
X5650543Y10628044D01*
X5630552Y10640026D01*
X5611832Y10653910D01*
X5594562Y10669562D01*
X5578910Y10686832D01*
X5565026Y10705552D01*
X5553044Y10725543D01*
X5543079Y10746613D01*
X5535227Y10768557D01*
X5529563Y10791166D01*
X5526144Y10814221D01*
X5525000Y10837500D01*
X5525000Y11412500D01*
X5526144Y11435779D01*
X5529563Y11458834D01*
X5535227Y11481443D01*
X5543079Y11503387D01*
X5553044Y11524457D01*
X5565026Y11544448D01*
X5578910Y11563168D01*
X5594562Y11580438D01*
X5611832Y11596090D01*
X5630552Y11609974D01*
X5650543Y11621956D01*
X5671613Y11631921D01*
X5693557Y11639773D01*
X5716166Y11645437D01*
X5739221Y11648856D01*
X5762500Y11650000D01*
X6237500Y11650000D01*
X6260779Y11648856D01*
X6260779Y11648856D01*
G37*
D13*
X6000000Y11125000D03*
G04 #@! TD*
D11*
G04 #@! TO.C,C5*
G36*
X2574505Y15448796D02*
X2598773Y15445196D01*
X2622572Y15439235D01*
X2645671Y15430970D01*
X2667850Y15420480D01*
X2688893Y15407868D01*
X2708599Y15393253D01*
X2726777Y15376777D01*
X2743253Y15358599D01*
X2757868Y15338893D01*
X2770480Y15317850D01*
X2780970Y15295671D01*
X2789235Y15272572D01*
X2795196Y15248773D01*
X2798796Y15224505D01*
X2800000Y15200001D01*
X2800000Y14299999D01*
X2798796Y14275495D01*
X2795196Y14251227D01*
X2789235Y14227428D01*
X2780970Y14204329D01*
X2770480Y14182150D01*
X2757868Y14161107D01*
X2743253Y14141401D01*
X2726777Y14123223D01*
X2708599Y14106747D01*
X2688893Y14092132D01*
X2667850Y14079520D01*
X2645671Y14069030D01*
X2622572Y14060765D01*
X2598773Y14054804D01*
X2574505Y14051204D01*
X2550001Y14050000D01*
X1899999Y14050000D01*
X1875495Y14051204D01*
X1851227Y14054804D01*
X1827428Y14060765D01*
X1804329Y14069030D01*
X1782150Y14079520D01*
X1761107Y14092132D01*
X1741401Y14106747D01*
X1723223Y14123223D01*
X1706747Y14141401D01*
X1692132Y14161107D01*
X1679520Y14182150D01*
X1669030Y14204329D01*
X1660765Y14227428D01*
X1654804Y14251227D01*
X1651204Y14275495D01*
X1650000Y14299999D01*
X1650000Y15200001D01*
X1651204Y15224505D01*
X1654804Y15248773D01*
X1660765Y15272572D01*
X1669030Y15295671D01*
X1679520Y15317850D01*
X1692132Y15338893D01*
X1706747Y15358599D01*
X1723223Y15376777D01*
X1741401Y15393253D01*
X1761107Y15407868D01*
X1782150Y15420480D01*
X1804329Y15430970D01*
X1827428Y15439235D01*
X1851227Y15445196D01*
X1875495Y15448796D01*
X1899999Y15450000D01*
X2550001Y15450000D01*
X2574505Y15448796D01*
X2574505Y15448796D01*
G37*
D18*
X2225000Y14750000D03*
D11*
G36*
X4624505Y15448796D02*
X4648773Y15445196D01*
X4672572Y15439235D01*
X4695671Y15430970D01*
X4717850Y15420480D01*
X4738893Y15407868D01*
X4758599Y15393253D01*
X4776777Y15376777D01*
X4793253Y15358599D01*
X4807868Y15338893D01*
X4820480Y15317850D01*
X4830970Y15295671D01*
X4839235Y15272572D01*
X4845196Y15248773D01*
X4848796Y15224505D01*
X4850000Y15200001D01*
X4850000Y14299999D01*
X4848796Y14275495D01*
X4845196Y14251227D01*
X4839235Y14227428D01*
X4830970Y14204329D01*
X4820480Y14182150D01*
X4807868Y14161107D01*
X4793253Y14141401D01*
X4776777Y14123223D01*
X4758599Y14106747D01*
X4738893Y14092132D01*
X4717850Y14079520D01*
X4695671Y14069030D01*
X4672572Y14060765D01*
X4648773Y14054804D01*
X4624505Y14051204D01*
X4600001Y14050000D01*
X3949999Y14050000D01*
X3925495Y14051204D01*
X3901227Y14054804D01*
X3877428Y14060765D01*
X3854329Y14069030D01*
X3832150Y14079520D01*
X3811107Y14092132D01*
X3791401Y14106747D01*
X3773223Y14123223D01*
X3756747Y14141401D01*
X3742132Y14161107D01*
X3729520Y14182150D01*
X3719030Y14204329D01*
X3710765Y14227428D01*
X3704804Y14251227D01*
X3701204Y14275495D01*
X3700000Y14299999D01*
X3700000Y15200001D01*
X3701204Y15224505D01*
X3704804Y15248773D01*
X3710765Y15272572D01*
X3719030Y15295671D01*
X3729520Y15317850D01*
X3742132Y15338893D01*
X3756747Y15358599D01*
X3773223Y15376777D01*
X3791401Y15393253D01*
X3811107Y15407868D01*
X3832150Y15420480D01*
X3854329Y15430970D01*
X3877428Y15439235D01*
X3901227Y15445196D01*
X3925495Y15448796D01*
X3949999Y15450000D01*
X4600001Y15450000D01*
X4624505Y15448796D01*
X4624505Y15448796D01*
G37*
D18*
X4275000Y14750000D03*
G04 #@! TD*
D11*
G04 #@! TO.C,C6*
G36*
X-13925495Y448796D02*
X-13901227Y445196D01*
X-13877428Y439235D01*
X-13854329Y430970D01*
X-13832150Y420480D01*
X-13811107Y407868D01*
X-13791401Y393253D01*
X-13773223Y376777D01*
X-13756747Y358599D01*
X-13742132Y338893D01*
X-13729520Y317850D01*
X-13719030Y295671D01*
X-13710765Y272572D01*
X-13704804Y248773D01*
X-13701204Y224505D01*
X-13700000Y200001D01*
X-13700000Y-700001D01*
X-13701204Y-724505D01*
X-13704804Y-748773D01*
X-13710765Y-772572D01*
X-13719030Y-795671D01*
X-13729520Y-817850D01*
X-13742132Y-838893D01*
X-13756747Y-858599D01*
X-13773223Y-876777D01*
X-13791401Y-893253D01*
X-13811107Y-907868D01*
X-13832150Y-920480D01*
X-13854329Y-930970D01*
X-13877428Y-939235D01*
X-13901227Y-945196D01*
X-13925495Y-948796D01*
X-13949999Y-950000D01*
X-14600001Y-950000D01*
X-14624505Y-948796D01*
X-14648773Y-945196D01*
X-14672572Y-939235D01*
X-14695671Y-930970D01*
X-14717850Y-920480D01*
X-14738893Y-907868D01*
X-14758599Y-893253D01*
X-14776777Y-876777D01*
X-14793253Y-858599D01*
X-14807868Y-838893D01*
X-14820480Y-817850D01*
X-14830970Y-795671D01*
X-14839235Y-772572D01*
X-14845196Y-748773D01*
X-14848796Y-724505D01*
X-14850000Y-700001D01*
X-14850000Y200001D01*
X-14848796Y224505D01*
X-14845196Y248773D01*
X-14839235Y272572D01*
X-14830970Y295671D01*
X-14820480Y317850D01*
X-14807868Y338893D01*
X-14793253Y358599D01*
X-14776777Y376777D01*
X-14758599Y393253D01*
X-14738893Y407868D01*
X-14717850Y420480D01*
X-14695671Y430970D01*
X-14672572Y439235D01*
X-14648773Y445196D01*
X-14624505Y448796D01*
X-14600001Y450000D01*
X-13949999Y450000D01*
X-13925495Y448796D01*
X-13925495Y448796D01*
G37*
D18*
X-14275000Y-250000D03*
D11*
G36*
X-11875495Y448796D02*
X-11851227Y445196D01*
X-11827428Y439235D01*
X-11804329Y430970D01*
X-11782150Y420480D01*
X-11761107Y407868D01*
X-11741401Y393253D01*
X-11723223Y376777D01*
X-11706747Y358599D01*
X-11692132Y338893D01*
X-11679520Y317850D01*
X-11669030Y295671D01*
X-11660765Y272572D01*
X-11654804Y248773D01*
X-11651204Y224505D01*
X-11650000Y200001D01*
X-11650000Y-700001D01*
X-11651204Y-724505D01*
X-11654804Y-748773D01*
X-11660765Y-772572D01*
X-11669030Y-795671D01*
X-11679520Y-817850D01*
X-11692132Y-838893D01*
X-11706747Y-858599D01*
X-11723223Y-876777D01*
X-11741401Y-893253D01*
X-11761107Y-907868D01*
X-11782150Y-920480D01*
X-11804329Y-930970D01*
X-11827428Y-939235D01*
X-11851227Y-945196D01*
X-11875495Y-948796D01*
X-11899999Y-950000D01*
X-12550001Y-950000D01*
X-12574505Y-948796D01*
X-12598773Y-945196D01*
X-12622572Y-939235D01*
X-12645671Y-930970D01*
X-12667850Y-920480D01*
X-12688893Y-907868D01*
X-12708599Y-893253D01*
X-12726777Y-876777D01*
X-12743253Y-858599D01*
X-12757868Y-838893D01*
X-12770480Y-817850D01*
X-12780970Y-795671D01*
X-12789235Y-772572D01*
X-12795196Y-748773D01*
X-12798796Y-724505D01*
X-12800000Y-700001D01*
X-12800000Y200001D01*
X-12798796Y224505D01*
X-12795196Y248773D01*
X-12789235Y272572D01*
X-12780970Y295671D01*
X-12770480Y317850D01*
X-12757868Y338893D01*
X-12743253Y358599D01*
X-12726777Y376777D01*
X-12708599Y393253D01*
X-12688893Y407868D01*
X-12667850Y420480D01*
X-12645671Y430970D01*
X-12622572Y439235D01*
X-12598773Y445196D01*
X-12574505Y448796D01*
X-12550001Y450000D01*
X-11899999Y450000D01*
X-11875495Y448796D01*
X-11875495Y448796D01*
G37*
D18*
X-12225000Y-250000D03*
G04 #@! TD*
D11*
G04 #@! TO.C,C7*
G36*
X-3814221Y3473856D02*
X-3791166Y3470437D01*
X-3768557Y3464773D01*
X-3746613Y3456921D01*
X-3725543Y3446956D01*
X-3705552Y3434974D01*
X-3686832Y3421090D01*
X-3669562Y3405438D01*
X-3653910Y3388168D01*
X-3640026Y3369448D01*
X-3628044Y3349457D01*
X-3618079Y3328387D01*
X-3610227Y3306443D01*
X-3604563Y3283834D01*
X-3601144Y3260779D01*
X-3600000Y3237500D01*
X-3600000Y2762500D01*
X-3601144Y2739221D01*
X-3604563Y2716166D01*
X-3610227Y2693557D01*
X-3618079Y2671613D01*
X-3628044Y2650543D01*
X-3640026Y2630552D01*
X-3653910Y2611832D01*
X-3669562Y2594562D01*
X-3686832Y2578910D01*
X-3705552Y2565026D01*
X-3725543Y2553044D01*
X-3746613Y2543079D01*
X-3768557Y2535227D01*
X-3791166Y2529563D01*
X-3814221Y2526144D01*
X-3837500Y2525000D01*
X-4412500Y2525000D01*
X-4435779Y2526144D01*
X-4458834Y2529563D01*
X-4481443Y2535227D01*
X-4503387Y2543079D01*
X-4524457Y2553044D01*
X-4544448Y2565026D01*
X-4563168Y2578910D01*
X-4580438Y2594562D01*
X-4596090Y2611832D01*
X-4609974Y2630552D01*
X-4621956Y2650543D01*
X-4631921Y2671613D01*
X-4639773Y2693557D01*
X-4645437Y2716166D01*
X-4648856Y2739221D01*
X-4650000Y2762500D01*
X-4650000Y3237500D01*
X-4648856Y3260779D01*
X-4645437Y3283834D01*
X-4639773Y3306443D01*
X-4631921Y3328387D01*
X-4621956Y3349457D01*
X-4609974Y3369448D01*
X-4596090Y3388168D01*
X-4580438Y3405438D01*
X-4563168Y3421090D01*
X-4544448Y3434974D01*
X-4524457Y3446956D01*
X-4503387Y3456921D01*
X-4481443Y3464773D01*
X-4458834Y3470437D01*
X-4435779Y3473856D01*
X-4412500Y3475000D01*
X-3837500Y3475000D01*
X-3814221Y3473856D01*
X-3814221Y3473856D01*
G37*
D13*
X-4125000Y3000000D03*
D11*
G36*
X-5564221Y3473856D02*
X-5541166Y3470437D01*
X-5518557Y3464773D01*
X-5496613Y3456921D01*
X-5475543Y3446956D01*
X-5455552Y3434974D01*
X-5436832Y3421090D01*
X-5419562Y3405438D01*
X-5403910Y3388168D01*
X-5390026Y3369448D01*
X-5378044Y3349457D01*
X-5368079Y3328387D01*
X-5360227Y3306443D01*
X-5354563Y3283834D01*
X-5351144Y3260779D01*
X-5350000Y3237500D01*
X-5350000Y2762500D01*
X-5351144Y2739221D01*
X-5354563Y2716166D01*
X-5360227Y2693557D01*
X-5368079Y2671613D01*
X-5378044Y2650543D01*
X-5390026Y2630552D01*
X-5403910Y2611832D01*
X-5419562Y2594562D01*
X-5436832Y2578910D01*
X-5455552Y2565026D01*
X-5475543Y2553044D01*
X-5496613Y2543079D01*
X-5518557Y2535227D01*
X-5541166Y2529563D01*
X-5564221Y2526144D01*
X-5587500Y2525000D01*
X-6162500Y2525000D01*
X-6185779Y2526144D01*
X-6208834Y2529563D01*
X-6231443Y2535227D01*
X-6253387Y2543079D01*
X-6274457Y2553044D01*
X-6294448Y2565026D01*
X-6313168Y2578910D01*
X-6330438Y2594562D01*
X-6346090Y2611832D01*
X-6359974Y2630552D01*
X-6371956Y2650543D01*
X-6381921Y2671613D01*
X-6389773Y2693557D01*
X-6395437Y2716166D01*
X-6398856Y2739221D01*
X-6400000Y2762500D01*
X-6400000Y3237500D01*
X-6398856Y3260779D01*
X-6395437Y3283834D01*
X-6389773Y3306443D01*
X-6381921Y3328387D01*
X-6371956Y3349457D01*
X-6359974Y3369448D01*
X-6346090Y3388168D01*
X-6330438Y3405438D01*
X-6313168Y3421090D01*
X-6294448Y3434974D01*
X-6274457Y3446956D01*
X-6253387Y3456921D01*
X-6231443Y3464773D01*
X-6208834Y3470437D01*
X-6185779Y3473856D01*
X-6162500Y3475000D01*
X-5587500Y3475000D01*
X-5564221Y3473856D01*
X-5564221Y3473856D01*
G37*
D13*
X-5875000Y3000000D03*
G04 #@! TD*
D11*
G04 #@! TO.C,C8*
G36*
X-3814221Y1723856D02*
X-3791166Y1720437D01*
X-3768557Y1714773D01*
X-3746613Y1706921D01*
X-3725543Y1696956D01*
X-3705552Y1684974D01*
X-3686832Y1671090D01*
X-3669562Y1655438D01*
X-3653910Y1638168D01*
X-3640026Y1619448D01*
X-3628044Y1599457D01*
X-3618079Y1578387D01*
X-3610227Y1556443D01*
X-3604563Y1533834D01*
X-3601144Y1510779D01*
X-3600000Y1487500D01*
X-3600000Y1012500D01*
X-3601144Y989221D01*
X-3604563Y966166D01*
X-3610227Y943557D01*
X-3618079Y921613D01*
X-3628044Y900543D01*
X-3640026Y880552D01*
X-3653910Y861832D01*
X-3669562Y844562D01*
X-3686832Y828910D01*
X-3705552Y815026D01*
X-3725543Y803044D01*
X-3746613Y793079D01*
X-3768557Y785227D01*
X-3791166Y779563D01*
X-3814221Y776144D01*
X-3837500Y775000D01*
X-4412500Y775000D01*
X-4435779Y776144D01*
X-4458834Y779563D01*
X-4481443Y785227D01*
X-4503387Y793079D01*
X-4524457Y803044D01*
X-4544448Y815026D01*
X-4563168Y828910D01*
X-4580438Y844562D01*
X-4596090Y861832D01*
X-4609974Y880552D01*
X-4621956Y900543D01*
X-4631921Y921613D01*
X-4639773Y943557D01*
X-4645437Y966166D01*
X-4648856Y989221D01*
X-4650000Y1012500D01*
X-4650000Y1487500D01*
X-4648856Y1510779D01*
X-4645437Y1533834D01*
X-4639773Y1556443D01*
X-4631921Y1578387D01*
X-4621956Y1599457D01*
X-4609974Y1619448D01*
X-4596090Y1638168D01*
X-4580438Y1655438D01*
X-4563168Y1671090D01*
X-4544448Y1684974D01*
X-4524457Y1696956D01*
X-4503387Y1706921D01*
X-4481443Y1714773D01*
X-4458834Y1720437D01*
X-4435779Y1723856D01*
X-4412500Y1725000D01*
X-3837500Y1725000D01*
X-3814221Y1723856D01*
X-3814221Y1723856D01*
G37*
D13*
X-4125000Y1250000D03*
D11*
G36*
X-5564221Y1723856D02*
X-5541166Y1720437D01*
X-5518557Y1714773D01*
X-5496613Y1706921D01*
X-5475543Y1696956D01*
X-5455552Y1684974D01*
X-5436832Y1671090D01*
X-5419562Y1655438D01*
X-5403910Y1638168D01*
X-5390026Y1619448D01*
X-5378044Y1599457D01*
X-5368079Y1578387D01*
X-5360227Y1556443D01*
X-5354563Y1533834D01*
X-5351144Y1510779D01*
X-5350000Y1487500D01*
X-5350000Y1012500D01*
X-5351144Y989221D01*
X-5354563Y966166D01*
X-5360227Y943557D01*
X-5368079Y921613D01*
X-5378044Y900543D01*
X-5390026Y880552D01*
X-5403910Y861832D01*
X-5419562Y844562D01*
X-5436832Y828910D01*
X-5455552Y815026D01*
X-5475543Y803044D01*
X-5496613Y793079D01*
X-5518557Y785227D01*
X-5541166Y779563D01*
X-5564221Y776144D01*
X-5587500Y775000D01*
X-6162500Y775000D01*
X-6185779Y776144D01*
X-6208834Y779563D01*
X-6231443Y785227D01*
X-6253387Y793079D01*
X-6274457Y803044D01*
X-6294448Y815026D01*
X-6313168Y828910D01*
X-6330438Y844562D01*
X-6346090Y861832D01*
X-6359974Y880552D01*
X-6371956Y900543D01*
X-6381921Y921613D01*
X-6389773Y943557D01*
X-6395437Y966166D01*
X-6398856Y989221D01*
X-6400000Y1012500D01*
X-6400000Y1487500D01*
X-6398856Y1510779D01*
X-6395437Y1533834D01*
X-6389773Y1556443D01*
X-6381921Y1578387D01*
X-6371956Y1599457D01*
X-6359974Y1619448D01*
X-6346090Y1638168D01*
X-6330438Y1655438D01*
X-6313168Y1671090D01*
X-6294448Y1684974D01*
X-6274457Y1696956D01*
X-6253387Y1706921D01*
X-6231443Y1714773D01*
X-6208834Y1720437D01*
X-6185779Y1723856D01*
X-6162500Y1725000D01*
X-5587500Y1725000D01*
X-5564221Y1723856D01*
X-5564221Y1723856D01*
G37*
D13*
X-5875000Y1250000D03*
G04 #@! TD*
D11*
G04 #@! TO.C,C9*
G36*
X-7489221Y7398856D02*
X-7466166Y7395437D01*
X-7443557Y7389773D01*
X-7421613Y7381921D01*
X-7400543Y7371956D01*
X-7380552Y7359974D01*
X-7361832Y7346090D01*
X-7344562Y7330438D01*
X-7328910Y7313168D01*
X-7315026Y7294448D01*
X-7303044Y7274457D01*
X-7293079Y7253387D01*
X-7285227Y7231443D01*
X-7279563Y7208834D01*
X-7276144Y7185779D01*
X-7275000Y7162500D01*
X-7275000Y6587500D01*
X-7276144Y6564221D01*
X-7279563Y6541166D01*
X-7285227Y6518557D01*
X-7293079Y6496613D01*
X-7303044Y6475543D01*
X-7315026Y6455552D01*
X-7328910Y6436832D01*
X-7344562Y6419562D01*
X-7361832Y6403910D01*
X-7380552Y6390026D01*
X-7400543Y6378044D01*
X-7421613Y6368079D01*
X-7443557Y6360227D01*
X-7466166Y6354563D01*
X-7489221Y6351144D01*
X-7512500Y6350000D01*
X-7987500Y6350000D01*
X-8010779Y6351144D01*
X-8033834Y6354563D01*
X-8056443Y6360227D01*
X-8078387Y6368079D01*
X-8099457Y6378044D01*
X-8119448Y6390026D01*
X-8138168Y6403910D01*
X-8155438Y6419562D01*
X-8171090Y6436832D01*
X-8184974Y6455552D01*
X-8196956Y6475543D01*
X-8206921Y6496613D01*
X-8214773Y6518557D01*
X-8220437Y6541166D01*
X-8223856Y6564221D01*
X-8225000Y6587500D01*
X-8225000Y7162500D01*
X-8223856Y7185779D01*
X-8220437Y7208834D01*
X-8214773Y7231443D01*
X-8206921Y7253387D01*
X-8196956Y7274457D01*
X-8184974Y7294448D01*
X-8171090Y7313168D01*
X-8155438Y7330438D01*
X-8138168Y7346090D01*
X-8119448Y7359974D01*
X-8099457Y7371956D01*
X-8078387Y7381921D01*
X-8056443Y7389773D01*
X-8033834Y7395437D01*
X-8010779Y7398856D01*
X-7987500Y7400000D01*
X-7512500Y7400000D01*
X-7489221Y7398856D01*
X-7489221Y7398856D01*
G37*
D13*
X-7750000Y6875000D03*
D11*
G36*
X-7489221Y5648856D02*
X-7466166Y5645437D01*
X-7443557Y5639773D01*
X-7421613Y5631921D01*
X-7400543Y5621956D01*
X-7380552Y5609974D01*
X-7361832Y5596090D01*
X-7344562Y5580438D01*
X-7328910Y5563168D01*
X-7315026Y5544448D01*
X-7303044Y5524457D01*
X-7293079Y5503387D01*
X-7285227Y5481443D01*
X-7279563Y5458834D01*
X-7276144Y5435779D01*
X-7275000Y5412500D01*
X-7275000Y4837500D01*
X-7276144Y4814221D01*
X-7279563Y4791166D01*
X-7285227Y4768557D01*
X-7293079Y4746613D01*
X-7303044Y4725543D01*
X-7315026Y4705552D01*
X-7328910Y4686832D01*
X-7344562Y4669562D01*
X-7361832Y4653910D01*
X-7380552Y4640026D01*
X-7400543Y4628044D01*
X-7421613Y4618079D01*
X-7443557Y4610227D01*
X-7466166Y4604563D01*
X-7489221Y4601144D01*
X-7512500Y4600000D01*
X-7987500Y4600000D01*
X-8010779Y4601144D01*
X-8033834Y4604563D01*
X-8056443Y4610227D01*
X-8078387Y4618079D01*
X-8099457Y4628044D01*
X-8119448Y4640026D01*
X-8138168Y4653910D01*
X-8155438Y4669562D01*
X-8171090Y4686832D01*
X-8184974Y4705552D01*
X-8196956Y4725543D01*
X-8206921Y4746613D01*
X-8214773Y4768557D01*
X-8220437Y4791166D01*
X-8223856Y4814221D01*
X-8225000Y4837500D01*
X-8225000Y5412500D01*
X-8223856Y5435779D01*
X-8220437Y5458834D01*
X-8214773Y5481443D01*
X-8206921Y5503387D01*
X-8196956Y5524457D01*
X-8184974Y5544448D01*
X-8171090Y5563168D01*
X-8155438Y5580438D01*
X-8138168Y5596090D01*
X-8119448Y5609974D01*
X-8099457Y5621956D01*
X-8078387Y5631921D01*
X-8056443Y5639773D01*
X-8033834Y5645437D01*
X-8010779Y5648856D01*
X-7987500Y5650000D01*
X-7512500Y5650000D01*
X-7489221Y5648856D01*
X-7489221Y5648856D01*
G37*
D13*
X-7750000Y5125000D03*
G04 #@! TD*
D11*
G04 #@! TO.C,C10*
G36*
X-9275495Y1598796D02*
X-9251227Y1595196D01*
X-9227428Y1589235D01*
X-9204329Y1580970D01*
X-9182150Y1570480D01*
X-9161107Y1557868D01*
X-9141401Y1543253D01*
X-9123223Y1526777D01*
X-9106747Y1508599D01*
X-9092132Y1488893D01*
X-9079520Y1467850D01*
X-9069030Y1445671D01*
X-9060765Y1422572D01*
X-9054804Y1398773D01*
X-9051204Y1374505D01*
X-9050000Y1350001D01*
X-9050000Y699999D01*
X-9051204Y675495D01*
X-9054804Y651227D01*
X-9060765Y627428D01*
X-9069030Y604329D01*
X-9079520Y582150D01*
X-9092132Y561107D01*
X-9106747Y541401D01*
X-9123223Y523223D01*
X-9141401Y506747D01*
X-9161107Y492132D01*
X-9182150Y479520D01*
X-9204329Y469030D01*
X-9227428Y460765D01*
X-9251227Y454804D01*
X-9275495Y451204D01*
X-9299999Y450000D01*
X-10200001Y450000D01*
X-10224505Y451204D01*
X-10248773Y454804D01*
X-10272572Y460765D01*
X-10295671Y469030D01*
X-10317850Y479520D01*
X-10338893Y492132D01*
X-10358599Y506747D01*
X-10376777Y523223D01*
X-10393253Y541401D01*
X-10407868Y561107D01*
X-10420480Y582150D01*
X-10430970Y604329D01*
X-10439235Y627428D01*
X-10445196Y651227D01*
X-10448796Y675495D01*
X-10450000Y699999D01*
X-10450000Y1350001D01*
X-10448796Y1374505D01*
X-10445196Y1398773D01*
X-10439235Y1422572D01*
X-10430970Y1445671D01*
X-10420480Y1467850D01*
X-10407868Y1488893D01*
X-10393253Y1508599D01*
X-10376777Y1526777D01*
X-10358599Y1543253D01*
X-10338893Y1557868D01*
X-10317850Y1570480D01*
X-10295671Y1580970D01*
X-10272572Y1589235D01*
X-10248773Y1595196D01*
X-10224505Y1598796D01*
X-10200001Y1600000D01*
X-9299999Y1600000D01*
X-9275495Y1598796D01*
X-9275495Y1598796D01*
G37*
D18*
X-9750000Y1025000D03*
D11*
G36*
X-9275495Y-451204D02*
X-9251227Y-454804D01*
X-9227428Y-460765D01*
X-9204329Y-469030D01*
X-9182150Y-479520D01*
X-9161107Y-492132D01*
X-9141401Y-506747D01*
X-9123223Y-523223D01*
X-9106747Y-541401D01*
X-9092132Y-561107D01*
X-9079520Y-582150D01*
X-9069030Y-604329D01*
X-9060765Y-627428D01*
X-9054804Y-651227D01*
X-9051204Y-675495D01*
X-9050000Y-699999D01*
X-9050000Y-1350001D01*
X-9051204Y-1374505D01*
X-9054804Y-1398773D01*
X-9060765Y-1422572D01*
X-9069030Y-1445671D01*
X-9079520Y-1467850D01*
X-9092132Y-1488893D01*
X-9106747Y-1508599D01*
X-9123223Y-1526777D01*
X-9141401Y-1543253D01*
X-9161107Y-1557868D01*
X-9182150Y-1570480D01*
X-9204329Y-1580970D01*
X-9227428Y-1589235D01*
X-9251227Y-1595196D01*
X-9275495Y-1598796D01*
X-9299999Y-1600000D01*
X-10200001Y-1600000D01*
X-10224505Y-1598796D01*
X-10248773Y-1595196D01*
X-10272572Y-1589235D01*
X-10295671Y-1580970D01*
X-10317850Y-1570480D01*
X-10338893Y-1557868D01*
X-10358599Y-1543253D01*
X-10376777Y-1526777D01*
X-10393253Y-1508599D01*
X-10407868Y-1488893D01*
X-10420480Y-1467850D01*
X-10430970Y-1445671D01*
X-10439235Y-1422572D01*
X-10445196Y-1398773D01*
X-10448796Y-1374505D01*
X-10450000Y-1350001D01*
X-10450000Y-699999D01*
X-10448796Y-675495D01*
X-10445196Y-651227D01*
X-10439235Y-627428D01*
X-10430970Y-604329D01*
X-10420480Y-582150D01*
X-10407868Y-561107D01*
X-10393253Y-541401D01*
X-10376777Y-523223D01*
X-10358599Y-506747D01*
X-10338893Y-492132D01*
X-10317850Y-479520D01*
X-10295671Y-469030D01*
X-10272572Y-460765D01*
X-10248773Y-454804D01*
X-10224505Y-451204D01*
X-10200001Y-450000D01*
X-9299999Y-450000D01*
X-9275495Y-451204D01*
X-9275495Y-451204D01*
G37*
D18*
X-9750000Y-1025000D03*
G04 #@! TD*
D11*
G04 #@! TO.C,C11*
G36*
X-7529221Y-4196144D02*
X-7506166Y-4199563D01*
X-7483557Y-4205227D01*
X-7461613Y-4213079D01*
X-7440543Y-4223044D01*
X-7420552Y-4235026D01*
X-7401832Y-4248910D01*
X-7384562Y-4264562D01*
X-7368910Y-4281832D01*
X-7355026Y-4300552D01*
X-7343044Y-4320543D01*
X-7333079Y-4341613D01*
X-7325227Y-4363557D01*
X-7319563Y-4386166D01*
X-7316144Y-4409221D01*
X-7315000Y-4432500D01*
X-7315000Y-4907500D01*
X-7316144Y-4930779D01*
X-7319563Y-4953834D01*
X-7325227Y-4976443D01*
X-7333079Y-4998387D01*
X-7343044Y-5019457D01*
X-7355026Y-5039448D01*
X-7368910Y-5058168D01*
X-7384562Y-5075438D01*
X-7401832Y-5091090D01*
X-7420552Y-5104974D01*
X-7440543Y-5116956D01*
X-7461613Y-5126921D01*
X-7483557Y-5134773D01*
X-7506166Y-5140437D01*
X-7529221Y-5143856D01*
X-7552500Y-5145000D01*
X-8127500Y-5145000D01*
X-8150779Y-5143856D01*
X-8173834Y-5140437D01*
X-8196443Y-5134773D01*
X-8218387Y-5126921D01*
X-8239457Y-5116956D01*
X-8259448Y-5104974D01*
X-8278168Y-5091090D01*
X-8295438Y-5075438D01*
X-8311090Y-5058168D01*
X-8324974Y-5039448D01*
X-8336956Y-5019457D01*
X-8346921Y-4998387D01*
X-8354773Y-4976443D01*
X-8360437Y-4953834D01*
X-8363856Y-4930779D01*
X-8365000Y-4907500D01*
X-8365000Y-4432500D01*
X-8363856Y-4409221D01*
X-8360437Y-4386166D01*
X-8354773Y-4363557D01*
X-8346921Y-4341613D01*
X-8336956Y-4320543D01*
X-8324974Y-4300552D01*
X-8311090Y-4281832D01*
X-8295438Y-4264562D01*
X-8278168Y-4248910D01*
X-8259448Y-4235026D01*
X-8239457Y-4223044D01*
X-8218387Y-4213079D01*
X-8196443Y-4205227D01*
X-8173834Y-4199563D01*
X-8150779Y-4196144D01*
X-8127500Y-4195000D01*
X-7552500Y-4195000D01*
X-7529221Y-4196144D01*
X-7529221Y-4196144D01*
G37*
D13*
X-7840000Y-4670000D03*
D11*
G36*
X-9279221Y-4196144D02*
X-9256166Y-4199563D01*
X-9233557Y-4205227D01*
X-9211613Y-4213079D01*
X-9190543Y-4223044D01*
X-9170552Y-4235026D01*
X-9151832Y-4248910D01*
X-9134562Y-4264562D01*
X-9118910Y-4281832D01*
X-9105026Y-4300552D01*
X-9093044Y-4320543D01*
X-9083079Y-4341613D01*
X-9075227Y-4363557D01*
X-9069563Y-4386166D01*
X-9066144Y-4409221D01*
X-9065000Y-4432500D01*
X-9065000Y-4907500D01*
X-9066144Y-4930779D01*
X-9069563Y-4953834D01*
X-9075227Y-4976443D01*
X-9083079Y-4998387D01*
X-9093044Y-5019457D01*
X-9105026Y-5039448D01*
X-9118910Y-5058168D01*
X-9134562Y-5075438D01*
X-9151832Y-5091090D01*
X-9170552Y-5104974D01*
X-9190543Y-5116956D01*
X-9211613Y-5126921D01*
X-9233557Y-5134773D01*
X-9256166Y-5140437D01*
X-9279221Y-5143856D01*
X-9302500Y-5145000D01*
X-9877500Y-5145000D01*
X-9900779Y-5143856D01*
X-9923834Y-5140437D01*
X-9946443Y-5134773D01*
X-9968387Y-5126921D01*
X-9989457Y-5116956D01*
X-10009448Y-5104974D01*
X-10028168Y-5091090D01*
X-10045438Y-5075438D01*
X-10061090Y-5058168D01*
X-10074974Y-5039448D01*
X-10086956Y-5019457D01*
X-10096921Y-4998387D01*
X-10104773Y-4976443D01*
X-10110437Y-4953834D01*
X-10113856Y-4930779D01*
X-10115000Y-4907500D01*
X-10115000Y-4432500D01*
X-10113856Y-4409221D01*
X-10110437Y-4386166D01*
X-10104773Y-4363557D01*
X-10096921Y-4341613D01*
X-10086956Y-4320543D01*
X-10074974Y-4300552D01*
X-10061090Y-4281832D01*
X-10045438Y-4264562D01*
X-10028168Y-4248910D01*
X-10009448Y-4235026D01*
X-9989457Y-4223044D01*
X-9968387Y-4213079D01*
X-9946443Y-4205227D01*
X-9923834Y-4199563D01*
X-9900779Y-4196144D01*
X-9877500Y-4195000D01*
X-9302500Y-4195000D01*
X-9279221Y-4196144D01*
X-9279221Y-4196144D01*
G37*
D13*
X-9590000Y-4670000D03*
G04 #@! TD*
D11*
G04 #@! TO.C,C12*
G36*
X-3834221Y-4336144D02*
X-3811166Y-4339563D01*
X-3788557Y-4345227D01*
X-3766613Y-4353079D01*
X-3745543Y-4363044D01*
X-3725552Y-4375026D01*
X-3706832Y-4388910D01*
X-3689562Y-4404562D01*
X-3673910Y-4421832D01*
X-3660026Y-4440552D01*
X-3648044Y-4460543D01*
X-3638079Y-4481613D01*
X-3630227Y-4503557D01*
X-3624563Y-4526166D01*
X-3621144Y-4549221D01*
X-3620000Y-4572500D01*
X-3620000Y-5047500D01*
X-3621144Y-5070779D01*
X-3624563Y-5093834D01*
X-3630227Y-5116443D01*
X-3638079Y-5138387D01*
X-3648044Y-5159457D01*
X-3660026Y-5179448D01*
X-3673910Y-5198168D01*
X-3689562Y-5215438D01*
X-3706832Y-5231090D01*
X-3725552Y-5244974D01*
X-3745543Y-5256956D01*
X-3766613Y-5266921D01*
X-3788557Y-5274773D01*
X-3811166Y-5280437D01*
X-3834221Y-5283856D01*
X-3857500Y-5285000D01*
X-4432500Y-5285000D01*
X-4455779Y-5283856D01*
X-4478834Y-5280437D01*
X-4501443Y-5274773D01*
X-4523387Y-5266921D01*
X-4544457Y-5256956D01*
X-4564448Y-5244974D01*
X-4583168Y-5231090D01*
X-4600438Y-5215438D01*
X-4616090Y-5198168D01*
X-4629974Y-5179448D01*
X-4641956Y-5159457D01*
X-4651921Y-5138387D01*
X-4659773Y-5116443D01*
X-4665437Y-5093834D01*
X-4668856Y-5070779D01*
X-4670000Y-5047500D01*
X-4670000Y-4572500D01*
X-4668856Y-4549221D01*
X-4665437Y-4526166D01*
X-4659773Y-4503557D01*
X-4651921Y-4481613D01*
X-4641956Y-4460543D01*
X-4629974Y-4440552D01*
X-4616090Y-4421832D01*
X-4600438Y-4404562D01*
X-4583168Y-4388910D01*
X-4564448Y-4375026D01*
X-4544457Y-4363044D01*
X-4523387Y-4353079D01*
X-4501443Y-4345227D01*
X-4478834Y-4339563D01*
X-4455779Y-4336144D01*
X-4432500Y-4335000D01*
X-3857500Y-4335000D01*
X-3834221Y-4336144D01*
X-3834221Y-4336144D01*
G37*
D13*
X-4145000Y-4810000D03*
D11*
G36*
X-5584221Y-4336144D02*
X-5561166Y-4339563D01*
X-5538557Y-4345227D01*
X-5516613Y-4353079D01*
X-5495543Y-4363044D01*
X-5475552Y-4375026D01*
X-5456832Y-4388910D01*
X-5439562Y-4404562D01*
X-5423910Y-4421832D01*
X-5410026Y-4440552D01*
X-5398044Y-4460543D01*
X-5388079Y-4481613D01*
X-5380227Y-4503557D01*
X-5374563Y-4526166D01*
X-5371144Y-4549221D01*
X-5370000Y-4572500D01*
X-5370000Y-5047500D01*
X-5371144Y-5070779D01*
X-5374563Y-5093834D01*
X-5380227Y-5116443D01*
X-5388079Y-5138387D01*
X-5398044Y-5159457D01*
X-5410026Y-5179448D01*
X-5423910Y-5198168D01*
X-5439562Y-5215438D01*
X-5456832Y-5231090D01*
X-5475552Y-5244974D01*
X-5495543Y-5256956D01*
X-5516613Y-5266921D01*
X-5538557Y-5274773D01*
X-5561166Y-5280437D01*
X-5584221Y-5283856D01*
X-5607500Y-5285000D01*
X-6182500Y-5285000D01*
X-6205779Y-5283856D01*
X-6228834Y-5280437D01*
X-6251443Y-5274773D01*
X-6273387Y-5266921D01*
X-6294457Y-5256956D01*
X-6314448Y-5244974D01*
X-6333168Y-5231090D01*
X-6350438Y-5215438D01*
X-6366090Y-5198168D01*
X-6379974Y-5179448D01*
X-6391956Y-5159457D01*
X-6401921Y-5138387D01*
X-6409773Y-5116443D01*
X-6415437Y-5093834D01*
X-6418856Y-5070779D01*
X-6420000Y-5047500D01*
X-6420000Y-4572500D01*
X-6418856Y-4549221D01*
X-6415437Y-4526166D01*
X-6409773Y-4503557D01*
X-6401921Y-4481613D01*
X-6391956Y-4460543D01*
X-6379974Y-4440552D01*
X-6366090Y-4421832D01*
X-6350438Y-4404562D01*
X-6333168Y-4388910D01*
X-6314448Y-4375026D01*
X-6294457Y-4363044D01*
X-6273387Y-4353079D01*
X-6251443Y-4345227D01*
X-6228834Y-4339563D01*
X-6205779Y-4336144D01*
X-6182500Y-4335000D01*
X-5607500Y-4335000D01*
X-5584221Y-4336144D01*
X-5584221Y-4336144D01*
G37*
D13*
X-5895000Y-4810000D03*
G04 #@! TD*
D11*
G04 #@! TO.C,C14*
G36*
X-15525495Y-5651204D02*
X-15501227Y-5654804D01*
X-15477428Y-5660765D01*
X-15454329Y-5669030D01*
X-15432150Y-5679520D01*
X-15411107Y-5692132D01*
X-15391401Y-5706747D01*
X-15373223Y-5723223D01*
X-15356747Y-5741401D01*
X-15342132Y-5761107D01*
X-15329520Y-5782150D01*
X-15319030Y-5804329D01*
X-15310765Y-5827428D01*
X-15304804Y-5851227D01*
X-15301204Y-5875495D01*
X-15300000Y-5899999D01*
X-15300000Y-6550001D01*
X-15301204Y-6574505D01*
X-15304804Y-6598773D01*
X-15310765Y-6622572D01*
X-15319030Y-6645671D01*
X-15329520Y-6667850D01*
X-15342132Y-6688893D01*
X-15356747Y-6708599D01*
X-15373223Y-6726777D01*
X-15391401Y-6743253D01*
X-15411107Y-6757868D01*
X-15432150Y-6770480D01*
X-15454329Y-6780970D01*
X-15477428Y-6789235D01*
X-15501227Y-6795196D01*
X-15525495Y-6798796D01*
X-15549999Y-6800000D01*
X-16450001Y-6800000D01*
X-16474505Y-6798796D01*
X-16498773Y-6795196D01*
X-16522572Y-6789235D01*
X-16545671Y-6780970D01*
X-16567850Y-6770480D01*
X-16588893Y-6757868D01*
X-16608599Y-6743253D01*
X-16626777Y-6726777D01*
X-16643253Y-6708599D01*
X-16657868Y-6688893D01*
X-16670480Y-6667850D01*
X-16680970Y-6645671D01*
X-16689235Y-6622572D01*
X-16695196Y-6598773D01*
X-16698796Y-6574505D01*
X-16700000Y-6550001D01*
X-16700000Y-5899999D01*
X-16698796Y-5875495D01*
X-16695196Y-5851227D01*
X-16689235Y-5827428D01*
X-16680970Y-5804329D01*
X-16670480Y-5782150D01*
X-16657868Y-5761107D01*
X-16643253Y-5741401D01*
X-16626777Y-5723223D01*
X-16608599Y-5706747D01*
X-16588893Y-5692132D01*
X-16567850Y-5679520D01*
X-16545671Y-5669030D01*
X-16522572Y-5660765D01*
X-16498773Y-5654804D01*
X-16474505Y-5651204D01*
X-16450001Y-5650000D01*
X-15549999Y-5650000D01*
X-15525495Y-5651204D01*
X-15525495Y-5651204D01*
G37*
D18*
X-16000000Y-6225000D03*
D11*
G36*
X-15525495Y-7701204D02*
X-15501227Y-7704804D01*
X-15477428Y-7710765D01*
X-15454329Y-7719030D01*
X-15432150Y-7729520D01*
X-15411107Y-7742132D01*
X-15391401Y-7756747D01*
X-15373223Y-7773223D01*
X-15356747Y-7791401D01*
X-15342132Y-7811107D01*
X-15329520Y-7832150D01*
X-15319030Y-7854329D01*
X-15310765Y-7877428D01*
X-15304804Y-7901227D01*
X-15301204Y-7925495D01*
X-15300000Y-7949999D01*
X-15300000Y-8600001D01*
X-15301204Y-8624505D01*
X-15304804Y-8648773D01*
X-15310765Y-8672572D01*
X-15319030Y-8695671D01*
X-15329520Y-8717850D01*
X-15342132Y-8738893D01*
X-15356747Y-8758599D01*
X-15373223Y-8776777D01*
X-15391401Y-8793253D01*
X-15411107Y-8807868D01*
X-15432150Y-8820480D01*
X-15454329Y-8830970D01*
X-15477428Y-8839235D01*
X-15501227Y-8845196D01*
X-15525495Y-8848796D01*
X-15549999Y-8850000D01*
X-16450001Y-8850000D01*
X-16474505Y-8848796D01*
X-16498773Y-8845196D01*
X-16522572Y-8839235D01*
X-16545671Y-8830970D01*
X-16567850Y-8820480D01*
X-16588893Y-8807868D01*
X-16608599Y-8793253D01*
X-16626777Y-8776777D01*
X-16643253Y-8758599D01*
X-16657868Y-8738893D01*
X-16670480Y-8717850D01*
X-16680970Y-8695671D01*
X-16689235Y-8672572D01*
X-16695196Y-8648773D01*
X-16698796Y-8624505D01*
X-16700000Y-8600001D01*
X-16700000Y-7949999D01*
X-16698796Y-7925495D01*
X-16695196Y-7901227D01*
X-16689235Y-7877428D01*
X-16680970Y-7854329D01*
X-16670480Y-7832150D01*
X-16657868Y-7811107D01*
X-16643253Y-7791401D01*
X-16626777Y-7773223D01*
X-16608599Y-7756747D01*
X-16588893Y-7742132D01*
X-16567850Y-7729520D01*
X-16545671Y-7719030D01*
X-16522572Y-7710765D01*
X-16498773Y-7704804D01*
X-16474505Y-7701204D01*
X-16450001Y-7700000D01*
X-15549999Y-7700000D01*
X-15525495Y-7701204D01*
X-15525495Y-7701204D01*
G37*
D18*
X-16000000Y-8275000D03*
G04 #@! TD*
D11*
G04 #@! TO.C,C15*
G36*
X-4064221Y-14026144D02*
X-4041166Y-14029563D01*
X-4018557Y-14035227D01*
X-3996613Y-14043079D01*
X-3975543Y-14053044D01*
X-3955552Y-14065026D01*
X-3936832Y-14078910D01*
X-3919562Y-14094562D01*
X-3903910Y-14111832D01*
X-3890026Y-14130552D01*
X-3878044Y-14150543D01*
X-3868079Y-14171613D01*
X-3860227Y-14193557D01*
X-3854563Y-14216166D01*
X-3851144Y-14239221D01*
X-3850000Y-14262500D01*
X-3850000Y-14737500D01*
X-3851144Y-14760779D01*
X-3854563Y-14783834D01*
X-3860227Y-14806443D01*
X-3868079Y-14828387D01*
X-3878044Y-14849457D01*
X-3890026Y-14869448D01*
X-3903910Y-14888168D01*
X-3919562Y-14905438D01*
X-3936832Y-14921090D01*
X-3955552Y-14934974D01*
X-3975543Y-14946956D01*
X-3996613Y-14956921D01*
X-4018557Y-14964773D01*
X-4041166Y-14970437D01*
X-4064221Y-14973856D01*
X-4087500Y-14975000D01*
X-4662500Y-14975000D01*
X-4685779Y-14973856D01*
X-4708834Y-14970437D01*
X-4731443Y-14964773D01*
X-4753387Y-14956921D01*
X-4774457Y-14946956D01*
X-4794448Y-14934974D01*
X-4813168Y-14921090D01*
X-4830438Y-14905438D01*
X-4846090Y-14888168D01*
X-4859974Y-14869448D01*
X-4871956Y-14849457D01*
X-4881921Y-14828387D01*
X-4889773Y-14806443D01*
X-4895437Y-14783834D01*
X-4898856Y-14760779D01*
X-4900000Y-14737500D01*
X-4900000Y-14262500D01*
X-4898856Y-14239221D01*
X-4895437Y-14216166D01*
X-4889773Y-14193557D01*
X-4881921Y-14171613D01*
X-4871956Y-14150543D01*
X-4859974Y-14130552D01*
X-4846090Y-14111832D01*
X-4830438Y-14094562D01*
X-4813168Y-14078910D01*
X-4794448Y-14065026D01*
X-4774457Y-14053044D01*
X-4753387Y-14043079D01*
X-4731443Y-14035227D01*
X-4708834Y-14029563D01*
X-4685779Y-14026144D01*
X-4662500Y-14025000D01*
X-4087500Y-14025000D01*
X-4064221Y-14026144D01*
X-4064221Y-14026144D01*
G37*
D13*
X-4375000Y-14500000D03*
D11*
G36*
X-5814221Y-14026144D02*
X-5791166Y-14029563D01*
X-5768557Y-14035227D01*
X-5746613Y-14043079D01*
X-5725543Y-14053044D01*
X-5705552Y-14065026D01*
X-5686832Y-14078910D01*
X-5669562Y-14094562D01*
X-5653910Y-14111832D01*
X-5640026Y-14130552D01*
X-5628044Y-14150543D01*
X-5618079Y-14171613D01*
X-5610227Y-14193557D01*
X-5604563Y-14216166D01*
X-5601144Y-14239221D01*
X-5600000Y-14262500D01*
X-5600000Y-14737500D01*
X-5601144Y-14760779D01*
X-5604563Y-14783834D01*
X-5610227Y-14806443D01*
X-5618079Y-14828387D01*
X-5628044Y-14849457D01*
X-5640026Y-14869448D01*
X-5653910Y-14888168D01*
X-5669562Y-14905438D01*
X-5686832Y-14921090D01*
X-5705552Y-14934974D01*
X-5725543Y-14946956D01*
X-5746613Y-14956921D01*
X-5768557Y-14964773D01*
X-5791166Y-14970437D01*
X-5814221Y-14973856D01*
X-5837500Y-14975000D01*
X-6412500Y-14975000D01*
X-6435779Y-14973856D01*
X-6458834Y-14970437D01*
X-6481443Y-14964773D01*
X-6503387Y-14956921D01*
X-6524457Y-14946956D01*
X-6544448Y-14934974D01*
X-6563168Y-14921090D01*
X-6580438Y-14905438D01*
X-6596090Y-14888168D01*
X-6609974Y-14869448D01*
X-6621956Y-14849457D01*
X-6631921Y-14828387D01*
X-6639773Y-14806443D01*
X-6645437Y-14783834D01*
X-6648856Y-14760779D01*
X-6650000Y-14737500D01*
X-6650000Y-14262500D01*
X-6648856Y-14239221D01*
X-6645437Y-14216166D01*
X-6639773Y-14193557D01*
X-6631921Y-14171613D01*
X-6621956Y-14150543D01*
X-6609974Y-14130552D01*
X-6596090Y-14111832D01*
X-6580438Y-14094562D01*
X-6563168Y-14078910D01*
X-6544448Y-14065026D01*
X-6524457Y-14053044D01*
X-6503387Y-14043079D01*
X-6481443Y-14035227D01*
X-6458834Y-14029563D01*
X-6435779Y-14026144D01*
X-6412500Y-14025000D01*
X-5837500Y-14025000D01*
X-5814221Y-14026144D01*
X-5814221Y-14026144D01*
G37*
D13*
X-6125000Y-14500000D03*
G04 #@! TD*
D11*
G04 #@! TO.C,C16*
G36*
X-4064221Y-15776144D02*
X-4041166Y-15779563D01*
X-4018557Y-15785227D01*
X-3996613Y-15793079D01*
X-3975543Y-15803044D01*
X-3955552Y-15815026D01*
X-3936832Y-15828910D01*
X-3919562Y-15844562D01*
X-3903910Y-15861832D01*
X-3890026Y-15880552D01*
X-3878044Y-15900543D01*
X-3868079Y-15921613D01*
X-3860227Y-15943557D01*
X-3854563Y-15966166D01*
X-3851144Y-15989221D01*
X-3850000Y-16012500D01*
X-3850000Y-16487500D01*
X-3851144Y-16510779D01*
X-3854563Y-16533834D01*
X-3860227Y-16556443D01*
X-3868079Y-16578387D01*
X-3878044Y-16599457D01*
X-3890026Y-16619448D01*
X-3903910Y-16638168D01*
X-3919562Y-16655438D01*
X-3936832Y-16671090D01*
X-3955552Y-16684974D01*
X-3975543Y-16696956D01*
X-3996613Y-16706921D01*
X-4018557Y-16714773D01*
X-4041166Y-16720437D01*
X-4064221Y-16723856D01*
X-4087500Y-16725000D01*
X-4662500Y-16725000D01*
X-4685779Y-16723856D01*
X-4708834Y-16720437D01*
X-4731443Y-16714773D01*
X-4753387Y-16706921D01*
X-4774457Y-16696956D01*
X-4794448Y-16684974D01*
X-4813168Y-16671090D01*
X-4830438Y-16655438D01*
X-4846090Y-16638168D01*
X-4859974Y-16619448D01*
X-4871956Y-16599457D01*
X-4881921Y-16578387D01*
X-4889773Y-16556443D01*
X-4895437Y-16533834D01*
X-4898856Y-16510779D01*
X-4900000Y-16487500D01*
X-4900000Y-16012500D01*
X-4898856Y-15989221D01*
X-4895437Y-15966166D01*
X-4889773Y-15943557D01*
X-4881921Y-15921613D01*
X-4871956Y-15900543D01*
X-4859974Y-15880552D01*
X-4846090Y-15861832D01*
X-4830438Y-15844562D01*
X-4813168Y-15828910D01*
X-4794448Y-15815026D01*
X-4774457Y-15803044D01*
X-4753387Y-15793079D01*
X-4731443Y-15785227D01*
X-4708834Y-15779563D01*
X-4685779Y-15776144D01*
X-4662500Y-15775000D01*
X-4087500Y-15775000D01*
X-4064221Y-15776144D01*
X-4064221Y-15776144D01*
G37*
D13*
X-4375000Y-16250000D03*
D11*
G36*
X-5814221Y-15776144D02*
X-5791166Y-15779563D01*
X-5768557Y-15785227D01*
X-5746613Y-15793079D01*
X-5725543Y-15803044D01*
X-5705552Y-15815026D01*
X-5686832Y-15828910D01*
X-5669562Y-15844562D01*
X-5653910Y-15861832D01*
X-5640026Y-15880552D01*
X-5628044Y-15900543D01*
X-5618079Y-15921613D01*
X-5610227Y-15943557D01*
X-5604563Y-15966166D01*
X-5601144Y-15989221D01*
X-5600000Y-16012500D01*
X-5600000Y-16487500D01*
X-5601144Y-16510779D01*
X-5604563Y-16533834D01*
X-5610227Y-16556443D01*
X-5618079Y-16578387D01*
X-5628044Y-16599457D01*
X-5640026Y-16619448D01*
X-5653910Y-16638168D01*
X-5669562Y-16655438D01*
X-5686832Y-16671090D01*
X-5705552Y-16684974D01*
X-5725543Y-16696956D01*
X-5746613Y-16706921D01*
X-5768557Y-16714773D01*
X-5791166Y-16720437D01*
X-5814221Y-16723856D01*
X-5837500Y-16725000D01*
X-6412500Y-16725000D01*
X-6435779Y-16723856D01*
X-6458834Y-16720437D01*
X-6481443Y-16714773D01*
X-6503387Y-16706921D01*
X-6524457Y-16696956D01*
X-6544448Y-16684974D01*
X-6563168Y-16671090D01*
X-6580438Y-16655438D01*
X-6596090Y-16638168D01*
X-6609974Y-16619448D01*
X-6621956Y-16599457D01*
X-6631921Y-16578387D01*
X-6639773Y-16556443D01*
X-6645437Y-16533834D01*
X-6648856Y-16510779D01*
X-6650000Y-16487500D01*
X-6650000Y-16012500D01*
X-6648856Y-15989221D01*
X-6645437Y-15966166D01*
X-6639773Y-15943557D01*
X-6631921Y-15921613D01*
X-6621956Y-15900543D01*
X-6609974Y-15880552D01*
X-6596090Y-15861832D01*
X-6580438Y-15844562D01*
X-6563168Y-15828910D01*
X-6544448Y-15815026D01*
X-6524457Y-15803044D01*
X-6503387Y-15793079D01*
X-6481443Y-15785227D01*
X-6458834Y-15779563D01*
X-6435779Y-15776144D01*
X-6412500Y-15775000D01*
X-5837500Y-15775000D01*
X-5814221Y-15776144D01*
X-5814221Y-15776144D01*
G37*
D13*
X-6125000Y-16250000D03*
G04 #@! TD*
D11*
G04 #@! TO.C,C17*
G36*
X-7739221Y-10101144D02*
X-7716166Y-10104563D01*
X-7693557Y-10110227D01*
X-7671613Y-10118079D01*
X-7650543Y-10128044D01*
X-7630552Y-10140026D01*
X-7611832Y-10153910D01*
X-7594562Y-10169562D01*
X-7578910Y-10186832D01*
X-7565026Y-10205552D01*
X-7553044Y-10225543D01*
X-7543079Y-10246613D01*
X-7535227Y-10268557D01*
X-7529563Y-10291166D01*
X-7526144Y-10314221D01*
X-7525000Y-10337500D01*
X-7525000Y-10912500D01*
X-7526144Y-10935779D01*
X-7529563Y-10958834D01*
X-7535227Y-10981443D01*
X-7543079Y-11003387D01*
X-7553044Y-11024457D01*
X-7565026Y-11044448D01*
X-7578910Y-11063168D01*
X-7594562Y-11080438D01*
X-7611832Y-11096090D01*
X-7630552Y-11109974D01*
X-7650543Y-11121956D01*
X-7671613Y-11131921D01*
X-7693557Y-11139773D01*
X-7716166Y-11145437D01*
X-7739221Y-11148856D01*
X-7762500Y-11150000D01*
X-8237500Y-11150000D01*
X-8260779Y-11148856D01*
X-8283834Y-11145437D01*
X-8306443Y-11139773D01*
X-8328387Y-11131921D01*
X-8349457Y-11121956D01*
X-8369448Y-11109974D01*
X-8388168Y-11096090D01*
X-8405438Y-11080438D01*
X-8421090Y-11063168D01*
X-8434974Y-11044448D01*
X-8446956Y-11024457D01*
X-8456921Y-11003387D01*
X-8464773Y-10981443D01*
X-8470437Y-10958834D01*
X-8473856Y-10935779D01*
X-8475000Y-10912500D01*
X-8475000Y-10337500D01*
X-8473856Y-10314221D01*
X-8470437Y-10291166D01*
X-8464773Y-10268557D01*
X-8456921Y-10246613D01*
X-8446956Y-10225543D01*
X-8434974Y-10205552D01*
X-8421090Y-10186832D01*
X-8405438Y-10169562D01*
X-8388168Y-10153910D01*
X-8369448Y-10140026D01*
X-8349457Y-10128044D01*
X-8328387Y-10118079D01*
X-8306443Y-10110227D01*
X-8283834Y-10104563D01*
X-8260779Y-10101144D01*
X-8237500Y-10100000D01*
X-7762500Y-10100000D01*
X-7739221Y-10101144D01*
X-7739221Y-10101144D01*
G37*
D13*
X-8000000Y-10625000D03*
D11*
G36*
X-7739221Y-11851144D02*
X-7716166Y-11854563D01*
X-7693557Y-11860227D01*
X-7671613Y-11868079D01*
X-7650543Y-11878044D01*
X-7630552Y-11890026D01*
X-7611832Y-11903910D01*
X-7594562Y-11919562D01*
X-7578910Y-11936832D01*
X-7565026Y-11955552D01*
X-7553044Y-11975543D01*
X-7543079Y-11996613D01*
X-7535227Y-12018557D01*
X-7529563Y-12041166D01*
X-7526144Y-12064221D01*
X-7525000Y-12087500D01*
X-7525000Y-12662500D01*
X-7526144Y-12685779D01*
X-7529563Y-12708834D01*
X-7535227Y-12731443D01*
X-7543079Y-12753387D01*
X-7553044Y-12774457D01*
X-7565026Y-12794448D01*
X-7578910Y-12813168D01*
X-7594562Y-12830438D01*
X-7611832Y-12846090D01*
X-7630552Y-12859974D01*
X-7650543Y-12871956D01*
X-7671613Y-12881921D01*
X-7693557Y-12889773D01*
X-7716166Y-12895437D01*
X-7739221Y-12898856D01*
X-7762500Y-12900000D01*
X-8237500Y-12900000D01*
X-8260779Y-12898856D01*
X-8283834Y-12895437D01*
X-8306443Y-12889773D01*
X-8328387Y-12881921D01*
X-8349457Y-12871956D01*
X-8369448Y-12859974D01*
X-8388168Y-12846090D01*
X-8405438Y-12830438D01*
X-8421090Y-12813168D01*
X-8434974Y-12794448D01*
X-8446956Y-12774457D01*
X-8456921Y-12753387D01*
X-8464773Y-12731443D01*
X-8470437Y-12708834D01*
X-8473856Y-12685779D01*
X-8475000Y-12662500D01*
X-8475000Y-12087500D01*
X-8473856Y-12064221D01*
X-8470437Y-12041166D01*
X-8464773Y-12018557D01*
X-8456921Y-11996613D01*
X-8446956Y-11975543D01*
X-8434974Y-11955552D01*
X-8421090Y-11936832D01*
X-8405438Y-11919562D01*
X-8388168Y-11903910D01*
X-8369448Y-11890026D01*
X-8349457Y-11878044D01*
X-8328387Y-11868079D01*
X-8306443Y-11860227D01*
X-8283834Y-11854563D01*
X-8260779Y-11851144D01*
X-8237500Y-11850000D01*
X-7762500Y-11850000D01*
X-7739221Y-11851144D01*
X-7739221Y-11851144D01*
G37*
D13*
X-8000000Y-12375000D03*
G04 #@! TD*
D11*
G04 #@! TO.C,C18*
G36*
X-11875495Y-12301204D02*
X-11851227Y-12304804D01*
X-11827428Y-12310765D01*
X-11804329Y-12319030D01*
X-11782150Y-12329520D01*
X-11761107Y-12342132D01*
X-11741401Y-12356747D01*
X-11723223Y-12373223D01*
X-11706747Y-12391401D01*
X-11692132Y-12411107D01*
X-11679520Y-12432150D01*
X-11669030Y-12454329D01*
X-11660765Y-12477428D01*
X-11654804Y-12501227D01*
X-11651204Y-12525495D01*
X-11650000Y-12549999D01*
X-11650000Y-13450001D01*
X-11651204Y-13474505D01*
X-11654804Y-13498773D01*
X-11660765Y-13522572D01*
X-11669030Y-13545671D01*
X-11679520Y-13567850D01*
X-11692132Y-13588893D01*
X-11706747Y-13608599D01*
X-11723223Y-13626777D01*
X-11741401Y-13643253D01*
X-11761107Y-13657868D01*
X-11782150Y-13670480D01*
X-11804329Y-13680970D01*
X-11827428Y-13689235D01*
X-11851227Y-13695196D01*
X-11875495Y-13698796D01*
X-11899999Y-13700000D01*
X-12550001Y-13700000D01*
X-12574505Y-13698796D01*
X-12598773Y-13695196D01*
X-12622572Y-13689235D01*
X-12645671Y-13680970D01*
X-12667850Y-13670480D01*
X-12688893Y-13657868D01*
X-12708599Y-13643253D01*
X-12726777Y-13626777D01*
X-12743253Y-13608599D01*
X-12757868Y-13588893D01*
X-12770480Y-13567850D01*
X-12780970Y-13545671D01*
X-12789235Y-13522572D01*
X-12795196Y-13498773D01*
X-12798796Y-13474505D01*
X-12800000Y-13450001D01*
X-12800000Y-12549999D01*
X-12798796Y-12525495D01*
X-12795196Y-12501227D01*
X-12789235Y-12477428D01*
X-12780970Y-12454329D01*
X-12770480Y-12432150D01*
X-12757868Y-12411107D01*
X-12743253Y-12391401D01*
X-12726777Y-12373223D01*
X-12708599Y-12356747D01*
X-12688893Y-12342132D01*
X-12667850Y-12329520D01*
X-12645671Y-12319030D01*
X-12622572Y-12310765D01*
X-12598773Y-12304804D01*
X-12574505Y-12301204D01*
X-12550001Y-12300000D01*
X-11899999Y-12300000D01*
X-11875495Y-12301204D01*
X-11875495Y-12301204D01*
G37*
D18*
X-12225000Y-13000000D03*
D11*
G36*
X-13925495Y-12301204D02*
X-13901227Y-12304804D01*
X-13877428Y-12310765D01*
X-13854329Y-12319030D01*
X-13832150Y-12329520D01*
X-13811107Y-12342132D01*
X-13791401Y-12356747D01*
X-13773223Y-12373223D01*
X-13756747Y-12391401D01*
X-13742132Y-12411107D01*
X-13729520Y-12432150D01*
X-13719030Y-12454329D01*
X-13710765Y-12477428D01*
X-13704804Y-12501227D01*
X-13701204Y-12525495D01*
X-13700000Y-12549999D01*
X-13700000Y-13450001D01*
X-13701204Y-13474505D01*
X-13704804Y-13498773D01*
X-13710765Y-13522572D01*
X-13719030Y-13545671D01*
X-13729520Y-13567850D01*
X-13742132Y-13588893D01*
X-13756747Y-13608599D01*
X-13773223Y-13626777D01*
X-13791401Y-13643253D01*
X-13811107Y-13657868D01*
X-13832150Y-13670480D01*
X-13854329Y-13680970D01*
X-13877428Y-13689235D01*
X-13901227Y-13695196D01*
X-13925495Y-13698796D01*
X-13949999Y-13700000D01*
X-14600001Y-13700000D01*
X-14624505Y-13698796D01*
X-14648773Y-13695196D01*
X-14672572Y-13689235D01*
X-14695671Y-13680970D01*
X-14717850Y-13670480D01*
X-14738893Y-13657868D01*
X-14758599Y-13643253D01*
X-14776777Y-13626777D01*
X-14793253Y-13608599D01*
X-14807868Y-13588893D01*
X-14820480Y-13567850D01*
X-14830970Y-13545671D01*
X-14839235Y-13522572D01*
X-14845196Y-13498773D01*
X-14848796Y-13474505D01*
X-14850000Y-13450001D01*
X-14850000Y-12549999D01*
X-14848796Y-12525495D01*
X-14845196Y-12501227D01*
X-14839235Y-12477428D01*
X-14830970Y-12454329D01*
X-14820480Y-12432150D01*
X-14807868Y-12411107D01*
X-14793253Y-12391401D01*
X-14776777Y-12373223D01*
X-14758599Y-12356747D01*
X-14738893Y-12342132D01*
X-14717850Y-12329520D01*
X-14695671Y-12319030D01*
X-14672572Y-12310765D01*
X-14648773Y-12304804D01*
X-14624505Y-12301204D01*
X-14600001Y-12300000D01*
X-13949999Y-12300000D01*
X-13925495Y-12301204D01*
X-13925495Y-12301204D01*
G37*
D18*
X-14275000Y-13000000D03*
G04 #@! TD*
D11*
G04 #@! TO.C,C19*
G36*
X-7989221Y-18226144D02*
X-7966166Y-18229563D01*
X-7943557Y-18235227D01*
X-7921613Y-18243079D01*
X-7900543Y-18253044D01*
X-7880552Y-18265026D01*
X-7861832Y-18278910D01*
X-7844562Y-18294562D01*
X-7828910Y-18311832D01*
X-7815026Y-18330552D01*
X-7803044Y-18350543D01*
X-7793079Y-18371613D01*
X-7785227Y-18393557D01*
X-7779563Y-18416166D01*
X-7776144Y-18439221D01*
X-7775000Y-18462500D01*
X-7775000Y-19037500D01*
X-7776144Y-19060779D01*
X-7779563Y-19083834D01*
X-7785227Y-19106443D01*
X-7793079Y-19128387D01*
X-7803044Y-19149457D01*
X-7815026Y-19169448D01*
X-7828910Y-19188168D01*
X-7844562Y-19205438D01*
X-7861832Y-19221090D01*
X-7880552Y-19234974D01*
X-7900543Y-19246956D01*
X-7921613Y-19256921D01*
X-7943557Y-19264773D01*
X-7966166Y-19270437D01*
X-7989221Y-19273856D01*
X-8012500Y-19275000D01*
X-8487500Y-19275000D01*
X-8510779Y-19273856D01*
X-8533834Y-19270437D01*
X-8556443Y-19264773D01*
X-8578387Y-19256921D01*
X-8599457Y-19246956D01*
X-8619448Y-19234974D01*
X-8638168Y-19221090D01*
X-8655438Y-19205438D01*
X-8671090Y-19188168D01*
X-8684974Y-19169448D01*
X-8696956Y-19149457D01*
X-8706921Y-19128387D01*
X-8714773Y-19106443D01*
X-8720437Y-19083834D01*
X-8723856Y-19060779D01*
X-8725000Y-19037500D01*
X-8725000Y-18462500D01*
X-8723856Y-18439221D01*
X-8720437Y-18416166D01*
X-8714773Y-18393557D01*
X-8706921Y-18371613D01*
X-8696956Y-18350543D01*
X-8684974Y-18330552D01*
X-8671090Y-18311832D01*
X-8655438Y-18294562D01*
X-8638168Y-18278910D01*
X-8619448Y-18265026D01*
X-8599457Y-18253044D01*
X-8578387Y-18243079D01*
X-8556443Y-18235227D01*
X-8533834Y-18229563D01*
X-8510779Y-18226144D01*
X-8487500Y-18225000D01*
X-8012500Y-18225000D01*
X-7989221Y-18226144D01*
X-7989221Y-18226144D01*
G37*
D13*
X-8250000Y-18750000D03*
D11*
G36*
X-7989221Y-19976144D02*
X-7966166Y-19979563D01*
X-7943557Y-19985227D01*
X-7921613Y-19993079D01*
X-7900543Y-20003044D01*
X-7880552Y-20015026D01*
X-7861832Y-20028910D01*
X-7844562Y-20044562D01*
X-7828910Y-20061832D01*
X-7815026Y-20080552D01*
X-7803044Y-20100543D01*
X-7793079Y-20121613D01*
X-7785227Y-20143557D01*
X-7779563Y-20166166D01*
X-7776144Y-20189221D01*
X-7775000Y-20212500D01*
X-7775000Y-20787500D01*
X-7776144Y-20810779D01*
X-7779563Y-20833834D01*
X-7785227Y-20856443D01*
X-7793079Y-20878387D01*
X-7803044Y-20899457D01*
X-7815026Y-20919448D01*
X-7828910Y-20938168D01*
X-7844562Y-20955438D01*
X-7861832Y-20971090D01*
X-7880552Y-20984974D01*
X-7900543Y-20996956D01*
X-7921613Y-21006921D01*
X-7943557Y-21014773D01*
X-7966166Y-21020437D01*
X-7989221Y-21023856D01*
X-8012500Y-21025000D01*
X-8487500Y-21025000D01*
X-8510779Y-21023856D01*
X-8533834Y-21020437D01*
X-8556443Y-21014773D01*
X-8578387Y-21006921D01*
X-8599457Y-20996956D01*
X-8619448Y-20984974D01*
X-8638168Y-20971090D01*
X-8655438Y-20955438D01*
X-8671090Y-20938168D01*
X-8684974Y-20919448D01*
X-8696956Y-20899457D01*
X-8706921Y-20878387D01*
X-8714773Y-20856443D01*
X-8720437Y-20833834D01*
X-8723856Y-20810779D01*
X-8725000Y-20787500D01*
X-8725000Y-20212500D01*
X-8723856Y-20189221D01*
X-8720437Y-20166166D01*
X-8714773Y-20143557D01*
X-8706921Y-20121613D01*
X-8696956Y-20100543D01*
X-8684974Y-20080552D01*
X-8671090Y-20061832D01*
X-8655438Y-20044562D01*
X-8638168Y-20028910D01*
X-8619448Y-20015026D01*
X-8599457Y-20003044D01*
X-8578387Y-19993079D01*
X-8556443Y-19985227D01*
X-8533834Y-19979563D01*
X-8510779Y-19976144D01*
X-8487500Y-19975000D01*
X-8012500Y-19975000D01*
X-7989221Y-19976144D01*
X-7989221Y-19976144D01*
G37*
D13*
X-8250000Y-20500000D03*
G04 #@! TD*
D11*
G04 #@! TO.C,C20*
G36*
X-4064221Y-24526144D02*
X-4041166Y-24529563D01*
X-4018557Y-24535227D01*
X-3996613Y-24543079D01*
X-3975543Y-24553044D01*
X-3955552Y-24565026D01*
X-3936832Y-24578910D01*
X-3919562Y-24594562D01*
X-3903910Y-24611832D01*
X-3890026Y-24630552D01*
X-3878044Y-24650543D01*
X-3868079Y-24671613D01*
X-3860227Y-24693557D01*
X-3854563Y-24716166D01*
X-3851144Y-24739221D01*
X-3850000Y-24762500D01*
X-3850000Y-25237500D01*
X-3851144Y-25260779D01*
X-3854563Y-25283834D01*
X-3860227Y-25306443D01*
X-3868079Y-25328387D01*
X-3878044Y-25349457D01*
X-3890026Y-25369448D01*
X-3903910Y-25388168D01*
X-3919562Y-25405438D01*
X-3936832Y-25421090D01*
X-3955552Y-25434974D01*
X-3975543Y-25446956D01*
X-3996613Y-25456921D01*
X-4018557Y-25464773D01*
X-4041166Y-25470437D01*
X-4064221Y-25473856D01*
X-4087500Y-25475000D01*
X-4662500Y-25475000D01*
X-4685779Y-25473856D01*
X-4708834Y-25470437D01*
X-4731443Y-25464773D01*
X-4753387Y-25456921D01*
X-4774457Y-25446956D01*
X-4794448Y-25434974D01*
X-4813168Y-25421090D01*
X-4830438Y-25405438D01*
X-4846090Y-25388168D01*
X-4859974Y-25369448D01*
X-4871956Y-25349457D01*
X-4881921Y-25328387D01*
X-4889773Y-25306443D01*
X-4895437Y-25283834D01*
X-4898856Y-25260779D01*
X-4900000Y-25237500D01*
X-4900000Y-24762500D01*
X-4898856Y-24739221D01*
X-4895437Y-24716166D01*
X-4889773Y-24693557D01*
X-4881921Y-24671613D01*
X-4871956Y-24650543D01*
X-4859974Y-24630552D01*
X-4846090Y-24611832D01*
X-4830438Y-24594562D01*
X-4813168Y-24578910D01*
X-4794448Y-24565026D01*
X-4774457Y-24553044D01*
X-4753387Y-24543079D01*
X-4731443Y-24535227D01*
X-4708834Y-24529563D01*
X-4685779Y-24526144D01*
X-4662500Y-24525000D01*
X-4087500Y-24525000D01*
X-4064221Y-24526144D01*
X-4064221Y-24526144D01*
G37*
D13*
X-4375000Y-25000000D03*
D11*
G36*
X-5814221Y-24526144D02*
X-5791166Y-24529563D01*
X-5768557Y-24535227D01*
X-5746613Y-24543079D01*
X-5725543Y-24553044D01*
X-5705552Y-24565026D01*
X-5686832Y-24578910D01*
X-5669562Y-24594562D01*
X-5653910Y-24611832D01*
X-5640026Y-24630552D01*
X-5628044Y-24650543D01*
X-5618079Y-24671613D01*
X-5610227Y-24693557D01*
X-5604563Y-24716166D01*
X-5601144Y-24739221D01*
X-5600000Y-24762500D01*
X-5600000Y-25237500D01*
X-5601144Y-25260779D01*
X-5604563Y-25283834D01*
X-5610227Y-25306443D01*
X-5618079Y-25328387D01*
X-5628044Y-25349457D01*
X-5640026Y-25369448D01*
X-5653910Y-25388168D01*
X-5669562Y-25405438D01*
X-5686832Y-25421090D01*
X-5705552Y-25434974D01*
X-5725543Y-25446956D01*
X-5746613Y-25456921D01*
X-5768557Y-25464773D01*
X-5791166Y-25470437D01*
X-5814221Y-25473856D01*
X-5837500Y-25475000D01*
X-6412500Y-25475000D01*
X-6435779Y-25473856D01*
X-6458834Y-25470437D01*
X-6481443Y-25464773D01*
X-6503387Y-25456921D01*
X-6524457Y-25446956D01*
X-6544448Y-25434974D01*
X-6563168Y-25421090D01*
X-6580438Y-25405438D01*
X-6596090Y-25388168D01*
X-6609974Y-25369448D01*
X-6621956Y-25349457D01*
X-6631921Y-25328387D01*
X-6639773Y-25306443D01*
X-6645437Y-25283834D01*
X-6648856Y-25260779D01*
X-6650000Y-25237500D01*
X-6650000Y-24762500D01*
X-6648856Y-24739221D01*
X-6645437Y-24716166D01*
X-6639773Y-24693557D01*
X-6631921Y-24671613D01*
X-6621956Y-24650543D01*
X-6609974Y-24630552D01*
X-6596090Y-24611832D01*
X-6580438Y-24594562D01*
X-6563168Y-24578910D01*
X-6544448Y-24565026D01*
X-6524457Y-24553044D01*
X-6503387Y-24543079D01*
X-6481443Y-24535227D01*
X-6458834Y-24529563D01*
X-6435779Y-24526144D01*
X-6412500Y-24525000D01*
X-5837500Y-24525000D01*
X-5814221Y-24526144D01*
X-5814221Y-24526144D01*
G37*
D13*
X-6125000Y-25000000D03*
G04 #@! TD*
D11*
G04 #@! TO.C,C21*
G36*
X-4064221Y-22526144D02*
X-4041166Y-22529563D01*
X-4018557Y-22535227D01*
X-3996613Y-22543079D01*
X-3975543Y-22553044D01*
X-3955552Y-22565026D01*
X-3936832Y-22578910D01*
X-3919562Y-22594562D01*
X-3903910Y-22611832D01*
X-3890026Y-22630552D01*
X-3878044Y-22650543D01*
X-3868079Y-22671613D01*
X-3860227Y-22693557D01*
X-3854563Y-22716166D01*
X-3851144Y-22739221D01*
X-3850000Y-22762500D01*
X-3850000Y-23237500D01*
X-3851144Y-23260779D01*
X-3854563Y-23283834D01*
X-3860227Y-23306443D01*
X-3868079Y-23328387D01*
X-3878044Y-23349457D01*
X-3890026Y-23369448D01*
X-3903910Y-23388168D01*
X-3919562Y-23405438D01*
X-3936832Y-23421090D01*
X-3955552Y-23434974D01*
X-3975543Y-23446956D01*
X-3996613Y-23456921D01*
X-4018557Y-23464773D01*
X-4041166Y-23470437D01*
X-4064221Y-23473856D01*
X-4087500Y-23475000D01*
X-4662500Y-23475000D01*
X-4685779Y-23473856D01*
X-4708834Y-23470437D01*
X-4731443Y-23464773D01*
X-4753387Y-23456921D01*
X-4774457Y-23446956D01*
X-4794448Y-23434974D01*
X-4813168Y-23421090D01*
X-4830438Y-23405438D01*
X-4846090Y-23388168D01*
X-4859974Y-23369448D01*
X-4871956Y-23349457D01*
X-4881921Y-23328387D01*
X-4889773Y-23306443D01*
X-4895437Y-23283834D01*
X-4898856Y-23260779D01*
X-4900000Y-23237500D01*
X-4900000Y-22762500D01*
X-4898856Y-22739221D01*
X-4895437Y-22716166D01*
X-4889773Y-22693557D01*
X-4881921Y-22671613D01*
X-4871956Y-22650543D01*
X-4859974Y-22630552D01*
X-4846090Y-22611832D01*
X-4830438Y-22594562D01*
X-4813168Y-22578910D01*
X-4794448Y-22565026D01*
X-4774457Y-22553044D01*
X-4753387Y-22543079D01*
X-4731443Y-22535227D01*
X-4708834Y-22529563D01*
X-4685779Y-22526144D01*
X-4662500Y-22525000D01*
X-4087500Y-22525000D01*
X-4064221Y-22526144D01*
X-4064221Y-22526144D01*
G37*
D13*
X-4375000Y-23000000D03*
D11*
G36*
X-5814221Y-22526144D02*
X-5791166Y-22529563D01*
X-5768557Y-22535227D01*
X-5746613Y-22543079D01*
X-5725543Y-22553044D01*
X-5705552Y-22565026D01*
X-5686832Y-22578910D01*
X-5669562Y-22594562D01*
X-5653910Y-22611832D01*
X-5640026Y-22630552D01*
X-5628044Y-22650543D01*
X-5618079Y-22671613D01*
X-5610227Y-22693557D01*
X-5604563Y-22716166D01*
X-5601144Y-22739221D01*
X-5600000Y-22762500D01*
X-5600000Y-23237500D01*
X-5601144Y-23260779D01*
X-5604563Y-23283834D01*
X-5610227Y-23306443D01*
X-5618079Y-23328387D01*
X-5628044Y-23349457D01*
X-5640026Y-23369448D01*
X-5653910Y-23388168D01*
X-5669562Y-23405438D01*
X-5686832Y-23421090D01*
X-5705552Y-23434974D01*
X-5725543Y-23446956D01*
X-5746613Y-23456921D01*
X-5768557Y-23464773D01*
X-5791166Y-23470437D01*
X-5814221Y-23473856D01*
X-5837500Y-23475000D01*
X-6412500Y-23475000D01*
X-6435779Y-23473856D01*
X-6458834Y-23470437D01*
X-6481443Y-23464773D01*
X-6503387Y-23456921D01*
X-6524457Y-23446956D01*
X-6544448Y-23434974D01*
X-6563168Y-23421090D01*
X-6580438Y-23405438D01*
X-6596090Y-23388168D01*
X-6609974Y-23369448D01*
X-6621956Y-23349457D01*
X-6631921Y-23328387D01*
X-6639773Y-23306443D01*
X-6645437Y-23283834D01*
X-6648856Y-23260779D01*
X-6650000Y-23237500D01*
X-6650000Y-22762500D01*
X-6648856Y-22739221D01*
X-6645437Y-22716166D01*
X-6639773Y-22693557D01*
X-6631921Y-22671613D01*
X-6621956Y-22650543D01*
X-6609974Y-22630552D01*
X-6596090Y-22611832D01*
X-6580438Y-22594562D01*
X-6563168Y-22578910D01*
X-6544448Y-22565026D01*
X-6524457Y-22553044D01*
X-6503387Y-22543079D01*
X-6481443Y-22535227D01*
X-6458834Y-22529563D01*
X-6435779Y-22526144D01*
X-6412500Y-22525000D01*
X-5837500Y-22525000D01*
X-5814221Y-22526144D01*
X-5814221Y-22526144D01*
G37*
D13*
X-6125000Y-23000000D03*
G04 #@! TD*
D11*
G04 #@! TO.C,C22*
G36*
X16185779Y-1026144D02*
X16208834Y-1029563D01*
X16231443Y-1035227D01*
X16253387Y-1043079D01*
X16274457Y-1053044D01*
X16294448Y-1065026D01*
X16313168Y-1078910D01*
X16330438Y-1094562D01*
X16346090Y-1111832D01*
X16359974Y-1130552D01*
X16371956Y-1150543D01*
X16381921Y-1171613D01*
X16389773Y-1193557D01*
X16395437Y-1216166D01*
X16398856Y-1239221D01*
X16400000Y-1262500D01*
X16400000Y-1737500D01*
X16398856Y-1760779D01*
X16395437Y-1783834D01*
X16389773Y-1806443D01*
X16381921Y-1828387D01*
X16371956Y-1849457D01*
X16359974Y-1869448D01*
X16346090Y-1888168D01*
X16330438Y-1905438D01*
X16313168Y-1921090D01*
X16294448Y-1934974D01*
X16274457Y-1946956D01*
X16253387Y-1956921D01*
X16231443Y-1964773D01*
X16208834Y-1970437D01*
X16185779Y-1973856D01*
X16162500Y-1975000D01*
X15587500Y-1975000D01*
X15564221Y-1973856D01*
X15541166Y-1970437D01*
X15518557Y-1964773D01*
X15496613Y-1956921D01*
X15475543Y-1946956D01*
X15455552Y-1934974D01*
X15436832Y-1921090D01*
X15419562Y-1905438D01*
X15403910Y-1888168D01*
X15390026Y-1869448D01*
X15378044Y-1849457D01*
X15368079Y-1828387D01*
X15360227Y-1806443D01*
X15354563Y-1783834D01*
X15351144Y-1760779D01*
X15350000Y-1737500D01*
X15350000Y-1262500D01*
X15351144Y-1239221D01*
X15354563Y-1216166D01*
X15360227Y-1193557D01*
X15368079Y-1171613D01*
X15378044Y-1150543D01*
X15390026Y-1130552D01*
X15403910Y-1111832D01*
X15419562Y-1094562D01*
X15436832Y-1078910D01*
X15455552Y-1065026D01*
X15475543Y-1053044D01*
X15496613Y-1043079D01*
X15518557Y-1035227D01*
X15541166Y-1029563D01*
X15564221Y-1026144D01*
X15587500Y-1025000D01*
X16162500Y-1025000D01*
X16185779Y-1026144D01*
X16185779Y-1026144D01*
G37*
D13*
X15875000Y-1500000D03*
D11*
G36*
X17935779Y-1026144D02*
X17958834Y-1029563D01*
X17981443Y-1035227D01*
X18003387Y-1043079D01*
X18024457Y-1053044D01*
X18044448Y-1065026D01*
X18063168Y-1078910D01*
X18080438Y-1094562D01*
X18096090Y-1111832D01*
X18109974Y-1130552D01*
X18121956Y-1150543D01*
X18131921Y-1171613D01*
X18139773Y-1193557D01*
X18145437Y-1216166D01*
X18148856Y-1239221D01*
X18150000Y-1262500D01*
X18150000Y-1737500D01*
X18148856Y-1760779D01*
X18145437Y-1783834D01*
X18139773Y-1806443D01*
X18131921Y-1828387D01*
X18121956Y-1849457D01*
X18109974Y-1869448D01*
X18096090Y-1888168D01*
X18080438Y-1905438D01*
X18063168Y-1921090D01*
X18044448Y-1934974D01*
X18024457Y-1946956D01*
X18003387Y-1956921D01*
X17981443Y-1964773D01*
X17958834Y-1970437D01*
X17935779Y-1973856D01*
X17912500Y-1975000D01*
X17337500Y-1975000D01*
X17314221Y-1973856D01*
X17291166Y-1970437D01*
X17268557Y-1964773D01*
X17246613Y-1956921D01*
X17225543Y-1946956D01*
X17205552Y-1934974D01*
X17186832Y-1921090D01*
X17169562Y-1905438D01*
X17153910Y-1888168D01*
X17140026Y-1869448D01*
X17128044Y-1849457D01*
X17118079Y-1828387D01*
X17110227Y-1806443D01*
X17104563Y-1783834D01*
X17101144Y-1760779D01*
X17100000Y-1737500D01*
X17100000Y-1262500D01*
X17101144Y-1239221D01*
X17104563Y-1216166D01*
X17110227Y-1193557D01*
X17118079Y-1171613D01*
X17128044Y-1150543D01*
X17140026Y-1130552D01*
X17153910Y-1111832D01*
X17169562Y-1094562D01*
X17186832Y-1078910D01*
X17205552Y-1065026D01*
X17225543Y-1053044D01*
X17246613Y-1043079D01*
X17268557Y-1035227D01*
X17291166Y-1029563D01*
X17314221Y-1026144D01*
X17337500Y-1025000D01*
X17912500Y-1025000D01*
X17935779Y-1026144D01*
X17935779Y-1026144D01*
G37*
D13*
X17625000Y-1500000D03*
G04 #@! TD*
D11*
G04 #@! TO.C,C23*
G36*
X16185779Y723856D02*
X16208834Y720437D01*
X16231443Y714773D01*
X16253387Y706921D01*
X16274457Y696956D01*
X16294448Y684974D01*
X16313168Y671090D01*
X16330438Y655438D01*
X16346090Y638168D01*
X16359974Y619448D01*
X16371956Y599457D01*
X16381921Y578387D01*
X16389773Y556443D01*
X16395437Y533834D01*
X16398856Y510779D01*
X16400000Y487500D01*
X16400000Y12500D01*
X16398856Y-10779D01*
X16395437Y-33834D01*
X16389773Y-56443D01*
X16381921Y-78387D01*
X16371956Y-99457D01*
X16359974Y-119448D01*
X16346090Y-138168D01*
X16330438Y-155438D01*
X16313168Y-171090D01*
X16294448Y-184974D01*
X16274457Y-196956D01*
X16253387Y-206921D01*
X16231443Y-214773D01*
X16208834Y-220437D01*
X16185779Y-223856D01*
X16162500Y-225000D01*
X15587500Y-225000D01*
X15564221Y-223856D01*
X15541166Y-220437D01*
X15518557Y-214773D01*
X15496613Y-206921D01*
X15475543Y-196956D01*
X15455552Y-184974D01*
X15436832Y-171090D01*
X15419562Y-155438D01*
X15403910Y-138168D01*
X15390026Y-119448D01*
X15378044Y-99457D01*
X15368079Y-78387D01*
X15360227Y-56443D01*
X15354563Y-33834D01*
X15351144Y-10779D01*
X15350000Y12500D01*
X15350000Y487500D01*
X15351144Y510779D01*
X15354563Y533834D01*
X15360227Y556443D01*
X15368079Y578387D01*
X15378044Y599457D01*
X15390026Y619448D01*
X15403910Y638168D01*
X15419562Y655438D01*
X15436832Y671090D01*
X15455552Y684974D01*
X15475543Y696956D01*
X15496613Y706921D01*
X15518557Y714773D01*
X15541166Y720437D01*
X15564221Y723856D01*
X15587500Y725000D01*
X16162500Y725000D01*
X16185779Y723856D01*
X16185779Y723856D01*
G37*
D13*
X15875000Y250000D03*
D11*
G36*
X17935779Y723856D02*
X17958834Y720437D01*
X17981443Y714773D01*
X18003387Y706921D01*
X18024457Y696956D01*
X18044448Y684974D01*
X18063168Y671090D01*
X18080438Y655438D01*
X18096090Y638168D01*
X18109974Y619448D01*
X18121956Y599457D01*
X18131921Y578387D01*
X18139773Y556443D01*
X18145437Y533834D01*
X18148856Y510779D01*
X18150000Y487500D01*
X18150000Y12500D01*
X18148856Y-10779D01*
X18145437Y-33834D01*
X18139773Y-56443D01*
X18131921Y-78387D01*
X18121956Y-99457D01*
X18109974Y-119448D01*
X18096090Y-138168D01*
X18080438Y-155438D01*
X18063168Y-171090D01*
X18044448Y-184974D01*
X18024457Y-196956D01*
X18003387Y-206921D01*
X17981443Y-214773D01*
X17958834Y-220437D01*
X17935779Y-223856D01*
X17912500Y-225000D01*
X17337500Y-225000D01*
X17314221Y-223856D01*
X17291166Y-220437D01*
X17268557Y-214773D01*
X17246613Y-206921D01*
X17225543Y-196956D01*
X17205552Y-184974D01*
X17186832Y-171090D01*
X17169562Y-155438D01*
X17153910Y-138168D01*
X17140026Y-119448D01*
X17128044Y-99457D01*
X17118079Y-78387D01*
X17110227Y-56443D01*
X17104563Y-33834D01*
X17101144Y-10779D01*
X17100000Y12500D01*
X17100000Y487500D01*
X17101144Y510779D01*
X17104563Y533834D01*
X17110227Y556443D01*
X17118079Y578387D01*
X17128044Y599457D01*
X17140026Y619448D01*
X17153910Y638168D01*
X17169562Y655438D01*
X17186832Y671090D01*
X17205552Y684974D01*
X17225543Y696956D01*
X17246613Y706921D01*
X17268557Y714773D01*
X17291166Y720437D01*
X17314221Y723856D01*
X17337500Y725000D01*
X17912500Y725000D01*
X17935779Y723856D01*
X17935779Y723856D01*
G37*
D13*
X17625000Y250000D03*
G04 #@! TD*
D11*
G04 #@! TO.C,C24*
G36*
X17935779Y6223856D02*
X17958834Y6220437D01*
X17981443Y6214773D01*
X18003387Y6206921D01*
X18024457Y6196956D01*
X18044448Y6184974D01*
X18063168Y6171090D01*
X18080438Y6155438D01*
X18096090Y6138168D01*
X18109974Y6119448D01*
X18121956Y6099457D01*
X18131921Y6078387D01*
X18139773Y6056443D01*
X18145437Y6033834D01*
X18148856Y6010779D01*
X18150000Y5987500D01*
X18150000Y5512500D01*
X18148856Y5489221D01*
X18145437Y5466166D01*
X18139773Y5443557D01*
X18131921Y5421613D01*
X18121956Y5400543D01*
X18109974Y5380552D01*
X18096090Y5361832D01*
X18080438Y5344562D01*
X18063168Y5328910D01*
X18044448Y5315026D01*
X18024457Y5303044D01*
X18003387Y5293079D01*
X17981443Y5285227D01*
X17958834Y5279563D01*
X17935779Y5276144D01*
X17912500Y5275000D01*
X17337500Y5275000D01*
X17314221Y5276144D01*
X17291166Y5279563D01*
X17268557Y5285227D01*
X17246613Y5293079D01*
X17225543Y5303044D01*
X17205552Y5315026D01*
X17186832Y5328910D01*
X17169562Y5344562D01*
X17153910Y5361832D01*
X17140026Y5380552D01*
X17128044Y5400543D01*
X17118079Y5421613D01*
X17110227Y5443557D01*
X17104563Y5466166D01*
X17101144Y5489221D01*
X17100000Y5512500D01*
X17100000Y5987500D01*
X17101144Y6010779D01*
X17104563Y6033834D01*
X17110227Y6056443D01*
X17118079Y6078387D01*
X17128044Y6099457D01*
X17140026Y6119448D01*
X17153910Y6138168D01*
X17169562Y6155438D01*
X17186832Y6171090D01*
X17205552Y6184974D01*
X17225543Y6196956D01*
X17246613Y6206921D01*
X17268557Y6214773D01*
X17291166Y6220437D01*
X17314221Y6223856D01*
X17337500Y6225000D01*
X17912500Y6225000D01*
X17935779Y6223856D01*
X17935779Y6223856D01*
G37*
D13*
X17625000Y5750000D03*
D11*
G36*
X16185779Y6223856D02*
X16208834Y6220437D01*
X16231443Y6214773D01*
X16253387Y6206921D01*
X16274457Y6196956D01*
X16294448Y6184974D01*
X16313168Y6171090D01*
X16330438Y6155438D01*
X16346090Y6138168D01*
X16359974Y6119448D01*
X16371956Y6099457D01*
X16381921Y6078387D01*
X16389773Y6056443D01*
X16395437Y6033834D01*
X16398856Y6010779D01*
X16400000Y5987500D01*
X16400000Y5512500D01*
X16398856Y5489221D01*
X16395437Y5466166D01*
X16389773Y5443557D01*
X16381921Y5421613D01*
X16371956Y5400543D01*
X16359974Y5380552D01*
X16346090Y5361832D01*
X16330438Y5344562D01*
X16313168Y5328910D01*
X16294448Y5315026D01*
X16274457Y5303044D01*
X16253387Y5293079D01*
X16231443Y5285227D01*
X16208834Y5279563D01*
X16185779Y5276144D01*
X16162500Y5275000D01*
X15587500Y5275000D01*
X15564221Y5276144D01*
X15541166Y5279563D01*
X15518557Y5285227D01*
X15496613Y5293079D01*
X15475543Y5303044D01*
X15455552Y5315026D01*
X15436832Y5328910D01*
X15419562Y5344562D01*
X15403910Y5361832D01*
X15390026Y5380552D01*
X15378044Y5400543D01*
X15368079Y5421613D01*
X15360227Y5443557D01*
X15354563Y5466166D01*
X15351144Y5489221D01*
X15350000Y5512500D01*
X15350000Y5987500D01*
X15351144Y6010779D01*
X15354563Y6033834D01*
X15360227Y6056443D01*
X15368079Y6078387D01*
X15378044Y6099457D01*
X15390026Y6119448D01*
X15403910Y6138168D01*
X15419562Y6155438D01*
X15436832Y6171090D01*
X15455552Y6184974D01*
X15475543Y6196956D01*
X15496613Y6206921D01*
X15518557Y6214773D01*
X15541166Y6220437D01*
X15564221Y6223856D01*
X15587500Y6225000D01*
X16162500Y6225000D01*
X16185779Y6223856D01*
X16185779Y6223856D01*
G37*
D13*
X15875000Y5750000D03*
G04 #@! TD*
D11*
G04 #@! TO.C,C25*
G36*
X10260779Y-6351144D02*
X10283834Y-6354563D01*
X10306443Y-6360227D01*
X10328387Y-6368079D01*
X10349457Y-6378044D01*
X10369448Y-6390026D01*
X10388168Y-6403910D01*
X10405438Y-6419562D01*
X10421090Y-6436832D01*
X10434974Y-6455552D01*
X10446956Y-6475543D01*
X10456921Y-6496613D01*
X10464773Y-6518557D01*
X10470437Y-6541166D01*
X10473856Y-6564221D01*
X10475000Y-6587500D01*
X10475000Y-7162500D01*
X10473856Y-7185779D01*
X10470437Y-7208834D01*
X10464773Y-7231443D01*
X10456921Y-7253387D01*
X10446956Y-7274457D01*
X10434974Y-7294448D01*
X10421090Y-7313168D01*
X10405438Y-7330438D01*
X10388168Y-7346090D01*
X10369448Y-7359974D01*
X10349457Y-7371956D01*
X10328387Y-7381921D01*
X10306443Y-7389773D01*
X10283834Y-7395437D01*
X10260779Y-7398856D01*
X10237500Y-7400000D01*
X9762500Y-7400000D01*
X9739221Y-7398856D01*
X9716166Y-7395437D01*
X9693557Y-7389773D01*
X9671613Y-7381921D01*
X9650543Y-7371956D01*
X9630552Y-7359974D01*
X9611832Y-7346090D01*
X9594562Y-7330438D01*
X9578910Y-7313168D01*
X9565026Y-7294448D01*
X9553044Y-7274457D01*
X9543079Y-7253387D01*
X9535227Y-7231443D01*
X9529563Y-7208834D01*
X9526144Y-7185779D01*
X9525000Y-7162500D01*
X9525000Y-6587500D01*
X9526144Y-6564221D01*
X9529563Y-6541166D01*
X9535227Y-6518557D01*
X9543079Y-6496613D01*
X9553044Y-6475543D01*
X9565026Y-6455552D01*
X9578910Y-6436832D01*
X9594562Y-6419562D01*
X9611832Y-6403910D01*
X9630552Y-6390026D01*
X9650543Y-6378044D01*
X9671613Y-6368079D01*
X9693557Y-6360227D01*
X9716166Y-6354563D01*
X9739221Y-6351144D01*
X9762500Y-6350000D01*
X10237500Y-6350000D01*
X10260779Y-6351144D01*
X10260779Y-6351144D01*
G37*
D13*
X10000000Y-6875000D03*
D11*
G36*
X10260779Y-8101144D02*
X10283834Y-8104563D01*
X10306443Y-8110227D01*
X10328387Y-8118079D01*
X10349457Y-8128044D01*
X10369448Y-8140026D01*
X10388168Y-8153910D01*
X10405438Y-8169562D01*
X10421090Y-8186832D01*
X10434974Y-8205552D01*
X10446956Y-8225543D01*
X10456921Y-8246613D01*
X10464773Y-8268557D01*
X10470437Y-8291166D01*
X10473856Y-8314221D01*
X10475000Y-8337500D01*
X10475000Y-8912500D01*
X10473856Y-8935779D01*
X10470437Y-8958834D01*
X10464773Y-8981443D01*
X10456921Y-9003387D01*
X10446956Y-9024457D01*
X10434974Y-9044448D01*
X10421090Y-9063168D01*
X10405438Y-9080438D01*
X10388168Y-9096090D01*
X10369448Y-9109974D01*
X10349457Y-9121956D01*
X10328387Y-9131921D01*
X10306443Y-9139773D01*
X10283834Y-9145437D01*
X10260779Y-9148856D01*
X10237500Y-9150000D01*
X9762500Y-9150000D01*
X9739221Y-9148856D01*
X9716166Y-9145437D01*
X9693557Y-9139773D01*
X9671613Y-9131921D01*
X9650543Y-9121956D01*
X9630552Y-9109974D01*
X9611832Y-9096090D01*
X9594562Y-9080438D01*
X9578910Y-9063168D01*
X9565026Y-9044448D01*
X9553044Y-9024457D01*
X9543079Y-9003387D01*
X9535227Y-8981443D01*
X9529563Y-8958834D01*
X9526144Y-8935779D01*
X9525000Y-8912500D01*
X9525000Y-8337500D01*
X9526144Y-8314221D01*
X9529563Y-8291166D01*
X9535227Y-8268557D01*
X9543079Y-8246613D01*
X9553044Y-8225543D01*
X9565026Y-8205552D01*
X9578910Y-8186832D01*
X9594562Y-8169562D01*
X9611832Y-8153910D01*
X9630552Y-8140026D01*
X9650543Y-8128044D01*
X9671613Y-8118079D01*
X9693557Y-8110227D01*
X9716166Y-8104563D01*
X9739221Y-8101144D01*
X9762500Y-8100000D01*
X10237500Y-8100000D01*
X10260779Y-8101144D01*
X10260779Y-8101144D01*
G37*
D13*
X10000000Y-8625000D03*
G04 #@! TD*
D11*
G04 #@! TO.C,C26*
G36*
X9510779Y-101144D02*
X9533834Y-104563D01*
X9556443Y-110227D01*
X9578387Y-118079D01*
X9599457Y-128044D01*
X9619448Y-140026D01*
X9638168Y-153910D01*
X9655438Y-169562D01*
X9671090Y-186832D01*
X9684974Y-205552D01*
X9696956Y-225543D01*
X9706921Y-246613D01*
X9714773Y-268557D01*
X9720437Y-291166D01*
X9723856Y-314221D01*
X9725000Y-337500D01*
X9725000Y-912500D01*
X9723856Y-935779D01*
X9720437Y-958834D01*
X9714773Y-981443D01*
X9706921Y-1003387D01*
X9696956Y-1024457D01*
X9684974Y-1044448D01*
X9671090Y-1063168D01*
X9655438Y-1080438D01*
X9638168Y-1096090D01*
X9619448Y-1109974D01*
X9599457Y-1121956D01*
X9578387Y-1131921D01*
X9556443Y-1139773D01*
X9533834Y-1145437D01*
X9510779Y-1148856D01*
X9487500Y-1150000D01*
X9012500Y-1150000D01*
X8989221Y-1148856D01*
X8966166Y-1145437D01*
X8943557Y-1139773D01*
X8921613Y-1131921D01*
X8900543Y-1121956D01*
X8880552Y-1109974D01*
X8861832Y-1096090D01*
X8844562Y-1080438D01*
X8828910Y-1063168D01*
X8815026Y-1044448D01*
X8803044Y-1024457D01*
X8793079Y-1003387D01*
X8785227Y-981443D01*
X8779563Y-958834D01*
X8776144Y-935779D01*
X8775000Y-912500D01*
X8775000Y-337500D01*
X8776144Y-314221D01*
X8779563Y-291166D01*
X8785227Y-268557D01*
X8793079Y-246613D01*
X8803044Y-225543D01*
X8815026Y-205552D01*
X8828910Y-186832D01*
X8844562Y-169562D01*
X8861832Y-153910D01*
X8880552Y-140026D01*
X8900543Y-128044D01*
X8921613Y-118079D01*
X8943557Y-110227D01*
X8966166Y-104563D01*
X8989221Y-101144D01*
X9012500Y-100000D01*
X9487500Y-100000D01*
X9510779Y-101144D01*
X9510779Y-101144D01*
G37*
D13*
X9250000Y-625000D03*
D11*
G36*
X9510779Y-1851144D02*
X9533834Y-1854563D01*
X9556443Y-1860227D01*
X9578387Y-1868079D01*
X9599457Y-1878044D01*
X9619448Y-1890026D01*
X9638168Y-1903910D01*
X9655438Y-1919562D01*
X9671090Y-1936832D01*
X9684974Y-1955552D01*
X9696956Y-1975543D01*
X9706921Y-1996613D01*
X9714773Y-2018557D01*
X9720437Y-2041166D01*
X9723856Y-2064221D01*
X9725000Y-2087500D01*
X9725000Y-2662500D01*
X9723856Y-2685779D01*
X9720437Y-2708834D01*
X9714773Y-2731443D01*
X9706921Y-2753387D01*
X9696956Y-2774457D01*
X9684974Y-2794448D01*
X9671090Y-2813168D01*
X9655438Y-2830438D01*
X9638168Y-2846090D01*
X9619448Y-2859974D01*
X9599457Y-2871956D01*
X9578387Y-2881921D01*
X9556443Y-2889773D01*
X9533834Y-2895437D01*
X9510779Y-2898856D01*
X9487500Y-2900000D01*
X9012500Y-2900000D01*
X8989221Y-2898856D01*
X8966166Y-2895437D01*
X8943557Y-2889773D01*
X8921613Y-2881921D01*
X8900543Y-2871956D01*
X8880552Y-2859974D01*
X8861832Y-2846090D01*
X8844562Y-2830438D01*
X8828910Y-2813168D01*
X8815026Y-2794448D01*
X8803044Y-2774457D01*
X8793079Y-2753387D01*
X8785227Y-2731443D01*
X8779563Y-2708834D01*
X8776144Y-2685779D01*
X8775000Y-2662500D01*
X8775000Y-2087500D01*
X8776144Y-2064221D01*
X8779563Y-2041166D01*
X8785227Y-2018557D01*
X8793079Y-1996613D01*
X8803044Y-1975543D01*
X8815026Y-1955552D01*
X8828910Y-1936832D01*
X8844562Y-1919562D01*
X8861832Y-1903910D01*
X8880552Y-1890026D01*
X8900543Y-1878044D01*
X8921613Y-1868079D01*
X8943557Y-1860227D01*
X8966166Y-1854563D01*
X8989221Y-1851144D01*
X9012500Y-1850000D01*
X9487500Y-1850000D01*
X9510779Y-1851144D01*
X9510779Y-1851144D01*
G37*
D13*
X9250000Y-2375000D03*
G04 #@! TD*
D11*
G04 #@! TO.C,C27*
G36*
X6260779Y-4601144D02*
X6283834Y-4604563D01*
X6306443Y-4610227D01*
X6328387Y-4618079D01*
X6349457Y-4628044D01*
X6369448Y-4640026D01*
X6388168Y-4653910D01*
X6405438Y-4669562D01*
X6421090Y-4686832D01*
X6434974Y-4705552D01*
X6446956Y-4725543D01*
X6456921Y-4746613D01*
X6464773Y-4768557D01*
X6470437Y-4791166D01*
X6473856Y-4814221D01*
X6475000Y-4837500D01*
X6475000Y-5412500D01*
X6473856Y-5435779D01*
X6470437Y-5458834D01*
X6464773Y-5481443D01*
X6456921Y-5503387D01*
X6446956Y-5524457D01*
X6434974Y-5544448D01*
X6421090Y-5563168D01*
X6405438Y-5580438D01*
X6388168Y-5596090D01*
X6369448Y-5609974D01*
X6349457Y-5621956D01*
X6328387Y-5631921D01*
X6306443Y-5639773D01*
X6283834Y-5645437D01*
X6260779Y-5648856D01*
X6237500Y-5650000D01*
X5762500Y-5650000D01*
X5739221Y-5648856D01*
X5716166Y-5645437D01*
X5693557Y-5639773D01*
X5671613Y-5631921D01*
X5650543Y-5621956D01*
X5630552Y-5609974D01*
X5611832Y-5596090D01*
X5594562Y-5580438D01*
X5578910Y-5563168D01*
X5565026Y-5544448D01*
X5553044Y-5524457D01*
X5543079Y-5503387D01*
X5535227Y-5481443D01*
X5529563Y-5458834D01*
X5526144Y-5435779D01*
X5525000Y-5412500D01*
X5525000Y-4837500D01*
X5526144Y-4814221D01*
X5529563Y-4791166D01*
X5535227Y-4768557D01*
X5543079Y-4746613D01*
X5553044Y-4725543D01*
X5565026Y-4705552D01*
X5578910Y-4686832D01*
X5594562Y-4669562D01*
X5611832Y-4653910D01*
X5630552Y-4640026D01*
X5650543Y-4628044D01*
X5671613Y-4618079D01*
X5693557Y-4610227D01*
X5716166Y-4604563D01*
X5739221Y-4601144D01*
X5762500Y-4600000D01*
X6237500Y-4600000D01*
X6260779Y-4601144D01*
X6260779Y-4601144D01*
G37*
D13*
X6000000Y-5125000D03*
D11*
G36*
X6260779Y-2851144D02*
X6283834Y-2854563D01*
X6306443Y-2860227D01*
X6328387Y-2868079D01*
X6349457Y-2878044D01*
X6369448Y-2890026D01*
X6388168Y-2903910D01*
X6405438Y-2919562D01*
X6421090Y-2936832D01*
X6434974Y-2955552D01*
X6446956Y-2975543D01*
X6456921Y-2996613D01*
X6464773Y-3018557D01*
X6470437Y-3041166D01*
X6473856Y-3064221D01*
X6475000Y-3087500D01*
X6475000Y-3662500D01*
X6473856Y-3685779D01*
X6470437Y-3708834D01*
X6464773Y-3731443D01*
X6456921Y-3753387D01*
X6446956Y-3774457D01*
X6434974Y-3794448D01*
X6421090Y-3813168D01*
X6405438Y-3830438D01*
X6388168Y-3846090D01*
X6369448Y-3859974D01*
X6349457Y-3871956D01*
X6328387Y-3881921D01*
X6306443Y-3889773D01*
X6283834Y-3895437D01*
X6260779Y-3898856D01*
X6237500Y-3900000D01*
X5762500Y-3900000D01*
X5739221Y-3898856D01*
X5716166Y-3895437D01*
X5693557Y-3889773D01*
X5671613Y-3881921D01*
X5650543Y-3871956D01*
X5630552Y-3859974D01*
X5611832Y-3846090D01*
X5594562Y-3830438D01*
X5578910Y-3813168D01*
X5565026Y-3794448D01*
X5553044Y-3774457D01*
X5543079Y-3753387D01*
X5535227Y-3731443D01*
X5529563Y-3708834D01*
X5526144Y-3685779D01*
X5525000Y-3662500D01*
X5525000Y-3087500D01*
X5526144Y-3064221D01*
X5529563Y-3041166D01*
X5535227Y-3018557D01*
X5543079Y-2996613D01*
X5553044Y-2975543D01*
X5565026Y-2955552D01*
X5578910Y-2936832D01*
X5594562Y-2919562D01*
X5611832Y-2903910D01*
X5630552Y-2890026D01*
X5650543Y-2878044D01*
X5671613Y-2868079D01*
X5693557Y-2860227D01*
X5716166Y-2854563D01*
X5739221Y-2851144D01*
X5762500Y-2850000D01*
X6237500Y-2850000D01*
X6260779Y-2851144D01*
X6260779Y-2851144D01*
G37*
D13*
X6000000Y-3375000D03*
G04 #@! TD*
D19*
G04 #@! TO.C,L1*
X19500000Y-1000000D03*
X21700000Y-1000000D03*
G04 #@! TD*
D11*
G04 #@! TO.C,L2*
G36*
X-11625495Y8198796D02*
X-11601227Y8195196D01*
X-11577428Y8189235D01*
X-11554329Y8180970D01*
X-11532150Y8170480D01*
X-11511107Y8157868D01*
X-11491401Y8143253D01*
X-11473223Y8126777D01*
X-11456747Y8108599D01*
X-11442132Y8088893D01*
X-11429520Y8067850D01*
X-11419030Y8045671D01*
X-11410765Y8022572D01*
X-11404804Y7998773D01*
X-11401204Y7974505D01*
X-11400000Y7950001D01*
X-11400000Y7049999D01*
X-11401204Y7025495D01*
X-11404804Y7001227D01*
X-11410765Y6977428D01*
X-11419030Y6954329D01*
X-11429520Y6932150D01*
X-11442132Y6911107D01*
X-11456747Y6891401D01*
X-11473223Y6873223D01*
X-11491401Y6856747D01*
X-11511107Y6842132D01*
X-11532150Y6829520D01*
X-11554329Y6819030D01*
X-11577428Y6810765D01*
X-11601227Y6804804D01*
X-11625495Y6801204D01*
X-11649999Y6800000D01*
X-12300001Y6800000D01*
X-12324505Y6801204D01*
X-12348773Y6804804D01*
X-12372572Y6810765D01*
X-12395671Y6819030D01*
X-12417850Y6829520D01*
X-12438893Y6842132D01*
X-12458599Y6856747D01*
X-12476777Y6873223D01*
X-12493253Y6891401D01*
X-12507868Y6911107D01*
X-12520480Y6932150D01*
X-12530970Y6954329D01*
X-12539235Y6977428D01*
X-12545196Y7001227D01*
X-12548796Y7025495D01*
X-12550000Y7049999D01*
X-12550000Y7950001D01*
X-12548796Y7974505D01*
X-12545196Y7998773D01*
X-12539235Y8022572D01*
X-12530970Y8045671D01*
X-12520480Y8067850D01*
X-12507868Y8088893D01*
X-12493253Y8108599D01*
X-12476777Y8126777D01*
X-12458599Y8143253D01*
X-12438893Y8157868D01*
X-12417850Y8170480D01*
X-12395671Y8180970D01*
X-12372572Y8189235D01*
X-12348773Y8195196D01*
X-12324505Y8198796D01*
X-12300001Y8200000D01*
X-11649999Y8200000D01*
X-11625495Y8198796D01*
X-11625495Y8198796D01*
G37*
D18*
X-11975000Y7500000D03*
D11*
G36*
X-13675495Y8198796D02*
X-13651227Y8195196D01*
X-13627428Y8189235D01*
X-13604329Y8180970D01*
X-13582150Y8170480D01*
X-13561107Y8157868D01*
X-13541401Y8143253D01*
X-13523223Y8126777D01*
X-13506747Y8108599D01*
X-13492132Y8088893D01*
X-13479520Y8067850D01*
X-13469030Y8045671D01*
X-13460765Y8022572D01*
X-13454804Y7998773D01*
X-13451204Y7974505D01*
X-13450000Y7950001D01*
X-13450000Y7049999D01*
X-13451204Y7025495D01*
X-13454804Y7001227D01*
X-13460765Y6977428D01*
X-13469030Y6954329D01*
X-13479520Y6932150D01*
X-13492132Y6911107D01*
X-13506747Y6891401D01*
X-13523223Y6873223D01*
X-13541401Y6856747D01*
X-13561107Y6842132D01*
X-13582150Y6829520D01*
X-13604329Y6819030D01*
X-13627428Y6810765D01*
X-13651227Y6804804D01*
X-13675495Y6801204D01*
X-13699999Y6800000D01*
X-14350001Y6800000D01*
X-14374505Y6801204D01*
X-14398773Y6804804D01*
X-14422572Y6810765D01*
X-14445671Y6819030D01*
X-14467850Y6829520D01*
X-14488893Y6842132D01*
X-14508599Y6856747D01*
X-14526777Y6873223D01*
X-14543253Y6891401D01*
X-14557868Y6911107D01*
X-14570480Y6932150D01*
X-14580970Y6954329D01*
X-14589235Y6977428D01*
X-14595196Y7001227D01*
X-14598796Y7025495D01*
X-14600000Y7049999D01*
X-14600000Y7950001D01*
X-14598796Y7974505D01*
X-14595196Y7998773D01*
X-14589235Y8022572D01*
X-14580970Y8045671D01*
X-14570480Y8067850D01*
X-14557868Y8088893D01*
X-14543253Y8108599D01*
X-14526777Y8126777D01*
X-14508599Y8143253D01*
X-14488893Y8157868D01*
X-14467850Y8170480D01*
X-14445671Y8180970D01*
X-14422572Y8189235D01*
X-14398773Y8195196D01*
X-14374505Y8198796D01*
X-14350001Y8200000D01*
X-13699999Y8200000D01*
X-13675495Y8198796D01*
X-13675495Y8198796D01*
G37*
D18*
X-14025000Y7500000D03*
G04 #@! TD*
D19*
G04 #@! TO.C,L3*
X-13850000Y-3250000D03*
X-11650000Y-3250000D03*
G04 #@! TD*
D11*
G04 #@! TO.C,R1*
G36*
X-6914221Y9873856D02*
X-6891166Y9870437D01*
X-6868557Y9864773D01*
X-6846613Y9856921D01*
X-6825543Y9846956D01*
X-6805552Y9834974D01*
X-6786832Y9821090D01*
X-6769562Y9805438D01*
X-6753910Y9788168D01*
X-6740026Y9769448D01*
X-6728044Y9749457D01*
X-6718079Y9728387D01*
X-6710227Y9706443D01*
X-6704563Y9683834D01*
X-6701144Y9660779D01*
X-6700000Y9637500D01*
X-6700000Y9162500D01*
X-6701144Y9139221D01*
X-6704563Y9116166D01*
X-6710227Y9093557D01*
X-6718079Y9071613D01*
X-6728044Y9050543D01*
X-6740026Y9030552D01*
X-6753910Y9011832D01*
X-6769562Y8994562D01*
X-6786832Y8978910D01*
X-6805552Y8965026D01*
X-6825543Y8953044D01*
X-6846613Y8943079D01*
X-6868557Y8935227D01*
X-6891166Y8929563D01*
X-6914221Y8926144D01*
X-6937500Y8925000D01*
X-7512500Y8925000D01*
X-7535779Y8926144D01*
X-7558834Y8929563D01*
X-7581443Y8935227D01*
X-7603387Y8943079D01*
X-7624457Y8953044D01*
X-7644448Y8965026D01*
X-7663168Y8978910D01*
X-7680438Y8994562D01*
X-7696090Y9011832D01*
X-7709974Y9030552D01*
X-7721956Y9050543D01*
X-7731921Y9071613D01*
X-7739773Y9093557D01*
X-7745437Y9116166D01*
X-7748856Y9139221D01*
X-7750000Y9162500D01*
X-7750000Y9637500D01*
X-7748856Y9660779D01*
X-7745437Y9683834D01*
X-7739773Y9706443D01*
X-7731921Y9728387D01*
X-7721956Y9749457D01*
X-7709974Y9769448D01*
X-7696090Y9788168D01*
X-7680438Y9805438D01*
X-7663168Y9821090D01*
X-7644448Y9834974D01*
X-7624457Y9846956D01*
X-7603387Y9856921D01*
X-7581443Y9864773D01*
X-7558834Y9870437D01*
X-7535779Y9873856D01*
X-7512500Y9875000D01*
X-6937500Y9875000D01*
X-6914221Y9873856D01*
X-6914221Y9873856D01*
G37*
D13*
X-7225000Y9400000D03*
D11*
G36*
X-8664221Y9873856D02*
X-8641166Y9870437D01*
X-8618557Y9864773D01*
X-8596613Y9856921D01*
X-8575543Y9846956D01*
X-8555552Y9834974D01*
X-8536832Y9821090D01*
X-8519562Y9805438D01*
X-8503910Y9788168D01*
X-8490026Y9769448D01*
X-8478044Y9749457D01*
X-8468079Y9728387D01*
X-8460227Y9706443D01*
X-8454563Y9683834D01*
X-8451144Y9660779D01*
X-8450000Y9637500D01*
X-8450000Y9162500D01*
X-8451144Y9139221D01*
X-8454563Y9116166D01*
X-8460227Y9093557D01*
X-8468079Y9071613D01*
X-8478044Y9050543D01*
X-8490026Y9030552D01*
X-8503910Y9011832D01*
X-8519562Y8994562D01*
X-8536832Y8978910D01*
X-8555552Y8965026D01*
X-8575543Y8953044D01*
X-8596613Y8943079D01*
X-8618557Y8935227D01*
X-8641166Y8929563D01*
X-8664221Y8926144D01*
X-8687500Y8925000D01*
X-9262500Y8925000D01*
X-9285779Y8926144D01*
X-9308834Y8929563D01*
X-9331443Y8935227D01*
X-9353387Y8943079D01*
X-9374457Y8953044D01*
X-9394448Y8965026D01*
X-9413168Y8978910D01*
X-9430438Y8994562D01*
X-9446090Y9011832D01*
X-9459974Y9030552D01*
X-9471956Y9050543D01*
X-9481921Y9071613D01*
X-9489773Y9093557D01*
X-9495437Y9116166D01*
X-9498856Y9139221D01*
X-9500000Y9162500D01*
X-9500000Y9637500D01*
X-9498856Y9660779D01*
X-9495437Y9683834D01*
X-9489773Y9706443D01*
X-9481921Y9728387D01*
X-9471956Y9749457D01*
X-9459974Y9769448D01*
X-9446090Y9788168D01*
X-9430438Y9805438D01*
X-9413168Y9821090D01*
X-9394448Y9834974D01*
X-9374457Y9846956D01*
X-9353387Y9856921D01*
X-9331443Y9864773D01*
X-9308834Y9870437D01*
X-9285779Y9873856D01*
X-9262500Y9875000D01*
X-8687500Y9875000D01*
X-8664221Y9873856D01*
X-8664221Y9873856D01*
G37*
D13*
X-8975000Y9400000D03*
G04 #@! TD*
D11*
G04 #@! TO.C,R2*
G36*
X-9100496Y8211296D02*
X-9076227Y8207696D01*
X-9052429Y8201735D01*
X-9029329Y8193470D01*
X-9007151Y8182980D01*
X-8986107Y8170367D01*
X-8966402Y8155753D01*
X-8948223Y8139277D01*
X-8931747Y8121098D01*
X-8917133Y8101393D01*
X-8904520Y8080349D01*
X-8894030Y8058171D01*
X-8885765Y8035071D01*
X-8879804Y8011273D01*
X-8876204Y7987004D01*
X-8875000Y7962500D01*
X-8875000Y7037500D01*
X-8876204Y7012996D01*
X-8879804Y6988727D01*
X-8885765Y6964929D01*
X-8894030Y6941829D01*
X-8904520Y6919651D01*
X-8917133Y6898607D01*
X-8931747Y6878902D01*
X-8948223Y6860723D01*
X-8966402Y6844247D01*
X-8986107Y6829633D01*
X-9007151Y6817020D01*
X-9029329Y6806530D01*
X-9052429Y6798265D01*
X-9076227Y6792304D01*
X-9100496Y6788704D01*
X-9125000Y6787500D01*
X-10375000Y6787500D01*
X-10399504Y6788704D01*
X-10423773Y6792304D01*
X-10447571Y6798265D01*
X-10470671Y6806530D01*
X-10492849Y6817020D01*
X-10513893Y6829633D01*
X-10533598Y6844247D01*
X-10551777Y6860723D01*
X-10568253Y6878902D01*
X-10582867Y6898607D01*
X-10595480Y6919651D01*
X-10605970Y6941829D01*
X-10614235Y6964929D01*
X-10620196Y6988727D01*
X-10623796Y7012996D01*
X-10625000Y7037500D01*
X-10625000Y7962500D01*
X-10623796Y7987004D01*
X-10620196Y8011273D01*
X-10614235Y8035071D01*
X-10605970Y8058171D01*
X-10595480Y8080349D01*
X-10582867Y8101393D01*
X-10568253Y8121098D01*
X-10551777Y8139277D01*
X-10533598Y8155753D01*
X-10513893Y8170367D01*
X-10492849Y8182980D01*
X-10470671Y8193470D01*
X-10447571Y8201735D01*
X-10423773Y8207696D01*
X-10399504Y8211296D01*
X-10375000Y8212500D01*
X-9125000Y8212500D01*
X-9100496Y8211296D01*
X-9100496Y8211296D01*
G37*
D20*
X-9750000Y7500000D03*
D11*
G36*
X-9100496Y5236296D02*
X-9076227Y5232696D01*
X-9052429Y5226735D01*
X-9029329Y5218470D01*
X-9007151Y5207980D01*
X-8986107Y5195367D01*
X-8966402Y5180753D01*
X-8948223Y5164277D01*
X-8931747Y5146098D01*
X-8917133Y5126393D01*
X-8904520Y5105349D01*
X-8894030Y5083171D01*
X-8885765Y5060071D01*
X-8879804Y5036273D01*
X-8876204Y5012004D01*
X-8875000Y4987500D01*
X-8875000Y4062500D01*
X-8876204Y4037996D01*
X-8879804Y4013727D01*
X-8885765Y3989929D01*
X-8894030Y3966829D01*
X-8904520Y3944651D01*
X-8917133Y3923607D01*
X-8931747Y3903902D01*
X-8948223Y3885723D01*
X-8966402Y3869247D01*
X-8986107Y3854633D01*
X-9007151Y3842020D01*
X-9029329Y3831530D01*
X-9052429Y3823265D01*
X-9076227Y3817304D01*
X-9100496Y3813704D01*
X-9125000Y3812500D01*
X-10375000Y3812500D01*
X-10399504Y3813704D01*
X-10423773Y3817304D01*
X-10447571Y3823265D01*
X-10470671Y3831530D01*
X-10492849Y3842020D01*
X-10513893Y3854633D01*
X-10533598Y3869247D01*
X-10551777Y3885723D01*
X-10568253Y3903902D01*
X-10582867Y3923607D01*
X-10595480Y3944651D01*
X-10605970Y3966829D01*
X-10614235Y3989929D01*
X-10620196Y4013727D01*
X-10623796Y4037996D01*
X-10625000Y4062500D01*
X-10625000Y4987500D01*
X-10623796Y5012004D01*
X-10620196Y5036273D01*
X-10614235Y5060071D01*
X-10605970Y5083171D01*
X-10595480Y5105349D01*
X-10582867Y5126393D01*
X-10568253Y5146098D01*
X-10551777Y5164277D01*
X-10533598Y5180753D01*
X-10513893Y5195367D01*
X-10492849Y5207980D01*
X-10470671Y5218470D01*
X-10447571Y5226735D01*
X-10423773Y5232696D01*
X-10399504Y5236296D01*
X-10375000Y5237500D01*
X-9125000Y5237500D01*
X-9100496Y5236296D01*
X-9100496Y5236296D01*
G37*
D20*
X-9750000Y4525000D03*
G04 #@! TD*
D11*
G04 #@! TO.C,R3*
G36*
X-7314221Y3223856D02*
X-7291166Y3220437D01*
X-7268557Y3214773D01*
X-7246613Y3206921D01*
X-7225543Y3196956D01*
X-7205552Y3184974D01*
X-7186832Y3171090D01*
X-7169562Y3155438D01*
X-7153910Y3138168D01*
X-7140026Y3119448D01*
X-7128044Y3099457D01*
X-7118079Y3078387D01*
X-7110227Y3056443D01*
X-7104563Y3033834D01*
X-7101144Y3010779D01*
X-7100000Y2987500D01*
X-7100000Y2512500D01*
X-7101144Y2489221D01*
X-7104563Y2466166D01*
X-7110227Y2443557D01*
X-7118079Y2421613D01*
X-7128044Y2400543D01*
X-7140026Y2380552D01*
X-7153910Y2361832D01*
X-7169562Y2344562D01*
X-7186832Y2328910D01*
X-7205552Y2315026D01*
X-7225543Y2303044D01*
X-7246613Y2293079D01*
X-7268557Y2285227D01*
X-7291166Y2279563D01*
X-7314221Y2276144D01*
X-7337500Y2275000D01*
X-7912500Y2275000D01*
X-7935779Y2276144D01*
X-7958834Y2279563D01*
X-7981443Y2285227D01*
X-8003387Y2293079D01*
X-8024457Y2303044D01*
X-8044448Y2315026D01*
X-8063168Y2328910D01*
X-8080438Y2344562D01*
X-8096090Y2361832D01*
X-8109974Y2380552D01*
X-8121956Y2400543D01*
X-8131921Y2421613D01*
X-8139773Y2443557D01*
X-8145437Y2466166D01*
X-8148856Y2489221D01*
X-8150000Y2512500D01*
X-8150000Y2987500D01*
X-8148856Y3010779D01*
X-8145437Y3033834D01*
X-8139773Y3056443D01*
X-8131921Y3078387D01*
X-8121956Y3099457D01*
X-8109974Y3119448D01*
X-8096090Y3138168D01*
X-8080438Y3155438D01*
X-8063168Y3171090D01*
X-8044448Y3184974D01*
X-8024457Y3196956D01*
X-8003387Y3206921D01*
X-7981443Y3214773D01*
X-7958834Y3220437D01*
X-7935779Y3223856D01*
X-7912500Y3225000D01*
X-7337500Y3225000D01*
X-7314221Y3223856D01*
X-7314221Y3223856D01*
G37*
D13*
X-7625000Y2750000D03*
D11*
G36*
X-9064221Y3223856D02*
X-9041166Y3220437D01*
X-9018557Y3214773D01*
X-8996613Y3206921D01*
X-8975543Y3196956D01*
X-8955552Y3184974D01*
X-8936832Y3171090D01*
X-8919562Y3155438D01*
X-8903910Y3138168D01*
X-8890026Y3119448D01*
X-8878044Y3099457D01*
X-8868079Y3078387D01*
X-8860227Y3056443D01*
X-8854563Y3033834D01*
X-8851144Y3010779D01*
X-8850000Y2987500D01*
X-8850000Y2512500D01*
X-8851144Y2489221D01*
X-8854563Y2466166D01*
X-8860227Y2443557D01*
X-8868079Y2421613D01*
X-8878044Y2400543D01*
X-8890026Y2380552D01*
X-8903910Y2361832D01*
X-8919562Y2344562D01*
X-8936832Y2328910D01*
X-8955552Y2315026D01*
X-8975543Y2303044D01*
X-8996613Y2293079D01*
X-9018557Y2285227D01*
X-9041166Y2279563D01*
X-9064221Y2276144D01*
X-9087500Y2275000D01*
X-9662500Y2275000D01*
X-9685779Y2276144D01*
X-9708834Y2279563D01*
X-9731443Y2285227D01*
X-9753387Y2293079D01*
X-9774457Y2303044D01*
X-9794448Y2315026D01*
X-9813168Y2328910D01*
X-9830438Y2344562D01*
X-9846090Y2361832D01*
X-9859974Y2380552D01*
X-9871956Y2400543D01*
X-9881921Y2421613D01*
X-9889773Y2443557D01*
X-9895437Y2466166D01*
X-9898856Y2489221D01*
X-9900000Y2512500D01*
X-9900000Y2987500D01*
X-9898856Y3010779D01*
X-9895437Y3033834D01*
X-9889773Y3056443D01*
X-9881921Y3078387D01*
X-9871956Y3099457D01*
X-9859974Y3119448D01*
X-9846090Y3138168D01*
X-9830438Y3155438D01*
X-9813168Y3171090D01*
X-9794448Y3184974D01*
X-9774457Y3196956D01*
X-9753387Y3206921D01*
X-9731443Y3214773D01*
X-9708834Y3220437D01*
X-9685779Y3223856D01*
X-9662500Y3225000D01*
X-9087500Y3225000D01*
X-9064221Y3223856D01*
X-9064221Y3223856D01*
G37*
D13*
X-9375000Y2750000D03*
G04 #@! TD*
D11*
G04 #@! TO.C,R4*
G36*
X-7489221Y1398856D02*
X-7466166Y1395437D01*
X-7443557Y1389773D01*
X-7421613Y1381921D01*
X-7400543Y1371956D01*
X-7380552Y1359974D01*
X-7361832Y1346090D01*
X-7344562Y1330438D01*
X-7328910Y1313168D01*
X-7315026Y1294448D01*
X-7303044Y1274457D01*
X-7293079Y1253387D01*
X-7285227Y1231443D01*
X-7279563Y1208834D01*
X-7276144Y1185779D01*
X-7275000Y1162500D01*
X-7275000Y587500D01*
X-7276144Y564221D01*
X-7279563Y541166D01*
X-7285227Y518557D01*
X-7293079Y496613D01*
X-7303044Y475543D01*
X-7315026Y455552D01*
X-7328910Y436832D01*
X-7344562Y419562D01*
X-7361832Y403910D01*
X-7380552Y390026D01*
X-7400543Y378044D01*
X-7421613Y368079D01*
X-7443557Y360227D01*
X-7466166Y354563D01*
X-7489221Y351144D01*
X-7512500Y350000D01*
X-7987500Y350000D01*
X-8010779Y351144D01*
X-8033834Y354563D01*
X-8056443Y360227D01*
X-8078387Y368079D01*
X-8099457Y378044D01*
X-8119448Y390026D01*
X-8138168Y403910D01*
X-8155438Y419562D01*
X-8171090Y436832D01*
X-8184974Y455552D01*
X-8196956Y475543D01*
X-8206921Y496613D01*
X-8214773Y518557D01*
X-8220437Y541166D01*
X-8223856Y564221D01*
X-8225000Y587500D01*
X-8225000Y1162500D01*
X-8223856Y1185779D01*
X-8220437Y1208834D01*
X-8214773Y1231443D01*
X-8206921Y1253387D01*
X-8196956Y1274457D01*
X-8184974Y1294448D01*
X-8171090Y1313168D01*
X-8155438Y1330438D01*
X-8138168Y1346090D01*
X-8119448Y1359974D01*
X-8099457Y1371956D01*
X-8078387Y1381921D01*
X-8056443Y1389773D01*
X-8033834Y1395437D01*
X-8010779Y1398856D01*
X-7987500Y1400000D01*
X-7512500Y1400000D01*
X-7489221Y1398856D01*
X-7489221Y1398856D01*
G37*
D13*
X-7750000Y875000D03*
D11*
G36*
X-7489221Y-351144D02*
X-7466166Y-354563D01*
X-7443557Y-360227D01*
X-7421613Y-368079D01*
X-7400543Y-378044D01*
X-7380552Y-390026D01*
X-7361832Y-403910D01*
X-7344562Y-419562D01*
X-7328910Y-436832D01*
X-7315026Y-455552D01*
X-7303044Y-475543D01*
X-7293079Y-496613D01*
X-7285227Y-518557D01*
X-7279563Y-541166D01*
X-7276144Y-564221D01*
X-7275000Y-587500D01*
X-7275000Y-1162500D01*
X-7276144Y-1185779D01*
X-7279563Y-1208834D01*
X-7285227Y-1231443D01*
X-7293079Y-1253387D01*
X-7303044Y-1274457D01*
X-7315026Y-1294448D01*
X-7328910Y-1313168D01*
X-7344562Y-1330438D01*
X-7361832Y-1346090D01*
X-7380552Y-1359974D01*
X-7400543Y-1371956D01*
X-7421613Y-1381921D01*
X-7443557Y-1389773D01*
X-7466166Y-1395437D01*
X-7489221Y-1398856D01*
X-7512500Y-1400000D01*
X-7987500Y-1400000D01*
X-8010779Y-1398856D01*
X-8033834Y-1395437D01*
X-8056443Y-1389773D01*
X-8078387Y-1381921D01*
X-8099457Y-1371956D01*
X-8119448Y-1359974D01*
X-8138168Y-1346090D01*
X-8155438Y-1330438D01*
X-8171090Y-1313168D01*
X-8184974Y-1294448D01*
X-8196956Y-1274457D01*
X-8206921Y-1253387D01*
X-8214773Y-1231443D01*
X-8220437Y-1208834D01*
X-8223856Y-1185779D01*
X-8225000Y-1162500D01*
X-8225000Y-587500D01*
X-8223856Y-564221D01*
X-8220437Y-541166D01*
X-8214773Y-518557D01*
X-8206921Y-496613D01*
X-8196956Y-475543D01*
X-8184974Y-455552D01*
X-8171090Y-436832D01*
X-8155438Y-419562D01*
X-8138168Y-403910D01*
X-8119448Y-390026D01*
X-8099457Y-378044D01*
X-8078387Y-368079D01*
X-8056443Y-360227D01*
X-8033834Y-354563D01*
X-8010779Y-351144D01*
X-7987500Y-350000D01*
X-7512500Y-350000D01*
X-7489221Y-351144D01*
X-7489221Y-351144D01*
G37*
D13*
X-7750000Y-875000D03*
G04 #@! TD*
D11*
G04 #@! TO.C,R5*
G36*
X-7529221Y-2196144D02*
X-7506166Y-2199563D01*
X-7483557Y-2205227D01*
X-7461613Y-2213079D01*
X-7440543Y-2223044D01*
X-7420552Y-2235026D01*
X-7401832Y-2248910D01*
X-7384562Y-2264562D01*
X-7368910Y-2281832D01*
X-7355026Y-2300552D01*
X-7343044Y-2320543D01*
X-7333079Y-2341613D01*
X-7325227Y-2363557D01*
X-7319563Y-2386166D01*
X-7316144Y-2409221D01*
X-7315000Y-2432500D01*
X-7315000Y-2907500D01*
X-7316144Y-2930779D01*
X-7319563Y-2953834D01*
X-7325227Y-2976443D01*
X-7333079Y-2998387D01*
X-7343044Y-3019457D01*
X-7355026Y-3039448D01*
X-7368910Y-3058168D01*
X-7384562Y-3075438D01*
X-7401832Y-3091090D01*
X-7420552Y-3104974D01*
X-7440543Y-3116956D01*
X-7461613Y-3126921D01*
X-7483557Y-3134773D01*
X-7506166Y-3140437D01*
X-7529221Y-3143856D01*
X-7552500Y-3145000D01*
X-8127500Y-3145000D01*
X-8150779Y-3143856D01*
X-8173834Y-3140437D01*
X-8196443Y-3134773D01*
X-8218387Y-3126921D01*
X-8239457Y-3116956D01*
X-8259448Y-3104974D01*
X-8278168Y-3091090D01*
X-8295438Y-3075438D01*
X-8311090Y-3058168D01*
X-8324974Y-3039448D01*
X-8336956Y-3019457D01*
X-8346921Y-2998387D01*
X-8354773Y-2976443D01*
X-8360437Y-2953834D01*
X-8363856Y-2930779D01*
X-8365000Y-2907500D01*
X-8365000Y-2432500D01*
X-8363856Y-2409221D01*
X-8360437Y-2386166D01*
X-8354773Y-2363557D01*
X-8346921Y-2341613D01*
X-8336956Y-2320543D01*
X-8324974Y-2300552D01*
X-8311090Y-2281832D01*
X-8295438Y-2264562D01*
X-8278168Y-2248910D01*
X-8259448Y-2235026D01*
X-8239457Y-2223044D01*
X-8218387Y-2213079D01*
X-8196443Y-2205227D01*
X-8173834Y-2199563D01*
X-8150779Y-2196144D01*
X-8127500Y-2195000D01*
X-7552500Y-2195000D01*
X-7529221Y-2196144D01*
X-7529221Y-2196144D01*
G37*
D13*
X-7840000Y-2670000D03*
D11*
G36*
X-9279221Y-2196144D02*
X-9256166Y-2199563D01*
X-9233557Y-2205227D01*
X-9211613Y-2213079D01*
X-9190543Y-2223044D01*
X-9170552Y-2235026D01*
X-9151832Y-2248910D01*
X-9134562Y-2264562D01*
X-9118910Y-2281832D01*
X-9105026Y-2300552D01*
X-9093044Y-2320543D01*
X-9083079Y-2341613D01*
X-9075227Y-2363557D01*
X-9069563Y-2386166D01*
X-9066144Y-2409221D01*
X-9065000Y-2432500D01*
X-9065000Y-2907500D01*
X-9066144Y-2930779D01*
X-9069563Y-2953834D01*
X-9075227Y-2976443D01*
X-9083079Y-2998387D01*
X-9093044Y-3019457D01*
X-9105026Y-3039448D01*
X-9118910Y-3058168D01*
X-9134562Y-3075438D01*
X-9151832Y-3091090D01*
X-9170552Y-3104974D01*
X-9190543Y-3116956D01*
X-9211613Y-3126921D01*
X-9233557Y-3134773D01*
X-9256166Y-3140437D01*
X-9279221Y-3143856D01*
X-9302500Y-3145000D01*
X-9877500Y-3145000D01*
X-9900779Y-3143856D01*
X-9923834Y-3140437D01*
X-9946443Y-3134773D01*
X-9968387Y-3126921D01*
X-9989457Y-3116956D01*
X-10009448Y-3104974D01*
X-10028168Y-3091090D01*
X-10045438Y-3075438D01*
X-10061090Y-3058168D01*
X-10074974Y-3039448D01*
X-10086956Y-3019457D01*
X-10096921Y-2998387D01*
X-10104773Y-2976443D01*
X-10110437Y-2953834D01*
X-10113856Y-2930779D01*
X-10115000Y-2907500D01*
X-10115000Y-2432500D01*
X-10113856Y-2409221D01*
X-10110437Y-2386166D01*
X-10104773Y-2363557D01*
X-10096921Y-2341613D01*
X-10086956Y-2320543D01*
X-10074974Y-2300552D01*
X-10061090Y-2281832D01*
X-10045438Y-2264562D01*
X-10028168Y-2248910D01*
X-10009448Y-2235026D01*
X-9989457Y-2223044D01*
X-9968387Y-2213079D01*
X-9946443Y-2205227D01*
X-9923834Y-2199563D01*
X-9900779Y-2196144D01*
X-9877500Y-2195000D01*
X-9302500Y-2195000D01*
X-9279221Y-2196144D01*
X-9279221Y-2196144D01*
G37*
D13*
X-9590000Y-2670000D03*
G04 #@! TD*
D11*
G04 #@! TO.C,R6*
G36*
X-7824221Y-7726144D02*
X-7801166Y-7729563D01*
X-7778557Y-7735227D01*
X-7756613Y-7743079D01*
X-7735543Y-7753044D01*
X-7715552Y-7765026D01*
X-7696832Y-7778910D01*
X-7679562Y-7794562D01*
X-7663910Y-7811832D01*
X-7650026Y-7830552D01*
X-7638044Y-7850543D01*
X-7628079Y-7871613D01*
X-7620227Y-7893557D01*
X-7614563Y-7916166D01*
X-7611144Y-7939221D01*
X-7610000Y-7962500D01*
X-7610000Y-8437500D01*
X-7611144Y-8460779D01*
X-7614563Y-8483834D01*
X-7620227Y-8506443D01*
X-7628079Y-8528387D01*
X-7638044Y-8549457D01*
X-7650026Y-8569448D01*
X-7663910Y-8588168D01*
X-7679562Y-8605438D01*
X-7696832Y-8621090D01*
X-7715552Y-8634974D01*
X-7735543Y-8646956D01*
X-7756613Y-8656921D01*
X-7778557Y-8664773D01*
X-7801166Y-8670437D01*
X-7824221Y-8673856D01*
X-7847500Y-8675000D01*
X-8422500Y-8675000D01*
X-8445779Y-8673856D01*
X-8468834Y-8670437D01*
X-8491443Y-8664773D01*
X-8513387Y-8656921D01*
X-8534457Y-8646956D01*
X-8554448Y-8634974D01*
X-8573168Y-8621090D01*
X-8590438Y-8605438D01*
X-8606090Y-8588168D01*
X-8619974Y-8569448D01*
X-8631956Y-8549457D01*
X-8641921Y-8528387D01*
X-8649773Y-8506443D01*
X-8655437Y-8483834D01*
X-8658856Y-8460779D01*
X-8660000Y-8437500D01*
X-8660000Y-7962500D01*
X-8658856Y-7939221D01*
X-8655437Y-7916166D01*
X-8649773Y-7893557D01*
X-8641921Y-7871613D01*
X-8631956Y-7850543D01*
X-8619974Y-7830552D01*
X-8606090Y-7811832D01*
X-8590438Y-7794562D01*
X-8573168Y-7778910D01*
X-8554448Y-7765026D01*
X-8534457Y-7753044D01*
X-8513387Y-7743079D01*
X-8491443Y-7735227D01*
X-8468834Y-7729563D01*
X-8445779Y-7726144D01*
X-8422500Y-7725000D01*
X-7847500Y-7725000D01*
X-7824221Y-7726144D01*
X-7824221Y-7726144D01*
G37*
D13*
X-8135000Y-8200000D03*
D11*
G36*
X-9574221Y-7726144D02*
X-9551166Y-7729563D01*
X-9528557Y-7735227D01*
X-9506613Y-7743079D01*
X-9485543Y-7753044D01*
X-9465552Y-7765026D01*
X-9446832Y-7778910D01*
X-9429562Y-7794562D01*
X-9413910Y-7811832D01*
X-9400026Y-7830552D01*
X-9388044Y-7850543D01*
X-9378079Y-7871613D01*
X-9370227Y-7893557D01*
X-9364563Y-7916166D01*
X-9361144Y-7939221D01*
X-9360000Y-7962500D01*
X-9360000Y-8437500D01*
X-9361144Y-8460779D01*
X-9364563Y-8483834D01*
X-9370227Y-8506443D01*
X-9378079Y-8528387D01*
X-9388044Y-8549457D01*
X-9400026Y-8569448D01*
X-9413910Y-8588168D01*
X-9429562Y-8605438D01*
X-9446832Y-8621090D01*
X-9465552Y-8634974D01*
X-9485543Y-8646956D01*
X-9506613Y-8656921D01*
X-9528557Y-8664773D01*
X-9551166Y-8670437D01*
X-9574221Y-8673856D01*
X-9597500Y-8675000D01*
X-10172500Y-8675000D01*
X-10195779Y-8673856D01*
X-10218834Y-8670437D01*
X-10241443Y-8664773D01*
X-10263387Y-8656921D01*
X-10284457Y-8646956D01*
X-10304448Y-8634974D01*
X-10323168Y-8621090D01*
X-10340438Y-8605438D01*
X-10356090Y-8588168D01*
X-10369974Y-8569448D01*
X-10381956Y-8549457D01*
X-10391921Y-8528387D01*
X-10399773Y-8506443D01*
X-10405437Y-8483834D01*
X-10408856Y-8460779D01*
X-10410000Y-8437500D01*
X-10410000Y-7962500D01*
X-10408856Y-7939221D01*
X-10405437Y-7916166D01*
X-10399773Y-7893557D01*
X-10391921Y-7871613D01*
X-10381956Y-7850543D01*
X-10369974Y-7830552D01*
X-10356090Y-7811832D01*
X-10340438Y-7794562D01*
X-10323168Y-7778910D01*
X-10304448Y-7765026D01*
X-10284457Y-7753044D01*
X-10263387Y-7743079D01*
X-10241443Y-7735227D01*
X-10218834Y-7729563D01*
X-10195779Y-7726144D01*
X-10172500Y-7725000D01*
X-9597500Y-7725000D01*
X-9574221Y-7726144D01*
X-9574221Y-7726144D01*
G37*
D13*
X-9885000Y-8200000D03*
G04 #@! TD*
D11*
G04 #@! TO.C,R7*
G36*
X-9350496Y-9301204D02*
X-9326227Y-9304804D01*
X-9302429Y-9310765D01*
X-9279329Y-9319030D01*
X-9257151Y-9329520D01*
X-9236107Y-9342133D01*
X-9216402Y-9356747D01*
X-9198223Y-9373223D01*
X-9181747Y-9391402D01*
X-9167133Y-9411107D01*
X-9154520Y-9432151D01*
X-9144030Y-9454329D01*
X-9135765Y-9477429D01*
X-9129804Y-9501227D01*
X-9126204Y-9525496D01*
X-9125000Y-9550000D01*
X-9125000Y-10475000D01*
X-9126204Y-10499504D01*
X-9129804Y-10523773D01*
X-9135765Y-10547571D01*
X-9144030Y-10570671D01*
X-9154520Y-10592849D01*
X-9167133Y-10613893D01*
X-9181747Y-10633598D01*
X-9198223Y-10651777D01*
X-9216402Y-10668253D01*
X-9236107Y-10682867D01*
X-9257151Y-10695480D01*
X-9279329Y-10705970D01*
X-9302429Y-10714235D01*
X-9326227Y-10720196D01*
X-9350496Y-10723796D01*
X-9375000Y-10725000D01*
X-10625000Y-10725000D01*
X-10649504Y-10723796D01*
X-10673773Y-10720196D01*
X-10697571Y-10714235D01*
X-10720671Y-10705970D01*
X-10742849Y-10695480D01*
X-10763893Y-10682867D01*
X-10783598Y-10668253D01*
X-10801777Y-10651777D01*
X-10818253Y-10633598D01*
X-10832867Y-10613893D01*
X-10845480Y-10592849D01*
X-10855970Y-10570671D01*
X-10864235Y-10547571D01*
X-10870196Y-10523773D01*
X-10873796Y-10499504D01*
X-10875000Y-10475000D01*
X-10875000Y-9550000D01*
X-10873796Y-9525496D01*
X-10870196Y-9501227D01*
X-10864235Y-9477429D01*
X-10855970Y-9454329D01*
X-10845480Y-9432151D01*
X-10832867Y-9411107D01*
X-10818253Y-9391402D01*
X-10801777Y-9373223D01*
X-10783598Y-9356747D01*
X-10763893Y-9342133D01*
X-10742849Y-9329520D01*
X-10720671Y-9319030D01*
X-10697571Y-9310765D01*
X-10673773Y-9304804D01*
X-10649504Y-9301204D01*
X-10625000Y-9300000D01*
X-9375000Y-9300000D01*
X-9350496Y-9301204D01*
X-9350496Y-9301204D01*
G37*
D20*
X-10000000Y-10012500D03*
D11*
G36*
X-9350496Y-12276204D02*
X-9326227Y-12279804D01*
X-9302429Y-12285765D01*
X-9279329Y-12294030D01*
X-9257151Y-12304520D01*
X-9236107Y-12317133D01*
X-9216402Y-12331747D01*
X-9198223Y-12348223D01*
X-9181747Y-12366402D01*
X-9167133Y-12386107D01*
X-9154520Y-12407151D01*
X-9144030Y-12429329D01*
X-9135765Y-12452429D01*
X-9129804Y-12476227D01*
X-9126204Y-12500496D01*
X-9125000Y-12525000D01*
X-9125000Y-13450000D01*
X-9126204Y-13474504D01*
X-9129804Y-13498773D01*
X-9135765Y-13522571D01*
X-9144030Y-13545671D01*
X-9154520Y-13567849D01*
X-9167133Y-13588893D01*
X-9181747Y-13608598D01*
X-9198223Y-13626777D01*
X-9216402Y-13643253D01*
X-9236107Y-13657867D01*
X-9257151Y-13670480D01*
X-9279329Y-13680970D01*
X-9302429Y-13689235D01*
X-9326227Y-13695196D01*
X-9350496Y-13698796D01*
X-9375000Y-13700000D01*
X-10625000Y-13700000D01*
X-10649504Y-13698796D01*
X-10673773Y-13695196D01*
X-10697571Y-13689235D01*
X-10720671Y-13680970D01*
X-10742849Y-13670480D01*
X-10763893Y-13657867D01*
X-10783598Y-13643253D01*
X-10801777Y-13626777D01*
X-10818253Y-13608598D01*
X-10832867Y-13588893D01*
X-10845480Y-13567849D01*
X-10855970Y-13545671D01*
X-10864235Y-13522571D01*
X-10870196Y-13498773D01*
X-10873796Y-13474504D01*
X-10875000Y-13450000D01*
X-10875000Y-12525000D01*
X-10873796Y-12500496D01*
X-10870196Y-12476227D01*
X-10864235Y-12452429D01*
X-10855970Y-12429329D01*
X-10845480Y-12407151D01*
X-10832867Y-12386107D01*
X-10818253Y-12366402D01*
X-10801777Y-12348223D01*
X-10783598Y-12331747D01*
X-10763893Y-12317133D01*
X-10742849Y-12304520D01*
X-10720671Y-12294030D01*
X-10697571Y-12285765D01*
X-10673773Y-12279804D01*
X-10649504Y-12276204D01*
X-10625000Y-12275000D01*
X-9375000Y-12275000D01*
X-9350496Y-12276204D01*
X-9350496Y-12276204D01*
G37*
D20*
X-10000000Y-12987500D03*
G04 #@! TD*
D11*
G04 #@! TO.C,R8*
G36*
X-7939221Y-14526144D02*
X-7916166Y-14529563D01*
X-7893557Y-14535227D01*
X-7871613Y-14543079D01*
X-7850543Y-14553044D01*
X-7830552Y-14565026D01*
X-7811832Y-14578910D01*
X-7794562Y-14594562D01*
X-7778910Y-14611832D01*
X-7765026Y-14630552D01*
X-7753044Y-14650543D01*
X-7743079Y-14671613D01*
X-7735227Y-14693557D01*
X-7729563Y-14716166D01*
X-7726144Y-14739221D01*
X-7725000Y-14762500D01*
X-7725000Y-15237500D01*
X-7726144Y-15260779D01*
X-7729563Y-15283834D01*
X-7735227Y-15306443D01*
X-7743079Y-15328387D01*
X-7753044Y-15349457D01*
X-7765026Y-15369448D01*
X-7778910Y-15388168D01*
X-7794562Y-15405438D01*
X-7811832Y-15421090D01*
X-7830552Y-15434974D01*
X-7850543Y-15446956D01*
X-7871613Y-15456921D01*
X-7893557Y-15464773D01*
X-7916166Y-15470437D01*
X-7939221Y-15473856D01*
X-7962500Y-15475000D01*
X-8537500Y-15475000D01*
X-8560779Y-15473856D01*
X-8583834Y-15470437D01*
X-8606443Y-15464773D01*
X-8628387Y-15456921D01*
X-8649457Y-15446956D01*
X-8669448Y-15434974D01*
X-8688168Y-15421090D01*
X-8705438Y-15405438D01*
X-8721090Y-15388168D01*
X-8734974Y-15369448D01*
X-8746956Y-15349457D01*
X-8756921Y-15328387D01*
X-8764773Y-15306443D01*
X-8770437Y-15283834D01*
X-8773856Y-15260779D01*
X-8775000Y-15237500D01*
X-8775000Y-14762500D01*
X-8773856Y-14739221D01*
X-8770437Y-14716166D01*
X-8764773Y-14693557D01*
X-8756921Y-14671613D01*
X-8746956Y-14650543D01*
X-8734974Y-14630552D01*
X-8721090Y-14611832D01*
X-8705438Y-14594562D01*
X-8688168Y-14578910D01*
X-8669448Y-14565026D01*
X-8649457Y-14553044D01*
X-8628387Y-14543079D01*
X-8606443Y-14535227D01*
X-8583834Y-14529563D01*
X-8560779Y-14526144D01*
X-8537500Y-14525000D01*
X-7962500Y-14525000D01*
X-7939221Y-14526144D01*
X-7939221Y-14526144D01*
G37*
D13*
X-8250000Y-15000000D03*
D11*
G36*
X-9689221Y-14526144D02*
X-9666166Y-14529563D01*
X-9643557Y-14535227D01*
X-9621613Y-14543079D01*
X-9600543Y-14553044D01*
X-9580552Y-14565026D01*
X-9561832Y-14578910D01*
X-9544562Y-14594562D01*
X-9528910Y-14611832D01*
X-9515026Y-14630552D01*
X-9503044Y-14650543D01*
X-9493079Y-14671613D01*
X-9485227Y-14693557D01*
X-9479563Y-14716166D01*
X-9476144Y-14739221D01*
X-9475000Y-14762500D01*
X-9475000Y-15237500D01*
X-9476144Y-15260779D01*
X-9479563Y-15283834D01*
X-9485227Y-15306443D01*
X-9493079Y-15328387D01*
X-9503044Y-15349457D01*
X-9515026Y-15369448D01*
X-9528910Y-15388168D01*
X-9544562Y-15405438D01*
X-9561832Y-15421090D01*
X-9580552Y-15434974D01*
X-9600543Y-15446956D01*
X-9621613Y-15456921D01*
X-9643557Y-15464773D01*
X-9666166Y-15470437D01*
X-9689221Y-15473856D01*
X-9712500Y-15475000D01*
X-10287500Y-15475000D01*
X-10310779Y-15473856D01*
X-10333834Y-15470437D01*
X-10356443Y-15464773D01*
X-10378387Y-15456921D01*
X-10399457Y-15446956D01*
X-10419448Y-15434974D01*
X-10438168Y-15421090D01*
X-10455438Y-15405438D01*
X-10471090Y-15388168D01*
X-10484974Y-15369448D01*
X-10496956Y-15349457D01*
X-10506921Y-15328387D01*
X-10514773Y-15306443D01*
X-10520437Y-15283834D01*
X-10523856Y-15260779D01*
X-10525000Y-15237500D01*
X-10525000Y-14762500D01*
X-10523856Y-14739221D01*
X-10520437Y-14716166D01*
X-10514773Y-14693557D01*
X-10506921Y-14671613D01*
X-10496956Y-14650543D01*
X-10484974Y-14630552D01*
X-10471090Y-14611832D01*
X-10455438Y-14594562D01*
X-10438168Y-14578910D01*
X-10419448Y-14565026D01*
X-10399457Y-14553044D01*
X-10378387Y-14543079D01*
X-10356443Y-14535227D01*
X-10333834Y-14529563D01*
X-10310779Y-14526144D01*
X-10287500Y-14525000D01*
X-9712500Y-14525000D01*
X-9689221Y-14526144D01*
X-9689221Y-14526144D01*
G37*
D13*
X-10000000Y-15000000D03*
G04 #@! TD*
D11*
G04 #@! TO.C,R9*
G36*
X-9739221Y-16351144D02*
X-9716166Y-16354563D01*
X-9693557Y-16360227D01*
X-9671613Y-16368079D01*
X-9650543Y-16378044D01*
X-9630552Y-16390026D01*
X-9611832Y-16403910D01*
X-9594562Y-16419562D01*
X-9578910Y-16436832D01*
X-9565026Y-16455552D01*
X-9553044Y-16475543D01*
X-9543079Y-16496613D01*
X-9535227Y-16518557D01*
X-9529563Y-16541166D01*
X-9526144Y-16564221D01*
X-9525000Y-16587500D01*
X-9525000Y-17162500D01*
X-9526144Y-17185779D01*
X-9529563Y-17208834D01*
X-9535227Y-17231443D01*
X-9543079Y-17253387D01*
X-9553044Y-17274457D01*
X-9565026Y-17294448D01*
X-9578910Y-17313168D01*
X-9594562Y-17330438D01*
X-9611832Y-17346090D01*
X-9630552Y-17359974D01*
X-9650543Y-17371956D01*
X-9671613Y-17381921D01*
X-9693557Y-17389773D01*
X-9716166Y-17395437D01*
X-9739221Y-17398856D01*
X-9762500Y-17400000D01*
X-10237500Y-17400000D01*
X-10260779Y-17398856D01*
X-10283834Y-17395437D01*
X-10306443Y-17389773D01*
X-10328387Y-17381921D01*
X-10349457Y-17371956D01*
X-10369448Y-17359974D01*
X-10388168Y-17346090D01*
X-10405438Y-17330438D01*
X-10421090Y-17313168D01*
X-10434974Y-17294448D01*
X-10446956Y-17274457D01*
X-10456921Y-17253387D01*
X-10464773Y-17231443D01*
X-10470437Y-17208834D01*
X-10473856Y-17185779D01*
X-10475000Y-17162500D01*
X-10475000Y-16587500D01*
X-10473856Y-16564221D01*
X-10470437Y-16541166D01*
X-10464773Y-16518557D01*
X-10456921Y-16496613D01*
X-10446956Y-16475543D01*
X-10434974Y-16455552D01*
X-10421090Y-16436832D01*
X-10405438Y-16419562D01*
X-10388168Y-16403910D01*
X-10369448Y-16390026D01*
X-10349457Y-16378044D01*
X-10328387Y-16368079D01*
X-10306443Y-16360227D01*
X-10283834Y-16354563D01*
X-10260779Y-16351144D01*
X-10237500Y-16350000D01*
X-9762500Y-16350000D01*
X-9739221Y-16351144D01*
X-9739221Y-16351144D01*
G37*
D13*
X-10000000Y-16875000D03*
D11*
G36*
X-9739221Y-18101144D02*
X-9716166Y-18104563D01*
X-9693557Y-18110227D01*
X-9671613Y-18118079D01*
X-9650543Y-18128044D01*
X-9630552Y-18140026D01*
X-9611832Y-18153910D01*
X-9594562Y-18169562D01*
X-9578910Y-18186832D01*
X-9565026Y-18205552D01*
X-9553044Y-18225543D01*
X-9543079Y-18246613D01*
X-9535227Y-18268557D01*
X-9529563Y-18291166D01*
X-9526144Y-18314221D01*
X-9525000Y-18337500D01*
X-9525000Y-18912500D01*
X-9526144Y-18935779D01*
X-9529563Y-18958834D01*
X-9535227Y-18981443D01*
X-9543079Y-19003387D01*
X-9553044Y-19024457D01*
X-9565026Y-19044448D01*
X-9578910Y-19063168D01*
X-9594562Y-19080438D01*
X-9611832Y-19096090D01*
X-9630552Y-19109974D01*
X-9650543Y-19121956D01*
X-9671613Y-19131921D01*
X-9693557Y-19139773D01*
X-9716166Y-19145437D01*
X-9739221Y-19148856D01*
X-9762500Y-19150000D01*
X-10237500Y-19150000D01*
X-10260779Y-19148856D01*
X-10283834Y-19145437D01*
X-10306443Y-19139773D01*
X-10328387Y-19131921D01*
X-10349457Y-19121956D01*
X-10369448Y-19109974D01*
X-10388168Y-19096090D01*
X-10405438Y-19080438D01*
X-10421090Y-19063168D01*
X-10434974Y-19044448D01*
X-10446956Y-19024457D01*
X-10456921Y-19003387D01*
X-10464773Y-18981443D01*
X-10470437Y-18958834D01*
X-10473856Y-18935779D01*
X-10475000Y-18912500D01*
X-10475000Y-18337500D01*
X-10473856Y-18314221D01*
X-10470437Y-18291166D01*
X-10464773Y-18268557D01*
X-10456921Y-18246613D01*
X-10446956Y-18225543D01*
X-10434974Y-18205552D01*
X-10421090Y-18186832D01*
X-10405438Y-18169562D01*
X-10388168Y-18153910D01*
X-10369448Y-18140026D01*
X-10349457Y-18128044D01*
X-10328387Y-18118079D01*
X-10306443Y-18110227D01*
X-10283834Y-18104563D01*
X-10260779Y-18101144D01*
X-10237500Y-18100000D01*
X-9762500Y-18100000D01*
X-9739221Y-18101144D01*
X-9739221Y-18101144D01*
G37*
D13*
X-10000000Y-18625000D03*
G04 #@! TD*
D11*
G04 #@! TO.C,R10*
G36*
X-11489221Y-18226144D02*
X-11466166Y-18229563D01*
X-11443557Y-18235227D01*
X-11421613Y-18243079D01*
X-11400543Y-18253044D01*
X-11380552Y-18265026D01*
X-11361832Y-18278910D01*
X-11344562Y-18294562D01*
X-11328910Y-18311832D01*
X-11315026Y-18330552D01*
X-11303044Y-18350543D01*
X-11293079Y-18371613D01*
X-11285227Y-18393557D01*
X-11279563Y-18416166D01*
X-11276144Y-18439221D01*
X-11275000Y-18462500D01*
X-11275000Y-19037500D01*
X-11276144Y-19060779D01*
X-11279563Y-19083834D01*
X-11285227Y-19106443D01*
X-11293079Y-19128387D01*
X-11303044Y-19149457D01*
X-11315026Y-19169448D01*
X-11328910Y-19188168D01*
X-11344562Y-19205438D01*
X-11361832Y-19221090D01*
X-11380552Y-19234974D01*
X-11400543Y-19246956D01*
X-11421613Y-19256921D01*
X-11443557Y-19264773D01*
X-11466166Y-19270437D01*
X-11489221Y-19273856D01*
X-11512500Y-19275000D01*
X-11987500Y-19275000D01*
X-12010779Y-19273856D01*
X-12033834Y-19270437D01*
X-12056443Y-19264773D01*
X-12078387Y-19256921D01*
X-12099457Y-19246956D01*
X-12119448Y-19234974D01*
X-12138168Y-19221090D01*
X-12155438Y-19205438D01*
X-12171090Y-19188168D01*
X-12184974Y-19169448D01*
X-12196956Y-19149457D01*
X-12206921Y-19128387D01*
X-12214773Y-19106443D01*
X-12220437Y-19083834D01*
X-12223856Y-19060779D01*
X-12225000Y-19037500D01*
X-12225000Y-18462500D01*
X-12223856Y-18439221D01*
X-12220437Y-18416166D01*
X-12214773Y-18393557D01*
X-12206921Y-18371613D01*
X-12196956Y-18350543D01*
X-12184974Y-18330552D01*
X-12171090Y-18311832D01*
X-12155438Y-18294562D01*
X-12138168Y-18278910D01*
X-12119448Y-18265026D01*
X-12099457Y-18253044D01*
X-12078387Y-18243079D01*
X-12056443Y-18235227D01*
X-12033834Y-18229563D01*
X-12010779Y-18226144D01*
X-11987500Y-18225000D01*
X-11512500Y-18225000D01*
X-11489221Y-18226144D01*
X-11489221Y-18226144D01*
G37*
D13*
X-11750000Y-18750000D03*
D11*
G36*
X-11489221Y-19976144D02*
X-11466166Y-19979563D01*
X-11443557Y-19985227D01*
X-11421613Y-19993079D01*
X-11400543Y-20003044D01*
X-11380552Y-20015026D01*
X-11361832Y-20028910D01*
X-11344562Y-20044562D01*
X-11328910Y-20061832D01*
X-11315026Y-20080552D01*
X-11303044Y-20100543D01*
X-11293079Y-20121613D01*
X-11285227Y-20143557D01*
X-11279563Y-20166166D01*
X-11276144Y-20189221D01*
X-11275000Y-20212500D01*
X-11275000Y-20787500D01*
X-11276144Y-20810779D01*
X-11279563Y-20833834D01*
X-11285227Y-20856443D01*
X-11293079Y-20878387D01*
X-11303044Y-20899457D01*
X-11315026Y-20919448D01*
X-11328910Y-20938168D01*
X-11344562Y-20955438D01*
X-11361832Y-20971090D01*
X-11380552Y-20984974D01*
X-11400543Y-20996956D01*
X-11421613Y-21006921D01*
X-11443557Y-21014773D01*
X-11466166Y-21020437D01*
X-11489221Y-21023856D01*
X-11512500Y-21025000D01*
X-11987500Y-21025000D01*
X-12010779Y-21023856D01*
X-12033834Y-21020437D01*
X-12056443Y-21014773D01*
X-12078387Y-21006921D01*
X-12099457Y-20996956D01*
X-12119448Y-20984974D01*
X-12138168Y-20971090D01*
X-12155438Y-20955438D01*
X-12171090Y-20938168D01*
X-12184974Y-20919448D01*
X-12196956Y-20899457D01*
X-12206921Y-20878387D01*
X-12214773Y-20856443D01*
X-12220437Y-20833834D01*
X-12223856Y-20810779D01*
X-12225000Y-20787500D01*
X-12225000Y-20212500D01*
X-12223856Y-20189221D01*
X-12220437Y-20166166D01*
X-12214773Y-20143557D01*
X-12206921Y-20121613D01*
X-12196956Y-20100543D01*
X-12184974Y-20080552D01*
X-12171090Y-20061832D01*
X-12155438Y-20044562D01*
X-12138168Y-20028910D01*
X-12119448Y-20015026D01*
X-12099457Y-20003044D01*
X-12078387Y-19993079D01*
X-12056443Y-19985227D01*
X-12033834Y-19979563D01*
X-12010779Y-19976144D01*
X-11987500Y-19975000D01*
X-11512500Y-19975000D01*
X-11489221Y-19976144D01*
X-11489221Y-19976144D01*
G37*
D13*
X-11750000Y-20500000D03*
G04 #@! TD*
D11*
G04 #@! TO.C,R11*
G36*
X19770779Y7268856D02*
X19793834Y7265437D01*
X19816443Y7259773D01*
X19838387Y7251921D01*
X19859457Y7241956D01*
X19879448Y7229974D01*
X19898168Y7216090D01*
X19915438Y7200438D01*
X19931090Y7183168D01*
X19944974Y7164448D01*
X19956956Y7144457D01*
X19966921Y7123387D01*
X19974773Y7101443D01*
X19980437Y7078834D01*
X19983856Y7055779D01*
X19985000Y7032500D01*
X19985000Y6457500D01*
X19983856Y6434221D01*
X19980437Y6411166D01*
X19974773Y6388557D01*
X19966921Y6366613D01*
X19956956Y6345543D01*
X19944974Y6325552D01*
X19931090Y6306832D01*
X19915438Y6289562D01*
X19898168Y6273910D01*
X19879448Y6260026D01*
X19859457Y6248044D01*
X19838387Y6238079D01*
X19816443Y6230227D01*
X19793834Y6224563D01*
X19770779Y6221144D01*
X19747500Y6220000D01*
X19272500Y6220000D01*
X19249221Y6221144D01*
X19226166Y6224563D01*
X19203557Y6230227D01*
X19181613Y6238079D01*
X19160543Y6248044D01*
X19140552Y6260026D01*
X19121832Y6273910D01*
X19104562Y6289562D01*
X19088910Y6306832D01*
X19075026Y6325552D01*
X19063044Y6345543D01*
X19053079Y6366613D01*
X19045227Y6388557D01*
X19039563Y6411166D01*
X19036144Y6434221D01*
X19035000Y6457500D01*
X19035000Y7032500D01*
X19036144Y7055779D01*
X19039563Y7078834D01*
X19045227Y7101443D01*
X19053079Y7123387D01*
X19063044Y7144457D01*
X19075026Y7164448D01*
X19088910Y7183168D01*
X19104562Y7200438D01*
X19121832Y7216090D01*
X19140552Y7229974D01*
X19160543Y7241956D01*
X19181613Y7251921D01*
X19203557Y7259773D01*
X19226166Y7265437D01*
X19249221Y7268856D01*
X19272500Y7270000D01*
X19747500Y7270000D01*
X19770779Y7268856D01*
X19770779Y7268856D01*
G37*
D13*
X19510000Y6745000D03*
D11*
G36*
X19770779Y5518856D02*
X19793834Y5515437D01*
X19816443Y5509773D01*
X19838387Y5501921D01*
X19859457Y5491956D01*
X19879448Y5479974D01*
X19898168Y5466090D01*
X19915438Y5450438D01*
X19931090Y5433168D01*
X19944974Y5414448D01*
X19956956Y5394457D01*
X19966921Y5373387D01*
X19974773Y5351443D01*
X19980437Y5328834D01*
X19983856Y5305779D01*
X19985000Y5282500D01*
X19985000Y4707500D01*
X19983856Y4684221D01*
X19980437Y4661166D01*
X19974773Y4638557D01*
X19966921Y4616613D01*
X19956956Y4595543D01*
X19944974Y4575552D01*
X19931090Y4556832D01*
X19915438Y4539562D01*
X19898168Y4523910D01*
X19879448Y4510026D01*
X19859457Y4498044D01*
X19838387Y4488079D01*
X19816443Y4480227D01*
X19793834Y4474563D01*
X19770779Y4471144D01*
X19747500Y4470000D01*
X19272500Y4470000D01*
X19249221Y4471144D01*
X19226166Y4474563D01*
X19203557Y4480227D01*
X19181613Y4488079D01*
X19160543Y4498044D01*
X19140552Y4510026D01*
X19121832Y4523910D01*
X19104562Y4539562D01*
X19088910Y4556832D01*
X19075026Y4575552D01*
X19063044Y4595543D01*
X19053079Y4616613D01*
X19045227Y4638557D01*
X19039563Y4661166D01*
X19036144Y4684221D01*
X19035000Y4707500D01*
X19035000Y5282500D01*
X19036144Y5305779D01*
X19039563Y5328834D01*
X19045227Y5351443D01*
X19053079Y5373387D01*
X19063044Y5394457D01*
X19075026Y5414448D01*
X19088910Y5433168D01*
X19104562Y5450438D01*
X19121832Y5466090D01*
X19140552Y5479974D01*
X19160543Y5491956D01*
X19181613Y5501921D01*
X19203557Y5509773D01*
X19226166Y5515437D01*
X19249221Y5518856D01*
X19272500Y5520000D01*
X19747500Y5520000D01*
X19770779Y5518856D01*
X19770779Y5518856D01*
G37*
D13*
X19510000Y4995000D03*
G04 #@! TD*
D11*
G04 #@! TO.C,R12*
G36*
X18694504Y9603796D02*
X18718773Y9600196D01*
X18742571Y9594235D01*
X18765671Y9585970D01*
X18787849Y9575480D01*
X18808893Y9562867D01*
X18828598Y9548253D01*
X18846777Y9531777D01*
X18863253Y9513598D01*
X18877867Y9493893D01*
X18890480Y9472849D01*
X18900970Y9450671D01*
X18909235Y9427571D01*
X18915196Y9403773D01*
X18918796Y9379504D01*
X18920000Y9355000D01*
X18920000Y8105000D01*
X18918796Y8080496D01*
X18915196Y8056227D01*
X18909235Y8032429D01*
X18900970Y8009329D01*
X18890480Y7987151D01*
X18877867Y7966107D01*
X18863253Y7946402D01*
X18846777Y7928223D01*
X18828598Y7911747D01*
X18808893Y7897133D01*
X18787849Y7884520D01*
X18765671Y7874030D01*
X18742571Y7865765D01*
X18718773Y7859804D01*
X18694504Y7856204D01*
X18670000Y7855000D01*
X17745000Y7855000D01*
X17720496Y7856204D01*
X17696227Y7859804D01*
X17672429Y7865765D01*
X17649329Y7874030D01*
X17627151Y7884520D01*
X17606107Y7897133D01*
X17586402Y7911747D01*
X17568223Y7928223D01*
X17551747Y7946402D01*
X17537133Y7966107D01*
X17524520Y7987151D01*
X17514030Y8009329D01*
X17505765Y8032429D01*
X17499804Y8056227D01*
X17496204Y8080496D01*
X17495000Y8105000D01*
X17495000Y9355000D01*
X17496204Y9379504D01*
X17499804Y9403773D01*
X17505765Y9427571D01*
X17514030Y9450671D01*
X17524520Y9472849D01*
X17537133Y9493893D01*
X17551747Y9513598D01*
X17568223Y9531777D01*
X17586402Y9548253D01*
X17606107Y9562867D01*
X17627151Y9575480D01*
X17649329Y9585970D01*
X17672429Y9594235D01*
X17696227Y9600196D01*
X17720496Y9603796D01*
X17745000Y9605000D01*
X18670000Y9605000D01*
X18694504Y9603796D01*
X18694504Y9603796D01*
G37*
D20*
X18207500Y8730000D03*
D11*
G36*
X15719504Y9603796D02*
X15743773Y9600196D01*
X15767571Y9594235D01*
X15790671Y9585970D01*
X15812849Y9575480D01*
X15833893Y9562867D01*
X15853598Y9548253D01*
X15871777Y9531777D01*
X15888253Y9513598D01*
X15902867Y9493893D01*
X15915480Y9472849D01*
X15925970Y9450671D01*
X15934235Y9427571D01*
X15940196Y9403773D01*
X15943796Y9379504D01*
X15945000Y9355000D01*
X15945000Y8105000D01*
X15943796Y8080496D01*
X15940196Y8056227D01*
X15934235Y8032429D01*
X15925970Y8009329D01*
X15915480Y7987151D01*
X15902867Y7966107D01*
X15888253Y7946402D01*
X15871777Y7928223D01*
X15853598Y7911747D01*
X15833893Y7897133D01*
X15812849Y7884520D01*
X15790671Y7874030D01*
X15767571Y7865765D01*
X15743773Y7859804D01*
X15719504Y7856204D01*
X15695000Y7855000D01*
X14770000Y7855000D01*
X14745496Y7856204D01*
X14721227Y7859804D01*
X14697429Y7865765D01*
X14674329Y7874030D01*
X14652151Y7884520D01*
X14631107Y7897133D01*
X14611402Y7911747D01*
X14593223Y7928223D01*
X14576747Y7946402D01*
X14562133Y7966107D01*
X14549520Y7987151D01*
X14539030Y8009329D01*
X14530765Y8032429D01*
X14524804Y8056227D01*
X14521204Y8080496D01*
X14520000Y8105000D01*
X14520000Y9355000D01*
X14521204Y9379504D01*
X14524804Y9403773D01*
X14530765Y9427571D01*
X14539030Y9450671D01*
X14549520Y9472849D01*
X14562133Y9493893D01*
X14576747Y9513598D01*
X14593223Y9531777D01*
X14611402Y9548253D01*
X14631107Y9562867D01*
X14652151Y9575480D01*
X14674329Y9585970D01*
X14697429Y9594235D01*
X14721227Y9600196D01*
X14745496Y9603796D01*
X14770000Y9605000D01*
X15695000Y9605000D01*
X15719504Y9603796D01*
X15719504Y9603796D01*
G37*
D20*
X15232500Y8730000D03*
G04 #@! TD*
D11*
G04 #@! TO.C,R13*
G36*
X14230779Y7268856D02*
X14253834Y7265437D01*
X14276443Y7259773D01*
X14298387Y7251921D01*
X14319457Y7241956D01*
X14339448Y7229974D01*
X14358168Y7216090D01*
X14375438Y7200438D01*
X14391090Y7183168D01*
X14404974Y7164448D01*
X14416956Y7144457D01*
X14426921Y7123387D01*
X14434773Y7101443D01*
X14440437Y7078834D01*
X14443856Y7055779D01*
X14445000Y7032500D01*
X14445000Y6457500D01*
X14443856Y6434221D01*
X14440437Y6411166D01*
X14434773Y6388557D01*
X14426921Y6366613D01*
X14416956Y6345543D01*
X14404974Y6325552D01*
X14391090Y6306832D01*
X14375438Y6289562D01*
X14358168Y6273910D01*
X14339448Y6260026D01*
X14319457Y6248044D01*
X14298387Y6238079D01*
X14276443Y6230227D01*
X14253834Y6224563D01*
X14230779Y6221144D01*
X14207500Y6220000D01*
X13732500Y6220000D01*
X13709221Y6221144D01*
X13686166Y6224563D01*
X13663557Y6230227D01*
X13641613Y6238079D01*
X13620543Y6248044D01*
X13600552Y6260026D01*
X13581832Y6273910D01*
X13564562Y6289562D01*
X13548910Y6306832D01*
X13535026Y6325552D01*
X13523044Y6345543D01*
X13513079Y6366613D01*
X13505227Y6388557D01*
X13499563Y6411166D01*
X13496144Y6434221D01*
X13495000Y6457500D01*
X13495000Y7032500D01*
X13496144Y7055779D01*
X13499563Y7078834D01*
X13505227Y7101443D01*
X13513079Y7123387D01*
X13523044Y7144457D01*
X13535026Y7164448D01*
X13548910Y7183168D01*
X13564562Y7200438D01*
X13581832Y7216090D01*
X13600552Y7229974D01*
X13620543Y7241956D01*
X13641613Y7251921D01*
X13663557Y7259773D01*
X13686166Y7265437D01*
X13709221Y7268856D01*
X13732500Y7270000D01*
X14207500Y7270000D01*
X14230779Y7268856D01*
X14230779Y7268856D01*
G37*
D13*
X13970000Y6745000D03*
D11*
G36*
X14230779Y5518856D02*
X14253834Y5515437D01*
X14276443Y5509773D01*
X14298387Y5501921D01*
X14319457Y5491956D01*
X14339448Y5479974D01*
X14358168Y5466090D01*
X14375438Y5450438D01*
X14391090Y5433168D01*
X14404974Y5414448D01*
X14416956Y5394457D01*
X14426921Y5373387D01*
X14434773Y5351443D01*
X14440437Y5328834D01*
X14443856Y5305779D01*
X14445000Y5282500D01*
X14445000Y4707500D01*
X14443856Y4684221D01*
X14440437Y4661166D01*
X14434773Y4638557D01*
X14426921Y4616613D01*
X14416956Y4595543D01*
X14404974Y4575552D01*
X14391090Y4556832D01*
X14375438Y4539562D01*
X14358168Y4523910D01*
X14339448Y4510026D01*
X14319457Y4498044D01*
X14298387Y4488079D01*
X14276443Y4480227D01*
X14253834Y4474563D01*
X14230779Y4471144D01*
X14207500Y4470000D01*
X13732500Y4470000D01*
X13709221Y4471144D01*
X13686166Y4474563D01*
X13663557Y4480227D01*
X13641613Y4488079D01*
X13620543Y4498044D01*
X13600552Y4510026D01*
X13581832Y4523910D01*
X13564562Y4539562D01*
X13548910Y4556832D01*
X13535026Y4575552D01*
X13523044Y4595543D01*
X13513079Y4616613D01*
X13505227Y4638557D01*
X13499563Y4661166D01*
X13496144Y4684221D01*
X13495000Y4707500D01*
X13495000Y5282500D01*
X13496144Y5305779D01*
X13499563Y5328834D01*
X13505227Y5351443D01*
X13513079Y5373387D01*
X13523044Y5394457D01*
X13535026Y5414448D01*
X13548910Y5433168D01*
X13564562Y5450438D01*
X13581832Y5466090D01*
X13600552Y5479974D01*
X13620543Y5491956D01*
X13641613Y5501921D01*
X13663557Y5509773D01*
X13686166Y5515437D01*
X13709221Y5518856D01*
X13732500Y5520000D01*
X14207500Y5520000D01*
X14230779Y5518856D01*
X14230779Y5518856D01*
G37*
D13*
X13970000Y4995000D03*
G04 #@! TD*
D11*
G04 #@! TO.C,R14*
G36*
X12010779Y-6351144D02*
X12033834Y-6354563D01*
X12056443Y-6360227D01*
X12078387Y-6368079D01*
X12099457Y-6378044D01*
X12119448Y-6390026D01*
X12138168Y-6403910D01*
X12155438Y-6419562D01*
X12171090Y-6436832D01*
X12184974Y-6455552D01*
X12196956Y-6475543D01*
X12206921Y-6496613D01*
X12214773Y-6518557D01*
X12220437Y-6541166D01*
X12223856Y-6564221D01*
X12225000Y-6587500D01*
X12225000Y-7162500D01*
X12223856Y-7185779D01*
X12220437Y-7208834D01*
X12214773Y-7231443D01*
X12206921Y-7253387D01*
X12196956Y-7274457D01*
X12184974Y-7294448D01*
X12171090Y-7313168D01*
X12155438Y-7330438D01*
X12138168Y-7346090D01*
X12119448Y-7359974D01*
X12099457Y-7371956D01*
X12078387Y-7381921D01*
X12056443Y-7389773D01*
X12033834Y-7395437D01*
X12010779Y-7398856D01*
X11987500Y-7400000D01*
X11512500Y-7400000D01*
X11489221Y-7398856D01*
X11466166Y-7395437D01*
X11443557Y-7389773D01*
X11421613Y-7381921D01*
X11400543Y-7371956D01*
X11380552Y-7359974D01*
X11361832Y-7346090D01*
X11344562Y-7330438D01*
X11328910Y-7313168D01*
X11315026Y-7294448D01*
X11303044Y-7274457D01*
X11293079Y-7253387D01*
X11285227Y-7231443D01*
X11279563Y-7208834D01*
X11276144Y-7185779D01*
X11275000Y-7162500D01*
X11275000Y-6587500D01*
X11276144Y-6564221D01*
X11279563Y-6541166D01*
X11285227Y-6518557D01*
X11293079Y-6496613D01*
X11303044Y-6475543D01*
X11315026Y-6455552D01*
X11328910Y-6436832D01*
X11344562Y-6419562D01*
X11361832Y-6403910D01*
X11380552Y-6390026D01*
X11400543Y-6378044D01*
X11421613Y-6368079D01*
X11443557Y-6360227D01*
X11466166Y-6354563D01*
X11489221Y-6351144D01*
X11512500Y-6350000D01*
X11987500Y-6350000D01*
X12010779Y-6351144D01*
X12010779Y-6351144D01*
G37*
D13*
X11750000Y-6875000D03*
D11*
G36*
X12010779Y-8101144D02*
X12033834Y-8104563D01*
X12056443Y-8110227D01*
X12078387Y-8118079D01*
X12099457Y-8128044D01*
X12119448Y-8140026D01*
X12138168Y-8153910D01*
X12155438Y-8169562D01*
X12171090Y-8186832D01*
X12184974Y-8205552D01*
X12196956Y-8225543D01*
X12206921Y-8246613D01*
X12214773Y-8268557D01*
X12220437Y-8291166D01*
X12223856Y-8314221D01*
X12225000Y-8337500D01*
X12225000Y-8912500D01*
X12223856Y-8935779D01*
X12220437Y-8958834D01*
X12214773Y-8981443D01*
X12206921Y-9003387D01*
X12196956Y-9024457D01*
X12184974Y-9044448D01*
X12171090Y-9063168D01*
X12155438Y-9080438D01*
X12138168Y-9096090D01*
X12119448Y-9109974D01*
X12099457Y-9121956D01*
X12078387Y-9131921D01*
X12056443Y-9139773D01*
X12033834Y-9145437D01*
X12010779Y-9148856D01*
X11987500Y-9150000D01*
X11512500Y-9150000D01*
X11489221Y-9148856D01*
X11466166Y-9145437D01*
X11443557Y-9139773D01*
X11421613Y-9131921D01*
X11400543Y-9121956D01*
X11380552Y-9109974D01*
X11361832Y-9096090D01*
X11344562Y-9080438D01*
X11328910Y-9063168D01*
X11315026Y-9044448D01*
X11303044Y-9024457D01*
X11293079Y-9003387D01*
X11285227Y-8981443D01*
X11279563Y-8958834D01*
X11276144Y-8935779D01*
X11275000Y-8912500D01*
X11275000Y-8337500D01*
X11276144Y-8314221D01*
X11279563Y-8291166D01*
X11285227Y-8268557D01*
X11293079Y-8246613D01*
X11303044Y-8225543D01*
X11315026Y-8205552D01*
X11328910Y-8186832D01*
X11344562Y-8169562D01*
X11361832Y-8153910D01*
X11380552Y-8140026D01*
X11400543Y-8128044D01*
X11421613Y-8118079D01*
X11443557Y-8110227D01*
X11466166Y-8104563D01*
X11489221Y-8101144D01*
X11512500Y-8100000D01*
X11987500Y-8100000D01*
X12010779Y-8101144D01*
X12010779Y-8101144D01*
G37*
D13*
X11750000Y-8625000D03*
G04 #@! TD*
D11*
G04 #@! TO.C,R15*
G36*
X13760779Y-6351144D02*
X13783834Y-6354563D01*
X13806443Y-6360227D01*
X13828387Y-6368079D01*
X13849457Y-6378044D01*
X13869448Y-6390026D01*
X13888168Y-6403910D01*
X13905438Y-6419562D01*
X13921090Y-6436832D01*
X13934974Y-6455552D01*
X13946956Y-6475543D01*
X13956921Y-6496613D01*
X13964773Y-6518557D01*
X13970437Y-6541166D01*
X13973856Y-6564221D01*
X13975000Y-6587500D01*
X13975000Y-7162500D01*
X13973856Y-7185779D01*
X13970437Y-7208834D01*
X13964773Y-7231443D01*
X13956921Y-7253387D01*
X13946956Y-7274457D01*
X13934974Y-7294448D01*
X13921090Y-7313168D01*
X13905438Y-7330438D01*
X13888168Y-7346090D01*
X13869448Y-7359974D01*
X13849457Y-7371956D01*
X13828387Y-7381921D01*
X13806443Y-7389773D01*
X13783834Y-7395437D01*
X13760779Y-7398856D01*
X13737500Y-7400000D01*
X13262500Y-7400000D01*
X13239221Y-7398856D01*
X13216166Y-7395437D01*
X13193557Y-7389773D01*
X13171613Y-7381921D01*
X13150543Y-7371956D01*
X13130552Y-7359974D01*
X13111832Y-7346090D01*
X13094562Y-7330438D01*
X13078910Y-7313168D01*
X13065026Y-7294448D01*
X13053044Y-7274457D01*
X13043079Y-7253387D01*
X13035227Y-7231443D01*
X13029563Y-7208834D01*
X13026144Y-7185779D01*
X13025000Y-7162500D01*
X13025000Y-6587500D01*
X13026144Y-6564221D01*
X13029563Y-6541166D01*
X13035227Y-6518557D01*
X13043079Y-6496613D01*
X13053044Y-6475543D01*
X13065026Y-6455552D01*
X13078910Y-6436832D01*
X13094562Y-6419562D01*
X13111832Y-6403910D01*
X13130552Y-6390026D01*
X13150543Y-6378044D01*
X13171613Y-6368079D01*
X13193557Y-6360227D01*
X13216166Y-6354563D01*
X13239221Y-6351144D01*
X13262500Y-6350000D01*
X13737500Y-6350000D01*
X13760779Y-6351144D01*
X13760779Y-6351144D01*
G37*
D13*
X13500000Y-6875000D03*
D11*
G36*
X13760779Y-8101144D02*
X13783834Y-8104563D01*
X13806443Y-8110227D01*
X13828387Y-8118079D01*
X13849457Y-8128044D01*
X13869448Y-8140026D01*
X13888168Y-8153910D01*
X13905438Y-8169562D01*
X13921090Y-8186832D01*
X13934974Y-8205552D01*
X13946956Y-8225543D01*
X13956921Y-8246613D01*
X13964773Y-8268557D01*
X13970437Y-8291166D01*
X13973856Y-8314221D01*
X13975000Y-8337500D01*
X13975000Y-8912500D01*
X13973856Y-8935779D01*
X13970437Y-8958834D01*
X13964773Y-8981443D01*
X13956921Y-9003387D01*
X13946956Y-9024457D01*
X13934974Y-9044448D01*
X13921090Y-9063168D01*
X13905438Y-9080438D01*
X13888168Y-9096090D01*
X13869448Y-9109974D01*
X13849457Y-9121956D01*
X13828387Y-9131921D01*
X13806443Y-9139773D01*
X13783834Y-9145437D01*
X13760779Y-9148856D01*
X13737500Y-9150000D01*
X13262500Y-9150000D01*
X13239221Y-9148856D01*
X13216166Y-9145437D01*
X13193557Y-9139773D01*
X13171613Y-9131921D01*
X13150543Y-9121956D01*
X13130552Y-9109974D01*
X13111832Y-9096090D01*
X13094562Y-9080438D01*
X13078910Y-9063168D01*
X13065026Y-9044448D01*
X13053044Y-9024457D01*
X13043079Y-9003387D01*
X13035227Y-8981443D01*
X13029563Y-8958834D01*
X13026144Y-8935779D01*
X13025000Y-8912500D01*
X13025000Y-8337500D01*
X13026144Y-8314221D01*
X13029563Y-8291166D01*
X13035227Y-8268557D01*
X13043079Y-8246613D01*
X13053044Y-8225543D01*
X13065026Y-8205552D01*
X13078910Y-8186832D01*
X13094562Y-8169562D01*
X13111832Y-8153910D01*
X13130552Y-8140026D01*
X13150543Y-8128044D01*
X13171613Y-8118079D01*
X13193557Y-8110227D01*
X13216166Y-8104563D01*
X13239221Y-8101144D01*
X13262500Y-8100000D01*
X13737500Y-8100000D01*
X13760779Y-8101144D01*
X13760779Y-8101144D01*
G37*
D13*
X13500000Y-8625000D03*
G04 #@! TD*
D11*
G04 #@! TO.C,R17*
G36*
X10949505Y9498796D02*
X10973773Y9495196D01*
X10997572Y9489235D01*
X11020671Y9480970D01*
X11042850Y9470480D01*
X11063893Y9457868D01*
X11083599Y9443253D01*
X11101777Y9426777D01*
X11118253Y9408599D01*
X11132868Y9388893D01*
X11145480Y9367850D01*
X11155970Y9345671D01*
X11164235Y9322572D01*
X11170196Y9298773D01*
X11173796Y9274505D01*
X11175000Y9250001D01*
X11175000Y8224999D01*
X11173796Y8200495D01*
X11170196Y8176227D01*
X11164235Y8152428D01*
X11155970Y8129329D01*
X11145480Y8107150D01*
X11132868Y8086107D01*
X11118253Y8066401D01*
X11101777Y8048223D01*
X11083599Y8031747D01*
X11063893Y8017132D01*
X11042850Y8004520D01*
X11020671Y7994030D01*
X10997572Y7985765D01*
X10973773Y7979804D01*
X10949505Y7976204D01*
X10925001Y7975000D01*
X8074999Y7975000D01*
X8050495Y7976204D01*
X8026227Y7979804D01*
X8002428Y7985765D01*
X7979329Y7994030D01*
X7957150Y8004520D01*
X7936107Y8017132D01*
X7916401Y8031747D01*
X7898223Y8048223D01*
X7881747Y8066401D01*
X7867132Y8086107D01*
X7854520Y8107150D01*
X7844030Y8129329D01*
X7835765Y8152428D01*
X7829804Y8176227D01*
X7826204Y8200495D01*
X7825000Y8224999D01*
X7825000Y9250001D01*
X7826204Y9274505D01*
X7829804Y9298773D01*
X7835765Y9322572D01*
X7844030Y9345671D01*
X7854520Y9367850D01*
X7867132Y9388893D01*
X7881747Y9408599D01*
X7898223Y9426777D01*
X7916401Y9443253D01*
X7936107Y9457868D01*
X7957150Y9470480D01*
X7979329Y9480970D01*
X8002428Y9489235D01*
X8026227Y9495196D01*
X8050495Y9498796D01*
X8074999Y9500000D01*
X10925001Y9500000D01*
X10949505Y9498796D01*
X10949505Y9498796D01*
G37*
D21*
X9500000Y8737500D03*
D11*
G36*
X10949505Y3523796D02*
X10973773Y3520196D01*
X10997572Y3514235D01*
X11020671Y3505970D01*
X11042850Y3495480D01*
X11063893Y3482868D01*
X11083599Y3468253D01*
X11101777Y3451777D01*
X11118253Y3433599D01*
X11132868Y3413893D01*
X11145480Y3392850D01*
X11155970Y3370671D01*
X11164235Y3347572D01*
X11170196Y3323773D01*
X11173796Y3299505D01*
X11175000Y3275001D01*
X11175000Y2249999D01*
X11173796Y2225495D01*
X11170196Y2201227D01*
X11164235Y2177428D01*
X11155970Y2154329D01*
X11145480Y2132150D01*
X11132868Y2111107D01*
X11118253Y2091401D01*
X11101777Y2073223D01*
X11083599Y2056747D01*
X11063893Y2042132D01*
X11042850Y2029520D01*
X11020671Y2019030D01*
X10997572Y2010765D01*
X10973773Y2004804D01*
X10949505Y2001204D01*
X10925001Y2000000D01*
X8074999Y2000000D01*
X8050495Y2001204D01*
X8026227Y2004804D01*
X8002428Y2010765D01*
X7979329Y2019030D01*
X7957150Y2029520D01*
X7936107Y2042132D01*
X7916401Y2056747D01*
X7898223Y2073223D01*
X7881747Y2091401D01*
X7867132Y2111107D01*
X7854520Y2132150D01*
X7844030Y2154329D01*
X7835765Y2177428D01*
X7829804Y2201227D01*
X7826204Y2225495D01*
X7825000Y2249999D01*
X7825000Y3275001D01*
X7826204Y3299505D01*
X7829804Y3323773D01*
X7835765Y3347572D01*
X7844030Y3370671D01*
X7854520Y3392850D01*
X7867132Y3413893D01*
X7881747Y3433599D01*
X7898223Y3451777D01*
X7916401Y3468253D01*
X7936107Y3482868D01*
X7957150Y3495480D01*
X7979329Y3505970D01*
X8002428Y3514235D01*
X8026227Y3520196D01*
X8050495Y3523796D01*
X8074999Y3525000D01*
X10925001Y3525000D01*
X10949505Y3523796D01*
X10949505Y3523796D01*
G37*
D21*
X9500000Y2762500D03*
G04 #@! TD*
D11*
G04 #@! TO.C,R20*
G36*
X6010779Y6398856D02*
X6033834Y6395437D01*
X6056443Y6389773D01*
X6078387Y6381921D01*
X6099457Y6371956D01*
X6119448Y6359974D01*
X6138168Y6346090D01*
X6155438Y6330438D01*
X6171090Y6313168D01*
X6184974Y6294448D01*
X6196956Y6274457D01*
X6206921Y6253387D01*
X6214773Y6231443D01*
X6220437Y6208834D01*
X6223856Y6185779D01*
X6225000Y6162500D01*
X6225000Y5587500D01*
X6223856Y5564221D01*
X6220437Y5541166D01*
X6214773Y5518557D01*
X6206921Y5496613D01*
X6196956Y5475543D01*
X6184974Y5455552D01*
X6171090Y5436832D01*
X6155438Y5419562D01*
X6138168Y5403910D01*
X6119448Y5390026D01*
X6099457Y5378044D01*
X6078387Y5368079D01*
X6056443Y5360227D01*
X6033834Y5354563D01*
X6010779Y5351144D01*
X5987500Y5350000D01*
X5512500Y5350000D01*
X5489221Y5351144D01*
X5466166Y5354563D01*
X5443557Y5360227D01*
X5421613Y5368079D01*
X5400543Y5378044D01*
X5380552Y5390026D01*
X5361832Y5403910D01*
X5344562Y5419562D01*
X5328910Y5436832D01*
X5315026Y5455552D01*
X5303044Y5475543D01*
X5293079Y5496613D01*
X5285227Y5518557D01*
X5279563Y5541166D01*
X5276144Y5564221D01*
X5275000Y5587500D01*
X5275000Y6162500D01*
X5276144Y6185779D01*
X5279563Y6208834D01*
X5285227Y6231443D01*
X5293079Y6253387D01*
X5303044Y6274457D01*
X5315026Y6294448D01*
X5328910Y6313168D01*
X5344562Y6330438D01*
X5361832Y6346090D01*
X5380552Y6359974D01*
X5400543Y6371956D01*
X5421613Y6381921D01*
X5443557Y6389773D01*
X5466166Y6395437D01*
X5489221Y6398856D01*
X5512500Y6400000D01*
X5987500Y6400000D01*
X6010779Y6398856D01*
X6010779Y6398856D01*
G37*
D13*
X5750000Y5875000D03*
D11*
G36*
X6010779Y4648856D02*
X6033834Y4645437D01*
X6056443Y4639773D01*
X6078387Y4631921D01*
X6099457Y4621956D01*
X6119448Y4609974D01*
X6138168Y4596090D01*
X6155438Y4580438D01*
X6171090Y4563168D01*
X6184974Y4544448D01*
X6196956Y4524457D01*
X6206921Y4503387D01*
X6214773Y4481443D01*
X6220437Y4458834D01*
X6223856Y4435779D01*
X6225000Y4412500D01*
X6225000Y3837500D01*
X6223856Y3814221D01*
X6220437Y3791166D01*
X6214773Y3768557D01*
X6206921Y3746613D01*
X6196956Y3725543D01*
X6184974Y3705552D01*
X6171090Y3686832D01*
X6155438Y3669562D01*
X6138168Y3653910D01*
X6119448Y3640026D01*
X6099457Y3628044D01*
X6078387Y3618079D01*
X6056443Y3610227D01*
X6033834Y3604563D01*
X6010779Y3601144D01*
X5987500Y3600000D01*
X5512500Y3600000D01*
X5489221Y3601144D01*
X5466166Y3604563D01*
X5443557Y3610227D01*
X5421613Y3618079D01*
X5400543Y3628044D01*
X5380552Y3640026D01*
X5361832Y3653910D01*
X5344562Y3669562D01*
X5328910Y3686832D01*
X5315026Y3705552D01*
X5303044Y3725543D01*
X5293079Y3746613D01*
X5285227Y3768557D01*
X5279563Y3791166D01*
X5276144Y3814221D01*
X5275000Y3837500D01*
X5275000Y4412500D01*
X5276144Y4435779D01*
X5279563Y4458834D01*
X5285227Y4481443D01*
X5293079Y4503387D01*
X5303044Y4524457D01*
X5315026Y4544448D01*
X5328910Y4563168D01*
X5344562Y4580438D01*
X5361832Y4596090D01*
X5380552Y4609974D01*
X5400543Y4621956D01*
X5421613Y4631921D01*
X5443557Y4639773D01*
X5466166Y4645437D01*
X5489221Y4648856D01*
X5512500Y4650000D01*
X5987500Y4650000D01*
X6010779Y4648856D01*
X6010779Y4648856D01*
G37*
D13*
X5750000Y4125000D03*
G04 #@! TD*
D11*
G04 #@! TO.C,R21*
G36*
X4435779Y4723856D02*
X4458834Y4720437D01*
X4481443Y4714773D01*
X4503387Y4706921D01*
X4524457Y4696956D01*
X4544448Y4684974D01*
X4563168Y4671090D01*
X4580438Y4655438D01*
X4596090Y4638168D01*
X4609974Y4619448D01*
X4621956Y4599457D01*
X4631921Y4578387D01*
X4639773Y4556443D01*
X4645437Y4533834D01*
X4648856Y4510779D01*
X4650000Y4487500D01*
X4650000Y4012500D01*
X4648856Y3989221D01*
X4645437Y3966166D01*
X4639773Y3943557D01*
X4631921Y3921613D01*
X4621956Y3900543D01*
X4609974Y3880552D01*
X4596090Y3861832D01*
X4580438Y3844562D01*
X4563168Y3828910D01*
X4544448Y3815026D01*
X4524457Y3803044D01*
X4503387Y3793079D01*
X4481443Y3785227D01*
X4458834Y3779563D01*
X4435779Y3776144D01*
X4412500Y3775000D01*
X3837500Y3775000D01*
X3814221Y3776144D01*
X3791166Y3779563D01*
X3768557Y3785227D01*
X3746613Y3793079D01*
X3725543Y3803044D01*
X3705552Y3815026D01*
X3686832Y3828910D01*
X3669562Y3844562D01*
X3653910Y3861832D01*
X3640026Y3880552D01*
X3628044Y3900543D01*
X3618079Y3921613D01*
X3610227Y3943557D01*
X3604563Y3966166D01*
X3601144Y3989221D01*
X3600000Y4012500D01*
X3600000Y4487500D01*
X3601144Y4510779D01*
X3604563Y4533834D01*
X3610227Y4556443D01*
X3618079Y4578387D01*
X3628044Y4599457D01*
X3640026Y4619448D01*
X3653910Y4638168D01*
X3669562Y4655438D01*
X3686832Y4671090D01*
X3705552Y4684974D01*
X3725543Y4696956D01*
X3746613Y4706921D01*
X3768557Y4714773D01*
X3791166Y4720437D01*
X3814221Y4723856D01*
X3837500Y4725000D01*
X4412500Y4725000D01*
X4435779Y4723856D01*
X4435779Y4723856D01*
G37*
D13*
X4125000Y4250000D03*
D11*
G36*
X2685779Y4723856D02*
X2708834Y4720437D01*
X2731443Y4714773D01*
X2753387Y4706921D01*
X2774457Y4696956D01*
X2794448Y4684974D01*
X2813168Y4671090D01*
X2830438Y4655438D01*
X2846090Y4638168D01*
X2859974Y4619448D01*
X2871956Y4599457D01*
X2881921Y4578387D01*
X2889773Y4556443D01*
X2895437Y4533834D01*
X2898856Y4510779D01*
X2900000Y4487500D01*
X2900000Y4012500D01*
X2898856Y3989221D01*
X2895437Y3966166D01*
X2889773Y3943557D01*
X2881921Y3921613D01*
X2871956Y3900543D01*
X2859974Y3880552D01*
X2846090Y3861832D01*
X2830438Y3844562D01*
X2813168Y3828910D01*
X2794448Y3815026D01*
X2774457Y3803044D01*
X2753387Y3793079D01*
X2731443Y3785227D01*
X2708834Y3779563D01*
X2685779Y3776144D01*
X2662500Y3775000D01*
X2087500Y3775000D01*
X2064221Y3776144D01*
X2041166Y3779563D01*
X2018557Y3785227D01*
X1996613Y3793079D01*
X1975543Y3803044D01*
X1955552Y3815026D01*
X1936832Y3828910D01*
X1919562Y3844562D01*
X1903910Y3861832D01*
X1890026Y3880552D01*
X1878044Y3900543D01*
X1868079Y3921613D01*
X1860227Y3943557D01*
X1854563Y3966166D01*
X1851144Y3989221D01*
X1850000Y4012500D01*
X1850000Y4487500D01*
X1851144Y4510779D01*
X1854563Y4533834D01*
X1860227Y4556443D01*
X1868079Y4578387D01*
X1878044Y4599457D01*
X1890026Y4619448D01*
X1903910Y4638168D01*
X1919562Y4655438D01*
X1936832Y4671090D01*
X1955552Y4684974D01*
X1975543Y4696956D01*
X1996613Y4706921D01*
X2018557Y4714773D01*
X2041166Y4720437D01*
X2064221Y4723856D01*
X2087500Y4725000D01*
X2662500Y4725000D01*
X2685779Y4723856D01*
X2685779Y4723856D01*
G37*
D13*
X2375000Y4250000D03*
G04 #@! TD*
D22*
G04 #@! TO.C,U2*
X-14000000Y4500000D03*
X-12100000Y4500000D03*
X-12100000Y1880000D03*
X-13050000Y1880000D03*
X-14000000Y1880000D03*
G04 #@! TD*
D23*
G04 #@! TO.C,U3*
X-4050000Y4650000D03*
X-5950000Y4650000D03*
X-5950000Y6850000D03*
X-5000000Y6850000D03*
X-4050000Y6850000D03*
G04 #@! TD*
G04 #@! TO.C,U4*
X-4050000Y-3100000D03*
X-5950000Y-3100000D03*
X-5950000Y-900000D03*
X-5000000Y-900000D03*
X-4050000Y-900000D03*
G04 #@! TD*
G04 #@! TO.C,U5*
X-4300000Y-12600000D03*
X-6200000Y-12600000D03*
X-6200000Y-10400000D03*
X-5250000Y-10400000D03*
X-4300000Y-10400000D03*
G04 #@! TD*
G04 #@! TO.C,U6*
X-4300000Y-20950000D03*
X-6200000Y-20950000D03*
X-6200000Y-18750000D03*
X-5250000Y-18750000D03*
X-4300000Y-18750000D03*
G04 #@! TD*
D24*
G04 #@! TO.C,U7*
X15650000Y2300000D03*
X15650000Y4200000D03*
X17850000Y4200000D03*
X17850000Y3250000D03*
X17850000Y2300000D03*
G04 #@! TD*
D25*
G04 #@! TO.C,U8*
X11750000Y-2814400D03*
D26*
X10759400Y-630000D03*
X11242000Y-630000D03*
X11750000Y-630000D03*
X12258000Y-630000D03*
X12740600Y-630000D03*
X12740600Y-4998800D03*
X12258000Y-4998800D03*
X11750000Y-4998800D03*
X11242000Y-4998800D03*
X10759400Y-4998800D03*
G04 #@! TD*
D10*
G04 #@! TO.C,IC1*
X19525000Y-4050000D03*
X20175000Y-4050000D03*
X20825000Y-4050000D03*
X21475000Y-4050000D03*
X21475000Y-8450000D03*
X20825000Y-8450000D03*
X20175000Y-8450000D03*
X19525000Y-8450000D03*
G04 #@! TD*
D27*
G04 #@! TO.C,U1*
X2300000Y10200000D03*
X3250000Y10200000D03*
X4200000Y10200000D03*
X4200000Y12800000D03*
X2300000Y12800000D03*
G04 #@! TD*
M02*
