  0
SECTION
  2
HEADER
  9
$ACADVER
  1
AC1014
  9
$HANDSEED
  5
FFFF
  9
$MEASUREMENT
 70
     1
  0
ENDSEC
  0
SECTION
  2
TABLES
  0
TABLE
  2
VPORT
  5
8
330
0
100
AcDbSymbolTable
 70
     4
  0
VPORT
  5
2E
330
8
100
AcDbSymbolTableRecord
100
AcDbViewportTableRecord
  2
*ACTIVE
 70
     0
 10
0.0
 20
0.0
 11
1.0
 21
1.0
 12
210.0
 22
148.5
 13
0.0
 23
0.0
 14
10.0
 24
10.0
 15
10.0
 25
10.0
 16
0.0
 26
0.0
 36
1.0
 17
0.0
 27
0.0
 37
0.0
 40
341.0
 41
1.24
 42
50.0
 43
0.0
 44
0.0
 50
0.0
 51
0.0
 71
     0
 72
   100
 73
     1
 74
     3
 75
     0
 76
     0
 77
     0
 78
     0
  0
ENDTAB
  0
TABLE
  2
LTYPE
  5
5
330
0
100
AcDbSymbolTable
 70
     1
  0
LTYPE
  5
14
330
5
100
AcDbSymbolTableRecord
100
AcDbLinetypeTableRecord
  2
BYBLOCK
 70
     0
  3

 72
    65
 73
     0
 40
0.0
  0
LTYPE
  5
15
330
5
100
AcDbSymbolTableRecord
100
AcDbLinetypeTableRecord
  2
BYLAYER
 70
     0
  3

 72
    65
 73
     0
 40
0.0
  0
LTYPE
  5
16
330
5
100
AcDbSymbolTableRecord
100
AcDbLinetypeTableRecord
  2
CONTINUOUS
 70
     0
  3
Solid line
 72
    65
 73
     0
 40
0.0
  0
ENDTAB
  0
TABLE
  2
LAYER
  5
2
100
AcDbSymbolTable
 70
2
  0
LAYER
  5
50
100
AcDbSymbolTableRecord
100
AcDbLayerTableRecord
  2
0
 70
0
  6
CONTINUOUS
  0
LAYER
  5
51
100
AcDbSymbolTableRecord
100
AcDbLayerTableRecord
  2
Capa_1
 70
0
  6
CONTINUOUS
  0
ENDTAB
  0
TABLE
  2
STYLE
  5
3
330
0
100
AcDbSymbolTable
 70
     1
  0
STYLE
  5
11
330
3
100
AcDbSymbolTableRecord
100
AcDbTextStyleTableRecord
  2
STANDARD
 70
     0
 40
0.0
 41
1.0
 50
0.0
 71
     0
 42
2.5
  3
txt
  4

  0
ENDTAB
  0
TABLE
  2
VIEW
  5
6
330
0
100
AcDbSymbolTable
 70
     0
  0
ENDTAB
  0
TABLE
  2
UCS
  5
7
330
0
100
AcDbSymbolTable
 70
     0
  0
ENDTAB
  0
TABLE
  2
APPID
  5
9
330
0
100
AcDbSymbolTable
 70
     2
  0
APPID
  5
12
330
9
100
AcDbSymbolTableRecord
100
AcDbRegAppTableRecord
  2
ACAD
 70
     0
  0
ENDTAB
  0
TABLE
  2
DIMSTYLE
  5
A
330
0
100
AcDbSymbolTable
 70
     1
  0
DIMSTYLE
105
27
330
A
100
AcDbSymbolTableRecord
100
AcDbDimStyleTableRecord
  2
ISO-25
 70
     0
  3

  4

  5

  6

  7

 40
1.0
 41
2.5
 42
0.625
 43
3.75
 44
1.25
 45
0.0
 46
0.0
 47
0.0
 48
0.0
140
2.5
141
2.5
142
0.0
143
0.03937007874016
144
1.0
145
0.0
146
1.0
147
0.625
 71
     0
 72
     0
 73
     0
 74
     0
 75
     0
 76
     0
 77
     1
 78
     8
170
     0
171
     3
172
     1
173
     0
174
     0
175
     0
176
     0
177
     0
178
     0
270
     2
271
     2
272
     2
273
     2
274
     3
340
11
275
     0
280
     0
281
     0
282
     0
283
     0
284
     8
285
     0
286
     0
287
     3
288
     0
  0
ENDTAB
  0
TABLE
  2
BLOCK_RECORD
  5
1
330
0
100
AcDbSymbolTable
 70
     1
  0
BLOCK_RECORD
  5
1F
330
1
100
AcDbSymbolTableRecord
100
AcDbBlockTableRecord
  2
*MODEL_SPACE
  0
BLOCK_RECORD
  5
1B
330
1
100
AcDbSymbolTableRecord
100
AcDbBlockTableRecord
  2
*PAPER_SPACE
  0
ENDTAB
  0
ENDSEC
  0
SECTION
  2
BLOCKS
  0
BLOCK
  5
20
330
1F
100
AcDbEntity
  8
0
100
AcDbBlockBegin
  2
*MODEL_SPACE
 70
     0
 10
0.0
 20
0.0
 30
0.0
  3
*MODEL_SPACE
  1

  0
ENDBLK
  5
21
330
1F
100
AcDbEntity
  8
0
100
AcDbBlockEnd
  0
BLOCK
  5
1C
330
1B
100
AcDbEntity
 67
     1
  8
0
100
AcDbBlockBegin
  2
*PAPER_SPACE
  1

  0
ENDBLK
  5
1D
330
1B
100
AcDbEntity
 67
     1
  8
0
100
AcDbBlockEnd
  0
ENDSEC
  0
SECTION
  2
ENTITIES
  0
SPLINE
  5
100
100
AcDbEntity
  8
Capa_1
 62
7
100
AcDbSpline
 70
8
 71
3
 72
8
 73
4
 74
0
 40
0
 40
0
 40
0
 40
0
 40
1
 40
1
 40
1
 40
1
 10
1.116488
 20
9.095053
 30
0.0
 10
1.095836
 20
9.080614
 30
0.0
 10
1.074227
 20
9.070296
 30
0.0
 10
1.051659
 20
9.064098
 30
0.0
  0
SPLINE
  5
101
100
AcDbEntity
  8
Capa_1
 62
7
100
AcDbSpline
 70
8
 71
3
 72
8
 73
4
 74
0
 40
0
 40
0
 40
0
 40
0
 40
1
 40
1
 40
1
 40
1
 10
1.051659
 20
9.064098
 30
0.0
 10
1.029091
 20
9.057968
 30
0.0
 10
1.001307
 20
9.054903
 30
0.0
 10
0.968307
 20
9.054903
 30
0.0
  0
LWPOLYLINE
  5
102
100
AcDbEntity
  8
Capa_1
 62
7
100
AcDbPolyline
 90
12
 70
1
 10
0.717932
 20
9.245709
 30
0.0
 10
0.543883
 20
9.245709
 30
0.0
 10
0.543883
 20
9.064057
 30
0.0
 10
0.490870
 20
9.064057
 30
0.0
 10
0.490870
 20
9.245709
 30
0.0
 10
0.316821
 20
9.245709
 30
0.0
 10
0.316821
 20
9.299037
 30
0.0
 10
0.490870
 20
9.299037
 30
0.0
 10
0.490870
 20
9.480688
 30
0.0
 10
0.543883
 20
9.480688
 30
0.0
 10
0.543883
 20
9.299037
 30
0.0
 10
0.717932
 20
9.299037
 30
0.0
  0
SPLINE
  5
103
100
AcDbEntity
  8
Capa_1
 62
7
100
AcDbSpline
 70
8
 71
3
 72
8
 73
4
 74
0
 40
0
 40
0
 40
0
 40
0
 40
1
 40
1
 40
1
 40
1
 10
1.039843
 20
9.551343
 30
0.0
 10
1.074546
 20
9.551343
 30
0.0
 10
1.100308
 20
9.549981
 30
0.0
 10
1.117127
 20
9.547256
 30
0.0
  0
SPLINE
  5
104
100
AcDbEntity
  8
Capa_1
 62
7
100
AcDbSpline
 70
8
 71
3
 72
8
 73
4
 74
0
 40
0
 40
0
 40
0
 40
0
 40
1
 40
1
 40
1
 40
1
 10
1.117127
 20
9.547256
 30
0.0
 10
1.134159
 20
9.544532
 30
0.0
 10
1.149701
 20
9.538879
 30
0.0
 10
1.163753
 20
9.530298
 30
0.0
  0
SPLINE
  5
105
100
AcDbEntity
  8
Capa_1
 62
7
100
AcDbSpline
 70
8
 71
3
 72
8
 73
4
 74
0
 40
0
 40
0
 40
0
 40
0
 40
1
 40
1
 40
1
 40
1
 10
1.163753
 20
9.530298
 30
0.0
 10
1.175462
 20
9.522738
 30
0.0
 10
1.184191
 20
9.513067
 30
0.0
 10
1.189940
 20
9.501284
 30
0.0
  0
SPLINE
  5
106
100
AcDbEntity
  8
Capa_1
 62
7
100
AcDbSpline
 70
8
 71
3
 72
8
 73
4
 74
0
 40
0
 40
0
 40
0
 40
0
 40
1
 40
1
 40
1
 40
1
 10
1.189940
 20
9.501284
 30
0.0
 10
1.195904
 20
9.489706
 30
0.0
 10
1.198886
 20
9.476834
 30
0.0
 10
1.198886
 20
9.462667
 30
0.0
  0
SPLINE
  5
107
100
AcDbEntity
  8
Capa_1
 62
7
100
AcDbSpline
 70
8
 71
3
 72
8
 73
4
 74
0
 40
0
 40
0
 40
0
 40
0
 40
1
 40
1
 40
1
 40
1
 10
1.198886
 20
9.462667
 30
0.0
 10
1.198886
 20
9.433994
 30
0.0
 10
1.191115
 20
9.408658
 30
0.0
 10
1.175573
 20
9.386660
 30
0.0
  0
SPLINE
  5
108
100
AcDbEntity
  8
Capa_1
 62
7
100
AcDbSpline
 70
8
 71
3
 72
8
 73
4
 74
0
 40
0
 40
0
 40
0
 40
0
 40
1
 40
1
 40
1
 40
1
 10
1.175573
 20
9.386660
 30
0.0
 10
1.160031
 20
9.364661
 30
0.0
 10
1.138528
 20
9.347669
 30
0.0
 10
1.111063
 20
9.335682
 30
0.0
  0
LWPOLYLINE
  5
109
100
AcDbEntity
  8
Capa_1
 62
7
100
AcDbPolyline
 90
4
 70
0
 10
0.968307
 20
9.054903
 30
0.0
 10
0.793619
 20
9.054903
 30
0.0
 10
0.903159
 20
9.551343
 30
0.0
 10
1.039843
 20
9.551343
 30
0.0
  0
SPLINE
  5
10a
100
AcDbEntity
  8
Capa_1
 62
7
100
AcDbSpline
 70
8
 71
3
 72
8
 73
4
 74
0
 40
0
 40
0
 40
0
 40
0
 40
1
 40
1
 40
1
 40
1
 10
1.111063
 20
9.332617
 30
0.0
 10
1.136612
 20
9.326487
 30
0.0
 10
1.156092
 20
9.315284
 30
0.0
 10
1.169505
 20
9.299006
 30
0.0
  0
SPLINE
  5
10b
100
AcDbEntity
  8
Capa_1
 62
7
100
AcDbSpline
 70
8
 71
3
 72
8
 73
4
 74
0
 40
0
 40
0
 40
0
 40
0
 40
1
 40
1
 40
1
 40
1
 10
1.169505
 20
9.299006
 30
0.0
 10
1.183131
 20
9.282592
 30
0.0
 10
1.189944
 20
9.261479
 30
0.0
 10
1.189944
 20
9.235666
 30
0.0
  0
SPLINE
  5
10c
100
AcDbEntity
  8
Capa_1
 62
7
100
AcDbSpline
 70
8
 71
3
 72
8
 73
4
 74
0
 40
0
 40
0
 40
0
 40
0
 40
1
 40
1
 40
1
 40
1
 10
1.189944
 20
9.235666
 30
0.0
 10
1.189944
 20
9.207470
 30
0.0
 10
1.183131
 20
9.180704
 30
0.0
 10
1.169505
 20
9.155368
 30
0.0
  0
SPLINE
  5
10d
100
AcDbEntity
  8
Capa_1
 62
7
100
AcDbSpline
 70
8
 71
3
 72
8
 73
4
 74
0
 40
0
 40
0
 40
0
 40
0
 40
1
 40
1
 40
1
 40
1
 10
1.169505
 20
9.155368
 30
0.0
 10
1.156092
 20
9.130237
 30
0.0
 10
1.138421
 20
9.109907
 30
0.0
 10
1.116492
 20
9.094378
 30
0.0
  0
LWPOLYLINE
  5
10e
100
AcDbEntity
  8
Capa_1
 62
7
100
AcDbPolyline
 90
2
 70
0
 10
1.111063
 20
9.335682
 30
0.0
 10
1.111063
 20
9.332617
 30
0.0
  0
SPLINE
  5
10f
100
AcDbEntity
  8
Capa_1
 62
7
100
AcDbSpline
 70
8
 71
3
 72
8
 73
4
 74
0
 40
0
 40
0
 40
0
 40
0
 40
1
 40
1
 40
1
 40
1
 10
1.130221
 20
9.444687
 30
0.0
 10
1.130221
 20
9.454018
 30
0.0
 10
1.128729
 20
9.461680
 30
0.0
 10
1.125747
 20
9.467673
 30
0.0
  0
SPLINE
  5
110
100
AcDbEntity
  8
Capa_1
 62
7
100
AcDbSpline
 70
8
 71
3
 72
8
 73
4
 74
0
 40
0
 40
0
 40
0
 40
0
 40
1
 40
1
 40
1
 40
1
 10
1.125747
 20
9.467673
 30
0.0
 10
1.122765
 20
9.473803
 30
0.0
 10
1.118507
 20
9.478911
 30
0.0
 10
1.112973
 20
9.482997
 30
0.0
  0
SPLINE
  5
111
100
AcDbEntity
  8
Capa_1
 62
7
100
AcDbSpline
 70
8
 71
3
 72
8
 73
4
 74
0
 40
0
 40
0
 40
0
 40
0
 40
1
 40
1
 40
1
 40
1
 10
1.112973
 20
9.482997
 30
0.0
 10
1.104031
 20
9.489127
 30
0.0
 10
1.092854
 20
9.493009
 30
0.0
 10
1.079441
 20
9.494644
 30
0.0
  0
SPLINE
  5
112
100
AcDbEntity
  8
Capa_1
 62
7
100
AcDbSpline
 70
8
 71
3
 72
8
 73
4
 74
0
 40
0
 40
0
 40
0
 40
0
 40
1
 40
1
 40
1
 40
1
 10
1.079441
 20
9.494644
 30
0.0
 10
1.066028
 20
9.496687
 30
0.0
 10
1.048676
 20
9.497708
 30
0.0
 10
1.027385
 20
9.497708
 30
0.0
  0
LWPOLYLINE
  5
113
100
AcDbEntity
  8
Capa_1
 62
7
100
AcDbPolyline
 90
2
 70
0
 10
1.116492
 20
9.094378
 30
0.0
 10
1.116488
 20
9.095053
 30
0.0
  0
SPLINE
  5
114
100
AcDbEntity
  8
Capa_1
 62
7
100
AcDbSpline
 70
8
 71
3
 72
8
 73
4
 74
0
 40
0
 40
0
 40
0
 40
0
 40
1
 40
1
 40
1
 40
1
 10
1.005669
 20
9.350383
 30
0.0
 10
1.023979
 20
9.350383
 30
0.0
 10
1.039947
 20
9.351745
 30
0.0
 10
1.053572
 20
9.354469
 30
0.0
  0
SPLINE
  5
115
100
AcDbEntity
  8
Capa_1
 62
7
100
AcDbSpline
 70
8
 71
3
 72
8
 73
4
 74
0
 40
0
 40
0
 40
0
 40
0
 40
1
 40
1
 40
1
 40
1
 10
1.053572
 20
9.354469
 30
0.0
 10
1.067198
 20
9.357193
 30
0.0
 10
1.079121
 20
9.361620
 30
0.0
 10
1.089340
 20
9.367750
 30
0.0
  0
SPLINE
  5
116
100
AcDbEntity
  8
Capa_1
 62
7
100
AcDbSpline
 70
8
 71
3
 72
8
 73
4
 74
0
 40
0
 40
0
 40
0
 40
0
 40
1
 40
1
 40
1
 40
1
 10
1.089340
 20
9.367750
 30
0.0
 10
1.102541
 20
9.375787
 30
0.0
 10
1.112653
 20
9.387126
 30
0.0
 10
1.119679
 20
9.401769
 30
0.0
  0
SPLINE
  5
117
100
AcDbEntity
  8
Capa_1
 62
7
100
AcDbSpline
 70
8
 71
3
 72
8
 73
4
 74
0
 40
0
 40
0
 40
0
 40
0
 40
1
 40
1
 40
1
 40
1
 10
1.119679
 20
9.401769
 30
0.0
 10
1.126704
 20
9.416685
 30
0.0
 10
1.130217
 20
9.431124
 30
0.0
 10
1.130217
 20
9.445086
 30
0.0
  0
LWPOLYLINE
  5
118
100
AcDbEntity
  8
Capa_1
 62
7
100
AcDbPolyline
 90
4
 70
0
 10
1.027385
 20
9.497708
 30
0.0
 10
0.955211
 20
9.497708
 30
0.0
 10
0.922637
 20
9.350383
 30
0.0
 10
1.005669
 20
9.350383
 30
0.0
  0
SPLINE
  5
119
100
AcDbEntity
  8
Capa_1
 62
7
100
AcDbSpline
 70
8
 71
3
 72
8
 73
4
 74
0
 40
0
 40
0
 40
0
 40
0
 40
1
 40
1
 40
1
 40
1
 10
1.123192
 20
9.231703
 30
0.0
 10
1.123192
 20
9.244166
 30
0.0
 10
1.121169
 20
9.254178
 30
0.0
 10
1.117123
 20
9.261738
 30
0.0
  0
SPLINE
  5
11a
100
AcDbEntity
  8
Capa_1
 62
7
100
AcDbSpline
 70
8
 71
3
 72
8
 73
4
 74
0
 40
0
 40
0
 40
0
 40
0
 40
1
 40
1
 40
1
 40
1
 10
1.117123
 20
9.261738
 30
0.0
 10
1.113078
 20
9.269502
 30
0.0
 10
1.105839
 20
9.276721
 30
0.0
 10
1.095408
 20
9.283396
 30
0.0
  0
SPLINE
  5
11b
100
AcDbEntity
  8
Capa_1
 62
7
100
AcDbSpline
 70
8
 71
3
 72
8
 73
4
 74
0
 40
0
 40
0
 40
0
 40
0
 40
1
 40
1
 40
1
 40
1
 10
1.095408
 20
9.283396
 30
0.0
 10
1.086892
 20
9.288844
 30
0.0
 10
1.075927
 20
9.292522
 30
0.0
 10
1.062514
 20
9.294429
 30
0.0
  0
SPLINE
  5
11c
100
AcDbEntity
  8
Capa_1
 62
7
100
AcDbSpline
 70
8
 71
3
 72
8
 73
4
 74
0
 40
0
 40
0
 40
0
 40
0
 40
1
 40
1
 40
1
 40
1
 10
1.062514
 20
9.294429
 30
0.0
 10
1.049314
 20
9.296472
 30
0.0
 10
1.030898
 20
9.297494
 30
0.0
 10
1.007266
 20
9.297494
 30
0.0
  0
LWPOLYLINE
  5
11d
100
AcDbEntity
  8
Capa_1
 62
7
100
AcDbPolyline
 90
2
 70
0
 10
1.130217
 20
9.445086
 30
0.0
 10
1.130221
 20
9.444687
 30
0.0
  0
SPLINE
  5
11e
100
AcDbEntity
  8
Capa_1
 62
7
100
AcDbSpline
 70
8
 71
3
 72
8
 73
4
 74
0
 40
0
 40
0
 40
0
 40
0
 40
1
 40
1
 40
1
 40
1
 10
0.956489
 20
9.109508
 30
0.0
 10
0.984805
 20
9.109508
 30
0.0
 10
1.007799
 20
9.111211
 30
0.0
 10
1.025470
 20
9.114616
 30
0.0
  0
SPLINE
  5
11f
100
AcDbEntity
  8
Capa_1
 62
7
100
AcDbSpline
 70
8
 71
3
 72
8
 73
4
 74
0
 40
0
 40
0
 40
0
 40
0
 40
1
 40
1
 40
1
 40
1
 10
1.025470
 20
9.114616
 30
0.0
 10
1.043353
 20
9.118022
 30
0.0
 10
1.058789
 20
9.123811
 30
0.0
 10
1.071776
 20
9.131984
 30
0.0
  0
SPLINE
  5
120
100
AcDbEntity
  8
Capa_1
 62
7
100
AcDbSpline
 70
8
 71
3
 72
8
 73
4
 74
0
 40
0
 40
0
 40
0
 40
0
 40
1
 40
1
 40
1
 40
1
 10
1.071776
 20
9.131984
 30
0.0
 10
1.088595
 20
9.142404
 30
0.0
 10
1.101370
 20
9.156638
 30
0.0
 10
1.110099
 20
9.174687
 30
0.0
  0
SPLINE
  5
121
100
AcDbEntity
  8
Capa_1
 62
7
100
AcDbSpline
 70
8
 71
3
 72
8
 73
4
 74
0
 40
0
 40
0
 40
0
 40
0
 40
1
 40
1
 40
1
 40
1
 10
1.110099
 20
9.174687
 30
0.0
 10
1.118828
 20
9.192871
 30
0.0
 10
1.123192
 20
9.212214
 30
0.0
 10
1.123192
 20
9.232714
 30
0.0
  0
LWPOLYLINE
  5
122
100
AcDbEntity
  8
Capa_1
 62
7
100
AcDbPolyline
 90
4
 70
0
 10
1.007266
 20
9.297494
 30
0.0
 10
0.911140
 20
9.297494
 30
0.0
 10
0.869304
 20
9.109508
 30
0.0
 10
0.956489
 20
9.109508
 30
0.0
  0
LWPOLYLINE
  5
123
100
AcDbEntity
  8
Capa_1
 62
7
100
AcDbPolyline
 90
2
 70
0
 10
1.123192
 20
9.232714
 30
0.0
 10
1.123192
 20
9.231703
 30
0.0
  0
LWPOLYLINE
  5
124
100
AcDbEntity
  8
Capa_1
 62
7
100
AcDbPolyline
 90
8
 70
1
 10
1.622348
 20
9.055057
 30
0.0
 10
1.558158
 20
9.055057
 30
0.0
 10
1.542190
 20
9.194710
 30
0.0
 10
1.337163
 20
9.194710
 30
0.0
 10
1.259240
 20
9.055057
 30
0.0
 10
1.192495
 20
9.055057
 30
0.0
 10
1.475444
 20
9.551343
 30
0.0
 10
1.559115
 20
9.551343
 30
0.0
  0
LWPOLYLINE
  5
125
100
AcDbEntity
  8
Capa_1
 62
7
100
AcDbPolyline
 90
3
 70
1
 10
1.535163
 20
9.248702
 30
0.0
 10
1.505463
 20
9.493683
 30
0.0
 10
1.367501
 20
9.248702
 30
0.0
  0
LWPOLYLINE
  5
126
100
AcDbEntity
  8
Capa_1
 62
7
100
AcDbPolyline
 90
8
 70
1
 10
2.125972
 20
9.495022
 30
0.0
 10
1.956394
 20
9.495022
 30
0.0
 10
1.858991
 20
9.055057
 30
0.0
 10
1.795120
 20
9.055057
 30
0.0
 10
1.892523
 20
9.495022
 30
0.0
 10
1.722945
 20
9.495022
 30
0.0
 10
1.735081
 20
9.551312
 30
0.0
 10
2.138108
 20
9.551312
 30
0.0
  0
LWPOLYLINE
  5
127
100
AcDbEntity
  8
Capa_1
 62
7
100
AcDbPolyline
 90
8
 70
1
 10
2.529638
 20
9.495022
 30
0.0
 10
2.360060
 20
9.495022
 30
0.0
 10
2.262656
 20
9.055057
 30
0.0
 10
2.198785
 20
9.055057
 30
0.0
 10
2.296189
 20
9.495022
 30
0.0
 10
2.126611
 20
9.495022
 30
0.0
 10
2.138746
 20
9.551312
 30
0.0
 10
2.541773
 20
9.551312
 30
0.0
  0
SPLINE
  5
128
100
AcDbEntity
  8
Capa_1
 62
7
100
AcDbSpline
 70
8
 71
3
 72
8
 73
4
 74
0
 40
0
 40
0
 40
0
 40
0
 40
1
 40
1
 40
1
 40
1
 10
1.503547
 20
7.396857
 30
0.0
 10
1.484812
 20
7.378400
 30
0.0
 10
1.462990
 20
7.363961
 30
0.0
 10
1.438080
 20
7.353541
 30
0.0
  0
SPLINE
  5
129
100
AcDbEntity
  8
Capa_1
 62
7
100
AcDbSpline
 70
8
 71
3
 72
8
 73
4
 74
0
 40
0
 40
0
 40
0
 40
0
 40
1
 40
1
 40
1
 40
1
 10
1.438080
 20
7.353541
 30
0.0
 10
1.413170
 20
7.343324
 30
0.0
 10
1.383896
 20
7.338216
 30
0.0
 10
1.350258
 20
7.338216
 30
0.0
  0
SPLINE
  5
12a
100
AcDbEntity
  8
Capa_1
 62
7
100
AcDbSpline
 70
8
 71
3
 72
8
 73
4
 74
0
 40
0
 40
0
 40
0
 40
0
 40
1
 40
1
 40
1
 40
1
 10
1.350258
 20
7.338216
 30
0.0
 10
1.324283
 20
7.338216
 30
0.0
 10
1.299799
 20
7.341622
 30
0.0
 10
1.276806
 20
7.348432
 30
0.0
  0
SPLINE
  5
12b
100
AcDbEntity
  8
Capa_1
 62
7
100
AcDbSpline
 70
8
 71
3
 72
8
 73
4
 74
0
 40
0
 40
0
 40
0
 40
0
 40
1
 40
1
 40
1
 40
1
 10
1.276806
 20
7.348432
 30
0.0
 10
1.253812
 20
7.355243
 30
0.0
 10
1.234757
 20
7.362565
 30
0.0
 10
1.219641
 20
7.370397
 30
0.0
  0
LWPOLYLINE
  5
12c
100
AcDbEntity
  8
Capa_1
 62
7
100
AcDbPolyline
 90
12
 70
1
 10
1.137566
 20
7.539187
 30
0.0
 10
0.963517
 20
7.539187
 30
0.0
 10
0.963517
 20
7.357535
 30
0.0
 10
0.910504
 20
7.357535
 30
0.0
 10
0.910504
 20
7.539187
 30
0.0
 10
0.736455
 20
7.539187
 30
0.0
 10
0.736455
 20
7.592515
 30
0.0
 10
0.910504
 20
7.592515
 30
0.0
 10
0.910504
 20
7.774167
 30
0.0
 10
0.963517
 20
7.774167
 30
0.0
 10
0.963517
 20
7.592515
 30
0.0
 10
1.137566
 20
7.592515
 30
0.0
  0
SPLINE
  5
12d
100
AcDbEntity
  8
Capa_1
 62
7
100
AcDbSpline
 70
8
 71
3
 72
8
 73
4
 74
0
 40
0
 40
0
 40
0
 40
0
 40
1
 40
1
 40
1
 40
1
 10
1.236888
 20
7.435065
 30
0.0
 10
1.250088
 20
7.424644
 30
0.0
 10
1.267866
 20
7.415075
 30
0.0
 10
1.290221
 20
7.406358
 30
0.0
  0
SPLINE
  5
12e
100
AcDbEntity
  8
Capa_1
 62
7
100
AcDbSpline
 70
8
 71
3
 72
8
 73
4
 74
0
 40
0
 40
0
 40
0
 40
0
 40
1
 40
1
 40
1
 40
1
 10
1.290221
 20
7.406358
 30
0.0
 10
1.312576
 20
7.397912
 30
0.0
 10
1.335782
 20
7.393690
 30
0.0
 10
1.359840
 20
7.393690
 30
0.0
  0
SPLINE
  5
12f
100
AcDbEntity
  8
Capa_1
 62
7
100
AcDbSpline
 70
8
 71
3
 72
8
 73
4
 74
0
 40
0
 40
0
 40
0
 40
0
 40
1
 40
1
 40
1
 40
1
 10
1.359840
 20
7.393690
 30
0.0
 10
1.399441
 20
7.393690
 30
0.0
 10
1.431376
 20
7.405676
 30
0.0
 10
1.455647
 20
7.429650
 30
0.0
  0
SPLINE
  5
130
100
AcDbEntity
  8
Capa_1
 62
7
100
AcDbSpline
 70
8
 71
3
 72
8
 73
4
 74
0
 40
0
 40
0
 40
0
 40
0
 40
1
 40
1
 40
1
 40
1
 10
1.455647
 20
7.429650
 30
0.0
 10
1.479918
 20
7.453624
 30
0.0
 10
1.492054
 20
7.485055
 30
0.0
 10
1.492054
 20
7.523944
 30
0.0
  0
SPLINE
  5
131
100
AcDbEntity
  8
Capa_1
 62
7
100
AcDbSpline
 70
8
 71
3
 72
8
 73
4
 74
0
 40
0
 40
0
 40
0
 40
0
 40
1
 40
1
 40
1
 40
1
 10
1.492054
 20
7.523944
 30
0.0
 10
1.492054
 20
7.539064
 30
0.0
 10
1.489287
 20
7.551630
 30
0.0
 10
1.483753
 20
7.561642
 30
0.0
  0
SPLINE
  5
132
100
AcDbEntity
  8
Capa_1
 62
7
100
AcDbSpline
 70
8
 71
3
 72
8
 73
4
 74
0
 40
0
 40
0
 40
0
 40
0
 40
1
 40
1
 40
1
 40
1
 10
1.483753
 20
7.561642
 30
0.0
 10
1.478219
 20
7.571653
 30
0.0
 10
1.470768
 20
7.579758
 30
0.0
 10
1.461398
 20
7.585956
 30
0.0
  0
SPLINE
  5
133
100
AcDbEntity
  8
Capa_1
 62
7
100
AcDbSpline
 70
8
 71
3
 72
8
 73
4
 74
0
 40
0
 40
0
 40
0
 40
0
 40
1
 40
1
 40
1
 40
1
 10
1.461398
 20
7.585956
 30
0.0
 10
1.451817
 20
7.592086
 30
0.0
 10
1.440427
 20
7.596513
 30
0.0
 10
1.427227
 20
7.599237
 30
0.0
  0
SPLINE
  5
134
100
AcDbEntity
  8
Capa_1
 62
7
100
AcDbSpline
 70
8
 71
3
 72
8
 73
4
 74
0
 40
0
 40
0
 40
0
 40
0
 40
1
 40
1
 40
1
 40
1
 10
1.427227
 20
7.599237
 30
0.0
 10
1.414240
 20
7.601961
 30
0.0
 10
1.400508
 20
7.603323
 30
0.0
 10
1.386031
 20
7.603323
 30
0.0
  0
SPLINE
  5
135
100
AcDbEntity
  8
Capa_1
 62
7
100
AcDbSpline
 70
8
 71
3
 72
8
 73
4
 74
0
 40
0
 40
0
 40
0
 40
0
 40
1
 40
1
 40
1
 40
1
 10
1.386031
 20
7.603323
 30
0.0
 10
1.367295
 20
7.603323
 30
0.0
 10
1.348453
 20
7.601961
 30
0.0
 10
1.329505
 20
7.599237
 30
0.0
  0
SPLINE
  5
136
100
AcDbEntity
  8
Capa_1
 62
7
100
AcDbSpline
 70
8
 71
3
 72
8
 73
4
 74
0
 40
0
 40
0
 40
0
 40
0
 40
1
 40
1
 40
1
 40
1
 10
1.329505
 20
7.599237
 30
0.0
 10
1.310769
 20
7.596513
 30
0.0
 10
1.294801
 20
7.593788
 30
0.0
 10
1.281602
 20
7.591064
 30
0.0
  0
LWPOLYLINE
  5
137
100
AcDbEntity
  8
Capa_1
 62
7
100
AcDbPolyline
 90
3
 70
0
 10
1.219641
 20
7.370397
 30
0.0
 10
1.232415
 20
7.435065
 30
0.0
 10
1.236888
 20
7.435065
 30
0.0
  0
SPLINE
  5
138
100
AcDbEntity
  8
Capa_1
 62
7
100
AcDbSpline
 70
8
 71
3
 72
8
 73
4
 74
0
 40
0
 40
0
 40
0
 40
0
 40
1
 40
1
 40
1
 40
1
 10
1.357283
 20
7.652738
 30
0.0
 10
1.366012
 20
7.654101
 30
0.0
 10
1.374528
 20
7.655122
 30
0.0
 10
1.382831
 20
7.655803
 30
0.0
  0
SPLINE
  5
139
100
AcDbEntity
  8
Capa_1
 62
7
100
AcDbSpline
 70
8
 71
3
 72
8
 73
4
 74
0
 40
0
 40
0
 40
0
 40
0
 40
1
 40
1
 40
1
 40
1
 10
1.382831
 20
7.655803
 30
0.0
 10
1.391134
 20
7.656471
 30
0.0
 10
1.399543
 20
7.656804
 30
0.0
 10
1.408059
 20
7.656804
 30
0.0
  0
SPLINE
  5
13a
100
AcDbEntity
  8
Capa_1
 62
7
100
AcDbSpline
 70
8
 71
3
 72
8
 73
4
 74
0
 40
0
 40
0
 40
0
 40
0
 40
1
 40
1
 40
1
 40
1
 10
1.408059
 20
7.656804
 30
0.0
 10
1.455962
 20
7.656804
 30
0.0
 10
1.493221
 20
7.646043
 30
0.0
 10
1.519834
 20
7.624522
 30
0.0
  0
SPLINE
  5
13b
100
AcDbEntity
  8
Capa_1
 62
7
100
AcDbSpline
 70
8
 71
3
 72
8
 73
4
 74
0
 40
0
 40
0
 40
0
 40
0
 40
1
 40
1
 40
1
 40
1
 10
1.519834
 20
7.624522
 30
0.0
 10
1.546660
 20
7.603000
 30
0.0
 10
1.560072
 20
7.573680
 30
0.0
 10
1.560072
 20
7.536561
 30
0.0
  0
SPLINE
  5
13c
100
AcDbEntity
  8
Capa_1
 62
7
100
AcDbSpline
 70
8
 71
3
 72
8
 73
4
 74
0
 40
0
 40
0
 40
0
 40
0
 40
1
 40
1
 40
1
 40
1
 10
1.560072
 20
7.536561
 30
0.0
 10
1.560072
 20
7.509863
 30
0.0
 10
1.555176
 20
7.484527
 30
0.0
 10
1.545382
 20
7.460554
 30
0.0
  0
SPLINE
  5
13d
100
AcDbEntity
  8
Capa_1
 62
7
100
AcDbSpline
 70
8
 71
3
 72
8
 73
4
 74
0
 40
0
 40
0
 40
0
 40
0
 40
1
 40
1
 40
1
 40
1
 10
1.545382
 20
7.460554
 30
0.0
 10
1.535588
 20
7.436580
 30
0.0
 10
1.521643
 20
7.415569
 30
0.0
 10
1.503546
 20
7.397521
 30
0.0
  0
LWPOLYLINE
  5
13e
100
AcDbEntity
  8
Capa_1
 62
7
100
AcDbPolyline
 90
6
 70
0
 10
1.281602
 20
7.591064
 30
0.0
 10
1.337808
 20
7.845372
 30
0.0
 10
1.622993
 20
7.845372
 30
0.0
 10
1.610538
 20
7.789388
 30
0.0
 10
1.387302
 20
7.789388
 30
0.0
 10
1.357283
 20
7.652738
 30
0.0
  0
LWPOLYLINE
  5
13f
100
AcDbEntity
  8
Capa_1
 62
7
100
AcDbPolyline
 90
2
 70
0
 10
1.503546
 20
7.397521
 30
0.0
 10
1.503547
 20
7.396857
 30
0.0
  0
LWPOLYLINE
  5
140
100
AcDbEntity
  8
Capa_1
 62
7
100
AcDbPolyline
 90
7
 70
1
 10
2.109046
 20
7.844821
 30
0.0
 10
1.826097
 20
7.348535
 30
0.0
 10
1.741786
 20
7.348535
 30
0.0
 10
1.678554
 20
7.844821
 30
0.0
 10
1.744341
 20
7.844821
 30
0.0
 10
1.796397
 20
7.408860
 30
0.0
 10
2.041662
 20
7.844821
 30
0.0
  0
SPLINE
  5
141
100
AcDbEntity
  8
Capa_1
 62
7
100
AcDbSpline
 70
8
 71
3
 72
8
 73
4
 74
0
 40
0
 40
0
 40
0
 40
0
 40
1
 40
1
 40
1
 40
1
 10
1.286705
 20
5.685676
 30
0.0
 10
1.267970
 20
5.668581
 30
0.0
 10
1.246360
 20
5.655232
 30
0.0
 10
1.221876
 20
5.645629
 30
0.0
  0
SPLINE
  5
142
100
AcDbEntity
  8
Capa_1
 62
7
100
AcDbSpline
 70
8
 71
3
 72
8
 73
4
 74
0
 40
0
 40
0
 40
0
 40
0
 40
1
 40
1
 40
1
 40
1
 10
1.221876
 20
5.645629
 30
0.0
 10
1.197605
 20
5.636298
 30
0.0
 10
1.169395
 20
5.631633
 30
0.0
 10
1.137246
 20
5.631633
 30
0.0
  0
SPLINE
  5
143
100
AcDbEntity
  8
Capa_1
 62
7
100
AcDbSpline
 70
8
 71
3
 72
8
 73
4
 74
0
 40
0
 40
0
 40
0
 40
0
 40
1
 40
1
 40
1
 40
1
 10
1.137246
 20
5.631633
 30
0.0
 10
1.111485
 20
5.631633
 30
0.0
 10
1.086469
 20
5.635073
 30
0.0
 10
1.062198
 20
5.641951
 30
0.0
  0
SPLINE
  5
144
100
AcDbEntity
  8
Capa_1
 62
7
100
AcDbSpline
 70
8
 71
3
 72
8
 73
4
 74
0
 40
0
 40
0
 40
0
 40
0
 40
1
 40
1
 40
1
 40
1
 10
1.062198
 20
5.641951
 30
0.0
 10
1.038139
 20
5.648762
 30
0.0
 10
1.017807
 20
5.656765
 30
0.0
 10
1.001201
 20
5.665959
 30
0.0
  0
LWPOLYLINE
  5
145
100
AcDbEntity
  8
Capa_1
 62
7
100
AcDbPolyline
 90
12
 70
1
 10
0.929346
 20
5.832665
 30
0.0
 10
0.755297
 20
5.832665
 30
0.0
 10
0.755297
 20
5.651013
 30
0.0
 10
0.702284
 20
5.651013
 30
0.0
 10
0.702284
 20
5.832665
 30
0.0
 10
0.528235
 20
5.832665
 30
0.0
 10
0.528235
 20
5.885993
 30
0.0
 10
0.702284
 20
5.885993
 30
0.0
 10
0.702284
 20
6.067645
 30
0.0
 10
0.755297
 20
6.067645
 30
0.0
 10
0.755297
 20
5.885993
 30
0.0
 10
0.929346
 20
5.885993
 30
0.0
  0
SPLINE
  5
146
100
AcDbEntity
  8
Capa_1
 62
7
100
AcDbSpline
 70
8
 71
3
 72
8
 73
4
 74
0
 40
0
 40
0
 40
0
 40
0
 40
1
 40
1
 40
1
 40
1
 10
1.020997
 20
5.729912
 30
0.0
 10
1.035687
 20
5.718333
 30
0.0
 10
1.054104
 20
5.708220
 30
0.0
 10
1.076245
 20
5.699570
 30
0.0
  0
SPLINE
  5
147
100
AcDbEntity
  8
Capa_1
 62
7
100
AcDbSpline
 70
8
 71
3
 72
8
 73
4
 74
0
 40
0
 40
0
 40
0
 40
0
 40
1
 40
1
 40
1
 40
1
 10
1.076245
 20
5.699570
 30
0.0
 10
1.098387
 20
5.691125
 30
0.0
 10
1.121807
 20
5.686902
 30
0.0
 10
1.146503
 20
5.686902
 30
0.0
  0
SPLINE
  5
148
100
AcDbEntity
  8
Capa_1
 62
7
100
AcDbSpline
 70
8
 71
3
 72
8
 73
4
 74
0
 40
0
 40
0
 40
0
 40
0
 40
1
 40
1
 40
1
 40
1
 10
1.146503
 20
5.686902
 30
0.0
 10
1.184826
 20
5.686902
 30
0.0
 10
1.216229
 20
5.698787
 30
0.0
 10
1.240713
 20
5.722556
 30
0.0
  0
SPLINE
  5
149
100
AcDbEntity
  8
Capa_1
 62
7
100
AcDbSpline
 70
8
 71
3
 72
8
 73
4
 74
0
 40
0
 40
0
 40
0
 40
0
 40
1
 40
1
 40
1
 40
1
 10
1.240713
 20
5.722556
 30
0.0
 10
1.265196
 20
5.746325
 30
0.0
 10
1.277438
 20
5.777212
 30
0.0
 10
1.277438
 20
5.815216
 30
0.0
  0
SPLINE
  5
14a
100
AcDbEntity
  8
Capa_1
 62
7
100
AcDbSpline
 70
8
 71
3
 72
8
 73
4
 74
0
 40
0
 40
0
 40
0
 40
0
 40
1
 40
1
 40
1
 40
1
 10
1.277438
 20
5.815216
 30
0.0
 10
1.277438
 20
5.838577
 30
0.0
 10
1.269667
 20
5.856012
 30
0.0
 10
1.254125
 20
5.867522
 30
0.0
  0
SPLINE
  5
14b
100
AcDbEntity
  8
Capa_1
 62
7
100
AcDbSpline
 70
8
 71
3
 72
8
 73
4
 74
0
 40
0
 40
0
 40
0
 40
0
 40
1
 40
1
 40
1
 40
1
 10
1.254125
 20
5.867522
 30
0.0
 10
1.238583
 20
5.879100
 30
0.0
 10
1.214418
 20
5.884889
 30
0.0
 10
1.181631
 20
5.884889
 30
0.0
  0
LWPOLYLINE
  5
14c
100
AcDbEntity
  8
Capa_1
 62
7
100
AcDbPolyline
 90
3
 70
0
 10
1.001201
 20
5.665959
 30
0.0
 10
1.016210
 20
5.729912
 30
0.0
 10
1.020997
 20
5.729912
 30
0.0
  0
SPLINE
  5
14d
100
AcDbEntity
  8
Capa_1
 62
7
100
AcDbSpline
 70
8
 71
3
 72
8
 73
4
 74
0
 40
0
 40
0
 40
0
 40
0
 40
1
 40
1
 40
1
 40
1
 10
1.194086
 20
5.937911
 30
0.0
 10
1.230067
 20
5.937911
 30
0.0
 10
1.259554
 20
5.946458
 30
0.0
 10
1.282548
 20
5.963553
 30
0.0
  0
SPLINE
  5
14e
100
AcDbEntity
  8
Capa_1
 62
7
100
AcDbSpline
 70
8
 71
3
 72
8
 73
4
 74
0
 40
0
 40
0
 40
0
 40
0
 40
1
 40
1
 40
1
 40
1
 10
1.282548
 20
5.963553
 30
0.0
 10
1.305542
 20
5.980852
 30
0.0
 10
1.317038
 20
6.004281
 30
0.0
 10
1.317038
 20
6.033840
 30
0.0
  0
SPLINE
  5
14f
100
AcDbEntity
  8
Capa_1
 62
7
100
AcDbSpline
 70
8
 71
3
 72
8
 73
4
 74
0
 40
0
 40
0
 40
0
 40
0
 40
1
 40
1
 40
1
 40
1
 10
1.317038
 20
6.033840
 30
0.0
 10
1.317038
 20
6.052501
 30
0.0
 10
1.310119
 20
6.067042
 30
0.0
 10
1.296280
 20
6.077462
 30
0.0
  0
SPLINE
  5
150
100
AcDbEntity
  8
Capa_1
 62
7
100
AcDbSpline
 70
8
 71
3
 72
8
 73
4
 74
0
 40
0
 40
0
 40
0
 40
0
 40
1
 40
1
 40
1
 40
1
 10
1.296280
 20
6.077462
 30
0.0
 10
1.282654
 20
6.087883
 30
0.0
 10
1.262428
 20
6.093093
 30
0.0
 10
1.235602
 20
6.093093
 30
0.0
  0
SPLINE
  5
151
100
AcDbEntity
  8
Capa_1
 62
7
100
AcDbSpline
 70
8
 71
3
 72
8
 73
4
 74
0
 40
0
 40
0
 40
0
 40
0
 40
1
 40
1
 40
1
 40
1
 10
1.235602
 20
6.093093
 30
0.0
 10
1.213460
 20
6.093093
 30
0.0
 10
1.189827
 20
6.088870
 30
0.0
 10
1.164705
 20
6.080425
 30
0.0
  0
SPLINE
  5
152
100
AcDbEntity
  8
Capa_1
 62
7
100
AcDbSpline
 70
8
 71
3
 72
8
 73
4
 74
0
 40
0
 40
0
 40
0
 40
0
 40
1
 40
1
 40
1
 40
1
 10
1.164705
 20
6.080425
 30
0.0
 10
1.139582
 20
6.071980
 30
0.0
 10
1.117334
 20
6.061763
 30
0.0
 10
1.097959
 20
6.049777
 30
0.0
  0
LWPOLYLINE
  5
153
100
AcDbEntity
  8
Capa_1
 62
7
100
AcDbPolyline
 90
4
 70
0
 10
1.181631
 20
5.884889
 30
0.0
 10
1.151293
 20
5.884889
 30
0.0
 10
1.163748
 20
5.937911
 30
0.0
 10
1.194086
 20
5.937911
 30
0.0
  0
SPLINE
  5
154
100
AcDbEntity
  8
Capa_1
 62
7
100
AcDbSpline
 70
8
 71
3
 72
8
 73
4
 74
0
 40
0
 40
0
 40
0
 40
0
 40
1
 40
1
 40
1
 40
1
 10
1.108500
 20
6.117100
 30
0.0
 10
1.125532
 20
6.124865
 30
0.0
 10
1.147142
 20
6.131982
 30
0.0
 10
1.173329
 20
6.138452
 30
0.0
  0
SPLINE
  5
155
100
AcDbEntity
  8
Capa_1
 62
7
100
AcDbSpline
 70
8
 71
3
 72
8
 73
4
 74
0
 40
0
 40
0
 40
0
 40
0
 40
1
 40
1
 40
1
 40
1
 10
1.173329
 20
6.138452
 30
0.0
 10
1.199730
 20
6.145263
 30
0.0
 10
1.224746
 20
6.148668
 30
0.0
 10
1.248378
 20
6.148668
 30
0.0
  0
SPLINE
  5
156
100
AcDbEntity
  8
Capa_1
 62
7
100
AcDbSpline
 70
8
 71
3
 72
8
 73
4
 74
0
 40
0
 40
0
 40
0
 40
0
 40
1
 40
1
 40
1
 40
1
 10
1.248378
 20
6.148668
 30
0.0
 10
1.290320
 20
6.148668
 30
0.0
 10
1.323320
 20
6.139882
 30
0.0
 10
1.347378
 20
6.122311
 30
0.0
  0
SPLINE
  5
157
100
AcDbEntity
  8
Capa_1
 62
7
100
AcDbSpline
 70
8
 71
3
 72
8
 73
4
 74
0
 40
0
 40
0
 40
0
 40
0
 40
1
 40
1
 40
1
 40
1
 10
1.347378
 20
6.122311
 30
0.0
 10
1.371649
 20
6.104943
 30
0.0
 10
1.383785
 20
6.081174
 30
0.0
 10
1.383785
 20
6.051003
 30
0.0
  0
SPLINE
  5
158
100
AcDbEntity
  8
Capa_1
 62
7
100
AcDbSpline
 70
8
 71
3
 72
8
 73
4
 74
0
 40
0
 40
0
 40
0
 40
0
 40
1
 40
1
 40
1
 40
1
 10
1.383785
 20
6.051003
 30
0.0
 10
1.383785
 20
6.018107
 30
0.0
 10
1.372075
 20
5.988889
 30
0.0
 10
1.348656
 20
5.963349
 30
0.0
  0
SPLINE
  5
159
100
AcDbEntity
  8
Capa_1
 62
7
100
AcDbSpline
 70
8
 71
3
 72
8
 73
4
 74
0
 40
0
 40
0
 40
0
 40
0
 40
1
 40
1
 40
1
 40
1
 10
1.348656
 20
5.963349
 30
0.0
 10
1.325449
 20
5.938013
 30
0.0
 10
1.296068
 20
5.921906
 30
0.0
 10
1.260513
 20
5.915027
 30
0.0
  0
LWPOLYLINE
  5
15a
100
AcDbEntity
  8
Capa_1
 62
7
100
AcDbPolyline
 90
3
 70
0
 10
1.097959
 20
6.049777
 30
0.0
 10
1.094768
 20
6.049777
 30
0.0
 10
1.108500
 20
6.117100
 30
0.0
  0
SPLINE
  5
15b
100
AcDbEntity
  8
Capa_1
 62
7
100
AcDbSpline
 70
8
 71
3
 72
8
 73
4
 74
0
 40
0
 40
0
 40
0
 40
0
 40
1
 40
1
 40
1
 40
1
 10
1.260513
 20
5.911962
 30
0.0
 10
1.268816
 20
5.909919
 30
0.0
 10
1.277971
 20
5.906513
 30
0.0
 10
1.287978
 20
5.901746
 30
0.0
  0
SPLINE
  5
15c
100
AcDbEntity
  8
Capa_1
 62
7
100
AcDbSpline
 70
8
 71
3
 72
8
 73
4
 74
0
 40
0
 40
0
 40
0
 40
0
 40
1
 40
1
 40
1
 40
1
 10
1.287978
 20
5.901746
 30
0.0
 10
1.298197
 20
5.896978
 30
0.0
 10
1.307139
 20
5.890985
 30
0.0
 10
1.314803
 20
5.883766
 30
0.0
  0
SPLINE
  5
15d
100
AcDbEntity
  8
Capa_1
 62
7
100
AcDbSpline
 70
8
 71
3
 72
8
 73
4
 74
0
 40
0
 40
0
 40
0
 40
0
 40
1
 40
1
 40
1
 40
1
 10
1.314803
 20
5.883766
 30
0.0
 10
1.322894
 20
5.876206
 30
0.0
 10
1.329600
 20
5.866637
 30
0.0
 10
1.334922
 20
5.855058
 30
0.0
  0
SPLINE
  5
15e
100
AcDbEntity
  8
Capa_1
 62
7
100
AcDbSpline
 70
8
 71
3
 72
8
 73
4
 74
0
 40
0
 40
0
 40
0
 40
0
 40
1
 40
1
 40
1
 40
1
 10
1.334922
 20
5.855058
 30
0.0
 10
1.340456
 20
5.843480
 30
0.0
 10
1.343223
 20
5.829825
 30
0.0
 10
1.343223
 20
5.814092
 30
0.0
  0
SPLINE
  5
15f
100
AcDbEntity
  8
Capa_1
 62
7
100
AcDbSpline
 70
8
 71
3
 72
8
 73
4
 74
0
 40
0
 40
0
 40
0
 40
0
 40
1
 40
1
 40
1
 40
1
 10
1.343223
 20
5.814092
 30
0.0
 10
1.343223
 20
5.789846
 30
0.0
 10
1.338220
 20
5.766417
 30
0.0
 10
1.328213
 20
5.743806
 30
0.0
  0
SPLINE
  5
160
100
AcDbEntity
  8
Capa_1
 62
7
100
AcDbSpline
 70
8
 71
3
 72
8
 73
4
 74
0
 40
0
 40
0
 40
0
 40
0
 40
1
 40
1
 40
1
 40
1
 10
1.328213
 20
5.743806
 30
0.0
 10
1.318207
 20
5.721330
 30
0.0
 10
1.304368
 20
5.701988
 30
0.0
 10
1.286697
 20
5.685778
 30
0.0
  0
LWPOLYLINE
  5
161
100
AcDbEntity
  8
Capa_1
 62
7
100
AcDbPolyline
 90
2
 70
0
 10
1.260513
 20
5.915027
 30
0.0
 10
1.260513
 20
5.911962
 30
0.0
  0
LWPOLYLINE
  5
162
100
AcDbEntity
  8
Capa_1
 62
7
100
AcDbPolyline
 90
2
 70
0
 10
1.286697
 20
5.685778
 30
0.0
 10
1.286705
 20
5.685676
 30
0.0
  0
SPLINE
  5
163
100
AcDbEntity
  8
Capa_1
 62
7
100
AcDbSpline
 70
8
 71
3
 72
8
 73
4
 74
0
 40
0
 40
0
 40
0
 40
0
 40
1
 40
1
 40
1
 40
1
 10
2.150243
 20
5.685676
 30
0.0
 10
2.131507
 20
5.668581
 30
0.0
 10
2.109897
 20
5.655232
 30
0.0
 10
2.085414
 20
5.645629
 30
0.0
  0
SPLINE
  5
164
100
AcDbEntity
  8
Capa_1
 62
7
100
AcDbSpline
 70
8
 71
3
 72
8
 73
4
 74
0
 40
0
 40
0
 40
0
 40
0
 40
1
 40
1
 40
1
 40
1
 10
2.085414
 20
5.645629
 30
0.0
 10
2.061143
 20
5.636298
 30
0.0
 10
2.032933
 20
5.631633
 30
0.0
 10
2.000784
 20
5.631633
 30
0.0
  0
SPLINE
  5
165
100
AcDbEntity
  8
Capa_1
 62
7
100
AcDbSpline
 70
8
 71
3
 72
8
 73
4
 74
0
 40
0
 40
0
 40
0
 40
0
 40
1
 40
1
 40
1
 40
1
 10
2.000784
 20
5.631633
 30
0.0
 10
1.975023
 20
5.631633
 30
0.0
 10
1.950007
 20
5.635073
 30
0.0
 10
1.925736
 20
5.641951
 30
0.0
  0
SPLINE
  5
166
100
AcDbEntity
  8
Capa_1
 62
7
100
AcDbSpline
 70
8
 71
3
 72
8
 73
4
 74
0
 40
0
 40
0
 40
0
 40
0
 40
1
 40
1
 40
1
 40
1
 10
1.925736
 20
5.641951
 30
0.0
 10
1.901678
 20
5.648762
 30
0.0
 10
1.881345
 20
5.656765
 30
0.0
 10
1.864739
 20
5.665959
 30
0.0
  0
LWPOLYLINE
  5
167
100
AcDbEntity
  8
Capa_1
 62
7
100
AcDbPolyline
 90
7
 70
1
 10
1.900826
 20
6.138299
 30
0.0
 10
1.617877
 20
5.642013
 30
0.0
 10
1.533566
 20
5.642013
 30
0.0
 10
1.470334
 20
6.138299
 30
0.0
 10
1.536121
 20
6.138299
 30
0.0
 10
1.588177
 20
5.702339
 30
0.0
 10
1.833442
 20
6.138299
 30
0.0
  0
SPLINE
  5
168
100
AcDbEntity
  8
Capa_1
 62
7
100
AcDbSpline
 70
8
 71
3
 72
8
 73
4
 74
0
 40
0
 40
0
 40
0
 40
0
 40
1
 40
1
 40
1
 40
1
 10
1.884535
 20
5.729912
 30
0.0
 10
1.899226
 20
5.718333
 30
0.0
 10
1.917642
 20
5.708220
 30
0.0
 10
1.939783
 20
5.699570
 30
0.0
  0
SPLINE
  5
169
100
AcDbEntity
  8
Capa_1
 62
7
100
AcDbSpline
 70
8
 71
3
 72
8
 73
4
 74
0
 40
0
 40
0
 40
0
 40
0
 40
1
 40
1
 40
1
 40
1
 10
1.939783
 20
5.699570
 30
0.0
 10
1.961926
 20
5.691125
 30
0.0
 10
1.985345
 20
5.686902
 30
0.0
 10
2.010041
 20
5.686902
 30
0.0
  0
SPLINE
  5
16a
100
AcDbEntity
  8
Capa_1
 62
7
100
AcDbSpline
 70
8
 71
3
 72
8
 73
4
 74
0
 40
0
 40
0
 40
0
 40
0
 40
1
 40
1
 40
1
 40
1
 10
2.010041
 20
5.686902
 30
0.0
 10
2.048364
 20
5.686902
 30
0.0
 10
2.079767
 20
5.698787
 30
0.0
 10
2.104252
 20
5.722556
 30
0.0
  0
SPLINE
  5
16b
100
AcDbEntity
  8
Capa_1
 62
7
100
AcDbSpline
 70
8
 71
3
 72
8
 73
4
 74
0
 40
0
 40
0
 40
0
 40
0
 40
1
 40
1
 40
1
 40
1
 10
2.104252
 20
5.722556
 30
0.0
 10
2.128735
 20
5.746325
 30
0.0
 10
2.140977
 20
5.777212
 30
0.0
 10
2.140977
 20
5.815216
 30
0.0
  0
SPLINE
  5
16c
100
AcDbEntity
  8
Capa_1
 62
7
100
AcDbSpline
 70
8
 71
3
 72
8
 73
4
 74
0
 40
0
 40
0
 40
0
 40
0
 40
1
 40
1
 40
1
 40
1
 10
2.140977
 20
5.815216
 30
0.0
 10
2.140977
 20
5.838577
 30
0.0
 10
2.133206
 20
5.856012
 30
0.0
 10
2.117664
 20
5.867522
 30
0.0
  0
SPLINE
  5
16d
100
AcDbEntity
  8
Capa_1
 62
7
100
AcDbSpline
 70
8
 71
3
 72
8
 73
4
 74
0
 40
0
 40
0
 40
0
 40
0
 40
1
 40
1
 40
1
 40
1
 10
2.117664
 20
5.867522
 30
0.0
 10
2.102122
 20
5.879100
 30
0.0
 10
2.077957
 20
5.884889
 30
0.0
 10
2.045170
 20
5.884889
 30
0.0
  0
LWPOLYLINE
  5
16e
100
AcDbEntity
  8
Capa_1
 62
7
100
AcDbPolyline
 90
3
 70
0
 10
1.864739
 20
5.665959
 30
0.0
 10
1.879748
 20
5.729912
 30
0.0
 10
1.884535
 20
5.729912
 30
0.0
  0
SPLINE
  5
16f
100
AcDbEntity
  8
Capa_1
 62
7
100
AcDbSpline
 70
8
 71
3
 72
8
 73
4
 74
0
 40
0
 40
0
 40
0
 40
0
 40
1
 40
1
 40
1
 40
1
 10
2.057625
 20
5.937911
 30
0.0
 10
2.093606
 20
5.937911
 30
0.0
 10
2.123093
 20
5.946458
 30
0.0
 10
2.146087
 20
5.963553
 30
0.0
  0
SPLINE
  5
170
100
AcDbEntity
  8
Capa_1
 62
7
100
AcDbSpline
 70
8
 71
3
 72
8
 73
4
 74
0
 40
0
 40
0
 40
0
 40
0
 40
1
 40
1
 40
1
 40
1
 10
2.146087
 20
5.963553
 30
0.0
 10
2.169081
 20
5.980852
 30
0.0
 10
2.180578
 20
6.004281
 30
0.0
 10
2.180578
 20
6.033840
 30
0.0
  0
SPLINE
  5
171
100
AcDbEntity
  8
Capa_1
 62
7
100
AcDbSpline
 70
8
 71
3
 72
8
 73
4
 74
0
 40
0
 40
0
 40
0
 40
0
 40
1
 40
1
 40
1
 40
1
 10
2.180578
 20
6.033840
 30
0.0
 10
2.180578
 20
6.052501
 30
0.0
 10
2.173658
 20
6.067042
 30
0.0
 10
2.159819
 20
6.077462
 30
0.0
  0
SPLINE
  5
172
100
AcDbEntity
  8
Capa_1
 62
7
100
AcDbSpline
 70
8
 71
3
 72
8
 73
4
 74
0
 40
0
 40
0
 40
0
 40
0
 40
1
 40
1
 40
1
 40
1
 10
2.159819
 20
6.077462
 30
0.0
 10
2.146194
 20
6.087883
 30
0.0
 10
2.125968
 20
6.093093
 30
0.0
 10
2.099141
 20
6.093093
 30
0.0
  0
SPLINE
  5
173
100
AcDbEntity
  8
Capa_1
 62
7
100
AcDbSpline
 70
8
 71
3
 72
8
 73
4
 74
0
 40
0
 40
0
 40
0
 40
0
 40
1
 40
1
 40
1
 40
1
 10
2.099141
 20
6.093093
 30
0.0
 10
2.076999
 20
6.093093
 30
0.0
 10
2.053366
 20
6.088870
 30
0.0
 10
2.028244
 20
6.080425
 30
0.0
  0
SPLINE
  5
174
100
AcDbEntity
  8
Capa_1
 62
7
100
AcDbSpline
 70
8
 71
3
 72
8
 73
4
 74
0
 40
0
 40
0
 40
0
 40
0
 40
1
 40
1
 40
1
 40
1
 10
2.028244
 20
6.080425
 30
0.0
 10
2.003121
 20
6.071980
 30
0.0
 10
1.980873
 20
6.061763
 30
0.0
 10
1.961499
 20
6.049777
 30
0.0
  0
LWPOLYLINE
  5
175
100
AcDbEntity
  8
Capa_1
 62
7
100
AcDbPolyline
 90
4
 70
0
 10
2.045170
 20
5.884889
 30
0.0
 10
2.014832
 20
5.884889
 30
0.0
 10
2.027287
 20
5.937911
 30
0.0
 10
2.057625
 20
5.937911
 30
0.0
  0
SPLINE
  5
176
100
AcDbEntity
  8
Capa_1
 62
7
100
AcDbSpline
 70
8
 71
3
 72
8
 73
4
 74
0
 40
0
 40
0
 40
0
 40
0
 40
1
 40
1
 40
1
 40
1
 10
1.972040
 20
6.117100
 30
0.0
 10
1.989073
 20
6.124865
 30
0.0
 10
2.010683
 20
6.131982
 30
0.0
 10
2.036870
 20
6.138452
 30
0.0
  0
SPLINE
  5
177
100
AcDbEntity
  8
Capa_1
 62
7
100
AcDbSpline
 70
8
 71
3
 72
8
 73
4
 74
0
 40
0
 40
0
 40
0
 40
0
 40
1
 40
1
 40
1
 40
1
 10
2.036870
 20
6.138452
 30
0.0
 10
2.063270
 20
6.145263
 30
0.0
 10
2.088286
 20
6.148668
 30
0.0
 10
2.111918
 20
6.148668
 30
0.0
  0
SPLINE
  5
178
100
AcDbEntity
  8
Capa_1
 62
7
100
AcDbSpline
 70
8
 71
3
 72
8
 73
4
 74
0
 40
0
 40
0
 40
0
 40
0
 40
1
 40
1
 40
1
 40
1
 10
2.111918
 20
6.148668
 30
0.0
 10
2.153860
 20
6.148668
 30
0.0
 10
2.186860
 20
6.139882
 30
0.0
 10
2.210918
 20
6.122311
 30
0.0
  0
SPLINE
  5
179
100
AcDbEntity
  8
Capa_1
 62
7
100
AcDbSpline
 70
8
 71
3
 72
8
 73
4
 74
0
 40
0
 40
0
 40
0
 40
0
 40
1
 40
1
 40
1
 40
1
 10
2.210918
 20
6.122311
 30
0.0
 10
2.235189
 20
6.104943
 30
0.0
 10
2.247325
 20
6.081174
 30
0.0
 10
2.247325
 20
6.051003
 30
0.0
  0
SPLINE
  5
17a
100
AcDbEntity
  8
Capa_1
 62
7
100
AcDbSpline
 70
8
 71
3
 72
8
 73
4
 74
0
 40
0
 40
0
 40
0
 40
0
 40
1
 40
1
 40
1
 40
1
 10
2.247325
 20
6.051003
 30
0.0
 10
2.247325
 20
6.018107
 30
0.0
 10
2.235615
 20
5.988889
 30
0.0
 10
2.212196
 20
5.963349
 30
0.0
  0
SPLINE
  5
17b
100
AcDbEntity
  8
Capa_1
 62
7
100
AcDbSpline
 70
8
 71
3
 72
8
 73
4
 74
0
 40
0
 40
0
 40
0
 40
0
 40
1
 40
1
 40
1
 40
1
 10
2.212196
 20
5.963349
 30
0.0
 10
2.188989
 20
5.938013
 30
0.0
 10
2.159608
 20
5.921906
 30
0.0
 10
2.124053
 20
5.915027
 30
0.0
  0
LWPOLYLINE
  5
17c
100
AcDbEntity
  8
Capa_1
 62
7
100
AcDbPolyline
 90
3
 70
0
 10
1.961499
 20
6.049777
 30
0.0
 10
1.958308
 20
6.049777
 30
0.0
 10
1.972040
 20
6.117100
 30
0.0
  0
SPLINE
  5
17d
100
AcDbEntity
  8
Capa_1
 62
7
100
AcDbSpline
 70
8
 71
3
 72
8
 73
4
 74
0
 40
0
 40
0
 40
0
 40
0
 40
1
 40
1
 40
1
 40
1
 10
2.124053
 20
5.911962
 30
0.0
 10
2.132357
 20
5.909919
 30
0.0
 10
2.141511
 20
5.906513
 30
0.0
 10
2.151518
 20
5.901746
 30
0.0
  0
SPLINE
  5
17e
100
AcDbEntity
  8
Capa_1
 62
7
100
AcDbSpline
 70
8
 71
3
 72
8
 73
4
 74
0
 40
0
 40
0
 40
0
 40
0
 40
1
 40
1
 40
1
 40
1
 10
2.151518
 20
5.901746
 30
0.0
 10
2.161737
 20
5.896978
 30
0.0
 10
2.170679
 20
5.890985
 30
0.0
 10
2.178343
 20
5.883766
 30
0.0
  0
SPLINE
  5
17f
100
AcDbEntity
  8
Capa_1
 62
7
100
AcDbSpline
 70
8
 71
3
 72
8
 73
4
 74
0
 40
0
 40
0
 40
0
 40
0
 40
1
 40
1
 40
1
 40
1
 10
2.178343
 20
5.883766
 30
0.0
 10
2.186434
 20
5.876206
 30
0.0
 10
2.193140
 20
5.866637
 30
0.0
 10
2.198463
 20
5.855058
 30
0.0
  0
SPLINE
  5
180
100
AcDbEntity
  8
Capa_1
 62
7
100
AcDbSpline
 70
8
 71
3
 72
8
 73
4
 74
0
 40
0
 40
0
 40
0
 40
0
 40
1
 40
1
 40
1
 40
1
 10
2.198463
 20
5.855058
 30
0.0
 10
2.203996
 20
5.843480
 30
0.0
 10
2.206763
 20
5.829825
 30
0.0
 10
2.206763
 20
5.814092
 30
0.0
  0
SPLINE
  5
181
100
AcDbEntity
  8
Capa_1
 62
7
100
AcDbSpline
 70
8
 71
3
 72
8
 73
4
 74
0
 40
0
 40
0
 40
0
 40
0
 40
1
 40
1
 40
1
 40
1
 10
2.206763
 20
5.814092
 30
0.0
 10
2.206763
 20
5.789846
 30
0.0
 10
2.201760
 20
5.766417
 30
0.0
 10
2.191754
 20
5.743806
 30
0.0
  0
SPLINE
  5
182
100
AcDbEntity
  8
Capa_1
 62
7
100
AcDbSpline
 70
8
 71
3
 72
8
 73
4
 74
0
 40
0
 40
0
 40
0
 40
0
 40
1
 40
1
 40
1
 40
1
 10
2.191754
 20
5.743806
 30
0.0
 10
2.181747
 20
5.721330
 30
0.0
 10
2.167908
 20
5.701988
 30
0.0
 10
2.150238
 20
5.685778
 30
0.0
  0
LWPOLYLINE
  5
183
100
AcDbEntity
  8
Capa_1
 62
7
100
AcDbPolyline
 90
2
 70
0
 10
2.124053
 20
5.915027
 30
0.0
 10
2.124053
 20
5.911962
 30
0.0
  0
SPLINE
  5
184
100
AcDbEntity
  8
Capa_1
 62
7
100
AcDbSpline
 70
8
 71
3
 72
8
 73
4
 74
0
 40
0
 40
0
 40
0
 40
0
 40
1
 40
1
 40
1
 40
1
 10
0.857810
 20
3.925826
 30
0.0
 10
0.792236
 20
3.925826
 30
0.0
 10
0.741032
 20
3.942717
 30
0.0
 10
0.704200
 20
3.976498
 30
0.0
  0
SPLINE
  5
185
100
AcDbEntity
  8
Capa_1
 62
7
100
AcDbSpline
 70
8
 71
3
 72
8
 73
4
 74
0
 40
0
 40
0
 40
0
 40
0
 40
1
 40
1
 40
1
 40
1
 10
0.704200
 20
3.976498
 30
0.0
 10
0.667367
 20
4.010279
 30
0.0
 10
0.648951
 20
4.058274
 30
0.0
 10
0.648951
 20
4.120483
 30
0.0
  0
SPLINE
  5
186
100
AcDbEntity
  8
Capa_1
 62
7
100
AcDbSpline
 70
8
 71
3
 72
8
 73
4
 74
0
 40
0
 40
0
 40
0
 40
0
 40
1
 40
1
 40
1
 40
1
 10
0.648951
 20
4.120483
 30
0.0
 10
0.648951
 20
4.166251
 30
0.0
 10
0.655658
 20
4.208580
 30
0.0
 10
0.669071
 20
4.247469
 30
0.0
  0
SPLINE
  5
187
100
AcDbEntity
  8
Capa_1
 62
7
100
AcDbSpline
 70
8
 71
3
 72
8
 73
4
 74
0
 40
0
 40
0
 40
0
 40
0
 40
1
 40
1
 40
1
 40
1
 10
0.669071
 20
4.247469
 30
0.0
 10
0.682697
 20
4.286358
 30
0.0
 10
0.702390
 20
4.320241
 30
0.0
 10
0.728151
 20
4.349119
 30
0.0
  0
SPLINE
  5
188
100
AcDbEntity
  8
Capa_1
 62
7
100
AcDbSpline
 70
8
 71
3
 72
8
 73
4
 74
0
 40
0
 40
0
 40
0
 40
0
 40
1
 40
1
 40
1
 40
1
 10
0.728151
 20
4.349119
 30
0.0
 10
0.753700
 20
4.377792
 30
0.0
 10
0.784997
 20
4.400233
 30
0.0
 10
0.822042
 20
4.416443
 30
0.0
  0
SPLINE
  5
189
100
AcDbEntity
  8
Capa_1
 62
7
100
AcDbSpline
 70
8
 71
3
 72
8
 73
4
 74
0
 40
0
 40
0
 40
0
 40
0
 40
1
 40
1
 40
1
 40
1
 10
0.822042
 20
4.416443
 30
0.0
 10
0.859300
 20
4.432652
 30
0.0
 10
0.901136
 20
4.440757
 30
0.0
 10
0.947549
 20
4.440757
 30
0.0
  0
SPLINE
  5
18a
100
AcDbEntity
  8
Capa_1
 62
7
100
AcDbSpline
 70
8
 71
3
 72
8
 73
4
 74
0
 40
0
 40
0
 40
0
 40
0
 40
1
 40
1
 40
1
 40
1
 10
0.947549
 20
4.440757
 30
0.0
 10
0.975439
 20
4.440757
 30
0.0
 10
1.003223
 20
4.437215
 30
0.0
 10
1.030901
 20
4.430132
 30
0.0
  0
SPLINE
  5
18b
100
AcDbEntity
  8
Capa_1
 62
7
100
AcDbSpline
 70
8
 71
3
 72
8
 73
4
 74
0
 40
0
 40
0
 40
0
 40
0
 40
1
 40
1
 40
1
 40
1
 10
1.030901
 20
4.430132
 30
0.0
 10
1.058792
 20
4.423253
 30
0.0
 10
1.087214
 20
4.411913
 30
0.0
 10
1.116168
 20
4.396113
 30
0.0
  0
LWPOLYLINE
  5
18c
100
AcDbEntity
  8
Capa_1
 62
7
100
AcDbPolyline
 90
2
 70
0
 10
2.150238
 20
5.685778
 30
0.0
 10
2.150243
 20
5.685676
 30
0.0
  0
SPLINE
  5
18d
100
AcDbEntity
  8
Capa_1
 62
7
100
AcDbSpline
 70
8
 71
3
 72
8
 73
4
 74
0
 40
0
 40
0
 40
0
 40
0
 40
1
 40
1
 40
1
 40
1
 10
1.096051
 20
4.320820
 30
0.0
 10
1.072419
 20
4.343908
 30
0.0
 10
1.046658
 20
4.360561
 30
0.0
 10
1.018767
 20
4.370777
 30
0.0
  0
SPLINE
  5
18e
100
AcDbEntity
  8
Capa_1
 62
7
100
AcDbSpline
 70
8
 71
3
 72
8
 73
4
 74
0
 40
0
 40
0
 40
0
 40
0
 40
1
 40
1
 40
1
 40
1
 10
1.018767
 20
4.370777
 30
0.0
 10
0.991089
 20
4.381197
 30
0.0
 10
0.961283
 20
4.386407
 30
0.0
 10
0.929347
 20
4.386407
 30
0.0
  0
SPLINE
  5
18f
100
AcDbEntity
  8
Capa_1
 62
7
100
AcDbSpline
 70
8
 71
3
 72
8
 73
4
 74
0
 40
0
 40
0
 40
0
 40
0
 40
1
 40
1
 40
1
 40
1
 10
0.929347
 20
4.386407
 30
0.0
 10
0.894218
 20
4.386407
 30
0.0
 10
0.863454
 20
4.379188
 30
0.0
 10
0.837053
 20
4.364749
 30
0.0
  0
SPLINE
  5
190
100
AcDbEntity
  8
Capa_1
 62
7
100
AcDbSpline
 70
8
 71
3
 72
8
 73
4
 74
0
 40
0
 40
0
 40
0
 40
0
 40
1
 40
1
 40
1
 40
1
 10
0.837053
 20
4.364749
 30
0.0
 10
0.810653
 20
4.350311
 30
0.0
 10
0.788405
 20
4.331104
 30
0.0
 10
0.770308
 20
4.307131
 30
0.0
  0
SPLINE
  5
191
100
AcDbEntity
  8
Capa_1
 62
7
100
AcDbSpline
 70
8
 71
3
 72
8
 73
4
 74
0
 40
0
 40
0
 40
0
 40
0
 40
1
 40
1
 40
1
 40
1
 10
0.770308
 20
4.307131
 30
0.0
 10
0.752637
 20
4.283566
 30
0.0
 10
0.739224
 20
4.256118
 30
0.0
 10
0.730069
 20
4.224789
 30
0.0
  0
SPLINE
  5
192
100
AcDbEntity
  8
Capa_1
 62
7
100
AcDbSpline
 70
8
 71
3
 72
8
 73
4
 74
0
 40
0
 40
0
 40
0
 40
0
 40
1
 40
1
 40
1
 40
1
 10
0.730069
 20
4.224789
 30
0.0
 10
0.721127
 20
4.193460
 30
0.0
 10
0.716656
 20
4.161892
 30
0.0
 10
0.716656
 20
4.130086
 30
0.0
  0
SPLINE
  5
193
100
AcDbEntity
  8
Capa_1
 62
7
100
AcDbSpline
 70
8
 71
3
 72
8
 73
4
 74
0
 40
0
 40
0
 40
0
 40
0
 40
1
 40
1
 40
1
 40
1
 10
0.716656
 20
4.130086
 30
0.0
 10
0.716656
 20
4.082343
 30
0.0
 10
0.729111
 20
4.045456
 30
0.0
 10
0.754021
 20
4.019426
 30
0.0
  0
SPLINE
  5
194
100
AcDbEntity
  8
Capa_1
 62
7
100
AcDbSpline
 70
8
 71
3
 72
8
 73
4
 74
0
 40
0
 40
0
 40
0
 40
0
 40
1
 40
1
 40
1
 40
1
 10
0.754021
 20
4.019426
 30
0.0
 10
0.779144
 20
3.993409
 30
0.0
 10
0.816189
 20
3.980400
 30
0.0
 10
0.865157
 20
3.980400
 30
0.0
  0
SPLINE
  5
195
100
AcDbEntity
  8
Capa_1
 62
7
100
AcDbSpline
 70
8
 71
3
 72
8
 73
4
 74
0
 40
0
 40
0
 40
0
 40
0
 40
1
 40
1
 40
1
 40
1
 10
0.865157
 20
3.980400
 30
0.0
 10
0.886660
 20
3.980400
 30
0.0
 10
0.906780
 20
3.982444
 30
0.0
 10
0.925515
 20
3.986530
 30
0.0
  0
SPLINE
  5
196
100
AcDbEntity
  8
Capa_1
 62
7
100
AcDbSpline
 70
8
 71
3
 72
8
 73
4
 74
0
 40
0
 40
0
 40
0
 40
0
 40
1
 40
1
 40
1
 40
1
 10
0.925515
 20
3.986530
 30
0.0
 10
0.944464
 20
3.990617
 30
0.0
 10
0.962241
 20
3.995963
 30
0.0
 10
0.978847
 20
4.002569
 30
0.0
  0
LWPOLYLINE
  5
197
100
AcDbEntity
  8
Capa_1
 62
7
100
AcDbPolyline
 90
3
 70
0
 10
1.116168
 20
4.396113
 30
0.0
 10
1.101797
 20
4.320820
 30
0.0
 10
1.096051
 20
4.320820
 30
0.0
  0
SPLINE
  5
198
100
AcDbEntity
  8
Capa_1
 62
7
100
AcDbSpline
 70
8
 71
3
 72
8
 73
4
 74
0
 40
0
 40
0
 40
0
 40
0
 40
1
 40
1
 40
1
 40
1
 10
1.034094
 20
3.972258
 30
0.0
 10
1.020043
 20
3.966129
 30
0.0
 10
1.007375
 20
3.960680
 30
0.0
 10
0.996091
 20
3.955913
 30
0.0
  0
SPLINE
  5
199
100
AcDbEntity
  8
Capa_1
 62
7
100
AcDbSpline
 70
8
 71
3
 72
8
 73
4
 74
0
 40
0
 40
0
 40
0
 40
0
 40
1
 40
1
 40
1
 40
1
 10
0.996091
 20
3.955913
 30
0.0
 10
0.984807
 20
3.951145
 30
0.0
 10
0.970649
 20
3.946241
 30
0.0
 10
0.953617
 20
3.941201
 30
0.0
  0
SPLINE
  5
19a
100
AcDbEntity
  8
Capa_1
 62
7
100
AcDbSpline
 70
8
 71
3
 72
8
 73
4
 74
0
 40
0
 40
0
 40
0
 40
0
 40
1
 40
1
 40
1
 40
1
 10
0.953617
 20
3.941201
 30
0.0
 10
0.938927
 20
3.936434
 30
0.0
 10
0.923704
 20
3.932756
 30
0.0
 10
0.907949
 20
3.930168
 30
0.0
  0
SPLINE
  5
19b
100
AcDbEntity
  8
Capa_1
 62
7
100
AcDbSpline
 70
8
 71
3
 72
8
 73
4
 74
0
 40
0
 40
0
 40
0
 40
0
 40
1
 40
1
 40
1
 40
1
 10
0.907949
 20
3.930168
 30
0.0
 10
0.892407
 20
3.927444
 30
0.0
 10
0.875694
 20
3.926082
 30
0.0
 10
0.857810
 20
3.926082
 30
0.0
  0
LWPOLYLINE
  5
19c
100
AcDbEntity
  8
Capa_1
 62
7
100
AcDbPolyline
 90
6
 70
0
 10
0.978847
 20
4.002569
 30
0.0
 10
1.005673
 20
4.129565
 30
0.0
 10
0.878887
 20
4.129565
 30
0.0
 10
0.891023
 20
4.185243
 30
0.0
 10
1.081359
 20
4.185243
 30
0.0
 10
1.034094
 20
3.972258
 30
0.0
  0
LWPOLYLINE
  5
19d
100
AcDbEntity
  8
Capa_1
 62
7
100
AcDbPolyline
 90
2
 70
0
 10
0.857810
 20
3.926082
 30
0.0
 10
0.857810
 20
3.925826
 30
0.0
  0
SPLINE
  5
19e
100
AcDbEntity
  8
Capa_1
 62
7
100
AcDbSpline
 70
8
 71
3
 72
8
 73
4
 74
0
 40
0
 40
0
 40
0
 40
0
 40
1
 40
1
 40
1
 40
1
 10
2.087969
 20
4.241462
 30
0.0
 10
2.087969
 20
4.187249
 30
0.0
 10
2.074769
 20
4.135920
 30
0.0
 10
2.048368
 20
4.087475
 30
0.0
  0
SPLINE
  5
19f
100
AcDbEntity
  8
Capa_1
 62
7
100
AcDbSpline
 70
8
 71
3
 72
8
 73
4
 74
0
 40
0
 40
0
 40
0
 40
0
 40
1
 40
1
 40
1
 40
1
 10
2.048368
 20
4.087475
 30
0.0
 10
2.021968
 20
4.039051
 30
0.0
 10
1.985881
 20
4.001609
 30
0.0
 10
1.940107
 20
3.975149
 30
0.0
  0
SPLINE
  5
1a0
100
AcDbEntity
  8
Capa_1
 62
7
100
AcDbSpline
 70
8
 71
3
 72
8
 73
4
 74
0
 40
0
 40
0
 40
0
 40
0
 40
1
 40
1
 40
1
 40
1
 10
1.940107
 20
3.975149
 30
0.0
 10
1.912003
 20
3.959349
 30
0.0
 10
1.883261
 20
3.948792
 30
0.0
 10
1.853881
 20
3.943480
 30
0.0
  0
SPLINE
  5
1a1
100
AcDbEntity
  8
Capa_1
 62
7
100
AcDbSpline
 70
8
 71
3
 72
8
 73
4
 74
0
 40
0
 40
0
 40
0
 40
0
 40
1
 40
1
 40
1
 40
1
 10
1.853881
 20
3.943480
 30
0.0
 10
1.824500
 20
3.938031
 30
0.0
 10
1.791181
 20
3.935307
 30
0.0
 10
1.753922
 20
3.935307
 30
0.0
  0
LWPOLYLINE
  5
1a2
100
AcDbEntity
  8
Capa_1
 62
7
100
AcDbPolyline
 90
10
 70
1
 10
1.499396
 20
3.935491
 30
0.0
 10
1.424028
 20
3.935491
 30
0.0
 10
1.294050
 20
4.379450
 30
0.0
 10
1.195689
 20
3.935491
 30
0.0
 10
1.135969
 20
3.935491
 30
0.0
 10
1.245827
 20
4.431777
 30
0.0
 10
1.340995
 20
4.431777
 30
0.0
 10
1.459796
 20
4.026475
 30
0.0
 10
1.549535
 20
4.431777
 30
0.0
 10
1.609254
 20
4.431777
 30
0.0
  0
SPLINE
  5
1a3
100
AcDbEntity
  8
Capa_1
 62
7
100
AcDbSpline
 70
8
 71
3
 72
8
 73
4
 74
0
 40
0
 40
0
 40
0
 40
0
 40
1
 40
1
 40
1
 40
1
 10
1.845897
 20
4.431593
 30
0.0
 10
1.880387
 20
4.431593
 30
0.0
 10
1.911790
 20
4.428869
 30
0.0
 10
1.940106
 20
4.423420
 30
0.0
  0
SPLINE
  5
1a4
100
AcDbEntity
  8
Capa_1
 62
7
100
AcDbSpline
 70
8
 71
3
 72
8
 73
4
 74
0
 40
0
 40
0
 40
0
 40
0
 40
1
 40
1
 40
1
 40
1
 10
1.940106
 20
4.423420
 30
0.0
 10
1.968635
 20
4.418653
 30
0.0
 10
1.994716
 20
4.407994
 30
0.0
 10
2.018349
 20
4.391444
 30
0.0
  0
SPLINE
  5
1a5
100
AcDbEntity
  8
Capa_1
 62
7
100
AcDbSpline
 70
8
 71
3
 72
8
 73
4
 74
0
 40
0
 40
0
 40
0
 40
0
 40
1
 40
1
 40
1
 40
1
 10
2.018349
 20
4.391444
 30
0.0
 10
2.040917
 20
4.375643
 30
0.0
 10
2.058162
 20
4.354972
 30
0.0
 10
2.070084
 20
4.329432
 30
0.0
  0
SPLINE
  5
1a6
100
AcDbEntity
  8
Capa_1
 62
7
100
AcDbSpline
 70
8
 71
3
 72
8
 73
4
 74
0
 40
0
 40
0
 40
0
 40
0
 40
1
 40
1
 40
1
 40
1
 10
2.070084
 20
4.329432
 30
0.0
 10
2.082006
 20
4.304096
 30
0.0
 10
2.087968
 20
4.274538
 30
0.0
 10
2.087968
 20
4.240757
 30
0.0
  0
LWPOLYLINE
  5
1a7
100
AcDbEntity
  8
Capa_1
 62
7
100
AcDbPolyline
 90
4
 70
0
 10
1.753922
 20
3.935307
 30
0.0
 10
1.625541
 20
3.935307
 30
0.0
 10
1.735400
 20
4.431593
 30
0.0
 10
1.845897
 20
4.431593
 30
0.0
  0
SPLINE
  5
1a8
100
AcDbEntity
  8
Capa_1
 62
7
100
AcDbSpline
 70
8
 71
3
 72
8
 73
4
 74
0
 40
0
 40
0
 40
0
 40
0
 40
1
 40
1
 40
1
 40
1
 10
2.021223
 20
4.235332
 30
0.0
 10
2.021223
 20
4.260668
 30
0.0
 10
2.016858
 20
4.282428
 30
0.0
 10
2.008129
 20
4.300613
 30
0.0
  0
SPLINE
  5
1a9
100
AcDbEntity
  8
Capa_1
 62
7
100
AcDbSpline
 70
8
 71
3
 72
8
 73
4
 74
0
 40
0
 40
0
 40
0
 40
0
 40
1
 40
1
 40
1
 40
1
 10
2.008129
 20
4.300613
 30
0.0
 10
1.999613
 20
4.319070
 30
0.0
 10
1.986626
 20
4.334394
 30
0.0
 10
1.969167
 20
4.346585
 30
0.0
  0
SPLINE
  5
1aa
100
AcDbEntity
  8
Capa_1
 62
7
100
AcDbSpline
 70
8
 71
3
 72
8
 73
4
 74
0
 40
0
 40
0
 40
0
 40
0
 40
1
 40
1
 40
1
 40
1
 10
1.969167
 20
4.346585
 30
0.0
 10
1.951922
 20
4.358572
 30
0.0
 10
1.933506
 20
4.366575
 30
0.0
 10
1.913919
 20
4.370593
 30
0.0
  0
SPLINE
  5
1ab
100
AcDbEntity
  8
Capa_1
 62
7
100
AcDbSpline
 70
8
 71
3
 72
8
 73
4
 74
0
 40
0
 40
0
 40
0
 40
0
 40
1
 40
1
 40
1
 40
1
 10
1.913919
 20
4.370593
 30
0.0
 10
1.894332
 20
4.374679
 30
0.0
 10
1.869529
 20
4.376722
 30
0.0
 10
1.839509
 20
4.376722
 30
0.0
  0
LWPOLYLINE
  5
1ac
100
AcDbEntity
  8
Capa_1
 62
7
100
AcDbPolyline
 90
2
 70
0
 10
2.087968
 20
4.240757
 30
0.0
 10
2.087969
 20
4.241462
 30
0.0
  0
SPLINE
  5
1ad
100
AcDbEntity
  8
Capa_1
 62
7
100
AcDbSpline
 70
8
 71
3
 72
8
 73
4
 74
0
 40
0
 40
0
 40
0
 40
0
 40
1
 40
1
 40
1
 40
1
 10
1.766696
 20
3.989094
 30
0.0
 10
1.797142
 20
3.989094
 30
0.0
 10
1.824287
 20
3.991478
 30
0.0
 10
1.848132
 20
3.996246
 30
0.0
  0
SPLINE
  5
1ae
100
AcDbEntity
  8
Capa_1
 62
7
100
AcDbSpline
 70
8
 71
3
 72
8
 73
4
 74
0
 40
0
 40
0
 40
0
 40
0
 40
1
 40
1
 40
1
 40
1
 10
1.848132
 20
3.996246
 30
0.0
 10
1.872190
 20
4.001694
 30
0.0
 10
1.894864
 20
4.010684
 30
0.0
 10
1.916155
 20
4.023216
 30
0.0
  0
SPLINE
  5
1af
100
AcDbEntity
  8
Capa_1
 62
7
100
AcDbSpline
 70
8
 71
3
 72
8
 73
4
 74
0
 40
0
 40
0
 40
0
 40
0
 40
1
 40
1
 40
1
 40
1
 10
1.916155
 20
4.023216
 30
0.0
 10
1.950432
 20
4.043648
 30
0.0
 10
1.976513
 20
4.073104
 30
0.0
 10
1.994397
 20
4.111585
 30
0.0
  0
SPLINE
  5
1b0
100
AcDbEntity
  8
Capa_1
 62
7
100
AcDbSpline
 70
8
 71
3
 72
8
 73
4
 74
0
 40
0
 40
0
 40
0
 40
0
 40
1
 40
1
 40
1
 40
1
 10
1.994397
 20
4.111585
 30
0.0
 10
2.012281
 20
4.150270
 30
0.0
 10
2.021223
 20
4.191267
 30
0.0
 10
2.021223
 20
4.234576
 30
0.0
  0
LWPOLYLINE
  5
1b1
100
AcDbEntity
  8
Capa_1
 62
7
100
AcDbPolyline
 90
4
 70
0
 10
1.839509
 20
4.376722
 30
0.0
 10
1.786815
 20
4.376722
 30
0.0
 10
1.700589
 20
3.989094
 30
0.0
 10
1.766696
 20
3.989094
 30
0.0
  0
SPLINE
  5
1b2
100
AcDbEntity
  8
Capa_1
 62
7
100
AcDbSpline
 70
8
 71
3
 72
8
 73
4
 74
0
 40
0
 40
0
 40
0
 40
0
 40
1
 40
1
 40
1
 40
1
 10
0.857810
 20
2.219294
 30
0.0
 10
0.792236
 20
2.219294
 30
0.0
 10
0.741032
 20
2.236185
 30
0.0
 10
0.704200
 20
2.269966
 30
0.0
  0
SPLINE
  5
1b3
100
AcDbEntity
  8
Capa_1
 62
7
100
AcDbSpline
 70
8
 71
3
 72
8
 73
4
 74
0
 40
0
 40
0
 40
0
 40
0
 40
1
 40
1
 40
1
 40
1
 10
0.704200
 20
2.269966
 30
0.0
 10
0.667367
 20
2.303747
 30
0.0
 10
0.648951
 20
2.351742
 30
0.0
 10
0.648951
 20
2.413951
 30
0.0
  0
SPLINE
  5
1b4
100
AcDbEntity
  8
Capa_1
 62
7
100
AcDbSpline
 70
8
 71
3
 72
8
 73
4
 74
0
 40
0
 40
0
 40
0
 40
0
 40
1
 40
1
 40
1
 40
1
 10
0.648951
 20
2.413951
 30
0.0
 10
0.648951
 20
2.459719
 30
0.0
 10
0.655658
 20
2.502047
 30
0.0
 10
0.669071
 20
2.540937
 30
0.0
  0
SPLINE
  5
1b5
100
AcDbEntity
  8
Capa_1
 62
7
100
AcDbSpline
 70
8
 71
3
 72
8
 73
4
 74
0
 40
0
 40
0
 40
0
 40
0
 40
1
 40
1
 40
1
 40
1
 10
0.669071
 20
2.540937
 30
0.0
 10
0.682697
 20
2.579826
 30
0.0
 10
0.702390
 20
2.613709
 30
0.0
 10
0.728151
 20
2.642586
 30
0.0
  0
SPLINE
  5
1b6
100
AcDbEntity
  8
Capa_1
 62
7
100
AcDbSpline
 70
8
 71
3
 72
8
 73
4
 74
0
 40
0
 40
0
 40
0
 40
0
 40
1
 40
1
 40
1
 40
1
 10
0.728151
 20
2.642586
 30
0.0
 10
0.753700
 20
2.671260
 30
0.0
 10
0.784997
 20
2.693701
 30
0.0
 10
0.822042
 20
2.709910
 30
0.0
  0
SPLINE
  5
1b7
100
AcDbEntity
  8
Capa_1
 62
7
100
AcDbSpline
 70
8
 71
3
 72
8
 73
4
 74
0
 40
0
 40
0
 40
0
 40
0
 40
1
 40
1
 40
1
 40
1
 10
0.822042
 20
2.709910
 30
0.0
 10
0.859300
 20
2.726120
 30
0.0
 10
0.901136
 20
2.734225
 30
0.0
 10
0.947549
 20
2.734225
 30
0.0
  0
SPLINE
  5
1b8
100
AcDbEntity
  8
Capa_1
 62
7
100
AcDbSpline
 70
8
 71
3
 72
8
 73
4
 74
0
 40
0
 40
0
 40
0
 40
0
 40
1
 40
1
 40
1
 40
1
 10
0.947549
 20
2.734225
 30
0.0
 10
0.975439
 20
2.734225
 30
0.0
 10
1.003223
 20
2.730683
 30
0.0
 10
1.030901
 20
2.723600
 30
0.0
  0
SPLINE
  5
1b9
100
AcDbEntity
  8
Capa_1
 62
7
100
AcDbSpline
 70
8
 71
3
 72
8
 73
4
 74
0
 40
0
 40
0
 40
0
 40
0
 40
1
 40
1
 40
1
 40
1
 10
1.030901
 20
2.723600
 30
0.0
 10
1.058792
 20
2.716721
 30
0.0
 10
1.087214
 20
2.705381
 30
0.0
 10
1.116168
 20
2.689580
 30
0.0
  0
LWPOLYLINE
  5
1ba
100
AcDbEntity
  8
Capa_1
 62
7
100
AcDbPolyline
 90
2
 70
0
 10
2.021223
 20
4.234576
 30
0.0
 10
2.021223
 20
4.235332
 30
0.0
  0
SPLINE
  5
1bb
100
AcDbEntity
  8
Capa_1
 62
7
100
AcDbSpline
 70
8
 71
3
 72
8
 73
4
 74
0
 40
0
 40
0
 40
0
 40
0
 40
1
 40
1
 40
1
 40
1
 10
1.096051
 20
2.614288
 30
0.0
 10
1.072419
 20
2.637376
 30
0.0
 10
1.046658
 20
2.654028
 30
0.0
 10
1.018767
 20
2.664245
 30
0.0
  0
SPLINE
  5
1bc
100
AcDbEntity
  8
Capa_1
 62
7
100
AcDbSpline
 70
8
 71
3
 72
8
 73
4
 74
0
 40
0
 40
0
 40
0
 40
0
 40
1
 40
1
 40
1
 40
1
 10
1.018767
 20
2.664245
 30
0.0
 10
0.991089
 20
2.674665
 30
0.0
 10
0.961283
 20
2.679875
 30
0.0
 10
0.929347
 20
2.679875
 30
0.0
  0
SPLINE
  5
1bd
100
AcDbEntity
  8
Capa_1
 62
7
100
AcDbSpline
 70
8
 71
3
 72
8
 73
4
 74
0
 40
0
 40
0
 40
0
 40
0
 40
1
 40
1
 40
1
 40
1
 10
0.929347
 20
2.679875
 30
0.0
 10
0.894218
 20
2.679875
 30
0.0
 10
0.863454
 20
2.672656
 30
0.0
 10
0.837053
 20
2.658217
 30
0.0
  0
SPLINE
  5
1be
100
AcDbEntity
  8
Capa_1
 62
7
100
AcDbSpline
 70
8
 71
3
 72
8
 73
4
 74
0
 40
0
 40
0
 40
0
 40
0
 40
1
 40
1
 40
1
 40
1
 10
0.837053
 20
2.658217
 30
0.0
 10
0.810653
 20
2.643778
 30
0.0
 10
0.788405
 20
2.624572
 30
0.0
 10
0.770308
 20
2.600598
 30
0.0
  0
SPLINE
  5
1bf
100
AcDbEntity
  8
Capa_1
 62
7
100
AcDbSpline
 70
8
 71
3
 72
8
 73
4
 74
0
 40
0
 40
0
 40
0
 40
0
 40
1
 40
1
 40
1
 40
1
 10
0.770308
 20
2.600598
 30
0.0
 10
0.752637
 20
2.577033
 30
0.0
 10
0.739224
 20
2.549586
 30
0.0
 10
0.730069
 20
2.518257
 30
0.0
  0
SPLINE
  5
1c0
100
AcDbEntity
  8
Capa_1
 62
7
100
AcDbSpline
 70
8
 71
3
 72
8
 73
4
 74
0
 40
0
 40
0
 40
0
 40
0
 40
1
 40
1
 40
1
 40
1
 10
0.730069
 20
2.518257
 30
0.0
 10
0.721127
 20
2.486928
 30
0.0
 10
0.716656
 20
2.455360
 30
0.0
 10
0.716656
 20
2.423554
 30
0.0
  0
SPLINE
  5
1c1
100
AcDbEntity
  8
Capa_1
 62
7
100
AcDbSpline
 70
8
 71
3
 72
8
 73
4
 74
0
 40
0
 40
0
 40
0
 40
0
 40
1
 40
1
 40
1
 40
1
 10
0.716656
 20
2.423554
 30
0.0
 10
0.716656
 20
2.375743
 30
0.0
 10
0.729111
 20
2.338856
 30
0.0
 10
0.754021
 20
2.312894
 30
0.0
  0
SPLINE
  5
1c2
100
AcDbEntity
  8
Capa_1
 62
7
100
AcDbSpline
 70
8
 71
3
 72
8
 73
4
 74
0
 40
0
 40
0
 40
0
 40
0
 40
1
 40
1
 40
1
 40
1
 10
0.754021
 20
2.312894
 30
0.0
 10
0.779144
 20
2.286877
 30
0.0
 10
0.816189
 20
2.273868
 30
0.0
 10
0.865157
 20
2.273868
 30
0.0
  0
SPLINE
  5
1c3
100
AcDbEntity
  8
Capa_1
 62
7
100
AcDbSpline
 70
8
 71
3
 72
8
 73
4
 74
0
 40
0
 40
0
 40
0
 40
0
 40
1
 40
1
 40
1
 40
1
 10
0.865157
 20
2.273868
 30
0.0
 10
0.886660
 20
2.273868
 30
0.0
 10
0.906780
 20
2.275912
 30
0.0
 10
0.925515
 20
2.279998
 30
0.0
  0
SPLINE
  5
1c4
100
AcDbEntity
  8
Capa_1
 62
7
100
AcDbSpline
 70
8
 71
3
 72
8
 73
4
 74
0
 40
0
 40
0
 40
0
 40
0
 40
1
 40
1
 40
1
 40
1
 10
0.925515
 20
2.279998
 30
0.0
 10
0.944464
 20
2.284084
 30
0.0
 10
0.962241
 20
2.289431
 30
0.0
 10
0.978847
 20
2.296037
 30
0.0
  0
LWPOLYLINE
  5
1c5
100
AcDbEntity
  8
Capa_1
 62
7
100
AcDbPolyline
 90
3
 70
0
 10
1.116168
 20
2.689580
 30
0.0
 10
1.101797
 20
2.614288
 30
0.0
 10
1.096051
 20
2.614288
 30
0.0
  0
SPLINE
  5
1c6
100
AcDbEntity
  8
Capa_1
 62
7
100
AcDbSpline
 70
8
 71
3
 72
8
 73
4
 74
0
 40
0
 40
0
 40
0
 40
0
 40
1
 40
1
 40
1
 40
1
 10
1.034094
 20
2.265726
 30
0.0
 10
1.020043
 20
2.259596
 30
0.0
 10
1.007375
 20
2.254148
 30
0.0
 10
0.996091
 20
2.249380
 30
0.0
  0
SPLINE
  5
1c7
100
AcDbEntity
  8
Capa_1
 62
7
100
AcDbSpline
 70
8
 71
3
 72
8
 73
4
 74
0
 40
0
 40
0
 40
0
 40
0
 40
1
 40
1
 40
1
 40
1
 10
0.996091
 20
2.249380
 30
0.0
 10
0.984807
 20
2.244613
 30
0.0
 10
0.970649
 20
2.239709
 30
0.0
 10
0.953617
 20
2.234669
 30
0.0
  0
SPLINE
  5
1c8
100
AcDbEntity
  8
Capa_1
 62
7
100
AcDbSpline
 70
8
 71
3
 72
8
 73
4
 74
0
 40
0
 40
0
 40
0
 40
0
 40
1
 40
1
 40
1
 40
1
 10
0.953617
 20
2.234669
 30
0.0
 10
0.938927
 20
2.229902
 30
0.0
 10
0.923704
 20
2.226224
 30
0.0
 10
0.907949
 20
2.223636
 30
0.0
  0
SPLINE
  5
1c9
100
AcDbEntity
  8
Capa_1
 62
7
100
AcDbSpline
 70
8
 71
3
 72
8
 73
4
 74
0
 40
0
 40
0
 40
0
 40
0
 40
1
 40
1
 40
1
 40
1
 10
0.907949
 20
2.223636
 30
0.0
 10
0.892407
 20
2.220912
 30
0.0
 10
0.875694
 20
2.219549
 30
0.0
 10
0.857810
 20
2.219549
 30
0.0
  0
LWPOLYLINE
  5
1ca
100
AcDbEntity
  8
Capa_1
 62
7
100
AcDbPolyline
 90
6
 70
0
 10
0.978847
 20
2.296037
 30
0.0
 10
1.005673
 20
2.423033
 30
0.0
 10
0.878887
 20
2.423033
 30
0.0
 10
0.891023
 20
2.478711
 30
0.0
 10
1.081359
 20
2.478711
 30
0.0
 10
1.034094
 20
2.265726
 30
0.0
  0
LWPOLYLINE
  5
1cb
100
AcDbEntity
  8
Capa_1
 62
7
100
AcDbPolyline
 90
2
 70
0
 10
0.857810
 20
2.219549
 30
0.0
 10
0.857810
 20
2.219294
 30
0.0
  0
SPLINE
  5
1cc
100
AcDbEntity
  8
Capa_1
 62
7
100
AcDbSpline
 70
8
 71
3
 72
8
 73
4
 74
0
 40
0
 40
0
 40
0
 40
0
 40
1
 40
1
 40
1
 40
1
 10
2.087969
 20
2.534940
 30
0.0
 10
2.087969
 20
2.480727
 30
0.0
 10
2.074769
 20
2.429398
 30
0.0
 10
2.048368
 20
2.380953
 30
0.0
  0
SPLINE
  5
1cd
100
AcDbEntity
  8
Capa_1
 62
7
100
AcDbSpline
 70
8
 71
3
 72
8
 73
4
 74
0
 40
0
 40
0
 40
0
 40
0
 40
1
 40
1
 40
1
 40
1
 10
2.048368
 20
2.380953
 30
0.0
 10
2.021968
 20
2.332529
 30
0.0
 10
1.985881
 20
2.295087
 30
0.0
 10
1.940107
 20
2.268627
 30
0.0
  0
SPLINE
  5
1ce
100
AcDbEntity
  8
Capa_1
 62
7
100
AcDbSpline
 70
8
 71
3
 72
8
 73
4
 74
0
 40
0
 40
0
 40
0
 40
0
 40
1
 40
1
 40
1
 40
1
 10
1.940107
 20
2.268627
 30
0.0
 10
1.912003
 20
2.252827
 30
0.0
 10
1.883261
 20
2.242270
 30
0.0
 10
1.853881
 20
2.236958
 30
0.0
  0
SPLINE
  5
1cf
100
AcDbEntity
  8
Capa_1
 62
7
100
AcDbSpline
 70
8
 71
3
 72
8
 73
4
 74
0
 40
0
 40
0
 40
0
 40
0
 40
1
 40
1
 40
1
 40
1
 10
1.853881
 20
2.236958
 30
0.0
 10
1.824500
 20
2.231509
 30
0.0
 10
1.791181
 20
2.228785
 30
0.0
 10
1.753922
 20
2.228785
 30
0.0
  0
LWPOLYLINE
  5
1d0
100
AcDbEntity
  8
Capa_1
 62
7
100
AcDbPolyline
 90
10
 70
1
 10
1.499396
 20
2.228969
 30
0.0
 10
1.424028
 20
2.228969
 30
0.0
 10
1.294050
 20
2.672928
 30
0.0
 10
1.195689
 20
2.228969
 30
0.0
 10
1.135969
 20
2.228969
 30
0.0
 10
1.245827
 20
2.725255
 30
0.0
 10
1.340995
 20
2.725255
 30
0.0
 10
1.459796
 20
2.319953
 30
0.0
 10
1.549535
 20
2.725255
 30
0.0
 10
1.609254
 20
2.725255
 30
0.0
  0
SPLINE
  5
1d1
100
AcDbEntity
  8
Capa_1
 62
7
100
AcDbSpline
 70
8
 71
3
 72
8
 73
4
 74
0
 40
0
 40
0
 40
0
 40
0
 40
1
 40
1
 40
1
 40
1
 10
1.845897
 20
2.725071
 30
0.0
 10
1.880387
 20
2.725071
 30
0.0
 10
1.911790
 20
2.722687
 30
0.0
 10
1.940106
 20
2.717920
 30
0.0
  0
SPLINE
  5
1d2
100
AcDbEntity
  8
Capa_1
 62
7
100
AcDbSpline
 70
8
 71
3
 72
8
 73
4
 74
0
 40
0
 40
0
 40
0
 40
0
 40
1
 40
1
 40
1
 40
1
 10
1.940106
 20
2.717920
 30
0.0
 10
1.968635
 20
2.713152
 30
0.0
 10
1.994716
 20
2.702493
 30
0.0
 10
2.018349
 20
2.685943
 30
0.0
  0
SPLINE
  5
1d3
100
AcDbEntity
  8
Capa_1
 62
7
100
AcDbSpline
 70
8
 71
3
 72
8
 73
4
 74
0
 40
0
 40
0
 40
0
 40
0
 40
1
 40
1
 40
1
 40
1
 10
2.018349
 20
2.685943
 30
0.0
 10
2.040917
 20
2.670143
 30
0.0
 10
2.058162
 20
2.649472
 30
0.0
 10
2.070084
 20
2.623932
 30
0.0
  0
SPLINE
  5
1d4
100
AcDbEntity
  8
Capa_1
 62
7
100
AcDbSpline
 70
8
 71
3
 72
8
 73
4
 74
0
 40
0
 40
0
 40
0
 40
0
 40
1
 40
1
 40
1
 40
1
 10
2.070084
 20
2.623932
 30
0.0
 10
2.082006
 20
2.598596
 30
0.0
 10
2.087968
 20
2.569038
 30
0.0
 10
2.087968
 20
2.535257
 30
0.0
  0
LWPOLYLINE
  5
1d5
100
AcDbEntity
  8
Capa_1
 62
7
100
AcDbPolyline
 90
4
 70
0
 10
1.753922
 20
2.228785
 30
0.0
 10
1.625541
 20
2.228785
 30
0.0
 10
1.735400
 20
2.725071
 30
0.0
 10
1.845897
 20
2.725071
 30
0.0
  0
SPLINE
  5
1d6
100
AcDbEntity
  8
Capa_1
 62
7
100
AcDbSpline
 70
8
 71
3
 72
8
 73
4
 74
0
 40
0
 40
0
 40
0
 40
0
 40
1
 40
1
 40
1
 40
1
 10
2.021223
 20
2.528810
 30
0.0
 10
2.021223
 20
2.554146
 30
0.0
 10
2.016858
 20
2.575906
 30
0.0
 10
2.008129
 20
2.594091
 30
0.0
  0
SPLINE
  5
1d7
100
AcDbEntity
  8
Capa_1
 62
7
100
AcDbSpline
 70
8
 71
3
 72
8
 73
4
 74
0
 40
0
 40
0
 40
0
 40
0
 40
1
 40
1
 40
1
 40
1
 10
2.008129
 20
2.594091
 30
0.0
 10
1.999613
 20
2.612548
 30
0.0
 10
1.986626
 20
2.627872
 30
0.0
 10
1.969167
 20
2.640063
 30
0.0
  0
SPLINE
  5
1d8
100
AcDbEntity
  8
Capa_1
 62
7
100
AcDbSpline
 70
8
 71
3
 72
8
 73
4
 74
0
 40
0
 40
0
 40
0
 40
0
 40
1
 40
1
 40
1
 40
1
 10
1.969167
 20
2.640063
 30
0.0
 10
1.951922
 20
2.652050
 30
0.0
 10
1.933506
 20
2.660053
 30
0.0
 10
1.913919
 20
2.664071
 30
0.0
  0
SPLINE
  5
1d9
100
AcDbEntity
  8
Capa_1
 62
7
100
AcDbSpline
 70
8
 71
3
 72
8
 73
4
 74
0
 40
0
 40
0
 40
0
 40
0
 40
1
 40
1
 40
1
 40
1
 10
1.913919
 20
2.664071
 30
0.0
 10
1.894332
 20
2.668157
 30
0.0
 10
1.869529
 20
2.670201
 30
0.0
 10
1.839509
 20
2.670201
 30
0.0
  0
LWPOLYLINE
  5
1da
100
AcDbEntity
  8
Capa_1
 62
7
100
AcDbPolyline
 90
2
 70
0
 10
2.087968
 20
2.535257
 30
0.0
 10
2.087969
 20
2.534940
 30
0.0
  0
SPLINE
  5
1db
100
AcDbEntity
  8
Capa_1
 62
7
100
AcDbSpline
 70
8
 71
3
 72
8
 73
4
 74
0
 40
0
 40
0
 40
0
 40
0
 40
1
 40
1
 40
1
 40
1
 10
1.766696
 20
2.282572
 30
0.0
 10
1.797142
 20
2.282572
 30
0.0
 10
1.824287
 20
2.284956
 30
0.0
 10
1.848132
 20
2.289724
 30
0.0
  0
SPLINE
  5
1dc
100
AcDbEntity
  8
Capa_1
 62
7
100
AcDbSpline
 70
8
 71
3
 72
8
 73
4
 74
0
 40
0
 40
0
 40
0
 40
0
 40
1
 40
1
 40
1
 40
1
 10
1.848132
 20
2.289724
 30
0.0
 10
1.872190
 20
2.295172
 30
0.0
 10
1.894864
 20
2.304162
 30
0.0
 10
1.916155
 20
2.316694
 30
0.0
  0
SPLINE
  5
1dd
100
AcDbEntity
  8
Capa_1
 62
7
100
AcDbSpline
 70
8
 71
3
 72
8
 73
4
 74
0
 40
0
 40
0
 40
0
 40
0
 40
1
 40
1
 40
1
 40
1
 10
1.916155
 20
2.316694
 30
0.0
 10
1.950432
 20
2.337126
 30
0.0
 10
1.976513
 20
2.366582
 30
0.0
 10
1.994397
 20
2.405063
 30
0.0
  0
SPLINE
  5
1de
100
AcDbEntity
  8
Capa_1
 62
7
100
AcDbSpline
 70
8
 71
3
 72
8
 73
4
 74
0
 40
0
 40
0
 40
0
 40
0
 40
1
 40
1
 40
1
 40
1
 10
1.994397
 20
2.405063
 30
0.0
 10
2.012281
 20
2.443748
 30
0.0
 10
2.021223
 20
2.484745
 30
0.0
 10
2.021223
 20
2.528054
 30
0.0
  0
LWPOLYLINE
  5
1df
100
AcDbEntity
  8
Capa_1
 62
7
100
AcDbPolyline
 90
4
 70
0
 10
1.839509
 20
2.670201
 30
0.0
 10
1.786815
 20
2.670201
 30
0.0
 10
1.700589
 20
2.282572
 30
0.0
 10
1.766696
 20
2.282572
 30
0.0
  0
SPLINE
  5
1e0
100
AcDbEntity
  8
Capa_1
 62
7
100
AcDbSpline
 70
8
 71
3
 72
8
 73
4
 74
0
 40
0
 40
0
 40
0
 40
0
 40
1
 40
1
 40
1
 40
1
 10
0.857810
 20
0.512772
 30
0.0
 10
0.792236
 20
0.512772
 30
0.0
 10
0.741032
 20
0.529663
 30
0.0
 10
0.704200
 20
0.563444
 30
0.0
  0
SPLINE
  5
1e1
100
AcDbEntity
  8
Capa_1
 62
7
100
AcDbSpline
 70
8
 71
3
 72
8
 73
4
 74
0
 40
0
 40
0
 40
0
 40
0
 40
1
 40
1
 40
1
 40
1
 10
0.704200
 20
0.563444
 30
0.0
 10
0.667367
 20
0.597225
 30
0.0
 10
0.648951
 20
0.645220
 30
0.0
 10
0.648951
 20
0.707429
 30
0.0
  0
SPLINE
  5
1e2
100
AcDbEntity
  8
Capa_1
 62
7
100
AcDbSpline
 70
8
 71
3
 72
8
 73
4
 74
0
 40
0
 40
0
 40
0
 40
0
 40
1
 40
1
 40
1
 40
1
 10
0.648951
 20
0.707429
 30
0.0
 10
0.648951
 20
0.753197
 30
0.0
 10
0.655658
 20
0.795526
 30
0.0
 10
0.669071
 20
0.834415
 30
0.0
  0
SPLINE
  5
1e3
100
AcDbEntity
  8
Capa_1
 62
7
100
AcDbSpline
 70
8
 71
3
 72
8
 73
4
 74
0
 40
0
 40
0
 40
0
 40
0
 40
1
 40
1
 40
1
 40
1
 10
0.669071
 20
0.834415
 30
0.0
 10
0.682697
 20
0.873304
 30
0.0
 10
0.702390
 20
0.907187
 30
0.0
 10
0.728151
 20
0.936065
 30
0.0
  0
SPLINE
  5
1e4
100
AcDbEntity
  8
Capa_1
 62
7
100
AcDbSpline
 70
8
 71
3
 72
8
 73
4
 74
0
 40
0
 40
0
 40
0
 40
0
 40
1
 40
1
 40
1
 40
1
 10
0.728151
 20
0.936065
 30
0.0
 10
0.753700
 20
0.964738
 30
0.0
 10
0.784997
 20
0.987179
 30
0.0
 10
0.822042
 20
1.003388
 30
0.0
  0
SPLINE
  5
1e5
100
AcDbEntity
  8
Capa_1
 62
7
100
AcDbSpline
 70
8
 71
3
 72
8
 73
4
 74
0
 40
0
 40
0
 40
0
 40
0
 40
1
 40
1
 40
1
 40
1
 10
0.822042
 20
1.003388
 30
0.0
 10
0.859300
 20
1.019598
 30
0.0
 10
0.901136
 20
1.027703
 30
0.0
 10
0.947549
 20
1.027703
 30
0.0
  0
SPLINE
  5
1e6
100
AcDbEntity
  8
Capa_1
 62
7
100
AcDbSpline
 70
8
 71
3
 72
8
 73
4
 74
0
 40
0
 40
0
 40
0
 40
0
 40
1
 40
1
 40
1
 40
1
 10
0.947549
 20
1.027703
 30
0.0
 10
0.975439
 20
1.027703
 30
0.0
 10
1.003223
 20
1.024161
 30
0.0
 10
1.030901
 20
1.017078
 30
0.0
  0
SPLINE
  5
1e7
100
AcDbEntity
  8
Capa_1
 62
7
100
AcDbSpline
 70
8
 71
3
 72
8
 73
4
 74
0
 40
0
 40
0
 40
0
 40
0
 40
1
 40
1
 40
1
 40
1
 10
1.030901
 20
1.017078
 30
0.0
 10
1.058792
 20
1.010199
 30
0.0
 10
1.087214
 20
0.998859
 30
0.0
 10
1.116168
 20
0.983058
 30
0.0
  0
LWPOLYLINE
  5
1e8
100
AcDbEntity
  8
Capa_1
 62
7
100
AcDbPolyline
 90
2
 70
0
 10
2.021223
 20
2.528054
 30
0.0
 10
2.021223
 20
2.528810
 30
0.0
  0
SPLINE
  5
1e9
100
AcDbEntity
  8
Capa_1
 62
7
100
AcDbSpline
 70
8
 71
3
 72
8
 73
4
 74
0
 40
0
 40
0
 40
0
 40
0
 40
1
 40
1
 40
1
 40
1
 10
1.096051
 20
0.907766
 30
0.0
 10
1.072419
 20
0.930854
 30
0.0
 10
1.046658
 20
0.947506
 30
0.0
 10
1.018767
 20
0.957723
 30
0.0
  0
SPLINE
  5
1ea
100
AcDbEntity
  8
Capa_1
 62
7
100
AcDbSpline
 70
8
 71
3
 72
8
 73
4
 74
0
 40
0
 40
0
 40
0
 40
0
 40
1
 40
1
 40
1
 40
1
 10
1.018767
 20
0.957723
 30
0.0
 10
0.991089
 20
0.968143
 30
0.0
 10
0.961283
 20
0.973353
 30
0.0
 10
0.929347
 20
0.973353
 30
0.0
  0
SPLINE
  5
1eb
100
AcDbEntity
  8
Capa_1
 62
7
100
AcDbSpline
 70
8
 71
3
 72
8
 73
4
 74
0
 40
0
 40
0
 40
0
 40
0
 40
1
 40
1
 40
1
 40
1
 10
0.929347
 20
0.973353
 30
0.0
 10
0.894218
 20
0.973353
 30
0.0
 10
0.863454
 20
0.966134
 30
0.0
 10
0.837053
 20
0.951695
 30
0.0
  0
SPLINE
  5
1ec
100
AcDbEntity
  8
Capa_1
 62
7
100
AcDbSpline
 70
8
 71
3
 72
8
 73
4
 74
0
 40
0
 40
0
 40
0
 40
0
 40
1
 40
1
 40
1
 40
1
 10
0.837053
 20
0.951695
 30
0.0
 10
0.810653
 20
0.937256
 30
0.0
 10
0.788405
 20
0.918050
 30
0.0
 10
0.770308
 20
0.894076
 30
0.0
  0
SPLINE
  5
1ed
100
AcDbEntity
  8
Capa_1
 62
7
100
AcDbSpline
 70
8
 71
3
 72
8
 73
4
 74
0
 40
0
 40
0
 40
0
 40
0
 40
1
 40
1
 40
1
 40
1
 10
0.770308
 20
0.894076
 30
0.0
 10
0.752637
 20
0.870511
 30
0.0
 10
0.739224
 20
0.843064
 30
0.0
 10
0.730069
 20
0.811735
 30
0.0
  0
SPLINE
  5
1ee
100
AcDbEntity
  8
Capa_1
 62
7
100
AcDbSpline
 70
8
 71
3
 72
8
 73
4
 74
0
 40
0
 40
0
 40
0
 40
0
 40
1
 40
1
 40
1
 40
1
 10
0.730069
 20
0.811735
 30
0.0
 10
0.721127
 20
0.780406
 30
0.0
 10
0.716656
 20
0.748838
 30
0.0
 10
0.716656
 20
0.717032
 30
0.0
  0
SPLINE
  5
1ef
100
AcDbEntity
  8
Capa_1
 62
7
100
AcDbSpline
 70
8
 71
3
 72
8
 73
4
 74
0
 40
0
 40
0
 40
0
 40
0
 40
1
 40
1
 40
1
 40
1
 10
0.716656
 20
0.717032
 30
0.0
 10
0.716656
 20
0.669221
 30
0.0
 10
0.729111
 20
0.632334
 30
0.0
 10
0.754021
 20
0.606372
 30
0.0
  0
SPLINE
  5
1f0
100
AcDbEntity
  8
Capa_1
 62
7
100
AcDbSpline
 70
8
 71
3
 72
8
 73
4
 74
0
 40
0
 40
0
 40
0
 40
0
 40
1
 40
1
 40
1
 40
1
 10
0.754021
 20
0.606372
 30
0.0
 10
0.779144
 20
0.580355
 30
0.0
 10
0.816189
 20
0.567346
 30
0.0
 10
0.865157
 20
0.567346
 30
0.0
  0
SPLINE
  5
1f1
100
AcDbEntity
  8
Capa_1
 62
7
100
AcDbSpline
 70
8
 71
3
 72
8
 73
4
 74
0
 40
0
 40
0
 40
0
 40
0
 40
1
 40
1
 40
1
 40
1
 10
0.865157
 20
0.567346
 30
0.0
 10
0.886660
 20
0.567346
 30
0.0
 10
0.906780
 20
0.569390
 30
0.0
 10
0.925515
 20
0.573476
 30
0.0
  0
SPLINE
  5
1f2
100
AcDbEntity
  8
Capa_1
 62
7
100
AcDbSpline
 70
8
 71
3
 72
8
 73
4
 74
0
 40
0
 40
0
 40
0
 40
0
 40
1
 40
1
 40
1
 40
1
 10
0.925515
 20
0.573476
 30
0.0
 10
0.944464
 20
0.577562
 30
0.0
 10
0.962241
 20
0.582909
 30
0.0
 10
0.978847
 20
0.589515
 30
0.0
  0
LWPOLYLINE
  5
1f3
100
AcDbEntity
  8
Capa_1
 62
7
100
AcDbPolyline
 90
3
 70
0
 10
1.116168
 20
0.983058
 30
0.0
 10
1.101797
 20
0.907766
 30
0.0
 10
1.096051
 20
0.907766
 30
0.0
  0
SPLINE
  5
1f4
100
AcDbEntity
  8
Capa_1
 62
7
100
AcDbSpline
 70
8
 71
3
 72
8
 73
4
 74
0
 40
0
 40
0
 40
0
 40
0
 40
1
 40
1
 40
1
 40
1
 10
1.034094
 20
0.559204
 30
0.0
 10
1.020043
 20
0.553074
 30
0.0
 10
1.007375
 20
0.547626
 30
0.0
 10
0.996091
 20
0.542858
 30
0.0
  0
SPLINE
  5
1f5
100
AcDbEntity
  8
Capa_1
 62
7
100
AcDbSpline
 70
8
 71
3
 72
8
 73
4
 74
0
 40
0
 40
0
 40
0
 40
0
 40
1
 40
1
 40
1
 40
1
 10
0.996091
 20
0.542858
 30
0.0
 10
0.984807
 20
0.538091
 30
0.0
 10
0.970649
 20
0.533187
 30
0.0
 10
0.953617
 20
0.528147
 30
0.0
  0
SPLINE
  5
1f6
100
AcDbEntity
  8
Capa_1
 62
7
100
AcDbSpline
 70
8
 71
3
 72
8
 73
4
 74
0
 40
0
 40
0
 40
0
 40
0
 40
1
 40
1
 40
1
 40
1
 10
0.953617
 20
0.528147
 30
0.0
 10
0.938927
 20
0.523380
 30
0.0
 10
0.923704
 20
0.519702
 30
0.0
 10
0.907949
 20
0.517114
 30
0.0
  0
SPLINE
  5
1f7
100
AcDbEntity
  8
Capa_1
 62
7
100
AcDbSpline
 70
8
 71
3
 72
8
 73
4
 74
0
 40
0
 40
0
 40
0
 40
0
 40
1
 40
1
 40
1
 40
1
 10
0.907949
 20
0.517114
 30
0.0
 10
0.892407
 20
0.514390
 30
0.0
 10
0.875694
 20
0.513028
 30
0.0
 10
0.857810
 20
0.513028
 30
0.0
  0
LWPOLYLINE
  5
1f8
100
AcDbEntity
  8
Capa_1
 62
7
100
AcDbPolyline
 90
6
 70
0
 10
0.978847
 20
0.589515
 30
0.0
 10
1.005673
 20
0.716511
 30
0.0
 10
0.878887
 20
0.716511
 30
0.0
 10
0.891023
 20
0.772189
 30
0.0
 10
1.081359
 20
0.772189
 30
0.0
 10
1.034094
 20
0.559204
 30
0.0
  0
LWPOLYLINE
  5
1f9
100
AcDbEntity
  8
Capa_1
 62
7
100
AcDbPolyline
 90
2
 70
0
 10
0.857810
 20
0.513028
 30
0.0
 10
0.857810
 20
0.512772
 30
0.0
  0
SPLINE
  5
1fa
100
AcDbEntity
  8
Capa_1
 62
7
100
AcDbSpline
 70
8
 71
3
 72
8
 73
4
 74
0
 40
0
 40
0
 40
0
 40
0
 40
1
 40
1
 40
1
 40
1
 10
2.087969
 20
0.828418
 30
0.0
 10
2.087969
 20
0.774205
 30
0.0
 10
2.074769
 20
0.722876
 30
0.0
 10
2.048368
 20
0.674431
 30
0.0
  0
SPLINE
  5
1fb
100
AcDbEntity
  8
Capa_1
 62
7
100
AcDbSpline
 70
8
 71
3
 72
8
 73
4
 74
0
 40
0
 40
0
 40
0
 40
0
 40
1
 40
1
 40
1
 40
1
 10
2.048368
 20
0.674431
 30
0.0
 10
2.021968
 20
0.626007
 30
0.0
 10
1.985881
 20
0.588565
 30
0.0
 10
1.940107
 20
0.562105
 30
0.0
  0
SPLINE
  5
1fc
100
AcDbEntity
  8
Capa_1
 62
7
100
AcDbSpline
 70
8
 71
3
 72
8
 73
4
 74
0
 40
0
 40
0
 40
0
 40
0
 40
1
 40
1
 40
1
 40
1
 10
1.940107
 20
0.562105
 30
0.0
 10
1.912003
 20
0.546305
 30
0.0
 10
1.883261
 20
0.535748
 30
0.0
 10
1.853881
 20
0.530436
 30
0.0
  0
SPLINE
  5
1fd
100
AcDbEntity
  8
Capa_1
 62
7
100
AcDbSpline
 70
8
 71
3
 72
8
 73
4
 74
0
 40
0
 40
0
 40
0
 40
0
 40
1
 40
1
 40
1
 40
1
 10
1.853881
 20
0.530436
 30
0.0
 10
1.824500
 20
0.524987
 30
0.0
 10
1.791181
 20
0.522263
 30
0.0
 10
1.753922
 20
0.522263
 30
0.0
  0
LWPOLYLINE
  5
1fe
100
AcDbEntity
  8
Capa_1
 62
7
100
AcDbPolyline
 90
10
 70
1
 10
1.499396
 20
0.522447
 30
0.0
 10
1.424028
 20
0.522447
 30
0.0
 10
1.294050
 20
0.966406
 30
0.0
 10
1.195689
 20
0.522447
 30
0.0
 10
1.135969
 20
0.522447
 30
0.0
 10
1.245827
 20
1.018733
 30
0.0
 10
1.340995
 20
1.018733
 30
0.0
 10
1.459796
 20
0.613431
 30
0.0
 10
1.549535
 20
1.018733
 30
0.0
 10
1.609254
 20
1.018733
 30
0.0
  0
SPLINE
  5
1ff
100
AcDbEntity
  8
Capa_1
 62
7
100
AcDbSpline
 70
8
 71
3
 72
8
 73
4
 74
0
 40
0
 40
0
 40
0
 40
0
 40
1
 40
1
 40
1
 40
1
 10
1.845897
 20
1.018549
 30
0.0
 10
1.880387
 20
1.018549
 30
0.0
 10
1.911790
 20
1.016165
 30
0.0
 10
1.940106
 20
1.011398
 30
0.0
  0
SPLINE
  5
200
100
AcDbEntity
  8
Capa_1
 62
7
100
AcDbSpline
 70
8
 71
3
 72
8
 73
4
 74
0
 40
0
 40
0
 40
0
 40
0
 40
1
 40
1
 40
1
 40
1
 10
1.940106
 20
1.011398
 30
0.0
 10
1.968635
 20
1.006630
 30
0.0
 10
1.994716
 20
0.995972
 30
0.0
 10
2.018349
 20
0.979421
 30
0.0
  0
SPLINE
  5
201
100
AcDbEntity
  8
Capa_1
 62
7
100
AcDbSpline
 70
8
 71
3
 72
8
 73
4
 74
0
 40
0
 40
0
 40
0
 40
0
 40
1
 40
1
 40
1
 40
1
 10
2.018349
 20
0.979421
 30
0.0
 10
2.040917
 20
0.963621
 30
0.0
 10
2.058162
 20
0.942950
 30
0.0
 10
2.070084
 20
0.917410
 30
0.0
  0
SPLINE
  5
202
100
AcDbEntity
  8
Capa_1
 62
7
100
AcDbSpline
 70
8
 71
3
 72
8
 73
4
 74
0
 40
0
 40
0
 40
0
 40
0
 40
1
 40
1
 40
1
 40
1
 10
2.070084
 20
0.917410
 30
0.0
 10
2.082006
 20
0.892074
 30
0.0
 10
2.087968
 20
0.862516
 30
0.0
 10
2.087968
 20
0.828735
 30
0.0
  0
LWPOLYLINE
  5
203
100
AcDbEntity
  8
Capa_1
 62
7
100
AcDbPolyline
 90
4
 70
0
 10
1.753922
 20
0.522263
 30
0.0
 10
1.625541
 20
0.522263
 30
0.0
 10
1.735400
 20
1.018549
 30
0.0
 10
1.845897
 20
1.018549
 30
0.0
  0
SPLINE
  5
204
100
AcDbEntity
  8
Capa_1
 62
7
100
AcDbSpline
 70
8
 71
3
 72
8
 73
4
 74
0
 40
0
 40
0
 40
0
 40
0
 40
1
 40
1
 40
1
 40
1
 10
2.021223
 20
0.822288
 30
0.0
 10
2.021223
 20
0.847624
 30
0.0
 10
2.016858
 20
0.869418
 30
0.0
 10
2.008129
 20
0.887671
 30
0.0
  0
SPLINE
  5
205
100
AcDbEntity
  8
Capa_1
 62
7
100
AcDbSpline
 70
8
 71
3
 72
8
 73
4
 74
0
 40
0
 40
0
 40
0
 40
0
 40
1
 40
1
 40
1
 40
1
 10
2.008129
 20
0.887671
 30
0.0
 10
1.999613
 20
0.906128
 30
0.0
 10
1.986626
 20
0.921452
 30
0.0
 10
1.969167
 20
0.933643
 30
0.0
  0
SPLINE
  5
206
100
AcDbEntity
  8
Capa_1
 62
7
100
AcDbSpline
 70
8
 71
3
 72
8
 73
4
 74
0
 40
0
 40
0
 40
0
 40
0
 40
1
 40
1
 40
1
 40
1
 10
1.969167
 20
0.933643
 30
0.0
 10
1.951922
 20
0.945630
 30
0.0
 10
1.933506
 20
0.953633
 30
0.0
 10
1.913919
 20
0.957651
 30
0.0
  0
SPLINE
  5
207
100
AcDbEntity
  8
Capa_1
 62
7
100
AcDbSpline
 70
8
 71
3
 72
8
 73
4
 74
0
 40
0
 40
0
 40
0
 40
0
 40
1
 40
1
 40
1
 40
1
 10
1.913919
 20
0.957651
 30
0.0
 10
1.894332
 20
0.961737
 30
0.0
 10
1.869529
 20
0.963781
 30
0.0
 10
1.839509
 20
0.963781
 30
0.0
  0
LWPOLYLINE
  5
208
100
AcDbEntity
  8
Capa_1
 62
7
100
AcDbPolyline
 90
2
 70
0
 10
2.087968
 20
0.828735
 30
0.0
 10
2.087969
 20
0.828418
 30
0.0
  0
SPLINE
  5
209
100
AcDbEntity
  8
Capa_1
 62
7
100
AcDbSpline
 70
8
 71
3
 72
8
 73
4
 74
0
 40
0
 40
0
 40
0
 40
0
 40
1
 40
1
 40
1
 40
1
 10
1.766696
 20
0.576153
 30
0.0
 10
1.797142
 20
0.576153
 30
0.0
 10
1.824287
 20
0.578536
 30
0.0
 10
1.848132
 20
0.583304
 30
0.0
  0
SPLINE
  5
20a
100
AcDbEntity
  8
Capa_1
 62
7
100
AcDbSpline
 70
8
 71
3
 72
8
 73
4
 74
0
 40
0
 40
0
 40
0
 40
0
 40
1
 40
1
 40
1
 40
1
 10
1.848132
 20
0.583304
 30
0.0
 10
1.872190
 20
0.588752
 30
0.0
 10
1.894864
 20
0.597743
 30
0.0
 10
1.916155
 20
0.610274
 30
0.0
  0
SPLINE
  5
20b
100
AcDbEntity
  8
Capa_1
 62
7
100
AcDbSpline
 70
8
 71
3
 72
8
 73
4
 74
0
 40
0
 40
0
 40
0
 40
0
 40
1
 40
1
 40
1
 40
1
 10
1.916155
 20
0.610274
 30
0.0
 10
1.950432
 20
0.630706
 30
0.0
 10
1.976513
 20
0.660163
 30
0.0
 10
1.994397
 20
0.698643
 30
0.0
  0
SPLINE
  5
20c
100
AcDbEntity
  8
Capa_1
 62
7
100
AcDbSpline
 70
8
 71
3
 72
8
 73
4
 74
0
 40
0
 40
0
 40
0
 40
0
 40
1
 40
1
 40
1
 40
1
 10
1.994397
 20
0.698643
 30
0.0
 10
2.012281
 20
0.737328
 30
0.0
 10
2.021223
 20
0.778325
 30
0.0
 10
2.021223
 20
0.821634
 30
0.0
  0
LWPOLYLINE
  5
20d
100
AcDbEntity
  8
Capa_1
 62
7
100
AcDbPolyline
 90
4
 70
0
 10
1.839509
 20
0.963781
 30
0.0
 10
1.786815
 20
0.963781
 30
0.0
 10
1.700589
 20
0.576153
 30
0.0
 10
1.766696
 20
0.576153
 30
0.0
  0
LWPOLYLINE
  5
20e
100
AcDbEntity
  8
Capa_1
 62
7
100
AcDbPolyline
 90
2
 70
0
 10
2.021223
 20
0.821634
 30
0.0
 10
2.021223
 20
0.822288
 30
0.0
  0
LWPOLYLINE
  5
20f
100
AcDbEntity
  8
Capa_1
 62
7
100
AcDbPolyline
 90
4
 70
1
 10
0.073810
 20
9.926210
 30
0.0
 10
2.727999
 20
9.926210
 30
0.0
 10
2.727999
 20
0.073830
 30
0.0
 10
0.073810
 20
0.073830
 30
0.0
  0
SPLINE
  5
210
100
AcDbEntity
  8
Capa_1
 62
7
100
AcDbSpline
 70
8
 71
3
 72
8
 73
4
 74
0
 40
0
 40
0
 40
0
 40
0
 40
1
 40
1
 40
1
 40
1
 10
4.152759
 20
8.551783
 30
0.0
 10
4.152759
 20
8.508671
 30
0.0
 10
4.146479
 20
8.467119
 30
0.0
 10
4.133917
 20
8.427126
 30
0.0
  0
SPLINE
  5
211
100
AcDbEntity
  8
Capa_1
 62
7
100
AcDbSpline
 70
8
 71
3
 72
8
 73
4
 74
0
 40
0
 40
0
 40
0
 40
0
 40
1
 40
1
 40
1
 40
1
 10
4.133917
 20
8.427126
 30
0.0
 10
4.121569
 20
8.387147
 30
0.0
 10
4.103579
 20
8.351929
 30
0.0
 10
4.079947
 20
8.321472
 30
0.0
  0
SPLINE
  5
212
100
AcDbEntity
  8
Capa_1
 62
7
100
AcDbSpline
 70
8
 71
3
 72
8
 73
4
 74
0
 40
0
 40
0
 40
0
 40
0
 40
1
 40
1
 40
1
 40
1
 10
4.079947
 20
8.321472
 30
0.0
 10
4.055676
 20
8.290142
 30
0.0
 10
4.026508
 20
8.265488
 30
0.0
 10
3.992443
 20
8.247507
 30
0.0
  0
SPLINE
  5
213
100
AcDbEntity
  8
Capa_1
 62
7
100
AcDbSpline
 70
8
 71
3
 72
8
 73
4
 74
0
 40
0
 40
0
 40
0
 40
0
 40
1
 40
1
 40
1
 40
1
 10
3.992443
 20
8.247507
 30
0.0
 10
3.958379
 20
8.229731
 30
0.0
 10
3.919949
 20
8.220843
 30
0.0
 10
3.877156
 20
8.220843
 30
0.0
  0
SPLINE
  5
214
100
AcDbEntity
  8
Capa_1
 62
7
100
AcDbSpline
 70
8
 71
3
 72
8
 73
4
 74
0
 40
0
 40
0
 40
0
 40
0
 40
1
 40
1
 40
1
 40
1
 10
3.877156
 20
8.220843
 30
0.0
 10
3.820523
 20
8.220843
 30
0.0
 10
3.776239
 20
8.236951
 30
0.0
 10
3.744304
 20
8.269165
 30
0.0
  0
SPLINE
  5
215
100
AcDbEntity
  8
Capa_1
 62
7
100
AcDbSpline
 70
8
 71
3
 72
8
 73
4
 74
0
 40
0
 40
0
 40
0
 40
0
 40
1
 40
1
 40
1
 40
1
 10
3.744304
 20
8.269165
 30
0.0
 10
3.712368
 20
8.301584
 30
0.0
 10
3.696401
 20
8.347581
 30
0.0
 10
3.696401
 20
8.407154
 30
0.0
  0
SPLINE
  5
216
100
AcDbEntity
  8
Capa_1
 62
7
100
AcDbSpline
 70
8
 71
3
 72
8
 73
4
 74
0
 40
0
 40
0
 40
0
 40
0
 40
1
 40
1
 40
1
 40
1
 10
3.696401
 20
8.407154
 30
0.0
 10
3.696401
 20
8.452513
 30
0.0
 10
3.702788
 20
8.494845
 30
0.0
 10
3.715562
 20
8.534150
 30
0.0
  0
SPLINE
  5
217
100
AcDbEntity
  8
Capa_1
 62
7
100
AcDbSpline
 70
8
 71
3
 72
8
 73
4
 74
0
 40
0
 40
0
 40
0
 40
0
 40
1
 40
1
 40
1
 40
1
 10
3.715562
 20
8.534150
 30
0.0
 10
3.728336
 20
8.573448
 30
0.0
 10
3.746752
 20
8.608553
 30
0.0
 10
3.770810
 20
8.639467
 30
0.0
  0
SPLINE
  5
218
100
AcDbEntity
  8
Capa_1
 62
7
100
AcDbSpline
 70
8
 71
3
 72
8
 73
4
 74
0
 40
0
 40
0
 40
0
 40
0
 40
1
 40
1
 40
1
 40
1
 10
3.770810
 20
8.639467
 30
0.0
 10
3.794229
 20
8.669230
 30
0.0
 10
3.823184
 20
8.692999
 30
0.0
 10
3.857675
 20
8.710775
 30
0.0
  0
SPLINE
  5
219
100
AcDbEntity
  8
Capa_1
 62
7
100
AcDbSpline
 70
8
 71
3
 72
8
 73
4
 74
0
 40
0
 40
0
 40
0
 40
0
 40
1
 40
1
 40
1
 40
1
 10
3.857675
 20
8.710775
 30
0.0
 10
3.892379
 20
8.728756
 30
0.0
 10
3.930382
 20
8.737746
 30
0.0
 10
3.971685
 20
8.737746
 30
0.0
  0
SPLINE
  5
21a
100
AcDbEntity
  8
Capa_1
 62
7
100
AcDbSpline
 70
8
 71
3
 72
8
 73
4
 74
0
 40
0
 40
0
 40
0
 40
0
 40
1
 40
1
 40
1
 40
1
 10
3.971685
 20
8.737746
 30
0.0
 10
4.028105
 20
8.737746
 30
0.0
 10
4.072389
 20
8.721638
 30
0.0
 10
4.104537
 20
8.689424
 30
0.0
  0
SPLINE
  5
21b
100
AcDbEntity
  8
Capa_1
 62
7
100
AcDbSpline
 70
8
 71
3
 72
8
 73
4
 74
0
 40
0
 40
0
 40
0
 40
0
 40
1
 40
1
 40
1
 40
1
 10
4.104537
 20
8.689424
 30
0.0
 10
4.136686
 20
8.657413
 30
0.0
 10
4.152760
 20
8.611530
 30
0.0
 10
4.152760
 20
8.551772
 30
0.0
  0
LWPOLYLINE
  5
21c
100
AcDbEntity
  8
Capa_1
 62
7
100
AcDbPolyline
 90
13
 70
1
 10
3.548219
 20
8.231141
 30
0.0
 10
3.484348
 20
8.231141
 30
0.0
 10
3.578238
 20
8.652768
 30
0.0
 10
3.385028
 20
8.367791
 30
0.0
 10
3.347344
 20
8.367791
 30
0.0
 10
3.280279
 20
8.665773
 30
0.0
 10
3.183834
 20
8.231141
 30
0.0
 10
3.124114
 20
8.231141
 30
0.0
 10
3.233973
 20
8.727438
 30
0.0
 10
3.320838
 20
8.727438
 30
0.0
 10
3.385028
 20
8.451124
 30
0.0
 10
3.570254
 20
8.727438
 30
0.0
 10
3.658077
 20
8.727438
 30
0.0
  0
SPLINE
  5
21d
100
AcDbEntity
  8
Capa_1
 62
7
100
AcDbSpline
 70
8
 71
3
 72
8
 73
4
 74
0
 40
0
 40
0
 40
0
 40
0
 40
1
 40
1
 40
1
 40
1
 10
4.031723
 20
8.354459
 30
0.0
 10
4.049607
 20
8.379795
 30
0.0
 10
4.063127
 20
8.408026
 30
0.0
 10
4.072282
 20
8.439151
 30
0.0
  0
SPLINE
  5
21e
100
AcDbEntity
  8
Capa_1
 62
7
100
AcDbSpline
 70
8
 71
3
 72
8
 73
4
 74
0
 40
0
 40
0
 40
0
 40
0
 40
1
 40
1
 40
1
 40
1
 10
4.072282
 20
8.439151
 30
0.0
 10
4.081437
 20
8.470480
 30
0.0
 10
4.086014
 20
8.504922
 30
0.0
 10
4.086014
 20
8.542476
 30
0.0
  0
SPLINE
  5
21f
100
AcDbEntity
  8
Capa_1
 62
7
100
AcDbSpline
 70
8
 71
3
 72
8
 73
4
 74
0
 40
0
 40
0
 40
0
 40
0
 40
1
 40
1
 40
1
 40
1
 10
4.086014
 20
8.542476
 30
0.0
 10
4.086014
 20
8.587835
 30
0.0
 10
4.075050
 20
8.622611
 30
0.0
 10
4.053121
 20
8.646802
 30
0.0
  0
SPLINE
  5
220
100
AcDbEntity
  8
Capa_1
 62
7
100
AcDbSpline
 70
8
 71
3
 72
8
 73
4
 74
0
 40
0
 40
0
 40
0
 40
0
 40
1
 40
1
 40
1
 40
1
 10
4.053121
 20
8.646802
 30
0.0
 10
4.031405
 20
8.671253
 30
0.0
 10
4.000960
 20
8.683478
 30
0.0
 10
3.961786
 20
8.683478
 30
0.0
  0
SPLINE
  5
221
100
AcDbEntity
  8
Capa_1
 62
7
100
AcDbSpline
 70
8
 71
3
 72
8
 73
4
 74
0
 40
0
 40
0
 40
0
 40
0
 40
1
 40
1
 40
1
 40
1
 10
3.961786
 20
8.683478
 30
0.0
 10
3.931340
 20
8.683478
 30
0.0
 10
3.903875
 20
8.676156
 30
0.0
 10
3.879392
 20
8.661513
 30
0.0
  0
SPLINE
  5
222
100
AcDbEntity
  8
Capa_1
 62
7
100
AcDbSpline
 70
8
 71
3
 72
8
 73
4
 74
0
 40
0
 40
0
 40
0
 40
0
 40
1
 40
1
 40
1
 40
1
 10
3.879392
 20
8.661513
 30
0.0
 10
3.854908
 20
8.647075
 30
0.0
 10
3.833831
 20
8.627426
 30
0.0
 10
3.816159
 20
8.602567
 30
0.0
  0
SPLINE
  5
223
100
AcDbEntity
  8
Capa_1
 62
7
100
AcDbSpline
 70
8
 71
3
 72
8
 73
4
 74
0
 40
0
 40
0
 40
0
 40
0
 40
1
 40
1
 40
1
 40
1
 10
3.816159
 20
8.602567
 30
0.0
 10
3.799126
 20
8.578116
 30
0.0
 10
3.786033
 20
8.549682
 30
0.0
 10
3.776879
 20
8.517263
 30
0.0
  0
SPLINE
  5
224
100
AcDbEntity
  8
Capa_1
 62
7
100
AcDbSpline
 70
8
 71
3
 72
8
 73
4
 74
0
 40
0
 40
0
 40
0
 40
0
 40
1
 40
1
 40
1
 40
1
 10
3.776879
 20
8.517263
 30
0.0
 10
3.767724
 20
8.485048
 30
0.0
 10
3.763146
 20
8.451812
 30
0.0
 10
3.763146
 20
8.417554
 30
0.0
  0
SPLINE
  5
225
100
AcDbEntity
  8
Capa_1
 62
7
100
AcDbSpline
 70
8
 71
3
 72
8
 73
4
 74
0
 40
0
 40
0
 40
0
 40
0
 40
1
 40
1
 40
1
 40
1
 10
3.763146
 20
8.417554
 30
0.0
 10
3.763146
 20
8.371786
 30
0.0
 10
3.774005
 20
8.336564
 30
0.0
 10
3.795721
 20
8.311889
 30
0.0
  0
SPLINE
  5
226
100
AcDbEntity
  8
Capa_1
 62
7
100
AcDbSpline
 70
8
 71
3
 72
8
 73
4
 74
0
 40
0
 40
0
 40
0
 40
0
 40
1
 40
1
 40
1
 40
1
 10
3.795721
 20
8.311889
 30
0.0
 10
3.817650
 20
8.287439
 30
0.0
 10
3.848308
 20
8.275213
 30
0.0
 10
3.887695
 20
8.275213
 30
0.0
  0
SPLINE
  5
227
100
AcDbEntity
  8
Capa_1
 62
7
100
AcDbSpline
 70
8
 71
3
 72
8
 73
4
 74
0
 40
0
 40
0
 40
0
 40
0
 40
1
 40
1
 40
1
 40
1
 10
3.887695
 20
8.275213
 30
0.0
 10
3.917715
 20
8.275213
 30
0.0
 10
3.944967
 20
8.282433
 30
0.0
 10
3.969451
 20
8.296871
 30
0.0
  0
SPLINE
  5
228
100
AcDbEntity
  8
Capa_1
 62
7
100
AcDbSpline
 70
8
 71
3
 72
8
 73
4
 74
0
 40
0
 40
0
 40
0
 40
0
 40
1
 40
1
 40
1
 40
1
 10
3.969451
 20
8.296871
 30
0.0
 10
3.994148
 20
8.311310
 30
0.0
 10
4.014906
 20
8.330516
 30
0.0
 10
4.031725
 20
8.354490
 30
0.0
  0
LWPOLYLINE
  5
229
100
AcDbEntity
  8
Capa_1
 62
7
100
AcDbPolyline
 90
1
 70
1
 10
4.152760
 20
8.551772
 30
0.0
  0
SPLINE
  5
22a
100
AcDbEntity
  8
Capa_1
 62
7
100
AcDbSpline
 70
8
 71
3
 72
8
 73
4
 74
0
 40
0
 40
0
 40
0
 40
0
 40
1
 40
1
 40
1
 40
1
 10
4.355231
 20
8.222141
 30
0.0
 10
4.324360
 20
8.222141
 30
0.0
 10
4.294979
 20
8.225546
 30
0.0
 10
4.267088
 20
8.232357
 30
0.0
  0
SPLINE
  5
22b
100
AcDbEntity
  8
Capa_1
 62
7
100
AcDbSpline
 70
8
 71
3
 72
8
 73
4
 74
0
 40
0
 40
0
 40
0
 40
0
 40
1
 40
1
 40
1
 40
1
 10
4.267088
 20
8.232357
 30
0.0
 10
4.239198
 20
8.239236
 30
0.0
 10
4.211840
 20
8.249690
 30
0.0
 10
4.185014
 20
8.263720
 30
0.0
  0
LWPOLYLINE
  5
22c
100
AcDbEntity
  8
Capa_1
 62
7
100
AcDbPolyline
 90
1
 70
1
 10
4.031725
 20
8.354490
 30
0.0
  0
SPLINE
  5
22d
100
AcDbEntity
  8
Capa_1
 62
7
100
AcDbSpline
 70
8
 71
3
 72
8
 73
4
 74
0
 40
0
 40
0
 40
0
 40
0
 40
1
 40
1
 40
1
 40
1
 10
4.204816
 20
8.339421
 30
0.0
 10
4.225254
 20
8.319194
 30
0.0
 10
4.250270
 20
8.303631
 30
0.0
 10
4.279864
 20
8.292734
 30
0.0
  0
SPLINE
  5
22e
100
AcDbEntity
  8
Capa_1
 62
7
100
AcDbSpline
 70
8
 71
3
 72
8
 73
4
 74
0
 40
0
 40
0
 40
0
 40
0
 40
1
 40
1
 40
1
 40
1
 10
4.279864
 20
8.292734
 30
0.0
 10
4.309671
 20
8.282041
 30
0.0
 10
4.338413
 20
8.276695
 30
0.0
 10
4.366090
 20
8.276695
 30
0.0
  0
SPLINE
  5
22f
100
AcDbEntity
  8
Capa_1
 62
7
100
AcDbSpline
 70
8
 71
3
 72
8
 73
4
 74
0
 40
0
 40
0
 40
0
 40
0
 40
1
 40
1
 40
1
 40
1
 10
4.366090
 20
8.276695
 30
0.0
 10
4.411438
 20
8.276695
 30
0.0
 10
4.446142
 20
8.286025
 30
0.0
 10
4.470200
 20
8.304687
 30
0.0
  0
SPLINE
  5
230
100
AcDbEntity
  8
Capa_1
 62
7
100
AcDbSpline
 70
8
 71
3
 72
8
 73
4
 74
0
 40
0
 40
0
 40
0
 40
0
 40
1
 40
1
 40
1
 40
1
 10
4.470200
 20
8.304687
 30
0.0
 10
4.494471
 20
8.323552
 30
0.0
 10
4.506607
 20
8.347560
 30
0.0
 10
4.506607
 20
8.376710
 30
0.0
  0
SPLINE
  5
231
100
AcDbEntity
  8
Capa_1
 62
7
100
AcDbSpline
 70
8
 71
3
 72
8
 73
4
 74
0
 40
0
 40
0
 40
0
 40
0
 40
1
 40
1
 40
1
 40
1
 10
4.506607
 20
8.376710
 30
0.0
 10
4.506607
 20
8.392034
 30
0.0
 10
4.502242
 20
8.404804
 30
0.0
 10
4.493513
 20
8.415020
 30
0.0
  0
SPLINE
  5
232
100
AcDbEntity
  8
Capa_1
 62
7
100
AcDbSpline
 70
8
 71
3
 72
8
 73
4
 74
0
 40
0
 40
0
 40
0
 40
0
 40
1
 40
1
 40
1
 40
1
 10
4.493513
 20
8.415020
 30
0.0
 10
4.484997
 20
8.425236
 30
0.0
 10
4.472435
 20
8.432796
 30
0.0
 10
4.455829
 20
8.437700
 30
0.0
  0
SPLINE
  5
233
100
AcDbEntity
  8
Capa_1
 62
7
100
AcDbSpline
 70
8
 71
3
 72
8
 73
4
 74
0
 40
0
 40
0
 40
0
 40
0
 40
1
 40
1
 40
1
 40
1
 10
4.455829
 20
8.437700
 30
0.0
 10
4.441990
 20
8.441786
 30
0.0
 10
4.425490
 20
8.445566
 30
0.0
 10
4.406328
 20
8.449040
 30
0.0
  0
SPLINE
  5
234
100
AcDbEntity
  8
Capa_1
 62
7
100
AcDbSpline
 70
8
 71
3
 72
8
 73
4
 74
0
 40
0
 40
0
 40
0
 40
0
 40
1
 40
1
 40
1
 40
1
 10
4.406328
 20
8.449040
 30
0.0
 10
4.387380
 20
8.453126
 30
0.0
 10
4.369283
 20
8.457110
 30
0.0
 10
4.352037
 20
8.460992
 30
0.0
  0
SPLINE
  5
235
100
AcDbEntity
  8
Capa_1
 62
7
100
AcDbSpline
 70
8
 71
3
 72
8
 73
4
 74
0
 40
0
 40
0
 40
0
 40
0
 40
1
 40
1
 40
1
 40
1
 10
4.352037
 20
8.460992
 30
0.0
 10
4.318612
 20
8.468757
 30
0.0
 10
4.292744
 20
8.482106
 30
0.0
 10
4.274434
 20
8.501039
 30
0.0
  0
SPLINE
  5
236
100
AcDbEntity
  8
Capa_1
 62
7
100
AcDbSpline
 70
8
 71
3
 72
8
 73
4
 74
0
 40
0
 40
0
 40
0
 40
0
 40
1
 40
1
 40
1
 40
1
 10
4.274434
 20
8.501039
 30
0.0
 10
4.256124
 20
8.519905
 30
0.0
 10
4.246970
 20
8.543334
 30
0.0
 10
4.246970
 20
8.571326
 30
0.0
  0
SPLINE
  5
237
100
AcDbEntity
  8
Capa_1
 62
7
100
AcDbSpline
 70
8
 71
3
 72
8
 73
4
 74
0
 40
0
 40
0
 40
0
 40
0
 40
1
 40
1
 40
1
 40
1
 10
4.246970
 20
8.571326
 30
0.0
 10
4.246970
 20
8.618660
 30
0.0
 10
4.266131
 20
8.657992
 30
0.0
 10
4.304453
 20
8.689322
 30
0.0
  0
SPLINE
  5
238
100
AcDbEntity
  8
Capa_1
 62
7
100
AcDbSpline
 70
8
 71
3
 72
8
 73
4
 74
0
 40
0
 40
0
 40
0
 40
0
 40
1
 40
1
 40
1
 40
1
 10
4.304453
 20
8.689322
 30
0.0
 10
4.342989
 20
8.720855
 30
0.0
 10
4.392702
 20
8.736622
 30
0.0
 10
4.453593
 20
8.736622
 30
0.0
  0
SPLINE
  5
239
100
AcDbEntity
  8
Capa_1
 62
7
100
AcDbSpline
 70
8
 71
3
 72
8
 73
4
 74
0
 40
0
 40
0
 40
0
 40
0
 40
1
 40
1
 40
1
 40
1
 10
4.453593
 20
8.736622
 30
0.0
 10
4.486806
 20
8.736622
 30
0.0
 10
4.516932
 20
8.732944
 30
0.0
 10
4.543970
 20
8.725589
 30
0.0
  0
SPLINE
  5
23a
100
AcDbEntity
  8
Capa_1
 62
7
100
AcDbSpline
 70
8
 71
3
 72
8
 73
4
 74
0
 40
0
 40
0
 40
0
 40
0
 40
1
 40
1
 40
1
 40
1
 10
4.543970
 20
8.725589
 30
0.0
 10
4.571222
 20
8.718505
 30
0.0
 10
4.594641
 20
8.710060
 30
0.0
 10
4.614228
 20
8.700253
 30
0.0
  0
LWPOLYLINE
  5
23b
100
AcDbEntity
  8
Capa_1
 62
7
100
AcDbPolyline
 90
3
 70
0
 10
4.185014
 20
8.263720
 30
0.0
 10
4.200342
 20
8.339421
 30
0.0
 10
4.204816
 20
8.339421
 30
0.0
  0
SPLINE
  5
23c
100
AcDbEntity
  8
Capa_1
 62
7
100
AcDbSpline
 70
8
 71
3
 72
8
 73
4
 74
0
 40
0
 40
0
 40
0
 40
0
 40
1
 40
1
 40
1
 40
1
 10
4.595383
 20
8.629251
 30
0.0
 10
4.580267
 20
8.643690
 30
0.0
 10
4.558657
 20
8.656119
 30
0.0
 10
4.530554
 20
8.666540
 30
0.0
  0
SPLINE
  5
23d
100
AcDbEntity
  8
Capa_1
 62
7
100
AcDbSpline
 70
8
 71
3
 72
8
 73
4
 74
0
 40
0
 40
0
 40
0
 40
0
 40
1
 40
1
 40
1
 40
1
 10
4.530554
 20
8.666540
 30
0.0
 10
4.502664
 20
8.676960
 30
0.0
 10
4.473283
 20
8.682170
 30
0.0
 10
4.442411
 20
8.682170
 30
0.0
  0
SPLINE
  5
23e
100
AcDbEntity
  8
Capa_1
 62
7
100
AcDbSpline
 70
8
 71
3
 72
8
 73
4
 74
0
 40
0
 40
0
 40
0
 40
0
 40
1
 40
1
 40
1
 40
1
 10
4.442411
 20
8.682170
 30
0.0
 10
4.403663
 20
8.682170
 30
0.0
 10
4.372685
 20
8.673282
 30
0.0
 10
4.349479
 20
8.655506
 30
0.0
  0
SPLINE
  5
23f
100
AcDbEntity
  8
Capa_1
 62
7
100
AcDbSpline
 70
8
 71
3
 72
8
 73
4
 74
0
 40
0
 40
0
 40
0
 40
0
 40
1
 40
1
 40
1
 40
1
 10
4.349479
 20
8.655506
 30
0.0
 10
4.326485
 20
8.637730
 30
0.0
 10
4.314988
 20
8.615187
 30
0.0
 10
4.314988
 20
8.587876
 30
0.0
  0
SPLINE
  5
240
100
AcDbEntity
  8
Capa_1
 62
7
100
AcDbSpline
 70
8
 71
3
 72
8
 73
4
 74
0
 40
0
 40
0
 40
0
 40
0
 40
1
 40
1
 40
1
 40
1
 10
4.314988
 20
8.587876
 30
0.0
 10
4.314988
 20
8.573233
 30
0.0
 10
4.319140
 20
8.560361
 30
0.0
 10
4.327443
 20
8.549259
 30
0.0
  0
SPLINE
  5
241
100
AcDbEntity
  8
Capa_1
 62
7
100
AcDbSpline
 70
8
 71
3
 72
8
 73
4
 74
0
 40
0
 40
0
 40
0
 40
0
 40
1
 40
1
 40
1
 40
1
 10
4.327443
 20
8.549259
 30
0.0
 10
4.335747
 20
8.538158
 30
0.0
 10
4.350544
 20
8.529815
 30
0.0
 10
4.371834
 20
8.524230
 30
0.0
  0
SPLINE
  5
242
100
AcDbEntity
  8
Capa_1
 62
7
100
AcDbSpline
 70
8
 71
3
 72
8
 73
4
 74
0
 40
0
 40
0
 40
0
 40
0
 40
1
 40
1
 40
1
 40
1
 10
4.371834
 20
8.524230
 30
0.0
 10
4.385460
 20
8.520825
 30
0.0
 10
4.403557
 20
8.516704
 30
0.0
 10
4.426125
 20
8.511868
 30
0.0
  0
SPLINE
  5
243
100
AcDbEntity
  8
Capa_1
 62
7
100
AcDbSpline
 70
8
 71
3
 72
8
 73
4
 74
0
 40
0
 40
0
 40
0
 40
0
 40
1
 40
1
 40
1
 40
1
 10
4.426125
 20
8.511868
 30
0.0
 10
4.448693
 20
8.507101
 30
0.0
 10
4.467642
 20
8.502640
 30
0.0
 10
4.482971
 20
8.498485
 30
0.0
  0
SPLINE
  5
244
100
AcDbEntity
  8
Capa_1
 62
7
100
AcDbSpline
 70
8
 71
3
 72
8
 73
4
 74
0
 40
0
 40
0
 40
0
 40
0
 40
1
 40
1
 40
1
 40
1
 10
4.482971
 20
8.498485
 30
0.0
 10
4.513203
 20
8.489836
 30
0.0
 10
4.536090
 20
8.476964
 30
0.0
 10
4.551632
 20
8.459869
 30
0.0
  0
SPLINE
  5
245
100
AcDbEntity
  8
Capa_1
 62
7
100
AcDbSpline
 70
8
 71
3
 72
8
 73
4
 74
0
 40
0
 40
0
 40
0
 40
0
 40
1
 40
1
 40
1
 40
1
 10
4.551632
 20
8.459869
 30
0.0
 10
4.567387
 20
8.442774
 30
0.0
 10
4.575265
 20
8.421218
 30
0.0
 10
4.575265
 20
8.395201
 30
0.0
  0
SPLINE
  5
246
100
AcDbEntity
  8
Capa_1
 62
7
100
AcDbSpline
 70
8
 71
3
 72
8
 73
4
 74
0
 40
0
 40
0
 40
0
 40
0
 40
1
 40
1
 40
1
 40
1
 10
4.575265
 20
8.395201
 30
0.0
 10
4.575265
 20
8.373407
 30
0.0
 10
4.570155
 20
8.351749
 30
0.0
 10
4.559936
 20
8.330227
 30
0.0
  0
SPLINE
  5
247
100
AcDbEntity
  8
Capa_1
 62
7
100
AcDbSpline
 70
8
 71
3
 72
8
 73
4
 74
0
 40
0
 40
0
 40
0
 40
0
 40
1
 40
1
 40
1
 40
1
 10
4.559936
 20
8.330227
 30
0.0
 10
4.549717
 20
8.308637
 30
0.0
 10
4.535452
 20
8.290180
 30
0.0
 10
4.517143
 20
8.274856
 30
0.0
  0
SPLINE
  5
248
100
AcDbEntity
  8
Capa_1
 62
7
100
AcDbSpline
 70
8
 71
3
 72
8
 73
4
 74
0
 40
0
 40
0
 40
0
 40
0
 40
1
 40
1
 40
1
 40
1
 10
4.517143
 20
8.274856
 30
0.0
 10
4.497555
 20
8.258442
 30
0.0
 10
4.474562
 20
8.245570
 30
0.0
 10
4.448162
 20
8.236239
 30
0.0
  0
SPLINE
  5
249
100
AcDbEntity
  8
Capa_1
 62
7
100
AcDbSpline
 70
8
 71
3
 72
8
 73
4
 74
0
 40
0
 40
0
 40
0
 40
0
 40
1
 40
1
 40
1
 40
1
 10
4.448162
 20
8.236239
 30
0.0
 10
4.421975
 20
8.226908
 30
0.0
 10
4.390998
 20
8.222243
 30
0.0
 10
4.355230
 20
8.222243
 30
0.0
  0
LWPOLYLINE
  5
24a
100
AcDbEntity
  8
Capa_1
 62
7
100
AcDbPolyline
 90
3
 70
0
 10
4.614228
 20
8.700253
 30
0.0
 10
4.599856
 20
8.629251
 30
0.0
 10
4.595383
 20
8.629251
 30
0.0
  0
LWPOLYLINE
  5
24b
100
AcDbEntity
  8
Capa_1
 62
7
100
AcDbPolyline
 90
2
 70
0
 10
4.355230
 20
8.222243
 30
0.0
 10
4.355231
 20
8.222141
 30
0.0
  0
LWPOLYLINE
  5
24c
100
AcDbEntity
  8
Capa_1
 62
7
100
AcDbPolyline
 90
12
 70
1
 10
4.806161
 20
8.231141
 30
0.0
 10
4.617741
 20
8.231141
 30
0.0
 10
4.628280
 20
8.279463
 30
0.0
 10
4.690554
 20
8.279463
 30
0.0
 10
4.779335
 20
8.679095
 30
0.0
 10
4.717061
 20
8.679095
 30
0.0
 10
4.727599
 20
8.727417
 30
0.0
 10
4.916019
 20
8.727417
 30
0.0
 10
4.905480
 20
8.679095
 30
0.0
 10
4.843206
 20
8.679095
 30
0.0
 10
4.754425
 20
8.279463
 30
0.0
 10
4.816700
 20
8.279463
 30
0.0
  0
LWPOLYLINE
  5
24d
100
AcDbEntity
  8
Capa_1
 62
7
100
AcDbPolyline
 90
13
 70
1
 10
3.548219
 20
6.524619
 30
0.0
 10
3.484348
 20
6.524619
 30
0.0
 10
3.578238
 20
6.946246
 30
0.0
 10
3.385028
 20
6.661269
 30
0.0
 10
3.347344
 20
6.661269
 30
0.0
 10
3.280279
 20
6.959252
 30
0.0
 10
3.183834
 20
6.524619
 30
0.0
 10
3.124114
 20
6.524619
 30
0.0
 10
3.233973
 20
7.020905
 30
0.0
 10
3.320838
 20
7.020905
 30
0.0
 10
3.385028
 20
6.744602
 30
0.0
 10
3.570254
 20
7.020905
 30
0.0
 10
3.658077
 20
7.020905
 30
0.0
  0
SPLINE
  5
24e
100
AcDbEntity
  8
Capa_1
 62
7
100
AcDbSpline
 70
8
 71
3
 72
8
 73
4
 74
0
 40
0
 40
0
 40
0
 40
0
 40
1
 40
1
 40
1
 40
1
 10
4.116353
 20
6.515619
 30
0.0
 10
4.085482
 20
6.515619
 30
0.0
 10
4.056101
 20
6.519024
 30
0.0
 10
4.028210
 20
6.525835
 30
0.0
  0
SPLINE
  5
24f
100
AcDbEntity
  8
Capa_1
 62
7
100
AcDbSpline
 70
8
 71
3
 72
8
 73
4
 74
0
 40
0
 40
0
 40
0
 40
0
 40
1
 40
1
 40
1
 40
1
 10
4.028210
 20
6.525835
 30
0.0
 10
4.000319
 20
6.532714
 30
0.0
 10
3.972961
 20
6.543168
 30
0.0
 10
3.946136
 20
6.557198
 30
0.0
  0
LWPOLYLINE
  5
250
100
AcDbEntity
  8
Capa_1
 62
7
100
AcDbPolyline
 90
12
 70
1
 10
3.844262
 20
6.524619
 30
0.0
 10
3.655842
 20
6.524619
 30
0.0
 10
3.666380
 20
6.572941
 30
0.0
 10
3.728654
 20
6.572941
 30
0.0
 10
3.817435
 20
6.972573
 30
0.0
 10
3.755161
 20
6.972573
 30
0.0
 10
3.765699
 20
7.020895
 30
0.0
 10
3.954119
 20
7.020895
 30
0.0
 10
3.943581
 20
6.972573
 30
0.0
 10
3.881306
 20
6.972573
 30
0.0
 10
3.792525
 20
6.572941
 30
0.0
 10
3.854800
 20
6.572941
 30
0.0
  0
SPLINE
  5
251
100
AcDbEntity
  8
Capa_1
 62
7
100
AcDbSpline
 70
8
 71
3
 72
8
 73
4
 74
0
 40
0
 40
0
 40
0
 40
0
 40
1
 40
1
 40
1
 40
1
 10
3.965938
 20
6.632899
 30
0.0
 10
3.986376
 20
6.612672
 30
0.0
 10
4.011392
 20
6.597109
 30
0.0
 10
4.040986
 20
6.586212
 30
0.0
  0
SPLINE
  5
252
100
AcDbEntity
  8
Capa_1
 62
7
100
AcDbSpline
 70
8
 71
3
 72
8
 73
4
 74
0
 40
0
 40
0
 40
0
 40
0
 40
1
 40
1
 40
1
 40
1
 10
4.040986
 20
6.586212
 30
0.0
 10
4.070793
 20
6.575519
 30
0.0
 10
4.099535
 20
6.570173
 30
0.0
 10
4.127212
 20
6.570173
 30
0.0
  0
SPLINE
  5
253
100
AcDbEntity
  8
Capa_1
 62
7
100
AcDbSpline
 70
8
 71
3
 72
8
 73
4
 74
0
 40
0
 40
0
 40
0
 40
0
 40
1
 40
1
 40
1
 40
1
 10
4.127212
 20
6.570173
 30
0.0
 10
4.172560
 20
6.570173
 30
0.0
 10
4.207264
 20
6.579503
 30
0.0
 10
4.231322
 20
6.598165
 30
0.0
  0
SPLINE
  5
254
100
AcDbEntity
  8
Capa_1
 62
7
100
AcDbSpline
 70
8
 71
3
 72
8
 73
4
 74
0
 40
0
 40
0
 40
0
 40
0
 40
1
 40
1
 40
1
 40
1
 10
4.231322
 20
6.598165
 30
0.0
 10
4.255593
 20
6.617030
 30
0.0
 10
4.267728
 20
6.641038
 30
0.0
 10
4.267728
 20
6.670188
 30
0.0
  0
SPLINE
  5
255
100
AcDbEntity
  8
Capa_1
 62
7
100
AcDbSpline
 70
8
 71
3
 72
8
 73
4
 74
0
 40
0
 40
0
 40
0
 40
0
 40
1
 40
1
 40
1
 40
1
 10
4.267728
 20
6.670188
 30
0.0
 10
4.267728
 20
6.685512
 30
0.0
 10
4.263364
 20
6.698282
 30
0.0
 10
4.254634
 20
6.708498
 30
0.0
  0
SPLINE
  5
256
100
AcDbEntity
  8
Capa_1
 62
7
100
AcDbSpline
 70
8
 71
3
 72
8
 73
4
 74
0
 40
0
 40
0
 40
0
 40
0
 40
1
 40
1
 40
1
 40
1
 10
4.254634
 20
6.708498
 30
0.0
 10
4.246118
 20
6.718714
 30
0.0
 10
4.233557
 20
6.726274
 30
0.0
 10
4.216951
 20
6.731178
 30
0.0
  0
SPLINE
  5
257
100
AcDbEntity
  8
Capa_1
 62
7
100
AcDbSpline
 70
8
 71
3
 72
8
 73
4
 74
0
 40
0
 40
0
 40
0
 40
0
 40
1
 40
1
 40
1
 40
1
 10
4.216951
 20
6.731178
 30
0.0
 10
4.203112
 20
6.735264
 30
0.0
 10
4.186611
 20
6.739044
 30
0.0
 10
4.167450
 20
6.742518
 30
0.0
  0
SPLINE
  5
258
100
AcDbEntity
  8
Capa_1
 62
7
100
AcDbSpline
 70
8
 71
3
 72
8
 73
4
 74
0
 40
0
 40
0
 40
0
 40
0
 40
1
 40
1
 40
1
 40
1
 10
4.167450
 20
6.742518
 30
0.0
 10
4.148502
 20
6.746604
 30
0.0
 10
4.130405
 20
6.750622
 30
0.0
 10
4.113159
 20
6.754573
 30
0.0
  0
SPLINE
  5
259
100
AcDbEntity
  8
Capa_1
 62
7
100
AcDbSpline
 70
8
 71
3
 72
8
 73
4
 74
0
 40
0
 40
0
 40
0
 40
0
 40
1
 40
1
 40
1
 40
1
 10
4.113159
 20
6.754573
 30
0.0
 10
4.079733
 20
6.762337
 30
0.0
 10
4.053866
 20
6.775652
 30
0.0
 10
4.035556
 20
6.794517
 30
0.0
  0
SPLINE
  5
25a
100
AcDbEntity
  8
Capa_1
 62
7
100
AcDbSpline
 70
8
 71
3
 72
8
 73
4
 74
0
 40
0
 40
0
 40
0
 40
0
 40
1
 40
1
 40
1
 40
1
 10
4.035556
 20
6.794517
 30
0.0
 10
4.017246
 20
6.813383
 30
0.0
 10
4.008091
 20
6.836812
 30
0.0
 10
4.008091
 20
6.864804
 30
0.0
  0
SPLINE
  5
25b
100
AcDbEntity
  8
Capa_1
 62
7
100
AcDbSpline
 70
8
 71
3
 72
8
 73
4
 74
0
 40
0
 40
0
 40
0
 40
0
 40
1
 40
1
 40
1
 40
1
 10
4.008091
 20
6.864804
 30
0.0
 10
4.008091
 20
6.912138
 30
0.0
 10
4.027253
 20
6.951470
 30
0.0
 10
4.065575
 20
6.982800
 30
0.0
  0
SPLINE
  5
25c
100
AcDbEntity
  8
Capa_1
 62
7
100
AcDbSpline
 70
8
 71
3
 72
8
 73
4
 74
0
 40
0
 40
0
 40
0
 40
0
 40
1
 40
1
 40
1
 40
1
 10
4.065575
 20
6.982800
 30
0.0
 10
4.104111
 20
7.014333
 30
0.0
 10
4.153824
 20
7.030100
 30
0.0
 10
4.214714
 20
7.030100
 30
0.0
  0
SPLINE
  5
25d
100
AcDbEntity
  8
Capa_1
 62
7
100
AcDbSpline
 70
8
 71
3
 72
8
 73
4
 74
0
 40
0
 40
0
 40
0
 40
0
 40
1
 40
1
 40
1
 40
1
 10
4.214714
 20
7.030100
 30
0.0
 10
4.247927
 20
7.030100
 30
0.0
 10
4.278054
 20
7.026422
 30
0.0
 10
4.305093
 20
7.019067
 30
0.0
  0
SPLINE
  5
25e
100
AcDbEntity
  8
Capa_1
 62
7
100
AcDbSpline
 70
8
 71
3
 72
8
 73
4
 74
0
 40
0
 40
0
 40
0
 40
0
 40
1
 40
1
 40
1
 40
1
 10
4.305093
 20
7.019067
 30
0.0
 10
4.332345
 20
7.011983
 30
0.0
 10
4.355764
 20
7.003538
 30
0.0
 10
4.375351
 20
6.993731
 30
0.0
  0
LWPOLYLINE
  5
25f
100
AcDbEntity
  8
Capa_1
 62
7
100
AcDbPolyline
 90
3
 70
0
 10
3.946136
 20
6.557198
 30
0.0
 10
3.961464
 20
6.632899
 30
0.0
 10
3.965938
 20
6.632899
 30
0.0
  0
SPLINE
  5
260
100
AcDbEntity
  8
Capa_1
 62
7
100
AcDbSpline
 70
8
 71
3
 72
8
 73
4
 74
0
 40
0
 40
0
 40
0
 40
0
 40
1
 40
1
 40
1
 40
1
 10
4.356506
 20
6.922729
 30
0.0
 10
4.341390
 20
6.937168
 30
0.0
 10
4.319780
 20
6.949597
 30
0.0
 10
4.291677
 20
6.960018
 30
0.0
  0
SPLINE
  5
261
100
AcDbEntity
  8
Capa_1
 62
7
100
AcDbSpline
 70
8
 71
3
 72
8
 73
4
 74
0
 40
0
 40
0
 40
0
 40
0
 40
1
 40
1
 40
1
 40
1
 10
4.291677
 20
6.960018
 30
0.0
 10
4.263786
 20
6.970438
 30
0.0
 10
4.234406
 20
6.975648
 30
0.0
 10
4.203534
 20
6.975648
 30
0.0
  0
SPLINE
  5
262
100
AcDbEntity
  8
Capa_1
 62
7
100
AcDbSpline
 70
8
 71
3
 72
8
 73
4
 74
0
 40
0
 40
0
 40
0
 40
0
 40
1
 40
1
 40
1
 40
1
 10
4.203534
 20
6.975648
 30
0.0
 10
4.164785
 20
6.975648
 30
0.0
 10
4.133808
 20
6.966760
 30
0.0
 10
4.110602
 20
6.948984
 30
0.0
  0
SPLINE
  5
263
100
AcDbEntity
  8
Capa_1
 62
7
100
AcDbSpline
 70
8
 71
3
 72
8
 73
4
 74
0
 40
0
 40
0
 40
0
 40
0
 40
1
 40
1
 40
1
 40
1
 10
4.110602
 20
6.948984
 30
0.0
 10
4.087608
 20
6.931208
 30
0.0
 10
4.076111
 20
6.908665
 30
0.0
 10
4.076111
 20
6.881354
 30
0.0
  0
SPLINE
  5
264
100
AcDbEntity
  8
Capa_1
 62
7
100
AcDbSpline
 70
8
 71
3
 72
8
 73
4
 74
0
 40
0
 40
0
 40
0
 40
0
 40
1
 40
1
 40
1
 40
1
 10
4.076111
 20
6.881354
 30
0.0
 10
4.076111
 20
6.866711
 30
0.0
 10
4.080263
 20
6.853839
 30
0.0
 10
4.088566
 20
6.842737
 30
0.0
  0
SPLINE
  5
265
100
AcDbEntity
  8
Capa_1
 62
7
100
AcDbSpline
 70
8
 71
3
 72
8
 73
4
 74
0
 40
0
 40
0
 40
0
 40
0
 40
1
 40
1
 40
1
 40
1
 10
4.088566
 20
6.842737
 30
0.0
 10
4.096869
 20
6.831636
 30
0.0
 10
4.111666
 20
6.823293
 30
0.0
 10
4.132957
 20
6.817708
 30
0.0
  0
SPLINE
  5
266
100
AcDbEntity
  8
Capa_1
 62
7
100
AcDbSpline
 70
8
 71
3
 72
8
 73
4
 74
0
 40
0
 40
0
 40
0
 40
0
 40
1
 40
1
 40
1
 40
1
 10
4.132957
 20
6.817708
 30
0.0
 10
4.146583
 20
6.814303
 30
0.0
 10
4.164679
 20
6.810182
 30
0.0
 10
4.187248
 20
6.805347
 30
0.0
  0
SPLINE
  5
267
100
AcDbEntity
  8
Capa_1
 62
7
100
AcDbSpline
 70
8
 71
3
 72
8
 73
4
 74
0
 40
0
 40
0
 40
0
 40
0
 40
1
 40
1
 40
1
 40
1
 10
4.187248
 20
6.805347
 30
0.0
 10
4.209816
 20
6.800579
 30
0.0
 10
4.228764
 20
6.796118
 30
0.0
 10
4.244094
 20
6.791963
 30
0.0
  0
SPLINE
  5
268
100
AcDbEntity
  8
Capa_1
 62
7
100
AcDbSpline
 70
8
 71
3
 72
8
 73
4
 74
0
 40
0
 40
0
 40
0
 40
0
 40
1
 40
1
 40
1
 40
1
 10
4.244094
 20
6.791963
 30
0.0
 10
4.274326
 20
6.783314
 30
0.0
 10
4.297213
 20
6.770442
 30
0.0
 10
4.312755
 20
6.753347
 30
0.0
  0
SPLINE
  5
269
100
AcDbEntity
  8
Capa_1
 62
7
100
AcDbSpline
 70
8
 71
3
 72
8
 73
4
 74
0
 40
0
 40
0
 40
0
 40
0
 40
1
 40
1
 40
1
 40
1
 10
4.312755
 20
6.753347
 30
0.0
 10
4.328510
 20
6.736252
 30
0.0
 10
4.336388
 20
6.714696
 30
0.0
 10
4.336388
 20
6.688679
 30
0.0
  0
SPLINE
  5
26a
100
AcDbEntity
  8
Capa_1
 62
7
100
AcDbSpline
 70
8
 71
3
 72
8
 73
4
 74
0
 40
0
 40
0
 40
0
 40
0
 40
1
 40
1
 40
1
 40
1
 10
4.336388
 20
6.688679
 30
0.0
 10
4.336388
 20
6.666885
 30
0.0
 10
4.331278
 20
6.645227
 30
0.0
 10
4.321059
 20
6.623705
 30
0.0
  0
SPLINE
  5
26b
100
AcDbEntity
  8
Capa_1
 62
7
100
AcDbSpline
 70
8
 71
3
 72
8
 73
4
 74
0
 40
0
 40
0
 40
0
 40
0
 40
1
 40
1
 40
1
 40
1
 10
4.321059
 20
6.623705
 30
0.0
 10
4.310840
 20
6.602115
 30
0.0
 10
4.296575
 20
6.583658
 30
0.0
 10
4.278265
 20
6.568334
 30
0.0
  0
SPLINE
  5
26c
100
AcDbEntity
  8
Capa_1
 62
7
100
AcDbSpline
 70
8
 71
3
 72
8
 73
4
 74
0
 40
0
 40
0
 40
0
 40
0
 40
1
 40
1
 40
1
 40
1
 10
4.278265
 20
6.568334
 30
0.0
 10
4.258678
 20
6.551920
 30
0.0
 10
4.235684
 20
6.539048
 30
0.0
 10
4.209285
 20
6.529717
 30
0.0
  0
SPLINE
  5
26d
100
AcDbEntity
  8
Capa_1
 62
7
100
AcDbSpline
 70
8
 71
3
 72
8
 73
4
 74
0
 40
0
 40
0
 40
0
 40
0
 40
1
 40
1
 40
1
 40
1
 10
4.209285
 20
6.529717
 30
0.0
 10
4.183098
 20
6.520386
 30
0.0
 10
4.152121
 20
6.515721
 30
0.0
 10
4.116353
 20
6.515721
 30
0.0
  0
LWPOLYLINE
  5
26e
100
AcDbEntity
  8
Capa_1
 62
7
100
AcDbPolyline
 90
3
 70
0
 10
4.375351
 20
6.993731
 30
0.0
 10
4.360979
 20
6.922729
 30
0.0
 10
4.356506
 20
6.922729
 30
0.0
  0
SPLINE
  5
26f
100
AcDbEntity
  8
Capa_1
 62
7
100
AcDbSpline
 70
8
 71
3
 72
8
 73
4
 74
0
 40
0
 40
0
 40
0
 40
0
 40
1
 40
1
 40
1
 40
1
 10
4.875781
 20
6.845261
 30
0.0
 10
4.875781
 20
6.802149
 30
0.0
 10
4.869500
 20
6.760597
 30
0.0
 10
4.856939
 20
6.720604
 30
0.0
  0
SPLINE
  5
270
100
AcDbEntity
  8
Capa_1
 62
7
100
AcDbSpline
 70
8
 71
3
 72
8
 73
4
 74
0
 40
0
 40
0
 40
0
 40
0
 40
1
 40
1
 40
1
 40
1
 10
4.856939
 20
6.720604
 30
0.0
 10
4.844590
 20
6.680625
 30
0.0
 10
4.826600
 20
6.645404
 30
0.0
 10
4.802968
 20
6.614940
 30
0.0
  0
SPLINE
  5
271
100
AcDbEntity
  8
Capa_1
 62
7
100
AcDbSpline
 70
8
 71
3
 72
8
 73
4
 74
0
 40
0
 40
0
 40
0
 40
0
 40
1
 40
1
 40
1
 40
1
 10
4.802968
 20
6.614940
 30
0.0
 10
4.778697
 20
6.583610
 30
0.0
 10
4.749529
 20
6.558955
 30
0.0
 10
4.715465
 20
6.540975
 30
0.0
  0
SPLINE
  5
272
100
AcDbEntity
  8
Capa_1
 62
7
100
AcDbSpline
 70
8
 71
3
 72
8
 73
4
 74
0
 40
0
 40
0
 40
0
 40
0
 40
1
 40
1
 40
1
 40
1
 10
4.715465
 20
6.540975
 30
0.0
 10
4.681400
 20
6.523199
 30
0.0
 10
4.642971
 20
6.514311
 30
0.0
 10
4.600177
 20
6.514311
 30
0.0
  0
SPLINE
  5
273
100
AcDbEntity
  8
Capa_1
 62
7
100
AcDbSpline
 70
8
 71
3
 72
8
 73
4
 74
0
 40
0
 40
0
 40
0
 40
0
 40
1
 40
1
 40
1
 40
1
 10
4.600177
 20
6.514311
 30
0.0
 10
4.543545
 20
6.514311
 30
0.0
 10
4.499261
 20
6.530419
 30
0.0
 10
4.467325
 20
6.562633
 30
0.0
  0
SPLINE
  5
274
100
AcDbEntity
  8
Capa_1
 62
7
100
AcDbSpline
 70
8
 71
3
 72
8
 73
4
 74
0
 40
0
 40
0
 40
0
 40
0
 40
1
 40
1
 40
1
 40
1
 10
4.467325
 20
6.562633
 30
0.0
 10
4.435390
 20
6.595052
 30
0.0
 10
4.419422
 20
6.641048
 30
0.0
 10
4.419422
 20
6.700622
 30
0.0
  0
SPLINE
  5
275
100
AcDbEntity
  8
Capa_1
 62
7
100
AcDbSpline
 70
8
 71
3
 72
8
 73
4
 74
0
 40
0
 40
0
 40
0
 40
0
 40
1
 40
1
 40
1
 40
1
 10
4.419422
 20
6.700622
 30
0.0
 10
4.419422
 20
6.745981
 30
0.0
 10
4.425809
 20
6.788313
 30
0.0
 10
4.438583
 20
6.827618
 30
0.0
  0
SPLINE
  5
276
100
AcDbEntity
  8
Capa_1
 62
7
100
AcDbSpline
 70
8
 71
3
 72
8
 73
4
 74
0
 40
0
 40
0
 40
0
 40
0
 40
1
 40
1
 40
1
 40
1
 10
4.438583
 20
6.827618
 30
0.0
 10
4.451357
 20
6.866915
 30
0.0
 10
4.469773
 20
6.902021
 30
0.0
 10
4.493832
 20
6.932935
 30
0.0
  0
SPLINE
  5
277
100
AcDbEntity
  8
Capa_1
 62
7
100
AcDbSpline
 70
8
 71
3
 72
8
 73
4
 74
0
 40
0
 40
0
 40
0
 40
0
 40
1
 40
1
 40
1
 40
1
 10
4.493832
 20
6.932935
 30
0.0
 10
4.517251
 20
6.962698
 30
0.0
 10
4.546206
 20
6.986467
 30
0.0
 10
4.580697
 20
7.004243
 30
0.0
  0
SPLINE
  5
278
100
AcDbEntity
  8
Capa_1
 62
7
100
AcDbSpline
 70
8
 71
3
 72
8
 73
4
 74
0
 40
0
 40
0
 40
0
 40
0
 40
1
 40
1
 40
1
 40
1
 10
4.580697
 20
7.004243
 30
0.0
 10
4.615400
 20
7.022223
 30
0.0
 10
4.653404
 20
7.031213
 30
0.0
 10
4.694707
 20
7.031213
 30
0.0
  0
SPLINE
  5
279
100
AcDbEntity
  8
Capa_1
 62
7
100
AcDbSpline
 70
8
 71
3
 72
8
 73
4
 74
0
 40
0
 40
0
 40
0
 40
0
 40
1
 40
1
 40
1
 40
1
 10
4.694707
 20
7.031213
 30
0.0
 10
4.751126
 20
7.031213
 30
0.0
 10
4.795410
 20
7.015106
 30
0.0
 10
4.827559
 20
6.982891
 30
0.0
  0
SPLINE
  5
27a
100
AcDbEntity
  8
Capa_1
 62
7
100
AcDbSpline
 70
8
 71
3
 72
8
 73
4
 74
0
 40
0
 40
0
 40
0
 40
0
 40
1
 40
1
 40
1
 40
1
 10
4.827559
 20
6.982891
 30
0.0
 10
4.859707
 20
6.950881
 30
0.0
 10
4.875782
 20
6.904997
 30
0.0
 10
4.875782
 20
6.845240
 30
0.0
  0
LWPOLYLINE
  5
27b
100
AcDbEntity
  8
Capa_1
 62
7
100
AcDbPolyline
 90
2
 70
0
 10
4.116353
 20
6.515721
 30
0.0
 10
4.116353
 20
6.515619
 30
0.0
  0
SPLINE
  5
27c
100
AcDbEntity
  8
Capa_1
 62
7
100
AcDbSpline
 70
8
 71
3
 72
8
 73
4
 74
0
 40
0
 40
0
 40
0
 40
0
 40
1
 40
1
 40
1
 40
1
 10
4.754745
 20
6.647937
 30
0.0
 10
4.772629
 20
6.673273
 30
0.0
 10
4.786148
 20
6.701504
 30
0.0
 10
4.795304
 20
6.732629
 30
0.0
  0
SPLINE
  5
27d
100
AcDbEntity
  8
Capa_1
 62
7
100
AcDbSpline
 70
8
 71
3
 72
8
 73
4
 74
0
 40
0
 40
0
 40
0
 40
0
 40
1
 40
1
 40
1
 40
1
 10
4.795304
 20
6.732629
 30
0.0
 10
4.804459
 20
6.763958
 30
0.0
 10
4.809036
 20
6.798400
 30
0.0
 10
4.809036
 20
6.835954
 30
0.0
  0
SPLINE
  5
27e
100
AcDbEntity
  8
Capa_1
 62
7
100
AcDbSpline
 70
8
 71
3
 72
8
 73
4
 74
0
 40
0
 40
0
 40
0
 40
0
 40
1
 40
1
 40
1
 40
1
 10
4.809036
 20
6.835954
 30
0.0
 10
4.809036
 20
6.881313
 30
0.0
 10
4.798072
 20
6.916089
 30
0.0
 10
4.776143
 20
6.940280
 30
0.0
  0
SPLINE
  5
27f
100
AcDbEntity
  8
Capa_1
 62
7
100
AcDbSpline
 70
8
 71
3
 72
8
 73
4
 74
0
 40
0
 40
0
 40
0
 40
0
 40
1
 40
1
 40
1
 40
1
 10
4.776143
 20
6.940280
 30
0.0
 10
4.754427
 20
6.964731
 30
0.0
 10
4.723981
 20
6.976956
 30
0.0
 10
4.684807
 20
6.976956
 30
0.0
  0
SPLINE
  5
280
100
AcDbEntity
  8
Capa_1
 62
7
100
AcDbSpline
 70
8
 71
3
 72
8
 73
4
 74
0
 40
0
 40
0
 40
0
 40
0
 40
1
 40
1
 40
1
 40
1
 10
4.684807
 20
6.976956
 30
0.0
 10
4.654362
 20
6.976956
 30
0.0
 10
4.626897
 20
6.969634
 30
0.0
 10
4.602413
 20
6.954991
 30
0.0
  0
SPLINE
  5
281
100
AcDbEntity
  8
Capa_1
 62
7
100
AcDbSpline
 70
8
 71
3
 72
8
 73
4
 74
0
 40
0
 40
0
 40
0
 40
0
 40
1
 40
1
 40
1
 40
1
 10
4.602413
 20
6.954991
 30
0.0
 10
4.577930
 20
6.940553
 30
0.0
 10
4.556852
 20
6.920904
 30
0.0
 10
4.539181
 20
6.896045
 30
0.0
  0
SPLINE
  5
282
100
AcDbEntity
  8
Capa_1
 62
7
100
AcDbSpline
 70
8
 71
3
 72
8
 73
4
 74
0
 40
0
 40
0
 40
0
 40
0
 40
1
 40
1
 40
1
 40
1
 10
4.539181
 20
6.896045
 30
0.0
 10
4.522148
 20
6.871594
 30
0.0
 10
4.509054
 20
6.843160
 30
0.0
 10
4.499900
 20
6.810741
 30
0.0
  0
SPLINE
  5
283
100
AcDbEntity
  8
Capa_1
 62
7
100
AcDbSpline
 70
8
 71
3
 72
8
 73
4
 74
0
 40
0
 40
0
 40
0
 40
0
 40
1
 40
1
 40
1
 40
1
 10
4.499900
 20
6.810741
 30
0.0
 10
4.490745
 20
6.778526
 30
0.0
 10
4.486168
 20
6.745290
 30
0.0
 10
4.486168
 20
6.711032
 30
0.0
  0
SPLINE
  5
284
100
AcDbEntity
  8
Capa_1
 62
7
100
AcDbSpline
 70
8
 71
3
 72
8
 73
4
 74
0
 40
0
 40
0
 40
0
 40
0
 40
1
 40
1
 40
1
 40
1
 10
4.486168
 20
6.711032
 30
0.0
 10
4.486168
 20
6.665264
 30
0.0
 10
4.497026
 20
6.630042
 30
0.0
 10
4.518742
 20
6.605367
 30
0.0
  0
SPLINE
  5
285
100
AcDbEntity
  8
Capa_1
 62
7
100
AcDbSpline
 70
8
 71
3
 72
8
 73
4
 74
0
 40
0
 40
0
 40
0
 40
0
 40
1
 40
1
 40
1
 40
1
 10
4.518742
 20
6.605367
 30
0.0
 10
4.540671
 20
6.580917
 30
0.0
 10
4.571329
 20
6.568691
 30
0.0
 10
4.610717
 20
6.568691
 30
0.0
  0
SPLINE
  5
286
100
AcDbEntity
  8
Capa_1
 62
7
100
AcDbSpline
 70
8
 71
3
 72
8
 73
4
 74
0
 40
0
 40
0
 40
0
 40
0
 40
1
 40
1
 40
1
 40
1
 10
4.610717
 20
6.568691
 30
0.0
 10
4.640736
 20
6.568691
 30
0.0
 10
4.667988
 20
6.575911
 30
0.0
 10
4.692472
 20
6.590349
 30
0.0
  0
SPLINE
  5
287
100
AcDbEntity
  8
Capa_1
 62
7
100
AcDbSpline
 70
8
 71
3
 72
8
 73
4
 74
0
 40
0
 40
0
 40
0
 40
0
 40
1
 40
1
 40
1
 40
1
 10
4.692472
 20
6.590349
 30
0.0
 10
4.717170
 20
6.604788
 30
0.0
 10
4.737928
 20
6.623994
 30
0.0
 10
4.754747
 20
6.647968
 30
0.0
  0
LWPOLYLINE
  5
288
100
AcDbEntity
  8
Capa_1
 62
7
100
AcDbPolyline
 90
1
 70
1
 10
4.875782
 20
6.845240
 30
0.0
  0
SPLINE
  5
289
100
AcDbEntity
  8
Capa_1
 62
7
100
AcDbSpline
 70
8
 71
3
 72
8
 73
4
 74
0
 40
0
 40
0
 40
0
 40
0
 40
1
 40
1
 40
1
 40
1
 10
3.504467
 20
4.809097
 30
0.0
 10
3.473596
 20
4.809097
 30
0.0
 10
3.444215
 20
4.812502
 30
0.0
 10
3.416324
 20
4.819313
 30
0.0
  0
SPLINE
  5
28a
100
AcDbEntity
  8
Capa_1
 62
7
100
AcDbSpline
 70
8
 71
3
 72
8
 73
4
 74
0
 40
0
 40
0
 40
0
 40
0
 40
1
 40
1
 40
1
 40
1
 10
3.416324
 20
4.819313
 30
0.0
 10
3.388434
 20
4.826192
 30
0.0
 10
3.361076
 20
4.836646
 30
0.0
 10
3.334250
 20
4.850676
 30
0.0
  0
LWPOLYLINE
  5
28b
100
AcDbEntity
  8
Capa_1
 62
7
100
AcDbPolyline
 90
1
 70
1
 10
4.754747
 20
6.647968
 30
0.0
  0
SPLINE
  5
28c
100
AcDbEntity
  8
Capa_1
 62
7
100
AcDbSpline
 70
8
 71
3
 72
8
 73
4
 74
0
 40
0
 40
0
 40
0
 40
0
 40
1
 40
1
 40
1
 40
1
 10
3.354052
 20
4.926377
 30
0.0
 10
3.374491
 20
4.906150
 30
0.0
 10
3.399507
 20
4.890587
 30
0.0
 10
3.429100
 20
4.879690
 30
0.0
  0
SPLINE
  5
28d
100
AcDbEntity
  8
Capa_1
 62
7
100
AcDbSpline
 70
8
 71
3
 72
8
 73
4
 74
0
 40
0
 40
0
 40
0
 40
0
 40
1
 40
1
 40
1
 40
1
 10
3.429100
 20
4.879690
 30
0.0
 10
3.458907
 20
4.868997
 30
0.0
 10
3.487649
 20
4.863651
 30
0.0
 10
3.515326
 20
4.863651
 30
0.0
  0
SPLINE
  5
28e
100
AcDbEntity
  8
Capa_1
 62
7
100
AcDbSpline
 70
8
 71
3
 72
8
 73
4
 74
0
 40
0
 40
0
 40
0
 40
0
 40
1
 40
1
 40
1
 40
1
 10
3.515326
 20
4.863651
 30
0.0
 10
3.560675
 20
4.863651
 30
0.0
 10
3.595378
 20
4.872981
 30
0.0
 10
3.619436
 20
4.891643
 30
0.0
  0
SPLINE
  5
28f
100
AcDbEntity
  8
Capa_1
 62
7
100
AcDbSpline
 70
8
 71
3
 72
8
 73
4
 74
0
 40
0
 40
0
 40
0
 40
0
 40
1
 40
1
 40
1
 40
1
 10
3.619436
 20
4.891643
 30
0.0
 10
3.643707
 20
4.910508
 30
0.0
 10
3.655843
 20
4.934516
 30
0.0
 10
3.655843
 20
4.963666
 30
0.0
  0
SPLINE
  5
290
100
AcDbEntity
  8
Capa_1
 62
7
100
AcDbSpline
 70
8
 71
3
 72
8
 73
4
 74
0
 40
0
 40
0
 40
0
 40
0
 40
1
 40
1
 40
1
 40
1
 10
3.655843
 20
4.963666
 30
0.0
 10
3.655843
 20
4.978990
 30
0.0
 10
3.651478
 20
4.991760
 30
0.0
 10
3.642749
 20
5.001976
 30
0.0
  0
SPLINE
  5
291
100
AcDbEntity
  8
Capa_1
 62
7
100
AcDbSpline
 70
8
 71
3
 72
8
 73
4
 74
0
 40
0
 40
0
 40
0
 40
0
 40
1
 40
1
 40
1
 40
1
 10
3.642749
 20
5.001976
 30
0.0
 10
3.634233
 20
5.012192
 30
0.0
 10
3.621671
 20
5.019752
 30
0.0
 10
3.605065
 20
5.024656
 30
0.0
  0
SPLINE
  5
292
100
AcDbEntity
  8
Capa_1
 62
7
100
AcDbSpline
 70
8
 71
3
 72
8
 73
4
 74
0
 40
0
 40
0
 40
0
 40
0
 40
1
 40
1
 40
1
 40
1
 10
3.605065
 20
5.024656
 30
0.0
 10
3.591226
 20
5.028742
 30
0.0
 10
3.574726
 20
5.032522
 30
0.0
 10
3.555564
 20
5.035996
 30
0.0
  0
SPLINE
  5
293
100
AcDbEntity
  8
Capa_1
 62
7
100
AcDbSpline
 70
8
 71
3
 72
8
 73
4
 74
0
 40
0
 40
0
 40
0
 40
0
 40
1
 40
1
 40
1
 40
1
 10
3.555564
 20
5.035996
 30
0.0
 10
3.536616
 20
5.040082
 30
0.0
 10
3.518519
 20
5.044100
 30
0.0
 10
3.501273
 20
5.048051
 30
0.0
  0
SPLINE
  5
294
100
AcDbEntity
  8
Capa_1
 62
7
100
AcDbSpline
 70
8
 71
3
 72
8
 73
4
 74
0
 40
0
 40
0
 40
0
 40
0
 40
1
 40
1
 40
1
 40
1
 10
3.501273
 20
5.048051
 30
0.0
 10
3.467848
 20
5.055815
 30
0.0
 10
3.441980
 20
5.069164
 30
0.0
 10
3.423670
 20
5.088098
 30
0.0
  0
SPLINE
  5
295
100
AcDbEntity
  8
Capa_1
 62
7
100
AcDbSpline
 70
8
 71
3
 72
8
 73
4
 74
0
 40
0
 40
0
 40
0
 40
0
 40
1
 40
1
 40
1
 40
1
 10
3.423670
 20
5.088098
 30
0.0
 10
3.405360
 20
5.106963
 30
0.0
 10
3.396206
 20
5.130392
 30
0.0
 10
3.396206
 20
5.158384
 30
0.0
  0
SPLINE
  5
296
100
AcDbEntity
  8
Capa_1
 62
7
100
AcDbSpline
 70
8
 71
3
 72
8
 73
4
 74
0
 40
0
 40
0
 40
0
 40
0
 40
1
 40
1
 40
1
 40
1
 10
3.396206
 20
5.158384
 30
0.0
 10
3.396206
 20
5.205719
 30
0.0
 10
3.415367
 20
5.245047
 30
0.0
 10
3.453690
 20
5.276370
 30
0.0
  0
SPLINE
  5
297
100
AcDbEntity
  8
Capa_1
 62
7
100
AcDbSpline
 70
8
 71
3
 72
8
 73
4
 74
0
 40
0
 40
0
 40
0
 40
0
 40
1
 40
1
 40
1
 40
1
 10
3.453690
 20
5.276370
 30
0.0
 10
3.492225
 20
5.307903
 30
0.0
 10
3.541938
 20
5.323670
 30
0.0
 10
3.602829
 20
5.323670
 30
0.0
  0
SPLINE
  5
298
100
AcDbEntity
  8
Capa_1
 62
7
100
AcDbSpline
 70
8
 71
3
 72
8
 73
4
 74
0
 40
0
 40
0
 40
0
 40
0
 40
1
 40
1
 40
1
 40
1
 10
3.602829
 20
5.323670
 30
0.0
 10
3.636042
 20
5.323670
 30
0.0
 10
3.666167
 20
5.319992
 30
0.0
 10
3.693206
 20
5.312637
 30
0.0
  0
SPLINE
  5
299
100
AcDbEntity
  8
Capa_1
 62
7
100
AcDbSpline
 70
8
 71
3
 72
8
 73
4
 74
0
 40
0
 40
0
 40
0
 40
0
 40
1
 40
1
 40
1
 40
1
 10
3.693206
 20
5.312637
 30
0.0
 10
3.720458
 20
5.305553
 30
0.0
 10
3.743877
 20
5.297108
 30
0.0
 10
3.763464
 20
5.287301
 30
0.0
  0
LWPOLYLINE
  5
29a
100
AcDbEntity
  8
Capa_1
 62
7
100
AcDbPolyline
 90
3
 70
0
 10
3.334250
 20
4.850676
 30
0.0
 10
3.349579
 20
4.926377
 30
0.0
 10
3.354052
 20
4.926377
 30
0.0
  0
SPLINE
  5
29b
100
AcDbEntity
  8
Capa_1
 62
7
100
AcDbSpline
 70
8
 71
3
 72
8
 73
4
 74
0
 40
0
 40
0
 40
0
 40
0
 40
1
 40
1
 40
1
 40
1
 10
3.744619
 20
5.216299
 30
0.0
 10
3.729503
 20
5.230738
 30
0.0
 10
3.707893
 20
5.243167
 30
0.0
 10
3.679790
 20
5.253588
 30
0.0
  0
SPLINE
  5
29c
100
AcDbEntity
  8
Capa_1
 62
7
100
AcDbSpline
 70
8
 71
3
 72
8
 73
4
 74
0
 40
0
 40
0
 40
0
 40
0
 40
1
 40
1
 40
1
 40
1
 10
3.679790
 20
5.253588
 30
0.0
 10
3.651900
 20
5.264008
 30
0.0
 10
3.622519
 20
5.269218
 30
0.0
 10
3.591647
 20
5.269218
 30
0.0
  0
SPLINE
  5
29d
100
AcDbEntity
  8
Capa_1
 62
7
100
AcDbSpline
 70
8
 71
3
 72
8
 73
4
 74
0
 40
0
 40
0
 40
0
 40
0
 40
1
 40
1
 40
1
 40
1
 10
3.591647
 20
5.269218
 30
0.0
 10
3.552898
 20
5.269218
 30
0.0
 10
3.521921
 20
5.260330
 30
0.0
 10
3.498715
 20
5.242554
 30
0.0
  0
SPLINE
  5
29e
100
AcDbEntity
  8
Capa_1
 62
7
100
AcDbSpline
 70
8
 71
3
 72
8
 73
4
 74
0
 40
0
 40
0
 40
0
 40
0
 40
1
 40
1
 40
1
 40
1
 10
3.498715
 20
5.242554
 30
0.0
 10
3.475721
 20
5.224778
 30
0.0
 10
3.464224
 20
5.202235
 30
0.0
 10
3.464224
 20
5.174924
 30
0.0
  0
SPLINE
  5
29f
100
AcDbEntity
  8
Capa_1
 62
7
100
AcDbSpline
 70
8
 71
3
 72
8
 73
4
 74
0
 40
0
 40
0
 40
0
 40
0
 40
1
 40
1
 40
1
 40
1
 10
3.464224
 20
5.174924
 30
0.0
 10
3.464224
 20
5.160281
 30
0.0
 10
3.468376
 20
5.147409
 30
0.0
 10
3.476679
 20
5.136307
 30
0.0
  0
SPLINE
  5
2a0
100
AcDbEntity
  8
Capa_1
 62
7
100
AcDbSpline
 70
8
 71
3
 72
8
 73
4
 74
0
 40
0
 40
0
 40
0
 40
0
 40
1
 40
1
 40
1
 40
1
 10
3.476679
 20
5.136307
 30
0.0
 10
3.484983
 20
5.125206
 30
0.0
 10
3.499780
 20
5.116863
 30
0.0
 10
3.521070
 20
5.111278
 30
0.0
  0
SPLINE
  5
2a1
100
AcDbEntity
  8
Capa_1
 62
7
100
AcDbSpline
 70
8
 71
3
 72
8
 73
4
 74
0
 40
0
 40
0
 40
0
 40
0
 40
1
 40
1
 40
1
 40
1
 10
3.521070
 20
5.111278
 30
0.0
 10
3.534696
 20
5.107873
 30
0.0
 10
3.552793
 20
5.103752
 30
0.0
 10
3.575361
 20
5.098916
 30
0.0
  0
SPLINE
  5
2a2
100
AcDbEntity
  8
Capa_1
 62
7
100
AcDbSpline
 70
8
 71
3
 72
8
 73
4
 74
0
 40
0
 40
0
 40
0
 40
0
 40
1
 40
1
 40
1
 40
1
 10
3.575361
 20
5.098916
 30
0.0
 10
3.597929
 20
5.094149
 30
0.0
 10
3.616877
 20
5.089688
 30
0.0
 10
3.632207
 20
5.085533
 30
0.0
  0
SPLINE
  5
2a3
100
AcDbEntity
  8
Capa_1
 62
7
100
AcDbSpline
 70
8
 71
3
 72
8
 73
4
 74
0
 40
0
 40
0
 40
0
 40
0
 40
1
 40
1
 40
1
 40
1
 10
3.632207
 20
5.085533
 30
0.0
 10
3.662439
 20
5.076884
 30
0.0
 10
3.685326
 20
5.064012
 30
0.0
 10
3.700868
 20
5.046917
 30
0.0
  0
SPLINE
  5
2a4
100
AcDbEntity
  8
Capa_1
 62
7
100
AcDbSpline
 70
8
 71
3
 72
8
 73
4
 74
0
 40
0
 40
0
 40
0
 40
0
 40
1
 40
1
 40
1
 40
1
 10
3.700868
 20
5.046917
 30
0.0
 10
3.716623
 20
5.029822
 30
0.0
 10
3.724501
 20
5.008266
 30
0.0
 10
3.724501
 20
4.982249
 30
0.0
  0
SPLINE
  5
2a5
100
AcDbEntity
  8
Capa_1
 62
7
100
AcDbSpline
 70
8
 71
3
 72
8
 73
4
 74
0
 40
0
 40
0
 40
0
 40
0
 40
1
 40
1
 40
1
 40
1
 10
3.724501
 20
4.982249
 30
0.0
 10
3.724501
 20
4.960455
 30
0.0
 10
3.719391
 20
4.938797
 30
0.0
 10
3.709172
 20
4.917275
 30
0.0
  0
SPLINE
  5
2a6
100
AcDbEntity
  8
Capa_1
 62
7
100
AcDbSpline
 70
8
 71
3
 72
8
 73
4
 74
0
 40
0
 40
0
 40
0
 40
0
 40
1
 40
1
 40
1
 40
1
 10
3.709172
 20
4.917275
 30
0.0
 10
3.698953
 20
4.895753
 30
0.0
 10
3.684688
 20
4.877296
 30
0.0
 10
3.666379
 20
4.861904
 30
0.0
  0
SPLINE
  5
2a7
100
AcDbEntity
  8
Capa_1
 62
7
100
AcDbSpline
 70
8
 71
3
 72
8
 73
4
 74
0
 40
0
 40
0
 40
0
 40
0
 40
1
 40
1
 40
1
 40
1
 10
3.666379
 20
4.861904
 30
0.0
 10
3.646791
 20
4.845490
 30
0.0
 10
3.623798
 20
4.832618
 30
0.0
 10
3.597398
 20
4.823287
 30
0.0
  0
SPLINE
  5
2a8
100
AcDbEntity
  8
Capa_1
 62
7
100
AcDbSpline
 70
8
 71
3
 72
8
 73
4
 74
0
 40
0
 40
0
 40
0
 40
0
 40
1
 40
1
 40
1
 40
1
 10
3.597398
 20
4.823287
 30
0.0
 10
3.571211
 20
4.813956
 30
0.0
 10
3.540234
 20
4.809291
 30
0.0
 10
3.504466
 20
4.809291
 30
0.0
  0
LWPOLYLINE
  5
2a9
100
AcDbEntity
  8
Capa_1
 62
7
100
AcDbPolyline
 90
3
 70
0
 10
3.763464
 20
5.287301
 30
0.0
 10
3.749092
 20
5.216299
 30
0.0
 10
3.744619
 20
5.216299
 30
0.0
  0
SPLINE
  5
2aa
100
AcDbEntity
  8
Capa_1
 62
7
100
AcDbSpline
 70
8
 71
3
 72
8
 73
4
 74
0
 40
0
 40
0
 40
0
 40
0
 40
1
 40
1
 40
1
 40
1
 10
4.000427
 20
4.809097
 30
0.0
 10
3.940174
 20
4.809097
 30
0.0
 10
3.892910
 20
4.825306
 30
0.0
 10
3.858633
 20
4.857725
 30
0.0
  0
SPLINE
  5
2ab
100
AcDbEntity
  8
Capa_1
 62
7
100
AcDbSpline
 70
8
 71
3
 72
8
 73
4
 74
0
 40
0
 40
0
 40
0
 40
0
 40
1
 40
1
 40
1
 40
1
 10
3.858633
 20
4.857725
 30
0.0
 10
3.824355
 20
4.890417
 30
0.0
 10
3.807216
 20
4.936638
 30
0.0
 10
3.807216
 20
4.996388
 30
0.0
  0
SPLINE
  5
2ac
100
AcDbEntity
  8
Capa_1
 62
7
100
AcDbSpline
 70
8
 71
3
 72
8
 73
4
 74
0
 40
0
 40
0
 40
0
 40
0
 40
1
 40
1
 40
1
 40
1
 10
3.807216
 20
4.996388
 30
0.0
 10
3.807216
 20
5.042156
 30
0.0
 10
3.813817
 20
5.084818
 30
0.0
 10
3.827017
 20
5.124375
 30
0.0
  0
SPLINE
  5
2ad
100
AcDbEntity
  8
Capa_1
 62
7
100
AcDbSpline
 70
8
 71
3
 72
8
 73
4
 74
0
 40
0
 40
0
 40
0
 40
0
 40
1
 40
1
 40
1
 40
1
 10
3.827017
 20
5.124375
 30
0.0
 10
3.840217
 20
5.163945
 30
0.0
 10
3.859165
 20
5.198608
 30
0.0
 10
3.883862
 20
5.228364
 30
0.0
  0
SPLINE
  5
2ae
100
AcDbEntity
  8
Capa_1
 62
7
100
AcDbSpline
 70
8
 71
3
 72
8
 73
4
 74
0
 40
0
 40
0
 40
0
 40
0
 40
1
 40
1
 40
1
 40
1
 10
3.883862
 20
5.228364
 30
0.0
 10
3.908346
 20
5.257718
 30
0.0
 10
3.938472
 20
5.280841
 30
0.0
 10
3.974240
 20
5.297731
 30
0.0
  0
SPLINE
  5
2af
100
AcDbEntity
  8
Capa_1
 62
7
100
AcDbSpline
 70
8
 71
3
 72
8
 73
4
 74
0
 40
0
 40
0
 40
0
 40
0
 40
1
 40
1
 40
1
 40
1
 10
3.974240
 20
5.297731
 30
0.0
 10
4.010008
 20
5.314826
 30
0.0
 10
4.049927
 20
5.323374
 30
0.0
 10
4.093998
 20
5.323374
 30
0.0
  0
SPLINE
  5
2b0
100
AcDbEntity
  8
Capa_1
 62
7
100
AcDbSpline
 70
8
 71
3
 72
8
 73
4
 74
0
 40
0
 40
0
 40
0
 40
0
 40
1
 40
1
 40
1
 40
1
 10
4.093998
 20
5.323374
 30
0.0
 10
4.121463
 20
5.323374
 30
0.0
 10
4.147437
 20
5.319832
 30
0.0
 10
4.171921
 20
5.312749
 30
0.0
  0
SPLINE
  5
2b1
100
AcDbEntity
  8
Capa_1
 62
7
100
AcDbSpline
 70
8
 71
3
 72
8
 73
4
 74
0
 40
0
 40
0
 40
0
 40
0
 40
1
 40
1
 40
1
 40
1
 10
4.171921
 20
5.312749
 30
0.0
 10
4.196404
 20
5.305870
 30
0.0
 10
4.221527
 20
5.294871
 30
0.0
 10
4.247288
 20
5.279751
 30
0.0
  0
LWPOLYLINE
  5
2b2
100
AcDbEntity
  8
Capa_1
 62
7
100
AcDbPolyline
 90
2
 70
0
 10
3.504466
 20
4.809291
 30
0.0
 10
3.504467
 20
4.809097
 30
0.0
  0
SPLINE
  5
2b3
100
AcDbEntity
  8
Capa_1
 62
7
100
AcDbSpline
 70
8
 71
3
 72
8
 73
4
 74
0
 40
0
 40
0
 40
0
 40
0
 40
1
 40
1
 40
1
 40
1
 10
4.228130
 20
5.205072
 30
0.0
 10
4.221104
 20
5.212427
 30
0.0
 10
4.213972
 20
5.219204
 30
0.0
 10
4.206733
 20
5.225402
 30
0.0
  0
SPLINE
  5
2b4
100
AcDbEntity
  8
Capa_1
 62
7
100
AcDbSpline
 70
8
 71
3
 72
8
 73
4
 74
0
 40
0
 40
0
 40
0
 40
0
 40
1
 40
1
 40
1
 40
1
 10
4.206733
 20
5.225402
 30
0.0
 10
4.199708
 20
5.231531
 30
0.0
 10
4.189063
 20
5.238546
 30
0.0
 10
4.174797
 20
5.246447
 30
0.0
  0
SPLINE
  5
2b5
100
AcDbEntity
  8
Capa_1
 62
7
100
AcDbSpline
 70
8
 71
3
 72
8
 73
4
 74
0
 40
0
 40
0
 40
0
 40
0
 40
1
 40
1
 40
1
 40
1
 10
4.174797
 20
5.246447
 30
0.0
 10
4.163088
 20
5.252576
 30
0.0
 10
4.149142
 20
5.257923
 30
0.0
 10
4.132961
 20
5.262486
 30
0.0
  0
SPLINE
  5
2b6
100
AcDbEntity
  8
Capa_1
 62
7
100
AcDbSpline
 70
8
 71
3
 72
8
 73
4
 74
0
 40
0
 40
0
 40
0
 40
0
 40
1
 40
1
 40
1
 40
1
 10
4.132961
 20
5.262486
 30
0.0
 10
4.116781
 20
5.267253
 30
0.0
 10
4.098897
 20
5.269637
 30
0.0
 10
4.079310
 20
5.269637
 30
0.0
  0
SPLINE
  5
2b7
100
AcDbEntity
  8
Capa_1
 62
7
100
AcDbSpline
 70
8
 71
3
 72
8
 73
4
 74
0
 40
0
 40
0
 40
0
 40
0
 40
1
 40
1
 40
1
 40
1
 10
4.079310
 20
5.269637
 30
0.0
 10
4.049503
 20
5.269637
 30
0.0
 10
4.022145
 20
5.263099
 30
0.0
 10
3.997235
 20
5.250022
 30
0.0
  0
SPLINE
  5
2b8
100
AcDbEntity
  8
Capa_1
 62
7
100
AcDbSpline
 70
8
 71
3
 72
8
 73
4
 74
0
 40
0
 40
0
 40
0
 40
0
 40
1
 40
1
 40
1
 40
1
 10
3.997235
 20
5.250022
 30
0.0
 10
3.972325
 20
5.237150
 30
0.0
 10
3.950715
 20
5.219034
 30
0.0
 10
3.932406
 20
5.195673
 30
0.0
  0
SPLINE
  5
2b9
100
AcDbEntity
  8
Capa_1
 62
7
100
AcDbSpline
 70
8
 71
3
 72
8
 73
4
 74
0
 40
0
 40
0
 40
0
 40
0
 40
1
 40
1
 40
1
 40
1
 10
3.932406
 20
5.195673
 30
0.0
 10
3.914522
 20
5.172993
 30
0.0
 10
3.900470
 20
5.145444
 30
0.0
 10
3.890250
 20
5.113025
 30
0.0
  0
SPLINE
  5
2ba
100
AcDbEntity
  8
Capa_1
 62
7
100
AcDbSpline
 70
8
 71
3
 72
8
 73
4
 74
0
 40
0
 40
0
 40
0
 40
0
 40
1
 40
1
 40
1
 40
1
 10
3.890250
 20
5.113025
 30
0.0
 10
3.880031
 20
5.080606
 30
0.0
 10
3.874922
 20
5.046055
 30
0.0
 10
3.874922
 20
5.009373
 30
0.0
  0
SPLINE
  5
2bb
100
AcDbEntity
  8
Capa_1
 62
7
100
AcDbSpline
 70
8
 71
3
 72
8
 73
4
 74
0
 40
0
 40
0
 40
0
 40
0
 40
1
 40
1
 40
1
 40
1
 10
3.874922
 20
5.009373
 30
0.0
 10
3.874922
 20
4.963605
 30
0.0
 10
3.886312
 20
4.927940
 30
0.0
 10
3.909092
 20
4.902380
 30
0.0
  0
SPLINE
  5
2bc
100
AcDbEntity
  8
Capa_1
 62
7
100
AcDbSpline
 70
8
 71
3
 72
8
 73
4
 74
0
 40
0
 40
0
 40
0
 40
0
 40
1
 40
1
 40
1
 40
1
 10
3.909092
 20
4.902380
 30
0.0
 10
3.931873
 20
4.877044
 30
0.0
 10
3.964766
 20
4.864376
 30
0.0
 10
4.007773
 20
4.864376
 30
0.0
  0
SPLINE
  5
2bd
100
AcDbEntity
  8
Capa_1
 62
7
100
AcDbSpline
 70
8
 71
3
 72
8
 73
4
 74
0
 40
0
 40
0
 40
0
 40
0
 40
1
 40
1
 40
1
 40
1
 10
4.007773
 20
4.864376
 30
0.0
 10
4.027999
 20
4.864376
 30
0.0
 10
4.047160
 20
4.866760
 30
0.0
 10
4.065257
 20
4.871527
 30
0.0
  0
SPLINE
  5
2be
100
AcDbEntity
  8
Capa_1
 62
7
100
AcDbSpline
 70
8
 71
3
 72
8
 73
4
 74
0
 40
0
 40
0
 40
0
 40
0
 40
1
 40
1
 40
1
 40
1
 10
4.065257
 20
4.871527
 30
0.0
 10
4.083567
 20
4.876295
 30
0.0
 10
4.100174
 20
4.882390
 30
0.0
 10
4.115077
 20
4.889814
 30
0.0
  0
SPLINE
  5
2bf
100
AcDbEntity
  8
Capa_1
 62
7
100
AcDbSpline
 70
8
 71
3
 72
8
 73
4
 74
0
 40
0
 40
0
 40
0
 40
0
 40
1
 40
1
 40
1
 40
1
 10
4.115077
 20
4.889814
 30
0.0
 10
4.128916
 20
4.896693
 30
0.0
 10
4.141371
 20
4.903912
 30
0.0
 10
4.152442
 20
4.911472
 30
0.0
  0
SPLINE
  5
2c0
100
AcDbEntity
  8
Capa_1
 62
7
100
AcDbSpline
 70
8
 71
3
 72
8
 73
4
 74
0
 40
0
 40
0
 40
0
 40
0
 40
1
 40
1
 40
1
 40
1
 10
4.152442
 20
4.911472
 30
0.0
 10
4.163512
 20
4.919032
 30
0.0
 10
4.172987
 20
4.926047
 30
0.0
 10
4.180864
 20
4.932517
 30
0.0
  0
LWPOLYLINE
  5
2c1
100
AcDbEntity
  8
Capa_1
 62
7
100
AcDbPolyline
 90
3
 70
0
 10
4.247288
 20
5.279751
 30
0.0
 10
4.232917
 20
5.205072
 30
0.0
 10
4.228130
 20
5.205072
 30
0.0
  0
SPLINE
  5
2c2
100
AcDbEntity
  8
Capa_1
 62
7
100
AcDbSpline
 70
8
 71
3
 72
8
 73
4
 74
0
 40
0
 40
0
 40
0
 40
0
 40
1
 40
1
 40
1
 40
1
 10
4.170328
 20
4.855897
 30
0.0
 10
4.147973
 20
4.844114
 30
0.0
 10
4.122212
 20
4.833455
 30
0.0
 10
4.093044
 20
4.823920
 30
0.0
  0
SPLINE
  5
2c3
100
AcDbEntity
  8
Capa_1
 62
7
100
AcDbSpline
 70
8
 71
3
 72
8
 73
4
 74
0
 40
0
 40
0
 40
0
 40
0
 40
1
 40
1
 40
1
 40
1
 10
4.093044
 20
4.823920
 30
0.0
 10
4.064089
 20
4.814590
 30
0.0
 10
4.033218
 20
4.809924
 30
0.0
 10
4.000431
 20
4.809924
 30
0.0
  0
LWPOLYLINE
  5
2c4
100
AcDbEntity
  8
Capa_1
 62
7
100
AcDbPolyline
 90
3
 70
0
 10
4.180864
 20
4.932517
 30
0.0
 10
4.185338
 20
4.932517
 30
0.0
 10
4.170328
 20
4.855897
 30
0.0
  0
LWPOLYLINE
  5
2c5
100
AcDbEntity
  8
Capa_1
 62
7
100
AcDbPolyline
 90
2
 70
0
 10
4.000431
 20
4.809924
 30
0.0
 10
4.000427
 20
4.809097
 30
0.0
  0
SPLINE
  5
2c6
100
AcDbEntity
  8
Capa_1
 62
7
100
AcDbSpline
 70
8
 71
3
 72
8
 73
4
 74
0
 40
0
 40
0
 40
0
 40
0
 40
1
 40
1
 40
1
 40
1
 10
3.499357
 20
3.101911
 30
0.0
 10
3.433783
 20
3.101911
 30
0.0
 10
3.382580
 20
3.118801
 30
0.0
 10
3.345747
 20
3.152583
 30
0.0
  0
SPLINE
  5
2c7
100
AcDbEntity
  8
Capa_1
 62
7
100
AcDbSpline
 70
8
 71
3
 72
8
 73
4
 74
0
 40
0
 40
0
 40
0
 40
0
 40
1
 40
1
 40
1
 40
1
 10
3.345747
 20
3.152583
 30
0.0
 10
3.308915
 20
3.186364
 30
0.0
 10
3.290499
 20
3.234359
 30
0.0
 10
3.290499
 20
3.296568
 30
0.0
  0
SPLINE
  5
2c8
100
AcDbEntity
  8
Capa_1
 62
7
100
AcDbSpline
 70
8
 71
3
 72
8
 73
4
 74
0
 40
0
 40
0
 40
0
 40
0
 40
1
 40
1
 40
1
 40
1
 10
3.290499
 20
3.296568
 30
0.0
 10
3.290499
 20
3.342336
 30
0.0
 10
3.297205
 20
3.384664
 30
0.0
 10
3.310618
 20
3.423553
 30
0.0
  0
SPLINE
  5
2c9
100
AcDbEntity
  8
Capa_1
 62
7
100
AcDbSpline
 70
8
 71
3
 72
8
 73
4
 74
0
 40
0
 40
0
 40
0
 40
0
 40
1
 40
1
 40
1
 40
1
 10
3.310618
 20
3.423553
 30
0.0
 10
3.324244
 20
3.462443
 30
0.0
 10
3.343937
 20
3.496326
 30
0.0
 10
3.369699
 20
3.525203
 30
0.0
  0
SPLINE
  5
2ca
100
AcDbEntity
  8
Capa_1
 62
7
100
AcDbSpline
 70
8
 71
3
 72
8
 73
4
 74
0
 40
0
 40
0
 40
0
 40
0
 40
1
 40
1
 40
1
 40
1
 10
3.369699
 20
3.525203
 30
0.0
 10
3.395247
 20
3.553876
 30
0.0
 10
3.426544
 20
3.576318
 30
0.0
 10
3.463589
 20
3.592527
 30
0.0
  0
SPLINE
  5
2cb
100
AcDbEntity
  8
Capa_1
 62
7
100
AcDbSpline
 70
8
 71
3
 72
8
 73
4
 74
0
 40
0
 40
0
 40
0
 40
0
 40
1
 40
1
 40
1
 40
1
 10
3.463589
 20
3.592527
 30
0.0
 10
3.500847
 20
3.608737
 30
0.0
 10
3.542683
 20
3.616841
 30
0.0
 10
3.589096
 20
3.616841
 30
0.0
  0
SPLINE
  5
2cc
100
AcDbEntity
  8
Capa_1
 62
7
100
AcDbSpline
 70
8
 71
3
 72
8
 73
4
 74
0
 40
0
 40
0
 40
0
 40
0
 40
1
 40
1
 40
1
 40
1
 10
3.589096
 20
3.616841
 30
0.0
 10
3.616987
 20
3.616841
 30
0.0
 10
3.644771
 20
3.613300
 30
0.0
 10
3.672448
 20
3.606217
 30
0.0
  0
SPLINE
  5
2cd
100
AcDbEntity
  8
Capa_1
 62
7
100
AcDbSpline
 70
8
 71
3
 72
8
 73
4
 74
0
 40
0
 40
0
 40
0
 40
0
 40
1
 40
1
 40
1
 40
1
 10
3.672448
 20
3.606217
 30
0.0
 10
3.700338
 20
3.599338
 30
0.0
 10
3.728761
 20
3.587998
 30
0.0
 10
3.757716
 20
3.572197
 30
0.0
  0
LWPOLYLINE
  5
2ce
100
AcDbEntity
  8
Capa_1
 62
7
100
AcDbPolyline
 90
12
 70
1
 10
4.632432
 20
4.818097
 30
0.0
 10
4.557702
 20
4.818097
 30
0.0
 10
4.411118
 20
5.039745
 30
0.0
 10
4.345970
 20
4.982126
 30
0.0
 10
4.309882
 20
4.818138
 30
0.0
 10
4.246012
 20
4.818138
 30
0.0
 10
4.355870
 20
5.314424
 30
0.0
 10
4.419741
 20
5.314424
 30
0.0
 10
4.362257
 20
5.056785
 30
0.0
 10
4.641693
 20
5.314424
 30
0.0
 10
4.722170
 20
5.314424
 30
0.0
 10
4.461257
 20
5.076778
 30
0.0
  0
SPLINE
  5
2cf
100
AcDbEntity
  8
Capa_1
 62
7
100
AcDbSpline
 70
8
 71
3
 72
8
 73
4
 74
0
 40
0
 40
0
 40
0
 40
0
 40
1
 40
1
 40
1
 40
1
 10
3.737598
 20
3.496905
 30
0.0
 10
3.713966
 20
3.519993
 30
0.0
 10
3.688205
 20
3.536645
 30
0.0
 10
3.660314
 20
3.546861
 30
0.0
  0
SPLINE
  5
2d0
100
AcDbEntity
  8
Capa_1
 62
7
100
AcDbSpline
 70
8
 71
3
 72
8
 73
4
 74
0
 40
0
 40
0
 40
0
 40
0
 40
1
 40
1
 40
1
 40
1
 10
3.660314
 20
3.546861
 30
0.0
 10
3.632637
 20
3.557282
 30
0.0
 10
3.602830
 20
3.562492
 30
0.0
 10
3.570894
 20
3.562492
 30
0.0
  0
SPLINE
  5
2d1
100
AcDbEntity
  8
Capa_1
 62
7
100
AcDbSpline
 70
8
 71
3
 72
8
 73
4
 74
0
 40
0
 40
0
 40
0
 40
0
 40
1
 40
1
 40
1
 40
1
 10
3.570894
 20
3.562492
 30
0.0
 10
3.535765
 20
3.562492
 30
0.0
 10
3.505001
 20
3.555273
 30
0.0
 10
3.478600
 20
3.540834
 30
0.0
  0
SPLINE
  5
2d2
100
AcDbEntity
  8
Capa_1
 62
7
100
AcDbSpline
 70
8
 71
3
 72
8
 73
4
 74
0
 40
0
 40
0
 40
0
 40
0
 40
1
 40
1
 40
1
 40
1
 10
3.478600
 20
3.540834
 30
0.0
 10
3.452200
 20
3.526395
 30
0.0
 10
3.429951
 20
3.507189
 30
0.0
 10
3.411854
 20
3.483215
 30
0.0
  0
SPLINE
  5
2d3
100
AcDbEntity
  8
Capa_1
 62
7
100
AcDbSpline
 70
8
 71
3
 72
8
 73
4
 74
0
 40
0
 40
0
 40
0
 40
0
 40
1
 40
1
 40
1
 40
1
 10
3.411854
 20
3.483215
 30
0.0
 10
3.394184
 20
3.459650
 30
0.0
 10
3.380771
 20
3.432203
 30
0.0
 10
3.371616
 20
3.400874
 30
0.0
  0
SPLINE
  5
2d4
100
AcDbEntity
  8
Capa_1
 62
7
100
AcDbSpline
 70
8
 71
3
 72
8
 73
4
 74
0
 40
0
 40
0
 40
0
 40
0
 40
1
 40
1
 40
1
 40
1
 10
3.371616
 20
3.400874
 30
0.0
 10
3.362674
 20
3.369545
 30
0.0
 10
3.358203
 20
3.337977
 30
0.0
 10
3.358203
 20
3.306171
 30
0.0
  0
SPLINE
  5
2d5
100
AcDbEntity
  8
Capa_1
 62
7
100
AcDbSpline
 70
8
 71
3
 72
8
 73
4
 74
0
 40
0
 40
0
 40
0
 40
0
 40
1
 40
1
 40
1
 40
1
 10
3.358203
 20
3.306171
 30
0.0
 10
3.358203
 20
3.258428
 30
0.0
 10
3.370658
 20
3.221544
 30
0.0
 10
3.395567
 20
3.195521
 30
0.0
  0
SPLINE
  5
2d6
100
AcDbEntity
  8
Capa_1
 62
7
100
AcDbSpline
 70
8
 71
3
 72
8
 73
4
 74
0
 40
0
 40
0
 40
0
 40
0
 40
1
 40
1
 40
1
 40
1
 10
3.395567
 20
3.195521
 30
0.0
 10
3.420690
 20
3.169504
 30
0.0
 10
3.457735
 20
3.156495
 30
0.0
 10
3.506703
 20
3.156495
 30
0.0
  0
SPLINE
  5
2d7
100
AcDbEntity
  8
Capa_1
 62
7
100
AcDbSpline
 70
8
 71
3
 72
8
 73
4
 74
0
 40
0
 40
0
 40
0
 40
0
 40
1
 40
1
 40
1
 40
1
 10
3.506703
 20
3.156495
 30
0.0
 10
3.528207
 20
3.156495
 30
0.0
 10
3.548326
 20
3.158539
 30
0.0
 10
3.567061
 20
3.162625
 30
0.0
  0
SPLINE
  5
2d8
100
AcDbEntity
  8
Capa_1
 62
7
100
AcDbSpline
 70
8
 71
3
 72
8
 73
4
 74
0
 40
0
 40
0
 40
0
 40
0
 40
1
 40
1
 40
1
 40
1
 10
3.567061
 20
3.162625
 30
0.0
 10
3.586010
 20
3.166711
 30
0.0
 10
3.603787
 20
3.172058
 30
0.0
 10
3.620394
 20
3.178664
 30
0.0
  0
LWPOLYLINE
  5
2d9
100
AcDbEntity
  8
Capa_1
 62
7
100
AcDbPolyline
 90
3
 70
0
 10
3.757716
 20
3.572197
 30
0.0
 10
3.743344
 20
3.496905
 30
0.0
 10
3.737598
 20
3.496905
 30
0.0
  0
SPLINE
  5
2da
100
AcDbEntity
  8
Capa_1
 62
7
100
AcDbSpline
 70
8
 71
3
 72
8
 73
4
 74
0
 40
0
 40
0
 40
0
 40
0
 40
1
 40
1
 40
1
 40
1
 10
3.675642
 20
3.148353
 30
0.0
 10
3.661590
 20
3.142224
 30
0.0
 10
3.648922
 20
3.136775
 30
0.0
 10
3.637638
 20
3.132007
 30
0.0
  0
SPLINE
  5
2db
100
AcDbEntity
  8
Capa_1
 62
7
100
AcDbSpline
 70
8
 71
3
 72
8
 73
4
 74
0
 40
0
 40
0
 40
0
 40
0
 40
1
 40
1
 40
1
 40
1
 10
3.637638
 20
3.132007
 30
0.0
 10
3.626354
 20
3.127240
 30
0.0
 10
3.612196
 20
3.122336
 30
0.0
 10
3.595163
 20
3.117296
 30
0.0
  0
SPLINE
  5
2dc
100
AcDbEntity
  8
Capa_1
 62
7
100
AcDbSpline
 70
8
 71
3
 72
8
 73
4
 74
0
 40
0
 40
0
 40
0
 40
0
 40
1
 40
1
 40
1
 40
1
 10
3.595163
 20
3.117296
 30
0.0
 10
3.580473
 20
3.112529
 30
0.0
 10
3.565250
 20
3.108851
 30
0.0
 10
3.549495
 20
3.106263
 30
0.0
  0
SPLINE
  5
2dd
100
AcDbEntity
  8
Capa_1
 62
7
100
AcDbSpline
 70
8
 71
3
 72
8
 73
4
 74
0
 40
0
 40
0
 40
0
 40
0
 40
1
 40
1
 40
1
 40
1
 10
3.549495
 20
3.106263
 30
0.0
 10
3.533953
 20
3.103539
 30
0.0
 10
3.517240
 20
3.102177
 30
0.0
 10
3.499357
 20
3.102177
 30
0.0
  0
LWPOLYLINE
  5
2de
100
AcDbEntity
  8
Capa_1
 62
7
100
AcDbPolyline
 90
6
 70
0
 10
3.620394
 20
3.178664
 30
0.0
 10
3.647219
 20
3.305650
 30
0.0
 10
3.520435
 20
3.305650
 30
0.0
 10
3.532571
 20
3.361327
 30
0.0
 10
3.722906
 20
3.361327
 30
0.0
 10
3.675642
 20
3.148353
 30
0.0
  0
LWPOLYLINE
  5
2df
100
AcDbEntity
  8
Capa_1
 62
7
100
AcDbPolyline
 90
2
 70
0
 10
3.499357
 20
3.102177
 30
0.0
 10
3.499357
 20
3.101911
 30
0.0
  0
SPLINE
  5
2e0
100
AcDbEntity
  8
Capa_1
 62
7
100
AcDbSpline
 70
8
 71
3
 72
8
 73
4
 74
0
 40
0
 40
0
 40
0
 40
0
 40
1
 40
1
 40
1
 40
1
 10
4.729516
 20
3.417546
 30
0.0
 10
4.729516
 20
3.363333
 30
0.0
 10
4.716316
 20
3.312004
 30
0.0
 10
4.689916
 20
3.263560
 30
0.0
  0
SPLINE
  5
2e1
100
AcDbEntity
  8
Capa_1
 62
7
100
AcDbSpline
 70
8
 71
3
 72
8
 73
4
 74
0
 40
0
 40
0
 40
0
 40
0
 40
1
 40
1
 40
1
 40
1
 10
4.689916
 20
3.263560
 30
0.0
 10
4.663515
 20
3.215136
 30
0.0
 10
4.627428
 20
3.177694
 30
0.0
 10
4.581654
 20
3.151234
 30
0.0
  0
SPLINE
  5
2e2
100
AcDbEntity
  8
Capa_1
 62
7
100
AcDbSpline
 70
8
 71
3
 72
8
 73
4
 74
0
 40
0
 40
0
 40
0
 40
0
 40
1
 40
1
 40
1
 40
1
 10
4.581654
 20
3.151234
 30
0.0
 10
4.553550
 20
3.135433
 30
0.0
 10
4.524808
 20
3.124877
 30
0.0
 10
4.495428
 20
3.119564
 30
0.0
  0
SPLINE
  5
2e3
100
AcDbEntity
  8
Capa_1
 62
7
100
AcDbSpline
 70
8
 71
3
 72
8
 73
4
 74
0
 40
0
 40
0
 40
0
 40
0
 40
1
 40
1
 40
1
 40
1
 10
4.495428
 20
3.119564
 30
0.0
 10
4.466047
 20
3.114116
 30
0.0
 10
4.432728
 20
3.111391
 30
0.0
 10
4.395470
 20
3.111391
 30
0.0
  0
LWPOLYLINE
  5
2e4
100
AcDbEntity
  8
Capa_1
 62
7
100
AcDbPolyline
 90
10
 70
1
 10
4.140943
 20
3.111575
 30
0.0
 10
4.065576
 20
3.111575
 30
0.0
 10
3.935598
 20
3.555535
 30
0.0
 10
3.837236
 20
3.111575
 30
0.0
 10
3.777516
 20
3.111575
 30
0.0
 10
3.887375
 20
3.607862
 30
0.0
 10
3.982543
 20
3.607862
 30
0.0
 10
4.101343
 20
3.202570
 30
0.0
 10
4.191082
 20
3.607862
 30
0.0
 10
4.250802
 20
3.607862
 30
0.0
  0
SPLINE
  5
2e5
100
AcDbEntity
  8
Capa_1
 62
7
100
AcDbSpline
 70
8
 71
3
 72
8
 73
4
 74
0
 40
0
 40
0
 40
0
 40
0
 40
1
 40
1
 40
1
 40
1
 10
4.487444
 20
3.607678
 30
0.0
 10
4.521935
 20
3.607678
 30
0.0
 10
4.553338
 20
3.604953
 30
0.0
 10
4.581655
 20
3.599505
 30
0.0
  0
SPLINE
  5
2e6
100
AcDbEntity
  8
Capa_1
 62
7
100
AcDbSpline
 70
8
 71
3
 72
8
 73
4
 74
0
 40
0
 40
0
 40
0
 40
0
 40
1
 40
1
 40
1
 40
1
 10
4.581655
 20
3.599505
 30
0.0
 10
4.610184
 20
3.594737
 30
0.0
 10
4.636264
 20
3.584079
 30
0.0
 10
4.659897
 20
3.567528
 30
0.0
  0
SPLINE
  5
2e7
100
AcDbEntity
  8
Capa_1
 62
7
100
AcDbSpline
 70
8
 71
3
 72
8
 73
4
 74
0
 40
0
 40
0
 40
0
 40
0
 40
1
 40
1
 40
1
 40
1
 10
4.659897
 20
3.567528
 30
0.0
 10
4.682465
 20
3.551728
 30
0.0
 10
4.699710
 20
3.531057
 30
0.0
 10
4.711633
 20
3.505517
 30
0.0
  0
SPLINE
  5
2e8
100
AcDbEntity
  8
Capa_1
 62
7
100
AcDbSpline
 70
8
 71
3
 72
8
 73
4
 74
0
 40
0
 40
0
 40
0
 40
0
 40
1
 40
1
 40
1
 40
1
 10
4.711633
 20
3.505517
 30
0.0
 10
4.723556
 20
3.480181
 30
0.0
 10
4.729517
 20
3.450623
 30
0.0
 10
4.729517
 20
3.416842
 30
0.0
  0
LWPOLYLINE
  5
2e9
100
AcDbEntity
  8
Capa_1
 62
7
100
AcDbPolyline
 90
4
 70
0
 10
4.395470
 20
3.111391
 30
0.0
 10
4.267089
 20
3.111391
 30
0.0
 10
4.376947
 20
3.607678
 30
0.0
 10
4.487444
 20
3.607678
 30
0.0
  0
SPLINE
  5
2ea
100
AcDbEntity
  8
Capa_1
 62
7
100
AcDbSpline
 70
8
 71
3
 72
8
 73
4
 74
0
 40
0
 40
0
 40
0
 40
0
 40
1
 40
1
 40
1
 40
1
 10
4.662770
 20
3.411417
 30
0.0
 10
4.662770
 20
3.436753
 30
0.0
 10
4.658406
 20
3.458513
 30
0.0
 10
4.649677
 20
3.476697
 30
0.0
  0
SPLINE
  5
2eb
100
AcDbEntity
  8
Capa_1
 62
7
100
AcDbSpline
 70
8
 71
3
 72
8
 73
4
 74
0
 40
0
 40
0
 40
0
 40
0
 40
1
 40
1
 40
1
 40
1
 10
4.649677
 20
3.476697
 30
0.0
 10
4.641161
 20
3.495154
 30
0.0
 10
4.628174
 20
3.510479
 30
0.0
 10
4.610716
 20
3.522670
 30
0.0
  0
SPLINE
  5
2ec
100
AcDbEntity
  8
Capa_1
 62
7
100
AcDbSpline
 70
8
 71
3
 72
8
 73
4
 74
0
 40
0
 40
0
 40
0
 40
0
 40
1
 40
1
 40
1
 40
1
 10
4.610716
 20
3.522670
 30
0.0
 10
4.593470
 20
3.534657
 30
0.0
 10
4.575054
 20
3.542659
 30
0.0
 10
4.555467
 20
3.546677
 30
0.0
  0
SPLINE
  5
2ed
100
AcDbEntity
  8
Capa_1
 62
7
100
AcDbSpline
 70
8
 71
3
 72
8
 73
4
 74
0
 40
0
 40
0
 40
0
 40
0
 40
1
 40
1
 40
1
 40
1
 10
4.555467
 20
3.546677
 30
0.0
 10
4.535880
 20
3.550764
 30
0.0
 10
4.511077
 20
3.552807
 30
0.0
 10
4.481057
 20
3.552807
 30
0.0
  0
LWPOLYLINE
  5
2ee
100
AcDbEntity
  8
Capa_1
 62
7
100
AcDbPolyline
 90
2
 70
0
 10
4.729517
 20
3.416842
 30
0.0
 10
4.729516
 20
3.417546
 30
0.0
  0
SPLINE
  5
2ef
100
AcDbEntity
  8
Capa_1
 62
7
100
AcDbSpline
 70
8
 71
3
 72
8
 73
4
 74
0
 40
0
 40
0
 40
0
 40
0
 40
1
 40
1
 40
1
 40
1
 10
4.408244
 20
3.165179
 30
0.0
 10
4.438690
 20
3.165179
 30
0.0
 10
4.465835
 20
3.167563
 30
0.0
 10
4.489680
 20
3.172330
 30
0.0
  0
SPLINE
  5
2f0
100
AcDbEntity
  8
Capa_1
 62
7
100
AcDbSpline
 70
8
 71
3
 72
8
 73
4
 74
0
 40
0
 40
0
 40
0
 40
0
 40
1
 40
1
 40
1
 40
1
 10
4.489680
 20
3.172330
 30
0.0
 10
4.513738
 20
3.177779
 30
0.0
 10
4.536412
 20
3.186769
 30
0.0
 10
4.557702
 20
3.199301
 30
0.0
  0
SPLINE
  5
2f1
100
AcDbEntity
  8
Capa_1
 62
7
100
AcDbSpline
 70
8
 71
3
 72
8
 73
4
 74
0
 40
0
 40
0
 40
0
 40
0
 40
1
 40
1
 40
1
 40
1
 10
4.557702
 20
3.199301
 30
0.0
 10
4.591980
 20
3.219733
 30
0.0
 10
4.618060
 20
3.249189
 30
0.0
 10
4.635945
 20
3.287670
 30
0.0
  0
SPLINE
  5
2f2
100
AcDbEntity
  8
Capa_1
 62
7
100
AcDbSpline
 70
8
 71
3
 72
8
 73
4
 74
0
 40
0
 40
0
 40
0
 40
0
 40
1
 40
1
 40
1
 40
1
 10
4.635945
 20
3.287670
 30
0.0
 10
4.653828
 20
3.326354
 30
0.0
 10
4.662770
 20
3.367352
 30
0.0
 10
4.662770
 20
3.410661
 30
0.0
  0
LWPOLYLINE
  5
2f3
100
AcDbEntity
  8
Capa_1
 62
7
100
AcDbPolyline
 90
4
 70
0
 10
4.481057
 20
3.552807
 30
0.0
 10
4.428364
 20
3.552807
 30
0.0
 10
4.342138
 20
3.165179
 30
0.0
 10
4.408244
 20
3.165179
 30
0.0
  0
SPLINE
  5
2f4
100
AcDbEntity
  8
Capa_1
 62
7
100
AcDbSpline
 70
8
 71
3
 72
8
 73
4
 74
0
 40
0
 40
0
 40
0
 40
0
 40
1
 40
1
 40
1
 40
1
 10
3.736319
 20
1.396053
 30
0.0
 10
3.705448
 20
1.396053
 30
0.0
 10
3.676067
 20
1.399458
 30
0.0
 10
3.648177
 20
1.406269
 30
0.0
  0
SPLINE
  5
2f5
100
AcDbEntity
  8
Capa_1
 62
7
100
AcDbSpline
 70
8
 71
3
 72
8
 73
4
 74
0
 40
0
 40
0
 40
0
 40
0
 40
1
 40
1
 40
1
 40
1
 10
3.648177
 20
1.406269
 30
0.0
 10
3.620286
 20
1.413148
 30
0.0
 10
3.592928
 20
1.423602
 30
0.0
 10
3.566102
 20
1.437632
 30
0.0
  0
LWPOLYLINE
  5
2f6
100
AcDbEntity
  8
Capa_1
 62
7
100
AcDbPolyline
 90
2
 70
0
 10
4.662770
 20
3.410661
 30
0.0
 10
4.662770
 20
3.411417
 30
0.0
  0
SPLINE
  5
2f7
100
AcDbEntity
  8
Capa_1
 62
7
100
AcDbSpline
 70
8
 71
3
 72
8
 73
4
 74
0
 40
0
 40
0
 40
0
 40
0
 40
1
 40
1
 40
1
 40
1
 10
3.585904
 20
1.513333
 30
0.0
 10
3.606343
 20
1.493106
 30
0.0
 10
3.631359
 20
1.477543
 30
0.0
 10
3.660953
 20
1.466646
 30
0.0
  0
SPLINE
  5
2f8
100
AcDbEntity
  8
Capa_1
 62
7
100
AcDbSpline
 70
8
 71
3
 72
8
 73
4
 74
0
 40
0
 40
0
 40
0
 40
0
 40
1
 40
1
 40
1
 40
1
 10
3.660953
 20
1.466646
 30
0.0
 10
3.690759
 20
1.455953
 30
0.0
 10
3.719501
 20
1.450607
 30
0.0
 10
3.747179
 20
1.450607
 30
0.0
  0
SPLINE
  5
2f9
100
AcDbEntity
  8
Capa_1
 62
7
100
AcDbSpline
 70
8
 71
3
 72
8
 73
4
 74
0
 40
0
 40
0
 40
0
 40
0
 40
1
 40
1
 40
1
 40
1
 10
3.747179
 20
1.450607
 30
0.0
 10
3.792527
 20
1.450607
 30
0.0
 10
3.827230
 20
1.459937
 30
0.0
 10
3.851289
 20
1.478599
 30
0.0
  0
SPLINE
  5
2fa
100
AcDbEntity
  8
Capa_1
 62
7
100
AcDbSpline
 70
8
 71
3
 72
8
 73
4
 74
0
 40
0
 40
0
 40
0
 40
0
 40
1
 40
1
 40
1
 40
1
 10
3.851289
 20
1.478599
 30
0.0
 10
3.875560
 20
1.497464
 30
0.0
 10
3.887695
 20
1.521472
 30
0.0
 10
3.887695
 20
1.550622
 30
0.0
  0
SPLINE
  5
2fb
100
AcDbEntity
  8
Capa_1
 62
7
100
AcDbSpline
 70
8
 71
3
 72
8
 73
4
 74
0
 40
0
 40
0
 40
0
 40
0
 40
1
 40
1
 40
1
 40
1
 10
3.887695
 20
1.550622
 30
0.0
 10
3.887695
 20
1.565946
 30
0.0
 10
3.883330
 20
1.578716
 30
0.0
 10
3.874601
 20
1.588932
 30
0.0
  0
SPLINE
  5
2fc
100
AcDbEntity
  8
Capa_1
 62
7
100
AcDbSpline
 70
8
 71
3
 72
8
 73
4
 74
0
 40
0
 40
0
 40
0
 40
0
 40
1
 40
1
 40
1
 40
1
 10
3.874601
 20
1.588932
 30
0.0
 10
3.866085
 20
1.599148
 30
0.0
 10
3.853524
 20
1.606708
 30
0.0
 10
3.836917
 20
1.611612
 30
0.0
  0
SPLINE
  5
2fd
100
AcDbEntity
  8
Capa_1
 62
7
100
AcDbSpline
 70
8
 71
3
 72
8
 73
4
 74
0
 40
0
 40
0
 40
0
 40
0
 40
1
 40
1
 40
1
 40
1
 10
3.836917
 20
1.611612
 30
0.0
 10
3.823078
 20
1.615698
 30
0.0
 10
3.806578
 20
1.619478
 30
0.0
 10
3.787417
 20
1.622952
 30
0.0
  0
SPLINE
  5
2fe
100
AcDbEntity
  8
Capa_1
 62
7
100
AcDbSpline
 70
8
 71
3
 72
8
 73
4
 74
0
 40
0
 40
0
 40
0
 40
0
 40
1
 40
1
 40
1
 40
1
 10
3.787417
 20
1.622952
 30
0.0
 10
3.768468
 20
1.627038
 30
0.0
 10
3.750371
 20
1.631057
 30
0.0
 10
3.733126
 20
1.635007
 30
0.0
  0
SPLINE
  5
2ff
100
AcDbEntity
  8
Capa_1
 62
7
100
AcDbSpline
 70
8
 71
3
 72
8
 73
4
 74
0
 40
0
 40
0
 40
0
 40
0
 40
1
 40
1
 40
1
 40
1
 10
3.733126
 20
1.635007
 30
0.0
 10
3.699700
 20
1.642771
 30
0.0
 10
3.673832
 20
1.656120
 30
0.0
 10
3.655522
 20
1.675054
 30
0.0
  0
SPLINE
  5
300
100
AcDbEntity
  8
Capa_1
 62
7
100
AcDbSpline
 70
8
 71
3
 72
8
 73
4
 74
0
 40
0
 40
0
 40
0
 40
0
 40
1
 40
1
 40
1
 40
1
 10
3.655522
 20
1.675054
 30
0.0
 10
3.637213
 20
1.693919
 30
0.0
 10
3.628058
 20
1.717348
 30
0.0
 10
3.628058
 20
1.745340
 30
0.0
  0
SPLINE
  5
301
100
AcDbEntity
  8
Capa_1
 62
7
100
AcDbSpline
 70
8
 71
3
 72
8
 73
4
 74
0
 40
0
 40
0
 40
0
 40
0
 40
1
 40
1
 40
1
 40
1
 10
3.628058
 20
1.745340
 30
0.0
 10
3.628058
 20
1.792675
 30
0.0
 10
3.647219
 20
1.832003
 30
0.0
 10
3.685542
 20
1.863326
 30
0.0
  0
SPLINE
  5
302
100
AcDbEntity
  8
Capa_1
 62
7
100
AcDbSpline
 70
8
 71
3
 72
8
 73
4
 74
0
 40
0
 40
0
 40
0
 40
0
 40
1
 40
1
 40
1
 40
1
 10
3.685542
 20
1.863326
 30
0.0
 10
3.724077
 20
1.894859
 30
0.0
 10
3.773790
 20
1.910626
 30
0.0
 10
3.834681
 20
1.910626
 30
0.0
  0
SPLINE
  5
303
100
AcDbEntity
  8
Capa_1
 62
7
100
AcDbSpline
 70
8
 71
3
 72
8
 73
4
 74
0
 40
0
 40
0
 40
0
 40
0
 40
1
 40
1
 40
1
 40
1
 10
3.834681
 20
1.910626
 30
0.0
 10
3.867894
 20
1.910626
 30
0.0
 10
3.898020
 20
1.906948
 30
0.0
 10
3.925058
 20
1.899593
 30
0.0
  0
SPLINE
  5
304
100
AcDbEntity
  8
Capa_1
 62
7
100
AcDbSpline
 70
8
 71
3
 72
8
 73
4
 74
0
 40
0
 40
0
 40
0
 40
0
 40
1
 40
1
 40
1
 40
1
 10
3.925058
 20
1.899593
 30
0.0
 10
3.952310
 20
1.892509
 30
0.0
 10
3.975729
 20
1.884064
 30
0.0
 10
3.995316
 20
1.874257
 30
0.0
  0
LWPOLYLINE
  5
305
100
AcDbEntity
  8
Capa_1
 62
7
100
AcDbPolyline
 90
3
 70
0
 10
3.566102
 20
1.437632
 30
0.0
 10
3.581431
 20
1.513333
 30
0.0
 10
3.585904
 20
1.513333
 30
0.0
  0
SPLINE
  5
306
100
AcDbEntity
  8
Capa_1
 62
7
100
AcDbSpline
 70
8
 71
3
 72
8
 73
4
 74
0
 40
0
 40
0
 40
0
 40
0
 40
1
 40
1
 40
1
 40
1
 10
3.976471
 20
1.803255
 30
0.0
 10
3.961355
 20
1.817694
 30
0.0
 10
3.939746
 20
1.830123
 30
0.0
 10
3.911642
 20
1.840544
 30
0.0
  0
SPLINE
  5
307
100
AcDbEntity
  8
Capa_1
 62
7
100
AcDbSpline
 70
8
 71
3
 72
8
 73
4
 74
0
 40
0
 40
0
 40
0
 40
0
 40
1
 40
1
 40
1
 40
1
 10
3.911642
 20
1.840544
 30
0.0
 10
3.883751
 20
1.850964
 30
0.0
 10
3.854371
 20
1.856174
 30
0.0
 10
3.823500
 20
1.856174
 30
0.0
  0
SPLINE
  5
308
100
AcDbEntity
  8
Capa_1
 62
7
100
AcDbSpline
 70
8
 71
3
 72
8
 73
4
 74
0
 40
0
 40
0
 40
0
 40
0
 40
1
 40
1
 40
1
 40
1
 10
3.823500
 20
1.856174
 30
0.0
 10
3.784751
 20
1.856174
 30
0.0
 10
3.753773
 20
1.847286
 30
0.0
 10
3.730567
 20
1.829510
 30
0.0
  0
SPLINE
  5
309
100
AcDbEntity
  8
Capa_1
 62
7
100
AcDbSpline
 70
8
 71
3
 72
8
 73
4
 74
0
 40
0
 40
0
 40
0
 40
0
 40
1
 40
1
 40
1
 40
1
 10
3.730567
 20
1.829510
 30
0.0
 10
3.707573
 20
1.811734
 30
0.0
 10
3.696076
 20
1.789191
 30
0.0
 10
3.696076
 20
1.761880
 30
0.0
  0
SPLINE
  5
30a
100
AcDbEntity
  8
Capa_1
 62
7
100
AcDbSpline
 70
8
 71
3
 72
8
 73
4
 74
0
 40
0
 40
0
 40
0
 40
0
 40
1
 40
1
 40
1
 40
1
 10
3.696076
 20
1.761880
 30
0.0
 10
3.696076
 20
1.747237
 30
0.0
 10
3.700227
 20
1.734365
 30
0.0
 10
3.708531
 20
1.723263
 30
0.0
  0
SPLINE
  5
30b
100
AcDbEntity
  8
Capa_1
 62
7
100
AcDbSpline
 70
8
 71
3
 72
8
 73
4
 74
0
 40
0
 40
0
 40
0
 40
0
 40
1
 40
1
 40
1
 40
1
 10
3.708531
 20
1.723263
 30
0.0
 10
3.716834
 20
1.712162
 30
0.0
 10
3.731631
 20
1.703819
 30
0.0
 10
3.752922
 20
1.698234
 30
0.0
  0
SPLINE
  5
30c
100
AcDbEntity
  8
Capa_1
 62
7
100
AcDbSpline
 70
8
 71
3
 72
8
 73
4
 74
0
 40
0
 40
0
 40
0
 40
0
 40
1
 40
1
 40
1
 40
1
 10
3.752922
 20
1.698234
 30
0.0
 10
3.766547
 20
1.694829
 30
0.0
 10
3.784644
 20
1.690708
 30
0.0
 10
3.807211
 20
1.685873
 30
0.0
  0
SPLINE
  5
30d
100
AcDbEntity
  8
Capa_1
 62
7
100
AcDbSpline
 70
8
 71
3
 72
8
 73
4
 74
0
 40
0
 40
0
 40
0
 40
0
 40
1
 40
1
 40
1
 40
1
 10
3.807211
 20
1.685873
 30
0.0
 10
3.829779
 20
1.681105
 30
0.0
 10
3.848728
 20
1.676678
 30
0.0
 10
3.864057
 20
1.672592
 30
0.0
  0
SPLINE
  5
30e
100
AcDbEntity
  8
Capa_1
 62
7
100
AcDbSpline
 70
8
 71
3
 72
8
 73
4
 74
0
 40
0
 40
0
 40
0
 40
0
 40
1
 40
1
 40
1
 40
1
 10
3.864057
 20
1.672592
 30
0.0
 10
3.894289
 20
1.663942
 30
0.0
 10
3.917177
 20
1.651070
 30
0.0
 10
3.932719
 20
1.633975
 30
0.0
  0
SPLINE
  5
30f
100
AcDbEntity
  8
Capa_1
 62
7
100
AcDbSpline
 70
8
 71
3
 72
8
 73
4
 74
0
 40
0
 40
0
 40
0
 40
0
 40
1
 40
1
 40
1
 40
1
 10
3.932719
 20
1.633975
 30
0.0
 10
3.948474
 20
1.616880
 30
0.0
 10
3.956351
 20
1.595324
 30
0.0
 10
3.956351
 20
1.569307
 30
0.0
  0
SPLINE
  5
310
100
AcDbEntity
  8
Capa_1
 62
7
100
AcDbSpline
 70
8
 71
3
 72
8
 73
4
 74
0
 40
0
 40
0
 40
0
 40
0
 40
1
 40
1
 40
1
 40
1
 10
3.956351
 20
1.569307
 30
0.0
 10
3.956351
 20
1.547513
 30
0.0
 10
3.951242
 20
1.525855
 30
0.0
 10
3.941022
 20
1.504333
 30
0.0
  0
SPLINE
  5
311
100
AcDbEntity
  8
Capa_1
 62
7
100
AcDbSpline
 70
8
 71
3
 72
8
 73
4
 74
0
 40
0
 40
0
 40
0
 40
0
 40
1
 40
1
 40
1
 40
1
 10
3.941022
 20
1.504333
 30
0.0
 10
3.930803
 20
1.482743
 30
0.0
 10
3.916539
 20
1.464286
 30
0.0
 10
3.898229
 20
1.448962
 30
0.0
  0
SPLINE
  5
312
100
AcDbEntity
  8
Capa_1
 62
7
100
AcDbSpline
 70
8
 71
3
 72
8
 73
4
 74
0
 40
0
 40
0
 40
0
 40
0
 40
1
 40
1
 40
1
 40
1
 10
3.898229
 20
1.448962
 30
0.0
 10
3.878641
 20
1.432548
 30
0.0
 10
3.855648
 20
1.419676
 30
0.0
 10
3.829248
 20
1.410345
 30
0.0
  0
SPLINE
  5
313
100
AcDbEntity
  8
Capa_1
 62
7
100
AcDbSpline
 70
8
 71
3
 72
8
 73
4
 74
0
 40
0
 40
0
 40
0
 40
0
 40
1
 40
1
 40
1
 40
1
 10
3.829248
 20
1.410345
 30
0.0
 10
3.803061
 20
1.401015
 30
0.0
 10
3.772084
 20
1.396349
 30
0.0
 10
3.736315
 20
1.396349
 30
0.0
  0
LWPOLYLINE
  5
314
100
AcDbEntity
  8
Capa_1
 62
7
100
AcDbPolyline
 90
3
 70
0
 10
3.995316
 20
1.874257
 30
0.0
 10
3.980945
 20
1.803255
 30
0.0
 10
3.976471
 20
1.803255
 30
0.0
  0
SPLINE
  5
315
100
AcDbEntity
  8
Capa_1
 62
7
100
AcDbSpline
 70
8
 71
3
 72
8
 73
4
 74
0
 40
0
 40
0
 40
0
 40
0
 40
1
 40
1
 40
1
 40
1
 10
4.183417
 20
1.396053
 30
0.0
 10
4.152546
 20
1.396053
 30
0.0
 10
4.123166
 20
1.399458
 30
0.0
 10
4.095275
 20
1.406269
 30
0.0
  0
SPLINE
  5
316
100
AcDbEntity
  8
Capa_1
 62
7
100
AcDbSpline
 70
8
 71
3
 72
8
 73
4
 74
0
 40
0
 40
0
 40
0
 40
0
 40
1
 40
1
 40
1
 40
1
 10
4.095275
 20
1.406269
 30
0.0
 10
4.067385
 20
1.413148
 30
0.0
 10
4.040027
 20
1.423602
 30
0.0
 10
4.013200
 20
1.437632
 30
0.0
  0
LWPOLYLINE
  5
317
100
AcDbEntity
  8
Capa_1
 62
7
100
AcDbPolyline
 90
2
 70
0
 10
3.736315
 20
1.396349
 30
0.0
 10
3.736319
 20
1.396053
 30
0.0
  0
SPLINE
  5
318
100
AcDbEntity
  8
Capa_1
 62
7
100
AcDbSpline
 70
8
 71
3
 72
8
 73
4
 74
0
 40
0
 40
0
 40
0
 40
0
 40
1
 40
1
 40
1
 40
1
 10
4.033002
 20
1.513333
 30
0.0
 10
4.053441
 20
1.493106
 30
0.0
 10
4.078458
 20
1.477543
 30
0.0
 10
4.108051
 20
1.466646
 30
0.0
  0
SPLINE
  5
319
100
AcDbEntity
  8
Capa_1
 62
7
100
AcDbSpline
 70
8
 71
3
 72
8
 73
4
 74
0
 40
0
 40
0
 40
0
 40
0
 40
1
 40
1
 40
1
 40
1
 10
4.108051
 20
1.466646
 30
0.0
 10
4.137857
 20
1.455953
 30
0.0
 10
4.166599
 20
1.450607
 30
0.0
 10
4.194277
 20
1.450607
 30
0.0
  0
SPLINE
  5
31a
100
AcDbEntity
  8
Capa_1
 62
7
100
AcDbSpline
 70
8
 71
3
 72
8
 73
4
 74
0
 40
0
 40
0
 40
0
 40
0
 40
1
 40
1
 40
1
 40
1
 10
4.194277
 20
1.450607
 30
0.0
 10
4.239625
 20
1.450607
 30
0.0
 10
4.274328
 20
1.459937
 30
0.0
 10
4.298387
 20
1.478599
 30
0.0
  0
SPLINE
  5
31b
100
AcDbEntity
  8
Capa_1
 62
7
100
AcDbSpline
 70
8
 71
3
 72
8
 73
4
 74
0
 40
0
 40
0
 40
0
 40
0
 40
1
 40
1
 40
1
 40
1
 10
4.298387
 20
1.478599
 30
0.0
 10
4.322658
 20
1.497464
 30
0.0
 10
4.334793
 20
1.521472
 30
0.0
 10
4.334793
 20
1.550622
 30
0.0
  0
SPLINE
  5
31c
100
AcDbEntity
  8
Capa_1
 62
7
100
AcDbSpline
 70
8
 71
3
 72
8
 73
4
 74
0
 40
0
 40
0
 40
0
 40
0
 40
1
 40
1
 40
1
 40
1
 10
4.334793
 20
1.550622
 30
0.0
 10
4.334793
 20
1.565946
 30
0.0
 10
4.330429
 20
1.578716
 30
0.0
 10
4.321700
 20
1.588932
 30
0.0
  0
SPLINE
  5
31d
100
AcDbEntity
  8
Capa_1
 62
7
100
AcDbSpline
 70
8
 71
3
 72
8
 73
4
 74
0
 40
0
 40
0
 40
0
 40
0
 40
1
 40
1
 40
1
 40
1
 10
4.321700
 20
1.588932
 30
0.0
 10
4.313184
 20
1.599148
 30
0.0
 10
4.300623
 20
1.606708
 30
0.0
 10
4.284016
 20
1.611612
 30
0.0
  0
SPLINE
  5
31e
100
AcDbEntity
  8
Capa_1
 62
7
100
AcDbSpline
 70
8
 71
3
 72
8
 73
4
 74
0
 40
0
 40
0
 40
0
 40
0
 40
1
 40
1
 40
1
 40
1
 10
4.284016
 20
1.611612
 30
0.0
 10
4.270177
 20
1.615698
 30
0.0
 10
4.253677
 20
1.619478
 30
0.0
 10
4.234516
 20
1.622952
 30
0.0
  0
SPLINE
  5
31f
100
AcDbEntity
  8
Capa_1
 62
7
100
AcDbSpline
 70
8
 71
3
 72
8
 73
4
 74
0
 40
0
 40
0
 40
0
 40
0
 40
1
 40
1
 40
1
 40
1
 10
4.234516
 20
1.622952
 30
0.0
 10
4.215567
 20
1.627038
 30
0.0
 10
4.197470
 20
1.631057
 30
0.0
 10
4.180225
 20
1.635007
 30
0.0
  0
SPLINE
  5
320
100
AcDbEntity
  8
Capa_1
 62
7
100
AcDbSpline
 70
8
 71
3
 72
8
 73
4
 74
0
 40
0
 40
0
 40
0
 40
0
 40
1
 40
1
 40
1
 40
1
 10
4.180225
 20
1.635007
 30
0.0
 10
4.146799
 20
1.642771
 30
0.0
 10
4.120931
 20
1.656120
 30
0.0
 10
4.102622
 20
1.675054
 30
0.0
  0
SPLINE
  5
321
100
AcDbEntity
  8
Capa_1
 62
7
100
AcDbSpline
 70
8
 71
3
 72
8
 73
4
 74
0
 40
0
 40
0
 40
0
 40
0
 40
1
 40
1
 40
1
 40
1
 10
4.102622
 20
1.675054
 30
0.0
 10
4.084312
 20
1.693919
 30
0.0
 10
4.075157
 20
1.717348
 30
0.0
 10
4.075157
 20
1.745340
 30
0.0
  0
SPLINE
  5
322
100
AcDbEntity
  8
Capa_1
 62
7
100
AcDbSpline
 70
8
 71
3
 72
8
 73
4
 74
0
 40
0
 40
0
 40
0
 40
0
 40
1
 40
1
 40
1
 40
1
 10
4.075157
 20
1.745340
 30
0.0
 10
4.075157
 20
1.792675
 30
0.0
 10
4.094318
 20
1.832003
 30
0.0
 10
4.132641
 20
1.863326
 30
0.0
  0
SPLINE
  5
323
100
AcDbEntity
  8
Capa_1
 62
7
100
AcDbSpline
 70
8
 71
3
 72
8
 73
4
 74
0
 40
0
 40
0
 40
0
 40
0
 40
1
 40
1
 40
1
 40
1
 10
4.132641
 20
1.863326
 30
0.0
 10
4.171176
 20
1.894859
 30
0.0
 10
4.220890
 20
1.910626
 30
0.0
 10
4.281780
 20
1.910626
 30
0.0
  0
SPLINE
  5
324
100
AcDbEntity
  8
Capa_1
 62
7
100
AcDbSpline
 70
8
 71
3
 72
8
 73
4
 74
0
 40
0
 40
0
 40
0
 40
0
 40
1
 40
1
 40
1
 40
1
 10
4.281780
 20
1.910626
 30
0.0
 10
4.314993
 20
1.910626
 30
0.0
 10
4.345119
 20
1.906948
 30
0.0
 10
4.372158
 20
1.899593
 30
0.0
  0
SPLINE
  5
325
100
AcDbEntity
  8
Capa_1
 62
7
100
AcDbSpline
 70
8
 71
3
 72
8
 73
4
 74
0
 40
0
 40
0
 40
0
 40
0
 40
1
 40
1
 40
1
 40
1
 10
4.372158
 20
1.899593
 30
0.0
 10
4.399409
 20
1.892509
 30
0.0
 10
4.422829
 20
1.884064
 30
0.0
 10
4.442416
 20
1.874257
 30
0.0
  0
LWPOLYLINE
  5
326
100
AcDbEntity
  8
Capa_1
 62
7
100
AcDbPolyline
 90
3
 70
0
 10
4.013200
 20
1.437632
 30
0.0
 10
4.028529
 20
1.513333
 30
0.0
 10
4.033002
 20
1.513333
 30
0.0
  0
SPLINE
  5
327
100
AcDbEntity
  8
Capa_1
 62
7
100
AcDbSpline
 70
8
 71
3
 72
8
 73
4
 74
0
 40
0
 40
0
 40
0
 40
0
 40
1
 40
1
 40
1
 40
1
 10
4.423571
 20
1.803255
 30
0.0
 10
4.408455
 20
1.817694
 30
0.0
 10
4.386845
 20
1.830123
 30
0.0
 10
4.358741
 20
1.840544
 30
0.0
  0
SPLINE
  5
328
100
AcDbEntity
  8
Capa_1
 62
7
100
AcDbSpline
 70
8
 71
3
 72
8
 73
4
 74
0
 40
0
 40
0
 40
0
 40
0
 40
1
 40
1
 40
1
 40
1
 10
4.358741
 20
1.840544
 30
0.0
 10
4.330851
 20
1.850964
 30
0.0
 10
4.301470
 20
1.856174
 30
0.0
 10
4.270599
 20
1.856174
 30
0.0
  0
SPLINE
  5
329
100
AcDbEntity
  8
Capa_1
 62
7
100
AcDbSpline
 70
8
 71
3
 72
8
 73
4
 74
0
 40
0
 40
0
 40
0
 40
0
 40
1
 40
1
 40
1
 40
1
 10
4.270599
 20
1.856174
 30
0.0
 10
4.231850
 20
1.856174
 30
0.0
 10
4.200873
 20
1.847286
 30
0.0
 10
4.177667
 20
1.829510
 30
0.0
  0
SPLINE
  5
32a
100
AcDbEntity
  8
Capa_1
 62
7
100
AcDbSpline
 70
8
 71
3
 72
8
 73
4
 74
0
 40
0
 40
0
 40
0
 40
0
 40
1
 40
1
 40
1
 40
1
 10
4.177667
 20
1.829510
 30
0.0
 10
4.154673
 20
1.811734
 30
0.0
 10
4.143176
 20
1.789191
 30
0.0
 10
4.143176
 20
1.761880
 30
0.0
  0
SPLINE
  5
32b
100
AcDbEntity
  8
Capa_1
 62
7
100
AcDbSpline
 70
8
 71
3
 72
8
 73
4
 74
0
 40
0
 40
0
 40
0
 40
0
 40
1
 40
1
 40
1
 40
1
 10
4.143176
 20
1.761880
 30
0.0
 10
4.143176
 20
1.747237
 30
0.0
 10
4.147328
 20
1.734365
 30
0.0
 10
4.155631
 20
1.723263
 30
0.0
  0
SPLINE
  5
32c
100
AcDbEntity
  8
Capa_1
 62
7
100
AcDbSpline
 70
8
 71
3
 72
8
 73
4
 74
0
 40
0
 40
0
 40
0
 40
0
 40
1
 40
1
 40
1
 40
1
 10
4.155631
 20
1.723263
 30
0.0
 10
4.163934
 20
1.712162
 30
0.0
 10
4.178731
 20
1.703819
 30
0.0
 10
4.200022
 20
1.698234
 30
0.0
  0
SPLINE
  5
32d
100
AcDbEntity
  8
Capa_1
 62
7
100
AcDbSpline
 70
8
 71
3
 72
8
 73
4
 74
0
 40
0
 40
0
 40
0
 40
0
 40
1
 40
1
 40
1
 40
1
 10
4.200022
 20
1.698234
 30
0.0
 10
4.213647
 20
1.694829
 30
0.0
 10
4.231744
 20
1.690708
 30
0.0
 10
4.254313
 20
1.685873
 30
0.0
  0
SPLINE
  5
32e
100
AcDbEntity
  8
Capa_1
 62
7
100
AcDbSpline
 70
8
 71
3
 72
8
 73
4
 74
0
 40
0
 40
0
 40
0
 40
0
 40
1
 40
1
 40
1
 40
1
 10
4.254313
 20
1.685873
 30
0.0
 10
4.276880
 20
1.681105
 30
0.0
 10
4.295829
 20
1.676678
 30
0.0
 10
4.311159
 20
1.672592
 30
0.0
  0
SPLINE
  5
32f
100
AcDbEntity
  8
Capa_1
 62
7
100
AcDbSpline
 70
8
 71
3
 72
8
 73
4
 74
0
 40
0
 40
0
 40
0
 40
0
 40
1
 40
1
 40
1
 40
1
 10
4.311159
 20
1.672592
 30
0.0
 10
4.341391
 20
1.663942
 30
0.0
 10
4.364278
 20
1.651070
 30
0.0
 10
4.379820
 20
1.633975
 30
0.0
  0
SPLINE
  5
330
100
AcDbEntity
  8
Capa_1
 62
7
100
AcDbSpline
 70
8
 71
3
 72
8
 73
4
 74
0
 40
0
 40
0
 40
0
 40
0
 40
1
 40
1
 40
1
 40
1
 10
4.379820
 20
1.633975
 30
0.0
 10
4.395575
 20
1.616880
 30
0.0
 10
4.403452
 20
1.595324
 30
0.0
 10
4.403452
 20
1.569307
 30
0.0
  0
SPLINE
  5
331
100
AcDbEntity
  8
Capa_1
 62
7
100
AcDbSpline
 70
8
 71
3
 72
8
 73
4
 74
0
 40
0
 40
0
 40
0
 40
0
 40
1
 40
1
 40
1
 40
1
 10
4.403452
 20
1.569307
 30
0.0
 10
4.403452
 20
1.547513
 30
0.0
 10
4.398343
 20
1.525855
 30
0.0
 10
4.388124
 20
1.504333
 30
0.0
  0
SPLINE
  5
332
100
AcDbEntity
  8
Capa_1
 62
7
100
AcDbSpline
 70
8
 71
3
 72
8
 73
4
 74
0
 40
0
 40
0
 40
0
 40
0
 40
1
 40
1
 40
1
 40
1
 10
4.388124
 20
1.504333
 30
0.0
 10
4.377904
 20
1.482743
 30
0.0
 10
4.363640
 20
1.464286
 30
0.0
 10
4.345330
 20
1.448962
 30
0.0
  0
SPLINE
  5
333
100
AcDbEntity
  8
Capa_1
 62
7
100
AcDbSpline
 70
8
 71
3
 72
8
 73
4
 74
0
 40
0
 40
0
 40
0
 40
0
 40
1
 40
1
 40
1
 40
1
 10
4.345330
 20
1.448962
 30
0.0
 10
4.325743
 20
1.432548
 30
0.0
 10
4.302749
 20
1.419676
 30
0.0
 10
4.276350
 20
1.410345
 30
0.0
  0
SPLINE
  5
334
100
AcDbEntity
  8
Capa_1
 62
7
100
AcDbSpline
 70
8
 71
3
 72
8
 73
4
 74
0
 40
0
 40
0
 40
0
 40
0
 40
1
 40
1
 40
1
 40
1
 10
4.276350
 20
1.410345
 30
0.0
 10
4.250163
 20
1.401015
 30
0.0
 10
4.219185
 20
1.396349
 30
0.0
 10
4.183418
 20
1.396349
 30
0.0
  0
LWPOLYLINE
  5
335
100
AcDbEntity
  8
Capa_1
 62
7
100
AcDbPolyline
 90
3
 70
0
 10
4.442416
 20
1.874257
 30
0.0
 10
4.428044
 20
1.803255
 30
0.0
 10
4.423571
 20
1.803255
 30
0.0
  0
SPLINE
  5
336
100
AcDbEntity
  8
Capa_1
 62
7
100
AcDbSpline
 70
8
 71
3
 72
8
 73
4
 74
0
 40
0
 40
0
 40
0
 40
0
 40
1
 40
1
 40
1
 40
1
 10
3.549177
 20
-0.310469
 30
0.0
 10
3.518306
 20
-0.310469
 30
0.0
 10
3.488925
 20
-0.307064
 30
0.0
 10
3.461034
 20
-0.300253
 30
0.0
  0
SPLINE
  5
337
100
AcDbEntity
  8
Capa_1
 62
7
100
AcDbSpline
 70
8
 71
3
 72
8
 73
4
 74
0
 40
0
 40
0
 40
0
 40
0
 40
1
 40
1
 40
1
 40
1
 10
3.461034
 20
-0.300253
 30
0.0
 10
3.433144
 20
-0.293374
 30
0.0
 10
3.405785
 20
-0.282920
 30
0.0
 10
3.378960
 20
-0.268890
 30
0.0
  0
LWPOLYLINE
  5
338
100
AcDbEntity
  8
Capa_1
 62
7
100
AcDbPolyline
 90
2
 70
0
 10
4.183418
 20
1.396349
 30
0.0
 10
4.183417
 20
1.396053
 30
0.0
  0
SPLINE
  5
339
100
AcDbEntity
  8
Capa_1
 62
7
100
AcDbSpline
 70
8
 71
3
 72
8
 73
4
 74
0
 40
0
 40
0
 40
0
 40
0
 40
1
 40
1
 40
1
 40
1
 10
3.398762
 20
-0.193189
 30
0.0
 10
3.419201
 20
-0.213416
 30
0.0
 10
3.444217
 20
-0.228979
 30
0.0
 10
3.473810
 20
-0.239876
 30
0.0
  0
SPLINE
  5
33a
100
AcDbEntity
  8
Capa_1
 62
7
100
AcDbSpline
 70
8
 71
3
 72
8
 73
4
 74
0
 40
0
 40
0
 40
0
 40
0
 40
1
 40
1
 40
1
 40
1
 10
3.473810
 20
-0.239876
 30
0.0
 10
3.503617
 20
-0.250569
 30
0.0
 10
3.532359
 20
-0.255915
 30
0.0
 10
3.560036
 20
-0.255915
 30
0.0
  0
SPLINE
  5
33b
100
AcDbEntity
  8
Capa_1
 62
7
100
AcDbSpline
 70
8
 71
3
 72
8
 73
4
 74
0
 40
0
 40
0
 40
0
 40
0
 40
1
 40
1
 40
1
 40
1
 10
3.560036
 20
-0.255915
 30
0.0
 10
3.605384
 20
-0.255915
 30
0.0
 10
3.640088
 20
-0.246585
 30
0.0
 10
3.664146
 20
-0.227923
 30
0.0
  0
SPLINE
  5
33c
100
AcDbEntity
  8
Capa_1
 62
7
100
AcDbSpline
 70
8
 71
3
 72
8
 73
4
 74
0
 40
0
 40
0
 40
0
 40
0
 40
1
 40
1
 40
1
 40
1
 10
3.664146
 20
-0.227923
 30
0.0
 10
3.688417
 20
-0.209058
 30
0.0
 10
3.700553
 20
-0.185050
 30
0.0
 10
3.700553
 20
-0.155900
 30
0.0
  0
SPLINE
  5
33d
100
AcDbEntity
  8
Capa_1
 62
7
100
AcDbSpline
 70
8
 71
3
 72
8
 73
4
 74
0
 40
0
 40
0
 40
0
 40
0
 40
1
 40
1
 40
1
 40
1
 10
3.700553
 20
-0.155900
 30
0.0
 10
3.700553
 20
-0.140576
 30
0.0
 10
3.696188
 20
-0.127806
 30
0.0
 10
3.687459
 20
-0.117590
 30
0.0
  0
SPLINE
  5
33e
100
AcDbEntity
  8
Capa_1
 62
7
100
AcDbSpline
 70
8
 71
3
 72
8
 73
4
 74
0
 40
0
 40
0
 40
0
 40
0
 40
1
 40
1
 40
1
 40
1
 10
3.687459
 20
-0.117590
 30
0.0
 10
3.678943
 20
-0.107374
 30
0.0
 10
3.666381
 20
-0.099814
 30
0.0
 10
3.649775
 20
-0.094910
 30
0.0
  0
SPLINE
  5
33f
100
AcDbEntity
  8
Capa_1
 62
7
100
AcDbSpline
 70
8
 71
3
 72
8
 73
4
 74
0
 40
0
 40
0
 40
0
 40
0
 40
1
 40
1
 40
1
 40
1
 10
3.649775
 20
-0.094910
 30
0.0
 10
3.635936
 20
-0.090824
 30
0.0
 10
3.619436
 20
-0.087044
 30
0.0
 10
3.600274
 20
-0.083570
 30
0.0
  0
SPLINE
  5
340
100
AcDbEntity
  8
Capa_1
 62
7
100
AcDbSpline
 70
8
 71
3
 72
8
 73
4
 74
0
 40
0
 40
0
 40
0
 40
0
 40
1
 40
1
 40
1
 40
1
 10
3.600274
 20
-0.083570
 30
0.0
 10
3.581326
 20
-0.079484
 30
0.0
 10
3.563229
 20
-0.075465
 30
0.0
 10
3.545983
 20
-0.071515
 30
0.0
  0
SPLINE
  5
341
100
AcDbEntity
  8
Capa_1
 62
7
100
AcDbSpline
 70
8
 71
3
 72
8
 73
4
 74
0
 40
0
 40
0
 40
0
 40
0
 40
1
 40
1
 40
1
 40
1
 10
3.545983
 20
-0.071515
 30
0.0
 10
3.512558
 20
-0.063751
 30
0.0
 10
3.486690
 20
-0.050402
 30
0.0
 10
3.468380
 20
-0.031468
 30
0.0
  0
SPLINE
  5
342
100
AcDbEntity
  8
Capa_1
 62
7
100
AcDbSpline
 70
8
 71
3
 72
8
 73
4
 74
0
 40
0
 40
0
 40
0
 40
0
 40
1
 40
1
 40
1
 40
1
 10
3.468380
 20
-0.031468
 30
0.0
 10
3.450070
 20
-0.012603
 30
0.0
 10
3.440915
 20
0.010826
 30
0.0
 10
3.440915
 20
0.038818
 30
0.0
  0
SPLINE
  5
343
100
AcDbEntity
  8
Capa_1
 62
7
100
AcDbSpline
 70
8
 71
3
 72
8
 73
4
 74
0
 40
0
 40
0
 40
0
 40
0
 40
1
 40
1
 40
1
 40
1
 10
3.440915
 20
0.038818
 30
0.0
 10
3.440915
 20
0.086153
 30
0.0
 10
3.460077
 20
0.125481
 30
0.0
 10
3.498399
 20
0.156804
 30
0.0
  0
SPLINE
  5
344
100
AcDbEntity
  8
Capa_1
 62
7
100
AcDbSpline
 70
8
 71
3
 72
8
 73
4
 74
0
 40
0
 40
0
 40
0
 40
0
 40
1
 40
1
 40
1
 40
1
 10
3.498399
 20
0.156804
 30
0.0
 10
3.536935
 20
0.188337
 30
0.0
 10
3.586648
 20
0.204104
 30
0.0
 10
3.647539
 20
0.204104
 30
0.0
  0
SPLINE
  5
345
100
AcDbEntity
  8
Capa_1
 62
7
100
AcDbSpline
 70
8
 71
3
 72
8
 73
4
 74
0
 40
0
 40
0
 40
0
 40
0
 40
1
 40
1
 40
1
 40
1
 10
3.647539
 20
0.204104
 30
0.0
 10
3.680752
 20
0.204104
 30
0.0
 10
3.710878
 20
0.200426
 30
0.0
 10
3.737917
 20
0.193071
 30
0.0
  0
SPLINE
  5
346
100
AcDbEntity
  8
Capa_1
 62
7
100
AcDbSpline
 70
8
 71
3
 72
8
 73
4
 74
0
 40
0
 40
0
 40
0
 40
0
 40
1
 40
1
 40
1
 40
1
 10
3.737917
 20
0.193071
 30
0.0
 10
3.765169
 20
0.185987
 30
0.0
 10
3.788588
 20
0.177542
 30
0.0
 10
3.808175
 20
0.167735
 30
0.0
  0
LWPOLYLINE
  5
347
100
AcDbEntity
  8
Capa_1
 62
7
100
AcDbPolyline
 90
3
 70
0
 10
3.378960
 20
-0.268890
 30
0.0
 10
3.394288
 20
-0.193189
 30
0.0
 10
3.398762
 20
-0.193189
 30
0.0
  0
SPLINE
  5
348
100
AcDbEntity
  8
Capa_1
 62
7
100
AcDbSpline
 70
8
 71
3
 72
8
 73
4
 74
0
 40
0
 40
0
 40
0
 40
0
 40
1
 40
1
 40
1
 40
1
 10
3.789330
 20
0.096733
 30
0.0
 10
3.774214
 20
0.111172
 30
0.0
 10
3.752604
 20
0.123601
 30
0.0
 10
3.724501
 20
0.134022
 30
0.0
  0
SPLINE
  5
349
100
AcDbEntity
  8
Capa_1
 62
7
100
AcDbSpline
 70
8
 71
3
 72
8
 73
4
 74
0
 40
0
 40
0
 40
0
 40
0
 40
1
 40
1
 40
1
 40
1
 10
3.724501
 20
0.134022
 30
0.0
 10
3.696610
 20
0.144442
 30
0.0
 10
3.667229
 20
0.149652
 30
0.0
 10
3.636358
 20
0.149652
 30
0.0
  0
SPLINE
  5
34a
100
AcDbEntity
  8
Capa_1
 62
7
100
AcDbSpline
 70
8
 71
3
 72
8
 73
4
 74
0
 40
0
 40
0
 40
0
 40
0
 40
1
 40
1
 40
1
 40
1
 10
3.636358
 20
0.149652
 30
0.0
 10
3.597609
 20
0.149652
 30
0.0
 10
3.566632
 20
0.140764
 30
0.0
 10
3.543426
 20
0.122988
 30
0.0
  0
SPLINE
  5
34b
100
AcDbEntity
  8
Capa_1
 62
7
100
AcDbSpline
 70
8
 71
3
 72
8
 73
4
 74
0
 40
0
 40
0
 40
0
 40
0
 40
1
 40
1
 40
1
 40
1
 10
3.543426
 20
0.122988
 30
0.0
 10
3.520432
 20
0.105212
 30
0.0
 10
3.508935
 20
0.082669
 30
0.0
 10
3.508935
 20
0.055358
 30
0.0
  0
SPLINE
  5
34c
100
AcDbEntity
  8
Capa_1
 62
7
100
AcDbSpline
 70
8
 71
3
 72
8
 73
4
 74
0
 40
0
 40
0
 40
0
 40
0
 40
1
 40
1
 40
1
 40
1
 10
3.508935
 20
0.055358
 30
0.0
 10
3.508935
 20
0.040715
 30
0.0
 10
3.513087
 20
0.027843
 30
0.0
 10
3.521390
 20
0.016741
 30
0.0
  0
SPLINE
  5
34d
100
AcDbEntity
  8
Capa_1
 62
7
100
AcDbSpline
 70
8
 71
3
 72
8
 73
4
 74
0
 40
0
 40
0
 40
0
 40
0
 40
1
 40
1
 40
1
 40
1
 10
3.521390
 20
0.016741
 30
0.0
 10
3.529693
 20
0.005640
 30
0.0
 10
3.544490
 20
-0.002703
 30
0.0
 10
3.565780
 20
-0.008288
 30
0.0
  0
SPLINE
  5
34e
100
AcDbEntity
  8
Capa_1
 62
7
100
AcDbSpline
 70
8
 71
3
 72
8
 73
4
 74
0
 40
0
 40
0
 40
0
 40
0
 40
1
 40
1
 40
1
 40
1
 10
3.565780
 20
-0.008288
 30
0.0
 10
3.579406
 20
-0.011693
 30
0.0
 10
3.597503
 20
-0.015814
 30
0.0
 10
3.620071
 20
-0.020649
 30
0.0
  0
SPLINE
  5
34f
100
AcDbEntity
  8
Capa_1
 62
7
100
AcDbSpline
 70
8
 71
3
 72
8
 73
4
 74
0
 40
0
 40
0
 40
0
 40
0
 40
1
 40
1
 40
1
 40
1
 10
3.620071
 20
-0.020649
 30
0.0
 10
3.642639
 20
-0.025417
 30
0.0
 10
3.661587
 20
-0.029878
 30
0.0
 10
3.676917
 20
-0.034033
 30
0.0
  0
SPLINE
  5
350
100
AcDbEntity
  8
Capa_1
 62
7
100
AcDbSpline
 70
8
 71
3
 72
8
 73
4
 74
0
 40
0
 40
0
 40
0
 40
0
 40
1
 40
1
 40
1
 40
1
 10
3.676917
 20
-0.034033
 30
0.0
 10
3.707149
 20
-0.042682
 30
0.0
 10
3.730036
 20
-0.055554
 30
0.0
 10
3.745578
 20
-0.072649
 30
0.0
  0
SPLINE
  5
351
100
AcDbEntity
  8
Capa_1
 62
7
100
AcDbSpline
 70
8
 71
3
 72
8
 73
4
 74
0
 40
0
 40
0
 40
0
 40
0
 40
1
 40
1
 40
1
 40
1
 10
3.745578
 20
-0.072649
 30
0.0
 10
3.761333
 20
-0.089744
 30
0.0
 10
3.769211
 20
-0.111300
 30
0.0
 10
3.769211
 20
-0.137317
 30
0.0
  0
SPLINE
  5
352
100
AcDbEntity
  8
Capa_1
 62
7
100
AcDbSpline
 70
8
 71
3
 72
8
 73
4
 74
0
 40
0
 40
0
 40
0
 40
0
 40
1
 40
1
 40
1
 40
1
 10
3.769211
 20
-0.137317
 30
0.0
 10
3.769211
 20
-0.159111
 30
0.0
 10
3.764101
 20
-0.180769
 30
0.0
 10
3.753882
 20
-0.202291
 30
0.0
  0
SPLINE
  5
353
100
AcDbEntity
  8
Capa_1
 62
7
100
AcDbSpline
 70
8
 71
3
 72
8
 73
4
 74
0
 40
0
 40
0
 40
0
 40
0
 40
1
 40
1
 40
1
 40
1
 10
3.753882
 20
-0.202291
 30
0.0
 10
3.743663
 20
-0.223881
 30
0.0
 10
3.729398
 20
-0.242338
 30
0.0
 10
3.711088
 20
-0.257662
 30
0.0
  0
SPLINE
  5
354
100
AcDbEntity
  8
Capa_1
 62
7
100
AcDbSpline
 70
8
 71
3
 72
8
 73
4
 74
0
 40
0
 40
0
 40
0
 40
0
 40
1
 40
1
 40
1
 40
1
 10
3.711088
 20
-0.257662
 30
0.0
 10
3.691501
 20
-0.274076
 30
0.0
 10
3.668507
 20
-0.286948
 30
0.0
 10
3.642108
 20
-0.296279
 30
0.0
  0
SPLINE
  5
355
100
AcDbEntity
  8
Capa_1
 62
7
100
AcDbSpline
 70
8
 71
3
 72
8
 73
4
 74
0
 40
0
 40
0
 40
0
 40
0
 40
1
 40
1
 40
1
 40
1
 10
3.642108
 20
-0.296279
 30
0.0
 10
3.615921
 20
-0.305610
 30
0.0
 10
3.584944
 20
-0.310275
 30
0.0
 10
3.549176
 20
-0.310275
 30
0.0
  0
LWPOLYLINE
  5
356
100
AcDbEntity
  8
Capa_1
 62
7
100
AcDbPolyline
 90
3
 70
0
 10
3.808175
 20
0.167735
 30
0.0
 10
3.793803
 20
0.096733
 30
0.0
 10
3.789330
 20
0.096733
 30
0.0
  0
SPLINE
  5
357
100
AcDbEntity
  8
Capa_1
 62
7
100
AcDbSpline
 70
8
 71
3
 72
8
 73
4
 74
0
 40
0
 40
0
 40
0
 40
0
 40
1
 40
1
 40
1
 40
1
 10
4.045136
 20
-0.310469
 30
0.0
 10
3.984885
 20
-0.310469
 30
0.0
 10
3.937620
 20
-0.294259
 30
0.0
 10
3.903342
 20
-0.261841
 30
0.0
  0
SPLINE
  5
358
100
AcDbEntity
  8
Capa_1
 62
7
100
AcDbSpline
 70
8
 71
3
 72
8
 73
4
 74
0
 40
0
 40
0
 40
0
 40
0
 40
1
 40
1
 40
1
 40
1
 10
3.903342
 20
-0.261841
 30
0.0
 10
3.869065
 20
-0.229149
 30
0.0
 10
3.851926
 20
-0.182932
 30
0.0
 10
3.851926
 20
-0.123188
 30
0.0
  0
SPLINE
  5
359
100
AcDbEntity
  8
Capa_1
 62
7
100
AcDbSpline
 70
8
 71
3
 72
8
 73
4
 74
0
 40
0
 40
0
 40
0
 40
0
 40
1
 40
1
 40
1
 40
1
 10
3.851926
 20
-0.123188
 30
0.0
 10
3.851926
 20
-0.077420
 30
0.0
 10
3.858526
 20
-0.034754
 30
0.0
 10
3.871727
 20
0.004809
 30
0.0
  0
SPLINE
  5
35a
100
AcDbEntity
  8
Capa_1
 62
7
100
AcDbSpline
 70
8
 71
3
 72
8
 73
4
 74
0
 40
0
 40
0
 40
0
 40
0
 40
1
 40
1
 40
1
 40
1
 10
3.871727
 20
0.004809
 30
0.0
 10
3.884927
 20
0.044379
 30
0.0
 10
3.903875
 20
0.079042
 30
0.0
 10
3.928572
 20
0.108798
 30
0.0
  0
SPLINE
  5
35b
100
AcDbEntity
  8
Capa_1
 62
7
100
AcDbSpline
 70
8
 71
3
 72
8
 73
4
 74
0
 40
0
 40
0
 40
0
 40
0
 40
1
 40
1
 40
1
 40
1
 10
3.928572
 20
0.108798
 30
0.0
 10
3.953056
 20
0.138152
 30
0.0
 10
3.983182
 20
0.161275
 30
0.0
 10
4.018950
 20
0.178165
 30
0.0
  0
SPLINE
  5
35c
100
AcDbEntity
  8
Capa_1
 62
7
100
AcDbSpline
 70
8
 71
3
 72
8
 73
4
 74
0
 40
0
 40
0
 40
0
 40
0
 40
1
 40
1
 40
1
 40
1
 10
4.018950
 20
0.178165
 30
0.0
 10
4.054717
 20
0.195260
 30
0.0
 10
4.094637
 20
0.203808
 30
0.0
 10
4.138708
 20
0.203808
 30
0.0
  0
SPLINE
  5
35d
100
AcDbEntity
  8
Capa_1
 62
7
100
AcDbSpline
 70
8
 71
3
 72
8
 73
4
 74
0
 40
0
 40
0
 40
0
 40
0
 40
1
 40
1
 40
1
 40
1
 10
4.138708
 20
0.203808
 30
0.0
 10
4.166173
 20
0.203808
 30
0.0
 10
4.192147
 20
0.200266
 30
0.0
 10
4.216630
 20
0.193183
 30
0.0
  0
SPLINE
  5
35e
100
AcDbEntity
  8
Capa_1
 62
7
100
AcDbSpline
 70
8
 71
3
 72
8
 73
4
 74
0
 40
0
 40
0
 40
0
 40
0
 40
1
 40
1
 40
1
 40
1
 10
4.216630
 20
0.193183
 30
0.0
 10
4.241115
 20
0.186304
 30
0.0
 10
4.266237
 20
0.175305
 30
0.0
 10
4.291998
 20
0.160185
 30
0.0
  0
LWPOLYLINE
  5
35f
100
AcDbEntity
  8
Capa_1
 62
7
100
AcDbPolyline
 90
2
 70
0
 10
3.549176
 20
-0.310275
 30
0.0
 10
3.549177
 20
-0.310469
 30
0.0
  0
SPLINE
  5
360
100
AcDbEntity
  8
Capa_1
 62
7
100
AcDbSpline
 70
8
 71
3
 72
8
 73
4
 74
0
 40
0
 40
0
 40
0
 40
0
 40
1
 40
1
 40
1
 40
1
 10
4.272840
 20
0.085506
 30
0.0
 10
4.265814
 20
0.092861
 30
0.0
 10
4.258682
 20
0.099638
 30
0.0
 10
4.251443
 20
0.105836
 30
0.0
  0
SPLINE
  5
361
100
AcDbEntity
  8
Capa_1
 62
7
100
AcDbSpline
 70
8
 71
3
 72
8
 73
4
 74
0
 40
0
 40
0
 40
0
 40
0
 40
1
 40
1
 40
1
 40
1
 10
4.251443
 20
0.105836
 30
0.0
 10
4.244418
 20
0.111965
 30
0.0
 10
4.233772
 20
0.118980
 30
0.0
 10
4.219507
 20
0.126881
 30
0.0
  0
SPLINE
  5
362
100
AcDbEntity
  8
Capa_1
 62
7
100
AcDbSpline
 70
8
 71
3
 72
8
 73
4
 74
0
 40
0
 40
0
 40
0
 40
0
 40
1
 40
1
 40
1
 40
1
 10
4.219507
 20
0.126881
 30
0.0
 10
4.207798
 20
0.133010
 30
0.0
 10
4.193853
 20
0.138357
 30
0.0
 10
4.177672
 20
0.142920
 30
0.0
  0
SPLINE
  5
363
100
AcDbEntity
  8
Capa_1
 62
7
100
AcDbSpline
 70
8
 71
3
 72
8
 73
4
 74
0
 40
0
 40
0
 40
0
 40
0
 40
1
 40
1
 40
1
 40
1
 10
4.177672
 20
0.142920
 30
0.0
 10
4.161492
 20
0.147687
 30
0.0
 10
4.143608
 20
0.150071
 30
0.0
 10
4.124020
 20
0.150071
 30
0.0
  0
SPLINE
  5
364
100
AcDbEntity
  8
Capa_1
 62
7
100
AcDbSpline
 70
8
 71
3
 72
8
 73
4
 74
0
 40
0
 40
0
 40
0
 40
0
 40
1
 40
1
 40
1
 40
1
 10
4.124020
 20
0.150071
 30
0.0
 10
4.094214
 20
0.150071
 30
0.0
 10
4.066856
 20
0.143533
 30
0.0
 10
4.041946
 20
0.130456
 30
0.0
  0
SPLINE
  5
365
100
AcDbEntity
  8
Capa_1
 62
7
100
AcDbSpline
 70
8
 71
3
 72
8
 73
4
 74
0
 40
0
 40
0
 40
0
 40
0
 40
1
 40
1
 40
1
 40
1
 10
4.041946
 20
0.130456
 30
0.0
 10
4.017036
 20
0.117584
 30
0.0
 10
3.995426
 20
0.099468
 30
0.0
 10
3.977116
 20
0.076107
 30
0.0
  0
SPLINE
  5
366
100
AcDbEntity
  8
Capa_1
 62
7
100
AcDbSpline
 70
8
 71
3
 72
8
 73
4
 74
0
 40
0
 40
0
 40
0
 40
0
 40
1
 40
1
 40
1
 40
1
 10
3.977116
 20
0.076107
 30
0.0
 10
3.959233
 20
0.053427
 30
0.0
 10
3.945181
 20
0.025878
 30
0.0
 10
3.934961
 20
-0.006541
 30
0.0
  0
SPLINE
  5
367
100
AcDbEntity
  8
Capa_1
 62
7
100
AcDbSpline
 70
8
 71
3
 72
8
 73
4
 74
0
 40
0
 40
0
 40
0
 40
0
 40
1
 40
1
 40
1
 40
1
 10
3.934961
 20
-0.006541
 30
0.0
 10
3.924742
 20
-0.038960
 30
0.0
 10
3.919632
 20
-0.073511
 30
0.0
 10
3.919632
 20
-0.110193
 30
0.0
  0
SPLINE
  5
368
100
AcDbEntity
  8
Capa_1
 62
7
100
AcDbSpline
 70
8
 71
3
 72
8
 73
4
 74
0
 40
0
 40
0
 40
0
 40
0
 40
1
 40
1
 40
1
 40
1
 10
3.919632
 20
-0.110193
 30
0.0
 10
3.919632
 20
-0.155961
 30
0.0
 10
3.931023
 20
-0.191626
 30
0.0
 10
3.953803
 20
-0.217186
 30
0.0
  0
SPLINE
  5
369
100
AcDbEntity
  8
Capa_1
 62
7
100
AcDbSpline
 70
8
 71
3
 72
8
 73
4
 74
0
 40
0
 40
0
 40
0
 40
0
 40
1
 40
1
 40
1
 40
1
 10
3.953803
 20
-0.217186
 30
0.0
 10
3.976584
 20
-0.242522
 30
0.0
 10
4.009477
 20
-0.255190
 30
0.0
 10
4.052484
 20
-0.255190
 30
0.0
  0
SPLINE
  5
36a
100
AcDbEntity
  8
Capa_1
 62
7
100
AcDbSpline
 70
8
 71
3
 72
8
 73
4
 74
0
 40
0
 40
0
 40
0
 40
0
 40
1
 40
1
 40
1
 40
1
 10
4.052484
 20
-0.255190
 30
0.0
 10
4.072710
 20
-0.255190
 30
0.0
 10
4.091871
 20
-0.252806
 30
0.0
 10
4.109968
 20
-0.248039
 30
0.0
  0
SPLINE
  5
36b
100
AcDbEntity
  8
Capa_1
 62
7
100
AcDbSpline
 70
8
 71
3
 72
8
 73
4
 74
0
 40
0
 40
0
 40
0
 40
0
 40
1
 40
1
 40
1
 40
1
 10
4.109968
 20
-0.248039
 30
0.0
 10
4.128278
 20
-0.243271
 30
0.0
 10
4.144884
 20
-0.237176
 30
0.0
 10
4.159788
 20
-0.229752
 30
0.0
  0
SPLINE
  5
36c
100
AcDbEntity
  8
Capa_1
 62
7
100
AcDbSpline
 70
8
 71
3
 72
8
 73
4
 74
0
 40
0
 40
0
 40
0
 40
0
 40
1
 40
1
 40
1
 40
1
 10
4.159788
 20
-0.229752
 30
0.0
 10
4.173627
 20
-0.222873
 30
0.0
 10
4.186082
 20
-0.215654
 30
0.0
 10
4.197152
 20
-0.208094
 30
0.0
  0
SPLINE
  5
36d
100
AcDbEntity
  8
Capa_1
 62
7
100
AcDbSpline
 70
8
 71
3
 72
8
 73
4
 74
0
 40
0
 40
0
 40
0
 40
0
 40
1
 40
1
 40
1
 40
1
 10
4.197152
 20
-0.208094
 30
0.0
 10
4.208223
 20
-0.200534
 30
0.0
 10
4.217697
 20
-0.193553
 30
0.0
 10
4.225575
 20
-0.187151
 30
0.0
  0
LWPOLYLINE
  5
36e
100
AcDbEntity
  8
Capa_1
 62
7
100
AcDbPolyline
 90
3
 70
0
 10
4.291998
 20
0.160185
 30
0.0
 10
4.277627
 20
0.085506
 30
0.0
 10
4.272840
 20
0.085506
 30
0.0
  0
SPLINE
  5
36f
100
AcDbEntity
  8
Capa_1
 62
7
100
AcDbSpline
 70
8
 71
3
 72
8
 73
4
 74
0
 40
0
 40
0
 40
0
 40
0
 40
1
 40
1
 40
1
 40
1
 10
4.215039
 20
-0.263771
 30
0.0
 10
4.192684
 20
-0.275554
 30
0.0
 10
4.166923
 20
-0.286213
 30
0.0
 10
4.137755
 20
-0.295748
 30
0.0
  0
SPLINE
  5
370
100
AcDbEntity
  8
Capa_1
 62
7
100
AcDbSpline
 70
8
 71
3
 72
8
 73
4
 74
0
 40
0
 40
0
 40
0
 40
0
 40
1
 40
1
 40
1
 40
1
 10
4.137755
 20
-0.295748
 30
0.0
 10
4.108800
 20
-0.305078
 30
0.0
 10
4.077929
 20
-0.309744
 30
0.0
 10
4.045142
 20
-0.309744
 30
0.0
  0
LWPOLYLINE
  5
371
100
AcDbEntity
  8
Capa_1
 62
7
100
AcDbPolyline
 90
3
 70
0
 10
4.225575
 20
-0.187151
 30
0.0
 10
4.230049
 20
-0.187151
 30
0.0
 10
4.215039
 20
-0.263771
 30
0.0
  0
LWPOLYLINE
  5
372
100
AcDbEntity
  8
Capa_1
 62
7
100
AcDbPolyline
 90
2
 70
0
 10
4.045142
 20
-0.309744
 30
0.0
 10
4.045136
 20
-0.310469
 30
0.0
  0
LWPOLYLINE
  5
373
100
AcDbEntity
  8
Capa_1
 62
7
100
AcDbPolyline
 90
6
 70
1
 10
4.590277
 20
-0.301469
 30
0.0
 10
4.289124
 20
-0.301469
 30
0.0
 10
4.398983
 20
0.194818
 30
0.0
 10
4.462854
 20
0.194818
 30
0.0
 10
4.365450
 20
-0.245147
 30
0.0
 10
4.602732
 20
-0.245147
 30
0.0
  0
LWPOLYLINE
  5
374
100
AcDbEntity
  8
Capa_1
 62
7
100
AcDbPolyline
 90
4
 70
1
 10
2.715358
 20
9.102260
 30
0.0
 10
5.369546
 20
9.102260
 30
0.0
 10
5.369546
 20
-0.750121
 30
0.0
 10
2.715358
 20
-0.750121
 30
0.0
  0
ENDSEC
  0
SECTION
  2
OBJECTS
  0
DICTIONARY
  5
C
330
0
100
AcDbDictionary
  3
ACAD_GROUP
350
D
  3
ACAD_MLINESTYLE
350
17
  0
DICTIONARY
  5
D
330
C
100
AcDbDictionary
  0
DICTIONARY
  5
1A
330
C
100
AcDbDictionary
  0
DICTIONARY
  5
17
330
C
100
AcDbDictionary
  3
STANDARD
350
18
  0
DICTIONARY
  5
19
330
C
100
AcDbDictionary
  0
ENDSEC
  0
EOF
