M48
;DRILL file {KiCad (5.0.0)} date 01/09/19 16:41:55
;FORMAT={-:-/ absolute / metric / decimal}
FMAT,2
METRIC,TZ
T1C0.300
T2C0.500
T3C0.600
T4C0.750
T5C0.800
T6C0.850
T7C1.000
T8C3.200
%
G90
G05
M71
T1
X-22.555Y-12.395
X-21.59Y9.144
X-20.777Y-14.356
X-20.76Y9.113
X-20.015Y13.818
X-19.4Y7.7
X-18.999Y10.109
X-18.593Y-14.356
X-16.916Y-12.751
X-16.459Y0.508
X-16.226Y-0.258
X-15.85Y-4.826
X-15.646Y8.89
X-15.596Y7.264
X-15.392Y-5.537
X-14.986Y6.553
X-14.986Y0.203
X-14.834Y-16.967
X-14.783Y-10.516
X-14.58Y-3.454
X-14.58Y-11.328
X-14.529Y2.845
X-14.529Y-13.716
X-13.97Y20.574
X-13.767Y1.422
X-13.767Y4.166
X-13.704Y4.988
X-13.005Y0.152
X-12.7Y-11.756
X-12.04Y0.914
X-12.04Y-15.596
X-11.887Y-12.497
X-11.836Y18.44
X-11.786Y-4.674
X-11.43Y-2.845
X-11.328Y4.877
X-11.328Y0.457
X-11.227Y-8.585
X-10.77Y-10.516
X-10.719Y-0.152
X-10.363Y-5.791
X-10.312Y-7.569
X-10.262Y-4.013
X-10.16Y22.86
X-10.109Y-12.649
X-9.883Y23.8
X-9.5Y-16.713
X-8.8Y-9.32
X-8.8Y-10.1
X-8.738Y19.152
X-8.534Y9.398
X-8.433Y-17.018
X-7.468Y-9.5
X-7.417Y21.844
X-7.417Y-14.935
X-7.285Y13.919
X-6.858Y-7.874
X-6.858Y-11.481
X-6.756Y4.42
X-6.756Y2.845
X-6.731Y-3.708
X-6.706Y0.203
X-6.655Y1.219
X-6.604Y5.74
X-5.486Y-20.472
X-5.283Y-7.315
X-5.283Y-11.176
X-4.877Y-17.983
X-4.775Y16.561
X-4.724Y14.732
X-4.724Y0.203
X-4.674Y-0.864
X-4.089Y5.74
X-3.912Y-12.192
X-3.81Y-13.056
X-3.556Y-18.339
X-3.556Y-16.713
X-3.353Y18.491
X-3.15Y21.83
X-2.946Y-5.486
X-2.87Y-2.591
X-2.845Y16.866
X-2.692Y25.552
X-2.642Y3.81
X-1.829Y26.264
X-1.626Y13.919
X-0.864Y14.732
X-0.711Y16.866
X-0.203Y23.876
X0.203Y4.013
X0.254Y-3.607
X0.406Y24.232
X0.406Y23.46
X0.508Y21.844
X0.914Y4.826
X1.194Y-7.696
X1.194Y-11.1
X1.422Y7.387
X1.524Y-15.697
X1.676Y4.267
X2.286Y6.045
X2.286Y-16.51
X2.388Y-14.834
X2.438Y17.729
X2.54Y-11.074
X2.743Y-2.54
X2.794Y-0.559
X3.2Y20.98
X3.2Y20.371
X3.206Y21.504
X3.251Y25.248
X3.302Y26.162
X3.353Y-12.903
X3.353Y-5.486
X3.454Y24.181
X3.454Y23.47
X3.81Y21.285
X3.81Y20.625
X4.42Y6.858
X4.826Y-4.166
X5.41Y8.128
X5.43Y-16.012
X5.486Y17.678
X5.537Y21.742
X5.572Y20.117
X5.639Y-4.674
X5.639Y-7.641
X5.821Y-14.478
X5.821Y-15.338
X5.842Y-2.032
X5.893Y-19.406
X5.944Y-22.301
X5.944Y-23.892
X6.126Y18.567
X6.248Y-16.51
X6.452Y-19.05
X6.452Y-19.761
X7.061Y-11.532
X7.286Y21.742
X7.315Y20.117
X7.366Y16.916
X7.76Y-9.77
X8.026Y18.593
X8.026Y12.243
X8.128Y-12.598
X8.23Y-24.486
X8.458Y9.55
X9.906Y-10.566
X9.957Y-15.342
X10.008Y-19.05
X10.008Y-19.761
X10.109Y-7.417
X10.109Y-16.358
X10.363Y2.769
X10.516Y-6.706
X10.82Y1.092
X11.786Y-10.922
X11.786Y-12.7
X12.7Y-9.195
X12.954Y6.858
X13.005Y8.128
X13.005Y5.588
X13.208Y18.593
X13.208Y17.202
X13.31Y-15.138
X13.411Y-3.607
X14.427Y-1.219
X14.63Y-4.674
X14.732Y-21.717
X15.037Y0.762
X15.443Y-2.642
X15.748Y-9.246
X15.748Y-10.109
X15.799Y-5.029
X15.93Y-5.994
X16.027Y2.159
X16.967Y-9.246
X17.399Y7.493
X17.577Y-10.109
X18.339Y-12.492
X19.99Y-9.322
X19.99Y-11.862
T2
X22.1Y-13.2
T4
X1.55Y25.3
X1.55Y18.7
X8.2Y-14.328
X8.2Y-20.928
T5
X-20.8Y6.35
X-20.8Y3.81
X-20.8Y1.27
X-20.8Y-1.27
X-20.8Y-3.81
X-20.8Y-6.35
X-18.1Y5.08
X-18.1Y2.54
X-18.1Y0.
X-18.1Y-2.54
X-18.1Y-5.08
X-18.1Y-7.62
X18.1Y5.08
X18.1Y2.54
X18.1Y0.
X18.1Y-2.54
X18.1Y-5.08
X18.1Y-7.62
X20.8Y6.35
X20.8Y3.81
X20.8Y1.27
X20.8Y-1.27
X20.8Y-3.81
X20.8Y-6.35
T6
X-10.355Y-19.958
X-5.719Y-21.831
T7
X24.206Y6.807
X24.206Y4.267
X24.206Y1.727
X24.206Y-0.813
X24.206Y-3.353
X24.206Y-5.893
T8
X-12.5Y13.5
X0.Y-20.2
X12.5Y13.5
T3
X-12.425Y-22.411G85X-12.163Y-21.762
G05
X-5.673Y-24.384G85X-5.935Y-25.033
G05
T0
M30
