G04 #@! TF.GenerationSoftware,KiCad,Pcbnew,(5.0.0)*
G04 #@! TF.CreationDate,2019-01-09T16:41:51-03:00*
G04 #@! TF.ProjectId,PCB_C,5043425F432E6B696361645F70636200,rev?*
G04 #@! TF.SameCoordinates,Original*
G04 #@! TF.FileFunction,Paste,Bot*
G04 #@! TF.FilePolarity,Positive*
%FSLAX46Y46*%
G04 Gerber Fmt 4.6, Leading zero omitted, Abs format (unit mm)*
G04 Created by KiCad (PCBNEW (5.0.0)) date 01/09/19 16:41:51*
%MOMM*%
%LPD*%
G01*
G04 APERTURE LIST*
%ADD10R,1.500000X0.600000*%
%ADD11C,0.100000*%
%ADD12C,0.590000*%
G04 APERTURE END LIST*
D10*
G04 #@! TO.C,U7*
X-1277600Y-3098800D03*
X-1277600Y-1828800D03*
X-1277600Y-558800D03*
X-1277600Y711200D03*
X-1277600Y1981200D03*
X-1277600Y3251200D03*
X-1277600Y4521200D03*
X4122400Y4521200D03*
X4122400Y3251200D03*
X4122400Y1981200D03*
X4122400Y711200D03*
X4122400Y-558800D03*
X4122400Y-1828800D03*
X4122400Y-3098800D03*
G04 #@! TD*
D11*
G04 #@! TO.C,C22*
G36*
X-22622242Y-11186510D02*
X-22607924Y-11188634D01*
X-22593883Y-11192151D01*
X-22580254Y-11197028D01*
X-22567169Y-11203217D01*
X-22554753Y-11210658D01*
X-22543127Y-11219281D01*
X-22532402Y-11229002D01*
X-22522681Y-11239727D01*
X-22514058Y-11251353D01*
X-22506617Y-11263769D01*
X-22500428Y-11276854D01*
X-22495551Y-11290483D01*
X-22492034Y-11304524D01*
X-22489910Y-11318842D01*
X-22489200Y-11333300D01*
X-22489200Y-11628300D01*
X-22489910Y-11642758D01*
X-22492034Y-11657076D01*
X-22495551Y-11671117D01*
X-22500428Y-11684746D01*
X-22506617Y-11697831D01*
X-22514058Y-11710247D01*
X-22522681Y-11721873D01*
X-22532402Y-11732598D01*
X-22543127Y-11742319D01*
X-22554753Y-11750942D01*
X-22567169Y-11758383D01*
X-22580254Y-11764572D01*
X-22593883Y-11769449D01*
X-22607924Y-11772966D01*
X-22622242Y-11775090D01*
X-22636700Y-11775800D01*
X-22981700Y-11775800D01*
X-22996158Y-11775090D01*
X-23010476Y-11772966D01*
X-23024517Y-11769449D01*
X-23038146Y-11764572D01*
X-23051231Y-11758383D01*
X-23063647Y-11750942D01*
X-23075273Y-11742319D01*
X-23085998Y-11732598D01*
X-23095719Y-11721873D01*
X-23104342Y-11710247D01*
X-23111783Y-11697831D01*
X-23117972Y-11684746D01*
X-23122849Y-11671117D01*
X-23126366Y-11657076D01*
X-23128490Y-11642758D01*
X-23129200Y-11628300D01*
X-23129200Y-11333300D01*
X-23128490Y-11318842D01*
X-23126366Y-11304524D01*
X-23122849Y-11290483D01*
X-23117972Y-11276854D01*
X-23111783Y-11263769D01*
X-23104342Y-11251353D01*
X-23095719Y-11239727D01*
X-23085998Y-11229002D01*
X-23075273Y-11219281D01*
X-23063647Y-11210658D01*
X-23051231Y-11203217D01*
X-23038146Y-11197028D01*
X-23024517Y-11192151D01*
X-23010476Y-11188634D01*
X-22996158Y-11186510D01*
X-22981700Y-11185800D01*
X-22636700Y-11185800D01*
X-22622242Y-11186510D01*
X-22622242Y-11186510D01*
G37*
D12*
X-22809200Y-11480800D03*
D11*
G36*
X-22622242Y-10216510D02*
X-22607924Y-10218634D01*
X-22593883Y-10222151D01*
X-22580254Y-10227028D01*
X-22567169Y-10233217D01*
X-22554753Y-10240658D01*
X-22543127Y-10249281D01*
X-22532402Y-10259002D01*
X-22522681Y-10269727D01*
X-22514058Y-10281353D01*
X-22506617Y-10293769D01*
X-22500428Y-10306854D01*
X-22495551Y-10320483D01*
X-22492034Y-10334524D01*
X-22489910Y-10348842D01*
X-22489200Y-10363300D01*
X-22489200Y-10658300D01*
X-22489910Y-10672758D01*
X-22492034Y-10687076D01*
X-22495551Y-10701117D01*
X-22500428Y-10714746D01*
X-22506617Y-10727831D01*
X-22514058Y-10740247D01*
X-22522681Y-10751873D01*
X-22532402Y-10762598D01*
X-22543127Y-10772319D01*
X-22554753Y-10780942D01*
X-22567169Y-10788383D01*
X-22580254Y-10794572D01*
X-22593883Y-10799449D01*
X-22607924Y-10802966D01*
X-22622242Y-10805090D01*
X-22636700Y-10805800D01*
X-22981700Y-10805800D01*
X-22996158Y-10805090D01*
X-23010476Y-10802966D01*
X-23024517Y-10799449D01*
X-23038146Y-10794572D01*
X-23051231Y-10788383D01*
X-23063647Y-10780942D01*
X-23075273Y-10772319D01*
X-23085998Y-10762598D01*
X-23095719Y-10751873D01*
X-23104342Y-10740247D01*
X-23111783Y-10727831D01*
X-23117972Y-10714746D01*
X-23122849Y-10701117D01*
X-23126366Y-10687076D01*
X-23128490Y-10672758D01*
X-23129200Y-10658300D01*
X-23129200Y-10363300D01*
X-23128490Y-10348842D01*
X-23126366Y-10334524D01*
X-23122849Y-10320483D01*
X-23117972Y-10306854D01*
X-23111783Y-10293769D01*
X-23104342Y-10281353D01*
X-23095719Y-10269727D01*
X-23085998Y-10259002D01*
X-23075273Y-10249281D01*
X-23063647Y-10240658D01*
X-23051231Y-10233217D01*
X-23038146Y-10227028D01*
X-23024517Y-10222151D01*
X-23010476Y-10218634D01*
X-22996158Y-10216510D01*
X-22981700Y-10215800D01*
X-22636700Y-10215800D01*
X-22622242Y-10216510D01*
X-22622242Y-10216510D01*
G37*
D12*
X-22809200Y-10510800D03*
G04 #@! TD*
M02*
