G04 #@! TF.GenerationSoftware,KiCad,Pcbnew,(5.0.0)*
G04 #@! TF.CreationDate,2019-01-10T03:08:01-03:00*
G04 #@! TF.ProjectId,EstacionTerrena,4573746163696F6E54657272656E612E,rev?*
G04 #@! TF.SameCoordinates,Original*
G04 #@! TF.FileFunction,Soldermask,Top*
G04 #@! TF.FilePolarity,Negative*
%FSLAX46Y46*%
G04 Gerber Fmt 4.6, Leading zero omitted, Abs format (unit mm)*
G04 Created by KiCad (PCBNEW (5.0.0)) date 01/10/19 03:08:01*
%MOMM*%
%LPD*%
G01*
G04 APERTURE LIST*
%ADD10C,0.100000*%
G04 APERTURE END LIST*
D10*
G36*
X36991743Y-22730660D02*
X37610503Y-22986958D01*
X38167377Y-23359050D01*
X38640950Y-23832623D01*
X39013042Y-24389497D01*
X39269340Y-25008257D01*
X39400000Y-25665128D01*
X39400000Y-26334872D01*
X39269340Y-26991743D01*
X39013042Y-27610503D01*
X38640950Y-28167377D01*
X38167377Y-28640950D01*
X37610503Y-29013042D01*
X36991743Y-29269340D01*
X36334872Y-29400000D01*
X35665128Y-29400000D01*
X35008257Y-29269340D01*
X34389497Y-29013042D01*
X33832623Y-28640950D01*
X33359050Y-28167377D01*
X32986958Y-27610503D01*
X32730660Y-26991743D01*
X32600000Y-26334872D01*
X32600000Y-25665128D01*
X32730660Y-25008257D01*
X32986958Y-24389497D01*
X33359050Y-23832623D01*
X33832623Y-23359050D01*
X34389497Y-22986958D01*
X35008257Y-22730660D01*
X35665128Y-22600000D01*
X36334872Y-22600000D01*
X36991743Y-22730660D01*
X36991743Y-22730660D01*
G37*
G36*
X4991743Y-22730660D02*
X5610503Y-22986958D01*
X6167377Y-23359050D01*
X6640950Y-23832623D01*
X7013042Y-24389497D01*
X7269340Y-25008257D01*
X7400000Y-25665128D01*
X7400000Y-26334872D01*
X7269340Y-26991743D01*
X7013042Y-27610503D01*
X6640950Y-28167377D01*
X6167377Y-28640950D01*
X5610503Y-29013042D01*
X4991743Y-29269340D01*
X4334872Y-29400000D01*
X3665128Y-29400000D01*
X3008257Y-29269340D01*
X2389497Y-29013042D01*
X1832623Y-28640950D01*
X1359050Y-28167377D01*
X986958Y-27610503D01*
X730660Y-26991743D01*
X600000Y-26334872D01*
X600000Y-25665128D01*
X730660Y-25008257D01*
X986958Y-24389497D01*
X1359050Y-23832623D01*
X1832623Y-23359050D01*
X2389497Y-22986958D01*
X3008257Y-22730660D01*
X3665128Y-22600000D01*
X4334872Y-22600000D01*
X4991743Y-22730660D01*
X4991743Y-22730660D01*
G37*
G36*
X19822400Y-28723400D02*
X16522400Y-28723400D01*
X16522400Y-25923400D01*
X19822400Y-25923400D01*
X19822400Y-28723400D01*
X19822400Y-28723400D01*
G37*
G36*
X21388174Y-26347548D02*
X21422768Y-26358042D01*
X21454641Y-26375078D01*
X21482587Y-26398013D01*
X21505522Y-26425959D01*
X21522558Y-26457832D01*
X21533052Y-26492426D01*
X21537200Y-26534541D01*
X21537200Y-27142259D01*
X21533052Y-27184374D01*
X21522558Y-27218968D01*
X21501413Y-27258528D01*
X21497443Y-27264469D01*
X21488064Y-27287108D01*
X21483283Y-27311141D01*
X21483281Y-27335645D01*
X21488060Y-27359679D01*
X21497437Y-27382318D01*
X21501405Y-27388258D01*
X21522558Y-27427832D01*
X21533052Y-27462426D01*
X21537200Y-27504541D01*
X21537200Y-28112259D01*
X21533052Y-28154374D01*
X21522558Y-28188968D01*
X21505522Y-28220841D01*
X21482587Y-28248787D01*
X21454641Y-28271722D01*
X21422768Y-28288758D01*
X21388174Y-28299252D01*
X21346059Y-28303400D01*
X20688341Y-28303400D01*
X20646226Y-28299252D01*
X20611632Y-28288758D01*
X20579759Y-28271722D01*
X20551813Y-28248787D01*
X20528878Y-28220841D01*
X20511842Y-28188968D01*
X20501348Y-28154374D01*
X20497200Y-28112259D01*
X20497200Y-27504541D01*
X20501348Y-27462426D01*
X20511842Y-27427832D01*
X20532987Y-27388272D01*
X20536957Y-27382331D01*
X20546336Y-27359692D01*
X20551117Y-27335659D01*
X20551119Y-27311155D01*
X20546340Y-27287121D01*
X20536963Y-27264482D01*
X20532995Y-27258542D01*
X20511842Y-27218968D01*
X20501348Y-27184374D01*
X20497200Y-27142259D01*
X20497200Y-26534541D01*
X20501348Y-26492426D01*
X20511842Y-26457832D01*
X20528878Y-26425959D01*
X20551813Y-26398013D01*
X20579759Y-26375078D01*
X20611632Y-26358042D01*
X20646226Y-26347548D01*
X20688341Y-26343400D01*
X21346059Y-26343400D01*
X21388174Y-26347548D01*
X21388174Y-26347548D01*
G37*
G36*
X15241374Y-26271248D02*
X15275968Y-26281742D01*
X15307841Y-26298778D01*
X15335787Y-26321713D01*
X15358722Y-26349659D01*
X15375758Y-26381532D01*
X15386252Y-26416126D01*
X15390400Y-26458241D01*
X15390400Y-27065959D01*
X15386252Y-27108074D01*
X15375758Y-27142668D01*
X15354613Y-27182228D01*
X15350643Y-27188169D01*
X15341264Y-27210808D01*
X15336483Y-27234841D01*
X15336481Y-27259345D01*
X15341260Y-27283379D01*
X15350637Y-27306018D01*
X15354605Y-27311958D01*
X15375758Y-27351532D01*
X15386252Y-27386126D01*
X15390400Y-27428241D01*
X15390400Y-28035959D01*
X15386252Y-28078074D01*
X15375758Y-28112668D01*
X15358722Y-28144541D01*
X15335787Y-28172487D01*
X15307841Y-28195422D01*
X15275968Y-28212458D01*
X15241374Y-28222952D01*
X15199259Y-28227100D01*
X14541541Y-28227100D01*
X14499426Y-28222952D01*
X14464832Y-28212458D01*
X14432959Y-28195422D01*
X14405013Y-28172487D01*
X14382078Y-28144541D01*
X14365042Y-28112668D01*
X14354548Y-28078074D01*
X14350400Y-28035959D01*
X14350400Y-27428241D01*
X14354548Y-27386126D01*
X14365042Y-27351532D01*
X14386187Y-27311972D01*
X14390157Y-27306031D01*
X14399536Y-27283392D01*
X14404317Y-27259359D01*
X14404319Y-27234855D01*
X14399540Y-27210821D01*
X14390163Y-27188182D01*
X14386195Y-27182242D01*
X14365042Y-27142668D01*
X14354548Y-27108074D01*
X14350400Y-27065959D01*
X14350400Y-26458241D01*
X14354548Y-26416126D01*
X14365042Y-26381532D01*
X14382078Y-26349659D01*
X14405013Y-26321713D01*
X14432959Y-26298778D01*
X14464832Y-26281742D01*
X14499426Y-26271248D01*
X14541541Y-26267100D01*
X15199259Y-26267100D01*
X15241374Y-26271248D01*
X15241374Y-26271248D01*
G37*
G36*
X9936000Y-24195408D02*
X9985009Y-24195408D01*
X10081142Y-24214530D01*
X10171698Y-24252039D01*
X10253197Y-24306495D01*
X10322505Y-24375803D01*
X10376961Y-24457302D01*
X10414470Y-24547858D01*
X10433592Y-24643991D01*
X10433592Y-24693000D01*
X10436000Y-24693000D01*
X10436000Y-25243000D01*
X10336624Y-25243000D01*
X10347612Y-25256388D01*
X10366554Y-25271934D01*
X10388165Y-25283485D01*
X10411614Y-25290598D01*
X10436000Y-25293000D01*
X10636000Y-25293000D01*
X10636000Y-26693000D01*
X10436000Y-26693000D01*
X10411614Y-26695402D01*
X10388165Y-26702515D01*
X10366554Y-26714066D01*
X10347612Y-26729612D01*
X10336624Y-26743000D01*
X10436000Y-26743000D01*
X10436000Y-27293000D01*
X10433592Y-27293000D01*
X10433592Y-27342009D01*
X10414470Y-27438142D01*
X10376961Y-27528698D01*
X10322505Y-27610197D01*
X10253197Y-27679505D01*
X10171698Y-27733961D01*
X10081142Y-27771470D01*
X9985009Y-27790592D01*
X9936000Y-27790592D01*
X9936000Y-27793000D01*
X9436000Y-27793000D01*
X9436000Y-27790592D01*
X9386991Y-27790592D01*
X9290858Y-27771470D01*
X9200302Y-27733961D01*
X9118803Y-27679505D01*
X9049495Y-27610197D01*
X8995039Y-27528698D01*
X8957530Y-27438142D01*
X8938408Y-27342009D01*
X8938408Y-27293000D01*
X8936000Y-27293000D01*
X8936000Y-26743000D01*
X9035376Y-26743000D01*
X9024388Y-26729612D01*
X9005446Y-26714066D01*
X8983835Y-26702515D01*
X8960386Y-26695402D01*
X8936000Y-26693000D01*
X8736000Y-26693000D01*
X8736000Y-25293000D01*
X8936000Y-25293000D01*
X8960386Y-25290598D01*
X8983835Y-25283485D01*
X9005446Y-25271934D01*
X9024388Y-25256388D01*
X9035376Y-25243000D01*
X8936000Y-25243000D01*
X8936000Y-24693000D01*
X8938408Y-24693000D01*
X8938408Y-24643991D01*
X8957530Y-24547858D01*
X8995039Y-24457302D01*
X9049495Y-24375803D01*
X9118803Y-24306495D01*
X9200302Y-24252039D01*
X9290858Y-24214530D01*
X9386991Y-24195408D01*
X9436000Y-24195408D01*
X9436000Y-24193000D01*
X9936000Y-24193000D01*
X9936000Y-24195408D01*
X9936000Y-24195408D01*
G37*
G36*
X22556574Y-23248748D02*
X22591168Y-23259242D01*
X22623041Y-23276278D01*
X22650987Y-23299213D01*
X22673922Y-23327159D01*
X22690958Y-23359032D01*
X22701452Y-23393626D01*
X22705600Y-23435741D01*
X22705600Y-24043459D01*
X22701452Y-24085574D01*
X22690958Y-24120168D01*
X22669813Y-24159728D01*
X22665843Y-24165669D01*
X22656464Y-24188308D01*
X22651683Y-24212341D01*
X22651681Y-24236845D01*
X22656460Y-24260879D01*
X22665837Y-24283518D01*
X22669805Y-24289458D01*
X22690958Y-24329032D01*
X22701452Y-24363626D01*
X22705600Y-24405741D01*
X22705600Y-25013459D01*
X22701452Y-25055574D01*
X22690958Y-25090168D01*
X22673922Y-25122041D01*
X22650987Y-25149987D01*
X22623041Y-25172922D01*
X22591168Y-25189958D01*
X22556574Y-25200452D01*
X22514459Y-25204600D01*
X21856741Y-25204600D01*
X21814626Y-25200452D01*
X21780032Y-25189958D01*
X21748159Y-25172922D01*
X21720213Y-25149987D01*
X21697278Y-25122041D01*
X21680242Y-25090168D01*
X21669748Y-25055574D01*
X21665600Y-25013459D01*
X21665600Y-24405741D01*
X21669748Y-24363626D01*
X21680242Y-24329032D01*
X21701387Y-24289472D01*
X21705357Y-24283531D01*
X21714736Y-24260892D01*
X21719517Y-24236859D01*
X21719519Y-24212355D01*
X21714740Y-24188321D01*
X21705363Y-24165682D01*
X21701395Y-24159742D01*
X21680242Y-24120168D01*
X21669748Y-24085574D01*
X21665600Y-24043459D01*
X21665600Y-23435741D01*
X21669748Y-23393626D01*
X21680242Y-23359032D01*
X21697278Y-23327159D01*
X21720213Y-23299213D01*
X21748159Y-23276278D01*
X21780032Y-23259242D01*
X21814626Y-23248748D01*
X21856741Y-23244600D01*
X22514459Y-23244600D01*
X22556574Y-23248748D01*
X22556574Y-23248748D01*
G37*
G36*
X19074874Y-23962748D02*
X19109468Y-23973242D01*
X19149028Y-23994387D01*
X19154969Y-23998357D01*
X19177608Y-24007736D01*
X19201641Y-24012517D01*
X19226145Y-24012519D01*
X19250179Y-24007740D01*
X19272818Y-23998363D01*
X19278758Y-23994395D01*
X19318332Y-23973242D01*
X19352926Y-23962748D01*
X19395041Y-23958600D01*
X20002759Y-23958600D01*
X20044874Y-23962748D01*
X20079468Y-23973242D01*
X20111341Y-23990278D01*
X20139287Y-24013213D01*
X20162222Y-24041159D01*
X20179258Y-24073032D01*
X20189752Y-24107626D01*
X20193900Y-24149741D01*
X20193900Y-24807459D01*
X20189752Y-24849574D01*
X20179258Y-24884168D01*
X20162222Y-24916041D01*
X20139287Y-24943987D01*
X20111341Y-24966922D01*
X20079468Y-24983958D01*
X20044874Y-24994452D01*
X20002759Y-24998600D01*
X19395041Y-24998600D01*
X19352926Y-24994452D01*
X19318332Y-24983958D01*
X19278772Y-24962813D01*
X19272831Y-24958843D01*
X19250192Y-24949464D01*
X19226159Y-24944683D01*
X19201655Y-24944681D01*
X19177621Y-24949460D01*
X19154982Y-24958837D01*
X19149042Y-24962805D01*
X19109468Y-24983958D01*
X19074874Y-24994452D01*
X19032759Y-24998600D01*
X18425041Y-24998600D01*
X18382926Y-24994452D01*
X18348332Y-24983958D01*
X18316459Y-24966922D01*
X18288513Y-24943987D01*
X18265578Y-24916041D01*
X18248542Y-24884168D01*
X18238048Y-24849574D01*
X18233900Y-24807459D01*
X18233900Y-24149741D01*
X18238048Y-24107626D01*
X18248542Y-24073032D01*
X18265578Y-24041159D01*
X18288513Y-24013213D01*
X18316459Y-23990278D01*
X18348332Y-23973242D01*
X18382926Y-23962748D01*
X18425041Y-23958600D01*
X19032759Y-23958600D01*
X19074874Y-23962748D01*
X19074874Y-23962748D01*
G37*
G36*
X7990183Y-22619900D02*
X8117574Y-22672668D01*
X8232225Y-22749275D01*
X8329725Y-22846775D01*
X8406332Y-22961426D01*
X8459100Y-23088817D01*
X8486000Y-23224055D01*
X8486000Y-23361945D01*
X8459100Y-23497183D01*
X8406332Y-23624574D01*
X8329725Y-23739225D01*
X8232225Y-23836725D01*
X8117574Y-23913332D01*
X7990183Y-23966100D01*
X7854945Y-23993000D01*
X7717055Y-23993000D01*
X7581817Y-23966100D01*
X7454426Y-23913332D01*
X7339775Y-23836725D01*
X7242275Y-23739225D01*
X7165668Y-23624574D01*
X7112900Y-23497183D01*
X7086000Y-23361945D01*
X7086000Y-23224055D01*
X7112900Y-23088817D01*
X7165668Y-22961426D01*
X7242275Y-22846775D01*
X7339775Y-22749275D01*
X7454426Y-22672668D01*
X7581817Y-22619900D01*
X7717055Y-22593000D01*
X7854945Y-22593000D01*
X7990183Y-22619900D01*
X7990183Y-22619900D01*
G37*
G36*
X19319200Y-18534800D02*
X19321602Y-18559186D01*
X19328715Y-18582635D01*
X19340266Y-18604246D01*
X19355812Y-18623188D01*
X19374754Y-18638734D01*
X19396365Y-18650285D01*
X19419814Y-18657398D01*
X19421442Y-18657558D01*
X19421602Y-18659186D01*
X19428715Y-18682635D01*
X19440266Y-18704246D01*
X19455812Y-18723188D01*
X19474754Y-18738734D01*
X19496365Y-18750285D01*
X19519814Y-18757398D01*
X19544200Y-18759800D01*
X20569200Y-18759800D01*
X20569200Y-21459800D01*
X19544200Y-21459800D01*
X19519814Y-21462202D01*
X19496365Y-21469315D01*
X19474754Y-21480866D01*
X19455812Y-21496412D01*
X19440266Y-21515354D01*
X19428715Y-21536965D01*
X19421602Y-21560414D01*
X19421442Y-21562042D01*
X19419814Y-21562202D01*
X19396365Y-21569315D01*
X19374754Y-21580866D01*
X19355812Y-21596412D01*
X19340266Y-21615354D01*
X19328715Y-21636965D01*
X19321602Y-21660414D01*
X19319200Y-21684800D01*
X19319200Y-22709800D01*
X16619200Y-22709800D01*
X16619200Y-21684800D01*
X16616798Y-21660414D01*
X16609685Y-21636965D01*
X16598134Y-21615354D01*
X16582588Y-21596412D01*
X16563646Y-21580866D01*
X16542035Y-21569315D01*
X16518586Y-21562202D01*
X16516958Y-21562042D01*
X16516798Y-21560414D01*
X16509685Y-21536965D01*
X16498134Y-21515354D01*
X16482588Y-21496412D01*
X16463646Y-21480866D01*
X16442035Y-21469315D01*
X16418586Y-21462202D01*
X16394200Y-21459800D01*
X16011000Y-21459800D01*
X15986614Y-21462202D01*
X15963165Y-21469315D01*
X15941554Y-21480866D01*
X15922612Y-21496412D01*
X15907066Y-21515354D01*
X15895515Y-21536965D01*
X15888402Y-21560414D01*
X15886000Y-21584800D01*
X15886000Y-22993000D01*
X14486000Y-22993000D01*
X14486000Y-21593000D01*
X15244200Y-21593000D01*
X15268586Y-21590598D01*
X15292035Y-21583485D01*
X15313646Y-21571934D01*
X15332588Y-21556388D01*
X15348134Y-21537446D01*
X15359685Y-21515835D01*
X15366798Y-21492386D01*
X15369200Y-21468000D01*
X15369200Y-18759800D01*
X16394200Y-18759800D01*
X16418586Y-18757398D01*
X16442035Y-18750285D01*
X16463646Y-18738734D01*
X16482588Y-18723188D01*
X16498134Y-18704246D01*
X16509685Y-18682635D01*
X16516798Y-18659186D01*
X16516958Y-18657558D01*
X16518586Y-18657398D01*
X16542035Y-18650285D01*
X16563646Y-18638734D01*
X16582588Y-18623188D01*
X16598134Y-18604246D01*
X16609685Y-18582635D01*
X16616798Y-18559186D01*
X16619200Y-18534800D01*
X16619200Y-17509800D01*
X19319200Y-17509800D01*
X19319200Y-18534800D01*
X19319200Y-18534800D01*
G37*
G36*
X12800974Y-21625948D02*
X12835568Y-21636442D01*
X12875128Y-21657587D01*
X12881069Y-21661557D01*
X12903708Y-21670936D01*
X12927741Y-21675717D01*
X12952245Y-21675719D01*
X12976279Y-21670940D01*
X12998918Y-21661563D01*
X13004858Y-21657595D01*
X13044432Y-21636442D01*
X13079026Y-21625948D01*
X13121141Y-21621800D01*
X13728859Y-21621800D01*
X13770974Y-21625948D01*
X13805568Y-21636442D01*
X13837441Y-21653478D01*
X13865387Y-21676413D01*
X13888322Y-21704359D01*
X13905358Y-21736232D01*
X13915852Y-21770826D01*
X13920000Y-21812941D01*
X13920000Y-22470659D01*
X13915852Y-22512774D01*
X13905358Y-22547368D01*
X13888322Y-22579241D01*
X13865387Y-22607187D01*
X13837441Y-22630122D01*
X13805568Y-22647158D01*
X13770974Y-22657652D01*
X13728859Y-22661800D01*
X13121141Y-22661800D01*
X13079026Y-22657652D01*
X13044432Y-22647158D01*
X13004872Y-22626013D01*
X12998931Y-22622043D01*
X12976292Y-22612664D01*
X12952259Y-22607883D01*
X12927755Y-22607881D01*
X12903721Y-22612660D01*
X12881082Y-22622037D01*
X12875142Y-22626005D01*
X12835568Y-22647158D01*
X12800974Y-22657652D01*
X12758859Y-22661800D01*
X12151141Y-22661800D01*
X12109026Y-22657652D01*
X12074432Y-22647158D01*
X12042559Y-22630122D01*
X12014613Y-22607187D01*
X11991678Y-22579241D01*
X11974642Y-22547368D01*
X11964148Y-22512774D01*
X11960000Y-22470659D01*
X11960000Y-21812941D01*
X11964148Y-21770826D01*
X11974642Y-21736232D01*
X11991678Y-21704359D01*
X12014613Y-21676413D01*
X12042559Y-21653478D01*
X12074432Y-21636442D01*
X12109026Y-21625948D01*
X12151141Y-21621800D01*
X12758859Y-21621800D01*
X12800974Y-21625948D01*
X12800974Y-21625948D01*
G37*
G36*
X29594774Y-20302348D02*
X29629368Y-20312842D01*
X29661241Y-20329878D01*
X29689187Y-20352813D01*
X29712122Y-20380759D01*
X29729158Y-20412632D01*
X29739652Y-20447226D01*
X29743800Y-20489341D01*
X29743800Y-21097059D01*
X29739652Y-21139174D01*
X29729158Y-21173768D01*
X29708013Y-21213328D01*
X29704043Y-21219269D01*
X29694664Y-21241908D01*
X29689883Y-21265941D01*
X29689881Y-21290445D01*
X29694660Y-21314479D01*
X29704037Y-21337118D01*
X29708005Y-21343058D01*
X29729158Y-21382632D01*
X29739652Y-21417226D01*
X29743800Y-21459341D01*
X29743800Y-22067059D01*
X29739652Y-22109174D01*
X29729158Y-22143768D01*
X29712122Y-22175641D01*
X29689187Y-22203587D01*
X29661241Y-22226522D01*
X29629368Y-22243558D01*
X29594774Y-22254052D01*
X29552659Y-22258200D01*
X28894941Y-22258200D01*
X28852826Y-22254052D01*
X28818232Y-22243558D01*
X28786359Y-22226522D01*
X28758413Y-22203587D01*
X28735478Y-22175641D01*
X28718442Y-22143768D01*
X28707948Y-22109174D01*
X28703800Y-22067059D01*
X28703800Y-21459341D01*
X28707948Y-21417226D01*
X28718442Y-21382632D01*
X28739587Y-21343072D01*
X28743557Y-21337131D01*
X28752936Y-21314492D01*
X28757717Y-21290459D01*
X28757719Y-21265955D01*
X28752940Y-21241921D01*
X28743563Y-21219282D01*
X28739595Y-21213342D01*
X28718442Y-21173768D01*
X28707948Y-21139174D01*
X28703800Y-21097059D01*
X28703800Y-20489341D01*
X28707948Y-20447226D01*
X28718442Y-20412632D01*
X28735478Y-20380759D01*
X28758413Y-20352813D01*
X28786359Y-20329878D01*
X28818232Y-20312842D01*
X28852826Y-20302348D01*
X28894941Y-20298200D01*
X29552659Y-20298200D01*
X29594774Y-20302348D01*
X29594774Y-20302348D01*
G37*
G36*
X9192222Y-20824117D02*
X9240185Y-20838666D01*
X9284375Y-20862286D01*
X9323118Y-20894082D01*
X9354914Y-20932825D01*
X9378534Y-20977015D01*
X9393083Y-21024978D01*
X9398600Y-21080991D01*
X9398600Y-21831209D01*
X9393083Y-21887222D01*
X9378534Y-21935185D01*
X9354914Y-21979375D01*
X9323118Y-22018118D01*
X9284375Y-22049914D01*
X9240185Y-22073534D01*
X9192222Y-22088083D01*
X9136209Y-22093600D01*
X8310991Y-22093600D01*
X8254978Y-22088083D01*
X8207015Y-22073534D01*
X8162825Y-22049914D01*
X8124082Y-22018118D01*
X8092286Y-21979375D01*
X8068666Y-21935185D01*
X8054117Y-21887222D01*
X8048600Y-21831209D01*
X8048600Y-21080991D01*
X8054117Y-21024978D01*
X8068666Y-20977015D01*
X8092286Y-20932825D01*
X8124082Y-20894082D01*
X8162825Y-20862286D01*
X8207015Y-20838666D01*
X8254978Y-20824117D01*
X8310991Y-20818600D01*
X9136209Y-20818600D01*
X9192222Y-20824117D01*
X9192222Y-20824117D01*
G37*
G36*
X7160222Y-20824117D02*
X7208185Y-20838666D01*
X7252375Y-20862286D01*
X7291118Y-20894082D01*
X7322914Y-20932825D01*
X7346534Y-20977015D01*
X7361083Y-21024978D01*
X7366600Y-21080991D01*
X7366600Y-21831209D01*
X7361083Y-21887222D01*
X7346534Y-21935185D01*
X7322914Y-21979375D01*
X7291118Y-22018118D01*
X7252375Y-22049914D01*
X7208185Y-22073534D01*
X7160222Y-22088083D01*
X7104209Y-22093600D01*
X6278991Y-22093600D01*
X6222978Y-22088083D01*
X6175015Y-22073534D01*
X6130825Y-22049914D01*
X6092082Y-22018118D01*
X6060286Y-21979375D01*
X6036666Y-21935185D01*
X6022117Y-21887222D01*
X6016600Y-21831209D01*
X6016600Y-21080991D01*
X6022117Y-21024978D01*
X6036666Y-20977015D01*
X6060286Y-20932825D01*
X6092082Y-20894082D01*
X6130825Y-20862286D01*
X6175015Y-20838666D01*
X6222978Y-20824117D01*
X6278991Y-20818600D01*
X7104209Y-20818600D01*
X7160222Y-20824117D01*
X7160222Y-20824117D01*
G37*
G36*
X24734600Y-21959800D02*
X22684600Y-21959800D01*
X22684600Y-20559800D01*
X24734600Y-20559800D01*
X24734600Y-21959800D01*
X24734600Y-21959800D01*
G37*
G36*
X12800974Y-19847948D02*
X12835568Y-19858442D01*
X12875128Y-19879587D01*
X12881069Y-19883557D01*
X12903708Y-19892936D01*
X12927741Y-19897717D01*
X12952245Y-19897719D01*
X12976279Y-19892940D01*
X12998918Y-19883563D01*
X13004858Y-19879595D01*
X13044432Y-19858442D01*
X13079026Y-19847948D01*
X13121141Y-19843800D01*
X13728859Y-19843800D01*
X13770974Y-19847948D01*
X13805568Y-19858442D01*
X13837441Y-19875478D01*
X13865387Y-19898413D01*
X13888322Y-19926359D01*
X13905358Y-19958232D01*
X13915852Y-19992826D01*
X13920000Y-20034941D01*
X13920000Y-20692659D01*
X13915852Y-20734774D01*
X13905358Y-20769368D01*
X13888322Y-20801241D01*
X13865387Y-20829187D01*
X13837441Y-20852122D01*
X13805568Y-20869158D01*
X13770974Y-20879652D01*
X13728859Y-20883800D01*
X13121141Y-20883800D01*
X13079026Y-20879652D01*
X13044432Y-20869158D01*
X13004872Y-20848013D01*
X12998931Y-20844043D01*
X12976292Y-20834664D01*
X12952259Y-20829883D01*
X12927755Y-20829881D01*
X12903721Y-20834660D01*
X12881082Y-20844037D01*
X12875142Y-20848005D01*
X12835568Y-20869158D01*
X12800974Y-20879652D01*
X12758859Y-20883800D01*
X12151141Y-20883800D01*
X12109026Y-20879652D01*
X12074432Y-20869158D01*
X12042559Y-20852122D01*
X12014613Y-20829187D01*
X11991678Y-20801241D01*
X11974642Y-20769368D01*
X11964148Y-20734774D01*
X11960000Y-20692659D01*
X11960000Y-20034941D01*
X11964148Y-19992826D01*
X11974642Y-19958232D01*
X11991678Y-19926359D01*
X12014613Y-19898413D01*
X12042559Y-19875478D01*
X12074432Y-19858442D01*
X12109026Y-19847948D01*
X12151141Y-19843800D01*
X12758859Y-19843800D01*
X12800974Y-19847948D01*
X12800974Y-19847948D01*
G37*
G36*
X7160222Y-19249117D02*
X7208185Y-19263666D01*
X7252375Y-19287286D01*
X7291118Y-19319082D01*
X7322914Y-19357825D01*
X7346534Y-19402015D01*
X7361083Y-19449978D01*
X7366600Y-19505991D01*
X7366600Y-20256209D01*
X7361083Y-20312222D01*
X7346534Y-20360185D01*
X7322914Y-20404375D01*
X7291118Y-20443118D01*
X7252375Y-20474914D01*
X7208185Y-20498534D01*
X7160222Y-20513083D01*
X7104209Y-20518600D01*
X6278991Y-20518600D01*
X6222978Y-20513083D01*
X6175015Y-20498534D01*
X6130825Y-20474914D01*
X6092082Y-20443118D01*
X6060286Y-20404375D01*
X6036666Y-20360185D01*
X6022117Y-20312222D01*
X6016600Y-20256209D01*
X6016600Y-19505991D01*
X6022117Y-19449978D01*
X6036666Y-19402015D01*
X6060286Y-19357825D01*
X6092082Y-19319082D01*
X6130825Y-19287286D01*
X6175015Y-19263666D01*
X6222978Y-19249117D01*
X6278991Y-19243600D01*
X7104209Y-19243600D01*
X7160222Y-19249117D01*
X7160222Y-19249117D01*
G37*
G36*
X9192222Y-19249117D02*
X9240185Y-19263666D01*
X9284375Y-19287286D01*
X9323118Y-19319082D01*
X9354914Y-19357825D01*
X9378534Y-19402015D01*
X9393083Y-19449978D01*
X9398600Y-19505991D01*
X9398600Y-20256209D01*
X9393083Y-20312222D01*
X9378534Y-20360185D01*
X9354914Y-20404375D01*
X9323118Y-20443118D01*
X9284375Y-20474914D01*
X9240185Y-20498534D01*
X9192222Y-20513083D01*
X9136209Y-20518600D01*
X8310991Y-20518600D01*
X8254978Y-20513083D01*
X8207015Y-20498534D01*
X8162825Y-20474914D01*
X8124082Y-20443118D01*
X8092286Y-20404375D01*
X8068666Y-20360185D01*
X8054117Y-20312222D01*
X8048600Y-20256209D01*
X8048600Y-19505991D01*
X8054117Y-19449978D01*
X8068666Y-19402015D01*
X8092286Y-19357825D01*
X8124082Y-19319082D01*
X8162825Y-19287286D01*
X8207015Y-19263666D01*
X8254978Y-19249117D01*
X8310991Y-19243600D01*
X9136209Y-19243600D01*
X9192222Y-19249117D01*
X9192222Y-19249117D01*
G37*
G36*
X24734600Y-20159800D02*
X22684600Y-20159800D01*
X22684600Y-18759800D01*
X24734600Y-18759800D01*
X24734600Y-20159800D01*
X24734600Y-20159800D01*
G37*
G36*
X28599774Y-18933548D02*
X28634368Y-18944042D01*
X28673928Y-18965187D01*
X28679869Y-18969157D01*
X28702508Y-18978536D01*
X28726541Y-18983317D01*
X28751045Y-18983319D01*
X28775079Y-18978540D01*
X28797718Y-18969163D01*
X28803658Y-18965195D01*
X28843232Y-18944042D01*
X28877826Y-18933548D01*
X28919941Y-18929400D01*
X29527659Y-18929400D01*
X29569774Y-18933548D01*
X29604368Y-18944042D01*
X29636241Y-18961078D01*
X29664187Y-18984013D01*
X29691504Y-19017298D01*
X29697470Y-19026228D01*
X29714797Y-19043556D01*
X29735170Y-19057171D01*
X29757809Y-19066549D01*
X29781842Y-19071331D01*
X29806347Y-19071332D01*
X29830380Y-19066552D01*
X29853020Y-19057176D01*
X29873395Y-19043563D01*
X29890723Y-19026236D01*
X29896691Y-19017305D01*
X29924013Y-18984013D01*
X29951959Y-18961078D01*
X29983832Y-18944042D01*
X30018426Y-18933548D01*
X30060541Y-18929400D01*
X30668259Y-18929400D01*
X30710374Y-18933548D01*
X30744968Y-18944042D01*
X30784528Y-18965187D01*
X30790469Y-18969157D01*
X30813108Y-18978536D01*
X30837141Y-18983317D01*
X30861645Y-18983319D01*
X30885679Y-18978540D01*
X30908318Y-18969163D01*
X30914258Y-18965195D01*
X30953832Y-18944042D01*
X30988426Y-18933548D01*
X31030541Y-18929400D01*
X31638259Y-18929400D01*
X31680374Y-18933548D01*
X31714968Y-18944042D01*
X31746841Y-18961078D01*
X31774787Y-18984013D01*
X31797722Y-19011959D01*
X31814758Y-19043832D01*
X31825252Y-19078426D01*
X31829400Y-19120541D01*
X31829400Y-19778259D01*
X31825252Y-19820374D01*
X31814758Y-19854968D01*
X31797722Y-19886841D01*
X31774787Y-19914787D01*
X31746841Y-19937722D01*
X31714968Y-19954758D01*
X31680374Y-19965252D01*
X31638259Y-19969400D01*
X31030541Y-19969400D01*
X30988426Y-19965252D01*
X30953832Y-19954758D01*
X30914272Y-19933613D01*
X30908331Y-19929643D01*
X30885692Y-19920264D01*
X30861659Y-19915483D01*
X30837155Y-19915481D01*
X30813121Y-19920260D01*
X30790482Y-19929637D01*
X30784542Y-19933605D01*
X30744968Y-19954758D01*
X30710374Y-19965252D01*
X30668259Y-19969400D01*
X30060541Y-19969400D01*
X30018426Y-19965252D01*
X29983832Y-19954758D01*
X29951959Y-19937722D01*
X29924013Y-19914787D01*
X29896696Y-19881502D01*
X29890730Y-19872572D01*
X29873403Y-19855244D01*
X29853030Y-19841629D01*
X29830391Y-19832251D01*
X29806358Y-19827469D01*
X29781853Y-19827468D01*
X29757820Y-19832248D01*
X29735180Y-19841624D01*
X29714805Y-19855237D01*
X29697477Y-19872564D01*
X29691509Y-19881495D01*
X29664187Y-19914787D01*
X29636241Y-19937722D01*
X29604368Y-19954758D01*
X29569774Y-19965252D01*
X29527659Y-19969400D01*
X28919941Y-19969400D01*
X28877826Y-19965252D01*
X28843232Y-19954758D01*
X28803672Y-19933613D01*
X28797731Y-19929643D01*
X28775092Y-19920264D01*
X28751059Y-19915483D01*
X28726555Y-19915481D01*
X28702521Y-19920260D01*
X28679882Y-19929637D01*
X28673942Y-19933605D01*
X28634368Y-19954758D01*
X28599774Y-19965252D01*
X28557659Y-19969400D01*
X27949941Y-19969400D01*
X27907826Y-19965252D01*
X27873232Y-19954758D01*
X27841359Y-19937722D01*
X27813413Y-19914787D01*
X27790478Y-19886841D01*
X27773442Y-19854968D01*
X27762948Y-19820374D01*
X27758800Y-19778259D01*
X27758800Y-19120541D01*
X27762948Y-19078426D01*
X27773442Y-19043832D01*
X27790478Y-19011959D01*
X27813413Y-18984013D01*
X27841359Y-18961078D01*
X27873232Y-18944042D01*
X27907826Y-18933548D01*
X27949941Y-18929400D01*
X28557659Y-18929400D01*
X28599774Y-18933548D01*
X28599774Y-18933548D01*
G37*
G36*
X26354375Y-18920549D02*
X26388969Y-18931043D01*
X26428529Y-18952188D01*
X26434470Y-18956158D01*
X26457109Y-18965537D01*
X26481142Y-18970318D01*
X26505646Y-18970320D01*
X26529680Y-18965541D01*
X26552319Y-18956164D01*
X26558259Y-18952196D01*
X26597833Y-18931043D01*
X26632427Y-18920549D01*
X26674542Y-18916401D01*
X27282260Y-18916401D01*
X27324375Y-18920549D01*
X27358969Y-18931043D01*
X27390842Y-18948079D01*
X27418788Y-18971014D01*
X27441723Y-18998960D01*
X27458759Y-19030833D01*
X27469253Y-19065427D01*
X27473401Y-19107542D01*
X27473401Y-19765260D01*
X27469253Y-19807375D01*
X27458759Y-19841969D01*
X27441723Y-19873842D01*
X27418788Y-19901788D01*
X27390842Y-19924723D01*
X27358969Y-19941759D01*
X27324375Y-19952253D01*
X27282260Y-19956401D01*
X26674542Y-19956401D01*
X26632427Y-19952253D01*
X26597833Y-19941759D01*
X26558273Y-19920614D01*
X26552332Y-19916644D01*
X26529693Y-19907265D01*
X26505660Y-19902484D01*
X26481156Y-19902482D01*
X26457122Y-19907261D01*
X26434483Y-19916638D01*
X26428543Y-19920606D01*
X26388969Y-19941759D01*
X26354375Y-19952253D01*
X26312260Y-19956401D01*
X25704542Y-19956401D01*
X25662427Y-19952253D01*
X25627833Y-19941759D01*
X25595960Y-19924723D01*
X25568014Y-19901788D01*
X25545079Y-19873842D01*
X25528043Y-19841969D01*
X25517549Y-19807375D01*
X25513401Y-19765260D01*
X25513401Y-19107542D01*
X25517549Y-19065427D01*
X25528043Y-19030833D01*
X25545079Y-18998960D01*
X25568014Y-18971014D01*
X25595960Y-18948079D01*
X25627833Y-18931043D01*
X25662427Y-18920549D01*
X25704542Y-18916401D01*
X26312260Y-18916401D01*
X26354375Y-18920549D01*
X26354375Y-18920549D01*
G37*
G36*
X1897149Y-10707717D02*
X1936327Y-10711576D01*
X2011728Y-10734449D01*
X2087129Y-10757321D01*
X2226108Y-10831608D01*
X2347922Y-10931578D01*
X2447892Y-11053392D01*
X2522179Y-11192371D01*
X2527916Y-11211285D01*
X2537293Y-11233924D01*
X2550907Y-11254299D01*
X2568234Y-11271626D01*
X2579500Y-11279154D01*
X2579500Y-11454565D01*
X2580102Y-11466817D01*
X2583370Y-11500000D01*
X2580102Y-11533183D01*
X2579500Y-11545435D01*
X2579500Y-18454565D01*
X2580102Y-18466817D01*
X2583370Y-18500000D01*
X2580102Y-18533183D01*
X2579500Y-18545435D01*
X2579500Y-18720311D01*
X2578088Y-18721066D01*
X2559146Y-18736612D01*
X2543600Y-18755554D01*
X2532049Y-18777165D01*
X2527916Y-18788715D01*
X2522179Y-18807629D01*
X2447892Y-18946608D01*
X2347922Y-19068422D01*
X2226108Y-19168392D01*
X2087129Y-19242679D01*
X2030688Y-19259800D01*
X1936327Y-19288424D01*
X1897149Y-19292283D01*
X1818795Y-19300000D01*
X1040205Y-19300000D01*
X961851Y-19292283D01*
X922673Y-19288424D01*
X828312Y-19259800D01*
X771871Y-19242679D01*
X632892Y-19168392D01*
X511078Y-19068422D01*
X411108Y-18946608D01*
X336821Y-18807629D01*
X331084Y-18788715D01*
X321707Y-18766076D01*
X308093Y-18745701D01*
X290766Y-18728374D01*
X279500Y-18720846D01*
X279500Y-18545435D01*
X278898Y-18533183D01*
X275630Y-18500000D01*
X278898Y-18466817D01*
X279500Y-18454565D01*
X279500Y-11545435D01*
X278898Y-11533183D01*
X275630Y-11500000D01*
X278898Y-11466817D01*
X279500Y-11454565D01*
X279500Y-11279689D01*
X280912Y-11278934D01*
X299854Y-11263388D01*
X315400Y-11244446D01*
X326951Y-11222835D01*
X331084Y-11211285D01*
X336821Y-11192371D01*
X411108Y-11053392D01*
X511078Y-10931578D01*
X632892Y-10831608D01*
X771871Y-10757321D01*
X847272Y-10734449D01*
X922673Y-10711576D01*
X961851Y-10707717D01*
X1040205Y-10700000D01*
X1818795Y-10700000D01*
X1897149Y-10707717D01*
X1897149Y-10707717D01*
G37*
G36*
X33022547Y-16073922D02*
X33286433Y-16183227D01*
X33523924Y-16341913D01*
X33725887Y-16543876D01*
X33884573Y-16781367D01*
X33993878Y-17045253D01*
X34049600Y-17325386D01*
X34049600Y-17611014D01*
X33993878Y-17891147D01*
X33884573Y-18155033D01*
X33725887Y-18392524D01*
X33523924Y-18594487D01*
X33286433Y-18753173D01*
X33022547Y-18862478D01*
X32742414Y-18918200D01*
X32456786Y-18918200D01*
X32176653Y-18862478D01*
X31912767Y-18753173D01*
X31675276Y-18594487D01*
X31473313Y-18392524D01*
X31314627Y-18155033D01*
X31205322Y-17891147D01*
X31149600Y-17611014D01*
X31149600Y-17325386D01*
X31205322Y-17045253D01*
X31314627Y-16781367D01*
X31473313Y-16543876D01*
X31675276Y-16341913D01*
X31912767Y-16183227D01*
X32176653Y-16073922D01*
X32456786Y-16018200D01*
X32742414Y-16018200D01*
X33022547Y-16073922D01*
X33022547Y-16073922D01*
G37*
G36*
X38102547Y-16073922D02*
X38366433Y-16183227D01*
X38603924Y-16341913D01*
X38805887Y-16543876D01*
X38964573Y-16781367D01*
X39073878Y-17045253D01*
X39129600Y-17325386D01*
X39129600Y-17611014D01*
X39073878Y-17891147D01*
X38964573Y-18155033D01*
X38805887Y-18392524D01*
X38603924Y-18594487D01*
X38366433Y-18753173D01*
X38102547Y-18862478D01*
X37822414Y-18918200D01*
X37536786Y-18918200D01*
X37256653Y-18862478D01*
X36992767Y-18753173D01*
X36755276Y-18594487D01*
X36553313Y-18392524D01*
X36394627Y-18155033D01*
X36285322Y-17891147D01*
X36229600Y-17611014D01*
X36229600Y-17325386D01*
X36285322Y-17045253D01*
X36394627Y-16781367D01*
X36553313Y-16543876D01*
X36755276Y-16341913D01*
X36992767Y-16183227D01*
X37256653Y-16073922D01*
X37536786Y-16018200D01*
X37822414Y-16018200D01*
X38102547Y-16073922D01*
X38102547Y-16073922D01*
G37*
G36*
X10231730Y-17510277D02*
X10283210Y-17525893D01*
X10330642Y-17551246D01*
X10372227Y-17585373D01*
X10406354Y-17626958D01*
X10431707Y-17674390D01*
X10447323Y-17725870D01*
X10453200Y-17785540D01*
X10453200Y-18573260D01*
X10447323Y-18632930D01*
X10431707Y-18684410D01*
X10406354Y-18731842D01*
X10372227Y-18773427D01*
X10330642Y-18807554D01*
X10283210Y-18832907D01*
X10231730Y-18848523D01*
X10172060Y-18854400D01*
X9284340Y-18854400D01*
X9224670Y-18848523D01*
X9173190Y-18832907D01*
X9125758Y-18807554D01*
X9084173Y-18773427D01*
X9050046Y-18731842D01*
X9024693Y-18684410D01*
X9009077Y-18632930D01*
X9003200Y-18573260D01*
X9003200Y-17785540D01*
X9009077Y-17725870D01*
X9024693Y-17674390D01*
X9050046Y-17626958D01*
X9084173Y-17585373D01*
X9125758Y-17551246D01*
X9173190Y-17525893D01*
X9224670Y-17510277D01*
X9284340Y-17504400D01*
X10172060Y-17504400D01*
X10231730Y-17510277D01*
X10231730Y-17510277D01*
G37*
G36*
X11981730Y-17510277D02*
X12033210Y-17525893D01*
X12080642Y-17551246D01*
X12122227Y-17585373D01*
X12156354Y-17626958D01*
X12181707Y-17674390D01*
X12197323Y-17725870D01*
X12203200Y-17785540D01*
X12203200Y-18573260D01*
X12197323Y-18632930D01*
X12181707Y-18684410D01*
X12156354Y-18731842D01*
X12122227Y-18773427D01*
X12080642Y-18807554D01*
X12033210Y-18832907D01*
X11981730Y-18848523D01*
X11922060Y-18854400D01*
X11034340Y-18854400D01*
X10974670Y-18848523D01*
X10923190Y-18832907D01*
X10875758Y-18807554D01*
X10834173Y-18773427D01*
X10800046Y-18731842D01*
X10774693Y-18684410D01*
X10759077Y-18632930D01*
X10753200Y-18573260D01*
X10753200Y-17785540D01*
X10759077Y-17725870D01*
X10774693Y-17674390D01*
X10800046Y-17626958D01*
X10834173Y-17585373D01*
X10875758Y-17551246D01*
X10923190Y-17525893D01*
X10974670Y-17510277D01*
X11034340Y-17504400D01*
X11922060Y-17504400D01*
X11981730Y-17510277D01*
X11981730Y-17510277D01*
G37*
G36*
X6624930Y-17510277D02*
X6676410Y-17525893D01*
X6723842Y-17551246D01*
X6765427Y-17585373D01*
X6799554Y-17626958D01*
X6824907Y-17674390D01*
X6840523Y-17725870D01*
X6846400Y-17785540D01*
X6846400Y-18573260D01*
X6840523Y-18632930D01*
X6824907Y-18684410D01*
X6799554Y-18731842D01*
X6765427Y-18773427D01*
X6723842Y-18807554D01*
X6676410Y-18832907D01*
X6624930Y-18848523D01*
X6565260Y-18854400D01*
X5677540Y-18854400D01*
X5617870Y-18848523D01*
X5566390Y-18832907D01*
X5518958Y-18807554D01*
X5477373Y-18773427D01*
X5443246Y-18731842D01*
X5417893Y-18684410D01*
X5402277Y-18632930D01*
X5396400Y-18573260D01*
X5396400Y-17785540D01*
X5402277Y-17725870D01*
X5417893Y-17674390D01*
X5443246Y-17626958D01*
X5477373Y-17585373D01*
X5518958Y-17551246D01*
X5566390Y-17525893D01*
X5617870Y-17510277D01*
X5677540Y-17504400D01*
X6565260Y-17504400D01*
X6624930Y-17510277D01*
X6624930Y-17510277D01*
G37*
G36*
X8374930Y-17510277D02*
X8426410Y-17525893D01*
X8473842Y-17551246D01*
X8515427Y-17585373D01*
X8549554Y-17626958D01*
X8574907Y-17674390D01*
X8590523Y-17725870D01*
X8596400Y-17785540D01*
X8596400Y-18573260D01*
X8590523Y-18632930D01*
X8574907Y-18684410D01*
X8549554Y-18731842D01*
X8515427Y-18773427D01*
X8473842Y-18807554D01*
X8426410Y-18832907D01*
X8374930Y-18848523D01*
X8315260Y-18854400D01*
X7427540Y-18854400D01*
X7367870Y-18848523D01*
X7316390Y-18832907D01*
X7268958Y-18807554D01*
X7227373Y-18773427D01*
X7193246Y-18731842D01*
X7167893Y-18684410D01*
X7152277Y-18632930D01*
X7146400Y-18573260D01*
X7146400Y-17785540D01*
X7152277Y-17725870D01*
X7167893Y-17674390D01*
X7193246Y-17626958D01*
X7227373Y-17585373D01*
X7268958Y-17551246D01*
X7316390Y-17525893D01*
X7367870Y-17510277D01*
X7427540Y-17504400D01*
X8315260Y-17504400D01*
X8374930Y-17510277D01*
X8374930Y-17510277D01*
G37*
G36*
X29666574Y-17561948D02*
X29701168Y-17572442D01*
X29740728Y-17593587D01*
X29746669Y-17597557D01*
X29769308Y-17606936D01*
X29793341Y-17611717D01*
X29817845Y-17611719D01*
X29841879Y-17606940D01*
X29864518Y-17597563D01*
X29870458Y-17593595D01*
X29910032Y-17572442D01*
X29944626Y-17561948D01*
X29986741Y-17557800D01*
X30594459Y-17557800D01*
X30636574Y-17561948D01*
X30671168Y-17572442D01*
X30703041Y-17589478D01*
X30730987Y-17612413D01*
X30753922Y-17640359D01*
X30770958Y-17672232D01*
X30781452Y-17706826D01*
X30785600Y-17748941D01*
X30785600Y-18406659D01*
X30781452Y-18448774D01*
X30770958Y-18483368D01*
X30753922Y-18515241D01*
X30730987Y-18543187D01*
X30703041Y-18566122D01*
X30671168Y-18583158D01*
X30636574Y-18593652D01*
X30594459Y-18597800D01*
X29986741Y-18597800D01*
X29944626Y-18593652D01*
X29910032Y-18583158D01*
X29870472Y-18562013D01*
X29864531Y-18558043D01*
X29841892Y-18548664D01*
X29817859Y-18543883D01*
X29793355Y-18543881D01*
X29769321Y-18548660D01*
X29746682Y-18558037D01*
X29740742Y-18562005D01*
X29701168Y-18583158D01*
X29666574Y-18593652D01*
X29624459Y-18597800D01*
X29016741Y-18597800D01*
X28974626Y-18593652D01*
X28940032Y-18583158D01*
X28908159Y-18566122D01*
X28880213Y-18543187D01*
X28857278Y-18515241D01*
X28840242Y-18483368D01*
X28829748Y-18448774D01*
X28825600Y-18406659D01*
X28825600Y-17748941D01*
X28829748Y-17706826D01*
X28840242Y-17672232D01*
X28857278Y-17640359D01*
X28880213Y-17612413D01*
X28908159Y-17589478D01*
X28940032Y-17572442D01*
X28974626Y-17561948D01*
X29016741Y-17557800D01*
X29624459Y-17557800D01*
X29666574Y-17561948D01*
X29666574Y-17561948D01*
G37*
G36*
X4399311Y-11610546D02*
X4399314Y-11610547D01*
X4399313Y-11610547D01*
X4567652Y-11680275D01*
X4567653Y-11680276D01*
X4719156Y-11781507D01*
X4847993Y-11910344D01*
X4847995Y-11910347D01*
X4949225Y-12061848D01*
X4993357Y-12168393D01*
X5018954Y-12230189D01*
X5054500Y-12408894D01*
X5054500Y-12591106D01*
X5018954Y-12769811D01*
X5018953Y-12769813D01*
X4949225Y-12938152D01*
X4949224Y-12938153D01*
X4845603Y-13093233D01*
X4835491Y-13105554D01*
X4823940Y-13127165D01*
X4816827Y-13150614D01*
X4814425Y-13175000D01*
X4816827Y-13199386D01*
X4823940Y-13222835D01*
X4835491Y-13244446D01*
X4851037Y-13263388D01*
X4869979Y-13278934D01*
X4891590Y-13290485D01*
X4915039Y-13297598D01*
X4939425Y-13300000D01*
X5004500Y-13300000D01*
X5004500Y-16700000D01*
X4939425Y-16700000D01*
X4915039Y-16702402D01*
X4891590Y-16709515D01*
X4869979Y-16721066D01*
X4851037Y-16736612D01*
X4835491Y-16755554D01*
X4823940Y-16777165D01*
X4816827Y-16800614D01*
X4814425Y-16825000D01*
X4816827Y-16849386D01*
X4823940Y-16872835D01*
X4835491Y-16894446D01*
X4845603Y-16906767D01*
X4847995Y-16910347D01*
X4949225Y-17061848D01*
X4974992Y-17124055D01*
X5018954Y-17230189D01*
X5054500Y-17408894D01*
X5054500Y-17591106D01*
X5018954Y-17769811D01*
X5018953Y-17769813D01*
X4949225Y-17938152D01*
X4849360Y-18087611D01*
X4847993Y-18089656D01*
X4719156Y-18218493D01*
X4719153Y-18218495D01*
X4567652Y-18319725D01*
X4437448Y-18373657D01*
X4399311Y-18389454D01*
X4220606Y-18425000D01*
X4038394Y-18425000D01*
X3859689Y-18389454D01*
X3821552Y-18373657D01*
X3691348Y-18319725D01*
X3539847Y-18218495D01*
X3539844Y-18218493D01*
X3411007Y-18089656D01*
X3409640Y-18087611D01*
X3309775Y-17938152D01*
X3240047Y-17769813D01*
X3240046Y-17769811D01*
X3204500Y-17591106D01*
X3204500Y-17408894D01*
X3240046Y-17230189D01*
X3284008Y-17124055D01*
X3309775Y-17061848D01*
X3411005Y-16910347D01*
X3413397Y-16906767D01*
X3423509Y-16894446D01*
X3435060Y-16872835D01*
X3442173Y-16849386D01*
X3444575Y-16825000D01*
X3442173Y-16800614D01*
X3435060Y-16777165D01*
X3423509Y-16755554D01*
X3407963Y-16736612D01*
X3389021Y-16721066D01*
X3367410Y-16709515D01*
X3343961Y-16702402D01*
X3319575Y-16700000D01*
X3254500Y-16700000D01*
X3254500Y-13300000D01*
X3319575Y-13300000D01*
X3343961Y-13297598D01*
X3367410Y-13290485D01*
X3389021Y-13278934D01*
X3407963Y-13263388D01*
X3423509Y-13244446D01*
X3435060Y-13222835D01*
X3442173Y-13199386D01*
X3444575Y-13175000D01*
X3442173Y-13150614D01*
X3435060Y-13127165D01*
X3423509Y-13105554D01*
X3413397Y-13093233D01*
X3309776Y-12938153D01*
X3309775Y-12938152D01*
X3240047Y-12769813D01*
X3240046Y-12769811D01*
X3204500Y-12591106D01*
X3204500Y-12408894D01*
X3240046Y-12230189D01*
X3265643Y-12168393D01*
X3309775Y-12061848D01*
X3411005Y-11910347D01*
X3411007Y-11910344D01*
X3539844Y-11781507D01*
X3691347Y-11680276D01*
X3691348Y-11680275D01*
X3859687Y-11610547D01*
X3859686Y-11610547D01*
X3859689Y-11610546D01*
X4038394Y-11575000D01*
X4220606Y-11575000D01*
X4399311Y-11610546D01*
X4399311Y-11610546D01*
G37*
G36*
X15790183Y-16519900D02*
X15917574Y-16572668D01*
X16032225Y-16649275D01*
X16129725Y-16746775D01*
X16206332Y-16861426D01*
X16259100Y-16988817D01*
X16286000Y-17124055D01*
X16286000Y-17261945D01*
X16259100Y-17397183D01*
X16214688Y-17504400D01*
X16206332Y-17524574D01*
X16129726Y-17639224D01*
X16032224Y-17736726D01*
X16001859Y-17757015D01*
X15917574Y-17813332D01*
X15790183Y-17866100D01*
X15654945Y-17893000D01*
X15517055Y-17893000D01*
X15381817Y-17866100D01*
X15254426Y-17813332D01*
X15170141Y-17757015D01*
X15139776Y-17736726D01*
X15042274Y-17639224D01*
X14965668Y-17524574D01*
X14957312Y-17504400D01*
X14912900Y-17397183D01*
X14886000Y-17261945D01*
X14886000Y-17124055D01*
X14912900Y-16988817D01*
X14965668Y-16861426D01*
X15042275Y-16746775D01*
X15139775Y-16649275D01*
X15254426Y-16572668D01*
X15381817Y-16519900D01*
X15517055Y-16493000D01*
X15654945Y-16493000D01*
X15790183Y-16519900D01*
X15790183Y-16519900D01*
G37*
G36*
X30532174Y-15273148D02*
X30566768Y-15283642D01*
X30598641Y-15300678D01*
X30626587Y-15323613D01*
X30649522Y-15351559D01*
X30666558Y-15383432D01*
X30677052Y-15418026D01*
X30681200Y-15460141D01*
X30681200Y-16067859D01*
X30677052Y-16109974D01*
X30666558Y-16144568D01*
X30645413Y-16184128D01*
X30641443Y-16190069D01*
X30632064Y-16212708D01*
X30627283Y-16236741D01*
X30627281Y-16261245D01*
X30632060Y-16285279D01*
X30641437Y-16307918D01*
X30645405Y-16313858D01*
X30666558Y-16353432D01*
X30677052Y-16388026D01*
X30681200Y-16430141D01*
X30681200Y-17037859D01*
X30677052Y-17079974D01*
X30666558Y-17114568D01*
X30649522Y-17146441D01*
X30626587Y-17174387D01*
X30598641Y-17197322D01*
X30566768Y-17214358D01*
X30532174Y-17224852D01*
X30490059Y-17229000D01*
X29832341Y-17229000D01*
X29790226Y-17224852D01*
X29755632Y-17214358D01*
X29723759Y-17197322D01*
X29695813Y-17174387D01*
X29672878Y-17146441D01*
X29655842Y-17114568D01*
X29645348Y-17079974D01*
X29641200Y-17037859D01*
X29641200Y-16430141D01*
X29645348Y-16388026D01*
X29655842Y-16353432D01*
X29676987Y-16313872D01*
X29680957Y-16307931D01*
X29690336Y-16285292D01*
X29695117Y-16261259D01*
X29695119Y-16236755D01*
X29690340Y-16212721D01*
X29680963Y-16190082D01*
X29676995Y-16184142D01*
X29655842Y-16144568D01*
X29645348Y-16109974D01*
X29641200Y-16067859D01*
X29641200Y-15460141D01*
X29645348Y-15418026D01*
X29655842Y-15383432D01*
X29672878Y-15351559D01*
X29695813Y-15323613D01*
X29723759Y-15300678D01*
X29755632Y-15283642D01*
X29790226Y-15273148D01*
X29832341Y-15269000D01*
X30490059Y-15269000D01*
X30532174Y-15273148D01*
X30532174Y-15273148D01*
G37*
G36*
X20880174Y-14765148D02*
X20914768Y-14775642D01*
X20946641Y-14792678D01*
X20974587Y-14815613D01*
X20997522Y-14843559D01*
X21014558Y-14875432D01*
X21025052Y-14910026D01*
X21029200Y-14952141D01*
X21029200Y-15559859D01*
X21025052Y-15601974D01*
X21014558Y-15636568D01*
X20993413Y-15676128D01*
X20989443Y-15682069D01*
X20980064Y-15704708D01*
X20975283Y-15728741D01*
X20975281Y-15753245D01*
X20980060Y-15777279D01*
X20989437Y-15799918D01*
X20993405Y-15805858D01*
X21014558Y-15845432D01*
X21025052Y-15880026D01*
X21029200Y-15922141D01*
X21029200Y-16529859D01*
X21025052Y-16571974D01*
X21014558Y-16606568D01*
X20997522Y-16638441D01*
X20974587Y-16666387D01*
X20946641Y-16689322D01*
X20914768Y-16706358D01*
X20880174Y-16716852D01*
X20838059Y-16721000D01*
X20180341Y-16721000D01*
X20138226Y-16716852D01*
X20103632Y-16706358D01*
X20071759Y-16689322D01*
X20043813Y-16666387D01*
X20020878Y-16638441D01*
X20003842Y-16606568D01*
X19993348Y-16571974D01*
X19989200Y-16529859D01*
X19989200Y-15922141D01*
X19993348Y-15880026D01*
X20003842Y-15845432D01*
X20024987Y-15805872D01*
X20028957Y-15799931D01*
X20038336Y-15777292D01*
X20043117Y-15753259D01*
X20043119Y-15728755D01*
X20038340Y-15704721D01*
X20028963Y-15682082D01*
X20024995Y-15676142D01*
X20003842Y-15636568D01*
X19993348Y-15601974D01*
X19989200Y-15559859D01*
X19989200Y-14952141D01*
X19993348Y-14910026D01*
X20003842Y-14875432D01*
X20020878Y-14843559D01*
X20043813Y-14815613D01*
X20071759Y-14792678D01*
X20103632Y-14775642D01*
X20138226Y-14765148D01*
X20180341Y-14761000D01*
X20838059Y-14761000D01*
X20880174Y-14765148D01*
X20880174Y-14765148D01*
G37*
G36*
X22607374Y-14765148D02*
X22641968Y-14775642D01*
X22673841Y-14792678D01*
X22701787Y-14815613D01*
X22724722Y-14843559D01*
X22741758Y-14875432D01*
X22752252Y-14910026D01*
X22756400Y-14952141D01*
X22756400Y-15559859D01*
X22752252Y-15601974D01*
X22741758Y-15636568D01*
X22720613Y-15676128D01*
X22716643Y-15682069D01*
X22707264Y-15704708D01*
X22702483Y-15728741D01*
X22702481Y-15753245D01*
X22707260Y-15777279D01*
X22716637Y-15799918D01*
X22720605Y-15805858D01*
X22741758Y-15845432D01*
X22752252Y-15880026D01*
X22756400Y-15922141D01*
X22756400Y-16529859D01*
X22752252Y-16571974D01*
X22741758Y-16606568D01*
X22724722Y-16638441D01*
X22701787Y-16666387D01*
X22673841Y-16689322D01*
X22641968Y-16706358D01*
X22607374Y-16716852D01*
X22565259Y-16721000D01*
X21907541Y-16721000D01*
X21865426Y-16716852D01*
X21830832Y-16706358D01*
X21798959Y-16689322D01*
X21771013Y-16666387D01*
X21748078Y-16638441D01*
X21731042Y-16606568D01*
X21720548Y-16571974D01*
X21716400Y-16529859D01*
X21716400Y-15922141D01*
X21720548Y-15880026D01*
X21731042Y-15845432D01*
X21752187Y-15805872D01*
X21756157Y-15799931D01*
X21765536Y-15777292D01*
X21770317Y-15753259D01*
X21770319Y-15728755D01*
X21765540Y-15704721D01*
X21756163Y-15682082D01*
X21752195Y-15676142D01*
X21731042Y-15636568D01*
X21720548Y-15601974D01*
X21716400Y-15559859D01*
X21716400Y-14952141D01*
X21720548Y-14910026D01*
X21731042Y-14875432D01*
X21748078Y-14843559D01*
X21771013Y-14815613D01*
X21798959Y-14792678D01*
X21830832Y-14775642D01*
X21865426Y-14765148D01*
X21907541Y-14761000D01*
X22565259Y-14761000D01*
X22607374Y-14765148D01*
X22607374Y-14765148D01*
G37*
G36*
X35533378Y-13630079D02*
X35779066Y-13731846D01*
X36000178Y-13879589D01*
X36188211Y-14067622D01*
X36335954Y-14288734D01*
X36437721Y-14534422D01*
X36489600Y-14795235D01*
X36489600Y-15061165D01*
X36437721Y-15321978D01*
X36335954Y-15567666D01*
X36188211Y-15788778D01*
X36000178Y-15976811D01*
X35779066Y-16124554D01*
X35533378Y-16226321D01*
X35272565Y-16278200D01*
X35006635Y-16278200D01*
X34745822Y-16226321D01*
X34500134Y-16124554D01*
X34279022Y-15976811D01*
X34090989Y-15788778D01*
X33943246Y-15567666D01*
X33841479Y-15321978D01*
X33789600Y-15061165D01*
X33789600Y-14795235D01*
X33841479Y-14534422D01*
X33943246Y-14288734D01*
X34090989Y-14067622D01*
X34279022Y-13879589D01*
X34500134Y-13731846D01*
X34745822Y-13630079D01*
X35006635Y-13578200D01*
X35272565Y-13578200D01*
X35533378Y-13630079D01*
X35533378Y-13630079D01*
G37*
G36*
X19102174Y-13532148D02*
X19136768Y-13542642D01*
X19168641Y-13559678D01*
X19196587Y-13582613D01*
X19219522Y-13610559D01*
X19236558Y-13642432D01*
X19247052Y-13677026D01*
X19251200Y-13719141D01*
X19251200Y-14326859D01*
X19247052Y-14368974D01*
X19236558Y-14403568D01*
X19215413Y-14443128D01*
X19211443Y-14449069D01*
X19202064Y-14471708D01*
X19197283Y-14495741D01*
X19197281Y-14520245D01*
X19202060Y-14544279D01*
X19211437Y-14566918D01*
X19215405Y-14572858D01*
X19236558Y-14612432D01*
X19247052Y-14647026D01*
X19251200Y-14689141D01*
X19251200Y-15296859D01*
X19247052Y-15338974D01*
X19236558Y-15373568D01*
X19219522Y-15405441D01*
X19196587Y-15433387D01*
X19168641Y-15456322D01*
X19136768Y-15473358D01*
X19102174Y-15483852D01*
X19060059Y-15488000D01*
X18402341Y-15488000D01*
X18360226Y-15483852D01*
X18325632Y-15473358D01*
X18293759Y-15456322D01*
X18265813Y-15433387D01*
X18242878Y-15405441D01*
X18225842Y-15373568D01*
X18215348Y-15338974D01*
X18211200Y-15296859D01*
X18211200Y-14689141D01*
X18215348Y-14647026D01*
X18225842Y-14612432D01*
X18246987Y-14572872D01*
X18250957Y-14566931D01*
X18260336Y-14544292D01*
X18265117Y-14520259D01*
X18265119Y-14495755D01*
X18260340Y-14471721D01*
X18250963Y-14449082D01*
X18246995Y-14443142D01*
X18225842Y-14403568D01*
X18215348Y-14368974D01*
X18211200Y-14326859D01*
X18211200Y-13719141D01*
X18215348Y-13677026D01*
X18225842Y-13642432D01*
X18242878Y-13610559D01*
X18265813Y-13582613D01*
X18293759Y-13559678D01*
X18325632Y-13542642D01*
X18360226Y-13532148D01*
X18402341Y-13528000D01*
X19060059Y-13528000D01*
X19102174Y-13532148D01*
X19102174Y-13532148D01*
G37*
G36*
X17425774Y-13532148D02*
X17460368Y-13542642D01*
X17492241Y-13559678D01*
X17520187Y-13582613D01*
X17543122Y-13610559D01*
X17560158Y-13642432D01*
X17570652Y-13677026D01*
X17574800Y-13719141D01*
X17574800Y-14326859D01*
X17570652Y-14368974D01*
X17560158Y-14403568D01*
X17539013Y-14443128D01*
X17535043Y-14449069D01*
X17525664Y-14471708D01*
X17520883Y-14495741D01*
X17520881Y-14520245D01*
X17525660Y-14544279D01*
X17535037Y-14566918D01*
X17539005Y-14572858D01*
X17560158Y-14612432D01*
X17570652Y-14647026D01*
X17574800Y-14689141D01*
X17574800Y-15296859D01*
X17570652Y-15338974D01*
X17560158Y-15373568D01*
X17543122Y-15405441D01*
X17520187Y-15433387D01*
X17492241Y-15456322D01*
X17460368Y-15473358D01*
X17425774Y-15483852D01*
X17383659Y-15488000D01*
X16725941Y-15488000D01*
X16683826Y-15483852D01*
X16649232Y-15473358D01*
X16617359Y-15456322D01*
X16589413Y-15433387D01*
X16566478Y-15405441D01*
X16549442Y-15373568D01*
X16538948Y-15338974D01*
X16534800Y-15296859D01*
X16534800Y-14689141D01*
X16538948Y-14647026D01*
X16549442Y-14612432D01*
X16570587Y-14572872D01*
X16574557Y-14566931D01*
X16583936Y-14544292D01*
X16588717Y-14520259D01*
X16588719Y-14495755D01*
X16583940Y-14471721D01*
X16574563Y-14449082D01*
X16570595Y-14443142D01*
X16549442Y-14403568D01*
X16538948Y-14368974D01*
X16534800Y-14326859D01*
X16534800Y-13719141D01*
X16538948Y-13677026D01*
X16549442Y-13642432D01*
X16566478Y-13610559D01*
X16589413Y-13582613D01*
X16617359Y-13559678D01*
X16649232Y-13542642D01*
X16683826Y-13532148D01*
X16725941Y-13528000D01*
X17383659Y-13528000D01*
X17425774Y-13532148D01*
X17425774Y-13532148D01*
G37*
G36*
X7331000Y-15194000D02*
X6481000Y-15194000D01*
X6481000Y-13494000D01*
X7331000Y-13494000D01*
X7331000Y-15194000D01*
X7331000Y-15194000D01*
G37*
G36*
X8731000Y-15194000D02*
X7881000Y-15194000D01*
X7881000Y-14494000D01*
X8731000Y-14494000D01*
X8731000Y-15194000D01*
X8731000Y-15194000D01*
G37*
G36*
X14190183Y-13819900D02*
X14317574Y-13872668D01*
X14432224Y-13949274D01*
X14529726Y-14046776D01*
X14565289Y-14100000D01*
X14606332Y-14161426D01*
X14659100Y-14288817D01*
X14686000Y-14424055D01*
X14686000Y-14561945D01*
X14659100Y-14697183D01*
X14618484Y-14795237D01*
X14606332Y-14824574D01*
X14529726Y-14939224D01*
X14432224Y-15036726D01*
X14395651Y-15061163D01*
X14317574Y-15113332D01*
X14190183Y-15166100D01*
X14054945Y-15193000D01*
X13917055Y-15193000D01*
X13781817Y-15166100D01*
X13654426Y-15113332D01*
X13576349Y-15061163D01*
X13539776Y-15036726D01*
X13442274Y-14939224D01*
X13365668Y-14824574D01*
X13353516Y-14795237D01*
X13312900Y-14697183D01*
X13286000Y-14561945D01*
X13286000Y-14424055D01*
X13312900Y-14288817D01*
X13365668Y-14161426D01*
X13406711Y-14100000D01*
X13442274Y-14046776D01*
X13539776Y-13949274D01*
X13654426Y-13872668D01*
X13781817Y-13819900D01*
X13917055Y-13793000D01*
X14054945Y-13793000D01*
X14190183Y-13819900D01*
X14190183Y-13819900D01*
G37*
G36*
X12190183Y-13819900D02*
X12317574Y-13872668D01*
X12432224Y-13949274D01*
X12529726Y-14046776D01*
X12565289Y-14100000D01*
X12606332Y-14161426D01*
X12659100Y-14288817D01*
X12686000Y-14424055D01*
X12686000Y-14561945D01*
X12659100Y-14697183D01*
X12618484Y-14795237D01*
X12606332Y-14824574D01*
X12529726Y-14939224D01*
X12432224Y-15036726D01*
X12395651Y-15061163D01*
X12317574Y-15113332D01*
X12190183Y-15166100D01*
X12054945Y-15193000D01*
X11917055Y-15193000D01*
X11781817Y-15166100D01*
X11654426Y-15113332D01*
X11576349Y-15061163D01*
X11539776Y-15036726D01*
X11442274Y-14939224D01*
X11365668Y-14824574D01*
X11353516Y-14795237D01*
X11312900Y-14697183D01*
X11286000Y-14561945D01*
X11286000Y-14424055D01*
X11312900Y-14288817D01*
X11365668Y-14161426D01*
X11406711Y-14100000D01*
X11442274Y-14046776D01*
X11539776Y-13949274D01*
X11654426Y-13872668D01*
X11781817Y-13819900D01*
X11917055Y-13793000D01*
X12054945Y-13793000D01*
X12190183Y-13819900D01*
X12190183Y-13819900D01*
G37*
G36*
X8731000Y-14194000D02*
X7881000Y-14194000D01*
X7881000Y-13494000D01*
X8731000Y-13494000D01*
X8731000Y-14194000D01*
X8731000Y-14194000D01*
G37*
G36*
X33022547Y-10993922D02*
X33286433Y-11103227D01*
X33523924Y-11261913D01*
X33725887Y-11463876D01*
X33884573Y-11701367D01*
X33993878Y-11965253D01*
X34049600Y-12245386D01*
X34049600Y-12531014D01*
X33993878Y-12811147D01*
X33884573Y-13075033D01*
X33725887Y-13312524D01*
X33523924Y-13514487D01*
X33286433Y-13673173D01*
X33022547Y-13782478D01*
X32742414Y-13838200D01*
X32456786Y-13838200D01*
X32176653Y-13782478D01*
X31912767Y-13673173D01*
X31675276Y-13514487D01*
X31473313Y-13312524D01*
X31314627Y-13075033D01*
X31205322Y-12811147D01*
X31149600Y-12531014D01*
X31149600Y-12245386D01*
X31205322Y-11965253D01*
X31314627Y-11701367D01*
X31473313Y-11463876D01*
X31675276Y-11261913D01*
X31912767Y-11103227D01*
X32176653Y-10993922D01*
X32456786Y-10938200D01*
X32742414Y-10938200D01*
X33022547Y-10993922D01*
X33022547Y-10993922D01*
G37*
G36*
X38102547Y-10993922D02*
X38366433Y-11103227D01*
X38603924Y-11261913D01*
X38805887Y-11463876D01*
X38964573Y-11701367D01*
X39073878Y-11965253D01*
X39129600Y-12245386D01*
X39129600Y-12531014D01*
X39073878Y-12811147D01*
X38964573Y-13075033D01*
X38805887Y-13312524D01*
X38603924Y-13514487D01*
X38366433Y-13673173D01*
X38102547Y-13782478D01*
X37822414Y-13838200D01*
X37536786Y-13838200D01*
X37256653Y-13782478D01*
X36992767Y-13673173D01*
X36755276Y-13514487D01*
X36553313Y-13312524D01*
X36394627Y-13075033D01*
X36285322Y-12811147D01*
X36229600Y-12531014D01*
X36229600Y-12245386D01*
X36285322Y-11965253D01*
X36394627Y-11701367D01*
X36553313Y-11463876D01*
X36755276Y-11261913D01*
X36992767Y-11103227D01*
X37256653Y-10993922D01*
X37536786Y-10938200D01*
X37822414Y-10938200D01*
X38102547Y-10993922D01*
X38102547Y-10993922D01*
G37*
G36*
X16835730Y-10804677D02*
X16887210Y-10820293D01*
X16934642Y-10845646D01*
X16976227Y-10879773D01*
X17010354Y-10921358D01*
X17035707Y-10968790D01*
X17051323Y-11020270D01*
X17057200Y-11079940D01*
X17057200Y-11867660D01*
X17051323Y-11927330D01*
X17035707Y-11978810D01*
X17010354Y-12026242D01*
X16976227Y-12067827D01*
X16934642Y-12101954D01*
X16887210Y-12127307D01*
X16835730Y-12142923D01*
X16776060Y-12148800D01*
X15888340Y-12148800D01*
X15828670Y-12142923D01*
X15777190Y-12127307D01*
X15729758Y-12101954D01*
X15688173Y-12067827D01*
X15654046Y-12026242D01*
X15628693Y-11978810D01*
X15613077Y-11927330D01*
X15607200Y-11867660D01*
X15607200Y-11079940D01*
X15613077Y-11020270D01*
X15628693Y-10968790D01*
X15654046Y-10921358D01*
X15688173Y-10879773D01*
X15729758Y-10845646D01*
X15777190Y-10820293D01*
X15828670Y-10804677D01*
X15888340Y-10798800D01*
X16776060Y-10798800D01*
X16835730Y-10804677D01*
X16835730Y-10804677D01*
G37*
G36*
X18585730Y-10804677D02*
X18637210Y-10820293D01*
X18684642Y-10845646D01*
X18726227Y-10879773D01*
X18760354Y-10921358D01*
X18785707Y-10968790D01*
X18801323Y-11020270D01*
X18807200Y-11079940D01*
X18807200Y-11867660D01*
X18801323Y-11927330D01*
X18785707Y-11978810D01*
X18760354Y-12026242D01*
X18726227Y-12067827D01*
X18684642Y-12101954D01*
X18637210Y-12127307D01*
X18585730Y-12142923D01*
X18526060Y-12148800D01*
X17638340Y-12148800D01*
X17578670Y-12142923D01*
X17527190Y-12127307D01*
X17479758Y-12101954D01*
X17438173Y-12067827D01*
X17404046Y-12026242D01*
X17378693Y-11978810D01*
X17363077Y-11927330D01*
X17357200Y-11867660D01*
X17357200Y-11079940D01*
X17363077Y-11020270D01*
X17378693Y-10968790D01*
X17404046Y-10921358D01*
X17438173Y-10879773D01*
X17479758Y-10845646D01*
X17527190Y-10820293D01*
X17578670Y-10804677D01*
X17638340Y-10798800D01*
X18526060Y-10798800D01*
X18585730Y-10804677D01*
X18585730Y-10804677D01*
G37*
G36*
X18425822Y-9026317D02*
X18473785Y-9040866D01*
X18517975Y-9064486D01*
X18556718Y-9096282D01*
X18588514Y-9135025D01*
X18612134Y-9179215D01*
X18626683Y-9227178D01*
X18632200Y-9283191D01*
X18632200Y-10108409D01*
X18626683Y-10164422D01*
X18612134Y-10212385D01*
X18588514Y-10256575D01*
X18556718Y-10295318D01*
X18517975Y-10327114D01*
X18473785Y-10350734D01*
X18425822Y-10365283D01*
X18369809Y-10370800D01*
X17619591Y-10370800D01*
X17563578Y-10365283D01*
X17515615Y-10350734D01*
X17471425Y-10327114D01*
X17432682Y-10295318D01*
X17400886Y-10256575D01*
X17377266Y-10212385D01*
X17362717Y-10164422D01*
X17357200Y-10108409D01*
X17357200Y-9283191D01*
X17362717Y-9227178D01*
X17377266Y-9179215D01*
X17400886Y-9135025D01*
X17432682Y-9096282D01*
X17471425Y-9064486D01*
X17515615Y-9040866D01*
X17563578Y-9026317D01*
X17619591Y-9020800D01*
X18369809Y-9020800D01*
X18425822Y-9026317D01*
X18425822Y-9026317D01*
G37*
G36*
X16850822Y-9026317D02*
X16898785Y-9040866D01*
X16942975Y-9064486D01*
X16981718Y-9096282D01*
X17013514Y-9135025D01*
X17037134Y-9179215D01*
X17051683Y-9227178D01*
X17057200Y-9283191D01*
X17057200Y-10108409D01*
X17051683Y-10164422D01*
X17037134Y-10212385D01*
X17013514Y-10256575D01*
X16981718Y-10295318D01*
X16942975Y-10327114D01*
X16898785Y-10350734D01*
X16850822Y-10365283D01*
X16794809Y-10370800D01*
X16044591Y-10370800D01*
X15988578Y-10365283D01*
X15940615Y-10350734D01*
X15896425Y-10327114D01*
X15857682Y-10295318D01*
X15825886Y-10256575D01*
X15802266Y-10212385D01*
X15787717Y-10164422D01*
X15782200Y-10108409D01*
X15782200Y-9283191D01*
X15787717Y-9227178D01*
X15802266Y-9179215D01*
X15825886Y-9135025D01*
X15857682Y-9096282D01*
X15896425Y-9064486D01*
X15940615Y-9040866D01*
X15988578Y-9026317D01*
X16044591Y-9020800D01*
X16794809Y-9020800D01*
X16850822Y-9026317D01*
X16850822Y-9026317D01*
G37*
G36*
X12228222Y-9026317D02*
X12276185Y-9040866D01*
X12320375Y-9064486D01*
X12359118Y-9096282D01*
X12390914Y-9135025D01*
X12414534Y-9179215D01*
X12429083Y-9227178D01*
X12434600Y-9283191D01*
X12434600Y-10108409D01*
X12429083Y-10164422D01*
X12414534Y-10212385D01*
X12390914Y-10256575D01*
X12359118Y-10295318D01*
X12320375Y-10327114D01*
X12276185Y-10350734D01*
X12228222Y-10365283D01*
X12172209Y-10370800D01*
X11421991Y-10370800D01*
X11365978Y-10365283D01*
X11318015Y-10350734D01*
X11273825Y-10327114D01*
X11235082Y-10295318D01*
X11203286Y-10256575D01*
X11179666Y-10212385D01*
X11165117Y-10164422D01*
X11159600Y-10108409D01*
X11159600Y-9283191D01*
X11165117Y-9227178D01*
X11179666Y-9179215D01*
X11203286Y-9135025D01*
X11235082Y-9096282D01*
X11273825Y-9064486D01*
X11318015Y-9040866D01*
X11365978Y-9026317D01*
X11421991Y-9020800D01*
X12172209Y-9020800D01*
X12228222Y-9026317D01*
X12228222Y-9026317D01*
G37*
G36*
X10653222Y-9026317D02*
X10701185Y-9040866D01*
X10745375Y-9064486D01*
X10784118Y-9096282D01*
X10815914Y-9135025D01*
X10839534Y-9179215D01*
X10854083Y-9227178D01*
X10859600Y-9283191D01*
X10859600Y-10108409D01*
X10854083Y-10164422D01*
X10839534Y-10212385D01*
X10815914Y-10256575D01*
X10784118Y-10295318D01*
X10745375Y-10327114D01*
X10701185Y-10350734D01*
X10653222Y-10365283D01*
X10597209Y-10370800D01*
X9846991Y-10370800D01*
X9790978Y-10365283D01*
X9743015Y-10350734D01*
X9698825Y-10327114D01*
X9660082Y-10295318D01*
X9628286Y-10256575D01*
X9604666Y-10212385D01*
X9590117Y-10164422D01*
X9584600Y-10108409D01*
X9584600Y-9283191D01*
X9590117Y-9227178D01*
X9604666Y-9179215D01*
X9628286Y-9135025D01*
X9660082Y-9096282D01*
X9698825Y-9064486D01*
X9743015Y-9040866D01*
X9790978Y-9026317D01*
X9846991Y-9020800D01*
X10597209Y-9020800D01*
X10653222Y-9026317D01*
X10653222Y-9026317D01*
G37*
G36*
X24390183Y-8719900D02*
X24517574Y-8772668D01*
X24632225Y-8849275D01*
X24729725Y-8946775D01*
X24806332Y-9061426D01*
X24859100Y-9188817D01*
X24886000Y-9324055D01*
X24886000Y-9461945D01*
X24859100Y-9597183D01*
X24806332Y-9724574D01*
X24729725Y-9839225D01*
X24632225Y-9936725D01*
X24517574Y-10013332D01*
X24390183Y-10066100D01*
X24254945Y-10093000D01*
X24117055Y-10093000D01*
X23981817Y-10066100D01*
X23854426Y-10013332D01*
X23739775Y-9936725D01*
X23642275Y-9839225D01*
X23565668Y-9724574D01*
X23512900Y-9597183D01*
X23486000Y-9461945D01*
X23486000Y-9324055D01*
X23512900Y-9188817D01*
X23565668Y-9061426D01*
X23642275Y-8946775D01*
X23739775Y-8849275D01*
X23854426Y-8772668D01*
X23981817Y-8719900D01*
X24117055Y-8693000D01*
X24254945Y-8693000D01*
X24390183Y-8719900D01*
X24390183Y-8719900D01*
G37*
G36*
X22827600Y-8247800D02*
X20527600Y-8247800D01*
X20527600Y-7447800D01*
X22827600Y-7447800D01*
X22827600Y-8247800D01*
X22827600Y-8247800D01*
G37*
G36*
X11634200Y-8118200D02*
X9484200Y-8118200D01*
X9484200Y-1418200D01*
X11634200Y-1418200D01*
X11634200Y-8118200D01*
X11634200Y-8118200D01*
G37*
G36*
X18834200Y-8118200D02*
X16684200Y-8118200D01*
X16684200Y-1418200D01*
X18834200Y-1418200D01*
X18834200Y-8118200D01*
X18834200Y-8118200D01*
G37*
G36*
X36991743Y-730660D02*
X37610503Y-986958D01*
X38167377Y-1359050D01*
X38640950Y-1832623D01*
X39013042Y-2389497D01*
X39269340Y-3008257D01*
X39400000Y-3665128D01*
X39400000Y-4334872D01*
X39269340Y-4991743D01*
X39013042Y-5610503D01*
X38640950Y-6167377D01*
X38167377Y-6640950D01*
X37610503Y-7013042D01*
X36991743Y-7269340D01*
X36334872Y-7400000D01*
X35665128Y-7400000D01*
X35008257Y-7269340D01*
X34389497Y-7013042D01*
X33832623Y-6640950D01*
X33359050Y-6167377D01*
X32986958Y-5610503D01*
X32730660Y-4991743D01*
X32600000Y-4334872D01*
X32600000Y-3665128D01*
X32730660Y-3008257D01*
X32986958Y-2389497D01*
X33359050Y-1832623D01*
X33832623Y-1359050D01*
X34389497Y-986958D01*
X35008257Y-730660D01*
X35665128Y-600000D01*
X36334872Y-600000D01*
X36991743Y-730660D01*
X36991743Y-730660D01*
G37*
G36*
X4991743Y-730660D02*
X5610503Y-986958D01*
X6167377Y-1359050D01*
X6640950Y-1832623D01*
X7013042Y-2389497D01*
X7269340Y-3008257D01*
X7400000Y-3665128D01*
X7400000Y-4334872D01*
X7269340Y-4991743D01*
X7013042Y-5610503D01*
X6640950Y-6167377D01*
X6167377Y-6640950D01*
X5610503Y-7013042D01*
X4991743Y-7269340D01*
X4334872Y-7400000D01*
X3665128Y-7400000D01*
X3008257Y-7269340D01*
X2389497Y-7013042D01*
X1832623Y-6640950D01*
X1359050Y-6167377D01*
X986958Y-5610503D01*
X730660Y-4991743D01*
X600000Y-4334872D01*
X600000Y-3665128D01*
X730660Y-3008257D01*
X986958Y-2389497D01*
X1359050Y-1832623D01*
X1832623Y-1359050D01*
X2389497Y-986958D01*
X3008257Y-730660D01*
X3665128Y-600000D01*
X4334872Y-600000D01*
X4991743Y-730660D01*
X4991743Y-730660D01*
G37*
G36*
X22827600Y-7047800D02*
X20527600Y-7047800D01*
X20527600Y-6247800D01*
X22827600Y-6247800D01*
X22827600Y-7047800D01*
X22827600Y-7047800D01*
G37*
G36*
X25639222Y-4733717D02*
X25687185Y-4748266D01*
X25731375Y-4771886D01*
X25770118Y-4803682D01*
X25801914Y-4842425D01*
X25825534Y-4886615D01*
X25840083Y-4934578D01*
X25845600Y-4990591D01*
X25845600Y-5815809D01*
X25840083Y-5871822D01*
X25825534Y-5919785D01*
X25801914Y-5963975D01*
X25770118Y-6002718D01*
X25731375Y-6034514D01*
X25687185Y-6058134D01*
X25639222Y-6072683D01*
X25583209Y-6078200D01*
X24832991Y-6078200D01*
X24776978Y-6072683D01*
X24729015Y-6058134D01*
X24684825Y-6034514D01*
X24646082Y-6002718D01*
X24614286Y-5963975D01*
X24590666Y-5919785D01*
X24576117Y-5871822D01*
X24570600Y-5815809D01*
X24570600Y-4990591D01*
X24576117Y-4934578D01*
X24590666Y-4886615D01*
X24614286Y-4842425D01*
X24646082Y-4803682D01*
X24684825Y-4771886D01*
X24729015Y-4748266D01*
X24776978Y-4733717D01*
X24832991Y-4728200D01*
X25583209Y-4728200D01*
X25639222Y-4733717D01*
X25639222Y-4733717D01*
G37*
G36*
X27214222Y-4733717D02*
X27262185Y-4748266D01*
X27306375Y-4771886D01*
X27345118Y-4803682D01*
X27376914Y-4842425D01*
X27400534Y-4886615D01*
X27415083Y-4934578D01*
X27420600Y-4990591D01*
X27420600Y-5815809D01*
X27415083Y-5871822D01*
X27400534Y-5919785D01*
X27376914Y-5963975D01*
X27345118Y-6002718D01*
X27306375Y-6034514D01*
X27262185Y-6058134D01*
X27214222Y-6072683D01*
X27158209Y-6078200D01*
X26407991Y-6078200D01*
X26351978Y-6072683D01*
X26304015Y-6058134D01*
X26259825Y-6034514D01*
X26221082Y-6002718D01*
X26189286Y-5963975D01*
X26165666Y-5919785D01*
X26151117Y-5871822D01*
X26145600Y-5815809D01*
X26145600Y-4990591D01*
X26151117Y-4934578D01*
X26165666Y-4886615D01*
X26189286Y-4842425D01*
X26221082Y-4803682D01*
X26259825Y-4771886D01*
X26304015Y-4748266D01*
X26351978Y-4733717D01*
X26407991Y-4728200D01*
X27158209Y-4728200D01*
X27214222Y-4733717D01*
X27214222Y-4733717D01*
G37*
G36*
X22827600Y-5847800D02*
X20527600Y-5847800D01*
X20527600Y-5047800D01*
X22827600Y-5047800D01*
X22827600Y-5847800D01*
X22827600Y-5847800D01*
G37*
G36*
X30606097Y-2738197D02*
X30658753Y-2754170D01*
X30707265Y-2780100D01*
X30749796Y-2815004D01*
X30784700Y-2857535D01*
X30810630Y-2906047D01*
X30826603Y-2958703D01*
X30832600Y-3019590D01*
X30832600Y-3819810D01*
X30826603Y-3880697D01*
X30810630Y-3933353D01*
X30784700Y-3981865D01*
X30749796Y-4024396D01*
X30707265Y-4059300D01*
X30658753Y-4085230D01*
X30606097Y-4101203D01*
X30545210Y-4107200D01*
X29319990Y-4107200D01*
X29259103Y-4101203D01*
X29206447Y-4085230D01*
X29157935Y-4059300D01*
X29115404Y-4024396D01*
X29080500Y-3981865D01*
X29054570Y-3933353D01*
X29038597Y-3880697D01*
X29032600Y-3819810D01*
X29032600Y-3019590D01*
X29038597Y-2958703D01*
X29054570Y-2906047D01*
X29080500Y-2857535D01*
X29115404Y-2815004D01*
X29157935Y-2780100D01*
X29206447Y-2754170D01*
X29259103Y-2738197D01*
X29319990Y-2732200D01*
X30545210Y-2732200D01*
X30606097Y-2738197D01*
X30606097Y-2738197D01*
G37*
G36*
X22224097Y-2738197D02*
X22276753Y-2754170D01*
X22325265Y-2780100D01*
X22367796Y-2815004D01*
X22402700Y-2857535D01*
X22428630Y-2906047D01*
X22444603Y-2958703D01*
X22450600Y-3019590D01*
X22450600Y-3819810D01*
X22444603Y-3880697D01*
X22428630Y-3933353D01*
X22402700Y-3981865D01*
X22367796Y-4024396D01*
X22325265Y-4059300D01*
X22276753Y-4085230D01*
X22224097Y-4101203D01*
X22163210Y-4107200D01*
X20937990Y-4107200D01*
X20877103Y-4101203D01*
X20824447Y-4085230D01*
X20775935Y-4059300D01*
X20733404Y-4024396D01*
X20698500Y-3981865D01*
X20672570Y-3933353D01*
X20656597Y-3880697D01*
X20650600Y-3819810D01*
X20650600Y-3019590D01*
X20656597Y-2958703D01*
X20672570Y-2906047D01*
X20698500Y-2857535D01*
X20733404Y-2815004D01*
X20775935Y-2780100D01*
X20824447Y-2754170D01*
X20877103Y-2738197D01*
X20937990Y-2732200D01*
X22163210Y-2732200D01*
X22224097Y-2738197D01*
X22224097Y-2738197D01*
G37*
G36*
X28020600Y-3932200D02*
X26570600Y-3932200D01*
X26570600Y-2932200D01*
X28020600Y-2932200D01*
X28020600Y-3932200D01*
X28020600Y-3932200D01*
G37*
G36*
X25420600Y-3932200D02*
X23970600Y-3932200D01*
X23970600Y-1032200D01*
X25420600Y-1032200D01*
X25420600Y-3932200D01*
X25420600Y-3932200D01*
G37*
G36*
X30606097Y-863197D02*
X30658753Y-879170D01*
X30707265Y-905100D01*
X30749796Y-940004D01*
X30784700Y-982535D01*
X30810630Y-1031047D01*
X30826603Y-1083703D01*
X30832600Y-1144590D01*
X30832600Y-1944810D01*
X30826603Y-2005697D01*
X30810630Y-2058353D01*
X30784700Y-2106865D01*
X30749796Y-2149396D01*
X30707265Y-2184300D01*
X30658753Y-2210230D01*
X30606097Y-2226203D01*
X30545210Y-2232200D01*
X29319990Y-2232200D01*
X29259103Y-2226203D01*
X29206447Y-2210230D01*
X29157935Y-2184300D01*
X29115404Y-2149396D01*
X29080500Y-2106865D01*
X29054570Y-2058353D01*
X29038597Y-2005697D01*
X29032600Y-1944810D01*
X29032600Y-1144590D01*
X29038597Y-1083703D01*
X29054570Y-1031047D01*
X29080500Y-982535D01*
X29115404Y-940004D01*
X29157935Y-905100D01*
X29206447Y-879170D01*
X29259103Y-863197D01*
X29319990Y-857200D01*
X30545210Y-857200D01*
X30606097Y-863197D01*
X30606097Y-863197D01*
G37*
G36*
X22224097Y-863197D02*
X22276753Y-879170D01*
X22325265Y-905100D01*
X22367796Y-940004D01*
X22402700Y-982535D01*
X22428630Y-1031047D01*
X22444603Y-1083703D01*
X22450600Y-1144590D01*
X22450600Y-1944810D01*
X22444603Y-2005697D01*
X22428630Y-2058353D01*
X22402700Y-2106865D01*
X22367796Y-2149396D01*
X22325265Y-2184300D01*
X22276753Y-2210230D01*
X22224097Y-2226203D01*
X22163210Y-2232200D01*
X20937990Y-2232200D01*
X20877103Y-2226203D01*
X20824447Y-2210230D01*
X20775935Y-2184300D01*
X20733404Y-2149396D01*
X20698500Y-2106865D01*
X20672570Y-2058353D01*
X20656597Y-2005697D01*
X20650600Y-1944810D01*
X20650600Y-1144590D01*
X20656597Y-1083703D01*
X20672570Y-1031047D01*
X20698500Y-982535D01*
X20733404Y-940004D01*
X20775935Y-905100D01*
X20824447Y-879170D01*
X20877103Y-863197D01*
X20937990Y-857200D01*
X22163210Y-857200D01*
X22224097Y-863197D01*
X22224097Y-863197D01*
G37*
G36*
X28020600Y-2032200D02*
X26570600Y-2032200D01*
X26570600Y-1032200D01*
X28020600Y-1032200D01*
X28020600Y-2032200D01*
X28020600Y-2032200D01*
G37*
M02*
