G04 #@! TF.GenerationSoftware,KiCad,Pcbnew,(5.0.0)*
G04 #@! TF.CreationDate,2019-01-10T03:07:59-03:00*
G04 #@! TF.ProjectId,EstacionTerrena,4573746163696F6E54657272656E612E,rev?*
G04 #@! TF.SameCoordinates,Original*
G04 #@! TF.FileFunction,Copper,L2,Bot,Signal*
G04 #@! TF.FilePolarity,Positive*
%FSLAX46Y46*%
G04 Gerber Fmt 4.6, Leading zero omitted, Abs format (unit mm)*
G04 Created by KiCad (PCBNEW (5.0.0)) date 01/10/19 03:07:59*
%MOMM*%
%LPD*%
G01*
G04 APERTURE LIST*
G04 #@! TA.AperFunction,ComponentPad*
%ADD10C,6.400000*%
G04 #@! TD*
G04 #@! TA.AperFunction,ComponentPad*
%ADD11C,1.450000*%
G04 #@! TD*
G04 #@! TA.AperFunction,ComponentPad*
%ADD12O,1.900000X1.200000*%
G04 #@! TD*
G04 #@! TA.AperFunction,ComponentPad*
%ADD13C,2.300000*%
G04 #@! TD*
G04 #@! TA.AperFunction,ComponentPad*
%ADD14C,2.500000*%
G04 #@! TD*
G04 #@! TA.AperFunction,ComponentPad*
%ADD15R,1.000000X1.000000*%
G04 #@! TD*
G04 #@! TA.AperFunction,ViaPad*
%ADD16C,0.600000*%
G04 #@! TD*
G04 #@! TA.AperFunction,Conductor*
%ADD17C,0.400000*%
G04 #@! TD*
G04 #@! TA.AperFunction,Conductor*
%ADD18C,0.300000*%
G04 #@! TD*
G04 #@! TA.AperFunction,Conductor*
%ADD19C,0.200000*%
G04 #@! TD*
G04 APERTURE END LIST*
D10*
G04 #@! TO.P,H2,1*
G04 #@! TO.N,GND*
X36000000Y-26000000D03*
G04 #@! TD*
G04 #@! TO.P,H3,1*
G04 #@! TO.N,GND*
X36000000Y-4000000D03*
G04 #@! TD*
G04 #@! TO.P,H4,1*
G04 #@! TO.N,GND*
X4000000Y-26000000D03*
G04 #@! TD*
G04 #@! TO.P,H1,1*
G04 #@! TO.N,GND*
X4000000Y-4000000D03*
G04 #@! TD*
D11*
G04 #@! TO.P,J2,6*
G04 #@! TO.N,GND*
X4129500Y-12500000D03*
X4129500Y-17500000D03*
D12*
X1429500Y-11500000D03*
X1429500Y-18500000D03*
G04 #@! TD*
D13*
G04 #@! TO.P,J1,1*
G04 #@! TO.N,/CC1101/ANT*
X35139600Y-14928200D03*
D14*
G04 #@! TO.P,J1,2*
G04 #@! TO.N,GND*
X37679600Y-17468200D03*
G04 #@! TO.P,J1,3*
X37679600Y-12388200D03*
G04 #@! TO.P,J1,4*
X32599600Y-12388200D03*
G04 #@! TO.P,J1,5*
X32599600Y-17468200D03*
G04 #@! TD*
D15*
G04 #@! TO.P,TP6,1*
G04 #@! TO.N,GND*
X15186000Y-22293000D03*
G04 #@! TD*
D16*
G04 #@! TO.N,+3V3*
X15276800Y-16147400D03*
X12736800Y-16858600D03*
X21251200Y-22141800D03*
X17004000Y-24043010D03*
X14586000Y-23693000D03*
X18426400Y-23693010D03*
G04 #@! TO.N,GND*
X17969200Y-20109800D03*
X17105600Y-19246200D03*
X18832800Y-19246200D03*
X18832800Y-20973400D03*
X17105600Y-20973400D03*
X23123100Y-2482200D03*
X23123100Y-3419700D03*
X29932600Y-4895200D03*
X9333200Y-14826600D03*
X23455600Y-6647800D03*
X25208100Y-6597000D03*
X5878800Y-16299800D03*
X1429500Y-9695800D03*
X14870400Y-25189800D03*
X20001200Y-23259400D03*
X16902400Y-25139000D03*
X15937200Y-8171800D03*
X19899600Y-13912200D03*
X23709600Y-17976200D03*
X23709600Y-22446600D03*
X23709600Y-20363800D03*
X10247600Y-10915000D03*
X19036000Y-29203000D03*
X21017200Y-29203000D03*
X30161200Y-21786200D03*
X29196000Y-15741000D03*
X5421600Y-21430600D03*
X11586010Y-21227400D03*
X23100000Y-24681800D03*
X21372800Y-14318600D03*
G04 #@! TO.N,/USBaSPI/CS*
X10086000Y-19893000D03*
X15164800Y-5293000D03*
G04 #@! TO.N,/USBaSPI/GP1*
X15186000Y-4393000D03*
X12648380Y-4430620D03*
G04 #@! TD*
D17*
G04 #@! TO.N,+3V3*
X15276800Y-16147400D02*
X13397200Y-16147400D01*
X13397200Y-16147400D02*
X12736800Y-16807800D01*
X17004000Y-24043010D02*
X14936010Y-24043010D01*
X14885999Y-23992999D02*
X14586000Y-23693000D01*
X14936010Y-24043010D02*
X14885999Y-23992999D01*
X19977610Y-22141800D02*
X18726399Y-23393011D01*
X21251200Y-22141800D02*
X19977610Y-22141800D01*
X18726399Y-23393011D02*
X18426400Y-23693010D01*
D18*
G04 #@! TO.N,/USBaSPI/CS*
X10385999Y-19593001D02*
X10086000Y-19893000D01*
X11186000Y-18793000D02*
X10385999Y-19593001D01*
X15164800Y-5293000D02*
X11186000Y-9271800D01*
X11186000Y-9271800D02*
X11186000Y-18793000D01*
G04 #@! TO.N,/USBaSPI/GP1*
X15186000Y-4393000D02*
X12686000Y-4393000D01*
X12686000Y-4393000D02*
X12648380Y-4430620D01*
G04 #@! TD*
D19*
G04 #@! TO.N,GND*
G36*
X2538682Y-472305D02*
X1878694Y-825076D01*
X1514294Y-1302162D01*
X4000000Y-3787868D01*
X6485706Y-1302162D01*
X6121306Y-825076D01*
X5461149Y-472235D01*
X5305423Y-425000D01*
X34694612Y-425000D01*
X34538682Y-472305D01*
X33878694Y-825076D01*
X33514294Y-1302162D01*
X36000000Y-3787868D01*
X38485706Y-1302162D01*
X38121306Y-825076D01*
X37461149Y-472235D01*
X37305423Y-425000D01*
X39575001Y-425000D01*
X39575001Y-2694615D01*
X39527695Y-2538682D01*
X39174924Y-1878694D01*
X38697838Y-1514294D01*
X36212132Y-4000000D01*
X38697838Y-6485706D01*
X39174924Y-6121306D01*
X39527765Y-5461149D01*
X39575001Y-5305420D01*
X39575000Y-24694613D01*
X39527695Y-24538682D01*
X39174924Y-23878694D01*
X38697838Y-23514294D01*
X36212132Y-26000000D01*
X38697838Y-28485706D01*
X39174924Y-28121306D01*
X39527765Y-27461149D01*
X39575000Y-27305422D01*
X39575000Y-29575000D01*
X37305388Y-29575000D01*
X37461318Y-29527695D01*
X38121306Y-29174924D01*
X38485706Y-28697838D01*
X36000000Y-26212132D01*
X33514294Y-28697838D01*
X33878694Y-29174924D01*
X34538851Y-29527765D01*
X34694577Y-29575000D01*
X5305388Y-29575000D01*
X5461318Y-29527695D01*
X6121306Y-29174924D01*
X6485706Y-28697838D01*
X4000000Y-26212132D01*
X1514294Y-28697838D01*
X1878694Y-29174924D01*
X2538851Y-29527765D01*
X2694577Y-29575000D01*
X425000Y-29575000D01*
X425000Y-27305388D01*
X472305Y-27461318D01*
X825076Y-28121306D01*
X1302162Y-28485706D01*
X3787868Y-26000000D01*
X4212132Y-26000000D01*
X6697838Y-28485706D01*
X7174924Y-28121306D01*
X7527765Y-27461149D01*
X7745036Y-26744841D01*
X7818369Y-26000091D01*
X32181613Y-26000091D01*
X32255000Y-26745020D01*
X32472305Y-27461318D01*
X32825076Y-28121306D01*
X33302162Y-28485706D01*
X35787868Y-26000000D01*
X33302162Y-23514294D01*
X32825076Y-23878694D01*
X32472235Y-24538851D01*
X32254964Y-25255159D01*
X32181613Y-26000091D01*
X7818369Y-26000091D01*
X7818387Y-25999909D01*
X7745000Y-25254980D01*
X7527695Y-24538682D01*
X7174924Y-23878694D01*
X6847991Y-23628981D01*
X13936000Y-23628981D01*
X13936000Y-23757019D01*
X13960979Y-23882598D01*
X14009978Y-24000890D01*
X14081112Y-24107351D01*
X14171649Y-24197888D01*
X14278110Y-24269022D01*
X14396402Y-24318021D01*
X14442343Y-24327159D01*
X14477982Y-24362798D01*
X14477986Y-24362803D01*
X14527997Y-24412814D01*
X14545220Y-24433800D01*
X14628968Y-24502531D01*
X14724516Y-24553602D01*
X14828191Y-24585052D01*
X14908992Y-24593010D01*
X14909001Y-24593010D01*
X14936009Y-24595670D01*
X14963017Y-24593010D01*
X16657165Y-24593010D01*
X16696110Y-24619032D01*
X16814402Y-24668031D01*
X16939981Y-24693010D01*
X17068019Y-24693010D01*
X17193598Y-24668031D01*
X17311890Y-24619032D01*
X17418351Y-24547898D01*
X17508888Y-24457361D01*
X17580022Y-24350900D01*
X17629021Y-24232608D01*
X17654000Y-24107029D01*
X17654000Y-23978991D01*
X17629021Y-23853412D01*
X17580022Y-23735120D01*
X17509110Y-23628991D01*
X17776400Y-23628991D01*
X17776400Y-23757029D01*
X17801379Y-23882608D01*
X17850378Y-24000900D01*
X17921512Y-24107361D01*
X18012049Y-24197898D01*
X18118510Y-24269032D01*
X18236802Y-24318031D01*
X18362381Y-24343010D01*
X18490419Y-24343010D01*
X18615998Y-24318031D01*
X18734290Y-24269032D01*
X18840751Y-24197898D01*
X18931288Y-24107361D01*
X19002422Y-24000900D01*
X19051421Y-23882608D01*
X19060559Y-23836667D01*
X19096198Y-23801028D01*
X19096203Y-23801024D01*
X19595065Y-23302162D01*
X33514294Y-23302162D01*
X36000000Y-25787868D01*
X38485706Y-23302162D01*
X38121306Y-22825076D01*
X37461149Y-22472235D01*
X36744841Y-22254964D01*
X35999909Y-22181613D01*
X35254980Y-22255000D01*
X34538682Y-22472305D01*
X33878694Y-22825076D01*
X33514294Y-23302162D01*
X19595065Y-23302162D01*
X20205427Y-22691800D01*
X20904365Y-22691800D01*
X20943310Y-22717822D01*
X21061602Y-22766821D01*
X21187181Y-22791800D01*
X21315219Y-22791800D01*
X21440798Y-22766821D01*
X21559090Y-22717822D01*
X21665551Y-22646688D01*
X21756088Y-22556151D01*
X21827222Y-22449690D01*
X21876221Y-22331398D01*
X21901200Y-22205819D01*
X21901200Y-22077781D01*
X21876221Y-21952202D01*
X21827222Y-21833910D01*
X21756088Y-21727449D01*
X21665551Y-21636912D01*
X21559090Y-21565778D01*
X21440798Y-21516779D01*
X21315219Y-21491800D01*
X21187181Y-21491800D01*
X21061602Y-21516779D01*
X20943310Y-21565778D01*
X20904365Y-21591800D01*
X20004621Y-21591800D01*
X19977610Y-21589140D01*
X19950599Y-21591800D01*
X19950592Y-21591800D01*
X19869791Y-21599758D01*
X19766116Y-21631208D01*
X19670568Y-21682279D01*
X19586820Y-21751010D01*
X19569597Y-21771996D01*
X18318386Y-23023207D01*
X18318382Y-23023212D01*
X18282743Y-23058851D01*
X18236802Y-23067989D01*
X18118510Y-23116988D01*
X18012049Y-23188122D01*
X17921512Y-23278659D01*
X17850378Y-23385120D01*
X17801379Y-23503412D01*
X17776400Y-23628991D01*
X17509110Y-23628991D01*
X17508888Y-23628659D01*
X17418351Y-23538122D01*
X17311890Y-23466988D01*
X17193598Y-23417989D01*
X17068019Y-23393010D01*
X16939981Y-23393010D01*
X16814402Y-23417989D01*
X16696110Y-23466988D01*
X16657165Y-23493010D01*
X15206716Y-23493010D01*
X15162022Y-23385110D01*
X15090888Y-23278649D01*
X15036000Y-23223761D01*
X15036000Y-22443000D01*
X15336000Y-22443000D01*
X15336000Y-23243000D01*
X15486000Y-23393000D01*
X15745095Y-23393000D01*
X15861014Y-23369942D01*
X15970207Y-23324713D01*
X16068478Y-23259050D01*
X16152051Y-23175478D01*
X16217713Y-23077206D01*
X16262942Y-22968013D01*
X16286000Y-22852095D01*
X16286000Y-22593000D01*
X16136000Y-22443000D01*
X15336000Y-22443000D01*
X15036000Y-22443000D01*
X14236000Y-22443000D01*
X14086000Y-22593000D01*
X14086000Y-22852095D01*
X14109058Y-22968013D01*
X14154287Y-23077206D01*
X14210877Y-23161901D01*
X14171649Y-23188112D01*
X14081112Y-23278649D01*
X14009978Y-23385110D01*
X13960979Y-23503402D01*
X13936000Y-23628981D01*
X6847991Y-23628981D01*
X6697838Y-23514294D01*
X4212132Y-26000000D01*
X3787868Y-26000000D01*
X1302162Y-23514294D01*
X825076Y-23878694D01*
X472235Y-24538851D01*
X425000Y-24694577D01*
X425000Y-23302162D01*
X1514294Y-23302162D01*
X4000000Y-25787868D01*
X6485706Y-23302162D01*
X6121306Y-22825076D01*
X5461149Y-22472235D01*
X4744841Y-22254964D01*
X3999909Y-22181613D01*
X3254980Y-22255000D01*
X2538682Y-22472305D01*
X1878694Y-22825076D01*
X1514294Y-23302162D01*
X425000Y-23302162D01*
X425000Y-21733905D01*
X14086000Y-21733905D01*
X14086000Y-21993000D01*
X14236000Y-22143000D01*
X15036000Y-22143000D01*
X15036000Y-21343000D01*
X15336000Y-21343000D01*
X15336000Y-22143000D01*
X16136000Y-22143000D01*
X16286000Y-21993000D01*
X16286000Y-21733905D01*
X16262942Y-21617987D01*
X16217713Y-21508794D01*
X16152051Y-21410522D01*
X16068478Y-21326950D01*
X15970207Y-21261287D01*
X15861014Y-21216058D01*
X15745095Y-21193000D01*
X15486000Y-21193000D01*
X15336000Y-21343000D01*
X15036000Y-21343000D01*
X14886000Y-21193000D01*
X14626905Y-21193000D01*
X14510986Y-21216058D01*
X14401793Y-21261287D01*
X14303522Y-21326950D01*
X14219949Y-21410522D01*
X14154287Y-21508794D01*
X14109058Y-21617987D01*
X14086000Y-21733905D01*
X425000Y-21733905D01*
X425000Y-19828981D01*
X9436000Y-19828981D01*
X9436000Y-19957019D01*
X9460979Y-20082598D01*
X9509978Y-20200890D01*
X9581112Y-20307351D01*
X9671649Y-20397888D01*
X9778110Y-20469022D01*
X9896402Y-20518021D01*
X10021981Y-20543000D01*
X10150019Y-20543000D01*
X10275598Y-20518021D01*
X10393890Y-20469022D01*
X10500351Y-20397888D01*
X10590888Y-20307351D01*
X10662022Y-20200890D01*
X10711021Y-20082598D01*
X10736000Y-19957019D01*
X10736000Y-19950106D01*
X10756919Y-19929187D01*
X10756923Y-19929182D01*
X11522187Y-19163920D01*
X11541264Y-19148264D01*
X11603746Y-19072129D01*
X11650175Y-18985267D01*
X11678765Y-18891017D01*
X11686000Y-18817560D01*
X11686000Y-18817551D01*
X11688418Y-18793001D01*
X11686942Y-18778013D01*
X31501919Y-18778013D01*
X31631852Y-19055387D01*
X31960091Y-19213687D01*
X32312907Y-19304911D01*
X32676740Y-19325550D01*
X33037610Y-19274812D01*
X33381646Y-19154647D01*
X33567348Y-19055387D01*
X33697281Y-18778013D01*
X36581919Y-18778013D01*
X36711852Y-19055387D01*
X37040091Y-19213687D01*
X37392907Y-19304911D01*
X37756740Y-19325550D01*
X38117610Y-19274812D01*
X38461646Y-19154647D01*
X38647348Y-19055387D01*
X38777281Y-18778013D01*
X37679600Y-17680332D01*
X36581919Y-18778013D01*
X33697281Y-18778013D01*
X32599600Y-17680332D01*
X31501919Y-18778013D01*
X11686942Y-18778013D01*
X11686000Y-18768451D01*
X11686000Y-17545340D01*
X30742250Y-17545340D01*
X30792988Y-17906210D01*
X30913153Y-18250246D01*
X31012413Y-18435948D01*
X31289787Y-18565881D01*
X32387468Y-17468200D01*
X32811732Y-17468200D01*
X33909413Y-18565881D01*
X34186787Y-18435948D01*
X34345087Y-18107709D01*
X34436311Y-17754893D01*
X34448198Y-17545340D01*
X35822250Y-17545340D01*
X35872988Y-17906210D01*
X35993153Y-18250246D01*
X36092413Y-18435948D01*
X36369787Y-18565881D01*
X37467468Y-17468200D01*
X37891732Y-17468200D01*
X38989413Y-18565881D01*
X39266787Y-18435948D01*
X39425087Y-18107709D01*
X39516311Y-17754893D01*
X39536950Y-17391060D01*
X39486212Y-17030190D01*
X39366047Y-16686154D01*
X39266787Y-16500452D01*
X38989413Y-16370519D01*
X37891732Y-17468200D01*
X37467468Y-17468200D01*
X36369787Y-16370519D01*
X36092413Y-16500452D01*
X35934113Y-16828691D01*
X35842889Y-17181507D01*
X35822250Y-17545340D01*
X34448198Y-17545340D01*
X34456950Y-17391060D01*
X34406212Y-17030190D01*
X34286047Y-16686154D01*
X34186787Y-16500452D01*
X33909413Y-16370519D01*
X32811732Y-17468200D01*
X32387468Y-17468200D01*
X31289787Y-16370519D01*
X31012413Y-16500452D01*
X30854113Y-16828691D01*
X30762889Y-17181507D01*
X30742250Y-17545340D01*
X11686000Y-17545340D01*
X11686000Y-16794581D01*
X12086800Y-16794581D01*
X12086800Y-16922619D01*
X12111779Y-17048198D01*
X12160778Y-17166490D01*
X12231912Y-17272951D01*
X12322449Y-17363488D01*
X12428910Y-17434622D01*
X12547202Y-17483621D01*
X12672781Y-17508600D01*
X12800819Y-17508600D01*
X12926398Y-17483621D01*
X13044690Y-17434622D01*
X13151151Y-17363488D01*
X13241688Y-17272951D01*
X13312822Y-17166490D01*
X13361821Y-17048198D01*
X13383573Y-16938844D01*
X13625017Y-16697400D01*
X14929965Y-16697400D01*
X14968910Y-16723422D01*
X15087202Y-16772421D01*
X15212781Y-16797400D01*
X15340819Y-16797400D01*
X15466398Y-16772421D01*
X15584690Y-16723422D01*
X15691151Y-16652288D01*
X15781688Y-16561751D01*
X15852822Y-16455290D01*
X15901821Y-16336998D01*
X15926800Y-16211419D01*
X15926800Y-16158387D01*
X31501919Y-16158387D01*
X32599600Y-17256068D01*
X33697281Y-16158387D01*
X33567348Y-15881013D01*
X33239109Y-15722713D01*
X32886293Y-15631489D01*
X32522460Y-15610850D01*
X32161590Y-15661588D01*
X31817554Y-15781753D01*
X31631852Y-15881013D01*
X31501919Y-16158387D01*
X15926800Y-16158387D01*
X15926800Y-16083381D01*
X15901821Y-15957802D01*
X15852822Y-15839510D01*
X15781688Y-15733049D01*
X15691151Y-15642512D01*
X15584690Y-15571378D01*
X15466398Y-15522379D01*
X15340819Y-15497400D01*
X15212781Y-15497400D01*
X15087202Y-15522379D01*
X14968910Y-15571378D01*
X14929965Y-15597400D01*
X13424211Y-15597400D01*
X13397200Y-15594740D01*
X13370189Y-15597400D01*
X13370182Y-15597400D01*
X13289381Y-15605358D01*
X13185706Y-15636808D01*
X13090158Y-15687879D01*
X13006410Y-15756610D01*
X12989187Y-15777596D01*
X12523306Y-16243477D01*
X12428910Y-16282578D01*
X12322449Y-16353712D01*
X12231912Y-16444249D01*
X12160778Y-16550710D01*
X12111779Y-16669002D01*
X12086800Y-16794581D01*
X11686000Y-16794581D01*
X11686000Y-14780463D01*
X33639600Y-14780463D01*
X33639600Y-15075937D01*
X33697244Y-15365734D01*
X33810317Y-15638717D01*
X33974474Y-15884394D01*
X34183406Y-16093326D01*
X34429083Y-16257483D01*
X34702066Y-16370556D01*
X34991863Y-16428200D01*
X35287337Y-16428200D01*
X35577134Y-16370556D01*
X35850117Y-16257483D01*
X35998423Y-16158387D01*
X36581919Y-16158387D01*
X37679600Y-17256068D01*
X38777281Y-16158387D01*
X38647348Y-15881013D01*
X38319109Y-15722713D01*
X37966293Y-15631489D01*
X37602460Y-15610850D01*
X37241590Y-15661588D01*
X36897554Y-15781753D01*
X36711852Y-15881013D01*
X36581919Y-16158387D01*
X35998423Y-16158387D01*
X36095794Y-16093326D01*
X36304726Y-15884394D01*
X36468883Y-15638717D01*
X36581956Y-15365734D01*
X36639600Y-15075937D01*
X36639600Y-14780463D01*
X36581956Y-14490666D01*
X36468883Y-14217683D01*
X36304726Y-13972006D01*
X36095794Y-13763074D01*
X35998424Y-13698013D01*
X36581919Y-13698013D01*
X36711852Y-13975387D01*
X37040091Y-14133687D01*
X37392907Y-14224911D01*
X37756740Y-14245550D01*
X38117610Y-14194812D01*
X38461646Y-14074647D01*
X38647348Y-13975387D01*
X38777281Y-13698013D01*
X37679600Y-12600332D01*
X36581919Y-13698013D01*
X35998424Y-13698013D01*
X35850117Y-13598917D01*
X35577134Y-13485844D01*
X35287337Y-13428200D01*
X34991863Y-13428200D01*
X34702066Y-13485844D01*
X34429083Y-13598917D01*
X34183406Y-13763074D01*
X33974474Y-13972006D01*
X33810317Y-14217683D01*
X33697244Y-14490666D01*
X33639600Y-14780463D01*
X11686000Y-14780463D01*
X11686000Y-13698013D01*
X31501919Y-13698013D01*
X31631852Y-13975387D01*
X31960091Y-14133687D01*
X32312907Y-14224911D01*
X32676740Y-14245550D01*
X33037610Y-14194812D01*
X33381646Y-14074647D01*
X33567348Y-13975387D01*
X33697281Y-13698013D01*
X32599600Y-12600332D01*
X31501919Y-13698013D01*
X11686000Y-13698013D01*
X11686000Y-12465340D01*
X30742250Y-12465340D01*
X30792988Y-12826210D01*
X30913153Y-13170246D01*
X31012413Y-13355948D01*
X31289787Y-13485881D01*
X32387468Y-12388200D01*
X32811732Y-12388200D01*
X33909413Y-13485881D01*
X34186787Y-13355948D01*
X34345087Y-13027709D01*
X34436311Y-12674893D01*
X34448198Y-12465340D01*
X35822250Y-12465340D01*
X35872988Y-12826210D01*
X35993153Y-13170246D01*
X36092413Y-13355948D01*
X36369787Y-13485881D01*
X37467468Y-12388200D01*
X37891732Y-12388200D01*
X38989413Y-13485881D01*
X39266787Y-13355948D01*
X39425087Y-13027709D01*
X39516311Y-12674893D01*
X39536950Y-12311060D01*
X39486212Y-11950190D01*
X39366047Y-11606154D01*
X39266787Y-11420452D01*
X38989413Y-11290519D01*
X37891732Y-12388200D01*
X37467468Y-12388200D01*
X36369787Y-11290519D01*
X36092413Y-11420452D01*
X35934113Y-11748691D01*
X35842889Y-12101507D01*
X35822250Y-12465340D01*
X34448198Y-12465340D01*
X34456950Y-12311060D01*
X34406212Y-11950190D01*
X34286047Y-11606154D01*
X34186787Y-11420452D01*
X33909413Y-11290519D01*
X32811732Y-12388200D01*
X32387468Y-12388200D01*
X31289787Y-11290519D01*
X31012413Y-11420452D01*
X30854113Y-11748691D01*
X30762889Y-12101507D01*
X30742250Y-12465340D01*
X11686000Y-12465340D01*
X11686000Y-11078387D01*
X31501919Y-11078387D01*
X32599600Y-12176068D01*
X33697281Y-11078387D01*
X36581919Y-11078387D01*
X37679600Y-12176068D01*
X38777281Y-11078387D01*
X38647348Y-10801013D01*
X38319109Y-10642713D01*
X37966293Y-10551489D01*
X37602460Y-10530850D01*
X37241590Y-10581588D01*
X36897554Y-10701753D01*
X36711852Y-10801013D01*
X36581919Y-11078387D01*
X33697281Y-11078387D01*
X33567348Y-10801013D01*
X33239109Y-10642713D01*
X32886293Y-10551489D01*
X32522460Y-10530850D01*
X32161590Y-10581588D01*
X31817554Y-10701753D01*
X31631852Y-10801013D01*
X31501919Y-11078387D01*
X11686000Y-11078387D01*
X11686000Y-9478905D01*
X14467067Y-6697838D01*
X33514294Y-6697838D01*
X33878694Y-7174924D01*
X34538851Y-7527765D01*
X35255159Y-7745036D01*
X36000091Y-7818387D01*
X36745020Y-7745000D01*
X37461318Y-7527695D01*
X38121306Y-7174924D01*
X38485706Y-6697838D01*
X36000000Y-4212132D01*
X33514294Y-6697838D01*
X14467067Y-6697838D01*
X15221906Y-5943000D01*
X15228819Y-5943000D01*
X15354398Y-5918021D01*
X15472690Y-5869022D01*
X15579151Y-5797888D01*
X15669688Y-5707351D01*
X15740822Y-5600890D01*
X15789821Y-5482598D01*
X15814800Y-5357019D01*
X15814800Y-5228981D01*
X15789821Y-5103402D01*
X15740822Y-4985110D01*
X15669688Y-4878649D01*
X15644639Y-4853600D01*
X15690888Y-4807351D01*
X15762022Y-4700890D01*
X15811021Y-4582598D01*
X15836000Y-4457019D01*
X15836000Y-4328981D01*
X15811021Y-4203402D01*
X15762022Y-4085110D01*
X15705215Y-4000091D01*
X32181613Y-4000091D01*
X32255000Y-4745020D01*
X32472305Y-5461318D01*
X32825076Y-6121306D01*
X33302162Y-6485706D01*
X35787868Y-4000000D01*
X33302162Y-1514294D01*
X32825076Y-1878694D01*
X32472235Y-2538851D01*
X32254964Y-3255159D01*
X32181613Y-4000091D01*
X15705215Y-4000091D01*
X15690888Y-3978649D01*
X15600351Y-3888112D01*
X15493890Y-3816978D01*
X15375598Y-3767979D01*
X15250019Y-3743000D01*
X15121981Y-3743000D01*
X14996402Y-3767979D01*
X14878110Y-3816978D01*
X14771649Y-3888112D01*
X14766761Y-3893000D01*
X13013743Y-3893000D01*
X12956270Y-3854598D01*
X12837978Y-3805599D01*
X12712399Y-3780620D01*
X12584361Y-3780620D01*
X12458782Y-3805599D01*
X12340490Y-3854598D01*
X12234029Y-3925732D01*
X12143492Y-4016269D01*
X12072358Y-4122730D01*
X12023359Y-4241022D01*
X11998380Y-4366601D01*
X11998380Y-4494639D01*
X12023359Y-4620218D01*
X12072358Y-4738510D01*
X12143492Y-4844971D01*
X12234029Y-4935508D01*
X12340490Y-5006642D01*
X12458782Y-5055641D01*
X12584361Y-5080620D01*
X12712399Y-5080620D01*
X12837978Y-5055641D01*
X12956270Y-5006642D01*
X13062731Y-4935508D01*
X13105239Y-4893000D01*
X14650323Y-4893000D01*
X14588778Y-4985110D01*
X14539779Y-5103402D01*
X14514800Y-5228981D01*
X14514800Y-5235894D01*
X10849824Y-8900871D01*
X10830736Y-8916536D01*
X10768254Y-8992671D01*
X10721825Y-9079534D01*
X10701908Y-9145193D01*
X10693235Y-9173783D01*
X10683581Y-9271800D01*
X10686000Y-9296360D01*
X10686001Y-18585892D01*
X10049818Y-19222077D01*
X10049813Y-19222081D01*
X10028894Y-19243000D01*
X10021981Y-19243000D01*
X9896402Y-19267979D01*
X9778110Y-19316978D01*
X9671649Y-19388112D01*
X9581112Y-19478649D01*
X9509978Y-19585110D01*
X9460979Y-19703402D01*
X9436000Y-19828981D01*
X425000Y-19828981D01*
X425000Y-19511183D01*
X481698Y-19551253D01*
X698274Y-19647679D01*
X929500Y-19700000D01*
X1279500Y-19700000D01*
X1279500Y-18650000D01*
X1579500Y-18650000D01*
X1579500Y-19700000D01*
X1929500Y-19700000D01*
X2160726Y-19647679D01*
X2377302Y-19551253D01*
X2570905Y-19414428D01*
X2734094Y-19242462D01*
X2860599Y-19041964D01*
X2931965Y-18834402D01*
X2818730Y-18650000D01*
X1579500Y-18650000D01*
X1279500Y-18650000D01*
X1259500Y-18650000D01*
X1259500Y-18434689D01*
X3406943Y-18434689D01*
X3473252Y-18658444D01*
X3711863Y-18764212D01*
X3966523Y-18821397D01*
X4227447Y-18827802D01*
X4484607Y-18783180D01*
X4728120Y-18689246D01*
X4785748Y-18658444D01*
X4852057Y-18434689D01*
X4129500Y-17712132D01*
X3406943Y-18434689D01*
X1259500Y-18434689D01*
X1259500Y-18350000D01*
X1279500Y-18350000D01*
X1279500Y-17300000D01*
X1579500Y-17300000D01*
X1579500Y-18350000D01*
X2818730Y-18350000D01*
X2931965Y-18165598D01*
X2860599Y-17958036D01*
X2734094Y-17757538D01*
X2582649Y-17597947D01*
X2801698Y-17597947D01*
X2846320Y-17855107D01*
X2940254Y-18098620D01*
X2971056Y-18156248D01*
X3194811Y-18222557D01*
X3917368Y-17500000D01*
X4341632Y-17500000D01*
X5064189Y-18222557D01*
X5287944Y-18156248D01*
X5393712Y-17917637D01*
X5450897Y-17662977D01*
X5457302Y-17402053D01*
X5412680Y-17144893D01*
X5318746Y-16901380D01*
X5287944Y-16843752D01*
X5064189Y-16777443D01*
X4341632Y-17500000D01*
X3917368Y-17500000D01*
X3194811Y-16777443D01*
X2971056Y-16843752D01*
X2865288Y-17082363D01*
X2808103Y-17337023D01*
X2801698Y-17597947D01*
X2582649Y-17597947D01*
X2570905Y-17585572D01*
X2377302Y-17448747D01*
X2160726Y-17352321D01*
X1929500Y-17300000D01*
X1579500Y-17300000D01*
X1279500Y-17300000D01*
X929500Y-17300000D01*
X698274Y-17352321D01*
X481698Y-17448747D01*
X425000Y-17488817D01*
X425000Y-16565311D01*
X3406943Y-16565311D01*
X4129500Y-17287868D01*
X4852057Y-16565311D01*
X4785748Y-16341556D01*
X4547137Y-16235788D01*
X4292477Y-16178603D01*
X4031553Y-16172198D01*
X3774393Y-16216820D01*
X3530880Y-16310754D01*
X3473252Y-16341556D01*
X3406943Y-16565311D01*
X425000Y-16565311D01*
X425000Y-13434689D01*
X3406943Y-13434689D01*
X3473252Y-13658444D01*
X3711863Y-13764212D01*
X3966523Y-13821397D01*
X4227447Y-13827802D01*
X4484607Y-13783180D01*
X4728120Y-13689246D01*
X4785748Y-13658444D01*
X4852057Y-13434689D01*
X4129500Y-12712132D01*
X3406943Y-13434689D01*
X425000Y-13434689D01*
X425000Y-12511183D01*
X481698Y-12551253D01*
X698274Y-12647679D01*
X929500Y-12700000D01*
X1279500Y-12700000D01*
X1279500Y-11650000D01*
X1579500Y-11650000D01*
X1579500Y-12700000D01*
X1929500Y-12700000D01*
X2160726Y-12647679D01*
X2272425Y-12597947D01*
X2801698Y-12597947D01*
X2846320Y-12855107D01*
X2940254Y-13098620D01*
X2971056Y-13156248D01*
X3194811Y-13222557D01*
X3917368Y-12500000D01*
X4341632Y-12500000D01*
X5064189Y-13222557D01*
X5287944Y-13156248D01*
X5393712Y-12917637D01*
X5450897Y-12662977D01*
X5457302Y-12402053D01*
X5412680Y-12144893D01*
X5318746Y-11901380D01*
X5287944Y-11843752D01*
X5064189Y-11777443D01*
X4341632Y-12500000D01*
X3917368Y-12500000D01*
X3194811Y-11777443D01*
X2971056Y-11843752D01*
X2865288Y-12082363D01*
X2808103Y-12337023D01*
X2801698Y-12597947D01*
X2272425Y-12597947D01*
X2377302Y-12551253D01*
X2570905Y-12414428D01*
X2734094Y-12242462D01*
X2860599Y-12041964D01*
X2931965Y-11834402D01*
X2818730Y-11650000D01*
X1579500Y-11650000D01*
X1279500Y-11650000D01*
X1259500Y-11650000D01*
X1259500Y-11565311D01*
X3406943Y-11565311D01*
X4129500Y-12287868D01*
X4852057Y-11565311D01*
X4785748Y-11341556D01*
X4547137Y-11235788D01*
X4292477Y-11178603D01*
X4031553Y-11172198D01*
X3774393Y-11216820D01*
X3530880Y-11310754D01*
X3473252Y-11341556D01*
X3406943Y-11565311D01*
X1259500Y-11565311D01*
X1259500Y-11350000D01*
X1279500Y-11350000D01*
X1279500Y-10300000D01*
X1579500Y-10300000D01*
X1579500Y-11350000D01*
X2818730Y-11350000D01*
X2931965Y-11165598D01*
X2860599Y-10958036D01*
X2734094Y-10757538D01*
X2570905Y-10585572D01*
X2377302Y-10448747D01*
X2160726Y-10352321D01*
X1929500Y-10300000D01*
X1579500Y-10300000D01*
X1279500Y-10300000D01*
X929500Y-10300000D01*
X698274Y-10352321D01*
X481698Y-10448747D01*
X425000Y-10488817D01*
X425000Y-6697838D01*
X1514294Y-6697838D01*
X1878694Y-7174924D01*
X2538851Y-7527765D01*
X3255159Y-7745036D01*
X4000091Y-7818387D01*
X4745020Y-7745000D01*
X5461318Y-7527695D01*
X6121306Y-7174924D01*
X6485706Y-6697838D01*
X4000000Y-4212132D01*
X1514294Y-6697838D01*
X425000Y-6697838D01*
X425000Y-5305388D01*
X472305Y-5461318D01*
X825076Y-6121306D01*
X1302162Y-6485706D01*
X3787868Y-4000000D01*
X4212132Y-4000000D01*
X6697838Y-6485706D01*
X7174924Y-6121306D01*
X7527765Y-5461149D01*
X7745036Y-4744841D01*
X7818387Y-3999909D01*
X7745000Y-3254980D01*
X7527695Y-2538682D01*
X7174924Y-1878694D01*
X6697838Y-1514294D01*
X4212132Y-4000000D01*
X3787868Y-4000000D01*
X1302162Y-1514294D01*
X825076Y-1878694D01*
X472235Y-2538851D01*
X425000Y-2694577D01*
X425000Y-425000D01*
X2694612Y-425000D01*
X2538682Y-472305D01*
X2538682Y-472305D01*
G37*
X2538682Y-472305D02*
X1878694Y-825076D01*
X1514294Y-1302162D01*
X4000000Y-3787868D01*
X6485706Y-1302162D01*
X6121306Y-825076D01*
X5461149Y-472235D01*
X5305423Y-425000D01*
X34694612Y-425000D01*
X34538682Y-472305D01*
X33878694Y-825076D01*
X33514294Y-1302162D01*
X36000000Y-3787868D01*
X38485706Y-1302162D01*
X38121306Y-825076D01*
X37461149Y-472235D01*
X37305423Y-425000D01*
X39575001Y-425000D01*
X39575001Y-2694615D01*
X39527695Y-2538682D01*
X39174924Y-1878694D01*
X38697838Y-1514294D01*
X36212132Y-4000000D01*
X38697838Y-6485706D01*
X39174924Y-6121306D01*
X39527765Y-5461149D01*
X39575001Y-5305420D01*
X39575000Y-24694613D01*
X39527695Y-24538682D01*
X39174924Y-23878694D01*
X38697838Y-23514294D01*
X36212132Y-26000000D01*
X38697838Y-28485706D01*
X39174924Y-28121306D01*
X39527765Y-27461149D01*
X39575000Y-27305422D01*
X39575000Y-29575000D01*
X37305388Y-29575000D01*
X37461318Y-29527695D01*
X38121306Y-29174924D01*
X38485706Y-28697838D01*
X36000000Y-26212132D01*
X33514294Y-28697838D01*
X33878694Y-29174924D01*
X34538851Y-29527765D01*
X34694577Y-29575000D01*
X5305388Y-29575000D01*
X5461318Y-29527695D01*
X6121306Y-29174924D01*
X6485706Y-28697838D01*
X4000000Y-26212132D01*
X1514294Y-28697838D01*
X1878694Y-29174924D01*
X2538851Y-29527765D01*
X2694577Y-29575000D01*
X425000Y-29575000D01*
X425000Y-27305388D01*
X472305Y-27461318D01*
X825076Y-28121306D01*
X1302162Y-28485706D01*
X3787868Y-26000000D01*
X4212132Y-26000000D01*
X6697838Y-28485706D01*
X7174924Y-28121306D01*
X7527765Y-27461149D01*
X7745036Y-26744841D01*
X7818369Y-26000091D01*
X32181613Y-26000091D01*
X32255000Y-26745020D01*
X32472305Y-27461318D01*
X32825076Y-28121306D01*
X33302162Y-28485706D01*
X35787868Y-26000000D01*
X33302162Y-23514294D01*
X32825076Y-23878694D01*
X32472235Y-24538851D01*
X32254964Y-25255159D01*
X32181613Y-26000091D01*
X7818369Y-26000091D01*
X7818387Y-25999909D01*
X7745000Y-25254980D01*
X7527695Y-24538682D01*
X7174924Y-23878694D01*
X6847991Y-23628981D01*
X13936000Y-23628981D01*
X13936000Y-23757019D01*
X13960979Y-23882598D01*
X14009978Y-24000890D01*
X14081112Y-24107351D01*
X14171649Y-24197888D01*
X14278110Y-24269022D01*
X14396402Y-24318021D01*
X14442343Y-24327159D01*
X14477982Y-24362798D01*
X14477986Y-24362803D01*
X14527997Y-24412814D01*
X14545220Y-24433800D01*
X14628968Y-24502531D01*
X14724516Y-24553602D01*
X14828191Y-24585052D01*
X14908992Y-24593010D01*
X14909001Y-24593010D01*
X14936009Y-24595670D01*
X14963017Y-24593010D01*
X16657165Y-24593010D01*
X16696110Y-24619032D01*
X16814402Y-24668031D01*
X16939981Y-24693010D01*
X17068019Y-24693010D01*
X17193598Y-24668031D01*
X17311890Y-24619032D01*
X17418351Y-24547898D01*
X17508888Y-24457361D01*
X17580022Y-24350900D01*
X17629021Y-24232608D01*
X17654000Y-24107029D01*
X17654000Y-23978991D01*
X17629021Y-23853412D01*
X17580022Y-23735120D01*
X17509110Y-23628991D01*
X17776400Y-23628991D01*
X17776400Y-23757029D01*
X17801379Y-23882608D01*
X17850378Y-24000900D01*
X17921512Y-24107361D01*
X18012049Y-24197898D01*
X18118510Y-24269032D01*
X18236802Y-24318031D01*
X18362381Y-24343010D01*
X18490419Y-24343010D01*
X18615998Y-24318031D01*
X18734290Y-24269032D01*
X18840751Y-24197898D01*
X18931288Y-24107361D01*
X19002422Y-24000900D01*
X19051421Y-23882608D01*
X19060559Y-23836667D01*
X19096198Y-23801028D01*
X19096203Y-23801024D01*
X19595065Y-23302162D01*
X33514294Y-23302162D01*
X36000000Y-25787868D01*
X38485706Y-23302162D01*
X38121306Y-22825076D01*
X37461149Y-22472235D01*
X36744841Y-22254964D01*
X35999909Y-22181613D01*
X35254980Y-22255000D01*
X34538682Y-22472305D01*
X33878694Y-22825076D01*
X33514294Y-23302162D01*
X19595065Y-23302162D01*
X20205427Y-22691800D01*
X20904365Y-22691800D01*
X20943310Y-22717822D01*
X21061602Y-22766821D01*
X21187181Y-22791800D01*
X21315219Y-22791800D01*
X21440798Y-22766821D01*
X21559090Y-22717822D01*
X21665551Y-22646688D01*
X21756088Y-22556151D01*
X21827222Y-22449690D01*
X21876221Y-22331398D01*
X21901200Y-22205819D01*
X21901200Y-22077781D01*
X21876221Y-21952202D01*
X21827222Y-21833910D01*
X21756088Y-21727449D01*
X21665551Y-21636912D01*
X21559090Y-21565778D01*
X21440798Y-21516779D01*
X21315219Y-21491800D01*
X21187181Y-21491800D01*
X21061602Y-21516779D01*
X20943310Y-21565778D01*
X20904365Y-21591800D01*
X20004621Y-21591800D01*
X19977610Y-21589140D01*
X19950599Y-21591800D01*
X19950592Y-21591800D01*
X19869791Y-21599758D01*
X19766116Y-21631208D01*
X19670568Y-21682279D01*
X19586820Y-21751010D01*
X19569597Y-21771996D01*
X18318386Y-23023207D01*
X18318382Y-23023212D01*
X18282743Y-23058851D01*
X18236802Y-23067989D01*
X18118510Y-23116988D01*
X18012049Y-23188122D01*
X17921512Y-23278659D01*
X17850378Y-23385120D01*
X17801379Y-23503412D01*
X17776400Y-23628991D01*
X17509110Y-23628991D01*
X17508888Y-23628659D01*
X17418351Y-23538122D01*
X17311890Y-23466988D01*
X17193598Y-23417989D01*
X17068019Y-23393010D01*
X16939981Y-23393010D01*
X16814402Y-23417989D01*
X16696110Y-23466988D01*
X16657165Y-23493010D01*
X15206716Y-23493010D01*
X15162022Y-23385110D01*
X15090888Y-23278649D01*
X15036000Y-23223761D01*
X15036000Y-22443000D01*
X15336000Y-22443000D01*
X15336000Y-23243000D01*
X15486000Y-23393000D01*
X15745095Y-23393000D01*
X15861014Y-23369942D01*
X15970207Y-23324713D01*
X16068478Y-23259050D01*
X16152051Y-23175478D01*
X16217713Y-23077206D01*
X16262942Y-22968013D01*
X16286000Y-22852095D01*
X16286000Y-22593000D01*
X16136000Y-22443000D01*
X15336000Y-22443000D01*
X15036000Y-22443000D01*
X14236000Y-22443000D01*
X14086000Y-22593000D01*
X14086000Y-22852095D01*
X14109058Y-22968013D01*
X14154287Y-23077206D01*
X14210877Y-23161901D01*
X14171649Y-23188112D01*
X14081112Y-23278649D01*
X14009978Y-23385110D01*
X13960979Y-23503402D01*
X13936000Y-23628981D01*
X6847991Y-23628981D01*
X6697838Y-23514294D01*
X4212132Y-26000000D01*
X3787868Y-26000000D01*
X1302162Y-23514294D01*
X825076Y-23878694D01*
X472235Y-24538851D01*
X425000Y-24694577D01*
X425000Y-23302162D01*
X1514294Y-23302162D01*
X4000000Y-25787868D01*
X6485706Y-23302162D01*
X6121306Y-22825076D01*
X5461149Y-22472235D01*
X4744841Y-22254964D01*
X3999909Y-22181613D01*
X3254980Y-22255000D01*
X2538682Y-22472305D01*
X1878694Y-22825076D01*
X1514294Y-23302162D01*
X425000Y-23302162D01*
X425000Y-21733905D01*
X14086000Y-21733905D01*
X14086000Y-21993000D01*
X14236000Y-22143000D01*
X15036000Y-22143000D01*
X15036000Y-21343000D01*
X15336000Y-21343000D01*
X15336000Y-22143000D01*
X16136000Y-22143000D01*
X16286000Y-21993000D01*
X16286000Y-21733905D01*
X16262942Y-21617987D01*
X16217713Y-21508794D01*
X16152051Y-21410522D01*
X16068478Y-21326950D01*
X15970207Y-21261287D01*
X15861014Y-21216058D01*
X15745095Y-21193000D01*
X15486000Y-21193000D01*
X15336000Y-21343000D01*
X15036000Y-21343000D01*
X14886000Y-21193000D01*
X14626905Y-21193000D01*
X14510986Y-21216058D01*
X14401793Y-21261287D01*
X14303522Y-21326950D01*
X14219949Y-21410522D01*
X14154287Y-21508794D01*
X14109058Y-21617987D01*
X14086000Y-21733905D01*
X425000Y-21733905D01*
X425000Y-19828981D01*
X9436000Y-19828981D01*
X9436000Y-19957019D01*
X9460979Y-20082598D01*
X9509978Y-20200890D01*
X9581112Y-20307351D01*
X9671649Y-20397888D01*
X9778110Y-20469022D01*
X9896402Y-20518021D01*
X10021981Y-20543000D01*
X10150019Y-20543000D01*
X10275598Y-20518021D01*
X10393890Y-20469022D01*
X10500351Y-20397888D01*
X10590888Y-20307351D01*
X10662022Y-20200890D01*
X10711021Y-20082598D01*
X10736000Y-19957019D01*
X10736000Y-19950106D01*
X10756919Y-19929187D01*
X10756923Y-19929182D01*
X11522187Y-19163920D01*
X11541264Y-19148264D01*
X11603746Y-19072129D01*
X11650175Y-18985267D01*
X11678765Y-18891017D01*
X11686000Y-18817560D01*
X11686000Y-18817551D01*
X11688418Y-18793001D01*
X11686942Y-18778013D01*
X31501919Y-18778013D01*
X31631852Y-19055387D01*
X31960091Y-19213687D01*
X32312907Y-19304911D01*
X32676740Y-19325550D01*
X33037610Y-19274812D01*
X33381646Y-19154647D01*
X33567348Y-19055387D01*
X33697281Y-18778013D01*
X36581919Y-18778013D01*
X36711852Y-19055387D01*
X37040091Y-19213687D01*
X37392907Y-19304911D01*
X37756740Y-19325550D01*
X38117610Y-19274812D01*
X38461646Y-19154647D01*
X38647348Y-19055387D01*
X38777281Y-18778013D01*
X37679600Y-17680332D01*
X36581919Y-18778013D01*
X33697281Y-18778013D01*
X32599600Y-17680332D01*
X31501919Y-18778013D01*
X11686942Y-18778013D01*
X11686000Y-18768451D01*
X11686000Y-17545340D01*
X30742250Y-17545340D01*
X30792988Y-17906210D01*
X30913153Y-18250246D01*
X31012413Y-18435948D01*
X31289787Y-18565881D01*
X32387468Y-17468200D01*
X32811732Y-17468200D01*
X33909413Y-18565881D01*
X34186787Y-18435948D01*
X34345087Y-18107709D01*
X34436311Y-17754893D01*
X34448198Y-17545340D01*
X35822250Y-17545340D01*
X35872988Y-17906210D01*
X35993153Y-18250246D01*
X36092413Y-18435948D01*
X36369787Y-18565881D01*
X37467468Y-17468200D01*
X37891732Y-17468200D01*
X38989413Y-18565881D01*
X39266787Y-18435948D01*
X39425087Y-18107709D01*
X39516311Y-17754893D01*
X39536950Y-17391060D01*
X39486212Y-17030190D01*
X39366047Y-16686154D01*
X39266787Y-16500452D01*
X38989413Y-16370519D01*
X37891732Y-17468200D01*
X37467468Y-17468200D01*
X36369787Y-16370519D01*
X36092413Y-16500452D01*
X35934113Y-16828691D01*
X35842889Y-17181507D01*
X35822250Y-17545340D01*
X34448198Y-17545340D01*
X34456950Y-17391060D01*
X34406212Y-17030190D01*
X34286047Y-16686154D01*
X34186787Y-16500452D01*
X33909413Y-16370519D01*
X32811732Y-17468200D01*
X32387468Y-17468200D01*
X31289787Y-16370519D01*
X31012413Y-16500452D01*
X30854113Y-16828691D01*
X30762889Y-17181507D01*
X30742250Y-17545340D01*
X11686000Y-17545340D01*
X11686000Y-16794581D01*
X12086800Y-16794581D01*
X12086800Y-16922619D01*
X12111779Y-17048198D01*
X12160778Y-17166490D01*
X12231912Y-17272951D01*
X12322449Y-17363488D01*
X12428910Y-17434622D01*
X12547202Y-17483621D01*
X12672781Y-17508600D01*
X12800819Y-17508600D01*
X12926398Y-17483621D01*
X13044690Y-17434622D01*
X13151151Y-17363488D01*
X13241688Y-17272951D01*
X13312822Y-17166490D01*
X13361821Y-17048198D01*
X13383573Y-16938844D01*
X13625017Y-16697400D01*
X14929965Y-16697400D01*
X14968910Y-16723422D01*
X15087202Y-16772421D01*
X15212781Y-16797400D01*
X15340819Y-16797400D01*
X15466398Y-16772421D01*
X15584690Y-16723422D01*
X15691151Y-16652288D01*
X15781688Y-16561751D01*
X15852822Y-16455290D01*
X15901821Y-16336998D01*
X15926800Y-16211419D01*
X15926800Y-16158387D01*
X31501919Y-16158387D01*
X32599600Y-17256068D01*
X33697281Y-16158387D01*
X33567348Y-15881013D01*
X33239109Y-15722713D01*
X32886293Y-15631489D01*
X32522460Y-15610850D01*
X32161590Y-15661588D01*
X31817554Y-15781753D01*
X31631852Y-15881013D01*
X31501919Y-16158387D01*
X15926800Y-16158387D01*
X15926800Y-16083381D01*
X15901821Y-15957802D01*
X15852822Y-15839510D01*
X15781688Y-15733049D01*
X15691151Y-15642512D01*
X15584690Y-15571378D01*
X15466398Y-15522379D01*
X15340819Y-15497400D01*
X15212781Y-15497400D01*
X15087202Y-15522379D01*
X14968910Y-15571378D01*
X14929965Y-15597400D01*
X13424211Y-15597400D01*
X13397200Y-15594740D01*
X13370189Y-15597400D01*
X13370182Y-15597400D01*
X13289381Y-15605358D01*
X13185706Y-15636808D01*
X13090158Y-15687879D01*
X13006410Y-15756610D01*
X12989187Y-15777596D01*
X12523306Y-16243477D01*
X12428910Y-16282578D01*
X12322449Y-16353712D01*
X12231912Y-16444249D01*
X12160778Y-16550710D01*
X12111779Y-16669002D01*
X12086800Y-16794581D01*
X11686000Y-16794581D01*
X11686000Y-14780463D01*
X33639600Y-14780463D01*
X33639600Y-15075937D01*
X33697244Y-15365734D01*
X33810317Y-15638717D01*
X33974474Y-15884394D01*
X34183406Y-16093326D01*
X34429083Y-16257483D01*
X34702066Y-16370556D01*
X34991863Y-16428200D01*
X35287337Y-16428200D01*
X35577134Y-16370556D01*
X35850117Y-16257483D01*
X35998423Y-16158387D01*
X36581919Y-16158387D01*
X37679600Y-17256068D01*
X38777281Y-16158387D01*
X38647348Y-15881013D01*
X38319109Y-15722713D01*
X37966293Y-15631489D01*
X37602460Y-15610850D01*
X37241590Y-15661588D01*
X36897554Y-15781753D01*
X36711852Y-15881013D01*
X36581919Y-16158387D01*
X35998423Y-16158387D01*
X36095794Y-16093326D01*
X36304726Y-15884394D01*
X36468883Y-15638717D01*
X36581956Y-15365734D01*
X36639600Y-15075937D01*
X36639600Y-14780463D01*
X36581956Y-14490666D01*
X36468883Y-14217683D01*
X36304726Y-13972006D01*
X36095794Y-13763074D01*
X35998424Y-13698013D01*
X36581919Y-13698013D01*
X36711852Y-13975387D01*
X37040091Y-14133687D01*
X37392907Y-14224911D01*
X37756740Y-14245550D01*
X38117610Y-14194812D01*
X38461646Y-14074647D01*
X38647348Y-13975387D01*
X38777281Y-13698013D01*
X37679600Y-12600332D01*
X36581919Y-13698013D01*
X35998424Y-13698013D01*
X35850117Y-13598917D01*
X35577134Y-13485844D01*
X35287337Y-13428200D01*
X34991863Y-13428200D01*
X34702066Y-13485844D01*
X34429083Y-13598917D01*
X34183406Y-13763074D01*
X33974474Y-13972006D01*
X33810317Y-14217683D01*
X33697244Y-14490666D01*
X33639600Y-14780463D01*
X11686000Y-14780463D01*
X11686000Y-13698013D01*
X31501919Y-13698013D01*
X31631852Y-13975387D01*
X31960091Y-14133687D01*
X32312907Y-14224911D01*
X32676740Y-14245550D01*
X33037610Y-14194812D01*
X33381646Y-14074647D01*
X33567348Y-13975387D01*
X33697281Y-13698013D01*
X32599600Y-12600332D01*
X31501919Y-13698013D01*
X11686000Y-13698013D01*
X11686000Y-12465340D01*
X30742250Y-12465340D01*
X30792988Y-12826210D01*
X30913153Y-13170246D01*
X31012413Y-13355948D01*
X31289787Y-13485881D01*
X32387468Y-12388200D01*
X32811732Y-12388200D01*
X33909413Y-13485881D01*
X34186787Y-13355948D01*
X34345087Y-13027709D01*
X34436311Y-12674893D01*
X34448198Y-12465340D01*
X35822250Y-12465340D01*
X35872988Y-12826210D01*
X35993153Y-13170246D01*
X36092413Y-13355948D01*
X36369787Y-13485881D01*
X37467468Y-12388200D01*
X37891732Y-12388200D01*
X38989413Y-13485881D01*
X39266787Y-13355948D01*
X39425087Y-13027709D01*
X39516311Y-12674893D01*
X39536950Y-12311060D01*
X39486212Y-11950190D01*
X39366047Y-11606154D01*
X39266787Y-11420452D01*
X38989413Y-11290519D01*
X37891732Y-12388200D01*
X37467468Y-12388200D01*
X36369787Y-11290519D01*
X36092413Y-11420452D01*
X35934113Y-11748691D01*
X35842889Y-12101507D01*
X35822250Y-12465340D01*
X34448198Y-12465340D01*
X34456950Y-12311060D01*
X34406212Y-11950190D01*
X34286047Y-11606154D01*
X34186787Y-11420452D01*
X33909413Y-11290519D01*
X32811732Y-12388200D01*
X32387468Y-12388200D01*
X31289787Y-11290519D01*
X31012413Y-11420452D01*
X30854113Y-11748691D01*
X30762889Y-12101507D01*
X30742250Y-12465340D01*
X11686000Y-12465340D01*
X11686000Y-11078387D01*
X31501919Y-11078387D01*
X32599600Y-12176068D01*
X33697281Y-11078387D01*
X36581919Y-11078387D01*
X37679600Y-12176068D01*
X38777281Y-11078387D01*
X38647348Y-10801013D01*
X38319109Y-10642713D01*
X37966293Y-10551489D01*
X37602460Y-10530850D01*
X37241590Y-10581588D01*
X36897554Y-10701753D01*
X36711852Y-10801013D01*
X36581919Y-11078387D01*
X33697281Y-11078387D01*
X33567348Y-10801013D01*
X33239109Y-10642713D01*
X32886293Y-10551489D01*
X32522460Y-10530850D01*
X32161590Y-10581588D01*
X31817554Y-10701753D01*
X31631852Y-10801013D01*
X31501919Y-11078387D01*
X11686000Y-11078387D01*
X11686000Y-9478905D01*
X14467067Y-6697838D01*
X33514294Y-6697838D01*
X33878694Y-7174924D01*
X34538851Y-7527765D01*
X35255159Y-7745036D01*
X36000091Y-7818387D01*
X36745020Y-7745000D01*
X37461318Y-7527695D01*
X38121306Y-7174924D01*
X38485706Y-6697838D01*
X36000000Y-4212132D01*
X33514294Y-6697838D01*
X14467067Y-6697838D01*
X15221906Y-5943000D01*
X15228819Y-5943000D01*
X15354398Y-5918021D01*
X15472690Y-5869022D01*
X15579151Y-5797888D01*
X15669688Y-5707351D01*
X15740822Y-5600890D01*
X15789821Y-5482598D01*
X15814800Y-5357019D01*
X15814800Y-5228981D01*
X15789821Y-5103402D01*
X15740822Y-4985110D01*
X15669688Y-4878649D01*
X15644639Y-4853600D01*
X15690888Y-4807351D01*
X15762022Y-4700890D01*
X15811021Y-4582598D01*
X15836000Y-4457019D01*
X15836000Y-4328981D01*
X15811021Y-4203402D01*
X15762022Y-4085110D01*
X15705215Y-4000091D01*
X32181613Y-4000091D01*
X32255000Y-4745020D01*
X32472305Y-5461318D01*
X32825076Y-6121306D01*
X33302162Y-6485706D01*
X35787868Y-4000000D01*
X33302162Y-1514294D01*
X32825076Y-1878694D01*
X32472235Y-2538851D01*
X32254964Y-3255159D01*
X32181613Y-4000091D01*
X15705215Y-4000091D01*
X15690888Y-3978649D01*
X15600351Y-3888112D01*
X15493890Y-3816978D01*
X15375598Y-3767979D01*
X15250019Y-3743000D01*
X15121981Y-3743000D01*
X14996402Y-3767979D01*
X14878110Y-3816978D01*
X14771649Y-3888112D01*
X14766761Y-3893000D01*
X13013743Y-3893000D01*
X12956270Y-3854598D01*
X12837978Y-3805599D01*
X12712399Y-3780620D01*
X12584361Y-3780620D01*
X12458782Y-3805599D01*
X12340490Y-3854598D01*
X12234029Y-3925732D01*
X12143492Y-4016269D01*
X12072358Y-4122730D01*
X12023359Y-4241022D01*
X11998380Y-4366601D01*
X11998380Y-4494639D01*
X12023359Y-4620218D01*
X12072358Y-4738510D01*
X12143492Y-4844971D01*
X12234029Y-4935508D01*
X12340490Y-5006642D01*
X12458782Y-5055641D01*
X12584361Y-5080620D01*
X12712399Y-5080620D01*
X12837978Y-5055641D01*
X12956270Y-5006642D01*
X13062731Y-4935508D01*
X13105239Y-4893000D01*
X14650323Y-4893000D01*
X14588778Y-4985110D01*
X14539779Y-5103402D01*
X14514800Y-5228981D01*
X14514800Y-5235894D01*
X10849824Y-8900871D01*
X10830736Y-8916536D01*
X10768254Y-8992671D01*
X10721825Y-9079534D01*
X10701908Y-9145193D01*
X10693235Y-9173783D01*
X10683581Y-9271800D01*
X10686000Y-9296360D01*
X10686001Y-18585892D01*
X10049818Y-19222077D01*
X10049813Y-19222081D01*
X10028894Y-19243000D01*
X10021981Y-19243000D01*
X9896402Y-19267979D01*
X9778110Y-19316978D01*
X9671649Y-19388112D01*
X9581112Y-19478649D01*
X9509978Y-19585110D01*
X9460979Y-19703402D01*
X9436000Y-19828981D01*
X425000Y-19828981D01*
X425000Y-19511183D01*
X481698Y-19551253D01*
X698274Y-19647679D01*
X929500Y-19700000D01*
X1279500Y-19700000D01*
X1279500Y-18650000D01*
X1579500Y-18650000D01*
X1579500Y-19700000D01*
X1929500Y-19700000D01*
X2160726Y-19647679D01*
X2377302Y-19551253D01*
X2570905Y-19414428D01*
X2734094Y-19242462D01*
X2860599Y-19041964D01*
X2931965Y-18834402D01*
X2818730Y-18650000D01*
X1579500Y-18650000D01*
X1279500Y-18650000D01*
X1259500Y-18650000D01*
X1259500Y-18434689D01*
X3406943Y-18434689D01*
X3473252Y-18658444D01*
X3711863Y-18764212D01*
X3966523Y-18821397D01*
X4227447Y-18827802D01*
X4484607Y-18783180D01*
X4728120Y-18689246D01*
X4785748Y-18658444D01*
X4852057Y-18434689D01*
X4129500Y-17712132D01*
X3406943Y-18434689D01*
X1259500Y-18434689D01*
X1259500Y-18350000D01*
X1279500Y-18350000D01*
X1279500Y-17300000D01*
X1579500Y-17300000D01*
X1579500Y-18350000D01*
X2818730Y-18350000D01*
X2931965Y-18165598D01*
X2860599Y-17958036D01*
X2734094Y-17757538D01*
X2582649Y-17597947D01*
X2801698Y-17597947D01*
X2846320Y-17855107D01*
X2940254Y-18098620D01*
X2971056Y-18156248D01*
X3194811Y-18222557D01*
X3917368Y-17500000D01*
X4341632Y-17500000D01*
X5064189Y-18222557D01*
X5287944Y-18156248D01*
X5393712Y-17917637D01*
X5450897Y-17662977D01*
X5457302Y-17402053D01*
X5412680Y-17144893D01*
X5318746Y-16901380D01*
X5287944Y-16843752D01*
X5064189Y-16777443D01*
X4341632Y-17500000D01*
X3917368Y-17500000D01*
X3194811Y-16777443D01*
X2971056Y-16843752D01*
X2865288Y-17082363D01*
X2808103Y-17337023D01*
X2801698Y-17597947D01*
X2582649Y-17597947D01*
X2570905Y-17585572D01*
X2377302Y-17448747D01*
X2160726Y-17352321D01*
X1929500Y-17300000D01*
X1579500Y-17300000D01*
X1279500Y-17300000D01*
X929500Y-17300000D01*
X698274Y-17352321D01*
X481698Y-17448747D01*
X425000Y-17488817D01*
X425000Y-16565311D01*
X3406943Y-16565311D01*
X4129500Y-17287868D01*
X4852057Y-16565311D01*
X4785748Y-16341556D01*
X4547137Y-16235788D01*
X4292477Y-16178603D01*
X4031553Y-16172198D01*
X3774393Y-16216820D01*
X3530880Y-16310754D01*
X3473252Y-16341556D01*
X3406943Y-16565311D01*
X425000Y-16565311D01*
X425000Y-13434689D01*
X3406943Y-13434689D01*
X3473252Y-13658444D01*
X3711863Y-13764212D01*
X3966523Y-13821397D01*
X4227447Y-13827802D01*
X4484607Y-13783180D01*
X4728120Y-13689246D01*
X4785748Y-13658444D01*
X4852057Y-13434689D01*
X4129500Y-12712132D01*
X3406943Y-13434689D01*
X425000Y-13434689D01*
X425000Y-12511183D01*
X481698Y-12551253D01*
X698274Y-12647679D01*
X929500Y-12700000D01*
X1279500Y-12700000D01*
X1279500Y-11650000D01*
X1579500Y-11650000D01*
X1579500Y-12700000D01*
X1929500Y-12700000D01*
X2160726Y-12647679D01*
X2272425Y-12597947D01*
X2801698Y-12597947D01*
X2846320Y-12855107D01*
X2940254Y-13098620D01*
X2971056Y-13156248D01*
X3194811Y-13222557D01*
X3917368Y-12500000D01*
X4341632Y-12500000D01*
X5064189Y-13222557D01*
X5287944Y-13156248D01*
X5393712Y-12917637D01*
X5450897Y-12662977D01*
X5457302Y-12402053D01*
X5412680Y-12144893D01*
X5318746Y-11901380D01*
X5287944Y-11843752D01*
X5064189Y-11777443D01*
X4341632Y-12500000D01*
X3917368Y-12500000D01*
X3194811Y-11777443D01*
X2971056Y-11843752D01*
X2865288Y-12082363D01*
X2808103Y-12337023D01*
X2801698Y-12597947D01*
X2272425Y-12597947D01*
X2377302Y-12551253D01*
X2570905Y-12414428D01*
X2734094Y-12242462D01*
X2860599Y-12041964D01*
X2931965Y-11834402D01*
X2818730Y-11650000D01*
X1579500Y-11650000D01*
X1279500Y-11650000D01*
X1259500Y-11650000D01*
X1259500Y-11565311D01*
X3406943Y-11565311D01*
X4129500Y-12287868D01*
X4852057Y-11565311D01*
X4785748Y-11341556D01*
X4547137Y-11235788D01*
X4292477Y-11178603D01*
X4031553Y-11172198D01*
X3774393Y-11216820D01*
X3530880Y-11310754D01*
X3473252Y-11341556D01*
X3406943Y-11565311D01*
X1259500Y-11565311D01*
X1259500Y-11350000D01*
X1279500Y-11350000D01*
X1279500Y-10300000D01*
X1579500Y-10300000D01*
X1579500Y-11350000D01*
X2818730Y-11350000D01*
X2931965Y-11165598D01*
X2860599Y-10958036D01*
X2734094Y-10757538D01*
X2570905Y-10585572D01*
X2377302Y-10448747D01*
X2160726Y-10352321D01*
X1929500Y-10300000D01*
X1579500Y-10300000D01*
X1279500Y-10300000D01*
X929500Y-10300000D01*
X698274Y-10352321D01*
X481698Y-10448747D01*
X425000Y-10488817D01*
X425000Y-6697838D01*
X1514294Y-6697838D01*
X1878694Y-7174924D01*
X2538851Y-7527765D01*
X3255159Y-7745036D01*
X4000091Y-7818387D01*
X4745020Y-7745000D01*
X5461318Y-7527695D01*
X6121306Y-7174924D01*
X6485706Y-6697838D01*
X4000000Y-4212132D01*
X1514294Y-6697838D01*
X425000Y-6697838D01*
X425000Y-5305388D01*
X472305Y-5461318D01*
X825076Y-6121306D01*
X1302162Y-6485706D01*
X3787868Y-4000000D01*
X4212132Y-4000000D01*
X6697838Y-6485706D01*
X7174924Y-6121306D01*
X7527765Y-5461149D01*
X7745036Y-4744841D01*
X7818387Y-3999909D01*
X7745000Y-3254980D01*
X7527695Y-2538682D01*
X7174924Y-1878694D01*
X6697838Y-1514294D01*
X4212132Y-4000000D01*
X3787868Y-4000000D01*
X1302162Y-1514294D01*
X825076Y-1878694D01*
X472235Y-2538851D01*
X425000Y-2694577D01*
X425000Y-425000D01*
X2694612Y-425000D01*
X2538682Y-472305D01*
G04 #@! TD*
M02*
