G04 #@! TF.GenerationSoftware,KiCad,Pcbnew,(5.0.0)*
G04 #@! TF.CreationDate,2019-01-10T03:07:59-03:00*
G04 #@! TF.ProjectId,EstacionTerrena,4573746163696F6E54657272656E612E,rev?*
G04 #@! TF.SameCoordinates,Original*
G04 #@! TF.FileFunction,Paste,Top*
G04 #@! TF.FilePolarity,Positive*
%FSLAX46Y46*%
G04 Gerber Fmt 4.6, Leading zero omitted, Abs format (unit mm)*
G04 Created by KiCad (PCBNEW (5.0.0)) date 01/10/19 03:07:59*
%MOMM*%
%LPD*%
G01*
G04 APERTURE LIST*
%ADD10C,0.100000*%
%ADD11C,0.590000*%
%ADD12C,0.875000*%
%ADD13C,0.975000*%
%ADD14R,1.900000X1.500000*%
%ADD15R,1.350000X0.400000*%
%ADD16R,1.150000X1.000000*%
%ADD17R,1.900000X0.400000*%
%ADD18R,1.750000X0.450000*%
%ADD19R,0.450000X0.300000*%
%ADD20C,0.950000*%
%ADD21R,1.050000X0.600000*%
%ADD22R,0.900000X0.300000*%
%ADD23R,0.300000X0.900000*%
%ADD24R,2.500000X2.500000*%
%ADD25R,0.350000X1.000000*%
G04 APERTURE END LIST*
D10*
G04 #@! TO.C,C17*
G36*
X27140359Y-19117111D02*
X27154677Y-19119235D01*
X27168718Y-19122752D01*
X27182347Y-19127629D01*
X27195432Y-19133818D01*
X27207848Y-19141259D01*
X27219474Y-19149882D01*
X27230199Y-19159603D01*
X27239920Y-19170328D01*
X27248543Y-19181954D01*
X27255984Y-19194370D01*
X27262173Y-19207455D01*
X27267050Y-19221084D01*
X27270567Y-19235125D01*
X27272691Y-19249443D01*
X27273401Y-19263901D01*
X27273401Y-19608901D01*
X27272691Y-19623359D01*
X27270567Y-19637677D01*
X27267050Y-19651718D01*
X27262173Y-19665347D01*
X27255984Y-19678432D01*
X27248543Y-19690848D01*
X27239920Y-19702474D01*
X27230199Y-19713199D01*
X27219474Y-19722920D01*
X27207848Y-19731543D01*
X27195432Y-19738984D01*
X27182347Y-19745173D01*
X27168718Y-19750050D01*
X27154677Y-19753567D01*
X27140359Y-19755691D01*
X27125901Y-19756401D01*
X26830901Y-19756401D01*
X26816443Y-19755691D01*
X26802125Y-19753567D01*
X26788084Y-19750050D01*
X26774455Y-19745173D01*
X26761370Y-19738984D01*
X26748954Y-19731543D01*
X26737328Y-19722920D01*
X26726603Y-19713199D01*
X26716882Y-19702474D01*
X26708259Y-19690848D01*
X26700818Y-19678432D01*
X26694629Y-19665347D01*
X26689752Y-19651718D01*
X26686235Y-19637677D01*
X26684111Y-19623359D01*
X26683401Y-19608901D01*
X26683401Y-19263901D01*
X26684111Y-19249443D01*
X26686235Y-19235125D01*
X26689752Y-19221084D01*
X26694629Y-19207455D01*
X26700818Y-19194370D01*
X26708259Y-19181954D01*
X26716882Y-19170328D01*
X26726603Y-19159603D01*
X26737328Y-19149882D01*
X26748954Y-19141259D01*
X26761370Y-19133818D01*
X26774455Y-19127629D01*
X26788084Y-19122752D01*
X26802125Y-19119235D01*
X26816443Y-19117111D01*
X26830901Y-19116401D01*
X27125901Y-19116401D01*
X27140359Y-19117111D01*
X27140359Y-19117111D01*
G37*
D11*
X26978401Y-19436401D03*
D10*
G36*
X26170359Y-19117111D02*
X26184677Y-19119235D01*
X26198718Y-19122752D01*
X26212347Y-19127629D01*
X26225432Y-19133818D01*
X26237848Y-19141259D01*
X26249474Y-19149882D01*
X26260199Y-19159603D01*
X26269920Y-19170328D01*
X26278543Y-19181954D01*
X26285984Y-19194370D01*
X26292173Y-19207455D01*
X26297050Y-19221084D01*
X26300567Y-19235125D01*
X26302691Y-19249443D01*
X26303401Y-19263901D01*
X26303401Y-19608901D01*
X26302691Y-19623359D01*
X26300567Y-19637677D01*
X26297050Y-19651718D01*
X26292173Y-19665347D01*
X26285984Y-19678432D01*
X26278543Y-19690848D01*
X26269920Y-19702474D01*
X26260199Y-19713199D01*
X26249474Y-19722920D01*
X26237848Y-19731543D01*
X26225432Y-19738984D01*
X26212347Y-19745173D01*
X26198718Y-19750050D01*
X26184677Y-19753567D01*
X26170359Y-19755691D01*
X26155901Y-19756401D01*
X25860901Y-19756401D01*
X25846443Y-19755691D01*
X25832125Y-19753567D01*
X25818084Y-19750050D01*
X25804455Y-19745173D01*
X25791370Y-19738984D01*
X25778954Y-19731543D01*
X25767328Y-19722920D01*
X25756603Y-19713199D01*
X25746882Y-19702474D01*
X25738259Y-19690848D01*
X25730818Y-19678432D01*
X25724629Y-19665347D01*
X25719752Y-19651718D01*
X25716235Y-19637677D01*
X25714111Y-19623359D01*
X25713401Y-19608901D01*
X25713401Y-19263901D01*
X25714111Y-19249443D01*
X25716235Y-19235125D01*
X25719752Y-19221084D01*
X25724629Y-19207455D01*
X25730818Y-19194370D01*
X25738259Y-19181954D01*
X25746882Y-19170328D01*
X25756603Y-19159603D01*
X25767328Y-19149882D01*
X25778954Y-19141259D01*
X25791370Y-19133818D01*
X25804455Y-19127629D01*
X25818084Y-19122752D01*
X25832125Y-19119235D01*
X25846443Y-19117111D01*
X25860901Y-19116401D01*
X26155901Y-19116401D01*
X26170359Y-19117111D01*
X26170359Y-19117111D01*
G37*
D11*
X26008401Y-19436401D03*
G04 #@! TD*
D10*
G04 #@! TO.C,C15*
G36*
X29410758Y-21468910D02*
X29425076Y-21471034D01*
X29439117Y-21474551D01*
X29452746Y-21479428D01*
X29465831Y-21485617D01*
X29478247Y-21493058D01*
X29489873Y-21501681D01*
X29500598Y-21511402D01*
X29510319Y-21522127D01*
X29518942Y-21533753D01*
X29526383Y-21546169D01*
X29532572Y-21559254D01*
X29537449Y-21572883D01*
X29540966Y-21586924D01*
X29543090Y-21601242D01*
X29543800Y-21615700D01*
X29543800Y-21910700D01*
X29543090Y-21925158D01*
X29540966Y-21939476D01*
X29537449Y-21953517D01*
X29532572Y-21967146D01*
X29526383Y-21980231D01*
X29518942Y-21992647D01*
X29510319Y-22004273D01*
X29500598Y-22014998D01*
X29489873Y-22024719D01*
X29478247Y-22033342D01*
X29465831Y-22040783D01*
X29452746Y-22046972D01*
X29439117Y-22051849D01*
X29425076Y-22055366D01*
X29410758Y-22057490D01*
X29396300Y-22058200D01*
X29051300Y-22058200D01*
X29036842Y-22057490D01*
X29022524Y-22055366D01*
X29008483Y-22051849D01*
X28994854Y-22046972D01*
X28981769Y-22040783D01*
X28969353Y-22033342D01*
X28957727Y-22024719D01*
X28947002Y-22014998D01*
X28937281Y-22004273D01*
X28928658Y-21992647D01*
X28921217Y-21980231D01*
X28915028Y-21967146D01*
X28910151Y-21953517D01*
X28906634Y-21939476D01*
X28904510Y-21925158D01*
X28903800Y-21910700D01*
X28903800Y-21615700D01*
X28904510Y-21601242D01*
X28906634Y-21586924D01*
X28910151Y-21572883D01*
X28915028Y-21559254D01*
X28921217Y-21546169D01*
X28928658Y-21533753D01*
X28937281Y-21522127D01*
X28947002Y-21511402D01*
X28957727Y-21501681D01*
X28969353Y-21493058D01*
X28981769Y-21485617D01*
X28994854Y-21479428D01*
X29008483Y-21474551D01*
X29022524Y-21471034D01*
X29036842Y-21468910D01*
X29051300Y-21468200D01*
X29396300Y-21468200D01*
X29410758Y-21468910D01*
X29410758Y-21468910D01*
G37*
D11*
X29223800Y-21763200D03*
D10*
G36*
X29410758Y-20498910D02*
X29425076Y-20501034D01*
X29439117Y-20504551D01*
X29452746Y-20509428D01*
X29465831Y-20515617D01*
X29478247Y-20523058D01*
X29489873Y-20531681D01*
X29500598Y-20541402D01*
X29510319Y-20552127D01*
X29518942Y-20563753D01*
X29526383Y-20576169D01*
X29532572Y-20589254D01*
X29537449Y-20602883D01*
X29540966Y-20616924D01*
X29543090Y-20631242D01*
X29543800Y-20645700D01*
X29543800Y-20940700D01*
X29543090Y-20955158D01*
X29540966Y-20969476D01*
X29537449Y-20983517D01*
X29532572Y-20997146D01*
X29526383Y-21010231D01*
X29518942Y-21022647D01*
X29510319Y-21034273D01*
X29500598Y-21044998D01*
X29489873Y-21054719D01*
X29478247Y-21063342D01*
X29465831Y-21070783D01*
X29452746Y-21076972D01*
X29439117Y-21081849D01*
X29425076Y-21085366D01*
X29410758Y-21087490D01*
X29396300Y-21088200D01*
X29051300Y-21088200D01*
X29036842Y-21087490D01*
X29022524Y-21085366D01*
X29008483Y-21081849D01*
X28994854Y-21076972D01*
X28981769Y-21070783D01*
X28969353Y-21063342D01*
X28957727Y-21054719D01*
X28947002Y-21044998D01*
X28937281Y-21034273D01*
X28928658Y-21022647D01*
X28921217Y-21010231D01*
X28915028Y-20997146D01*
X28910151Y-20983517D01*
X28906634Y-20969476D01*
X28904510Y-20955158D01*
X28903800Y-20940700D01*
X28903800Y-20645700D01*
X28904510Y-20631242D01*
X28906634Y-20616924D01*
X28910151Y-20602883D01*
X28915028Y-20589254D01*
X28921217Y-20576169D01*
X28928658Y-20563753D01*
X28937281Y-20552127D01*
X28947002Y-20541402D01*
X28957727Y-20531681D01*
X28969353Y-20523058D01*
X28981769Y-20515617D01*
X28994854Y-20509428D01*
X29008483Y-20504551D01*
X29022524Y-20501034D01*
X29036842Y-20498910D01*
X29051300Y-20498200D01*
X29396300Y-20498200D01*
X29410758Y-20498910D01*
X29410758Y-20498910D01*
G37*
D11*
X29223800Y-20793200D03*
G04 #@! TD*
D10*
G04 #@! TO.C,C16*
G36*
X30348158Y-16439710D02*
X30362476Y-16441834D01*
X30376517Y-16445351D01*
X30390146Y-16450228D01*
X30403231Y-16456417D01*
X30415647Y-16463858D01*
X30427273Y-16472481D01*
X30437998Y-16482202D01*
X30447719Y-16492927D01*
X30456342Y-16504553D01*
X30463783Y-16516969D01*
X30469972Y-16530054D01*
X30474849Y-16543683D01*
X30478366Y-16557724D01*
X30480490Y-16572042D01*
X30481200Y-16586500D01*
X30481200Y-16881500D01*
X30480490Y-16895958D01*
X30478366Y-16910276D01*
X30474849Y-16924317D01*
X30469972Y-16937946D01*
X30463783Y-16951031D01*
X30456342Y-16963447D01*
X30447719Y-16975073D01*
X30437998Y-16985798D01*
X30427273Y-16995519D01*
X30415647Y-17004142D01*
X30403231Y-17011583D01*
X30390146Y-17017772D01*
X30376517Y-17022649D01*
X30362476Y-17026166D01*
X30348158Y-17028290D01*
X30333700Y-17029000D01*
X29988700Y-17029000D01*
X29974242Y-17028290D01*
X29959924Y-17026166D01*
X29945883Y-17022649D01*
X29932254Y-17017772D01*
X29919169Y-17011583D01*
X29906753Y-17004142D01*
X29895127Y-16995519D01*
X29884402Y-16985798D01*
X29874681Y-16975073D01*
X29866058Y-16963447D01*
X29858617Y-16951031D01*
X29852428Y-16937946D01*
X29847551Y-16924317D01*
X29844034Y-16910276D01*
X29841910Y-16895958D01*
X29841200Y-16881500D01*
X29841200Y-16586500D01*
X29841910Y-16572042D01*
X29844034Y-16557724D01*
X29847551Y-16543683D01*
X29852428Y-16530054D01*
X29858617Y-16516969D01*
X29866058Y-16504553D01*
X29874681Y-16492927D01*
X29884402Y-16482202D01*
X29895127Y-16472481D01*
X29906753Y-16463858D01*
X29919169Y-16456417D01*
X29932254Y-16450228D01*
X29945883Y-16445351D01*
X29959924Y-16441834D01*
X29974242Y-16439710D01*
X29988700Y-16439000D01*
X30333700Y-16439000D01*
X30348158Y-16439710D01*
X30348158Y-16439710D01*
G37*
D11*
X30161200Y-16734000D03*
D10*
G36*
X30348158Y-15469710D02*
X30362476Y-15471834D01*
X30376517Y-15475351D01*
X30390146Y-15480228D01*
X30403231Y-15486417D01*
X30415647Y-15493858D01*
X30427273Y-15502481D01*
X30437998Y-15512202D01*
X30447719Y-15522927D01*
X30456342Y-15534553D01*
X30463783Y-15546969D01*
X30469972Y-15560054D01*
X30474849Y-15573683D01*
X30478366Y-15587724D01*
X30480490Y-15602042D01*
X30481200Y-15616500D01*
X30481200Y-15911500D01*
X30480490Y-15925958D01*
X30478366Y-15940276D01*
X30474849Y-15954317D01*
X30469972Y-15967946D01*
X30463783Y-15981031D01*
X30456342Y-15993447D01*
X30447719Y-16005073D01*
X30437998Y-16015798D01*
X30427273Y-16025519D01*
X30415647Y-16034142D01*
X30403231Y-16041583D01*
X30390146Y-16047772D01*
X30376517Y-16052649D01*
X30362476Y-16056166D01*
X30348158Y-16058290D01*
X30333700Y-16059000D01*
X29988700Y-16059000D01*
X29974242Y-16058290D01*
X29959924Y-16056166D01*
X29945883Y-16052649D01*
X29932254Y-16047772D01*
X29919169Y-16041583D01*
X29906753Y-16034142D01*
X29895127Y-16025519D01*
X29884402Y-16015798D01*
X29874681Y-16005073D01*
X29866058Y-15993447D01*
X29858617Y-15981031D01*
X29852428Y-15967946D01*
X29847551Y-15954317D01*
X29844034Y-15940276D01*
X29841910Y-15925958D01*
X29841200Y-15911500D01*
X29841200Y-15616500D01*
X29841910Y-15602042D01*
X29844034Y-15587724D01*
X29847551Y-15573683D01*
X29852428Y-15560054D01*
X29858617Y-15546969D01*
X29866058Y-15534553D01*
X29874681Y-15522927D01*
X29884402Y-15512202D01*
X29895127Y-15502481D01*
X29906753Y-15493858D01*
X29919169Y-15486417D01*
X29932254Y-15480228D01*
X29945883Y-15475351D01*
X29959924Y-15471834D01*
X29974242Y-15469710D01*
X29988700Y-15469000D01*
X30333700Y-15469000D01*
X30348158Y-15469710D01*
X30348158Y-15469710D01*
G37*
D11*
X30161200Y-15764000D03*
G04 #@! TD*
D10*
G04 #@! TO.C,C5*
G36*
X10462291Y-9221853D02*
X10483526Y-9225003D01*
X10504350Y-9230219D01*
X10524562Y-9237451D01*
X10543968Y-9246630D01*
X10562381Y-9257666D01*
X10579624Y-9270454D01*
X10595530Y-9284870D01*
X10609946Y-9300776D01*
X10622734Y-9318019D01*
X10633770Y-9336432D01*
X10642949Y-9355838D01*
X10650181Y-9376050D01*
X10655397Y-9396874D01*
X10658547Y-9418109D01*
X10659600Y-9439550D01*
X10659600Y-9952050D01*
X10658547Y-9973491D01*
X10655397Y-9994726D01*
X10650181Y-10015550D01*
X10642949Y-10035762D01*
X10633770Y-10055168D01*
X10622734Y-10073581D01*
X10609946Y-10090824D01*
X10595530Y-10106730D01*
X10579624Y-10121146D01*
X10562381Y-10133934D01*
X10543968Y-10144970D01*
X10524562Y-10154149D01*
X10504350Y-10161381D01*
X10483526Y-10166597D01*
X10462291Y-10169747D01*
X10440850Y-10170800D01*
X10003350Y-10170800D01*
X9981909Y-10169747D01*
X9960674Y-10166597D01*
X9939850Y-10161381D01*
X9919638Y-10154149D01*
X9900232Y-10144970D01*
X9881819Y-10133934D01*
X9864576Y-10121146D01*
X9848670Y-10106730D01*
X9834254Y-10090824D01*
X9821466Y-10073581D01*
X9810430Y-10055168D01*
X9801251Y-10035762D01*
X9794019Y-10015550D01*
X9788803Y-9994726D01*
X9785653Y-9973491D01*
X9784600Y-9952050D01*
X9784600Y-9439550D01*
X9785653Y-9418109D01*
X9788803Y-9396874D01*
X9794019Y-9376050D01*
X9801251Y-9355838D01*
X9810430Y-9336432D01*
X9821466Y-9318019D01*
X9834254Y-9300776D01*
X9848670Y-9284870D01*
X9864576Y-9270454D01*
X9881819Y-9257666D01*
X9900232Y-9246630D01*
X9919638Y-9237451D01*
X9939850Y-9230219D01*
X9960674Y-9225003D01*
X9981909Y-9221853D01*
X10003350Y-9220800D01*
X10440850Y-9220800D01*
X10462291Y-9221853D01*
X10462291Y-9221853D01*
G37*
D12*
X10222100Y-9695800D03*
D10*
G36*
X12037291Y-9221853D02*
X12058526Y-9225003D01*
X12079350Y-9230219D01*
X12099562Y-9237451D01*
X12118968Y-9246630D01*
X12137381Y-9257666D01*
X12154624Y-9270454D01*
X12170530Y-9284870D01*
X12184946Y-9300776D01*
X12197734Y-9318019D01*
X12208770Y-9336432D01*
X12217949Y-9355838D01*
X12225181Y-9376050D01*
X12230397Y-9396874D01*
X12233547Y-9418109D01*
X12234600Y-9439550D01*
X12234600Y-9952050D01*
X12233547Y-9973491D01*
X12230397Y-9994726D01*
X12225181Y-10015550D01*
X12217949Y-10035762D01*
X12208770Y-10055168D01*
X12197734Y-10073581D01*
X12184946Y-10090824D01*
X12170530Y-10106730D01*
X12154624Y-10121146D01*
X12137381Y-10133934D01*
X12118968Y-10144970D01*
X12099562Y-10154149D01*
X12079350Y-10161381D01*
X12058526Y-10166597D01*
X12037291Y-10169747D01*
X12015850Y-10170800D01*
X11578350Y-10170800D01*
X11556909Y-10169747D01*
X11535674Y-10166597D01*
X11514850Y-10161381D01*
X11494638Y-10154149D01*
X11475232Y-10144970D01*
X11456819Y-10133934D01*
X11439576Y-10121146D01*
X11423670Y-10106730D01*
X11409254Y-10090824D01*
X11396466Y-10073581D01*
X11385430Y-10055168D01*
X11376251Y-10035762D01*
X11369019Y-10015550D01*
X11363803Y-9994726D01*
X11360653Y-9973491D01*
X11359600Y-9952050D01*
X11359600Y-9439550D01*
X11360653Y-9418109D01*
X11363803Y-9396874D01*
X11369019Y-9376050D01*
X11376251Y-9355838D01*
X11385430Y-9336432D01*
X11396466Y-9318019D01*
X11409254Y-9300776D01*
X11423670Y-9284870D01*
X11439576Y-9270454D01*
X11456819Y-9257666D01*
X11475232Y-9246630D01*
X11494638Y-9237451D01*
X11514850Y-9230219D01*
X11535674Y-9225003D01*
X11556909Y-9221853D01*
X11578350Y-9220800D01*
X12015850Y-9220800D01*
X12037291Y-9221853D01*
X12037291Y-9221853D01*
G37*
D12*
X11797100Y-9695800D03*
G04 #@! TD*
D10*
G04 #@! TO.C,C4*
G36*
X18234891Y-9221853D02*
X18256126Y-9225003D01*
X18276950Y-9230219D01*
X18297162Y-9237451D01*
X18316568Y-9246630D01*
X18334981Y-9257666D01*
X18352224Y-9270454D01*
X18368130Y-9284870D01*
X18382546Y-9300776D01*
X18395334Y-9318019D01*
X18406370Y-9336432D01*
X18415549Y-9355838D01*
X18422781Y-9376050D01*
X18427997Y-9396874D01*
X18431147Y-9418109D01*
X18432200Y-9439550D01*
X18432200Y-9952050D01*
X18431147Y-9973491D01*
X18427997Y-9994726D01*
X18422781Y-10015550D01*
X18415549Y-10035762D01*
X18406370Y-10055168D01*
X18395334Y-10073581D01*
X18382546Y-10090824D01*
X18368130Y-10106730D01*
X18352224Y-10121146D01*
X18334981Y-10133934D01*
X18316568Y-10144970D01*
X18297162Y-10154149D01*
X18276950Y-10161381D01*
X18256126Y-10166597D01*
X18234891Y-10169747D01*
X18213450Y-10170800D01*
X17775950Y-10170800D01*
X17754509Y-10169747D01*
X17733274Y-10166597D01*
X17712450Y-10161381D01*
X17692238Y-10154149D01*
X17672832Y-10144970D01*
X17654419Y-10133934D01*
X17637176Y-10121146D01*
X17621270Y-10106730D01*
X17606854Y-10090824D01*
X17594066Y-10073581D01*
X17583030Y-10055168D01*
X17573851Y-10035762D01*
X17566619Y-10015550D01*
X17561403Y-9994726D01*
X17558253Y-9973491D01*
X17557200Y-9952050D01*
X17557200Y-9439550D01*
X17558253Y-9418109D01*
X17561403Y-9396874D01*
X17566619Y-9376050D01*
X17573851Y-9355838D01*
X17583030Y-9336432D01*
X17594066Y-9318019D01*
X17606854Y-9300776D01*
X17621270Y-9284870D01*
X17637176Y-9270454D01*
X17654419Y-9257666D01*
X17672832Y-9246630D01*
X17692238Y-9237451D01*
X17712450Y-9230219D01*
X17733274Y-9225003D01*
X17754509Y-9221853D01*
X17775950Y-9220800D01*
X18213450Y-9220800D01*
X18234891Y-9221853D01*
X18234891Y-9221853D01*
G37*
D12*
X17994700Y-9695800D03*
D10*
G36*
X16659891Y-9221853D02*
X16681126Y-9225003D01*
X16701950Y-9230219D01*
X16722162Y-9237451D01*
X16741568Y-9246630D01*
X16759981Y-9257666D01*
X16777224Y-9270454D01*
X16793130Y-9284870D01*
X16807546Y-9300776D01*
X16820334Y-9318019D01*
X16831370Y-9336432D01*
X16840549Y-9355838D01*
X16847781Y-9376050D01*
X16852997Y-9396874D01*
X16856147Y-9418109D01*
X16857200Y-9439550D01*
X16857200Y-9952050D01*
X16856147Y-9973491D01*
X16852997Y-9994726D01*
X16847781Y-10015550D01*
X16840549Y-10035762D01*
X16831370Y-10055168D01*
X16820334Y-10073581D01*
X16807546Y-10090824D01*
X16793130Y-10106730D01*
X16777224Y-10121146D01*
X16759981Y-10133934D01*
X16741568Y-10144970D01*
X16722162Y-10154149D01*
X16701950Y-10161381D01*
X16681126Y-10166597D01*
X16659891Y-10169747D01*
X16638450Y-10170800D01*
X16200950Y-10170800D01*
X16179509Y-10169747D01*
X16158274Y-10166597D01*
X16137450Y-10161381D01*
X16117238Y-10154149D01*
X16097832Y-10144970D01*
X16079419Y-10133934D01*
X16062176Y-10121146D01*
X16046270Y-10106730D01*
X16031854Y-10090824D01*
X16019066Y-10073581D01*
X16008030Y-10055168D01*
X15998851Y-10035762D01*
X15991619Y-10015550D01*
X15986403Y-9994726D01*
X15983253Y-9973491D01*
X15982200Y-9952050D01*
X15982200Y-9439550D01*
X15983253Y-9418109D01*
X15986403Y-9396874D01*
X15991619Y-9376050D01*
X15998851Y-9355838D01*
X16008030Y-9336432D01*
X16019066Y-9318019D01*
X16031854Y-9300776D01*
X16046270Y-9284870D01*
X16062176Y-9270454D01*
X16079419Y-9257666D01*
X16097832Y-9246630D01*
X16117238Y-9237451D01*
X16137450Y-9230219D01*
X16158274Y-9225003D01*
X16179509Y-9221853D01*
X16200950Y-9220800D01*
X16638450Y-9220800D01*
X16659891Y-9221853D01*
X16659891Y-9221853D01*
G37*
D12*
X16419700Y-9695800D03*
G04 #@! TD*
D10*
G04 #@! TO.C,C2*
G36*
X25448291Y-4929253D02*
X25469526Y-4932403D01*
X25490350Y-4937619D01*
X25510562Y-4944851D01*
X25529968Y-4954030D01*
X25548381Y-4965066D01*
X25565624Y-4977854D01*
X25581530Y-4992270D01*
X25595946Y-5008176D01*
X25608734Y-5025419D01*
X25619770Y-5043832D01*
X25628949Y-5063238D01*
X25636181Y-5083450D01*
X25641397Y-5104274D01*
X25644547Y-5125509D01*
X25645600Y-5146950D01*
X25645600Y-5659450D01*
X25644547Y-5680891D01*
X25641397Y-5702126D01*
X25636181Y-5722950D01*
X25628949Y-5743162D01*
X25619770Y-5762568D01*
X25608734Y-5780981D01*
X25595946Y-5798224D01*
X25581530Y-5814130D01*
X25565624Y-5828546D01*
X25548381Y-5841334D01*
X25529968Y-5852370D01*
X25510562Y-5861549D01*
X25490350Y-5868781D01*
X25469526Y-5873997D01*
X25448291Y-5877147D01*
X25426850Y-5878200D01*
X24989350Y-5878200D01*
X24967909Y-5877147D01*
X24946674Y-5873997D01*
X24925850Y-5868781D01*
X24905638Y-5861549D01*
X24886232Y-5852370D01*
X24867819Y-5841334D01*
X24850576Y-5828546D01*
X24834670Y-5814130D01*
X24820254Y-5798224D01*
X24807466Y-5780981D01*
X24796430Y-5762568D01*
X24787251Y-5743162D01*
X24780019Y-5722950D01*
X24774803Y-5702126D01*
X24771653Y-5680891D01*
X24770600Y-5659450D01*
X24770600Y-5146950D01*
X24771653Y-5125509D01*
X24774803Y-5104274D01*
X24780019Y-5083450D01*
X24787251Y-5063238D01*
X24796430Y-5043832D01*
X24807466Y-5025419D01*
X24820254Y-5008176D01*
X24834670Y-4992270D01*
X24850576Y-4977854D01*
X24867819Y-4965066D01*
X24886232Y-4954030D01*
X24905638Y-4944851D01*
X24925850Y-4937619D01*
X24946674Y-4932403D01*
X24967909Y-4929253D01*
X24989350Y-4928200D01*
X25426850Y-4928200D01*
X25448291Y-4929253D01*
X25448291Y-4929253D01*
G37*
D12*
X25208100Y-5403200D03*
D10*
G36*
X27023291Y-4929253D02*
X27044526Y-4932403D01*
X27065350Y-4937619D01*
X27085562Y-4944851D01*
X27104968Y-4954030D01*
X27123381Y-4965066D01*
X27140624Y-4977854D01*
X27156530Y-4992270D01*
X27170946Y-5008176D01*
X27183734Y-5025419D01*
X27194770Y-5043832D01*
X27203949Y-5063238D01*
X27211181Y-5083450D01*
X27216397Y-5104274D01*
X27219547Y-5125509D01*
X27220600Y-5146950D01*
X27220600Y-5659450D01*
X27219547Y-5680891D01*
X27216397Y-5702126D01*
X27211181Y-5722950D01*
X27203949Y-5743162D01*
X27194770Y-5762568D01*
X27183734Y-5780981D01*
X27170946Y-5798224D01*
X27156530Y-5814130D01*
X27140624Y-5828546D01*
X27123381Y-5841334D01*
X27104968Y-5852370D01*
X27085562Y-5861549D01*
X27065350Y-5868781D01*
X27044526Y-5873997D01*
X27023291Y-5877147D01*
X27001850Y-5878200D01*
X26564350Y-5878200D01*
X26542909Y-5877147D01*
X26521674Y-5873997D01*
X26500850Y-5868781D01*
X26480638Y-5861549D01*
X26461232Y-5852370D01*
X26442819Y-5841334D01*
X26425576Y-5828546D01*
X26409670Y-5814130D01*
X26395254Y-5798224D01*
X26382466Y-5780981D01*
X26371430Y-5762568D01*
X26362251Y-5743162D01*
X26355019Y-5722950D01*
X26349803Y-5702126D01*
X26346653Y-5680891D01*
X26345600Y-5659450D01*
X26345600Y-5146950D01*
X26346653Y-5125509D01*
X26349803Y-5104274D01*
X26355019Y-5083450D01*
X26362251Y-5063238D01*
X26371430Y-5043832D01*
X26382466Y-5025419D01*
X26395254Y-5008176D01*
X26409670Y-4992270D01*
X26425576Y-4977854D01*
X26442819Y-4965066D01*
X26461232Y-4954030D01*
X26480638Y-4944851D01*
X26500850Y-4937619D01*
X26521674Y-4932403D01*
X26542909Y-4929253D01*
X26564350Y-4928200D01*
X27001850Y-4928200D01*
X27023291Y-4929253D01*
X27023291Y-4929253D01*
G37*
D12*
X26783100Y-5403200D03*
G04 #@! TD*
D10*
G04 #@! TO.C,C3*
G36*
X30412742Y-2933374D02*
X30436403Y-2936884D01*
X30459607Y-2942696D01*
X30482129Y-2950754D01*
X30503753Y-2960982D01*
X30524270Y-2973279D01*
X30543483Y-2987529D01*
X30561207Y-3003593D01*
X30577271Y-3021317D01*
X30591521Y-3040530D01*
X30603818Y-3061047D01*
X30614046Y-3082671D01*
X30622104Y-3105193D01*
X30627916Y-3128397D01*
X30631426Y-3152058D01*
X30632600Y-3175950D01*
X30632600Y-3663450D01*
X30631426Y-3687342D01*
X30627916Y-3711003D01*
X30622104Y-3734207D01*
X30614046Y-3756729D01*
X30603818Y-3778353D01*
X30591521Y-3798870D01*
X30577271Y-3818083D01*
X30561207Y-3835807D01*
X30543483Y-3851871D01*
X30524270Y-3866121D01*
X30503753Y-3878418D01*
X30482129Y-3888646D01*
X30459607Y-3896704D01*
X30436403Y-3902516D01*
X30412742Y-3906026D01*
X30388850Y-3907200D01*
X29476350Y-3907200D01*
X29452458Y-3906026D01*
X29428797Y-3902516D01*
X29405593Y-3896704D01*
X29383071Y-3888646D01*
X29361447Y-3878418D01*
X29340930Y-3866121D01*
X29321717Y-3851871D01*
X29303993Y-3835807D01*
X29287929Y-3818083D01*
X29273679Y-3798870D01*
X29261382Y-3778353D01*
X29251154Y-3756729D01*
X29243096Y-3734207D01*
X29237284Y-3711003D01*
X29233774Y-3687342D01*
X29232600Y-3663450D01*
X29232600Y-3175950D01*
X29233774Y-3152058D01*
X29237284Y-3128397D01*
X29243096Y-3105193D01*
X29251154Y-3082671D01*
X29261382Y-3061047D01*
X29273679Y-3040530D01*
X29287929Y-3021317D01*
X29303993Y-3003593D01*
X29321717Y-2987529D01*
X29340930Y-2973279D01*
X29361447Y-2960982D01*
X29383071Y-2950754D01*
X29405593Y-2942696D01*
X29428797Y-2936884D01*
X29452458Y-2933374D01*
X29476350Y-2932200D01*
X30388850Y-2932200D01*
X30412742Y-2933374D01*
X30412742Y-2933374D01*
G37*
D13*
X29932600Y-3419700D03*
D10*
G36*
X30412742Y-1058374D02*
X30436403Y-1061884D01*
X30459607Y-1067696D01*
X30482129Y-1075754D01*
X30503753Y-1085982D01*
X30524270Y-1098279D01*
X30543483Y-1112529D01*
X30561207Y-1128593D01*
X30577271Y-1146317D01*
X30591521Y-1165530D01*
X30603818Y-1186047D01*
X30614046Y-1207671D01*
X30622104Y-1230193D01*
X30627916Y-1253397D01*
X30631426Y-1277058D01*
X30632600Y-1300950D01*
X30632600Y-1788450D01*
X30631426Y-1812342D01*
X30627916Y-1836003D01*
X30622104Y-1859207D01*
X30614046Y-1881729D01*
X30603818Y-1903353D01*
X30591521Y-1923870D01*
X30577271Y-1943083D01*
X30561207Y-1960807D01*
X30543483Y-1976871D01*
X30524270Y-1991121D01*
X30503753Y-2003418D01*
X30482129Y-2013646D01*
X30459607Y-2021704D01*
X30436403Y-2027516D01*
X30412742Y-2031026D01*
X30388850Y-2032200D01*
X29476350Y-2032200D01*
X29452458Y-2031026D01*
X29428797Y-2027516D01*
X29405593Y-2021704D01*
X29383071Y-2013646D01*
X29361447Y-2003418D01*
X29340930Y-1991121D01*
X29321717Y-1976871D01*
X29303993Y-1960807D01*
X29287929Y-1943083D01*
X29273679Y-1923870D01*
X29261382Y-1903353D01*
X29251154Y-1881729D01*
X29243096Y-1859207D01*
X29237284Y-1836003D01*
X29233774Y-1812342D01*
X29232600Y-1788450D01*
X29232600Y-1300950D01*
X29233774Y-1277058D01*
X29237284Y-1253397D01*
X29243096Y-1230193D01*
X29251154Y-1207671D01*
X29261382Y-1186047D01*
X29273679Y-1165530D01*
X29287929Y-1146317D01*
X29303993Y-1128593D01*
X29321717Y-1112529D01*
X29340930Y-1098279D01*
X29361447Y-1085982D01*
X29383071Y-1075754D01*
X29405593Y-1067696D01*
X29428797Y-1061884D01*
X29452458Y-1058374D01*
X29476350Y-1057200D01*
X30388850Y-1057200D01*
X30412742Y-1058374D01*
X30412742Y-1058374D01*
G37*
D13*
X29932600Y-1544700D03*
G04 #@! TD*
D10*
G04 #@! TO.C,C1*
G36*
X22030742Y-1058374D02*
X22054403Y-1061884D01*
X22077607Y-1067696D01*
X22100129Y-1075754D01*
X22121753Y-1085982D01*
X22142270Y-1098279D01*
X22161483Y-1112529D01*
X22179207Y-1128593D01*
X22195271Y-1146317D01*
X22209521Y-1165530D01*
X22221818Y-1186047D01*
X22232046Y-1207671D01*
X22240104Y-1230193D01*
X22245916Y-1253397D01*
X22249426Y-1277058D01*
X22250600Y-1300950D01*
X22250600Y-1788450D01*
X22249426Y-1812342D01*
X22245916Y-1836003D01*
X22240104Y-1859207D01*
X22232046Y-1881729D01*
X22221818Y-1903353D01*
X22209521Y-1923870D01*
X22195271Y-1943083D01*
X22179207Y-1960807D01*
X22161483Y-1976871D01*
X22142270Y-1991121D01*
X22121753Y-2003418D01*
X22100129Y-2013646D01*
X22077607Y-2021704D01*
X22054403Y-2027516D01*
X22030742Y-2031026D01*
X22006850Y-2032200D01*
X21094350Y-2032200D01*
X21070458Y-2031026D01*
X21046797Y-2027516D01*
X21023593Y-2021704D01*
X21001071Y-2013646D01*
X20979447Y-2003418D01*
X20958930Y-1991121D01*
X20939717Y-1976871D01*
X20921993Y-1960807D01*
X20905929Y-1943083D01*
X20891679Y-1923870D01*
X20879382Y-1903353D01*
X20869154Y-1881729D01*
X20861096Y-1859207D01*
X20855284Y-1836003D01*
X20851774Y-1812342D01*
X20850600Y-1788450D01*
X20850600Y-1300950D01*
X20851774Y-1277058D01*
X20855284Y-1253397D01*
X20861096Y-1230193D01*
X20869154Y-1207671D01*
X20879382Y-1186047D01*
X20891679Y-1165530D01*
X20905929Y-1146317D01*
X20921993Y-1128593D01*
X20939717Y-1112529D01*
X20958930Y-1098279D01*
X20979447Y-1085982D01*
X21001071Y-1075754D01*
X21023593Y-1067696D01*
X21046797Y-1061884D01*
X21070458Y-1058374D01*
X21094350Y-1057200D01*
X22006850Y-1057200D01*
X22030742Y-1058374D01*
X22030742Y-1058374D01*
G37*
D13*
X21550600Y-1544700D03*
D10*
G36*
X22030742Y-2933374D02*
X22054403Y-2936884D01*
X22077607Y-2942696D01*
X22100129Y-2950754D01*
X22121753Y-2960982D01*
X22142270Y-2973279D01*
X22161483Y-2987529D01*
X22179207Y-3003593D01*
X22195271Y-3021317D01*
X22209521Y-3040530D01*
X22221818Y-3061047D01*
X22232046Y-3082671D01*
X22240104Y-3105193D01*
X22245916Y-3128397D01*
X22249426Y-3152058D01*
X22250600Y-3175950D01*
X22250600Y-3663450D01*
X22249426Y-3687342D01*
X22245916Y-3711003D01*
X22240104Y-3734207D01*
X22232046Y-3756729D01*
X22221818Y-3778353D01*
X22209521Y-3798870D01*
X22195271Y-3818083D01*
X22179207Y-3835807D01*
X22161483Y-3851871D01*
X22142270Y-3866121D01*
X22121753Y-3878418D01*
X22100129Y-3888646D01*
X22077607Y-3896704D01*
X22054403Y-3902516D01*
X22030742Y-3906026D01*
X22006850Y-3907200D01*
X21094350Y-3907200D01*
X21070458Y-3906026D01*
X21046797Y-3902516D01*
X21023593Y-3896704D01*
X21001071Y-3888646D01*
X20979447Y-3878418D01*
X20958930Y-3866121D01*
X20939717Y-3851871D01*
X20921993Y-3835807D01*
X20905929Y-3818083D01*
X20891679Y-3798870D01*
X20879382Y-3778353D01*
X20869154Y-3756729D01*
X20861096Y-3734207D01*
X20855284Y-3711003D01*
X20851774Y-3687342D01*
X20850600Y-3663450D01*
X20850600Y-3175950D01*
X20851774Y-3152058D01*
X20855284Y-3128397D01*
X20861096Y-3105193D01*
X20869154Y-3082671D01*
X20879382Y-3061047D01*
X20891679Y-3040530D01*
X20905929Y-3021317D01*
X20921993Y-3003593D01*
X20939717Y-2987529D01*
X20958930Y-2973279D01*
X20979447Y-2960982D01*
X21001071Y-2950754D01*
X21023593Y-2942696D01*
X21046797Y-2936884D01*
X21070458Y-2933374D01*
X21094350Y-2932200D01*
X22006850Y-2932200D01*
X22030742Y-2933374D01*
X22030742Y-2933374D01*
G37*
D13*
X21550600Y-3419700D03*
G04 #@! TD*
D14*
G04 #@! TO.C,J2*
X1429500Y-16000000D03*
D15*
X4129500Y-14350000D03*
X4129500Y-13700000D03*
X4129500Y-16300000D03*
X4129500Y-15650000D03*
X4129500Y-15000000D03*
D14*
X1429500Y-14000000D03*
G04 #@! TD*
D16*
G04 #@! TO.C,Y2*
X17297400Y-28023400D03*
X19047400Y-28023400D03*
X19047400Y-26623400D03*
X17297400Y-26623400D03*
G04 #@! TD*
D17*
G04 #@! TO.C,Y1*
X21677600Y-7847800D03*
X21677600Y-6647800D03*
X21677600Y-5447800D03*
G04 #@! TD*
D10*
G04 #@! TO.C,L1*
G36*
X30526358Y-19130110D02*
X30540676Y-19132234D01*
X30554717Y-19135751D01*
X30568346Y-19140628D01*
X30581431Y-19146817D01*
X30593847Y-19154258D01*
X30605473Y-19162881D01*
X30616198Y-19172602D01*
X30625919Y-19183327D01*
X30634542Y-19194953D01*
X30641983Y-19207369D01*
X30648172Y-19220454D01*
X30653049Y-19234083D01*
X30656566Y-19248124D01*
X30658690Y-19262442D01*
X30659400Y-19276900D01*
X30659400Y-19621900D01*
X30658690Y-19636358D01*
X30656566Y-19650676D01*
X30653049Y-19664717D01*
X30648172Y-19678346D01*
X30641983Y-19691431D01*
X30634542Y-19703847D01*
X30625919Y-19715473D01*
X30616198Y-19726198D01*
X30605473Y-19735919D01*
X30593847Y-19744542D01*
X30581431Y-19751983D01*
X30568346Y-19758172D01*
X30554717Y-19763049D01*
X30540676Y-19766566D01*
X30526358Y-19768690D01*
X30511900Y-19769400D01*
X30216900Y-19769400D01*
X30202442Y-19768690D01*
X30188124Y-19766566D01*
X30174083Y-19763049D01*
X30160454Y-19758172D01*
X30147369Y-19751983D01*
X30134953Y-19744542D01*
X30123327Y-19735919D01*
X30112602Y-19726198D01*
X30102881Y-19715473D01*
X30094258Y-19703847D01*
X30086817Y-19691431D01*
X30080628Y-19678346D01*
X30075751Y-19664717D01*
X30072234Y-19650676D01*
X30070110Y-19636358D01*
X30069400Y-19621900D01*
X30069400Y-19276900D01*
X30070110Y-19262442D01*
X30072234Y-19248124D01*
X30075751Y-19234083D01*
X30080628Y-19220454D01*
X30086817Y-19207369D01*
X30094258Y-19194953D01*
X30102881Y-19183327D01*
X30112602Y-19172602D01*
X30123327Y-19162881D01*
X30134953Y-19154258D01*
X30147369Y-19146817D01*
X30160454Y-19140628D01*
X30174083Y-19135751D01*
X30188124Y-19132234D01*
X30202442Y-19130110D01*
X30216900Y-19129400D01*
X30511900Y-19129400D01*
X30526358Y-19130110D01*
X30526358Y-19130110D01*
G37*
D11*
X30364400Y-19449400D03*
D10*
G36*
X31496358Y-19130110D02*
X31510676Y-19132234D01*
X31524717Y-19135751D01*
X31538346Y-19140628D01*
X31551431Y-19146817D01*
X31563847Y-19154258D01*
X31575473Y-19162881D01*
X31586198Y-19172602D01*
X31595919Y-19183327D01*
X31604542Y-19194953D01*
X31611983Y-19207369D01*
X31618172Y-19220454D01*
X31623049Y-19234083D01*
X31626566Y-19248124D01*
X31628690Y-19262442D01*
X31629400Y-19276900D01*
X31629400Y-19621900D01*
X31628690Y-19636358D01*
X31626566Y-19650676D01*
X31623049Y-19664717D01*
X31618172Y-19678346D01*
X31611983Y-19691431D01*
X31604542Y-19703847D01*
X31595919Y-19715473D01*
X31586198Y-19726198D01*
X31575473Y-19735919D01*
X31563847Y-19744542D01*
X31551431Y-19751983D01*
X31538346Y-19758172D01*
X31524717Y-19763049D01*
X31510676Y-19766566D01*
X31496358Y-19768690D01*
X31481900Y-19769400D01*
X31186900Y-19769400D01*
X31172442Y-19768690D01*
X31158124Y-19766566D01*
X31144083Y-19763049D01*
X31130454Y-19758172D01*
X31117369Y-19751983D01*
X31104953Y-19744542D01*
X31093327Y-19735919D01*
X31082602Y-19726198D01*
X31072881Y-19715473D01*
X31064258Y-19703847D01*
X31056817Y-19691431D01*
X31050628Y-19678346D01*
X31045751Y-19664717D01*
X31042234Y-19650676D01*
X31040110Y-19636358D01*
X31039400Y-19621900D01*
X31039400Y-19276900D01*
X31040110Y-19262442D01*
X31042234Y-19248124D01*
X31045751Y-19234083D01*
X31050628Y-19220454D01*
X31056817Y-19207369D01*
X31064258Y-19194953D01*
X31072881Y-19183327D01*
X31082602Y-19172602D01*
X31093327Y-19162881D01*
X31104953Y-19154258D01*
X31117369Y-19146817D01*
X31130454Y-19140628D01*
X31144083Y-19135751D01*
X31158124Y-19132234D01*
X31172442Y-19130110D01*
X31186900Y-19129400D01*
X31481900Y-19129400D01*
X31496358Y-19130110D01*
X31496358Y-19130110D01*
G37*
D11*
X31334400Y-19449400D03*
G04 #@! TD*
D10*
G04 #@! TO.C,D1*
G36*
X9001291Y-19444653D02*
X9022526Y-19447803D01*
X9043350Y-19453019D01*
X9063562Y-19460251D01*
X9082968Y-19469430D01*
X9101381Y-19480466D01*
X9118624Y-19493254D01*
X9134530Y-19507670D01*
X9148946Y-19523576D01*
X9161734Y-19540819D01*
X9172770Y-19559232D01*
X9181949Y-19578638D01*
X9189181Y-19598850D01*
X9194397Y-19619674D01*
X9197547Y-19640909D01*
X9198600Y-19662350D01*
X9198600Y-20099850D01*
X9197547Y-20121291D01*
X9194397Y-20142526D01*
X9189181Y-20163350D01*
X9181949Y-20183562D01*
X9172770Y-20202968D01*
X9161734Y-20221381D01*
X9148946Y-20238624D01*
X9134530Y-20254530D01*
X9118624Y-20268946D01*
X9101381Y-20281734D01*
X9082968Y-20292770D01*
X9063562Y-20301949D01*
X9043350Y-20309181D01*
X9022526Y-20314397D01*
X9001291Y-20317547D01*
X8979850Y-20318600D01*
X8467350Y-20318600D01*
X8445909Y-20317547D01*
X8424674Y-20314397D01*
X8403850Y-20309181D01*
X8383638Y-20301949D01*
X8364232Y-20292770D01*
X8345819Y-20281734D01*
X8328576Y-20268946D01*
X8312670Y-20254530D01*
X8298254Y-20238624D01*
X8285466Y-20221381D01*
X8274430Y-20202968D01*
X8265251Y-20183562D01*
X8258019Y-20163350D01*
X8252803Y-20142526D01*
X8249653Y-20121291D01*
X8248600Y-20099850D01*
X8248600Y-19662350D01*
X8249653Y-19640909D01*
X8252803Y-19619674D01*
X8258019Y-19598850D01*
X8265251Y-19578638D01*
X8274430Y-19559232D01*
X8285466Y-19540819D01*
X8298254Y-19523576D01*
X8312670Y-19507670D01*
X8328576Y-19493254D01*
X8345819Y-19480466D01*
X8364232Y-19469430D01*
X8383638Y-19460251D01*
X8403850Y-19453019D01*
X8424674Y-19447803D01*
X8445909Y-19444653D01*
X8467350Y-19443600D01*
X8979850Y-19443600D01*
X9001291Y-19444653D01*
X9001291Y-19444653D01*
G37*
D12*
X8723600Y-19881100D03*
D10*
G36*
X9001291Y-21019653D02*
X9022526Y-21022803D01*
X9043350Y-21028019D01*
X9063562Y-21035251D01*
X9082968Y-21044430D01*
X9101381Y-21055466D01*
X9118624Y-21068254D01*
X9134530Y-21082670D01*
X9148946Y-21098576D01*
X9161734Y-21115819D01*
X9172770Y-21134232D01*
X9181949Y-21153638D01*
X9189181Y-21173850D01*
X9194397Y-21194674D01*
X9197547Y-21215909D01*
X9198600Y-21237350D01*
X9198600Y-21674850D01*
X9197547Y-21696291D01*
X9194397Y-21717526D01*
X9189181Y-21738350D01*
X9181949Y-21758562D01*
X9172770Y-21777968D01*
X9161734Y-21796381D01*
X9148946Y-21813624D01*
X9134530Y-21829530D01*
X9118624Y-21843946D01*
X9101381Y-21856734D01*
X9082968Y-21867770D01*
X9063562Y-21876949D01*
X9043350Y-21884181D01*
X9022526Y-21889397D01*
X9001291Y-21892547D01*
X8979850Y-21893600D01*
X8467350Y-21893600D01*
X8445909Y-21892547D01*
X8424674Y-21889397D01*
X8403850Y-21884181D01*
X8383638Y-21876949D01*
X8364232Y-21867770D01*
X8345819Y-21856734D01*
X8328576Y-21843946D01*
X8312670Y-21829530D01*
X8298254Y-21813624D01*
X8285466Y-21796381D01*
X8274430Y-21777968D01*
X8265251Y-21758562D01*
X8258019Y-21738350D01*
X8252803Y-21717526D01*
X8249653Y-21696291D01*
X8248600Y-21674850D01*
X8248600Y-21237350D01*
X8249653Y-21215909D01*
X8252803Y-21194674D01*
X8258019Y-21173850D01*
X8265251Y-21153638D01*
X8274430Y-21134232D01*
X8285466Y-21115819D01*
X8298254Y-21098576D01*
X8312670Y-21082670D01*
X8328576Y-21068254D01*
X8345819Y-21055466D01*
X8364232Y-21044430D01*
X8383638Y-21035251D01*
X8403850Y-21028019D01*
X8424674Y-21022803D01*
X8445909Y-21019653D01*
X8467350Y-21018600D01*
X8979850Y-21018600D01*
X9001291Y-21019653D01*
X9001291Y-21019653D01*
G37*
D12*
X8723600Y-21456100D03*
G04 #@! TD*
D10*
G04 #@! TO.C,D2*
G36*
X6969291Y-21019653D02*
X6990526Y-21022803D01*
X7011350Y-21028019D01*
X7031562Y-21035251D01*
X7050968Y-21044430D01*
X7069381Y-21055466D01*
X7086624Y-21068254D01*
X7102530Y-21082670D01*
X7116946Y-21098576D01*
X7129734Y-21115819D01*
X7140770Y-21134232D01*
X7149949Y-21153638D01*
X7157181Y-21173850D01*
X7162397Y-21194674D01*
X7165547Y-21215909D01*
X7166600Y-21237350D01*
X7166600Y-21674850D01*
X7165547Y-21696291D01*
X7162397Y-21717526D01*
X7157181Y-21738350D01*
X7149949Y-21758562D01*
X7140770Y-21777968D01*
X7129734Y-21796381D01*
X7116946Y-21813624D01*
X7102530Y-21829530D01*
X7086624Y-21843946D01*
X7069381Y-21856734D01*
X7050968Y-21867770D01*
X7031562Y-21876949D01*
X7011350Y-21884181D01*
X6990526Y-21889397D01*
X6969291Y-21892547D01*
X6947850Y-21893600D01*
X6435350Y-21893600D01*
X6413909Y-21892547D01*
X6392674Y-21889397D01*
X6371850Y-21884181D01*
X6351638Y-21876949D01*
X6332232Y-21867770D01*
X6313819Y-21856734D01*
X6296576Y-21843946D01*
X6280670Y-21829530D01*
X6266254Y-21813624D01*
X6253466Y-21796381D01*
X6242430Y-21777968D01*
X6233251Y-21758562D01*
X6226019Y-21738350D01*
X6220803Y-21717526D01*
X6217653Y-21696291D01*
X6216600Y-21674850D01*
X6216600Y-21237350D01*
X6217653Y-21215909D01*
X6220803Y-21194674D01*
X6226019Y-21173850D01*
X6233251Y-21153638D01*
X6242430Y-21134232D01*
X6253466Y-21115819D01*
X6266254Y-21098576D01*
X6280670Y-21082670D01*
X6296576Y-21068254D01*
X6313819Y-21055466D01*
X6332232Y-21044430D01*
X6351638Y-21035251D01*
X6371850Y-21028019D01*
X6392674Y-21022803D01*
X6413909Y-21019653D01*
X6435350Y-21018600D01*
X6947850Y-21018600D01*
X6969291Y-21019653D01*
X6969291Y-21019653D01*
G37*
D12*
X6691600Y-21456100D03*
D10*
G36*
X6969291Y-19444653D02*
X6990526Y-19447803D01*
X7011350Y-19453019D01*
X7031562Y-19460251D01*
X7050968Y-19469430D01*
X7069381Y-19480466D01*
X7086624Y-19493254D01*
X7102530Y-19507670D01*
X7116946Y-19523576D01*
X7129734Y-19540819D01*
X7140770Y-19559232D01*
X7149949Y-19578638D01*
X7157181Y-19598850D01*
X7162397Y-19619674D01*
X7165547Y-19640909D01*
X7166600Y-19662350D01*
X7166600Y-20099850D01*
X7165547Y-20121291D01*
X7162397Y-20142526D01*
X7157181Y-20163350D01*
X7149949Y-20183562D01*
X7140770Y-20202968D01*
X7129734Y-20221381D01*
X7116946Y-20238624D01*
X7102530Y-20254530D01*
X7086624Y-20268946D01*
X7069381Y-20281734D01*
X7050968Y-20292770D01*
X7031562Y-20301949D01*
X7011350Y-20309181D01*
X6990526Y-20314397D01*
X6969291Y-20317547D01*
X6947850Y-20318600D01*
X6435350Y-20318600D01*
X6413909Y-20317547D01*
X6392674Y-20314397D01*
X6371850Y-20309181D01*
X6351638Y-20301949D01*
X6332232Y-20292770D01*
X6313819Y-20281734D01*
X6296576Y-20268946D01*
X6280670Y-20254530D01*
X6266254Y-20238624D01*
X6253466Y-20221381D01*
X6242430Y-20202968D01*
X6233251Y-20183562D01*
X6226019Y-20163350D01*
X6220803Y-20142526D01*
X6217653Y-20121291D01*
X6216600Y-20099850D01*
X6216600Y-19662350D01*
X6217653Y-19640909D01*
X6220803Y-19619674D01*
X6226019Y-19598850D01*
X6233251Y-19578638D01*
X6242430Y-19559232D01*
X6253466Y-19540819D01*
X6266254Y-19523576D01*
X6280670Y-19507670D01*
X6296576Y-19493254D01*
X6313819Y-19480466D01*
X6332232Y-19469430D01*
X6351638Y-19460251D01*
X6371850Y-19453019D01*
X6392674Y-19447803D01*
X6413909Y-19444653D01*
X6435350Y-19443600D01*
X6947850Y-19443600D01*
X6969291Y-19444653D01*
X6969291Y-19444653D01*
G37*
D12*
X6691600Y-19881100D03*
G04 #@! TD*
D18*
G04 #@! TO.C,U3*
X17759200Y-7693200D03*
X17759200Y-7043200D03*
X17759200Y-6393200D03*
X17759200Y-5743200D03*
X17759200Y-5093200D03*
X17759200Y-4443200D03*
X17759200Y-3793200D03*
X17759200Y-3143200D03*
X17759200Y-2493200D03*
X17759200Y-1843200D03*
X10559200Y-1843200D03*
X10559200Y-2493200D03*
X10559200Y-3143200D03*
X10559200Y-3793200D03*
X10559200Y-4443200D03*
X10559200Y-5093200D03*
X10559200Y-5743200D03*
X10559200Y-6393200D03*
X10559200Y-7043200D03*
X10559200Y-7693200D03*
G04 #@! TD*
D19*
G04 #@! TO.C,U1*
X6906000Y-13844000D03*
X6906000Y-14844000D03*
X8306000Y-13844000D03*
X6906000Y-14344000D03*
X8306000Y-14844000D03*
G04 #@! TD*
D10*
G04 #@! TO.C,R5*
G36*
X29385758Y-19130110D02*
X29400076Y-19132234D01*
X29414117Y-19135751D01*
X29427746Y-19140628D01*
X29440831Y-19146817D01*
X29453247Y-19154258D01*
X29464873Y-19162881D01*
X29475598Y-19172602D01*
X29485319Y-19183327D01*
X29493942Y-19194953D01*
X29501383Y-19207369D01*
X29507572Y-19220454D01*
X29512449Y-19234083D01*
X29515966Y-19248124D01*
X29518090Y-19262442D01*
X29518800Y-19276900D01*
X29518800Y-19621900D01*
X29518090Y-19636358D01*
X29515966Y-19650676D01*
X29512449Y-19664717D01*
X29507572Y-19678346D01*
X29501383Y-19691431D01*
X29493942Y-19703847D01*
X29485319Y-19715473D01*
X29475598Y-19726198D01*
X29464873Y-19735919D01*
X29453247Y-19744542D01*
X29440831Y-19751983D01*
X29427746Y-19758172D01*
X29414117Y-19763049D01*
X29400076Y-19766566D01*
X29385758Y-19768690D01*
X29371300Y-19769400D01*
X29076300Y-19769400D01*
X29061842Y-19768690D01*
X29047524Y-19766566D01*
X29033483Y-19763049D01*
X29019854Y-19758172D01*
X29006769Y-19751983D01*
X28994353Y-19744542D01*
X28982727Y-19735919D01*
X28972002Y-19726198D01*
X28962281Y-19715473D01*
X28953658Y-19703847D01*
X28946217Y-19691431D01*
X28940028Y-19678346D01*
X28935151Y-19664717D01*
X28931634Y-19650676D01*
X28929510Y-19636358D01*
X28928800Y-19621900D01*
X28928800Y-19276900D01*
X28929510Y-19262442D01*
X28931634Y-19248124D01*
X28935151Y-19234083D01*
X28940028Y-19220454D01*
X28946217Y-19207369D01*
X28953658Y-19194953D01*
X28962281Y-19183327D01*
X28972002Y-19172602D01*
X28982727Y-19162881D01*
X28994353Y-19154258D01*
X29006769Y-19146817D01*
X29019854Y-19140628D01*
X29033483Y-19135751D01*
X29047524Y-19132234D01*
X29061842Y-19130110D01*
X29076300Y-19129400D01*
X29371300Y-19129400D01*
X29385758Y-19130110D01*
X29385758Y-19130110D01*
G37*
D11*
X29223800Y-19449400D03*
D10*
G36*
X28415758Y-19130110D02*
X28430076Y-19132234D01*
X28444117Y-19135751D01*
X28457746Y-19140628D01*
X28470831Y-19146817D01*
X28483247Y-19154258D01*
X28494873Y-19162881D01*
X28505598Y-19172602D01*
X28515319Y-19183327D01*
X28523942Y-19194953D01*
X28531383Y-19207369D01*
X28537572Y-19220454D01*
X28542449Y-19234083D01*
X28545966Y-19248124D01*
X28548090Y-19262442D01*
X28548800Y-19276900D01*
X28548800Y-19621900D01*
X28548090Y-19636358D01*
X28545966Y-19650676D01*
X28542449Y-19664717D01*
X28537572Y-19678346D01*
X28531383Y-19691431D01*
X28523942Y-19703847D01*
X28515319Y-19715473D01*
X28505598Y-19726198D01*
X28494873Y-19735919D01*
X28483247Y-19744542D01*
X28470831Y-19751983D01*
X28457746Y-19758172D01*
X28444117Y-19763049D01*
X28430076Y-19766566D01*
X28415758Y-19768690D01*
X28401300Y-19769400D01*
X28106300Y-19769400D01*
X28091842Y-19768690D01*
X28077524Y-19766566D01*
X28063483Y-19763049D01*
X28049854Y-19758172D01*
X28036769Y-19751983D01*
X28024353Y-19744542D01*
X28012727Y-19735919D01*
X28002002Y-19726198D01*
X27992281Y-19715473D01*
X27983658Y-19703847D01*
X27976217Y-19691431D01*
X27970028Y-19678346D01*
X27965151Y-19664717D01*
X27961634Y-19650676D01*
X27959510Y-19636358D01*
X27958800Y-19621900D01*
X27958800Y-19276900D01*
X27959510Y-19262442D01*
X27961634Y-19248124D01*
X27965151Y-19234083D01*
X27970028Y-19220454D01*
X27976217Y-19207369D01*
X27983658Y-19194953D01*
X27992281Y-19183327D01*
X28002002Y-19172602D01*
X28012727Y-19162881D01*
X28024353Y-19154258D01*
X28036769Y-19146817D01*
X28049854Y-19140628D01*
X28063483Y-19135751D01*
X28077524Y-19132234D01*
X28091842Y-19130110D01*
X28106300Y-19129400D01*
X28401300Y-19129400D01*
X28415758Y-19130110D01*
X28415758Y-19130110D01*
G37*
D11*
X28253800Y-19449400D03*
G04 #@! TD*
D10*
G04 #@! TO.C,R6*
G36*
X29482558Y-17758510D02*
X29496876Y-17760634D01*
X29510917Y-17764151D01*
X29524546Y-17769028D01*
X29537631Y-17775217D01*
X29550047Y-17782658D01*
X29561673Y-17791281D01*
X29572398Y-17801002D01*
X29582119Y-17811727D01*
X29590742Y-17823353D01*
X29598183Y-17835769D01*
X29604372Y-17848854D01*
X29609249Y-17862483D01*
X29612766Y-17876524D01*
X29614890Y-17890842D01*
X29615600Y-17905300D01*
X29615600Y-18250300D01*
X29614890Y-18264758D01*
X29612766Y-18279076D01*
X29609249Y-18293117D01*
X29604372Y-18306746D01*
X29598183Y-18319831D01*
X29590742Y-18332247D01*
X29582119Y-18343873D01*
X29572398Y-18354598D01*
X29561673Y-18364319D01*
X29550047Y-18372942D01*
X29537631Y-18380383D01*
X29524546Y-18386572D01*
X29510917Y-18391449D01*
X29496876Y-18394966D01*
X29482558Y-18397090D01*
X29468100Y-18397800D01*
X29173100Y-18397800D01*
X29158642Y-18397090D01*
X29144324Y-18394966D01*
X29130283Y-18391449D01*
X29116654Y-18386572D01*
X29103569Y-18380383D01*
X29091153Y-18372942D01*
X29079527Y-18364319D01*
X29068802Y-18354598D01*
X29059081Y-18343873D01*
X29050458Y-18332247D01*
X29043017Y-18319831D01*
X29036828Y-18306746D01*
X29031951Y-18293117D01*
X29028434Y-18279076D01*
X29026310Y-18264758D01*
X29025600Y-18250300D01*
X29025600Y-17905300D01*
X29026310Y-17890842D01*
X29028434Y-17876524D01*
X29031951Y-17862483D01*
X29036828Y-17848854D01*
X29043017Y-17835769D01*
X29050458Y-17823353D01*
X29059081Y-17811727D01*
X29068802Y-17801002D01*
X29079527Y-17791281D01*
X29091153Y-17782658D01*
X29103569Y-17775217D01*
X29116654Y-17769028D01*
X29130283Y-17764151D01*
X29144324Y-17760634D01*
X29158642Y-17758510D01*
X29173100Y-17757800D01*
X29468100Y-17757800D01*
X29482558Y-17758510D01*
X29482558Y-17758510D01*
G37*
D11*
X29320600Y-18077800D03*
D10*
G36*
X30452558Y-17758510D02*
X30466876Y-17760634D01*
X30480917Y-17764151D01*
X30494546Y-17769028D01*
X30507631Y-17775217D01*
X30520047Y-17782658D01*
X30531673Y-17791281D01*
X30542398Y-17801002D01*
X30552119Y-17811727D01*
X30560742Y-17823353D01*
X30568183Y-17835769D01*
X30574372Y-17848854D01*
X30579249Y-17862483D01*
X30582766Y-17876524D01*
X30584890Y-17890842D01*
X30585600Y-17905300D01*
X30585600Y-18250300D01*
X30584890Y-18264758D01*
X30582766Y-18279076D01*
X30579249Y-18293117D01*
X30574372Y-18306746D01*
X30568183Y-18319831D01*
X30560742Y-18332247D01*
X30552119Y-18343873D01*
X30542398Y-18354598D01*
X30531673Y-18364319D01*
X30520047Y-18372942D01*
X30507631Y-18380383D01*
X30494546Y-18386572D01*
X30480917Y-18391449D01*
X30466876Y-18394966D01*
X30452558Y-18397090D01*
X30438100Y-18397800D01*
X30143100Y-18397800D01*
X30128642Y-18397090D01*
X30114324Y-18394966D01*
X30100283Y-18391449D01*
X30086654Y-18386572D01*
X30073569Y-18380383D01*
X30061153Y-18372942D01*
X30049527Y-18364319D01*
X30038802Y-18354598D01*
X30029081Y-18343873D01*
X30020458Y-18332247D01*
X30013017Y-18319831D01*
X30006828Y-18306746D01*
X30001951Y-18293117D01*
X29998434Y-18279076D01*
X29996310Y-18264758D01*
X29995600Y-18250300D01*
X29995600Y-17905300D01*
X29996310Y-17890842D01*
X29998434Y-17876524D01*
X30001951Y-17862483D01*
X30006828Y-17848854D01*
X30013017Y-17835769D01*
X30020458Y-17823353D01*
X30029081Y-17811727D01*
X30038802Y-17801002D01*
X30049527Y-17791281D01*
X30061153Y-17782658D01*
X30073569Y-17775217D01*
X30086654Y-17769028D01*
X30100283Y-17764151D01*
X30114324Y-17760634D01*
X30128642Y-17758510D01*
X30143100Y-17757800D01*
X30438100Y-17757800D01*
X30452558Y-17758510D01*
X30452558Y-17758510D01*
G37*
D11*
X30290600Y-18077800D03*
G04 #@! TD*
D10*
G04 #@! TO.C,R3*
G36*
X16642979Y-10999944D02*
X16666034Y-11003363D01*
X16688643Y-11009027D01*
X16710587Y-11016879D01*
X16731657Y-11026844D01*
X16751648Y-11038826D01*
X16770368Y-11052710D01*
X16787638Y-11068362D01*
X16803290Y-11085632D01*
X16817174Y-11104352D01*
X16829156Y-11124343D01*
X16839121Y-11145413D01*
X16846973Y-11167357D01*
X16852637Y-11189966D01*
X16856056Y-11213021D01*
X16857200Y-11236300D01*
X16857200Y-11711300D01*
X16856056Y-11734579D01*
X16852637Y-11757634D01*
X16846973Y-11780243D01*
X16839121Y-11802187D01*
X16829156Y-11823257D01*
X16817174Y-11843248D01*
X16803290Y-11861968D01*
X16787638Y-11879238D01*
X16770368Y-11894890D01*
X16751648Y-11908774D01*
X16731657Y-11920756D01*
X16710587Y-11930721D01*
X16688643Y-11938573D01*
X16666034Y-11944237D01*
X16642979Y-11947656D01*
X16619700Y-11948800D01*
X16044700Y-11948800D01*
X16021421Y-11947656D01*
X15998366Y-11944237D01*
X15975757Y-11938573D01*
X15953813Y-11930721D01*
X15932743Y-11920756D01*
X15912752Y-11908774D01*
X15894032Y-11894890D01*
X15876762Y-11879238D01*
X15861110Y-11861968D01*
X15847226Y-11843248D01*
X15835244Y-11823257D01*
X15825279Y-11802187D01*
X15817427Y-11780243D01*
X15811763Y-11757634D01*
X15808344Y-11734579D01*
X15807200Y-11711300D01*
X15807200Y-11236300D01*
X15808344Y-11213021D01*
X15811763Y-11189966D01*
X15817427Y-11167357D01*
X15825279Y-11145413D01*
X15835244Y-11124343D01*
X15847226Y-11104352D01*
X15861110Y-11085632D01*
X15876762Y-11068362D01*
X15894032Y-11052710D01*
X15912752Y-11038826D01*
X15932743Y-11026844D01*
X15953813Y-11016879D01*
X15975757Y-11009027D01*
X15998366Y-11003363D01*
X16021421Y-10999944D01*
X16044700Y-10998800D01*
X16619700Y-10998800D01*
X16642979Y-10999944D01*
X16642979Y-10999944D01*
G37*
D20*
X16332200Y-11473800D03*
D10*
G36*
X18392979Y-10999944D02*
X18416034Y-11003363D01*
X18438643Y-11009027D01*
X18460587Y-11016879D01*
X18481657Y-11026844D01*
X18501648Y-11038826D01*
X18520368Y-11052710D01*
X18537638Y-11068362D01*
X18553290Y-11085632D01*
X18567174Y-11104352D01*
X18579156Y-11124343D01*
X18589121Y-11145413D01*
X18596973Y-11167357D01*
X18602637Y-11189966D01*
X18606056Y-11213021D01*
X18607200Y-11236300D01*
X18607200Y-11711300D01*
X18606056Y-11734579D01*
X18602637Y-11757634D01*
X18596973Y-11780243D01*
X18589121Y-11802187D01*
X18579156Y-11823257D01*
X18567174Y-11843248D01*
X18553290Y-11861968D01*
X18537638Y-11879238D01*
X18520368Y-11894890D01*
X18501648Y-11908774D01*
X18481657Y-11920756D01*
X18460587Y-11930721D01*
X18438643Y-11938573D01*
X18416034Y-11944237D01*
X18392979Y-11947656D01*
X18369700Y-11948800D01*
X17794700Y-11948800D01*
X17771421Y-11947656D01*
X17748366Y-11944237D01*
X17725757Y-11938573D01*
X17703813Y-11930721D01*
X17682743Y-11920756D01*
X17662752Y-11908774D01*
X17644032Y-11894890D01*
X17626762Y-11879238D01*
X17611110Y-11861968D01*
X17597226Y-11843248D01*
X17585244Y-11823257D01*
X17575279Y-11802187D01*
X17567427Y-11780243D01*
X17561763Y-11757634D01*
X17558344Y-11734579D01*
X17557200Y-11711300D01*
X17557200Y-11236300D01*
X17558344Y-11213021D01*
X17561763Y-11189966D01*
X17567427Y-11167357D01*
X17575279Y-11145413D01*
X17585244Y-11124343D01*
X17597226Y-11104352D01*
X17611110Y-11085632D01*
X17626762Y-11068362D01*
X17644032Y-11052710D01*
X17662752Y-11038826D01*
X17682743Y-11026844D01*
X17703813Y-11016879D01*
X17725757Y-11009027D01*
X17748366Y-11003363D01*
X17771421Y-10999944D01*
X17794700Y-10998800D01*
X18369700Y-10998800D01*
X18392979Y-10999944D01*
X18392979Y-10999944D01*
G37*
D20*
X18082200Y-11473800D03*
G04 #@! TD*
D10*
G04 #@! TO.C,R1*
G36*
X10038979Y-17705544D02*
X10062034Y-17708963D01*
X10084643Y-17714627D01*
X10106587Y-17722479D01*
X10127657Y-17732444D01*
X10147648Y-17744426D01*
X10166368Y-17758310D01*
X10183638Y-17773962D01*
X10199290Y-17791232D01*
X10213174Y-17809952D01*
X10225156Y-17829943D01*
X10235121Y-17851013D01*
X10242973Y-17872957D01*
X10248637Y-17895566D01*
X10252056Y-17918621D01*
X10253200Y-17941900D01*
X10253200Y-18416900D01*
X10252056Y-18440179D01*
X10248637Y-18463234D01*
X10242973Y-18485843D01*
X10235121Y-18507787D01*
X10225156Y-18528857D01*
X10213174Y-18548848D01*
X10199290Y-18567568D01*
X10183638Y-18584838D01*
X10166368Y-18600490D01*
X10147648Y-18614374D01*
X10127657Y-18626356D01*
X10106587Y-18636321D01*
X10084643Y-18644173D01*
X10062034Y-18649837D01*
X10038979Y-18653256D01*
X10015700Y-18654400D01*
X9440700Y-18654400D01*
X9417421Y-18653256D01*
X9394366Y-18649837D01*
X9371757Y-18644173D01*
X9349813Y-18636321D01*
X9328743Y-18626356D01*
X9308752Y-18614374D01*
X9290032Y-18600490D01*
X9272762Y-18584838D01*
X9257110Y-18567568D01*
X9243226Y-18548848D01*
X9231244Y-18528857D01*
X9221279Y-18507787D01*
X9213427Y-18485843D01*
X9207763Y-18463234D01*
X9204344Y-18440179D01*
X9203200Y-18416900D01*
X9203200Y-17941900D01*
X9204344Y-17918621D01*
X9207763Y-17895566D01*
X9213427Y-17872957D01*
X9221279Y-17851013D01*
X9231244Y-17829943D01*
X9243226Y-17809952D01*
X9257110Y-17791232D01*
X9272762Y-17773962D01*
X9290032Y-17758310D01*
X9308752Y-17744426D01*
X9328743Y-17732444D01*
X9349813Y-17722479D01*
X9371757Y-17714627D01*
X9394366Y-17708963D01*
X9417421Y-17705544D01*
X9440700Y-17704400D01*
X10015700Y-17704400D01*
X10038979Y-17705544D01*
X10038979Y-17705544D01*
G37*
D20*
X9728200Y-18179400D03*
D10*
G36*
X11788979Y-17705544D02*
X11812034Y-17708963D01*
X11834643Y-17714627D01*
X11856587Y-17722479D01*
X11877657Y-17732444D01*
X11897648Y-17744426D01*
X11916368Y-17758310D01*
X11933638Y-17773962D01*
X11949290Y-17791232D01*
X11963174Y-17809952D01*
X11975156Y-17829943D01*
X11985121Y-17851013D01*
X11992973Y-17872957D01*
X11998637Y-17895566D01*
X12002056Y-17918621D01*
X12003200Y-17941900D01*
X12003200Y-18416900D01*
X12002056Y-18440179D01*
X11998637Y-18463234D01*
X11992973Y-18485843D01*
X11985121Y-18507787D01*
X11975156Y-18528857D01*
X11963174Y-18548848D01*
X11949290Y-18567568D01*
X11933638Y-18584838D01*
X11916368Y-18600490D01*
X11897648Y-18614374D01*
X11877657Y-18626356D01*
X11856587Y-18636321D01*
X11834643Y-18644173D01*
X11812034Y-18649837D01*
X11788979Y-18653256D01*
X11765700Y-18654400D01*
X11190700Y-18654400D01*
X11167421Y-18653256D01*
X11144366Y-18649837D01*
X11121757Y-18644173D01*
X11099813Y-18636321D01*
X11078743Y-18626356D01*
X11058752Y-18614374D01*
X11040032Y-18600490D01*
X11022762Y-18584838D01*
X11007110Y-18567568D01*
X10993226Y-18548848D01*
X10981244Y-18528857D01*
X10971279Y-18507787D01*
X10963427Y-18485843D01*
X10957763Y-18463234D01*
X10954344Y-18440179D01*
X10953200Y-18416900D01*
X10953200Y-17941900D01*
X10954344Y-17918621D01*
X10957763Y-17895566D01*
X10963427Y-17872957D01*
X10971279Y-17851013D01*
X10981244Y-17829943D01*
X10993226Y-17809952D01*
X11007110Y-17791232D01*
X11022762Y-17773962D01*
X11040032Y-17758310D01*
X11058752Y-17744426D01*
X11078743Y-17732444D01*
X11099813Y-17722479D01*
X11121757Y-17714627D01*
X11144366Y-17708963D01*
X11167421Y-17705544D01*
X11190700Y-17704400D01*
X11765700Y-17704400D01*
X11788979Y-17705544D01*
X11788979Y-17705544D01*
G37*
D20*
X11478200Y-18179400D03*
G04 #@! TD*
D10*
G04 #@! TO.C,R2*
G36*
X8182179Y-17705544D02*
X8205234Y-17708963D01*
X8227843Y-17714627D01*
X8249787Y-17722479D01*
X8270857Y-17732444D01*
X8290848Y-17744426D01*
X8309568Y-17758310D01*
X8326838Y-17773962D01*
X8342490Y-17791232D01*
X8356374Y-17809952D01*
X8368356Y-17829943D01*
X8378321Y-17851013D01*
X8386173Y-17872957D01*
X8391837Y-17895566D01*
X8395256Y-17918621D01*
X8396400Y-17941900D01*
X8396400Y-18416900D01*
X8395256Y-18440179D01*
X8391837Y-18463234D01*
X8386173Y-18485843D01*
X8378321Y-18507787D01*
X8368356Y-18528857D01*
X8356374Y-18548848D01*
X8342490Y-18567568D01*
X8326838Y-18584838D01*
X8309568Y-18600490D01*
X8290848Y-18614374D01*
X8270857Y-18626356D01*
X8249787Y-18636321D01*
X8227843Y-18644173D01*
X8205234Y-18649837D01*
X8182179Y-18653256D01*
X8158900Y-18654400D01*
X7583900Y-18654400D01*
X7560621Y-18653256D01*
X7537566Y-18649837D01*
X7514957Y-18644173D01*
X7493013Y-18636321D01*
X7471943Y-18626356D01*
X7451952Y-18614374D01*
X7433232Y-18600490D01*
X7415962Y-18584838D01*
X7400310Y-18567568D01*
X7386426Y-18548848D01*
X7374444Y-18528857D01*
X7364479Y-18507787D01*
X7356627Y-18485843D01*
X7350963Y-18463234D01*
X7347544Y-18440179D01*
X7346400Y-18416900D01*
X7346400Y-17941900D01*
X7347544Y-17918621D01*
X7350963Y-17895566D01*
X7356627Y-17872957D01*
X7364479Y-17851013D01*
X7374444Y-17829943D01*
X7386426Y-17809952D01*
X7400310Y-17791232D01*
X7415962Y-17773962D01*
X7433232Y-17758310D01*
X7451952Y-17744426D01*
X7471943Y-17732444D01*
X7493013Y-17722479D01*
X7514957Y-17714627D01*
X7537566Y-17708963D01*
X7560621Y-17705544D01*
X7583900Y-17704400D01*
X8158900Y-17704400D01*
X8182179Y-17705544D01*
X8182179Y-17705544D01*
G37*
D20*
X7871400Y-18179400D03*
D10*
G36*
X6432179Y-17705544D02*
X6455234Y-17708963D01*
X6477843Y-17714627D01*
X6499787Y-17722479D01*
X6520857Y-17732444D01*
X6540848Y-17744426D01*
X6559568Y-17758310D01*
X6576838Y-17773962D01*
X6592490Y-17791232D01*
X6606374Y-17809952D01*
X6618356Y-17829943D01*
X6628321Y-17851013D01*
X6636173Y-17872957D01*
X6641837Y-17895566D01*
X6645256Y-17918621D01*
X6646400Y-17941900D01*
X6646400Y-18416900D01*
X6645256Y-18440179D01*
X6641837Y-18463234D01*
X6636173Y-18485843D01*
X6628321Y-18507787D01*
X6618356Y-18528857D01*
X6606374Y-18548848D01*
X6592490Y-18567568D01*
X6576838Y-18584838D01*
X6559568Y-18600490D01*
X6540848Y-18614374D01*
X6520857Y-18626356D01*
X6499787Y-18636321D01*
X6477843Y-18644173D01*
X6455234Y-18649837D01*
X6432179Y-18653256D01*
X6408900Y-18654400D01*
X5833900Y-18654400D01*
X5810621Y-18653256D01*
X5787566Y-18649837D01*
X5764957Y-18644173D01*
X5743013Y-18636321D01*
X5721943Y-18626356D01*
X5701952Y-18614374D01*
X5683232Y-18600490D01*
X5665962Y-18584838D01*
X5650310Y-18567568D01*
X5636426Y-18548848D01*
X5624444Y-18528857D01*
X5614479Y-18507787D01*
X5606627Y-18485843D01*
X5600963Y-18463234D01*
X5597544Y-18440179D01*
X5596400Y-18416900D01*
X5596400Y-17941900D01*
X5597544Y-17918621D01*
X5600963Y-17895566D01*
X5606627Y-17872957D01*
X5614479Y-17851013D01*
X5624444Y-17829943D01*
X5636426Y-17809952D01*
X5650310Y-17791232D01*
X5665962Y-17773962D01*
X5683232Y-17758310D01*
X5701952Y-17744426D01*
X5721943Y-17732444D01*
X5743013Y-17722479D01*
X5764957Y-17714627D01*
X5787566Y-17708963D01*
X5810621Y-17705544D01*
X5833900Y-17704400D01*
X6408900Y-17704400D01*
X6432179Y-17705544D01*
X6432179Y-17705544D01*
G37*
D20*
X6121400Y-18179400D03*
G04 #@! TD*
D21*
G04 #@! TO.C,U2*
X24695600Y-1532200D03*
X24695600Y-2482200D03*
X24695600Y-3432200D03*
X27295600Y-3432200D03*
X27295600Y-1532200D03*
G04 #@! TD*
D22*
G04 #@! TO.C,U4*
X16019200Y-19109800D03*
X16019200Y-19609800D03*
X16019200Y-20109800D03*
X16019200Y-20609800D03*
X16019200Y-21109800D03*
D23*
X16969200Y-22059800D03*
X17469200Y-22059800D03*
X17969200Y-22059800D03*
X18469200Y-22059800D03*
X18969200Y-22059800D03*
D22*
X19919200Y-21109800D03*
X19919200Y-20609800D03*
X19919200Y-20109800D03*
X19919200Y-19609800D03*
X19919200Y-19109800D03*
D23*
X18969200Y-18159800D03*
X18469200Y-18159800D03*
X17969200Y-18159800D03*
X17469200Y-18159800D03*
X16969200Y-18159800D03*
D24*
X17969200Y-20109800D03*
G04 #@! TD*
D25*
G04 #@! TO.C,U5*
X24359600Y-19459800D03*
X23709600Y-19459800D03*
X23059600Y-19459800D03*
X23059600Y-21259800D03*
X23709600Y-21259800D03*
X24359600Y-21259800D03*
G04 #@! TD*
D10*
G04 #@! TO.C,C6*
G36*
X13586958Y-20044510D02*
X13601276Y-20046634D01*
X13615317Y-20050151D01*
X13628946Y-20055028D01*
X13642031Y-20061217D01*
X13654447Y-20068658D01*
X13666073Y-20077281D01*
X13676798Y-20087002D01*
X13686519Y-20097727D01*
X13695142Y-20109353D01*
X13702583Y-20121769D01*
X13708772Y-20134854D01*
X13713649Y-20148483D01*
X13717166Y-20162524D01*
X13719290Y-20176842D01*
X13720000Y-20191300D01*
X13720000Y-20536300D01*
X13719290Y-20550758D01*
X13717166Y-20565076D01*
X13713649Y-20579117D01*
X13708772Y-20592746D01*
X13702583Y-20605831D01*
X13695142Y-20618247D01*
X13686519Y-20629873D01*
X13676798Y-20640598D01*
X13666073Y-20650319D01*
X13654447Y-20658942D01*
X13642031Y-20666383D01*
X13628946Y-20672572D01*
X13615317Y-20677449D01*
X13601276Y-20680966D01*
X13586958Y-20683090D01*
X13572500Y-20683800D01*
X13277500Y-20683800D01*
X13263042Y-20683090D01*
X13248724Y-20680966D01*
X13234683Y-20677449D01*
X13221054Y-20672572D01*
X13207969Y-20666383D01*
X13195553Y-20658942D01*
X13183927Y-20650319D01*
X13173202Y-20640598D01*
X13163481Y-20629873D01*
X13154858Y-20618247D01*
X13147417Y-20605831D01*
X13141228Y-20592746D01*
X13136351Y-20579117D01*
X13132834Y-20565076D01*
X13130710Y-20550758D01*
X13130000Y-20536300D01*
X13130000Y-20191300D01*
X13130710Y-20176842D01*
X13132834Y-20162524D01*
X13136351Y-20148483D01*
X13141228Y-20134854D01*
X13147417Y-20121769D01*
X13154858Y-20109353D01*
X13163481Y-20097727D01*
X13173202Y-20087002D01*
X13183927Y-20077281D01*
X13195553Y-20068658D01*
X13207969Y-20061217D01*
X13221054Y-20055028D01*
X13234683Y-20050151D01*
X13248724Y-20046634D01*
X13263042Y-20044510D01*
X13277500Y-20043800D01*
X13572500Y-20043800D01*
X13586958Y-20044510D01*
X13586958Y-20044510D01*
G37*
D11*
X13425000Y-20363800D03*
D10*
G36*
X12616958Y-20044510D02*
X12631276Y-20046634D01*
X12645317Y-20050151D01*
X12658946Y-20055028D01*
X12672031Y-20061217D01*
X12684447Y-20068658D01*
X12696073Y-20077281D01*
X12706798Y-20087002D01*
X12716519Y-20097727D01*
X12725142Y-20109353D01*
X12732583Y-20121769D01*
X12738772Y-20134854D01*
X12743649Y-20148483D01*
X12747166Y-20162524D01*
X12749290Y-20176842D01*
X12750000Y-20191300D01*
X12750000Y-20536300D01*
X12749290Y-20550758D01*
X12747166Y-20565076D01*
X12743649Y-20579117D01*
X12738772Y-20592746D01*
X12732583Y-20605831D01*
X12725142Y-20618247D01*
X12716519Y-20629873D01*
X12706798Y-20640598D01*
X12696073Y-20650319D01*
X12684447Y-20658942D01*
X12672031Y-20666383D01*
X12658946Y-20672572D01*
X12645317Y-20677449D01*
X12631276Y-20680966D01*
X12616958Y-20683090D01*
X12602500Y-20683800D01*
X12307500Y-20683800D01*
X12293042Y-20683090D01*
X12278724Y-20680966D01*
X12264683Y-20677449D01*
X12251054Y-20672572D01*
X12237969Y-20666383D01*
X12225553Y-20658942D01*
X12213927Y-20650319D01*
X12203202Y-20640598D01*
X12193481Y-20629873D01*
X12184858Y-20618247D01*
X12177417Y-20605831D01*
X12171228Y-20592746D01*
X12166351Y-20579117D01*
X12162834Y-20565076D01*
X12160710Y-20550758D01*
X12160000Y-20536300D01*
X12160000Y-20191300D01*
X12160710Y-20176842D01*
X12162834Y-20162524D01*
X12166351Y-20148483D01*
X12171228Y-20134854D01*
X12177417Y-20121769D01*
X12184858Y-20109353D01*
X12193481Y-20097727D01*
X12203202Y-20087002D01*
X12213927Y-20077281D01*
X12225553Y-20068658D01*
X12237969Y-20061217D01*
X12251054Y-20055028D01*
X12264683Y-20050151D01*
X12278724Y-20046634D01*
X12293042Y-20044510D01*
X12307500Y-20043800D01*
X12602500Y-20043800D01*
X12616958Y-20044510D01*
X12616958Y-20044510D01*
G37*
D11*
X12455000Y-20363800D03*
G04 #@! TD*
D10*
G04 #@! TO.C,C7*
G36*
X12616958Y-21822510D02*
X12631276Y-21824634D01*
X12645317Y-21828151D01*
X12658946Y-21833028D01*
X12672031Y-21839217D01*
X12684447Y-21846658D01*
X12696073Y-21855281D01*
X12706798Y-21865002D01*
X12716519Y-21875727D01*
X12725142Y-21887353D01*
X12732583Y-21899769D01*
X12738772Y-21912854D01*
X12743649Y-21926483D01*
X12747166Y-21940524D01*
X12749290Y-21954842D01*
X12750000Y-21969300D01*
X12750000Y-22314300D01*
X12749290Y-22328758D01*
X12747166Y-22343076D01*
X12743649Y-22357117D01*
X12738772Y-22370746D01*
X12732583Y-22383831D01*
X12725142Y-22396247D01*
X12716519Y-22407873D01*
X12706798Y-22418598D01*
X12696073Y-22428319D01*
X12684447Y-22436942D01*
X12672031Y-22444383D01*
X12658946Y-22450572D01*
X12645317Y-22455449D01*
X12631276Y-22458966D01*
X12616958Y-22461090D01*
X12602500Y-22461800D01*
X12307500Y-22461800D01*
X12293042Y-22461090D01*
X12278724Y-22458966D01*
X12264683Y-22455449D01*
X12251054Y-22450572D01*
X12237969Y-22444383D01*
X12225553Y-22436942D01*
X12213927Y-22428319D01*
X12203202Y-22418598D01*
X12193481Y-22407873D01*
X12184858Y-22396247D01*
X12177417Y-22383831D01*
X12171228Y-22370746D01*
X12166351Y-22357117D01*
X12162834Y-22343076D01*
X12160710Y-22328758D01*
X12160000Y-22314300D01*
X12160000Y-21969300D01*
X12160710Y-21954842D01*
X12162834Y-21940524D01*
X12166351Y-21926483D01*
X12171228Y-21912854D01*
X12177417Y-21899769D01*
X12184858Y-21887353D01*
X12193481Y-21875727D01*
X12203202Y-21865002D01*
X12213927Y-21855281D01*
X12225553Y-21846658D01*
X12237969Y-21839217D01*
X12251054Y-21833028D01*
X12264683Y-21828151D01*
X12278724Y-21824634D01*
X12293042Y-21822510D01*
X12307500Y-21821800D01*
X12602500Y-21821800D01*
X12616958Y-21822510D01*
X12616958Y-21822510D01*
G37*
D11*
X12455000Y-22141800D03*
D10*
G36*
X13586958Y-21822510D02*
X13601276Y-21824634D01*
X13615317Y-21828151D01*
X13628946Y-21833028D01*
X13642031Y-21839217D01*
X13654447Y-21846658D01*
X13666073Y-21855281D01*
X13676798Y-21865002D01*
X13686519Y-21875727D01*
X13695142Y-21887353D01*
X13702583Y-21899769D01*
X13708772Y-21912854D01*
X13713649Y-21926483D01*
X13717166Y-21940524D01*
X13719290Y-21954842D01*
X13720000Y-21969300D01*
X13720000Y-22314300D01*
X13719290Y-22328758D01*
X13717166Y-22343076D01*
X13713649Y-22357117D01*
X13708772Y-22370746D01*
X13702583Y-22383831D01*
X13695142Y-22396247D01*
X13686519Y-22407873D01*
X13676798Y-22418598D01*
X13666073Y-22428319D01*
X13654447Y-22436942D01*
X13642031Y-22444383D01*
X13628946Y-22450572D01*
X13615317Y-22455449D01*
X13601276Y-22458966D01*
X13586958Y-22461090D01*
X13572500Y-22461800D01*
X13277500Y-22461800D01*
X13263042Y-22461090D01*
X13248724Y-22458966D01*
X13234683Y-22455449D01*
X13221054Y-22450572D01*
X13207969Y-22444383D01*
X13195553Y-22436942D01*
X13183927Y-22428319D01*
X13173202Y-22418598D01*
X13163481Y-22407873D01*
X13154858Y-22396247D01*
X13147417Y-22383831D01*
X13141228Y-22370746D01*
X13136351Y-22357117D01*
X13132834Y-22343076D01*
X13130710Y-22328758D01*
X13130000Y-22314300D01*
X13130000Y-21969300D01*
X13130710Y-21954842D01*
X13132834Y-21940524D01*
X13136351Y-21926483D01*
X13141228Y-21912854D01*
X13147417Y-21899769D01*
X13154858Y-21887353D01*
X13163481Y-21875727D01*
X13173202Y-21865002D01*
X13183927Y-21855281D01*
X13195553Y-21846658D01*
X13207969Y-21839217D01*
X13221054Y-21833028D01*
X13234683Y-21828151D01*
X13248724Y-21824634D01*
X13263042Y-21822510D01*
X13277500Y-21821800D01*
X13572500Y-21821800D01*
X13586958Y-21822510D01*
X13586958Y-21822510D01*
G37*
D11*
X13425000Y-22141800D03*
G04 #@! TD*
D10*
G04 #@! TO.C,C8*
G36*
X17241758Y-14698710D02*
X17256076Y-14700834D01*
X17270117Y-14704351D01*
X17283746Y-14709228D01*
X17296831Y-14715417D01*
X17309247Y-14722858D01*
X17320873Y-14731481D01*
X17331598Y-14741202D01*
X17341319Y-14751927D01*
X17349942Y-14763553D01*
X17357383Y-14775969D01*
X17363572Y-14789054D01*
X17368449Y-14802683D01*
X17371966Y-14816724D01*
X17374090Y-14831042D01*
X17374800Y-14845500D01*
X17374800Y-15140500D01*
X17374090Y-15154958D01*
X17371966Y-15169276D01*
X17368449Y-15183317D01*
X17363572Y-15196946D01*
X17357383Y-15210031D01*
X17349942Y-15222447D01*
X17341319Y-15234073D01*
X17331598Y-15244798D01*
X17320873Y-15254519D01*
X17309247Y-15263142D01*
X17296831Y-15270583D01*
X17283746Y-15276772D01*
X17270117Y-15281649D01*
X17256076Y-15285166D01*
X17241758Y-15287290D01*
X17227300Y-15288000D01*
X16882300Y-15288000D01*
X16867842Y-15287290D01*
X16853524Y-15285166D01*
X16839483Y-15281649D01*
X16825854Y-15276772D01*
X16812769Y-15270583D01*
X16800353Y-15263142D01*
X16788727Y-15254519D01*
X16778002Y-15244798D01*
X16768281Y-15234073D01*
X16759658Y-15222447D01*
X16752217Y-15210031D01*
X16746028Y-15196946D01*
X16741151Y-15183317D01*
X16737634Y-15169276D01*
X16735510Y-15154958D01*
X16734800Y-15140500D01*
X16734800Y-14845500D01*
X16735510Y-14831042D01*
X16737634Y-14816724D01*
X16741151Y-14802683D01*
X16746028Y-14789054D01*
X16752217Y-14775969D01*
X16759658Y-14763553D01*
X16768281Y-14751927D01*
X16778002Y-14741202D01*
X16788727Y-14731481D01*
X16800353Y-14722858D01*
X16812769Y-14715417D01*
X16825854Y-14709228D01*
X16839483Y-14704351D01*
X16853524Y-14700834D01*
X16867842Y-14698710D01*
X16882300Y-14698000D01*
X17227300Y-14698000D01*
X17241758Y-14698710D01*
X17241758Y-14698710D01*
G37*
D11*
X17054800Y-14993000D03*
D10*
G36*
X17241758Y-13728710D02*
X17256076Y-13730834D01*
X17270117Y-13734351D01*
X17283746Y-13739228D01*
X17296831Y-13745417D01*
X17309247Y-13752858D01*
X17320873Y-13761481D01*
X17331598Y-13771202D01*
X17341319Y-13781927D01*
X17349942Y-13793553D01*
X17357383Y-13805969D01*
X17363572Y-13819054D01*
X17368449Y-13832683D01*
X17371966Y-13846724D01*
X17374090Y-13861042D01*
X17374800Y-13875500D01*
X17374800Y-14170500D01*
X17374090Y-14184958D01*
X17371966Y-14199276D01*
X17368449Y-14213317D01*
X17363572Y-14226946D01*
X17357383Y-14240031D01*
X17349942Y-14252447D01*
X17341319Y-14264073D01*
X17331598Y-14274798D01*
X17320873Y-14284519D01*
X17309247Y-14293142D01*
X17296831Y-14300583D01*
X17283746Y-14306772D01*
X17270117Y-14311649D01*
X17256076Y-14315166D01*
X17241758Y-14317290D01*
X17227300Y-14318000D01*
X16882300Y-14318000D01*
X16867842Y-14317290D01*
X16853524Y-14315166D01*
X16839483Y-14311649D01*
X16825854Y-14306772D01*
X16812769Y-14300583D01*
X16800353Y-14293142D01*
X16788727Y-14284519D01*
X16778002Y-14274798D01*
X16768281Y-14264073D01*
X16759658Y-14252447D01*
X16752217Y-14240031D01*
X16746028Y-14226946D01*
X16741151Y-14213317D01*
X16737634Y-14199276D01*
X16735510Y-14184958D01*
X16734800Y-14170500D01*
X16734800Y-13875500D01*
X16735510Y-13861042D01*
X16737634Y-13846724D01*
X16741151Y-13832683D01*
X16746028Y-13819054D01*
X16752217Y-13805969D01*
X16759658Y-13793553D01*
X16768281Y-13781927D01*
X16778002Y-13771202D01*
X16788727Y-13761481D01*
X16800353Y-13752858D01*
X16812769Y-13745417D01*
X16825854Y-13739228D01*
X16839483Y-13734351D01*
X16853524Y-13730834D01*
X16867842Y-13728710D01*
X16882300Y-13728000D01*
X17227300Y-13728000D01*
X17241758Y-13728710D01*
X17241758Y-13728710D01*
G37*
D11*
X17054800Y-14023000D03*
G04 #@! TD*
D10*
G04 #@! TO.C,C9*
G36*
X15057358Y-26467810D02*
X15071676Y-26469934D01*
X15085717Y-26473451D01*
X15099346Y-26478328D01*
X15112431Y-26484517D01*
X15124847Y-26491958D01*
X15136473Y-26500581D01*
X15147198Y-26510302D01*
X15156919Y-26521027D01*
X15165542Y-26532653D01*
X15172983Y-26545069D01*
X15179172Y-26558154D01*
X15184049Y-26571783D01*
X15187566Y-26585824D01*
X15189690Y-26600142D01*
X15190400Y-26614600D01*
X15190400Y-26909600D01*
X15189690Y-26924058D01*
X15187566Y-26938376D01*
X15184049Y-26952417D01*
X15179172Y-26966046D01*
X15172983Y-26979131D01*
X15165542Y-26991547D01*
X15156919Y-27003173D01*
X15147198Y-27013898D01*
X15136473Y-27023619D01*
X15124847Y-27032242D01*
X15112431Y-27039683D01*
X15099346Y-27045872D01*
X15085717Y-27050749D01*
X15071676Y-27054266D01*
X15057358Y-27056390D01*
X15042900Y-27057100D01*
X14697900Y-27057100D01*
X14683442Y-27056390D01*
X14669124Y-27054266D01*
X14655083Y-27050749D01*
X14641454Y-27045872D01*
X14628369Y-27039683D01*
X14615953Y-27032242D01*
X14604327Y-27023619D01*
X14593602Y-27013898D01*
X14583881Y-27003173D01*
X14575258Y-26991547D01*
X14567817Y-26979131D01*
X14561628Y-26966046D01*
X14556751Y-26952417D01*
X14553234Y-26938376D01*
X14551110Y-26924058D01*
X14550400Y-26909600D01*
X14550400Y-26614600D01*
X14551110Y-26600142D01*
X14553234Y-26585824D01*
X14556751Y-26571783D01*
X14561628Y-26558154D01*
X14567817Y-26545069D01*
X14575258Y-26532653D01*
X14583881Y-26521027D01*
X14593602Y-26510302D01*
X14604327Y-26500581D01*
X14615953Y-26491958D01*
X14628369Y-26484517D01*
X14641454Y-26478328D01*
X14655083Y-26473451D01*
X14669124Y-26469934D01*
X14683442Y-26467810D01*
X14697900Y-26467100D01*
X15042900Y-26467100D01*
X15057358Y-26467810D01*
X15057358Y-26467810D01*
G37*
D11*
X14870400Y-26762100D03*
D10*
G36*
X15057358Y-27437810D02*
X15071676Y-27439934D01*
X15085717Y-27443451D01*
X15099346Y-27448328D01*
X15112431Y-27454517D01*
X15124847Y-27461958D01*
X15136473Y-27470581D01*
X15147198Y-27480302D01*
X15156919Y-27491027D01*
X15165542Y-27502653D01*
X15172983Y-27515069D01*
X15179172Y-27528154D01*
X15184049Y-27541783D01*
X15187566Y-27555824D01*
X15189690Y-27570142D01*
X15190400Y-27584600D01*
X15190400Y-27879600D01*
X15189690Y-27894058D01*
X15187566Y-27908376D01*
X15184049Y-27922417D01*
X15179172Y-27936046D01*
X15172983Y-27949131D01*
X15165542Y-27961547D01*
X15156919Y-27973173D01*
X15147198Y-27983898D01*
X15136473Y-27993619D01*
X15124847Y-28002242D01*
X15112431Y-28009683D01*
X15099346Y-28015872D01*
X15085717Y-28020749D01*
X15071676Y-28024266D01*
X15057358Y-28026390D01*
X15042900Y-28027100D01*
X14697900Y-28027100D01*
X14683442Y-28026390D01*
X14669124Y-28024266D01*
X14655083Y-28020749D01*
X14641454Y-28015872D01*
X14628369Y-28009683D01*
X14615953Y-28002242D01*
X14604327Y-27993619D01*
X14593602Y-27983898D01*
X14583881Y-27973173D01*
X14575258Y-27961547D01*
X14567817Y-27949131D01*
X14561628Y-27936046D01*
X14556751Y-27922417D01*
X14553234Y-27908376D01*
X14551110Y-27894058D01*
X14550400Y-27879600D01*
X14550400Y-27584600D01*
X14551110Y-27570142D01*
X14553234Y-27555824D01*
X14556751Y-27541783D01*
X14561628Y-27528154D01*
X14567817Y-27515069D01*
X14575258Y-27502653D01*
X14583881Y-27491027D01*
X14593602Y-27480302D01*
X14604327Y-27470581D01*
X14615953Y-27461958D01*
X14628369Y-27454517D01*
X14641454Y-27448328D01*
X14655083Y-27443451D01*
X14669124Y-27439934D01*
X14683442Y-27437810D01*
X14697900Y-27437100D01*
X15042900Y-27437100D01*
X15057358Y-27437810D01*
X15057358Y-27437810D01*
G37*
D11*
X14870400Y-27732100D03*
G04 #@! TD*
D10*
G04 #@! TO.C,C10*
G36*
X21204158Y-26544110D02*
X21218476Y-26546234D01*
X21232517Y-26549751D01*
X21246146Y-26554628D01*
X21259231Y-26560817D01*
X21271647Y-26568258D01*
X21283273Y-26576881D01*
X21293998Y-26586602D01*
X21303719Y-26597327D01*
X21312342Y-26608953D01*
X21319783Y-26621369D01*
X21325972Y-26634454D01*
X21330849Y-26648083D01*
X21334366Y-26662124D01*
X21336490Y-26676442D01*
X21337200Y-26690900D01*
X21337200Y-26985900D01*
X21336490Y-27000358D01*
X21334366Y-27014676D01*
X21330849Y-27028717D01*
X21325972Y-27042346D01*
X21319783Y-27055431D01*
X21312342Y-27067847D01*
X21303719Y-27079473D01*
X21293998Y-27090198D01*
X21283273Y-27099919D01*
X21271647Y-27108542D01*
X21259231Y-27115983D01*
X21246146Y-27122172D01*
X21232517Y-27127049D01*
X21218476Y-27130566D01*
X21204158Y-27132690D01*
X21189700Y-27133400D01*
X20844700Y-27133400D01*
X20830242Y-27132690D01*
X20815924Y-27130566D01*
X20801883Y-27127049D01*
X20788254Y-27122172D01*
X20775169Y-27115983D01*
X20762753Y-27108542D01*
X20751127Y-27099919D01*
X20740402Y-27090198D01*
X20730681Y-27079473D01*
X20722058Y-27067847D01*
X20714617Y-27055431D01*
X20708428Y-27042346D01*
X20703551Y-27028717D01*
X20700034Y-27014676D01*
X20697910Y-27000358D01*
X20697200Y-26985900D01*
X20697200Y-26690900D01*
X20697910Y-26676442D01*
X20700034Y-26662124D01*
X20703551Y-26648083D01*
X20708428Y-26634454D01*
X20714617Y-26621369D01*
X20722058Y-26608953D01*
X20730681Y-26597327D01*
X20740402Y-26586602D01*
X20751127Y-26576881D01*
X20762753Y-26568258D01*
X20775169Y-26560817D01*
X20788254Y-26554628D01*
X20801883Y-26549751D01*
X20815924Y-26546234D01*
X20830242Y-26544110D01*
X20844700Y-26543400D01*
X21189700Y-26543400D01*
X21204158Y-26544110D01*
X21204158Y-26544110D01*
G37*
D11*
X21017200Y-26838400D03*
D10*
G36*
X21204158Y-27514110D02*
X21218476Y-27516234D01*
X21232517Y-27519751D01*
X21246146Y-27524628D01*
X21259231Y-27530817D01*
X21271647Y-27538258D01*
X21283273Y-27546881D01*
X21293998Y-27556602D01*
X21303719Y-27567327D01*
X21312342Y-27578953D01*
X21319783Y-27591369D01*
X21325972Y-27604454D01*
X21330849Y-27618083D01*
X21334366Y-27632124D01*
X21336490Y-27646442D01*
X21337200Y-27660900D01*
X21337200Y-27955900D01*
X21336490Y-27970358D01*
X21334366Y-27984676D01*
X21330849Y-27998717D01*
X21325972Y-28012346D01*
X21319783Y-28025431D01*
X21312342Y-28037847D01*
X21303719Y-28049473D01*
X21293998Y-28060198D01*
X21283273Y-28069919D01*
X21271647Y-28078542D01*
X21259231Y-28085983D01*
X21246146Y-28092172D01*
X21232517Y-28097049D01*
X21218476Y-28100566D01*
X21204158Y-28102690D01*
X21189700Y-28103400D01*
X20844700Y-28103400D01*
X20830242Y-28102690D01*
X20815924Y-28100566D01*
X20801883Y-28097049D01*
X20788254Y-28092172D01*
X20775169Y-28085983D01*
X20762753Y-28078542D01*
X20751127Y-28069919D01*
X20740402Y-28060198D01*
X20730681Y-28049473D01*
X20722058Y-28037847D01*
X20714617Y-28025431D01*
X20708428Y-28012346D01*
X20703551Y-27998717D01*
X20700034Y-27984676D01*
X20697910Y-27970358D01*
X20697200Y-27955900D01*
X20697200Y-27660900D01*
X20697910Y-27646442D01*
X20700034Y-27632124D01*
X20703551Y-27618083D01*
X20708428Y-27604454D01*
X20714617Y-27591369D01*
X20722058Y-27578953D01*
X20730681Y-27567327D01*
X20740402Y-27556602D01*
X20751127Y-27546881D01*
X20762753Y-27538258D01*
X20775169Y-27530817D01*
X20788254Y-27524628D01*
X20801883Y-27519751D01*
X20815924Y-27516234D01*
X20830242Y-27514110D01*
X20844700Y-27513400D01*
X21189700Y-27513400D01*
X21204158Y-27514110D01*
X21204158Y-27514110D01*
G37*
D11*
X21017200Y-27808400D03*
G04 #@! TD*
D10*
G04 #@! TO.C,C11*
G36*
X22372558Y-24415310D02*
X22386876Y-24417434D01*
X22400917Y-24420951D01*
X22414546Y-24425828D01*
X22427631Y-24432017D01*
X22440047Y-24439458D01*
X22451673Y-24448081D01*
X22462398Y-24457802D01*
X22472119Y-24468527D01*
X22480742Y-24480153D01*
X22488183Y-24492569D01*
X22494372Y-24505654D01*
X22499249Y-24519283D01*
X22502766Y-24533324D01*
X22504890Y-24547642D01*
X22505600Y-24562100D01*
X22505600Y-24857100D01*
X22504890Y-24871558D01*
X22502766Y-24885876D01*
X22499249Y-24899917D01*
X22494372Y-24913546D01*
X22488183Y-24926631D01*
X22480742Y-24939047D01*
X22472119Y-24950673D01*
X22462398Y-24961398D01*
X22451673Y-24971119D01*
X22440047Y-24979742D01*
X22427631Y-24987183D01*
X22414546Y-24993372D01*
X22400917Y-24998249D01*
X22386876Y-25001766D01*
X22372558Y-25003890D01*
X22358100Y-25004600D01*
X22013100Y-25004600D01*
X21998642Y-25003890D01*
X21984324Y-25001766D01*
X21970283Y-24998249D01*
X21956654Y-24993372D01*
X21943569Y-24987183D01*
X21931153Y-24979742D01*
X21919527Y-24971119D01*
X21908802Y-24961398D01*
X21899081Y-24950673D01*
X21890458Y-24939047D01*
X21883017Y-24926631D01*
X21876828Y-24913546D01*
X21871951Y-24899917D01*
X21868434Y-24885876D01*
X21866310Y-24871558D01*
X21865600Y-24857100D01*
X21865600Y-24562100D01*
X21866310Y-24547642D01*
X21868434Y-24533324D01*
X21871951Y-24519283D01*
X21876828Y-24505654D01*
X21883017Y-24492569D01*
X21890458Y-24480153D01*
X21899081Y-24468527D01*
X21908802Y-24457802D01*
X21919527Y-24448081D01*
X21931153Y-24439458D01*
X21943569Y-24432017D01*
X21956654Y-24425828D01*
X21970283Y-24420951D01*
X21984324Y-24417434D01*
X21998642Y-24415310D01*
X22013100Y-24414600D01*
X22358100Y-24414600D01*
X22372558Y-24415310D01*
X22372558Y-24415310D01*
G37*
D11*
X22185600Y-24709600D03*
D10*
G36*
X22372558Y-23445310D02*
X22386876Y-23447434D01*
X22400917Y-23450951D01*
X22414546Y-23455828D01*
X22427631Y-23462017D01*
X22440047Y-23469458D01*
X22451673Y-23478081D01*
X22462398Y-23487802D01*
X22472119Y-23498527D01*
X22480742Y-23510153D01*
X22488183Y-23522569D01*
X22494372Y-23535654D01*
X22499249Y-23549283D01*
X22502766Y-23563324D01*
X22504890Y-23577642D01*
X22505600Y-23592100D01*
X22505600Y-23887100D01*
X22504890Y-23901558D01*
X22502766Y-23915876D01*
X22499249Y-23929917D01*
X22494372Y-23943546D01*
X22488183Y-23956631D01*
X22480742Y-23969047D01*
X22472119Y-23980673D01*
X22462398Y-23991398D01*
X22451673Y-24001119D01*
X22440047Y-24009742D01*
X22427631Y-24017183D01*
X22414546Y-24023372D01*
X22400917Y-24028249D01*
X22386876Y-24031766D01*
X22372558Y-24033890D01*
X22358100Y-24034600D01*
X22013100Y-24034600D01*
X21998642Y-24033890D01*
X21984324Y-24031766D01*
X21970283Y-24028249D01*
X21956654Y-24023372D01*
X21943569Y-24017183D01*
X21931153Y-24009742D01*
X21919527Y-24001119D01*
X21908802Y-23991398D01*
X21899081Y-23980673D01*
X21890458Y-23969047D01*
X21883017Y-23956631D01*
X21876828Y-23943546D01*
X21871951Y-23929917D01*
X21868434Y-23915876D01*
X21866310Y-23901558D01*
X21865600Y-23887100D01*
X21865600Y-23592100D01*
X21866310Y-23577642D01*
X21868434Y-23563324D01*
X21871951Y-23549283D01*
X21876828Y-23535654D01*
X21883017Y-23522569D01*
X21890458Y-23510153D01*
X21899081Y-23498527D01*
X21908802Y-23487802D01*
X21919527Y-23478081D01*
X21931153Y-23469458D01*
X21943569Y-23462017D01*
X21956654Y-23455828D01*
X21970283Y-23450951D01*
X21984324Y-23447434D01*
X21998642Y-23445310D01*
X22013100Y-23444600D01*
X22358100Y-23444600D01*
X22372558Y-23445310D01*
X22372558Y-23445310D01*
G37*
D11*
X22185600Y-23739600D03*
G04 #@! TD*
D10*
G04 #@! TO.C,C12*
G36*
X18890858Y-24159310D02*
X18905176Y-24161434D01*
X18919217Y-24164951D01*
X18932846Y-24169828D01*
X18945931Y-24176017D01*
X18958347Y-24183458D01*
X18969973Y-24192081D01*
X18980698Y-24201802D01*
X18990419Y-24212527D01*
X18999042Y-24224153D01*
X19006483Y-24236569D01*
X19012672Y-24249654D01*
X19017549Y-24263283D01*
X19021066Y-24277324D01*
X19023190Y-24291642D01*
X19023900Y-24306100D01*
X19023900Y-24651100D01*
X19023190Y-24665558D01*
X19021066Y-24679876D01*
X19017549Y-24693917D01*
X19012672Y-24707546D01*
X19006483Y-24720631D01*
X18999042Y-24733047D01*
X18990419Y-24744673D01*
X18980698Y-24755398D01*
X18969973Y-24765119D01*
X18958347Y-24773742D01*
X18945931Y-24781183D01*
X18932846Y-24787372D01*
X18919217Y-24792249D01*
X18905176Y-24795766D01*
X18890858Y-24797890D01*
X18876400Y-24798600D01*
X18581400Y-24798600D01*
X18566942Y-24797890D01*
X18552624Y-24795766D01*
X18538583Y-24792249D01*
X18524954Y-24787372D01*
X18511869Y-24781183D01*
X18499453Y-24773742D01*
X18487827Y-24765119D01*
X18477102Y-24755398D01*
X18467381Y-24744673D01*
X18458758Y-24733047D01*
X18451317Y-24720631D01*
X18445128Y-24707546D01*
X18440251Y-24693917D01*
X18436734Y-24679876D01*
X18434610Y-24665558D01*
X18433900Y-24651100D01*
X18433900Y-24306100D01*
X18434610Y-24291642D01*
X18436734Y-24277324D01*
X18440251Y-24263283D01*
X18445128Y-24249654D01*
X18451317Y-24236569D01*
X18458758Y-24224153D01*
X18467381Y-24212527D01*
X18477102Y-24201802D01*
X18487827Y-24192081D01*
X18499453Y-24183458D01*
X18511869Y-24176017D01*
X18524954Y-24169828D01*
X18538583Y-24164951D01*
X18552624Y-24161434D01*
X18566942Y-24159310D01*
X18581400Y-24158600D01*
X18876400Y-24158600D01*
X18890858Y-24159310D01*
X18890858Y-24159310D01*
G37*
D11*
X18728900Y-24478600D03*
D10*
G36*
X19860858Y-24159310D02*
X19875176Y-24161434D01*
X19889217Y-24164951D01*
X19902846Y-24169828D01*
X19915931Y-24176017D01*
X19928347Y-24183458D01*
X19939973Y-24192081D01*
X19950698Y-24201802D01*
X19960419Y-24212527D01*
X19969042Y-24224153D01*
X19976483Y-24236569D01*
X19982672Y-24249654D01*
X19987549Y-24263283D01*
X19991066Y-24277324D01*
X19993190Y-24291642D01*
X19993900Y-24306100D01*
X19993900Y-24651100D01*
X19993190Y-24665558D01*
X19991066Y-24679876D01*
X19987549Y-24693917D01*
X19982672Y-24707546D01*
X19976483Y-24720631D01*
X19969042Y-24733047D01*
X19960419Y-24744673D01*
X19950698Y-24755398D01*
X19939973Y-24765119D01*
X19928347Y-24773742D01*
X19915931Y-24781183D01*
X19902846Y-24787372D01*
X19889217Y-24792249D01*
X19875176Y-24795766D01*
X19860858Y-24797890D01*
X19846400Y-24798600D01*
X19551400Y-24798600D01*
X19536942Y-24797890D01*
X19522624Y-24795766D01*
X19508583Y-24792249D01*
X19494954Y-24787372D01*
X19481869Y-24781183D01*
X19469453Y-24773742D01*
X19457827Y-24765119D01*
X19447102Y-24755398D01*
X19437381Y-24744673D01*
X19428758Y-24733047D01*
X19421317Y-24720631D01*
X19415128Y-24707546D01*
X19410251Y-24693917D01*
X19406734Y-24679876D01*
X19404610Y-24665558D01*
X19403900Y-24651100D01*
X19403900Y-24306100D01*
X19404610Y-24291642D01*
X19406734Y-24277324D01*
X19410251Y-24263283D01*
X19415128Y-24249654D01*
X19421317Y-24236569D01*
X19428758Y-24224153D01*
X19437381Y-24212527D01*
X19447102Y-24201802D01*
X19457827Y-24192081D01*
X19469453Y-24183458D01*
X19481869Y-24176017D01*
X19494954Y-24169828D01*
X19508583Y-24164951D01*
X19522624Y-24161434D01*
X19536942Y-24159310D01*
X19551400Y-24158600D01*
X19846400Y-24158600D01*
X19860858Y-24159310D01*
X19860858Y-24159310D01*
G37*
D11*
X19698900Y-24478600D03*
G04 #@! TD*
D10*
G04 #@! TO.C,C13*
G36*
X22423358Y-15931710D02*
X22437676Y-15933834D01*
X22451717Y-15937351D01*
X22465346Y-15942228D01*
X22478431Y-15948417D01*
X22490847Y-15955858D01*
X22502473Y-15964481D01*
X22513198Y-15974202D01*
X22522919Y-15984927D01*
X22531542Y-15996553D01*
X22538983Y-16008969D01*
X22545172Y-16022054D01*
X22550049Y-16035683D01*
X22553566Y-16049724D01*
X22555690Y-16064042D01*
X22556400Y-16078500D01*
X22556400Y-16373500D01*
X22555690Y-16387958D01*
X22553566Y-16402276D01*
X22550049Y-16416317D01*
X22545172Y-16429946D01*
X22538983Y-16443031D01*
X22531542Y-16455447D01*
X22522919Y-16467073D01*
X22513198Y-16477798D01*
X22502473Y-16487519D01*
X22490847Y-16496142D01*
X22478431Y-16503583D01*
X22465346Y-16509772D01*
X22451717Y-16514649D01*
X22437676Y-16518166D01*
X22423358Y-16520290D01*
X22408900Y-16521000D01*
X22063900Y-16521000D01*
X22049442Y-16520290D01*
X22035124Y-16518166D01*
X22021083Y-16514649D01*
X22007454Y-16509772D01*
X21994369Y-16503583D01*
X21981953Y-16496142D01*
X21970327Y-16487519D01*
X21959602Y-16477798D01*
X21949881Y-16467073D01*
X21941258Y-16455447D01*
X21933817Y-16443031D01*
X21927628Y-16429946D01*
X21922751Y-16416317D01*
X21919234Y-16402276D01*
X21917110Y-16387958D01*
X21916400Y-16373500D01*
X21916400Y-16078500D01*
X21917110Y-16064042D01*
X21919234Y-16049724D01*
X21922751Y-16035683D01*
X21927628Y-16022054D01*
X21933817Y-16008969D01*
X21941258Y-15996553D01*
X21949881Y-15984927D01*
X21959602Y-15974202D01*
X21970327Y-15964481D01*
X21981953Y-15955858D01*
X21994369Y-15948417D01*
X22007454Y-15942228D01*
X22021083Y-15937351D01*
X22035124Y-15933834D01*
X22049442Y-15931710D01*
X22063900Y-15931000D01*
X22408900Y-15931000D01*
X22423358Y-15931710D01*
X22423358Y-15931710D01*
G37*
D11*
X22236400Y-16226000D03*
D10*
G36*
X22423358Y-14961710D02*
X22437676Y-14963834D01*
X22451717Y-14967351D01*
X22465346Y-14972228D01*
X22478431Y-14978417D01*
X22490847Y-14985858D01*
X22502473Y-14994481D01*
X22513198Y-15004202D01*
X22522919Y-15014927D01*
X22531542Y-15026553D01*
X22538983Y-15038969D01*
X22545172Y-15052054D01*
X22550049Y-15065683D01*
X22553566Y-15079724D01*
X22555690Y-15094042D01*
X22556400Y-15108500D01*
X22556400Y-15403500D01*
X22555690Y-15417958D01*
X22553566Y-15432276D01*
X22550049Y-15446317D01*
X22545172Y-15459946D01*
X22538983Y-15473031D01*
X22531542Y-15485447D01*
X22522919Y-15497073D01*
X22513198Y-15507798D01*
X22502473Y-15517519D01*
X22490847Y-15526142D01*
X22478431Y-15533583D01*
X22465346Y-15539772D01*
X22451717Y-15544649D01*
X22437676Y-15548166D01*
X22423358Y-15550290D01*
X22408900Y-15551000D01*
X22063900Y-15551000D01*
X22049442Y-15550290D01*
X22035124Y-15548166D01*
X22021083Y-15544649D01*
X22007454Y-15539772D01*
X21994369Y-15533583D01*
X21981953Y-15526142D01*
X21970327Y-15517519D01*
X21959602Y-15507798D01*
X21949881Y-15497073D01*
X21941258Y-15485447D01*
X21933817Y-15473031D01*
X21927628Y-15459946D01*
X21922751Y-15446317D01*
X21919234Y-15432276D01*
X21917110Y-15417958D01*
X21916400Y-15403500D01*
X21916400Y-15108500D01*
X21917110Y-15094042D01*
X21919234Y-15079724D01*
X21922751Y-15065683D01*
X21927628Y-15052054D01*
X21933817Y-15038969D01*
X21941258Y-15026553D01*
X21949881Y-15014927D01*
X21959602Y-15004202D01*
X21970327Y-14994481D01*
X21981953Y-14985858D01*
X21994369Y-14978417D01*
X22007454Y-14972228D01*
X22021083Y-14967351D01*
X22035124Y-14963834D01*
X22049442Y-14961710D01*
X22063900Y-14961000D01*
X22408900Y-14961000D01*
X22423358Y-14961710D01*
X22423358Y-14961710D01*
G37*
D11*
X22236400Y-15256000D03*
G04 #@! TD*
D10*
G04 #@! TO.C,C14*
G36*
X20696158Y-14961710D02*
X20710476Y-14963834D01*
X20724517Y-14967351D01*
X20738146Y-14972228D01*
X20751231Y-14978417D01*
X20763647Y-14985858D01*
X20775273Y-14994481D01*
X20785998Y-15004202D01*
X20795719Y-15014927D01*
X20804342Y-15026553D01*
X20811783Y-15038969D01*
X20817972Y-15052054D01*
X20822849Y-15065683D01*
X20826366Y-15079724D01*
X20828490Y-15094042D01*
X20829200Y-15108500D01*
X20829200Y-15403500D01*
X20828490Y-15417958D01*
X20826366Y-15432276D01*
X20822849Y-15446317D01*
X20817972Y-15459946D01*
X20811783Y-15473031D01*
X20804342Y-15485447D01*
X20795719Y-15497073D01*
X20785998Y-15507798D01*
X20775273Y-15517519D01*
X20763647Y-15526142D01*
X20751231Y-15533583D01*
X20738146Y-15539772D01*
X20724517Y-15544649D01*
X20710476Y-15548166D01*
X20696158Y-15550290D01*
X20681700Y-15551000D01*
X20336700Y-15551000D01*
X20322242Y-15550290D01*
X20307924Y-15548166D01*
X20293883Y-15544649D01*
X20280254Y-15539772D01*
X20267169Y-15533583D01*
X20254753Y-15526142D01*
X20243127Y-15517519D01*
X20232402Y-15507798D01*
X20222681Y-15497073D01*
X20214058Y-15485447D01*
X20206617Y-15473031D01*
X20200428Y-15459946D01*
X20195551Y-15446317D01*
X20192034Y-15432276D01*
X20189910Y-15417958D01*
X20189200Y-15403500D01*
X20189200Y-15108500D01*
X20189910Y-15094042D01*
X20192034Y-15079724D01*
X20195551Y-15065683D01*
X20200428Y-15052054D01*
X20206617Y-15038969D01*
X20214058Y-15026553D01*
X20222681Y-15014927D01*
X20232402Y-15004202D01*
X20243127Y-14994481D01*
X20254753Y-14985858D01*
X20267169Y-14978417D01*
X20280254Y-14972228D01*
X20293883Y-14967351D01*
X20307924Y-14963834D01*
X20322242Y-14961710D01*
X20336700Y-14961000D01*
X20681700Y-14961000D01*
X20696158Y-14961710D01*
X20696158Y-14961710D01*
G37*
D11*
X20509200Y-15256000D03*
D10*
G36*
X20696158Y-15931710D02*
X20710476Y-15933834D01*
X20724517Y-15937351D01*
X20738146Y-15942228D01*
X20751231Y-15948417D01*
X20763647Y-15955858D01*
X20775273Y-15964481D01*
X20785998Y-15974202D01*
X20795719Y-15984927D01*
X20804342Y-15996553D01*
X20811783Y-16008969D01*
X20817972Y-16022054D01*
X20822849Y-16035683D01*
X20826366Y-16049724D01*
X20828490Y-16064042D01*
X20829200Y-16078500D01*
X20829200Y-16373500D01*
X20828490Y-16387958D01*
X20826366Y-16402276D01*
X20822849Y-16416317D01*
X20817972Y-16429946D01*
X20811783Y-16443031D01*
X20804342Y-16455447D01*
X20795719Y-16467073D01*
X20785998Y-16477798D01*
X20775273Y-16487519D01*
X20763647Y-16496142D01*
X20751231Y-16503583D01*
X20738146Y-16509772D01*
X20724517Y-16514649D01*
X20710476Y-16518166D01*
X20696158Y-16520290D01*
X20681700Y-16521000D01*
X20336700Y-16521000D01*
X20322242Y-16520290D01*
X20307924Y-16518166D01*
X20293883Y-16514649D01*
X20280254Y-16509772D01*
X20267169Y-16503583D01*
X20254753Y-16496142D01*
X20243127Y-16487519D01*
X20232402Y-16477798D01*
X20222681Y-16467073D01*
X20214058Y-16455447D01*
X20206617Y-16443031D01*
X20200428Y-16429946D01*
X20195551Y-16416317D01*
X20192034Y-16402276D01*
X20189910Y-16387958D01*
X20189200Y-16373500D01*
X20189200Y-16078500D01*
X20189910Y-16064042D01*
X20192034Y-16049724D01*
X20195551Y-16035683D01*
X20200428Y-16022054D01*
X20206617Y-16008969D01*
X20214058Y-15996553D01*
X20222681Y-15984927D01*
X20232402Y-15974202D01*
X20243127Y-15964481D01*
X20254753Y-15955858D01*
X20267169Y-15948417D01*
X20280254Y-15942228D01*
X20293883Y-15937351D01*
X20307924Y-15933834D01*
X20322242Y-15931710D01*
X20336700Y-15931000D01*
X20681700Y-15931000D01*
X20696158Y-15931710D01*
X20696158Y-15931710D01*
G37*
D11*
X20509200Y-16226000D03*
G04 #@! TD*
D10*
G04 #@! TO.C,R4*
G36*
X18918158Y-13728710D02*
X18932476Y-13730834D01*
X18946517Y-13734351D01*
X18960146Y-13739228D01*
X18973231Y-13745417D01*
X18985647Y-13752858D01*
X18997273Y-13761481D01*
X19007998Y-13771202D01*
X19017719Y-13781927D01*
X19026342Y-13793553D01*
X19033783Y-13805969D01*
X19039972Y-13819054D01*
X19044849Y-13832683D01*
X19048366Y-13846724D01*
X19050490Y-13861042D01*
X19051200Y-13875500D01*
X19051200Y-14170500D01*
X19050490Y-14184958D01*
X19048366Y-14199276D01*
X19044849Y-14213317D01*
X19039972Y-14226946D01*
X19033783Y-14240031D01*
X19026342Y-14252447D01*
X19017719Y-14264073D01*
X19007998Y-14274798D01*
X18997273Y-14284519D01*
X18985647Y-14293142D01*
X18973231Y-14300583D01*
X18960146Y-14306772D01*
X18946517Y-14311649D01*
X18932476Y-14315166D01*
X18918158Y-14317290D01*
X18903700Y-14318000D01*
X18558700Y-14318000D01*
X18544242Y-14317290D01*
X18529924Y-14315166D01*
X18515883Y-14311649D01*
X18502254Y-14306772D01*
X18489169Y-14300583D01*
X18476753Y-14293142D01*
X18465127Y-14284519D01*
X18454402Y-14274798D01*
X18444681Y-14264073D01*
X18436058Y-14252447D01*
X18428617Y-14240031D01*
X18422428Y-14226946D01*
X18417551Y-14213317D01*
X18414034Y-14199276D01*
X18411910Y-14184958D01*
X18411200Y-14170500D01*
X18411200Y-13875500D01*
X18411910Y-13861042D01*
X18414034Y-13846724D01*
X18417551Y-13832683D01*
X18422428Y-13819054D01*
X18428617Y-13805969D01*
X18436058Y-13793553D01*
X18444681Y-13781927D01*
X18454402Y-13771202D01*
X18465127Y-13761481D01*
X18476753Y-13752858D01*
X18489169Y-13745417D01*
X18502254Y-13739228D01*
X18515883Y-13734351D01*
X18529924Y-13730834D01*
X18544242Y-13728710D01*
X18558700Y-13728000D01*
X18903700Y-13728000D01*
X18918158Y-13728710D01*
X18918158Y-13728710D01*
G37*
D11*
X18731200Y-14023000D03*
D10*
G36*
X18918158Y-14698710D02*
X18932476Y-14700834D01*
X18946517Y-14704351D01*
X18960146Y-14709228D01*
X18973231Y-14715417D01*
X18985647Y-14722858D01*
X18997273Y-14731481D01*
X19007998Y-14741202D01*
X19017719Y-14751927D01*
X19026342Y-14763553D01*
X19033783Y-14775969D01*
X19039972Y-14789054D01*
X19044849Y-14802683D01*
X19048366Y-14816724D01*
X19050490Y-14831042D01*
X19051200Y-14845500D01*
X19051200Y-15140500D01*
X19050490Y-15154958D01*
X19048366Y-15169276D01*
X19044849Y-15183317D01*
X19039972Y-15196946D01*
X19033783Y-15210031D01*
X19026342Y-15222447D01*
X19017719Y-15234073D01*
X19007998Y-15244798D01*
X18997273Y-15254519D01*
X18985647Y-15263142D01*
X18973231Y-15270583D01*
X18960146Y-15276772D01*
X18946517Y-15281649D01*
X18932476Y-15285166D01*
X18918158Y-15287290D01*
X18903700Y-15288000D01*
X18558700Y-15288000D01*
X18544242Y-15287290D01*
X18529924Y-15285166D01*
X18515883Y-15281649D01*
X18502254Y-15276772D01*
X18489169Y-15270583D01*
X18476753Y-15263142D01*
X18465127Y-15254519D01*
X18454402Y-15244798D01*
X18444681Y-15234073D01*
X18436058Y-15222447D01*
X18428617Y-15210031D01*
X18422428Y-15196946D01*
X18417551Y-15183317D01*
X18414034Y-15169276D01*
X18411910Y-15154958D01*
X18411200Y-15140500D01*
X18411200Y-14845500D01*
X18411910Y-14831042D01*
X18414034Y-14816724D01*
X18417551Y-14802683D01*
X18422428Y-14789054D01*
X18428617Y-14775969D01*
X18436058Y-14763553D01*
X18444681Y-14751927D01*
X18454402Y-14741202D01*
X18465127Y-14731481D01*
X18476753Y-14722858D01*
X18489169Y-14715417D01*
X18502254Y-14709228D01*
X18515883Y-14704351D01*
X18529924Y-14700834D01*
X18544242Y-14698710D01*
X18558700Y-14698000D01*
X18903700Y-14698000D01*
X18918158Y-14698710D01*
X18918158Y-14698710D01*
G37*
D11*
X18731200Y-14993000D03*
G04 #@! TD*
M02*
