G04 #@! TF.GenerationSoftware,KiCad,Pcbnew,(5.0.0)*
G04 #@! TF.CreationDate,2019-01-10T03:08:01-03:00*
G04 #@! TF.ProjectId,EstacionTerrena,4573746163696F6E54657272656E612E,rev?*
G04 #@! TF.SameCoordinates,Original*
G04 #@! TF.FileFunction,Soldermask,Bot*
G04 #@! TF.FilePolarity,Negative*
%FSLAX46Y46*%
G04 Gerber Fmt 4.6, Leading zero omitted, Abs format (unit mm)*
G04 Created by KiCad (PCBNEW (5.0.0)) date 01/10/19 03:08:01*
%MOMM*%
%LPD*%
G01*
G04 APERTURE LIST*
%ADD10C,0.100000*%
G04 APERTURE END LIST*
D10*
G36*
X4991743Y-22730660D02*
X5610503Y-22986958D01*
X6167377Y-23359050D01*
X6640950Y-23832623D01*
X7013042Y-24389497D01*
X7269340Y-25008257D01*
X7400000Y-25665128D01*
X7400000Y-26334872D01*
X7269340Y-26991743D01*
X7013042Y-27610503D01*
X6640950Y-28167377D01*
X6167377Y-28640950D01*
X5610503Y-29013042D01*
X4991743Y-29269340D01*
X4334872Y-29400000D01*
X3665128Y-29400000D01*
X3008257Y-29269340D01*
X2389497Y-29013042D01*
X1832623Y-28640950D01*
X1359050Y-28167377D01*
X986958Y-27610503D01*
X730660Y-26991743D01*
X600000Y-26334872D01*
X600000Y-25665128D01*
X730660Y-25008257D01*
X986958Y-24389497D01*
X1359050Y-23832623D01*
X1832623Y-23359050D01*
X2389497Y-22986958D01*
X3008257Y-22730660D01*
X3665128Y-22600000D01*
X4334872Y-22600000D01*
X4991743Y-22730660D01*
X4991743Y-22730660D01*
G37*
G36*
X36991743Y-22730660D02*
X37610503Y-22986958D01*
X38167377Y-23359050D01*
X38640950Y-23832623D01*
X39013042Y-24389497D01*
X39269340Y-25008257D01*
X39400000Y-25665128D01*
X39400000Y-26334872D01*
X39269340Y-26991743D01*
X39013042Y-27610503D01*
X38640950Y-28167377D01*
X38167377Y-28640950D01*
X37610503Y-29013042D01*
X36991743Y-29269340D01*
X36334872Y-29400000D01*
X35665128Y-29400000D01*
X35008257Y-29269340D01*
X34389497Y-29013042D01*
X33832623Y-28640950D01*
X33359050Y-28167377D01*
X32986958Y-27610503D01*
X32730660Y-26991743D01*
X32600000Y-26334872D01*
X32600000Y-25665128D01*
X32730660Y-25008257D01*
X32986958Y-24389497D01*
X33359050Y-23832623D01*
X33832623Y-23359050D01*
X34389497Y-22986958D01*
X35008257Y-22730660D01*
X35665128Y-22600000D01*
X36334872Y-22600000D01*
X36991743Y-22730660D01*
X36991743Y-22730660D01*
G37*
G36*
X15886000Y-22993000D02*
X14486000Y-22993000D01*
X14486000Y-21593000D01*
X15886000Y-21593000D01*
X15886000Y-22993000D01*
X15886000Y-22993000D01*
G37*
G36*
X1897149Y-17707717D02*
X1936327Y-17711576D01*
X2011727Y-17734448D01*
X2087129Y-17757321D01*
X2226108Y-17831608D01*
X2347922Y-17931578D01*
X2447892Y-18053392D01*
X2522179Y-18192371D01*
X2567924Y-18343174D01*
X2583370Y-18500000D01*
X2567924Y-18656826D01*
X2522179Y-18807629D01*
X2447892Y-18946608D01*
X2347922Y-19068422D01*
X2226108Y-19168392D01*
X2087129Y-19242679D01*
X2011728Y-19265551D01*
X1936327Y-19288424D01*
X1897149Y-19292283D01*
X1818795Y-19300000D01*
X1040205Y-19300000D01*
X961851Y-19292283D01*
X922673Y-19288424D01*
X847272Y-19265551D01*
X771871Y-19242679D01*
X632892Y-19168392D01*
X511078Y-19068422D01*
X411108Y-18946608D01*
X336821Y-18807629D01*
X291076Y-18656826D01*
X275630Y-18500000D01*
X291076Y-18343174D01*
X336821Y-18192371D01*
X411108Y-18053392D01*
X511078Y-17931578D01*
X632892Y-17831608D01*
X771871Y-17757321D01*
X847273Y-17734448D01*
X922673Y-17711576D01*
X961851Y-17707717D01*
X1040205Y-17700000D01*
X1818795Y-17700000D01*
X1897149Y-17707717D01*
X1897149Y-17707717D01*
G37*
G36*
X38102547Y-16073922D02*
X38366433Y-16183227D01*
X38603924Y-16341913D01*
X38805887Y-16543876D01*
X38964573Y-16781367D01*
X39073878Y-17045253D01*
X39129600Y-17325386D01*
X39129600Y-17611014D01*
X39073878Y-17891147D01*
X38964573Y-18155033D01*
X38805887Y-18392524D01*
X38603924Y-18594487D01*
X38366433Y-18753173D01*
X38102547Y-18862478D01*
X37822414Y-18918200D01*
X37536786Y-18918200D01*
X37256653Y-18862478D01*
X36992767Y-18753173D01*
X36755276Y-18594487D01*
X36553313Y-18392524D01*
X36394627Y-18155033D01*
X36285322Y-17891147D01*
X36229600Y-17611014D01*
X36229600Y-17325386D01*
X36285322Y-17045253D01*
X36394627Y-16781367D01*
X36553313Y-16543876D01*
X36755276Y-16341913D01*
X36992767Y-16183227D01*
X37256653Y-16073922D01*
X37536786Y-16018200D01*
X37822414Y-16018200D01*
X38102547Y-16073922D01*
X38102547Y-16073922D01*
G37*
G36*
X33022547Y-16073922D02*
X33286433Y-16183227D01*
X33523924Y-16341913D01*
X33725887Y-16543876D01*
X33884573Y-16781367D01*
X33993878Y-17045253D01*
X34049600Y-17325386D01*
X34049600Y-17611014D01*
X33993878Y-17891147D01*
X33884573Y-18155033D01*
X33725887Y-18392524D01*
X33523924Y-18594487D01*
X33286433Y-18753173D01*
X33022547Y-18862478D01*
X32742414Y-18918200D01*
X32456786Y-18918200D01*
X32176653Y-18862478D01*
X31912767Y-18753173D01*
X31675276Y-18594487D01*
X31473313Y-18392524D01*
X31314627Y-18155033D01*
X31205322Y-17891147D01*
X31149600Y-17611014D01*
X31149600Y-17325386D01*
X31205322Y-17045253D01*
X31314627Y-16781367D01*
X31473313Y-16543876D01*
X31675276Y-16341913D01*
X31912767Y-16183227D01*
X32176653Y-16073922D01*
X32456786Y-16018200D01*
X32742414Y-16018200D01*
X33022547Y-16073922D01*
X33022547Y-16073922D01*
G37*
G36*
X4399311Y-16610546D02*
X4399314Y-16610547D01*
X4399313Y-16610547D01*
X4567652Y-16680275D01*
X4567653Y-16680276D01*
X4719156Y-16781507D01*
X4847993Y-16910344D01*
X4847995Y-16910347D01*
X4949225Y-17061848D01*
X5003157Y-17192052D01*
X5018954Y-17230189D01*
X5054500Y-17408894D01*
X5054500Y-17591106D01*
X5018954Y-17769811D01*
X5018953Y-17769813D01*
X4949225Y-17938152D01*
X4849360Y-18087611D01*
X4847993Y-18089656D01*
X4719156Y-18218493D01*
X4719153Y-18218495D01*
X4567652Y-18319725D01*
X4437448Y-18373657D01*
X4399311Y-18389454D01*
X4220606Y-18425000D01*
X4038394Y-18425000D01*
X3859689Y-18389454D01*
X3821552Y-18373657D01*
X3691348Y-18319725D01*
X3539847Y-18218495D01*
X3539844Y-18218493D01*
X3411007Y-18089656D01*
X3409640Y-18087611D01*
X3309775Y-17938152D01*
X3240047Y-17769813D01*
X3240046Y-17769811D01*
X3204500Y-17591106D01*
X3204500Y-17408894D01*
X3240046Y-17230189D01*
X3255843Y-17192052D01*
X3309775Y-17061848D01*
X3411005Y-16910347D01*
X3411007Y-16910344D01*
X3539844Y-16781507D01*
X3691347Y-16680276D01*
X3691348Y-16680275D01*
X3859687Y-16610547D01*
X3859686Y-16610547D01*
X3859689Y-16610546D01*
X4038394Y-16575000D01*
X4220606Y-16575000D01*
X4399311Y-16610546D01*
X4399311Y-16610546D01*
G37*
G36*
X35533378Y-13630079D02*
X35779066Y-13731846D01*
X36000178Y-13879589D01*
X36188211Y-14067622D01*
X36335954Y-14288734D01*
X36437721Y-14534422D01*
X36489600Y-14795235D01*
X36489600Y-15061165D01*
X36437721Y-15321978D01*
X36335954Y-15567666D01*
X36188211Y-15788778D01*
X36000178Y-15976811D01*
X35779066Y-16124554D01*
X35533378Y-16226321D01*
X35272565Y-16278200D01*
X35006635Y-16278200D01*
X34745822Y-16226321D01*
X34500134Y-16124554D01*
X34279022Y-15976811D01*
X34090989Y-15788778D01*
X33943246Y-15567666D01*
X33841479Y-15321978D01*
X33789600Y-15061165D01*
X33789600Y-14795235D01*
X33841479Y-14534422D01*
X33943246Y-14288734D01*
X34090989Y-14067622D01*
X34279022Y-13879589D01*
X34500134Y-13731846D01*
X34745822Y-13630079D01*
X35006635Y-13578200D01*
X35272565Y-13578200D01*
X35533378Y-13630079D01*
X35533378Y-13630079D01*
G37*
G36*
X33022547Y-10993922D02*
X33286433Y-11103227D01*
X33523924Y-11261913D01*
X33725887Y-11463876D01*
X33884573Y-11701367D01*
X33993878Y-11965253D01*
X34049600Y-12245386D01*
X34049600Y-12531014D01*
X33993878Y-12811147D01*
X33884573Y-13075033D01*
X33725887Y-13312524D01*
X33523924Y-13514487D01*
X33286433Y-13673173D01*
X33022547Y-13782478D01*
X32742414Y-13838200D01*
X32456786Y-13838200D01*
X32176653Y-13782478D01*
X31912767Y-13673173D01*
X31675276Y-13514487D01*
X31473313Y-13312524D01*
X31314627Y-13075033D01*
X31205322Y-12811147D01*
X31149600Y-12531014D01*
X31149600Y-12245386D01*
X31205322Y-11965253D01*
X31314627Y-11701367D01*
X31473313Y-11463876D01*
X31675276Y-11261913D01*
X31912767Y-11103227D01*
X32176653Y-10993922D01*
X32456786Y-10938200D01*
X32742414Y-10938200D01*
X33022547Y-10993922D01*
X33022547Y-10993922D01*
G37*
G36*
X38102547Y-10993922D02*
X38366433Y-11103227D01*
X38603924Y-11261913D01*
X38805887Y-11463876D01*
X38964573Y-11701367D01*
X39073878Y-11965253D01*
X39129600Y-12245386D01*
X39129600Y-12531014D01*
X39073878Y-12811147D01*
X38964573Y-13075033D01*
X38805887Y-13312524D01*
X38603924Y-13514487D01*
X38366433Y-13673173D01*
X38102547Y-13782478D01*
X37822414Y-13838200D01*
X37536786Y-13838200D01*
X37256653Y-13782478D01*
X36992767Y-13673173D01*
X36755276Y-13514487D01*
X36553313Y-13312524D01*
X36394627Y-13075033D01*
X36285322Y-12811147D01*
X36229600Y-12531014D01*
X36229600Y-12245386D01*
X36285322Y-11965253D01*
X36394627Y-11701367D01*
X36553313Y-11463876D01*
X36755276Y-11261913D01*
X36992767Y-11103227D01*
X37256653Y-10993922D01*
X37536786Y-10938200D01*
X37822414Y-10938200D01*
X38102547Y-10993922D01*
X38102547Y-10993922D01*
G37*
G36*
X4399311Y-11610546D02*
X4399314Y-11610547D01*
X4399313Y-11610547D01*
X4567652Y-11680275D01*
X4567653Y-11680276D01*
X4719156Y-11781507D01*
X4847993Y-11910344D01*
X4847995Y-11910347D01*
X4949225Y-12061848D01*
X4993357Y-12168392D01*
X5018954Y-12230189D01*
X5054500Y-12408894D01*
X5054500Y-12591106D01*
X5018954Y-12769811D01*
X5018953Y-12769813D01*
X4949225Y-12938152D01*
X4949224Y-12938153D01*
X4847993Y-13089656D01*
X4719156Y-13218493D01*
X4719153Y-13218495D01*
X4567652Y-13319725D01*
X4437448Y-13373657D01*
X4399311Y-13389454D01*
X4220606Y-13425000D01*
X4038394Y-13425000D01*
X3859689Y-13389454D01*
X3821552Y-13373657D01*
X3691348Y-13319725D01*
X3539847Y-13218495D01*
X3539844Y-13218493D01*
X3411007Y-13089656D01*
X3309776Y-12938153D01*
X3309775Y-12938152D01*
X3240047Y-12769813D01*
X3240046Y-12769811D01*
X3204500Y-12591106D01*
X3204500Y-12408894D01*
X3240046Y-12230189D01*
X3265643Y-12168392D01*
X3309775Y-12061848D01*
X3411005Y-11910347D01*
X3411007Y-11910344D01*
X3539844Y-11781507D01*
X3691347Y-11680276D01*
X3691348Y-11680275D01*
X3859687Y-11610547D01*
X3859686Y-11610547D01*
X3859689Y-11610546D01*
X4038394Y-11575000D01*
X4220606Y-11575000D01*
X4399311Y-11610546D01*
X4399311Y-11610546D01*
G37*
G36*
X1897149Y-10707717D02*
X1936327Y-10711576D01*
X2011728Y-10734449D01*
X2087129Y-10757321D01*
X2226108Y-10831608D01*
X2347922Y-10931578D01*
X2447892Y-11053392D01*
X2522179Y-11192371D01*
X2567924Y-11343174D01*
X2583370Y-11500000D01*
X2567924Y-11656826D01*
X2522179Y-11807629D01*
X2447892Y-11946608D01*
X2347922Y-12068422D01*
X2226108Y-12168392D01*
X2087129Y-12242679D01*
X2011727Y-12265552D01*
X1936327Y-12288424D01*
X1897149Y-12292283D01*
X1818795Y-12300000D01*
X1040205Y-12300000D01*
X961851Y-12292283D01*
X922673Y-12288424D01*
X847273Y-12265552D01*
X771871Y-12242679D01*
X632892Y-12168392D01*
X511078Y-12068422D01*
X411108Y-11946608D01*
X336821Y-11807629D01*
X291076Y-11656826D01*
X275630Y-11500000D01*
X291076Y-11343174D01*
X336821Y-11192371D01*
X411108Y-11053392D01*
X511078Y-10931578D01*
X632892Y-10831608D01*
X771871Y-10757321D01*
X847272Y-10734449D01*
X922673Y-10711576D01*
X961851Y-10707717D01*
X1040205Y-10700000D01*
X1818795Y-10700000D01*
X1897149Y-10707717D01*
X1897149Y-10707717D01*
G37*
G36*
X36991743Y-730660D02*
X37610503Y-986958D01*
X38167377Y-1359050D01*
X38640950Y-1832623D01*
X39013042Y-2389497D01*
X39269340Y-3008257D01*
X39400000Y-3665128D01*
X39400000Y-4334872D01*
X39269340Y-4991743D01*
X39013042Y-5610503D01*
X38640950Y-6167377D01*
X38167377Y-6640950D01*
X37610503Y-7013042D01*
X36991743Y-7269340D01*
X36334872Y-7400000D01*
X35665128Y-7400000D01*
X35008257Y-7269340D01*
X34389497Y-7013042D01*
X33832623Y-6640950D01*
X33359050Y-6167377D01*
X32986958Y-5610503D01*
X32730660Y-4991743D01*
X32600000Y-4334872D01*
X32600000Y-3665128D01*
X32730660Y-3008257D01*
X32986958Y-2389497D01*
X33359050Y-1832623D01*
X33832623Y-1359050D01*
X34389497Y-986958D01*
X35008257Y-730660D01*
X35665128Y-600000D01*
X36334872Y-600000D01*
X36991743Y-730660D01*
X36991743Y-730660D01*
G37*
G36*
X4991743Y-730660D02*
X5610503Y-986958D01*
X6167377Y-1359050D01*
X6640950Y-1832623D01*
X7013042Y-2389497D01*
X7269340Y-3008257D01*
X7400000Y-3665128D01*
X7400000Y-4334872D01*
X7269340Y-4991743D01*
X7013042Y-5610503D01*
X6640950Y-6167377D01*
X6167377Y-6640950D01*
X5610503Y-7013042D01*
X4991743Y-7269340D01*
X4334872Y-7400000D01*
X3665128Y-7400000D01*
X3008257Y-7269340D01*
X2389497Y-7013042D01*
X1832623Y-6640950D01*
X1359050Y-6167377D01*
X986958Y-5610503D01*
X730660Y-4991743D01*
X600000Y-4334872D01*
X600000Y-3665128D01*
X730660Y-3008257D01*
X986958Y-2389497D01*
X1359050Y-1832623D01*
X1832623Y-1359050D01*
X2389497Y-986958D01*
X3008257Y-730660D01*
X3665128Y-600000D01*
X4334872Y-600000D01*
X4991743Y-730660D01*
X4991743Y-730660D01*
G37*
M02*
