M48
;DRILL file {KiCad (5.0.0)} date 01/10/19 03:08:06
;FORMAT={-:-/ absolute / metric / decimal}
FMAT,2
METRIC,TZ
T1C0.300
T2C0.500
T3C0.600
T4C0.850
T5C1.500
T6C1.600
T7C3.200
%
G90
G05
M71
T1
X1.429Y-9.696
X5.422Y-21.431
X5.879Y-16.3
X9.333Y-14.827
X10.086Y-19.893
X10.248Y-10.915
X11.586Y-21.227
X12.648Y-4.431
X12.737Y-16.859
X14.586Y-23.693
X14.87Y-25.19
X15.165Y-5.293
X15.186Y-4.393
X15.277Y-16.147
X15.937Y-8.172
X16.902Y-25.139
X17.004Y-24.043
X17.106Y-19.246
X17.106Y-20.973
X17.969Y-20.11
X18.426Y-23.693
X18.833Y-19.246
X18.833Y-20.973
X19.036Y-29.203
X19.9Y-13.912
X20.001Y-23.259
X21.017Y-29.203
X21.251Y-22.142
X21.373Y-14.319
X23.1Y-24.682
X23.123Y-2.482
X23.123Y-3.42
X23.456Y-6.648
X23.71Y-17.976
X23.71Y-20.364
X23.71Y-22.447
X25.208Y-6.597
X29.196Y-15.741
X29.933Y-4.895
X30.161Y-21.786
T2
X15.186Y-22.293
T4
X4.13Y-12.5
X4.13Y-17.5
T5
X35.14Y-14.928
T6
X32.6Y-12.388
X32.6Y-17.468
X37.68Y-12.388
X37.68Y-17.468
T7
X4.Y-4.
X36.Y-4.
X36.Y-26.
X4.Y-26.
T3
X1.079Y-11.5G85X1.779Y-11.5
G05
X1.779Y-18.5G85X1.079Y-18.5
G05
T0
M30
