  0
SECTION
  2
HEADER
  9
$ACADVER
  1
AC1014
  9
$HANDSEED
  5
FFFF
  9
$MEASUREMENT
 70
     1
  0
ENDSEC
  0
SECTION
  2
TABLES
  0
TABLE
  2
VPORT
  5
8
330
0
100
AcDbSymbolTable
 70
     4
  0
VPORT
  5
2E
330
8
100
AcDbSymbolTableRecord
100
AcDbViewportTableRecord
  2
*ACTIVE
 70
     0
 10
0.0
 20
0.0
 11
1.0
 21
1.0
 12
210.0
 22
148.5
 13
0.0
 23
0.0
 14
10.0
 24
10.0
 15
10.0
 25
10.0
 16
0.0
 26
0.0
 36
1.0
 17
0.0
 27
0.0
 37
0.0
 40
341.0
 41
1.24
 42
50.0
 43
0.0
 44
0.0
 50
0.0
 51
0.0
 71
     0
 72
   100
 73
     1
 74
     3
 75
     0
 76
     0
 77
     0
 78
     0
  0
ENDTAB
  0
TABLE
  2
LTYPE
  5
5
330
0
100
AcDbSymbolTable
 70
     1
  0
LTYPE
  5
14
330
5
100
AcDbSymbolTableRecord
100
AcDbLinetypeTableRecord
  2
BYBLOCK
 70
     0
  3

 72
    65
 73
     0
 40
0.0
  0
LTYPE
  5
15
330
5
100
AcDbSymbolTableRecord
100
AcDbLinetypeTableRecord
  2
BYLAYER
 70
     0
  3

 72
    65
 73
     0
 40
0.0
  0
LTYPE
  5
16
330
5
100
AcDbSymbolTableRecord
100
AcDbLinetypeTableRecord
  2
CONTINUOUS
 70
     0
  3
Solid line
 72
    65
 73
     0
 40
0.0
  0
ENDTAB
  0
TABLE
  2
LAYER
  5
2
100
AcDbSymbolTable
 70
2
  0
LAYER
  5
50
100
AcDbSymbolTableRecord
100
AcDbLayerTableRecord
  2
0
 70
0
  6
CONTINUOUS
  0
LAYER
  5
51
100
AcDbSymbolTableRecord
100
AcDbLayerTableRecord
  2
Capa_1
 70
0
  6
CONTINUOUS
  0
ENDTAB
  0
TABLE
  2
STYLE
  5
3
330
0
100
AcDbSymbolTable
 70
     1
  0
STYLE
  5
11
330
3
100
AcDbSymbolTableRecord
100
AcDbTextStyleTableRecord
  2
STANDARD
 70
     0
 40
0.0
 41
1.0
 50
0.0
 71
     0
 42
2.5
  3
txt
  4

  0
ENDTAB
  0
TABLE
  2
VIEW
  5
6
330
0
100
AcDbSymbolTable
 70
     0
  0
ENDTAB
  0
TABLE
  2
UCS
  5
7
330
0
100
AcDbSymbolTable
 70
     0
  0
ENDTAB
  0
TABLE
  2
APPID
  5
9
330
0
100
AcDbSymbolTable
 70
     2
  0
APPID
  5
12
330
9
100
AcDbSymbolTableRecord
100
AcDbRegAppTableRecord
  2
ACAD
 70
     0
  0
ENDTAB
  0
TABLE
  2
DIMSTYLE
  5
A
330
0
100
AcDbSymbolTable
 70
     1
  0
DIMSTYLE
105
27
330
A
100
AcDbSymbolTableRecord
100
AcDbDimStyleTableRecord
  2
ISO-25
 70
     0
  3

  4

  5

  6

  7

 40
1.0
 41
2.5
 42
0.625
 43
3.75
 44
1.25
 45
0.0
 46
0.0
 47
0.0
 48
0.0
140
2.5
141
2.5
142
0.0
143
0.03937007874016
144
1.0
145
0.0
146
1.0
147
0.625
 71
     0
 72
     0
 73
     0
 74
     0
 75
     0
 76
     0
 77
     1
 78
     8
170
     0
171
     3
172
     1
173
     0
174
     0
175
     0
176
     0
177
     0
178
     0
270
     2
271
     2
272
     2
273
     2
274
     3
340
11
275
     0
280
     0
281
     0
282
     0
283
     0
284
     8
285
     0
286
     0
287
     3
288
     0
  0
ENDTAB
  0
TABLE
  2
BLOCK_RECORD
  5
1
330
0
100
AcDbSymbolTable
 70
     1
  0
BLOCK_RECORD
  5
1F
330
1
100
AcDbSymbolTableRecord
100
AcDbBlockTableRecord
  2
*MODEL_SPACE
  0
BLOCK_RECORD
  5
1B
330
1
100
AcDbSymbolTableRecord
100
AcDbBlockTableRecord
  2
*PAPER_SPACE
  0
ENDTAB
  0
ENDSEC
  0
SECTION
  2
BLOCKS
  0
BLOCK
  5
20
330
1F
100
AcDbEntity
  8
0
100
AcDbBlockBegin
  2
*MODEL_SPACE
 70
     0
 10
0.0
 20
0.0
 30
0.0
  3
*MODEL_SPACE
  1

  0
ENDBLK
  5
21
330
1F
100
AcDbEntity
  8
0
100
AcDbBlockEnd
  0
BLOCK
  5
1C
330
1B
100
AcDbEntity
 67
     1
  8
0
100
AcDbBlockBegin
  2
*PAPER_SPACE
  1

  0
ENDBLK
  5
1D
330
1B
100
AcDbEntity
 67
     1
  8
0
100
AcDbBlockEnd
  0
ENDSEC
  0
SECTION
  2
ENTITIES
  0
LWPOLYLINE
  5
100
100
AcDbEntity
  8
Capa_1
 62
7
100
AcDbPolyline
 90
4
 70
1
 10
0.062123
 20
9.937900
 30
0.0
 10
1.937877
 20
9.937900
 30
0.0
 10
1.937877
 20
0.062146
 30
0.0
 10
0.062123
 20
0.062146
 30
0.0
  0
SPLINE
  5
101
100
AcDbEntity
  8
Capa_1
 62
7
100
AcDbSpline
 70
8
 71
3
 72
8
 73
4
 74
0
 40
0
 40
0
 40
0
 40
0
 40
1
 40
1
 40
1
 40
1
 10
0.870373
 20
9.342271
 30
0.0
 10
0.870373
 20
9.299159
 30
0.0
 10
0.876654
 20
9.257607
 30
0.0
 10
0.889215
 20
9.217615
 30
0.0
  0
SPLINE
  5
102
100
AcDbEntity
  8
Capa_1
 62
7
100
AcDbSpline
 70
8
 71
3
 72
8
 73
4
 74
0
 40
0
 40
0
 40
0
 40
0
 40
1
 40
1
 40
1
 40
1
 10
0.889215
 20
9.217615
 30
0.0
 10
0.901563
 20
9.177636
 30
0.0
 10
0.919554
 20
9.142418
 30
0.0
 10
0.943186
 20
9.111960
 30
0.0
  0
SPLINE
  5
103
100
AcDbEntity
  8
Capa_1
 62
7
100
AcDbSpline
 70
8
 71
3
 72
8
 73
4
 74
0
 40
0
 40
0
 40
0
 40
0
 40
1
 40
1
 40
1
 40
1
 10
0.943186
 20
9.111960
 30
0.0
 10
0.967457
 20
9.080631
 30
0.0
 10
0.996625
 20
9.055976
 30
0.0
 10
1.030690
 20
9.037996
 30
0.0
  0
SPLINE
  5
104
100
AcDbEntity
  8
Capa_1
 62
7
100
AcDbSpline
 70
8
 71
3
 72
8
 73
4
 74
0
 40
0
 40
0
 40
0
 40
0
 40
1
 40
1
 40
1
 40
1
 10
1.030690
 20
9.037996
 30
0.0
 10
1.064754
 20
9.020220
 30
0.0
 10
1.103183
 20
9.011332
 30
0.0
 10
1.145977
 20
9.011332
 30
0.0
  0
SPLINE
  5
105
100
AcDbEntity
  8
Capa_1
 62
7
100
AcDbSpline
 70
8
 71
3
 72
8
 73
4
 74
0
 40
0
 40
0
 40
0
 40
0
 40
1
 40
1
 40
1
 40
1
 10
1.145977
 20
9.011332
 30
0.0
 10
1.202609
 20
9.011332
 30
0.0
 10
1.246893
 20
9.027439
 30
0.0
 10
1.278829
 20
9.059654
 30
0.0
  0
SPLINE
  5
106
100
AcDbEntity
  8
Capa_1
 62
7
100
AcDbSpline
 70
8
 71
3
 72
8
 73
4
 74
0
 40
0
 40
0
 40
0
 40
0
 40
1
 40
1
 40
1
 40
1
 10
1.278829
 20
9.059654
 30
0.0
 10
1.310764
 20
9.092073
 30
0.0
 10
1.326732
 20
9.138069
 30
0.0
 10
1.326732
 20
9.197642
 30
0.0
  0
SPLINE
  5
107
100
AcDbEntity
  8
Capa_1
 62
7
100
AcDbSpline
 70
8
 71
3
 72
8
 73
4
 74
0
 40
0
 40
0
 40
0
 40
0
 40
1
 40
1
 40
1
 40
1
 10
1.326732
 20
9.197642
 30
0.0
 10
1.326732
 20
9.243002
 30
0.0
 10
1.320345
 20
9.285330
 30
0.0
 10
1.307571
 20
9.324628
 30
0.0
  0
SPLINE
  5
108
100
AcDbEntity
  8
Capa_1
 62
7
100
AcDbSpline
 70
8
 71
3
 72
8
 73
4
 74
0
 40
0
 40
0
 40
0
 40
0
 40
1
 40
1
 40
1
 40
1
 10
1.307571
 20
9.324628
 30
0.0
 10
1.294797
 20
9.363926
 30
0.0
 10
1.276381
 20
9.399035
 30
0.0
 10
1.252323
 20
9.429956
 30
0.0
  0
SPLINE
  5
109
100
AcDbEntity
  8
Capa_1
 62
7
100
AcDbSpline
 70
8
 71
3
 72
8
 73
4
 74
0
 40
0
 40
0
 40
0
 40
0
 40
1
 40
1
 40
1
 40
1
 10
1.252323
 20
9.429956
 30
0.0
 10
1.228903
 20
9.459718
 30
0.0
 10
1.199948
 20
9.483488
 30
0.0
 10
1.165458
 20
9.501264
 30
0.0
  0
SPLINE
  5
10a
100
AcDbEntity
  8
Capa_1
 62
7
100
AcDbSpline
 70
8
 71
3
 72
8
 73
4
 74
0
 40
0
 40
0
 40
0
 40
0
 40
1
 40
1
 40
1
 40
1
 10
1.165458
 20
9.501264
 30
0.0
 10
1.130754
 20
9.519244
 30
0.0
 10
1.092751
 20
9.528234
 30
0.0
 10
1.051447
 20
9.528234
 30
0.0
  0
SPLINE
  5
10b
100
AcDbEntity
  8
Capa_1
 62
7
100
AcDbSpline
 70
8
 71
3
 72
8
 73
4
 74
0
 40
0
 40
0
 40
0
 40
0
 40
1
 40
1
 40
1
 40
1
 10
1.051447
 20
9.528234
 30
0.0
 10
0.995028
 20
9.528234
 30
0.0
 10
0.950744
 20
9.512127
 30
0.0
 10
0.918595
 20
9.479912
 30
0.0
  0
SPLINE
  5
10c
100
AcDbEntity
  8
Capa_1
 62
7
100
AcDbSpline
 70
8
 71
3
 72
8
 73
4
 74
0
 40
0
 40
0
 40
0
 40
0
 40
1
 40
1
 40
1
 40
1
 10
0.918595
 20
9.479912
 30
0.0
 10
0.886447
 20
9.447902
 30
0.0
 10
0.870373
 20
9.402015
 30
0.0
 10
0.870373
 20
9.342251
 30
0.0
  0
LWPOLYLINE
  5
10d
100
AcDbEntity
  8
Capa_1
 62
7
100
AcDbPolyline
 90
12
 70
1
 10
1.454794
 20
9.021630
 30
0.0
 10
1.643214
 20
9.021630
 30
0.0
 10
1.632675
 20
9.069952
 30
0.0
 10
1.570400
 20
9.069952
 30
0.0
 10
1.481619
 20
9.469584
 30
0.0
 10
1.543894
 20
9.469584
 30
0.0
 10
1.533355
 20
9.517906
 30
0.0
 10
1.344935
 20
9.517906
 30
0.0
 10
1.355474
 20
9.469584
 30
0.0
 10
1.417748
 20
9.469584
 30
0.0
 10
1.506529
 20
9.069952
 30
0.0
 10
1.444255
 20
9.069952
 30
0.0
  0
SPLINE
  5
10e
100
AcDbEntity
  8
Capa_1
 62
7
100
AcDbSpline
 70
8
 71
3
 72
8
 73
4
 74
0
 40
0
 40
0
 40
0
 40
0
 40
1
 40
1
 40
1
 40
1
 10
0.991409
 20
9.144958
 30
0.0
 10
0.973525
 20
9.170294
 30
0.0
 10
0.960005
 20
9.198524
 30
0.0
 10
0.950851
 20
9.229649
 30
0.0
  0
SPLINE
  5
10f
100
AcDbEntity
  8
Capa_1
 62
7
100
AcDbSpline
 70
8
 71
3
 72
8
 73
4
 74
0
 40
0
 40
0
 40
0
 40
0
 40
1
 40
1
 40
1
 40
1
 10
0.950851
 20
9.229649
 30
0.0
 10
0.941696
 20
9.260978
 30
0.0
 10
0.937118
 20
9.295420
 30
0.0
 10
0.937118
 20
9.332974
 30
0.0
  0
SPLINE
  5
110
100
AcDbEntity
  8
Capa_1
 62
7
100
AcDbSpline
 70
8
 71
3
 72
8
 73
4
 74
0
 40
0
 40
0
 40
0
 40
0
 40
1
 40
1
 40
1
 40
1
 10
0.937118
 20
9.332974
 30
0.0
 10
0.937118
 20
9.378334
 30
0.0
 10
0.948083
 20
9.413106
 30
0.0
 10
0.970012
 20
9.437291
 30
0.0
  0
SPLINE
  5
111
100
AcDbEntity
  8
Capa_1
 62
7
100
AcDbSpline
 70
8
 71
3
 72
8
 73
4
 74
0
 40
0
 40
0
 40
0
 40
0
 40
1
 40
1
 40
1
 40
1
 10
0.970012
 20
9.437291
 30
0.0
 10
0.991728
 20
9.461741
 30
0.0
 10
1.022173
 20
9.473966
 30
0.0
 10
1.061348
 20
9.473966
 30
0.0
  0
SPLINE
  5
112
100
AcDbEntity
  8
Capa_1
 62
7
100
AcDbSpline
 70
8
 71
3
 72
8
 73
4
 74
0
 40
0
 40
0
 40
0
 40
0
 40
1
 40
1
 40
1
 40
1
 10
1.061348
 20
9.473966
 30
0.0
 10
1.091793
 20
9.473966
 30
0.0
 10
1.119258
 20
9.466645
 30
0.0
 10
1.143741
 20
9.452002
 30
0.0
  0
SPLINE
  5
113
100
AcDbEntity
  8
Capa_1
 62
7
100
AcDbSpline
 70
8
 71
3
 72
8
 73
4
 74
0
 40
0
 40
0
 40
0
 40
0
 40
1
 40
1
 40
1
 40
1
 10
1.143741
 20
9.452002
 30
0.0
 10
1.168225
 20
9.437563
 30
0.0
 10
1.189303
 20
9.417914
 30
0.0
 10
1.206974
 20
9.393055
 30
0.0
  0
SPLINE
  5
114
100
AcDbEntity
  8
Capa_1
 62
7
100
AcDbSpline
 70
8
 71
3
 72
8
 73
4
 74
0
 40
0
 40
0
 40
0
 40
0
 40
1
 40
1
 40
1
 40
1
 10
1.206974
 20
9.393055
 30
0.0
 10
1.224007
 20
9.368605
 30
0.0
 10
1.237101
 20
9.340170
 30
0.0
 10
1.246256
 20
9.307751
 30
0.0
  0
SPLINE
  5
115
100
AcDbEntity
  8
Capa_1
 62
7
100
AcDbSpline
 70
8
 71
3
 72
8
 73
4
 74
0
 40
0
 40
0
 40
0
 40
0
 40
1
 40
1
 40
1
 40
1
 10
1.246256
 20
9.307751
 30
0.0
 10
1.255410
 20
9.275536
 30
0.0
 10
1.259988
 20
9.242334
 30
0.0
 10
1.259988
 20
9.208144
 30
0.0
  0
SPLINE
  5
116
100
AcDbEntity
  8
Capa_1
 62
7
100
AcDbSpline
 70
8
 71
3
 72
8
 73
4
 74
0
 40
0
 40
0
 40
0
 40
0
 40
1
 40
1
 40
1
 40
1
 10
1.259988
 20
9.208144
 30
0.0
 10
1.259988
 20
9.162376
 30
0.0
 10
1.249130
 20
9.127158
 30
0.0
 10
1.227414
 20
9.102490
 30
0.0
  0
SPLINE
  5
117
100
AcDbEntity
  8
Capa_1
 62
7
100
AcDbSpline
 70
8
 71
3
 72
8
 73
4
 74
0
 40
0
 40
0
 40
0
 40
0
 40
1
 40
1
 40
1
 40
1
 10
1.227414
 20
9.102490
 30
0.0
 10
1.205485
 20
9.078039
 30
0.0
 10
1.174827
 20
9.065814
 30
0.0
 10
1.135439
 20
9.065814
 30
0.0
  0
SPLINE
  5
118
100
AcDbEntity
  8
Capa_1
 62
7
100
AcDbSpline
 70
8
 71
3
 72
8
 73
4
 74
0
 40
0
 40
0
 40
0
 40
0
 40
1
 40
1
 40
1
 40
1
 10
1.135439
 20
9.065814
 30
0.0
 10
1.105419
 20
9.065814
 30
0.0
 10
1.078168
 20
9.073033
 30
0.0
 10
1.053683
 20
9.087472
 30
0.0
  0
SPLINE
  5
119
100
AcDbEntity
  8
Capa_1
 62
7
100
AcDbSpline
 70
8
 71
3
 72
8
 73
4
 74
0
 40
0
 40
0
 40
0
 40
0
 40
1
 40
1
 40
1
 40
1
 10
1.053683
 20
9.087472
 30
0.0
 10
1.028986
 20
9.101911
 30
0.0
 10
1.008228
 20
9.121117
 30
0.0
 10
0.991409
 20
9.145091
 30
0.0
  0
LWPOLYLINE
  5
11a
100
AcDbEntity
  8
Capa_1
 62
7
100
AcDbPolyline
 90
1
 70
1
 10
0.870373
 20
9.342251
 30
0.0
  0
SPLINE
  5
11b
100
AcDbEntity
  8
Capa_1
 62
7
100
AcDbSpline
 70
8
 71
3
 72
8
 73
4
 74
0
 40
0
 40
0
 40
0
 40
0
 40
1
 40
1
 40
1
 40
1
 10
0.664708
 20
9.011301
 30
0.0
 10
0.711334
 20
9.011301
 30
0.0
 10
0.747527
 20
9.026285
 30
0.0
 10
0.773289
 20
9.056252
 30
0.0
  0
SPLINE
  5
11c
100
AcDbEntity
  8
Capa_1
 62
7
100
AcDbSpline
 70
8
 71
3
 72
8
 73
4
 74
0
 40
0
 40
0
 40
0
 40
0
 40
1
 40
1
 40
1
 40
1
 10
0.773289
 20
9.056252
 30
0.0
 10
0.799050
 20
9.086491
 30
0.0
 10
0.811931
 20
9.127710
 30
0.0
 10
0.811931
 20
9.179907
 30
0.0
  0
SPLINE
  5
11d
100
AcDbEntity
  8
Capa_1
 62
7
100
AcDbSpline
 70
8
 71
3
 72
8
 73
4
 74
0
 40
0
 40
0
 40
0
 40
0
 40
1
 40
1
 40
1
 40
1
 10
0.811931
 20
9.179907
 30
0.0
 10
0.811931
 20
9.227923
 30
0.0
 10
0.805437
 20
9.272587
 30
0.0
 10
0.792450
 20
9.313901
 30
0.0
  0
SPLINE
  5
11e
100
AcDbEntity
  8
Capa_1
 62
7
100
AcDbSpline
 70
8
 71
3
 72
8
 73
4
 74
0
 40
0
 40
0
 40
0
 40
0
 40
1
 40
1
 40
1
 40
1
 10
0.792450
 20
9.313901
 30
0.0
 10
0.779463
 20
9.355446
 30
0.0
 10
0.760408
 20
9.392333
 30
0.0
 10
0.735285
 20
9.424561
 30
0.0
  0
SPLINE
  5
11f
100
AcDbEntity
  8
Capa_1
 62
7
100
AcDbSpline
 70
8
 71
3
 72
8
 73
4
 74
0
 40
0
 40
0
 40
0
 40
0
 40
1
 40
1
 40
1
 40
1
 10
0.735285
 20
9.424561
 30
0.0
 10
0.710589
 20
9.455891
 30
0.0
 10
0.679930
 20
9.480784
 30
0.0
 10
0.643311
 20
9.499241
 30
0.0
  0
SPLINE
  5
120
100
AcDbEntity
  8
Capa_1
 62
7
100
AcDbSpline
 70
8
 71
3
 72
8
 73
4
 74
0
 40
0
 40
0
 40
0
 40
0
 40
1
 40
1
 40
1
 40
1
 10
0.643311
 20
9.499241
 30
0.0
 10
0.606479
 20
9.517902
 30
0.0
 10
0.565282
 20
9.527233
 30
0.0
 10
0.519720
 20
9.527233
 30
0.0
  0
SPLINE
  5
121
100
AcDbEntity
  8
Capa_1
 62
7
100
AcDbSpline
 70
8
 71
3
 72
8
 73
4
 74
0
 40
0
 40
0
 40
0
 40
0
 40
1
 40
1
 40
1
 40
1
 10
0.519720
 20
9.527233
 30
0.0
 10
0.506307
 20
9.527233
 30
0.0
 10
0.495130
 20
9.526552
 30
0.0
 10
0.486188
 20
9.525190
 30
0.0
  0
SPLINE
  5
122
100
AcDbEntity
  8
Capa_1
 62
7
100
AcDbSpline
 70
8
 71
3
 72
8
 73
4
 74
0
 40
0
 40
0
 40
0
 40
0
 40
1
 40
1
 40
1
 40
1
 10
0.486188
 20
9.525190
 30
0.0
 10
0.477246
 20
9.523828
 30
0.0
 10
0.469794
 20
9.522125
 30
0.0
 10
0.463833
 20
9.520082
 30
0.0
  0
LWPOLYLINE
  5
123
100
AcDbEntity
  8
Capa_1
 62
7
100
AcDbPolyline
 90
2
 70
0
 10
0.991409
 20
9.145091
 30
0.0
 10
0.991409
 20
9.144958
 30
0.0
  0
SPLINE
  5
124
100
AcDbEntity
  8
Capa_1
 62
7
100
AcDbSpline
 70
8
 71
3
 72
8
 73
4
 74
0
 40
0
 40
0
 40
0
 40
0
 40
1
 40
1
 40
1
 40
1
 10
0.478204
 20
9.461135
 30
0.0
 10
0.483101
 20
9.463859
 30
0.0
 10
0.491511
 20
9.466584
 30
0.0
 10
0.503434
 20
9.469308
 30
0.0
  0
SPLINE
  5
125
100
AcDbEntity
  8
Capa_1
 62
7
100
AcDbSpline
 70
8
 71
3
 72
8
 73
4
 74
0
 40
0
 40
0
 40
0
 40
0
 40
1
 40
1
 40
1
 40
1
 10
0.503434
 20
9.469308
 30
0.0
 10
0.515143
 20
9.472032
 30
0.0
 10
0.527279
 20
9.473394
 30
0.0
 10
0.539840
 20
9.473394
 30
0.0
  0
SPLINE
  5
126
100
AcDbEntity
  8
Capa_1
 62
7
100
AcDbSpline
 70
8
 71
3
 72
8
 73
4
 74
0
 40
0
 40
0
 40
0
 40
0
 40
1
 40
1
 40
1
 40
1
 10
0.539840
 20
9.473394
 30
0.0
 10
0.585402
 20
9.473394
 30
0.0
 10
0.625960
 20
9.457832
 30
0.0
 10
0.661515
 20
9.426707
 30
0.0
  0
SPLINE
  5
127
100
AcDbEntity
  8
Capa_1
 62
7
100
AcDbSpline
 70
8
 71
3
 72
8
 73
4
 74
0
 40
0
 40
0
 40
0
 40
0
 40
1
 40
1
 40
1
 40
1
 10
0.661515
 20
9.426707
 30
0.0
 10
0.697070
 20
9.395854
 30
0.0
 10
0.721021
 20
9.355634
 30
0.0
 10
0.733370
 20
9.306045
 30
0.0
  0
SPLINE
  5
128
100
AcDbEntity
  8
Capa_1
 62
7
100
AcDbSpline
 70
8
 71
3
 72
8
 73
4
 74
0
 40
0
 40
0
 40
0
 40
0
 40
1
 40
1
 40
1
 40
1
 10
0.733370
 20
9.306045
 30
0.0
 10
0.714847
 20
9.316942
 30
0.0
 10
0.695047
 20
9.325489
 30
0.0
 10
0.673970
 20
9.331687
 30
0.0
  0
SPLINE
  5
129
100
AcDbEntity
  8
Capa_1
 62
7
100
AcDbSpline
 70
8
 71
3
 72
8
 73
4
 74
0
 40
0
 40
0
 40
0
 40
0
 40
1
 40
1
 40
1
 40
1
 10
0.673970
 20
9.331687
 30
0.0
 10
0.652892
 20
9.337817
 30
0.0
 10
0.631921
 20
9.340882
 30
0.0
 10
0.611057
 20
9.340882
 30
0.0
  0
SPLINE
  5
12a
100
AcDbEntity
  8
Capa_1
 62
7
100
AcDbSpline
 70
8
 71
3
 72
8
 73
4
 74
0
 40
0
 40
0
 40
0
 40
0
 40
1
 40
1
 40
1
 40
1
 10
0.611057
 20
9.340882
 30
0.0
 10
0.591469
 20
9.340882
 30
0.0
 10
0.573692
 20
9.338157
 30
0.0
 10
0.557724
 20
9.332709
 30
0.0
  0
SPLINE
  5
12b
100
AcDbEntity
  8
Capa_1
 62
7
100
AcDbSpline
 70
8
 71
3
 72
8
 73
4
 74
0
 40
0
 40
0
 40
0
 40
0
 40
1
 40
1
 40
1
 40
1
 10
0.557724
 20
9.332709
 30
0.0
 10
0.541543
 20
9.327941
 30
0.0
 10
0.527066
 20
9.319837
 30
0.0
 10
0.514292
 20
9.308395
 30
0.0
  0
SPLINE
  5
12c
100
AcDbEntity
  8
Capa_1
 62
7
100
AcDbSpline
 70
8
 71
3
 72
8
 73
4
 74
0
 40
0
 40
0
 40
0
 40
0
 40
1
 40
1
 40
1
 40
1
 10
0.514292
 20
9.308395
 30
0.0
 10
0.500666
 20
9.296408
 30
0.0
 10
0.490553
 20
9.282173
 30
0.0
 10
0.483953
 20
9.265691
 30
0.0
  0
SPLINE
  5
12d
100
AcDbEntity
  8
Capa_1
 62
7
100
AcDbSpline
 70
8
 71
3
 72
8
 73
4
 74
0
 40
0
 40
0
 40
0
 40
0
 40
1
 40
1
 40
1
 40
1
 10
0.483953
 20
9.265691
 30
0.0
 10
0.477353
 20
9.249210
 30
0.0
 10
0.474053
 20
9.230310
 30
0.0
 10
0.474053
 20
9.208992
 30
0.0
  0
SPLINE
  5
12e
100
AcDbEntity
  8
Capa_1
 62
7
100
AcDbSpline
 70
8
 71
3
 72
8
 73
4
 74
0
 40
0
 40
0
 40
0
 40
0
 40
1
 40
1
 40
1
 40
1
 10
0.474053
 20
9.208992
 30
0.0
 10
0.474053
 20
9.154302
 30
0.0
 10
0.492150
 20
9.107751
 30
0.0
 10
0.528343
 20
9.069339
 30
0.0
  0
SPLINE
  5
12f
100
AcDbEntity
  8
Capa_1
 62
7
100
AcDbSpline
 70
8
 71
3
 72
8
 73
4
 74
0
 40
0
 40
0
 40
0
 40
0
 40
1
 40
1
 40
1
 40
1
 10
0.528343
 20
9.069339
 30
0.0
 10
0.564324
 20
9.030926
 30
0.0
 10
0.609779
 20
9.011720
 30
0.0
 10
0.664708
 20
9.011720
 30
0.0
  0
LWPOLYLINE
  5
130
100
AcDbEntity
  8
Capa_1
 62
7
100
AcDbPolyline
 90
3
 70
0
 10
0.463833
 20
9.520082
 30
0.0
 10
0.475010
 20
9.461135
 30
0.0
 10
0.478204
 20
9.461135
 30
0.0
  0
SPLINE
  5
131
100
AcDbEntity
  8
Capa_1
 62
7
100
AcDbSpline
 70
8
 71
3
 72
8
 73
4
 74
0
 40
0
 40
0
 40
0
 40
0
 40
1
 40
1
 40
1
 40
1
 10
0.540478
 20
9.201289
 30
0.0
 10
0.540478
 20
9.229281
 30
0.0
 10
0.548356
 20
9.250599
 30
0.0
 10
0.564111
 20
9.265242
 30
0.0
  0
SPLINE
  5
132
100
AcDbEntity
  8
Capa_1
 62
7
100
AcDbSpline
 70
8
 71
3
 72
8
 73
4
 74
0
 40
0
 40
0
 40
0
 40
0
 40
1
 40
1
 40
1
 40
1
 10
0.564111
 20
9.265242
 30
0.0
 10
0.579865
 20
9.280157
 30
0.0
 10
0.603391
 20
9.287615
 30
0.0
 10
0.634688
 20
9.287615
 30
0.0
  0
SPLINE
  5
133
100
AcDbEntity
  8
Capa_1
 62
7
100
AcDbSpline
 70
8
 71
3
 72
8
 73
4
 74
0
 40
0
 40
0
 40
0
 40
0
 40
1
 40
1
 40
1
 40
1
 10
0.634688
 20
9.287615
 30
0.0
 10
0.650869
 20
9.287615
 30
0.0
 10
0.668221
 20
9.284891
 30
0.0
 10
0.686743
 20
9.279442
 30
0.0
  0
SPLINE
  5
134
100
AcDbEntity
  8
Capa_1
 62
7
100
AcDbSpline
 70
8
 71
3
 72
8
 73
4
 74
0
 40
0
 40
0
 40
0
 40
0
 40
1
 40
1
 40
1
 40
1
 10
0.686743
 20
9.279442
 30
0.0
 10
0.705053
 20
9.273994
 30
0.0
 10
0.723150
 20
9.266536
 30
0.0
 10
0.741034
 20
9.257069
 30
0.0
  0
SPLINE
  5
135
100
AcDbEntity
  8
Capa_1
 62
7
100
AcDbSpline
 70
8
 71
3
 72
8
 73
4
 74
0
 40
0
 40
0
 40
0
 40
0
 40
1
 40
1
 40
1
 40
1
 10
0.741034
 20
9.257069
 30
0.0
 10
0.743163
 20
9.247534
 30
0.0
 10
0.744973
 20
9.235309
 30
0.0
 10
0.746462
 20
9.220393
 30
0.0
  0
SPLINE
  5
136
100
AcDbEntity
  8
Capa_1
 62
7
100
AcDbSpline
 70
8
 71
3
 72
8
 73
4
 74
0
 40
0
 40
0
 40
0
 40
0
 40
1
 40
1
 40
1
 40
1
 10
0.746462
 20
9.220393
 30
0.0
 10
0.747740
 20
9.205750
 30
0.0
 10
0.748379
 20
9.191414
 30
0.0
 10
0.748379
 20
9.177384
 30
0.0
  0
SPLINE
  5
137
100
AcDbEntity
  8
Capa_1
 62
7
100
AcDbSpline
 70
8
 71
3
 72
8
 73
4
 74
0
 40
0
 40
0
 40
0
 40
0
 40
1
 40
1
 40
1
 40
1
 10
0.748379
 20
9.177384
 30
0.0
 10
0.748379
 20
9.155862
 30
0.0
 10
0.745718
 20
9.137745
 30
0.0
 10
0.740396
 20
9.123034
 30
0.0
  0
SPLINE
  5
138
100
AcDbEntity
  8
Capa_1
 62
7
100
AcDbSpline
 70
8
 71
3
 72
8
 73
4
 74
0
 40
0
 40
0
 40
0
 40
0
 40
1
 40
1
 40
1
 40
1
 10
0.740396
 20
9.123034
 30
0.0
 10
0.734860
 20
9.108391
 30
0.0
 10
0.728153
 20
9.096847
 30
0.0
 10
0.720276
 20
9.088402
 30
0.0
  0
SPLINE
  5
139
100
AcDbEntity
  8
Capa_1
 62
7
100
AcDbSpline
 70
8
 71
3
 72
8
 73
4
 74
0
 40
0
 40
0
 40
0
 40
0
 40
1
 40
1
 40
1
 40
1
 10
0.720276
 20
9.088402
 30
0.0
 10
0.711760
 20
9.079275
 30
0.0
 10
0.702073
 20
9.072737
 30
0.0
 10
0.691215
 20
9.068787
 30
0.0
  0
SPLINE
  5
13a
100
AcDbEntity
  8
Capa_1
 62
7
100
AcDbSpline
 70
8
 71
3
 72
8
 73
4
 74
0
 40
0
 40
0
 40
0
 40
0
 40
1
 40
1
 40
1
 40
1
 10
0.691215
 20
9.068787
 30
0.0
 10
0.680144
 20
9.064701
 30
0.0
 10
0.668753
 20
9.062657
 30
0.0
 10
0.657044
 20
9.062657
 30
0.0
  0
SPLINE
  5
13b
100
AcDbEntity
  8
Capa_1
 62
7
100
AcDbSpline
 70
8
 71
3
 72
8
 73
4
 74
0
 40
0
 40
0
 40
0
 40
0
 40
1
 40
1
 40
1
 40
1
 10
0.657044
 20
9.062657
 30
0.0
 10
0.622553
 20
9.062657
 30
0.0
 10
0.594556
 20
9.075325
 30
0.0
 10
0.573053
 20
9.100661
 30
0.0
  0
SPLINE
  5
13c
100
AcDbEntity
  8
Capa_1
 62
7
100
AcDbSpline
 70
8
 71
3
 72
8
 73
4
 74
0
 40
0
 40
0
 40
0
 40
0
 40
1
 40
1
 40
1
 40
1
 10
0.573053
 20
9.100661
 30
0.0
 10
0.551337
 20
9.125997
 30
0.0
 10
0.540479
 20
9.159335
 30
0.0
 10
0.540479
 20
9.200676
 30
0.0
  0
LWPOLYLINE
  5
13d
100
AcDbEntity
  8
Capa_1
 62
7
100
AcDbPolyline
 90
2
 70
0
 10
0.664708
 20
9.011720
 30
0.0
 10
0.664708
 20
9.011301
 30
0.0
  0
LWPOLYLINE
  5
13e
100
AcDbEntity
  8
Capa_1
 62
7
100
AcDbPolyline
 90
2
 70
0
 10
0.540479
 20
9.200676
 30
0.0
 10
0.540478
 20
9.201289
 30
0.0
  0
SPLINE
  5
13f
100
AcDbEntity
  8
Capa_1
 62
7
100
AcDbSpline
 70
8
 71
3
 72
8
 73
4
 74
0
 40
0
 40
0
 40
0
 40
0
 40
1
 40
1
 40
1
 40
1
 10
0.870373
 20
7.635749
 30
0.0
 10
0.870373
 20
7.592637
 30
0.0
 10
0.876654
 20
7.551085
 30
0.0
 10
0.889215
 20
7.511093
 30
0.0
  0
SPLINE
  5
140
100
AcDbEntity
  8
Capa_1
 62
7
100
AcDbSpline
 70
8
 71
3
 72
8
 73
4
 74
0
 40
0
 40
0
 40
0
 40
0
 40
1
 40
1
 40
1
 40
1
 10
0.889215
 20
7.511093
 30
0.0
 10
0.901563
 20
7.471114
 30
0.0
 10
0.919554
 20
7.435896
 30
0.0
 10
0.943186
 20
7.405438
 30
0.0
  0
SPLINE
  5
141
100
AcDbEntity
  8
Capa_1
 62
7
100
AcDbSpline
 70
8
 71
3
 72
8
 73
4
 74
0
 40
0
 40
0
 40
0
 40
0
 40
1
 40
1
 40
1
 40
1
 10
0.943186
 20
7.405438
 30
0.0
 10
0.967457
 20
7.374109
 30
0.0
 10
0.996625
 20
7.349454
 30
0.0
 10
1.030690
 20
7.331474
 30
0.0
  0
SPLINE
  5
142
100
AcDbEntity
  8
Capa_1
 62
7
100
AcDbSpline
 70
8
 71
3
 72
8
 73
4
 74
0
 40
0
 40
0
 40
0
 40
0
 40
1
 40
1
 40
1
 40
1
 10
1.030690
 20
7.331474
 30
0.0
 10
1.064754
 20
7.313698
 30
0.0
 10
1.103183
 20
7.304810
 30
0.0
 10
1.145977
 20
7.304810
 30
0.0
  0
SPLINE
  5
143
100
AcDbEntity
  8
Capa_1
 62
7
100
AcDbSpline
 70
8
 71
3
 72
8
 73
4
 74
0
 40
0
 40
0
 40
0
 40
0
 40
1
 40
1
 40
1
 40
1
 10
1.145977
 20
7.304810
 30
0.0
 10
1.202609
 20
7.304810
 30
0.0
 10
1.246893
 20
7.320917
 30
0.0
 10
1.278829
 20
7.353132
 30
0.0
  0
SPLINE
  5
144
100
AcDbEntity
  8
Capa_1
 62
7
100
AcDbSpline
 70
8
 71
3
 72
8
 73
4
 74
0
 40
0
 40
0
 40
0
 40
0
 40
1
 40
1
 40
1
 40
1
 10
1.278829
 20
7.353132
 30
0.0
 10
1.310764
 20
7.385551
 30
0.0
 10
1.326732
 20
7.431547
 30
0.0
 10
1.326732
 20
7.491120
 30
0.0
  0
SPLINE
  5
145
100
AcDbEntity
  8
Capa_1
 62
7
100
AcDbSpline
 70
8
 71
3
 72
8
 73
4
 74
0
 40
0
 40
0
 40
0
 40
0
 40
1
 40
1
 40
1
 40
1
 10
1.326732
 20
7.491120
 30
0.0
 10
1.326732
 20
7.536480
 30
0.0
 10
1.320345
 20
7.578808
 30
0.0
 10
1.307571
 20
7.618106
 30
0.0
  0
SPLINE
  5
146
100
AcDbEntity
  8
Capa_1
 62
7
100
AcDbSpline
 70
8
 71
3
 72
8
 73
4
 74
0
 40
0
 40
0
 40
0
 40
0
 40
1
 40
1
 40
1
 40
1
 10
1.307571
 20
7.618106
 30
0.0
 10
1.294797
 20
7.657404
 30
0.0
 10
1.276381
 20
7.692513
 30
0.0
 10
1.252323
 20
7.723434
 30
0.0
  0
SPLINE
  5
147
100
AcDbEntity
  8
Capa_1
 62
7
100
AcDbSpline
 70
8
 71
3
 72
8
 73
4
 74
0
 40
0
 40
0
 40
0
 40
0
 40
1
 40
1
 40
1
 40
1
 10
1.252323
 20
7.723434
 30
0.0
 10
1.228903
 20
7.753196
 30
0.0
 10
1.199948
 20
7.776966
 30
0.0
 10
1.165458
 20
7.794742
 30
0.0
  0
SPLINE
  5
148
100
AcDbEntity
  8
Capa_1
 62
7
100
AcDbSpline
 70
8
 71
3
 72
8
 73
4
 74
0
 40
0
 40
0
 40
0
 40
0
 40
1
 40
1
 40
1
 40
1
 10
1.165458
 20
7.794742
 30
0.0
 10
1.130754
 20
7.812722
 30
0.0
 10
1.092751
 20
7.821712
 30
0.0
 10
1.051447
 20
7.821712
 30
0.0
  0
SPLINE
  5
149
100
AcDbEntity
  8
Capa_1
 62
7
100
AcDbSpline
 70
8
 71
3
 72
8
 73
4
 74
0
 40
0
 40
0
 40
0
 40
0
 40
1
 40
1
 40
1
 40
1
 10
1.051447
 20
7.821712
 30
0.0
 10
0.995028
 20
7.821712
 30
0.0
 10
0.950744
 20
7.805605
 30
0.0
 10
0.918595
 20
7.773390
 30
0.0
  0
SPLINE
  5
14a
100
AcDbEntity
  8
Capa_1
 62
7
100
AcDbSpline
 70
8
 71
3
 72
8
 73
4
 74
0
 40
0
 40
0
 40
0
 40
0
 40
1
 40
1
 40
1
 40
1
 10
0.918595
 20
7.773390
 30
0.0
 10
0.886447
 20
7.741380
 30
0.0
 10
0.870373
 20
7.695496
 30
0.0
 10
0.870373
 20
7.635739
 30
0.0
  0
LWPOLYLINE
  5
14b
100
AcDbEntity
  8
Capa_1
 62
7
100
AcDbPolyline
 90
12
 70
1
 10
1.454794
 20
7.315108
 30
0.0
 10
1.643214
 20
7.315108
 30
0.0
 10
1.632675
 20
7.363430
 30
0.0
 10
1.570400
 20
7.363430
 30
0.0
 10
1.481619
 20
7.763062
 30
0.0
 10
1.543894
 20
7.763062
 30
0.0
 10
1.533355
 20
7.811384
 30
0.0
 10
1.344935
 20
7.811384
 30
0.0
 10
1.355474
 20
7.763062
 30
0.0
 10
1.417748
 20
7.763062
 30
0.0
 10
1.506529
 20
7.363430
 30
0.0
 10
1.444255
 20
7.363430
 30
0.0
  0
SPLINE
  5
14c
100
AcDbEntity
  8
Capa_1
 62
7
100
AcDbSpline
 70
8
 71
3
 72
8
 73
4
 74
0
 40
0
 40
0
 40
0
 40
0
 40
1
 40
1
 40
1
 40
1
 10
0.991409
 20
7.438436
 30
0.0
 10
0.973525
 20
7.463772
 30
0.0
 10
0.960005
 20
7.492002
 30
0.0
 10
0.950851
 20
7.523127
 30
0.0
  0
SPLINE
  5
14d
100
AcDbEntity
  8
Capa_1
 62
7
100
AcDbSpline
 70
8
 71
3
 72
8
 73
4
 74
0
 40
0
 40
0
 40
0
 40
0
 40
1
 40
1
 40
1
 40
1
 10
0.950851
 20
7.523127
 30
0.0
 10
0.941696
 20
7.554456
 30
0.0
 10
0.937118
 20
7.588898
 30
0.0
 10
0.937118
 20
7.626452
 30
0.0
  0
SPLINE
  5
14e
100
AcDbEntity
  8
Capa_1
 62
7
100
AcDbSpline
 70
8
 71
3
 72
8
 73
4
 74
0
 40
0
 40
0
 40
0
 40
0
 40
1
 40
1
 40
1
 40
1
 10
0.937118
 20
7.626452
 30
0.0
 10
0.937118
 20
7.671812
 30
0.0
 10
0.948083
 20
7.706584
 30
0.0
 10
0.970012
 20
7.730769
 30
0.0
  0
SPLINE
  5
14f
100
AcDbEntity
  8
Capa_1
 62
7
100
AcDbSpline
 70
8
 71
3
 72
8
 73
4
 74
0
 40
0
 40
0
 40
0
 40
0
 40
1
 40
1
 40
1
 40
1
 10
0.970012
 20
7.730769
 30
0.0
 10
0.991728
 20
7.755219
 30
0.0
 10
1.022173
 20
7.767444
 30
0.0
 10
1.061348
 20
7.767444
 30
0.0
  0
SPLINE
  5
150
100
AcDbEntity
  8
Capa_1
 62
7
100
AcDbSpline
 70
8
 71
3
 72
8
 73
4
 74
0
 40
0
 40
0
 40
0
 40
0
 40
1
 40
1
 40
1
 40
1
 10
1.061348
 20
7.767444
 30
0.0
 10
1.091793
 20
7.767444
 30
0.0
 10
1.119258
 20
7.760123
 30
0.0
 10
1.143741
 20
7.745480
 30
0.0
  0
SPLINE
  5
151
100
AcDbEntity
  8
Capa_1
 62
7
100
AcDbSpline
 70
8
 71
3
 72
8
 73
4
 74
0
 40
0
 40
0
 40
0
 40
0
 40
1
 40
1
 40
1
 40
1
 10
1.143741
 20
7.745480
 30
0.0
 10
1.168225
 20
7.731041
 30
0.0
 10
1.189303
 20
7.711392
 30
0.0
 10
1.206974
 20
7.686533
 30
0.0
  0
SPLINE
  5
152
100
AcDbEntity
  8
Capa_1
 62
7
100
AcDbSpline
 70
8
 71
3
 72
8
 73
4
 74
0
 40
0
 40
0
 40
0
 40
0
 40
1
 40
1
 40
1
 40
1
 10
1.206974
 20
7.686533
 30
0.0
 10
1.224007
 20
7.662083
 30
0.0
 10
1.237101
 20
7.633648
 30
0.0
 10
1.246256
 20
7.601229
 30
0.0
  0
SPLINE
  5
153
100
AcDbEntity
  8
Capa_1
 62
7
100
AcDbSpline
 70
8
 71
3
 72
8
 73
4
 74
0
 40
0
 40
0
 40
0
 40
0
 40
1
 40
1
 40
1
 40
1
 10
1.246256
 20
7.601229
 30
0.0
 10
1.255410
 20
7.569014
 30
0.0
 10
1.259988
 20
7.535812
 30
0.0
 10
1.259988
 20
7.501622
 30
0.0
  0
SPLINE
  5
154
100
AcDbEntity
  8
Capa_1
 62
7
100
AcDbSpline
 70
8
 71
3
 72
8
 73
4
 74
0
 40
0
 40
0
 40
0
 40
0
 40
1
 40
1
 40
1
 40
1
 10
1.259988
 20
7.501622
 30
0.0
 10
1.259988
 20
7.455854
 30
0.0
 10
1.249130
 20
7.420636
 30
0.0
 10
1.227414
 20
7.395968
 30
0.0
  0
SPLINE
  5
155
100
AcDbEntity
  8
Capa_1
 62
7
100
AcDbSpline
 70
8
 71
3
 72
8
 73
4
 74
0
 40
0
 40
0
 40
0
 40
0
 40
1
 40
1
 40
1
 40
1
 10
1.227414
 20
7.395968
 30
0.0
 10
1.205485
 20
7.371517
 30
0.0
 10
1.174827
 20
7.359292
 30
0.0
 10
1.135439
 20
7.359292
 30
0.0
  0
SPLINE
  5
156
100
AcDbEntity
  8
Capa_1
 62
7
100
AcDbSpline
 70
8
 71
3
 72
8
 73
4
 74
0
 40
0
 40
0
 40
0
 40
0
 40
1
 40
1
 40
1
 40
1
 10
1.135439
 20
7.359292
 30
0.0
 10
1.105419
 20
7.359292
 30
0.0
 10
1.078168
 20
7.366512
 30
0.0
 10
1.053683
 20
7.380950
 30
0.0
  0
SPLINE
  5
157
100
AcDbEntity
  8
Capa_1
 62
7
100
AcDbSpline
 70
8
 71
3
 72
8
 73
4
 74
0
 40
0
 40
0
 40
0
 40
0
 40
1
 40
1
 40
1
 40
1
 10
1.053683
 20
7.380950
 30
0.0
 10
1.028986
 20
7.395389
 30
0.0
 10
1.008228
 20
7.414595
 30
0.0
 10
0.991409
 20
7.438569
 30
0.0
  0
LWPOLYLINE
  5
158
100
AcDbEntity
  8
Capa_1
 62
7
100
AcDbPolyline
 90
1
 70
1
 10
0.870373
 20
7.635739
 30
0.0
  0
LWPOLYLINE
  5
159
100
AcDbEntity
  8
Capa_1
 62
7
100
AcDbPolyline
 90
2
 70
0
 10
0.991409
 20
7.438569
 30
0.0
 10
0.991409
 20
7.438436
 30
0.0
  0
LWPOLYLINE
  5
15a
100
AcDbEntity
  8
Capa_1
 62
7
100
AcDbPolyline
 90
7
 70
1
 10
0.429023
 20
7.737072
 30
0.0
 10
0.734327
 20
7.315108
 30
0.0
 10
0.806821
 20
7.315108
 30
0.0
 10
0.482036
 20
7.755410
 30
0.0
 10
0.752850
 20
7.755410
 30
0.0
 10
0.740714
 20
7.811394
 30
0.0
 10
0.412736
 20
7.811394
 30
0.0
  0
LWPOLYLINE
  5
15b
100
AcDbEntity
  8
Capa_1
 62
7
100
AcDbPolyline
 90
8
 70
1
 10
1.242742
 20
5.608586
 30
0.0
 10
1.306933
 20
5.608586
 30
0.0
 10
1.322901
 20
5.748239
 30
0.0
 10
1.527927
 20
5.748239
 30
0.0
 10
1.605850
 20
5.608586
 30
0.0
 10
1.672595
 20
5.608586
 30
0.0
 10
1.389646
 20
6.104882
 30
0.0
 10
1.305975
 20
6.104882
 30
0.0
  0
SPLINE
  5
15c
100
AcDbEntity
  8
Capa_1
 62
7
100
AcDbSpline
 70
8
 71
3
 72
8
 73
4
 74
0
 40
0
 40
0
 40
0
 40
0
 40
1
 40
1
 40
1
 40
1
 10
0.713250
 20
5.914567
 30
0.0
 10
0.713250
 20
5.860354
 30
0.0
 10
0.726450
 20
5.809021
 30
0.0
 10
0.752850
 20
5.760570
 30
0.0
  0
SPLINE
  5
15d
100
AcDbEntity
  8
Capa_1
 62
7
100
AcDbSpline
 70
8
 71
3
 72
8
 73
4
 74
0
 40
0
 40
0
 40
0
 40
0
 40
1
 40
1
 40
1
 40
1
 10
0.752850
 20
5.760570
 30
0.0
 10
0.779250
 20
5.712146
 30
0.0
 10
0.815337
 20
5.674707
 30
0.0
 10
0.861112
 20
5.648255
 30
0.0
  0
SPLINE
  5
15e
100
AcDbEntity
  8
Capa_1
 62
7
100
AcDbSpline
 70
8
 71
3
 72
8
 73
4
 74
0
 40
0
 40
0
 40
0
 40
0
 40
1
 40
1
 40
1
 40
1
 10
0.861112
 20
5.648255
 30
0.0
 10
0.889215
 20
5.632454
 30
0.0
 10
0.917957
 20
5.621897
 30
0.0
 10
0.947338
 20
5.616585
 30
0.0
  0
SPLINE
  5
15f
100
AcDbEntity
  8
Capa_1
 62
7
100
AcDbSpline
 70
8
 71
3
 72
8
 73
4
 74
0
 40
0
 40
0
 40
0
 40
0
 40
1
 40
1
 40
1
 40
1
 10
0.947338
 20
5.616585
 30
0.0
 10
0.976718
 20
5.611136
 30
0.0
 10
1.010038
 20
5.608412
 30
0.0
 10
1.047296
 20
5.608412
 30
0.0
  0
LWPOLYLINE
  5
160
100
AcDbEntity
  8
Capa_1
 62
7
100
AcDbPolyline
 90
3
 70
1
 10
1.329926
 20
5.802241
 30
0.0
 10
1.359626
 20
6.047223
 30
0.0
 10
1.497588
 20
5.802241
 30
0.0
  0
SPLINE
  5
161
100
AcDbEntity
  8
Capa_1
 62
7
100
AcDbSpline
 70
8
 71
3
 72
8
 73
4
 74
0
 40
0
 40
0
 40
0
 40
0
 40
1
 40
1
 40
1
 40
1
 10
0.955321
 20
6.104708
 30
0.0
 10
0.920831
 20
6.104708
 30
0.0
 10
0.889428
 20
6.101984
 30
0.0
 10
0.861112
 20
6.096536
 30
0.0
  0
SPLINE
  5
162
100
AcDbEntity
  8
Capa_1
 62
7
100
AcDbSpline
 70
8
 71
3
 72
8
 73
4
 74
0
 40
0
 40
0
 40
0
 40
0
 40
1
 40
1
 40
1
 40
1
 10
0.861112
 20
6.096536
 30
0.0
 10
0.832582
 20
6.091768
 30
0.0
 10
0.806502
 20
6.081109
 30
0.0
 10
0.782869
 20
6.064559
 30
0.0
  0
SPLINE
  5
163
100
AcDbEntity
  8
Capa_1
 62
7
100
AcDbSpline
 70
8
 71
3
 72
8
 73
4
 74
0
 40
0
 40
0
 40
0
 40
0
 40
1
 40
1
 40
1
 40
1
 10
0.782869
 20
6.064559
 30
0.0
 10
0.760302
 20
6.048758
 30
0.0
 10
0.743056
 20
6.028088
 30
0.0
 10
0.731134
 20
6.002548
 30
0.0
  0
SPLINE
  5
164
100
AcDbEntity
  8
Capa_1
 62
7
100
AcDbSpline
 70
8
 71
3
 72
8
 73
4
 74
0
 40
0
 40
0
 40
0
 40
0
 40
1
 40
1
 40
1
 40
1
 10
0.731134
 20
6.002548
 30
0.0
 10
0.719211
 20
5.977212
 30
0.0
 10
0.713250
 20
5.947653
 30
0.0
 10
0.713250
 20
5.913872
 30
0.0
  0
LWPOLYLINE
  5
165
100
AcDbEntity
  8
Capa_1
 62
7
100
AcDbPolyline
 90
4
 70
0
 10
1.047296
 20
5.608412
 30
0.0
 10
1.175677
 20
5.608412
 30
0.0
 10
1.065819
 20
6.104708
 30
0.0
 10
0.955321
 20
6.104708
 30
0.0
  0
SPLINE
  5
166
100
AcDbEntity
  8
Capa_1
 62
7
100
AcDbSpline
 70
8
 71
3
 72
8
 73
4
 74
0
 40
0
 40
0
 40
0
 40
0
 40
1
 40
1
 40
1
 40
1
 10
0.779995
 20
5.908437
 30
0.0
 10
0.779995
 20
5.933773
 30
0.0
 10
0.784360
 20
5.955533
 30
0.0
 10
0.793089
 20
5.973718
 30
0.0
  0
SPLINE
  5
167
100
AcDbEntity
  8
Capa_1
 62
7
100
AcDbSpline
 70
8
 71
3
 72
8
 73
4
 74
0
 40
0
 40
0
 40
0
 40
0
 40
1
 40
1
 40
1
 40
1
 10
0.793089
 20
5.973718
 30
0.0
 10
0.801605
 20
5.992175
 30
0.0
 10
0.814592
 20
6.007499
 30
0.0
 10
0.832050
 20
6.019690
 30
0.0
  0
SPLINE
  5
168
100
AcDbEntity
  8
Capa_1
 62
7
100
AcDbSpline
 70
8
 71
3
 72
8
 73
4
 74
0
 40
0
 40
0
 40
0
 40
0
 40
1
 40
1
 40
1
 40
1
 10
0.832050
 20
6.019690
 30
0.0
 10
0.849295
 20
6.031677
 30
0.0
 10
0.867712
 20
6.039680
 30
0.0
 10
0.887299
 20
6.043698
 30
0.0
  0
SPLINE
  5
169
100
AcDbEntity
  8
Capa_1
 62
7
100
AcDbSpline
 70
8
 71
3
 72
8
 73
4
 74
0
 40
0
 40
0
 40
0
 40
0
 40
1
 40
1
 40
1
 40
1
 10
0.887299
 20
6.043698
 30
0.0
 10
0.906886
 20
6.047785
 30
0.0
 10
0.931689
 20
6.049828
 30
0.0
 10
0.961709
 20
6.049828
 30
0.0
  0
LWPOLYLINE
  5
16a
100
AcDbEntity
  8
Capa_1
 62
7
100
AcDbPolyline
 90
2
 70
0
 10
0.713250
 20
5.913872
 30
0.0
 10
0.713250
 20
5.914567
 30
0.0
  0
SPLINE
  5
16b
100
AcDbEntity
  8
Capa_1
 62
7
100
AcDbSpline
 70
8
 71
3
 72
8
 73
4
 74
0
 40
0
 40
0
 40
0
 40
0
 40
1
 40
1
 40
1
 40
1
 10
1.034522
 20
5.662189
 30
0.0
 10
1.004076
 20
5.662189
 30
0.0
 10
0.976931
 20
5.664914
 30
0.0
 10
0.953086
 20
5.670362
 30
0.0
  0
SPLINE
  5
16c
100
AcDbEntity
  8
Capa_1
 62
7
100
AcDbSpline
 70
8
 71
3
 72
8
 73
4
 74
0
 40
0
 40
0
 40
0
 40
0
 40
1
 40
1
 40
1
 40
1
 10
0.953086
 20
5.670362
 30
0.0
 10
0.929028
 20
5.675811
 30
0.0
 10
0.906354
 20
5.684801
 30
0.0
 10
0.885063
 20
5.697333
 30
0.0
  0
SPLINE
  5
16d
100
AcDbEntity
  8
Capa_1
 62
7
100
AcDbSpline
 70
8
 71
3
 72
8
 73
4
 74
0
 40
0
 40
0
 40
0
 40
0
 40
1
 40
1
 40
1
 40
1
 10
0.885063
 20
5.697333
 30
0.0
 10
0.850786
 20
5.717765
 30
0.0
 10
0.824705
 20
5.747221
 30
0.0
 10
0.806821
 20
5.785702
 30
0.0
  0
SPLINE
  5
16e
100
AcDbEntity
  8
Capa_1
 62
7
100
AcDbSpline
 70
8
 71
3
 72
8
 73
4
 74
0
 40
0
 40
0
 40
0
 40
0
 40
1
 40
1
 40
1
 40
1
 10
0.806821
 20
5.785702
 30
0.0
 10
0.788937
 20
5.824386
 30
0.0
 10
0.779995
 20
5.865383
 30
0.0
 10
0.779995
 20
5.908693
 30
0.0
  0
LWPOLYLINE
  5
16f
100
AcDbEntity
  8
Capa_1
 62
7
100
AcDbPolyline
 90
4
 70
0
 10
0.961709
 20
6.049828
 30
0.0
 10
1.014402
 20
6.049828
 30
0.0
 10
1.100628
 20
5.662189
 30
0.0
 10
1.034522
 20
5.662189
 30
0.0
  0
SPLINE
  5
170
100
AcDbEntity
  8
Capa_1
 62
7
100
AcDbSpline
 70
8
 71
3
 72
8
 73
4
 74
0
 40
0
 40
0
 40
0
 40
0
 40
1
 40
1
 40
1
 40
1
 10
0.296490
 20
5.969223
 30
0.0
 10
0.296490
 20
5.925226
 30
0.0
 10
0.304368
 20
5.873454
 30
0.0
 10
0.320123
 20
5.813908
 30
0.0
  0
SPLINE
  5
171
100
AcDbEntity
  8
Capa_1
 62
7
100
AcDbSpline
 70
8
 71
3
 72
8
 73
4
 74
0
 40
0
 40
0
 40
0
 40
0
 40
1
 40
1
 40
1
 40
1
 10
0.320123
 20
5.813908
 30
0.0
 10
0.335665
 20
5.754383
 30
0.0
 10
0.355039
 20
5.708608
 30
0.0
 10
0.378246
 20
5.676584
 30
0.0
  0
SPLINE
  5
172
100
AcDbEntity
  8
Capa_1
 62
7
100
AcDbSpline
 70
8
 71
3
 72
8
 73
4
 74
0
 40
0
 40
0
 40
0
 40
0
 40
1
 40
1
 40
1
 40
1
 10
0.378246
 20
5.676584
 30
0.0
 10
0.398046
 20
5.649682
 30
0.0
 10
0.419975
 20
5.629896
 30
0.0
 10
0.444033
 20
5.617228
 30
0.0
  0
SPLINE
  5
173
100
AcDbEntity
  8
Capa_1
 62
7
100
AcDbSpline
 70
8
 71
3
 72
8
 73
4
 74
0
 40
0
 40
0
 40
0
 40
0
 40
1
 40
1
 40
1
 40
1
 10
0.444033
 20
5.617228
 30
0.0
 10
0.467878
 20
5.604561
 30
0.0
 10
0.495556
 20
5.598227
 30
0.0
 10
0.527065
 20
5.598227
 30
0.0
  0
SPLINE
  5
174
100
AcDbEntity
  8
Capa_1
 62
7
100
AcDbSpline
 70
8
 71
3
 72
8
 73
4
 74
0
 40
0
 40
0
 40
0
 40
0
 40
1
 40
1
 40
1
 40
1
 10
0.527065
 20
5.598227
 30
0.0
 10
0.570285
 20
5.598227
 30
0.0
 10
0.602433
 20
5.610213
 30
0.0
 10
0.623511
 20
5.634187
 30
0.0
  0
SPLINE
  5
175
100
AcDbEntity
  8
Capa_1
 62
7
100
AcDbSpline
 70
8
 71
3
 72
8
 73
4
 74
0
 40
0
 40
0
 40
0
 40
0
 40
1
 40
1
 40
1
 40
1
 10
0.623511
 20
5.634187
 30
0.0
 10
0.644588
 20
5.658161
 30
0.0
 10
0.655127
 20
5.694714
 30
0.0
 10
0.655127
 20
5.743846
 30
0.0
  0
SPLINE
  5
176
100
AcDbEntity
  8
Capa_1
 62
7
100
AcDbSpline
 70
8
 71
3
 72
8
 73
4
 74
0
 40
0
 40
0
 40
0
 40
0
 40
1
 40
1
 40
1
 40
1
 10
0.655127
 20
5.743846
 30
0.0
 10
0.655127
 20
5.783621
 30
0.0
 10
0.647782
 20
5.833727
 30
0.0
 10
0.633091
 20
5.894166
 30
0.0
  0
SPLINE
  5
177
100
AcDbEntity
  8
Capa_1
 62
7
100
AcDbSpline
 70
8
 71
3
 72
8
 73
4
 74
0
 40
0
 40
0
 40
0
 40
0
 40
1
 40
1
 40
1
 40
1
 10
0.633091
 20
5.894166
 30
0.0
 10
0.618188
 20
5.954645
 30
0.0
 10
0.598282
 20
6.002085
 30
0.0
 10
0.573372
 20
6.036486
 30
0.0
  0
SPLINE
  5
178
100
AcDbEntity
  8
Capa_1
 62
7
100
AcDbSpline
 70
8
 71
3
 72
8
 73
4
 74
0
 40
0
 40
0
 40
0
 40
0
 40
1
 40
1
 40
1
 40
1
 10
0.573372
 20
6.036486
 30
0.0
 10
0.554211
 20
6.063184
 30
0.0
 10
0.532388
 20
6.082832
 30
0.0
 10
0.507904
 20
6.095432
 30
0.0
  0
SPLINE
  5
179
100
AcDbEntity
  8
Capa_1
 62
7
100
AcDbSpline
 70
8
 71
3
 72
8
 73
4
 74
0
 40
0
 40
0
 40
0
 40
0
 40
1
 40
1
 40
1
 40
1
 10
0.507904
 20
6.095432
 30
0.0
 10
0.483207
 20
6.108304
 30
0.0
 10
0.455317
 20
6.114741
 30
0.0
 10
0.424233
 20
6.114741
 30
0.0
  0
SPLINE
  5
17a
100
AcDbEntity
  8
Capa_1
 62
7
100
AcDbSpline
 70
8
 71
3
 72
8
 73
4
 74
0
 40
0
 40
0
 40
0
 40
0
 40
1
 40
1
 40
1
 40
1
 10
0.424233
 20
6.114741
 30
0.0
 10
0.381226
 20
6.114741
 30
0.0
 10
0.349184
 20
6.102618
 30
0.0
 10
0.328107
 20
6.078371
 30
0.0
  0
SPLINE
  5
17b
100
AcDbEntity
  8
Capa_1
 62
7
100
AcDbSpline
 70
8
 71
3
 72
8
 73
4
 74
0
 40
0
 40
0
 40
0
 40
0
 40
1
 40
1
 40
1
 40
1
 10
0.328107
 20
6.078371
 30
0.0
 10
0.307029
 20
6.054398
 30
0.0
 10
0.296490
 20
6.017957
 30
0.0
 10
0.296490
 20
5.969049
 30
0.0
  0
LWPOLYLINE
  5
17c
100
AcDbEntity
  8
Capa_1
 62
7
100
AcDbPolyline
 90
2
 70
0
 10
0.779995
 20
5.908693
 30
0.0
 10
0.779995
 20
5.908437
 30
0.0
  0
SPLINE
  5
17d
100
AcDbEntity
  8
Capa_1
 62
7
100
AcDbSpline
 70
8
 71
3
 72
8
 73
4
 74
0
 40
0
 40
0
 40
0
 40
0
 40
1
 40
1
 40
1
 40
1
 10
0.361000
 20
5.970224
 30
0.0
 10
0.361000
 20
5.999987
 30
0.0
 10
0.366429
 20
6.022769
 30
0.0
 10
0.377288
 20
6.038570
 30
0.0
  0
SPLINE
  5
17e
100
AcDbEntity
  8
Capa_1
 62
7
100
AcDbSpline
 70
8
 71
3
 72
8
 73
4
 74
0
 40
0
 40
0
 40
0
 40
0
 40
1
 40
1
 40
1
 40
1
 10
0.377288
 20
6.038570
 30
0.0
 10
0.387933
 20
6.054370
 30
0.0
 10
0.407094
 20
6.062271
 30
0.0
 10
0.434772
 20
6.062271
 30
0.0
  0
SPLINE
  5
17f
100
AcDbEntity
  8
Capa_1
 62
7
100
AcDbSpline
 70
8
 71
3
 72
8
 73
4
 74
0
 40
0
 40
0
 40
0
 40
0
 40
1
 40
1
 40
1
 40
1
 10
0.434772
 20
6.062271
 30
0.0
 10
0.455210
 20
6.062271
 30
0.0
 10
0.473307
 20
6.057606
 30
0.0
 10
0.489062
 20
6.048275
 30
0.0
  0
SPLINE
  5
180
100
AcDbEntity
  8
Capa_1
 62
7
100
AcDbSpline
 70
8
 71
3
 72
8
 73
4
 74
0
 40
0
 40
0
 40
0
 40
0
 40
1
 40
1
 40
1
 40
1
 10
0.489062
 20
6.048275
 30
0.0
 10
0.504604
 20
6.038944
 30
0.0
 10
0.518869
 20
6.022496
 30
0.0
 10
0.531856
 20
5.998931
 30
0.0
  0
SPLINE
  5
181
100
AcDbEntity
  8
Capa_1
 62
7
100
AcDbSpline
 70
8
 71
3
 72
8
 73
4
 74
0
 40
0
 40
0
 40
0
 40
0
 40
1
 40
1
 40
1
 40
1
 10
0.531856
 20
5.998931
 30
0.0
 10
0.546759
 20
5.971620
 30
0.0
 10
0.560278
 20
5.930845
 30
0.0
 10
0.572414
 20
5.876604
 30
0.0
  0
SPLINE
  5
182
100
AcDbEntity
  8
Capa_1
 62
7
100
AcDbSpline
 70
8
 71
3
 72
8
 73
4
 74
0
 40
0
 40
0
 40
0
 40
0
 40
1
 40
1
 40
1
 40
1
 10
0.572414
 20
5.876604
 30
0.0
 10
0.584549
 20
5.822595
 30
0.0
 10
0.590617
 20
5.778043
 30
0.0
 10
0.590617
 20
5.742947
 30
0.0
  0
SPLINE
  5
183
100
AcDbEntity
  8
Capa_1
 62
7
100
AcDbSpline
 70
8
 71
3
 72
8
 73
4
 74
0
 40
0
 40
0
 40
0
 40
0
 40
1
 40
1
 40
1
 40
1
 10
0.590617
 20
5.742947
 30
0.0
 10
0.590617
 20
5.713185
 30
0.0
 10
0.585295
 20
5.690403
 30
0.0
 10
0.574649
 20
5.674602
 30
0.0
  0
SPLINE
  5
184
100
AcDbEntity
  8
Capa_1
 62
7
100
AcDbSpline
 70
8
 71
3
 72
8
 73
4
 74
0
 40
0
 40
0
 40
0
 40
0
 40
1
 40
1
 40
1
 40
1
 10
0.574649
 20
5.674602
 30
0.0
 10
0.563791
 20
5.658801
 30
0.0
 10
0.544524
 20
5.650901
 30
0.0
 10
0.516846
 20
5.650901
 30
0.0
  0
SPLINE
  5
185
100
AcDbEntity
  8
Capa_1
 62
7
100
AcDbSpline
 70
8
 71
3
 72
8
 73
4
 74
0
 40
0
 40
0
 40
0
 40
0
 40
1
 40
1
 40
1
 40
1
 10
0.516846
 20
5.650901
 30
0.0
 10
0.497472
 20
5.650901
 30
0.0
 10
0.479481
 20
5.655770
 30
0.0
 10
0.462875
 20
5.665510
 30
0.0
  0
SPLINE
  5
186
100
AcDbEntity
  8
Capa_1
 62
7
100
AcDbSpline
 70
8
 71
3
 72
8
 73
4
 74
0
 40
0
 40
0
 40
0
 40
0
 40
1
 40
1
 40
1
 40
1
 10
0.462875
 20
5.665510
 30
0.0
 10
0.446268
 20
5.675317
 30
0.0
 10
0.431897
 20
5.691527
 30
0.0
 10
0.419762
 20
5.714138
 30
0.0
  0
SPLINE
  5
187
100
AcDbEntity
  8
Capa_1
 62
7
100
AcDbSpline
 70
8
 71
3
 72
8
 73
4
 74
0
 40
0
 40
0
 40
0
 40
0
 40
1
 40
1
 40
1
 40
1
 10
0.419762
 20
5.714138
 30
0.0
 10
0.404859
 20
5.741926
 30
0.0
 10
0.391339
 20
5.782810
 30
0.0
 10
0.379204
 20
5.836792
 30
0.0
  0
SPLINE
  5
188
100
AcDbEntity
  8
Capa_1
 62
7
100
AcDbSpline
 70
8
 71
3
 72
8
 73
4
 74
0
 40
0
 40
0
 40
0
 40
0
 40
1
 40
1
 40
1
 40
1
 10
0.379204
 20
5.836792
 30
0.0
 10
0.367068
 20
5.891005
 30
0.0
 10
0.361000
 20
5.935445
 30
0.0
 10
0.361000
 20
5.970112
 30
0.0
  0
LWPOLYLINE
  5
189
100
AcDbEntity
  8
Capa_1
 62
7
100
AcDbPolyline
 90
2
 70
0
 10
0.296490
 20
5.969049
 30
0.0
 10
0.296490
 20
5.969223
 30
0.0
  0
LWPOLYLINE
  5
18a
100
AcDbEntity
  8
Capa_1
 62
7
100
AcDbPolyline
 90
2
 70
0
 10
0.361000
 20
5.970112
 30
0.0
 10
0.361000
 20
5.970224
 30
0.0
  0
LWPOLYLINE
  5
18b
100
AcDbEntity
  8
Capa_1
 62
7
100
AcDbPolyline
 90
8
 70
1
 10
1.242742
 20
3.902064
 30
0.0
 10
1.306933
 20
3.902064
 30
0.0
 10
1.322901
 20
4.041717
 30
0.0
 10
1.527927
 20
4.041717
 30
0.0
 10
1.605850
 20
3.902064
 30
0.0
 10
1.672595
 20
3.902064
 30
0.0
 10
1.389646
 20
4.398360
 30
0.0
 10
1.305975
 20
4.398360
 30
0.0
  0
SPLINE
  5
18c
100
AcDbEntity
  8
Capa_1
 62
7
100
AcDbSpline
 70
8
 71
3
 72
8
 73
4
 74
0
 40
0
 40
0
 40
0
 40
0
 40
1
 40
1
 40
1
 40
1
 10
0.713250
 20
4.208035
 30
0.0
 10
0.713250
 20
4.153822
 30
0.0
 10
0.726450
 20
4.102493
 30
0.0
 10
0.752850
 20
4.054048
 30
0.0
  0
SPLINE
  5
18d
100
AcDbEntity
  8
Capa_1
 62
7
100
AcDbSpline
 70
8
 71
3
 72
8
 73
4
 74
0
 40
0
 40
0
 40
0
 40
0
 40
1
 40
1
 40
1
 40
1
 10
0.752850
 20
4.054048
 30
0.0
 10
0.779250
 20
4.005624
 30
0.0
 10
0.815337
 20
3.968185
 30
0.0
 10
0.861112
 20
3.941733
 30
0.0
  0
SPLINE
  5
18e
100
AcDbEntity
  8
Capa_1
 62
7
100
AcDbSpline
 70
8
 71
3
 72
8
 73
4
 74
0
 40
0
 40
0
 40
0
 40
0
 40
1
 40
1
 40
1
 40
1
 10
0.861112
 20
3.941733
 30
0.0
 10
0.889215
 20
3.925932
 30
0.0
 10
0.917957
 20
3.915375
 30
0.0
 10
0.947338
 20
3.910063
 30
0.0
  0
SPLINE
  5
18f
100
AcDbEntity
  8
Capa_1
 62
7
100
AcDbSpline
 70
8
 71
3
 72
8
 73
4
 74
0
 40
0
 40
0
 40
0
 40
0
 40
1
 40
1
 40
1
 40
1
 10
0.947338
 20
3.910063
 30
0.0
 10
0.976718
 20
3.904614
 30
0.0
 10
1.010038
 20
3.901890
 30
0.0
 10
1.047296
 20
3.901890
 30
0.0
  0
LWPOLYLINE
  5
190
100
AcDbEntity
  8
Capa_1
 62
7
100
AcDbPolyline
 90
3
 70
1
 10
1.329926
 20
4.095719
 30
0.0
 10
1.359626
 20
4.340690
 30
0.0
 10
1.497588
 20
4.095719
 30
0.0
  0
SPLINE
  5
191
100
AcDbEntity
  8
Capa_1
 62
7
100
AcDbSpline
 70
8
 71
3
 72
8
 73
4
 74
0
 40
0
 40
0
 40
0
 40
0
 40
1
 40
1
 40
1
 40
1
 10
0.955321
 20
4.398186
 30
0.0
 10
0.920831
 20
4.398186
 30
0.0
 10
0.889428
 20
4.395462
 30
0.0
 10
0.861112
 20
4.390014
 30
0.0
  0
SPLINE
  5
192
100
AcDbEntity
  8
Capa_1
 62
7
100
AcDbSpline
 70
8
 71
3
 72
8
 73
4
 74
0
 40
0
 40
0
 40
0
 40
0
 40
1
 40
1
 40
1
 40
1
 10
0.861112
 20
4.390014
 30
0.0
 10
0.832582
 20
4.385246
 30
0.0
 10
0.806502
 20
4.374587
 30
0.0
 10
0.782869
 20
4.358037
 30
0.0
  0
SPLINE
  5
193
100
AcDbEntity
  8
Capa_1
 62
7
100
AcDbSpline
 70
8
 71
3
 72
8
 73
4
 74
0
 40
0
 40
0
 40
0
 40
0
 40
1
 40
1
 40
1
 40
1
 10
0.782869
 20
4.358037
 30
0.0
 10
0.760302
 20
4.342236
 30
0.0
 10
0.743056
 20
4.321566
 30
0.0
 10
0.731134
 20
4.296026
 30
0.0
  0
SPLINE
  5
194
100
AcDbEntity
  8
Capa_1
 62
7
100
AcDbSpline
 70
8
 71
3
 72
8
 73
4
 74
0
 40
0
 40
0
 40
0
 40
0
 40
1
 40
1
 40
1
 40
1
 10
0.731134
 20
4.296026
 30
0.0
 10
0.719211
 20
4.270690
 30
0.0
 10
0.713250
 20
4.241131
 30
0.0
 10
0.713250
 20
4.207350
 30
0.0
  0
LWPOLYLINE
  5
195
100
AcDbEntity
  8
Capa_1
 62
7
100
AcDbPolyline
 90
4
 70
0
 10
1.047296
 20
3.901890
 30
0.0
 10
1.175677
 20
3.901890
 30
0.0
 10
1.065819
 20
4.398186
 30
0.0
 10
0.955321
 20
4.398186
 30
0.0
  0
SPLINE
  5
196
100
AcDbEntity
  8
Capa_1
 62
7
100
AcDbSpline
 70
8
 71
3
 72
8
 73
4
 74
0
 40
0
 40
0
 40
0
 40
0
 40
1
 40
1
 40
1
 40
1
 10
0.779995
 20
4.201905
 30
0.0
 10
0.779995
 20
4.227241
 30
0.0
 10
0.784360
 20
4.249001
 30
0.0
 10
0.793089
 20
4.267186
 30
0.0
  0
SPLINE
  5
197
100
AcDbEntity
  8
Capa_1
 62
7
100
AcDbSpline
 70
8
 71
3
 72
8
 73
4
 74
0
 40
0
 40
0
 40
0
 40
0
 40
1
 40
1
 40
1
 40
1
 10
0.793089
 20
4.267186
 30
0.0
 10
0.801605
 20
4.285643
 30
0.0
 10
0.814592
 20
4.300967
 30
0.0
 10
0.832050
 20
4.313158
 30
0.0
  0
SPLINE
  5
198
100
AcDbEntity
  8
Capa_1
 62
7
100
AcDbSpline
 70
8
 71
3
 72
8
 73
4
 74
0
 40
0
 40
0
 40
0
 40
0
 40
1
 40
1
 40
1
 40
1
 10
0.832050
 20
4.313158
 30
0.0
 10
0.849295
 20
4.325145
 30
0.0
 10
0.867712
 20
4.333148
 30
0.0
 10
0.887299
 20
4.337166
 30
0.0
  0
SPLINE
  5
199
100
AcDbEntity
  8
Capa_1
 62
7
100
AcDbSpline
 70
8
 71
3
 72
8
 73
4
 74
0
 40
0
 40
0
 40
0
 40
0
 40
1
 40
1
 40
1
 40
1
 10
0.887299
 20
4.337166
 30
0.0
 10
0.906886
 20
4.341252
 30
0.0
 10
0.931689
 20
4.343296
 30
0.0
 10
0.961709
 20
4.343296
 30
0.0
  0
LWPOLYLINE
  5
19a
100
AcDbEntity
  8
Capa_1
 62
7
100
AcDbPolyline
 90
2
 70
0
 10
0.713250
 20
4.207350
 30
0.0
 10
0.713250
 20
4.208035
 30
0.0
  0
SPLINE
  5
19b
100
AcDbEntity
  8
Capa_1
 62
7
100
AcDbSpline
 70
8
 71
3
 72
8
 73
4
 74
0
 40
0
 40
0
 40
0
 40
0
 40
1
 40
1
 40
1
 40
1
 10
1.034522
 20
3.955657
 30
0.0
 10
1.004076
 20
3.955657
 30
0.0
 10
0.976931
 20
3.958381
 30
0.0
 10
0.953086
 20
3.963830
 30
0.0
  0
SPLINE
  5
19c
100
AcDbEntity
  8
Capa_1
 62
7
100
AcDbSpline
 70
8
 71
3
 72
8
 73
4
 74
0
 40
0
 40
0
 40
0
 40
0
 40
1
 40
1
 40
1
 40
1
 10
0.953086
 20
3.963830
 30
0.0
 10
0.929028
 20
3.969279
 30
0.0
 10
0.906354
 20
3.978269
 30
0.0
 10
0.885063
 20
3.990800
 30
0.0
  0
SPLINE
  5
19d
100
AcDbEntity
  8
Capa_1
 62
7
100
AcDbSpline
 70
8
 71
3
 72
8
 73
4
 74
0
 40
0
 40
0
 40
0
 40
0
 40
1
 40
1
 40
1
 40
1
 10
0.885063
 20
3.990800
 30
0.0
 10
0.850786
 20
4.011233
 30
0.0
 10
0.824705
 20
4.040689
 30
0.0
 10
0.806821
 20
4.079169
 30
0.0
  0
SPLINE
  5
19e
100
AcDbEntity
  8
Capa_1
 62
7
100
AcDbSpline
 70
8
 71
3
 72
8
 73
4
 74
0
 40
0
 40
0
 40
0
 40
0
 40
1
 40
1
 40
1
 40
1
 10
0.806821
 20
4.079169
 30
0.0
 10
0.788937
 20
4.117854
 30
0.0
 10
0.779995
 20
4.158851
 30
0.0
 10
0.779995
 20
4.202161
 30
0.0
  0
LWPOLYLINE
  5
19f
100
AcDbEntity
  8
Capa_1
 62
7
100
AcDbPolyline
 90
4
 70
0
 10
0.961709
 20
4.343296
 30
0.0
 10
1.014402
 20
4.343296
 30
0.0
 10
1.100628
 20
3.955657
 30
0.0
 10
1.034522
 20
3.955657
 30
0.0
  0
LWPOLYLINE
  5
1a0
100
AcDbEntity
  8
Capa_1
 62
7
100
AcDbPolyline
 90
2
 70
0
 10
0.779995
 20
4.202161
 30
0.0
 10
0.779995
 20
4.201905
 30
0.0
  0
SPLINE
  5
1a1
100
AcDbEntity
  8
Capa_1
 62
7
100
AcDbSpline
 70
8
 71
3
 72
8
 73
4
 74
0
 40
0
 40
0
 40
0
 40
0
 40
1
 40
1
 40
1
 40
1
 10
0.554530
 20
4.330699
 30
0.0
 10
0.517698
 20
4.330699
 30
0.0
 10
0.489169
 20
4.336046
 30
0.0
 10
0.468943
 20
4.346738
 30
0.0
  0
SPLINE
  5
1a2
100
AcDbEntity
  8
Capa_1
 62
7
100
AcDbSpline
 70
8
 71
3
 72
8
 73
4
 74
0
 40
0
 40
0
 40
0
 40
0
 40
1
 40
1
 40
1
 40
1
 10
0.468943
 20
4.346738
 30
0.0
 10
0.448504
 20
4.357635
 30
0.0
 10
0.434878
 20
4.375411
 30
0.0
 10
0.428065
 20
4.400066
 30
0.0
  0
LWPOLYLINE
  5
1a3
100
AcDbEntity
  8
Capa_1
 62
7
100
AcDbPolyline
 90
7
 70
0
 10
0.390062
 20
3.902064
 30
0.0
 10
0.648101
 20
3.902064
 30
0.0
 10
0.637243
 20
3.950386
 30
0.0
 10
0.539520
 20
3.950386
 30
0.0
 10
0.464791
 20
4.287689
 30
0.0
 10
0.563791
 20
4.287689
 30
0.0
 10
0.554530
 20
4.330699
 30
0.0
  0
LWPOLYLINE
  5
1a4
100
AcDbEntity
  8
Capa_1
 62
7
100
AcDbPolyline
 90
5
 70
0
 10
0.428065
 20
4.400066
 30
0.0
 10
0.378246
 20
4.400066
 30
0.0
 10
0.477566
 20
3.950437
 30
0.0
 10
0.379204
 20
3.950437
 30
0.0
 10
0.390062
 20
3.902064
 30
0.0
  0
LWPOLYLINE
  5
1a5
100
AcDbEntity
  8
Capa_1
 62
7
100
AcDbPolyline
 90
8
 70
1
 10
1.242742
 20
2.195542
 30
0.0
 10
1.306933
 20
2.195542
 30
0.0
 10
1.322901
 20
2.335195
 30
0.0
 10
1.527927
 20
2.335195
 30
0.0
 10
1.605850
 20
2.195542
 30
0.0
 10
1.672595
 20
2.195542
 30
0.0
 10
1.389646
 20
2.691838
 30
0.0
 10
1.305975
 20
2.691838
 30
0.0
  0
SPLINE
  5
1a6
100
AcDbEntity
  8
Capa_1
 62
7
100
AcDbSpline
 70
8
 71
3
 72
8
 73
4
 74
0
 40
0
 40
0
 40
0
 40
0
 40
1
 40
1
 40
1
 40
1
 10
0.713250
 20
2.501513
 30
0.0
 10
0.713250
 20
2.447300
 30
0.0
 10
0.726450
 20
2.395971
 30
0.0
 10
0.752850
 20
2.347526
 30
0.0
  0
SPLINE
  5
1a7
100
AcDbEntity
  8
Capa_1
 62
7
100
AcDbSpline
 70
8
 71
3
 72
8
 73
4
 74
0
 40
0
 40
0
 40
0
 40
0
 40
1
 40
1
 40
1
 40
1
 10
0.752850
 20
2.347526
 30
0.0
 10
0.779250
 20
2.299102
 30
0.0
 10
0.815337
 20
2.261664
 30
0.0
 10
0.861112
 20
2.235211
 30
0.0
  0
SPLINE
  5
1a8
100
AcDbEntity
  8
Capa_1
 62
7
100
AcDbSpline
 70
8
 71
3
 72
8
 73
4
 74
0
 40
0
 40
0
 40
0
 40
0
 40
1
 40
1
 40
1
 40
1
 10
0.861112
 20
2.235211
 30
0.0
 10
0.889215
 20
2.219410
 30
0.0
 10
0.917957
 20
2.208853
 30
0.0
 10
0.947338
 20
2.203541
 30
0.0
  0
SPLINE
  5
1a9
100
AcDbEntity
  8
Capa_1
 62
7
100
AcDbSpline
 70
8
 71
3
 72
8
 73
4
 74
0
 40
0
 40
0
 40
0
 40
0
 40
1
 40
1
 40
1
 40
1
 10
0.947338
 20
2.203541
 30
0.0
 10
0.976718
 20
2.198092
 30
0.0
 10
1.010038
 20
2.195368
 30
0.0
 10
1.047296
 20
2.195368
 30
0.0
  0
LWPOLYLINE
  5
1aa
100
AcDbEntity
  8
Capa_1
 62
7
100
AcDbPolyline
 90
3
 70
1
 10
1.329926
 20
2.389197
 30
0.0
 10
1.359626
 20
2.634168
 30
0.0
 10
1.497588
 20
2.389197
 30
0.0
  0
SPLINE
  5
1ab
100
AcDbEntity
  8
Capa_1
 62
7
100
AcDbSpline
 70
8
 71
3
 72
8
 73
4
 74
0
 40
0
 40
0
 40
0
 40
0
 40
1
 40
1
 40
1
 40
1
 10
0.955321
 20
2.691664
 30
0.0
 10
0.920831
 20
2.691664
 30
0.0
 10
0.889428
 20
2.688940
 30
0.0
 10
0.861112
 20
2.683492
 30
0.0
  0
SPLINE
  5
1ac
100
AcDbEntity
  8
Capa_1
 62
7
100
AcDbSpline
 70
8
 71
3
 72
8
 73
4
 74
0
 40
0
 40
0
 40
0
 40
0
 40
1
 40
1
 40
1
 40
1
 10
0.861112
 20
2.683492
 30
0.0
 10
0.832582
 20
2.678724
 30
0.0
 10
0.806502
 20
2.668065
 30
0.0
 10
0.782869
 20
2.651515
 30
0.0
  0
SPLINE
  5
1ad
100
AcDbEntity
  8
Capa_1
 62
7
100
AcDbSpline
 70
8
 71
3
 72
8
 73
4
 74
0
 40
0
 40
0
 40
0
 40
0
 40
1
 40
1
 40
1
 40
1
 10
0.782869
 20
2.651515
 30
0.0
 10
0.760302
 20
2.635714
 30
0.0
 10
0.743056
 20
2.615044
 30
0.0
 10
0.731134
 20
2.589504
 30
0.0
  0
SPLINE
  5
1ae
100
AcDbEntity
  8
Capa_1
 62
7
100
AcDbSpline
 70
8
 71
3
 72
8
 73
4
 74
0
 40
0
 40
0
 40
0
 40
0
 40
1
 40
1
 40
1
 40
1
 10
0.731134
 20
2.589504
 30
0.0
 10
0.719211
 20
2.564168
 30
0.0
 10
0.713250
 20
2.534609
 30
0.0
 10
0.713250
 20
2.500828
 30
0.0
  0
LWPOLYLINE
  5
1af
100
AcDbEntity
  8
Capa_1
 62
7
100
AcDbPolyline
 90
4
 70
0
 10
1.047296
 20
2.195368
 30
0.0
 10
1.175677
 20
2.195368
 30
0.0
 10
1.065819
 20
2.691664
 30
0.0
 10
0.955321
 20
2.691664
 30
0.0
  0
SPLINE
  5
1b0
100
AcDbEntity
  8
Capa_1
 62
7
100
AcDbSpline
 70
8
 71
3
 72
8
 73
4
 74
0
 40
0
 40
0
 40
0
 40
0
 40
1
 40
1
 40
1
 40
1
 10
0.779995
 20
2.495383
 30
0.0
 10
0.779995
 20
2.520719
 30
0.0
 10
0.784360
 20
2.542479
 30
0.0
 10
0.793089
 20
2.560664
 30
0.0
  0
SPLINE
  5
1b1
100
AcDbEntity
  8
Capa_1
 62
7
100
AcDbSpline
 70
8
 71
3
 72
8
 73
4
 74
0
 40
0
 40
0
 40
0
 40
0
 40
1
 40
1
 40
1
 40
1
 10
0.793089
 20
2.560664
 30
0.0
 10
0.801605
 20
2.579121
 30
0.0
 10
0.814592
 20
2.594445
 30
0.0
 10
0.832050
 20
2.606636
 30
0.0
  0
SPLINE
  5
1b2
100
AcDbEntity
  8
Capa_1
 62
7
100
AcDbSpline
 70
8
 71
3
 72
8
 73
4
 74
0
 40
0
 40
0
 40
0
 40
0
 40
1
 40
1
 40
1
 40
1
 10
0.832050
 20
2.606636
 30
0.0
 10
0.849295
 20
2.618623
 30
0.0
 10
0.867712
 20
2.626626
 30
0.0
 10
0.887299
 20
2.630644
 30
0.0
  0
SPLINE
  5
1b3
100
AcDbEntity
  8
Capa_1
 62
7
100
AcDbSpline
 70
8
 71
3
 72
8
 73
4
 74
0
 40
0
 40
0
 40
0
 40
0
 40
1
 40
1
 40
1
 40
1
 10
0.887299
 20
2.630644
 30
0.0
 10
0.906886
 20
2.634730
 30
0.0
 10
0.931689
 20
2.636774
 30
0.0
 10
0.961709
 20
2.636774
 30
0.0
  0
LWPOLYLINE
  5
1b4
100
AcDbEntity
  8
Capa_1
 62
7
100
AcDbPolyline
 90
2
 70
0
 10
0.713250
 20
2.500828
 30
0.0
 10
0.713250
 20
2.501513
 30
0.0
  0
SPLINE
  5
1b5
100
AcDbEntity
  8
Capa_1
 62
7
100
AcDbSpline
 70
8
 71
3
 72
8
 73
4
 74
0
 40
0
 40
0
 40
0
 40
0
 40
1
 40
1
 40
1
 40
1
 10
1.034522
 20
2.249135
 30
0.0
 10
1.004076
 20
2.249135
 30
0.0
 10
0.976931
 20
2.251519
 30
0.0
 10
0.953086
 20
2.256286
 30
0.0
  0
SPLINE
  5
1b6
100
AcDbEntity
  8
Capa_1
 62
7
100
AcDbSpline
 70
8
 71
3
 72
8
 73
4
 74
0
 40
0
 40
0
 40
0
 40
0
 40
1
 40
1
 40
1
 40
1
 10
0.953086
 20
2.256286
 30
0.0
 10
0.929028
 20
2.261735
 30
0.0
 10
0.906354
 20
2.270725
 30
0.0
 10
0.885063
 20
2.283257
 30
0.0
  0
SPLINE
  5
1b7
100
AcDbEntity
  8
Capa_1
 62
7
100
AcDbSpline
 70
8
 71
3
 72
8
 73
4
 74
0
 40
0
 40
0
 40
0
 40
0
 40
1
 40
1
 40
1
 40
1
 10
0.885063
 20
2.283257
 30
0.0
 10
0.850786
 20
2.303689
 30
0.0
 10
0.824705
 20
2.333145
 30
0.0
 10
0.806821
 20
2.371626
 30
0.0
  0
SPLINE
  5
1b8
100
AcDbEntity
  8
Capa_1
 62
7
100
AcDbSpline
 70
8
 71
3
 72
8
 73
4
 74
0
 40
0
 40
0
 40
0
 40
0
 40
1
 40
1
 40
1
 40
1
 10
0.806821
 20
2.371626
 30
0.0
 10
0.788937
 20
2.410311
 30
0.0
 10
0.779995
 20
2.451308
 30
0.0
 10
0.779995
 20
2.494617
 30
0.0
  0
LWPOLYLINE
  5
1b9
100
AcDbEntity
  8
Capa_1
 62
7
100
AcDbPolyline
 90
4
 70
0
 10
0.961709
 20
2.636774
 30
0.0
 10
1.014402
 20
2.636774
 30
0.0
 10
1.100628
 20
2.249135
 30
0.0
 10
1.034522
 20
2.249135
 30
0.0
  0
LWPOLYLINE
  5
1ba
100
AcDbEntity
  8
Capa_1
 62
7
100
AcDbPolyline
 90
2
 70
0
 10
0.779995
 20
2.494617
 30
0.0
 10
0.779995
 20
2.495383
 30
0.0
  0
SPLINE
  5
1bb
100
AcDbEntity
  8
Capa_1
 62
7
100
AcDbSpline
 70
8
 71
3
 72
8
 73
4
 74
0
 40
0
 40
0
 40
0
 40
0
 40
1
 40
1
 40
1
 40
1
 10
0.671734
 20
2.265215
 30
0.0
 10
0.641714
 20
2.288099
 30
0.0
 10
0.616272
 20
2.307544
 30
0.0
 10
0.595408
 20
2.323549
 30
0.0
  0
SPLINE
  5
1bc
100
AcDbEntity
  8
Capa_1
 62
7
100
AcDbSpline
 70
8
 71
3
 72
8
 73
4
 74
0
 40
0
 40
0
 40
0
 40
0
 40
1
 40
1
 40
1
 40
1
 10
0.595408
 20
2.323549
 30
0.0
 10
0.574330
 20
2.339759
 30
0.0
 10
0.548994
 20
2.360191
 30
0.0
 10
0.519401
 20
2.384845
 30
0.0
  0
SPLINE
  5
1bd
100
AcDbEntity
  8
Capa_1
 62
7
100
AcDbSpline
 70
8
 71
3
 72
8
 73
4
 74
0
 40
0
 40
0
 40
0
 40
0
 40
1
 40
1
 40
1
 40
1
 10
0.519401
 20
2.384845
 30
0.0
 10
0.467452
 20
2.428162
 30
0.0
 10
0.430833
 20
2.464606
 30
0.0
 10
0.409542
 20
2.494178
 30
0.0
  0
SPLINE
  5
1be
100
AcDbEntity
  8
Capa_1
 62
7
100
AcDbSpline
 70
8
 71
3
 72
8
 73
4
 74
0
 40
0
 40
0
 40
0
 40
0
 40
1
 40
1
 40
1
 40
1
 10
0.409542
 20
2.494178
 30
0.0
 10
0.388039
 20
2.523941
 30
0.0
 10
0.377287
 20
2.552818
 30
0.0
 10
0.377287
 20
2.580810
 30
0.0
  0
SPLINE
  5
1bf
100
AcDbEntity
  8
Capa_1
 62
7
100
AcDbSpline
 70
8
 71
3
 72
8
 73
4
 74
0
 40
0
 40
0
 40
0
 40
0
 40
1
 40
1
 40
1
 40
1
 10
0.377287
 20
2.580810
 30
0.0
 10
0.377287
 20
2.602604
 30
0.0
 10
0.384739
 20
2.619052
 30
0.0
 10
0.399642
 20
2.630154
 30
0.0
  0
SPLINE
  5
1c0
100
AcDbEntity
  8
Capa_1
 62
7
100
AcDbSpline
 70
8
 71
3
 72
8
 73
4
 74
0
 40
0
 40
0
 40
0
 40
0
 40
1
 40
1
 40
1
 40
1
 10
0.399642
 20
2.630154
 30
0.0
 10
0.414333
 20
2.641255
 30
0.0
 10
0.433281
 20
2.646806
 30
0.0
 10
0.456488
 20
2.646806
 30
0.0
  0
SPLINE
  5
1c1
100
AcDbEntity
  8
Capa_1
 62
7
100
AcDbSpline
 70
8
 71
3
 72
8
 73
4
 74
0
 40
0
 40
0
 40
0
 40
0
 40
1
 40
1
 40
1
 40
1
 10
0.456488
 20
2.646806
 30
0.0
 10
0.475436
 20
2.646806
 30
0.0
 10
0.497152
 20
2.643026
 30
0.0
 10
0.521636
 20
2.635466
 30
0.0
  0
SPLINE
  5
1c2
100
AcDbEntity
  8
Capa_1
 62
7
100
AcDbSpline
 70
8
 71
3
 72
8
 73
4
 74
0
 40
0
 40
0
 40
0
 40
0
 40
1
 40
1
 40
1
 40
1
 10
0.521636
 20
2.635466
 30
0.0
 10
0.545907
 20
2.628110
 30
0.0
 10
0.569753
 20
2.617452
 30
0.0
 10
0.593172
 20
2.603490
 30
0.0
  0
LWPOLYLINE
  5
1c3
100
AcDbEntity
  8
Capa_1
 62
7
100
AcDbPolyline
 90
3
 70
0
 10
0.364513
 20
2.195542
 30
0.0
 10
0.686743
 20
2.195542
 30
0.0
 10
0.671734
 20
2.265215
 30
0.0
  0
SPLINE
  5
1c4
100
AcDbEntity
  8
Capa_1
 62
7
100
AcDbSpline
 70
8
 71
3
 72
8
 73
4
 74
0
 40
0
 40
0
 40
0
 40
0
 40
1
 40
1
 40
1
 40
1
 10
0.583592
 20
2.671120
 30
0.0
 10
0.566772
 20
2.679088
 30
0.0
 10
0.545269
 20
2.686206
 30
0.0
 10
0.519082
 20
2.692472
 30
0.0
  0
SPLINE
  5
1c5
100
AcDbEntity
  8
Capa_1
 62
7
100
AcDbSpline
 70
8
 71
3
 72
8
 73
4
 74
0
 40
0
 40
0
 40
0
 40
0
 40
1
 40
1
 40
1
 40
1
 10
0.519082
 20
2.692472
 30
0.0
 10
0.492895
 20
2.698601
 30
0.0
 10
0.467772
 20
2.701666
 30
0.0
 10
0.443714
 20
2.701666
 30
0.0
  0
SPLINE
  5
1c6
100
AcDbEntity
  8
Capa_1
 62
7
100
AcDbSpline
 70
8
 71
3
 72
8
 73
4
 74
0
 40
0
 40
0
 40
0
 40
0
 40
1
 40
1
 40
1
 40
1
 10
0.443714
 20
2.701666
 30
0.0
 10
0.400920
 20
2.701666
 30
0.0
 10
0.367920
 20
2.691893
 30
0.0
 10
0.344714
 20
2.672346
 30
0.0
  0
SPLINE
  5
1c7
100
AcDbEntity
  8
Capa_1
 62
7
100
AcDbSpline
 70
8
 71
3
 72
8
 73
4
 74
0
 40
0
 40
0
 40
0
 40
0
 40
1
 40
1
 40
1
 40
1
 10
0.344714
 20
2.672346
 30
0.0
 10
0.321507
 20
2.653003
 30
0.0
 10
0.309904
 20
2.626782
 30
0.0
 10
0.309904
 20
2.593682
 30
0.0
  0
SPLINE
  5
1c8
100
AcDbEntity
  8
Capa_1
 62
7
100
AcDbSpline
 70
8
 71
3
 72
8
 73
4
 74
0
 40
0
 40
0
 40
0
 40
0
 40
1
 40
1
 40
1
 40
1
 10
0.309904
 20
2.593682
 30
0.0
 10
0.309904
 20
2.557926
 30
0.0
 10
0.319697
 20
2.524043
 30
0.0
 10
0.339285
 20
2.492032
 30
0.0
  0
SPLINE
  5
1c9
100
AcDbEntity
  8
Capa_1
 62
7
100
AcDbSpline
 70
8
 71
3
 72
8
 73
4
 74
0
 40
0
 40
0
 40
0
 40
0
 40
1
 40
1
 40
1
 40
1
 10
0.339285
 20
2.492032
 30
0.0
 10
0.358872
 20
2.460226
 30
0.0
 10
0.393149
 20
2.423118
 30
0.0
 10
0.442117
 20
2.380708
 30
0.0
  0
SPLINE
  5
1ca
100
AcDbEntity
  8
Capa_1
 62
7
100
AcDbSpline
 70
8
 71
3
 72
8
 73
4
 74
0
 40
0
 40
0
 40
0
 40
0
 40
1
 40
1
 40
1
 40
1
 10
0.442117
 20
2.380708
 30
0.0
 10
0.471285
 20
2.355576
 30
0.0
 10
0.501305
 20
2.331126
 30
0.0
 10
0.532176
 20
2.307357
 30
0.0
  0
SPLINE
  5
1cb
100
AcDbEntity
  8
Capa_1
 62
7
100
AcDbSpline
 70
8
 71
3
 72
8
 73
4
 74
0
 40
0
 40
0
 40
0
 40
0
 40
1
 40
1
 40
1
 40
1
 10
0.532176
 20
2.307357
 30
0.0
 10
0.562834
 20
2.283792
 30
0.0
 10
0.588169
 20
2.264585
 30
0.0
 10
0.608182
 20
2.249738
 30
0.0
  0
LWPOLYLINE
  5
1cc
100
AcDbEntity
  8
Capa_1
 62
7
100
AcDbPolyline
 90
3
 70
0
 10
0.593172
 20
2.603490
 30
0.0
 10
0.596366
 20
2.603490
 30
0.0
 10
0.583592
 20
2.671120
 30
0.0
  0
LWPOLYLINE
  5
1cd
100
AcDbEntity
  8
Capa_1
 62
7
100
AcDbPolyline
 90
3
 70
0
 10
0.608182
 20
2.249738
 30
0.0
 10
0.352698
 20
2.249738
 30
0.0
 10
0.364513
 20
2.195542
 30
0.0
  0
LWPOLYLINE
  5
1ce
100
AcDbEntity
  8
Capa_1
 62
7
100
AcDbPolyline
 90
8
 70
1
 10
1.242742
 20
0.489020
 30
0.0
 10
1.306933
 20
0.489020
 30
0.0
 10
1.322901
 20
0.628673
 30
0.0
 10
1.527927
 20
0.628673
 30
0.0
 10
1.605850
 20
0.489020
 30
0.0
 10
1.672595
 20
0.489020
 30
0.0
 10
1.389646
 20
0.985316
 30
0.0
 10
1.305975
 20
0.985316
 30
0.0
  0
SPLINE
  5
1cf
100
AcDbEntity
  8
Capa_1
 62
7
100
AcDbSpline
 70
8
 71
3
 72
8
 73
4
 74
0
 40
0
 40
0
 40
0
 40
0
 40
1
 40
1
 40
1
 40
1
 10
0.713250
 20
0.794991
 30
0.0
 10
0.713250
 20
0.740778
 30
0.0
 10
0.726450
 20
0.689449
 30
0.0
 10
0.752850
 20
0.641004
 30
0.0
  0
SPLINE
  5
1d0
100
AcDbEntity
  8
Capa_1
 62
7
100
AcDbSpline
 70
8
 71
3
 72
8
 73
4
 74
0
 40
0
 40
0
 40
0
 40
0
 40
1
 40
1
 40
1
 40
1
 10
0.752850
 20
0.641004
 30
0.0
 10
0.779250
 20
0.592580
 30
0.0
 10
0.815337
 20
0.555142
 30
0.0
 10
0.861112
 20
0.528689
 30
0.0
  0
SPLINE
  5
1d1
100
AcDbEntity
  8
Capa_1
 62
7
100
AcDbSpline
 70
8
 71
3
 72
8
 73
4
 74
0
 40
0
 40
0
 40
0
 40
0
 40
1
 40
1
 40
1
 40
1
 10
0.861112
 20
0.528689
 30
0.0
 10
0.889215
 20
0.512888
 30
0.0
 10
0.917957
 20
0.502331
 30
0.0
 10
0.947338
 20
0.497019
 30
0.0
  0
SPLINE
  5
1d2
100
AcDbEntity
  8
Capa_1
 62
7
100
AcDbSpline
 70
8
 71
3
 72
8
 73
4
 74
0
 40
0
 40
0
 40
0
 40
0
 40
1
 40
1
 40
1
 40
1
 10
0.947338
 20
0.497019
 30
0.0
 10
0.976718
 20
0.491570
 30
0.0
 10
1.010038
 20
0.488846
 30
0.0
 10
1.047296
 20
0.488846
 30
0.0
  0
LWPOLYLINE
  5
1d3
100
AcDbEntity
  8
Capa_1
 62
7
100
AcDbPolyline
 90
3
 70
1
 10
1.329926
 20
0.682675
 30
0.0
 10
1.359626
 20
0.927646
 30
0.0
 10
1.497588
 20
0.682675
 30
0.0
  0
SPLINE
  5
1d4
100
AcDbEntity
  8
Capa_1
 62
7
100
AcDbSpline
 70
8
 71
3
 72
8
 73
4
 74
0
 40
0
 40
0
 40
0
 40
0
 40
1
 40
1
 40
1
 40
1
 10
0.955321
 20
0.985142
 30
0.0
 10
0.920831
 20
0.985142
 30
0.0
 10
0.889428
 20
0.982418
 30
0.0
 10
0.861112
 20
0.976970
 30
0.0
  0
SPLINE
  5
1d5
100
AcDbEntity
  8
Capa_1
 62
7
100
AcDbSpline
 70
8
 71
3
 72
8
 73
4
 74
0
 40
0
 40
0
 40
0
 40
0
 40
1
 40
1
 40
1
 40
1
 10
0.861112
 20
0.976970
 30
0.0
 10
0.832582
 20
0.972202
 30
0.0
 10
0.806502
 20
0.961543
 30
0.0
 10
0.782869
 20
0.944993
 30
0.0
  0
SPLINE
  5
1d6
100
AcDbEntity
  8
Capa_1
 62
7
100
AcDbSpline
 70
8
 71
3
 72
8
 73
4
 74
0
 40
0
 40
0
 40
0
 40
0
 40
1
 40
1
 40
1
 40
1
 10
0.782869
 20
0.944993
 30
0.0
 10
0.760302
 20
0.929192
 30
0.0
 10
0.743056
 20
0.908522
 30
0.0
 10
0.731134
 20
0.882982
 30
0.0
  0
SPLINE
  5
1d7
100
AcDbEntity
  8
Capa_1
 62
7
100
AcDbSpline
 70
8
 71
3
 72
8
 73
4
 74
0
 40
0
 40
0
 40
0
 40
0
 40
1
 40
1
 40
1
 40
1
 10
0.731134
 20
0.882982
 30
0.0
 10
0.719211
 20
0.857646
 30
0.0
 10
0.713250
 20
0.828088
 30
0.0
 10
0.713250
 20
0.794306
 30
0.0
  0
LWPOLYLINE
  5
1d8
100
AcDbEntity
  8
Capa_1
 62
7
100
AcDbPolyline
 90
4
 70
0
 10
1.047296
 20
0.488846
 30
0.0
 10
1.175677
 20
0.488846
 30
0.0
 10
1.065819
 20
0.985142
 30
0.0
 10
0.955321
 20
0.985142
 30
0.0
  0
SPLINE
  5
1d9
100
AcDbEntity
  8
Capa_1
 62
7
100
AcDbSpline
 70
8
 71
3
 72
8
 73
4
 74
0
 40
0
 40
0
 40
0
 40
0
 40
1
 40
1
 40
1
 40
1
 10
0.779995
 20
0.788861
 30
0.0
 10
0.779995
 20
0.814197
 30
0.0
 10
0.784360
 20
0.835957
 30
0.0
 10
0.793089
 20
0.854142
 30
0.0
  0
SPLINE
  5
1da
100
AcDbEntity
  8
Capa_1
 62
7
100
AcDbSpline
 70
8
 71
3
 72
8
 73
4
 74
0
 40
0
 40
0
 40
0
 40
0
 40
1
 40
1
 40
1
 40
1
 10
0.793089
 20
0.854142
 30
0.0
 10
0.801605
 20
0.872599
 30
0.0
 10
0.814592
 20
0.887923
 30
0.0
 10
0.832050
 20
0.900114
 30
0.0
  0
SPLINE
  5
1db
100
AcDbEntity
  8
Capa_1
 62
7
100
AcDbSpline
 70
8
 71
3
 72
8
 73
4
 74
0
 40
0
 40
0
 40
0
 40
0
 40
1
 40
1
 40
1
 40
1
 10
0.832050
 20
0.900114
 30
0.0
 10
0.849295
 20
0.912101
 30
0.0
 10
0.867712
 20
0.920104
 30
0.0
 10
0.887299
 20
0.924122
 30
0.0
  0
SPLINE
  5
1dc
100
AcDbEntity
  8
Capa_1
 62
7
100
AcDbSpline
 70
8
 71
3
 72
8
 73
4
 74
0
 40
0
 40
0
 40
0
 40
0
 40
1
 40
1
 40
1
 40
1
 10
0.887299
 20
0.924122
 30
0.0
 10
0.906886
 20
0.928208
 30
0.0
 10
0.931689
 20
0.930252
 30
0.0
 10
0.961709
 20
0.930252
 30
0.0
  0
LWPOLYLINE
  5
1dd
100
AcDbEntity
  8
Capa_1
 62
7
100
AcDbPolyline
 90
2
 70
0
 10
0.713250
 20
0.794306
 30
0.0
 10
0.713250
 20
0.794991
 30
0.0
  0
SPLINE
  5
1de
100
AcDbEntity
  8
Capa_1
 62
7
100
AcDbSpline
 70
8
 71
3
 72
8
 73
4
 74
0
 40
0
 40
0
 40
0
 40
0
 40
1
 40
1
 40
1
 40
1
 10
1.034522
 20
0.542613
 30
0.0
 10
1.004076
 20
0.542613
 30
0.0
 10
0.976931
 20
0.544997
 30
0.0
 10
0.953086
 20
0.549764
 30
0.0
  0
SPLINE
  5
1df
100
AcDbEntity
  8
Capa_1
 62
7
100
AcDbSpline
 70
8
 71
3
 72
8
 73
4
 74
0
 40
0
 40
0
 40
0
 40
0
 40
1
 40
1
 40
1
 40
1
 10
0.953086
 20
0.549764
 30
0.0
 10
0.929028
 20
0.555213
 30
0.0
 10
0.906354
 20
0.564203
 30
0.0
 10
0.885063
 20
0.576735
 30
0.0
  0
SPLINE
  5
1e0
100
AcDbEntity
  8
Capa_1
 62
7
100
AcDbSpline
 70
8
 71
3
 72
8
 73
4
 74
0
 40
0
 40
0
 40
0
 40
0
 40
1
 40
1
 40
1
 40
1
 10
0.885063
 20
0.576735
 30
0.0
 10
0.850786
 20
0.597167
 30
0.0
 10
0.824705
 20
0.626623
 30
0.0
 10
0.806821
 20
0.665104
 30
0.0
  0
SPLINE
  5
1e1
100
AcDbEntity
  8
Capa_1
 62
7
100
AcDbSpline
 70
8
 71
3
 72
8
 73
4
 74
0
 40
0
 40
0
 40
0
 40
0
 40
1
 40
1
 40
1
 40
1
 10
0.806821
 20
0.665104
 30
0.0
 10
0.788937
 20
0.703789
 30
0.0
 10
0.779995
 20
0.744786
 30
0.0
 10
0.779995
 20
0.788095
 30
0.0
  0
LWPOLYLINE
  5
1e2
100
AcDbEntity
  8
Capa_1
 62
7
100
AcDbPolyline
 90
4
 70
0
 10
0.961709
 20
0.930252
 30
0.0
 10
1.014402
 20
0.930252
 30
0.0
 10
1.100628
 20
0.542613
 30
0.0
 10
1.034522
 20
0.542613
 30
0.0
  0
SPLINE
  5
1e3
100
AcDbEntity
  8
Capa_1
 62
7
100
AcDbSpline
 70
8
 71
3
 72
8
 73
4
 74
0
 40
0
 40
0
 40
0
 40
0
 40
1
 40
1
 40
1
 40
1
 10
0.393575
 20
0.532683
 30
0.0
 10
0.412310
 20
0.515588
 30
0.0
 10
0.433920
 20
0.502239
 30
0.0
 10
0.458404
 20
0.492636
 30
0.0
  0
SPLINE
  5
1e4
100
AcDbEntity
  8
Capa_1
 62
7
100
AcDbSpline
 70
8
 71
3
 72
8
 73
4
 74
0
 40
0
 40
0
 40
0
 40
0
 40
1
 40
1
 40
1
 40
1
 10
0.458404
 20
0.492636
 30
0.0
 10
0.482675
 20
0.483306
 30
0.0
 10
0.510885
 20
0.478640
 30
0.0
 10
0.543033
 20
0.478640
 30
0.0
  0
SPLINE
  5
1e5
100
AcDbEntity
  8
Capa_1
 62
7
100
AcDbSpline
 70
8
 71
3
 72
8
 73
4
 74
0
 40
0
 40
0
 40
0
 40
0
 40
1
 40
1
 40
1
 40
1
 10
0.543033
 20
0.478640
 30
0.0
 10
0.568795
 20
0.478640
 30
0.0
 10
0.593811
 20
0.482080
 30
0.0
 10
0.618082
 20
0.488958
 30
0.0
  0
SPLINE
  5
1e6
100
AcDbEntity
  8
Capa_1
 62
7
100
AcDbSpline
 70
8
 71
3
 72
8
 73
4
 74
0
 40
0
 40
0
 40
0
 40
0
 40
1
 40
1
 40
1
 40
1
 10
0.618082
 20
0.488958
 30
0.0
 10
0.642140
 20
0.495769
 30
0.0
 10
0.662472
 20
0.503772
 30
0.0
 10
0.679079
 20
0.512966
 30
0.0
  0
LWPOLYLINE
  5
1e7
100
AcDbEntity
  8
Capa_1
 62
7
100
AcDbPolyline
 90
2
 70
0
 10
0.779995
 20
0.788095
 30
0.0
 10
0.779995
 20
0.788861
 30
0.0
  0
SPLINE
  5
1e8
100
AcDbEntity
  8
Capa_1
 62
7
100
AcDbSpline
 70
8
 71
3
 72
8
 73
4
 74
0
 40
0
 40
0
 40
0
 40
0
 40
1
 40
1
 40
1
 40
1
 10
0.659279
 20
0.576919
 30
0.0
 10
0.644588
 20
0.565341
 30
0.0
 10
0.626172
 20
0.555227
 30
0.0
 10
0.604030
 20
0.546577
 30
0.0
  0
SPLINE
  5
1e9
100
AcDbEntity
  8
Capa_1
 62
7
100
AcDbSpline
 70
8
 71
3
 72
8
 73
4
 74
0
 40
0
 40
0
 40
0
 40
0
 40
1
 40
1
 40
1
 40
1
 10
0.604030
 20
0.546577
 30
0.0
 10
0.581888
 20
0.538132
 30
0.0
 10
0.558469
 20
0.533909
 30
0.0
 10
0.533772
 20
0.533909
 30
0.0
  0
SPLINE
  5
1ea
100
AcDbEntity
  8
Capa_1
 62
7
100
AcDbSpline
 70
8
 71
3
 72
8
 73
4
 74
0
 40
0
 40
0
 40
0
 40
0
 40
1
 40
1
 40
1
 40
1
 10
0.533772
 20
0.533909
 30
0.0
 10
0.495449
 20
0.533909
 30
0.0
 10
0.464046
 20
0.545794
 30
0.0
 10
0.439562
 20
0.569563
 30
0.0
  0
SPLINE
  5
1eb
100
AcDbEntity
  8
Capa_1
 62
7
100
AcDbSpline
 70
8
 71
3
 72
8
 73
4
 74
0
 40
0
 40
0
 40
0
 40
0
 40
1
 40
1
 40
1
 40
1
 10
0.439562
 20
0.569563
 30
0.0
 10
0.415078
 20
0.593333
 30
0.0
 10
0.402836
 20
0.624219
 30
0.0
 10
0.402836
 20
0.662223
 30
0.0
  0
SPLINE
  5
1ec
100
AcDbEntity
  8
Capa_1
 62
7
100
AcDbSpline
 70
8
 71
3
 72
8
 73
4
 74
0
 40
0
 40
0
 40
0
 40
0
 40
1
 40
1
 40
1
 40
1
 10
0.402836
 20
0.662223
 30
0.0
 10
0.402836
 20
0.685584
 30
0.0
 10
0.410607
 20
0.703019
 30
0.0
 10
0.426149
 20
0.714529
 30
0.0
  0
SPLINE
  5
1ed
100
AcDbEntity
  8
Capa_1
 62
7
100
AcDbSpline
 70
8
 71
3
 72
8
 73
4
 74
0
 40
0
 40
0
 40
0
 40
0
 40
1
 40
1
 40
1
 40
1
 10
0.426149
 20
0.714529
 30
0.0
 10
0.441691
 20
0.726107
 30
0.0
 10
0.465855
 20
0.731896
 30
0.0
 10
0.498643
 20
0.731896
 30
0.0
  0
LWPOLYLINE
  5
1ee
100
AcDbEntity
  8
Capa_1
 62
7
100
AcDbPolyline
 90
3
 70
0
 10
0.679079
 20
0.512966
 30
0.0
 10
0.664069
 20
0.576919
 30
0.0
 10
0.659279
 20
0.576919
 30
0.0
  0
SPLINE
  5
1ef
100
AcDbEntity
  8
Capa_1
 62
7
100
AcDbSpline
 70
8
 71
3
 72
8
 73
4
 74
0
 40
0
 40
0
 40
0
 40
0
 40
1
 40
1
 40
1
 40
1
 10
0.486188
 20
0.784918
 30
0.0
 10
0.450207
 20
0.784918
 30
0.0
 10
0.420720
 20
0.793465
 30
0.0
 10
0.397726
 20
0.810560
 30
0.0
  0
SPLINE
  5
1f0
100
AcDbEntity
  8
Capa_1
 62
7
100
AcDbSpline
 70
8
 71
3
 72
8
 73
4
 74
0
 40
0
 40
0
 40
0
 40
0
 40
1
 40
1
 40
1
 40
1
 10
0.397726
 20
0.810560
 30
0.0
 10
0.374732
 20
0.827859
 30
0.0
 10
0.363236
 20
0.851288
 30
0.0
 10
0.363236
 20
0.880847
 30
0.0
  0
SPLINE
  5
1f1
100
AcDbEntity
  8
Capa_1
 62
7
100
AcDbSpline
 70
8
 71
3
 72
8
 73
4
 74
0
 40
0
 40
0
 40
0
 40
0
 40
1
 40
1
 40
1
 40
1
 10
0.363236
 20
0.880847
 30
0.0
 10
0.363236
 20
0.899508
 30
0.0
 10
0.370155
 20
0.914049
 30
0.0
 10
0.383994
 20
0.924469
 30
0.0
  0
SPLINE
  5
1f2
100
AcDbEntity
  8
Capa_1
 62
7
100
AcDbSpline
 70
8
 71
3
 72
8
 73
4
 74
0
 40
0
 40
0
 40
0
 40
0
 40
1
 40
1
 40
1
 40
1
 10
0.383994
 20
0.924469
 30
0.0
 10
0.397620
 20
0.934890
 30
0.0
 10
0.417845
 20
0.940100
 30
0.0
 10
0.444671
 20
0.940100
 30
0.0
  0
SPLINE
  5
1f3
100
AcDbEntity
  8
Capa_1
 62
7
100
AcDbSpline
 70
8
 71
3
 72
8
 73
4
 74
0
 40
0
 40
0
 40
0
 40
0
 40
1
 40
1
 40
1
 40
1
 10
0.444671
 20
0.940100
 30
0.0
 10
0.466813
 20
0.940100
 30
0.0
 10
0.490446
 20
0.935877
 30
0.0
 10
0.515568
 20
0.927432
 30
0.0
  0
SPLINE
  5
1f4
100
AcDbEntity
  8
Capa_1
 62
7
100
AcDbSpline
 70
8
 71
3
 72
8
 73
4
 74
0
 40
0
 40
0
 40
0
 40
0
 40
1
 40
1
 40
1
 40
1
 10
0.515568
 20
0.927432
 30
0.0
 10
0.540691
 20
0.918987
 30
0.0
 10
0.562939
 20
0.908771
 30
0.0
 10
0.582314
 20
0.896784
 30
0.0
  0
LWPOLYLINE
  5
1f5
100
AcDbEntity
  8
Capa_1
 62
7
100
AcDbPolyline
 90
4
 70
0
 10
0.498643
 20
0.731896
 30
0.0
 10
0.528981
 20
0.731896
 30
0.0
 10
0.516526
 20
0.784918
 30
0.0
 10
0.486188
 20
0.784918
 30
0.0
  0
SPLINE
  5
1f6
100
AcDbEntity
  8
Capa_1
 62
7
100
AcDbSpline
 70
8
 71
3
 72
8
 73
4
 74
0
 40
0
 40
0
 40
0
 40
0
 40
1
 40
1
 40
1
 40
1
 10
0.571775
 20
0.964108
 30
0.0
 10
0.554743
 20
0.971872
 30
0.0
 10
0.533133
 20
0.978989
 30
0.0
 10
0.506946
 20
0.985459
 30
0.0
  0
SPLINE
  5
1f7
100
AcDbEntity
  8
Capa_1
 62
7
100
AcDbSpline
 70
8
 71
3
 72
8
 73
4
 74
0
 40
0
 40
0
 40
0
 40
0
 40
1
 40
1
 40
1
 40
1
 10
0.506946
 20
0.985459
 30
0.0
 10
0.480546
 20
0.992270
 30
0.0
 10
0.455530
 20
0.995675
 30
0.0
 10
0.431898
 20
0.995675
 30
0.0
  0
SPLINE
  5
1f8
100
AcDbEntity
  8
Capa_1
 62
7
100
AcDbSpline
 70
8
 71
3
 72
8
 73
4
 74
0
 40
0
 40
0
 40
0
 40
0
 40
1
 40
1
 40
1
 40
1
 10
0.431898
 20
0.995675
 30
0.0
 10
0.389955
 20
0.995675
 30
0.0
 10
0.356955
 20
0.986889
 30
0.0
 10
0.332897
 20
0.969318
 30
0.0
  0
SPLINE
  5
1f9
100
AcDbEntity
  8
Capa_1
 62
7
100
AcDbSpline
 70
8
 71
3
 72
8
 73
4
 74
0
 40
0
 40
0
 40
0
 40
0
 40
1
 40
1
 40
1
 40
1
 10
0.332897
 20
0.969318
 30
0.0
 10
0.308626
 20
0.951950
 30
0.0
 10
0.296491
 20
0.928181
 30
0.0
 10
0.296491
 20
0.898010
 30
0.0
  0
SPLINE
  5
1fa
100
AcDbEntity
  8
Capa_1
 62
7
100
AcDbSpline
 70
8
 71
3
 72
8
 73
4
 74
0
 40
0
 40
0
 40
0
 40
0
 40
1
 40
1
 40
1
 40
1
 10
0.296491
 20
0.898010
 30
0.0
 10
0.296491
 20
0.865114
 30
0.0
 10
0.308200
 20
0.835896
 30
0.0
 10
0.331620
 20
0.810356
 30
0.0
  0
SPLINE
  5
1fb
100
AcDbEntity
  8
Capa_1
 62
7
100
AcDbSpline
 70
8
 71
3
 72
8
 73
4
 74
0
 40
0
 40
0
 40
0
 40
0
 40
1
 40
1
 40
1
 40
1
 10
0.331620
 20
0.810356
 30
0.0
 10
0.354826
 20
0.785020
 30
0.0
 10
0.384207
 20
0.768913
 30
0.0
 10
0.419762
 20
0.762034
 30
0.0
  0
LWPOLYLINE
  5
1fc
100
AcDbEntity
  8
Capa_1
 62
7
100
AcDbPolyline
 90
3
 70
0
 10
0.582314
 20
0.896784
 30
0.0
 10
0.585508
 20
0.896784
 30
0.0
 10
0.571775
 20
0.964108
 30
0.0
  0
SPLINE
  5
1fd
100
AcDbEntity
  8
Capa_1
 62
7
100
AcDbSpline
 70
8
 71
3
 72
8
 73
4
 74
0
 40
0
 40
0
 40
0
 40
0
 40
1
 40
1
 40
1
 40
1
 10
0.419762
 20
0.758969
 30
0.0
 10
0.411459
 20
0.756926
 30
0.0
 10
0.402304
 20
0.753520
 30
0.0
 10
0.392297
 20
0.748753
 30
0.0
  0
SPLINE
  5
1fe
100
AcDbEntity
  8
Capa_1
 62
7
100
AcDbSpline
 70
8
 71
3
 72
8
 73
4
 74
0
 40
0
 40
0
 40
0
 40
0
 40
1
 40
1
 40
1
 40
1
 10
0.392297
 20
0.748753
 30
0.0
 10
0.382078
 20
0.743985
 30
0.0
 10
0.373136
 20
0.737992
 30
0.0
 10
0.365471
 20
0.730773
 30
0.0
  0
SPLINE
  5
1ff
100
AcDbEntity
  8
Capa_1
 62
7
100
AcDbSpline
 70
8
 71
3
 72
8
 73
4
 74
0
 40
0
 40
0
 40
0
 40
0
 40
1
 40
1
 40
1
 40
1
 10
0.365471
 20
0.730773
 30
0.0
 10
0.357381
 20
0.723213
 30
0.0
 10
0.350675
 20
0.713644
 30
0.0
 10
0.345352
 20
0.702066
 30
0.0
  0
SPLINE
  5
200
100
AcDbEntity
  8
Capa_1
 62
7
100
AcDbSpline
 70
8
 71
3
 72
8
 73
4
 74
0
 40
0
 40
0
 40
0
 40
0
 40
1
 40
1
 40
1
 40
1
 10
0.345352
 20
0.702066
 30
0.0
 10
0.339816
 20
0.690487
 30
0.0
 10
0.337049
 20
0.676832
 30
0.0
 10
0.337049
 20
0.661099
 30
0.0
  0
SPLINE
  5
201
100
AcDbEntity
  8
Capa_1
 62
7
100
AcDbSpline
 70
8
 71
3
 72
8
 73
4
 74
0
 40
0
 40
0
 40
0
 40
0
 40
1
 40
1
 40
1
 40
1
 10
0.337049
 20
0.661099
 30
0.0
 10
0.337049
 20
0.636853
 30
0.0
 10
0.342052
 20
0.613424
 30
0.0
 10
0.352058
 20
0.590813
 30
0.0
  0
SPLINE
  5
202
100
AcDbEntity
  8
Capa_1
 62
7
100
AcDbSpline
 70
8
 71
3
 72
8
 73
4
 74
0
 40
0
 40
0
 40
0
 40
0
 40
1
 40
1
 40
1
 40
1
 10
0.352058
 20
0.590813
 30
0.0
 10
0.362065
 20
0.568337
 30
0.0
 10
0.375903
 20
0.548995
 30
0.0
 10
0.393574
 20
0.532785
 30
0.0
  0
LWPOLYLINE
  5
203
100
AcDbEntity
  8
Capa_1
 62
7
100
AcDbPolyline
 90
2
 70
0
 10
0.419762
 20
0.762034
 30
0.0
 10
0.419762
 20
0.758969
 30
0.0
  0
LWPOLYLINE
  5
204
100
AcDbEntity
  8
Capa_1
 62
7
100
AcDbPolyline
 90
2
 70
0
 10
0.393574
 20
0.532785
 30
0.0
 10
0.393575
 20
0.532683
 30
0.0
  0
LWPOLYLINE
  5
205
100
AcDbEntity
  8
Capa_1
 62
7
100
AcDbPolyline
 90
4
 70
1
 10
1.968679
 20
10.918030
 30
0.0
 10
3.844433
 20
10.918030
 30
0.0
 10
3.844433
 20
1.042276
 30
0.0
 10
1.968679
 20
1.042276
 30
0.0
  0
SPLINE
  5
206
100
AcDbEntity
  8
Capa_1
 62
7
100
AcDbSpline
 70
8
 71
3
 72
8
 73
4
 74
0
 40
0
 40
0
 40
0
 40
0
 40
1
 40
1
 40
1
 40
1
 10
2.680164
 20
10.322410
 30
0.0
 10
2.680164
 20
10.279299
 30
0.0
 10
2.686445
 20
10.237747
 30
0.0
 10
2.699006
 20
10.197754
 30
0.0
  0
SPLINE
  5
207
100
AcDbEntity
  8
Capa_1
 62
7
100
AcDbSpline
 70
8
 71
3
 72
8
 73
4
 74
0
 40
0
 40
0
 40
0
 40
0
 40
1
 40
1
 40
1
 40
1
 10
2.699006
 20
10.197754
 30
0.0
 10
2.711354
 20
10.157775
 30
0.0
 10
2.729345
 20
10.122557
 30
0.0
 10
2.752977
 20
10.092099
 30
0.0
  0
SPLINE
  5
208
100
AcDbEntity
  8
Capa_1
 62
7
100
AcDbSpline
 70
8
 71
3
 72
8
 73
4
 74
0
 40
0
 40
0
 40
0
 40
0
 40
1
 40
1
 40
1
 40
1
 10
2.752977
 20
10.092099
 30
0.0
 10
2.777248
 20
10.060770
 30
0.0
 10
2.806415
 20
10.036115
 30
0.0
 10
2.840480
 20
10.018135
 30
0.0
  0
SPLINE
  5
209
100
AcDbEntity
  8
Capa_1
 62
7
100
AcDbSpline
 70
8
 71
3
 72
8
 73
4
 74
0
 40
0
 40
0
 40
0
 40
0
 40
1
 40
1
 40
1
 40
1
 10
2.840480
 20
10.018135
 30
0.0
 10
2.874545
 20
10.000359
 30
0.0
 10
2.912974
 20
9.991471
 30
0.0
 10
2.955768
 20
9.991471
 30
0.0
  0
SPLINE
  5
20a
100
AcDbEntity
  8
Capa_1
 62
7
100
AcDbSpline
 70
8
 71
3
 72
8
 73
4
 74
0
 40
0
 40
0
 40
0
 40
0
 40
1
 40
1
 40
1
 40
1
 10
2.955768
 20
9.991471
 30
0.0
 10
3.012400
 20
9.991471
 30
0.0
 10
3.056684
 20
10.007579
 30
0.0
 10
3.088619
 20
10.039793
 30
0.0
  0
SPLINE
  5
20b
100
AcDbEntity
  8
Capa_1
 62
7
100
AcDbSpline
 70
8
 71
3
 72
8
 73
4
 74
0
 40
0
 40
0
 40
0
 40
0
 40
1
 40
1
 40
1
 40
1
 10
3.088619
 20
10.039793
 30
0.0
 10
3.120555
 20
10.072212
 30
0.0
 10
3.136522
 20
10.118208
 30
0.0
 10
3.136522
 20
10.177782
 30
0.0
  0
SPLINE
  5
20c
100
AcDbEntity
  8
Capa_1
 62
7
100
AcDbSpline
 70
8
 71
3
 72
8
 73
4
 74
0
 40
0
 40
0
 40
0
 40
0
 40
1
 40
1
 40
1
 40
1
 10
3.136522
 20
10.177782
 30
0.0
 10
3.136522
 20
10.223141
 30
0.0
 10
3.130135
 20
10.265469
 30
0.0
 10
3.117361
 20
10.304767
 30
0.0
  0
SPLINE
  5
20d
100
AcDbEntity
  8
Capa_1
 62
7
100
AcDbSpline
 70
8
 71
3
 72
8
 73
4
 74
0
 40
0
 40
0
 40
0
 40
0
 40
1
 40
1
 40
1
 40
1
 10
3.117361
 20
10.304767
 30
0.0
 10
3.104587
 20
10.344065
 30
0.0
 10
3.086171
 20
10.379174
 30
0.0
 10
3.062113
 20
10.410095
 30
0.0
  0
SPLINE
  5
20e
100
AcDbEntity
  8
Capa_1
 62
7
100
AcDbSpline
 70
8
 71
3
 72
8
 73
4
 74
0
 40
0
 40
0
 40
0
 40
0
 40
1
 40
1
 40
1
 40
1
 10
3.062113
 20
10.410095
 30
0.0
 10
3.038694
 20
10.439858
 30
0.0
 10
3.009739
 20
10.463627
 30
0.0
 10
2.975248
 20
10.481403
 30
0.0
  0
SPLINE
  5
20f
100
AcDbEntity
  8
Capa_1
 62
7
100
AcDbSpline
 70
8
 71
3
 72
8
 73
4
 74
0
 40
0
 40
0
 40
0
 40
0
 40
1
 40
1
 40
1
 40
1
 10
2.975248
 20
10.481403
 30
0.0
 10
2.940545
 20
10.499383
 30
0.0
 10
2.902541
 20
10.508373
 30
0.0
 10
2.861238
 20
10.508373
 30
0.0
  0
SPLINE
  5
210
100
AcDbEntity
  8
Capa_1
 62
7
100
AcDbSpline
 70
8
 71
3
 72
8
 73
4
 74
0
 40
0
 40
0
 40
0
 40
0
 40
1
 40
1
 40
1
 40
1
 10
2.861238
 20
10.508373
 30
0.0
 10
2.804818
 20
10.508373
 30
0.0
 10
2.760534
 20
10.492266
 30
0.0
 10
2.728386
 20
10.460051
 30
0.0
  0
SPLINE
  5
211
100
AcDbEntity
  8
Capa_1
 62
7
100
AcDbSpline
 70
8
 71
3
 72
8
 73
4
 74
0
 40
0
 40
0
 40
0
 40
0
 40
1
 40
1
 40
1
 40
1
 10
2.728386
 20
10.460051
 30
0.0
 10
2.696237
 20
10.428041
 30
0.0
 10
2.680163
 20
10.382154
 30
0.0
 10
2.680163
 20
10.322390
 30
0.0
  0
LWPOLYLINE
  5
212
100
AcDbEntity
  8
Capa_1
 62
7
100
AcDbPolyline
 90
12
 70
1
 10
3.264585
 20
10.001769
 30
0.0
 10
3.453005
 20
10.001769
 30
0.0
 10
3.442467
 20
10.050091
 30
0.0
 10
3.380192
 20
10.050091
 30
0.0
 10
3.291411
 20
10.449723
 30
0.0
 10
3.353686
 20
10.449723
 30
0.0
 10
3.343148
 20
10.498045
 30
0.0
 10
3.154728
 20
10.498045
 30
0.0
 10
3.165266
 20
10.449723
 30
0.0
 10
3.227540
 20
10.449723
 30
0.0
 10
3.316321
 20
10.050091
 30
0.0
 10
3.254047
 20
10.050091
 30
0.0
  0
SPLINE
  5
213
100
AcDbEntity
  8
Capa_1
 62
7
100
AcDbSpline
 70
8
 71
3
 72
8
 73
4
 74
0
 40
0
 40
0
 40
0
 40
0
 40
1
 40
1
 40
1
 40
1
 10
2.801200
 20
10.125097
 30
0.0
 10
2.783316
 20
10.150433
 30
0.0
 10
2.769797
 20
10.178664
 30
0.0
 10
2.760642
 20
10.209789
 30
0.0
  0
SPLINE
  5
214
100
AcDbEntity
  8
Capa_1
 62
7
100
AcDbSpline
 70
8
 71
3
 72
8
 73
4
 74
0
 40
0
 40
0
 40
0
 40
0
 40
1
 40
1
 40
1
 40
1
 10
2.760642
 20
10.209789
 30
0.0
 10
2.751487
 20
10.241118
 30
0.0
 10
2.746910
 20
10.275560
 30
0.0
 10
2.746910
 20
10.313114
 30
0.0
  0
SPLINE
  5
215
100
AcDbEntity
  8
Capa_1
 62
7
100
AcDbSpline
 70
8
 71
3
 72
8
 73
4
 74
0
 40
0
 40
0
 40
0
 40
0
 40
1
 40
1
 40
1
 40
1
 10
2.746910
 20
10.313114
 30
0.0
 10
2.746910
 20
10.358473
 30
0.0
 10
2.757874
 20
10.393249
 30
0.0
 10
2.779803
 20
10.417440
 30
0.0
  0
SPLINE
  5
216
100
AcDbEntity
  8
Capa_1
 62
7
100
AcDbSpline
 70
8
 71
3
 72
8
 73
4
 74
0
 40
0
 40
0
 40
0
 40
0
 40
1
 40
1
 40
1
 40
1
 10
2.779803
 20
10.417440
 30
0.0
 10
2.801519
 20
10.441891
 30
0.0
 10
2.831964
 20
10.454116
 30
0.0
 10
2.871139
 20
10.454116
 30
0.0
  0
SPLINE
  5
217
100
AcDbEntity
  8
Capa_1
 62
7
100
AcDbSpline
 70
8
 71
3
 72
8
 73
4
 74
0
 40
0
 40
0
 40
0
 40
0
 40
1
 40
1
 40
1
 40
1
 10
2.871139
 20
10.454116
 30
0.0
 10
2.901584
 20
10.454116
 30
0.0
 10
2.929049
 20
10.446794
 30
0.0
 10
2.953532
 20
10.432151
 30
0.0
  0
SPLINE
  5
218
100
AcDbEntity
  8
Capa_1
 62
7
100
AcDbSpline
 70
8
 71
3
 72
8
 73
4
 74
0
 40
0
 40
0
 40
0
 40
0
 40
1
 40
1
 40
1
 40
1
 10
2.953532
 20
10.432151
 30
0.0
 10
2.978016
 20
10.417713
 30
0.0
 10
2.999094
 20
10.398064
 30
0.0
 10
3.016765
 20
10.373205
 30
0.0
  0
SPLINE
  5
219
100
AcDbEntity
  8
Capa_1
 62
7
100
AcDbSpline
 70
8
 71
3
 72
8
 73
4
 74
0
 40
0
 40
0
 40
0
 40
0
 40
1
 40
1
 40
1
 40
1
 10
3.016765
 20
10.373205
 30
0.0
 10
3.033797
 20
10.348754
 30
0.0
 10
3.046891
 20
10.320320
 30
0.0
 10
3.056045
 20
10.287901
 30
0.0
  0
SPLINE
  5
21a
100
AcDbEntity
  8
Capa_1
 62
7
100
AcDbSpline
 70
8
 71
3
 72
8
 73
4
 74
0
 40
0
 40
0
 40
0
 40
0
 40
1
 40
1
 40
1
 40
1
 10
3.056045
 20
10.287901
 30
0.0
 10
3.065200
 20
10.255686
 30
0.0
 10
3.069778
 20
10.222484
 30
0.0
 10
3.069778
 20
10.188294
 30
0.0
  0
SPLINE
  5
21b
100
AcDbEntity
  8
Capa_1
 62
7
100
AcDbSpline
 70
8
 71
3
 72
8
 73
4
 74
0
 40
0
 40
0
 40
0
 40
0
 40
1
 40
1
 40
1
 40
1
 10
3.069778
 20
10.188294
 30
0.0
 10
3.069778
 20
10.142526
 30
0.0
 10
3.058920
 20
10.107308
 30
0.0
 10
3.037204
 20
10.082639
 30
0.0
  0
SPLINE
  5
21c
100
AcDbEntity
  8
Capa_1
 62
7
100
AcDbSpline
 70
8
 71
3
 72
8
 73
4
 74
0
 40
0
 40
0
 40
0
 40
0
 40
1
 40
1
 40
1
 40
1
 10
3.037204
 20
10.082639
 30
0.0
 10
3.015275
 20
10.058189
 30
0.0
 10
2.984616
 20
10.045964
 30
0.0
 10
2.945229
 20
10.045964
 30
0.0
  0
SPLINE
  5
21d
100
AcDbEntity
  8
Capa_1
 62
7
100
AcDbSpline
 70
8
 71
3
 72
8
 73
4
 74
0
 40
0
 40
0
 40
0
 40
0
 40
1
 40
1
 40
1
 40
1
 10
2.945229
 20
10.045964
 30
0.0
 10
2.915209
 20
10.045964
 30
0.0
 10
2.887958
 20
10.053183
 30
0.0
 10
2.863473
 20
10.067622
 30
0.0
  0
SPLINE
  5
21e
100
AcDbEntity
  8
Capa_1
 62
7
100
AcDbSpline
 70
8
 71
3
 72
8
 73
4
 74
0
 40
0
 40
0
 40
0
 40
0
 40
1
 40
1
 40
1
 40
1
 10
2.863473
 20
10.067622
 30
0.0
 10
2.838776
 20
10.082061
 30
0.0
 10
2.818018
 20
10.101267
 30
0.0
 10
2.801199
 20
10.125240
 30
0.0
  0
LWPOLYLINE
  5
21f
100
AcDbEntity
  8
Capa_1
 62
7
100
AcDbPolyline
 90
1
 70
1
 10
2.680163
 20
10.322390
 30
0.0
  0
LWPOLYLINE
  5
220
100
AcDbEntity
  8
Capa_1
 62
7
100
AcDbPolyline
 90
2
 70
0
 10
2.801199
 20
10.125240
 30
0.0
 10
2.801200
 20
10.125097
 30
0.0
  0
SPLINE
  5
221
100
AcDbEntity
  8
Capa_1
 62
7
100
AcDbSpline
 70
8
 71
3
 72
8
 73
4
 74
0
 40
0
 40
0
 40
0
 40
0
 40
1
 40
1
 40
1
 40
1
 10
2.521445
 20
10.430404
 30
0.0
 10
2.484613
 20
10.430404
 30
0.0
 10
2.456084
 20
10.435751
 30
0.0
 10
2.435858
 20
10.446444
 30
0.0
  0
SPLINE
  5
222
100
AcDbEntity
  8
Capa_1
 62
7
100
AcDbSpline
 70
8
 71
3
 72
8
 73
4
 74
0
 40
0
 40
0
 40
0
 40
0
 40
1
 40
1
 40
1
 40
1
 10
2.435858
 20
10.446444
 30
0.0
 10
2.415419
 20
10.457341
 30
0.0
 10
2.401793
 20
10.475117
 30
0.0
 10
2.394980
 20
10.499772
 30
0.0
  0
LWPOLYLINE
  5
223
100
AcDbEntity
  8
Capa_1
 62
7
100
AcDbPolyline
 90
7
 70
0
 10
2.356976
 20
10.001769
 30
0.0
 10
2.615015
 20
10.001769
 30
0.0
 10
2.604157
 20
10.050091
 30
0.0
 10
2.506434
 20
10.050091
 30
0.0
 10
2.431705
 20
10.387395
 30
0.0
 10
2.530705
 20
10.387395
 30
0.0
 10
2.521445
 20
10.430404
 30
0.0
  0
LWPOLYLINE
  5
224
100
AcDbEntity
  8
Capa_1
 62
7
100
AcDbPolyline
 90
5
 70
0
 10
2.394980
 20
10.499772
 30
0.0
 10
2.345160
 20
10.499772
 30
0.0
 10
2.444480
 20
10.050142
 30
0.0
 10
2.346118
 20
10.050142
 30
0.0
 10
2.356976
 20
10.001769
 30
0.0
  0
SPLINE
  5
225
100
AcDbEntity
  8
Capa_1
 62
7
100
AcDbSpline
 70
8
 71
3
 72
8
 73
4
 74
0
 40
0
 40
0
 40
0
 40
0
 40
1
 40
1
 40
1
 40
1
 10
2.680164
 20
8.615888
 30
0.0
 10
2.680164
 20
8.572777
 30
0.0
 10
2.686445
 20
8.531225
 30
0.0
 10
2.699006
 20
8.491232
 30
0.0
  0
SPLINE
  5
226
100
AcDbEntity
  8
Capa_1
 62
7
100
AcDbSpline
 70
8
 71
3
 72
8
 73
4
 74
0
 40
0
 40
0
 40
0
 40
0
 40
1
 40
1
 40
1
 40
1
 10
2.699006
 20
8.491232
 30
0.0
 10
2.711354
 20
8.451253
 30
0.0
 10
2.729345
 20
8.416035
 30
0.0
 10
2.752977
 20
8.385578
 30
0.0
  0
SPLINE
  5
227
100
AcDbEntity
  8
Capa_1
 62
7
100
AcDbSpline
 70
8
 71
3
 72
8
 73
4
 74
0
 40
0
 40
0
 40
0
 40
0
 40
1
 40
1
 40
1
 40
1
 10
2.752977
 20
8.385578
 30
0.0
 10
2.777248
 20
8.354248
 30
0.0
 10
2.806415
 20
8.329593
 30
0.0
 10
2.840480
 20
8.311613
 30
0.0
  0
SPLINE
  5
228
100
AcDbEntity
  8
Capa_1
 62
7
100
AcDbSpline
 70
8
 71
3
 72
8
 73
4
 74
0
 40
0
 40
0
 40
0
 40
0
 40
1
 40
1
 40
1
 40
1
 10
2.840480
 20
8.311613
 30
0.0
 10
2.874545
 20
8.293837
 30
0.0
 10
2.912974
 20
8.284949
 30
0.0
 10
2.955768
 20
8.284949
 30
0.0
  0
SPLINE
  5
229
100
AcDbEntity
  8
Capa_1
 62
7
100
AcDbSpline
 70
8
 71
3
 72
8
 73
4
 74
0
 40
0
 40
0
 40
0
 40
0
 40
1
 40
1
 40
1
 40
1
 10
2.955768
 20
8.284949
 30
0.0
 10
3.012400
 20
8.284949
 30
0.0
 10
3.056684
 20
8.301057
 30
0.0
 10
3.088619
 20
8.333271
 30
0.0
  0
SPLINE
  5
22a
100
AcDbEntity
  8
Capa_1
 62
7
100
AcDbSpline
 70
8
 71
3
 72
8
 73
4
 74
0
 40
0
 40
0
 40
0
 40
0
 40
1
 40
1
 40
1
 40
1
 10
3.088619
 20
8.333271
 30
0.0
 10
3.120555
 20
8.365690
 30
0.0
 10
3.136522
 20
8.411686
 30
0.0
 10
3.136522
 20
8.471260
 30
0.0
  0
SPLINE
  5
22b
100
AcDbEntity
  8
Capa_1
 62
7
100
AcDbSpline
 70
8
 71
3
 72
8
 73
4
 74
0
 40
0
 40
0
 40
0
 40
0
 40
1
 40
1
 40
1
 40
1
 10
3.136522
 20
8.471260
 30
0.0
 10
3.136522
 20
8.516619
 30
0.0
 10
3.130135
 20
8.558948
 30
0.0
 10
3.117361
 20
8.598245
 30
0.0
  0
SPLINE
  5
22c
100
AcDbEntity
  8
Capa_1
 62
7
100
AcDbSpline
 70
8
 71
3
 72
8
 73
4
 74
0
 40
0
 40
0
 40
0
 40
0
 40
1
 40
1
 40
1
 40
1
 10
3.117361
 20
8.598245
 30
0.0
 10
3.104587
 20
8.637543
 30
0.0
 10
3.086171
 20
8.672652
 30
0.0
 10
3.062113
 20
8.703573
 30
0.0
  0
SPLINE
  5
22d
100
AcDbEntity
  8
Capa_1
 62
7
100
AcDbSpline
 70
8
 71
3
 72
8
 73
4
 74
0
 40
0
 40
0
 40
0
 40
0
 40
1
 40
1
 40
1
 40
1
 10
3.062113
 20
8.703573
 30
0.0
 10
3.038694
 20
8.733336
 30
0.0
 10
3.009739
 20
8.757105
 30
0.0
 10
2.975248
 20
8.774881
 30
0.0
  0
SPLINE
  5
22e
100
AcDbEntity
  8
Capa_1
 62
7
100
AcDbSpline
 70
8
 71
3
 72
8
 73
4
 74
0
 40
0
 40
0
 40
0
 40
0
 40
1
 40
1
 40
1
 40
1
 10
2.975248
 20
8.774881
 30
0.0
 10
2.940545
 20
8.792861
 30
0.0
 10
2.902541
 20
8.801851
 30
0.0
 10
2.861238
 20
8.801851
 30
0.0
  0
SPLINE
  5
22f
100
AcDbEntity
  8
Capa_1
 62
7
100
AcDbSpline
 70
8
 71
3
 72
8
 73
4
 74
0
 40
0
 40
0
 40
0
 40
0
 40
1
 40
1
 40
1
 40
1
 10
2.861238
 20
8.801851
 30
0.0
 10
2.804818
 20
8.801851
 30
0.0
 10
2.760534
 20
8.785744
 30
0.0
 10
2.728386
 20
8.753529
 30
0.0
  0
SPLINE
  5
230
100
AcDbEntity
  8
Capa_1
 62
7
100
AcDbSpline
 70
8
 71
3
 72
8
 73
4
 74
0
 40
0
 40
0
 40
0
 40
0
 40
1
 40
1
 40
1
 40
1
 10
2.728386
 20
8.753529
 30
0.0
 10
2.696237
 20
8.721519
 30
0.0
 10
2.680163
 20
8.675632
 30
0.0
 10
2.680163
 20
8.615868
 30
0.0
  0
LWPOLYLINE
  5
231
100
AcDbEntity
  8
Capa_1
 62
7
100
AcDbPolyline
 90
12
 70
1
 10
3.264585
 20
8.295247
 30
0.0
 10
3.453005
 20
8.295247
 30
0.0
 10
3.442467
 20
8.343569
 30
0.0
 10
3.380192
 20
8.343569
 30
0.0
 10
3.291411
 20
8.743201
 30
0.0
 10
3.353686
 20
8.743201
 30
0.0
 10
3.343148
 20
8.791523
 30
0.0
 10
3.154728
 20
8.791523
 30
0.0
 10
3.165266
 20
8.743201
 30
0.0
 10
3.227540
 20
8.743201
 30
0.0
 10
3.316321
 20
8.343569
 30
0.0
 10
3.254047
 20
8.343569
 30
0.0
  0
SPLINE
  5
232
100
AcDbEntity
  8
Capa_1
 62
7
100
AcDbSpline
 70
8
 71
3
 72
8
 73
4
 74
0
 40
0
 40
0
 40
0
 40
0
 40
1
 40
1
 40
1
 40
1
 10
2.801200
 20
8.418575
 30
0.0
 10
2.783316
 20
8.443911
 30
0.0
 10
2.769797
 20
8.472142
 30
0.0
 10
2.760642
 20
8.503267
 30
0.0
  0
SPLINE
  5
233
100
AcDbEntity
  8
Capa_1
 62
7
100
AcDbSpline
 70
8
 71
3
 72
8
 73
4
 74
0
 40
0
 40
0
 40
0
 40
0
 40
1
 40
1
 40
1
 40
1
 10
2.760642
 20
8.503267
 30
0.0
 10
2.751487
 20
8.534596
 30
0.0
 10
2.746910
 20
8.569038
 30
0.0
 10
2.746910
 20
8.606592
 30
0.0
  0
SPLINE
  5
234
100
AcDbEntity
  8
Capa_1
 62
7
100
AcDbSpline
 70
8
 71
3
 72
8
 73
4
 74
0
 40
0
 40
0
 40
0
 40
0
 40
1
 40
1
 40
1
 40
1
 10
2.746910
 20
8.606592
 30
0.0
 10
2.746910
 20
8.651951
 30
0.0
 10
2.757874
 20
8.686727
 30
0.0
 10
2.779803
 20
8.710918
 30
0.0
  0
SPLINE
  5
235
100
AcDbEntity
  8
Capa_1
 62
7
100
AcDbSpline
 70
8
 71
3
 72
8
 73
4
 74
0
 40
0
 40
0
 40
0
 40
0
 40
1
 40
1
 40
1
 40
1
 10
2.779803
 20
8.710918
 30
0.0
 10
2.801519
 20
8.735369
 30
0.0
 10
2.831964
 20
8.747594
 30
0.0
 10
2.871139
 20
8.747594
 30
0.0
  0
SPLINE
  5
236
100
AcDbEntity
  8
Capa_1
 62
7
100
AcDbSpline
 70
8
 71
3
 72
8
 73
4
 74
0
 40
0
 40
0
 40
0
 40
0
 40
1
 40
1
 40
1
 40
1
 10
2.871139
 20
8.747594
 30
0.0
 10
2.901584
 20
8.747594
 30
0.0
 10
2.929049
 20
8.740272
 30
0.0
 10
2.953532
 20
8.725629
 30
0.0
  0
SPLINE
  5
237
100
AcDbEntity
  8
Capa_1
 62
7
100
AcDbSpline
 70
8
 71
3
 72
8
 73
4
 74
0
 40
0
 40
0
 40
0
 40
0
 40
1
 40
1
 40
1
 40
1
 10
2.953532
 20
8.725629
 30
0.0
 10
2.978016
 20
8.711191
 30
0.0
 10
2.999094
 20
8.691542
 30
0.0
 10
3.016765
 20
8.666683
 30
0.0
  0
SPLINE
  5
238
100
AcDbEntity
  8
Capa_1
 62
7
100
AcDbSpline
 70
8
 71
3
 72
8
 73
4
 74
0
 40
0
 40
0
 40
0
 40
0
 40
1
 40
1
 40
1
 40
1
 10
3.016765
 20
8.666683
 30
0.0
 10
3.033797
 20
8.642232
 30
0.0
 10
3.046891
 20
8.613798
 30
0.0
 10
3.056045
 20
8.581379
 30
0.0
  0
SPLINE
  5
239
100
AcDbEntity
  8
Capa_1
 62
7
100
AcDbSpline
 70
8
 71
3
 72
8
 73
4
 74
0
 40
0
 40
0
 40
0
 40
0
 40
1
 40
1
 40
1
 40
1
 10
3.056045
 20
8.581379
 30
0.0
 10
3.065200
 20
8.549164
 30
0.0
 10
3.069778
 20
8.515928
 30
0.0
 10
3.069778
 20
8.481670
 30
0.0
  0
SPLINE
  5
23a
100
AcDbEntity
  8
Capa_1
 62
7
100
AcDbSpline
 70
8
 71
3
 72
8
 73
4
 74
0
 40
0
 40
0
 40
0
 40
0
 40
1
 40
1
 40
1
 40
1
 10
3.069778
 20
8.481670
 30
0.0
 10
3.069778
 20
8.435902
 30
0.0
 10
3.058920
 20
8.400684
 30
0.0
 10
3.037204
 20
8.376015
 30
0.0
  0
SPLINE
  5
23b
100
AcDbEntity
  8
Capa_1
 62
7
100
AcDbSpline
 70
8
 71
3
 72
8
 73
4
 74
0
 40
0
 40
0
 40
0
 40
0
 40
1
 40
1
 40
1
 40
1
 10
3.037204
 20
8.376015
 30
0.0
 10
3.015275
 20
8.351565
 30
0.0
 10
2.984616
 20
8.339340
 30
0.0
 10
2.945229
 20
8.339340
 30
0.0
  0
SPLINE
  5
23c
100
AcDbEntity
  8
Capa_1
 62
7
100
AcDbSpline
 70
8
 71
3
 72
8
 73
4
 74
0
 40
0
 40
0
 40
0
 40
0
 40
1
 40
1
 40
1
 40
1
 10
2.945229
 20
8.339340
 30
0.0
 10
2.915209
 20
8.339340
 30
0.0
 10
2.887958
 20
8.346559
 30
0.0
 10
2.863473
 20
8.360998
 30
0.0
  0
SPLINE
  5
23d
100
AcDbEntity
  8
Capa_1
 62
7
100
AcDbSpline
 70
8
 71
3
 72
8
 73
4
 74
0
 40
0
 40
0
 40
0
 40
0
 40
1
 40
1
 40
1
 40
1
 10
2.863473
 20
8.360998
 30
0.0
 10
2.838776
 20
8.375436
 30
0.0
 10
2.818018
 20
8.394643
 30
0.0
 10
2.801199
 20
8.418616
 30
0.0
  0
LWPOLYLINE
  5
23e
100
AcDbEntity
  8
Capa_1
 62
7
100
AcDbPolyline
 90
1
 70
1
 10
2.680163
 20
8.615868
 30
0.0
  0
LWPOLYLINE
  5
23f
100
AcDbEntity
  8
Capa_1
 62
7
100
AcDbPolyline
 90
1
 70
1
 10
2.801199
 20
8.418616
 30
0.0
  0
SPLINE
  5
240
100
AcDbEntity
  8
Capa_1
 62
7
100
AcDbSpline
 70
8
 71
3
 72
8
 73
4
 74
0
 40
0
 40
0
 40
0
 40
0
 40
1
 40
1
 40
1
 40
1
 10
2.638648
 20
8.364921
 30
0.0
 10
2.608628
 20
8.387805
 30
0.0
 10
2.583186
 20
8.407249
 30
0.0
 10
2.562322
 20
8.423254
 30
0.0
  0
SPLINE
  5
241
100
AcDbEntity
  8
Capa_1
 62
7
100
AcDbSpline
 70
8
 71
3
 72
8
 73
4
 74
0
 40
0
 40
0
 40
0
 40
0
 40
1
 40
1
 40
1
 40
1
 10
2.562322
 20
8.423254
 30
0.0
 10
2.541245
 20
8.439464
 30
0.0
 10
2.515909
 20
8.459896
 30
0.0
 10
2.486315
 20
8.484551
 30
0.0
  0
SPLINE
  5
242
100
AcDbEntity
  8
Capa_1
 62
7
100
AcDbSpline
 70
8
 71
3
 72
8
 73
4
 74
0
 40
0
 40
0
 40
0
 40
0
 40
1
 40
1
 40
1
 40
1
 10
2.486315
 20
8.484551
 30
0.0
 10
2.434366
 20
8.527867
 30
0.0
 10
2.397747
 20
8.564308
 30
0.0
 10
2.376457
 20
8.593873
 30
0.0
  0
SPLINE
  5
243
100
AcDbEntity
  8
Capa_1
 62
7
100
AcDbSpline
 70
8
 71
3
 72
8
 73
4
 74
0
 40
0
 40
0
 40
0
 40
0
 40
1
 40
1
 40
1
 40
1
 10
2.376457
 20
8.593873
 30
0.0
 10
2.354953
 20
8.623636
 30
0.0
 10
2.344202
 20
8.652513
 30
0.0
 10
2.344202
 20
8.680505
 30
0.0
  0
SPLINE
  5
244
100
AcDbEntity
  8
Capa_1
 62
7
100
AcDbSpline
 70
8
 71
3
 72
8
 73
4
 74
0
 40
0
 40
0
 40
0
 40
0
 40
1
 40
1
 40
1
 40
1
 10
2.344202
 20
8.680505
 30
0.0
 10
2.344202
 20
8.702299
 30
0.0
 10
2.351653
 20
8.718747
 30
0.0
 10
2.366557
 20
8.729849
 30
0.0
  0
SPLINE
  5
245
100
AcDbEntity
  8
Capa_1
 62
7
100
AcDbSpline
 70
8
 71
3
 72
8
 73
4
 74
0
 40
0
 40
0
 40
0
 40
0
 40
1
 40
1
 40
1
 40
1
 10
2.366557
 20
8.729849
 30
0.0
 10
2.381247
 20
8.740950
 30
0.0
 10
2.400195
 20
8.746501
 30
0.0
 10
2.423401
 20
8.746501
 30
0.0
  0
SPLINE
  5
246
100
AcDbEntity
  8
Capa_1
 62
7
100
AcDbSpline
 70
8
 71
3
 72
8
 73
4
 74
0
 40
0
 40
0
 40
0
 40
0
 40
1
 40
1
 40
1
 40
1
 10
2.423401
 20
8.746501
 30
0.0
 10
2.442350
 20
8.746501
 30
0.0
 10
2.464066
 20
8.742721
 30
0.0
 10
2.488550
 20
8.735161
 30
0.0
  0
SPLINE
  5
247
100
AcDbEntity
  8
Capa_1
 62
7
100
AcDbSpline
 70
8
 71
3
 72
8
 73
4
 74
0
 40
0
 40
0
 40
0
 40
0
 40
1
 40
1
 40
1
 40
1
 10
2.488550
 20
8.735161
 30
0.0
 10
2.512821
 20
8.727805
 30
0.0
 10
2.536666
 20
8.717147
 30
0.0
 10
2.560085
 20
8.703185
 30
0.0
  0
LWPOLYLINE
  5
248
100
AcDbEntity
  8
Capa_1
 62
7
100
AcDbPolyline
 90
3
 70
0
 10
2.331427
 20
8.295247
 30
0.0
 10
2.653657
 20
8.295247
 30
0.0
 10
2.638648
 20
8.364921
 30
0.0
  0
SPLINE
  5
249
100
AcDbEntity
  8
Capa_1
 62
7
100
AcDbSpline
 70
8
 71
3
 72
8
 73
4
 74
0
 40
0
 40
0
 40
0
 40
0
 40
1
 40
1
 40
1
 40
1
 10
2.550502
 20
8.770815
 30
0.0
 10
2.533683
 20
8.778852
 30
0.0
 10
2.512179
 20
8.785969
 30
0.0
 10
2.485992
 20
8.792167
 30
0.0
  0
SPLINE
  5
24a
100
AcDbEntity
  8
Capa_1
 62
7
100
AcDbSpline
 70
8
 71
3
 72
8
 73
4
 74
0
 40
0
 40
0
 40
0
 40
0
 40
1
 40
1
 40
1
 40
1
 10
2.485992
 20
8.792167
 30
0.0
 10
2.459804
 20
8.798296
 30
0.0
 10
2.434682
 20
8.801361
 30
0.0
 10
2.410624
 20
8.801361
 30
0.0
  0
SPLINE
  5
24b
100
AcDbEntity
  8
Capa_1
 62
7
100
AcDbSpline
 70
8
 71
3
 72
8
 73
4
 74
0
 40
0
 40
0
 40
0
 40
0
 40
1
 40
1
 40
1
 40
1
 10
2.410624
 20
8.801361
 30
0.0
 10
2.367830
 20
8.801361
 30
0.0
 10
2.334830
 20
8.791588
 30
0.0
 10
2.311624
 20
8.772041
 30
0.0
  0
SPLINE
  5
24c
100
AcDbEntity
  8
Capa_1
 62
7
100
AcDbSpline
 70
8
 71
3
 72
8
 73
4
 74
0
 40
0
 40
0
 40
0
 40
0
 40
1
 40
1
 40
1
 40
1
 10
2.311624
 20
8.772041
 30
0.0
 10
2.288417
 20
8.752699
 30
0.0
 10
2.276814
 20
8.726477
 30
0.0
 10
2.276814
 20
8.693377
 30
0.0
  0
SPLINE
  5
24d
100
AcDbEntity
  8
Capa_1
 62
7
100
AcDbSpline
 70
8
 71
3
 72
8
 73
4
 74
0
 40
0
 40
0
 40
0
 40
0
 40
1
 40
1
 40
1
 40
1
 10
2.276814
 20
8.693377
 30
0.0
 10
2.276814
 20
8.657621
 30
0.0
 10
2.286608
 20
8.623738
 30
0.0
 10
2.306194
 20
8.591727
 30
0.0
  0
SPLINE
  5
24e
100
AcDbEntity
  8
Capa_1
 62
7
100
AcDbSpline
 70
8
 71
3
 72
8
 73
4
 74
0
 40
0
 40
0
 40
0
 40
0
 40
1
 40
1
 40
1
 40
1
 10
2.306194
 20
8.591727
 30
0.0
 10
2.325782
 20
8.559921
 30
0.0
 10
2.360059
 20
8.522813
 30
0.0
 10
2.409027
 20
8.480403
 30
0.0
  0
SPLINE
  5
24f
100
AcDbEntity
  8
Capa_1
 62
7
100
AcDbSpline
 70
8
 71
3
 72
8
 73
4
 74
0
 40
0
 40
0
 40
0
 40
0
 40
1
 40
1
 40
1
 40
1
 10
2.409027
 20
8.480403
 30
0.0
 10
2.438195
 20
8.455271
 30
0.0
 10
2.468214
 20
8.430821
 30
0.0
 10
2.499085
 20
8.407052
 30
0.0
  0
SPLINE
  5
250
100
AcDbEntity
  8
Capa_1
 62
7
100
AcDbSpline
 70
8
 71
3
 72
8
 73
4
 74
0
 40
0
 40
0
 40
0
 40
0
 40
1
 40
1
 40
1
 40
1
 10
2.499085
 20
8.407052
 30
0.0
 10
2.529743
 20
8.383487
 30
0.0
 10
2.555079
 20
8.364280
 30
0.0
 10
2.575092
 20
8.349433
 30
0.0
  0
LWPOLYLINE
  5
251
100
AcDbEntity
  8
Capa_1
 62
7
100
AcDbPolyline
 90
3
 70
0
 10
2.560085
 20
8.703185
 30
0.0
 10
2.563276
 20
8.703185
 30
0.0
 10
2.550502
 20
8.770815
 30
0.0
  0
LWPOLYLINE
  5
252
100
AcDbEntity
  8
Capa_1
 62
7
100
AcDbPolyline
 90
3
 70
0
 10
2.575092
 20
8.349433
 30
0.0
 10
2.319607
 20
8.349433
 30
0.0
 10
2.331427
 20
8.295247
 30
0.0
  0
SPLINE
  5
253
100
AcDbEntity
  8
Capa_1
 62
7
100
AcDbSpline
 70
8
 71
3
 72
8
 73
4
 74
0
 40
0
 40
0
 40
0
 40
0
 40
1
 40
1
 40
1
 40
1
 10
2.680164
 20
6.909366
 30
0.0
 10
2.680164
 20
6.866255
 30
0.0
 10
2.686445
 20
6.824703
 30
0.0
 10
2.699006
 20
6.784710
 30
0.0
  0
SPLINE
  5
254
100
AcDbEntity
  8
Capa_1
 62
7
100
AcDbSpline
 70
8
 71
3
 72
8
 73
4
 74
0
 40
0
 40
0
 40
0
 40
0
 40
1
 40
1
 40
1
 40
1
 10
2.699006
 20
6.784710
 30
0.0
 10
2.711354
 20
6.744731
 30
0.0
 10
2.729345
 20
6.709513
 30
0.0
 10
2.752977
 20
6.679056
 30
0.0
  0
SPLINE
  5
255
100
AcDbEntity
  8
Capa_1
 62
7
100
AcDbSpline
 70
8
 71
3
 72
8
 73
4
 74
0
 40
0
 40
0
 40
0
 40
0
 40
1
 40
1
 40
1
 40
1
 10
2.752977
 20
6.679056
 30
0.0
 10
2.777248
 20
6.647726
 30
0.0
 10
2.806415
 20
6.623072
 30
0.0
 10
2.840480
 20
6.605091
 30
0.0
  0
SPLINE
  5
256
100
AcDbEntity
  8
Capa_1
 62
7
100
AcDbSpline
 70
8
 71
3
 72
8
 73
4
 74
0
 40
0
 40
0
 40
0
 40
0
 40
1
 40
1
 40
1
 40
1
 10
2.840480
 20
6.605091
 30
0.0
 10
2.874545
 20
6.587315
 30
0.0
 10
2.912974
 20
6.578427
 30
0.0
 10
2.955768
 20
6.578427
 30
0.0
  0
SPLINE
  5
257
100
AcDbEntity
  8
Capa_1
 62
7
100
AcDbSpline
 70
8
 71
3
 72
8
 73
4
 74
0
 40
0
 40
0
 40
0
 40
0
 40
1
 40
1
 40
1
 40
1
 10
2.955768
 20
6.578427
 30
0.0
 10
3.012400
 20
6.578427
 30
0.0
 10
3.056684
 20
6.594535
 30
0.0
 10
3.088619
 20
6.626749
 30
0.0
  0
SPLINE
  5
258
100
AcDbEntity
  8
Capa_1
 62
7
100
AcDbSpline
 70
8
 71
3
 72
8
 73
4
 74
0
 40
0
 40
0
 40
0
 40
0
 40
1
 40
1
 40
1
 40
1
 10
3.088619
 20
6.626749
 30
0.0
 10
3.120555
 20
6.659168
 30
0.0
 10
3.136522
 20
6.705164
 30
0.0
 10
3.136522
 20
6.764738
 30
0.0
  0
SPLINE
  5
259
100
AcDbEntity
  8
Capa_1
 62
7
100
AcDbSpline
 70
8
 71
3
 72
8
 73
4
 74
0
 40
0
 40
0
 40
0
 40
0
 40
1
 40
1
 40
1
 40
1
 10
3.136522
 20
6.764738
 30
0.0
 10
3.136522
 20
6.810097
 30
0.0
 10
3.130135
 20
6.852426
 30
0.0
 10
3.117361
 20
6.891723
 30
0.0
  0
SPLINE
  5
25a
100
AcDbEntity
  8
Capa_1
 62
7
100
AcDbSpline
 70
8
 71
3
 72
8
 73
4
 74
0
 40
0
 40
0
 40
0
 40
0
 40
1
 40
1
 40
1
 40
1
 10
3.117361
 20
6.891723
 30
0.0
 10
3.104587
 20
6.931021
 30
0.0
 10
3.086171
 20
6.966130
 30
0.0
 10
3.062113
 20
6.997051
 30
0.0
  0
SPLINE
  5
25b
100
AcDbEntity
  8
Capa_1
 62
7
100
AcDbSpline
 70
8
 71
3
 72
8
 73
4
 74
0
 40
0
 40
0
 40
0
 40
0
 40
1
 40
1
 40
1
 40
1
 10
3.062113
 20
6.997051
 30
0.0
 10
3.038694
 20
7.026814
 30
0.0
 10
3.009739
 20
7.050583
 30
0.0
 10
2.975248
 20
7.068359
 30
0.0
  0
SPLINE
  5
25c
100
AcDbEntity
  8
Capa_1
 62
7
100
AcDbSpline
 70
8
 71
3
 72
8
 73
4
 74
0
 40
0
 40
0
 40
0
 40
0
 40
1
 40
1
 40
1
 40
1
 10
2.975248
 20
7.068359
 30
0.0
 10
2.940545
 20
7.086339
 30
0.0
 10
2.902541
 20
7.095329
 30
0.0
 10
2.861238
 20
7.095329
 30
0.0
  0
SPLINE
  5
25d
100
AcDbEntity
  8
Capa_1
 62
7
100
AcDbSpline
 70
8
 71
3
 72
8
 73
4
 74
0
 40
0
 40
0
 40
0
 40
0
 40
1
 40
1
 40
1
 40
1
 10
2.861238
 20
7.095329
 30
0.0
 10
2.804818
 20
7.095329
 30
0.0
 10
2.760534
 20
7.079222
 30
0.0
 10
2.728386
 20
7.047008
 30
0.0
  0
SPLINE
  5
25e
100
AcDbEntity
  8
Capa_1
 62
7
100
AcDbSpline
 70
8
 71
3
 72
8
 73
4
 74
0
 40
0
 40
0
 40
0
 40
0
 40
1
 40
1
 40
1
 40
1
 10
2.728386
 20
7.047008
 30
0.0
 10
2.696237
 20
7.014997
 30
0.0
 10
2.680163
 20
6.969110
 30
0.0
 10
2.680163
 20
6.909346
 30
0.0
  0
LWPOLYLINE
  5
25f
100
AcDbEntity
  8
Capa_1
 62
7
100
AcDbPolyline
 90
12
 70
1
 10
3.264585
 20
6.588725
 30
0.0
 10
3.453005
 20
6.588725
 30
0.0
 10
3.442467
 20
6.637047
 30
0.0
 10
3.380192
 20
6.637047
 30
0.0
 10
3.291411
 20
7.036679
 30
0.0
 10
3.353686
 20
7.036679
 30
0.0
 10
3.343148
 20
7.085001
 30
0.0
 10
3.154728
 20
7.085001
 30
0.0
 10
3.165266
 20
7.036679
 30
0.0
 10
3.227540
 20
7.036679
 30
0.0
 10
3.316321
 20
6.637047
 30
0.0
 10
3.254047
 20
6.637047
 30
0.0
  0
SPLINE
  5
260
100
AcDbEntity
  8
Capa_1
 62
7
100
AcDbSpline
 70
8
 71
3
 72
8
 73
4
 74
0
 40
0
 40
0
 40
0
 40
0
 40
1
 40
1
 40
1
 40
1
 10
2.801200
 20
6.712053
 30
0.0
 10
2.783316
 20
6.737389
 30
0.0
 10
2.769797
 20
6.765620
 30
0.0
 10
2.760642
 20
6.796745
 30
0.0
  0
SPLINE
  5
261
100
AcDbEntity
  8
Capa_1
 62
7
100
AcDbSpline
 70
8
 71
3
 72
8
 73
4
 74
0
 40
0
 40
0
 40
0
 40
0
 40
1
 40
1
 40
1
 40
1
 10
2.760642
 20
6.796745
 30
0.0
 10
2.751487
 20
6.828074
 30
0.0
 10
2.746910
 20
6.862516
 30
0.0
 10
2.746910
 20
6.900070
 30
0.0
  0
SPLINE
  5
262
100
AcDbEntity
  8
Capa_1
 62
7
100
AcDbSpline
 70
8
 71
3
 72
8
 73
4
 74
0
 40
0
 40
0
 40
0
 40
0
 40
1
 40
1
 40
1
 40
1
 10
2.746910
 20
6.900070
 30
0.0
 10
2.746910
 20
6.945429
 30
0.0
 10
2.757874
 20
6.980205
 30
0.0
 10
2.779803
 20
7.004396
 30
0.0
  0
SPLINE
  5
263
100
AcDbEntity
  8
Capa_1
 62
7
100
AcDbSpline
 70
8
 71
3
 72
8
 73
4
 74
0
 40
0
 40
0
 40
0
 40
0
 40
1
 40
1
 40
1
 40
1
 10
2.779803
 20
7.004396
 30
0.0
 10
2.801519
 20
7.028847
 30
0.0
 10
2.831964
 20
7.041072
 30
0.0
 10
2.871139
 20
7.041072
 30
0.0
  0
SPLINE
  5
264
100
AcDbEntity
  8
Capa_1
 62
7
100
AcDbSpline
 70
8
 71
3
 72
8
 73
4
 74
0
 40
0
 40
0
 40
0
 40
0
 40
1
 40
1
 40
1
 40
1
 10
2.871139
 20
7.041072
 30
0.0
 10
2.901584
 20
7.041072
 30
0.0
 10
2.929049
 20
7.033750
 30
0.0
 10
2.953532
 20
7.019107
 30
0.0
  0
SPLINE
  5
265
100
AcDbEntity
  8
Capa_1
 62
7
100
AcDbSpline
 70
8
 71
3
 72
8
 73
4
 74
0
 40
0
 40
0
 40
0
 40
0
 40
1
 40
1
 40
1
 40
1
 10
2.953532
 20
7.019107
 30
0.0
 10
2.978016
 20
7.004669
 30
0.0
 10
2.999094
 20
6.985020
 30
0.0
 10
3.016765
 20
6.960161
 30
0.0
  0
SPLINE
  5
266
100
AcDbEntity
  8
Capa_1
 62
7
100
AcDbSpline
 70
8
 71
3
 72
8
 73
4
 74
0
 40
0
 40
0
 40
0
 40
0
 40
1
 40
1
 40
1
 40
1
 10
3.016765
 20
6.960161
 30
0.0
 10
3.033797
 20
6.935710
 30
0.0
 10
3.046891
 20
6.907276
 30
0.0
 10
3.056045
 20
6.874857
 30
0.0
  0
SPLINE
  5
267
100
AcDbEntity
  8
Capa_1
 62
7
100
AcDbSpline
 70
8
 71
3
 72
8
 73
4
 74
0
 40
0
 40
0
 40
0
 40
0
 40
1
 40
1
 40
1
 40
1
 10
3.056045
 20
6.874857
 30
0.0
 10
3.065200
 20
6.842642
 30
0.0
 10
3.069778
 20
6.809406
 30
0.0
 10
3.069778
 20
6.775148
 30
0.0
  0
SPLINE
  5
268
100
AcDbEntity
  8
Capa_1
 62
7
100
AcDbSpline
 70
8
 71
3
 72
8
 73
4
 74
0
 40
0
 40
0
 40
0
 40
0
 40
1
 40
1
 40
1
 40
1
 10
3.069778
 20
6.775148
 30
0.0
 10
3.069778
 20
6.729380
 30
0.0
 10
3.058920
 20
6.694162
 30
0.0
 10
3.037204
 20
6.669493
 30
0.0
  0
SPLINE
  5
269
100
AcDbEntity
  8
Capa_1
 62
7
100
AcDbSpline
 70
8
 71
3
 72
8
 73
4
 74
0
 40
0
 40
0
 40
0
 40
0
 40
1
 40
1
 40
1
 40
1
 10
3.037204
 20
6.669493
 30
0.0
 10
3.015275
 20
6.645043
 30
0.0
 10
2.984616
 20
6.632818
 30
0.0
 10
2.945229
 20
6.632818
 30
0.0
  0
SPLINE
  5
26a
100
AcDbEntity
  8
Capa_1
 62
7
100
AcDbSpline
 70
8
 71
3
 72
8
 73
4
 74
0
 40
0
 40
0
 40
0
 40
0
 40
1
 40
1
 40
1
 40
1
 10
2.945229
 20
6.632818
 30
0.0
 10
2.915209
 20
6.632818
 30
0.0
 10
2.887958
 20
6.640037
 30
0.0
 10
2.863473
 20
6.654476
 30
0.0
  0
SPLINE
  5
26b
100
AcDbEntity
  8
Capa_1
 62
7
100
AcDbSpline
 70
8
 71
3
 72
8
 73
4
 74
0
 40
0
 40
0
 40
0
 40
0
 40
1
 40
1
 40
1
 40
1
 10
2.863473
 20
6.654476
 30
0.0
 10
2.838776
 20
6.668914
 30
0.0
 10
2.818018
 20
6.688121
 30
0.0
 10
2.801199
 20
6.712094
 30
0.0
  0
LWPOLYLINE
  5
26c
100
AcDbEntity
  8
Capa_1
 62
7
100
AcDbPolyline
 90
1
 70
1
 10
2.680163
 20
6.909346
 30
0.0
  0
SPLINE
  5
26d
100
AcDbEntity
  8
Capa_1
 62
7
100
AcDbSpline
 70
8
 71
3
 72
8
 73
4
 74
0
 40
0
 40
0
 40
0
 40
0
 40
1
 40
1
 40
1
 40
1
 10
2.360489
 20
6.632389
 30
0.0
 10
2.379224
 20
6.615294
 30
0.0
 10
2.400834
 20
6.601945
 30
0.0
 10
2.425318
 20
6.592342
 30
0.0
  0
SPLINE
  5
26e
100
AcDbEntity
  8
Capa_1
 62
7
100
AcDbSpline
 70
8
 71
3
 72
8
 73
4
 74
0
 40
0
 40
0
 40
0
 40
0
 40
1
 40
1
 40
1
 40
1
 10
2.425318
 20
6.592342
 30
0.0
 10
2.449589
 20
6.583011
 30
0.0
 10
2.477799
 20
6.578346
 30
0.0
 10
2.509947
 20
6.578346
 30
0.0
  0
SPLINE
  5
26f
100
AcDbEntity
  8
Capa_1
 62
7
100
AcDbSpline
 70
8
 71
3
 72
8
 73
4
 74
0
 40
0
 40
0
 40
0
 40
0
 40
1
 40
1
 40
1
 40
1
 10
2.509947
 20
6.578346
 30
0.0
 10
2.535709
 20
6.578346
 30
0.0
 10
2.560725
 20
6.581785
 30
0.0
 10
2.584996
 20
6.588664
 30
0.0
  0
SPLINE
  5
270
100
AcDbEntity
  8
Capa_1
 62
7
100
AcDbSpline
 70
8
 71
3
 72
8
 73
4
 74
0
 40
0
 40
0
 40
0
 40
0
 40
1
 40
1
 40
1
 40
1
 10
2.584996
 20
6.588664
 30
0.0
 10
2.609054
 20
6.595475
 30
0.0
 10
2.629387
 20
6.603477
 30
0.0
 10
2.645993
 20
6.612672
 30
0.0
  0
LWPOLYLINE
  5
271
100
AcDbEntity
  8
Capa_1
 62
7
100
AcDbPolyline
 90
1
 70
1
 10
2.801199
 20
6.712094
 30
0.0
  0
SPLINE
  5
272
100
AcDbEntity
  8
Capa_1
 62
7
100
AcDbSpline
 70
8
 71
3
 72
8
 73
4
 74
0
 40
0
 40
0
 40
0
 40
0
 40
1
 40
1
 40
1
 40
1
 10
2.626197
 20
6.676624
 30
0.0
 10
2.611506
 20
6.665046
 30
0.0
 10
2.593090
 20
6.654932
 30
0.0
 10
2.570948
 20
6.646282
 30
0.0
  0
SPLINE
  5
273
100
AcDbEntity
  8
Capa_1
 62
7
100
AcDbSpline
 70
8
 71
3
 72
8
 73
4
 74
0
 40
0
 40
0
 40
0
 40
0
 40
1
 40
1
 40
1
 40
1
 10
2.570948
 20
6.646282
 30
0.0
 10
2.548806
 20
6.637837
 30
0.0
 10
2.525387
 20
6.633614
 30
0.0
 10
2.500690
 20
6.633614
 30
0.0
  0
SPLINE
  5
274
100
AcDbEntity
  8
Capa_1
 62
7
100
AcDbSpline
 70
8
 71
3
 72
8
 73
4
 74
0
 40
0
 40
0
 40
0
 40
0
 40
1
 40
1
 40
1
 40
1
 10
2.500690
 20
6.633614
 30
0.0
 10
2.462368
 20
6.633614
 30
0.0
 10
2.430964
 20
6.645499
 30
0.0
 10
2.406480
 20
6.669269
 30
0.0
  0
SPLINE
  5
275
100
AcDbEntity
  8
Capa_1
 62
7
100
AcDbSpline
 70
8
 71
3
 72
8
 73
4
 74
0
 40
0
 40
0
 40
0
 40
0
 40
1
 40
1
 40
1
 40
1
 10
2.406480
 20
6.669269
 30
0.0
 10
2.381996
 20
6.693038
 30
0.0
 10
2.369755
 20
6.723924
 30
0.0
 10
2.369755
 20
6.761928
 30
0.0
  0
SPLINE
  5
276
100
AcDbEntity
  8
Capa_1
 62
7
100
AcDbSpline
 70
8
 71
3
 72
8
 73
4
 74
0
 40
0
 40
0
 40
0
 40
0
 40
1
 40
1
 40
1
 40
1
 10
2.369755
 20
6.761928
 30
0.0
 10
2.369755
 20
6.785221
 30
0.0
 10
2.377526
 20
6.802656
 30
0.0
 10
2.393068
 20
6.814234
 30
0.0
  0
SPLINE
  5
277
100
AcDbEntity
  8
Capa_1
 62
7
100
AcDbSpline
 70
8
 71
3
 72
8
 73
4
 74
0
 40
0
 40
0
 40
0
 40
0
 40
1
 40
1
 40
1
 40
1
 10
2.393068
 20
6.814234
 30
0.0
 10
2.408610
 20
6.825813
 30
0.0
 10
2.432775
 20
6.831602
 30
0.0
 10
2.465562
 20
6.831602
 30
0.0
  0
LWPOLYLINE
  5
278
100
AcDbEntity
  8
Capa_1
 62
7
100
AcDbPolyline
 90
3
 70
0
 10
2.645993
 20
6.612672
 30
0.0
 10
2.630983
 20
6.676624
 30
0.0
 10
2.626197
 20
6.676624
 30
0.0
  0
SPLINE
  5
279
100
AcDbEntity
  8
Capa_1
 62
7
100
AcDbSpline
 70
8
 71
3
 72
8
 73
4
 74
0
 40
0
 40
0
 40
0
 40
0
 40
1
 40
1
 40
1
 40
1
 10
2.453107
 20
6.884623
 30
0.0
 10
2.417126
 20
6.884623
 30
0.0
 10
2.387639
 20
6.893171
 30
0.0
 10
2.364645
 20
6.910265
 30
0.0
  0
SPLINE
  5
27a
100
AcDbEntity
  8
Capa_1
 62
7
100
AcDbSpline
 70
8
 71
3
 72
8
 73
4
 74
0
 40
0
 40
0
 40
0
 40
0
 40
1
 40
1
 40
1
 40
1
 10
2.364645
 20
6.910265
 30
0.0
 10
2.341651
 20
6.927633
 30
0.0
 10
2.330154
 20
6.951062
 30
0.0
 10
2.330154
 20
6.980552
 30
0.0
  0
SPLINE
  5
27b
100
AcDbEntity
  8
Capa_1
 62
7
100
AcDbSpline
 70
8
 71
3
 72
8
 73
4
 74
0
 40
0
 40
0
 40
0
 40
0
 40
1
 40
1
 40
1
 40
1
 10
2.330154
 20
6.980552
 30
0.0
 10
2.330154
 20
6.999213
 30
0.0
 10
2.337074
 20
7.013754
 30
0.0
 10
2.350913
 20
7.024175
 30
0.0
  0
SPLINE
  5
27c
100
AcDbEntity
  8
Capa_1
 62
7
100
AcDbSpline
 70
8
 71
3
 72
8
 73
4
 74
0
 40
0
 40
0
 40
0
 40
0
 40
1
 40
1
 40
1
 40
1
 10
2.350913
 20
7.024175
 30
0.0
 10
2.364538
 20
7.034595
 30
0.0
 10
2.384764
 20
7.039805
 30
0.0
 10
2.411591
 20
7.039805
 30
0.0
  0
SPLINE
  5
27d
100
AcDbEntity
  8
Capa_1
 62
7
100
AcDbSpline
 70
8
 71
3
 72
8
 73
4
 74
0
 40
0
 40
0
 40
0
 40
0
 40
1
 40
1
 40
1
 40
1
 10
2.411591
 20
7.039805
 30
0.0
 10
2.433733
 20
7.039805
 30
0.0
 10
2.457365
 20
7.035583
 30
0.0
 10
2.482488
 20
7.027137
 30
0.0
  0
SPLINE
  5
27e
100
AcDbEntity
  8
Capa_1
 62
7
100
AcDbSpline
 70
8
 71
3
 72
8
 73
4
 74
0
 40
0
 40
0
 40
0
 40
0
 40
1
 40
1
 40
1
 40
1
 10
2.482488
 20
7.027137
 30
0.0
 10
2.507610
 20
7.018692
 30
0.0
 10
2.529859
 20
7.008476
 30
0.0
 10
2.549234
 20
6.996489
 30
0.0
  0
LWPOLYLINE
  5
27f
100
AcDbEntity
  8
Capa_1
 62
7
100
AcDbPolyline
 90
4
 70
0
 10
2.465562
 20
6.831602
 30
0.0
 10
2.495900
 20
6.831602
 30
0.0
 10
2.483445
 20
6.884623
 30
0.0
 10
2.453107
 20
6.884623
 30
0.0
  0
SPLINE
  5
280
100
AcDbEntity
  8
Capa_1
 62
7
100
AcDbSpline
 70
8
 71
3
 72
8
 73
4
 74
0
 40
0
 40
0
 40
0
 40
0
 40
1
 40
1
 40
1
 40
1
 10
2.538692
 20
7.063813
 30
0.0
 10
2.521660
 20
7.071577
 30
0.0
 10
2.500051
 20
7.078694
 30
0.0
 10
2.473863
 20
7.085165
 30
0.0
  0
SPLINE
  5
281
100
AcDbEntity
  8
Capa_1
 62
7
100
AcDbSpline
 70
8
 71
3
 72
8
 73
4
 74
0
 40
0
 40
0
 40
0
 40
0
 40
1
 40
1
 40
1
 40
1
 10
2.473863
 20
7.085165
 30
0.0
 10
2.447463
 20
7.091975
 30
0.0
 10
2.422447
 20
7.095381
 30
0.0
 10
2.398815
 20
7.095381
 30
0.0
  0
SPLINE
  5
282
100
AcDbEntity
  8
Capa_1
 62
7
100
AcDbSpline
 70
8
 71
3
 72
8
 73
4
 74
0
 40
0
 40
0
 40
0
 40
0
 40
1
 40
1
 40
1
 40
1
 10
2.398815
 20
7.095381
 30
0.0
 10
2.356873
 20
7.095381
 30
0.0
 10
2.323873
 20
7.086595
 30
0.0
 10
2.299814
 20
7.069023
 30
0.0
  0
SPLINE
  5
283
100
AcDbEntity
  8
Capa_1
 62
7
100
AcDbSpline
 70
8
 71
3
 72
8
 73
4
 74
0
 40
0
 40
0
 40
0
 40
0
 40
1
 40
1
 40
1
 40
1
 10
2.299814
 20
7.069023
 30
0.0
 10
2.275543
 20
7.051724
 30
0.0
 10
2.263408
 20
7.027955
 30
0.0
 10
2.263408
 20
6.997715
 30
0.0
  0
SPLINE
  5
284
100
AcDbEntity
  8
Capa_1
 62
7
100
AcDbSpline
 70
8
 71
3
 72
8
 73
4
 74
0
 40
0
 40
0
 40
0
 40
0
 40
1
 40
1
 40
1
 40
1
 10
2.263408
 20
6.997715
 30
0.0
 10
2.263408
 20
6.964819
 30
0.0
 10
2.275118
 20
6.935601
 30
0.0
 10
2.298537
 20
6.910061
 30
0.0
  0
SPLINE
  5
285
100
AcDbEntity
  8
Capa_1
 62
7
100
AcDbSpline
 70
8
 71
3
 72
8
 73
4
 74
0
 40
0
 40
0
 40
0
 40
0
 40
1
 40
1
 40
1
 40
1
 10
2.298537
 20
6.910061
 30
0.0
 10
2.321744
 20
6.884725
 30
0.0
 10
2.351124
 20
6.868618
 30
0.0
 10
2.386680
 20
6.861739
 30
0.0
  0
LWPOLYLINE
  5
286
100
AcDbEntity
  8
Capa_1
 62
7
100
AcDbPolyline
 90
3
 70
0
 10
2.549234
 20
6.996489
 30
0.0
 10
2.552425
 20
6.996489
 30
0.0
 10
2.538692
 20
7.063813
 30
0.0
  0
SPLINE
  5
287
100
AcDbEntity
  8
Capa_1
 62
7
100
AcDbSpline
 70
8
 71
3
 72
8
 73
4
 74
0
 40
0
 40
0
 40
0
 40
0
 40
1
 40
1
 40
1
 40
1
 10
2.386680
 20
6.858674
 30
0.0
 10
2.378376
 20
6.856631
 30
0.0
 10
2.369221
 20
6.853226
 30
0.0
 10
2.359215
 20
6.848458
 30
0.0
  0
SPLINE
  5
288
100
AcDbEntity
  8
Capa_1
 62
7
100
AcDbSpline
 70
8
 71
3
 72
8
 73
4
 74
0
 40
0
 40
0
 40
0
 40
0
 40
1
 40
1
 40
1
 40
1
 10
2.359215
 20
6.848458
 30
0.0
 10
2.348996
 20
6.843691
 30
0.0
 10
2.340054
 20
6.837697
 30
0.0
 10
2.332390
 20
6.830478
 30
0.0
  0
SPLINE
  5
289
100
AcDbEntity
  8
Capa_1
 62
7
100
AcDbSpline
 70
8
 71
3
 72
8
 73
4
 74
0
 40
0
 40
0
 40
0
 40
0
 40
1
 40
1
 40
1
 40
1
 10
2.332390
 20
6.830478
 30
0.0
 10
2.324299
 20
6.822918
 30
0.0
 10
2.317593
 20
6.813349
 30
0.0
 10
2.312270
 20
6.801771
 30
0.0
  0
SPLINE
  5
28a
100
AcDbEntity
  8
Capa_1
 62
7
100
AcDbSpline
 70
8
 71
3
 72
8
 73
4
 74
0
 40
0
 40
0
 40
0
 40
0
 40
1
 40
1
 40
1
 40
1
 10
2.312270
 20
6.801771
 30
0.0
 10
2.306737
 20
6.790193
 30
0.0
 10
2.303970
 20
6.776537
 30
0.0
 10
2.303970
 20
6.760804
 30
0.0
  0
SPLINE
  5
28b
100
AcDbEntity
  8
Capa_1
 62
7
100
AcDbSpline
 70
8
 71
3
 72
8
 73
4
 74
0
 40
0
 40
0
 40
0
 40
0
 40
1
 40
1
 40
1
 40
1
 10
2.303970
 20
6.760804
 30
0.0
 10
2.303970
 20
6.736558
 30
0.0
 10
2.308973
 20
6.713130
 30
0.0
 10
2.318979
 20
6.690518
 30
0.0
  0
SPLINE
  5
28c
100
AcDbEntity
  8
Capa_1
 62
7
100
AcDbSpline
 70
8
 71
3
 72
8
 73
4
 74
0
 40
0
 40
0
 40
0
 40
0
 40
1
 40
1
 40
1
 40
1
 10
2.318979
 20
6.690518
 30
0.0
 10
2.328986
 20
6.668111
 30
0.0
 10
2.342824
 20
6.648768
 30
0.0
 10
2.360495
 20
6.632491
 30
0.0
  0
LWPOLYLINE
  5
28d
100
AcDbEntity
  8
Capa_1
 62
7
100
AcDbPolyline
 90
2
 70
0
 10
2.386680
 20
6.861739
 30
0.0
 10
2.386680
 20
6.858674
 30
0.0
  0
LWPOLYLINE
  5
28e
100
AcDbEntity
  8
Capa_1
 62
7
100
AcDbPolyline
 90
2
 70
0
 10
2.360495
 20
6.632491
 30
0.0
 10
2.360489
 20
6.632389
 30
0.0
  0
SPLINE
  5
28f
100
AcDbEntity
  8
Capa_1
 62
7
100
AcDbSpline
 70
8
 71
3
 72
8
 73
4
 74
0
 40
0
 40
0
 40
0
 40
0
 40
1
 40
1
 40
1
 40
1
 10
2.680164
 20
5.202844
 30
0.0
 10
2.680164
 20
5.159733
 30
0.0
 10
2.686445
 20
5.118181
 30
0.0
 10
2.699006
 20
5.078188
 30
0.0
  0
SPLINE
  5
290
100
AcDbEntity
  8
Capa_1
 62
7
100
AcDbSpline
 70
8
 71
3
 72
8
 73
4
 74
0
 40
0
 40
0
 40
0
 40
0
 40
1
 40
1
 40
1
 40
1
 10
2.699006
 20
5.078188
 30
0.0
 10
2.711354
 20
5.038209
 30
0.0
 10
2.729345
 20
5.002991
 30
0.0
 10
2.752977
 20
4.972534
 30
0.0
  0
SPLINE
  5
291
100
AcDbEntity
  8
Capa_1
 62
7
100
AcDbSpline
 70
8
 71
3
 72
8
 73
4
 74
0
 40
0
 40
0
 40
0
 40
0
 40
1
 40
1
 40
1
 40
1
 10
2.752977
 20
4.972534
 30
0.0
 10
2.777248
 20
4.941204
 30
0.0
 10
2.806415
 20
4.916550
 30
0.0
 10
2.840480
 20
4.898569
 30
0.0
  0
SPLINE
  5
292
100
AcDbEntity
  8
Capa_1
 62
7
100
AcDbSpline
 70
8
 71
3
 72
8
 73
4
 74
0
 40
0
 40
0
 40
0
 40
0
 40
1
 40
1
 40
1
 40
1
 10
2.840480
 20
4.898569
 30
0.0
 10
2.874545
 20
4.880793
 30
0.0
 10
2.912974
 20
4.871905
 30
0.0
 10
2.955768
 20
4.871905
 30
0.0
  0
SPLINE
  5
293
100
AcDbEntity
  8
Capa_1
 62
7
100
AcDbSpline
 70
8
 71
3
 72
8
 73
4
 74
0
 40
0
 40
0
 40
0
 40
0
 40
1
 40
1
 40
1
 40
1
 10
2.955768
 20
4.871905
 30
0.0
 10
3.012400
 20
4.871905
 30
0.0
 10
3.056684
 20
4.888013
 30
0.0
 10
3.088619
 20
4.920227
 30
0.0
  0
SPLINE
  5
294
100
AcDbEntity
  8
Capa_1
 62
7
100
AcDbSpline
 70
8
 71
3
 72
8
 73
4
 74
0
 40
0
 40
0
 40
0
 40
0
 40
1
 40
1
 40
1
 40
1
 10
3.088619
 20
4.920227
 30
0.0
 10
3.120555
 20
4.952646
 30
0.0
 10
3.136522
 20
4.998642
 30
0.0
 10
3.136522
 20
5.058216
 30
0.0
  0
SPLINE
  5
295
100
AcDbEntity
  8
Capa_1
 62
7
100
AcDbSpline
 70
8
 71
3
 72
8
 73
4
 74
0
 40
0
 40
0
 40
0
 40
0
 40
1
 40
1
 40
1
 40
1
 10
3.136522
 20
5.058216
 30
0.0
 10
3.136522
 20
5.103575
 30
0.0
 10
3.130135
 20
5.145904
 30
0.0
 10
3.117361
 20
5.185201
 30
0.0
  0
SPLINE
  5
296
100
AcDbEntity
  8
Capa_1
 62
7
100
AcDbSpline
 70
8
 71
3
 72
8
 73
4
 74
0
 40
0
 40
0
 40
0
 40
0
 40
1
 40
1
 40
1
 40
1
 10
3.117361
 20
5.185201
 30
0.0
 10
3.104587
 20
5.224499
 30
0.0
 10
3.086171
 20
5.259608
 30
0.0
 10
3.062113
 20
5.290529
 30
0.0
  0
SPLINE
  5
297
100
AcDbEntity
  8
Capa_1
 62
7
100
AcDbSpline
 70
8
 71
3
 72
8
 73
4
 74
0
 40
0
 40
0
 40
0
 40
0
 40
1
 40
1
 40
1
 40
1
 10
3.062113
 20
5.290529
 30
0.0
 10
3.038694
 20
5.320292
 30
0.0
 10
3.009739
 20
5.344061
 30
0.0
 10
2.975248
 20
5.361837
 30
0.0
  0
SPLINE
  5
298
100
AcDbEntity
  8
Capa_1
 62
7
100
AcDbSpline
 70
8
 71
3
 72
8
 73
4
 74
0
 40
0
 40
0
 40
0
 40
0
 40
1
 40
1
 40
1
 40
1
 10
2.975248
 20
5.361837
 30
0.0
 10
2.940545
 20
5.379817
 30
0.0
 10
2.902541
 20
5.388808
 30
0.0
 10
2.861238
 20
5.388808
 30
0.0
  0
SPLINE
  5
299
100
AcDbEntity
  8
Capa_1
 62
7
100
AcDbSpline
 70
8
 71
3
 72
8
 73
4
 74
0
 40
0
 40
0
 40
0
 40
0
 40
1
 40
1
 40
1
 40
1
 10
2.861238
 20
5.388808
 30
0.0
 10
2.804818
 20
5.388808
 30
0.0
 10
2.760534
 20
5.372700
 30
0.0
 10
2.728386
 20
5.340486
 30
0.0
  0
SPLINE
  5
29a
100
AcDbEntity
  8
Capa_1
 62
7
100
AcDbSpline
 70
8
 71
3
 72
8
 73
4
 74
0
 40
0
 40
0
 40
0
 40
0
 40
1
 40
1
 40
1
 40
1
 10
2.728386
 20
5.340486
 30
0.0
 10
2.696237
 20
5.308475
 30
0.0
 10
2.680163
 20
5.262588
 30
0.0
 10
2.680163
 20
5.202824
 30
0.0
  0
LWPOLYLINE
  5
29b
100
AcDbEntity
  8
Capa_1
 62
7
100
AcDbPolyline
 90
12
 70
1
 10
3.264585
 20
4.882203
 30
0.0
 10
3.453005
 20
4.882203
 30
0.0
 10
3.442467
 20
4.930525
 30
0.0
 10
3.380192
 20
4.930525
 30
0.0
 10
3.291411
 20
5.330157
 30
0.0
 10
3.353686
 20
5.330157
 30
0.0
 10
3.343148
 20
5.378479
 30
0.0
 10
3.154728
 20
5.378479
 30
0.0
 10
3.165266
 20
5.330157
 30
0.0
 10
3.227540
 20
5.330157
 30
0.0
 10
3.316321
 20
4.930525
 30
0.0
 10
3.254047
 20
4.930525
 30
0.0
  0
SPLINE
  5
29c
100
AcDbEntity
  8
Capa_1
 62
7
100
AcDbSpline
 70
8
 71
3
 72
8
 73
4
 74
0
 40
0
 40
0
 40
0
 40
0
 40
1
 40
1
 40
1
 40
1
 10
2.801200
 20
5.005531
 30
0.0
 10
2.783316
 20
5.030867
 30
0.0
 10
2.769797
 20
5.059098
 30
0.0
 10
2.760642
 20
5.090223
 30
0.0
  0
SPLINE
  5
29d
100
AcDbEntity
  8
Capa_1
 62
7
100
AcDbSpline
 70
8
 71
3
 72
8
 73
4
 74
0
 40
0
 40
0
 40
0
 40
0
 40
1
 40
1
 40
1
 40
1
 10
2.760642
 20
5.090223
 30
0.0
 10
2.751487
 20
5.121552
 30
0.0
 10
2.746910
 20
5.155994
 30
0.0
 10
2.746910
 20
5.193548
 30
0.0
  0
SPLINE
  5
29e
100
AcDbEntity
  8
Capa_1
 62
7
100
AcDbSpline
 70
8
 71
3
 72
8
 73
4
 74
0
 40
0
 40
0
 40
0
 40
0
 40
1
 40
1
 40
1
 40
1
 10
2.746910
 20
5.193548
 30
0.0
 10
2.746910
 20
5.238839
 30
0.0
 10
2.757874
 20
5.273611
 30
0.0
 10
2.779803
 20
5.297864
 30
0.0
  0
SPLINE
  5
29f
100
AcDbEntity
  8
Capa_1
 62
7
100
AcDbSpline
 70
8
 71
3
 72
8
 73
4
 74
0
 40
0
 40
0
 40
0
 40
0
 40
1
 40
1
 40
1
 40
1
 10
2.779803
 20
5.297864
 30
0.0
 10
2.801519
 20
5.322315
 30
0.0
 10
2.831964
 20
5.334540
 30
0.0
 10
2.871139
 20
5.334540
 30
0.0
  0
SPLINE
  5
2a0
100
AcDbEntity
  8
Capa_1
 62
7
100
AcDbSpline
 70
8
 71
3
 72
8
 73
4
 74
0
 40
0
 40
0
 40
0
 40
0
 40
1
 40
1
 40
1
 40
1
 10
2.871139
 20
5.334540
 30
0.0
 10
2.901584
 20
5.334540
 30
0.0
 10
2.929049
 20
5.327218
 30
0.0
 10
2.953532
 20
5.312575
 30
0.0
  0
SPLINE
  5
2a1
100
AcDbEntity
  8
Capa_1
 62
7
100
AcDbSpline
 70
8
 71
3
 72
8
 73
4
 74
0
 40
0
 40
0
 40
0
 40
0
 40
1
 40
1
 40
1
 40
1
 10
2.953532
 20
5.312575
 30
0.0
 10
2.978016
 20
5.298137
 30
0.0
 10
2.999094
 20
5.278488
 30
0.0
 10
3.016765
 20
5.253629
 30
0.0
  0
SPLINE
  5
2a2
100
AcDbEntity
  8
Capa_1
 62
7
100
AcDbSpline
 70
8
 71
3
 72
8
 73
4
 74
0
 40
0
 40
0
 40
0
 40
0
 40
1
 40
1
 40
1
 40
1
 10
3.016765
 20
5.253629
 30
0.0
 10
3.033797
 20
5.229178
 30
0.0
 10
3.046891
 20
5.200743
 30
0.0
 10
3.056045
 20
5.168324
 30
0.0
  0
SPLINE
  5
2a3
100
AcDbEntity
  8
Capa_1
 62
7
100
AcDbSpline
 70
8
 71
3
 72
8
 73
4
 74
0
 40
0
 40
0
 40
0
 40
0
 40
1
 40
1
 40
1
 40
1
 10
3.056045
 20
5.168324
 30
0.0
 10
3.065200
 20
5.136110
 30
0.0
 10
3.069778
 20
5.102874
 30
0.0
 10
3.069778
 20
5.068616
 30
0.0
  0
SPLINE
  5
2a4
100
AcDbEntity
  8
Capa_1
 62
7
100
AcDbSpline
 70
8
 71
3
 72
8
 73
4
 74
0
 40
0
 40
0
 40
0
 40
0
 40
1
 40
1
 40
1
 40
1
 10
3.069778
 20
5.068616
 30
0.0
 10
3.069778
 20
5.022848
 30
0.0
 10
3.058920
 20
4.987629
 30
0.0
 10
3.037204
 20
4.962961
 30
0.0
  0
SPLINE
  5
2a5
100
AcDbEntity
  8
Capa_1
 62
7
100
AcDbSpline
 70
8
 71
3
 72
8
 73
4
 74
0
 40
0
 40
0
 40
0
 40
0
 40
1
 40
1
 40
1
 40
1
 10
3.037204
 20
4.962961
 30
0.0
 10
3.015275
 20
4.938511
 30
0.0
 10
2.984616
 20
4.926285
 30
0.0
 10
2.945229
 20
4.926285
 30
0.0
  0
SPLINE
  5
2a6
100
AcDbEntity
  8
Capa_1
 62
7
100
AcDbSpline
 70
8
 71
3
 72
8
 73
4
 74
0
 40
0
 40
0
 40
0
 40
0
 40
1
 40
1
 40
1
 40
1
 10
2.945229
 20
4.926285
 30
0.0
 10
2.915209
 20
4.926285
 30
0.0
 10
2.887958
 20
4.933505
 30
0.0
 10
2.863473
 20
4.947943
 30
0.0
  0
SPLINE
  5
2a7
100
AcDbEntity
  8
Capa_1
 62
7
100
AcDbSpline
 70
8
 71
3
 72
8
 73
4
 74
0
 40
0
 40
0
 40
0
 40
0
 40
1
 40
1
 40
1
 40
1
 10
2.863473
 20
4.947943
 30
0.0
 10
2.838776
 20
4.962382
 30
0.0
 10
2.818018
 20
4.981588
 30
0.0
 10
2.801199
 20
5.005562
 30
0.0
  0
LWPOLYLINE
  5
2a8
100
AcDbEntity
  8
Capa_1
 62
7
100
AcDbPolyline
 90
1
 70
1
 10
2.680163
 20
5.202824
 30
0.0
  0
LWPOLYLINE
  5
2a9
100
AcDbEntity
  8
Capa_1
 62
7
100
AcDbPolyline
 90
1
 70
1
 10
2.801199
 20
5.005562
 30
0.0
  0
LWPOLYLINE
  5
2aa
100
AcDbEntity
  8
Capa_1
 62
7
100
AcDbPolyline
 90
11
 70
1
 10
2.289272
 20
5.022858
 30
0.0
 10
2.359850
 20
5.022858
 30
0.0
 10
2.391147
 20
4.882203
 30
0.0
 10
2.453103
 20
4.882203
 30
0.0
 10
2.421806
 20
5.022858
 30
0.0
 10
2.649187
 20
5.022858
 30
0.0
 10
2.632581
 20
5.098559
 30
0.0
 10
2.340690
 20
5.378540
 30
0.0
 10
2.281289
 20
5.378540
 30
0.0
 10
2.348673
 20
5.073560
 30
0.0
 10
2.278095
 20
5.073560
 30
0.0
  0
LWPOLYLINE
  5
2ab
100
AcDbEntity
  8
Capa_1
 62
7
100
AcDbPolyline
 90
3
 70
1
 10
2.410628
 20
5.073530
 30
0.0
 10
2.360808
 20
5.297844
 30
0.0
 10
2.593938
 20
5.073530
 30
0.0
  0
SPLINE
  5
2ac
100
AcDbEntity
  8
Capa_1
 62
7
100
AcDbSpline
 70
8
 71
3
 72
8
 73
4
 74
0
 40
0
 40
0
 40
0
 40
0
 40
1
 40
1
 40
1
 40
1
 10
2.680164
 20
3.496323
 30
0.0
 10
2.680164
 20
3.453211
 30
0.0
 10
2.686445
 20
3.411659
 30
0.0
 10
2.699006
 20
3.371666
 30
0.0
  0
SPLINE
  5
2ad
100
AcDbEntity
  8
Capa_1
 62
7
100
AcDbSpline
 70
8
 71
3
 72
8
 73
4
 74
0
 40
0
 40
0
 40
0
 40
0
 40
1
 40
1
 40
1
 40
1
 10
2.699006
 20
3.371666
 30
0.0
 10
2.711354
 20
3.331687
 30
0.0
 10
2.729345
 20
3.296469
 30
0.0
 10
2.752977
 20
3.266012
 30
0.0
  0
SPLINE
  5
2ae
100
AcDbEntity
  8
Capa_1
 62
7
100
AcDbSpline
 70
8
 71
3
 72
8
 73
4
 74
0
 40
0
 40
0
 40
0
 40
0
 40
1
 40
1
 40
1
 40
1
 10
2.752977
 20
3.266012
 30
0.0
 10
2.777248
 20
3.234682
 30
0.0
 10
2.806415
 20
3.210028
 30
0.0
 10
2.840480
 20
3.192047
 30
0.0
  0
SPLINE
  5
2af
100
AcDbEntity
  8
Capa_1
 62
7
100
AcDbSpline
 70
8
 71
3
 72
8
 73
4
 74
0
 40
0
 40
0
 40
0
 40
0
 40
1
 40
1
 40
1
 40
1
 10
2.840480
 20
3.192047
 30
0.0
 10
2.874545
 20
3.174271
 30
0.0
 10
2.912974
 20
3.165383
 30
0.0
 10
2.955768
 20
3.165383
 30
0.0
  0
SPLINE
  5
2b0
100
AcDbEntity
  8
Capa_1
 62
7
100
AcDbSpline
 70
8
 71
3
 72
8
 73
4
 74
0
 40
0
 40
0
 40
0
 40
0
 40
1
 40
1
 40
1
 40
1
 10
2.955768
 20
3.165383
 30
0.0
 10
3.012400
 20
3.165383
 30
0.0
 10
3.056684
 20
3.181491
 30
0.0
 10
3.088619
 20
3.213705
 30
0.0
  0
SPLINE
  5
2b1
100
AcDbEntity
  8
Capa_1
 62
7
100
AcDbSpline
 70
8
 71
3
 72
8
 73
4
 74
0
 40
0
 40
0
 40
0
 40
0
 40
1
 40
1
 40
1
 40
1
 10
3.088619
 20
3.213705
 30
0.0
 10
3.120555
 20
3.246124
 30
0.0
 10
3.136522
 20
3.292120
 30
0.0
 10
3.136522
 20
3.351694
 30
0.0
  0
SPLINE
  5
2b2
100
AcDbEntity
  8
Capa_1
 62
7
100
AcDbSpline
 70
8
 71
3
 72
8
 73
4
 74
0
 40
0
 40
0
 40
0
 40
0
 40
1
 40
1
 40
1
 40
1
 10
3.136522
 20
3.351694
 30
0.0
 10
3.136522
 20
3.397053
 30
0.0
 10
3.130135
 20
3.439382
 30
0.0
 10
3.117361
 20
3.478679
 30
0.0
  0
SPLINE
  5
2b3
100
AcDbEntity
  8
Capa_1
 62
7
100
AcDbSpline
 70
8
 71
3
 72
8
 73
4
 74
0
 40
0
 40
0
 40
0
 40
0
 40
1
 40
1
 40
1
 40
1
 10
3.117361
 20
3.478679
 30
0.0
 10
3.104587
 20
3.517977
 30
0.0
 10
3.086171
 20
3.553086
 30
0.0
 10
3.062113
 20
3.584007
 30
0.0
  0
SPLINE
  5
2b4
100
AcDbEntity
  8
Capa_1
 62
7
100
AcDbSpline
 70
8
 71
3
 72
8
 73
4
 74
0
 40
0
 40
0
 40
0
 40
0
 40
1
 40
1
 40
1
 40
1
 10
3.062113
 20
3.584007
 30
0.0
 10
3.038694
 20
3.613770
 30
0.0
 10
3.009739
 20
3.637539
 30
0.0
 10
2.975248
 20
3.655315
 30
0.0
  0
SPLINE
  5
2b5
100
AcDbEntity
  8
Capa_1
 62
7
100
AcDbSpline
 70
8
 71
3
 72
8
 73
4
 74
0
 40
0
 40
0
 40
0
 40
0
 40
1
 40
1
 40
1
 40
1
 10
2.975248
 20
3.655315
 30
0.0
 10
2.940545
 20
3.673295
 30
0.0
 10
2.902541
 20
3.682286
 30
0.0
 10
2.861238
 20
3.682286
 30
0.0
  0
SPLINE
  5
2b6
100
AcDbEntity
  8
Capa_1
 62
7
100
AcDbSpline
 70
8
 71
3
 72
8
 73
4
 74
0
 40
0
 40
0
 40
0
 40
0
 40
1
 40
1
 40
1
 40
1
 10
2.861238
 20
3.682286
 30
0.0
 10
2.804818
 20
3.682286
 30
0.0
 10
2.760534
 20
3.666178
 30
0.0
 10
2.728386
 20
3.633964
 30
0.0
  0
SPLINE
  5
2b7
100
AcDbEntity
  8
Capa_1
 62
7
100
AcDbSpline
 70
8
 71
3
 72
8
 73
4
 74
0
 40
0
 40
0
 40
0
 40
0
 40
1
 40
1
 40
1
 40
1
 10
2.728386
 20
3.633964
 30
0.0
 10
2.696237
 20
3.601953
 30
0.0
 10
2.680163
 20
3.556069
 30
0.0
 10
2.680163
 20
3.496312
 30
0.0
  0
LWPOLYLINE
  5
2b8
100
AcDbEntity
  8
Capa_1
 62
7
100
AcDbPolyline
 90
12
 70
1
 10
3.264585
 20
3.175681
 30
0.0
 10
3.453005
 20
3.175681
 30
0.0
 10
3.442467
 20
3.224003
 30
0.0
 10
3.380192
 20
3.224003
 30
0.0
 10
3.291411
 20
3.623635
 30
0.0
 10
3.353686
 20
3.623635
 30
0.0
 10
3.343148
 20
3.671957
 30
0.0
 10
3.154728
 20
3.671957
 30
0.0
 10
3.165266
 20
3.623635
 30
0.0
 10
3.227540
 20
3.623635
 30
0.0
 10
3.316321
 20
3.224003
 30
0.0
 10
3.254047
 20
3.224003
 30
0.0
  0
SPLINE
  5
2b9
100
AcDbEntity
  8
Capa_1
 62
7
100
AcDbSpline
 70
8
 71
3
 72
8
 73
4
 74
0
 40
0
 40
0
 40
0
 40
0
 40
1
 40
1
 40
1
 40
1
 10
2.801200
 20
3.299009
 30
0.0
 10
2.783316
 20
3.324345
 30
0.0
 10
2.769797
 20
3.352576
 30
0.0
 10
2.760642
 20
3.383701
 30
0.0
  0
SPLINE
  5
2ba
100
AcDbEntity
  8
Capa_1
 62
7
100
AcDbSpline
 70
8
 71
3
 72
8
 73
4
 74
0
 40
0
 40
0
 40
0
 40
0
 40
1
 40
1
 40
1
 40
1
 10
2.760642
 20
3.383701
 30
0.0
 10
2.751487
 20
3.415030
 30
0.0
 10
2.746910
 20
3.449472
 30
0.0
 10
2.746910
 20
3.487026
 30
0.0
  0
SPLINE
  5
2bb
100
AcDbEntity
  8
Capa_1
 62
7
100
AcDbSpline
 70
8
 71
3
 72
8
 73
4
 74
0
 40
0
 40
0
 40
0
 40
0
 40
1
 40
1
 40
1
 40
1
 10
2.746910
 20
3.487026
 30
0.0
 10
2.746910
 20
3.532385
 30
0.0
 10
2.757874
 20
3.567157
 30
0.0
 10
2.779803
 20
3.591342
 30
0.0
  0
SPLINE
  5
2bc
100
AcDbEntity
  8
Capa_1
 62
7
100
AcDbSpline
 70
8
 71
3
 72
8
 73
4
 74
0
 40
0
 40
0
 40
0
 40
0
 40
1
 40
1
 40
1
 40
1
 10
2.779803
 20
3.591342
 30
0.0
 10
2.801519
 20
3.615793
 30
0.0
 10
2.831964
 20
3.628018
 30
0.0
 10
2.871139
 20
3.628018
 30
0.0
  0
SPLINE
  5
2bd
100
AcDbEntity
  8
Capa_1
 62
7
100
AcDbSpline
 70
8
 71
3
 72
8
 73
4
 74
0
 40
0
 40
0
 40
0
 40
0
 40
1
 40
1
 40
1
 40
1
 10
2.871139
 20
3.628018
 30
0.0
 10
2.901584
 20
3.628018
 30
0.0
 10
2.929049
 20
3.620696
 30
0.0
 10
2.953532
 20
3.606053
 30
0.0
  0
SPLINE
  5
2be
100
AcDbEntity
  8
Capa_1
 62
7
100
AcDbSpline
 70
8
 71
3
 72
8
 73
4
 74
0
 40
0
 40
0
 40
0
 40
0
 40
1
 40
1
 40
1
 40
1
 10
2.953532
 20
3.606053
 30
0.0
 10
2.978016
 20
3.591615
 30
0.0
 10
2.999094
 20
3.571966
 30
0.0
 10
3.016765
 20
3.547107
 30
0.0
  0
SPLINE
  5
2bf
100
AcDbEntity
  8
Capa_1
 62
7
100
AcDbSpline
 70
8
 71
3
 72
8
 73
4
 74
0
 40
0
 40
0
 40
0
 40
0
 40
1
 40
1
 40
1
 40
1
 10
3.016765
 20
3.547107
 30
0.0
 10
3.033797
 20
3.522656
 30
0.0
 10
3.046891
 20
3.494221
 30
0.0
 10
3.056045
 20
3.461802
 30
0.0
  0
SPLINE
  5
2c0
100
AcDbEntity
  8
Capa_1
 62
7
100
AcDbSpline
 70
8
 71
3
 72
8
 73
4
 74
0
 40
0
 40
0
 40
0
 40
0
 40
1
 40
1
 40
1
 40
1
 10
3.056045
 20
3.461802
 30
0.0
 10
3.065200
 20
3.429588
 30
0.0
 10
3.069778
 20
3.396352
 30
0.0
 10
3.069778
 20
3.362094
 30
0.0
  0
SPLINE
  5
2c1
100
AcDbEntity
  8
Capa_1
 62
7
100
AcDbSpline
 70
8
 71
3
 72
8
 73
4
 74
0
 40
0
 40
0
 40
0
 40
0
 40
1
 40
1
 40
1
 40
1
 10
3.069778
 20
3.362094
 30
0.0
 10
3.069778
 20
3.316326
 30
0.0
 10
3.058920
 20
3.281108
 30
0.0
 10
3.037204
 20
3.256439
 30
0.0
  0
SPLINE
  5
2c2
100
AcDbEntity
  8
Capa_1
 62
7
100
AcDbSpline
 70
8
 71
3
 72
8
 73
4
 74
0
 40
0
 40
0
 40
0
 40
0
 40
1
 40
1
 40
1
 40
1
 10
3.037204
 20
3.256439
 30
0.0
 10
3.015275
 20
3.231989
 30
0.0
 10
2.984616
 20
3.219763
 30
0.0
 10
2.945229
 20
3.219763
 30
0.0
  0
SPLINE
  5
2c3
100
AcDbEntity
  8
Capa_1
 62
7
100
AcDbSpline
 70
8
 71
3
 72
8
 73
4
 74
0
 40
0
 40
0
 40
0
 40
0
 40
1
 40
1
 40
1
 40
1
 10
2.945229
 20
3.219763
 30
0.0
 10
2.915209
 20
3.219763
 30
0.0
 10
2.887958
 20
3.226983
 30
0.0
 10
2.863473
 20
3.241422
 30
0.0
  0
SPLINE
  5
2c4
100
AcDbEntity
  8
Capa_1
 62
7
100
AcDbSpline
 70
8
 71
3
 72
8
 73
4
 74
0
 40
0
 40
0
 40
0
 40
0
 40
1
 40
1
 40
1
 40
1
 10
2.863473
 20
3.241422
 30
0.0
 10
2.838776
 20
3.255860
 30
0.0
 10
2.818018
 20
3.275066
 30
0.0
 10
2.801199
 20
3.299040
 30
0.0
  0
LWPOLYLINE
  5
2c5
100
AcDbEntity
  8
Capa_1
 62
7
100
AcDbPolyline
 90
1
 70
1
 10
2.680163
 20
3.496312
 30
0.0
  0
SPLINE
  5
2c6
100
AcDbEntity
  8
Capa_1
 62
7
100
AcDbSpline
 70
8
 71
3
 72
8
 73
4
 74
0
 40
0
 40
0
 40
0
 40
0
 40
1
 40
1
 40
1
 40
1
 10
2.351866
 20
3.224013
 30
0.0
 10
2.370602
 20
3.205556
 30
0.0
 10
2.392425
 20
3.191118
 30
0.0
 10
2.417335
 20
3.180697
 30
0.0
  0
SPLINE
  5
2c7
100
AcDbEntity
  8
Capa_1
 62
7
100
AcDbSpline
 70
8
 71
3
 72
8
 73
4
 74
0
 40
0
 40
0
 40
0
 40
0
 40
1
 40
1
 40
1
 40
1
 10
2.417335
 20
3.180697
 30
0.0
 10
2.442244
 20
3.170481
 30
0.0
 10
2.471519
 20
3.165373
 30
0.0
 10
2.505157
 20
3.165373
 30
0.0
  0
SPLINE
  5
2c8
100
AcDbEntity
  8
Capa_1
 62
7
100
AcDbSpline
 70
8
 71
3
 72
8
 73
4
 74
0
 40
0
 40
0
 40
0
 40
0
 40
1
 40
1
 40
1
 40
1
 10
2.505157
 20
3.165373
 30
0.0
 10
2.531131
 20
3.165373
 30
0.0
 10
2.555615
 20
3.168778
 30
0.0
 10
2.578609
 20
3.175589
 30
0.0
  0
SPLINE
  5
2c9
100
AcDbEntity
  8
Capa_1
 62
7
100
AcDbSpline
 70
8
 71
3
 72
8
 73
4
 74
0
 40
0
 40
0
 40
0
 40
0
 40
1
 40
1
 40
1
 40
1
 10
2.578609
 20
3.175589
 30
0.0
 10
2.601603
 20
3.182400
 30
0.0
 10
2.620658
 20
3.189721
 30
0.0
 10
2.635774
 20
3.197554
 30
0.0
  0
LWPOLYLINE
  5
2ca
100
AcDbEntity
  8
Capa_1
 62
7
100
AcDbPolyline
 90
1
 70
1
 10
2.801199
 20
3.299040
 30
0.0
  0
SPLINE
  5
2cb
100
AcDbEntity
  8
Capa_1
 62
7
100
AcDbSpline
 70
8
 71
3
 72
8
 73
4
 74
0
 40
0
 40
0
 40
0
 40
0
 40
1
 40
1
 40
1
 40
1
 10
2.618527
 20
3.262221
 30
0.0
 10
2.605326
 20
3.251801
 30
0.0
 10
2.587549
 20
3.242232
 30
0.0
 10
2.565194
 20
3.233514
 30
0.0
  0
SPLINE
  5
2cc
100
AcDbEntity
  8
Capa_1
 62
7
100
AcDbSpline
 70
8
 71
3
 72
8
 73
4
 74
0
 40
0
 40
0
 40
0
 40
0
 40
1
 40
1
 40
1
 40
1
 10
2.565194
 20
3.233514
 30
0.0
 10
2.542839
 20
3.225069
 30
0.0
 10
2.519632
 20
3.220846
 30
0.0
 10
2.495574
 20
3.220846
 30
0.0
  0
SPLINE
  5
2cd
100
AcDbEntity
  8
Capa_1
 62
7
100
AcDbSpline
 70
8
 71
3
 72
8
 73
4
 74
0
 40
0
 40
0
 40
0
 40
0
 40
1
 40
1
 40
1
 40
1
 10
2.495574
 20
3.220846
 30
0.0
 10
2.455974
 20
3.220846
 30
0.0
 10
2.424038
 20
3.232833
 30
0.0
 10
2.399767
 20
3.256807
 30
0.0
  0
SPLINE
  5
2ce
100
AcDbEntity
  8
Capa_1
 62
7
100
AcDbSpline
 70
8
 71
3
 72
8
 73
4
 74
0
 40
0
 40
0
 40
0
 40
0
 40
1
 40
1
 40
1
 40
1
 10
2.399767
 20
3.256807
 30
0.0
 10
2.375496
 20
3.280781
 30
0.0
 10
2.363361
 20
3.312212
 30
0.0
 10
2.363361
 20
3.351101
 30
0.0
  0
SPLINE
  5
2cf
100
AcDbEntity
  8
Capa_1
 62
7
100
AcDbSpline
 70
8
 71
3
 72
8
 73
4
 74
0
 40
0
 40
0
 40
0
 40
0
 40
1
 40
1
 40
1
 40
1
 10
2.363361
 20
3.351101
 30
0.0
 10
2.363361
 20
3.366221
 30
0.0
 10
2.366128
 20
3.378787
 30
0.0
 10
2.371661
 20
3.388798
 30
0.0
  0
SPLINE
  5
2d0
100
AcDbEntity
  8
Capa_1
 62
7
100
AcDbSpline
 70
8
 71
3
 72
8
 73
4
 74
0
 40
0
 40
0
 40
0
 40
0
 40
1
 40
1
 40
1
 40
1
 10
2.371661
 20
3.388798
 30
0.0
 10
2.377195
 20
3.398810
 30
0.0
 10
2.384647
 20
3.406915
 30
0.0
 10
2.394016
 20
3.413113
 30
0.0
  0
SPLINE
  5
2d1
100
AcDbEntity
  8
Capa_1
 62
7
100
AcDbSpline
 70
8
 71
3
 72
8
 73
4
 74
0
 40
0
 40
0
 40
0
 40
0
 40
1
 40
1
 40
1
 40
1
 10
2.394016
 20
3.413113
 30
0.0
 10
2.403597
 20
3.419242
 30
0.0
 10
2.414988
 20
3.423669
 30
0.0
 10
2.428187
 20
3.426394
 30
0.0
  0
SPLINE
  5
2d2
100
AcDbEntity
  8
Capa_1
 62
7
100
AcDbSpline
 70
8
 71
3
 72
8
 73
4
 74
0
 40
0
 40
0
 40
0
 40
0
 40
1
 40
1
 40
1
 40
1
 10
2.428187
 20
3.426394
 30
0.0
 10
2.441175
 20
3.429118
 30
0.0
 10
2.454907
 20
3.430480
 30
0.0
 10
2.469384
 20
3.430480
 30
0.0
  0
SPLINE
  5
2d3
100
AcDbEntity
  8
Capa_1
 62
7
100
AcDbSpline
 70
8
 71
3
 72
8
 73
4
 74
0
 40
0
 40
0
 40
0
 40
0
 40
1
 40
1
 40
1
 40
1
 10
2.469384
 20
3.430480
 30
0.0
 10
2.488119
 20
3.430480
 30
0.0
 10
2.506961
 20
3.429118
 30
0.0
 10
2.525910
 20
3.426394
 30
0.0
  0
SPLINE
  5
2d4
100
AcDbEntity
  8
Capa_1
 62
7
100
AcDbSpline
 70
8
 71
3
 72
8
 73
4
 74
0
 40
0
 40
0
 40
0
 40
0
 40
1
 40
1
 40
1
 40
1
 10
2.525910
 20
3.426394
 30
0.0
 10
2.544646
 20
3.423669
 30
0.0
 10
2.560613
 20
3.420945
 30
0.0
 10
2.573813
 20
3.418221
 30
0.0
  0
LWPOLYLINE
  5
2d5
100
AcDbEntity
  8
Capa_1
 62
7
100
AcDbPolyline
 90
3
 70
0
 10
2.635774
 20
3.197554
 30
0.0
 10
2.623000
 20
3.262221
 30
0.0
 10
2.618527
 20
3.262221
 30
0.0
  0
SPLINE
  5
2d6
100
AcDbEntity
  8
Capa_1
 62
7
100
AcDbSpline
 70
8
 71
3
 72
8
 73
4
 74
0
 40
0
 40
0
 40
0
 40
0
 40
1
 40
1
 40
1
 40
1
 10
2.498125
 20
3.479895
 30
0.0
 10
2.489396
 20
3.481257
 30
0.0
 10
2.480880
 20
3.482279
 30
0.0
 10
2.472576
 20
3.482960
 30
0.0
  0
SPLINE
  5
2d7
100
AcDbEntity
  8
Capa_1
 62
7
100
AcDbSpline
 70
8
 71
3
 72
8
 73
4
 74
0
 40
0
 40
0
 40
0
 40
0
 40
1
 40
1
 40
1
 40
1
 10
2.472576
 20
3.482960
 30
0.0
 10
2.464273
 20
3.483627
 30
0.0
 10
2.455864
 20
3.483961
 30
0.0
 10
2.447348
 20
3.483961
 30
0.0
  0
SPLINE
  5
2d8
100
AcDbEntity
  8
Capa_1
 62
7
100
AcDbSpline
 70
8
 71
3
 72
8
 73
4
 74
0
 40
0
 40
0
 40
0
 40
0
 40
1
 40
1
 40
1
 40
1
 10
2.447348
 20
3.483961
 30
0.0
 10
2.399444
 20
3.483961
 30
0.0
 10
2.362186
 20
3.473166
 30
0.0
 10
2.335573
 20
3.451576
 30
0.0
  0
SPLINE
  5
2d9
100
AcDbEntity
  8
Capa_1
 62
7
100
AcDbSpline
 70
8
 71
3
 72
8
 73
4
 74
0
 40
0
 40
0
 40
0
 40
0
 40
1
 40
1
 40
1
 40
1
 10
2.335573
 20
3.451576
 30
0.0
 10
2.308747
 20
3.430054
 30
0.0
 10
2.295334
 20
3.400734
 30
0.0
 10
2.295334
 20
3.363616
 30
0.0
  0
SPLINE
  5
2da
100
AcDbEntity
  8
Capa_1
 62
7
100
AcDbSpline
 70
8
 71
3
 72
8
 73
4
 74
0
 40
0
 40
0
 40
0
 40
0
 40
1
 40
1
 40
1
 40
1
 10
2.295334
 20
3.363616
 30
0.0
 10
2.295334
 20
3.336918
 30
0.0
 10
2.300231
 20
3.311582
 30
0.0
 10
2.310025
 20
3.287608
 30
0.0
  0
SPLINE
  5
2db
100
AcDbEntity
  8
Capa_1
 62
7
100
AcDbSpline
 70
8
 71
3
 72
8
 73
4
 74
0
 40
0
 40
0
 40
0
 40
0
 40
1
 40
1
 40
1
 40
1
 10
2.310025
 20
3.287608
 30
0.0
 10
2.319819
 20
3.263635
 30
0.0
 10
2.333764
 20
3.242624
 30
0.0
 10
2.351860
 20
3.224575
 30
0.0
  0
LWPOLYLINE
  5
2dc
100
AcDbEntity
  8
Capa_1
 62
7
100
AcDbPolyline
 90
6
 70
0
 10
2.573813
 20
3.418221
 30
0.0
 10
2.517606
 20
3.672539
 30
0.0
 10
2.232421
 20
3.672539
 30
0.0
 10
2.244876
 20
3.616555
 30
0.0
 10
2.468106
 20
3.616555
 30
0.0
 10
2.498125
 20
3.479895
 30
0.0
  0
LWPOLYLINE
  5
2dd
100
AcDbEntity
  8
Capa_1
 62
7
100
AcDbPolyline
 90
2
 70
0
 10
2.351860
 20
3.224575
 30
0.0
 10
2.351866
 20
3.224013
 30
0.0
  0
SPLINE
  5
2de
100
AcDbEntity
  8
Capa_1
 62
7
100
AcDbSpline
 70
8
 71
3
 72
8
 73
4
 74
0
 40
0
 40
0
 40
0
 40
0
 40
1
 40
1
 40
1
 40
1
 10
2.680164
 20
1.789801
 30
0.0
 10
2.680164
 20
1.746689
 30
0.0
 10
2.686445
 20
1.705137
 30
0.0
 10
2.699006
 20
1.665144
 30
0.0
  0
SPLINE
  5
2df
100
AcDbEntity
  8
Capa_1
 62
7
100
AcDbSpline
 70
8
 71
3
 72
8
 73
4
 74
0
 40
0
 40
0
 40
0
 40
0
 40
1
 40
1
 40
1
 40
1
 10
2.699006
 20
1.665144
 30
0.0
 10
2.711354
 20
1.625165
 30
0.0
 10
2.729345
 20
1.589947
 30
0.0
 10
2.752977
 20
1.559490
 30
0.0
  0
SPLINE
  5
2e0
100
AcDbEntity
  8
Capa_1
 62
7
100
AcDbSpline
 70
8
 71
3
 72
8
 73
4
 74
0
 40
0
 40
0
 40
0
 40
0
 40
1
 40
1
 40
1
 40
1
 10
2.752977
 20
1.559490
 30
0.0
 10
2.777248
 20
1.528160
 30
0.0
 10
2.806415
 20
1.503506
 30
0.0
 10
2.840480
 20
1.485525
 30
0.0
  0
SPLINE
  5
2e1
100
AcDbEntity
  8
Capa_1
 62
7
100
AcDbSpline
 70
8
 71
3
 72
8
 73
4
 74
0
 40
0
 40
0
 40
0
 40
0
 40
1
 40
1
 40
1
 40
1
 10
2.840480
 20
1.485525
 30
0.0
 10
2.874545
 20
1.467749
 30
0.0
 10
2.912974
 20
1.458861
 30
0.0
 10
2.955768
 20
1.458861
 30
0.0
  0
SPLINE
  5
2e2
100
AcDbEntity
  8
Capa_1
 62
7
100
AcDbSpline
 70
8
 71
3
 72
8
 73
4
 74
0
 40
0
 40
0
 40
0
 40
0
 40
1
 40
1
 40
1
 40
1
 10
2.955768
 20
1.458861
 30
0.0
 10
3.012400
 20
1.458861
 30
0.0
 10
3.056684
 20
1.474969
 30
0.0
 10
3.088619
 20
1.507183
 30
0.0
  0
SPLINE
  5
2e3
100
AcDbEntity
  8
Capa_1
 62
7
100
AcDbSpline
 70
8
 71
3
 72
8
 73
4
 74
0
 40
0
 40
0
 40
0
 40
0
 40
1
 40
1
 40
1
 40
1
 10
3.088619
 20
1.507183
 30
0.0
 10
3.120555
 20
1.539602
 30
0.0
 10
3.136522
 20
1.585598
 30
0.0
 10
3.136522
 20
1.645172
 30
0.0
  0
SPLINE
  5
2e4
100
AcDbEntity
  8
Capa_1
 62
7
100
AcDbSpline
 70
8
 71
3
 72
8
 73
4
 74
0
 40
0
 40
0
 40
0
 40
0
 40
1
 40
1
 40
1
 40
1
 10
3.136522
 20
1.645172
 30
0.0
 10
3.136522
 20
1.690463
 30
0.0
 10
3.130135
 20
1.732791
 30
0.0
 10
3.117361
 20
1.772157
 30
0.0
  0
SPLINE
  5
2e5
100
AcDbEntity
  8
Capa_1
 62
7
100
AcDbSpline
 70
8
 71
3
 72
8
 73
4
 74
0
 40
0
 40
0
 40
0
 40
0
 40
1
 40
1
 40
1
 40
1
 10
3.117361
 20
1.772157
 30
0.0
 10
3.104587
 20
1.811455
 30
0.0
 10
3.086171
 20
1.846564
 30
0.0
 10
3.062113
 20
1.877485
 30
0.0
  0
SPLINE
  5
2e6
100
AcDbEntity
  8
Capa_1
 62
7
100
AcDbSpline
 70
8
 71
3
 72
8
 73
4
 74
0
 40
0
 40
0
 40
0
 40
0
 40
1
 40
1
 40
1
 40
1
 10
3.062113
 20
1.877485
 30
0.0
 10
3.038694
 20
1.907248
 30
0.0
 10
3.009739
 20
1.931017
 30
0.0
 10
2.975248
 20
1.948793
 30
0.0
  0
SPLINE
  5
2e7
100
AcDbEntity
  8
Capa_1
 62
7
100
AcDbSpline
 70
8
 71
3
 72
8
 73
4
 74
0
 40
0
 40
0
 40
0
 40
0
 40
1
 40
1
 40
1
 40
1
 10
2.975248
 20
1.948793
 30
0.0
 10
2.940545
 20
1.966773
 30
0.0
 10
2.902541
 20
1.975764
 30
0.0
 10
2.861238
 20
1.975764
 30
0.0
  0
SPLINE
  5
2e8
100
AcDbEntity
  8
Capa_1
 62
7
100
AcDbSpline
 70
8
 71
3
 72
8
 73
4
 74
0
 40
0
 40
0
 40
0
 40
0
 40
1
 40
1
 40
1
 40
1
 10
2.861238
 20
1.975764
 30
0.0
 10
2.804818
 20
1.975764
 30
0.0
 10
2.760534
 20
1.959656
 30
0.0
 10
2.728386
 20
1.927442
 30
0.0
  0
SPLINE
  5
2e9
100
AcDbEntity
  8
Capa_1
 62
7
100
AcDbSpline
 70
8
 71
3
 72
8
 73
4
 74
0
 40
0
 40
0
 40
0
 40
0
 40
1
 40
1
 40
1
 40
1
 10
2.728386
 20
1.927442
 30
0.0
 10
2.696237
 20
1.895431
 30
0.0
 10
2.680163
 20
1.849547
 30
0.0
 10
2.680163
 20
1.789790
 30
0.0
  0
LWPOLYLINE
  5
2ea
100
AcDbEntity
  8
Capa_1
 62
7
100
AcDbPolyline
 90
12
 70
1
 10
3.264585
 20
1.469159
 30
0.0
 10
3.453005
 20
1.469159
 30
0.0
 10
3.442467
 20
1.517481
 30
0.0
 10
3.380192
 20
1.517481
 30
0.0
 10
3.291411
 20
1.917113
 30
0.0
 10
3.353686
 20
1.917113
 30
0.0
 10
3.343148
 20
1.965435
 30
0.0
 10
3.154728
 20
1.965435
 30
0.0
 10
3.165266
 20
1.917113
 30
0.0
 10
3.227540
 20
1.917113
 30
0.0
 10
3.316321
 20
1.517481
 30
0.0
 10
3.254047
 20
1.517481
 30
0.0
  0
SPLINE
  5
2eb
100
AcDbEntity
  8
Capa_1
 62
7
100
AcDbSpline
 70
8
 71
3
 72
8
 73
4
 74
0
 40
0
 40
0
 40
0
 40
0
 40
1
 40
1
 40
1
 40
1
 10
2.801200
 20
1.592487
 30
0.0
 10
2.783316
 20
1.617823
 30
0.0
 10
2.769797
 20
1.646054
 30
0.0
 10
2.760642
 20
1.677179
 30
0.0
  0
SPLINE
  5
2ec
100
AcDbEntity
  8
Capa_1
 62
7
100
AcDbSpline
 70
8
 71
3
 72
8
 73
4
 74
0
 40
0
 40
0
 40
0
 40
0
 40
1
 40
1
 40
1
 40
1
 10
2.760642
 20
1.677179
 30
0.0
 10
2.751487
 20
1.708508
 30
0.0
 10
2.746910
 20
1.742950
 30
0.0
 10
2.746910
 20
1.780504
 30
0.0
  0
SPLINE
  5
2ed
100
AcDbEntity
  8
Capa_1
 62
7
100
AcDbSpline
 70
8
 71
3
 72
8
 73
4
 74
0
 40
0
 40
0
 40
0
 40
0
 40
1
 40
1
 40
1
 40
1
 10
2.746910
 20
1.780504
 30
0.0
 10
2.746910
 20
1.825863
 30
0.0
 10
2.757874
 20
1.860635
 30
0.0
 10
2.779803
 20
1.884820
 30
0.0
  0
SPLINE
  5
2ee
100
AcDbEntity
  8
Capa_1
 62
7
100
AcDbSpline
 70
8
 71
3
 72
8
 73
4
 74
0
 40
0
 40
0
 40
0
 40
0
 40
1
 40
1
 40
1
 40
1
 10
2.779803
 20
1.884820
 30
0.0
 10
2.801519
 20
1.909271
 30
0.0
 10
2.831964
 20
1.921496
 30
0.0
 10
2.871139
 20
1.921496
 30
0.0
  0
SPLINE
  5
2ef
100
AcDbEntity
  8
Capa_1
 62
7
100
AcDbSpline
 70
8
 71
3
 72
8
 73
4
 74
0
 40
0
 40
0
 40
0
 40
0
 40
1
 40
1
 40
1
 40
1
 10
2.871139
 20
1.921496
 30
0.0
 10
2.901584
 20
1.921496
 30
0.0
 10
2.929049
 20
1.914174
 30
0.0
 10
2.953532
 20
1.899531
 30
0.0
  0
SPLINE
  5
2f0
100
AcDbEntity
  8
Capa_1
 62
7
100
AcDbSpline
 70
8
 71
3
 72
8
 73
4
 74
0
 40
0
 40
0
 40
0
 40
0
 40
1
 40
1
 40
1
 40
1
 10
2.953532
 20
1.899531
 30
0.0
 10
2.978016
 20
1.885093
 30
0.0
 10
2.999094
 20
1.865444
 30
0.0
 10
3.016765
 20
1.840585
 30
0.0
  0
SPLINE
  5
2f1
100
AcDbEntity
  8
Capa_1
 62
7
100
AcDbSpline
 70
8
 71
3
 72
8
 73
4
 74
0
 40
0
 40
0
 40
0
 40
0
 40
1
 40
1
 40
1
 40
1
 10
3.016765
 20
1.840585
 30
0.0
 10
3.033797
 20
1.816134
 30
0.0
 10
3.046891
 20
1.787699
 30
0.0
 10
3.056045
 20
1.755280
 30
0.0
  0
SPLINE
  5
2f2
100
AcDbEntity
  8
Capa_1
 62
7
100
AcDbSpline
 70
8
 71
3
 72
8
 73
4
 74
0
 40
0
 40
0
 40
0
 40
0
 40
1
 40
1
 40
1
 40
1
 10
3.056045
 20
1.755280
 30
0.0
 10
3.065200
 20
1.723066
 30
0.0
 10
3.069778
 20
1.689864
 30
0.0
 10
3.069778
 20
1.655674
 30
0.0
  0
SPLINE
  5
2f3
100
AcDbEntity
  8
Capa_1
 62
7
100
AcDbSpline
 70
8
 71
3
 72
8
 73
4
 74
0
 40
0
 40
0
 40
0
 40
0
 40
1
 40
1
 40
1
 40
1
 10
3.069778
 20
1.655674
 30
0.0
 10
3.069778
 20
1.609906
 30
0.0
 10
3.058920
 20
1.574688
 30
0.0
 10
3.037204
 20
1.550019
 30
0.0
  0
SPLINE
  5
2f4
100
AcDbEntity
  8
Capa_1
 62
7
100
AcDbSpline
 70
8
 71
3
 72
8
 73
4
 74
0
 40
0
 40
0
 40
0
 40
0
 40
1
 40
1
 40
1
 40
1
 10
3.037204
 20
1.550019
 30
0.0
 10
3.015275
 20
1.525569
 30
0.0
 10
2.984616
 20
1.513344
 30
0.0
 10
2.945229
 20
1.513344
 30
0.0
  0
SPLINE
  5
2f5
100
AcDbEntity
  8
Capa_1
 62
7
100
AcDbSpline
 70
8
 71
3
 72
8
 73
4
 74
0
 40
0
 40
0
 40
0
 40
0
 40
1
 40
1
 40
1
 40
1
 10
2.945229
 20
1.513344
 30
0.0
 10
2.915209
 20
1.513344
 30
0.0
 10
2.887958
 20
1.520563
 30
0.0
 10
2.863473
 20
1.535002
 30
0.0
  0
SPLINE
  5
2f6
100
AcDbEntity
  8
Capa_1
 62
7
100
AcDbSpline
 70
8
 71
3
 72
8
 73
4
 74
0
 40
0
 40
0
 40
0
 40
0
 40
1
 40
1
 40
1
 40
1
 10
2.863473
 20
1.535002
 30
0.0
 10
2.838776
 20
1.549440
 30
0.0
 10
2.818018
 20
1.568647
 30
0.0
 10
2.801199
 20
1.592620
 30
0.0
  0
LWPOLYLINE
  5
2f7
100
AcDbEntity
  8
Capa_1
 62
7
100
AcDbPolyline
 90
1
 70
1
 10
2.680163
 20
1.789790
 30
0.0
  0
SPLINE
  5
2f8
100
AcDbEntity
  8
Capa_1
 62
7
100
AcDbSpline
 70
8
 71
3
 72
8
 73
4
 74
0
 40
0
 40
0
 40
0
 40
0
 40
1
 40
1
 40
1
 40
1
 10
2.474499
 20
1.458831
 30
0.0
 10
2.521125
 20
1.458831
 30
0.0
 10
2.557318
 20
1.473814
 30
0.0
 10
2.583080
 20
1.503781
 30
0.0
  0
SPLINE
  5
2f9
100
AcDbEntity
  8
Capa_1
 62
7
100
AcDbSpline
 70
8
 71
3
 72
8
 73
4
 74
0
 40
0
 40
0
 40
0
 40
0
 40
1
 40
1
 40
1
 40
1
 10
2.583080
 20
1.503781
 30
0.0
 10
2.608841
 20
1.534021
 30
0.0
 10
2.621722
 20
1.575239
 30
0.0
 10
2.621722
 20
1.627437
 30
0.0
  0
SPLINE
  5
2fa
100
AcDbEntity
  8
Capa_1
 62
7
100
AcDbSpline
 70
8
 71
3
 72
8
 73
4
 74
0
 40
0
 40
0
 40
0
 40
0
 40
1
 40
1
 40
1
 40
1
 10
2.621722
 20
1.627437
 30
0.0
 10
2.621722
 20
1.675452
 30
0.0
 10
2.615228
 20
1.720117
 30
0.0
 10
2.602241
 20
1.761431
 30
0.0
  0
SPLINE
  5
2fb
100
AcDbEntity
  8
Capa_1
 62
7
100
AcDbSpline
 70
8
 71
3
 72
8
 73
4
 74
0
 40
0
 40
0
 40
0
 40
0
 40
1
 40
1
 40
1
 40
1
 10
2.602241
 20
1.761431
 30
0.0
 10
2.589253
 20
1.802976
 30
0.0
 10
2.570198
 20
1.839863
 30
0.0
 10
2.545076
 20
1.872091
 30
0.0
  0
SPLINE
  5
2fc
100
AcDbEntity
  8
Capa_1
 62
7
100
AcDbSpline
 70
8
 71
3
 72
8
 73
4
 74
0
 40
0
 40
0
 40
0
 40
0
 40
1
 40
1
 40
1
 40
1
 10
2.545076
 20
1.872091
 30
0.0
 10
2.520379
 20
1.903420
 30
0.0
 10
2.489721
 20
1.928313
 30
0.0
 10
2.453101
 20
1.946770
 30
0.0
  0
SPLINE
  5
2fd
100
AcDbEntity
  8
Capa_1
 62
7
100
AcDbSpline
 70
8
 71
3
 72
8
 73
4
 74
0
 40
0
 40
0
 40
0
 40
0
 40
1
 40
1
 40
1
 40
1
 10
2.453101
 20
1.946770
 30
0.0
 10
2.416269
 20
1.965432
 30
0.0
 10
2.375072
 20
1.974762
 30
0.0
 10
2.329510
 20
1.974762
 30
0.0
  0
SPLINE
  5
2fe
100
AcDbEntity
  8
Capa_1
 62
7
100
AcDbSpline
 70
8
 71
3
 72
8
 73
4
 74
0
 40
0
 40
0
 40
0
 40
0
 40
1
 40
1
 40
1
 40
1
 10
2.329510
 20
1.974762
 30
0.0
 10
2.316098
 20
1.974762
 30
0.0
 10
2.304920
 20
1.974081
 30
0.0
 10
2.295978
 20
1.972719
 30
0.0
  0
SPLINE
  5
2ff
100
AcDbEntity
  8
Capa_1
 62
7
100
AcDbSpline
 70
8
 71
3
 72
8
 73
4
 74
0
 40
0
 40
0
 40
0
 40
0
 40
1
 40
1
 40
1
 40
1
 10
2.295978
 20
1.972719
 30
0.0
 10
2.287036
 20
1.971357
 30
0.0
 10
2.279584
 20
1.969654
 30
0.0
 10
2.273623
 20
1.967611
 30
0.0
  0
LWPOLYLINE
  5
300
100
AcDbEntity
  8
Capa_1
 62
7
100
AcDbPolyline
 90
2
 70
0
 10
2.801199
 20
1.592620
 30
0.0
 10
2.801200
 20
1.592487
 30
0.0
  0
SPLINE
  5
301
100
AcDbEntity
  8
Capa_1
 62
7
100
AcDbSpline
 70
8
 71
3
 72
8
 73
4
 74
0
 40
0
 40
0
 40
0
 40
0
 40
1
 40
1
 40
1
 40
1
 10
2.287992
 20
1.908664
 30
0.0
 10
2.292886
 20
1.911389
 30
0.0
 10
2.301295
 20
1.914113
 30
0.0
 10
2.313220
 20
1.916837
 30
0.0
  0
SPLINE
  5
302
100
AcDbEntity
  8
Capa_1
 62
7
100
AcDbSpline
 70
8
 71
3
 72
8
 73
4
 74
0
 40
0
 40
0
 40
0
 40
0
 40
1
 40
1
 40
1
 40
1
 10
2.313220
 20
1.916837
 30
0.0
 10
2.324930
 20
1.919562
 30
0.0
 10
2.337066
 20
1.920924
 30
0.0
 10
2.349627
 20
1.920924
 30
0.0
  0
SPLINE
  5
303
100
AcDbEntity
  8
Capa_1
 62
7
100
AcDbSpline
 70
8
 71
3
 72
8
 73
4
 74
0
 40
0
 40
0
 40
0
 40
0
 40
1
 40
1
 40
1
 40
1
 10
2.349627
 20
1.920924
 30
0.0
 10
2.395188
 20
1.920924
 30
0.0
 10
2.435747
 20
1.905361
 30
0.0
 10
2.471301
 20
1.874236
 30
0.0
  0
SPLINE
  5
304
100
AcDbEntity
  8
Capa_1
 62
7
100
AcDbSpline
 70
8
 71
3
 72
8
 73
4
 74
0
 40
0
 40
0
 40
0
 40
0
 40
1
 40
1
 40
1
 40
1
 10
2.471301
 20
1.874236
 30
0.0
 10
2.506857
 20
1.843384
 30
0.0
 10
2.530808
 20
1.803167
 30
0.0
 10
2.543157
 20
1.753585
 30
0.0
  0
SPLINE
  5
305
100
AcDbEntity
  8
Capa_1
 62
7
100
AcDbSpline
 70
8
 71
3
 72
8
 73
4
 74
0
 40
0
 40
0
 40
0
 40
0
 40
1
 40
1
 40
1
 40
1
 10
2.543157
 20
1.753585
 30
0.0
 10
2.524634
 20
1.764482
 30
0.0
 10
2.504834
 20
1.773029
 30
0.0
 10
2.483756
 20
1.779227
 30
0.0
  0
SPLINE
  5
306
100
AcDbEntity
  8
Capa_1
 62
7
100
AcDbSpline
 70
8
 71
3
 72
8
 73
4
 74
0
 40
0
 40
0
 40
0
 40
0
 40
1
 40
1
 40
1
 40
1
 10
2.483756
 20
1.779227
 30
0.0
 10
2.462679
 20
1.785357
 30
0.0
 10
2.441708
 20
1.788421
 30
0.0
 10
2.420844
 20
1.788421
 30
0.0
  0
SPLINE
  5
307
100
AcDbEntity
  8
Capa_1
 62
7
100
AcDbSpline
 70
8
 71
3
 72
8
 73
4
 74
0
 40
0
 40
0
 40
0
 40
0
 40
1
 40
1
 40
1
 40
1
 10
2.420844
 20
1.788421
 30
0.0
 10
2.401256
 20
1.788421
 30
0.0
 10
2.383479
 20
1.785697
 30
0.0
 10
2.367511
 20
1.780249
 30
0.0
  0
SPLINE
  5
308
100
AcDbEntity
  8
Capa_1
 62
7
100
AcDbSpline
 70
8
 71
3
 72
8
 73
4
 74
0
 40
0
 40
0
 40
0
 40
0
 40
1
 40
1
 40
1
 40
1
 10
2.367511
 20
1.780249
 30
0.0
 10
2.351331
 20
1.774800
 30
0.0
 10
2.336853
 20
1.766695
 30
0.0
 10
2.324078
 20
1.755934
 30
0.0
  0
SPLINE
  5
309
100
AcDbEntity
  8
Capa_1
 62
7
100
AcDbSpline
 70
8
 71
3
 72
8
 73
4
 74
0
 40
0
 40
0
 40
0
 40
0
 40
1
 40
1
 40
1
 40
1
 10
2.324078
 20
1.755934
 30
0.0
 10
2.310453
 20
1.743947
 30
0.0
 10
2.300340
 20
1.729713
 30
0.0
 10
2.293740
 20
1.713231
 30
0.0
  0
SPLINE
  5
30a
100
AcDbEntity
  8
Capa_1
 62
7
100
AcDbSpline
 70
8
 71
3
 72
8
 73
4
 74
0
 40
0
 40
0
 40
0
 40
0
 40
1
 40
1
 40
1
 40
1
 10
2.293740
 20
1.713231
 30
0.0
 10
2.287140
 20
1.696817
 30
0.0
 10
2.283840
 20
1.677918
 30
0.0
 10
2.283840
 20
1.656532
 30
0.0
  0
SPLINE
  5
30b
100
AcDbEntity
  8
Capa_1
 62
7
100
AcDbSpline
 70
8
 71
3
 72
8
 73
4
 74
0
 40
0
 40
0
 40
0
 40
0
 40
1
 40
1
 40
1
 40
1
 10
2.283840
 20
1.656532
 30
0.0
 10
2.283840
 20
1.601842
 30
0.0
 10
2.301937
 20
1.555291
 30
0.0
 10
2.338131
 20
1.516878
 30
0.0
  0
SPLINE
  5
30c
100
AcDbEntity
  8
Capa_1
 62
7
100
AcDbSpline
 70
8
 71
3
 72
8
 73
4
 74
0
 40
0
 40
0
 40
0
 40
0
 40
1
 40
1
 40
1
 40
1
 10
2.338131
 20
1.516878
 30
0.0
 10
2.374111
 20
1.478466
 30
0.0
 10
2.419566
 20
1.459260
 30
0.0
 10
2.474496
 20
1.459260
 30
0.0
  0
LWPOLYLINE
  5
30d
100
AcDbEntity
  8
Capa_1
 62
7
100
AcDbPolyline
 90
3
 70
0
 10
2.273623
 20
1.967611
 30
0.0
 10
2.284801
 20
1.908664
 30
0.0
 10
2.287992
 20
1.908664
 30
0.0
  0
SPLINE
  5
30e
100
AcDbEntity
  8
Capa_1
 62
7
100
AcDbSpline
 70
8
 71
3
 72
8
 73
4
 74
0
 40
0
 40
0
 40
0
 40
0
 40
1
 40
1
 40
1
 40
1
 10
2.350269
 20
1.648809
 30
0.0
 10
2.350269
 20
1.676801
 30
0.0
 10
2.358147
 20
1.698118
 30
0.0
 10
2.373902
 20
1.712761
 30
0.0
  0
SPLINE
  5
30f
100
AcDbEntity
  8
Capa_1
 62
7
100
AcDbSpline
 70
8
 71
3
 72
8
 73
4
 74
0
 40
0
 40
0
 40
0
 40
0
 40
1
 40
1
 40
1
 40
1
 10
2.373902
 20
1.712761
 30
0.0
 10
2.389657
 20
1.727677
 30
0.0
 10
2.413183
 20
1.735134
 30
0.0
 10
2.444480
 20
1.735134
 30
0.0
  0
SPLINE
  5
310
100
AcDbEntity
  8
Capa_1
 62
7
100
AcDbSpline
 70
8
 71
3
 72
8
 73
4
 74
0
 40
0
 40
0
 40
0
 40
0
 40
1
 40
1
 40
1
 40
1
 10
2.444480
 20
1.735134
 30
0.0
 10
2.460661
 20
1.735134
 30
0.0
 10
2.478013
 20
1.732751
 30
0.0
 10
2.496535
 20
1.727983
 30
0.0
  0
SPLINE
  5
311
100
AcDbEntity
  8
Capa_1
 62
7
100
AcDbSpline
 70
8
 71
3
 72
8
 73
4
 74
0
 40
0
 40
0
 40
0
 40
0
 40
1
 40
1
 40
1
 40
1
 10
2.496535
 20
1.727983
 30
0.0
 10
2.514845
 20
1.722535
 30
0.0
 10
2.532942
 20
1.715077
 30
0.0
 10
2.550826
 20
1.705610
 30
0.0
  0
SPLINE
  5
312
100
AcDbEntity
  8
Capa_1
 62
7
100
AcDbSpline
 70
8
 71
3
 72
8
 73
4
 74
0
 40
0
 40
0
 40
0
 40
0
 40
1
 40
1
 40
1
 40
1
 10
2.550826
 20
1.705610
 30
0.0
 10
2.552953
 20
1.696075
 30
0.0
 10
2.554764
 20
1.683850
 30
0.0
 10
2.556259
 20
1.668934
 30
0.0
  0
SPLINE
  5
313
100
AcDbEntity
  8
Capa_1
 62
7
100
AcDbSpline
 70
8
 71
3
 72
8
 73
4
 74
0
 40
0
 40
0
 40
0
 40
0
 40
1
 40
1
 40
1
 40
1
 10
2.556259
 20
1.668934
 30
0.0
 10
2.557538
 20
1.654291
 30
0.0
 10
2.558177
 20
1.639955
 30
0.0
 10
2.558177
 20
1.625925
 30
0.0
  0
SPLINE
  5
314
100
AcDbEntity
  8
Capa_1
 62
7
100
AcDbSpline
 70
8
 71
3
 72
8
 73
4
 74
0
 40
0
 40
0
 40
0
 40
0
 40
1
 40
1
 40
1
 40
1
 10
2.558177
 20
1.625925
 30
0.0
 10
2.558177
 20
1.604335
 30
0.0
 10
2.555515
 20
1.586218
 30
0.0
 10
2.550190
 20
1.571575
 30
0.0
  0
SPLINE
  5
315
100
AcDbEntity
  8
Capa_1
 62
7
100
AcDbSpline
 70
8
 71
3
 72
8
 73
4
 74
0
 40
0
 40
0
 40
0
 40
0
 40
1
 40
1
 40
1
 40
1
 10
2.550190
 20
1.571575
 30
0.0
 10
2.544656
 20
1.556932
 30
0.0
 10
2.537950
 20
1.545388
 30
0.0
 10
2.530071
 20
1.536943
 30
0.0
  0
SPLINE
  5
316
100
AcDbEntity
  8
Capa_1
 62
7
100
AcDbSpline
 70
8
 71
3
 72
8
 73
4
 74
0
 40
0
 40
0
 40
0
 40
0
 40
1
 40
1
 40
1
 40
1
 10
2.530071
 20
1.536943
 30
0.0
 10
2.521555
 20
1.527816
 30
0.0
 10
2.511867
 20
1.521278
 30
0.0
 10
2.501009
 20
1.517328
 30
0.0
  0
SPLINE
  5
317
100
AcDbEntity
  8
Capa_1
 62
7
100
AcDbSpline
 70
8
 71
3
 72
8
 73
4
 74
0
 40
0
 40
0
 40
0
 40
0
 40
1
 40
1
 40
1
 40
1
 10
2.501009
 20
1.517328
 30
0.0
 10
2.489939
 20
1.513241
 30
0.0
 10
2.478548
 20
1.511198
 30
0.0
 10
2.466839
 20
1.511198
 30
0.0
  0
SPLINE
  5
318
100
AcDbEntity
  8
Capa_1
 62
7
100
AcDbSpline
 70
8
 71
3
 72
8
 73
4
 74
0
 40
0
 40
0
 40
0
 40
0
 40
1
 40
1
 40
1
 40
1
 10
2.466839
 20
1.511198
 30
0.0
 10
2.432349
 20
1.511198
 30
0.0
 10
2.404352
 20
1.523866
 30
0.0
 10
2.382848
 20
1.549202
 30
0.0
  0
SPLINE
  5
319
100
AcDbEntity
  8
Capa_1
 62
7
100
AcDbSpline
 70
8
 71
3
 72
8
 73
4
 74
0
 40
0
 40
0
 40
0
 40
0
 40
1
 40
1
 40
1
 40
1
 10
2.382848
 20
1.549202
 30
0.0
 10
2.361132
 20
1.574538
 30
0.0
 10
2.350274
 20
1.607876
 30
0.0
 10
2.350274
 20
1.649217
 30
0.0
  0
LWPOLYLINE
  5
31a
100
AcDbEntity
  8
Capa_1
 62
7
100
AcDbPolyline
 90
2
 70
0
 10
2.474496
 20
1.459260
 30
0.0
 10
2.474499
 20
1.458831
 30
0.0
  0
LWPOLYLINE
  5
31b
100
AcDbEntity
  8
Capa_1
 62
7
100
AcDbPolyline
 90
2
 70
0
 10
2.350274
 20
1.649217
 30
0.0
 10
2.350269
 20
1.648809
 30
0.0
  0
ENDSEC
  0
SECTION
  2
OBJECTS
  0
DICTIONARY
  5
C
330
0
100
AcDbDictionary
  3
ACAD_GROUP
350
D
  3
ACAD_MLINESTYLE
350
17
  0
DICTIONARY
  5
D
330
C
100
AcDbDictionary
  0
DICTIONARY
  5
1A
330
C
100
AcDbDictionary
  0
DICTIONARY
  5
17
330
C
100
AcDbDictionary
  3
STANDARD
350
18
  0
DICTIONARY
  5
19
330
C
100
AcDbDictionary
  0
ENDSEC
  0
EOF
