  0
SECTION
  2
HEADER
  9
$ACADVER
  1
AC1014
  9
$HANDSEED
  5
FFFF
  9
$MEASUREMENT
 70
     1
  0
ENDSEC
  0
SECTION
  2
TABLES
  0
TABLE
  2
VPORT
  5
8
330
0
100
AcDbSymbolTable
 70
     4
  0
VPORT
  5
2E
330
8
100
AcDbSymbolTableRecord
100
AcDbViewportTableRecord
  2
*ACTIVE
 70
     0
 10
0.0
 20
0.0
 11
1.0
 21
1.0
 12
210.0
 22
148.5
 13
0.0
 23
0.0
 14
10.0
 24
10.0
 15
10.0
 25
10.0
 16
0.0
 26
0.0
 36
1.0
 17
0.0
 27
0.0
 37
0.0
 40
341.0
 41
1.24
 42
50.0
 43
0.0
 44
0.0
 50
0.0
 51
0.0
 71
     0
 72
   100
 73
     1
 74
     3
 75
     0
 76
     0
 77
     0
 78
     0
  0
ENDTAB
  0
TABLE
  2
LTYPE
  5
5
330
0
100
AcDbSymbolTable
 70
     1
  0
LTYPE
  5
14
330
5
100
AcDbSymbolTableRecord
100
AcDbLinetypeTableRecord
  2
BYBLOCK
 70
     0
  3

 72
    65
 73
     0
 40
0.0
  0
LTYPE
  5
15
330
5
100
AcDbSymbolTableRecord
100
AcDbLinetypeTableRecord
  2
BYLAYER
 70
     0
  3

 72
    65
 73
     0
 40
0.0
  0
LTYPE
  5
16
330
5
100
AcDbSymbolTableRecord
100
AcDbLinetypeTableRecord
  2
CONTINUOUS
 70
     0
  3
Solid line
 72
    65
 73
     0
 40
0.0
  0
ENDTAB
  0
TABLE
  2
LAYER
  5
2
100
AcDbSymbolTable
 70
2
  0
LAYER
  5
50
100
AcDbSymbolTableRecord
100
AcDbLayerTableRecord
  2
0
 70
0
  6
CONTINUOUS
  0
LAYER
  5
51
100
AcDbSymbolTableRecord
100
AcDbLayerTableRecord
  2
Capa_1
 70
0
  6
CONTINUOUS
  0
ENDTAB
  0
TABLE
  2
STYLE
  5
3
330
0
100
AcDbSymbolTable
 70
     1
  0
STYLE
  5
11
330
3
100
AcDbSymbolTableRecord
100
AcDbTextStyleTableRecord
  2
STANDARD
 70
     0
 40
0.0
 41
1.0
 50
0.0
 71
     0
 42
2.5
  3
txt
  4

  0
ENDTAB
  0
TABLE
  2
VIEW
  5
6
330
0
100
AcDbSymbolTable
 70
     0
  0
ENDTAB
  0
TABLE
  2
UCS
  5
7
330
0
100
AcDbSymbolTable
 70
     0
  0
ENDTAB
  0
TABLE
  2
APPID
  5
9
330
0
100
AcDbSymbolTable
 70
     2
  0
APPID
  5
12
330
9
100
AcDbSymbolTableRecord
100
AcDbRegAppTableRecord
  2
ACAD
 70
     0
  0
ENDTAB
  0
TABLE
  2
DIMSTYLE
  5
A
330
0
100
AcDbSymbolTable
 70
     1
  0
DIMSTYLE
105
27
330
A
100
AcDbSymbolTableRecord
100
AcDbDimStyleTableRecord
  2
ISO-25
 70
     0
  3

  4

  5

  6

  7

 40
1.0
 41
2.5
 42
0.625
 43
3.75
 44
1.25
 45
0.0
 46
0.0
 47
0.0
 48
0.0
140
2.5
141
2.5
142
0.0
143
0.03937007874016
144
1.0
145
0.0
146
1.0
147
0.625
 71
     0
 72
     0
 73
     0
 74
     0
 75
     0
 76
     0
 77
     1
 78
     8
170
     0
171
     3
172
     1
173
     0
174
     0
175
     0
176
     0
177
     0
178
     0
270
     2
271
     2
272
     2
273
     2
274
     3
340
11
275
     0
280
     0
281
     0
282
     0
283
     0
284
     8
285
     0
286
     0
287
     3
288
     0
  0
ENDTAB
  0
TABLE
  2
BLOCK_RECORD
  5
1
330
0
100
AcDbSymbolTable
 70
     1
  0
BLOCK_RECORD
  5
1F
330
1
100
AcDbSymbolTableRecord
100
AcDbBlockTableRecord
  2
*MODEL_SPACE
  0
BLOCK_RECORD
  5
1B
330
1
100
AcDbSymbolTableRecord
100
AcDbBlockTableRecord
  2
*PAPER_SPACE
  0
ENDTAB
  0
ENDSEC
  0
SECTION
  2
BLOCKS
  0
BLOCK
  5
20
330
1F
100
AcDbEntity
  8
0
100
AcDbBlockBegin
  2
*MODEL_SPACE
 70
     0
 10
0.0
 20
0.0
 30
0.0
  3
*MODEL_SPACE
  1

  0
ENDBLK
  5
21
330
1F
100
AcDbEntity
  8
0
100
AcDbBlockEnd
  0
BLOCK
  5
1C
330
1B
100
AcDbEntity
 67
     1
  8
0
100
AcDbBlockBegin
  2
*PAPER_SPACE
  1

  0
ENDBLK
  5
1D
330
1B
100
AcDbEntity
 67
     1
  8
0
100
AcDbBlockEnd
  0
ENDSEC
  0
SECTION
  2
ENTITIES
  0
LWPOLYLINE
  5
100
100
AcDbEntity
  8
Capa_1
 62
7
100
AcDbPolyline
 90
4
 70
1
 10
0.062123
 20
9.937900
 30
0.0
 10
1.937877
 20
9.937900
 30
0.0
 10
1.937877
 20
0.062146
 30
0.0
 10
0.062123
 20
0.062146
 30
0.0
  0
SPLINE
  5
101
100
AcDbEntity
  8
Capa_1
 62
7
100
AcDbSpline
 70
8
 71
3
 72
8
 73
4
 74
0
 40
0
 40
0
 40
0
 40
0
 40
1
 40
1
 40
1
 40
1
 10
1.098712
 20
9.342271
 30
0.0
 10
1.098712
 20
9.299159
 30
0.0
 10
1.092432
 20
9.257607
 30
0.0
 10
1.079870
 20
9.217615
 30
0.0
  0
SPLINE
  5
102
100
AcDbEntity
  8
Capa_1
 62
7
100
AcDbSpline
 70
8
 71
3
 72
8
 73
4
 74
0
 40
0
 40
0
 40
0
 40
0
 40
1
 40
1
 40
1
 40
1
 10
1.079870
 20
9.217615
 30
0.0
 10
1.067522
 20
9.177636
 30
0.0
 10
1.049532
 20
9.142418
 30
0.0
 10
1.025900
 20
9.111960
 30
0.0
  0
SPLINE
  5
103
100
AcDbEntity
  8
Capa_1
 62
7
100
AcDbSpline
 70
8
 71
3
 72
8
 73
4
 74
0
 40
0
 40
0
 40
0
 40
0
 40
1
 40
1
 40
1
 40
1
 10
1.025900
 20
9.111960
 30
0.0
 10
1.001629
 20
9.080631
 30
0.0
 10
0.972461
 20
9.055976
 30
0.0
 10
0.938396
 20
9.037996
 30
0.0
  0
SPLINE
  5
104
100
AcDbEntity
  8
Capa_1
 62
7
100
AcDbSpline
 70
8
 71
3
 72
8
 73
4
 74
0
 40
0
 40
0
 40
0
 40
0
 40
1
 40
1
 40
1
 40
1
 10
0.938396
 20
9.037996
 30
0.0
 10
0.904331
 20
9.020220
 30
0.0
 10
0.865902
 20
9.011332
 30
0.0
 10
0.823109
 20
9.011332
 30
0.0
  0
SPLINE
  5
105
100
AcDbEntity
  8
Capa_1
 62
7
100
AcDbSpline
 70
8
 71
3
 72
8
 73
4
 74
0
 40
0
 40
0
 40
0
 40
0
 40
1
 40
1
 40
1
 40
1
 10
0.823109
 20
9.011332
 30
0.0
 10
0.766476
 20
9.011332
 30
0.0
 10
0.722192
 20
9.027439
 30
0.0
 10
0.690257
 20
9.059654
 30
0.0
  0
SPLINE
  5
106
100
AcDbEntity
  8
Capa_1
 62
7
100
AcDbSpline
 70
8
 71
3
 72
8
 73
4
 74
0
 40
0
 40
0
 40
0
 40
0
 40
1
 40
1
 40
1
 40
1
 10
0.690257
 20
9.059654
 30
0.0
 10
0.658321
 20
9.092073
 30
0.0
 10
0.642353
 20
9.138069
 30
0.0
 10
0.642353
 20
9.197642
 30
0.0
  0
SPLINE
  5
107
100
AcDbEntity
  8
Capa_1
 62
7
100
AcDbSpline
 70
8
 71
3
 72
8
 73
4
 74
0
 40
0
 40
0
 40
0
 40
0
 40
1
 40
1
 40
1
 40
1
 10
0.642353
 20
9.197642
 30
0.0
 10
0.642353
 20
9.243002
 30
0.0
 10
0.648740
 20
9.285330
 30
0.0
 10
0.661515
 20
9.324628
 30
0.0
  0
SPLINE
  5
108
100
AcDbEntity
  8
Capa_1
 62
7
100
AcDbSpline
 70
8
 71
3
 72
8
 73
4
 74
0
 40
0
 40
0
 40
0
 40
0
 40
1
 40
1
 40
1
 40
1
 10
0.661515
 20
9.324628
 30
0.0
 10
0.674289
 20
9.363926
 30
0.0
 10
0.692705
 20
9.399035
 30
0.0
 10
0.716763
 20
9.429956
 30
0.0
  0
SPLINE
  5
109
100
AcDbEntity
  8
Capa_1
 62
7
100
AcDbSpline
 70
8
 71
3
 72
8
 73
4
 74
0
 40
0
 40
0
 40
0
 40
0
 40
1
 40
1
 40
1
 40
1
 10
0.716763
 20
9.429956
 30
0.0
 10
0.740183
 20
9.459718
 30
0.0
 10
0.769138
 20
9.483488
 30
0.0
 10
0.803628
 20
9.501264
 30
0.0
  0
SPLINE
  5
10a
100
AcDbEntity
  8
Capa_1
 62
7
100
AcDbSpline
 70
8
 71
3
 72
8
 73
4
 74
0
 40
0
 40
0
 40
0
 40
0
 40
1
 40
1
 40
1
 40
1
 10
0.803628
 20
9.501264
 30
0.0
 10
0.838331
 20
9.519244
 30
0.0
 10
0.876335
 20
9.528234
 30
0.0
 10
0.917638
 20
9.528234
 30
0.0
  0
SPLINE
  5
10b
100
AcDbEntity
  8
Capa_1
 62
7
100
AcDbSpline
 70
8
 71
3
 72
8
 73
4
 74
0
 40
0
 40
0
 40
0
 40
0
 40
1
 40
1
 40
1
 40
1
 10
0.917638
 20
9.528234
 30
0.0
 10
0.974057
 20
9.528234
 30
0.0
 10
1.018341
 20
9.512127
 30
0.0
 10
1.050490
 20
9.479912
 30
0.0
  0
SPLINE
  5
10c
100
AcDbEntity
  8
Capa_1
 62
7
100
AcDbSpline
 70
8
 71
3
 72
8
 73
4
 74
0
 40
0
 40
0
 40
0
 40
0
 40
1
 40
1
 40
1
 40
1
 10
1.050490
 20
9.479912
 30
0.0
 10
1.082639
 20
9.447902
 30
0.0
 10
1.098713
 20
9.402015
 30
0.0
 10
1.098713
 20
9.342251
 30
0.0
  0
LWPOLYLINE
  5
10d
100
AcDbEntity
  8
Capa_1
 62
7
100
AcDbPolyline
 90
12
 70
1
 10
0.514291
 20
9.021630
 30
0.0
 10
0.325871
 20
9.021630
 30
0.0
 10
0.336410
 20
9.069952
 30
0.0
 10
0.398684
 20
9.069952
 30
0.0
 10
0.487465
 20
9.469584
 30
0.0
 10
0.425191
 20
9.469584
 30
0.0
 10
0.435730
 20
9.517906
 30
0.0
 10
0.624149
 20
9.517906
 30
0.0
 10
0.613611
 20
9.469584
 30
0.0
 10
0.551336
 20
9.469584
 30
0.0
 10
0.462555
 20
9.069952
 30
0.0
 10
0.524830
 20
9.069952
 30
0.0
  0
SPLINE
  5
10e
100
AcDbEntity
  8
Capa_1
 62
7
100
AcDbSpline
 70
8
 71
3
 72
8
 73
4
 74
0
 40
0
 40
0
 40
0
 40
0
 40
1
 40
1
 40
1
 40
1
 10
0.977676
 20
9.144958
 30
0.0
 10
0.995560
 20
9.170294
 30
0.0
 10
1.009080
 20
9.198524
 30
0.0
 10
1.018235
 20
9.229649
 30
0.0
  0
SPLINE
  5
10f
100
AcDbEntity
  8
Capa_1
 62
7
100
AcDbSpline
 70
8
 71
3
 72
8
 73
4
 74
0
 40
0
 40
0
 40
0
 40
0
 40
1
 40
1
 40
1
 40
1
 10
1.018235
 20
9.229649
 30
0.0
 10
1.027389
 20
9.260978
 30
0.0
 10
1.031967
 20
9.295420
 30
0.0
 10
1.031967
 20
9.332974
 30
0.0
  0
SPLINE
  5
110
100
AcDbEntity
  8
Capa_1
 62
7
100
AcDbSpline
 70
8
 71
3
 72
8
 73
4
 74
0
 40
0
 40
0
 40
0
 40
0
 40
1
 40
1
 40
1
 40
1
 10
1.031967
 20
9.332974
 30
0.0
 10
1.031967
 20
9.378334
 30
0.0
 10
1.021002
 20
9.413106
 30
0.0
 10
0.999074
 20
9.437291
 30
0.0
  0
SPLINE
  5
111
100
AcDbEntity
  8
Capa_1
 62
7
100
AcDbSpline
 70
8
 71
3
 72
8
 73
4
 74
0
 40
0
 40
0
 40
0
 40
0
 40
1
 40
1
 40
1
 40
1
 10
0.999074
 20
9.437291
 30
0.0
 10
0.977357
 20
9.461741
 30
0.0
 10
0.946912
 20
9.473966
 30
0.0
 10
0.907738
 20
9.473966
 30
0.0
  0
SPLINE
  5
112
100
AcDbEntity
  8
Capa_1
 62
7
100
AcDbSpline
 70
8
 71
3
 72
8
 73
4
 74
0
 40
0
 40
0
 40
0
 40
0
 40
1
 40
1
 40
1
 40
1
 10
0.907738
 20
9.473966
 30
0.0
 10
0.877293
 20
9.473966
 30
0.0
 10
0.849828
 20
9.466645
 30
0.0
 10
0.825344
 20
9.452002
 30
0.0
  0
SPLINE
  5
113
100
AcDbEntity
  8
Capa_1
 62
7
100
AcDbSpline
 70
8
 71
3
 72
8
 73
4
 74
0
 40
0
 40
0
 40
0
 40
0
 40
1
 40
1
 40
1
 40
1
 10
0.825344
 20
9.452002
 30
0.0
 10
0.800860
 20
9.437563
 30
0.0
 10
0.779783
 20
9.417914
 30
0.0
 10
0.762112
 20
9.393055
 30
0.0
  0
SPLINE
  5
114
100
AcDbEntity
  8
Capa_1
 62
7
100
AcDbSpline
 70
8
 71
3
 72
8
 73
4
 74
0
 40
0
 40
0
 40
0
 40
0
 40
1
 40
1
 40
1
 40
1
 10
0.762112
 20
9.393055
 30
0.0
 10
0.745079
 20
9.368605
 30
0.0
 10
0.731986
 20
9.340170
 30
0.0
 10
0.722831
 20
9.307751
 30
0.0
  0
SPLINE
  5
115
100
AcDbEntity
  8
Capa_1
 62
7
100
AcDbSpline
 70
8
 71
3
 72
8
 73
4
 74
0
 40
0
 40
0
 40
0
 40
0
 40
1
 40
1
 40
1
 40
1
 10
0.722831
 20
9.307751
 30
0.0
 10
0.713676
 20
9.275536
 30
0.0
 10
0.709099
 20
9.242334
 30
0.0
 10
0.709099
 20
9.208144
 30
0.0
  0
SPLINE
  5
116
100
AcDbEntity
  8
Capa_1
 62
7
100
AcDbSpline
 70
8
 71
3
 72
8
 73
4
 74
0
 40
0
 40
0
 40
0
 40
0
 40
1
 40
1
 40
1
 40
1
 10
0.709099
 20
9.208144
 30
0.0
 10
0.709099
 20
9.162376
 30
0.0
 10
0.719957
 20
9.127158
 30
0.0
 10
0.741673
 20
9.102490
 30
0.0
  0
SPLINE
  5
117
100
AcDbEntity
  8
Capa_1
 62
7
100
AcDbSpline
 70
8
 71
3
 72
8
 73
4
 74
0
 40
0
 40
0
 40
0
 40
0
 40
1
 40
1
 40
1
 40
1
 10
0.741673
 20
9.102490
 30
0.0
 10
0.763602
 20
9.078039
 30
0.0
 10
0.794260
 20
9.065814
 30
0.0
 10
0.833647
 20
9.065814
 30
0.0
  0
SPLINE
  5
118
100
AcDbEntity
  8
Capa_1
 62
7
100
AcDbSpline
 70
8
 71
3
 72
8
 73
4
 74
0
 40
0
 40
0
 40
0
 40
0
 40
1
 40
1
 40
1
 40
1
 10
0.833647
 20
9.065814
 30
0.0
 10
0.863667
 20
9.065814
 30
0.0
 10
0.890918
 20
9.073033
 30
0.0
 10
0.915402
 20
9.087472
 30
0.0
  0
SPLINE
  5
119
100
AcDbEntity
  8
Capa_1
 62
7
100
AcDbSpline
 70
8
 71
3
 72
8
 73
4
 74
0
 40
0
 40
0
 40
0
 40
0
 40
1
 40
1
 40
1
 40
1
 10
0.915402
 20
9.087472
 30
0.0
 10
0.940099
 20
9.101911
 30
0.0
 10
0.960857
 20
9.121117
 30
0.0
 10
0.977677
 20
9.145091
 30
0.0
  0
LWPOLYLINE
  5
11a
100
AcDbEntity
  8
Capa_1
 62
7
100
AcDbPolyline
 90
1
 70
1
 10
1.098713
 20
9.342251
 30
0.0
  0
SPLINE
  5
11b
100
AcDbEntity
  8
Capa_1
 62
7
100
AcDbSpline
 70
8
 71
3
 72
8
 73
4
 74
0
 40
0
 40
0
 40
0
 40
0
 40
1
 40
1
 40
1
 40
1
 10
1.304377
 20
9.011301
 30
0.0
 10
1.257751
 20
9.011301
 30
0.0
 10
1.221558
 20
9.026285
 30
0.0
 10
1.195796
 20
9.056252
 30
0.0
  0
SPLINE
  5
11c
100
AcDbEntity
  8
Capa_1
 62
7
100
AcDbSpline
 70
8
 71
3
 72
8
 73
4
 74
0
 40
0
 40
0
 40
0
 40
0
 40
1
 40
1
 40
1
 40
1
 10
1.195796
 20
9.056252
 30
0.0
 10
1.170035
 20
9.086491
 30
0.0
 10
1.157154
 20
9.127710
 30
0.0
 10
1.157154
 20
9.179907
 30
0.0
  0
SPLINE
  5
11d
100
AcDbEntity
  8
Capa_1
 62
7
100
AcDbSpline
 70
8
 71
3
 72
8
 73
4
 74
0
 40
0
 40
0
 40
0
 40
0
 40
1
 40
1
 40
1
 40
1
 10
1.157154
 20
9.179907
 30
0.0
 10
1.157154
 20
9.227923
 30
0.0
 10
1.163648
 20
9.272587
 30
0.0
 10
1.176635
 20
9.313901
 30
0.0
  0
SPLINE
  5
11e
100
AcDbEntity
  8
Capa_1
 62
7
100
AcDbSpline
 70
8
 71
3
 72
8
 73
4
 74
0
 40
0
 40
0
 40
0
 40
0
 40
1
 40
1
 40
1
 40
1
 10
1.176635
 20
9.313901
 30
0.0
 10
1.189623
 20
9.355446
 30
0.0
 10
1.208678
 20
9.392333
 30
0.0
 10
1.233800
 20
9.424561
 30
0.0
  0
SPLINE
  5
11f
100
AcDbEntity
  8
Capa_1
 62
7
100
AcDbSpline
 70
8
 71
3
 72
8
 73
4
 74
0
 40
0
 40
0
 40
0
 40
0
 40
1
 40
1
 40
1
 40
1
 10
1.233800
 20
9.424561
 30
0.0
 10
1.258497
 20
9.455891
 30
0.0
 10
1.289156
 20
9.480784
 30
0.0
 10
1.325775
 20
9.499241
 30
0.0
  0
SPLINE
  5
120
100
AcDbEntity
  8
Capa_1
 62
7
100
AcDbSpline
 70
8
 71
3
 72
8
 73
4
 74
0
 40
0
 40
0
 40
0
 40
0
 40
1
 40
1
 40
1
 40
1
 10
1.325775
 20
9.499241
 30
0.0
 10
1.362607
 20
9.517902
 30
0.0
 10
1.403804
 20
9.527233
 30
0.0
 10
1.449366
 20
9.527233
 30
0.0
  0
SPLINE
  5
121
100
AcDbEntity
  8
Capa_1
 62
7
100
AcDbSpline
 70
8
 71
3
 72
8
 73
4
 74
0
 40
0
 40
0
 40
0
 40
0
 40
1
 40
1
 40
1
 40
1
 10
1.449366
 20
9.527233
 30
0.0
 10
1.462779
 20
9.527233
 30
0.0
 10
1.473956
 20
9.526552
 30
0.0
 10
1.482898
 20
9.525190
 30
0.0
  0
SPLINE
  5
122
100
AcDbEntity
  8
Capa_1
 62
7
100
AcDbSpline
 70
8
 71
3
 72
8
 73
4
 74
0
 40
0
 40
0
 40
0
 40
0
 40
1
 40
1
 40
1
 40
1
 10
1.482898
 20
9.525190
 30
0.0
 10
1.491840
 20
9.523828
 30
0.0
 10
1.499292
 20
9.522125
 30
0.0
 10
1.505253
 20
9.520082
 30
0.0
  0
LWPOLYLINE
  5
123
100
AcDbEntity
  8
Capa_1
 62
7
100
AcDbPolyline
 90
2
 70
0
 10
0.977677
 20
9.145091
 30
0.0
 10
0.977676
 20
9.144958
 30
0.0
  0
SPLINE
  5
124
100
AcDbEntity
  8
Capa_1
 62
7
100
AcDbSpline
 70
8
 71
3
 72
8
 73
4
 74
0
 40
0
 40
0
 40
0
 40
0
 40
1
 40
1
 40
1
 40
1
 10
1.490885
 20
9.461135
 30
0.0
 10
1.485990
 20
9.463859
 30
0.0
 10
1.477581
 20
9.466584
 30
0.0
 10
1.465656
 20
9.469308
 30
0.0
  0
SPLINE
  5
125
100
AcDbEntity
  8
Capa_1
 62
7
100
AcDbSpline
 70
8
 71
3
 72
8
 73
4
 74
0
 40
0
 40
0
 40
0
 40
0
 40
1
 40
1
 40
1
 40
1
 10
1.465656
 20
9.469308
 30
0.0
 10
1.453946
 20
9.472032
 30
0.0
 10
1.441811
 20
9.473394
 30
0.0
 10
1.429249
 20
9.473394
 30
0.0
  0
SPLINE
  5
126
100
AcDbEntity
  8
Capa_1
 62
7
100
AcDbSpline
 70
8
 71
3
 72
8
 73
4
 74
0
 40
0
 40
0
 40
0
 40
0
 40
1
 40
1
 40
1
 40
1
 10
1.429249
 20
9.473394
 30
0.0
 10
1.383688
 20
9.473394
 30
0.0
 10
1.343130
 20
9.457832
 30
0.0
 10
1.307575
 20
9.426707
 30
0.0
  0
SPLINE
  5
127
100
AcDbEntity
  8
Capa_1
 62
7
100
AcDbSpline
 70
8
 71
3
 72
8
 73
4
 74
0
 40
0
 40
0
 40
0
 40
0
 40
1
 40
1
 40
1
 40
1
 10
1.307575
 20
9.426707
 30
0.0
 10
1.272020
 20
9.395854
 30
0.0
 10
1.248068
 20
9.355634
 30
0.0
 10
1.235719
 20
9.306045
 30
0.0
  0
SPLINE
  5
128
100
AcDbEntity
  8
Capa_1
 62
7
100
AcDbSpline
 70
8
 71
3
 72
8
 73
4
 74
0
 40
0
 40
0
 40
0
 40
0
 40
1
 40
1
 40
1
 40
1
 10
1.235719
 20
9.306045
 30
0.0
 10
1.254242
 20
9.316942
 30
0.0
 10
1.274042
 20
9.325489
 30
0.0
 10
1.295120
 20
9.331687
 30
0.0
  0
SPLINE
  5
129
100
AcDbEntity
  8
Capa_1
 62
7
100
AcDbSpline
 70
8
 71
3
 72
8
 73
4
 74
0
 40
0
 40
0
 40
0
 40
0
 40
1
 40
1
 40
1
 40
1
 10
1.295120
 20
9.331687
 30
0.0
 10
1.316197
 20
9.337817
 30
0.0
 10
1.337168
 20
9.340882
 30
0.0
 10
1.358033
 20
9.340882
 30
0.0
  0
SPLINE
  5
12a
100
AcDbEntity
  8
Capa_1
 62
7
100
AcDbSpline
 70
8
 71
3
 72
8
 73
4
 74
0
 40
0
 40
0
 40
0
 40
0
 40
1
 40
1
 40
1
 40
1
 10
1.358033
 20
9.340882
 30
0.0
 10
1.377620
 20
9.340882
 30
0.0
 10
1.395398
 20
9.338157
 30
0.0
 10
1.411365
 20
9.332709
 30
0.0
  0
SPLINE
  5
12b
100
AcDbEntity
  8
Capa_1
 62
7
100
AcDbSpline
 70
8
 71
3
 72
8
 73
4
 74
0
 40
0
 40
0
 40
0
 40
0
 40
1
 40
1
 40
1
 40
1
 10
1.411365
 20
9.332709
 30
0.0
 10
1.427546
 20
9.327941
 30
0.0
 10
1.442023
 20
9.319837
 30
0.0
 10
1.454798
 20
9.308395
 30
0.0
  0
SPLINE
  5
12c
100
AcDbEntity
  8
Capa_1
 62
7
100
AcDbSpline
 70
8
 71
3
 72
8
 73
4
 74
0
 40
0
 40
0
 40
0
 40
0
 40
1
 40
1
 40
1
 40
1
 10
1.454798
 20
9.308395
 30
0.0
 10
1.468423
 20
9.296408
 30
0.0
 10
1.478536
 20
9.282173
 30
0.0
 10
1.485136
 20
9.265691
 30
0.0
  0
SPLINE
  5
12d
100
AcDbEntity
  8
Capa_1
 62
7
100
AcDbSpline
 70
8
 71
3
 72
8
 73
4
 74
0
 40
0
 40
0
 40
0
 40
0
 40
1
 40
1
 40
1
 40
1
 10
1.485136
 20
9.265691
 30
0.0
 10
1.491736
 20
9.249210
 30
0.0
 10
1.495036
 20
9.230310
 30
0.0
 10
1.495036
 20
9.208992
 30
0.0
  0
SPLINE
  5
12e
100
AcDbEntity
  8
Capa_1
 62
7
100
AcDbSpline
 70
8
 71
3
 72
8
 73
4
 74
0
 40
0
 40
0
 40
0
 40
0
 40
1
 40
1
 40
1
 40
1
 10
1.495036
 20
9.208992
 30
0.0
 10
1.495036
 20
9.154302
 30
0.0
 10
1.476940
 20
9.107751
 30
0.0
 10
1.440746
 20
9.069339
 30
0.0
  0
SPLINE
  5
12f
100
AcDbEntity
  8
Capa_1
 62
7
100
AcDbSpline
 70
8
 71
3
 72
8
 73
4
 74
0
 40
0
 40
0
 40
0
 40
0
 40
1
 40
1
 40
1
 40
1
 10
1.440746
 20
9.069339
 30
0.0
 10
1.404766
 20
9.030926
 30
0.0
 10
1.359311
 20
9.011720
 30
0.0
 10
1.304382
 20
9.011720
 30
0.0
  0
LWPOLYLINE
  5
130
100
AcDbEntity
  8
Capa_1
 62
7
100
AcDbPolyline
 90
3
 70
0
 10
1.505253
 20
9.520082
 30
0.0
 10
1.494076
 20
9.461135
 30
0.0
 10
1.490885
 20
9.461135
 30
0.0
  0
SPLINE
  5
131
100
AcDbEntity
  8
Capa_1
 62
7
100
AcDbSpline
 70
8
 71
3
 72
8
 73
4
 74
0
 40
0
 40
0
 40
0
 40
0
 40
1
 40
1
 40
1
 40
1
 10
1.428607
 20
9.201289
 30
0.0
 10
1.428607
 20
9.229281
 30
0.0
 10
1.420729
 20
9.250599
 30
0.0
 10
1.404974
 20
9.265242
 30
0.0
  0
SPLINE
  5
132
100
AcDbEntity
  8
Capa_1
 62
7
100
AcDbSpline
 70
8
 71
3
 72
8
 73
4
 74
0
 40
0
 40
0
 40
0
 40
0
 40
1
 40
1
 40
1
 40
1
 10
1.404974
 20
9.265242
 30
0.0
 10
1.389220
 20
9.280157
 30
0.0
 10
1.365694
 20
9.287615
 30
0.0
 10
1.334396
 20
9.287615
 30
0.0
  0
SPLINE
  5
133
100
AcDbEntity
  8
Capa_1
 62
7
100
AcDbSpline
 70
8
 71
3
 72
8
 73
4
 74
0
 40
0
 40
0
 40
0
 40
0
 40
1
 40
1
 40
1
 40
1
 10
1.334396
 20
9.287615
 30
0.0
 10
1.318216
 20
9.287615
 30
0.0
 10
1.300864
 20
9.284891
 30
0.0
 10
1.282341
 20
9.279442
 30
0.0
  0
SPLINE
  5
134
100
AcDbEntity
  8
Capa_1
 62
7
100
AcDbSpline
 70
8
 71
3
 72
8
 73
4
 74
0
 40
0
 40
0
 40
0
 40
0
 40
1
 40
1
 40
1
 40
1
 10
1.282341
 20
9.279442
 30
0.0
 10
1.264031
 20
9.273994
 30
0.0
 10
1.245934
 20
9.266536
 30
0.0
 10
1.228050
 20
9.257069
 30
0.0
  0
SPLINE
  5
135
100
AcDbEntity
  8
Capa_1
 62
7
100
AcDbSpline
 70
8
 71
3
 72
8
 73
4
 74
0
 40
0
 40
0
 40
0
 40
0
 40
1
 40
1
 40
1
 40
1
 10
1.228050
 20
9.257069
 30
0.0
 10
1.225923
 20
9.247534
 30
0.0
 10
1.224112
 20
9.235309
 30
0.0
 10
1.222618
 20
9.220393
 30
0.0
  0
SPLINE
  5
136
100
AcDbEntity
  8
Capa_1
 62
7
100
AcDbSpline
 70
8
 71
3
 72
8
 73
4
 74
0
 40
0
 40
0
 40
0
 40
0
 40
1
 40
1
 40
1
 40
1
 10
1.222618
 20
9.220393
 30
0.0
 10
1.221339
 20
9.205750
 30
0.0
 10
1.220699
 20
9.191414
 30
0.0
 10
1.220699
 20
9.177384
 30
0.0
  0
SPLINE
  5
137
100
AcDbEntity
  8
Capa_1
 62
7
100
AcDbSpline
 70
8
 71
3
 72
8
 73
4
 74
0
 40
0
 40
0
 40
0
 40
0
 40
1
 40
1
 40
1
 40
1
 10
1.220699
 20
9.177384
 30
0.0
 10
1.220699
 20
9.155862
 30
0.0
 10
1.223361
 20
9.137745
 30
0.0
 10
1.228686
 20
9.123034
 30
0.0
  0
SPLINE
  5
138
100
AcDbEntity
  8
Capa_1
 62
7
100
AcDbSpline
 70
8
 71
3
 72
8
 73
4
 74
0
 40
0
 40
0
 40
0
 40
0
 40
1
 40
1
 40
1
 40
1
 10
1.228686
 20
9.123034
 30
0.0
 10
1.234220
 20
9.108391
 30
0.0
 10
1.240927
 20
9.096847
 30
0.0
 10
1.248806
 20
9.088402
 30
0.0
  0
SPLINE
  5
139
100
AcDbEntity
  8
Capa_1
 62
7
100
AcDbSpline
 70
8
 71
3
 72
8
 73
4
 74
0
 40
0
 40
0
 40
0
 40
0
 40
1
 40
1
 40
1
 40
1
 10
1.248806
 20
9.088402
 30
0.0
 10
1.257322
 20
9.079275
 30
0.0
 10
1.267009
 20
9.072737
 30
0.0
 10
1.277867
 20
9.068787
 30
0.0
  0
SPLINE
  5
13a
100
AcDbEntity
  8
Capa_1
 62
7
100
AcDbSpline
 70
8
 71
3
 72
8
 73
4
 74
0
 40
0
 40
0
 40
0
 40
0
 40
1
 40
1
 40
1
 40
1
 10
1.277867
 20
9.068787
 30
0.0
 10
1.288938
 20
9.064701
 30
0.0
 10
1.300328
 20
9.062657
 30
0.0
 10
1.312038
 20
9.062657
 30
0.0
  0
SPLINE
  5
13b
100
AcDbEntity
  8
Capa_1
 62
7
100
AcDbSpline
 70
8
 71
3
 72
8
 73
4
 74
0
 40
0
 40
0
 40
0
 40
0
 40
1
 40
1
 40
1
 40
1
 10
1.312038
 20
9.062657
 30
0.0
 10
1.346528
 20
9.062657
 30
0.0
 10
1.374525
 20
9.075325
 30
0.0
 10
1.396028
 20
9.100661
 30
0.0
  0
SPLINE
  5
13c
100
AcDbEntity
  8
Capa_1
 62
7
100
AcDbSpline
 70
8
 71
3
 72
8
 73
4
 74
0
 40
0
 40
0
 40
0
 40
0
 40
1
 40
1
 40
1
 40
1
 10
1.396028
 20
9.100661
 30
0.0
 10
1.417744
 20
9.125997
 30
0.0
 10
1.428602
 20
9.159335
 30
0.0
 10
1.428602
 20
9.200676
 30
0.0
  0
LWPOLYLINE
  5
13d
100
AcDbEntity
  8
Capa_1
 62
7
100
AcDbPolyline
 90
2
 70
0
 10
1.304382
 20
9.011720
 30
0.0
 10
1.304377
 20
9.011301
 30
0.0
  0
LWPOLYLINE
  5
13e
100
AcDbEntity
  8
Capa_1
 62
7
100
AcDbPolyline
 90
2
 70
0
 10
1.428602
 20
9.200676
 30
0.0
 10
1.428607
 20
9.201289
 30
0.0
  0
SPLINE
  5
13f
100
AcDbEntity
  8
Capa_1
 62
7
100
AcDbSpline
 70
8
 71
3
 72
8
 73
4
 74
0
 40
0
 40
0
 40
0
 40
0
 40
1
 40
1
 40
1
 40
1
 10
1.098712
 20
7.635749
 30
0.0
 10
1.098712
 20
7.592637
 30
0.0
 10
1.092432
 20
7.551085
 30
0.0
 10
1.079870
 20
7.511093
 30
0.0
  0
SPLINE
  5
140
100
AcDbEntity
  8
Capa_1
 62
7
100
AcDbSpline
 70
8
 71
3
 72
8
 73
4
 74
0
 40
0
 40
0
 40
0
 40
0
 40
1
 40
1
 40
1
 40
1
 10
1.079870
 20
7.511093
 30
0.0
 10
1.067522
 20
7.471114
 30
0.0
 10
1.049532
 20
7.435896
 30
0.0
 10
1.025900
 20
7.405438
 30
0.0
  0
SPLINE
  5
141
100
AcDbEntity
  8
Capa_1
 62
7
100
AcDbSpline
 70
8
 71
3
 72
8
 73
4
 74
0
 40
0
 40
0
 40
0
 40
0
 40
1
 40
1
 40
1
 40
1
 10
1.025900
 20
7.405438
 30
0.0
 10
1.001629
 20
7.374109
 30
0.0
 10
0.972461
 20
7.349454
 30
0.0
 10
0.938396
 20
7.331474
 30
0.0
  0
SPLINE
  5
142
100
AcDbEntity
  8
Capa_1
 62
7
100
AcDbSpline
 70
8
 71
3
 72
8
 73
4
 74
0
 40
0
 40
0
 40
0
 40
0
 40
1
 40
1
 40
1
 40
1
 10
0.938396
 20
7.331474
 30
0.0
 10
0.904331
 20
7.313698
 30
0.0
 10
0.865902
 20
7.304810
 30
0.0
 10
0.823109
 20
7.304810
 30
0.0
  0
SPLINE
  5
143
100
AcDbEntity
  8
Capa_1
 62
7
100
AcDbSpline
 70
8
 71
3
 72
8
 73
4
 74
0
 40
0
 40
0
 40
0
 40
0
 40
1
 40
1
 40
1
 40
1
 10
0.823109
 20
7.304810
 30
0.0
 10
0.766476
 20
7.304810
 30
0.0
 10
0.722192
 20
7.320917
 30
0.0
 10
0.690257
 20
7.353132
 30
0.0
  0
SPLINE
  5
144
100
AcDbEntity
  8
Capa_1
 62
7
100
AcDbSpline
 70
8
 71
3
 72
8
 73
4
 74
0
 40
0
 40
0
 40
0
 40
0
 40
1
 40
1
 40
1
 40
1
 10
0.690257
 20
7.353132
 30
0.0
 10
0.658321
 20
7.385551
 30
0.0
 10
0.642353
 20
7.431547
 30
0.0
 10
0.642353
 20
7.491120
 30
0.0
  0
SPLINE
  5
145
100
AcDbEntity
  8
Capa_1
 62
7
100
AcDbSpline
 70
8
 71
3
 72
8
 73
4
 74
0
 40
0
 40
0
 40
0
 40
0
 40
1
 40
1
 40
1
 40
1
 10
0.642353
 20
7.491120
 30
0.0
 10
0.642353
 20
7.536480
 30
0.0
 10
0.648740
 20
7.578808
 30
0.0
 10
0.661515
 20
7.618106
 30
0.0
  0
SPLINE
  5
146
100
AcDbEntity
  8
Capa_1
 62
7
100
AcDbSpline
 70
8
 71
3
 72
8
 73
4
 74
0
 40
0
 40
0
 40
0
 40
0
 40
1
 40
1
 40
1
 40
1
 10
0.661515
 20
7.618106
 30
0.0
 10
0.674289
 20
7.657404
 30
0.0
 10
0.692705
 20
7.692513
 30
0.0
 10
0.716763
 20
7.723434
 30
0.0
  0
SPLINE
  5
147
100
AcDbEntity
  8
Capa_1
 62
7
100
AcDbSpline
 70
8
 71
3
 72
8
 73
4
 74
0
 40
0
 40
0
 40
0
 40
0
 40
1
 40
1
 40
1
 40
1
 10
0.716763
 20
7.723434
 30
0.0
 10
0.740183
 20
7.753196
 30
0.0
 10
0.769138
 20
7.776966
 30
0.0
 10
0.803628
 20
7.794742
 30
0.0
  0
SPLINE
  5
148
100
AcDbEntity
  8
Capa_1
 62
7
100
AcDbSpline
 70
8
 71
3
 72
8
 73
4
 74
0
 40
0
 40
0
 40
0
 40
0
 40
1
 40
1
 40
1
 40
1
 10
0.803628
 20
7.794742
 30
0.0
 10
0.838331
 20
7.812722
 30
0.0
 10
0.876335
 20
7.821712
 30
0.0
 10
0.917638
 20
7.821712
 30
0.0
  0
SPLINE
  5
149
100
AcDbEntity
  8
Capa_1
 62
7
100
AcDbSpline
 70
8
 71
3
 72
8
 73
4
 74
0
 40
0
 40
0
 40
0
 40
0
 40
1
 40
1
 40
1
 40
1
 10
0.917638
 20
7.821712
 30
0.0
 10
0.974057
 20
7.821712
 30
0.0
 10
1.018341
 20
7.805605
 30
0.0
 10
1.050490
 20
7.773390
 30
0.0
  0
SPLINE
  5
14a
100
AcDbEntity
  8
Capa_1
 62
7
100
AcDbSpline
 70
8
 71
3
 72
8
 73
4
 74
0
 40
0
 40
0
 40
0
 40
0
 40
1
 40
1
 40
1
 40
1
 10
1.050490
 20
7.773390
 30
0.0
 10
1.082639
 20
7.741380
 30
0.0
 10
1.098713
 20
7.695496
 30
0.0
 10
1.098713
 20
7.635739
 30
0.0
  0
LWPOLYLINE
  5
14b
100
AcDbEntity
  8
Capa_1
 62
7
100
AcDbPolyline
 90
12
 70
1
 10
0.514291
 20
7.315108
 30
0.0
 10
0.325871
 20
7.315108
 30
0.0
 10
0.336410
 20
7.363430
 30
0.0
 10
0.398684
 20
7.363430
 30
0.0
 10
0.487465
 20
7.763062
 30
0.0
 10
0.425191
 20
7.763062
 30
0.0
 10
0.435730
 20
7.811384
 30
0.0
 10
0.624149
 20
7.811384
 30
0.0
 10
0.613611
 20
7.763062
 30
0.0
 10
0.551336
 20
7.763062
 30
0.0
 10
0.462555
 20
7.363430
 30
0.0
 10
0.524830
 20
7.363430
 30
0.0
  0
SPLINE
  5
14c
100
AcDbEntity
  8
Capa_1
 62
7
100
AcDbSpline
 70
8
 71
3
 72
8
 73
4
 74
0
 40
0
 40
0
 40
0
 40
0
 40
1
 40
1
 40
1
 40
1
 10
0.977676
 20
7.438436
 30
0.0
 10
0.995560
 20
7.463772
 30
0.0
 10
1.009080
 20
7.492002
 30
0.0
 10
1.018235
 20
7.523127
 30
0.0
  0
SPLINE
  5
14d
100
AcDbEntity
  8
Capa_1
 62
7
100
AcDbSpline
 70
8
 71
3
 72
8
 73
4
 74
0
 40
0
 40
0
 40
0
 40
0
 40
1
 40
1
 40
1
 40
1
 10
1.018235
 20
7.523127
 30
0.0
 10
1.027389
 20
7.554456
 30
0.0
 10
1.031967
 20
7.588898
 30
0.0
 10
1.031967
 20
7.626452
 30
0.0
  0
SPLINE
  5
14e
100
AcDbEntity
  8
Capa_1
 62
7
100
AcDbSpline
 70
8
 71
3
 72
8
 73
4
 74
0
 40
0
 40
0
 40
0
 40
0
 40
1
 40
1
 40
1
 40
1
 10
1.031967
 20
7.626452
 30
0.0
 10
1.031967
 20
7.671812
 30
0.0
 10
1.021002
 20
7.706584
 30
0.0
 10
0.999074
 20
7.730769
 30
0.0
  0
SPLINE
  5
14f
100
AcDbEntity
  8
Capa_1
 62
7
100
AcDbSpline
 70
8
 71
3
 72
8
 73
4
 74
0
 40
0
 40
0
 40
0
 40
0
 40
1
 40
1
 40
1
 40
1
 10
0.999074
 20
7.730769
 30
0.0
 10
0.977357
 20
7.755219
 30
0.0
 10
0.946912
 20
7.767444
 30
0.0
 10
0.907738
 20
7.767444
 30
0.0
  0
SPLINE
  5
150
100
AcDbEntity
  8
Capa_1
 62
7
100
AcDbSpline
 70
8
 71
3
 72
8
 73
4
 74
0
 40
0
 40
0
 40
0
 40
0
 40
1
 40
1
 40
1
 40
1
 10
0.907738
 20
7.767444
 30
0.0
 10
0.877293
 20
7.767444
 30
0.0
 10
0.849828
 20
7.760123
 30
0.0
 10
0.825344
 20
7.745480
 30
0.0
  0
SPLINE
  5
151
100
AcDbEntity
  8
Capa_1
 62
7
100
AcDbSpline
 70
8
 71
3
 72
8
 73
4
 74
0
 40
0
 40
0
 40
0
 40
0
 40
1
 40
1
 40
1
 40
1
 10
0.825344
 20
7.745480
 30
0.0
 10
0.800860
 20
7.731041
 30
0.0
 10
0.779783
 20
7.711392
 30
0.0
 10
0.762112
 20
7.686533
 30
0.0
  0
SPLINE
  5
152
100
AcDbEntity
  8
Capa_1
 62
7
100
AcDbSpline
 70
8
 71
3
 72
8
 73
4
 74
0
 40
0
 40
0
 40
0
 40
0
 40
1
 40
1
 40
1
 40
1
 10
0.762112
 20
7.686533
 30
0.0
 10
0.745079
 20
7.662083
 30
0.0
 10
0.731986
 20
7.633648
 30
0.0
 10
0.722831
 20
7.601229
 30
0.0
  0
SPLINE
  5
153
100
AcDbEntity
  8
Capa_1
 62
7
100
AcDbSpline
 70
8
 71
3
 72
8
 73
4
 74
0
 40
0
 40
0
 40
0
 40
0
 40
1
 40
1
 40
1
 40
1
 10
0.722831
 20
7.601229
 30
0.0
 10
0.713676
 20
7.569014
 30
0.0
 10
0.709099
 20
7.535812
 30
0.0
 10
0.709099
 20
7.501622
 30
0.0
  0
SPLINE
  5
154
100
AcDbEntity
  8
Capa_1
 62
7
100
AcDbSpline
 70
8
 71
3
 72
8
 73
4
 74
0
 40
0
 40
0
 40
0
 40
0
 40
1
 40
1
 40
1
 40
1
 10
0.709099
 20
7.501622
 30
0.0
 10
0.709099
 20
7.455854
 30
0.0
 10
0.719957
 20
7.420636
 30
0.0
 10
0.741673
 20
7.395968
 30
0.0
  0
SPLINE
  5
155
100
AcDbEntity
  8
Capa_1
 62
7
100
AcDbSpline
 70
8
 71
3
 72
8
 73
4
 74
0
 40
0
 40
0
 40
0
 40
0
 40
1
 40
1
 40
1
 40
1
 10
0.741673
 20
7.395968
 30
0.0
 10
0.763602
 20
7.371517
 30
0.0
 10
0.794260
 20
7.359292
 30
0.0
 10
0.833647
 20
7.359292
 30
0.0
  0
SPLINE
  5
156
100
AcDbEntity
  8
Capa_1
 62
7
100
AcDbSpline
 70
8
 71
3
 72
8
 73
4
 74
0
 40
0
 40
0
 40
0
 40
0
 40
1
 40
1
 40
1
 40
1
 10
0.833647
 20
7.359292
 30
0.0
 10
0.863667
 20
7.359292
 30
0.0
 10
0.890918
 20
7.366512
 30
0.0
 10
0.915402
 20
7.380950
 30
0.0
  0
SPLINE
  5
157
100
AcDbEntity
  8
Capa_1
 62
7
100
AcDbSpline
 70
8
 71
3
 72
8
 73
4
 74
0
 40
0
 40
0
 40
0
 40
0
 40
1
 40
1
 40
1
 40
1
 10
0.915402
 20
7.380950
 30
0.0
 10
0.940099
 20
7.395389
 30
0.0
 10
0.960857
 20
7.414595
 30
0.0
 10
0.977677
 20
7.438569
 30
0.0
  0
LWPOLYLINE
  5
158
100
AcDbEntity
  8
Capa_1
 62
7
100
AcDbPolyline
 90
1
 70
1
 10
1.098713
 20
7.635739
 30
0.0
  0
LWPOLYLINE
  5
159
100
AcDbEntity
  8
Capa_1
 62
7
100
AcDbPolyline
 90
2
 70
0
 10
0.977677
 20
7.438569
 30
0.0
 10
0.977676
 20
7.438436
 30
0.0
  0
LWPOLYLINE
  5
15a
100
AcDbEntity
  8
Capa_1
 62
7
100
AcDbPolyline
 90
7
 70
1
 10
1.540062
 20
7.737072
 30
0.0
 10
1.234758
 20
7.315108
 30
0.0
 10
1.162264
 20
7.315108
 30
0.0
 10
1.487049
 20
7.755410
 30
0.0
 10
1.216235
 20
7.755410
 30
0.0
 10
1.228371
 20
7.811394
 30
0.0
 10
1.556350
 20
7.811394
 30
0.0
  0
LWPOLYLINE
  5
15b
100
AcDbEntity
  8
Capa_1
 62
7
100
AcDbPolyline
 90
8
 70
1
 10
0.726343
 20
5.608586
 30
0.0
 10
0.662153
 20
5.608586
 30
0.0
 10
0.646185
 20
5.748239
 30
0.0
 10
0.441159
 20
5.748239
 30
0.0
 10
0.363236
 20
5.608586
 30
0.0
 10
0.296490
 20
5.608586
 30
0.0
 10
0.579440
 20
6.104882
 30
0.0
 10
0.663111
 20
6.104882
 30
0.0
  0
SPLINE
  5
15c
100
AcDbEntity
  8
Capa_1
 62
7
100
AcDbSpline
 70
8
 71
3
 72
8
 73
4
 74
0
 40
0
 40
0
 40
0
 40
0
 40
1
 40
1
 40
1
 40
1
 10
1.255835
 20
5.914567
 30
0.0
 10
1.255835
 20
5.860354
 30
0.0
 10
1.242635
 20
5.809021
 30
0.0
 10
1.216235
 20
5.760570
 30
0.0
  0
SPLINE
  5
15d
100
AcDbEntity
  8
Capa_1
 62
7
100
AcDbSpline
 70
8
 71
3
 72
8
 73
4
 74
0
 40
0
 40
0
 40
0
 40
0
 40
1
 40
1
 40
1
 40
1
 10
1.216235
 20
5.760570
 30
0.0
 10
1.189835
 20
5.712146
 30
0.0
 10
1.153747
 20
5.674707
 30
0.0
 10
1.107973
 20
5.648255
 30
0.0
  0
SPLINE
  5
15e
100
AcDbEntity
  8
Capa_1
 62
7
100
AcDbSpline
 70
8
 71
3
 72
8
 73
4
 74
0
 40
0
 40
0
 40
0
 40
0
 40
1
 40
1
 40
1
 40
1
 10
1.107973
 20
5.648255
 30
0.0
 10
1.079870
 20
5.632454
 30
0.0
 10
1.051128
 20
5.621897
 30
0.0
 10
1.021747
 20
5.616585
 30
0.0
  0
SPLINE
  5
15f
100
AcDbEntity
  8
Capa_1
 62
7
100
AcDbSpline
 70
8
 71
3
 72
8
 73
4
 74
0
 40
0
 40
0
 40
0
 40
0
 40
1
 40
1
 40
1
 40
1
 10
1.021747
 20
5.616585
 30
0.0
 10
0.992367
 20
5.611136
 30
0.0
 10
0.959047
 20
5.608412
 30
0.0
 10
0.921789
 20
5.608412
 30
0.0
  0
LWPOLYLINE
  5
160
100
AcDbEntity
  8
Capa_1
 62
7
100
AcDbPolyline
 90
3
 70
1
 10
0.639159
 20
5.802241
 30
0.0
 10
0.609459
 20
6.047223
 30
0.0
 10
0.471497
 20
5.802241
 30
0.0
  0
SPLINE
  5
161
100
AcDbEntity
  8
Capa_1
 62
7
100
AcDbSpline
 70
8
 71
3
 72
8
 73
4
 74
0
 40
0
 40
0
 40
0
 40
0
 40
1
 40
1
 40
1
 40
1
 10
1.013764
 20
6.104708
 30
0.0
 10
1.048254
 20
6.104708
 30
0.0
 10
1.079658
 20
6.101984
 30
0.0
 10
1.107974
 20
6.096536
 30
0.0
  0
SPLINE
  5
162
100
AcDbEntity
  8
Capa_1
 62
7
100
AcDbSpline
 70
8
 71
3
 72
8
 73
4
 74
0
 40
0
 40
0
 40
0
 40
0
 40
1
 40
1
 40
1
 40
1
 10
1.107974
 20
6.096536
 30
0.0
 10
1.136503
 20
6.091768
 30
0.0
 10
1.162584
 20
6.081109
 30
0.0
 10
1.186217
 20
6.064559
 30
0.0
  0
SPLINE
  5
163
100
AcDbEntity
  8
Capa_1
 62
7
100
AcDbSpline
 70
8
 71
3
 72
8
 73
4
 74
0
 40
0
 40
0
 40
0
 40
0
 40
1
 40
1
 40
1
 40
1
 10
1.186217
 20
6.064559
 30
0.0
 10
1.208784
 20
6.048758
 30
0.0
 10
1.226030
 20
6.028088
 30
0.0
 10
1.237953
 20
6.002548
 30
0.0
  0
SPLINE
  5
164
100
AcDbEntity
  8
Capa_1
 62
7
100
AcDbSpline
 70
8
 71
3
 72
8
 73
4
 74
0
 40
0
 40
0
 40
0
 40
0
 40
1
 40
1
 40
1
 40
1
 10
1.237953
 20
6.002548
 30
0.0
 10
1.249875
 20
5.977212
 30
0.0
 10
1.255836
 20
5.947653
 30
0.0
 10
1.255836
 20
5.913872
 30
0.0
  0
LWPOLYLINE
  5
165
100
AcDbEntity
  8
Capa_1
 62
7
100
AcDbPolyline
 90
4
 70
0
 10
0.921789
 20
5.608412
 30
0.0
 10
0.793408
 20
5.608412
 30
0.0
 10
0.903267
 20
6.104708
 30
0.0
 10
1.013764
 20
6.104708
 30
0.0
  0
SPLINE
  5
166
100
AcDbEntity
  8
Capa_1
 62
7
100
AcDbSpline
 70
8
 71
3
 72
8
 73
4
 74
0
 40
0
 40
0
 40
0
 40
0
 40
1
 40
1
 40
1
 40
1
 10
1.189089
 20
5.908437
 30
0.0
 10
1.189089
 20
5.933773
 30
0.0
 10
1.184725
 20
5.955533
 30
0.0
 10
1.175996
 20
5.973718
 30
0.0
  0
SPLINE
  5
167
100
AcDbEntity
  8
Capa_1
 62
7
100
AcDbSpline
 70
8
 71
3
 72
8
 73
4
 74
0
 40
0
 40
0
 40
0
 40
0
 40
1
 40
1
 40
1
 40
1
 10
1.175996
 20
5.973718
 30
0.0
 10
1.167480
 20
5.992175
 30
0.0
 10
1.154493
 20
6.007499
 30
0.0
 10
1.137035
 20
6.019690
 30
0.0
  0
SPLINE
  5
168
100
AcDbEntity
  8
Capa_1
 62
7
100
AcDbSpline
 70
8
 71
3
 72
8
 73
4
 74
0
 40
0
 40
0
 40
0
 40
0
 40
1
 40
1
 40
1
 40
1
 10
1.137035
 20
6.019690
 30
0.0
 10
1.119790
 20
6.031677
 30
0.0
 10
1.101374
 20
6.039680
 30
0.0
 10
1.081787
 20
6.043698
 30
0.0
  0
SPLINE
  5
169
100
AcDbEntity
  8
Capa_1
 62
7
100
AcDbSpline
 70
8
 71
3
 72
8
 73
4
 74
0
 40
0
 40
0
 40
0
 40
0
 40
1
 40
1
 40
1
 40
1
 10
1.081787
 20
6.043698
 30
0.0
 10
1.062199
 20
6.047785
 30
0.0
 10
1.037396
 20
6.049828
 30
0.0
 10
1.007377
 20
6.049828
 30
0.0
  0
LWPOLYLINE
  5
16a
100
AcDbEntity
  8
Capa_1
 62
7
100
AcDbPolyline
 90
2
 70
0
 10
1.255836
 20
5.913872
 30
0.0
 10
1.255835
 20
5.914567
 30
0.0
  0
SPLINE
  5
16b
100
AcDbEntity
  8
Capa_1
 62
7
100
AcDbSpline
 70
8
 71
3
 72
8
 73
4
 74
0
 40
0
 40
0
 40
0
 40
0
 40
1
 40
1
 40
1
 40
1
 10
0.934564
 20
5.662189
 30
0.0
 10
0.965009
 20
5.662189
 30
0.0
 10
0.992154
 20
5.664914
 30
0.0
 10
1.015999
 20
5.670362
 30
0.0
  0
SPLINE
  5
16c
100
AcDbEntity
  8
Capa_1
 62
7
100
AcDbSpline
 70
8
 71
3
 72
8
 73
4
 74
0
 40
0
 40
0
 40
0
 40
0
 40
1
 40
1
 40
1
 40
1
 10
1.015999
 20
5.670362
 30
0.0
 10
1.040058
 20
5.675811
 30
0.0
 10
1.062732
 20
5.684801
 30
0.0
 10
1.084022
 20
5.697333
 30
0.0
  0
SPLINE
  5
16d
100
AcDbEntity
  8
Capa_1
 62
7
100
AcDbSpline
 70
8
 71
3
 72
8
 73
4
 74
0
 40
0
 40
0
 40
0
 40
0
 40
1
 40
1
 40
1
 40
1
 10
1.084022
 20
5.697333
 30
0.0
 10
1.118299
 20
5.717765
 30
0.0
 10
1.144380
 20
5.747221
 30
0.0
 10
1.162264
 20
5.785702
 30
0.0
  0
SPLINE
  5
16e
100
AcDbEntity
  8
Capa_1
 62
7
100
AcDbSpline
 70
8
 71
3
 72
8
 73
4
 74
0
 40
0
 40
0
 40
0
 40
0
 40
1
 40
1
 40
1
 40
1
 10
1.162264
 20
5.785702
 30
0.0
 10
1.180148
 20
5.824386
 30
0.0
 10
1.189089
 20
5.865383
 30
0.0
 10
1.189089
 20
5.908693
 30
0.0
  0
LWPOLYLINE
  5
16f
100
AcDbEntity
  8
Capa_1
 62
7
100
AcDbPolyline
 90
4
 70
0
 10
1.007377
 20
6.049828
 30
0.0
 10
0.954683
 20
6.049828
 30
0.0
 10
0.868457
 20
5.662189
 30
0.0
 10
0.934564
 20
5.662189
 30
0.0
  0
SPLINE
  5
170
100
AcDbEntity
  8
Capa_1
 62
7
100
AcDbSpline
 70
8
 71
3
 72
8
 73
4
 74
0
 40
0
 40
0
 40
0
 40
0
 40
1
 40
1
 40
1
 40
1
 10
1.672595
 20
5.969223
 30
0.0
 10
1.672595
 20
5.925226
 30
0.0
 10
1.664717
 20
5.873454
 30
0.0
 10
1.648962
 20
5.813908
 30
0.0
  0
SPLINE
  5
171
100
AcDbEntity
  8
Capa_1
 62
7
100
AcDbSpline
 70
8
 71
3
 72
8
 73
4
 74
0
 40
0
 40
0
 40
0
 40
0
 40
1
 40
1
 40
1
 40
1
 10
1.648962
 20
5.813908
 30
0.0
 10
1.633420
 20
5.754383
 30
0.0
 10
1.614046
 20
5.708608
 30
0.0
 10
1.590839
 20
5.676584
 30
0.0
  0
SPLINE
  5
172
100
AcDbEntity
  8
Capa_1
 62
7
100
AcDbSpline
 70
8
 71
3
 72
8
 73
4
 74
0
 40
0
 40
0
 40
0
 40
0
 40
1
 40
1
 40
1
 40
1
 10
1.590839
 20
5.676584
 30
0.0
 10
1.571039
 20
5.649682
 30
0.0
 10
1.549110
 20
5.629896
 30
0.0
 10
1.525052
 20
5.617228
 30
0.0
  0
SPLINE
  5
173
100
AcDbEntity
  8
Capa_1
 62
7
100
AcDbSpline
 70
8
 71
3
 72
8
 73
4
 74
0
 40
0
 40
0
 40
0
 40
0
 40
1
 40
1
 40
1
 40
1
 10
1.525052
 20
5.617228
 30
0.0
 10
1.501206
 20
5.604561
 30
0.0
 10
1.473528
 20
5.598227
 30
0.0
 10
1.442019
 20
5.598227
 30
0.0
  0
SPLINE
  5
174
100
AcDbEntity
  8
Capa_1
 62
7
100
AcDbSpline
 70
8
 71
3
 72
8
 73
4
 74
0
 40
0
 40
0
 40
0
 40
0
 40
1
 40
1
 40
1
 40
1
 10
1.442019
 20
5.598227
 30
0.0
 10
1.398799
 20
5.598227
 30
0.0
 10
1.366651
 20
5.610213
 30
0.0
 10
1.345573
 20
5.634187
 30
0.0
  0
SPLINE
  5
175
100
AcDbEntity
  8
Capa_1
 62
7
100
AcDbSpline
 70
8
 71
3
 72
8
 73
4
 74
0
 40
0
 40
0
 40
0
 40
0
 40
1
 40
1
 40
1
 40
1
 10
1.345573
 20
5.634187
 30
0.0
 10
1.324496
 20
5.658161
 30
0.0
 10
1.313958
 20
5.694714
 30
0.0
 10
1.313958
 20
5.743846
 30
0.0
  0
SPLINE
  5
176
100
AcDbEntity
  8
Capa_1
 62
7
100
AcDbSpline
 70
8
 71
3
 72
8
 73
4
 74
0
 40
0
 40
0
 40
0
 40
0
 40
1
 40
1
 40
1
 40
1
 10
1.313958
 20
5.743846
 30
0.0
 10
1.313958
 20
5.783621
 30
0.0
 10
1.321303
 20
5.833727
 30
0.0
 10
1.335993
 20
5.894166
 30
0.0
  0
SPLINE
  5
177
100
AcDbEntity
  8
Capa_1
 62
7
100
AcDbSpline
 70
8
 71
3
 72
8
 73
4
 74
0
 40
0
 40
0
 40
0
 40
0
 40
1
 40
1
 40
1
 40
1
 10
1.335993
 20
5.894166
 30
0.0
 10
1.350897
 20
5.954645
 30
0.0
 10
1.370803
 20
6.002085
 30
0.0
 10
1.395713
 20
6.036486
 30
0.0
  0
SPLINE
  5
178
100
AcDbEntity
  8
Capa_1
 62
7
100
AcDbSpline
 70
8
 71
3
 72
8
 73
4
 74
0
 40
0
 40
0
 40
0
 40
0
 40
1
 40
1
 40
1
 40
1
 10
1.395713
 20
6.036486
 30
0.0
 10
1.414874
 20
6.063184
 30
0.0
 10
1.436697
 20
6.082832
 30
0.0
 10
1.461182
 20
6.095432
 30
0.0
  0
SPLINE
  5
179
100
AcDbEntity
  8
Capa_1
 62
7
100
AcDbSpline
 70
8
 71
3
 72
8
 73
4
 74
0
 40
0
 40
0
 40
0
 40
0
 40
1
 40
1
 40
1
 40
1
 10
1.461182
 20
6.095432
 30
0.0
 10
1.485879
 20
6.108304
 30
0.0
 10
1.513769
 20
6.114741
 30
0.0
 10
1.544853
 20
6.114741
 30
0.0
  0
SPLINE
  5
17a
100
AcDbEntity
  8
Capa_1
 62
7
100
AcDbSpline
 70
8
 71
3
 72
8
 73
4
 74
0
 40
0
 40
0
 40
0
 40
0
 40
1
 40
1
 40
1
 40
1
 10
1.544853
 20
6.114741
 30
0.0
 10
1.587859
 20
6.114741
 30
0.0
 10
1.619902
 20
6.102618
 30
0.0
 10
1.640979
 20
6.078371
 30
0.0
  0
SPLINE
  5
17b
100
AcDbEntity
  8
Capa_1
 62
7
100
AcDbSpline
 70
8
 71
3
 72
8
 73
4
 74
0
 40
0
 40
0
 40
0
 40
0
 40
1
 40
1
 40
1
 40
1
 10
1.640979
 20
6.078371
 30
0.0
 10
1.662056
 20
6.054398
 30
0.0
 10
1.672595
 20
6.017957
 30
0.0
 10
1.672595
 20
5.969049
 30
0.0
  0
LWPOLYLINE
  5
17c
100
AcDbEntity
  8
Capa_1
 62
7
100
AcDbPolyline
 90
2
 70
0
 10
1.189089
 20
5.908693
 30
0.0
 10
1.189089
 20
5.908437
 30
0.0
  0
SPLINE
  5
17d
100
AcDbEntity
  8
Capa_1
 62
7
100
AcDbSpline
 70
8
 71
3
 72
8
 73
4
 74
0
 40
0
 40
0
 40
0
 40
0
 40
1
 40
1
 40
1
 40
1
 10
1.608084
 20
5.970224
 30
0.0
 10
1.608084
 20
5.999987
 30
0.0
 10
1.602655
 20
6.022769
 30
0.0
 10
1.591797
 20
6.038570
 30
0.0
  0
SPLINE
  5
17e
100
AcDbEntity
  8
Capa_1
 62
7
100
AcDbSpline
 70
8
 71
3
 72
8
 73
4
 74
0
 40
0
 40
0
 40
0
 40
0
 40
1
 40
1
 40
1
 40
1
 10
1.591797
 20
6.038570
 30
0.0
 10
1.581152
 20
6.054370
 30
0.0
 10
1.561991
 20
6.062271
 30
0.0
 10
1.534313
 20
6.062271
 30
0.0
  0
SPLINE
  5
17f
100
AcDbEntity
  8
Capa_1
 62
7
100
AcDbSpline
 70
8
 71
3
 72
8
 73
4
 74
0
 40
0
 40
0
 40
0
 40
0
 40
1
 40
1
 40
1
 40
1
 10
1.534313
 20
6.062271
 30
0.0
 10
1.513874
 20
6.062271
 30
0.0
 10
1.495777
 20
6.057606
 30
0.0
 10
1.480022
 20
6.048275
 30
0.0
  0
SPLINE
  5
180
100
AcDbEntity
  8
Capa_1
 62
7
100
AcDbSpline
 70
8
 71
3
 72
8
 73
4
 74
0
 40
0
 40
0
 40
0
 40
0
 40
1
 40
1
 40
1
 40
1
 10
1.480022
 20
6.048275
 30
0.0
 10
1.464480
 20
6.038944
 30
0.0
 10
1.450216
 20
6.022496
 30
0.0
 10
1.437229
 20
5.998931
 30
0.0
  0
SPLINE
  5
181
100
AcDbEntity
  8
Capa_1
 62
7
100
AcDbSpline
 70
8
 71
3
 72
8
 73
4
 74
0
 40
0
 40
0
 40
0
 40
0
 40
1
 40
1
 40
1
 40
1
 10
1.437229
 20
5.998931
 30
0.0
 10
1.422326
 20
5.971620
 30
0.0
 10
1.408806
 20
5.930845
 30
0.0
 10
1.396670
 20
5.876604
 30
0.0
  0
SPLINE
  5
182
100
AcDbEntity
  8
Capa_1
 62
7
100
AcDbSpline
 70
8
 71
3
 72
8
 73
4
 74
0
 40
0
 40
0
 40
0
 40
0
 40
1
 40
1
 40
1
 40
1
 10
1.396670
 20
5.876604
 30
0.0
 10
1.384535
 20
5.822595
 30
0.0
 10
1.378467
 20
5.778043
 30
0.0
 10
1.378467
 20
5.742947
 30
0.0
  0
SPLINE
  5
183
100
AcDbEntity
  8
Capa_1
 62
7
100
AcDbSpline
 70
8
 71
3
 72
8
 73
4
 74
0
 40
0
 40
0
 40
0
 40
0
 40
1
 40
1
 40
1
 40
1
 10
1.378467
 20
5.742947
 30
0.0
 10
1.378467
 20
5.713185
 30
0.0
 10
1.383789
 20
5.690403
 30
0.0
 10
1.394435
 20
5.674602
 30
0.0
  0
SPLINE
  5
184
100
AcDbEntity
  8
Capa_1
 62
7
100
AcDbSpline
 70
8
 71
3
 72
8
 73
4
 74
0
 40
0
 40
0
 40
0
 40
0
 40
1
 40
1
 40
1
 40
1
 10
1.394435
 20
5.674602
 30
0.0
 10
1.405293
 20
5.658801
 30
0.0
 10
1.424560
 20
5.650901
 30
0.0
 10
1.452238
 20
5.650901
 30
0.0
  0
SPLINE
  5
185
100
AcDbEntity
  8
Capa_1
 62
7
100
AcDbSpline
 70
8
 71
3
 72
8
 73
4
 74
0
 40
0
 40
0
 40
0
 40
0
 40
1
 40
1
 40
1
 40
1
 10
1.452238
 20
5.650901
 30
0.0
 10
1.471612
 20
5.650901
 30
0.0
 10
1.489602
 20
5.655770
 30
0.0
 10
1.506209
 20
5.665510
 30
0.0
  0
SPLINE
  5
186
100
AcDbEntity
  8
Capa_1
 62
7
100
AcDbSpline
 70
8
 71
3
 72
8
 73
4
 74
0
 40
0
 40
0
 40
0
 40
0
 40
1
 40
1
 40
1
 40
1
 10
1.506209
 20
5.665510
 30
0.0
 10
1.522815
 20
5.675317
 30
0.0
 10
1.537186
 20
5.691527
 30
0.0
 10
1.549322
 20
5.714138
 30
0.0
  0
SPLINE
  5
187
100
AcDbEntity
  8
Capa_1
 62
7
100
AcDbSpline
 70
8
 71
3
 72
8
 73
4
 74
0
 40
0
 40
0
 40
0
 40
0
 40
1
 40
1
 40
1
 40
1
 10
1.549322
 20
5.714138
 30
0.0
 10
1.564225
 20
5.741926
 30
0.0
 10
1.577745
 20
5.782810
 30
0.0
 10
1.589881
 20
5.836792
 30
0.0
  0
SPLINE
  5
188
100
AcDbEntity
  8
Capa_1
 62
7
100
AcDbSpline
 70
8
 71
3
 72
8
 73
4
 74
0
 40
0
 40
0
 40
0
 40
0
 40
1
 40
1
 40
1
 40
1
 10
1.589881
 20
5.836792
 30
0.0
 10
1.602017
 20
5.891005
 30
0.0
 10
1.608084
 20
5.935445
 30
0.0
 10
1.608084
 20
5.970112
 30
0.0
  0
LWPOLYLINE
  5
189
100
AcDbEntity
  8
Capa_1
 62
7
100
AcDbPolyline
 90
2
 70
0
 10
1.672595
 20
5.969049
 30
0.0
 10
1.672595
 20
5.969223
 30
0.0
  0
LWPOLYLINE
  5
18a
100
AcDbEntity
  8
Capa_1
 62
7
100
AcDbPolyline
 90
2
 70
0
 10
1.608084
 20
5.970112
 30
0.0
 10
1.608084
 20
5.970224
 30
0.0
  0
LWPOLYLINE
  5
18b
100
AcDbEntity
  8
Capa_1
 62
7
100
AcDbPolyline
 90
8
 70
1
 10
0.726343
 20
3.902064
 30
0.0
 10
0.662153
 20
3.902064
 30
0.0
 10
0.646185
 20
4.041717
 30
0.0
 10
0.441159
 20
4.041717
 30
0.0
 10
0.363236
 20
3.902064
 30
0.0
 10
0.296490
 20
3.902064
 30
0.0
 10
0.579440
 20
4.398360
 30
0.0
 10
0.663111
 20
4.398360
 30
0.0
  0
SPLINE
  5
18c
100
AcDbEntity
  8
Capa_1
 62
7
100
AcDbSpline
 70
8
 71
3
 72
8
 73
4
 74
0
 40
0
 40
0
 40
0
 40
0
 40
1
 40
1
 40
1
 40
1
 10
1.255835
 20
4.208035
 30
0.0
 10
1.255835
 20
4.153822
 30
0.0
 10
1.242635
 20
4.102493
 30
0.0
 10
1.216235
 20
4.054048
 30
0.0
  0
SPLINE
  5
18d
100
AcDbEntity
  8
Capa_1
 62
7
100
AcDbSpline
 70
8
 71
3
 72
8
 73
4
 74
0
 40
0
 40
0
 40
0
 40
0
 40
1
 40
1
 40
1
 40
1
 10
1.216235
 20
4.054048
 30
0.0
 10
1.189835
 20
4.005624
 30
0.0
 10
1.153747
 20
3.968185
 30
0.0
 10
1.107973
 20
3.941733
 30
0.0
  0
SPLINE
  5
18e
100
AcDbEntity
  8
Capa_1
 62
7
100
AcDbSpline
 70
8
 71
3
 72
8
 73
4
 74
0
 40
0
 40
0
 40
0
 40
0
 40
1
 40
1
 40
1
 40
1
 10
1.107973
 20
3.941733
 30
0.0
 10
1.079870
 20
3.925932
 30
0.0
 10
1.051128
 20
3.915375
 30
0.0
 10
1.021747
 20
3.910063
 30
0.0
  0
SPLINE
  5
18f
100
AcDbEntity
  8
Capa_1
 62
7
100
AcDbSpline
 70
8
 71
3
 72
8
 73
4
 74
0
 40
0
 40
0
 40
0
 40
0
 40
1
 40
1
 40
1
 40
1
 10
1.021747
 20
3.910063
 30
0.0
 10
0.992367
 20
3.904614
 30
0.0
 10
0.959047
 20
3.901890
 30
0.0
 10
0.921789
 20
3.901890
 30
0.0
  0
LWPOLYLINE
  5
190
100
AcDbEntity
  8
Capa_1
 62
7
100
AcDbPolyline
 90
3
 70
1
 10
0.639159
 20
4.095719
 30
0.0
 10
0.609459
 20
4.340690
 30
0.0
 10
0.471497
 20
4.095719
 30
0.0
  0
SPLINE
  5
191
100
AcDbEntity
  8
Capa_1
 62
7
100
AcDbSpline
 70
8
 71
3
 72
8
 73
4
 74
0
 40
0
 40
0
 40
0
 40
0
 40
1
 40
1
 40
1
 40
1
 10
1.013764
 20
4.398186
 30
0.0
 10
1.048254
 20
4.398186
 30
0.0
 10
1.079658
 20
4.395462
 30
0.0
 10
1.107974
 20
4.390014
 30
0.0
  0
SPLINE
  5
192
100
AcDbEntity
  8
Capa_1
 62
7
100
AcDbSpline
 70
8
 71
3
 72
8
 73
4
 74
0
 40
0
 40
0
 40
0
 40
0
 40
1
 40
1
 40
1
 40
1
 10
1.107974
 20
4.390014
 30
0.0
 10
1.136503
 20
4.385246
 30
0.0
 10
1.162584
 20
4.374587
 30
0.0
 10
1.186217
 20
4.358037
 30
0.0
  0
SPLINE
  5
193
100
AcDbEntity
  8
Capa_1
 62
7
100
AcDbSpline
 70
8
 71
3
 72
8
 73
4
 74
0
 40
0
 40
0
 40
0
 40
0
 40
1
 40
1
 40
1
 40
1
 10
1.186217
 20
4.358037
 30
0.0
 10
1.208784
 20
4.342236
 30
0.0
 10
1.226030
 20
4.321566
 30
0.0
 10
1.237953
 20
4.296026
 30
0.0
  0
SPLINE
  5
194
100
AcDbEntity
  8
Capa_1
 62
7
100
AcDbSpline
 70
8
 71
3
 72
8
 73
4
 74
0
 40
0
 40
0
 40
0
 40
0
 40
1
 40
1
 40
1
 40
1
 10
1.237953
 20
4.296026
 30
0.0
 10
1.249875
 20
4.270690
 30
0.0
 10
1.255836
 20
4.241131
 30
0.0
 10
1.255836
 20
4.207350
 30
0.0
  0
LWPOLYLINE
  5
195
100
AcDbEntity
  8
Capa_1
 62
7
100
AcDbPolyline
 90
4
 70
0
 10
0.921789
 20
3.901890
 30
0.0
 10
0.793408
 20
3.901890
 30
0.0
 10
0.903267
 20
4.398186
 30
0.0
 10
1.013764
 20
4.398186
 30
0.0
  0
SPLINE
  5
196
100
AcDbEntity
  8
Capa_1
 62
7
100
AcDbSpline
 70
8
 71
3
 72
8
 73
4
 74
0
 40
0
 40
0
 40
0
 40
0
 40
1
 40
1
 40
1
 40
1
 10
1.189089
 20
4.201905
 30
0.0
 10
1.189089
 20
4.227241
 30
0.0
 10
1.184725
 20
4.249001
 30
0.0
 10
1.175996
 20
4.267186
 30
0.0
  0
SPLINE
  5
197
100
AcDbEntity
  8
Capa_1
 62
7
100
AcDbSpline
 70
8
 71
3
 72
8
 73
4
 74
0
 40
0
 40
0
 40
0
 40
0
 40
1
 40
1
 40
1
 40
1
 10
1.175996
 20
4.267186
 30
0.0
 10
1.167480
 20
4.285643
 30
0.0
 10
1.154493
 20
4.300967
 30
0.0
 10
1.137035
 20
4.313158
 30
0.0
  0
SPLINE
  5
198
100
AcDbEntity
  8
Capa_1
 62
7
100
AcDbSpline
 70
8
 71
3
 72
8
 73
4
 74
0
 40
0
 40
0
 40
0
 40
0
 40
1
 40
1
 40
1
 40
1
 10
1.137035
 20
4.313158
 30
0.0
 10
1.119790
 20
4.325145
 30
0.0
 10
1.101374
 20
4.333148
 30
0.0
 10
1.081787
 20
4.337166
 30
0.0
  0
SPLINE
  5
199
100
AcDbEntity
  8
Capa_1
 62
7
100
AcDbSpline
 70
8
 71
3
 72
8
 73
4
 74
0
 40
0
 40
0
 40
0
 40
0
 40
1
 40
1
 40
1
 40
1
 10
1.081787
 20
4.337166
 30
0.0
 10
1.062199
 20
4.341252
 30
0.0
 10
1.037396
 20
4.343296
 30
0.0
 10
1.007377
 20
4.343296
 30
0.0
  0
LWPOLYLINE
  5
19a
100
AcDbEntity
  8
Capa_1
 62
7
100
AcDbPolyline
 90
2
 70
0
 10
1.255836
 20
4.207350
 30
0.0
 10
1.255835
 20
4.208035
 30
0.0
  0
SPLINE
  5
19b
100
AcDbEntity
  8
Capa_1
 62
7
100
AcDbSpline
 70
8
 71
3
 72
8
 73
4
 74
0
 40
0
 40
0
 40
0
 40
0
 40
1
 40
1
 40
1
 40
1
 10
0.934564
 20
3.955657
 30
0.0
 10
0.965009
 20
3.955657
 30
0.0
 10
0.992154
 20
3.958381
 30
0.0
 10
1.015999
 20
3.963830
 30
0.0
  0
SPLINE
  5
19c
100
AcDbEntity
  8
Capa_1
 62
7
100
AcDbSpline
 70
8
 71
3
 72
8
 73
4
 74
0
 40
0
 40
0
 40
0
 40
0
 40
1
 40
1
 40
1
 40
1
 10
1.015999
 20
3.963830
 30
0.0
 10
1.040058
 20
3.969279
 30
0.0
 10
1.062732
 20
3.978269
 30
0.0
 10
1.084022
 20
3.990800
 30
0.0
  0
SPLINE
  5
19d
100
AcDbEntity
  8
Capa_1
 62
7
100
AcDbSpline
 70
8
 71
3
 72
8
 73
4
 74
0
 40
0
 40
0
 40
0
 40
0
 40
1
 40
1
 40
1
 40
1
 10
1.084022
 20
3.990800
 30
0.0
 10
1.118299
 20
4.011233
 30
0.0
 10
1.144380
 20
4.040689
 30
0.0
 10
1.162264
 20
4.079169
 30
0.0
  0
SPLINE
  5
19e
100
AcDbEntity
  8
Capa_1
 62
7
100
AcDbSpline
 70
8
 71
3
 72
8
 73
4
 74
0
 40
0
 40
0
 40
0
 40
0
 40
1
 40
1
 40
1
 40
1
 10
1.162264
 20
4.079169
 30
0.0
 10
1.180148
 20
4.117854
 30
0.0
 10
1.189089
 20
4.158851
 30
0.0
 10
1.189089
 20
4.202161
 30
0.0
  0
LWPOLYLINE
  5
19f
100
AcDbEntity
  8
Capa_1
 62
7
100
AcDbPolyline
 90
4
 70
0
 10
1.007377
 20
4.343296
 30
0.0
 10
0.954683
 20
4.343296
 30
0.0
 10
0.868457
 20
3.955657
 30
0.0
 10
0.934564
 20
3.955657
 30
0.0
  0
LWPOLYLINE
  5
1a0
100
AcDbEntity
  8
Capa_1
 62
7
100
AcDbPolyline
 90
2
 70
0
 10
1.189089
 20
4.202161
 30
0.0
 10
1.189089
 20
4.201905
 30
0.0
  0
SPLINE
  5
1a1
100
AcDbEntity
  8
Capa_1
 62
7
100
AcDbSpline
 70
8
 71
3
 72
8
 73
4
 74
0
 40
0
 40
0
 40
0
 40
0
 40
1
 40
1
 40
1
 40
1
 10
1.414554
 20
4.330699
 30
0.0
 10
1.451386
 20
4.330699
 30
0.0
 10
1.479915
 20
4.336046
 30
0.0
 10
1.500142
 20
4.346738
 30
0.0
  0
SPLINE
  5
1a2
100
AcDbEntity
  8
Capa_1
 62
7
100
AcDbSpline
 70
8
 71
3
 72
8
 73
4
 74
0
 40
0
 40
0
 40
0
 40
0
 40
1
 40
1
 40
1
 40
1
 10
1.500142
 20
4.346738
 30
0.0
 10
1.520581
 20
4.357635
 30
0.0
 10
1.534207
 20
4.375411
 30
0.0
 10
1.541019
 20
4.400066
 30
0.0
  0
LWPOLYLINE
  5
1a3
100
AcDbEntity
  8
Capa_1
 62
7
100
AcDbPolyline
 90
7
 70
0
 10
1.579023
 20
3.902064
 30
0.0
 10
1.320984
 20
3.902064
 30
0.0
 10
1.331842
 20
3.950386
 30
0.0
 10
1.429565
 20
3.950386
 30
0.0
 10
1.504294
 20
4.287689
 30
0.0
 10
1.405294
 20
4.287689
 30
0.0
 10
1.414554
 20
4.330699
 30
0.0
  0
LWPOLYLINE
  5
1a4
100
AcDbEntity
  8
Capa_1
 62
7
100
AcDbPolyline
 90
5
 70
0
 10
1.541019
 20
4.400066
 30
0.0
 10
1.590839
 20
4.400066
 30
0.0
 10
1.491519
 20
3.950437
 30
0.0
 10
1.589881
 20
3.950437
 30
0.0
 10
1.579023
 20
3.902064
 30
0.0
  0
LWPOLYLINE
  5
1a5
100
AcDbEntity
  8
Capa_1
 62
7
100
AcDbPolyline
 90
8
 70
1
 10
0.726343
 20
2.195542
 30
0.0
 10
0.662153
 20
2.195542
 30
0.0
 10
0.646185
 20
2.335195
 30
0.0
 10
0.441159
 20
2.335195
 30
0.0
 10
0.363236
 20
2.195542
 30
0.0
 10
0.296490
 20
2.195542
 30
0.0
 10
0.579440
 20
2.691838
 30
0.0
 10
0.663111
 20
2.691838
 30
0.0
  0
SPLINE
  5
1a6
100
AcDbEntity
  8
Capa_1
 62
7
100
AcDbSpline
 70
8
 71
3
 72
8
 73
4
 74
0
 40
0
 40
0
 40
0
 40
0
 40
1
 40
1
 40
1
 40
1
 10
1.255835
 20
2.501513
 30
0.0
 10
1.255835
 20
2.447300
 30
0.0
 10
1.242635
 20
2.395971
 30
0.0
 10
1.216235
 20
2.347526
 30
0.0
  0
SPLINE
  5
1a7
100
AcDbEntity
  8
Capa_1
 62
7
100
AcDbSpline
 70
8
 71
3
 72
8
 73
4
 74
0
 40
0
 40
0
 40
0
 40
0
 40
1
 40
1
 40
1
 40
1
 10
1.216235
 20
2.347526
 30
0.0
 10
1.189835
 20
2.299102
 30
0.0
 10
1.153747
 20
2.261664
 30
0.0
 10
1.107973
 20
2.235211
 30
0.0
  0
SPLINE
  5
1a8
100
AcDbEntity
  8
Capa_1
 62
7
100
AcDbSpline
 70
8
 71
3
 72
8
 73
4
 74
0
 40
0
 40
0
 40
0
 40
0
 40
1
 40
1
 40
1
 40
1
 10
1.107973
 20
2.235211
 30
0.0
 10
1.079870
 20
2.219410
 30
0.0
 10
1.051128
 20
2.208853
 30
0.0
 10
1.021747
 20
2.203541
 30
0.0
  0
SPLINE
  5
1a9
100
AcDbEntity
  8
Capa_1
 62
7
100
AcDbSpline
 70
8
 71
3
 72
8
 73
4
 74
0
 40
0
 40
0
 40
0
 40
0
 40
1
 40
1
 40
1
 40
1
 10
1.021747
 20
2.203541
 30
0.0
 10
0.992367
 20
2.198092
 30
0.0
 10
0.959047
 20
2.195368
 30
0.0
 10
0.921789
 20
2.195368
 30
0.0
  0
LWPOLYLINE
  5
1aa
100
AcDbEntity
  8
Capa_1
 62
7
100
AcDbPolyline
 90
3
 70
1
 10
0.639159
 20
2.389197
 30
0.0
 10
0.609459
 20
2.634168
 30
0.0
 10
0.471497
 20
2.389197
 30
0.0
  0
SPLINE
  5
1ab
100
AcDbEntity
  8
Capa_1
 62
7
100
AcDbSpline
 70
8
 71
3
 72
8
 73
4
 74
0
 40
0
 40
0
 40
0
 40
0
 40
1
 40
1
 40
1
 40
1
 10
1.013764
 20
2.691664
 30
0.0
 10
1.048254
 20
2.691664
 30
0.0
 10
1.079658
 20
2.688940
 30
0.0
 10
1.107974
 20
2.683492
 30
0.0
  0
SPLINE
  5
1ac
100
AcDbEntity
  8
Capa_1
 62
7
100
AcDbSpline
 70
8
 71
3
 72
8
 73
4
 74
0
 40
0
 40
0
 40
0
 40
0
 40
1
 40
1
 40
1
 40
1
 10
1.107974
 20
2.683492
 30
0.0
 10
1.136503
 20
2.678724
 30
0.0
 10
1.162584
 20
2.668065
 30
0.0
 10
1.186217
 20
2.651515
 30
0.0
  0
SPLINE
  5
1ad
100
AcDbEntity
  8
Capa_1
 62
7
100
AcDbSpline
 70
8
 71
3
 72
8
 73
4
 74
0
 40
0
 40
0
 40
0
 40
0
 40
1
 40
1
 40
1
 40
1
 10
1.186217
 20
2.651515
 30
0.0
 10
1.208784
 20
2.635714
 30
0.0
 10
1.226030
 20
2.615044
 30
0.0
 10
1.237953
 20
2.589504
 30
0.0
  0
SPLINE
  5
1ae
100
AcDbEntity
  8
Capa_1
 62
7
100
AcDbSpline
 70
8
 71
3
 72
8
 73
4
 74
0
 40
0
 40
0
 40
0
 40
0
 40
1
 40
1
 40
1
 40
1
 10
1.237953
 20
2.589504
 30
0.0
 10
1.249875
 20
2.564168
 30
0.0
 10
1.255836
 20
2.534609
 30
0.0
 10
1.255836
 20
2.500828
 30
0.0
  0
LWPOLYLINE
  5
1af
100
AcDbEntity
  8
Capa_1
 62
7
100
AcDbPolyline
 90
4
 70
0
 10
0.921789
 20
2.195368
 30
0.0
 10
0.793408
 20
2.195368
 30
0.0
 10
0.903267
 20
2.691664
 30
0.0
 10
1.013764
 20
2.691664
 30
0.0
  0
SPLINE
  5
1b0
100
AcDbEntity
  8
Capa_1
 62
7
100
AcDbSpline
 70
8
 71
3
 72
8
 73
4
 74
0
 40
0
 40
0
 40
0
 40
0
 40
1
 40
1
 40
1
 40
1
 10
1.189089
 20
2.495383
 30
0.0
 10
1.189089
 20
2.520719
 30
0.0
 10
1.184725
 20
2.542479
 30
0.0
 10
1.175996
 20
2.560664
 30
0.0
  0
SPLINE
  5
1b1
100
AcDbEntity
  8
Capa_1
 62
7
100
AcDbSpline
 70
8
 71
3
 72
8
 73
4
 74
0
 40
0
 40
0
 40
0
 40
0
 40
1
 40
1
 40
1
 40
1
 10
1.175996
 20
2.560664
 30
0.0
 10
1.167480
 20
2.579121
 30
0.0
 10
1.154493
 20
2.594445
 30
0.0
 10
1.137035
 20
2.606636
 30
0.0
  0
SPLINE
  5
1b2
100
AcDbEntity
  8
Capa_1
 62
7
100
AcDbSpline
 70
8
 71
3
 72
8
 73
4
 74
0
 40
0
 40
0
 40
0
 40
0
 40
1
 40
1
 40
1
 40
1
 10
1.137035
 20
2.606636
 30
0.0
 10
1.119790
 20
2.618623
 30
0.0
 10
1.101374
 20
2.626626
 30
0.0
 10
1.081787
 20
2.630644
 30
0.0
  0
SPLINE
  5
1b3
100
AcDbEntity
  8
Capa_1
 62
7
100
AcDbSpline
 70
8
 71
3
 72
8
 73
4
 74
0
 40
0
 40
0
 40
0
 40
0
 40
1
 40
1
 40
1
 40
1
 10
1.081787
 20
2.630644
 30
0.0
 10
1.062199
 20
2.634730
 30
0.0
 10
1.037396
 20
2.636774
 30
0.0
 10
1.007377
 20
2.636774
 30
0.0
  0
LWPOLYLINE
  5
1b4
100
AcDbEntity
  8
Capa_1
 62
7
100
AcDbPolyline
 90
2
 70
0
 10
1.255836
 20
2.500828
 30
0.0
 10
1.255835
 20
2.501513
 30
0.0
  0
SPLINE
  5
1b5
100
AcDbEntity
  8
Capa_1
 62
7
100
AcDbSpline
 70
8
 71
3
 72
8
 73
4
 74
0
 40
0
 40
0
 40
0
 40
0
 40
1
 40
1
 40
1
 40
1
 10
0.934564
 20
2.249135
 30
0.0
 10
0.965009
 20
2.249135
 30
0.0
 10
0.992154
 20
2.251519
 30
0.0
 10
1.015999
 20
2.256286
 30
0.0
  0
SPLINE
  5
1b6
100
AcDbEntity
  8
Capa_1
 62
7
100
AcDbSpline
 70
8
 71
3
 72
8
 73
4
 74
0
 40
0
 40
0
 40
0
 40
0
 40
1
 40
1
 40
1
 40
1
 10
1.015999
 20
2.256286
 30
0.0
 10
1.040058
 20
2.261735
 30
0.0
 10
1.062732
 20
2.270725
 30
0.0
 10
1.084022
 20
2.283257
 30
0.0
  0
SPLINE
  5
1b7
100
AcDbEntity
  8
Capa_1
 62
7
100
AcDbSpline
 70
8
 71
3
 72
8
 73
4
 74
0
 40
0
 40
0
 40
0
 40
0
 40
1
 40
1
 40
1
 40
1
 10
1.084022
 20
2.283257
 30
0.0
 10
1.118299
 20
2.303689
 30
0.0
 10
1.144380
 20
2.333145
 30
0.0
 10
1.162264
 20
2.371626
 30
0.0
  0
SPLINE
  5
1b8
100
AcDbEntity
  8
Capa_1
 62
7
100
AcDbSpline
 70
8
 71
3
 72
8
 73
4
 74
0
 40
0
 40
0
 40
0
 40
0
 40
1
 40
1
 40
1
 40
1
 10
1.162264
 20
2.371626
 30
0.0
 10
1.180148
 20
2.410311
 30
0.0
 10
1.189089
 20
2.451308
 30
0.0
 10
1.189089
 20
2.494617
 30
0.0
  0
LWPOLYLINE
  5
1b9
100
AcDbEntity
  8
Capa_1
 62
7
100
AcDbPolyline
 90
4
 70
0
 10
1.007377
 20
2.636774
 30
0.0
 10
0.954683
 20
2.636774
 30
0.0
 10
0.868457
 20
2.249135
 30
0.0
 10
0.934564
 20
2.249135
 30
0.0
  0
LWPOLYLINE
  5
1ba
100
AcDbEntity
  8
Capa_1
 62
7
100
AcDbPolyline
 90
2
 70
0
 10
1.189089
 20
2.494617
 30
0.0
 10
1.189089
 20
2.495383
 30
0.0
  0
SPLINE
  5
1bb
100
AcDbEntity
  8
Capa_1
 62
7
100
AcDbSpline
 70
8
 71
3
 72
8
 73
4
 74
0
 40
0
 40
0
 40
0
 40
0
 40
1
 40
1
 40
1
 40
1
 10
1.297352
 20
2.265215
 30
0.0
 10
1.327371
 20
2.288099
 30
0.0
 10
1.352813
 20
2.307544
 30
0.0
 10
1.373677
 20
2.323549
 30
0.0
  0
SPLINE
  5
1bc
100
AcDbEntity
  8
Capa_1
 62
7
100
AcDbSpline
 70
8
 71
3
 72
8
 73
4
 74
0
 40
0
 40
0
 40
0
 40
0
 40
1
 40
1
 40
1
 40
1
 10
1.373677
 20
2.323549
 30
0.0
 10
1.394755
 20
2.339759
 30
0.0
 10
1.420090
 20
2.360191
 30
0.0
 10
1.449684
 20
2.384845
 30
0.0
  0
SPLINE
  5
1bd
100
AcDbEntity
  8
Capa_1
 62
7
100
AcDbSpline
 70
8
 71
3
 72
8
 73
4
 74
0
 40
0
 40
0
 40
0
 40
0
 40
1
 40
1
 40
1
 40
1
 10
1.449684
 20
2.384845
 30
0.0
 10
1.501632
 20
2.428162
 30
0.0
 10
1.538252
 20
2.464606
 30
0.0
 10
1.559543
 20
2.494178
 30
0.0
  0
SPLINE
  5
1be
100
AcDbEntity
  8
Capa_1
 62
7
100
AcDbSpline
 70
8
 71
3
 72
8
 73
4
 74
0
 40
0
 40
0
 40
0
 40
0
 40
1
 40
1
 40
1
 40
1
 10
1.559543
 20
2.494178
 30
0.0
 10
1.581046
 20
2.523941
 30
0.0
 10
1.591798
 20
2.552818
 30
0.0
 10
1.591798
 20
2.580810
 30
0.0
  0
SPLINE
  5
1bf
100
AcDbEntity
  8
Capa_1
 62
7
100
AcDbSpline
 70
8
 71
3
 72
8
 73
4
 74
0
 40
0
 40
0
 40
0
 40
0
 40
1
 40
1
 40
1
 40
1
 10
1.591798
 20
2.580810
 30
0.0
 10
1.591798
 20
2.602604
 30
0.0
 10
1.584346
 20
2.619052
 30
0.0
 10
1.569443
 20
2.630154
 30
0.0
  0
SPLINE
  5
1c0
100
AcDbEntity
  8
Capa_1
 62
7
100
AcDbSpline
 70
8
 71
3
 72
8
 73
4
 74
0
 40
0
 40
0
 40
0
 40
0
 40
1
 40
1
 40
1
 40
1
 10
1.569443
 20
2.630154
 30
0.0
 10
1.554752
 20
2.641255
 30
0.0
 10
1.535803
 20
2.646806
 30
0.0
 10
1.512597
 20
2.646806
 30
0.0
  0
SPLINE
  5
1c1
100
AcDbEntity
  8
Capa_1
 62
7
100
AcDbSpline
 70
8
 71
3
 72
8
 73
4
 74
0
 40
0
 40
0
 40
0
 40
0
 40
1
 40
1
 40
1
 40
1
 10
1.512597
 20
2.646806
 30
0.0
 10
1.493648
 20
2.646806
 30
0.0
 10
1.471932
 20
2.643026
 30
0.0
 10
1.447448
 20
2.635466
 30
0.0
  0
SPLINE
  5
1c2
100
AcDbEntity
  8
Capa_1
 62
7
100
AcDbSpline
 70
8
 71
3
 72
8
 73
4
 74
0
 40
0
 40
0
 40
0
 40
0
 40
1
 40
1
 40
1
 40
1
 10
1.447448
 20
2.635466
 30
0.0
 10
1.423178
 20
2.628110
 30
0.0
 10
1.399332
 20
2.617452
 30
0.0
 10
1.375913
 20
2.603490
 30
0.0
  0
LWPOLYLINE
  5
1c3
100
AcDbEntity
  8
Capa_1
 62
7
100
AcDbPolyline
 90
3
 70
0
 10
1.604572
 20
2.195542
 30
0.0
 10
1.282342
 20
2.195542
 30
0.0
 10
1.297352
 20
2.265215
 30
0.0
  0
SPLINE
  5
1c4
100
AcDbEntity
  8
Capa_1
 62
7
100
AcDbSpline
 70
8
 71
3
 72
8
 73
4
 74
0
 40
0
 40
0
 40
0
 40
0
 40
1
 40
1
 40
1
 40
1
 10
1.385496
 20
2.671120
 30
0.0
 10
1.402315
 20
2.679088
 30
0.0
 10
1.423819
 20
2.686206
 30
0.0
 10
1.450006
 20
2.692472
 30
0.0
  0
SPLINE
  5
1c5
100
AcDbEntity
  8
Capa_1
 62
7
100
AcDbSpline
 70
8
 71
3
 72
8
 73
4
 74
0
 40
0
 40
0
 40
0
 40
0
 40
1
 40
1
 40
1
 40
1
 10
1.450006
 20
2.692472
 30
0.0
 10
1.476193
 20
2.698601
 30
0.0
 10
1.501316
 20
2.701666
 30
0.0
 10
1.525374
 20
2.701666
 30
0.0
  0
SPLINE
  5
1c6
100
AcDbEntity
  8
Capa_1
 62
7
100
AcDbSpline
 70
8
 71
3
 72
8
 73
4
 74
0
 40
0
 40
0
 40
0
 40
0
 40
1
 40
1
 40
1
 40
1
 10
1.525374
 20
2.701666
 30
0.0
 10
1.568167
 20
2.701666
 30
0.0
 10
1.601167
 20
2.691893
 30
0.0
 10
1.624374
 20
2.672346
 30
0.0
  0
SPLINE
  5
1c7
100
AcDbEntity
  8
Capa_1
 62
7
100
AcDbSpline
 70
8
 71
3
 72
8
 73
4
 74
0
 40
0
 40
0
 40
0
 40
0
 40
1
 40
1
 40
1
 40
1
 10
1.624374
 20
2.672346
 30
0.0
 10
1.647581
 20
2.653003
 30
0.0
 10
1.659184
 20
2.626782
 30
0.0
 10
1.659184
 20
2.593682
 30
0.0
  0
SPLINE
  5
1c8
100
AcDbEntity
  8
Capa_1
 62
7
100
AcDbSpline
 70
8
 71
3
 72
8
 73
4
 74
0
 40
0
 40
0
 40
0
 40
0
 40
1
 40
1
 40
1
 40
1
 10
1.659184
 20
2.593682
 30
0.0
 10
1.659184
 20
2.557926
 30
0.0
 10
1.649390
 20
2.524043
 30
0.0
 10
1.629803
 20
2.492032
 30
0.0
  0
SPLINE
  5
1c9
100
AcDbEntity
  8
Capa_1
 62
7
100
AcDbSpline
 70
8
 71
3
 72
8
 73
4
 74
0
 40
0
 40
0
 40
0
 40
0
 40
1
 40
1
 40
1
 40
1
 10
1.629803
 20
2.492032
 30
0.0
 10
1.610216
 20
2.460226
 30
0.0
 10
1.575939
 20
2.423118
 30
0.0
 10
1.526970
 20
2.380708
 30
0.0
  0
SPLINE
  5
1ca
100
AcDbEntity
  8
Capa_1
 62
7
100
AcDbSpline
 70
8
 71
3
 72
8
 73
4
 74
0
 40
0
 40
0
 40
0
 40
0
 40
1
 40
1
 40
1
 40
1
 10
1.526970
 20
2.380708
 30
0.0
 10
1.497802
 20
2.355576
 30
0.0
 10
1.467783
 20
2.331126
 30
0.0
 10
1.436912
 20
2.307357
 30
0.0
  0
SPLINE
  5
1cb
100
AcDbEntity
  8
Capa_1
 62
7
100
AcDbSpline
 70
8
 71
3
 72
8
 73
4
 74
0
 40
0
 40
0
 40
0
 40
0
 40
1
 40
1
 40
1
 40
1
 10
1.436912
 20
2.307357
 30
0.0
 10
1.406254
 20
2.283792
 30
0.0
 10
1.380918
 20
2.264585
 30
0.0
 10
1.360905
 20
2.249738
 30
0.0
  0
LWPOLYLINE
  5
1cc
100
AcDbEntity
  8
Capa_1
 62
7
100
AcDbPolyline
 90
3
 70
0
 10
1.375913
 20
2.603490
 30
0.0
 10
1.372722
 20
2.603490
 30
0.0
 10
1.385496
 20
2.671120
 30
0.0
  0
LWPOLYLINE
  5
1cd
100
AcDbEntity
  8
Capa_1
 62
7
100
AcDbPolyline
 90
3
 70
0
 10
1.360905
 20
2.249738
 30
0.0
 10
1.616390
 20
2.249738
 30
0.0
 10
1.604572
 20
2.195542
 30
0.0
  0
LWPOLYLINE
  5
1ce
100
AcDbEntity
  8
Capa_1
 62
7
100
AcDbPolyline
 90
8
 70
1
 10
0.726343
 20
0.489020
 30
0.0
 10
0.662153
 20
0.489020
 30
0.0
 10
0.646185
 20
0.628673
 30
0.0
 10
0.441159
 20
0.628673
 30
0.0
 10
0.363236
 20
0.489020
 30
0.0
 10
0.296490
 20
0.489020
 30
0.0
 10
0.579440
 20
0.985316
 30
0.0
 10
0.663111
 20
0.985316
 30
0.0
  0
SPLINE
  5
1cf
100
AcDbEntity
  8
Capa_1
 62
7
100
AcDbSpline
 70
8
 71
3
 72
8
 73
4
 74
0
 40
0
 40
0
 40
0
 40
0
 40
1
 40
1
 40
1
 40
1
 10
1.255835
 20
0.794991
 30
0.0
 10
1.255835
 20
0.740778
 30
0.0
 10
1.242635
 20
0.689449
 30
0.0
 10
1.216235
 20
0.641004
 30
0.0
  0
SPLINE
  5
1d0
100
AcDbEntity
  8
Capa_1
 62
7
100
AcDbSpline
 70
8
 71
3
 72
8
 73
4
 74
0
 40
0
 40
0
 40
0
 40
0
 40
1
 40
1
 40
1
 40
1
 10
1.216235
 20
0.641004
 30
0.0
 10
1.189835
 20
0.592580
 30
0.0
 10
1.153747
 20
0.555142
 30
0.0
 10
1.107973
 20
0.528689
 30
0.0
  0
SPLINE
  5
1d1
100
AcDbEntity
  8
Capa_1
 62
7
100
AcDbSpline
 70
8
 71
3
 72
8
 73
4
 74
0
 40
0
 40
0
 40
0
 40
0
 40
1
 40
1
 40
1
 40
1
 10
1.107973
 20
0.528689
 30
0.0
 10
1.079870
 20
0.512888
 30
0.0
 10
1.051128
 20
0.502331
 30
0.0
 10
1.021747
 20
0.497019
 30
0.0
  0
SPLINE
  5
1d2
100
AcDbEntity
  8
Capa_1
 62
7
100
AcDbSpline
 70
8
 71
3
 72
8
 73
4
 74
0
 40
0
 40
0
 40
0
 40
0
 40
1
 40
1
 40
1
 40
1
 10
1.021747
 20
0.497019
 30
0.0
 10
0.992367
 20
0.491570
 30
0.0
 10
0.959047
 20
0.488846
 30
0.0
 10
0.921789
 20
0.488846
 30
0.0
  0
LWPOLYLINE
  5
1d3
100
AcDbEntity
  8
Capa_1
 62
7
100
AcDbPolyline
 90
3
 70
1
 10
0.639159
 20
0.682675
 30
0.0
 10
0.609459
 20
0.927646
 30
0.0
 10
0.471497
 20
0.682675
 30
0.0
  0
SPLINE
  5
1d4
100
AcDbEntity
  8
Capa_1
 62
7
100
AcDbSpline
 70
8
 71
3
 72
8
 73
4
 74
0
 40
0
 40
0
 40
0
 40
0
 40
1
 40
1
 40
1
 40
1
 10
1.013764
 20
0.985142
 30
0.0
 10
1.048254
 20
0.985142
 30
0.0
 10
1.079658
 20
0.982418
 30
0.0
 10
1.107974
 20
0.976970
 30
0.0
  0
SPLINE
  5
1d5
100
AcDbEntity
  8
Capa_1
 62
7
100
AcDbSpline
 70
8
 71
3
 72
8
 73
4
 74
0
 40
0
 40
0
 40
0
 40
0
 40
1
 40
1
 40
1
 40
1
 10
1.107974
 20
0.976970
 30
0.0
 10
1.136503
 20
0.972202
 30
0.0
 10
1.162584
 20
0.961543
 30
0.0
 10
1.186217
 20
0.944993
 30
0.0
  0
SPLINE
  5
1d6
100
AcDbEntity
  8
Capa_1
 62
7
100
AcDbSpline
 70
8
 71
3
 72
8
 73
4
 74
0
 40
0
 40
0
 40
0
 40
0
 40
1
 40
1
 40
1
 40
1
 10
1.186217
 20
0.944993
 30
0.0
 10
1.208784
 20
0.929192
 30
0.0
 10
1.226030
 20
0.908522
 30
0.0
 10
1.237953
 20
0.882982
 30
0.0
  0
SPLINE
  5
1d7
100
AcDbEntity
  8
Capa_1
 62
7
100
AcDbSpline
 70
8
 71
3
 72
8
 73
4
 74
0
 40
0
 40
0
 40
0
 40
0
 40
1
 40
1
 40
1
 40
1
 10
1.237953
 20
0.882982
 30
0.0
 10
1.249875
 20
0.857646
 30
0.0
 10
1.255836
 20
0.828088
 30
0.0
 10
1.255836
 20
0.794306
 30
0.0
  0
LWPOLYLINE
  5
1d8
100
AcDbEntity
  8
Capa_1
 62
7
100
AcDbPolyline
 90
4
 70
0
 10
0.921789
 20
0.488846
 30
0.0
 10
0.793408
 20
0.488846
 30
0.0
 10
0.903267
 20
0.985142
 30
0.0
 10
1.013764
 20
0.985142
 30
0.0
  0
SPLINE
  5
1d9
100
AcDbEntity
  8
Capa_1
 62
7
100
AcDbSpline
 70
8
 71
3
 72
8
 73
4
 74
0
 40
0
 40
0
 40
0
 40
0
 40
1
 40
1
 40
1
 40
1
 10
1.189089
 20
0.788861
 30
0.0
 10
1.189089
 20
0.814197
 30
0.0
 10
1.184725
 20
0.835957
 30
0.0
 10
1.175996
 20
0.854142
 30
0.0
  0
SPLINE
  5
1da
100
AcDbEntity
  8
Capa_1
 62
7
100
AcDbSpline
 70
8
 71
3
 72
8
 73
4
 74
0
 40
0
 40
0
 40
0
 40
0
 40
1
 40
1
 40
1
 40
1
 10
1.175996
 20
0.854142
 30
0.0
 10
1.167480
 20
0.872599
 30
0.0
 10
1.154493
 20
0.887923
 30
0.0
 10
1.137035
 20
0.900114
 30
0.0
  0
SPLINE
  5
1db
100
AcDbEntity
  8
Capa_1
 62
7
100
AcDbSpline
 70
8
 71
3
 72
8
 73
4
 74
0
 40
0
 40
0
 40
0
 40
0
 40
1
 40
1
 40
1
 40
1
 10
1.137035
 20
0.900114
 30
0.0
 10
1.119790
 20
0.912101
 30
0.0
 10
1.101374
 20
0.920104
 30
0.0
 10
1.081787
 20
0.924122
 30
0.0
  0
SPLINE
  5
1dc
100
AcDbEntity
  8
Capa_1
 62
7
100
AcDbSpline
 70
8
 71
3
 72
8
 73
4
 74
0
 40
0
 40
0
 40
0
 40
0
 40
1
 40
1
 40
1
 40
1
 10
1.081787
 20
0.924122
 30
0.0
 10
1.062199
 20
0.928208
 30
0.0
 10
1.037396
 20
0.930252
 30
0.0
 10
1.007377
 20
0.930252
 30
0.0
  0
LWPOLYLINE
  5
1dd
100
AcDbEntity
  8
Capa_1
 62
7
100
AcDbPolyline
 90
2
 70
0
 10
1.255836
 20
0.794306
 30
0.0
 10
1.255835
 20
0.794991
 30
0.0
  0
SPLINE
  5
1de
100
AcDbEntity
  8
Capa_1
 62
7
100
AcDbSpline
 70
8
 71
3
 72
8
 73
4
 74
0
 40
0
 40
0
 40
0
 40
0
 40
1
 40
1
 40
1
 40
1
 10
0.934564
 20
0.542613
 30
0.0
 10
0.965009
 20
0.542613
 30
0.0
 10
0.992154
 20
0.544997
 30
0.0
 10
1.015999
 20
0.549764
 30
0.0
  0
SPLINE
  5
1df
100
AcDbEntity
  8
Capa_1
 62
7
100
AcDbSpline
 70
8
 71
3
 72
8
 73
4
 74
0
 40
0
 40
0
 40
0
 40
0
 40
1
 40
1
 40
1
 40
1
 10
1.015999
 20
0.549764
 30
0.0
 10
1.040058
 20
0.555213
 30
0.0
 10
1.062732
 20
0.564203
 30
0.0
 10
1.084022
 20
0.576735
 30
0.0
  0
SPLINE
  5
1e0
100
AcDbEntity
  8
Capa_1
 62
7
100
AcDbSpline
 70
8
 71
3
 72
8
 73
4
 74
0
 40
0
 40
0
 40
0
 40
0
 40
1
 40
1
 40
1
 40
1
 10
1.084022
 20
0.576735
 30
0.0
 10
1.118299
 20
0.597167
 30
0.0
 10
1.144380
 20
0.626623
 30
0.0
 10
1.162264
 20
0.665104
 30
0.0
  0
SPLINE
  5
1e1
100
AcDbEntity
  8
Capa_1
 62
7
100
AcDbSpline
 70
8
 71
3
 72
8
 73
4
 74
0
 40
0
 40
0
 40
0
 40
0
 40
1
 40
1
 40
1
 40
1
 10
1.162264
 20
0.665104
 30
0.0
 10
1.180148
 20
0.703789
 30
0.0
 10
1.189089
 20
0.744786
 30
0.0
 10
1.189089
 20
0.788095
 30
0.0
  0
LWPOLYLINE
  5
1e2
100
AcDbEntity
  8
Capa_1
 62
7
100
AcDbPolyline
 90
4
 70
0
 10
1.007377
 20
0.930252
 30
0.0
 10
0.954683
 20
0.930252
 30
0.0
 10
0.868457
 20
0.542613
 30
0.0
 10
0.934564
 20
0.542613
 30
0.0
  0
SPLINE
  5
1e3
100
AcDbEntity
  8
Capa_1
 62
7
100
AcDbSpline
 70
8
 71
3
 72
8
 73
4
 74
0
 40
0
 40
0
 40
0
 40
0
 40
1
 40
1
 40
1
 40
1
 10
1.575511
 20
0.532683
 30
0.0
 10
1.556775
 20
0.515588
 30
0.0
 10
1.535165
 20
0.502239
 30
0.0
 10
1.510681
 20
0.492636
 30
0.0
  0
SPLINE
  5
1e4
100
AcDbEntity
  8
Capa_1
 62
7
100
AcDbSpline
 70
8
 71
3
 72
8
 73
4
 74
0
 40
0
 40
0
 40
0
 40
0
 40
1
 40
1
 40
1
 40
1
 10
1.510681
 20
0.492636
 30
0.0
 10
1.486410
 20
0.483306
 30
0.0
 10
1.458200
 20
0.478640
 30
0.0
 10
1.426052
 20
0.478640
 30
0.0
  0
SPLINE
  5
1e5
100
AcDbEntity
  8
Capa_1
 62
7
100
AcDbSpline
 70
8
 71
3
 72
8
 73
4
 74
0
 40
0
 40
0
 40
0
 40
0
 40
1
 40
1
 40
1
 40
1
 10
1.426052
 20
0.478640
 30
0.0
 10
1.400290
 20
0.478640
 30
0.0
 10
1.375274
 20
0.482080
 30
0.0
 10
1.351003
 20
0.488958
 30
0.0
  0
SPLINE
  5
1e6
100
AcDbEntity
  8
Capa_1
 62
7
100
AcDbSpline
 70
8
 71
3
 72
8
 73
4
 74
0
 40
0
 40
0
 40
0
 40
0
 40
1
 40
1
 40
1
 40
1
 10
1.351003
 20
0.488958
 30
0.0
 10
1.326945
 20
0.495769
 30
0.0
 10
1.306613
 20
0.503772
 30
0.0
 10
1.290006
 20
0.512966
 30
0.0
  0
LWPOLYLINE
  5
1e7
100
AcDbEntity
  8
Capa_1
 62
7
100
AcDbPolyline
 90
2
 70
0
 10
1.189089
 20
0.788095
 30
0.0
 10
1.189089
 20
0.788861
 30
0.0
  0
SPLINE
  5
1e8
100
AcDbEntity
  8
Capa_1
 62
7
100
AcDbSpline
 70
8
 71
3
 72
8
 73
4
 74
0
 40
0
 40
0
 40
0
 40
0
 40
1
 40
1
 40
1
 40
1
 10
1.309802
 20
0.576919
 30
0.0
 10
1.324493
 20
0.565341
 30
0.0
 10
1.342909
 20
0.555227
 30
0.0
 10
1.365051
 20
0.546577
 30
0.0
  0
SPLINE
  5
1e9
100
AcDbEntity
  8
Capa_1
 62
7
100
AcDbSpline
 70
8
 71
3
 72
8
 73
4
 74
0
 40
0
 40
0
 40
0
 40
0
 40
1
 40
1
 40
1
 40
1
 10
1.365051
 20
0.546577
 30
0.0
 10
1.387193
 20
0.538132
 30
0.0
 10
1.410612
 20
0.533909
 30
0.0
 10
1.435309
 20
0.533909
 30
0.0
  0
SPLINE
  5
1ea
100
AcDbEntity
  8
Capa_1
 62
7
100
AcDbSpline
 70
8
 71
3
 72
8
 73
4
 74
0
 40
0
 40
0
 40
0
 40
0
 40
1
 40
1
 40
1
 40
1
 10
1.435309
 20
0.533909
 30
0.0
 10
1.473631
 20
0.533909
 30
0.0
 10
1.505035
 20
0.545794
 30
0.0
 10
1.529519
 20
0.569563
 30
0.0
  0
SPLINE
  5
1eb
100
AcDbEntity
  8
Capa_1
 62
7
100
AcDbSpline
 70
8
 71
3
 72
8
 73
4
 74
0
 40
0
 40
0
 40
0
 40
0
 40
1
 40
1
 40
1
 40
1
 10
1.529519
 20
0.569563
 30
0.0
 10
1.554003
 20
0.593333
 30
0.0
 10
1.566245
 20
0.624219
 30
0.0
 10
1.566245
 20
0.662223
 30
0.0
  0
SPLINE
  5
1ec
100
AcDbEntity
  8
Capa_1
 62
7
100
AcDbSpline
 70
8
 71
3
 72
8
 73
4
 74
0
 40
0
 40
0
 40
0
 40
0
 40
1
 40
1
 40
1
 40
1
 10
1.566245
 20
0.662223
 30
0.0
 10
1.566245
 20
0.685584
 30
0.0
 10
1.558474
 20
0.703019
 30
0.0
 10
1.542931
 20
0.714529
 30
0.0
  0
SPLINE
  5
1ed
100
AcDbEntity
  8
Capa_1
 62
7
100
AcDbSpline
 70
8
 71
3
 72
8
 73
4
 74
0
 40
0
 40
0
 40
0
 40
0
 40
1
 40
1
 40
1
 40
1
 10
1.542931
 20
0.714529
 30
0.0
 10
1.527389
 20
0.726107
 30
0.0
 10
1.503225
 20
0.731896
 30
0.0
 10
1.470438
 20
0.731896
 30
0.0
  0
LWPOLYLINE
  5
1ee
100
AcDbEntity
  8
Capa_1
 62
7
100
AcDbPolyline
 90
3
 70
0
 10
1.290006
 20
0.512966
 30
0.0
 10
1.305016
 20
0.576919
 30
0.0
 10
1.309802
 20
0.576919
 30
0.0
  0
SPLINE
  5
1ef
100
AcDbEntity
  8
Capa_1
 62
7
100
AcDbSpline
 70
8
 71
3
 72
8
 73
4
 74
0
 40
0
 40
0
 40
0
 40
0
 40
1
 40
1
 40
1
 40
1
 10
1.482893
 20
0.784918
 30
0.0
 10
1.518873
 20
0.784918
 30
0.0
 10
1.548360
 20
0.793465
 30
0.0
 10
1.571354
 20
0.810560
 30
0.0
  0
SPLINE
  5
1f0
100
AcDbEntity
  8
Capa_1
 62
7
100
AcDbSpline
 70
8
 71
3
 72
8
 73
4
 74
0
 40
0
 40
0
 40
0
 40
0
 40
1
 40
1
 40
1
 40
1
 10
1.571354
 20
0.810560
 30
0.0
 10
1.594348
 20
0.827859
 30
0.0
 10
1.605845
 20
0.851288
 30
0.0
 10
1.605845
 20
0.880847
 30
0.0
  0
SPLINE
  5
1f1
100
AcDbEntity
  8
Capa_1
 62
7
100
AcDbSpline
 70
8
 71
3
 72
8
 73
4
 74
0
 40
0
 40
0
 40
0
 40
0
 40
1
 40
1
 40
1
 40
1
 10
1.605845
 20
0.880847
 30
0.0
 10
1.605845
 20
0.899508
 30
0.0
 10
1.598926
 20
0.914049
 30
0.0
 10
1.585087
 20
0.924469
 30
0.0
  0
SPLINE
  5
1f2
100
AcDbEntity
  8
Capa_1
 62
7
100
AcDbSpline
 70
8
 71
3
 72
8
 73
4
 74
0
 40
0
 40
0
 40
0
 40
0
 40
1
 40
1
 40
1
 40
1
 10
1.585087
 20
0.924469
 30
0.0
 10
1.571461
 20
0.934890
 30
0.0
 10
1.551235
 20
0.940100
 30
0.0
 10
1.524409
 20
0.940100
 30
0.0
  0
SPLINE
  5
1f3
100
AcDbEntity
  8
Capa_1
 62
7
100
AcDbSpline
 70
8
 71
3
 72
8
 73
4
 74
0
 40
0
 40
0
 40
0
 40
0
 40
1
 40
1
 40
1
 40
1
 10
1.524409
 20
0.940100
 30
0.0
 10
1.502266
 20
0.940100
 30
0.0
 10
1.478634
 20
0.935877
 30
0.0
 10
1.453511
 20
0.927432
 30
0.0
  0
SPLINE
  5
1f4
100
AcDbEntity
  8
Capa_1
 62
7
100
AcDbSpline
 70
8
 71
3
 72
8
 73
4
 74
0
 40
0
 40
0
 40
0
 40
0
 40
1
 40
1
 40
1
 40
1
 10
1.453511
 20
0.927432
 30
0.0
 10
1.428389
 20
0.918987
 30
0.0
 10
1.406140
 20
0.908771
 30
0.0
 10
1.386766
 20
0.896784
 30
0.0
  0
LWPOLYLINE
  5
1f5
100
AcDbEntity
  8
Capa_1
 62
7
100
AcDbPolyline
 90
4
 70
0
 10
1.470438
 20
0.731896
 30
0.0
 10
1.440099
 20
0.731896
 30
0.0
 10
1.452554
 20
0.784918
 30
0.0
 10
1.482893
 20
0.784918
 30
0.0
  0
SPLINE
  5
1f6
100
AcDbEntity
  8
Capa_1
 62
7
100
AcDbSpline
 70
8
 71
3
 72
8
 73
4
 74
0
 40
0
 40
0
 40
0
 40
0
 40
1
 40
1
 40
1
 40
1
 10
1.397307
 20
0.964108
 30
0.0
 10
1.414339
 20
0.971872
 30
0.0
 10
1.435949
 20
0.978989
 30
0.0
 10
1.462136
 20
0.985459
 30
0.0
  0
SPLINE
  5
1f7
100
AcDbEntity
  8
Capa_1
 62
7
100
AcDbSpline
 70
8
 71
3
 72
8
 73
4
 74
0
 40
0
 40
0
 40
0
 40
0
 40
1
 40
1
 40
1
 40
1
 10
1.462136
 20
0.985459
 30
0.0
 10
1.488536
 20
0.992270
 30
0.0
 10
1.513553
 20
0.995675
 30
0.0
 10
1.537185
 20
0.995675
 30
0.0
  0
SPLINE
  5
1f8
100
AcDbEntity
  8
Capa_1
 62
7
100
AcDbSpline
 70
8
 71
3
 72
8
 73
4
 74
0
 40
0
 40
0
 40
0
 40
0
 40
1
 40
1
 40
1
 40
1
 10
1.537185
 20
0.995675
 30
0.0
 10
1.579126
 20
0.995675
 30
0.0
 10
1.612126
 20
0.986889
 30
0.0
 10
1.636185
 20
0.969318
 30
0.0
  0
SPLINE
  5
1f9
100
AcDbEntity
  8
Capa_1
 62
7
100
AcDbSpline
 70
8
 71
3
 72
8
 73
4
 74
0
 40
0
 40
0
 40
0
 40
0
 40
1
 40
1
 40
1
 40
1
 10
1.636185
 20
0.969318
 30
0.0
 10
1.660456
 20
0.951950
 30
0.0
 10
1.672591
 20
0.928181
 30
0.0
 10
1.672591
 20
0.898010
 30
0.0
  0
SPLINE
  5
1fa
100
AcDbEntity
  8
Capa_1
 62
7
100
AcDbSpline
 70
8
 71
3
 72
8
 73
4
 74
0
 40
0
 40
0
 40
0
 40
0
 40
1
 40
1
 40
1
 40
1
 10
1.672591
 20
0.898010
 30
0.0
 10
1.672591
 20
0.865114
 30
0.0
 10
1.660882
 20
0.835896
 30
0.0
 10
1.637462
 20
0.810356
 30
0.0
  0
SPLINE
  5
1fb
100
AcDbEntity
  8
Capa_1
 62
7
100
AcDbSpline
 70
8
 71
3
 72
8
 73
4
 74
0
 40
0
 40
0
 40
0
 40
0
 40
1
 40
1
 40
1
 40
1
 10
1.637462
 20
0.810356
 30
0.0
 10
1.614256
 20
0.785020
 30
0.0
 10
1.584875
 20
0.768913
 30
0.0
 10
1.549320
 20
0.762034
 30
0.0
  0
LWPOLYLINE
  5
1fc
100
AcDbEntity
  8
Capa_1
 62
7
100
AcDbPolyline
 90
3
 70
0
 10
1.386766
 20
0.896784
 30
0.0
 10
1.383575
 20
0.896784
 30
0.0
 10
1.397307
 20
0.964108
 30
0.0
  0
SPLINE
  5
1fd
100
AcDbEntity
  8
Capa_1
 62
7
100
AcDbSpline
 70
8
 71
3
 72
8
 73
4
 74
0
 40
0
 40
0
 40
0
 40
0
 40
1
 40
1
 40
1
 40
1
 10
1.549320
 20
0.758969
 30
0.0
 10
1.557623
 20
0.756926
 30
0.0
 10
1.566778
 20
0.753520
 30
0.0
 10
1.576784
 20
0.748753
 30
0.0
  0
SPLINE
  5
1fe
100
AcDbEntity
  8
Capa_1
 62
7
100
AcDbSpline
 70
8
 71
3
 72
8
 73
4
 74
0
 40
0
 40
0
 40
0
 40
0
 40
1
 40
1
 40
1
 40
1
 10
1.576784
 20
0.748753
 30
0.0
 10
1.587003
 20
0.743985
 30
0.0
 10
1.595945
 20
0.737992
 30
0.0
 10
1.603610
 20
0.730773
 30
0.0
  0
SPLINE
  5
1ff
100
AcDbEntity
  8
Capa_1
 62
7
100
AcDbSpline
 70
8
 71
3
 72
8
 73
4
 74
0
 40
0
 40
0
 40
0
 40
0
 40
1
 40
1
 40
1
 40
1
 10
1.603610
 20
0.730773
 30
0.0
 10
1.611700
 20
0.723213
 30
0.0
 10
1.618407
 20
0.713644
 30
0.0
 10
1.623729
 20
0.702066
 30
0.0
  0
SPLINE
  5
200
100
AcDbEntity
  8
Capa_1
 62
7
100
AcDbSpline
 70
8
 71
3
 72
8
 73
4
 74
0
 40
0
 40
0
 40
0
 40
0
 40
1
 40
1
 40
1
 40
1
 10
1.623729
 20
0.702066
 30
0.0
 10
1.629263
 20
0.690487
 30
0.0
 10
1.632030
 20
0.676832
 30
0.0
 10
1.632030
 20
0.661099
 30
0.0
  0
SPLINE
  5
201
100
AcDbEntity
  8
Capa_1
 62
7
100
AcDbSpline
 70
8
 71
3
 72
8
 73
4
 74
0
 40
0
 40
0
 40
0
 40
0
 40
1
 40
1
 40
1
 40
1
 10
1.632030
 20
0.661099
 30
0.0
 10
1.632030
 20
0.636853
 30
0.0
 10
1.627026
 20
0.613424
 30
0.0
 10
1.617020
 20
0.590813
 30
0.0
  0
SPLINE
  5
202
100
AcDbEntity
  8
Capa_1
 62
7
100
AcDbSpline
 70
8
 71
3
 72
8
 73
4
 74
0
 40
0
 40
0
 40
0
 40
0
 40
1
 40
1
 40
1
 40
1
 10
1.617020
 20
0.590813
 30
0.0
 10
1.607013
 20
0.568337
 30
0.0
 10
1.593175
 20
0.548995
 30
0.0
 10
1.575504
 20
0.532785
 30
0.0
  0
LWPOLYLINE
  5
203
100
AcDbEntity
  8
Capa_1
 62
7
100
AcDbPolyline
 90
2
 70
0
 10
1.549320
 20
0.762034
 30
0.0
 10
1.549320
 20
0.758969
 30
0.0
  0
LWPOLYLINE
  5
204
100
AcDbEntity
  8
Capa_1
 62
7
100
AcDbPolyline
 90
2
 70
0
 10
1.575504
 20
0.532785
 30
0.0
 10
1.575511
 20
0.532683
 30
0.0
  0
LWPOLYLINE
  5
205
100
AcDbEntity
  8
Capa_1
 62
7
100
AcDbPolyline
 90
4
 70
1
 10
1.968679
 20
10.918030
 30
0.0
 10
3.844433
 20
10.918030
 30
0.0
 10
3.844433
 20
1.042276
 30
0.0
 10
1.968679
 20
1.042276
 30
0.0
  0
SPLINE
  5
206
100
AcDbEntity
  8
Capa_1
 62
7
100
AcDbSpline
 70
8
 71
3
 72
8
 73
4
 74
0
 40
0
 40
0
 40
0
 40
0
 40
1
 40
1
 40
1
 40
1
 10
3.005268
 20
10.322410
 30
0.0
 10
3.005268
 20
10.279299
 30
0.0
 10
2.998988
 20
10.237747
 30
0.0
 10
2.986426
 20
10.197754
 30
0.0
  0
SPLINE
  5
207
100
AcDbEntity
  8
Capa_1
 62
7
100
AcDbSpline
 70
8
 71
3
 72
8
 73
4
 74
0
 40
0
 40
0
 40
0
 40
0
 40
1
 40
1
 40
1
 40
1
 10
2.986426
 20
10.197754
 30
0.0
 10
2.974078
 20
10.157775
 30
0.0
 10
2.956087
 20
10.122557
 30
0.0
 10
2.932455
 20
10.092099
 30
0.0
  0
SPLINE
  5
208
100
AcDbEntity
  8
Capa_1
 62
7
100
AcDbSpline
 70
8
 71
3
 72
8
 73
4
 74
0
 40
0
 40
0
 40
0
 40
0
 40
1
 40
1
 40
1
 40
1
 10
2.932455
 20
10.092099
 30
0.0
 10
2.908184
 20
10.060770
 30
0.0
 10
2.879017
 20
10.036115
 30
0.0
 10
2.844952
 20
10.018135
 30
0.0
  0
SPLINE
  5
209
100
AcDbEntity
  8
Capa_1
 62
7
100
AcDbSpline
 70
8
 71
3
 72
8
 73
4
 74
0
 40
0
 40
0
 40
0
 40
0
 40
1
 40
1
 40
1
 40
1
 10
2.844952
 20
10.018135
 30
0.0
 10
2.810887
 20
10.000359
 30
0.0
 10
2.772458
 20
9.991471
 30
0.0
 10
2.729665
 20
9.991471
 30
0.0
  0
SPLINE
  5
20a
100
AcDbEntity
  8
Capa_1
 62
7
100
AcDbSpline
 70
8
 71
3
 72
8
 73
4
 74
0
 40
0
 40
0
 40
0
 40
0
 40
1
 40
1
 40
1
 40
1
 10
2.729665
 20
9.991471
 30
0.0
 10
2.673032
 20
9.991471
 30
0.0
 10
2.628748
 20
10.007579
 30
0.0
 10
2.596813
 20
10.039793
 30
0.0
  0
SPLINE
  5
20b
100
AcDbEntity
  8
Capa_1
 62
7
100
AcDbSpline
 70
8
 71
3
 72
8
 73
4
 74
0
 40
0
 40
0
 40
0
 40
0
 40
1
 40
1
 40
1
 40
1
 10
2.596813
 20
10.039793
 30
0.0
 10
2.564877
 20
10.072212
 30
0.0
 10
2.548910
 20
10.118208
 30
0.0
 10
2.548910
 20
10.177782
 30
0.0
  0
SPLINE
  5
20c
100
AcDbEntity
  8
Capa_1
 62
7
100
AcDbSpline
 70
8
 71
3
 72
8
 73
4
 74
0
 40
0
 40
0
 40
0
 40
0
 40
1
 40
1
 40
1
 40
1
 10
2.548910
 20
10.177782
 30
0.0
 10
2.548910
 20
10.223141
 30
0.0
 10
2.555297
 20
10.265469
 30
0.0
 10
2.568071
 20
10.304767
 30
0.0
  0
SPLINE
  5
20d
100
AcDbEntity
  8
Capa_1
 62
7
100
AcDbSpline
 70
8
 71
3
 72
8
 73
4
 74
0
 40
0
 40
0
 40
0
 40
0
 40
1
 40
1
 40
1
 40
1
 10
2.568071
 20
10.304767
 30
0.0
 10
2.580845
 20
10.344065
 30
0.0
 10
2.599261
 20
10.379174
 30
0.0
 10
2.623319
 20
10.410095
 30
0.0
  0
SPLINE
  5
20e
100
AcDbEntity
  8
Capa_1
 62
7
100
AcDbSpline
 70
8
 71
3
 72
8
 73
4
 74
0
 40
0
 40
0
 40
0
 40
0
 40
1
 40
1
 40
1
 40
1
 10
2.623319
 20
10.410095
 30
0.0
 10
2.646738
 20
10.439858
 30
0.0
 10
2.675693
 20
10.463627
 30
0.0
 10
2.710184
 20
10.481403
 30
0.0
  0
SPLINE
  5
20f
100
AcDbEntity
  8
Capa_1
 62
7
100
AcDbSpline
 70
8
 71
3
 72
8
 73
4
 74
0
 40
0
 40
0
 40
0
 40
0
 40
1
 40
1
 40
1
 40
1
 10
2.710184
 20
10.481403
 30
0.0
 10
2.744888
 20
10.499383
 30
0.0
 10
2.782891
 20
10.508373
 30
0.0
 10
2.824194
 20
10.508373
 30
0.0
  0
SPLINE
  5
210
100
AcDbEntity
  8
Capa_1
 62
7
100
AcDbSpline
 70
8
 71
3
 72
8
 73
4
 74
0
 40
0
 40
0
 40
0
 40
0
 40
1
 40
1
 40
1
 40
1
 10
2.824194
 20
10.508373
 30
0.0
 10
2.880614
 20
10.508373
 30
0.0
 10
2.924898
 20
10.492266
 30
0.0
 10
2.957046
 20
10.460051
 30
0.0
  0
SPLINE
  5
211
100
AcDbEntity
  8
Capa_1
 62
7
100
AcDbSpline
 70
8
 71
3
 72
8
 73
4
 74
0
 40
0
 40
0
 40
0
 40
0
 40
1
 40
1
 40
1
 40
1
 10
2.957046
 20
10.460051
 30
0.0
 10
2.989195
 20
10.428041
 30
0.0
 10
3.005269
 20
10.382154
 30
0.0
 10
3.005269
 20
10.322390
 30
0.0
  0
LWPOLYLINE
  5
212
100
AcDbEntity
  8
Capa_1
 62
7
100
AcDbPolyline
 90
12
 70
1
 10
2.420847
 20
10.001769
 30
0.0
 10
2.232427
 20
10.001769
 30
0.0
 10
2.242965
 20
10.050091
 30
0.0
 10
2.305240
 20
10.050091
 30
0.0
 10
2.394021
 20
10.449723
 30
0.0
 10
2.331746
 20
10.449723
 30
0.0
 10
2.342284
 20
10.498045
 30
0.0
 10
2.530705
 20
10.498045
 30
0.0
 10
2.520165
 20
10.449723
 30
0.0
 10
2.457891
 20
10.449723
 30
0.0
 10
2.369110
 20
10.050091
 30
0.0
 10
2.431384
 20
10.050091
 30
0.0
  0
SPLINE
  5
213
100
AcDbEntity
  8
Capa_1
 62
7
100
AcDbSpline
 70
8
 71
3
 72
8
 73
4
 74
0
 40
0
 40
0
 40
0
 40
0
 40
1
 40
1
 40
1
 40
1
 10
2.884232
 20
10.125097
 30
0.0
 10
2.902116
 20
10.150433
 30
0.0
 10
2.915636
 20
10.178664
 30
0.0
 10
2.924791
 20
10.209789
 30
0.0
  0
SPLINE
  5
214
100
AcDbEntity
  8
Capa_1
 62
7
100
AcDbSpline
 70
8
 71
3
 72
8
 73
4
 74
0
 40
0
 40
0
 40
0
 40
0
 40
1
 40
1
 40
1
 40
1
 10
2.924791
 20
10.209789
 30
0.0
 10
2.933946
 20
10.241118
 30
0.0
 10
2.938523
 20
10.275560
 30
0.0
 10
2.938523
 20
10.313114
 30
0.0
  0
SPLINE
  5
215
100
AcDbEntity
  8
Capa_1
 62
7
100
AcDbSpline
 70
8
 71
3
 72
8
 73
4
 74
0
 40
0
 40
0
 40
0
 40
0
 40
1
 40
1
 40
1
 40
1
 10
2.938523
 20
10.313114
 30
0.0
 10
2.938523
 20
10.358473
 30
0.0
 10
2.927559
 20
10.393249
 30
0.0
 10
2.905630
 20
10.417440
 30
0.0
  0
SPLINE
  5
216
100
AcDbEntity
  8
Capa_1
 62
7
100
AcDbSpline
 70
8
 71
3
 72
8
 73
4
 74
0
 40
0
 40
0
 40
0
 40
0
 40
1
 40
1
 40
1
 40
1
 10
2.905630
 20
10.417440
 30
0.0
 10
2.883914
 20
10.441891
 30
0.0
 10
2.853469
 20
10.454116
 30
0.0
 10
2.814294
 20
10.454116
 30
0.0
  0
SPLINE
  5
217
100
AcDbEntity
  8
Capa_1
 62
7
100
AcDbSpline
 70
8
 71
3
 72
8
 73
4
 74
0
 40
0
 40
0
 40
0
 40
0
 40
1
 40
1
 40
1
 40
1
 10
2.814294
 20
10.454116
 30
0.0
 10
2.783849
 20
10.454116
 30
0.0
 10
2.756384
 20
10.446794
 30
0.0
 10
2.731901
 20
10.432151
 30
0.0
  0
SPLINE
  5
218
100
AcDbEntity
  8
Capa_1
 62
7
100
AcDbSpline
 70
8
 71
3
 72
8
 73
4
 74
0
 40
0
 40
0
 40
0
 40
0
 40
1
 40
1
 40
1
 40
1
 10
2.731901
 20
10.432151
 30
0.0
 10
2.707417
 20
10.417713
 30
0.0
 10
2.686339
 20
10.398064
 30
0.0
 10
2.668668
 20
10.373205
 30
0.0
  0
SPLINE
  5
219
100
AcDbEntity
  8
Capa_1
 62
7
100
AcDbSpline
 70
8
 71
3
 72
8
 73
4
 74
0
 40
0
 40
0
 40
0
 40
0
 40
1
 40
1
 40
1
 40
1
 10
2.668668
 20
10.373205
 30
0.0
 10
2.651636
 20
10.348754
 30
0.0
 10
2.638542
 20
10.320320
 30
0.0
 10
2.629388
 20
10.287901
 30
0.0
  0
SPLINE
  5
21a
100
AcDbEntity
  8
Capa_1
 62
7
100
AcDbSpline
 70
8
 71
3
 72
8
 73
4
 74
0
 40
0
 40
0
 40
0
 40
0
 40
1
 40
1
 40
1
 40
1
 10
2.629388
 20
10.287901
 30
0.0
 10
2.620233
 20
10.255686
 30
0.0
 10
2.615655
 20
10.222484
 30
0.0
 10
2.615655
 20
10.188294
 30
0.0
  0
SPLINE
  5
21b
100
AcDbEntity
  8
Capa_1
 62
7
100
AcDbSpline
 70
8
 71
3
 72
8
 73
4
 74
0
 40
0
 40
0
 40
0
 40
0
 40
1
 40
1
 40
1
 40
1
 10
2.615655
 20
10.188294
 30
0.0
 10
2.615655
 20
10.142526
 30
0.0
 10
2.626513
 20
10.107308
 30
0.0
 10
2.648230
 20
10.082639
 30
0.0
  0
SPLINE
  5
21c
100
AcDbEntity
  8
Capa_1
 62
7
100
AcDbSpline
 70
8
 71
3
 72
8
 73
4
 74
0
 40
0
 40
0
 40
0
 40
0
 40
1
 40
1
 40
1
 40
1
 10
2.648230
 20
10.082639
 30
0.0
 10
2.670158
 20
10.058189
 30
0.0
 10
2.700817
 20
10.045964
 30
0.0
 10
2.740204
 20
10.045964
 30
0.0
  0
SPLINE
  5
21d
100
AcDbEntity
  8
Capa_1
 62
7
100
AcDbSpline
 70
8
 71
3
 72
8
 73
4
 74
0
 40
0
 40
0
 40
0
 40
0
 40
1
 40
1
 40
1
 40
1
 10
2.740204
 20
10.045964
 30
0.0
 10
2.770224
 20
10.045964
 30
0.0
 10
2.797475
 20
10.053183
 30
0.0
 10
2.821959
 20
10.067622
 30
0.0
  0
SPLINE
  5
21e
100
AcDbEntity
  8
Capa_1
 62
7
100
AcDbSpline
 70
8
 71
3
 72
8
 73
4
 74
0
 40
0
 40
0
 40
0
 40
0
 40
1
 40
1
 40
1
 40
1
 10
2.821959
 20
10.067622
 30
0.0
 10
2.846656
 20
10.082061
 30
0.0
 10
2.867414
 20
10.101267
 30
0.0
 10
2.884233
 20
10.125240
 30
0.0
  0
LWPOLYLINE
  5
21f
100
AcDbEntity
  8
Capa_1
 62
7
100
AcDbPolyline
 90
1
 70
1
 10
3.005269
 20
10.322390
 30
0.0
  0
LWPOLYLINE
  5
220
100
AcDbEntity
  8
Capa_1
 62
7
100
AcDbPolyline
 90
2
 70
0
 10
2.884233
 20
10.125240
 30
0.0
 10
2.884232
 20
10.125097
 30
0.0
  0
SPLINE
  5
221
100
AcDbEntity
  8
Capa_1
 62
7
100
AcDbSpline
 70
8
 71
3
 72
8
 73
4
 74
0
 40
0
 40
0
 40
0
 40
0
 40
1
 40
1
 40
1
 40
1
 10
3.163987
 20
10.430404
 30
0.0
 10
3.200819
 20
10.430404
 30
0.0
 10
3.229348
 20
10.435751
 30
0.0
 10
3.249574
 20
10.446444
 30
0.0
  0
SPLINE
  5
222
100
AcDbEntity
  8
Capa_1
 62
7
100
AcDbSpline
 70
8
 71
3
 72
8
 73
4
 74
0
 40
0
 40
0
 40
0
 40
0
 40
1
 40
1
 40
1
 40
1
 10
3.249574
 20
10.446444
 30
0.0
 10
3.270013
 20
10.457341
 30
0.0
 10
3.283639
 20
10.475117
 30
0.0
 10
3.290452
 20
10.499772
 30
0.0
  0
LWPOLYLINE
  5
223
100
AcDbEntity
  8
Capa_1
 62
7
100
AcDbPolyline
 90
7
 70
0
 10
3.328456
 20
10.001769
 30
0.0
 10
3.070417
 20
10.001769
 30
0.0
 10
3.081275
 20
10.050091
 30
0.0
 10
3.178998
 20
10.050091
 30
0.0
 10
3.253727
 20
10.387395
 30
0.0
 10
3.154727
 20
10.387395
 30
0.0
 10
3.163987
 20
10.430404
 30
0.0
  0
LWPOLYLINE
  5
224
100
AcDbEntity
  8
Capa_1
 62
7
100
AcDbPolyline
 90
5
 70
0
 10
3.290452
 20
10.499772
 30
0.0
 10
3.340272
 20
10.499772
 30
0.0
 10
3.240952
 20
10.050142
 30
0.0
 10
3.339314
 20
10.050142
 30
0.0
 10
3.328456
 20
10.001769
 30
0.0
  0
SPLINE
  5
225
100
AcDbEntity
  8
Capa_1
 62
7
100
AcDbSpline
 70
8
 71
3
 72
8
 73
4
 74
0
 40
0
 40
0
 40
0
 40
0
 40
1
 40
1
 40
1
 40
1
 10
3.005268
 20
8.615888
 30
0.0
 10
3.005268
 20
8.572777
 30
0.0
 10
2.998988
 20
8.531225
 30
0.0
 10
2.986426
 20
8.491232
 30
0.0
  0
SPLINE
  5
226
100
AcDbEntity
  8
Capa_1
 62
7
100
AcDbSpline
 70
8
 71
3
 72
8
 73
4
 74
0
 40
0
 40
0
 40
0
 40
0
 40
1
 40
1
 40
1
 40
1
 10
2.986426
 20
8.491232
 30
0.0
 10
2.974078
 20
8.451253
 30
0.0
 10
2.956087
 20
8.416035
 30
0.0
 10
2.932455
 20
8.385578
 30
0.0
  0
SPLINE
  5
227
100
AcDbEntity
  8
Capa_1
 62
7
100
AcDbSpline
 70
8
 71
3
 72
8
 73
4
 74
0
 40
0
 40
0
 40
0
 40
0
 40
1
 40
1
 40
1
 40
1
 10
2.932455
 20
8.385578
 30
0.0
 10
2.908184
 20
8.354248
 30
0.0
 10
2.879017
 20
8.329593
 30
0.0
 10
2.844952
 20
8.311613
 30
0.0
  0
SPLINE
  5
228
100
AcDbEntity
  8
Capa_1
 62
7
100
AcDbSpline
 70
8
 71
3
 72
8
 73
4
 74
0
 40
0
 40
0
 40
0
 40
0
 40
1
 40
1
 40
1
 40
1
 10
2.844952
 20
8.311613
 30
0.0
 10
2.810887
 20
8.293837
 30
0.0
 10
2.772458
 20
8.284949
 30
0.0
 10
2.729665
 20
8.284949
 30
0.0
  0
SPLINE
  5
229
100
AcDbEntity
  8
Capa_1
 62
7
100
AcDbSpline
 70
8
 71
3
 72
8
 73
4
 74
0
 40
0
 40
0
 40
0
 40
0
 40
1
 40
1
 40
1
 40
1
 10
2.729665
 20
8.284949
 30
0.0
 10
2.673032
 20
8.284949
 30
0.0
 10
2.628748
 20
8.301057
 30
0.0
 10
2.596813
 20
8.333271
 30
0.0
  0
SPLINE
  5
22a
100
AcDbEntity
  8
Capa_1
 62
7
100
AcDbSpline
 70
8
 71
3
 72
8
 73
4
 74
0
 40
0
 40
0
 40
0
 40
0
 40
1
 40
1
 40
1
 40
1
 10
2.596813
 20
8.333271
 30
0.0
 10
2.564877
 20
8.365690
 30
0.0
 10
2.548910
 20
8.411686
 30
0.0
 10
2.548910
 20
8.471260
 30
0.0
  0
SPLINE
  5
22b
100
AcDbEntity
  8
Capa_1
 62
7
100
AcDbSpline
 70
8
 71
3
 72
8
 73
4
 74
0
 40
0
 40
0
 40
0
 40
0
 40
1
 40
1
 40
1
 40
1
 10
2.548910
 20
8.471260
 30
0.0
 10
2.548910
 20
8.516619
 30
0.0
 10
2.555297
 20
8.558948
 30
0.0
 10
2.568071
 20
8.598245
 30
0.0
  0
SPLINE
  5
22c
100
AcDbEntity
  8
Capa_1
 62
7
100
AcDbSpline
 70
8
 71
3
 72
8
 73
4
 74
0
 40
0
 40
0
 40
0
 40
0
 40
1
 40
1
 40
1
 40
1
 10
2.568071
 20
8.598245
 30
0.0
 10
2.580845
 20
8.637543
 30
0.0
 10
2.599261
 20
8.672652
 30
0.0
 10
2.623319
 20
8.703573
 30
0.0
  0
SPLINE
  5
22d
100
AcDbEntity
  8
Capa_1
 62
7
100
AcDbSpline
 70
8
 71
3
 72
8
 73
4
 74
0
 40
0
 40
0
 40
0
 40
0
 40
1
 40
1
 40
1
 40
1
 10
2.623319
 20
8.703573
 30
0.0
 10
2.646738
 20
8.733336
 30
0.0
 10
2.675693
 20
8.757105
 30
0.0
 10
2.710184
 20
8.774881
 30
0.0
  0
SPLINE
  5
22e
100
AcDbEntity
  8
Capa_1
 62
7
100
AcDbSpline
 70
8
 71
3
 72
8
 73
4
 74
0
 40
0
 40
0
 40
0
 40
0
 40
1
 40
1
 40
1
 40
1
 10
2.710184
 20
8.774881
 30
0.0
 10
2.744888
 20
8.792861
 30
0.0
 10
2.782891
 20
8.801851
 30
0.0
 10
2.824194
 20
8.801851
 30
0.0
  0
SPLINE
  5
22f
100
AcDbEntity
  8
Capa_1
 62
7
100
AcDbSpline
 70
8
 71
3
 72
8
 73
4
 74
0
 40
0
 40
0
 40
0
 40
0
 40
1
 40
1
 40
1
 40
1
 10
2.824194
 20
8.801851
 30
0.0
 10
2.880614
 20
8.801851
 30
0.0
 10
2.924898
 20
8.785744
 30
0.0
 10
2.957046
 20
8.753529
 30
0.0
  0
SPLINE
  5
230
100
AcDbEntity
  8
Capa_1
 62
7
100
AcDbSpline
 70
8
 71
3
 72
8
 73
4
 74
0
 40
0
 40
0
 40
0
 40
0
 40
1
 40
1
 40
1
 40
1
 10
2.957046
 20
8.753529
 30
0.0
 10
2.989195
 20
8.721519
 30
0.0
 10
3.005269
 20
8.675632
 30
0.0
 10
3.005269
 20
8.615868
 30
0.0
  0
LWPOLYLINE
  5
231
100
AcDbEntity
  8
Capa_1
 62
7
100
AcDbPolyline
 90
12
 70
1
 10
2.420847
 20
8.295247
 30
0.0
 10
2.232427
 20
8.295247
 30
0.0
 10
2.242965
 20
8.343569
 30
0.0
 10
2.305240
 20
8.343569
 30
0.0
 10
2.394021
 20
8.743201
 30
0.0
 10
2.331746
 20
8.743201
 30
0.0
 10
2.342284
 20
8.791523
 30
0.0
 10
2.530705
 20
8.791523
 30
0.0
 10
2.520165
 20
8.743201
 30
0.0
 10
2.457891
 20
8.743201
 30
0.0
 10
2.369110
 20
8.343569
 30
0.0
 10
2.431384
 20
8.343569
 30
0.0
  0
SPLINE
  5
232
100
AcDbEntity
  8
Capa_1
 62
7
100
AcDbSpline
 70
8
 71
3
 72
8
 73
4
 74
0
 40
0
 40
0
 40
0
 40
0
 40
1
 40
1
 40
1
 40
1
 10
2.884232
 20
8.418575
 30
0.0
 10
2.902116
 20
8.443911
 30
0.0
 10
2.915636
 20
8.472142
 30
0.0
 10
2.924791
 20
8.503267
 30
0.0
  0
SPLINE
  5
233
100
AcDbEntity
  8
Capa_1
 62
7
100
AcDbSpline
 70
8
 71
3
 72
8
 73
4
 74
0
 40
0
 40
0
 40
0
 40
0
 40
1
 40
1
 40
1
 40
1
 10
2.924791
 20
8.503267
 30
0.0
 10
2.933946
 20
8.534596
 30
0.0
 10
2.938523
 20
8.569038
 30
0.0
 10
2.938523
 20
8.606592
 30
0.0
  0
SPLINE
  5
234
100
AcDbEntity
  8
Capa_1
 62
7
100
AcDbSpline
 70
8
 71
3
 72
8
 73
4
 74
0
 40
0
 40
0
 40
0
 40
0
 40
1
 40
1
 40
1
 40
1
 10
2.938523
 20
8.606592
 30
0.0
 10
2.938523
 20
8.651951
 30
0.0
 10
2.927559
 20
8.686727
 30
0.0
 10
2.905630
 20
8.710918
 30
0.0
  0
SPLINE
  5
235
100
AcDbEntity
  8
Capa_1
 62
7
100
AcDbSpline
 70
8
 71
3
 72
8
 73
4
 74
0
 40
0
 40
0
 40
0
 40
0
 40
1
 40
1
 40
1
 40
1
 10
2.905630
 20
8.710918
 30
0.0
 10
2.883914
 20
8.735369
 30
0.0
 10
2.853469
 20
8.747594
 30
0.0
 10
2.814294
 20
8.747594
 30
0.0
  0
SPLINE
  5
236
100
AcDbEntity
  8
Capa_1
 62
7
100
AcDbSpline
 70
8
 71
3
 72
8
 73
4
 74
0
 40
0
 40
0
 40
0
 40
0
 40
1
 40
1
 40
1
 40
1
 10
2.814294
 20
8.747594
 30
0.0
 10
2.783849
 20
8.747594
 30
0.0
 10
2.756384
 20
8.740272
 30
0.0
 10
2.731901
 20
8.725629
 30
0.0
  0
SPLINE
  5
237
100
AcDbEntity
  8
Capa_1
 62
7
100
AcDbSpline
 70
8
 71
3
 72
8
 73
4
 74
0
 40
0
 40
0
 40
0
 40
0
 40
1
 40
1
 40
1
 40
1
 10
2.731901
 20
8.725629
 30
0.0
 10
2.707417
 20
8.711191
 30
0.0
 10
2.686339
 20
8.691542
 30
0.0
 10
2.668668
 20
8.666683
 30
0.0
  0
SPLINE
  5
238
100
AcDbEntity
  8
Capa_1
 62
7
100
AcDbSpline
 70
8
 71
3
 72
8
 73
4
 74
0
 40
0
 40
0
 40
0
 40
0
 40
1
 40
1
 40
1
 40
1
 10
2.668668
 20
8.666683
 30
0.0
 10
2.651636
 20
8.642232
 30
0.0
 10
2.638542
 20
8.613798
 30
0.0
 10
2.629388
 20
8.581379
 30
0.0
  0
SPLINE
  5
239
100
AcDbEntity
  8
Capa_1
 62
7
100
AcDbSpline
 70
8
 71
3
 72
8
 73
4
 74
0
 40
0
 40
0
 40
0
 40
0
 40
1
 40
1
 40
1
 40
1
 10
2.629388
 20
8.581379
 30
0.0
 10
2.620233
 20
8.549164
 30
0.0
 10
2.615655
 20
8.515928
 30
0.0
 10
2.615655
 20
8.481670
 30
0.0
  0
SPLINE
  5
23a
100
AcDbEntity
  8
Capa_1
 62
7
100
AcDbSpline
 70
8
 71
3
 72
8
 73
4
 74
0
 40
0
 40
0
 40
0
 40
0
 40
1
 40
1
 40
1
 40
1
 10
2.615655
 20
8.481670
 30
0.0
 10
2.615655
 20
8.435902
 30
0.0
 10
2.626513
 20
8.400684
 30
0.0
 10
2.648230
 20
8.376015
 30
0.0
  0
SPLINE
  5
23b
100
AcDbEntity
  8
Capa_1
 62
7
100
AcDbSpline
 70
8
 71
3
 72
8
 73
4
 74
0
 40
0
 40
0
 40
0
 40
0
 40
1
 40
1
 40
1
 40
1
 10
2.648230
 20
8.376015
 30
0.0
 10
2.670158
 20
8.351565
 30
0.0
 10
2.700817
 20
8.339340
 30
0.0
 10
2.740204
 20
8.339340
 30
0.0
  0
SPLINE
  5
23c
100
AcDbEntity
  8
Capa_1
 62
7
100
AcDbSpline
 70
8
 71
3
 72
8
 73
4
 74
0
 40
0
 40
0
 40
0
 40
0
 40
1
 40
1
 40
1
 40
1
 10
2.740204
 20
8.339340
 30
0.0
 10
2.770224
 20
8.339340
 30
0.0
 10
2.797475
 20
8.346559
 30
0.0
 10
2.821959
 20
8.360998
 30
0.0
  0
SPLINE
  5
23d
100
AcDbEntity
  8
Capa_1
 62
7
100
AcDbSpline
 70
8
 71
3
 72
8
 73
4
 74
0
 40
0
 40
0
 40
0
 40
0
 40
1
 40
1
 40
1
 40
1
 10
2.821959
 20
8.360998
 30
0.0
 10
2.846656
 20
8.375436
 30
0.0
 10
2.867414
 20
8.394643
 30
0.0
 10
2.884233
 20
8.418616
 30
0.0
  0
LWPOLYLINE
  5
23e
100
AcDbEntity
  8
Capa_1
 62
7
100
AcDbPolyline
 90
1
 70
1
 10
3.005269
 20
8.615868
 30
0.0
  0
LWPOLYLINE
  5
23f
100
AcDbEntity
  8
Capa_1
 62
7
100
AcDbPolyline
 90
1
 70
1
 10
2.884233
 20
8.418616
 30
0.0
  0
SPLINE
  5
240
100
AcDbEntity
  8
Capa_1
 62
7
100
AcDbSpline
 70
8
 71
3
 72
8
 73
4
 74
0
 40
0
 40
0
 40
0
 40
0
 40
1
 40
1
 40
1
 40
1
 10
3.046784
 20
8.364921
 30
0.0
 10
3.076804
 20
8.387805
 30
0.0
 10
3.102246
 20
8.407249
 30
0.0
 10
3.123110
 20
8.423254
 30
0.0
  0
SPLINE
  5
241
100
AcDbEntity
  8
Capa_1
 62
7
100
AcDbSpline
 70
8
 71
3
 72
8
 73
4
 74
0
 40
0
 40
0
 40
0
 40
0
 40
1
 40
1
 40
1
 40
1
 10
3.123110
 20
8.423254
 30
0.0
 10
3.144188
 20
8.439464
 30
0.0
 10
3.169523
 20
8.459896
 30
0.0
 10
3.199117
 20
8.484551
 30
0.0
  0
SPLINE
  5
242
100
AcDbEntity
  8
Capa_1
 62
7
100
AcDbSpline
 70
8
 71
3
 72
8
 73
4
 74
0
 40
0
 40
0
 40
0
 40
0
 40
1
 40
1
 40
1
 40
1
 10
3.199117
 20
8.484551
 30
0.0
 10
3.251066
 20
8.527867
 30
0.0
 10
3.287685
 20
8.564308
 30
0.0
 10
3.308975
 20
8.593873
 30
0.0
  0
SPLINE
  5
243
100
AcDbEntity
  8
Capa_1
 62
7
100
AcDbSpline
 70
8
 71
3
 72
8
 73
4
 74
0
 40
0
 40
0
 40
0
 40
0
 40
1
 40
1
 40
1
 40
1
 10
3.308975
 20
8.593873
 30
0.0
 10
3.330479
 20
8.623636
 30
0.0
 10
3.341231
 20
8.652513
 30
0.0
 10
3.341231
 20
8.680505
 30
0.0
  0
SPLINE
  5
244
100
AcDbEntity
  8
Capa_1
 62
7
100
AcDbSpline
 70
8
 71
3
 72
8
 73
4
 74
0
 40
0
 40
0
 40
0
 40
0
 40
1
 40
1
 40
1
 40
1
 10
3.341231
 20
8.680505
 30
0.0
 10
3.341231
 20
8.702299
 30
0.0
 10
3.333779
 20
8.718747
 30
0.0
 10
3.318876
 20
8.729849
 30
0.0
  0
SPLINE
  5
245
100
AcDbEntity
  8
Capa_1
 62
7
100
AcDbSpline
 70
8
 71
3
 72
8
 73
4
 74
0
 40
0
 40
0
 40
0
 40
0
 40
1
 40
1
 40
1
 40
1
 10
3.318876
 20
8.729849
 30
0.0
 10
3.304185
 20
8.740950
 30
0.0
 10
3.285236
 20
8.746501
 30
0.0
 10
3.262030
 20
8.746501
 30
0.0
  0
SPLINE
  5
246
100
AcDbEntity
  8
Capa_1
 62
7
100
AcDbSpline
 70
8
 71
3
 72
8
 73
4
 74
0
 40
0
 40
0
 40
0
 40
0
 40
1
 40
1
 40
1
 40
1
 10
3.262030
 20
8.746501
 30
0.0
 10
3.243081
 20
8.746501
 30
0.0
 10
3.221365
 20
8.742721
 30
0.0
 10
3.196881
 20
8.735161
 30
0.0
  0
SPLINE
  5
247
100
AcDbEntity
  8
Capa_1
 62
7
100
AcDbSpline
 70
8
 71
3
 72
8
 73
4
 74
0
 40
0
 40
0
 40
0
 40
0
 40
1
 40
1
 40
1
 40
1
 10
3.196881
 20
8.735161
 30
0.0
 10
3.172610
 20
8.727805
 30
0.0
 10
3.148765
 20
8.717147
 30
0.0
 10
3.125346
 20
8.703185
 30
0.0
  0
LWPOLYLINE
  5
248
100
AcDbEntity
  8
Capa_1
 62
7
100
AcDbPolyline
 90
3
 70
0
 10
3.354005
 20
8.295247
 30
0.0
 10
3.031775
 20
8.295247
 30
0.0
 10
3.046784
 20
8.364921
 30
0.0
  0
SPLINE
  5
249
100
AcDbEntity
  8
Capa_1
 62
7
100
AcDbSpline
 70
8
 71
3
 72
8
 73
4
 74
0
 40
0
 40
0
 40
0
 40
0
 40
1
 40
1
 40
1
 40
1
 10
3.134929
 20
8.770815
 30
0.0
 10
3.151748
 20
8.778852
 30
0.0
 10
3.173252
 20
8.785969
 30
0.0
 10
3.199439
 20
8.792167
 30
0.0
  0
SPLINE
  5
24a
100
AcDbEntity
  8
Capa_1
 62
7
100
AcDbSpline
 70
8
 71
3
 72
8
 73
4
 74
0
 40
0
 40
0
 40
0
 40
0
 40
1
 40
1
 40
1
 40
1
 10
3.199439
 20
8.792167
 30
0.0
 10
3.225626
 20
8.798296
 30
0.0
 10
3.250749
 20
8.801361
 30
0.0
 10
3.274807
 20
8.801361
 30
0.0
  0
SPLINE
  5
24b
100
AcDbEntity
  8
Capa_1
 62
7
100
AcDbSpline
 70
8
 71
3
 72
8
 73
4
 74
0
 40
0
 40
0
 40
0
 40
0
 40
1
 40
1
 40
1
 40
1
 10
3.274807
 20
8.801361
 30
0.0
 10
3.317600
 20
8.801361
 30
0.0
 10
3.350600
 20
8.791588
 30
0.0
 10
3.373807
 20
8.772041
 30
0.0
  0
SPLINE
  5
24c
100
AcDbEntity
  8
Capa_1
 62
7
100
AcDbSpline
 70
8
 71
3
 72
8
 73
4
 74
0
 40
0
 40
0
 40
0
 40
0
 40
1
 40
1
 40
1
 40
1
 10
3.373807
 20
8.772041
 30
0.0
 10
3.397014
 20
8.752699
 30
0.0
 10
3.408617
 20
8.726477
 30
0.0
 10
3.408617
 20
8.693377
 30
0.0
  0
SPLINE
  5
24d
100
AcDbEntity
  8
Capa_1
 62
7
100
AcDbSpline
 70
8
 71
3
 72
8
 73
4
 74
0
 40
0
 40
0
 40
0
 40
0
 40
1
 40
1
 40
1
 40
1
 10
3.408617
 20
8.693377
 30
0.0
 10
3.408617
 20
8.657621
 30
0.0
 10
3.398823
 20
8.623738
 30
0.0
 10
3.379236
 20
8.591727
 30
0.0
  0
SPLINE
  5
24e
100
AcDbEntity
  8
Capa_1
 62
7
100
AcDbSpline
 70
8
 71
3
 72
8
 73
4
 74
0
 40
0
 40
0
 40
0
 40
0
 40
1
 40
1
 40
1
 40
1
 10
3.379236
 20
8.591727
 30
0.0
 10
3.359648
 20
8.559921
 30
0.0
 10
3.325371
 20
8.522813
 30
0.0
 10
3.276403
 20
8.480403
 30
0.0
  0
SPLINE
  5
24f
100
AcDbEntity
  8
Capa_1
 62
7
100
AcDbSpline
 70
8
 71
3
 72
8
 73
4
 74
0
 40
0
 40
0
 40
0
 40
0
 40
1
 40
1
 40
1
 40
1
 10
3.276403
 20
8.480403
 30
0.0
 10
3.247235
 20
8.455271
 30
0.0
 10
3.217216
 20
8.430821
 30
0.0
 10
3.186345
 20
8.407052
 30
0.0
  0
SPLINE
  5
250
100
AcDbEntity
  8
Capa_1
 62
7
100
AcDbSpline
 70
8
 71
3
 72
8
 73
4
 74
0
 40
0
 40
0
 40
0
 40
0
 40
1
 40
1
 40
1
 40
1
 10
3.186345
 20
8.407052
 30
0.0
 10
3.155687
 20
8.383487
 30
0.0
 10
3.130351
 20
8.364280
 30
0.0
 10
3.110338
 20
8.349433
 30
0.0
  0
LWPOLYLINE
  5
251
100
AcDbEntity
  8
Capa_1
 62
7
100
AcDbPolyline
 90
3
 70
0
 10
3.125346
 20
8.703185
 30
0.0
 10
3.122155
 20
8.703185
 30
0.0
 10
3.134929
 20
8.770815
 30
0.0
  0
LWPOLYLINE
  5
252
100
AcDbEntity
  8
Capa_1
 62
7
100
AcDbPolyline
 90
3
 70
0
 10
3.110338
 20
8.349433
 30
0.0
 10
3.365823
 20
8.349433
 30
0.0
 10
3.354005
 20
8.295247
 30
0.0
  0
SPLINE
  5
253
100
AcDbEntity
  8
Capa_1
 62
7
100
AcDbSpline
 70
8
 71
3
 72
8
 73
4
 74
0
 40
0
 40
0
 40
0
 40
0
 40
1
 40
1
 40
1
 40
1
 10
3.005268
 20
6.909366
 30
0.0
 10
3.005268
 20
6.866255
 30
0.0
 10
2.998988
 20
6.824703
 30
0.0
 10
2.986426
 20
6.784710
 30
0.0
  0
SPLINE
  5
254
100
AcDbEntity
  8
Capa_1
 62
7
100
AcDbSpline
 70
8
 71
3
 72
8
 73
4
 74
0
 40
0
 40
0
 40
0
 40
0
 40
1
 40
1
 40
1
 40
1
 10
2.986426
 20
6.784710
 30
0.0
 10
2.974078
 20
6.744731
 30
0.0
 10
2.956087
 20
6.709513
 30
0.0
 10
2.932455
 20
6.679056
 30
0.0
  0
SPLINE
  5
255
100
AcDbEntity
  8
Capa_1
 62
7
100
AcDbSpline
 70
8
 71
3
 72
8
 73
4
 74
0
 40
0
 40
0
 40
0
 40
0
 40
1
 40
1
 40
1
 40
1
 10
2.932455
 20
6.679056
 30
0.0
 10
2.908184
 20
6.647726
 30
0.0
 10
2.879017
 20
6.623072
 30
0.0
 10
2.844952
 20
6.605091
 30
0.0
  0
SPLINE
  5
256
100
AcDbEntity
  8
Capa_1
 62
7
100
AcDbSpline
 70
8
 71
3
 72
8
 73
4
 74
0
 40
0
 40
0
 40
0
 40
0
 40
1
 40
1
 40
1
 40
1
 10
2.844952
 20
6.605091
 30
0.0
 10
2.810887
 20
6.587315
 30
0.0
 10
2.772458
 20
6.578427
 30
0.0
 10
2.729665
 20
6.578427
 30
0.0
  0
SPLINE
  5
257
100
AcDbEntity
  8
Capa_1
 62
7
100
AcDbSpline
 70
8
 71
3
 72
8
 73
4
 74
0
 40
0
 40
0
 40
0
 40
0
 40
1
 40
1
 40
1
 40
1
 10
2.729665
 20
6.578427
 30
0.0
 10
2.673032
 20
6.578427
 30
0.0
 10
2.628748
 20
6.594535
 30
0.0
 10
2.596813
 20
6.626749
 30
0.0
  0
SPLINE
  5
258
100
AcDbEntity
  8
Capa_1
 62
7
100
AcDbSpline
 70
8
 71
3
 72
8
 73
4
 74
0
 40
0
 40
0
 40
0
 40
0
 40
1
 40
1
 40
1
 40
1
 10
2.596813
 20
6.626749
 30
0.0
 10
2.564877
 20
6.659168
 30
0.0
 10
2.548910
 20
6.705164
 30
0.0
 10
2.548910
 20
6.764738
 30
0.0
  0
SPLINE
  5
259
100
AcDbEntity
  8
Capa_1
 62
7
100
AcDbSpline
 70
8
 71
3
 72
8
 73
4
 74
0
 40
0
 40
0
 40
0
 40
0
 40
1
 40
1
 40
1
 40
1
 10
2.548910
 20
6.764738
 30
0.0
 10
2.548910
 20
6.810097
 30
0.0
 10
2.555297
 20
6.852426
 30
0.0
 10
2.568071
 20
6.891723
 30
0.0
  0
SPLINE
  5
25a
100
AcDbEntity
  8
Capa_1
 62
7
100
AcDbSpline
 70
8
 71
3
 72
8
 73
4
 74
0
 40
0
 40
0
 40
0
 40
0
 40
1
 40
1
 40
1
 40
1
 10
2.568071
 20
6.891723
 30
0.0
 10
2.580845
 20
6.931021
 30
0.0
 10
2.599261
 20
6.966130
 30
0.0
 10
2.623319
 20
6.997051
 30
0.0
  0
SPLINE
  5
25b
100
AcDbEntity
  8
Capa_1
 62
7
100
AcDbSpline
 70
8
 71
3
 72
8
 73
4
 74
0
 40
0
 40
0
 40
0
 40
0
 40
1
 40
1
 40
1
 40
1
 10
2.623319
 20
6.997051
 30
0.0
 10
2.646738
 20
7.026814
 30
0.0
 10
2.675693
 20
7.050583
 30
0.0
 10
2.710184
 20
7.068359
 30
0.0
  0
SPLINE
  5
25c
100
AcDbEntity
  8
Capa_1
 62
7
100
AcDbSpline
 70
8
 71
3
 72
8
 73
4
 74
0
 40
0
 40
0
 40
0
 40
0
 40
1
 40
1
 40
1
 40
1
 10
2.710184
 20
7.068359
 30
0.0
 10
2.744888
 20
7.086339
 30
0.0
 10
2.782891
 20
7.095329
 30
0.0
 10
2.824194
 20
7.095329
 30
0.0
  0
SPLINE
  5
25d
100
AcDbEntity
  8
Capa_1
 62
7
100
AcDbSpline
 70
8
 71
3
 72
8
 73
4
 74
0
 40
0
 40
0
 40
0
 40
0
 40
1
 40
1
 40
1
 40
1
 10
2.824194
 20
7.095329
 30
0.0
 10
2.880614
 20
7.095329
 30
0.0
 10
2.924898
 20
7.079222
 30
0.0
 10
2.957046
 20
7.047008
 30
0.0
  0
SPLINE
  5
25e
100
AcDbEntity
  8
Capa_1
 62
7
100
AcDbSpline
 70
8
 71
3
 72
8
 73
4
 74
0
 40
0
 40
0
 40
0
 40
0
 40
1
 40
1
 40
1
 40
1
 10
2.957046
 20
7.047008
 30
0.0
 10
2.989195
 20
7.014997
 30
0.0
 10
3.005269
 20
6.969110
 30
0.0
 10
3.005269
 20
6.909346
 30
0.0
  0
LWPOLYLINE
  5
25f
100
AcDbEntity
  8
Capa_1
 62
7
100
AcDbPolyline
 90
12
 70
1
 10
2.420847
 20
6.588725
 30
0.0
 10
2.232427
 20
6.588725
 30
0.0
 10
2.242965
 20
6.637047
 30
0.0
 10
2.305240
 20
6.637047
 30
0.0
 10
2.394021
 20
7.036679
 30
0.0
 10
2.331746
 20
7.036679
 30
0.0
 10
2.342284
 20
7.085001
 30
0.0
 10
2.530705
 20
7.085001
 30
0.0
 10
2.520165
 20
7.036679
 30
0.0
 10
2.457891
 20
7.036679
 30
0.0
 10
2.369110
 20
6.637047
 30
0.0
 10
2.431384
 20
6.637047
 30
0.0
  0
SPLINE
  5
260
100
AcDbEntity
  8
Capa_1
 62
7
100
AcDbSpline
 70
8
 71
3
 72
8
 73
4
 74
0
 40
0
 40
0
 40
0
 40
0
 40
1
 40
1
 40
1
 40
1
 10
2.884232
 20
6.712053
 30
0.0
 10
2.902116
 20
6.737389
 30
0.0
 10
2.915636
 20
6.765620
 30
0.0
 10
2.924791
 20
6.796745
 30
0.0
  0
SPLINE
  5
261
100
AcDbEntity
  8
Capa_1
 62
7
100
AcDbSpline
 70
8
 71
3
 72
8
 73
4
 74
0
 40
0
 40
0
 40
0
 40
0
 40
1
 40
1
 40
1
 40
1
 10
2.924791
 20
6.796745
 30
0.0
 10
2.933946
 20
6.828074
 30
0.0
 10
2.938523
 20
6.862516
 30
0.0
 10
2.938523
 20
6.900070
 30
0.0
  0
SPLINE
  5
262
100
AcDbEntity
  8
Capa_1
 62
7
100
AcDbSpline
 70
8
 71
3
 72
8
 73
4
 74
0
 40
0
 40
0
 40
0
 40
0
 40
1
 40
1
 40
1
 40
1
 10
2.938523
 20
6.900070
 30
0.0
 10
2.938523
 20
6.945429
 30
0.0
 10
2.927559
 20
6.980205
 30
0.0
 10
2.905630
 20
7.004396
 30
0.0
  0
SPLINE
  5
263
100
AcDbEntity
  8
Capa_1
 62
7
100
AcDbSpline
 70
8
 71
3
 72
8
 73
4
 74
0
 40
0
 40
0
 40
0
 40
0
 40
1
 40
1
 40
1
 40
1
 10
2.905630
 20
7.004396
 30
0.0
 10
2.883914
 20
7.028847
 30
0.0
 10
2.853469
 20
7.041072
 30
0.0
 10
2.814294
 20
7.041072
 30
0.0
  0
SPLINE
  5
264
100
AcDbEntity
  8
Capa_1
 62
7
100
AcDbSpline
 70
8
 71
3
 72
8
 73
4
 74
0
 40
0
 40
0
 40
0
 40
0
 40
1
 40
1
 40
1
 40
1
 10
2.814294
 20
7.041072
 30
0.0
 10
2.783849
 20
7.041072
 30
0.0
 10
2.756384
 20
7.033750
 30
0.0
 10
2.731901
 20
7.019107
 30
0.0
  0
SPLINE
  5
265
100
AcDbEntity
  8
Capa_1
 62
7
100
AcDbSpline
 70
8
 71
3
 72
8
 73
4
 74
0
 40
0
 40
0
 40
0
 40
0
 40
1
 40
1
 40
1
 40
1
 10
2.731901
 20
7.019107
 30
0.0
 10
2.707417
 20
7.004669
 30
0.0
 10
2.686339
 20
6.985020
 30
0.0
 10
2.668668
 20
6.960161
 30
0.0
  0
SPLINE
  5
266
100
AcDbEntity
  8
Capa_1
 62
7
100
AcDbSpline
 70
8
 71
3
 72
8
 73
4
 74
0
 40
0
 40
0
 40
0
 40
0
 40
1
 40
1
 40
1
 40
1
 10
2.668668
 20
6.960161
 30
0.0
 10
2.651636
 20
6.935710
 30
0.0
 10
2.638542
 20
6.907276
 30
0.0
 10
2.629388
 20
6.874857
 30
0.0
  0
SPLINE
  5
267
100
AcDbEntity
  8
Capa_1
 62
7
100
AcDbSpline
 70
8
 71
3
 72
8
 73
4
 74
0
 40
0
 40
0
 40
0
 40
0
 40
1
 40
1
 40
1
 40
1
 10
2.629388
 20
6.874857
 30
0.0
 10
2.620233
 20
6.842642
 30
0.0
 10
2.615655
 20
6.809406
 30
0.0
 10
2.615655
 20
6.775148
 30
0.0
  0
SPLINE
  5
268
100
AcDbEntity
  8
Capa_1
 62
7
100
AcDbSpline
 70
8
 71
3
 72
8
 73
4
 74
0
 40
0
 40
0
 40
0
 40
0
 40
1
 40
1
 40
1
 40
1
 10
2.615655
 20
6.775148
 30
0.0
 10
2.615655
 20
6.729380
 30
0.0
 10
2.626513
 20
6.694162
 30
0.0
 10
2.648230
 20
6.669493
 30
0.0
  0
SPLINE
  5
269
100
AcDbEntity
  8
Capa_1
 62
7
100
AcDbSpline
 70
8
 71
3
 72
8
 73
4
 74
0
 40
0
 40
0
 40
0
 40
0
 40
1
 40
1
 40
1
 40
1
 10
2.648230
 20
6.669493
 30
0.0
 10
2.670158
 20
6.645043
 30
0.0
 10
2.700817
 20
6.632818
 30
0.0
 10
2.740204
 20
6.632818
 30
0.0
  0
SPLINE
  5
26a
100
AcDbEntity
  8
Capa_1
 62
7
100
AcDbSpline
 70
8
 71
3
 72
8
 73
4
 74
0
 40
0
 40
0
 40
0
 40
0
 40
1
 40
1
 40
1
 40
1
 10
2.740204
 20
6.632818
 30
0.0
 10
2.770224
 20
6.632818
 30
0.0
 10
2.797475
 20
6.640037
 30
0.0
 10
2.821959
 20
6.654476
 30
0.0
  0
SPLINE
  5
26b
100
AcDbEntity
  8
Capa_1
 62
7
100
AcDbSpline
 70
8
 71
3
 72
8
 73
4
 74
0
 40
0
 40
0
 40
0
 40
0
 40
1
 40
1
 40
1
 40
1
 10
2.821959
 20
6.654476
 30
0.0
 10
2.846656
 20
6.668914
 30
0.0
 10
2.867414
 20
6.688121
 30
0.0
 10
2.884233
 20
6.712094
 30
0.0
  0
LWPOLYLINE
  5
26c
100
AcDbEntity
  8
Capa_1
 62
7
100
AcDbPolyline
 90
1
 70
1
 10
3.005269
 20
6.909346
 30
0.0
  0
SPLINE
  5
26d
100
AcDbEntity
  8
Capa_1
 62
7
100
AcDbSpline
 70
8
 71
3
 72
8
 73
4
 74
0
 40
0
 40
0
 40
0
 40
0
 40
1
 40
1
 40
1
 40
1
 10
3.324943
 20
6.632389
 30
0.0
 10
3.306208
 20
6.615294
 30
0.0
 10
3.284598
 20
6.601945
 30
0.0
 10
3.260114
 20
6.592342
 30
0.0
  0
SPLINE
  5
26e
100
AcDbEntity
  8
Capa_1
 62
7
100
AcDbSpline
 70
8
 71
3
 72
8
 73
4
 74
0
 40
0
 40
0
 40
0
 40
0
 40
1
 40
1
 40
1
 40
1
 10
3.260114
 20
6.592342
 30
0.0
 10
3.235843
 20
6.583011
 30
0.0
 10
3.207633
 20
6.578346
 30
0.0
 10
3.175485
 20
6.578346
 30
0.0
  0
SPLINE
  5
26f
100
AcDbEntity
  8
Capa_1
 62
7
100
AcDbSpline
 70
8
 71
3
 72
8
 73
4
 74
0
 40
0
 40
0
 40
0
 40
0
 40
1
 40
1
 40
1
 40
1
 10
3.175485
 20
6.578346
 30
0.0
 10
3.149723
 20
6.578346
 30
0.0
 10
3.124707
 20
6.581785
 30
0.0
 10
3.100436
 20
6.588664
 30
0.0
  0
SPLINE
  5
270
100
AcDbEntity
  8
Capa_1
 62
7
100
AcDbSpline
 70
8
 71
3
 72
8
 73
4
 74
0
 40
0
 40
0
 40
0
 40
0
 40
1
 40
1
 40
1
 40
1
 10
3.100436
 20
6.588664
 30
0.0
 10
3.076378
 20
6.595475
 30
0.0
 10
3.056046
 20
6.603477
 30
0.0
 10
3.039439
 20
6.612672
 30
0.0
  0
LWPOLYLINE
  5
271
100
AcDbEntity
  8
Capa_1
 62
7
100
AcDbPolyline
 90
1
 70
1
 10
2.884233
 20
6.712094
 30
0.0
  0
SPLINE
  5
272
100
AcDbEntity
  8
Capa_1
 62
7
100
AcDbSpline
 70
8
 71
3
 72
8
 73
4
 74
0
 40
0
 40
0
 40
0
 40
0
 40
1
 40
1
 40
1
 40
1
 10
3.059235
 20
6.676624
 30
0.0
 10
3.073926
 20
6.665046
 30
0.0
 10
3.092342
 20
6.654932
 30
0.0
 10
3.114484
 20
6.646282
 30
0.0
  0
SPLINE
  5
273
100
AcDbEntity
  8
Capa_1
 62
7
100
AcDbSpline
 70
8
 71
3
 72
8
 73
4
 74
0
 40
0
 40
0
 40
0
 40
0
 40
1
 40
1
 40
1
 40
1
 10
3.114484
 20
6.646282
 30
0.0
 10
3.136626
 20
6.637837
 30
0.0
 10
3.160045
 20
6.633614
 30
0.0
 10
3.184742
 20
6.633614
 30
0.0
  0
SPLINE
  5
274
100
AcDbEntity
  8
Capa_1
 62
7
100
AcDbSpline
 70
8
 71
3
 72
8
 73
4
 74
0
 40
0
 40
0
 40
0
 40
0
 40
1
 40
1
 40
1
 40
1
 10
3.184742
 20
6.633614
 30
0.0
 10
3.223064
 20
6.633614
 30
0.0
 10
3.254468
 20
6.645499
 30
0.0
 10
3.278952
 20
6.669269
 30
0.0
  0
SPLINE
  5
275
100
AcDbEntity
  8
Capa_1
 62
7
100
AcDbSpline
 70
8
 71
3
 72
8
 73
4
 74
0
 40
0
 40
0
 40
0
 40
0
 40
1
 40
1
 40
1
 40
1
 10
3.278952
 20
6.669269
 30
0.0
 10
3.303436
 20
6.693038
 30
0.0
 10
3.315679
 20
6.723924
 30
0.0
 10
3.315679
 20
6.761928
 30
0.0
  0
SPLINE
  5
276
100
AcDbEntity
  8
Capa_1
 62
7
100
AcDbSpline
 70
8
 71
3
 72
8
 73
4
 74
0
 40
0
 40
0
 40
0
 40
0
 40
1
 40
1
 40
1
 40
1
 10
3.315679
 20
6.761928
 30
0.0
 10
3.315679
 20
6.785221
 30
0.0
 10
3.307907
 20
6.802656
 30
0.0
 10
3.292365
 20
6.814234
 30
0.0
  0
SPLINE
  5
277
100
AcDbEntity
  8
Capa_1
 62
7
100
AcDbSpline
 70
8
 71
3
 72
8
 73
4
 74
0
 40
0
 40
0
 40
0
 40
0
 40
1
 40
1
 40
1
 40
1
 10
3.292365
 20
6.814234
 30
0.0
 10
3.276823
 20
6.825813
 30
0.0
 10
3.252659
 20
6.831602
 30
0.0
 10
3.219872
 20
6.831602
 30
0.0
  0
LWPOLYLINE
  5
278
100
AcDbEntity
  8
Capa_1
 62
7
100
AcDbPolyline
 90
3
 70
0
 10
3.039439
 20
6.612672
 30
0.0
 10
3.054449
 20
6.676624
 30
0.0
 10
3.059235
 20
6.676624
 30
0.0
  0
SPLINE
  5
279
100
AcDbEntity
  8
Capa_1
 62
7
100
AcDbSpline
 70
8
 71
3
 72
8
 73
4
 74
0
 40
0
 40
0
 40
0
 40
0
 40
1
 40
1
 40
1
 40
1
 10
3.232326
 20
6.884623
 30
0.0
 10
3.268307
 20
6.884623
 30
0.0
 10
3.297794
 20
6.893171
 30
0.0
 10
3.320788
 20
6.910265
 30
0.0
  0
SPLINE
  5
27a
100
AcDbEntity
  8
Capa_1
 62
7
100
AcDbSpline
 70
8
 71
3
 72
8
 73
4
 74
0
 40
0
 40
0
 40
0
 40
0
 40
1
 40
1
 40
1
 40
1
 10
3.320788
 20
6.910265
 30
0.0
 10
3.343782
 20
6.927633
 30
0.0
 10
3.355279
 20
6.951062
 30
0.0
 10
3.355279
 20
6.980552
 30
0.0
  0
SPLINE
  5
27b
100
AcDbEntity
  8
Capa_1
 62
7
100
AcDbSpline
 70
8
 71
3
 72
8
 73
4
 74
0
 40
0
 40
0
 40
0
 40
0
 40
1
 40
1
 40
1
 40
1
 10
3.355279
 20
6.980552
 30
0.0
 10
3.355279
 20
6.999213
 30
0.0
 10
3.348359
 20
7.013754
 30
0.0
 10
3.334520
 20
7.024175
 30
0.0
  0
SPLINE
  5
27c
100
AcDbEntity
  8
Capa_1
 62
7
100
AcDbSpline
 70
8
 71
3
 72
8
 73
4
 74
0
 40
0
 40
0
 40
0
 40
0
 40
1
 40
1
 40
1
 40
1
 10
3.334520
 20
7.024175
 30
0.0
 10
3.320895
 20
7.034595
 30
0.0
 10
3.300669
 20
7.039805
 30
0.0
 10
3.273842
 20
7.039805
 30
0.0
  0
SPLINE
  5
27d
100
AcDbEntity
  8
Capa_1
 62
7
100
AcDbSpline
 70
8
 71
3
 72
8
 73
4
 74
0
 40
0
 40
0
 40
0
 40
0
 40
1
 40
1
 40
1
 40
1
 10
3.273842
 20
7.039805
 30
0.0
 10
3.251700
 20
7.039805
 30
0.0
 10
3.228068
 20
7.035583
 30
0.0
 10
3.202945
 20
7.027137
 30
0.0
  0
SPLINE
  5
27e
100
AcDbEntity
  8
Capa_1
 62
7
100
AcDbSpline
 70
8
 71
3
 72
8
 73
4
 74
0
 40
0
 40
0
 40
0
 40
0
 40
1
 40
1
 40
1
 40
1
 10
3.202945
 20
7.027137
 30
0.0
 10
3.177823
 20
7.018692
 30
0.0
 10
3.155574
 20
7.008476
 30
0.0
 10
3.136199
 20
6.996489
 30
0.0
  0
LWPOLYLINE
  5
27f
100
AcDbEntity
  8
Capa_1
 62
7
100
AcDbPolyline
 90
4
 70
0
 10
3.219872
 20
6.831602
 30
0.0
 10
3.189533
 20
6.831602
 30
0.0
 10
3.201988
 20
6.884623
 30
0.0
 10
3.232326
 20
6.884623
 30
0.0
  0
SPLINE
  5
280
100
AcDbEntity
  8
Capa_1
 62
7
100
AcDbSpline
 70
8
 71
3
 72
8
 73
4
 74
0
 40
0
 40
0
 40
0
 40
0
 40
1
 40
1
 40
1
 40
1
 10
3.146741
 20
7.063813
 30
0.0
 10
3.163773
 20
7.071577
 30
0.0
 10
3.185382
 20
7.078694
 30
0.0
 10
3.211570
 20
7.085165
 30
0.0
  0
SPLINE
  5
281
100
AcDbEntity
  8
Capa_1
 62
7
100
AcDbSpline
 70
8
 71
3
 72
8
 73
4
 74
0
 40
0
 40
0
 40
0
 40
0
 40
1
 40
1
 40
1
 40
1
 10
3.211570
 20
7.085165
 30
0.0
 10
3.237970
 20
7.091975
 30
0.0
 10
3.262986
 20
7.095381
 30
0.0
 10
3.286618
 20
7.095381
 30
0.0
  0
SPLINE
  5
282
100
AcDbEntity
  8
Capa_1
 62
7
100
AcDbSpline
 70
8
 71
3
 72
8
 73
4
 74
0
 40
0
 40
0
 40
0
 40
0
 40
1
 40
1
 40
1
 40
1
 10
3.286618
 20
7.095381
 30
0.0
 10
3.328560
 20
7.095381
 30
0.0
 10
3.361560
 20
7.086595
 30
0.0
 10
3.385619
 20
7.069023
 30
0.0
  0
SPLINE
  5
283
100
AcDbEntity
  8
Capa_1
 62
7
100
AcDbSpline
 70
8
 71
3
 72
8
 73
4
 74
0
 40
0
 40
0
 40
0
 40
0
 40
1
 40
1
 40
1
 40
1
 10
3.385619
 20
7.069023
 30
0.0
 10
3.409890
 20
7.051724
 30
0.0
 10
3.422025
 20
7.027955
 30
0.0
 10
3.422025
 20
6.997715
 30
0.0
  0
SPLINE
  5
284
100
AcDbEntity
  8
Capa_1
 62
7
100
AcDbSpline
 70
8
 71
3
 72
8
 73
4
 74
0
 40
0
 40
0
 40
0
 40
0
 40
1
 40
1
 40
1
 40
1
 10
3.422025
 20
6.997715
 30
0.0
 10
3.422025
 20
6.964819
 30
0.0
 10
3.410315
 20
6.935601
 30
0.0
 10
3.386896
 20
6.910061
 30
0.0
  0
SPLINE
  5
285
100
AcDbEntity
  8
Capa_1
 62
7
100
AcDbSpline
 70
8
 71
3
 72
8
 73
4
 74
0
 40
0
 40
0
 40
0
 40
0
 40
1
 40
1
 40
1
 40
1
 10
3.386896
 20
6.910061
 30
0.0
 10
3.363690
 20
6.884725
 30
0.0
 10
3.334309
 20
6.868618
 30
0.0
 10
3.298754
 20
6.861739
 30
0.0
  0
LWPOLYLINE
  5
286
100
AcDbEntity
  8
Capa_1
 62
7
100
AcDbPolyline
 90
3
 70
0
 10
3.136199
 20
6.996489
 30
0.0
 10
3.133008
 20
6.996489
 30
0.0
 10
3.146741
 20
7.063813
 30
0.0
  0
SPLINE
  5
287
100
AcDbEntity
  8
Capa_1
 62
7
100
AcDbSpline
 70
8
 71
3
 72
8
 73
4
 74
0
 40
0
 40
0
 40
0
 40
0
 40
1
 40
1
 40
1
 40
1
 10
3.298754
 20
6.858674
 30
0.0
 10
3.307057
 20
6.856631
 30
0.0
 10
3.316212
 20
6.853226
 30
0.0
 10
3.326218
 20
6.848458
 30
0.0
  0
SPLINE
  5
288
100
AcDbEntity
  8
Capa_1
 62
7
100
AcDbSpline
 70
8
 71
3
 72
8
 73
4
 74
0
 40
0
 40
0
 40
0
 40
0
 40
1
 40
1
 40
1
 40
1
 10
3.326218
 20
6.848458
 30
0.0
 10
3.336437
 20
6.843691
 30
0.0
 10
3.345379
 20
6.837697
 30
0.0
 10
3.353045
 20
6.830478
 30
0.0
  0
SPLINE
  5
289
100
AcDbEntity
  8
Capa_1
 62
7
100
AcDbSpline
 70
8
 71
3
 72
8
 73
4
 74
0
 40
0
 40
0
 40
0
 40
0
 40
1
 40
1
 40
1
 40
1
 10
3.353045
 20
6.830478
 30
0.0
 10
3.361135
 20
6.822918
 30
0.0
 10
3.367841
 20
6.813349
 30
0.0
 10
3.373164
 20
6.801771
 30
0.0
  0
SPLINE
  5
28a
100
AcDbEntity
  8
Capa_1
 62
7
100
AcDbSpline
 70
8
 71
3
 72
8
 73
4
 74
0
 40
0
 40
0
 40
0
 40
0
 40
1
 40
1
 40
1
 40
1
 10
3.373164
 20
6.801771
 30
0.0
 10
3.378698
 20
6.790193
 30
0.0
 10
3.381464
 20
6.776537
 30
0.0
 10
3.381464
 20
6.760804
 30
0.0
  0
SPLINE
  5
28b
100
AcDbEntity
  8
Capa_1
 62
7
100
AcDbSpline
 70
8
 71
3
 72
8
 73
4
 74
0
 40
0
 40
0
 40
0
 40
0
 40
1
 40
1
 40
1
 40
1
 10
3.381464
 20
6.760804
 30
0.0
 10
3.381464
 20
6.736558
 30
0.0
 10
3.376461
 20
6.713130
 30
0.0
 10
3.366455
 20
6.690518
 30
0.0
  0
SPLINE
  5
28c
100
AcDbEntity
  8
Capa_1
 62
7
100
AcDbSpline
 70
8
 71
3
 72
8
 73
4
 74
0
 40
0
 40
0
 40
0
 40
0
 40
1
 40
1
 40
1
 40
1
 10
3.366455
 20
6.690518
 30
0.0
 10
3.356448
 20
6.668111
 30
0.0
 10
3.342610
 20
6.648768
 30
0.0
 10
3.324939
 20
6.632491
 30
0.0
  0
LWPOLYLINE
  5
28d
100
AcDbEntity
  8
Capa_1
 62
7
100
AcDbPolyline
 90
2
 70
0
 10
3.298754
 20
6.861739
 30
0.0
 10
3.298754
 20
6.858674
 30
0.0
  0
LWPOLYLINE
  5
28e
100
AcDbEntity
  8
Capa_1
 62
7
100
AcDbPolyline
 90
2
 70
0
 10
3.324939
 20
6.632491
 30
0.0
 10
3.324943
 20
6.632389
 30
0.0
  0
SPLINE
  5
28f
100
AcDbEntity
  8
Capa_1
 62
7
100
AcDbSpline
 70
8
 71
3
 72
8
 73
4
 74
0
 40
0
 40
0
 40
0
 40
0
 40
1
 40
1
 40
1
 40
1
 10
3.005268
 20
5.202844
 30
0.0
 10
3.005268
 20
5.159733
 30
0.0
 10
2.998988
 20
5.118181
 30
0.0
 10
2.986426
 20
5.078188
 30
0.0
  0
SPLINE
  5
290
100
AcDbEntity
  8
Capa_1
 62
7
100
AcDbSpline
 70
8
 71
3
 72
8
 73
4
 74
0
 40
0
 40
0
 40
0
 40
0
 40
1
 40
1
 40
1
 40
1
 10
2.986426
 20
5.078188
 30
0.0
 10
2.974078
 20
5.038209
 30
0.0
 10
2.956087
 20
5.002991
 30
0.0
 10
2.932455
 20
4.972534
 30
0.0
  0
SPLINE
  5
291
100
AcDbEntity
  8
Capa_1
 62
7
100
AcDbSpline
 70
8
 71
3
 72
8
 73
4
 74
0
 40
0
 40
0
 40
0
 40
0
 40
1
 40
1
 40
1
 40
1
 10
2.932455
 20
4.972534
 30
0.0
 10
2.908184
 20
4.941204
 30
0.0
 10
2.879017
 20
4.916550
 30
0.0
 10
2.844952
 20
4.898569
 30
0.0
  0
SPLINE
  5
292
100
AcDbEntity
  8
Capa_1
 62
7
100
AcDbSpline
 70
8
 71
3
 72
8
 73
4
 74
0
 40
0
 40
0
 40
0
 40
0
 40
1
 40
1
 40
1
 40
1
 10
2.844952
 20
4.898569
 30
0.0
 10
2.810887
 20
4.880793
 30
0.0
 10
2.772458
 20
4.871905
 30
0.0
 10
2.729665
 20
4.871905
 30
0.0
  0
SPLINE
  5
293
100
AcDbEntity
  8
Capa_1
 62
7
100
AcDbSpline
 70
8
 71
3
 72
8
 73
4
 74
0
 40
0
 40
0
 40
0
 40
0
 40
1
 40
1
 40
1
 40
1
 10
2.729665
 20
4.871905
 30
0.0
 10
2.673032
 20
4.871905
 30
0.0
 10
2.628748
 20
4.888013
 30
0.0
 10
2.596813
 20
4.920227
 30
0.0
  0
SPLINE
  5
294
100
AcDbEntity
  8
Capa_1
 62
7
100
AcDbSpline
 70
8
 71
3
 72
8
 73
4
 74
0
 40
0
 40
0
 40
0
 40
0
 40
1
 40
1
 40
1
 40
1
 10
2.596813
 20
4.920227
 30
0.0
 10
2.564877
 20
4.952646
 30
0.0
 10
2.548910
 20
4.998642
 30
0.0
 10
2.548910
 20
5.058216
 30
0.0
  0
SPLINE
  5
295
100
AcDbEntity
  8
Capa_1
 62
7
100
AcDbSpline
 70
8
 71
3
 72
8
 73
4
 74
0
 40
0
 40
0
 40
0
 40
0
 40
1
 40
1
 40
1
 40
1
 10
2.548910
 20
5.058216
 30
0.0
 10
2.548910
 20
5.103575
 30
0.0
 10
2.555297
 20
5.145904
 30
0.0
 10
2.568071
 20
5.185201
 30
0.0
  0
SPLINE
  5
296
100
AcDbEntity
  8
Capa_1
 62
7
100
AcDbSpline
 70
8
 71
3
 72
8
 73
4
 74
0
 40
0
 40
0
 40
0
 40
0
 40
1
 40
1
 40
1
 40
1
 10
2.568071
 20
5.185201
 30
0.0
 10
2.580845
 20
5.224499
 30
0.0
 10
2.599261
 20
5.259608
 30
0.0
 10
2.623319
 20
5.290529
 30
0.0
  0
SPLINE
  5
297
100
AcDbEntity
  8
Capa_1
 62
7
100
AcDbSpline
 70
8
 71
3
 72
8
 73
4
 74
0
 40
0
 40
0
 40
0
 40
0
 40
1
 40
1
 40
1
 40
1
 10
2.623319
 20
5.290529
 30
0.0
 10
2.646738
 20
5.320292
 30
0.0
 10
2.675693
 20
5.344061
 30
0.0
 10
2.710184
 20
5.361837
 30
0.0
  0
SPLINE
  5
298
100
AcDbEntity
  8
Capa_1
 62
7
100
AcDbSpline
 70
8
 71
3
 72
8
 73
4
 74
0
 40
0
 40
0
 40
0
 40
0
 40
1
 40
1
 40
1
 40
1
 10
2.710184
 20
5.361837
 30
0.0
 10
2.744888
 20
5.379817
 30
0.0
 10
2.782891
 20
5.388808
 30
0.0
 10
2.824194
 20
5.388808
 30
0.0
  0
SPLINE
  5
299
100
AcDbEntity
  8
Capa_1
 62
7
100
AcDbSpline
 70
8
 71
3
 72
8
 73
4
 74
0
 40
0
 40
0
 40
0
 40
0
 40
1
 40
1
 40
1
 40
1
 10
2.824194
 20
5.388808
 30
0.0
 10
2.880614
 20
5.388808
 30
0.0
 10
2.924898
 20
5.372700
 30
0.0
 10
2.957046
 20
5.340486
 30
0.0
  0
SPLINE
  5
29a
100
AcDbEntity
  8
Capa_1
 62
7
100
AcDbSpline
 70
8
 71
3
 72
8
 73
4
 74
0
 40
0
 40
0
 40
0
 40
0
 40
1
 40
1
 40
1
 40
1
 10
2.957046
 20
5.340486
 30
0.0
 10
2.989195
 20
5.308475
 30
0.0
 10
3.005269
 20
5.262588
 30
0.0
 10
3.005269
 20
5.202824
 30
0.0
  0
LWPOLYLINE
  5
29b
100
AcDbEntity
  8
Capa_1
 62
7
100
AcDbPolyline
 90
12
 70
1
 10
2.420847
 20
4.882203
 30
0.0
 10
2.232427
 20
4.882203
 30
0.0
 10
2.242965
 20
4.930525
 30
0.0
 10
2.305240
 20
4.930525
 30
0.0
 10
2.394021
 20
5.330157
 30
0.0
 10
2.331746
 20
5.330157
 30
0.0
 10
2.342284
 20
5.378479
 30
0.0
 10
2.530705
 20
5.378479
 30
0.0
 10
2.520165
 20
5.330157
 30
0.0
 10
2.457891
 20
5.330157
 30
0.0
 10
2.369110
 20
4.930525
 30
0.0
 10
2.431384
 20
4.930525
 30
0.0
  0
SPLINE
  5
29c
100
AcDbEntity
  8
Capa_1
 62
7
100
AcDbSpline
 70
8
 71
3
 72
8
 73
4
 74
0
 40
0
 40
0
 40
0
 40
0
 40
1
 40
1
 40
1
 40
1
 10
2.884232
 20
5.005531
 30
0.0
 10
2.902116
 20
5.030867
 30
0.0
 10
2.915636
 20
5.059098
 30
0.0
 10
2.924791
 20
5.090223
 30
0.0
  0
SPLINE
  5
29d
100
AcDbEntity
  8
Capa_1
 62
7
100
AcDbSpline
 70
8
 71
3
 72
8
 73
4
 74
0
 40
0
 40
0
 40
0
 40
0
 40
1
 40
1
 40
1
 40
1
 10
2.924791
 20
5.090223
 30
0.0
 10
2.933946
 20
5.121552
 30
0.0
 10
2.938523
 20
5.155994
 30
0.0
 10
2.938523
 20
5.193548
 30
0.0
  0
SPLINE
  5
29e
100
AcDbEntity
  8
Capa_1
 62
7
100
AcDbSpline
 70
8
 71
3
 72
8
 73
4
 74
0
 40
0
 40
0
 40
0
 40
0
 40
1
 40
1
 40
1
 40
1
 10
2.938523
 20
5.193548
 30
0.0
 10
2.938523
 20
5.238839
 30
0.0
 10
2.927559
 20
5.273611
 30
0.0
 10
2.905630
 20
5.297864
 30
0.0
  0
SPLINE
  5
29f
100
AcDbEntity
  8
Capa_1
 62
7
100
AcDbSpline
 70
8
 71
3
 72
8
 73
4
 74
0
 40
0
 40
0
 40
0
 40
0
 40
1
 40
1
 40
1
 40
1
 10
2.905630
 20
5.297864
 30
0.0
 10
2.883914
 20
5.322315
 30
0.0
 10
2.853469
 20
5.334540
 30
0.0
 10
2.814294
 20
5.334540
 30
0.0
  0
SPLINE
  5
2a0
100
AcDbEntity
  8
Capa_1
 62
7
100
AcDbSpline
 70
8
 71
3
 72
8
 73
4
 74
0
 40
0
 40
0
 40
0
 40
0
 40
1
 40
1
 40
1
 40
1
 10
2.814294
 20
5.334540
 30
0.0
 10
2.783849
 20
5.334540
 30
0.0
 10
2.756384
 20
5.327218
 30
0.0
 10
2.731901
 20
5.312575
 30
0.0
  0
SPLINE
  5
2a1
100
AcDbEntity
  8
Capa_1
 62
7
100
AcDbSpline
 70
8
 71
3
 72
8
 73
4
 74
0
 40
0
 40
0
 40
0
 40
0
 40
1
 40
1
 40
1
 40
1
 10
2.731901
 20
5.312575
 30
0.0
 10
2.707417
 20
5.298137
 30
0.0
 10
2.686339
 20
5.278488
 30
0.0
 10
2.668668
 20
5.253629
 30
0.0
  0
SPLINE
  5
2a2
100
AcDbEntity
  8
Capa_1
 62
7
100
AcDbSpline
 70
8
 71
3
 72
8
 73
4
 74
0
 40
0
 40
0
 40
0
 40
0
 40
1
 40
1
 40
1
 40
1
 10
2.668668
 20
5.253629
 30
0.0
 10
2.651636
 20
5.229178
 30
0.0
 10
2.638542
 20
5.200743
 30
0.0
 10
2.629388
 20
5.168324
 30
0.0
  0
SPLINE
  5
2a3
100
AcDbEntity
  8
Capa_1
 62
7
100
AcDbSpline
 70
8
 71
3
 72
8
 73
4
 74
0
 40
0
 40
0
 40
0
 40
0
 40
1
 40
1
 40
1
 40
1
 10
2.629388
 20
5.168324
 30
0.0
 10
2.620233
 20
5.136110
 30
0.0
 10
2.615655
 20
5.102874
 30
0.0
 10
2.615655
 20
5.068616
 30
0.0
  0
SPLINE
  5
2a4
100
AcDbEntity
  8
Capa_1
 62
7
100
AcDbSpline
 70
8
 71
3
 72
8
 73
4
 74
0
 40
0
 40
0
 40
0
 40
0
 40
1
 40
1
 40
1
 40
1
 10
2.615655
 20
5.068616
 30
0.0
 10
2.615655
 20
5.022848
 30
0.0
 10
2.626513
 20
4.987629
 30
0.0
 10
2.648230
 20
4.962961
 30
0.0
  0
SPLINE
  5
2a5
100
AcDbEntity
  8
Capa_1
 62
7
100
AcDbSpline
 70
8
 71
3
 72
8
 73
4
 74
0
 40
0
 40
0
 40
0
 40
0
 40
1
 40
1
 40
1
 40
1
 10
2.648230
 20
4.962961
 30
0.0
 10
2.670158
 20
4.938511
 30
0.0
 10
2.700817
 20
4.926285
 30
0.0
 10
2.740204
 20
4.926285
 30
0.0
  0
SPLINE
  5
2a6
100
AcDbEntity
  8
Capa_1
 62
7
100
AcDbSpline
 70
8
 71
3
 72
8
 73
4
 74
0
 40
0
 40
0
 40
0
 40
0
 40
1
 40
1
 40
1
 40
1
 10
2.740204
 20
4.926285
 30
0.0
 10
2.770224
 20
4.926285
 30
0.0
 10
2.797475
 20
4.933505
 30
0.0
 10
2.821959
 20
4.947943
 30
0.0
  0
SPLINE
  5
2a7
100
AcDbEntity
  8
Capa_1
 62
7
100
AcDbSpline
 70
8
 71
3
 72
8
 73
4
 74
0
 40
0
 40
0
 40
0
 40
0
 40
1
 40
1
 40
1
 40
1
 10
2.821959
 20
4.947943
 30
0.0
 10
2.846656
 20
4.962382
 30
0.0
 10
2.867414
 20
4.981588
 30
0.0
 10
2.884233
 20
5.005562
 30
0.0
  0
LWPOLYLINE
  5
2a8
100
AcDbEntity
  8
Capa_1
 62
7
100
AcDbPolyline
 90
1
 70
1
 10
3.005269
 20
5.202824
 30
0.0
  0
LWPOLYLINE
  5
2a9
100
AcDbEntity
  8
Capa_1
 62
7
100
AcDbPolyline
 90
1
 70
1
 10
2.884233
 20
5.005562
 30
0.0
  0
LWPOLYLINE
  5
2aa
100
AcDbEntity
  8
Capa_1
 62
7
100
AcDbPolyline
 90
11
 70
1
 10
3.396160
 20
5.022858
 30
0.0
 10
3.325582
 20
5.022858
 30
0.0
 10
3.294285
 20
4.882203
 30
0.0
 10
3.232330
 20
4.882203
 30
0.0
 10
3.263626
 20
5.022858
 30
0.0
 10
3.036246
 20
5.022858
 30
0.0
 10
3.052852
 20
5.098559
 30
0.0
 10
3.344743
 20
5.378540
 30
0.0
 10
3.404144
 20
5.378540
 30
0.0
 10
3.336760
 20
5.073560
 30
0.0
 10
3.407337
 20
5.073560
 30
0.0
  0
LWPOLYLINE
  5
2ab
100
AcDbEntity
  8
Capa_1
 62
7
100
AcDbPolyline
 90
3
 70
1
 10
3.274804
 20
5.073530
 30
0.0
 10
3.324624
 20
5.297844
 30
0.0
 10
3.091494
 20
5.073530
 30
0.0
  0
SPLINE
  5
2ac
100
AcDbEntity
  8
Capa_1
 62
7
100
AcDbSpline
 70
8
 71
3
 72
8
 73
4
 74
0
 40
0
 40
0
 40
0
 40
0
 40
1
 40
1
 40
1
 40
1
 10
3.005268
 20
3.496323
 30
0.0
 10
3.005268
 20
3.453211
 30
0.0
 10
2.998988
 20
3.411659
 30
0.0
 10
2.986426
 20
3.371666
 30
0.0
  0
SPLINE
  5
2ad
100
AcDbEntity
  8
Capa_1
 62
7
100
AcDbSpline
 70
8
 71
3
 72
8
 73
4
 74
0
 40
0
 40
0
 40
0
 40
0
 40
1
 40
1
 40
1
 40
1
 10
2.986426
 20
3.371666
 30
0.0
 10
2.974078
 20
3.331687
 30
0.0
 10
2.956087
 20
3.296469
 30
0.0
 10
2.932455
 20
3.266012
 30
0.0
  0
SPLINE
  5
2ae
100
AcDbEntity
  8
Capa_1
 62
7
100
AcDbSpline
 70
8
 71
3
 72
8
 73
4
 74
0
 40
0
 40
0
 40
0
 40
0
 40
1
 40
1
 40
1
 40
1
 10
2.932455
 20
3.266012
 30
0.0
 10
2.908184
 20
3.234682
 30
0.0
 10
2.879017
 20
3.210028
 30
0.0
 10
2.844952
 20
3.192047
 30
0.0
  0
SPLINE
  5
2af
100
AcDbEntity
  8
Capa_1
 62
7
100
AcDbSpline
 70
8
 71
3
 72
8
 73
4
 74
0
 40
0
 40
0
 40
0
 40
0
 40
1
 40
1
 40
1
 40
1
 10
2.844952
 20
3.192047
 30
0.0
 10
2.810887
 20
3.174271
 30
0.0
 10
2.772458
 20
3.165383
 30
0.0
 10
2.729665
 20
3.165383
 30
0.0
  0
SPLINE
  5
2b0
100
AcDbEntity
  8
Capa_1
 62
7
100
AcDbSpline
 70
8
 71
3
 72
8
 73
4
 74
0
 40
0
 40
0
 40
0
 40
0
 40
1
 40
1
 40
1
 40
1
 10
2.729665
 20
3.165383
 30
0.0
 10
2.673032
 20
3.165383
 30
0.0
 10
2.628748
 20
3.181491
 30
0.0
 10
2.596813
 20
3.213705
 30
0.0
  0
SPLINE
  5
2b1
100
AcDbEntity
  8
Capa_1
 62
7
100
AcDbSpline
 70
8
 71
3
 72
8
 73
4
 74
0
 40
0
 40
0
 40
0
 40
0
 40
1
 40
1
 40
1
 40
1
 10
2.596813
 20
3.213705
 30
0.0
 10
2.564877
 20
3.246124
 30
0.0
 10
2.548910
 20
3.292120
 30
0.0
 10
2.548910
 20
3.351694
 30
0.0
  0
SPLINE
  5
2b2
100
AcDbEntity
  8
Capa_1
 62
7
100
AcDbSpline
 70
8
 71
3
 72
8
 73
4
 74
0
 40
0
 40
0
 40
0
 40
0
 40
1
 40
1
 40
1
 40
1
 10
2.548910
 20
3.351694
 30
0.0
 10
2.548910
 20
3.397053
 30
0.0
 10
2.555297
 20
3.439382
 30
0.0
 10
2.568071
 20
3.478679
 30
0.0
  0
SPLINE
  5
2b3
100
AcDbEntity
  8
Capa_1
 62
7
100
AcDbSpline
 70
8
 71
3
 72
8
 73
4
 74
0
 40
0
 40
0
 40
0
 40
0
 40
1
 40
1
 40
1
 40
1
 10
2.568071
 20
3.478679
 30
0.0
 10
2.580845
 20
3.517977
 30
0.0
 10
2.599261
 20
3.553086
 30
0.0
 10
2.623319
 20
3.584007
 30
0.0
  0
SPLINE
  5
2b4
100
AcDbEntity
  8
Capa_1
 62
7
100
AcDbSpline
 70
8
 71
3
 72
8
 73
4
 74
0
 40
0
 40
0
 40
0
 40
0
 40
1
 40
1
 40
1
 40
1
 10
2.623319
 20
3.584007
 30
0.0
 10
2.646738
 20
3.613770
 30
0.0
 10
2.675693
 20
3.637539
 30
0.0
 10
2.710184
 20
3.655315
 30
0.0
  0
SPLINE
  5
2b5
100
AcDbEntity
  8
Capa_1
 62
7
100
AcDbSpline
 70
8
 71
3
 72
8
 73
4
 74
0
 40
0
 40
0
 40
0
 40
0
 40
1
 40
1
 40
1
 40
1
 10
2.710184
 20
3.655315
 30
0.0
 10
2.744888
 20
3.673295
 30
0.0
 10
2.782891
 20
3.682286
 30
0.0
 10
2.824194
 20
3.682286
 30
0.0
  0
SPLINE
  5
2b6
100
AcDbEntity
  8
Capa_1
 62
7
100
AcDbSpline
 70
8
 71
3
 72
8
 73
4
 74
0
 40
0
 40
0
 40
0
 40
0
 40
1
 40
1
 40
1
 40
1
 10
2.824194
 20
3.682286
 30
0.0
 10
2.880614
 20
3.682286
 30
0.0
 10
2.924898
 20
3.666178
 30
0.0
 10
2.957046
 20
3.633964
 30
0.0
  0
SPLINE
  5
2b7
100
AcDbEntity
  8
Capa_1
 62
7
100
AcDbSpline
 70
8
 71
3
 72
8
 73
4
 74
0
 40
0
 40
0
 40
0
 40
0
 40
1
 40
1
 40
1
 40
1
 10
2.957046
 20
3.633964
 30
0.0
 10
2.989195
 20
3.601953
 30
0.0
 10
3.005269
 20
3.556069
 30
0.0
 10
3.005269
 20
3.496312
 30
0.0
  0
LWPOLYLINE
  5
2b8
100
AcDbEntity
  8
Capa_1
 62
7
100
AcDbPolyline
 90
12
 70
1
 10
2.420847
 20
3.175681
 30
0.0
 10
2.232427
 20
3.175681
 30
0.0
 10
2.242965
 20
3.224003
 30
0.0
 10
2.305240
 20
3.224003
 30
0.0
 10
2.394021
 20
3.623635
 30
0.0
 10
2.331746
 20
3.623635
 30
0.0
 10
2.342284
 20
3.671957
 30
0.0
 10
2.530705
 20
3.671957
 30
0.0
 10
2.520165
 20
3.623635
 30
0.0
 10
2.457891
 20
3.623635
 30
0.0
 10
2.369110
 20
3.224003
 30
0.0
 10
2.431384
 20
3.224003
 30
0.0
  0
SPLINE
  5
2b9
100
AcDbEntity
  8
Capa_1
 62
7
100
AcDbSpline
 70
8
 71
3
 72
8
 73
4
 74
0
 40
0
 40
0
 40
0
 40
0
 40
1
 40
1
 40
1
 40
1
 10
2.884232
 20
3.299009
 30
0.0
 10
2.902116
 20
3.324345
 30
0.0
 10
2.915636
 20
3.352576
 30
0.0
 10
2.924791
 20
3.383701
 30
0.0
  0
SPLINE
  5
2ba
100
AcDbEntity
  8
Capa_1
 62
7
100
AcDbSpline
 70
8
 71
3
 72
8
 73
4
 74
0
 40
0
 40
0
 40
0
 40
0
 40
1
 40
1
 40
1
 40
1
 10
2.924791
 20
3.383701
 30
0.0
 10
2.933946
 20
3.415030
 30
0.0
 10
2.938523
 20
3.449472
 30
0.0
 10
2.938523
 20
3.487026
 30
0.0
  0
SPLINE
  5
2bb
100
AcDbEntity
  8
Capa_1
 62
7
100
AcDbSpline
 70
8
 71
3
 72
8
 73
4
 74
0
 40
0
 40
0
 40
0
 40
0
 40
1
 40
1
 40
1
 40
1
 10
2.938523
 20
3.487026
 30
0.0
 10
2.938523
 20
3.532385
 30
0.0
 10
2.927559
 20
3.567157
 30
0.0
 10
2.905630
 20
3.591342
 30
0.0
  0
SPLINE
  5
2bc
100
AcDbEntity
  8
Capa_1
 62
7
100
AcDbSpline
 70
8
 71
3
 72
8
 73
4
 74
0
 40
0
 40
0
 40
0
 40
0
 40
1
 40
1
 40
1
 40
1
 10
2.905630
 20
3.591342
 30
0.0
 10
2.883914
 20
3.615793
 30
0.0
 10
2.853469
 20
3.628018
 30
0.0
 10
2.814294
 20
3.628018
 30
0.0
  0
SPLINE
  5
2bd
100
AcDbEntity
  8
Capa_1
 62
7
100
AcDbSpline
 70
8
 71
3
 72
8
 73
4
 74
0
 40
0
 40
0
 40
0
 40
0
 40
1
 40
1
 40
1
 40
1
 10
2.814294
 20
3.628018
 30
0.0
 10
2.783849
 20
3.628018
 30
0.0
 10
2.756384
 20
3.620696
 30
0.0
 10
2.731901
 20
3.606053
 30
0.0
  0
SPLINE
  5
2be
100
AcDbEntity
  8
Capa_1
 62
7
100
AcDbSpline
 70
8
 71
3
 72
8
 73
4
 74
0
 40
0
 40
0
 40
0
 40
0
 40
1
 40
1
 40
1
 40
1
 10
2.731901
 20
3.606053
 30
0.0
 10
2.707417
 20
3.591615
 30
0.0
 10
2.686339
 20
3.571966
 30
0.0
 10
2.668668
 20
3.547107
 30
0.0
  0
SPLINE
  5
2bf
100
AcDbEntity
  8
Capa_1
 62
7
100
AcDbSpline
 70
8
 71
3
 72
8
 73
4
 74
0
 40
0
 40
0
 40
0
 40
0
 40
1
 40
1
 40
1
 40
1
 10
2.668668
 20
3.547107
 30
0.0
 10
2.651636
 20
3.522656
 30
0.0
 10
2.638542
 20
3.494221
 30
0.0
 10
2.629388
 20
3.461802
 30
0.0
  0
SPLINE
  5
2c0
100
AcDbEntity
  8
Capa_1
 62
7
100
AcDbSpline
 70
8
 71
3
 72
8
 73
4
 74
0
 40
0
 40
0
 40
0
 40
0
 40
1
 40
1
 40
1
 40
1
 10
2.629388
 20
3.461802
 30
0.0
 10
2.620233
 20
3.429588
 30
0.0
 10
2.615655
 20
3.396352
 30
0.0
 10
2.615655
 20
3.362094
 30
0.0
  0
SPLINE
  5
2c1
100
AcDbEntity
  8
Capa_1
 62
7
100
AcDbSpline
 70
8
 71
3
 72
8
 73
4
 74
0
 40
0
 40
0
 40
0
 40
0
 40
1
 40
1
 40
1
 40
1
 10
2.615655
 20
3.362094
 30
0.0
 10
2.615655
 20
3.316326
 30
0.0
 10
2.626513
 20
3.281108
 30
0.0
 10
2.648230
 20
3.256439
 30
0.0
  0
SPLINE
  5
2c2
100
AcDbEntity
  8
Capa_1
 62
7
100
AcDbSpline
 70
8
 71
3
 72
8
 73
4
 74
0
 40
0
 40
0
 40
0
 40
0
 40
1
 40
1
 40
1
 40
1
 10
2.648230
 20
3.256439
 30
0.0
 10
2.670158
 20
3.231989
 30
0.0
 10
2.700817
 20
3.219763
 30
0.0
 10
2.740204
 20
3.219763
 30
0.0
  0
SPLINE
  5
2c3
100
AcDbEntity
  8
Capa_1
 62
7
100
AcDbSpline
 70
8
 71
3
 72
8
 73
4
 74
0
 40
0
 40
0
 40
0
 40
0
 40
1
 40
1
 40
1
 40
1
 10
2.740204
 20
3.219763
 30
0.0
 10
2.770224
 20
3.219763
 30
0.0
 10
2.797475
 20
3.226983
 30
0.0
 10
2.821959
 20
3.241422
 30
0.0
  0
SPLINE
  5
2c4
100
AcDbEntity
  8
Capa_1
 62
7
100
AcDbSpline
 70
8
 71
3
 72
8
 73
4
 74
0
 40
0
 40
0
 40
0
 40
0
 40
1
 40
1
 40
1
 40
1
 10
2.821959
 20
3.241422
 30
0.0
 10
2.846656
 20
3.255860
 30
0.0
 10
2.867414
 20
3.275066
 30
0.0
 10
2.884233
 20
3.299040
 30
0.0
  0
LWPOLYLINE
  5
2c5
100
AcDbEntity
  8
Capa_1
 62
7
100
AcDbPolyline
 90
1
 70
1
 10
3.005269
 20
3.496312
 30
0.0
  0
SPLINE
  5
2c6
100
AcDbEntity
  8
Capa_1
 62
7
100
AcDbSpline
 70
8
 71
3
 72
8
 73
4
 74
0
 40
0
 40
0
 40
0
 40
0
 40
1
 40
1
 40
1
 40
1
 10
3.333566
 20
3.224013
 30
0.0
 10
3.314831
 20
3.205556
 30
0.0
 10
3.293008
 20
3.191118
 30
0.0
 10
3.268098
 20
3.180697
 30
0.0
  0
SPLINE
  5
2c7
100
AcDbEntity
  8
Capa_1
 62
7
100
AcDbSpline
 70
8
 71
3
 72
8
 73
4
 74
0
 40
0
 40
0
 40
0
 40
0
 40
1
 40
1
 40
1
 40
1
 10
3.268098
 20
3.180697
 30
0.0
 10
3.243189
 20
3.170481
 30
0.0
 10
3.213915
 20
3.165373
 30
0.0
 10
3.180276
 20
3.165373
 30
0.0
  0
SPLINE
  5
2c8
100
AcDbEntity
  8
Capa_1
 62
7
100
AcDbSpline
 70
8
 71
3
 72
8
 73
4
 74
0
 40
0
 40
0
 40
0
 40
0
 40
1
 40
1
 40
1
 40
1
 10
3.180276
 20
3.165373
 30
0.0
 10
3.154302
 20
3.165373
 30
0.0
 10
3.129818
 20
3.168778
 30
0.0
 10
3.106824
 20
3.175589
 30
0.0
  0
SPLINE
  5
2c9
100
AcDbEntity
  8
Capa_1
 62
7
100
AcDbSpline
 70
8
 71
3
 72
8
 73
4
 74
0
 40
0
 40
0
 40
0
 40
0
 40
1
 40
1
 40
1
 40
1
 10
3.106824
 20
3.175589
 30
0.0
 10
3.083830
 20
3.182400
 30
0.0
 10
3.064775
 20
3.189721
 30
0.0
 10
3.049659
 20
3.197554
 30
0.0
  0
LWPOLYLINE
  5
2ca
100
AcDbEntity
  8
Capa_1
 62
7
100
AcDbPolyline
 90
1
 70
1
 10
2.884233
 20
3.299040
 30
0.0
  0
SPLINE
  5
2cb
100
AcDbEntity
  8
Capa_1
 62
7
100
AcDbSpline
 70
8
 71
3
 72
8
 73
4
 74
0
 40
0
 40
0
 40
0
 40
0
 40
1
 40
1
 40
1
 40
1
 10
3.066907
 20
3.262221
 30
0.0
 10
3.080107
 20
3.251801
 30
0.0
 10
3.097884
 20
3.242232
 30
0.0
 10
3.120239
 20
3.233514
 30
0.0
  0
SPLINE
  5
2cc
100
AcDbEntity
  8
Capa_1
 62
7
100
AcDbSpline
 70
8
 71
3
 72
8
 73
4
 74
0
 40
0
 40
0
 40
0
 40
0
 40
1
 40
1
 40
1
 40
1
 10
3.120239
 20
3.233514
 30
0.0
 10
3.142594
 20
3.225069
 30
0.0
 10
3.165801
 20
3.220846
 30
0.0
 10
3.189859
 20
3.220846
 30
0.0
  0
SPLINE
  5
2cd
100
AcDbEntity
  8
Capa_1
 62
7
100
AcDbSpline
 70
8
 71
3
 72
8
 73
4
 74
0
 40
0
 40
0
 40
0
 40
0
 40
1
 40
1
 40
1
 40
1
 10
3.189859
 20
3.220846
 30
0.0
 10
3.229459
 20
3.220846
 30
0.0
 10
3.261395
 20
3.232833
 30
0.0
 10
3.285666
 20
3.256807
 30
0.0
  0
SPLINE
  5
2ce
100
AcDbEntity
  8
Capa_1
 62
7
100
AcDbSpline
 70
8
 71
3
 72
8
 73
4
 74
0
 40
0
 40
0
 40
0
 40
0
 40
1
 40
1
 40
1
 40
1
 10
3.285666
 20
3.256807
 30
0.0
 10
3.309937
 20
3.280781
 30
0.0
 10
3.322072
 20
3.312212
 30
0.0
 10
3.322072
 20
3.351101
 30
0.0
  0
SPLINE
  5
2cf
100
AcDbEntity
  8
Capa_1
 62
7
100
AcDbSpline
 70
8
 71
3
 72
8
 73
4
 74
0
 40
0
 40
0
 40
0
 40
0
 40
1
 40
1
 40
1
 40
1
 10
3.322072
 20
3.351101
 30
0.0
 10
3.322072
 20
3.366221
 30
0.0
 10
3.319305
 20
3.378787
 30
0.0
 10
3.313772
 20
3.388798
 30
0.0
  0
SPLINE
  5
2d0
100
AcDbEntity
  8
Capa_1
 62
7
100
AcDbSpline
 70
8
 71
3
 72
8
 73
4
 74
0
 40
0
 40
0
 40
0
 40
0
 40
1
 40
1
 40
1
 40
1
 10
3.313772
 20
3.388798
 30
0.0
 10
3.308238
 20
3.398810
 30
0.0
 10
3.300786
 20
3.406915
 30
0.0
 10
3.291417
 20
3.413113
 30
0.0
  0
SPLINE
  5
2d1
100
AcDbEntity
  8
Capa_1
 62
7
100
AcDbSpline
 70
8
 71
3
 72
8
 73
4
 74
0
 40
0
 40
0
 40
0
 40
0
 40
1
 40
1
 40
1
 40
1
 10
3.291417
 20
3.413113
 30
0.0
 10
3.281836
 20
3.419242
 30
0.0
 10
3.270445
 20
3.423669
 30
0.0
 10
3.257246
 20
3.426394
 30
0.0
  0
SPLINE
  5
2d2
100
AcDbEntity
  8
Capa_1
 62
7
100
AcDbSpline
 70
8
 71
3
 72
8
 73
4
 74
0
 40
0
 40
0
 40
0
 40
0
 40
1
 40
1
 40
1
 40
1
 10
3.257246
 20
3.426394
 30
0.0
 10
3.244259
 20
3.429118
 30
0.0
 10
3.230526
 20
3.430480
 30
0.0
 10
3.216049
 20
3.430480
 30
0.0
  0
SPLINE
  5
2d3
100
AcDbEntity
  8
Capa_1
 62
7
100
AcDbSpline
 70
8
 71
3
 72
8
 73
4
 74
0
 40
0
 40
0
 40
0
 40
0
 40
1
 40
1
 40
1
 40
1
 10
3.216049
 20
3.430480
 30
0.0
 10
3.197314
 20
3.430480
 30
0.0
 10
3.178472
 20
3.429118
 30
0.0
 10
3.159523
 20
3.426394
 30
0.0
  0
SPLINE
  5
2d4
100
AcDbEntity
  8
Capa_1
 62
7
100
AcDbSpline
 70
8
 71
3
 72
8
 73
4
 74
0
 40
0
 40
0
 40
0
 40
0
 40
1
 40
1
 40
1
 40
1
 10
3.159523
 20
3.426394
 30
0.0
 10
3.140788
 20
3.423669
 30
0.0
 10
3.124821
 20
3.420945
 30
0.0
 10
3.111620
 20
3.418221
 30
0.0
  0
LWPOLYLINE
  5
2d5
100
AcDbEntity
  8
Capa_1
 62
7
100
AcDbPolyline
 90
3
 70
0
 10
3.049659
 20
3.197554
 30
0.0
 10
3.062433
 20
3.262221
 30
0.0
 10
3.066907
 20
3.262221
 30
0.0
  0
SPLINE
  5
2d6
100
AcDbEntity
  8
Capa_1
 62
7
100
AcDbSpline
 70
8
 71
3
 72
8
 73
4
 74
0
 40
0
 40
0
 40
0
 40
0
 40
1
 40
1
 40
1
 40
1
 10
3.187301
 20
3.479895
 30
0.0
 10
3.196030
 20
3.481257
 30
0.0
 10
3.204546
 20
3.482279
 30
0.0
 10
3.212849
 20
3.482960
 30
0.0
  0
SPLINE
  5
2d7
100
AcDbEntity
  8
Capa_1
 62
7
100
AcDbSpline
 70
8
 71
3
 72
8
 73
4
 74
0
 40
0
 40
0
 40
0
 40
0
 40
1
 40
1
 40
1
 40
1
 10
3.212849
 20
3.482960
 30
0.0
 10
3.221152
 20
3.483627
 30
0.0
 10
3.229562
 20
3.483961
 30
0.0
 10
3.238078
 20
3.483961
 30
0.0
  0
SPLINE
  5
2d8
100
AcDbEntity
  8
Capa_1
 62
7
100
AcDbSpline
 70
8
 71
3
 72
8
 73
4
 74
0
 40
0
 40
0
 40
0
 40
0
 40
1
 40
1
 40
1
 40
1
 10
3.238078
 20
3.483961
 30
0.0
 10
3.285982
 20
3.483961
 30
0.0
 10
3.323240
 20
3.473166
 30
0.0
 10
3.349852
 20
3.451576
 30
0.0
  0
SPLINE
  5
2d9
100
AcDbEntity
  8
Capa_1
 62
7
100
AcDbSpline
 70
8
 71
3
 72
8
 73
4
 74
0
 40
0
 40
0
 40
0
 40
0
 40
1
 40
1
 40
1
 40
1
 10
3.349852
 20
3.451576
 30
0.0
 10
3.376678
 20
3.430054
 30
0.0
 10
3.390091
 20
3.400734
 30
0.0
 10
3.390091
 20
3.363616
 30
0.0
  0
SPLINE
  5
2da
100
AcDbEntity
  8
Capa_1
 62
7
100
AcDbSpline
 70
8
 71
3
 72
8
 73
4
 74
0
 40
0
 40
0
 40
0
 40
0
 40
1
 40
1
 40
1
 40
1
 10
3.390091
 20
3.363616
 30
0.0
 10
3.390091
 20
3.336918
 30
0.0
 10
3.385194
 20
3.311582
 30
0.0
 10
3.375400
 20
3.287608
 30
0.0
  0
SPLINE
  5
2db
100
AcDbEntity
  8
Capa_1
 62
7
100
AcDbSpline
 70
8
 71
3
 72
8
 73
4
 74
0
 40
0
 40
0
 40
0
 40
0
 40
1
 40
1
 40
1
 40
1
 10
3.375400
 20
3.287608
 30
0.0
 10
3.365607
 20
3.263635
 30
0.0
 10
3.351661
 20
3.242624
 30
0.0
 10
3.333564
 20
3.224575
 30
0.0
  0
LWPOLYLINE
  5
2dc
100
AcDbEntity
  8
Capa_1
 62
7
100
AcDbPolyline
 90
6
 70
0
 10
3.111620
 20
3.418221
 30
0.0
 10
3.167827
 20
3.672539
 30
0.0
 10
3.453005
 20
3.672539
 30
0.0
 10
3.440550
 20
3.616555
 30
0.0
 10
3.217320
 20
3.616555
 30
0.0
 10
3.187301
 20
3.479895
 30
0.0
  0
LWPOLYLINE
  5
2dd
100
AcDbEntity
  8
Capa_1
 62
7
100
AcDbPolyline
 90
2
 70
0
 10
3.333564
 20
3.224575
 30
0.0
 10
3.333566
 20
3.224013
 30
0.0
  0
SPLINE
  5
2de
100
AcDbEntity
  8
Capa_1
 62
7
100
AcDbSpline
 70
8
 71
3
 72
8
 73
4
 74
0
 40
0
 40
0
 40
0
 40
0
 40
1
 40
1
 40
1
 40
1
 10
3.005268
 20
1.789801
 30
0.0
 10
3.005268
 20
1.746689
 30
0.0
 10
2.998988
 20
1.705137
 30
0.0
 10
2.986426
 20
1.665144
 30
0.0
  0
SPLINE
  5
2df
100
AcDbEntity
  8
Capa_1
 62
7
100
AcDbSpline
 70
8
 71
3
 72
8
 73
4
 74
0
 40
0
 40
0
 40
0
 40
0
 40
1
 40
1
 40
1
 40
1
 10
2.986426
 20
1.665144
 30
0.0
 10
2.974078
 20
1.625165
 30
0.0
 10
2.956087
 20
1.589947
 30
0.0
 10
2.932455
 20
1.559490
 30
0.0
  0
SPLINE
  5
2e0
100
AcDbEntity
  8
Capa_1
 62
7
100
AcDbSpline
 70
8
 71
3
 72
8
 73
4
 74
0
 40
0
 40
0
 40
0
 40
0
 40
1
 40
1
 40
1
 40
1
 10
2.932455
 20
1.559490
 30
0.0
 10
2.908184
 20
1.528160
 30
0.0
 10
2.879017
 20
1.503506
 30
0.0
 10
2.844952
 20
1.485525
 30
0.0
  0
SPLINE
  5
2e1
100
AcDbEntity
  8
Capa_1
 62
7
100
AcDbSpline
 70
8
 71
3
 72
8
 73
4
 74
0
 40
0
 40
0
 40
0
 40
0
 40
1
 40
1
 40
1
 40
1
 10
2.844952
 20
1.485525
 30
0.0
 10
2.810887
 20
1.467749
 30
0.0
 10
2.772458
 20
1.458861
 30
0.0
 10
2.729665
 20
1.458861
 30
0.0
  0
SPLINE
  5
2e2
100
AcDbEntity
  8
Capa_1
 62
7
100
AcDbSpline
 70
8
 71
3
 72
8
 73
4
 74
0
 40
0
 40
0
 40
0
 40
0
 40
1
 40
1
 40
1
 40
1
 10
2.729665
 20
1.458861
 30
0.0
 10
2.673032
 20
1.458861
 30
0.0
 10
2.628748
 20
1.474969
 30
0.0
 10
2.596813
 20
1.507183
 30
0.0
  0
SPLINE
  5
2e3
100
AcDbEntity
  8
Capa_1
 62
7
100
AcDbSpline
 70
8
 71
3
 72
8
 73
4
 74
0
 40
0
 40
0
 40
0
 40
0
 40
1
 40
1
 40
1
 40
1
 10
2.596813
 20
1.507183
 30
0.0
 10
2.564877
 20
1.539602
 30
0.0
 10
2.548910
 20
1.585598
 30
0.0
 10
2.548910
 20
1.645172
 30
0.0
  0
SPLINE
  5
2e4
100
AcDbEntity
  8
Capa_1
 62
7
100
AcDbSpline
 70
8
 71
3
 72
8
 73
4
 74
0
 40
0
 40
0
 40
0
 40
0
 40
1
 40
1
 40
1
 40
1
 10
2.548910
 20
1.645172
 30
0.0
 10
2.548910
 20
1.690463
 30
0.0
 10
2.555297
 20
1.732791
 30
0.0
 10
2.568071
 20
1.772157
 30
0.0
  0
SPLINE
  5
2e5
100
AcDbEntity
  8
Capa_1
 62
7
100
AcDbSpline
 70
8
 71
3
 72
8
 73
4
 74
0
 40
0
 40
0
 40
0
 40
0
 40
1
 40
1
 40
1
 40
1
 10
2.568071
 20
1.772157
 30
0.0
 10
2.580845
 20
1.811455
 30
0.0
 10
2.599261
 20
1.846564
 30
0.0
 10
2.623319
 20
1.877485
 30
0.0
  0
SPLINE
  5
2e6
100
AcDbEntity
  8
Capa_1
 62
7
100
AcDbSpline
 70
8
 71
3
 72
8
 73
4
 74
0
 40
0
 40
0
 40
0
 40
0
 40
1
 40
1
 40
1
 40
1
 10
2.623319
 20
1.877485
 30
0.0
 10
2.646738
 20
1.907248
 30
0.0
 10
2.675693
 20
1.931017
 30
0.0
 10
2.710184
 20
1.948793
 30
0.0
  0
SPLINE
  5
2e7
100
AcDbEntity
  8
Capa_1
 62
7
100
AcDbSpline
 70
8
 71
3
 72
8
 73
4
 74
0
 40
0
 40
0
 40
0
 40
0
 40
1
 40
1
 40
1
 40
1
 10
2.710184
 20
1.948793
 30
0.0
 10
2.744888
 20
1.966773
 30
0.0
 10
2.782891
 20
1.975764
 30
0.0
 10
2.824194
 20
1.975764
 30
0.0
  0
SPLINE
  5
2e8
100
AcDbEntity
  8
Capa_1
 62
7
100
AcDbSpline
 70
8
 71
3
 72
8
 73
4
 74
0
 40
0
 40
0
 40
0
 40
0
 40
1
 40
1
 40
1
 40
1
 10
2.824194
 20
1.975764
 30
0.0
 10
2.880614
 20
1.975764
 30
0.0
 10
2.924898
 20
1.959656
 30
0.0
 10
2.957046
 20
1.927442
 30
0.0
  0
SPLINE
  5
2e9
100
AcDbEntity
  8
Capa_1
 62
7
100
AcDbSpline
 70
8
 71
3
 72
8
 73
4
 74
0
 40
0
 40
0
 40
0
 40
0
 40
1
 40
1
 40
1
 40
1
 10
2.957046
 20
1.927442
 30
0.0
 10
2.989195
 20
1.895431
 30
0.0
 10
3.005269
 20
1.849547
 30
0.0
 10
3.005269
 20
1.789790
 30
0.0
  0
LWPOLYLINE
  5
2ea
100
AcDbEntity
  8
Capa_1
 62
7
100
AcDbPolyline
 90
12
 70
1
 10
2.420847
 20
1.469159
 30
0.0
 10
2.232427
 20
1.469159
 30
0.0
 10
2.242965
 20
1.517481
 30
0.0
 10
2.305240
 20
1.517481
 30
0.0
 10
2.394021
 20
1.917113
 30
0.0
 10
2.331746
 20
1.917113
 30
0.0
 10
2.342284
 20
1.965435
 30
0.0
 10
2.530705
 20
1.965435
 30
0.0
 10
2.520165
 20
1.917113
 30
0.0
 10
2.457891
 20
1.917113
 30
0.0
 10
2.369110
 20
1.517481
 30
0.0
 10
2.431384
 20
1.517481
 30
0.0
  0
SPLINE
  5
2eb
100
AcDbEntity
  8
Capa_1
 62
7
100
AcDbSpline
 70
8
 71
3
 72
8
 73
4
 74
0
 40
0
 40
0
 40
0
 40
0
 40
1
 40
1
 40
1
 40
1
 10
2.884232
 20
1.592487
 30
0.0
 10
2.902116
 20
1.617823
 30
0.0
 10
2.915636
 20
1.646054
 30
0.0
 10
2.924791
 20
1.677179
 30
0.0
  0
SPLINE
  5
2ec
100
AcDbEntity
  8
Capa_1
 62
7
100
AcDbSpline
 70
8
 71
3
 72
8
 73
4
 74
0
 40
0
 40
0
 40
0
 40
0
 40
1
 40
1
 40
1
 40
1
 10
2.924791
 20
1.677179
 30
0.0
 10
2.933946
 20
1.708508
 30
0.0
 10
2.938523
 20
1.742950
 30
0.0
 10
2.938523
 20
1.780504
 30
0.0
  0
SPLINE
  5
2ed
100
AcDbEntity
  8
Capa_1
 62
7
100
AcDbSpline
 70
8
 71
3
 72
8
 73
4
 74
0
 40
0
 40
0
 40
0
 40
0
 40
1
 40
1
 40
1
 40
1
 10
2.938523
 20
1.780504
 30
0.0
 10
2.938523
 20
1.825863
 30
0.0
 10
2.927559
 20
1.860635
 30
0.0
 10
2.905630
 20
1.884820
 30
0.0
  0
SPLINE
  5
2ee
100
AcDbEntity
  8
Capa_1
 62
7
100
AcDbSpline
 70
8
 71
3
 72
8
 73
4
 74
0
 40
0
 40
0
 40
0
 40
0
 40
1
 40
1
 40
1
 40
1
 10
2.905630
 20
1.884820
 30
0.0
 10
2.883914
 20
1.909271
 30
0.0
 10
2.853469
 20
1.921496
 30
0.0
 10
2.814294
 20
1.921496
 30
0.0
  0
SPLINE
  5
2ef
100
AcDbEntity
  8
Capa_1
 62
7
100
AcDbSpline
 70
8
 71
3
 72
8
 73
4
 74
0
 40
0
 40
0
 40
0
 40
0
 40
1
 40
1
 40
1
 40
1
 10
2.814294
 20
1.921496
 30
0.0
 10
2.783849
 20
1.921496
 30
0.0
 10
2.756384
 20
1.914174
 30
0.0
 10
2.731901
 20
1.899531
 30
0.0
  0
SPLINE
  5
2f0
100
AcDbEntity
  8
Capa_1
 62
7
100
AcDbSpline
 70
8
 71
3
 72
8
 73
4
 74
0
 40
0
 40
0
 40
0
 40
0
 40
1
 40
1
 40
1
 40
1
 10
2.731901
 20
1.899531
 30
0.0
 10
2.707417
 20
1.885093
 30
0.0
 10
2.686339
 20
1.865444
 30
0.0
 10
2.668668
 20
1.840585
 30
0.0
  0
SPLINE
  5
2f1
100
AcDbEntity
  8
Capa_1
 62
7
100
AcDbSpline
 70
8
 71
3
 72
8
 73
4
 74
0
 40
0
 40
0
 40
0
 40
0
 40
1
 40
1
 40
1
 40
1
 10
2.668668
 20
1.840585
 30
0.0
 10
2.651636
 20
1.816134
 30
0.0
 10
2.638542
 20
1.787699
 30
0.0
 10
2.629388
 20
1.755280
 30
0.0
  0
SPLINE
  5
2f2
100
AcDbEntity
  8
Capa_1
 62
7
100
AcDbSpline
 70
8
 71
3
 72
8
 73
4
 74
0
 40
0
 40
0
 40
0
 40
0
 40
1
 40
1
 40
1
 40
1
 10
2.629388
 20
1.755280
 30
0.0
 10
2.620233
 20
1.723066
 30
0.0
 10
2.615655
 20
1.689864
 30
0.0
 10
2.615655
 20
1.655674
 30
0.0
  0
SPLINE
  5
2f3
100
AcDbEntity
  8
Capa_1
 62
7
100
AcDbSpline
 70
8
 71
3
 72
8
 73
4
 74
0
 40
0
 40
0
 40
0
 40
0
 40
1
 40
1
 40
1
 40
1
 10
2.615655
 20
1.655674
 30
0.0
 10
2.615655
 20
1.609906
 30
0.0
 10
2.626513
 20
1.574688
 30
0.0
 10
2.648230
 20
1.550019
 30
0.0
  0
SPLINE
  5
2f4
100
AcDbEntity
  8
Capa_1
 62
7
100
AcDbSpline
 70
8
 71
3
 72
8
 73
4
 74
0
 40
0
 40
0
 40
0
 40
0
 40
1
 40
1
 40
1
 40
1
 10
2.648230
 20
1.550019
 30
0.0
 10
2.670158
 20
1.525569
 30
0.0
 10
2.700817
 20
1.513344
 30
0.0
 10
2.740204
 20
1.513344
 30
0.0
  0
SPLINE
  5
2f5
100
AcDbEntity
  8
Capa_1
 62
7
100
AcDbSpline
 70
8
 71
3
 72
8
 73
4
 74
0
 40
0
 40
0
 40
0
 40
0
 40
1
 40
1
 40
1
 40
1
 10
2.740204
 20
1.513344
 30
0.0
 10
2.770224
 20
1.513344
 30
0.0
 10
2.797475
 20
1.520563
 30
0.0
 10
2.821959
 20
1.535002
 30
0.0
  0
SPLINE
  5
2f6
100
AcDbEntity
  8
Capa_1
 62
7
100
AcDbSpline
 70
8
 71
3
 72
8
 73
4
 74
0
 40
0
 40
0
 40
0
 40
0
 40
1
 40
1
 40
1
 40
1
 10
2.821959
 20
1.535002
 30
0.0
 10
2.846656
 20
1.549440
 30
0.0
 10
2.867414
 20
1.568647
 30
0.0
 10
2.884233
 20
1.592620
 30
0.0
  0
LWPOLYLINE
  5
2f7
100
AcDbEntity
  8
Capa_1
 62
7
100
AcDbPolyline
 90
1
 70
1
 10
3.005269
 20
1.789790
 30
0.0
  0
SPLINE
  5
2f8
100
AcDbEntity
  8
Capa_1
 62
7
100
AcDbSpline
 70
8
 71
3
 72
8
 73
4
 74
0
 40
0
 40
0
 40
0
 40
0
 40
1
 40
1
 40
1
 40
1
 10
3.210933
 20
1.458831
 30
0.0
 10
3.164307
 20
1.458831
 30
0.0
 10
3.128114
 20
1.473814
 30
0.0
 10
3.102352
 20
1.503781
 30
0.0
  0
SPLINE
  5
2f9
100
AcDbEntity
  8
Capa_1
 62
7
100
AcDbSpline
 70
8
 71
3
 72
8
 73
4
 74
0
 40
0
 40
0
 40
0
 40
0
 40
1
 40
1
 40
1
 40
1
 10
3.102352
 20
1.503781
 30
0.0
 10
3.076591
 20
1.534021
 30
0.0
 10
3.063710
 20
1.575239
 30
0.0
 10
3.063710
 20
1.627437
 30
0.0
  0
SPLINE
  5
2fa
100
AcDbEntity
  8
Capa_1
 62
7
100
AcDbSpline
 70
8
 71
3
 72
8
 73
4
 74
0
 40
0
 40
0
 40
0
 40
0
 40
1
 40
1
 40
1
 40
1
 10
3.063710
 20
1.627437
 30
0.0
 10
3.063710
 20
1.675452
 30
0.0
 10
3.070204
 20
1.720117
 30
0.0
 10
3.083191
 20
1.761431
 30
0.0
  0
SPLINE
  5
2fb
100
AcDbEntity
  8
Capa_1
 62
7
100
AcDbSpline
 70
8
 71
3
 72
8
 73
4
 74
0
 40
0
 40
0
 40
0
 40
0
 40
1
 40
1
 40
1
 40
1
 10
3.083191
 20
1.761431
 30
0.0
 10
3.096179
 20
1.802976
 30
0.0
 10
3.115234
 20
1.839863
 30
0.0
 10
3.140356
 20
1.872091
 30
0.0
  0
SPLINE
  5
2fc
100
AcDbEntity
  8
Capa_1
 62
7
100
AcDbSpline
 70
8
 71
3
 72
8
 73
4
 74
0
 40
0
 40
0
 40
0
 40
0
 40
1
 40
1
 40
1
 40
1
 10
3.140356
 20
1.872091
 30
0.0
 10
3.165053
 20
1.903420
 30
0.0
 10
3.195712
 20
1.928313
 30
0.0
 10
3.232331
 20
1.946770
 30
0.0
  0
SPLINE
  5
2fd
100
AcDbEntity
  8
Capa_1
 62
7
100
AcDbSpline
 70
8
 71
3
 72
8
 73
4
 74
0
 40
0
 40
0
 40
0
 40
0
 40
1
 40
1
 40
1
 40
1
 10
3.232331
 20
1.946770
 30
0.0
 10
3.269163
 20
1.965432
 30
0.0
 10
3.310360
 20
1.974762
 30
0.0
 10
3.355922
 20
1.974762
 30
0.0
  0
SPLINE
  5
2fe
100
AcDbEntity
  8
Capa_1
 62
7
100
AcDbSpline
 70
8
 71
3
 72
8
 73
4
 74
0
 40
0
 40
0
 40
0
 40
0
 40
1
 40
1
 40
1
 40
1
 10
3.355922
 20
1.974762
 30
0.0
 10
3.369335
 20
1.974762
 30
0.0
 10
3.380512
 20
1.974081
 30
0.0
 10
3.389454
 20
1.972719
 30
0.0
  0
SPLINE
  5
2ff
100
AcDbEntity
  8
Capa_1
 62
7
100
AcDbSpline
 70
8
 71
3
 72
8
 73
4
 74
0
 40
0
 40
0
 40
0
 40
0
 40
1
 40
1
 40
1
 40
1
 10
3.389454
 20
1.972719
 30
0.0
 10
3.398396
 20
1.971357
 30
0.0
 10
3.405848
 20
1.969654
 30
0.0
 10
3.411809
 20
1.967611
 30
0.0
  0
LWPOLYLINE
  5
300
100
AcDbEntity
  8
Capa_1
 62
7
100
AcDbPolyline
 90
2
 70
0
 10
2.884233
 20
1.592620
 30
0.0
 10
2.884232
 20
1.592487
 30
0.0
  0
SPLINE
  5
301
100
AcDbEntity
  8
Capa_1
 62
7
100
AcDbSpline
 70
8
 71
3
 72
8
 73
4
 74
0
 40
0
 40
0
 40
0
 40
0
 40
1
 40
1
 40
1
 40
1
 10
3.397441
 20
1.908664
 30
0.0
 10
3.392546
 20
1.911389
 30
0.0
 10
3.384137
 20
1.914113
 30
0.0
 10
3.372212
 20
1.916837
 30
0.0
  0
SPLINE
  5
302
100
AcDbEntity
  8
Capa_1
 62
7
100
AcDbSpline
 70
8
 71
3
 72
8
 73
4
 74
0
 40
0
 40
0
 40
0
 40
0
 40
1
 40
1
 40
1
 40
1
 10
3.372212
 20
1.916837
 30
0.0
 10
3.360502
 20
1.919562
 30
0.0
 10
3.348367
 20
1.920924
 30
0.0
 10
3.335805
 20
1.920924
 30
0.0
  0
SPLINE
  5
303
100
AcDbEntity
  8
Capa_1
 62
7
100
AcDbSpline
 70
8
 71
3
 72
8
 73
4
 74
0
 40
0
 40
0
 40
0
 40
0
 40
1
 40
1
 40
1
 40
1
 10
3.335805
 20
1.920924
 30
0.0
 10
3.290244
 20
1.920924
 30
0.0
 10
3.249686
 20
1.905361
 30
0.0
 10
3.214131
 20
1.874236
 30
0.0
  0
SPLINE
  5
304
100
AcDbEntity
  8
Capa_1
 62
7
100
AcDbSpline
 70
8
 71
3
 72
8
 73
4
 74
0
 40
0
 40
0
 40
0
 40
0
 40
1
 40
1
 40
1
 40
1
 10
3.214131
 20
1.874236
 30
0.0
 10
3.178576
 20
1.843384
 30
0.0
 10
3.154624
 20
1.803167
 30
0.0
 10
3.142275
 20
1.753585
 30
0.0
  0
SPLINE
  5
305
100
AcDbEntity
  8
Capa_1
 62
7
100
AcDbSpline
 70
8
 71
3
 72
8
 73
4
 74
0
 40
0
 40
0
 40
0
 40
0
 40
1
 40
1
 40
1
 40
1
 10
3.142275
 20
1.753585
 30
0.0
 10
3.160798
 20
1.764482
 30
0.0
 10
3.180598
 20
1.773029
 30
0.0
 10
3.201676
 20
1.779227
 30
0.0
  0
SPLINE
  5
306
100
AcDbEntity
  8
Capa_1
 62
7
100
AcDbSpline
 70
8
 71
3
 72
8
 73
4
 74
0
 40
0
 40
0
 40
0
 40
0
 40
1
 40
1
 40
1
 40
1
 10
3.201676
 20
1.779227
 30
0.0
 10
3.222753
 20
1.785357
 30
0.0
 10
3.243724
 20
1.788421
 30
0.0
 10
3.264589
 20
1.788421
 30
0.0
  0
SPLINE
  5
307
100
AcDbEntity
  8
Capa_1
 62
7
100
AcDbSpline
 70
8
 71
3
 72
8
 73
4
 74
0
 40
0
 40
0
 40
0
 40
0
 40
1
 40
1
 40
1
 40
1
 10
3.264589
 20
1.788421
 30
0.0
 10
3.284176
 20
1.788421
 30
0.0
 10
3.301954
 20
1.785697
 30
0.0
 10
3.317921
 20
1.780249
 30
0.0
  0
SPLINE
  5
308
100
AcDbEntity
  8
Capa_1
 62
7
100
AcDbSpline
 70
8
 71
3
 72
8
 73
4
 74
0
 40
0
 40
0
 40
0
 40
0
 40
1
 40
1
 40
1
 40
1
 10
3.317921
 20
1.780249
 30
0.0
 10
3.334102
 20
1.774800
 30
0.0
 10
3.348579
 20
1.766695
 30
0.0
 10
3.361354
 20
1.755934
 30
0.0
  0
SPLINE
  5
309
100
AcDbEntity
  8
Capa_1
 62
7
100
AcDbSpline
 70
8
 71
3
 72
8
 73
4
 74
0
 40
0
 40
0
 40
0
 40
0
 40
1
 40
1
 40
1
 40
1
 10
3.361354
 20
1.755934
 30
0.0
 10
3.374979
 20
1.743947
 30
0.0
 10
3.385092
 20
1.729713
 30
0.0
 10
3.391692
 20
1.713231
 30
0.0
  0
SPLINE
  5
30a
100
AcDbEntity
  8
Capa_1
 62
7
100
AcDbSpline
 70
8
 71
3
 72
8
 73
4
 74
0
 40
0
 40
0
 40
0
 40
0
 40
1
 40
1
 40
1
 40
1
 10
3.391692
 20
1.713231
 30
0.0
 10
3.398292
 20
1.696817
 30
0.0
 10
3.401592
 20
1.677918
 30
0.0
 10
3.401592
 20
1.656532
 30
0.0
  0
SPLINE
  5
30b
100
AcDbEntity
  8
Capa_1
 62
7
100
AcDbSpline
 70
8
 71
3
 72
8
 73
4
 74
0
 40
0
 40
0
 40
0
 40
0
 40
1
 40
1
 40
1
 40
1
 10
3.401592
 20
1.656532
 30
0.0
 10
3.401592
 20
1.601842
 30
0.0
 10
3.383496
 20
1.555291
 30
0.0
 10
3.347302
 20
1.516878
 30
0.0
  0
SPLINE
  5
30c
100
AcDbEntity
  8
Capa_1
 62
7
100
AcDbSpline
 70
8
 71
3
 72
8
 73
4
 74
0
 40
0
 40
0
 40
0
 40
0
 40
1
 40
1
 40
1
 40
1
 10
3.347302
 20
1.516878
 30
0.0
 10
3.311322
 20
1.478466
 30
0.0
 10
3.265867
 20
1.459260
 30
0.0
 10
3.210937
 20
1.459260
 30
0.0
  0
LWPOLYLINE
  5
30d
100
AcDbEntity
  8
Capa_1
 62
7
100
AcDbPolyline
 90
3
 70
0
 10
3.411809
 20
1.967611
 30
0.0
 10
3.400632
 20
1.908664
 30
0.0
 10
3.397441
 20
1.908664
 30
0.0
  0
SPLINE
  5
30e
100
AcDbEntity
  8
Capa_1
 62
7
100
AcDbSpline
 70
8
 71
3
 72
8
 73
4
 74
0
 40
0
 40
0
 40
0
 40
0
 40
1
 40
1
 40
1
 40
1
 10
3.335163
 20
1.648809
 30
0.0
 10
3.335163
 20
1.676801
 30
0.0
 10
3.327285
 20
1.698118
 30
0.0
 10
3.311530
 20
1.712761
 30
0.0
  0
SPLINE
  5
30f
100
AcDbEntity
  8
Capa_1
 62
7
100
AcDbSpline
 70
8
 71
3
 72
8
 73
4
 74
0
 40
0
 40
0
 40
0
 40
0
 40
1
 40
1
 40
1
 40
1
 10
3.311530
 20
1.712761
 30
0.0
 10
3.295775
 20
1.727677
 30
0.0
 10
3.272249
 20
1.735134
 30
0.0
 10
3.240952
 20
1.735134
 30
0.0
  0
SPLINE
  5
310
100
AcDbEntity
  8
Capa_1
 62
7
100
AcDbSpline
 70
8
 71
3
 72
8
 73
4
 74
0
 40
0
 40
0
 40
0
 40
0
 40
1
 40
1
 40
1
 40
1
 10
3.240952
 20
1.735134
 30
0.0
 10
3.224772
 20
1.735134
 30
0.0
 10
3.207420
 20
1.732751
 30
0.0
 10
3.188897
 20
1.727983
 30
0.0
  0
SPLINE
  5
311
100
AcDbEntity
  8
Capa_1
 62
7
100
AcDbSpline
 70
8
 71
3
 72
8
 73
4
 74
0
 40
0
 40
0
 40
0
 40
0
 40
1
 40
1
 40
1
 40
1
 10
3.188897
 20
1.727983
 30
0.0
 10
3.170587
 20
1.722535
 30
0.0
 10
3.152490
 20
1.715077
 30
0.0
 10
3.134606
 20
1.705610
 30
0.0
  0
SPLINE
  5
312
100
AcDbEntity
  8
Capa_1
 62
7
100
AcDbSpline
 70
8
 71
3
 72
8
 73
4
 74
0
 40
0
 40
0
 40
0
 40
0
 40
1
 40
1
 40
1
 40
1
 10
3.134606
 20
1.705610
 30
0.0
 10
3.132479
 20
1.696075
 30
0.0
 10
3.130668
 20
1.683850
 30
0.0
 10
3.129173
 20
1.668934
 30
0.0
  0
SPLINE
  5
313
100
AcDbEntity
  8
Capa_1
 62
7
100
AcDbSpline
 70
8
 71
3
 72
8
 73
4
 74
0
 40
0
 40
0
 40
0
 40
0
 40
1
 40
1
 40
1
 40
1
 10
3.129173
 20
1.668934
 30
0.0
 10
3.127894
 20
1.654291
 30
0.0
 10
3.127255
 20
1.639955
 30
0.0
 10
3.127255
 20
1.625925
 30
0.0
  0
SPLINE
  5
314
100
AcDbEntity
  8
Capa_1
 62
7
100
AcDbSpline
 70
8
 71
3
 72
8
 73
4
 74
0
 40
0
 40
0
 40
0
 40
0
 40
1
 40
1
 40
1
 40
1
 10
3.127255
 20
1.625925
 30
0.0
 10
3.127255
 20
1.604335
 30
0.0
 10
3.129917
 20
1.586218
 30
0.0
 10
3.135242
 20
1.571575
 30
0.0
  0
SPLINE
  5
315
100
AcDbEntity
  8
Capa_1
 62
7
100
AcDbSpline
 70
8
 71
3
 72
8
 73
4
 74
0
 40
0
 40
0
 40
0
 40
0
 40
1
 40
1
 40
1
 40
1
 10
3.135242
 20
1.571575
 30
0.0
 10
3.140776
 20
1.556932
 30
0.0
 10
3.147483
 20
1.545388
 30
0.0
 10
3.155362
 20
1.536943
 30
0.0
  0
SPLINE
  5
316
100
AcDbEntity
  8
Capa_1
 62
7
100
AcDbSpline
 70
8
 71
3
 72
8
 73
4
 74
0
 40
0
 40
0
 40
0
 40
0
 40
1
 40
1
 40
1
 40
1
 10
3.155362
 20
1.536943
 30
0.0
 10
3.163878
 20
1.527816
 30
0.0
 10
3.173565
 20
1.521278
 30
0.0
 10
3.184423
 20
1.517328
 30
0.0
  0
SPLINE
  5
317
100
AcDbEntity
  8
Capa_1
 62
7
100
AcDbSpline
 70
8
 71
3
 72
8
 73
4
 74
0
 40
0
 40
0
 40
0
 40
0
 40
1
 40
1
 40
1
 40
1
 10
3.184423
 20
1.517328
 30
0.0
 10
3.195494
 20
1.513241
 30
0.0
 10
3.206884
 20
1.511198
 30
0.0
 10
3.218593
 20
1.511198
 30
0.0
  0
SPLINE
  5
318
100
AcDbEntity
  8
Capa_1
 62
7
100
AcDbSpline
 70
8
 71
3
 72
8
 73
4
 74
0
 40
0
 40
0
 40
0
 40
0
 40
1
 40
1
 40
1
 40
1
 10
3.218593
 20
1.511198
 30
0.0
 10
3.253084
 20
1.511198
 30
0.0
 10
3.281080
 20
1.523866
 30
0.0
 10
3.302584
 20
1.549202
 30
0.0
  0
SPLINE
  5
319
100
AcDbEntity
  8
Capa_1
 62
7
100
AcDbSpline
 70
8
 71
3
 72
8
 73
4
 74
0
 40
0
 40
0
 40
0
 40
0
 40
1
 40
1
 40
1
 40
1
 10
3.302584
 20
1.549202
 30
0.0
 10
3.324300
 20
1.574538
 30
0.0
 10
3.335158
 20
1.607876
 30
0.0
 10
3.335158
 20
1.649217
 30
0.0
  0
LWPOLYLINE
  5
31a
100
AcDbEntity
  8
Capa_1
 62
7
100
AcDbPolyline
 90
2
 70
0
 10
3.210937
 20
1.459260
 30
0.0
 10
3.210933
 20
1.458831
 30
0.0
  0
LWPOLYLINE
  5
31b
100
AcDbEntity
  8
Capa_1
 62
7
100
AcDbPolyline
 90
2
 70
0
 10
3.335158
 20
1.649217
 30
0.0
 10
3.335163
 20
1.648809
 30
0.0
  0
ENDSEC
  0
SECTION
  2
OBJECTS
  0
DICTIONARY
  5
C
330
0
100
AcDbDictionary
  3
ACAD_GROUP
350
D
  3
ACAD_MLINESTYLE
350
17
  0
DICTIONARY
  5
D
330
C
100
AcDbDictionary
  0
DICTIONARY
  5
1A
330
C
100
AcDbDictionary
  0
DICTIONARY
  5
17
330
C
100
AcDbDictionary
  3
STANDARD
350
18
  0
DICTIONARY
  5
19
330
C
100
AcDbDictionary
  0
ENDSEC
  0
EOF
