G04 #@! TF.GenerationSoftware,KiCad,Pcbnew,(5.0.0)*
G04 #@! TF.CreationDate,2019-01-09T16:44:40-03:00*
G04 #@! TF.ProjectId,PCB_D,5043425F442E6B696361645F70636200,rev?*
G04 #@! TF.SameCoordinates,Original*
G04 #@! TF.FileFunction,Soldermask,Top*
G04 #@! TF.FilePolarity,Negative*
%FSLAX46Y46*%
G04 Gerber Fmt 4.6, Leading zero omitted, Abs format (unit mm)*
G04 Created by KiCad (PCBNEW (5.0.0)) date 01/09/19 16:44:40*
%MOMM*%
%LPD*%
G01*
G04 APERTURE LIST*
%ADD10C,0.100000*%
G04 APERTURE END LIST*
D10*
G36*
X962574Y-17026817D02*
X1563135Y-17275577D01*
X2103630Y-17636725D01*
X2563275Y-18096370D01*
X2924423Y-18636865D01*
X3173183Y-19237426D01*
X3300000Y-19874977D01*
X3300000Y-20525023D01*
X3173183Y-21162574D01*
X2924423Y-21763135D01*
X2563275Y-22303630D01*
X2103630Y-22763275D01*
X1563135Y-23124423D01*
X962574Y-23373183D01*
X325023Y-23500000D01*
X-325023Y-23500000D01*
X-962574Y-23373183D01*
X-1563135Y-23124423D01*
X-2103630Y-22763275D01*
X-2563275Y-22303630D01*
X-2924423Y-21763135D01*
X-3173183Y-21162574D01*
X-3300000Y-20525023D01*
X-3300000Y-19874977D01*
X-3173183Y-19237426D01*
X-2924423Y-18636865D01*
X-2563275Y-18096370D01*
X-2103630Y-17636725D01*
X-1563135Y-17275577D01*
X-962574Y-17026817D01*
X-325023Y-16900000D01*
X325023Y-16900000D01*
X962574Y-17026817D01*
X962574Y-17026817D01*
G37*
G36*
X-9879191Y-15449698D02*
X-9802062Y-15457295D01*
X-9670111Y-15497322D01*
X-9604135Y-15517335D01*
X-9421726Y-15614835D01*
X-9261844Y-15746048D01*
X-9130631Y-15905930D01*
X-9033131Y-16088339D01*
X-9033131Y-16088340D01*
X-8973091Y-16286266D01*
X-8952818Y-16492102D01*
X-8973091Y-16697938D01*
X-9013118Y-16829889D01*
X-9033131Y-16895865D01*
X-9130631Y-17078274D01*
X-9261844Y-17238156D01*
X-9421726Y-17369369D01*
X-9604135Y-17466869D01*
X-9670111Y-17486882D01*
X-9802062Y-17526909D01*
X-9879191Y-17534505D01*
X-9956318Y-17542102D01*
X-10059478Y-17542102D01*
X-10136605Y-17534505D01*
X-10213734Y-17526909D01*
X-10345685Y-17486882D01*
X-10411661Y-17466869D01*
X-10594070Y-17369369D01*
X-10753952Y-17238156D01*
X-10885165Y-17078274D01*
X-10982665Y-16895865D01*
X-11002678Y-16829889D01*
X-11042705Y-16697938D01*
X-11062978Y-16492102D01*
X-11042705Y-16286266D01*
X-10982665Y-16088340D01*
X-10982665Y-16088339D01*
X-10885165Y-15905930D01*
X-10753952Y-15746048D01*
X-10594070Y-15614835D01*
X-10411661Y-15517335D01*
X-10345685Y-15497322D01*
X-10213734Y-15457295D01*
X-10136605Y-15449698D01*
X-10059478Y-15442102D01*
X-9956318Y-15442102D01*
X-9879191Y-15449698D01*
X-9879191Y-15449698D01*
G37*
G36*
X-11675242Y-13653648D02*
X-11598113Y-13661244D01*
X-11466162Y-13701271D01*
X-11400186Y-13721284D01*
X-11217777Y-13818784D01*
X-11057895Y-13949997D01*
X-10926682Y-14109879D01*
X-10829182Y-14292288D01*
X-10829182Y-14292289D01*
X-10769142Y-14490215D01*
X-10748869Y-14696051D01*
X-10769142Y-14901887D01*
X-10809169Y-15033838D01*
X-10829182Y-15099814D01*
X-10926682Y-15282223D01*
X-11057895Y-15442105D01*
X-11217777Y-15573318D01*
X-11400186Y-15670818D01*
X-11466162Y-15690831D01*
X-11598113Y-15730858D01*
X-11675242Y-15738455D01*
X-11752369Y-15746051D01*
X-11855529Y-15746051D01*
X-11932656Y-15738455D01*
X-12009785Y-15730858D01*
X-12141736Y-15690831D01*
X-12207712Y-15670818D01*
X-12390121Y-15573318D01*
X-12550003Y-15442105D01*
X-12681216Y-15282223D01*
X-12778716Y-15099814D01*
X-12798729Y-15033838D01*
X-12838756Y-14901887D01*
X-12859029Y-14696051D01*
X-12838756Y-14490215D01*
X-12778716Y-14292289D01*
X-12778716Y-14292288D01*
X-12681216Y-14109879D01*
X-12550003Y-13949997D01*
X-12390121Y-13818784D01*
X-12207712Y-13721284D01*
X-12141736Y-13701271D01*
X-12009785Y-13661244D01*
X-11932656Y-13653648D01*
X-11855529Y-13646051D01*
X-11752369Y-13646051D01*
X-11675242Y-13653648D01*
X-11675242Y-13653648D01*
G37*
G36*
X-8083139Y-13653648D02*
X-8006010Y-13661244D01*
X-7874059Y-13701271D01*
X-7808083Y-13721284D01*
X-7625674Y-13818784D01*
X-7465792Y-13949997D01*
X-7334579Y-14109879D01*
X-7237079Y-14292288D01*
X-7237079Y-14292289D01*
X-7177039Y-14490215D01*
X-7156766Y-14696051D01*
X-7177039Y-14901887D01*
X-7217066Y-15033838D01*
X-7237079Y-15099814D01*
X-7334579Y-15282223D01*
X-7465792Y-15442105D01*
X-7625674Y-15573318D01*
X-7808083Y-15670818D01*
X-7874059Y-15690831D01*
X-8006010Y-15730858D01*
X-8083139Y-15738455D01*
X-8160266Y-15746051D01*
X-8263426Y-15746051D01*
X-8340553Y-15738455D01*
X-8417682Y-15730858D01*
X-8549633Y-15690831D01*
X-8615609Y-15670818D01*
X-8798018Y-15573318D01*
X-8957900Y-15442105D01*
X-9089113Y-15282223D01*
X-9186613Y-15099814D01*
X-9206626Y-15033838D01*
X-9246653Y-14901887D01*
X-9266926Y-14696051D01*
X-9246653Y-14490215D01*
X-9186613Y-14292289D01*
X-9186613Y-14292288D01*
X-9089113Y-14109879D01*
X-8957900Y-13949997D01*
X-8798018Y-13818784D01*
X-8615609Y-13721284D01*
X-8549633Y-13701271D01*
X-8417682Y-13661244D01*
X-8340553Y-13653648D01*
X-8263426Y-13646051D01*
X-8160266Y-13646051D01*
X-8083139Y-13653648D01*
X-8083139Y-13653648D01*
G37*
G36*
X-12115075Y-12900000D02*
X-13600000Y-14384925D01*
X-15084925Y-12900000D01*
X-13600000Y-11415075D01*
X-12115075Y-12900000D01*
X-12115075Y-12900000D01*
G37*
G36*
X-2019024Y-12796051D02*
X-3503949Y-14280976D01*
X-4988874Y-12796051D01*
X-3503949Y-11311126D01*
X-2019024Y-12796051D01*
X-2019024Y-12796051D01*
G37*
G36*
X-9879191Y-11857596D02*
X-9802062Y-11865193D01*
X-9670111Y-11905220D01*
X-9604135Y-11925233D01*
X-9421726Y-12022733D01*
X-9261844Y-12153946D01*
X-9130631Y-12313828D01*
X-9033131Y-12496237D01*
X-9033131Y-12496238D01*
X-8973091Y-12694164D01*
X-8952818Y-12900000D01*
X-8973091Y-13105836D01*
X-9013118Y-13237787D01*
X-9033131Y-13303763D01*
X-9130631Y-13486172D01*
X-9261844Y-13646054D01*
X-9421726Y-13777267D01*
X-9604135Y-13874767D01*
X-9670111Y-13894780D01*
X-9802062Y-13934807D01*
X-9879191Y-13942404D01*
X-9956318Y-13950000D01*
X-10059478Y-13950000D01*
X-10136605Y-13942404D01*
X-10213734Y-13934807D01*
X-10345685Y-13894780D01*
X-10411661Y-13874767D01*
X-10594070Y-13777267D01*
X-10753952Y-13646054D01*
X-10885165Y-13486172D01*
X-10982665Y-13303763D01*
X-11002678Y-13237787D01*
X-11042705Y-13105836D01*
X-11062978Y-12900000D01*
X-11042705Y-12694164D01*
X-10982665Y-12496238D01*
X-10982665Y-12496237D01*
X-10885165Y-12313828D01*
X-10753952Y-12153946D01*
X-10594070Y-12022733D01*
X-10411661Y-11925233D01*
X-10345685Y-11905220D01*
X-10213734Y-11865193D01*
X-10136605Y-11857596D01*
X-10059478Y-11850000D01*
X-9956318Y-11850000D01*
X-9879191Y-11857596D01*
X-9879191Y-11857596D01*
G37*
G36*
X-11675242Y-10061546D02*
X-11598113Y-10069142D01*
X-11466162Y-10109169D01*
X-11400186Y-10129182D01*
X-11217777Y-10226682D01*
X-11057895Y-10357895D01*
X-10926682Y-10517777D01*
X-10829182Y-10700186D01*
X-10829182Y-10700187D01*
X-10769142Y-10898113D01*
X-10748869Y-11103949D01*
X-10769142Y-11309785D01*
X-10797650Y-11403762D01*
X-10829182Y-11507712D01*
X-10926682Y-11690121D01*
X-11057895Y-11850003D01*
X-11217777Y-11981216D01*
X-11400186Y-12078716D01*
X-11466162Y-12098729D01*
X-11598113Y-12138756D01*
X-11675242Y-12146353D01*
X-11752369Y-12153949D01*
X-11855529Y-12153949D01*
X-11932656Y-12146353D01*
X-12009785Y-12138756D01*
X-12141736Y-12098729D01*
X-12207712Y-12078716D01*
X-12390121Y-11981216D01*
X-12550003Y-11850003D01*
X-12681216Y-11690121D01*
X-12778716Y-11507712D01*
X-12810248Y-11403762D01*
X-12838756Y-11309785D01*
X-12859029Y-11103949D01*
X-12838756Y-10898113D01*
X-12778716Y-10700187D01*
X-12778716Y-10700186D01*
X-12681216Y-10517777D01*
X-12550003Y-10357895D01*
X-12390121Y-10226682D01*
X-12207712Y-10129182D01*
X-12141736Y-10109169D01*
X-12009785Y-10069142D01*
X-11932656Y-10061546D01*
X-11855529Y-10053949D01*
X-11752369Y-10053949D01*
X-11675242Y-10061546D01*
X-11675242Y-10061546D01*
G37*
G36*
X-5171293Y-9957597D02*
X-5094164Y-9965193D01*
X-4962213Y-10005220D01*
X-4896237Y-10025233D01*
X-4713828Y-10122733D01*
X-4553946Y-10253946D01*
X-4422733Y-10413828D01*
X-4325233Y-10596237D01*
X-4325233Y-10596238D01*
X-4265193Y-10794164D01*
X-4244920Y-11000000D01*
X-4265193Y-11205836D01*
X-4297132Y-11311126D01*
X-4325233Y-11403763D01*
X-4422733Y-11586172D01*
X-4553946Y-11746054D01*
X-4713828Y-11877267D01*
X-4896237Y-11974767D01*
X-4962213Y-11994780D01*
X-5094164Y-12034807D01*
X-5171293Y-12042403D01*
X-5248420Y-12050000D01*
X-5351580Y-12050000D01*
X-5428707Y-12042403D01*
X-5505836Y-12034807D01*
X-5637787Y-11994780D01*
X-5703763Y-11974767D01*
X-5886172Y-11877267D01*
X-6046054Y-11746054D01*
X-6177267Y-11586172D01*
X-6274767Y-11403763D01*
X-6302868Y-11311126D01*
X-6334807Y-11205836D01*
X-6355080Y-11000000D01*
X-6334807Y-10794164D01*
X-6274767Y-10596238D01*
X-6274767Y-10596237D01*
X-6177267Y-10413828D01*
X-6046054Y-10253946D01*
X-5886172Y-10122733D01*
X-5703763Y-10025233D01*
X-5637787Y-10005220D01*
X-5505836Y-9965193D01*
X-5428707Y-9957597D01*
X-5351580Y-9950000D01*
X-5248420Y-9950000D01*
X-5171293Y-9957597D01*
X-5171293Y-9957597D01*
G37*
G36*
X4985098Y-2360476D02*
X4985103Y-2360482D01*
X5267946Y-2643325D01*
X5267952Y-2643330D01*
X6028086Y-3403464D01*
X4719938Y-4711612D01*
X4704392Y-4730554D01*
X4692841Y-4752165D01*
X4685728Y-4775614D01*
X4683326Y-4800000D01*
X4685728Y-4824386D01*
X4692841Y-4847835D01*
X4704392Y-4869446D01*
X4719938Y-4888388D01*
X6028086Y-6196536D01*
X1396536Y-10828086D01*
X88388Y-9519938D01*
X69446Y-9504392D01*
X47835Y-9492841D01*
X24386Y-9485728D01*
X0Y-9483326D01*
X-24386Y-9485728D01*
X-47835Y-9492841D01*
X-69446Y-9504392D01*
X-88388Y-9519938D01*
X-1396536Y-10828086D01*
X-6028086Y-6196536D01*
X-4719938Y-4888388D01*
X-4704392Y-4869446D01*
X-4692841Y-4847835D01*
X-4685728Y-4824386D01*
X-4683326Y-4800000D01*
X-4544418Y-4800000D01*
X-4542016Y-4824386D01*
X-4534903Y-4847835D01*
X-4523352Y-4869446D01*
X-4507806Y-4888388D01*
X-4136570Y-5259624D01*
X-4136564Y-5259629D01*
X-3288061Y-6108132D01*
X-3288057Y-6108137D01*
X-1308138Y-8088056D01*
X-1308131Y-8088062D01*
X-459629Y-8936564D01*
X-459625Y-8936569D01*
X-88388Y-9307806D01*
X-69446Y-9323352D01*
X-47835Y-9334903D01*
X-24386Y-9342016D01*
X0Y-9344418D01*
X24386Y-9342016D01*
X47836Y-9334903D01*
X69446Y-9323352D01*
X88388Y-9307806D01*
X459625Y-8936569D01*
X459629Y-8936564D01*
X1308137Y-8088056D01*
X1308143Y-8088051D01*
X3005204Y-6390990D01*
X3288052Y-6108143D01*
X3288056Y-6108137D01*
X4136564Y-5259629D01*
X4136570Y-5259624D01*
X4507806Y-4888388D01*
X4523352Y-4869446D01*
X4534903Y-4847835D01*
X4542016Y-4824386D01*
X4544418Y-4800000D01*
X4542016Y-4775614D01*
X4534903Y-4752164D01*
X4523352Y-4730554D01*
X4507806Y-4711612D01*
X4136575Y-4340381D01*
X4136569Y-4340376D01*
X3288052Y-3491859D01*
X3288047Y-3491853D01*
X1308148Y-1511954D01*
X1308142Y-1511949D01*
X459625Y-663432D01*
X459620Y-663426D01*
X88388Y-292194D01*
X69446Y-276648D01*
X47835Y-265097D01*
X24386Y-257984D01*
X0Y-255582D01*
X-24386Y-257984D01*
X-47835Y-265097D01*
X-69446Y-276648D01*
X-88388Y-292194D01*
X-459620Y-663426D01*
X-459625Y-663432D01*
X-1308142Y-1511949D01*
X-1308148Y-1511954D01*
X-3288047Y-3491853D01*
X-3288052Y-3491859D01*
X-4136569Y-4340376D01*
X-4136575Y-4340381D01*
X-4507806Y-4711612D01*
X-4523352Y-4730554D01*
X-4534903Y-4752165D01*
X-4542016Y-4775614D01*
X-4544418Y-4800000D01*
X-4683326Y-4800000D01*
X-4685728Y-4775614D01*
X-4692841Y-4752165D01*
X-4704392Y-4730554D01*
X-4719938Y-4711612D01*
X-6028086Y-3403464D01*
X-5267952Y-2643330D01*
X-5267946Y-2643325D01*
X-4985103Y-2360482D01*
X-4985098Y-2360476D01*
X-1396536Y1228086D01*
X-88388Y-80062D01*
X-69446Y-95608D01*
X-47835Y-107159D01*
X-24386Y-114272D01*
X0Y-116674D01*
X24386Y-114272D01*
X47835Y-107159D01*
X69446Y-95608D01*
X88388Y-80062D01*
X1396536Y1228086D01*
X4985098Y-2360476D01*
X4985098Y-2360476D01*
G37*
G36*
X-6967344Y-8161545D02*
X-6890215Y-8169142D01*
X-6758264Y-8209169D01*
X-6692288Y-8229182D01*
X-6509879Y-8326682D01*
X-6349997Y-8457895D01*
X-6218784Y-8617777D01*
X-6121284Y-8800186D01*
X-6121284Y-8800187D01*
X-6061244Y-8998113D01*
X-6040971Y-9203949D01*
X-6061244Y-9409785D01*
X-6101271Y-9541736D01*
X-6121284Y-9607712D01*
X-6218784Y-9790121D01*
X-6349997Y-9950003D01*
X-6509879Y-10081216D01*
X-6692288Y-10178716D01*
X-6758264Y-10198729D01*
X-6890215Y-10238756D01*
X-6967344Y-10246353D01*
X-7044471Y-10253949D01*
X-7147631Y-10253949D01*
X-7224758Y-10246353D01*
X-7301887Y-10238756D01*
X-7433838Y-10198729D01*
X-7499814Y-10178716D01*
X-7682223Y-10081216D01*
X-7842105Y-9950003D01*
X-7973318Y-9790121D01*
X-8070818Y-9607712D01*
X-8090831Y-9541736D01*
X-8130858Y-9409785D01*
X-8151131Y-9203949D01*
X-8130858Y-8998113D01*
X-8070818Y-8800187D01*
X-8070818Y-8800186D01*
X-7973318Y-8617777D01*
X-7842105Y-8457895D01*
X-7682223Y-8326682D01*
X-7499814Y-8229182D01*
X-7433838Y-8209169D01*
X-7301887Y-8169142D01*
X-7224758Y-8161545D01*
X-7147631Y-8153949D01*
X-7044471Y-8153949D01*
X-6967344Y-8161545D01*
X-6967344Y-8161545D01*
G37*
G36*
X18225888Y-6574470D02*
X18406274Y-6610350D01*
X18597362Y-6689502D01*
X18769336Y-6804411D01*
X18915589Y-6950664D01*
X19030498Y-7122638D01*
X19109650Y-7313726D01*
X19150000Y-7516584D01*
X19150000Y-7723416D01*
X19109650Y-7926274D01*
X19030498Y-8117362D01*
X18915589Y-8289336D01*
X18769336Y-8435589D01*
X18597362Y-8550498D01*
X18406274Y-8629650D01*
X18225888Y-8665530D01*
X18203417Y-8670000D01*
X17996583Y-8670000D01*
X17974112Y-8665530D01*
X17793726Y-8629650D01*
X17602638Y-8550498D01*
X17430664Y-8435589D01*
X17284411Y-8289336D01*
X17169502Y-8117362D01*
X17090350Y-7926274D01*
X17050000Y-7723416D01*
X17050000Y-7516584D01*
X17090350Y-7313726D01*
X17169502Y-7122638D01*
X17284411Y-6950664D01*
X17430664Y-6804411D01*
X17602638Y-6689502D01*
X17793726Y-6610350D01*
X17974112Y-6574470D01*
X17996583Y-6570000D01*
X18203417Y-6570000D01*
X18225888Y-6574470D01*
X18225888Y-6574470D01*
G37*
G36*
X-17974112Y-6574470D02*
X-17793726Y-6610350D01*
X-17602638Y-6689502D01*
X-17430664Y-6804411D01*
X-17284411Y-6950664D01*
X-17169502Y-7122638D01*
X-17090350Y-7313726D01*
X-17050000Y-7516584D01*
X-17050000Y-7723416D01*
X-17090350Y-7926274D01*
X-17169502Y-8117362D01*
X-17284411Y-8289336D01*
X-17430664Y-8435589D01*
X-17602638Y-8550498D01*
X-17793726Y-8629650D01*
X-17974112Y-8665530D01*
X-17996583Y-8670000D01*
X-18203417Y-8670000D01*
X-18225888Y-8665530D01*
X-18406274Y-8629650D01*
X-18597362Y-8550498D01*
X-18769336Y-8435589D01*
X-18915589Y-8289336D01*
X-19030498Y-8117362D01*
X-19109650Y-7926274D01*
X-19150000Y-7723416D01*
X-19150000Y-7516584D01*
X-19109650Y-7313726D01*
X-19030498Y-7122638D01*
X-18915589Y-6950664D01*
X-18769336Y-6804411D01*
X-18597362Y-6689502D01*
X-18406274Y-6610350D01*
X-18225888Y-6574470D01*
X-18203417Y-6570000D01*
X-17996583Y-6570000D01*
X-17974112Y-6574470D01*
X-17974112Y-6574470D01*
G37*
G36*
X20925888Y-5304470D02*
X21106274Y-5340350D01*
X21297362Y-5419502D01*
X21469336Y-5534411D01*
X21615589Y-5680664D01*
X21730498Y-5852638D01*
X21809650Y-6043726D01*
X21850000Y-6246584D01*
X21850000Y-6453416D01*
X21809650Y-6656274D01*
X21730498Y-6847362D01*
X21615589Y-7019336D01*
X21469336Y-7165589D01*
X21297362Y-7280498D01*
X21106274Y-7359650D01*
X20925888Y-7395530D01*
X20903417Y-7400000D01*
X20696583Y-7400000D01*
X20674112Y-7395530D01*
X20493726Y-7359650D01*
X20302638Y-7280498D01*
X20130664Y-7165589D01*
X19984411Y-7019336D01*
X19869502Y-6847362D01*
X19790350Y-6656274D01*
X19750000Y-6453416D01*
X19750000Y-6246584D01*
X19790350Y-6043726D01*
X19869502Y-5852638D01*
X19984411Y-5680664D01*
X20130664Y-5534411D01*
X20302638Y-5419502D01*
X20493726Y-5340350D01*
X20674112Y-5304470D01*
X20696583Y-5300000D01*
X20903417Y-5300000D01*
X20925888Y-5304470D01*
X20925888Y-5304470D01*
G37*
G36*
X-20674112Y-5304470D02*
X-20493726Y-5340350D01*
X-20302638Y-5419502D01*
X-20130664Y-5534411D01*
X-19984411Y-5680664D01*
X-19869502Y-5852638D01*
X-19790350Y-6043726D01*
X-19750000Y-6246584D01*
X-19750000Y-6453416D01*
X-19790350Y-6656274D01*
X-19869502Y-6847362D01*
X-19984411Y-7019336D01*
X-20130664Y-7165589D01*
X-20302638Y-7280498D01*
X-20493726Y-7359650D01*
X-20674112Y-7395530D01*
X-20696583Y-7400000D01*
X-20903417Y-7400000D01*
X-20925888Y-7395530D01*
X-21106274Y-7359650D01*
X-21297362Y-7280498D01*
X-21469336Y-7165589D01*
X-21615589Y-7019336D01*
X-21730498Y-6847362D01*
X-21809650Y-6656274D01*
X-21850000Y-6453416D01*
X-21850000Y-6246584D01*
X-21809650Y-6043726D01*
X-21730498Y-5852638D01*
X-21615589Y-5680664D01*
X-21469336Y-5534411D01*
X-21297362Y-5419502D01*
X-21106274Y-5340350D01*
X-20925888Y-5304470D01*
X-20903417Y-5300000D01*
X-20696583Y-5300000D01*
X-20674112Y-5304470D01*
X-20674112Y-5304470D01*
G37*
G36*
X11210000Y-7172000D02*
X9110000Y-7172000D01*
X9110000Y-5472000D01*
X11210000Y-5472000D01*
X11210000Y-7172000D01*
X11210000Y-7172000D01*
G37*
G36*
X-17974112Y-4034470D02*
X-17793726Y-4070350D01*
X-17602638Y-4149502D01*
X-17430664Y-4264411D01*
X-17284411Y-4410664D01*
X-17169502Y-4582638D01*
X-17090350Y-4773726D01*
X-17050000Y-4976584D01*
X-17050000Y-5183416D01*
X-17090350Y-5386274D01*
X-17169502Y-5577362D01*
X-17284411Y-5749336D01*
X-17430664Y-5895589D01*
X-17602638Y-6010498D01*
X-17793726Y-6089650D01*
X-17974112Y-6125530D01*
X-17996583Y-6130000D01*
X-18203417Y-6130000D01*
X-18225888Y-6125530D01*
X-18406274Y-6089650D01*
X-18597362Y-6010498D01*
X-18769336Y-5895589D01*
X-18915589Y-5749336D01*
X-19030498Y-5577362D01*
X-19109650Y-5386274D01*
X-19150000Y-5183416D01*
X-19150000Y-4976584D01*
X-19109650Y-4773726D01*
X-19030498Y-4582638D01*
X-18915589Y-4410664D01*
X-18769336Y-4264411D01*
X-18597362Y-4149502D01*
X-18406274Y-4070350D01*
X-18225888Y-4034470D01*
X-18203417Y-4030000D01*
X-17996583Y-4030000D01*
X-17974112Y-4034470D01*
X-17974112Y-4034470D01*
G37*
G36*
X18225888Y-4034470D02*
X18406274Y-4070350D01*
X18597362Y-4149502D01*
X18769336Y-4264411D01*
X18915589Y-4410664D01*
X19030498Y-4582638D01*
X19109650Y-4773726D01*
X19150000Y-4976584D01*
X19150000Y-5183416D01*
X19109650Y-5386274D01*
X19030498Y-5577362D01*
X18915589Y-5749336D01*
X18769336Y-5895589D01*
X18597362Y-6010498D01*
X18406274Y-6089650D01*
X18225888Y-6125530D01*
X18203417Y-6130000D01*
X17996583Y-6130000D01*
X17974112Y-6125530D01*
X17793726Y-6089650D01*
X17602638Y-6010498D01*
X17430664Y-5895589D01*
X17284411Y-5749336D01*
X17169502Y-5577362D01*
X17090350Y-5386274D01*
X17050000Y-5183416D01*
X17050000Y-4976584D01*
X17090350Y-4773726D01*
X17169502Y-4582638D01*
X17284411Y-4410664D01*
X17430664Y-4264411D01*
X17602638Y-4149502D01*
X17793726Y-4070350D01*
X17974112Y-4034470D01*
X17996583Y-4030000D01*
X18203417Y-4030000D01*
X18225888Y-4034470D01*
X18225888Y-4034470D01*
G37*
G36*
X20925888Y-2764470D02*
X21106274Y-2800350D01*
X21297362Y-2879502D01*
X21469336Y-2994411D01*
X21615589Y-3140664D01*
X21730498Y-3312638D01*
X21809650Y-3503726D01*
X21850000Y-3706584D01*
X21850000Y-3913416D01*
X21809650Y-4116274D01*
X21730498Y-4307362D01*
X21615589Y-4479336D01*
X21469336Y-4625589D01*
X21297362Y-4740498D01*
X21106274Y-4819650D01*
X20925888Y-4855530D01*
X20903417Y-4860000D01*
X20696583Y-4860000D01*
X20674112Y-4855530D01*
X20493726Y-4819650D01*
X20302638Y-4740498D01*
X20130664Y-4625589D01*
X19984411Y-4479336D01*
X19869502Y-4307362D01*
X19790350Y-4116274D01*
X19750000Y-3913416D01*
X19750000Y-3706584D01*
X19790350Y-3503726D01*
X19869502Y-3312638D01*
X19984411Y-3140664D01*
X20130664Y-2994411D01*
X20302638Y-2879502D01*
X20493726Y-2800350D01*
X20674112Y-2764470D01*
X20696583Y-2760000D01*
X20903417Y-2760000D01*
X20925888Y-2764470D01*
X20925888Y-2764470D01*
G37*
G36*
X-20674112Y-2764470D02*
X-20493726Y-2800350D01*
X-20302638Y-2879502D01*
X-20130664Y-2994411D01*
X-19984411Y-3140664D01*
X-19869502Y-3312638D01*
X-19790350Y-3503726D01*
X-19750000Y-3706584D01*
X-19750000Y-3913416D01*
X-19790350Y-4116274D01*
X-19869502Y-4307362D01*
X-19984411Y-4479336D01*
X-20130664Y-4625589D01*
X-20302638Y-4740498D01*
X-20493726Y-4819650D01*
X-20674112Y-4855530D01*
X-20696583Y-4860000D01*
X-20903417Y-4860000D01*
X-20925888Y-4855530D01*
X-21106274Y-4819650D01*
X-21297362Y-4740498D01*
X-21469336Y-4625589D01*
X-21615589Y-4479336D01*
X-21730498Y-4307362D01*
X-21809650Y-4116274D01*
X-21850000Y-3913416D01*
X-21850000Y-3706584D01*
X-21809650Y-3503726D01*
X-21730498Y-3312638D01*
X-21615589Y-3140664D01*
X-21469336Y-2994411D01*
X-21297362Y-2879502D01*
X-21106274Y-2800350D01*
X-20925888Y-2764470D01*
X-20903417Y-2760000D01*
X-20696583Y-2760000D01*
X-20674112Y-2764470D01*
X-20674112Y-2764470D01*
G37*
G36*
X11210000Y-3672000D02*
X9110000Y-3672000D01*
X9110000Y-1972000D01*
X11210000Y-1972000D01*
X11210000Y-3672000D01*
X11210000Y-3672000D01*
G37*
G36*
X18225888Y-1494470D02*
X18406274Y-1530350D01*
X18597362Y-1609502D01*
X18769336Y-1724411D01*
X18915589Y-1870664D01*
X19030498Y-2042638D01*
X19109650Y-2233726D01*
X19150000Y-2436584D01*
X19150000Y-2643416D01*
X19109650Y-2846274D01*
X19030498Y-3037362D01*
X18915589Y-3209336D01*
X18769336Y-3355589D01*
X18597362Y-3470498D01*
X18406274Y-3549650D01*
X18225888Y-3585530D01*
X18203417Y-3590000D01*
X17996583Y-3590000D01*
X17974112Y-3585530D01*
X17793726Y-3549650D01*
X17602638Y-3470498D01*
X17430664Y-3355589D01*
X17284411Y-3209336D01*
X17169502Y-3037362D01*
X17090350Y-2846274D01*
X17050000Y-2643416D01*
X17050000Y-2436584D01*
X17090350Y-2233726D01*
X17169502Y-2042638D01*
X17284411Y-1870664D01*
X17430664Y-1724411D01*
X17602638Y-1609502D01*
X17793726Y-1530350D01*
X17974112Y-1494470D01*
X17996583Y-1490000D01*
X18203417Y-1490000D01*
X18225888Y-1494470D01*
X18225888Y-1494470D01*
G37*
G36*
X-17974112Y-1494470D02*
X-17793726Y-1530350D01*
X-17602638Y-1609502D01*
X-17430664Y-1724411D01*
X-17284411Y-1870664D01*
X-17169502Y-2042638D01*
X-17090350Y-2233726D01*
X-17050000Y-2436584D01*
X-17050000Y-2643416D01*
X-17090350Y-2846274D01*
X-17169502Y-3037362D01*
X-17284411Y-3209336D01*
X-17430664Y-3355589D01*
X-17602638Y-3470498D01*
X-17793726Y-3549650D01*
X-17974112Y-3585530D01*
X-17996583Y-3590000D01*
X-18203417Y-3590000D01*
X-18225888Y-3585530D01*
X-18406274Y-3549650D01*
X-18597362Y-3470498D01*
X-18769336Y-3355589D01*
X-18915589Y-3209336D01*
X-19030498Y-3037362D01*
X-19109650Y-2846274D01*
X-19150000Y-2643416D01*
X-19150000Y-2436584D01*
X-19109650Y-2233726D01*
X-19030498Y-2042638D01*
X-18915589Y-1870664D01*
X-18769336Y-1724411D01*
X-18597362Y-1609502D01*
X-18406274Y-1530350D01*
X-18225888Y-1494470D01*
X-18203417Y-1490000D01*
X-17996583Y-1490000D01*
X-17974112Y-1494470D01*
X-17974112Y-1494470D01*
G37*
G36*
X7236893Y-848554D02*
X7288373Y-864170D01*
X7335805Y-889523D01*
X7382167Y-927571D01*
X8009865Y-1555269D01*
X8047913Y-1601631D01*
X8073266Y-1649063D01*
X8088882Y-1700543D01*
X8094154Y-1754073D01*
X8088882Y-1807603D01*
X8073266Y-1859083D01*
X8047913Y-1906515D01*
X8009865Y-1952877D01*
X7452877Y-2509865D01*
X7406515Y-2547913D01*
X7359083Y-2573266D01*
X7307603Y-2588882D01*
X7254073Y-2594154D01*
X7200543Y-2588882D01*
X7149063Y-2573266D01*
X7101631Y-2547913D01*
X7055269Y-2509865D01*
X6427571Y-1882167D01*
X6389523Y-1835805D01*
X6364170Y-1788373D01*
X6348554Y-1736893D01*
X6343282Y-1683363D01*
X6348554Y-1629833D01*
X6364170Y-1578353D01*
X6389523Y-1530921D01*
X6427571Y-1484559D01*
X6984559Y-927571D01*
X7030921Y-889523D01*
X7078353Y-864170D01*
X7129833Y-848554D01*
X7183363Y-843282D01*
X7236893Y-848554D01*
X7236893Y-848554D01*
G37*
G36*
X-20674112Y-224470D02*
X-20493726Y-260350D01*
X-20302638Y-339502D01*
X-20130664Y-454411D01*
X-19984411Y-600664D01*
X-19869502Y-772638D01*
X-19790350Y-963726D01*
X-19750000Y-1166584D01*
X-19750000Y-1373416D01*
X-19790350Y-1576274D01*
X-19869502Y-1767362D01*
X-19984411Y-1939336D01*
X-20130664Y-2085589D01*
X-20302638Y-2200498D01*
X-20493726Y-2279650D01*
X-20674112Y-2315530D01*
X-20696583Y-2320000D01*
X-20903417Y-2320000D01*
X-20925888Y-2315530D01*
X-21106274Y-2279650D01*
X-21297362Y-2200498D01*
X-21469336Y-2085589D01*
X-21615589Y-1939336D01*
X-21730498Y-1767362D01*
X-21809650Y-1576274D01*
X-21850000Y-1373416D01*
X-21850000Y-1166584D01*
X-21809650Y-963726D01*
X-21730498Y-772638D01*
X-21615589Y-600664D01*
X-21469336Y-454411D01*
X-21297362Y-339502D01*
X-21106274Y-260350D01*
X-20925888Y-224470D01*
X-20903417Y-220000D01*
X-20696583Y-220000D01*
X-20674112Y-224470D01*
X-20674112Y-224470D01*
G37*
G36*
X20925888Y-224470D02*
X21106274Y-260350D01*
X21297362Y-339502D01*
X21469336Y-454411D01*
X21615589Y-600664D01*
X21730498Y-772638D01*
X21809650Y-963726D01*
X21850000Y-1166584D01*
X21850000Y-1373416D01*
X21809650Y-1576274D01*
X21730498Y-1767362D01*
X21615589Y-1939336D01*
X21469336Y-2085589D01*
X21297362Y-2200498D01*
X21106274Y-2279650D01*
X20925888Y-2315530D01*
X20903417Y-2320000D01*
X20696583Y-2320000D01*
X20674112Y-2315530D01*
X20493726Y-2279650D01*
X20302638Y-2200498D01*
X20130664Y-2085589D01*
X19984411Y-1939336D01*
X19869502Y-1767362D01*
X19790350Y-1576274D01*
X19750000Y-1373416D01*
X19750000Y-1166584D01*
X19790350Y-963726D01*
X19869502Y-772638D01*
X19984411Y-600664D01*
X20130664Y-454411D01*
X20302638Y-339502D01*
X20493726Y-260350D01*
X20674112Y-224470D01*
X20696583Y-220000D01*
X20903417Y-220000D01*
X20925888Y-224470D01*
X20925888Y-224470D01*
G37*
G36*
X5999457Y388882D02*
X6050937Y373266D01*
X6098369Y347913D01*
X6144731Y309865D01*
X6772429Y-317833D01*
X6810477Y-364195D01*
X6835830Y-411627D01*
X6851446Y-463107D01*
X6856718Y-516637D01*
X6851446Y-570167D01*
X6835830Y-621647D01*
X6810477Y-669079D01*
X6772429Y-715441D01*
X6215441Y-1272429D01*
X6169079Y-1310477D01*
X6121647Y-1335830D01*
X6070167Y-1351446D01*
X6016637Y-1356718D01*
X5963107Y-1351446D01*
X5911627Y-1335830D01*
X5864195Y-1310477D01*
X5817833Y-1272429D01*
X5190135Y-644731D01*
X5152087Y-598369D01*
X5126734Y-550937D01*
X5111118Y-499457D01*
X5105846Y-445927D01*
X5111118Y-392397D01*
X5126734Y-340917D01*
X5152087Y-293485D01*
X5190135Y-247123D01*
X5747123Y309865D01*
X5793485Y347913D01*
X5840917Y373266D01*
X5892397Y388882D01*
X5945927Y394154D01*
X5999457Y388882D01*
X5999457Y388882D01*
G37*
G36*
X18225888Y1045530D02*
X18406274Y1009650D01*
X18597362Y930498D01*
X18769336Y815589D01*
X18915589Y669336D01*
X19030498Y497362D01*
X19109650Y306274D01*
X19142120Y143032D01*
X19150000Y103417D01*
X19150000Y-103417D01*
X19148628Y-110316D01*
X19109650Y-306274D01*
X19030498Y-497362D01*
X18915589Y-669336D01*
X18769336Y-815589D01*
X18597362Y-930498D01*
X18406274Y-1009650D01*
X18225888Y-1045530D01*
X18203417Y-1050000D01*
X17996583Y-1050000D01*
X17974112Y-1045530D01*
X17793726Y-1009650D01*
X17602638Y-930498D01*
X17430664Y-815589D01*
X17284411Y-669336D01*
X17169502Y-497362D01*
X17090350Y-306274D01*
X17051372Y-110316D01*
X17050000Y-103417D01*
X17050000Y103417D01*
X17057880Y143032D01*
X17090350Y306274D01*
X17169502Y497362D01*
X17284411Y669336D01*
X17430664Y815589D01*
X17602638Y930498D01*
X17793726Y1009650D01*
X17974112Y1045530D01*
X17996583Y1050000D01*
X18203417Y1050000D01*
X18225888Y1045530D01*
X18225888Y1045530D01*
G37*
G36*
X-17974112Y1045530D02*
X-17793726Y1009650D01*
X-17602638Y930498D01*
X-17430664Y815589D01*
X-17284411Y669336D01*
X-17169502Y497362D01*
X-17090350Y306274D01*
X-17057880Y143032D01*
X-17050000Y103417D01*
X-17050000Y-103417D01*
X-17051372Y-110316D01*
X-17090350Y-306274D01*
X-17169502Y-497362D01*
X-17284411Y-669336D01*
X-17430664Y-815589D01*
X-17602638Y-930498D01*
X-17793726Y-1009650D01*
X-17974112Y-1045530D01*
X-17996583Y-1050000D01*
X-18203417Y-1050000D01*
X-18225888Y-1045530D01*
X-18406274Y-1009650D01*
X-18597362Y-930498D01*
X-18769336Y-815589D01*
X-18915589Y-669336D01*
X-19030498Y-497362D01*
X-19109650Y-306274D01*
X-19148628Y-110316D01*
X-19150000Y-103417D01*
X-19150000Y103417D01*
X-19142120Y143032D01*
X-19109650Y306274D01*
X-19030498Y497362D01*
X-18915589Y669336D01*
X-18769336Y815589D01*
X-18597362Y930498D01*
X-18406274Y1009650D01*
X-18225888Y1045530D01*
X-18203417Y1050000D01*
X-17996583Y1050000D01*
X-17974112Y1045530D01*
X-17974112Y1045530D01*
G37*
G36*
X8836893Y861046D02*
X8888373Y845430D01*
X8935805Y820077D01*
X8982167Y782029D01*
X9609865Y154331D01*
X9647913Y107969D01*
X9673266Y60537D01*
X9688882Y9057D01*
X9694154Y-44473D01*
X9688882Y-98003D01*
X9673266Y-149483D01*
X9647913Y-196915D01*
X9609865Y-243277D01*
X9052877Y-800265D01*
X9006515Y-838313D01*
X8959083Y-863666D01*
X8907603Y-879282D01*
X8854073Y-884554D01*
X8800543Y-879282D01*
X8749063Y-863666D01*
X8701631Y-838313D01*
X8655269Y-800265D01*
X8027571Y-172567D01*
X7989523Y-126205D01*
X7964170Y-78773D01*
X7948554Y-27293D01*
X7943282Y26237D01*
X7948554Y79767D01*
X7964170Y131247D01*
X7989523Y178679D01*
X8027571Y225041D01*
X8584559Y782029D01*
X8630921Y820077D01*
X8678353Y845430D01*
X8729833Y861046D01*
X8783363Y866318D01*
X8836893Y861046D01*
X8836893Y861046D01*
G37*
G36*
X-5629833Y1351446D02*
X-5578353Y1335830D01*
X-5530921Y1310477D01*
X-5484559Y1272429D01*
X-4927571Y715441D01*
X-4889523Y669079D01*
X-4864170Y621647D01*
X-4848554Y570167D01*
X-4843282Y516637D01*
X-4848554Y463107D01*
X-4864170Y411627D01*
X-4889523Y364195D01*
X-4927571Y317833D01*
X-5555269Y-309865D01*
X-5601631Y-347913D01*
X-5649063Y-373266D01*
X-5700543Y-388882D01*
X-5754073Y-394154D01*
X-5807603Y-388882D01*
X-5859083Y-373266D01*
X-5906515Y-347913D01*
X-5952877Y-309865D01*
X-6509865Y247123D01*
X-6547913Y293485D01*
X-6573266Y340917D01*
X-6588882Y392397D01*
X-6594154Y445927D01*
X-6588882Y499457D01*
X-6573266Y550937D01*
X-6547913Y598369D01*
X-6509865Y644731D01*
X-5882167Y1272429D01*
X-5835805Y1310477D01*
X-5788373Y1335830D01*
X-5736893Y1351446D01*
X-5683363Y1356718D01*
X-5629833Y1351446D01*
X-5629833Y1351446D01*
G37*
G36*
X-8049974Y2553885D02*
X-7831588Y2463427D01*
X-7635042Y2332099D01*
X-7467901Y2164958D01*
X-7336573Y1968412D01*
X-7246115Y1750026D01*
X-7200000Y1518191D01*
X-7200000Y1281809D01*
X-7246115Y1049974D01*
X-7336573Y831588D01*
X-7467901Y635042D01*
X-7635042Y467901D01*
X-7831588Y336573D01*
X-8049974Y246115D01*
X-8281809Y200000D01*
X-8518191Y200000D01*
X-8750026Y246115D01*
X-8968412Y336573D01*
X-9164958Y467901D01*
X-9332099Y635042D01*
X-9463427Y831588D01*
X-9553885Y1049974D01*
X-9600000Y1281809D01*
X-9600000Y1518191D01*
X-9553885Y1750026D01*
X-9463427Y1968412D01*
X-9332099Y2164958D01*
X-9164958Y2332099D01*
X-8968412Y2463427D01*
X-8750026Y2553885D01*
X-8518191Y2600000D01*
X-8281809Y2600000D01*
X-8049974Y2553885D01*
X-8049974Y2553885D01*
G37*
G36*
X-20676580Y2316021D02*
X-20493726Y2279650D01*
X-20302638Y2200498D01*
X-20130664Y2085589D01*
X-19984411Y1939336D01*
X-19869502Y1767362D01*
X-19790350Y1576274D01*
X-19764182Y1444714D01*
X-19750000Y1373417D01*
X-19750000Y1166583D01*
X-19754470Y1144112D01*
X-19790350Y963726D01*
X-19869502Y772638D01*
X-19984411Y600664D01*
X-20130664Y454411D01*
X-20302638Y339502D01*
X-20493726Y260350D01*
X-20671241Y225041D01*
X-20696583Y220000D01*
X-20903417Y220000D01*
X-20928759Y225041D01*
X-21106274Y260350D01*
X-21297362Y339502D01*
X-21469336Y454411D01*
X-21615589Y600664D01*
X-21730498Y772638D01*
X-21809650Y963726D01*
X-21845530Y1144112D01*
X-21850000Y1166583D01*
X-21850000Y1373417D01*
X-21835818Y1444714D01*
X-21809650Y1576274D01*
X-21730498Y1767362D01*
X-21615589Y1939336D01*
X-21469336Y2085589D01*
X-21297362Y2200498D01*
X-21106274Y2279650D01*
X-20923420Y2316021D01*
X-20903417Y2320000D01*
X-20696583Y2320000D01*
X-20676580Y2316021D01*
X-20676580Y2316021D01*
G37*
G36*
X20923420Y2316021D02*
X21106274Y2279650D01*
X21297362Y2200498D01*
X21469336Y2085589D01*
X21615589Y1939336D01*
X21730498Y1767362D01*
X21809650Y1576274D01*
X21835818Y1444714D01*
X21850000Y1373417D01*
X21850000Y1166583D01*
X21845530Y1144112D01*
X21809650Y963726D01*
X21730498Y772638D01*
X21615589Y600664D01*
X21469336Y454411D01*
X21297362Y339502D01*
X21106274Y260350D01*
X20928759Y225041D01*
X20903417Y220000D01*
X20696583Y220000D01*
X20671241Y225041D01*
X20493726Y260350D01*
X20302638Y339502D01*
X20130664Y454411D01*
X19984411Y600664D01*
X19869502Y772638D01*
X19790350Y963726D01*
X19754470Y1144112D01*
X19750000Y1166583D01*
X19750000Y1373417D01*
X19764182Y1444714D01*
X19790350Y1576274D01*
X19869502Y1767362D01*
X19984411Y1939336D01*
X20130664Y2085589D01*
X20302638Y2200498D01*
X20493726Y2279650D01*
X20676580Y2316021D01*
X20696583Y2320000D01*
X20903417Y2320000D01*
X20923420Y2316021D01*
X20923420Y2316021D01*
G37*
G36*
X7599457Y2098482D02*
X7650937Y2082866D01*
X7698369Y2057513D01*
X7744731Y2019465D01*
X8372429Y1391767D01*
X8410477Y1345405D01*
X8435830Y1297973D01*
X8451446Y1246493D01*
X8456718Y1192963D01*
X8451446Y1139433D01*
X8435830Y1087953D01*
X8410477Y1040521D01*
X8372429Y994159D01*
X7815441Y437171D01*
X7769079Y399123D01*
X7721647Y373770D01*
X7670167Y358154D01*
X7616637Y352882D01*
X7563107Y358154D01*
X7511627Y373770D01*
X7464195Y399123D01*
X7417833Y437171D01*
X6790135Y1064869D01*
X6752087Y1111231D01*
X6726734Y1158663D01*
X6711118Y1210143D01*
X6705846Y1263673D01*
X6711118Y1317203D01*
X6726734Y1368683D01*
X6752087Y1416115D01*
X6790135Y1462477D01*
X7347123Y2019465D01*
X7393485Y2057513D01*
X7440917Y2082866D01*
X7492397Y2098482D01*
X7545927Y2103754D01*
X7599457Y2098482D01*
X7599457Y2098482D01*
G37*
G36*
X5893073Y2333273D02*
X4266727Y706927D01*
X3701041Y1272613D01*
X5327387Y2898959D01*
X5893073Y2333273D01*
X5893073Y2333273D01*
G37*
G36*
X-4392397Y2588882D02*
X-4340917Y2573266D01*
X-4293485Y2547913D01*
X-4247123Y2509865D01*
X-3690135Y1952877D01*
X-3652087Y1906515D01*
X-3626734Y1859083D01*
X-3611118Y1807603D01*
X-3605846Y1754073D01*
X-3611118Y1700543D01*
X-3626734Y1649063D01*
X-3652087Y1601631D01*
X-3690135Y1555269D01*
X-4317833Y927571D01*
X-4364195Y889523D01*
X-4411627Y864170D01*
X-4463107Y848554D01*
X-4516637Y843282D01*
X-4570167Y848554D01*
X-4621647Y864170D01*
X-4669079Y889523D01*
X-4715441Y927571D01*
X-5272429Y1484559D01*
X-5310477Y1530921D01*
X-5335830Y1578353D01*
X-5351446Y1629833D01*
X-5356718Y1683363D01*
X-5351446Y1736893D01*
X-5335830Y1788373D01*
X-5310477Y1835805D01*
X-5272429Y1882167D01*
X-4644731Y2509865D01*
X-4598369Y2547913D01*
X-4550937Y2573266D01*
X-4499457Y2588882D01*
X-4445927Y2594154D01*
X-4392397Y2588882D01*
X-4392397Y2588882D01*
G37*
G36*
X18219650Y3586771D02*
X18406274Y3549650D01*
X18597362Y3470498D01*
X18769336Y3355589D01*
X18915589Y3209336D01*
X19030498Y3037362D01*
X19109650Y2846274D01*
X19150000Y2643416D01*
X19150000Y2436584D01*
X19109650Y2233726D01*
X19030498Y2042638D01*
X18915589Y1870664D01*
X18769336Y1724411D01*
X18597362Y1609502D01*
X18406274Y1530350D01*
X18232867Y1495858D01*
X18203417Y1490000D01*
X17996583Y1490000D01*
X17967133Y1495858D01*
X17793726Y1530350D01*
X17602638Y1609502D01*
X17430664Y1724411D01*
X17284411Y1870664D01*
X17169502Y2042638D01*
X17090350Y2233726D01*
X17050000Y2436584D01*
X17050000Y2643416D01*
X17090350Y2846274D01*
X17169502Y3037362D01*
X17284411Y3209336D01*
X17430664Y3355589D01*
X17602638Y3470498D01*
X17793726Y3549650D01*
X17980350Y3586771D01*
X17996583Y3590000D01*
X18203417Y3590000D01*
X18219650Y3586771D01*
X18219650Y3586771D01*
G37*
G36*
X-17980350Y3586771D02*
X-17793726Y3549650D01*
X-17602638Y3470498D01*
X-17430664Y3355589D01*
X-17284411Y3209336D01*
X-17169502Y3037362D01*
X-17090350Y2846274D01*
X-17050000Y2643416D01*
X-17050000Y2436584D01*
X-17090350Y2233726D01*
X-17169502Y2042638D01*
X-17284411Y1870664D01*
X-17430664Y1724411D01*
X-17602638Y1609502D01*
X-17793726Y1530350D01*
X-17967133Y1495858D01*
X-17996583Y1490000D01*
X-18203417Y1490000D01*
X-18232867Y1495858D01*
X-18406274Y1530350D01*
X-18597362Y1609502D01*
X-18769336Y1724411D01*
X-18915589Y1870664D01*
X-19030498Y2042638D01*
X-19109650Y2233726D01*
X-19150000Y2436584D01*
X-19150000Y2643416D01*
X-19109650Y2846274D01*
X-19030498Y3037362D01*
X-18915589Y3209336D01*
X-18769336Y3355589D01*
X-18597362Y3470498D01*
X-18406274Y3549650D01*
X-18219650Y3586771D01*
X-18203417Y3590000D01*
X-17996583Y3590000D01*
X-17980350Y3586771D01*
X-17980350Y3586771D01*
G37*
G36*
X5044544Y3181801D02*
X3418198Y1555455D01*
X2852512Y2121141D01*
X4478858Y3747487D01*
X5044544Y3181801D01*
X5044544Y3181801D01*
G37*
G36*
X8409293Y4010646D02*
X8460773Y3995030D01*
X8508205Y3969677D01*
X8554567Y3931629D01*
X9182265Y3303931D01*
X9220313Y3257569D01*
X9245666Y3210137D01*
X9261282Y3158657D01*
X9266554Y3105127D01*
X9261282Y3051597D01*
X9245666Y3000117D01*
X9220313Y2952685D01*
X9182265Y2906323D01*
X8625277Y2349335D01*
X8578915Y2311287D01*
X8531483Y2285934D01*
X8480003Y2270318D01*
X8426473Y2265046D01*
X8372943Y2270318D01*
X8321463Y2285934D01*
X8274031Y2311287D01*
X8227669Y2349335D01*
X7599971Y2977033D01*
X7561923Y3023395D01*
X7536570Y3070827D01*
X7520954Y3122307D01*
X7515682Y3175837D01*
X7520954Y3229367D01*
X7536570Y3280847D01*
X7561923Y3328279D01*
X7599971Y3374641D01*
X8156959Y3931629D01*
X8203321Y3969677D01*
X8250753Y3995030D01*
X8302233Y4010646D01*
X8355763Y4015918D01*
X8409293Y4010646D01*
X8409293Y4010646D01*
G37*
G36*
X4196016Y4030330D02*
X2569670Y2403984D01*
X2003984Y2969670D01*
X3630330Y4596016D01*
X4196016Y4030330D01*
X4196016Y4030330D01*
G37*
G36*
X11826541Y4034784D02*
X10341616Y2549859D01*
X9139533Y3751942D01*
X10624458Y5236867D01*
X11826541Y4034784D01*
X11826541Y4034784D01*
G37*
G36*
X20925888Y4855530D02*
X21106274Y4819650D01*
X21297362Y4740498D01*
X21469336Y4625589D01*
X21615589Y4479336D01*
X21730498Y4307362D01*
X21809650Y4116274D01*
X21850000Y3913416D01*
X21850000Y3706584D01*
X21809650Y3503726D01*
X21730498Y3312638D01*
X21615589Y3140664D01*
X21469336Y2994411D01*
X21297362Y2879502D01*
X21106274Y2800350D01*
X20925888Y2764470D01*
X20903417Y2760000D01*
X20696583Y2760000D01*
X20674112Y2764470D01*
X20493726Y2800350D01*
X20302638Y2879502D01*
X20130664Y2994411D01*
X19984411Y3140664D01*
X19869502Y3312638D01*
X19790350Y3503726D01*
X19750000Y3706584D01*
X19750000Y3913416D01*
X19790350Y4116274D01*
X19869502Y4307362D01*
X19984411Y4479336D01*
X20130664Y4625589D01*
X20302638Y4740498D01*
X20493726Y4819650D01*
X20674112Y4855530D01*
X20696583Y4860000D01*
X20903417Y4860000D01*
X20925888Y4855530D01*
X20925888Y4855530D01*
G37*
G36*
X-20674112Y4855530D02*
X-20493726Y4819650D01*
X-20302638Y4740498D01*
X-20130664Y4625589D01*
X-19984411Y4479336D01*
X-19869502Y4307362D01*
X-19790350Y4116274D01*
X-19750000Y3913416D01*
X-19750000Y3706584D01*
X-19790350Y3503726D01*
X-19869502Y3312638D01*
X-19984411Y3140664D01*
X-20130664Y2994411D01*
X-20302638Y2879502D01*
X-20493726Y2800350D01*
X-20674112Y2764470D01*
X-20696583Y2760000D01*
X-20903417Y2760000D01*
X-20925888Y2764470D01*
X-21106274Y2800350D01*
X-21297362Y2879502D01*
X-21469336Y2994411D01*
X-21615589Y3140664D01*
X-21730498Y3312638D01*
X-21809650Y3503726D01*
X-21850000Y3706584D01*
X-21850000Y3913416D01*
X-21809650Y4116274D01*
X-21730498Y4307362D01*
X-21615589Y4479336D01*
X-21469336Y4625589D01*
X-21297362Y4740498D01*
X-21106274Y4819650D01*
X-20925888Y4855530D01*
X-20903417Y4860000D01*
X-20696583Y4860000D01*
X-20674112Y4855530D01*
X-20674112Y4855530D01*
G37*
G36*
X-4867993Y5735866D02*
X-4649607Y5645408D01*
X-4453061Y5514080D01*
X-4285920Y5346939D01*
X-4154592Y5150393D01*
X-4064134Y4932007D01*
X-4018019Y4700172D01*
X-4018019Y4463790D01*
X-4064134Y4231955D01*
X-4154592Y4013569D01*
X-4285920Y3817023D01*
X-4453061Y3649882D01*
X-4649607Y3518554D01*
X-4867993Y3428096D01*
X-5099828Y3381981D01*
X-5336210Y3381981D01*
X-5568045Y3428096D01*
X-5786431Y3518554D01*
X-5982977Y3649882D01*
X-6150118Y3817023D01*
X-6281446Y4013569D01*
X-6371904Y4231955D01*
X-6418019Y4463790D01*
X-6418019Y4700172D01*
X-6371904Y4932007D01*
X-6281446Y5150393D01*
X-6150118Y5346939D01*
X-5982977Y5514080D01*
X-5786431Y5645408D01*
X-5568045Y5735866D01*
X-5336210Y5781981D01*
X-5099828Y5781981D01*
X-4867993Y5735866D01*
X-4867993Y5735866D01*
G37*
G36*
X7171857Y5248082D02*
X7223337Y5232466D01*
X7270769Y5207113D01*
X7317131Y5169065D01*
X7944829Y4541367D01*
X7982877Y4495005D01*
X8008230Y4447573D01*
X8023846Y4396093D01*
X8029118Y4342563D01*
X8023846Y4289033D01*
X8008230Y4237553D01*
X7982877Y4190121D01*
X7944829Y4143759D01*
X7387841Y3586771D01*
X7341479Y3548723D01*
X7294047Y3523370D01*
X7242567Y3507754D01*
X7189037Y3502482D01*
X7135507Y3507754D01*
X7084027Y3523370D01*
X7036595Y3548723D01*
X6990233Y3586771D01*
X6362535Y4214469D01*
X6324487Y4260831D01*
X6299134Y4308263D01*
X6283518Y4359743D01*
X6278246Y4413273D01*
X6283518Y4466803D01*
X6299134Y4518283D01*
X6324487Y4565715D01*
X6362535Y4612077D01*
X6919523Y5169065D01*
X6965885Y5207113D01*
X7013317Y5232466D01*
X7064797Y5248082D01*
X7118327Y5253354D01*
X7171857Y5248082D01*
X7171857Y5248082D01*
G37*
G36*
X18225888Y6125530D02*
X18406274Y6089650D01*
X18597362Y6010498D01*
X18769336Y5895589D01*
X18915589Y5749336D01*
X19030498Y5577362D01*
X19109650Y5386274D01*
X19150000Y5183416D01*
X19150000Y4976584D01*
X19109650Y4773726D01*
X19030498Y4582638D01*
X18915589Y4410664D01*
X18769336Y4264411D01*
X18597362Y4149502D01*
X18406274Y4070350D01*
X18227467Y4034784D01*
X18203417Y4030000D01*
X17996583Y4030000D01*
X17972533Y4034784D01*
X17793726Y4070350D01*
X17602638Y4149502D01*
X17430664Y4264411D01*
X17284411Y4410664D01*
X17169502Y4582638D01*
X17090350Y4773726D01*
X17050000Y4976584D01*
X17050000Y5183416D01*
X17090350Y5386274D01*
X17169502Y5577362D01*
X17284411Y5749336D01*
X17430664Y5895589D01*
X17602638Y6010498D01*
X17793726Y6089650D01*
X17974112Y6125530D01*
X17996583Y6130000D01*
X18203417Y6130000D01*
X18225888Y6125530D01*
X18225888Y6125530D01*
G37*
G36*
X-17974112Y6125530D02*
X-17793726Y6089650D01*
X-17602638Y6010498D01*
X-17430664Y5895589D01*
X-17284411Y5749336D01*
X-17169502Y5577362D01*
X-17090350Y5386274D01*
X-17050000Y5183416D01*
X-17050000Y4976584D01*
X-17090350Y4773726D01*
X-17169502Y4582638D01*
X-17284411Y4410664D01*
X-17430664Y4264411D01*
X-17602638Y4149502D01*
X-17793726Y4070350D01*
X-17972533Y4034784D01*
X-17996583Y4030000D01*
X-18203417Y4030000D01*
X-18227467Y4034784D01*
X-18406274Y4070350D01*
X-18597362Y4149502D01*
X-18769336Y4264411D01*
X-18915589Y4410664D01*
X-19030498Y4582638D01*
X-19109650Y4773726D01*
X-19150000Y4976584D01*
X-19150000Y5183416D01*
X-19109650Y5386274D01*
X-19030498Y5577362D01*
X-18915589Y5749336D01*
X-18769336Y5895589D01*
X-18597362Y6010498D01*
X-18406274Y6089650D01*
X-18225888Y6125530D01*
X-18203417Y6130000D01*
X-17996583Y6130000D01*
X-17974112Y6125530D01*
X-17974112Y6125530D01*
G37*
G36*
X-12646168Y7150079D02*
X-12427782Y7059621D01*
X-12231236Y6928293D01*
X-12064095Y6761152D01*
X-11932767Y6564606D01*
X-11842309Y6346220D01*
X-11796194Y6114385D01*
X-11796194Y5878003D01*
X-11842309Y5646168D01*
X-11932767Y5427782D01*
X-12064095Y5231236D01*
X-12231236Y5064095D01*
X-12427782Y4932767D01*
X-12646168Y4842309D01*
X-12878003Y4796194D01*
X-13114385Y4796194D01*
X-13346220Y4842309D01*
X-13564606Y4932767D01*
X-13761152Y5064095D01*
X-13928293Y5231236D01*
X-14059621Y5427782D01*
X-14150079Y5646168D01*
X-14196194Y5878003D01*
X-14196194Y6114385D01*
X-14150079Y6346220D01*
X-14059621Y6564606D01*
X-13928293Y6761152D01*
X-13761152Y6928293D01*
X-13564606Y7059621D01*
X-13346220Y7150079D01*
X-13114385Y7196194D01*
X-12878003Y7196194D01*
X-12646168Y7150079D01*
X-12646168Y7150079D01*
G37*
G36*
X9351667Y6509658D02*
X7866742Y5024733D01*
X6664659Y6226816D01*
X8149584Y7711741D01*
X9351667Y6509658D01*
X9351667Y6509658D01*
G37*
G36*
X-20674112Y7395530D02*
X-20493726Y7359650D01*
X-20302638Y7280498D01*
X-20130664Y7165589D01*
X-19984411Y7019336D01*
X-19869502Y6847362D01*
X-19790350Y6656274D01*
X-19750000Y6453416D01*
X-19750000Y6246584D01*
X-19790350Y6043726D01*
X-19869502Y5852638D01*
X-19984411Y5680664D01*
X-20130664Y5534411D01*
X-20302638Y5419502D01*
X-20493726Y5340350D01*
X-20674112Y5304470D01*
X-20696583Y5300000D01*
X-20903417Y5300000D01*
X-20925888Y5304470D01*
X-21106274Y5340350D01*
X-21297362Y5419502D01*
X-21469336Y5534411D01*
X-21615589Y5680664D01*
X-21730498Y5852638D01*
X-21809650Y6043726D01*
X-21850000Y6246584D01*
X-21850000Y6453416D01*
X-21809650Y6656274D01*
X-21730498Y6847362D01*
X-21615589Y7019336D01*
X-21469336Y7165589D01*
X-21297362Y7280498D01*
X-21106274Y7359650D01*
X-20925888Y7395530D01*
X-20903417Y7400000D01*
X-20696583Y7400000D01*
X-20674112Y7395530D01*
X-20674112Y7395530D01*
G37*
G36*
X20925888Y7395530D02*
X21106274Y7359650D01*
X21297362Y7280498D01*
X21469336Y7165589D01*
X21615589Y7019336D01*
X21730498Y6847362D01*
X21809650Y6656274D01*
X21850000Y6453416D01*
X21850000Y6246584D01*
X21809650Y6043726D01*
X21730498Y5852638D01*
X21615589Y5680664D01*
X21469336Y5534411D01*
X21297362Y5419502D01*
X21106274Y5340350D01*
X20925888Y5304470D01*
X20903417Y5300000D01*
X20696583Y5300000D01*
X20674112Y5304470D01*
X20493726Y5340350D01*
X20302638Y5419502D01*
X20130664Y5534411D01*
X19984411Y5680664D01*
X19869502Y5852638D01*
X19790350Y6043726D01*
X19750000Y6246584D01*
X19750000Y6453416D01*
X19790350Y6656274D01*
X19869502Y6847362D01*
X19984411Y7019336D01*
X20130664Y7165589D01*
X20302638Y7280498D01*
X20493726Y7359650D01*
X20674112Y7395530D01*
X20696583Y7400000D01*
X20903417Y7400000D01*
X20925888Y7395530D01*
X20925888Y7395530D01*
G37*
G36*
X-450271Y7933523D02*
X-398791Y7917907D01*
X-351359Y7892554D01*
X-309774Y7858427D01*
X-275647Y7816842D01*
X-250294Y7769410D01*
X-234678Y7717930D01*
X-228801Y7658260D01*
X-228801Y6870540D01*
X-234678Y6810870D01*
X-250294Y6759390D01*
X-275647Y6711958D01*
X-309774Y6670373D01*
X-351359Y6636246D01*
X-398791Y6610893D01*
X-450271Y6595277D01*
X-509941Y6589400D01*
X-1397661Y6589400D01*
X-1457331Y6595277D01*
X-1508811Y6610893D01*
X-1556243Y6636246D01*
X-1597828Y6670373D01*
X-1631955Y6711958D01*
X-1657308Y6759390D01*
X-1672924Y6810870D01*
X-1678801Y6870540D01*
X-1678801Y7658260D01*
X-1672924Y7717930D01*
X-1657308Y7769410D01*
X-1631955Y7816842D01*
X-1597828Y7858427D01*
X-1556243Y7892554D01*
X-1508811Y7917907D01*
X-1457331Y7933523D01*
X-1397661Y7939400D01*
X-509941Y7939400D01*
X-450271Y7933523D01*
X-450271Y7933523D01*
G37*
G36*
X-2200269Y7933523D02*
X-2148789Y7917907D01*
X-2101357Y7892554D01*
X-2059772Y7858427D01*
X-2025645Y7816842D01*
X-2000292Y7769410D01*
X-1984676Y7717930D01*
X-1978799Y7658260D01*
X-1978799Y6870540D01*
X-1984676Y6810870D01*
X-2000292Y6759390D01*
X-2025645Y6711958D01*
X-2059772Y6670373D01*
X-2101357Y6636246D01*
X-2148789Y6610893D01*
X-2200269Y6595277D01*
X-2259939Y6589400D01*
X-3147659Y6589400D01*
X-3207329Y6595277D01*
X-3258809Y6610893D01*
X-3306241Y6636246D01*
X-3347826Y6670373D01*
X-3381953Y6711958D01*
X-3407306Y6759390D01*
X-3422922Y6810870D01*
X-3428799Y6870540D01*
X-3428799Y7658260D01*
X-3422922Y7717930D01*
X-3407306Y7769410D01*
X-3381953Y7816842D01*
X-3347826Y7858427D01*
X-3306241Y7892554D01*
X-3258809Y7917907D01*
X-3207329Y7933523D01*
X-3147659Y7939400D01*
X-2259939Y7939400D01*
X-2200269Y7933523D01*
X-2200269Y7933523D01*
G37*
G36*
X14298707Y10042404D02*
X14375836Y10034807D01*
X14498762Y9997518D01*
X14573763Y9974767D01*
X14756172Y9877267D01*
X14916054Y9746054D01*
X15047267Y9586172D01*
X15144767Y9403763D01*
X15144767Y9403762D01*
X15204807Y9205836D01*
X15225080Y9000000D01*
X15204807Y8794164D01*
X15164780Y8662213D01*
X15144767Y8596237D01*
X15047267Y8413828D01*
X14916054Y8253946D01*
X14756172Y8122733D01*
X14573763Y8025233D01*
X14507787Y8005220D01*
X14375836Y7965193D01*
X14298707Y7957596D01*
X14221580Y7950000D01*
X14118420Y7950000D01*
X14041293Y7957596D01*
X13964164Y7965193D01*
X13832213Y8005220D01*
X13766237Y8025233D01*
X13583828Y8122733D01*
X13423946Y8253946D01*
X13292733Y8413828D01*
X13195233Y8596237D01*
X13175220Y8662213D01*
X13135193Y8794164D01*
X13114920Y9000000D01*
X13135193Y9205836D01*
X13195233Y9403762D01*
X13195233Y9403763D01*
X13292733Y9586172D01*
X13423946Y9746054D01*
X13583828Y9877267D01*
X13766237Y9974767D01*
X13841238Y9997518D01*
X13964164Y10034807D01*
X14041293Y10042404D01*
X14118420Y10050000D01*
X14221580Y10050000D01*
X14298707Y10042404D01*
X14298707Y10042404D01*
G37*
G36*
X20300000Y7950000D02*
X18200000Y7950000D01*
X18200000Y10050000D01*
X20300000Y10050000D01*
X20300000Y7950000D01*
X20300000Y7950000D01*
G37*
G36*
X16838707Y10042404D02*
X16915836Y10034807D01*
X17038762Y9997518D01*
X17113763Y9974767D01*
X17296172Y9877267D01*
X17456054Y9746054D01*
X17587267Y9586172D01*
X17684767Y9403763D01*
X17684767Y9403762D01*
X17744807Y9205836D01*
X17765080Y9000000D01*
X17744807Y8794164D01*
X17704780Y8662213D01*
X17684767Y8596237D01*
X17587267Y8413828D01*
X17456054Y8253946D01*
X17296172Y8122733D01*
X17113763Y8025233D01*
X17047787Y8005220D01*
X16915836Y7965193D01*
X16838707Y7957596D01*
X16761580Y7950000D01*
X16658420Y7950000D01*
X16581293Y7957596D01*
X16504164Y7965193D01*
X16372213Y8005220D01*
X16306237Y8025233D01*
X16123828Y8122733D01*
X15963946Y8253946D01*
X15832733Y8413828D01*
X15735233Y8596237D01*
X15715220Y8662213D01*
X15675193Y8794164D01*
X15654920Y9000000D01*
X15675193Y9205836D01*
X15735233Y9403762D01*
X15735233Y9403763D01*
X15832733Y9586172D01*
X15963946Y9746054D01*
X16123828Y9877267D01*
X16306237Y9974767D01*
X16381238Y9997518D01*
X16504164Y10034807D01*
X16581293Y10042404D01*
X16658420Y10050000D01*
X16761580Y10050000D01*
X16838707Y10042404D01*
X16838707Y10042404D01*
G37*
G36*
X-9464188Y10332060D02*
X-9245802Y10241602D01*
X-9049256Y10110274D01*
X-8882115Y9943133D01*
X-8750787Y9746587D01*
X-8660329Y9528201D01*
X-8614214Y9296366D01*
X-8614214Y9059984D01*
X-8660329Y8828149D01*
X-8750787Y8609763D01*
X-8882115Y8413217D01*
X-9049256Y8246076D01*
X-9245802Y8114748D01*
X-9464188Y8024290D01*
X-9696023Y7978175D01*
X-9932405Y7978175D01*
X-10164240Y8024290D01*
X-10382626Y8114748D01*
X-10579172Y8246076D01*
X-10746313Y8413217D01*
X-10877641Y8609763D01*
X-10968099Y8828149D01*
X-11014214Y9059984D01*
X-11014214Y9296366D01*
X-10968099Y9528201D01*
X-10877641Y9746587D01*
X-10746313Y9943133D01*
X-10579172Y10110274D01*
X-10382626Y10241602D01*
X-10164240Y10332060D01*
X-9932405Y10378175D01*
X-9696023Y10378175D01*
X-9464188Y10332060D01*
X-9464188Y10332060D01*
G37*
G36*
X8381422Y10067483D02*
X8429385Y10052934D01*
X8473575Y10029314D01*
X8512318Y9997518D01*
X8544114Y9958775D01*
X8567734Y9914585D01*
X8582283Y9866622D01*
X8587800Y9810609D01*
X8587800Y8985391D01*
X8582283Y8929378D01*
X8567734Y8881415D01*
X8544114Y8837225D01*
X8512318Y8798482D01*
X8473575Y8766686D01*
X8429385Y8743066D01*
X8381422Y8728517D01*
X8325409Y8723000D01*
X7575191Y8723000D01*
X7519178Y8728517D01*
X7471215Y8743066D01*
X7427025Y8766686D01*
X7388282Y8798482D01*
X7356486Y8837225D01*
X7332866Y8881415D01*
X7318317Y8929378D01*
X7312800Y8985391D01*
X7312800Y9810609D01*
X7318317Y9866622D01*
X7332866Y9914585D01*
X7356486Y9958775D01*
X7388282Y9997518D01*
X7427025Y10029314D01*
X7471215Y10052934D01*
X7519178Y10067483D01*
X7575191Y10073000D01*
X8325409Y10073000D01*
X8381422Y10067483D01*
X8381422Y10067483D01*
G37*
G36*
X6806422Y10067483D02*
X6854385Y10052934D01*
X6898575Y10029314D01*
X6937318Y9997518D01*
X6969114Y9958775D01*
X6992734Y9914585D01*
X7007283Y9866622D01*
X7012800Y9810609D01*
X7012800Y8985391D01*
X7007283Y8929378D01*
X6992734Y8881415D01*
X6969114Y8837225D01*
X6937318Y8798482D01*
X6898575Y8766686D01*
X6854385Y8743066D01*
X6806422Y8728517D01*
X6750409Y8723000D01*
X6000191Y8723000D01*
X5944178Y8728517D01*
X5896215Y8743066D01*
X5852025Y8766686D01*
X5813282Y8798482D01*
X5781486Y8837225D01*
X5757866Y8881415D01*
X5743317Y8929378D01*
X5737800Y8985391D01*
X5737800Y9810609D01*
X5743317Y9866622D01*
X5757866Y9914585D01*
X5781486Y9958775D01*
X5813282Y9997518D01*
X5852025Y10029314D01*
X5896215Y10052934D01*
X5944178Y10067483D01*
X6000191Y10073000D01*
X6750409Y10073000D01*
X6806422Y10067483D01*
X6806422Y10067483D01*
G37*
G36*
X-14396470Y10169123D02*
X-14344990Y10153507D01*
X-14297558Y10128154D01*
X-14255973Y10094027D01*
X-14221846Y10052442D01*
X-14196493Y10005010D01*
X-14180877Y9953530D01*
X-14175000Y9893860D01*
X-14175000Y9106140D01*
X-14180877Y9046470D01*
X-14196493Y8994990D01*
X-14221846Y8947558D01*
X-14255973Y8905973D01*
X-14297558Y8871846D01*
X-14344990Y8846493D01*
X-14396470Y8830877D01*
X-14456140Y8825000D01*
X-15343860Y8825000D01*
X-15403530Y8830877D01*
X-15455010Y8846493D01*
X-15502442Y8871846D01*
X-15544027Y8905973D01*
X-15578154Y8947558D01*
X-15603507Y8994990D01*
X-15619123Y9046470D01*
X-15625000Y9106140D01*
X-15625000Y9893860D01*
X-15619123Y9953530D01*
X-15603507Y10005010D01*
X-15578154Y10052442D01*
X-15544027Y10094027D01*
X-15502442Y10128154D01*
X-15455010Y10153507D01*
X-15403530Y10169123D01*
X-15343860Y10175000D01*
X-14456140Y10175000D01*
X-14396470Y10169123D01*
X-14396470Y10169123D01*
G37*
G36*
X-16146470Y10169123D02*
X-16094990Y10153507D01*
X-16047558Y10128154D01*
X-16005973Y10094027D01*
X-15971846Y10052442D01*
X-15946493Y10005010D01*
X-15930877Y9953530D01*
X-15925000Y9893860D01*
X-15925000Y9106140D01*
X-15930877Y9046470D01*
X-15946493Y8994990D01*
X-15971846Y8947558D01*
X-16005973Y8905973D01*
X-16047558Y8871846D01*
X-16094990Y8846493D01*
X-16146470Y8830877D01*
X-16206140Y8825000D01*
X-17093860Y8825000D01*
X-17153530Y8830877D01*
X-17205010Y8846493D01*
X-17252442Y8871846D01*
X-17294027Y8905973D01*
X-17328154Y8947558D01*
X-17353507Y8994990D01*
X-17369123Y9046470D01*
X-17375000Y9106140D01*
X-17375000Y9893860D01*
X-17369123Y9953530D01*
X-17353507Y10005010D01*
X-17328154Y10052442D01*
X-17294027Y10094027D01*
X-17252442Y10128154D01*
X-17205010Y10153507D01*
X-17153530Y10169123D01*
X-17093860Y10175000D01*
X-16206140Y10175000D01*
X-16146470Y10169123D01*
X-16146470Y10169123D01*
G37*
G36*
X-18081378Y10169483D02*
X-18033415Y10154934D01*
X-17989225Y10131314D01*
X-17950482Y10099518D01*
X-17918686Y10060775D01*
X-17895066Y10016585D01*
X-17880517Y9968622D01*
X-17875000Y9912609D01*
X-17875000Y9087391D01*
X-17880517Y9031378D01*
X-17895066Y8983415D01*
X-17918686Y8939225D01*
X-17950482Y8900482D01*
X-17989225Y8868686D01*
X-18033415Y8845066D01*
X-18081378Y8830517D01*
X-18137391Y8825000D01*
X-18887609Y8825000D01*
X-18943622Y8830517D01*
X-18991585Y8845066D01*
X-19035775Y8868686D01*
X-19074518Y8900482D01*
X-19106314Y8939225D01*
X-19129934Y8983415D01*
X-19144483Y9031378D01*
X-19150000Y9087391D01*
X-19150000Y9912609D01*
X-19144483Y9968622D01*
X-19129934Y10016585D01*
X-19106314Y10060775D01*
X-19074518Y10099518D01*
X-19035775Y10131314D01*
X-18991585Y10154934D01*
X-18943622Y10169483D01*
X-18887609Y10175000D01*
X-18137391Y10175000D01*
X-18081378Y10169483D01*
X-18081378Y10169483D01*
G37*
G36*
X-19656378Y10169483D02*
X-19608415Y10154934D01*
X-19564225Y10131314D01*
X-19525482Y10099518D01*
X-19493686Y10060775D01*
X-19470066Y10016585D01*
X-19455517Y9968622D01*
X-19450000Y9912609D01*
X-19450000Y9087391D01*
X-19455517Y9031378D01*
X-19470066Y8983415D01*
X-19493686Y8939225D01*
X-19525482Y8900482D01*
X-19564225Y8868686D01*
X-19608415Y8845066D01*
X-19656378Y8830517D01*
X-19712391Y8825000D01*
X-20462609Y8825000D01*
X-20518622Y8830517D01*
X-20566585Y8845066D01*
X-20610775Y8868686D01*
X-20649518Y8900482D01*
X-20681314Y8939225D01*
X-20704934Y8983415D01*
X-20719483Y9031378D01*
X-20725000Y9087391D01*
X-20725000Y9912609D01*
X-20719483Y9968622D01*
X-20704934Y10016585D01*
X-20681314Y10060775D01*
X-20649518Y10099518D01*
X-20610775Y10131314D01*
X-20566585Y10154934D01*
X-20518622Y10169483D01*
X-20462609Y10175000D01*
X-19712391Y10175000D01*
X-19656378Y10169483D01*
X-19656378Y10169483D01*
G37*
G36*
X-42500Y9200000D02*
X-6557500Y9200000D01*
X-6557500Y10800000D01*
X-42500Y10800000D01*
X-42500Y9200000D01*
X-42500Y9200000D01*
G37*
G36*
X3335530Y11154290D02*
X3385379Y11139169D01*
X3431311Y11114618D01*
X3471574Y11081574D01*
X3504618Y11041311D01*
X3529169Y10995379D01*
X3544290Y10945530D01*
X3550000Y10887556D01*
X3550000Y9882444D01*
X3544290Y9824470D01*
X3529169Y9774621D01*
X3504618Y9728689D01*
X3471574Y9688426D01*
X3431311Y9655382D01*
X3385379Y9630831D01*
X3335530Y9615710D01*
X3277556Y9610000D01*
X2022444Y9610000D01*
X1964470Y9615710D01*
X1914621Y9630831D01*
X1868689Y9655382D01*
X1828426Y9688426D01*
X1795382Y9728689D01*
X1770831Y9774621D01*
X1755710Y9824470D01*
X1750000Y9882444D01*
X1750000Y10887556D01*
X1755710Y10945530D01*
X1770831Y10995379D01*
X1795382Y11041311D01*
X1828426Y11081574D01*
X1868689Y11114618D01*
X1914621Y11139169D01*
X1964470Y11154290D01*
X2022444Y11160000D01*
X3277556Y11160000D01*
X3335530Y11154290D01*
X3335530Y11154290D01*
G37*
G36*
X5053530Y11404123D02*
X5105010Y11388507D01*
X5152442Y11363154D01*
X5194027Y11329027D01*
X5228154Y11287442D01*
X5253507Y11240010D01*
X5269123Y11188530D01*
X5275000Y11128860D01*
X5275000Y10241140D01*
X5269123Y10181470D01*
X5253507Y10129990D01*
X5228154Y10082558D01*
X5194027Y10040973D01*
X5152442Y10006846D01*
X5105010Y9981493D01*
X5053530Y9965877D01*
X4993860Y9960000D01*
X4206140Y9960000D01*
X4146470Y9965877D01*
X4094990Y9981493D01*
X4047558Y10006846D01*
X4005973Y10040973D01*
X3971846Y10082558D01*
X3946493Y10129990D01*
X3930877Y10181470D01*
X3925000Y10241140D01*
X3925000Y11128860D01*
X3930877Y11188530D01*
X3946493Y11240010D01*
X3971846Y11287442D01*
X4005973Y11329027D01*
X4047558Y11363154D01*
X4094990Y11388507D01*
X4146470Y11404123D01*
X4206140Y11410000D01*
X4993860Y11410000D01*
X5053530Y11404123D01*
X5053530Y11404123D01*
G37*
G36*
X-11522842Y16721262D02*
X-10913181Y16468732D01*
X-10364497Y16102113D01*
X-9897887Y15635503D01*
X-9531268Y15086819D01*
X-9278738Y14477158D01*
X-9150000Y13829948D01*
X-9150000Y13170052D01*
X-9278738Y12522842D01*
X-9531268Y11913181D01*
X-9897887Y11364497D01*
X-10364497Y10897887D01*
X-10913181Y10531268D01*
X-11522842Y10278738D01*
X-12170052Y10150000D01*
X-12829948Y10150000D01*
X-13477158Y10278738D01*
X-14086819Y10531268D01*
X-14635503Y10897887D01*
X-15102113Y11364497D01*
X-15468732Y11913181D01*
X-15721262Y12522842D01*
X-15850000Y13170052D01*
X-15850000Y13829948D01*
X-15721262Y14477158D01*
X-15468732Y15086819D01*
X-15102113Y15635503D01*
X-14635503Y16102113D01*
X-14086819Y16468732D01*
X-13477158Y16721262D01*
X-12829948Y16850000D01*
X-12170052Y16850000D01*
X-11522842Y16721262D01*
X-11522842Y16721262D01*
G37*
G36*
X13462574Y16673183D02*
X14063135Y16424423D01*
X14603630Y16063275D01*
X15063275Y15603630D01*
X15424423Y15063135D01*
X15673183Y14462574D01*
X15800000Y13825023D01*
X15800000Y13174977D01*
X15673183Y12537426D01*
X15424423Y11936865D01*
X15063275Y11396370D01*
X14603630Y10936725D01*
X14063135Y10575577D01*
X13462574Y10326817D01*
X12825023Y10200000D01*
X12174977Y10200000D01*
X11537426Y10326817D01*
X10936865Y10575577D01*
X10396370Y10936725D01*
X9936725Y11396370D01*
X9575577Y11936865D01*
X9326817Y12537426D01*
X9200000Y13174977D01*
X9200000Y13825023D01*
X9326817Y14462574D01*
X9575577Y15063135D01*
X9936725Y15603630D01*
X10396370Y16063275D01*
X10936865Y16424423D01*
X11537426Y16673183D01*
X12174977Y16800000D01*
X12825023Y16800000D01*
X13462574Y16673183D01*
X13462574Y16673183D01*
G37*
G36*
X7260730Y11883723D02*
X7312210Y11868107D01*
X7359642Y11842754D01*
X7401227Y11808627D01*
X7435354Y11767042D01*
X7460707Y11719610D01*
X7476323Y11668130D01*
X7482200Y11608460D01*
X7482200Y10720740D01*
X7476323Y10661070D01*
X7460707Y10609590D01*
X7435354Y10562158D01*
X7401227Y10520573D01*
X7359642Y10486446D01*
X7312210Y10461093D01*
X7260730Y10445477D01*
X7201060Y10439600D01*
X6413340Y10439600D01*
X6353670Y10445477D01*
X6302190Y10461093D01*
X6254758Y10486446D01*
X6213173Y10520573D01*
X6179046Y10562158D01*
X6153693Y10609590D01*
X6138077Y10661070D01*
X6132200Y10720740D01*
X6132200Y11608460D01*
X6138077Y11668130D01*
X6153693Y11719610D01*
X6179046Y11767042D01*
X6213173Y11808627D01*
X6254758Y11842754D01*
X6302190Y11868107D01*
X6353670Y11883723D01*
X6413340Y11889600D01*
X7201060Y11889600D01*
X7260730Y11883723D01*
X7260730Y11883723D01*
G37*
G36*
X3335530Y13204290D02*
X3385379Y13189169D01*
X3431311Y13164618D01*
X3471574Y13131574D01*
X3504618Y13091311D01*
X3529169Y13045379D01*
X3544290Y12995530D01*
X3550000Y12937556D01*
X3550000Y11932444D01*
X3544290Y11874470D01*
X3529169Y11824621D01*
X3504618Y11778689D01*
X3471574Y11738426D01*
X3431311Y11705382D01*
X3385379Y11680831D01*
X3335530Y11665710D01*
X3277556Y11660000D01*
X2022444Y11660000D01*
X1964470Y11665710D01*
X1914621Y11680831D01*
X1868689Y11705382D01*
X1828426Y11738426D01*
X1795382Y11778689D01*
X1770831Y11824621D01*
X1755710Y11874470D01*
X1750000Y11932444D01*
X1750000Y12937556D01*
X1755710Y12995530D01*
X1770831Y13045379D01*
X1795382Y13091311D01*
X1828426Y13131574D01*
X1868689Y13164618D01*
X1914621Y13189169D01*
X1964470Y13204290D01*
X2022444Y13210000D01*
X3277556Y13210000D01*
X3335530Y13204290D01*
X3335530Y13204290D01*
G37*
G36*
X5053530Y13154123D02*
X5105010Y13138507D01*
X5152442Y13113154D01*
X5194027Y13079027D01*
X5228154Y13037442D01*
X5253507Y12990010D01*
X5269123Y12938530D01*
X5275000Y12878860D01*
X5275000Y11991140D01*
X5269123Y11931470D01*
X5253507Y11879990D01*
X5228154Y11832558D01*
X5194027Y11790973D01*
X5152442Y11756846D01*
X5105010Y11731493D01*
X5053530Y11715877D01*
X4993860Y11710000D01*
X4206140Y11710000D01*
X4146470Y11715877D01*
X4094990Y11731493D01*
X4047558Y11756846D01*
X4005973Y11790973D01*
X3971846Y11832558D01*
X3946493Y11879990D01*
X3930877Y11931470D01*
X3925000Y11991140D01*
X3925000Y12878860D01*
X3930877Y12938530D01*
X3946493Y12990010D01*
X3971846Y13037442D01*
X4005973Y13079027D01*
X4047558Y13113154D01*
X4094990Y13138507D01*
X4146470Y13154123D01*
X4206140Y13160000D01*
X4993860Y13160000D01*
X5053530Y13154123D01*
X5053530Y13154123D01*
G37*
G36*
X7260730Y13633723D02*
X7312210Y13618107D01*
X7359642Y13592754D01*
X7401227Y13558627D01*
X7435354Y13517042D01*
X7460707Y13469610D01*
X7476323Y13418130D01*
X7482200Y13358460D01*
X7482200Y12470740D01*
X7476323Y12411070D01*
X7460707Y12359590D01*
X7435354Y12312158D01*
X7401227Y12270573D01*
X7359642Y12236446D01*
X7312210Y12211093D01*
X7260730Y12195477D01*
X7201060Y12189600D01*
X6413340Y12189600D01*
X6353670Y12195477D01*
X6302190Y12211093D01*
X6254758Y12236446D01*
X6213173Y12270573D01*
X6179046Y12312158D01*
X6153693Y12359590D01*
X6138077Y12411070D01*
X6132200Y12470740D01*
X6132200Y13358460D01*
X6138077Y13418130D01*
X6153693Y13469610D01*
X6179046Y13517042D01*
X6213173Y13558627D01*
X6254758Y13592754D01*
X6302190Y13618107D01*
X6353670Y13633723D01*
X6413340Y13639600D01*
X7201060Y13639600D01*
X7260730Y13633723D01*
X7260730Y13633723D01*
G37*
G36*
X8364400Y14025200D02*
X6164400Y14025200D01*
X6164400Y16925200D01*
X8364400Y16925200D01*
X8364400Y14025200D01*
X8364400Y14025200D01*
G37*
G36*
X3325000Y14350000D02*
X2475000Y14350000D01*
X2475000Y15050000D01*
X3325000Y15050000D01*
X3325000Y14350000D01*
X3325000Y14350000D01*
G37*
G36*
X4725000Y14350000D02*
X3875000Y14350000D01*
X3875000Y16050000D01*
X4725000Y16050000D01*
X4725000Y14350000D01*
X4725000Y14350000D01*
G37*
G36*
X-42500Y14400000D02*
X-6557500Y14400000D01*
X-6557500Y16000000D01*
X-42500Y16000000D01*
X-42500Y14400000D01*
X-42500Y14400000D01*
G37*
G36*
X3325000Y15350000D02*
X2475000Y15350000D01*
X2475000Y16050000D01*
X3325000Y16050000D01*
X3325000Y15350000D01*
X3325000Y15350000D01*
G37*
G36*
X10562730Y18284523D02*
X10614210Y18268907D01*
X10661642Y18243554D01*
X10703227Y18209427D01*
X10737354Y18167842D01*
X10762707Y18120410D01*
X10778323Y18068930D01*
X10784200Y18009260D01*
X10784200Y17121540D01*
X10778323Y17061870D01*
X10762707Y17010390D01*
X10737354Y16962958D01*
X10703227Y16921373D01*
X10661642Y16887246D01*
X10614210Y16861893D01*
X10562730Y16846277D01*
X10503060Y16840400D01*
X9715340Y16840400D01*
X9655670Y16846277D01*
X9604190Y16861893D01*
X9556758Y16887246D01*
X9515173Y16921373D01*
X9481046Y16962958D01*
X9455693Y17010390D01*
X9440077Y17061870D01*
X9434200Y17121540D01*
X9434200Y18009260D01*
X9440077Y18068930D01*
X9455693Y18120410D01*
X9481046Y18167842D01*
X9515173Y18209427D01*
X9556758Y18243554D01*
X9604190Y18268907D01*
X9655670Y18284523D01*
X9715340Y18290400D01*
X10503060Y18290400D01*
X10562730Y18284523D01*
X10562730Y18284523D01*
G37*
G36*
X-2430189Y18726954D02*
X-2430186Y18726953D01*
X-2430187Y18726953D01*
X-2261848Y18657225D01*
X-2171543Y18596885D01*
X-2106767Y18553603D01*
X-2094446Y18543491D01*
X-2072835Y18531940D01*
X-2049386Y18524827D01*
X-2025000Y18522425D01*
X-2000614Y18524827D01*
X-1977165Y18531940D01*
X-1955554Y18543491D01*
X-1936612Y18559037D01*
X-1921066Y18577979D01*
X-1909515Y18599590D01*
X-1902402Y18623039D01*
X-1900000Y18647425D01*
X-1900000Y18712500D01*
X1500000Y18712500D01*
X1500000Y18647425D01*
X1502402Y18623039D01*
X1509515Y18599590D01*
X1521066Y18577979D01*
X1536612Y18559037D01*
X1555554Y18543491D01*
X1577165Y18531940D01*
X1600614Y18524827D01*
X1625000Y18522425D01*
X1649386Y18524827D01*
X1672835Y18531940D01*
X1694446Y18543491D01*
X1706767Y18553603D01*
X1771543Y18596885D01*
X1861848Y18657225D01*
X2030187Y18726953D01*
X2030186Y18726953D01*
X2030189Y18726954D01*
X2208894Y18762500D01*
X2391106Y18762500D01*
X2569811Y18726954D01*
X2569814Y18726953D01*
X2569813Y18726953D01*
X2738152Y18657225D01*
X2828457Y18596885D01*
X2889656Y18555993D01*
X3018493Y18427156D01*
X3018495Y18427153D01*
X3119725Y18275652D01*
X3162219Y18173062D01*
X3189454Y18107311D01*
X3225000Y17928606D01*
X3225000Y17746394D01*
X3189454Y17567689D01*
X3189453Y17567687D01*
X3119725Y17399348D01*
X3119724Y17399347D01*
X3018493Y17247844D01*
X2889656Y17119007D01*
X2889653Y17119005D01*
X2738152Y17017775D01*
X2607948Y16963843D01*
X2569811Y16948046D01*
X2391106Y16912500D01*
X2208894Y16912500D01*
X2030189Y16948046D01*
X1992052Y16963843D01*
X1861848Y17017775D01*
X1710347Y17119005D01*
X1706767Y17121397D01*
X1694446Y17131509D01*
X1672835Y17143060D01*
X1649386Y17150173D01*
X1625000Y17152575D01*
X1600614Y17150173D01*
X1577165Y17143060D01*
X1555554Y17131509D01*
X1536612Y17115963D01*
X1521066Y17097021D01*
X1509515Y17075410D01*
X1502402Y17051961D01*
X1500000Y17027575D01*
X1500000Y16962500D01*
X-1900000Y16962500D01*
X-1900000Y17027575D01*
X-1902402Y17051961D01*
X-1909515Y17075410D01*
X-1921066Y17097021D01*
X-1936612Y17115963D01*
X-1955554Y17131509D01*
X-1977165Y17143060D01*
X-2000614Y17150173D01*
X-2025000Y17152575D01*
X-2049386Y17150173D01*
X-2072835Y17143060D01*
X-2094446Y17131509D01*
X-2106767Y17121397D01*
X-2110347Y17119005D01*
X-2261848Y17017775D01*
X-2392052Y16963843D01*
X-2430189Y16948046D01*
X-2608894Y16912500D01*
X-2791106Y16912500D01*
X-2969811Y16948046D01*
X-3007948Y16963843D01*
X-3138152Y17017775D01*
X-3289653Y17119005D01*
X-3289656Y17119007D01*
X-3418493Y17247844D01*
X-3519724Y17399347D01*
X-3519725Y17399348D01*
X-3589453Y17567687D01*
X-3589454Y17567689D01*
X-3625000Y17746394D01*
X-3625000Y17928606D01*
X-3589454Y18107311D01*
X-3562219Y18173062D01*
X-3519725Y18275652D01*
X-3418495Y18427153D01*
X-3418493Y18427156D01*
X-3289656Y18555993D01*
X-3228457Y18596885D01*
X-3138152Y18657225D01*
X-2969813Y18726953D01*
X-2969814Y18726953D01*
X-2969811Y18726954D01*
X-2791106Y18762500D01*
X-2608894Y18762500D01*
X-2430189Y18726954D01*
X-2430189Y18726954D01*
G37*
G36*
X-8588870Y18843323D02*
X-8537390Y18827707D01*
X-8489958Y18802354D01*
X-8448373Y18768227D01*
X-8414246Y18726642D01*
X-8388893Y18679210D01*
X-8373277Y18627730D01*
X-8367400Y18568060D01*
X-8367400Y17680340D01*
X-8373277Y17620670D01*
X-8388893Y17569190D01*
X-8414246Y17521758D01*
X-8448373Y17480173D01*
X-8489958Y17446046D01*
X-8537390Y17420693D01*
X-8588870Y17405077D01*
X-8648540Y17399200D01*
X-9436260Y17399200D01*
X-9495930Y17405077D01*
X-9547410Y17420693D01*
X-9594842Y17446046D01*
X-9636427Y17480173D01*
X-9670554Y17521758D01*
X-9695907Y17569190D01*
X-9711523Y17620670D01*
X-9717400Y17680340D01*
X-9717400Y18568060D01*
X-9711523Y18627730D01*
X-9695907Y18679210D01*
X-9670554Y18726642D01*
X-9636427Y18768227D01*
X-9594842Y18802354D01*
X-9547410Y18827707D01*
X-9495930Y18843323D01*
X-9436260Y18849200D01*
X-8648540Y18849200D01*
X-8588870Y18843323D01*
X-8588870Y18843323D01*
G37*
G36*
X8364400Y18025200D02*
X6164400Y18025200D01*
X6164400Y20925200D01*
X8364400Y20925200D01*
X8364400Y18025200D01*
X8364400Y18025200D01*
G37*
G36*
X-6846578Y19300883D02*
X-6798615Y19286334D01*
X-6754425Y19262714D01*
X-6715682Y19230918D01*
X-6683886Y19192175D01*
X-6660266Y19147985D01*
X-6645717Y19100022D01*
X-6640200Y19044009D01*
X-6640200Y18293791D01*
X-6645717Y18237778D01*
X-6660266Y18189815D01*
X-6683886Y18145625D01*
X-6715682Y18106882D01*
X-6754425Y18075086D01*
X-6798615Y18051466D01*
X-6846578Y18036917D01*
X-6902591Y18031400D01*
X-7727809Y18031400D01*
X-7783822Y18036917D01*
X-7831785Y18051466D01*
X-7875975Y18075086D01*
X-7914718Y18106882D01*
X-7946514Y18145625D01*
X-7970134Y18189815D01*
X-7984683Y18237778D01*
X-7990200Y18293791D01*
X-7990200Y19044009D01*
X-7984683Y19100022D01*
X-7970134Y19147985D01*
X-7946514Y19192175D01*
X-7914718Y19230918D01*
X-7875975Y19262714D01*
X-7831785Y19286334D01*
X-7783822Y19300883D01*
X-7727809Y19306400D01*
X-6902591Y19306400D01*
X-6846578Y19300883D01*
X-6846578Y19300883D01*
G37*
G36*
X10562730Y20034523D02*
X10614210Y20018907D01*
X10661642Y19993554D01*
X10703227Y19959427D01*
X10737354Y19917842D01*
X10762707Y19870410D01*
X10778323Y19818930D01*
X10784200Y19759260D01*
X10784200Y18871540D01*
X10778323Y18811870D01*
X10762707Y18760390D01*
X10737354Y18712958D01*
X10703227Y18671373D01*
X10661642Y18637246D01*
X10614210Y18611893D01*
X10562730Y18596277D01*
X10503060Y18590400D01*
X9715340Y18590400D01*
X9655670Y18596277D01*
X9604190Y18611893D01*
X9556758Y18637246D01*
X9515173Y18671373D01*
X9481046Y18712958D01*
X9455693Y18760390D01*
X9440077Y18811870D01*
X9434200Y18871540D01*
X9434200Y19759260D01*
X9440077Y19818930D01*
X9455693Y19870410D01*
X9481046Y19917842D01*
X9515173Y19959427D01*
X9556758Y19993554D01*
X9604190Y20018907D01*
X9655670Y20034523D01*
X9715340Y20040400D01*
X10503060Y20040400D01*
X10562730Y20034523D01*
X10562730Y20034523D01*
G37*
G36*
X-8588870Y20593323D02*
X-8537390Y20577707D01*
X-8489958Y20552354D01*
X-8448373Y20518227D01*
X-8414246Y20476642D01*
X-8388893Y20429210D01*
X-8373277Y20377730D01*
X-8367400Y20318060D01*
X-8367400Y19430340D01*
X-8373277Y19370670D01*
X-8388893Y19319190D01*
X-8414246Y19271758D01*
X-8448373Y19230173D01*
X-8489958Y19196046D01*
X-8537390Y19170693D01*
X-8588870Y19155077D01*
X-8648540Y19149200D01*
X-9436260Y19149200D01*
X-9495930Y19155077D01*
X-9547410Y19170693D01*
X-9594842Y19196046D01*
X-9636427Y19230173D01*
X-9670554Y19271758D01*
X-9695907Y19319190D01*
X-9711523Y19370670D01*
X-9717400Y19430340D01*
X-9717400Y20318060D01*
X-9711523Y20377730D01*
X-9695907Y20429210D01*
X-9670554Y20476642D01*
X-9636427Y20518227D01*
X-9594842Y20552354D01*
X-9547410Y20577707D01*
X-9495930Y20593323D01*
X-9436260Y20599200D01*
X-8648540Y20599200D01*
X-8588870Y20593323D01*
X-8588870Y20593323D01*
G37*
G36*
X-3666817Y21688102D02*
X-3654565Y21687500D01*
X3254565Y21687500D01*
X3266817Y21688102D01*
X3299999Y21691370D01*
X3300000Y21691370D01*
X3323505Y21689055D01*
X3333181Y21688102D01*
X3345434Y21687500D01*
X3520311Y21687500D01*
X3521066Y21686088D01*
X3536612Y21667146D01*
X3555554Y21651600D01*
X3588714Y21635917D01*
X3607625Y21630180D01*
X3746604Y21555894D01*
X3746606Y21555893D01*
X3746605Y21555893D01*
X3868422Y21455922D01*
X3868423Y21455920D01*
X3868425Y21455919D01*
X3968392Y21334108D01*
X4042679Y21195129D01*
X4042680Y21195126D01*
X4088424Y21044327D01*
X4100000Y20926793D01*
X4100000Y20148207D01*
X4088424Y20030673D01*
X4066812Y19959427D01*
X4042679Y19879871D01*
X3968392Y19740892D01*
X3868422Y19619078D01*
X3746608Y19519108D01*
X3607629Y19444821D01*
X3596183Y19441349D01*
X3588713Y19439083D01*
X3566076Y19429707D01*
X3545701Y19416093D01*
X3528374Y19398766D01*
X3520846Y19387500D01*
X3345435Y19387500D01*
X3333183Y19386898D01*
X3300001Y19383630D01*
X3300000Y19383630D01*
X3266820Y19386898D01*
X3254566Y19387500D01*
X-3654566Y19387500D01*
X-3666820Y19386898D01*
X-3700000Y19383630D01*
X-3700001Y19383630D01*
X-3733183Y19386898D01*
X-3745435Y19387500D01*
X-3920311Y19387500D01*
X-3921066Y19388912D01*
X-3936612Y19407854D01*
X-3955554Y19423400D01*
X-3977165Y19434951D01*
X-3988711Y19439083D01*
X-3996183Y19441349D01*
X-4007629Y19444821D01*
X-4146608Y19519108D01*
X-4268419Y19619075D01*
X-4268420Y19619077D01*
X-4268422Y19619078D01*
X-4368393Y19740895D01*
X-4372224Y19748062D01*
X-4442679Y19879872D01*
X-4483581Y20014709D01*
X-4488424Y20030674D01*
X-4500000Y20148208D01*
X-4500000Y20926793D01*
X-4488424Y21044327D01*
X-4488424Y21044329D01*
X-4442679Y21195126D01*
X-4368391Y21334108D01*
X-4268421Y21455922D01*
X-4146607Y21555892D01*
X-4007625Y21630180D01*
X-3988714Y21635917D01*
X-3966075Y21645294D01*
X-3945701Y21658908D01*
X-3928374Y21676235D01*
X-3920847Y21687500D01*
X-3745434Y21687500D01*
X-3733181Y21688102D01*
X-3723505Y21689055D01*
X-3700000Y21691370D01*
X-3699999Y21691370D01*
X-3666817Y21688102D01*
X-3666817Y21688102D01*
G37*
G36*
X-6846578Y20875883D02*
X-6798615Y20861334D01*
X-6754425Y20837714D01*
X-6715682Y20805918D01*
X-6683886Y20767175D01*
X-6660266Y20722985D01*
X-6645717Y20675022D01*
X-6640200Y20619009D01*
X-6640200Y19868791D01*
X-6645717Y19812778D01*
X-6660266Y19764815D01*
X-6683886Y19720625D01*
X-6715682Y19681882D01*
X-6754425Y19650086D01*
X-6798615Y19626466D01*
X-6846578Y19611917D01*
X-6902591Y19606400D01*
X-7727809Y19606400D01*
X-7783822Y19611917D01*
X-7831785Y19626466D01*
X-7875975Y19650086D01*
X-7914718Y19681882D01*
X-7946514Y19720625D01*
X-7970134Y19764815D01*
X-7984683Y19812778D01*
X-7990200Y19868791D01*
X-7990200Y20619009D01*
X-7984683Y20675022D01*
X-7970134Y20722985D01*
X-7946514Y20767175D01*
X-7914718Y20805918D01*
X-7875975Y20837714D01*
X-7831785Y20861334D01*
X-7783822Y20875883D01*
X-7727809Y20881400D01*
X-6902591Y20881400D01*
X-6846578Y20875883D01*
X-6846578Y20875883D01*
G37*
M02*
