G04 #@! TF.GenerationSoftware,KiCad,Pcbnew,(5.0.0)*
G04 #@! TF.CreationDate,2019-01-09T16:44:38-03:00*
G04 #@! TF.ProjectId,PCB_D,5043425F442E6B696361645F70636200,rev?*
G04 #@! TF.SameCoordinates,Original*
G04 #@! TF.FileFunction,Copper,L2,Bot,Signal*
G04 #@! TF.FilePolarity,Positive*
%FSLAX46Y46*%
G04 Gerber Fmt 4.6, Leading zero omitted, Abs format (unit mm)*
G04 Created by KiCad (PCBNEW (5.0.0)) date 01/09/19 16:44:38*
%MOMM*%
%LPD*%
G01*
G04 APERTURE LIST*
G04 #@! TA.AperFunction,ComponentPad*
%ADD10C,2.000000*%
G04 #@! TD*
G04 #@! TA.AperFunction,ComponentPad*
%ADD11C,1.700000*%
G04 #@! TD*
G04 #@! TA.AperFunction,Conductor*
%ADD12C,1.700000*%
G04 #@! TD*
G04 #@! TA.AperFunction,Conductor*
%ADD13C,0.100000*%
G04 #@! TD*
G04 #@! TA.AperFunction,ComponentPad*
%ADD14O,1.200000X1.900000*%
G04 #@! TD*
G04 #@! TA.AperFunction,ComponentPad*
%ADD15C,1.450000*%
G04 #@! TD*
G04 #@! TA.AperFunction,ComponentPad*
%ADD16C,6.200000*%
G04 #@! TD*
G04 #@! TA.AperFunction,ComponentPad*
%ADD17C,6.300000*%
G04 #@! TD*
G04 #@! TA.AperFunction,ComponentPad*
%ADD18R,1.700000X1.700000*%
G04 #@! TD*
G04 #@! TA.AperFunction,ComponentPad*
%ADD19O,1.700000X1.700000*%
G04 #@! TD*
G04 #@! TA.AperFunction,ViaPad*
%ADD20C,0.800000*%
G04 #@! TD*
G04 #@! TA.AperFunction,Conductor*
%ADD21C,0.600000*%
G04 #@! TD*
G04 #@! TA.AperFunction,Conductor*
%ADD22C,0.500000*%
G04 #@! TD*
G04 #@! TA.AperFunction,Conductor*
%ADD23C,0.400000*%
G04 #@! TD*
G04 #@! TA.AperFunction,Conductor*
%ADD24C,0.300000*%
G04 #@! TD*
G04 #@! TA.AperFunction,Conductor*
%ADD25C,0.200000*%
G04 #@! TD*
G04 APERTURE END LIST*
D10*
G04 #@! TO.P,SW1,2*
G04 #@! TO.N,GND*
X-5218019Y4581981D03*
G04 #@! TO.P,SW1,1*
G04 #@! TO.N,/RST*
X-8400000Y1400000D03*
G04 #@! TO.P,SW1,2*
G04 #@! TO.N,GND*
X-9814214Y9178175D03*
G04 #@! TO.P,SW1,1*
G04 #@! TO.N,/RST*
X-12996194Y5996194D03*
G04 #@! TD*
D11*
G04 #@! TO.P,J1,3*
G04 #@! TO.N,+5V*
X-7096051Y-9203949D03*
D12*
G04 #@! TD*
G04 #@! TO.N,+5V*
G04 #@! TO.C,J1*
X-7096051Y-9203949D02*
X-7096051Y-9203949D01*
D11*
G04 #@! TO.P,J1,2*
G04 #@! TO.N,Net-(J1-Pad2)*
X-5300000Y-11000000D03*
D12*
G04 #@! TD*
G04 #@! TO.N,Net-(J1-Pad2)*
G04 #@! TO.C,J1*
X-5300000Y-11000000D02*
X-5300000Y-11000000D01*
D11*
G04 #@! TO.P,J1,1*
G04 #@! TO.N,GND*
X-3503949Y-12796051D03*
D13*
G04 #@! TD*
G04 #@! TO.N,GND*
G04 #@! TO.C,J1*
G36*
X-3503949Y-11593969D02*
X-2301867Y-12796051D01*
X-3503949Y-13998133D01*
X-4706031Y-12796051D01*
X-3503949Y-11593969D01*
X-3503949Y-11593969D01*
G37*
D11*
G04 #@! TO.P,J3,6*
G04 #@! TO.N,GND*
X-8211846Y-14696051D03*
D12*
G04 #@! TD*
G04 #@! TO.N,GND*
G04 #@! TO.C,J3*
X-8211846Y-14696051D02*
X-8211846Y-14696051D01*
D11*
G04 #@! TO.P,J3,5*
G04 #@! TO.N,/RST*
X-10007898Y-16492102D03*
D12*
G04 #@! TD*
G04 #@! TO.N,/RST*
G04 #@! TO.C,J3*
X-10007898Y-16492102D02*
X-10007898Y-16492102D01*
D11*
G04 #@! TO.P,J3,4*
G04 #@! TO.N,/MOSI*
X-10007898Y-12900000D03*
D12*
G04 #@! TD*
G04 #@! TO.N,/MOSI*
G04 #@! TO.C,J3*
X-10007898Y-12900000D02*
X-10007898Y-12900000D01*
D11*
G04 #@! TO.P,J3,3*
G04 #@! TO.N,/SCK*
X-11803949Y-14696051D03*
D12*
G04 #@! TD*
G04 #@! TO.N,/SCK*
G04 #@! TO.C,J3*
X-11803949Y-14696051D02*
X-11803949Y-14696051D01*
D11*
G04 #@! TO.P,J3,2*
G04 #@! TO.N,+5V*
X-11803949Y-11103949D03*
D12*
G04 #@! TD*
G04 #@! TO.N,+5V*
G04 #@! TO.C,J3*
X-11803949Y-11103949D02*
X-11803949Y-11103949D01*
D11*
G04 #@! TO.P,J3,1*
G04 #@! TO.N,/MISO*
X-13600000Y-12900000D03*
D13*
G04 #@! TD*
G04 #@! TO.N,/MISO*
G04 #@! TO.C,J3*
G36*
X-13600000Y-14102082D02*
X-14802082Y-12900000D01*
X-13600000Y-11697918D01*
X-12397918Y-12900000D01*
X-13600000Y-14102082D01*
X-13600000Y-14102082D01*
G37*
D14*
G04 #@! TO.P,J4,6*
G04 #@! TO.N,GND*
X-3700000Y20537500D03*
X3300000Y20537500D03*
D15*
X-2700000Y17837500D03*
X2300000Y17837500D03*
G04 #@! TD*
D11*
G04 #@! TO.P,J2,12*
G04 #@! TO.N,/A3*
X18100000Y-7620000D03*
G04 #@! TO.P,J2,11*
G04 #@! TO.N,/A2*
X18100000Y-5080000D03*
G04 #@! TO.P,J2,10*
G04 #@! TO.N,/A1*
X18100000Y-2540000D03*
G04 #@! TO.P,J2,9*
G04 #@! TO.N,/A0*
X18100000Y0D03*
G04 #@! TO.P,J2,8*
G04 #@! TO.N,/D6*
X18100000Y2540000D03*
G04 #@! TO.P,J2,7*
G04 #@! TO.N,VBUS*
X18100000Y5080000D03*
G04 #@! TO.P,J2,6*
G04 #@! TO.N,/D5*
X20800000Y-6350000D03*
G04 #@! TO.P,J2,5*
G04 #@! TO.N,/D4*
X20800000Y-3810000D03*
G04 #@! TO.P,J2,4*
G04 #@! TO.N,/D3*
X20800000Y-1270000D03*
G04 #@! TO.P,J2,3*
G04 #@! TO.N,/D2*
X20800000Y1270000D03*
G04 #@! TO.P,J2,2*
G04 #@! TO.N,/TXD*
X20800000Y3810000D03*
G04 #@! TO.P,J2,1*
G04 #@! TO.N,/TX_ESP32*
X20800000Y6350000D03*
G04 #@! TO.P,J2,18*
G04 #@! TO.N,GND*
X-18100000Y-7620000D03*
G04 #@! TO.P,J2,17*
X-18100000Y-5080000D03*
G04 #@! TO.P,J2,16*
X-18100000Y-2540000D03*
G04 #@! TO.P,J2,15*
G04 #@! TO.N,+5V*
X-18100000Y0D03*
G04 #@! TO.P,J2,14*
G04 #@! TO.N,+3V3*
X-18100000Y2540000D03*
G04 #@! TO.P,J2,13*
G04 #@! TO.N,+BATT*
X-18100000Y5080000D03*
G04 #@! TO.P,J2,24*
G04 #@! TO.N,/SDA*
X-20800000Y-6350000D03*
G04 #@! TO.P,J2,23*
G04 #@! TO.N,/SCL*
X-20800000Y-3810000D03*
G04 #@! TO.P,J2,22*
G04 #@! TO.N,/SS*
X-20800000Y-1270000D03*
G04 #@! TO.P,J2,21*
G04 #@! TO.N,/SCK*
X-20800000Y1270000D03*
G04 #@! TO.P,J2,20*
G04 #@! TO.N,/MISO*
X-20800000Y3810000D03*
G04 #@! TO.P,J2,19*
G04 #@! TO.N,/MOSI*
X-20800000Y6350000D03*
G04 #@! TD*
D16*
G04 #@! TO.P,MH1,3*
G04 #@! TO.N,GND*
X0Y-20200000D03*
D17*
G04 #@! TO.P,MH1,1*
X-12500000Y13500000D03*
D16*
G04 #@! TO.P,MH1,2*
X12500000Y13500000D03*
G04 #@! TD*
D18*
G04 #@! TO.P,J5,1*
G04 #@! TO.N,GND*
X19250000Y9000000D03*
D19*
G04 #@! TO.P,J5,2*
G04 #@! TO.N,/TXD*
X16710000Y9000000D03*
G04 #@! TO.P,J5,3*
G04 #@! TO.N,/RXD*
X14170000Y9000000D03*
G04 #@! TD*
D20*
G04 #@! TO.N,+5V*
X-11800000Y-8300000D03*
X-7600000Y-7000000D03*
X-15000000Y470000D03*
X-13700000Y-3300000D03*
X-15600000Y7100000D03*
X6553200Y2286000D03*
X6146800Y5435600D03*
G04 #@! TO.N,GND*
X5100000Y3800000D03*
X-16700000Y-10600000D03*
X-4100000Y-20200000D03*
X1665686Y-3700000D03*
X-1420000Y-6785686D03*
X-16020000Y-7700000D03*
X-5462500Y20537500D03*
X4890000Y20540000D03*
X3550000Y17800000D03*
X-4050000Y17850000D03*
X-3200000Y12480000D03*
X640000Y11310000D03*
X1625600Y15494000D03*
X8015036Y-812800D03*
G04 #@! TO.N,/RST*
X1100000Y-5400000D03*
X-4000000Y-400000D03*
X7700000Y-14600000D03*
X7700000Y-11199955D03*
X-3048000Y2895600D03*
X-1371600Y4572004D03*
G04 #@! TO.N,/TX_LED*
X-4770000Y13740000D03*
X-5892800Y18694400D03*
G04 #@! TO.N,/MOSI*
X-8702404Y-2540000D03*
X-9906000Y812800D03*
G04 #@! TO.N,/MISO*
X-8991600Y-609600D03*
X-6502400Y-2387600D03*
G04 #@! TO.N,/SCK*
X-7199989Y-3900000D03*
X-11430000Y-2895600D03*
G04 #@! TO.N,/SCL*
X6300000Y-11200000D03*
X6300000Y-15500006D03*
G04 #@! TO.N,/SDA*
X4900000Y-11200000D03*
X4900000Y-16300000D03*
G04 #@! TO.N,/TXD*
X10500000Y-8299999D03*
X7700000Y-8300000D03*
X19100000Y7300000D03*
X19800000Y5100000D03*
G04 #@! TO.N,/RXD*
X12090400Y5638800D03*
X10871200Y9245604D03*
G04 #@! TO.N,Net-(U3-Pad13)*
X-5900000Y11500000D03*
X-7100000Y12700000D03*
X-2000000Y16400000D03*
X-6299200Y16408400D03*
G04 #@! TO.N,/D+*
X-64086Y13818086D03*
X1828800Y14376400D03*
G04 #@! TO.N,VBUS*
X14274800Y4673600D03*
X9753598Y9245600D03*
G04 #@! TO.N,/A2*
X13100001Y-8800000D03*
X13665200Y-5079998D03*
G04 #@! TO.N,/A1*
X14500000Y-2500000D03*
X14450000Y-8800000D03*
G04 #@! TO.N,/A0*
X15800000Y0D03*
X15800000Y-8800000D03*
G04 #@! TO.N,/D6*
X15800000Y2500000D03*
X15750000Y6750008D03*
G04 #@! TO.N,/D5*
X14500000Y0D03*
X11931107Y2546893D03*
G04 #@! TO.N,/D4*
X7300002Y-3800000D03*
X13665200Y-3759200D03*
G04 #@! TO.N,/D3*
X14500000Y-1300000D03*
X8128000Y-2641600D03*
G04 #@! TO.N,/D2*
X8300000Y-7300000D03*
X12192000Y-7264400D03*
G04 #@! TO.N,/TX_USB*
X3098800Y7162800D03*
X4216400Y6045200D03*
G04 #@! TD*
D21*
G04 #@! TO.N,+5V*
X-13700000Y-3300000D02*
X-13700000Y-6100000D01*
X-13700000Y-6100000D02*
X-12800000Y-7000000D01*
X-11800000Y-7100000D02*
X-11800000Y-8300000D01*
X-11700000Y-7000000D02*
X-11800000Y-7100000D01*
X-11700000Y-7000000D02*
X-7600000Y-7000000D01*
X-12800000Y-7000000D02*
X-11700000Y-7000000D01*
X-15000000Y470000D02*
X-15600000Y1070000D01*
X-15600000Y1070000D02*
X-15600000Y7100000D01*
D22*
X6604000Y4978400D02*
X6146800Y5435600D01*
X6553200Y2286000D02*
X6604000Y2336800D01*
X6604000Y2336800D02*
X6604000Y4978400D01*
D23*
G04 #@! TO.N,GND*
X-12500000Y13500000D02*
X-5462500Y20537500D01*
G04 #@! TO.N,/RST*
X-3999994Y-400000D02*
X-4000000Y-400000D01*
X7700000Y-14600000D02*
X7700000Y-11199955D01*
X1000000Y-5400000D02*
X1100000Y-5400000D01*
X-4000000Y-400000D02*
X1000000Y-5400000D01*
D22*
X-3048000Y2895600D02*
X-1371600Y4572000D01*
X-1371600Y4572000D02*
X-1371600Y4572004D01*
D23*
G04 #@! TO.N,/TX_LED*
X-7099201Y16069201D02*
X-7099201Y17487999D01*
X-4770000Y13740000D02*
X-7099201Y16069201D01*
X-6292799Y18294401D02*
X-5892800Y18694400D01*
X-7099201Y17487999D02*
X-6292799Y18294401D01*
G04 #@! TO.N,/MOSI*
X-8702404Y-2540000D02*
X-9906000Y-1336404D01*
X-9906000Y-1336404D02*
X-9906000Y812800D01*
G04 #@! TO.N,/MISO*
X-8991600Y-609600D02*
X-8280400Y-609600D01*
X-8280400Y-609600D02*
X-6902399Y-1987601D01*
X-6902399Y-1987601D02*
X-6502400Y-2387600D01*
G04 #@! TO.N,/SCK*
X-7199989Y-3900000D02*
X-10425600Y-3900000D01*
X-10425600Y-3900000D02*
X-11030001Y-3295599D01*
X-11030001Y-3295599D02*
X-11430000Y-2895600D01*
G04 #@! TO.N,/SCL*
X6300000Y-11200000D02*
X6300000Y-15500006D01*
G04 #@! TO.N,/SDA*
X4900000Y-11200000D02*
X4900000Y-16300000D01*
G04 #@! TO.N,/TXD*
X10500000Y-8299999D02*
X7700001Y-8299999D01*
X7700001Y-8299999D02*
X7700000Y-8300000D01*
X19499999Y5400001D02*
X19800000Y5100000D01*
X19100000Y7300000D02*
X19499999Y6900001D01*
X19499999Y6900001D02*
X19499999Y5400001D01*
G04 #@! TO.N,/RXD*
X10871200Y8679919D02*
X10871200Y9245604D01*
X10871200Y6858000D02*
X10871200Y8679919D01*
X12090400Y5638800D02*
X10871200Y6858000D01*
G04 #@! TO.N,Net-(U3-Pad13)*
X-5900000Y11500000D02*
X-7100000Y12700000D01*
X-2000000Y16400000D02*
X-6290800Y16400000D01*
X-6290800Y16400000D02*
X-6299200Y16408400D01*
D24*
G04 #@! TO.N,/D+*
X-64086Y13818086D02*
X1270486Y13818086D01*
X1270486Y13818086D02*
X1828800Y14376400D01*
D23*
G04 #@! TO.N,VBUS*
X11582400Y4673600D02*
X9753598Y6502402D01*
X9753598Y6502402D02*
X9753598Y8679915D01*
X9753598Y8679915D02*
X9753598Y9245600D01*
X14274800Y4673600D02*
X11582400Y4673600D01*
G04 #@! TO.N,/A2*
X13100001Y-8800001D02*
X13665200Y-8234802D01*
X13665200Y-8234802D02*
X13665200Y-5645683D01*
X13665200Y-5645683D02*
X13665200Y-5079998D01*
G04 #@! TO.N,/A1*
X14500000Y-2500000D02*
X14500000Y-8800000D01*
G04 #@! TO.N,/A0*
X15800000Y0D02*
X15800000Y-8900000D01*
G04 #@! TO.N,/D6*
X15800000Y2500000D02*
X15800000Y6700008D01*
X15800000Y6700008D02*
X15750000Y6750008D01*
G04 #@! TO.N,/D5*
X11953107Y2546893D02*
X11931107Y2546893D01*
X14500000Y0D02*
X11953107Y2546893D01*
G04 #@! TO.N,/D4*
X13624400Y-3800000D02*
X13665200Y-3759200D01*
X7300002Y-3800000D02*
X13624400Y-3800000D01*
G04 #@! TO.N,/D3*
X13158400Y-2641600D02*
X14500000Y-1300000D01*
X8128000Y-2641600D02*
X13158400Y-2641600D01*
G04 #@! TO.N,/D2*
X12156400Y-7300000D02*
X12192000Y-7264400D01*
X8300000Y-7300000D02*
X12156400Y-7300000D01*
G04 #@! TO.N,/TX_USB*
X3098800Y7162800D02*
X4216400Y6045200D01*
G04 #@! TD*
D25*
G04 #@! TO.N,GND*
G36*
X2169197Y22947703D02*
X4042203Y22692798D01*
X5888025Y22285279D01*
X7694248Y21727886D01*
X9448726Y21024369D01*
X11139659Y20179457D01*
X12755675Y19198835D01*
X14285907Y18089095D01*
X15720062Y16857703D01*
X17048497Y15512938D01*
X18262276Y14063846D01*
X19353238Y12520171D01*
X20314045Y10892295D01*
X21138235Y9191166D01*
X21820265Y7428224D01*
X22355550Y5615326D01*
X22740488Y3764663D01*
X22972492Y1888683D01*
X23050000Y0D01*
X23022481Y-1125987D01*
X22852804Y-3008629D01*
X22529436Y-4871037D01*
X22054553Y-6700686D01*
X21431348Y-8485271D01*
X20664012Y-10212791D01*
X19757706Y-11871628D01*
X18718525Y-13450625D01*
X17553458Y-14939164D01*
X16270340Y-16327233D01*
X14877800Y-17605498D01*
X13385203Y-18765363D01*
X11802588Y-19799026D01*
X10140598Y-20699536D01*
X8410410Y-21460837D01*
X6623660Y-22077809D01*
X4792364Y-22546302D01*
X2928839Y-22863167D01*
X2118805Y-22933324D01*
X2307743Y-22719875D01*
X0Y-20412132D01*
X-2307743Y-22719875D01*
X-2116870Y-22935509D01*
X-2729211Y-22887855D01*
X-4595431Y-22587264D01*
X-6430745Y-22134769D01*
X-8222811Y-21533413D01*
X-9959577Y-20787240D01*
X-11043845Y-20211937D01*
X-3516915Y-20211937D01*
X-3447010Y-20897824D01*
X-3244638Y-21556893D01*
X-2930840Y-22143969D01*
X-2519875Y-22507743D01*
X-212132Y-20200000D01*
X212132Y-20200000D01*
X2519875Y-22507743D01*
X2930840Y-22143969D01*
X3253774Y-21534837D01*
X3451667Y-20874409D01*
X3516915Y-20188063D01*
X3447010Y-19502176D01*
X3244638Y-18843107D01*
X2930840Y-18256031D01*
X2519875Y-17892257D01*
X212132Y-20200000D01*
X-212132Y-20200000D01*
X-2519875Y-17892257D01*
X-2930840Y-18256031D01*
X-3253774Y-18865163D01*
X-3451667Y-19525591D01*
X-3516915Y-20211937D01*
X-11043845Y-20211937D01*
X-11629362Y-19901267D01*
X-13220937Y-18881455D01*
X-14723598Y-17734660D01*
X-16101178Y-16492102D01*
X-11213704Y-16492102D01*
X-11190535Y-16727343D01*
X-11121917Y-16953544D01*
X-11010489Y-17162012D01*
X-10860532Y-17344736D01*
X-10677808Y-17494693D01*
X-10469340Y-17606121D01*
X-10243139Y-17674739D01*
X-10066848Y-17692102D01*
X-9948948Y-17692102D01*
X-9827343Y-17680125D01*
X-2307743Y-17680125D01*
X0Y-19987868D01*
X2307743Y-17680125D01*
X1943969Y-17269160D01*
X1334837Y-16946226D01*
X674409Y-16748333D01*
X-11937Y-16683085D01*
X-697824Y-16752990D01*
X-1356893Y-16955362D01*
X-1943969Y-17269160D01*
X-2307743Y-17680125D01*
X-9827343Y-17680125D01*
X-9772657Y-17674739D01*
X-9546456Y-17606121D01*
X-9337988Y-17494693D01*
X-9155264Y-17344736D01*
X-9005307Y-17162012D01*
X-8893879Y-16953544D01*
X-8825261Y-16727343D01*
X-8802092Y-16492102D01*
X-8825261Y-16256861D01*
X-8893879Y-16030660D01*
X-9005307Y-15822192D01*
X-9155264Y-15639468D01*
X-9193191Y-15608342D01*
X-8912005Y-15608342D01*
X-8819915Y-15788182D01*
X-8782096Y-15808404D01*
X-8554130Y-15898281D01*
X-8313010Y-15941957D01*
X-8068002Y-15937753D01*
X-7828522Y-15885832D01*
X-7603772Y-15788187D01*
X-7511122Y-15608907D01*
X-8211846Y-14908183D01*
X-8912005Y-15608342D01*
X-9193191Y-15608342D01*
X-9337988Y-15489511D01*
X-9546456Y-15378083D01*
X-9772657Y-15309465D01*
X-9948948Y-15292102D01*
X-10066848Y-15292102D01*
X-10243139Y-15309465D01*
X-10469340Y-15378083D01*
X-10677808Y-15489511D01*
X-10860532Y-15639468D01*
X-11010489Y-15822192D01*
X-11121917Y-16030660D01*
X-11190535Y-16256861D01*
X-11213704Y-16492102D01*
X-16101178Y-16492102D01*
X-16127240Y-16468595D01*
X-17422422Y-15091776D01*
X-17737760Y-14696051D01*
X-13009755Y-14696051D01*
X-12986586Y-14931292D01*
X-12917968Y-15157493D01*
X-12806540Y-15365961D01*
X-12656583Y-15548685D01*
X-12473859Y-15698642D01*
X-12265391Y-15810070D01*
X-12039190Y-15878688D01*
X-11862899Y-15896051D01*
X-11744999Y-15896051D01*
X-11568708Y-15878688D01*
X-11342507Y-15810070D01*
X-11134039Y-15698642D01*
X-10951315Y-15548685D01*
X-10801358Y-15365961D01*
X-10689930Y-15157493D01*
X-10621312Y-14931292D01*
X-10608107Y-14797215D01*
X-9457752Y-14797215D01*
X-9414076Y-15038335D01*
X-9324199Y-15266301D01*
X-9303977Y-15304120D01*
X-9124137Y-15396210D01*
X-8423978Y-14696051D01*
X-7999714Y-14696051D01*
X-7298990Y-15396775D01*
X-7119710Y-15304125D01*
X-7022065Y-15079375D01*
X-6970144Y-14839895D01*
X-6965940Y-14594887D01*
X-7009616Y-14353767D01*
X-7099493Y-14125801D01*
X-7119715Y-14087982D01*
X-7299555Y-13995892D01*
X-7999714Y-14696051D01*
X-8423978Y-14696051D01*
X-9124702Y-13995327D01*
X-9303982Y-14087977D01*
X-9401627Y-14312727D01*
X-9453548Y-14552207D01*
X-9457752Y-14797215D01*
X-10608107Y-14797215D01*
X-10598143Y-14696051D01*
X-10621312Y-14460810D01*
X-10689930Y-14234609D01*
X-10801358Y-14026141D01*
X-10951315Y-13843417D01*
X-11134039Y-13693460D01*
X-11342507Y-13582032D01*
X-11568708Y-13513414D01*
X-11744999Y-13496051D01*
X-11862899Y-13496051D01*
X-12039190Y-13513414D01*
X-12265391Y-13582032D01*
X-12473859Y-13693460D01*
X-12656583Y-13843417D01*
X-12806540Y-14026141D01*
X-12917968Y-14234609D01*
X-12986586Y-14460810D01*
X-13009755Y-14696051D01*
X-17737760Y-14696051D01*
X-18600435Y-13613461D01*
X-19078957Y-12900000D01*
X-15153775Y-12900000D01*
X-15147017Y-12968612D01*
X-15127004Y-13034587D01*
X-15094504Y-13095390D01*
X-15050767Y-13148685D01*
X-13848685Y-14350767D01*
X-13795390Y-14394504D01*
X-13734587Y-14427004D01*
X-13668612Y-14447017D01*
X-13600000Y-14453775D01*
X-13531388Y-14447017D01*
X-13465413Y-14427004D01*
X-13404610Y-14394504D01*
X-13351315Y-14350767D01*
X-12149233Y-13148685D01*
X-12105496Y-13095390D01*
X-12072996Y-13034587D01*
X-12052983Y-12968612D01*
X-12046225Y-12900000D01*
X-11213704Y-12900000D01*
X-11190535Y-13135241D01*
X-11121917Y-13361442D01*
X-11010489Y-13569910D01*
X-10860532Y-13752634D01*
X-10677808Y-13902591D01*
X-10469340Y-14014019D01*
X-10243139Y-14082637D01*
X-10066848Y-14100000D01*
X-9948948Y-14100000D01*
X-9772657Y-14082637D01*
X-9546456Y-14014019D01*
X-9337988Y-13902591D01*
X-9192503Y-13783195D01*
X-8912570Y-13783195D01*
X-8211846Y-14483919D01*
X-7511687Y-13783760D01*
X-7546748Y-13715290D01*
X-4211056Y-13715290D01*
X-4211056Y-13856711D01*
X-3758935Y-14308832D01*
X-3693420Y-14352607D01*
X-3620625Y-14382761D01*
X-3543346Y-14398133D01*
X-3464553Y-14398133D01*
X-3387274Y-14382760D01*
X-3314478Y-14352608D01*
X-3248964Y-14308833D01*
X-2796842Y-13856711D01*
X-2796842Y-13715290D01*
X-3503949Y-13008183D01*
X-4211056Y-13715290D01*
X-7546748Y-13715290D01*
X-7603777Y-13603920D01*
X-7641596Y-13583698D01*
X-7869562Y-13493821D01*
X-8110682Y-13450145D01*
X-8355690Y-13454349D01*
X-8595170Y-13506270D01*
X-8819920Y-13603915D01*
X-8912570Y-13783195D01*
X-9192503Y-13783195D01*
X-9155264Y-13752634D01*
X-9005307Y-13569910D01*
X-8893879Y-13361442D01*
X-8825261Y-13135241D01*
X-8802092Y-12900000D01*
X-8816210Y-12756655D01*
X-5106031Y-12756655D01*
X-5106031Y-12835448D01*
X-5090659Y-12912727D01*
X-5060505Y-12985522D01*
X-5016730Y-13051037D01*
X-4564609Y-13503158D01*
X-4423188Y-13503158D01*
X-3716081Y-12796051D01*
X-3291817Y-12796051D01*
X-2584710Y-13503158D01*
X-2443289Y-13503158D01*
X-1991167Y-13051036D01*
X-1947392Y-12985522D01*
X-1917240Y-12912726D01*
X-1901867Y-12835447D01*
X-1901867Y-12756654D01*
X-1917239Y-12679375D01*
X-1947393Y-12606580D01*
X-1991168Y-12541065D01*
X-2443289Y-12088944D01*
X-2584710Y-12088944D01*
X-3291817Y-12796051D01*
X-3716081Y-12796051D01*
X-4423188Y-12088944D01*
X-4564609Y-12088944D01*
X-5016731Y-12541066D01*
X-5060506Y-12606580D01*
X-5090658Y-12679376D01*
X-5106031Y-12756655D01*
X-8816210Y-12756655D01*
X-8825261Y-12664759D01*
X-8893879Y-12438558D01*
X-9005307Y-12230090D01*
X-9155264Y-12047366D01*
X-9337988Y-11897409D01*
X-9546456Y-11785981D01*
X-9772657Y-11717363D01*
X-9948948Y-11700000D01*
X-10066848Y-11700000D01*
X-10243139Y-11717363D01*
X-10469340Y-11785981D01*
X-10677808Y-11897409D01*
X-10860532Y-12047366D01*
X-11010489Y-12230090D01*
X-11121917Y-12438558D01*
X-11190535Y-12664759D01*
X-11213704Y-12900000D01*
X-12046225Y-12900000D01*
X-12052983Y-12831388D01*
X-12072996Y-12765413D01*
X-12105496Y-12704610D01*
X-12149233Y-12651315D01*
X-13351315Y-11449233D01*
X-13404610Y-11405496D01*
X-13465413Y-11372996D01*
X-13531388Y-11352983D01*
X-13600000Y-11346225D01*
X-13668612Y-11352983D01*
X-13734587Y-11372996D01*
X-13795390Y-11405496D01*
X-13848685Y-11449233D01*
X-15050767Y-12651315D01*
X-15094504Y-12704610D01*
X-15127004Y-12765413D01*
X-15147017Y-12831388D01*
X-15153775Y-12900000D01*
X-19078957Y-12900000D01*
X-19653356Y-12043592D01*
X-20177428Y-11103949D01*
X-13009755Y-11103949D01*
X-12986586Y-11339190D01*
X-12917968Y-11565391D01*
X-12806540Y-11773859D01*
X-12656583Y-11956583D01*
X-12473859Y-12106540D01*
X-12265391Y-12217968D01*
X-12039190Y-12286586D01*
X-11862899Y-12303949D01*
X-11744999Y-12303949D01*
X-11568708Y-12286586D01*
X-11342507Y-12217968D01*
X-11134039Y-12106540D01*
X-10951315Y-11956583D01*
X-10801358Y-11773859D01*
X-10689930Y-11565391D01*
X-10621312Y-11339190D01*
X-10598143Y-11103949D01*
X-10608380Y-11000000D01*
X-6505806Y-11000000D01*
X-6482637Y-11235241D01*
X-6414019Y-11461442D01*
X-6302591Y-11669910D01*
X-6152634Y-11852634D01*
X-5969910Y-12002591D01*
X-5761442Y-12114019D01*
X-5535241Y-12182637D01*
X-5358950Y-12200000D01*
X-5241050Y-12200000D01*
X-5064759Y-12182637D01*
X-4838558Y-12114019D01*
X-4630090Y-12002591D01*
X-4447366Y-11852634D01*
X-4351148Y-11735391D01*
X-4211056Y-11735391D01*
X-4211056Y-11876812D01*
X-3503949Y-12583919D01*
X-2796842Y-11876812D01*
X-2796842Y-11735391D01*
X-3248963Y-11283270D01*
X-3314478Y-11239495D01*
X-3387273Y-11209341D01*
X-3464552Y-11193969D01*
X-3543345Y-11193969D01*
X-3620624Y-11209342D01*
X-3693420Y-11239494D01*
X-3758934Y-11283269D01*
X-4211056Y-11735391D01*
X-4351148Y-11735391D01*
X-4297409Y-11669910D01*
X-4185981Y-11461442D01*
X-4117363Y-11235241D01*
X-4106617Y-11126131D01*
X4150000Y-11126131D01*
X4150000Y-11273869D01*
X4178822Y-11418767D01*
X4235359Y-11555258D01*
X4317437Y-11678097D01*
X4350000Y-11710660D01*
X4350001Y-15789339D01*
X4317437Y-15821903D01*
X4235359Y-15944742D01*
X4178822Y-16081233D01*
X4150000Y-16226131D01*
X4150000Y-16373869D01*
X4178822Y-16518767D01*
X4235359Y-16655258D01*
X4317437Y-16778097D01*
X4421903Y-16882563D01*
X4544742Y-16964641D01*
X4681233Y-17021178D01*
X4826131Y-17050000D01*
X4973869Y-17050000D01*
X5118767Y-17021178D01*
X5255258Y-16964641D01*
X5378097Y-16882563D01*
X5482563Y-16778097D01*
X5564641Y-16655258D01*
X5621178Y-16518767D01*
X5650000Y-16373869D01*
X5650000Y-16226131D01*
X5621178Y-16081233D01*
X5564641Y-15944742D01*
X5482563Y-15821903D01*
X5450000Y-15789340D01*
X5450000Y-11710660D01*
X5482563Y-11678097D01*
X5564641Y-11555258D01*
X5600000Y-11469895D01*
X5635359Y-11555258D01*
X5717437Y-11678097D01*
X5750000Y-11710660D01*
X5750001Y-14989345D01*
X5717437Y-15021909D01*
X5635359Y-15144748D01*
X5578822Y-15281239D01*
X5550000Y-15426137D01*
X5550000Y-15573875D01*
X5578822Y-15718773D01*
X5635359Y-15855264D01*
X5717437Y-15978103D01*
X5821903Y-16082569D01*
X5944742Y-16164647D01*
X6081233Y-16221184D01*
X6226131Y-16250006D01*
X6373869Y-16250006D01*
X6518767Y-16221184D01*
X6655258Y-16164647D01*
X6778097Y-16082569D01*
X6882563Y-15978103D01*
X6964641Y-15855264D01*
X7021178Y-15718773D01*
X7050000Y-15573875D01*
X7050000Y-15426137D01*
X7021178Y-15281239D01*
X6964641Y-15144748D01*
X6882563Y-15021909D01*
X6850000Y-14989346D01*
X6850000Y-11710660D01*
X6882563Y-11678097D01*
X6964641Y-11555258D01*
X7000009Y-11469872D01*
X7035359Y-11555213D01*
X7117437Y-11678052D01*
X7150001Y-11710616D01*
X7150000Y-14089340D01*
X7117437Y-14121903D01*
X7035359Y-14244742D01*
X6978822Y-14381233D01*
X6950000Y-14526131D01*
X6950000Y-14673869D01*
X6978822Y-14818767D01*
X7035359Y-14955258D01*
X7117437Y-15078097D01*
X7221903Y-15182563D01*
X7344742Y-15264641D01*
X7481233Y-15321178D01*
X7626131Y-15350000D01*
X7773869Y-15350000D01*
X7918767Y-15321178D01*
X8055258Y-15264641D01*
X8178097Y-15182563D01*
X8282563Y-15078097D01*
X8364641Y-14955258D01*
X8421178Y-14818767D01*
X8450000Y-14673869D01*
X8450000Y-14526131D01*
X8421178Y-14381233D01*
X8364641Y-14244742D01*
X8282563Y-14121903D01*
X8250000Y-14089340D01*
X8250000Y-11710615D01*
X8282563Y-11678052D01*
X8364641Y-11555213D01*
X8421178Y-11418722D01*
X8450000Y-11273824D01*
X8450000Y-11126086D01*
X8421178Y-10981188D01*
X8364641Y-10844697D01*
X8282563Y-10721858D01*
X8178097Y-10617392D01*
X8055258Y-10535314D01*
X7918767Y-10478777D01*
X7773869Y-10449955D01*
X7626131Y-10449955D01*
X7481233Y-10478777D01*
X7344742Y-10535314D01*
X7221903Y-10617392D01*
X7117437Y-10721858D01*
X7035359Y-10844697D01*
X6999991Y-10930083D01*
X6964641Y-10844742D01*
X6882563Y-10721903D01*
X6778097Y-10617437D01*
X6655258Y-10535359D01*
X6518767Y-10478822D01*
X6373869Y-10450000D01*
X6226131Y-10450000D01*
X6081233Y-10478822D01*
X5944742Y-10535359D01*
X5821903Y-10617437D01*
X5717437Y-10721903D01*
X5635359Y-10844742D01*
X5600000Y-10930105D01*
X5564641Y-10844742D01*
X5482563Y-10721903D01*
X5378097Y-10617437D01*
X5255258Y-10535359D01*
X5118767Y-10478822D01*
X4973869Y-10450000D01*
X4826131Y-10450000D01*
X4681233Y-10478822D01*
X4544742Y-10535359D01*
X4421903Y-10617437D01*
X4317437Y-10721903D01*
X4235359Y-10844742D01*
X4178822Y-10981233D01*
X4150000Y-11126131D01*
X-4106617Y-11126131D01*
X-4094194Y-11000000D01*
X-4117363Y-10764759D01*
X-4185981Y-10538558D01*
X-4297409Y-10330090D01*
X-4447366Y-10147366D01*
X-4630090Y-9997409D01*
X-4838558Y-9885981D01*
X-5064759Y-9817363D01*
X-5241050Y-9800000D01*
X-5358950Y-9800000D01*
X-5535241Y-9817363D01*
X-5761442Y-9885981D01*
X-5969910Y-9997409D01*
X-6152634Y-10147366D01*
X-6302591Y-10330090D01*
X-6414019Y-10538558D01*
X-6482637Y-10764759D01*
X-6505806Y-11000000D01*
X-10608380Y-11000000D01*
X-10621312Y-10868708D01*
X-10689930Y-10642507D01*
X-10801358Y-10434039D01*
X-10951315Y-10251315D01*
X-11134039Y-10101358D01*
X-11342507Y-9989930D01*
X-11568708Y-9921312D01*
X-11744999Y-9903949D01*
X-11862899Y-9903949D01*
X-12039190Y-9921312D01*
X-12265391Y-9989930D01*
X-12473859Y-10101358D01*
X-12656583Y-10251315D01*
X-12806540Y-10434039D01*
X-12917968Y-10642507D01*
X-12986586Y-10868708D01*
X-13009755Y-11103949D01*
X-20177428Y-11103949D01*
X-20574103Y-10392727D01*
X-21114608Y-9203949D01*
X-8301857Y-9203949D01*
X-8278688Y-9439190D01*
X-8210070Y-9665391D01*
X-8098642Y-9873859D01*
X-7948685Y-10056583D01*
X-7765961Y-10206540D01*
X-7557493Y-10317968D01*
X-7331292Y-10386586D01*
X-7155001Y-10403949D01*
X-7037101Y-10403949D01*
X-6860810Y-10386586D01*
X-6634609Y-10317968D01*
X-6426141Y-10206540D01*
X-6243417Y-10056583D01*
X-6093460Y-9873859D01*
X-5982032Y-9665391D01*
X-5913414Y-9439190D01*
X-5890245Y-9203949D01*
X-5913414Y-8968708D01*
X-5982032Y-8742507D01*
X-6093460Y-8534039D01*
X-6243417Y-8351315D01*
X-6395954Y-8226131D01*
X6950000Y-8226131D01*
X6950000Y-8373869D01*
X6978822Y-8518767D01*
X7035359Y-8655258D01*
X7117437Y-8778097D01*
X7221903Y-8882563D01*
X7344742Y-8964641D01*
X7481233Y-9021178D01*
X7626131Y-9050000D01*
X7773869Y-9050000D01*
X7918767Y-9021178D01*
X8055258Y-8964641D01*
X8178097Y-8882563D01*
X8210661Y-8849999D01*
X9989340Y-8849999D01*
X10021903Y-8882562D01*
X10144742Y-8964640D01*
X10281233Y-9021177D01*
X10426131Y-9049999D01*
X10573869Y-9049999D01*
X10718767Y-9021177D01*
X10855258Y-8964640D01*
X10978097Y-8882562D01*
X11082563Y-8778096D01*
X11164641Y-8655257D01*
X11221178Y-8518766D01*
X11250000Y-8373868D01*
X11250000Y-8226130D01*
X11221178Y-8081232D01*
X11164641Y-7944741D01*
X11101337Y-7850000D01*
X11718448Y-7850000D01*
X11836742Y-7929041D01*
X11973233Y-7985578D01*
X12118131Y-8014400D01*
X12265869Y-8014400D01*
X12410767Y-7985578D01*
X12547258Y-7929041D01*
X12670097Y-7846963D01*
X12774563Y-7742497D01*
X12856641Y-7619658D01*
X12913178Y-7483167D01*
X12942000Y-7338269D01*
X12942000Y-7190531D01*
X12913178Y-7045633D01*
X12856641Y-6909142D01*
X12774563Y-6786303D01*
X12670097Y-6681837D01*
X12547258Y-6599759D01*
X12410767Y-6543222D01*
X12265869Y-6514400D01*
X12118131Y-6514400D01*
X11973233Y-6543222D01*
X11836742Y-6599759D01*
X11713903Y-6681837D01*
X11645740Y-6750000D01*
X8810660Y-6750000D01*
X8778097Y-6717437D01*
X8655258Y-6635359D01*
X8518767Y-6578822D01*
X8373869Y-6550000D01*
X8226131Y-6550000D01*
X8081233Y-6578822D01*
X7944742Y-6635359D01*
X7821903Y-6717437D01*
X7717437Y-6821903D01*
X7635359Y-6944742D01*
X7578822Y-7081233D01*
X7550000Y-7226131D01*
X7550000Y-7373869D01*
X7578822Y-7518767D01*
X7594376Y-7556317D01*
X7481233Y-7578822D01*
X7344742Y-7635359D01*
X7221903Y-7717437D01*
X7117437Y-7821903D01*
X7035359Y-7944742D01*
X6978822Y-8081233D01*
X6950000Y-8226131D01*
X-6395954Y-8226131D01*
X-6426141Y-8201358D01*
X-6634609Y-8089930D01*
X-6860810Y-8021312D01*
X-7037101Y-8003949D01*
X-7155001Y-8003949D01*
X-7331292Y-8021312D01*
X-7557493Y-8089930D01*
X-7765961Y-8201358D01*
X-7948685Y-8351315D01*
X-8098642Y-8534039D01*
X-8210070Y-8742507D01*
X-8278688Y-8968708D01*
X-8301857Y-9203949D01*
X-21114608Y-9203949D01*
X-21356485Y-8671969D01*
X-21405085Y-8536605D01*
X-18804473Y-8536605D01*
X-18711650Y-8717059D01*
X-18485872Y-8815307D01*
X-18245264Y-8867618D01*
X-17999075Y-8871986D01*
X-17756764Y-8828240D01*
X-17527644Y-8738062D01*
X-17488350Y-8717059D01*
X-17395527Y-8536605D01*
X-18100000Y-7832132D01*
X-18804473Y-8536605D01*
X-21405085Y-8536605D01*
X-21697944Y-7720925D01*
X-19351986Y-7720925D01*
X-19308240Y-7963236D01*
X-19218062Y-8192356D01*
X-19197059Y-8231650D01*
X-19016605Y-8324473D01*
X-18312132Y-7620000D01*
X-17887868Y-7620000D01*
X-17183395Y-8324473D01*
X-17002941Y-8231650D01*
X-16904693Y-8005872D01*
X-16852382Y-7765264D01*
X-16848014Y-7519075D01*
X-16891760Y-7276764D01*
X-16981938Y-7047644D01*
X-17002941Y-7008350D01*
X-17183395Y-6915527D01*
X-17887868Y-7620000D01*
X-18312132Y-7620000D01*
X-19016605Y-6915527D01*
X-19197059Y-7008350D01*
X-19295307Y-7234128D01*
X-19347618Y-7474736D01*
X-19351986Y-7720925D01*
X-21697944Y-7720925D01*
X-21995240Y-6892890D01*
X-22172994Y-6231810D01*
X-22000000Y-6231810D01*
X-22000000Y-6468190D01*
X-21953884Y-6700027D01*
X-21863426Y-6918413D01*
X-21732101Y-7114955D01*
X-21564955Y-7282101D01*
X-21368413Y-7413426D01*
X-21150027Y-7503884D01*
X-20918190Y-7550000D01*
X-20681810Y-7550000D01*
X-20449973Y-7503884D01*
X-20231587Y-7413426D01*
X-20035045Y-7282101D01*
X-19867899Y-7114955D01*
X-19736574Y-6918413D01*
X-19647512Y-6703395D01*
X-18804473Y-6703395D01*
X-18100000Y-7407868D01*
X-17395527Y-6703395D01*
X-17488350Y-6522941D01*
X-17714128Y-6424693D01*
X-17954736Y-6372382D01*
X-18200925Y-6368014D01*
X-18443236Y-6411760D01*
X-18672356Y-6501938D01*
X-18711650Y-6522941D01*
X-18804473Y-6703395D01*
X-19647512Y-6703395D01*
X-19646116Y-6700027D01*
X-19600000Y-6468190D01*
X-19600000Y-6231810D01*
X-19646116Y-5999973D01*
X-19647511Y-5996605D01*
X-18804473Y-5996605D01*
X-18711650Y-6177059D01*
X-18485872Y-6275307D01*
X-18245264Y-6327618D01*
X-17999075Y-6331986D01*
X-17756764Y-6288240D01*
X-17527644Y-6198062D01*
X-17488350Y-6177059D01*
X-17395527Y-5996605D01*
X-18100000Y-5292132D01*
X-18804473Y-5996605D01*
X-19647511Y-5996605D01*
X-19736574Y-5781587D01*
X-19867899Y-5585045D01*
X-20035045Y-5417899D01*
X-20231587Y-5286574D01*
X-20449973Y-5196116D01*
X-20526342Y-5180925D01*
X-19351986Y-5180925D01*
X-19308240Y-5423236D01*
X-19218062Y-5652356D01*
X-19197059Y-5691650D01*
X-19016605Y-5784473D01*
X-18312132Y-5080000D01*
X-17887868Y-5080000D01*
X-17183395Y-5784473D01*
X-17002941Y-5691650D01*
X-16904693Y-5465872D01*
X-16852382Y-5225264D01*
X-16848014Y-4979075D01*
X-16891760Y-4736764D01*
X-16981938Y-4507644D01*
X-17002941Y-4468350D01*
X-17183395Y-4375527D01*
X-17887868Y-5080000D01*
X-18312132Y-5080000D01*
X-19016605Y-4375527D01*
X-19197059Y-4468350D01*
X-19295307Y-4694128D01*
X-19347618Y-4934736D01*
X-19351986Y-5180925D01*
X-20526342Y-5180925D01*
X-20681810Y-5150000D01*
X-20918190Y-5150000D01*
X-21150027Y-5196116D01*
X-21368413Y-5286574D01*
X-21564955Y-5417899D01*
X-21732101Y-5585045D01*
X-21863426Y-5781587D01*
X-21953884Y-5999973D01*
X-22000000Y-6231810D01*
X-22172994Y-6231810D01*
X-22486071Y-5067455D01*
X-22737308Y-3691810D01*
X-22000000Y-3691810D01*
X-22000000Y-3928190D01*
X-21953884Y-4160027D01*
X-21863426Y-4378413D01*
X-21732101Y-4574955D01*
X-21564955Y-4742101D01*
X-21368413Y-4873426D01*
X-21150027Y-4963884D01*
X-20918190Y-5010000D01*
X-20681810Y-5010000D01*
X-20449973Y-4963884D01*
X-20231587Y-4873426D01*
X-20035045Y-4742101D01*
X-19867899Y-4574955D01*
X-19736574Y-4378413D01*
X-19647512Y-4163395D01*
X-18804473Y-4163395D01*
X-18100000Y-4867868D01*
X-17395527Y-4163395D01*
X-17488350Y-3982941D01*
X-17714128Y-3884693D01*
X-17954736Y-3832382D01*
X-18200925Y-3828014D01*
X-18443236Y-3871760D01*
X-18672356Y-3961938D01*
X-18711650Y-3982941D01*
X-18804473Y-4163395D01*
X-19647512Y-4163395D01*
X-19646116Y-4160027D01*
X-19600000Y-3928190D01*
X-19600000Y-3691810D01*
X-19646116Y-3459973D01*
X-19647511Y-3456605D01*
X-18804473Y-3456605D01*
X-18711650Y-3637059D01*
X-18485872Y-3735307D01*
X-18245264Y-3787618D01*
X-17999075Y-3791986D01*
X-17756764Y-3748240D01*
X-17527644Y-3658062D01*
X-17488350Y-3637059D01*
X-17395527Y-3456605D01*
X-18100000Y-2752132D01*
X-18804473Y-3456605D01*
X-19647511Y-3456605D01*
X-19736574Y-3241587D01*
X-19867899Y-3045045D01*
X-20035045Y-2877899D01*
X-20231587Y-2746574D01*
X-20449973Y-2656116D01*
X-20526342Y-2640925D01*
X-19351986Y-2640925D01*
X-19308240Y-2883236D01*
X-19218062Y-3112356D01*
X-19197059Y-3151650D01*
X-19016605Y-3244473D01*
X-18312132Y-2540000D01*
X-17887868Y-2540000D01*
X-17183395Y-3244473D01*
X-17147737Y-3226131D01*
X-14450000Y-3226131D01*
X-14450000Y-3373869D01*
X-14421178Y-3518767D01*
X-14364641Y-3655258D01*
X-14350000Y-3677170D01*
X-14349999Y-6068069D01*
X-14353144Y-6100000D01*
X-14340594Y-6227422D01*
X-14303427Y-6349947D01*
X-14243070Y-6462868D01*
X-14182198Y-6537040D01*
X-14182195Y-6537043D01*
X-14161842Y-6561843D01*
X-14137043Y-6582195D01*
X-13282196Y-7437043D01*
X-13261843Y-7461843D01*
X-13237043Y-7482196D01*
X-13237041Y-7482198D01*
X-13210616Y-7503884D01*
X-13162868Y-7543070D01*
X-13049948Y-7603427D01*
X-12927422Y-7640595D01*
X-12831932Y-7650000D01*
X-12831922Y-7650000D01*
X-12800001Y-7653144D01*
X-12768080Y-7650000D01*
X-12450000Y-7650000D01*
X-12449999Y-7922829D01*
X-12464641Y-7944742D01*
X-12521178Y-8081233D01*
X-12550000Y-8226131D01*
X-12550000Y-8373869D01*
X-12521178Y-8518767D01*
X-12464641Y-8655258D01*
X-12382563Y-8778097D01*
X-12278097Y-8882563D01*
X-12155258Y-8964641D01*
X-12018767Y-9021178D01*
X-11873869Y-9050000D01*
X-11726131Y-9050000D01*
X-11581233Y-9021178D01*
X-11444742Y-8964641D01*
X-11321903Y-8882563D01*
X-11217437Y-8778097D01*
X-11135359Y-8655258D01*
X-11078822Y-8518767D01*
X-11050000Y-8373869D01*
X-11050000Y-8226131D01*
X-11078822Y-8081233D01*
X-11135359Y-7944742D01*
X-11150000Y-7922830D01*
X-11150000Y-7650000D01*
X-7977170Y-7650000D01*
X-7955258Y-7664641D01*
X-7818767Y-7721178D01*
X-7673869Y-7750000D01*
X-7526131Y-7750000D01*
X-7381233Y-7721178D01*
X-7244742Y-7664641D01*
X-7121903Y-7582563D01*
X-7017437Y-7478097D01*
X-6935359Y-7355258D01*
X-6878822Y-7218767D01*
X-6850000Y-7073869D01*
X-6850000Y-6926131D01*
X-6878822Y-6781233D01*
X-6935359Y-6644742D01*
X-7017437Y-6521903D01*
X-7121903Y-6417437D01*
X-7244742Y-6335359D01*
X-7381233Y-6278822D01*
X-7526131Y-6250000D01*
X-7673869Y-6250000D01*
X-7818767Y-6278822D01*
X-7955258Y-6335359D01*
X-7977170Y-6350000D01*
X-11668080Y-6350000D01*
X-11700001Y-6346856D01*
X-11731922Y-6350000D01*
X-12530761Y-6350000D01*
X-13050000Y-5830762D01*
X-13050000Y-3677170D01*
X-13035359Y-3655258D01*
X-12978822Y-3518767D01*
X-12950000Y-3373869D01*
X-12950000Y-3226131D01*
X-12978822Y-3081233D01*
X-13035359Y-2944742D01*
X-13117437Y-2821903D01*
X-13117609Y-2821731D01*
X-12180000Y-2821731D01*
X-12180000Y-2969469D01*
X-12151178Y-3114367D01*
X-12094641Y-3250858D01*
X-12012563Y-3373697D01*
X-11908097Y-3478163D01*
X-11785258Y-3560241D01*
X-11648767Y-3616778D01*
X-11503869Y-3645600D01*
X-11457818Y-3645600D01*
X-11399806Y-3703612D01*
X-11399801Y-3703616D01*
X-10833608Y-4269809D01*
X-10816390Y-4290790D01*
X-10795410Y-4308008D01*
X-10795405Y-4308013D01*
X-10732643Y-4359521D01*
X-10689533Y-4382563D01*
X-10637094Y-4410592D01*
X-10533419Y-4442042D01*
X-10452618Y-4450000D01*
X-10452609Y-4450000D01*
X-10425601Y-4452660D01*
X-10398593Y-4450000D01*
X-7710649Y-4450000D01*
X-7678086Y-4482563D01*
X-7555247Y-4564641D01*
X-7418756Y-4621178D01*
X-7273858Y-4650000D01*
X-7126120Y-4650000D01*
X-6981222Y-4621178D01*
X-6844731Y-4564641D01*
X-6721892Y-4482563D01*
X-6617426Y-4378097D01*
X-6535348Y-4255258D01*
X-6478811Y-4118767D01*
X-6449989Y-3973869D01*
X-6449989Y-3826131D01*
X-6478811Y-3681233D01*
X-6535348Y-3544742D01*
X-6617426Y-3421903D01*
X-6721892Y-3317437D01*
X-6844731Y-3235359D01*
X-6981222Y-3178822D01*
X-7126120Y-3150000D01*
X-7273858Y-3150000D01*
X-7418756Y-3178822D01*
X-7555247Y-3235359D01*
X-7678086Y-3317437D01*
X-7710649Y-3350000D01*
X-10197782Y-3350000D01*
X-10621984Y-2925799D01*
X-10621988Y-2925794D01*
X-10680000Y-2867782D01*
X-10680000Y-2821731D01*
X-10708822Y-2676833D01*
X-10765359Y-2540342D01*
X-10847437Y-2417503D01*
X-10951903Y-2313037D01*
X-11074742Y-2230959D01*
X-11211233Y-2174422D01*
X-11356131Y-2145600D01*
X-11503869Y-2145600D01*
X-11648767Y-2174422D01*
X-11785258Y-2230959D01*
X-11908097Y-2313037D01*
X-12012563Y-2417503D01*
X-12094641Y-2540342D01*
X-12151178Y-2676833D01*
X-12180000Y-2821731D01*
X-13117609Y-2821731D01*
X-13221903Y-2717437D01*
X-13344742Y-2635359D01*
X-13481233Y-2578822D01*
X-13626131Y-2550000D01*
X-13773869Y-2550000D01*
X-13918767Y-2578822D01*
X-14055258Y-2635359D01*
X-14178097Y-2717437D01*
X-14282563Y-2821903D01*
X-14364641Y-2944742D01*
X-14421178Y-3081233D01*
X-14450000Y-3226131D01*
X-17147737Y-3226131D01*
X-17002941Y-3151650D01*
X-16904693Y-2925872D01*
X-16852382Y-2685264D01*
X-16848014Y-2439075D01*
X-16891760Y-2196764D01*
X-16981938Y-1967644D01*
X-17002941Y-1928350D01*
X-17183395Y-1835527D01*
X-17887868Y-2540000D01*
X-18312132Y-2540000D01*
X-19016605Y-1835527D01*
X-19197059Y-1928350D01*
X-19295307Y-2154128D01*
X-19347618Y-2394736D01*
X-19351986Y-2640925D01*
X-20526342Y-2640925D01*
X-20681810Y-2610000D01*
X-20918190Y-2610000D01*
X-21150027Y-2656116D01*
X-21368413Y-2746574D01*
X-21564955Y-2877899D01*
X-21732101Y-3045045D01*
X-21863426Y-3241587D01*
X-21953884Y-3459973D01*
X-22000000Y-3691810D01*
X-22737308Y-3691810D01*
X-22825679Y-3207940D01*
X-23011779Y-1326851D01*
X-23014681Y-1151810D01*
X-22000000Y-1151810D01*
X-22000000Y-1388190D01*
X-21953884Y-1620027D01*
X-21863426Y-1838413D01*
X-21732101Y-2034955D01*
X-21564955Y-2202101D01*
X-21368413Y-2333426D01*
X-21150027Y-2423884D01*
X-20918190Y-2470000D01*
X-20681810Y-2470000D01*
X-20449973Y-2423884D01*
X-20231587Y-2333426D01*
X-20035045Y-2202101D01*
X-19867899Y-2034955D01*
X-19736574Y-1838413D01*
X-19647512Y-1623395D01*
X-18804473Y-1623395D01*
X-18100000Y-2327868D01*
X-17395527Y-1623395D01*
X-17488350Y-1442941D01*
X-17714128Y-1344693D01*
X-17954736Y-1292382D01*
X-18200925Y-1288014D01*
X-18443236Y-1331760D01*
X-18672356Y-1421938D01*
X-18711650Y-1442941D01*
X-18804473Y-1623395D01*
X-19647512Y-1623395D01*
X-19646116Y-1620027D01*
X-19600000Y-1388190D01*
X-19600000Y-1151810D01*
X-19646116Y-919973D01*
X-19736574Y-701587D01*
X-19867899Y-505045D01*
X-20035045Y-337899D01*
X-20231587Y-206574D01*
X-20449973Y-116116D01*
X-20681810Y-70000D01*
X-20918190Y-70000D01*
X-21150027Y-116116D01*
X-21368413Y-206574D01*
X-21564955Y-337899D01*
X-21732101Y-505045D01*
X-21863426Y-701587D01*
X-21953884Y-919973D01*
X-22000000Y-1151810D01*
X-23014681Y-1151810D01*
X-23043119Y563162D01*
X-22989045Y1388190D01*
X-22000000Y1388190D01*
X-22000000Y1151810D01*
X-21953884Y919973D01*
X-21863426Y701587D01*
X-21732101Y505045D01*
X-21564955Y337899D01*
X-21368413Y206574D01*
X-21150027Y116116D01*
X-20918190Y70000D01*
X-20681810Y70000D01*
X-20449973Y116116D01*
X-20444966Y118190D01*
X-19300000Y118190D01*
X-19300000Y-118190D01*
X-19253884Y-350027D01*
X-19163426Y-568413D01*
X-19032101Y-764955D01*
X-18864955Y-932101D01*
X-18668413Y-1063426D01*
X-18450027Y-1153884D01*
X-18218190Y-1200000D01*
X-17981810Y-1200000D01*
X-17749973Y-1153884D01*
X-17531587Y-1063426D01*
X-17335045Y-932101D01*
X-17167899Y-764955D01*
X-17036574Y-568413D01*
X-16946116Y-350027D01*
X-16900000Y-118190D01*
X-16900000Y118190D01*
X-16946116Y350027D01*
X-17036574Y568413D01*
X-17167899Y764955D01*
X-17335045Y932101D01*
X-17531587Y1063426D01*
X-17749973Y1153884D01*
X-17981810Y1200000D01*
X-18218190Y1200000D01*
X-18450027Y1153884D01*
X-18668413Y1063426D01*
X-18864955Y932101D01*
X-19032101Y764955D01*
X-19163426Y568413D01*
X-19253884Y350027D01*
X-19300000Y118190D01*
X-20444966Y118190D01*
X-20231587Y206574D01*
X-20035045Y337899D01*
X-19867899Y505045D01*
X-19736574Y701587D01*
X-19646116Y919973D01*
X-19600000Y1151810D01*
X-19600000Y1388190D01*
X-19646116Y1620027D01*
X-19736574Y1838413D01*
X-19867899Y2034955D01*
X-20035045Y2202101D01*
X-20231587Y2333426D01*
X-20449973Y2423884D01*
X-20681810Y2470000D01*
X-20918190Y2470000D01*
X-21150027Y2423884D01*
X-21368413Y2333426D01*
X-21564955Y2202101D01*
X-21732101Y2034955D01*
X-21863426Y1838413D01*
X-21953884Y1620027D01*
X-22000000Y1388190D01*
X-22989045Y1388190D01*
X-22919490Y2449387D01*
X-22699801Y3928190D01*
X-22000000Y3928190D01*
X-22000000Y3691810D01*
X-21953884Y3459973D01*
X-21863426Y3241587D01*
X-21732101Y3045045D01*
X-21564955Y2877899D01*
X-21368413Y2746574D01*
X-21150027Y2656116D01*
X-20918190Y2610000D01*
X-20681810Y2610000D01*
X-20449973Y2656116D01*
X-20444966Y2658190D01*
X-19300000Y2658190D01*
X-19300000Y2421810D01*
X-19253884Y2189973D01*
X-19163426Y1971587D01*
X-19032101Y1775045D01*
X-18864955Y1607899D01*
X-18668413Y1476574D01*
X-18450027Y1386116D01*
X-18218190Y1340000D01*
X-17981810Y1340000D01*
X-17749973Y1386116D01*
X-17531587Y1476574D01*
X-17335045Y1607899D01*
X-17167899Y1775045D01*
X-17036574Y1971587D01*
X-16946116Y2189973D01*
X-16900000Y2421810D01*
X-16900000Y2658190D01*
X-16946116Y2890027D01*
X-17036574Y3108413D01*
X-17167899Y3304955D01*
X-17335045Y3472101D01*
X-17531587Y3603426D01*
X-17749973Y3693884D01*
X-17981810Y3740000D01*
X-18218190Y3740000D01*
X-18450027Y3693884D01*
X-18668413Y3603426D01*
X-18864955Y3472101D01*
X-19032101Y3304955D01*
X-19163426Y3108413D01*
X-19253884Y2890027D01*
X-19300000Y2658190D01*
X-20444966Y2658190D01*
X-20231587Y2746574D01*
X-20035045Y2877899D01*
X-19867899Y3045045D01*
X-19736574Y3241587D01*
X-19646116Y3459973D01*
X-19600000Y3691810D01*
X-19600000Y3928190D01*
X-19646116Y4160027D01*
X-19736574Y4378413D01*
X-19867899Y4574955D01*
X-20035045Y4742101D01*
X-20231587Y4873426D01*
X-20449973Y4963884D01*
X-20681810Y5010000D01*
X-20918190Y5010000D01*
X-21150027Y4963884D01*
X-21368413Y4873426D01*
X-21564955Y4742101D01*
X-21732101Y4574955D01*
X-21863426Y4378413D01*
X-21953884Y4160027D01*
X-22000000Y3928190D01*
X-22699801Y3928190D01*
X-22641721Y4319139D01*
X-22211682Y6159845D01*
X-22112387Y6468190D01*
X-22000000Y6468190D01*
X-22000000Y6231810D01*
X-21953884Y5999973D01*
X-21863426Y5781587D01*
X-21732101Y5585045D01*
X-21564955Y5417899D01*
X-21368413Y5286574D01*
X-21150027Y5196116D01*
X-20918190Y5150000D01*
X-20681810Y5150000D01*
X-20449973Y5196116D01*
X-20444966Y5198190D01*
X-19300000Y5198190D01*
X-19300000Y4961810D01*
X-19253884Y4729973D01*
X-19163426Y4511587D01*
X-19032101Y4315045D01*
X-18864955Y4147899D01*
X-18668413Y4016574D01*
X-18450027Y3926116D01*
X-18218190Y3880000D01*
X-17981810Y3880000D01*
X-17749973Y3926116D01*
X-17531587Y4016574D01*
X-17335045Y4147899D01*
X-17167899Y4315045D01*
X-17036574Y4511587D01*
X-16946116Y4729973D01*
X-16900000Y4961810D01*
X-16900000Y5198190D01*
X-16946116Y5430027D01*
X-17036574Y5648413D01*
X-17167899Y5844955D01*
X-17335045Y6012101D01*
X-17531587Y6143426D01*
X-17749973Y6233884D01*
X-17981810Y6280000D01*
X-18218190Y6280000D01*
X-18450027Y6233884D01*
X-18668413Y6143426D01*
X-18864955Y6012101D01*
X-19032101Y5844955D01*
X-19163426Y5648413D01*
X-19253884Y5430027D01*
X-19300000Y5198190D01*
X-20444966Y5198190D01*
X-20231587Y5286574D01*
X-20035045Y5417899D01*
X-19867899Y5585045D01*
X-19736574Y5781587D01*
X-19646116Y5999973D01*
X-19600000Y6231810D01*
X-19600000Y6468190D01*
X-19646116Y6700027D01*
X-19736574Y6918413D01*
X-19867899Y7114955D01*
X-19926813Y7173869D01*
X-16350000Y7173869D01*
X-16350000Y7026131D01*
X-16321178Y6881233D01*
X-16264641Y6744742D01*
X-16249999Y6722829D01*
X-16250000Y1101922D01*
X-16253144Y1070000D01*
X-16250000Y1038079D01*
X-16250000Y1038069D01*
X-16240595Y942579D01*
X-16209423Y839818D01*
X-16203427Y820053D01*
X-16143070Y707132D01*
X-16138519Y701587D01*
X-16061843Y608157D01*
X-16037038Y587800D01*
X-15726319Y277081D01*
X-15721178Y251233D01*
X-15664641Y114742D01*
X-15582563Y-8097D01*
X-15478097Y-112563D01*
X-15355258Y-194641D01*
X-15218767Y-251178D01*
X-15073869Y-280000D01*
X-14926131Y-280000D01*
X-14781233Y-251178D01*
X-14644742Y-194641D01*
X-14521903Y-112563D01*
X-14417437Y-8097D01*
X-14335359Y114742D01*
X-14278822Y251233D01*
X-14250000Y396131D01*
X-14250000Y543869D01*
X-14278822Y688767D01*
X-14335359Y825258D01*
X-14376392Y886669D01*
X-10656000Y886669D01*
X-10656000Y738931D01*
X-10627178Y594033D01*
X-10570641Y457542D01*
X-10488563Y334703D01*
X-10455999Y302139D01*
X-10456000Y-1309396D01*
X-10458660Y-1336404D01*
X-10456000Y-1363412D01*
X-10456000Y-1363421D01*
X-10448042Y-1444222D01*
X-10416592Y-1547897D01*
X-10365521Y-1643446D01*
X-10296790Y-1727194D01*
X-10275804Y-1744417D01*
X-9452404Y-2567817D01*
X-9452404Y-2613869D01*
X-9423582Y-2758767D01*
X-9367045Y-2895258D01*
X-9284967Y-3018097D01*
X-9180501Y-3122563D01*
X-9057662Y-3204641D01*
X-8921171Y-3261178D01*
X-8776273Y-3290000D01*
X-8628535Y-3290000D01*
X-8483637Y-3261178D01*
X-8347146Y-3204641D01*
X-8224307Y-3122563D01*
X-8119841Y-3018097D01*
X-8037763Y-2895258D01*
X-7981226Y-2758767D01*
X-7952404Y-2613869D01*
X-7952404Y-2466131D01*
X-7981226Y-2321233D01*
X-8037763Y-2184742D01*
X-8119841Y-2061903D01*
X-8224307Y-1957437D01*
X-8347146Y-1875359D01*
X-8483637Y-1818822D01*
X-8628535Y-1790000D01*
X-8674587Y-1790000D01*
X-9114799Y-1349788D01*
X-9065469Y-1359600D01*
X-8917731Y-1359600D01*
X-8772833Y-1330778D01*
X-8636342Y-1274241D01*
X-8513503Y-1192163D01*
X-8494579Y-1173239D01*
X-7310412Y-2357405D01*
X-7252400Y-2415417D01*
X-7252400Y-2461469D01*
X-7223578Y-2606367D01*
X-7167041Y-2742858D01*
X-7084963Y-2865697D01*
X-6980497Y-2970163D01*
X-6857658Y-3052241D01*
X-6721167Y-3108778D01*
X-6576269Y-3137600D01*
X-6428531Y-3137600D01*
X-6283633Y-3108778D01*
X-6147142Y-3052241D01*
X-6024303Y-2970163D01*
X-5919837Y-2865697D01*
X-5837759Y-2742858D01*
X-5781222Y-2606367D01*
X-5752400Y-2461469D01*
X-5752400Y-2313731D01*
X-5781222Y-2168833D01*
X-5837759Y-2032342D01*
X-5919837Y-1909503D01*
X-6024303Y-1805037D01*
X-6147142Y-1722959D01*
X-6283633Y-1666422D01*
X-6428531Y-1637600D01*
X-6474583Y-1637600D01*
X-7786052Y-326131D01*
X-4750000Y-326131D01*
X-4750000Y-473869D01*
X-4721178Y-618767D01*
X-4664641Y-755258D01*
X-4582563Y-878097D01*
X-4478097Y-982563D01*
X-4355258Y-1064641D01*
X-4218767Y-1121178D01*
X-4073869Y-1150000D01*
X-4027817Y-1150000D01*
X363395Y-5541212D01*
X378822Y-5618767D01*
X435359Y-5755258D01*
X517437Y-5878097D01*
X621903Y-5982563D01*
X744742Y-6064641D01*
X881233Y-6121178D01*
X1026131Y-6150000D01*
X1173869Y-6150000D01*
X1318767Y-6121178D01*
X1455258Y-6064641D01*
X1578097Y-5982563D01*
X1682563Y-5878097D01*
X1764641Y-5755258D01*
X1821178Y-5618767D01*
X1850000Y-5473869D01*
X1850000Y-5326131D01*
X1821178Y-5181233D01*
X1764641Y-5044742D01*
X1682563Y-4921903D01*
X1578097Y-4817437D01*
X1455258Y-4735359D01*
X1318767Y-4678822D01*
X1173869Y-4650000D01*
X1027817Y-4650000D01*
X103948Y-3726131D01*
X6550002Y-3726131D01*
X6550002Y-3873869D01*
X6578824Y-4018767D01*
X6635361Y-4155258D01*
X6717439Y-4278097D01*
X6821905Y-4382563D01*
X6944744Y-4464641D01*
X7081235Y-4521178D01*
X7226133Y-4550000D01*
X7373871Y-4550000D01*
X7518769Y-4521178D01*
X7655260Y-4464641D01*
X7778099Y-4382563D01*
X7810662Y-4350000D01*
X13199431Y-4350000D01*
X13303593Y-4419599D01*
X13187103Y-4497435D01*
X13082637Y-4601901D01*
X13000559Y-4724740D01*
X12944022Y-4861231D01*
X12915200Y-5006129D01*
X12915200Y-5153867D01*
X12944022Y-5298765D01*
X13000559Y-5435256D01*
X13082637Y-5558095D01*
X13115200Y-5590658D01*
X13115200Y-5672700D01*
X13115201Y-5672710D01*
X13115200Y-8006984D01*
X13072184Y-8050000D01*
X13026132Y-8050000D01*
X12881234Y-8078822D01*
X12744743Y-8135359D01*
X12621904Y-8217437D01*
X12517438Y-8321903D01*
X12435360Y-8444742D01*
X12378823Y-8581233D01*
X12350001Y-8726131D01*
X12350001Y-8873869D01*
X12378823Y-9018767D01*
X12435360Y-9155258D01*
X12517438Y-9278097D01*
X12621904Y-9382563D01*
X12744743Y-9464641D01*
X12881234Y-9521178D01*
X13026132Y-9550000D01*
X13173870Y-9550000D01*
X13318768Y-9521178D01*
X13455259Y-9464641D01*
X13578098Y-9382563D01*
X13682564Y-9278097D01*
X13764642Y-9155258D01*
X13775001Y-9130251D01*
X13785359Y-9155258D01*
X13867437Y-9278097D01*
X13971903Y-9382563D01*
X14094742Y-9464641D01*
X14231233Y-9521178D01*
X14376131Y-9550000D01*
X14523869Y-9550000D01*
X14668767Y-9521178D01*
X14805258Y-9464641D01*
X14928097Y-9382563D01*
X15032563Y-9278097D01*
X15114641Y-9155258D01*
X15125000Y-9130249D01*
X15135359Y-9155258D01*
X15217437Y-9278097D01*
X15321903Y-9382563D01*
X15444742Y-9464641D01*
X15581233Y-9521178D01*
X15726131Y-9550000D01*
X15873869Y-9550000D01*
X16018767Y-9521178D01*
X16155258Y-9464641D01*
X16278097Y-9382563D01*
X16382563Y-9278097D01*
X16464641Y-9155258D01*
X16521178Y-9018767D01*
X16550000Y-8873869D01*
X16550000Y-8726131D01*
X16521178Y-8581233D01*
X16464641Y-8444742D01*
X16382563Y-8321903D01*
X16350000Y-8289340D01*
X16350000Y-7501810D01*
X16900000Y-7501810D01*
X16900000Y-7738190D01*
X16946116Y-7970027D01*
X17036574Y-8188413D01*
X17167899Y-8384955D01*
X17335045Y-8552101D01*
X17531587Y-8683426D01*
X17749973Y-8773884D01*
X17981810Y-8820000D01*
X18218190Y-8820000D01*
X18450027Y-8773884D01*
X18668413Y-8683426D01*
X18864955Y-8552101D01*
X19032101Y-8384955D01*
X19163426Y-8188413D01*
X19253884Y-7970027D01*
X19300000Y-7738190D01*
X19300000Y-7501810D01*
X19253884Y-7269973D01*
X19163426Y-7051587D01*
X19032101Y-6855045D01*
X18864955Y-6687899D01*
X18668413Y-6556574D01*
X18450027Y-6466116D01*
X18218190Y-6420000D01*
X17981810Y-6420000D01*
X17749973Y-6466116D01*
X17531587Y-6556574D01*
X17335045Y-6687899D01*
X17167899Y-6855045D01*
X17036574Y-7051587D01*
X16946116Y-7269973D01*
X16900000Y-7501810D01*
X16350000Y-7501810D01*
X16350000Y-4961810D01*
X16900000Y-4961810D01*
X16900000Y-5198190D01*
X16946116Y-5430027D01*
X17036574Y-5648413D01*
X17167899Y-5844955D01*
X17335045Y-6012101D01*
X17531587Y-6143426D01*
X17749973Y-6233884D01*
X17981810Y-6280000D01*
X18218190Y-6280000D01*
X18450027Y-6233884D01*
X18455034Y-6231810D01*
X19600000Y-6231810D01*
X19600000Y-6468190D01*
X19646116Y-6700027D01*
X19736574Y-6918413D01*
X19867899Y-7114955D01*
X20035045Y-7282101D01*
X20231587Y-7413426D01*
X20449973Y-7503884D01*
X20681810Y-7550000D01*
X20918190Y-7550000D01*
X21150027Y-7503884D01*
X21368413Y-7413426D01*
X21564955Y-7282101D01*
X21732101Y-7114955D01*
X21863426Y-6918413D01*
X21953884Y-6700027D01*
X22000000Y-6468190D01*
X22000000Y-6231810D01*
X21953884Y-5999973D01*
X21863426Y-5781587D01*
X21732101Y-5585045D01*
X21564955Y-5417899D01*
X21368413Y-5286574D01*
X21150027Y-5196116D01*
X20918190Y-5150000D01*
X20681810Y-5150000D01*
X20449973Y-5196116D01*
X20231587Y-5286574D01*
X20035045Y-5417899D01*
X19867899Y-5585045D01*
X19736574Y-5781587D01*
X19646116Y-5999973D01*
X19600000Y-6231810D01*
X18455034Y-6231810D01*
X18668413Y-6143426D01*
X18864955Y-6012101D01*
X19032101Y-5844955D01*
X19163426Y-5648413D01*
X19253884Y-5430027D01*
X19300000Y-5198190D01*
X19300000Y-4961810D01*
X19253884Y-4729973D01*
X19163426Y-4511587D01*
X19032101Y-4315045D01*
X18864955Y-4147899D01*
X18668413Y-4016574D01*
X18450027Y-3926116D01*
X18218190Y-3880000D01*
X17981810Y-3880000D01*
X17749973Y-3926116D01*
X17531587Y-4016574D01*
X17335045Y-4147899D01*
X17167899Y-4315045D01*
X17036574Y-4511587D01*
X16946116Y-4729973D01*
X16900000Y-4961810D01*
X16350000Y-4961810D01*
X16350000Y-2421810D01*
X16900000Y-2421810D01*
X16900000Y-2658190D01*
X16946116Y-2890027D01*
X17036574Y-3108413D01*
X17167899Y-3304955D01*
X17335045Y-3472101D01*
X17531587Y-3603426D01*
X17749973Y-3693884D01*
X17981810Y-3740000D01*
X18218190Y-3740000D01*
X18450027Y-3693884D01*
X18455034Y-3691810D01*
X19600000Y-3691810D01*
X19600000Y-3928190D01*
X19646116Y-4160027D01*
X19736574Y-4378413D01*
X19867899Y-4574955D01*
X20035045Y-4742101D01*
X20231587Y-4873426D01*
X20449973Y-4963884D01*
X20681810Y-5010000D01*
X20918190Y-5010000D01*
X21150027Y-4963884D01*
X21368413Y-4873426D01*
X21564955Y-4742101D01*
X21732101Y-4574955D01*
X21863426Y-4378413D01*
X21953884Y-4160027D01*
X22000000Y-3928190D01*
X22000000Y-3691810D01*
X21953884Y-3459973D01*
X21863426Y-3241587D01*
X21732101Y-3045045D01*
X21564955Y-2877899D01*
X21368413Y-2746574D01*
X21150027Y-2656116D01*
X20918190Y-2610000D01*
X20681810Y-2610000D01*
X20449973Y-2656116D01*
X20231587Y-2746574D01*
X20035045Y-2877899D01*
X19867899Y-3045045D01*
X19736574Y-3241587D01*
X19646116Y-3459973D01*
X19600000Y-3691810D01*
X18455034Y-3691810D01*
X18668413Y-3603426D01*
X18864955Y-3472101D01*
X19032101Y-3304955D01*
X19163426Y-3108413D01*
X19253884Y-2890027D01*
X19300000Y-2658190D01*
X19300000Y-2421810D01*
X19253884Y-2189973D01*
X19163426Y-1971587D01*
X19032101Y-1775045D01*
X18864955Y-1607899D01*
X18668413Y-1476574D01*
X18450027Y-1386116D01*
X18218190Y-1340000D01*
X17981810Y-1340000D01*
X17749973Y-1386116D01*
X17531587Y-1476574D01*
X17335045Y-1607899D01*
X17167899Y-1775045D01*
X17036574Y-1971587D01*
X16946116Y-2189973D01*
X16900000Y-2421810D01*
X16350000Y-2421810D01*
X16350000Y-510660D01*
X16382563Y-478097D01*
X16464641Y-355258D01*
X16521178Y-218767D01*
X16550000Y-73869D01*
X16550000Y73869D01*
X16541185Y118190D01*
X16900000Y118190D01*
X16900000Y-118190D01*
X16946116Y-350027D01*
X17036574Y-568413D01*
X17167899Y-764955D01*
X17335045Y-932101D01*
X17531587Y-1063426D01*
X17749973Y-1153884D01*
X17981810Y-1200000D01*
X18218190Y-1200000D01*
X18450027Y-1153884D01*
X18455034Y-1151810D01*
X19600000Y-1151810D01*
X19600000Y-1388190D01*
X19646116Y-1620027D01*
X19736574Y-1838413D01*
X19867899Y-2034955D01*
X20035045Y-2202101D01*
X20231587Y-2333426D01*
X20449973Y-2423884D01*
X20681810Y-2470000D01*
X20918190Y-2470000D01*
X21150027Y-2423884D01*
X21368413Y-2333426D01*
X21564955Y-2202101D01*
X21732101Y-2034955D01*
X21863426Y-1838413D01*
X21953884Y-1620027D01*
X22000000Y-1388190D01*
X22000000Y-1151810D01*
X21953884Y-919973D01*
X21863426Y-701587D01*
X21732101Y-505045D01*
X21564955Y-337899D01*
X21368413Y-206574D01*
X21150027Y-116116D01*
X20918190Y-70000D01*
X20681810Y-70000D01*
X20449973Y-116116D01*
X20231587Y-206574D01*
X20035045Y-337899D01*
X19867899Y-505045D01*
X19736574Y-701587D01*
X19646116Y-919973D01*
X19600000Y-1151810D01*
X18455034Y-1151810D01*
X18668413Y-1063426D01*
X18864955Y-932101D01*
X19032101Y-764955D01*
X19163426Y-568413D01*
X19253884Y-350027D01*
X19300000Y-118190D01*
X19300000Y118190D01*
X19253884Y350027D01*
X19163426Y568413D01*
X19032101Y764955D01*
X18864955Y932101D01*
X18668413Y1063426D01*
X18450027Y1153884D01*
X18218190Y1200000D01*
X17981810Y1200000D01*
X17749973Y1153884D01*
X17531587Y1063426D01*
X17335045Y932101D01*
X17167899Y764955D01*
X17036574Y568413D01*
X16946116Y350027D01*
X16900000Y118190D01*
X16541185Y118190D01*
X16521178Y218767D01*
X16464641Y355258D01*
X16382563Y478097D01*
X16278097Y582563D01*
X16155258Y664641D01*
X16018767Y721178D01*
X15873869Y750000D01*
X15726131Y750000D01*
X15581233Y721178D01*
X15444742Y664641D01*
X15321903Y582563D01*
X15217437Y478097D01*
X15150000Y377170D01*
X15082563Y478097D01*
X14978097Y582563D01*
X14855258Y664641D01*
X14718767Y721178D01*
X14573869Y750000D01*
X14527817Y750000D01*
X12681107Y2596710D01*
X12681107Y2620762D01*
X12652285Y2765660D01*
X12595748Y2902151D01*
X12513670Y3024990D01*
X12409204Y3129456D01*
X12286365Y3211534D01*
X12149874Y3268071D01*
X12004976Y3296893D01*
X11857238Y3296893D01*
X11712340Y3268071D01*
X11575849Y3211534D01*
X11453010Y3129456D01*
X11348544Y3024990D01*
X11266466Y2902151D01*
X11209929Y2765660D01*
X11181107Y2620762D01*
X11181107Y2473024D01*
X11209929Y2328126D01*
X11266466Y2191635D01*
X11348544Y2068796D01*
X11453010Y1964330D01*
X11575849Y1882252D01*
X11712340Y1825715D01*
X11857238Y1796893D01*
X11925290Y1796893D01*
X13750000Y-27817D01*
X13750000Y-73869D01*
X13778822Y-218767D01*
X13835359Y-355258D01*
X13917437Y-478097D01*
X14021903Y-582563D01*
X14122830Y-650000D01*
X14021903Y-717437D01*
X13917437Y-821903D01*
X13835359Y-944742D01*
X13778822Y-1081233D01*
X13750000Y-1226131D01*
X13750000Y-1272182D01*
X12930583Y-2091600D01*
X8638660Y-2091600D01*
X8606097Y-2059037D01*
X8483258Y-1976959D01*
X8346767Y-1920422D01*
X8201869Y-1891600D01*
X8054131Y-1891600D01*
X7909233Y-1920422D01*
X7772742Y-1976959D01*
X7649903Y-2059037D01*
X7545437Y-2163503D01*
X7463359Y-2286342D01*
X7406822Y-2422833D01*
X7378000Y-2567731D01*
X7378000Y-2715469D01*
X7406822Y-2860367D01*
X7463359Y-2996858D01*
X7518027Y-3078674D01*
X7373871Y-3050000D01*
X7226133Y-3050000D01*
X7081235Y-3078822D01*
X6944744Y-3135359D01*
X6821905Y-3217437D01*
X6717439Y-3321903D01*
X6635361Y-3444742D01*
X6578824Y-3581233D01*
X6550002Y-3726131D01*
X103948Y-3726131D01*
X-3250000Y-372183D01*
X-3250000Y-326131D01*
X-3278822Y-181233D01*
X-3335359Y-44742D01*
X-3417437Y78097D01*
X-3521903Y182563D01*
X-3644742Y264641D01*
X-3781233Y321178D01*
X-3926131Y350000D01*
X-4073869Y350000D01*
X-4218767Y321178D01*
X-4355258Y264641D01*
X-4478097Y182563D01*
X-4582563Y78097D01*
X-4664641Y-44742D01*
X-4721178Y-181233D01*
X-4750000Y-326131D01*
X-7786052Y-326131D01*
X-7872387Y-239796D01*
X-7889610Y-218810D01*
X-7973358Y-150079D01*
X-8068906Y-99008D01*
X-8172581Y-67558D01*
X-8253382Y-59600D01*
X-8253392Y-59600D01*
X-8280400Y-56940D01*
X-8307408Y-59600D01*
X-8480940Y-59600D01*
X-8513503Y-27037D01*
X-8636342Y55041D01*
X-8708437Y84904D01*
X-8532963Y50000D01*
X-8267037Y50000D01*
X-8006220Y101880D01*
X-7760535Y203646D01*
X-7539425Y351387D01*
X-7351387Y539425D01*
X-7203646Y760535D01*
X-7101880Y1006220D01*
X-7050000Y1267037D01*
X-7050000Y1532963D01*
X-7101880Y1793780D01*
X-7203646Y2039465D01*
X-7351387Y2260575D01*
X-7539425Y2448613D01*
X-7760535Y2596354D01*
X-8006220Y2698120D01*
X-8267037Y2750000D01*
X-8532963Y2750000D01*
X-8793780Y2698120D01*
X-9039465Y2596354D01*
X-9260575Y2448613D01*
X-9448613Y2260575D01*
X-9596354Y2039465D01*
X-9698120Y1793780D01*
X-9747417Y1545949D01*
X-9832131Y1562800D01*
X-9979869Y1562800D01*
X-10124767Y1533978D01*
X-10261258Y1477441D01*
X-10384097Y1395363D01*
X-10488563Y1290897D01*
X-10570641Y1168058D01*
X-10627178Y1031567D01*
X-10656000Y886669D01*
X-14376392Y886669D01*
X-14417437Y948097D01*
X-14521903Y1052563D01*
X-14644742Y1134641D01*
X-14781233Y1191178D01*
X-14807081Y1196319D01*
X-14950000Y1339238D01*
X-14950000Y2969469D01*
X-3798000Y2969469D01*
X-3798000Y2821731D01*
X-3769178Y2676833D01*
X-3712641Y2540342D01*
X-3630563Y2417503D01*
X-3526097Y2313037D01*
X-3403258Y2230959D01*
X-3266767Y2174422D01*
X-3121869Y2145600D01*
X-2974131Y2145600D01*
X-2829233Y2174422D01*
X-2692742Y2230959D01*
X-2569903Y2313037D01*
X-2465437Y2417503D01*
X-2383359Y2540342D01*
X-2326822Y2676833D01*
X-2304123Y2790950D01*
X-1266944Y3828128D01*
X-1152833Y3850826D01*
X-1016342Y3907363D01*
X-893503Y3989441D01*
X-789037Y4093907D01*
X-706959Y4216746D01*
X-650422Y4353237D01*
X-621600Y4498135D01*
X-621600Y4645873D01*
X-650422Y4790771D01*
X-706959Y4927262D01*
X-789037Y5050101D01*
X-893503Y5154567D01*
X-1016342Y5236645D01*
X-1152833Y5293182D01*
X-1297731Y5322004D01*
X-1445469Y5322004D01*
X-1590367Y5293182D01*
X-1726858Y5236645D01*
X-1849697Y5154567D01*
X-1954163Y5050101D01*
X-2036241Y4927262D01*
X-2092778Y4790771D01*
X-2115478Y4676650D01*
X-3152650Y3639477D01*
X-3266767Y3616778D01*
X-3403258Y3560241D01*
X-3526097Y3478163D01*
X-3630563Y3373697D01*
X-3712641Y3250858D01*
X-3769178Y3114367D01*
X-3798000Y2969469D01*
X-14950000Y2969469D01*
X-14950000Y4215014D01*
X-6576087Y4215014D01*
X-6478400Y3957119D01*
X-6332278Y3723237D01*
X-6143335Y3522356D01*
X-5918833Y3362196D01*
X-5667399Y3248912D01*
X-5584986Y3223913D01*
X-5368019Y3283845D01*
X-5368019Y4431981D01*
X-5068019Y4431981D01*
X-5068019Y3283845D01*
X-4851052Y3223913D01*
X-4593157Y3321600D01*
X-4359275Y3467722D01*
X-4158394Y3656665D01*
X-3998234Y3881167D01*
X-3884950Y4132601D01*
X-3859951Y4215014D01*
X-3919883Y4431981D01*
X-5068019Y4431981D01*
X-5368019Y4431981D01*
X-6516155Y4431981D01*
X-6576087Y4215014D01*
X-14950000Y4215014D01*
X-14950000Y6129157D01*
X-14346194Y6129157D01*
X-14346194Y5863231D01*
X-14294314Y5602414D01*
X-14192548Y5356729D01*
X-14044807Y5135619D01*
X-13856769Y4947581D01*
X-13635659Y4799840D01*
X-13389974Y4698074D01*
X-13129157Y4646194D01*
X-12863231Y4646194D01*
X-12602414Y4698074D01*
X-12356729Y4799840D01*
X-12135619Y4947581D01*
X-12134252Y4948948D01*
X-6576087Y4948948D01*
X-6516155Y4731981D01*
X-5368019Y4731981D01*
X-5368019Y5880117D01*
X-5068019Y5880117D01*
X-5068019Y4731981D01*
X-3919883Y4731981D01*
X-3859951Y4948948D01*
X-3957638Y5206843D01*
X-4103760Y5440725D01*
X-4292703Y5641606D01*
X-4517205Y5801766D01*
X-4768639Y5915050D01*
X-4851052Y5940049D01*
X-5068019Y5880117D01*
X-5368019Y5880117D01*
X-5584986Y5940049D01*
X-5842881Y5842362D01*
X-6076763Y5696240D01*
X-6277644Y5507297D01*
X-6437804Y5282795D01*
X-6551088Y5031361D01*
X-6576087Y4948948D01*
X-12134252Y4948948D01*
X-11947581Y5135619D01*
X-11799840Y5356729D01*
X-11698074Y5602414D01*
X-11646194Y5863231D01*
X-11646194Y6129157D01*
X-11698074Y6389974D01*
X-11799840Y6635659D01*
X-11947581Y6856769D01*
X-12135619Y7044807D01*
X-12356729Y7192548D01*
X-12463246Y7236669D01*
X2348800Y7236669D01*
X2348800Y7088931D01*
X2377622Y6944033D01*
X2434159Y6807542D01*
X2516237Y6684703D01*
X2620703Y6580237D01*
X2743542Y6498159D01*
X2880033Y6441622D01*
X3024931Y6412800D01*
X3070983Y6412800D01*
X3466400Y6017382D01*
X3466400Y5971331D01*
X3495222Y5826433D01*
X3551759Y5689942D01*
X3633837Y5567103D01*
X3738303Y5462637D01*
X3861142Y5380559D01*
X3997633Y5324022D01*
X4142531Y5295200D01*
X4290269Y5295200D01*
X4435167Y5324022D01*
X4571658Y5380559D01*
X4694497Y5462637D01*
X4741329Y5509469D01*
X5396800Y5509469D01*
X5396800Y5361731D01*
X5425622Y5216833D01*
X5482159Y5080342D01*
X5564237Y4957503D01*
X5668703Y4853037D01*
X5791542Y4770959D01*
X5928033Y4714422D01*
X6004001Y4699311D01*
X6004000Y2797460D01*
X5970637Y2764097D01*
X5888559Y2641258D01*
X5832022Y2504767D01*
X5803200Y2359869D01*
X5803200Y2212131D01*
X5832022Y2067233D01*
X5888559Y1930742D01*
X5970637Y1807903D01*
X6075103Y1703437D01*
X6197942Y1621359D01*
X6334433Y1564822D01*
X6479331Y1536000D01*
X6627069Y1536000D01*
X6771967Y1564822D01*
X6908458Y1621359D01*
X7031297Y1703437D01*
X7135763Y1807903D01*
X7217841Y1930742D01*
X7274378Y2067233D01*
X7303200Y2212131D01*
X7303200Y2359869D01*
X7274378Y2504767D01*
X7217841Y2641258D01*
X7204000Y2661973D01*
X7204000Y4948935D01*
X7206902Y4978401D01*
X7204000Y5007867D01*
X7204000Y5007874D01*
X7195318Y5096021D01*
X7161010Y5209121D01*
X7105296Y5313355D01*
X7030317Y5404717D01*
X7007424Y5423505D01*
X6890677Y5540251D01*
X6867978Y5654367D01*
X6811441Y5790858D01*
X6729363Y5913697D01*
X6624897Y6018163D01*
X6502058Y6100241D01*
X6365567Y6156778D01*
X6220669Y6185600D01*
X6072931Y6185600D01*
X5928033Y6156778D01*
X5791542Y6100241D01*
X5668703Y6018163D01*
X5564237Y5913697D01*
X5482159Y5790858D01*
X5425622Y5654367D01*
X5396800Y5509469D01*
X4741329Y5509469D01*
X4798963Y5567103D01*
X4881041Y5689942D01*
X4937578Y5826433D01*
X4966400Y5971331D01*
X4966400Y6119069D01*
X4937578Y6263967D01*
X4881041Y6400458D01*
X4798963Y6523297D01*
X4694497Y6627763D01*
X4571658Y6709841D01*
X4435167Y6766378D01*
X4290269Y6795200D01*
X4244218Y6795200D01*
X3848800Y7190617D01*
X3848800Y7236669D01*
X3819978Y7381567D01*
X3763441Y7518058D01*
X3681363Y7640897D01*
X3576897Y7745363D01*
X3454058Y7827441D01*
X3317567Y7883978D01*
X3172669Y7912800D01*
X3024931Y7912800D01*
X2880033Y7883978D01*
X2743542Y7827441D01*
X2620703Y7745363D01*
X2516237Y7640897D01*
X2434159Y7518058D01*
X2377622Y7381567D01*
X2348800Y7236669D01*
X-12463246Y7236669D01*
X-12602414Y7294314D01*
X-12863231Y7346194D01*
X-13129157Y7346194D01*
X-13389974Y7294314D01*
X-13635659Y7192548D01*
X-13856769Y7044807D01*
X-14044807Y6856769D01*
X-14192548Y6635659D01*
X-14294314Y6389974D01*
X-14346194Y6129157D01*
X-14950000Y6129157D01*
X-14950000Y6722830D01*
X-14935359Y6744742D01*
X-14878822Y6881233D01*
X-14850000Y7026131D01*
X-14850000Y7173869D01*
X-14878822Y7318767D01*
X-14935359Y7455258D01*
X-15017437Y7578097D01*
X-15121903Y7682563D01*
X-15244742Y7764641D01*
X-15381233Y7821178D01*
X-15526131Y7850000D01*
X-15673869Y7850000D01*
X-15818767Y7821178D01*
X-15955258Y7764641D01*
X-16078097Y7682563D01*
X-16182563Y7578097D01*
X-16264641Y7455258D01*
X-16321178Y7318767D01*
X-16350000Y7173869D01*
X-19926813Y7173869D01*
X-20035045Y7282101D01*
X-20231587Y7413426D01*
X-20449973Y7503884D01*
X-20681810Y7550000D01*
X-20918190Y7550000D01*
X-21150027Y7503884D01*
X-21368413Y7413426D01*
X-21564955Y7282101D01*
X-21732101Y7114955D01*
X-21863426Y6918413D01*
X-21953884Y6700027D01*
X-22000000Y6468190D01*
X-22112387Y6468190D01*
X-21632264Y7959123D01*
X-21278448Y8811208D01*
X-11172282Y8811208D01*
X-11074595Y8553313D01*
X-10928473Y8319431D01*
X-10739530Y8118550D01*
X-10515028Y7958390D01*
X-10263594Y7845106D01*
X-10181181Y7820107D01*
X-9964214Y7880039D01*
X-9964214Y9028175D01*
X-9664214Y9028175D01*
X-9664214Y7880039D01*
X-9447247Y7820107D01*
X-9189352Y7917794D01*
X-8955470Y8063916D01*
X-8754589Y8252859D01*
X-8594429Y8477361D01*
X-8481145Y8728795D01*
X-8456146Y8811208D01*
X-8516078Y9028175D01*
X-9664214Y9028175D01*
X-9964214Y9028175D01*
X-11112350Y9028175D01*
X-11172282Y8811208D01*
X-21278448Y8811208D01*
X-21067400Y9319469D01*
X9003598Y9319469D01*
X9003598Y9171731D01*
X9032420Y9026833D01*
X9088957Y8890342D01*
X9171035Y8767503D01*
X9203598Y8734940D01*
X9203598Y8652898D01*
X9203599Y8652888D01*
X9203598Y6529410D01*
X9200938Y6502402D01*
X9203598Y6475394D01*
X9203598Y6475385D01*
X9211556Y6394584D01*
X9243006Y6290909D01*
X9294077Y6195360D01*
X9316987Y6167445D01*
X9362808Y6111612D01*
X9383794Y6094389D01*
X11174387Y4303796D01*
X11191610Y4282810D01*
X11275358Y4214079D01*
X11370906Y4163008D01*
X11474581Y4131558D01*
X11555382Y4123600D01*
X11555389Y4123600D01*
X11582400Y4120940D01*
X11609411Y4123600D01*
X13764140Y4123600D01*
X13796703Y4091037D01*
X13919542Y4008959D01*
X14056033Y3952422D01*
X14200931Y3923600D01*
X14348669Y3923600D01*
X14493567Y3952422D01*
X14630058Y4008959D01*
X14752897Y4091037D01*
X14857363Y4195503D01*
X14939441Y4318342D01*
X14995978Y4454833D01*
X15024800Y4599731D01*
X15024800Y4747469D01*
X14995978Y4892367D01*
X14939441Y5028858D01*
X14857363Y5151697D01*
X14752897Y5256163D01*
X14630058Y5338241D01*
X14493567Y5394778D01*
X14348669Y5423600D01*
X14200931Y5423600D01*
X14056033Y5394778D01*
X13919542Y5338241D01*
X13796703Y5256163D01*
X13764140Y5223600D01*
X12714989Y5223600D01*
X12755041Y5283542D01*
X12811578Y5420033D01*
X12840400Y5564931D01*
X12840400Y5712669D01*
X12811578Y5857567D01*
X12755041Y5994058D01*
X12672963Y6116897D01*
X12568497Y6221363D01*
X12445658Y6303441D01*
X12309167Y6359978D01*
X12164269Y6388800D01*
X12118218Y6388800D01*
X11683141Y6823877D01*
X15000000Y6823877D01*
X15000000Y6676139D01*
X15028822Y6531241D01*
X15085359Y6394750D01*
X15167437Y6271911D01*
X15250001Y6189347D01*
X15250000Y3010660D01*
X15217437Y2978097D01*
X15135359Y2855258D01*
X15078822Y2718767D01*
X15050000Y2573869D01*
X15050000Y2426131D01*
X15078822Y2281233D01*
X15135359Y2144742D01*
X15217437Y2021903D01*
X15321903Y1917437D01*
X15444742Y1835359D01*
X15581233Y1778822D01*
X15726131Y1750000D01*
X15873869Y1750000D01*
X16018767Y1778822D01*
X16155258Y1835359D01*
X16278097Y1917437D01*
X16382563Y2021903D01*
X16464641Y2144742D01*
X16521178Y2281233D01*
X16550000Y2426131D01*
X16550000Y2573869D01*
X16533228Y2658190D01*
X16900000Y2658190D01*
X16900000Y2421810D01*
X16946116Y2189973D01*
X17036574Y1971587D01*
X17167899Y1775045D01*
X17335045Y1607899D01*
X17531587Y1476574D01*
X17749973Y1386116D01*
X17981810Y1340000D01*
X18218190Y1340000D01*
X18450027Y1386116D01*
X18455034Y1388190D01*
X19600000Y1388190D01*
X19600000Y1151810D01*
X19646116Y919973D01*
X19736574Y701587D01*
X19867899Y505045D01*
X20035045Y337899D01*
X20231587Y206574D01*
X20449973Y116116D01*
X20681810Y70000D01*
X20918190Y70000D01*
X21150027Y116116D01*
X21368413Y206574D01*
X21564955Y337899D01*
X21732101Y505045D01*
X21863426Y701587D01*
X21953884Y919973D01*
X22000000Y1151810D01*
X22000000Y1388190D01*
X21953884Y1620027D01*
X21863426Y1838413D01*
X21732101Y2034955D01*
X21564955Y2202101D01*
X21368413Y2333426D01*
X21150027Y2423884D01*
X20918190Y2470000D01*
X20681810Y2470000D01*
X20449973Y2423884D01*
X20231587Y2333426D01*
X20035045Y2202101D01*
X19867899Y2034955D01*
X19736574Y1838413D01*
X19646116Y1620027D01*
X19600000Y1388190D01*
X18455034Y1388190D01*
X18668413Y1476574D01*
X18864955Y1607899D01*
X19032101Y1775045D01*
X19163426Y1971587D01*
X19253884Y2189973D01*
X19300000Y2421810D01*
X19300000Y2658190D01*
X19253884Y2890027D01*
X19163426Y3108413D01*
X19032101Y3304955D01*
X18864955Y3472101D01*
X18668413Y3603426D01*
X18450027Y3693884D01*
X18218190Y3740000D01*
X17981810Y3740000D01*
X17749973Y3693884D01*
X17531587Y3603426D01*
X17335045Y3472101D01*
X17167899Y3304955D01*
X17036574Y3108413D01*
X16946116Y2890027D01*
X16900000Y2658190D01*
X16533228Y2658190D01*
X16521178Y2718767D01*
X16464641Y2855258D01*
X16382563Y2978097D01*
X16350000Y3010660D01*
X16350000Y5198190D01*
X16900000Y5198190D01*
X16900000Y4961810D01*
X16946116Y4729973D01*
X17036574Y4511587D01*
X17167899Y4315045D01*
X17335045Y4147899D01*
X17531587Y4016574D01*
X17749973Y3926116D01*
X17981810Y3880000D01*
X18218190Y3880000D01*
X18450027Y3926116D01*
X18668413Y4016574D01*
X18864955Y4147899D01*
X19032101Y4315045D01*
X19163426Y4511587D01*
X19212303Y4629587D01*
X19217437Y4621903D01*
X19321903Y4517437D01*
X19444742Y4435359D01*
X19581233Y4378822D01*
X19724906Y4350244D01*
X19646116Y4160027D01*
X19600000Y3928190D01*
X19600000Y3691810D01*
X19646116Y3459973D01*
X19736574Y3241587D01*
X19867899Y3045045D01*
X20035045Y2877899D01*
X20231587Y2746574D01*
X20449973Y2656116D01*
X20681810Y2610000D01*
X20918190Y2610000D01*
X21150027Y2656116D01*
X21368413Y2746574D01*
X21564955Y2877899D01*
X21732101Y3045045D01*
X21863426Y3241587D01*
X21953884Y3459973D01*
X22000000Y3691810D01*
X22000000Y3928190D01*
X21953884Y4160027D01*
X21863426Y4378413D01*
X21732101Y4574955D01*
X21564955Y4742101D01*
X21368413Y4873426D01*
X21150027Y4963884D01*
X20918190Y5010000D01*
X20681810Y5010000D01*
X20541229Y4982036D01*
X20550000Y5026131D01*
X20550000Y5173869D01*
X20549513Y5176316D01*
X20681810Y5150000D01*
X20918190Y5150000D01*
X21150027Y5196116D01*
X21368413Y5286574D01*
X21564955Y5417899D01*
X21732101Y5585045D01*
X21863426Y5781587D01*
X21953884Y5999973D01*
X22000000Y6231810D01*
X22000000Y6468190D01*
X21953884Y6700027D01*
X21863426Y6918413D01*
X21732101Y7114955D01*
X21564955Y7282101D01*
X21368413Y7413426D01*
X21150027Y7503884D01*
X20918190Y7550000D01*
X20681810Y7550000D01*
X20449973Y7503884D01*
X20231587Y7413426D01*
X20035045Y7282101D01*
X19959683Y7206739D01*
X19959520Y7207044D01*
X19908012Y7269806D01*
X19908007Y7269811D01*
X19890789Y7290791D01*
X19869808Y7308010D01*
X19850000Y7327818D01*
X19850000Y7373869D01*
X19821178Y7518767D01*
X19764641Y7655258D01*
X19701337Y7750000D01*
X20139396Y7750000D01*
X20216675Y7765372D01*
X20289471Y7795524D01*
X20354985Y7839299D01*
X20410700Y7895014D01*
X20454475Y7960529D01*
X20484628Y8033324D01*
X20500000Y8110603D01*
X20500000Y8750000D01*
X20400000Y8850000D01*
X19400000Y8850000D01*
X19400000Y8830000D01*
X19100000Y8830000D01*
X19100000Y8850000D01*
X18100000Y8850000D01*
X18000000Y8750000D01*
X18000000Y8110603D01*
X18015372Y8033324D01*
X18045525Y7960529D01*
X18089300Y7895014D01*
X18145015Y7839299D01*
X18210529Y7795524D01*
X18283325Y7765372D01*
X18360604Y7750000D01*
X18498663Y7750000D01*
X18435359Y7655258D01*
X18378822Y7518767D01*
X18350000Y7373869D01*
X18350000Y7226131D01*
X18378822Y7081233D01*
X18435359Y6944742D01*
X18517437Y6821903D01*
X18621903Y6717437D01*
X18744742Y6635359D01*
X18881233Y6578822D01*
X18949999Y6565144D01*
X18950000Y5927056D01*
X18864955Y6012101D01*
X18668413Y6143426D01*
X18450027Y6233884D01*
X18218190Y6280000D01*
X17981810Y6280000D01*
X17749973Y6233884D01*
X17531587Y6143426D01*
X17335045Y6012101D01*
X17167899Y5844955D01*
X17036574Y5648413D01*
X16946116Y5430027D01*
X16900000Y5198190D01*
X16350000Y5198190D01*
X16350000Y6298007D01*
X16414641Y6394750D01*
X16471178Y6531241D01*
X16500000Y6676139D01*
X16500000Y6823877D01*
X16471178Y6968775D01*
X16414641Y7105266D01*
X16332563Y7228105D01*
X16228097Y7332571D01*
X16105258Y7414649D01*
X15968767Y7471186D01*
X15823869Y7500008D01*
X15676131Y7500008D01*
X15531233Y7471186D01*
X15394742Y7414649D01*
X15271903Y7332571D01*
X15167437Y7228105D01*
X15085359Y7105266D01*
X15028822Y6968775D01*
X15000000Y6823877D01*
X11683141Y6823877D01*
X11421200Y7085817D01*
X11421200Y8734944D01*
X11453763Y8767507D01*
X11535841Y8890346D01*
X11581261Y9000000D01*
X12964194Y9000000D01*
X12987363Y8764759D01*
X13055981Y8538558D01*
X13167409Y8330090D01*
X13317366Y8147366D01*
X13500090Y7997409D01*
X13708558Y7885981D01*
X13934759Y7817363D01*
X14111050Y7800000D01*
X14228950Y7800000D01*
X14405241Y7817363D01*
X14631442Y7885981D01*
X14839910Y7997409D01*
X15022634Y8147366D01*
X15172591Y8330090D01*
X15284019Y8538558D01*
X15352637Y8764759D01*
X15375806Y9000000D01*
X15504194Y9000000D01*
X15527363Y8764759D01*
X15595981Y8538558D01*
X15707409Y8330090D01*
X15857366Y8147366D01*
X16040090Y7997409D01*
X16248558Y7885981D01*
X16474759Y7817363D01*
X16651050Y7800000D01*
X16768950Y7800000D01*
X16945241Y7817363D01*
X17171442Y7885981D01*
X17379910Y7997409D01*
X17562634Y8147366D01*
X17712591Y8330090D01*
X17824019Y8538558D01*
X17892637Y8764759D01*
X17915806Y9000000D01*
X17892637Y9235241D01*
X17824019Y9461442D01*
X17712591Y9669910D01*
X17562634Y9852634D01*
X17517838Y9889397D01*
X18000000Y9889397D01*
X18000000Y9250000D01*
X18100000Y9150000D01*
X19100000Y9150000D01*
X19100000Y10150000D01*
X19400000Y10150000D01*
X19400000Y9150000D01*
X20400000Y9150000D01*
X20500000Y9250000D01*
X20500000Y9889397D01*
X20484628Y9966676D01*
X20454475Y10039471D01*
X20410700Y10104986D01*
X20354985Y10160701D01*
X20289471Y10204476D01*
X20216675Y10234628D01*
X20139396Y10250000D01*
X19500000Y10250000D01*
X19400000Y10150000D01*
X19100000Y10150000D01*
X19000000Y10250000D01*
X18360604Y10250000D01*
X18283325Y10234628D01*
X18210529Y10204476D01*
X18145015Y10160701D01*
X18089300Y10104986D01*
X18045525Y10039471D01*
X18015372Y9966676D01*
X18000000Y9889397D01*
X17517838Y9889397D01*
X17379910Y10002591D01*
X17171442Y10114019D01*
X16945241Y10182637D01*
X16768950Y10200000D01*
X16651050Y10200000D01*
X16474759Y10182637D01*
X16248558Y10114019D01*
X16040090Y10002591D01*
X15857366Y9852634D01*
X15707409Y9669910D01*
X15595981Y9461442D01*
X15527363Y9235241D01*
X15504194Y9000000D01*
X15375806Y9000000D01*
X15352637Y9235241D01*
X15284019Y9461442D01*
X15172591Y9669910D01*
X15022634Y9852634D01*
X14839910Y10002591D01*
X14631442Y10114019D01*
X14405241Y10182637D01*
X14228950Y10200000D01*
X14111050Y10200000D01*
X13934759Y10182637D01*
X13708558Y10114019D01*
X13500090Y10002591D01*
X13317366Y9852634D01*
X13167409Y9669910D01*
X13055981Y9461442D01*
X12987363Y9235241D01*
X12964194Y9000000D01*
X11581261Y9000000D01*
X11592378Y9026837D01*
X11621200Y9171735D01*
X11621200Y9319473D01*
X11592378Y9464371D01*
X11535841Y9600862D01*
X11453763Y9723701D01*
X11349297Y9828167D01*
X11226458Y9910245D01*
X11089967Y9966782D01*
X10945069Y9995604D01*
X10797331Y9995604D01*
X10652433Y9966782D01*
X10515942Y9910245D01*
X10393103Y9828167D01*
X10312397Y9747461D01*
X10231695Y9828163D01*
X10108856Y9910241D01*
X9972365Y9966778D01*
X9827467Y9995600D01*
X9679729Y9995600D01*
X9534831Y9966778D01*
X9398340Y9910241D01*
X9275501Y9828163D01*
X9171035Y9723697D01*
X9088957Y9600858D01*
X9032420Y9464367D01*
X9003598Y9319469D01*
X-21067400Y9319469D01*
X-20973692Y9545142D01*
X-11172282Y9545142D01*
X-11112350Y9328175D01*
X-9964214Y9328175D01*
X-9964214Y10476311D01*
X-9664214Y10476311D01*
X-9664214Y9328175D01*
X-8516078Y9328175D01*
X-8456146Y9545142D01*
X-8553833Y9803037D01*
X-8699955Y10036919D01*
X-8888898Y10237800D01*
X-9113400Y10397960D01*
X-9364834Y10511244D01*
X-9447247Y10536243D01*
X-9664214Y10476311D01*
X-9964214Y10476311D01*
X-10181181Y10536243D01*
X-10439076Y10438556D01*
X-10672958Y10292434D01*
X-10873839Y10103491D01*
X-11033999Y9878989D01*
X-11147283Y9627555D01*
X-11172282Y9545142D01*
X-20973692Y9545142D01*
X-20907365Y9704875D01*
X-20268883Y10944565D01*
X-14843303Y10944565D01*
X-14473527Y10528478D01*
X-13855891Y10200559D01*
X-13186150Y9999435D01*
X-12490039Y9932837D01*
X-11794312Y10003322D01*
X-11125703Y10208182D01*
X-10526473Y10528478D01*
X-10156697Y10944565D01*
X-12500000Y13287868D01*
X-14843303Y10944565D01*
X-20268883Y10944565D01*
X-20041858Y11385360D01*
X-19041566Y12989275D01*
X-18668988Y13490039D01*
X-16067163Y13490039D01*
X-15996678Y12794312D01*
X-15791818Y12125703D01*
X-15471522Y11526473D01*
X-15055435Y11156697D01*
X-12712132Y13500000D01*
X-12287868Y13500000D01*
X-9944565Y11156697D01*
X-9528478Y11526473D01*
X-9200559Y12144109D01*
X-9011442Y12773869D01*
X-7850000Y12773869D01*
X-7850000Y12626131D01*
X-7821178Y12481233D01*
X-7764641Y12344742D01*
X-7682563Y12221903D01*
X-7578097Y12117437D01*
X-7455258Y12035359D01*
X-7318767Y11978822D01*
X-7173869Y11950000D01*
X-7127817Y11950000D01*
X-6650000Y11472182D01*
X-6650000Y11426131D01*
X-6621178Y11281233D01*
X-6564641Y11144742D01*
X-6482563Y11021903D01*
X-6378097Y10917437D01*
X-6255258Y10835359D01*
X-6118767Y10778822D01*
X-5973869Y10750000D01*
X-5826131Y10750000D01*
X-5681233Y10778822D01*
X-5544742Y10835359D01*
X-5421903Y10917437D01*
X-5359215Y10980125D01*
X10192257Y10980125D01*
X10556031Y10569160D01*
X11165163Y10246226D01*
X11825591Y10048333D01*
X12511937Y9983085D01*
X13197824Y10052990D01*
X13856893Y10255362D01*
X14443969Y10569160D01*
X14807743Y10980125D01*
X12500000Y13287868D01*
X10192257Y10980125D01*
X-5359215Y10980125D01*
X-5317437Y11021903D01*
X-5235359Y11144742D01*
X-5178822Y11281233D01*
X-5150000Y11426131D01*
X-5150000Y11573869D01*
X-5178822Y11718767D01*
X-5235359Y11855258D01*
X-5317437Y11978097D01*
X-5421903Y12082563D01*
X-5544742Y12164641D01*
X-5681233Y12221178D01*
X-5826131Y12250000D01*
X-5872182Y12250000D01*
X-6350000Y12727817D01*
X-6350000Y12773869D01*
X-6378822Y12918767D01*
X-6435359Y13055258D01*
X-6517437Y13178097D01*
X-6621903Y13282563D01*
X-6744742Y13364641D01*
X-6881233Y13421178D01*
X-7026131Y13450000D01*
X-7173869Y13450000D01*
X-7318767Y13421178D01*
X-7455258Y13364641D01*
X-7578097Y13282563D01*
X-7682563Y13178097D01*
X-7764641Y13055258D01*
X-7821178Y12918767D01*
X-7850000Y12773869D01*
X-9011442Y12773869D01*
X-8999435Y12813850D01*
X-8932837Y13509961D01*
X-9003322Y14205688D01*
X-9208182Y14874297D01*
X-9528478Y15473527D01*
X-9944565Y15843303D01*
X-12287868Y13500000D01*
X-12712132Y13500000D01*
X-15055435Y15843303D01*
X-15471522Y15473527D01*
X-15799441Y14855891D01*
X-16000565Y14186150D01*
X-16067163Y13490039D01*
X-18668988Y13490039D01*
X-17913214Y14505835D01*
X-16664393Y15924840D01*
X-16528922Y16055435D01*
X-14843303Y16055435D01*
X-12500000Y13712132D01*
X-10156697Y16055435D01*
X-10526473Y16471522D01*
X-11144109Y16799441D01*
X-11813850Y17000565D01*
X-12509961Y17067163D01*
X-13205688Y16996678D01*
X-13874297Y16791818D01*
X-14473527Y16471522D01*
X-14843303Y16055435D01*
X-16528922Y16055435D01*
X-15303499Y17236746D01*
X-14995981Y17487999D01*
X-7651861Y17487999D01*
X-7649200Y17460981D01*
X-7649201Y16096209D01*
X-7651861Y16069201D01*
X-7649201Y16042193D01*
X-7649201Y16042184D01*
X-7641243Y15961383D01*
X-7609793Y15857708D01*
X-7558722Y15762159D01*
X-7489991Y15678411D01*
X-7469005Y15661188D01*
X-5520000Y13712183D01*
X-5520000Y13666131D01*
X-5491178Y13521233D01*
X-5434641Y13384742D01*
X-5352563Y13261903D01*
X-5248097Y13157437D01*
X-5125258Y13075359D01*
X-4988767Y13018822D01*
X-4843869Y12990000D01*
X-4696131Y12990000D01*
X-4551233Y13018822D01*
X-4414742Y13075359D01*
X-4291903Y13157437D01*
X-4187437Y13261903D01*
X-4105359Y13384742D01*
X-4048822Y13521233D01*
X-4020000Y13666131D01*
X-4020000Y13813869D01*
X-4035532Y13891955D01*
X-814086Y13891955D01*
X-814086Y13744217D01*
X-785264Y13599319D01*
X-728727Y13462828D01*
X-646649Y13339989D01*
X-542183Y13235523D01*
X-419344Y13153445D01*
X-282853Y13096908D01*
X-137955Y13068086D01*
X9783Y13068086D01*
X154681Y13096908D01*
X291172Y13153445D01*
X414011Y13235523D01*
X496574Y13318086D01*
X1245926Y13318086D01*
X1270486Y13315667D01*
X1295046Y13318086D01*
X1368503Y13325321D01*
X1462753Y13353911D01*
X1549615Y13400340D01*
X1625750Y13462822D01*
X1641415Y13481909D01*
X1647569Y13488063D01*
X8983085Y13488063D01*
X9052990Y12802176D01*
X9255362Y12143107D01*
X9569160Y11556031D01*
X9980125Y11192257D01*
X12287868Y13500000D01*
X12712132Y13500000D01*
X15019875Y11192257D01*
X15430840Y11556031D01*
X15753774Y12165163D01*
X15951667Y12825591D01*
X16016915Y13511937D01*
X15947010Y14197824D01*
X15744638Y14856893D01*
X15430840Y15443969D01*
X15019875Y15807743D01*
X12712132Y13500000D01*
X12287868Y13500000D01*
X9980125Y15807743D01*
X9569160Y15443969D01*
X9246226Y14834837D01*
X9048333Y14174409D01*
X8983085Y13488063D01*
X1647569Y13488063D01*
X1785906Y13626400D01*
X1902669Y13626400D01*
X2047567Y13655222D01*
X2184058Y13711759D01*
X2306897Y13793837D01*
X2411363Y13898303D01*
X2493441Y14021142D01*
X2549978Y14157633D01*
X2578800Y14302531D01*
X2578800Y14450269D01*
X2549978Y14595167D01*
X2493441Y14731658D01*
X2411363Y14854497D01*
X2306897Y14958963D01*
X2184058Y15041041D01*
X2047567Y15097578D01*
X1902669Y15126400D01*
X1754931Y15126400D01*
X1610033Y15097578D01*
X1473542Y15041041D01*
X1350703Y14958963D01*
X1246237Y14854497D01*
X1164159Y14731658D01*
X1107622Y14595167D01*
X1078800Y14450269D01*
X1078800Y14333506D01*
X1063380Y14318086D01*
X496574Y14318086D01*
X414011Y14400649D01*
X291172Y14482727D01*
X154681Y14539264D01*
X9783Y14568086D01*
X-137955Y14568086D01*
X-282853Y14539264D01*
X-419344Y14482727D01*
X-542183Y14400649D01*
X-646649Y14296183D01*
X-728727Y14173344D01*
X-785264Y14036853D01*
X-814086Y13891955D01*
X-4035532Y13891955D01*
X-4048822Y13958767D01*
X-4105359Y14095258D01*
X-4187437Y14218097D01*
X-4291903Y14322563D01*
X-4414742Y14404641D01*
X-4551233Y14461178D01*
X-4696131Y14490000D01*
X-4742183Y14490000D01*
X-5980711Y15728528D01*
X-5943942Y15743759D01*
X-5821103Y15825837D01*
X-5796940Y15850000D01*
X-2510660Y15850000D01*
X-2478097Y15817437D01*
X-2355258Y15735359D01*
X-2218767Y15678822D01*
X-2073869Y15650000D01*
X-1926131Y15650000D01*
X-1781233Y15678822D01*
X-1644742Y15735359D01*
X-1521903Y15817437D01*
X-1417437Y15921903D01*
X-1351975Y16019875D01*
X10192257Y16019875D01*
X12500000Y13712132D01*
X14807743Y16019875D01*
X14443969Y16430840D01*
X13834837Y16753774D01*
X13174409Y16951667D01*
X12488063Y17016915D01*
X11802176Y16947010D01*
X11143107Y16744638D01*
X10556031Y16430840D01*
X10192257Y16019875D01*
X-1351975Y16019875D01*
X-1335359Y16044742D01*
X-1278822Y16181233D01*
X-1250000Y16326131D01*
X-1250000Y16473869D01*
X-1278822Y16618767D01*
X-1335359Y16755258D01*
X-1417437Y16878097D01*
X-1521903Y16982563D01*
X-1563806Y17010562D01*
X1685194Y17010562D01*
X1762771Y16842872D01*
X1967136Y16757174D01*
X2184293Y16712994D01*
X2405896Y16712028D01*
X2623431Y16754313D01*
X2828535Y16838224D01*
X2837229Y16842872D01*
X2914806Y17010562D01*
X2300000Y17625368D01*
X1685194Y17010562D01*
X-1563806Y17010562D01*
X-1644742Y17064641D01*
X-1781233Y17121178D01*
X-1812164Y17127331D01*
X-1794930Y17144565D01*
X-1873060Y17222695D01*
X-1705372Y17300271D01*
X-1619674Y17504636D01*
X-1575494Y17721793D01*
X-1575452Y17731604D01*
X1174528Y17731604D01*
X1216813Y17514069D01*
X1300724Y17308965D01*
X1305372Y17300271D01*
X1473062Y17222694D01*
X2087868Y17837500D01*
X2512132Y17837500D01*
X3126938Y17222694D01*
X3294628Y17300271D01*
X3380326Y17504636D01*
X3424506Y17721793D01*
X3425472Y17943396D01*
X3383187Y18160931D01*
X3299276Y18366035D01*
X3294628Y18374729D01*
X3126938Y18452306D01*
X2512132Y17837500D01*
X2087868Y17837500D01*
X1473062Y18452306D01*
X1305372Y18374729D01*
X1219674Y18170364D01*
X1175494Y17953207D01*
X1174528Y17731604D01*
X-1575452Y17731604D01*
X-1574528Y17943396D01*
X-1616813Y18160931D01*
X-1700724Y18366035D01*
X-1705372Y18374729D01*
X-1873062Y18452306D01*
X-2487868Y17837500D01*
X-2473726Y17823358D01*
X-2685858Y17611226D01*
X-2700000Y17625368D01*
X-3314806Y17010562D01*
X-3286789Y16950000D01*
X-5780140Y16950000D01*
X-5821103Y16990963D01*
X-5943942Y17073041D01*
X-6080433Y17129578D01*
X-6225331Y17158400D01*
X-6373069Y17158400D01*
X-6517967Y17129578D01*
X-6549201Y17116640D01*
X-6549201Y17260182D01*
X-6077779Y17731604D01*
X-3825472Y17731604D01*
X-3783187Y17514069D01*
X-3699276Y17308965D01*
X-3694628Y17300271D01*
X-3526938Y17222694D01*
X-2912132Y17837500D01*
X-3526938Y18452306D01*
X-3694628Y18374729D01*
X-3780326Y18170364D01*
X-3824506Y17953207D01*
X-3825472Y17731604D01*
X-6077779Y17731604D01*
X-5864983Y17944400D01*
X-5818931Y17944400D01*
X-5674033Y17973222D01*
X-5537542Y18029759D01*
X-5414703Y18111837D01*
X-5310237Y18216303D01*
X-5228159Y18339142D01*
X-5171622Y18475633D01*
X-5142800Y18620531D01*
X-5142800Y18664438D01*
X-3314806Y18664438D01*
X-2700000Y18049632D01*
X-2085194Y18664438D01*
X1685194Y18664438D01*
X2300000Y18049632D01*
X2914806Y18664438D01*
X2837229Y18832128D01*
X2632864Y18917826D01*
X2415707Y18962006D01*
X2194104Y18962972D01*
X1976569Y18920687D01*
X1771465Y18836776D01*
X1762771Y18832128D01*
X1685194Y18664438D01*
X-2085194Y18664438D01*
X-2162771Y18832128D01*
X-2367136Y18917826D01*
X-2584293Y18962006D01*
X-2805896Y18962972D01*
X-3023431Y18920687D01*
X-3228535Y18836776D01*
X-3237229Y18832128D01*
X-3314806Y18664438D01*
X-5142800Y18664438D01*
X-5142800Y18768269D01*
X-5171622Y18913167D01*
X-5228159Y19049658D01*
X-5310237Y19172497D01*
X-5414703Y19276963D01*
X-5537542Y19359041D01*
X-5674033Y19415578D01*
X-5818931Y19444400D01*
X-5966669Y19444400D01*
X-6111567Y19415578D01*
X-6248058Y19359041D01*
X-6370897Y19276963D01*
X-6475363Y19172497D01*
X-6557441Y19049658D01*
X-6613978Y18913167D01*
X-6642800Y18768269D01*
X-6642800Y18722217D01*
X-7469010Y17896007D01*
X-7489990Y17878789D01*
X-7507208Y17857809D01*
X-7507214Y17857803D01*
X-7558722Y17795041D01*
X-7609792Y17699493D01*
X-7641242Y17595817D01*
X-7651861Y17487999D01*
X-14995981Y17487999D01*
X-13839686Y18432731D01*
X-12282798Y19504752D01*
X-10744550Y20387500D01*
X-4700000Y20387500D01*
X-4700000Y20037500D01*
X-4651522Y19845292D01*
X-4566477Y19666235D01*
X-4448134Y19507210D01*
X-4301041Y19374328D01*
X-4130850Y19272696D01*
X-4002818Y19234452D01*
X-3850000Y19300088D01*
X-3850000Y20387500D01*
X-3550000Y20387500D01*
X-3550000Y19300088D01*
X-3397182Y19234452D01*
X-3269150Y19272696D01*
X-3098959Y19374328D01*
X-2951866Y19507210D01*
X-2833523Y19666235D01*
X-2748478Y19845292D01*
X-2700000Y20037500D01*
X-2700000Y20387500D01*
X2300000Y20387500D01*
X2300000Y20037500D01*
X2348478Y19845292D01*
X2433523Y19666235D01*
X2551866Y19507210D01*
X2698959Y19374328D01*
X2869150Y19272696D01*
X2997182Y19234452D01*
X3150000Y19300088D01*
X3150000Y20387500D01*
X3450000Y20387500D01*
X3450000Y19300088D01*
X3602818Y19234452D01*
X3730850Y19272696D01*
X3901041Y19374328D01*
X4048134Y19507210D01*
X4166477Y19666235D01*
X4251522Y19845292D01*
X4300000Y20037500D01*
X4300000Y20387500D01*
X3450000Y20387500D01*
X3150000Y20387500D01*
X2300000Y20387500D01*
X-2700000Y20387500D01*
X-3550000Y20387500D01*
X-3850000Y20387500D01*
X-4700000Y20387500D01*
X-10744550Y20387500D01*
X-10643306Y20445600D01*
X-9382600Y21037500D01*
X-4700000Y21037500D01*
X-4700000Y20687500D01*
X-3850000Y20687500D01*
X-3850000Y21774912D01*
X-3550000Y21774912D01*
X-3550000Y20687500D01*
X-2700000Y20687500D01*
X-2700000Y21037500D01*
X2300000Y21037500D01*
X2300000Y20687500D01*
X3150000Y20687500D01*
X3150000Y21774912D01*
X3450000Y21774912D01*
X3450000Y20687500D01*
X4300000Y20687500D01*
X4300000Y21037500D01*
X4251522Y21229708D01*
X4166477Y21408765D01*
X4048134Y21567790D01*
X3901041Y21700672D01*
X3730850Y21802304D01*
X3602818Y21840548D01*
X3450000Y21774912D01*
X3150000Y21774912D01*
X2997182Y21840548D01*
X2869150Y21802304D01*
X2698959Y21700672D01*
X2551866Y21567790D01*
X2433523Y21408765D01*
X2348478Y21229708D01*
X2300000Y21037500D01*
X-2700000Y21037500D01*
X-2748478Y21229708D01*
X-2833523Y21408765D01*
X-2951866Y21567790D01*
X-3098959Y21700672D01*
X-3269150Y21802304D01*
X-3397182Y21840548D01*
X-3550000Y21774912D01*
X-3850000Y21774912D01*
X-4002818Y21840548D01*
X-4130850Y21802304D01*
X-4301041Y21700672D01*
X-4448134Y21567790D01*
X-4566477Y21408765D01*
X-4651522Y21229708D01*
X-4700000Y21037500D01*
X-9382600Y21037500D01*
X-8932234Y21248946D01*
X-7161092Y21909388D01*
X-5341789Y22422484D01*
X-3486562Y22784784D01*
X-1607887Y22993851D01*
X281602Y23048280D01*
X2169197Y22947703D01*
X2169197Y22947703D01*
G37*
X2169197Y22947703D02*
X4042203Y22692798D01*
X5888025Y22285279D01*
X7694248Y21727886D01*
X9448726Y21024369D01*
X11139659Y20179457D01*
X12755675Y19198835D01*
X14285907Y18089095D01*
X15720062Y16857703D01*
X17048497Y15512938D01*
X18262276Y14063846D01*
X19353238Y12520171D01*
X20314045Y10892295D01*
X21138235Y9191166D01*
X21820265Y7428224D01*
X22355550Y5615326D01*
X22740488Y3764663D01*
X22972492Y1888683D01*
X23050000Y0D01*
X23022481Y-1125987D01*
X22852804Y-3008629D01*
X22529436Y-4871037D01*
X22054553Y-6700686D01*
X21431348Y-8485271D01*
X20664012Y-10212791D01*
X19757706Y-11871628D01*
X18718525Y-13450625D01*
X17553458Y-14939164D01*
X16270340Y-16327233D01*
X14877800Y-17605498D01*
X13385203Y-18765363D01*
X11802588Y-19799026D01*
X10140598Y-20699536D01*
X8410410Y-21460837D01*
X6623660Y-22077809D01*
X4792364Y-22546302D01*
X2928839Y-22863167D01*
X2118805Y-22933324D01*
X2307743Y-22719875D01*
X0Y-20412132D01*
X-2307743Y-22719875D01*
X-2116870Y-22935509D01*
X-2729211Y-22887855D01*
X-4595431Y-22587264D01*
X-6430745Y-22134769D01*
X-8222811Y-21533413D01*
X-9959577Y-20787240D01*
X-11043845Y-20211937D01*
X-3516915Y-20211937D01*
X-3447010Y-20897824D01*
X-3244638Y-21556893D01*
X-2930840Y-22143969D01*
X-2519875Y-22507743D01*
X-212132Y-20200000D01*
X212132Y-20200000D01*
X2519875Y-22507743D01*
X2930840Y-22143969D01*
X3253774Y-21534837D01*
X3451667Y-20874409D01*
X3516915Y-20188063D01*
X3447010Y-19502176D01*
X3244638Y-18843107D01*
X2930840Y-18256031D01*
X2519875Y-17892257D01*
X212132Y-20200000D01*
X-212132Y-20200000D01*
X-2519875Y-17892257D01*
X-2930840Y-18256031D01*
X-3253774Y-18865163D01*
X-3451667Y-19525591D01*
X-3516915Y-20211937D01*
X-11043845Y-20211937D01*
X-11629362Y-19901267D01*
X-13220937Y-18881455D01*
X-14723598Y-17734660D01*
X-16101178Y-16492102D01*
X-11213704Y-16492102D01*
X-11190535Y-16727343D01*
X-11121917Y-16953544D01*
X-11010489Y-17162012D01*
X-10860532Y-17344736D01*
X-10677808Y-17494693D01*
X-10469340Y-17606121D01*
X-10243139Y-17674739D01*
X-10066848Y-17692102D01*
X-9948948Y-17692102D01*
X-9827343Y-17680125D01*
X-2307743Y-17680125D01*
X0Y-19987868D01*
X2307743Y-17680125D01*
X1943969Y-17269160D01*
X1334837Y-16946226D01*
X674409Y-16748333D01*
X-11937Y-16683085D01*
X-697824Y-16752990D01*
X-1356893Y-16955362D01*
X-1943969Y-17269160D01*
X-2307743Y-17680125D01*
X-9827343Y-17680125D01*
X-9772657Y-17674739D01*
X-9546456Y-17606121D01*
X-9337988Y-17494693D01*
X-9155264Y-17344736D01*
X-9005307Y-17162012D01*
X-8893879Y-16953544D01*
X-8825261Y-16727343D01*
X-8802092Y-16492102D01*
X-8825261Y-16256861D01*
X-8893879Y-16030660D01*
X-9005307Y-15822192D01*
X-9155264Y-15639468D01*
X-9193191Y-15608342D01*
X-8912005Y-15608342D01*
X-8819915Y-15788182D01*
X-8782096Y-15808404D01*
X-8554130Y-15898281D01*
X-8313010Y-15941957D01*
X-8068002Y-15937753D01*
X-7828522Y-15885832D01*
X-7603772Y-15788187D01*
X-7511122Y-15608907D01*
X-8211846Y-14908183D01*
X-8912005Y-15608342D01*
X-9193191Y-15608342D01*
X-9337988Y-15489511D01*
X-9546456Y-15378083D01*
X-9772657Y-15309465D01*
X-9948948Y-15292102D01*
X-10066848Y-15292102D01*
X-10243139Y-15309465D01*
X-10469340Y-15378083D01*
X-10677808Y-15489511D01*
X-10860532Y-15639468D01*
X-11010489Y-15822192D01*
X-11121917Y-16030660D01*
X-11190535Y-16256861D01*
X-11213704Y-16492102D01*
X-16101178Y-16492102D01*
X-16127240Y-16468595D01*
X-17422422Y-15091776D01*
X-17737760Y-14696051D01*
X-13009755Y-14696051D01*
X-12986586Y-14931292D01*
X-12917968Y-15157493D01*
X-12806540Y-15365961D01*
X-12656583Y-15548685D01*
X-12473859Y-15698642D01*
X-12265391Y-15810070D01*
X-12039190Y-15878688D01*
X-11862899Y-15896051D01*
X-11744999Y-15896051D01*
X-11568708Y-15878688D01*
X-11342507Y-15810070D01*
X-11134039Y-15698642D01*
X-10951315Y-15548685D01*
X-10801358Y-15365961D01*
X-10689930Y-15157493D01*
X-10621312Y-14931292D01*
X-10608107Y-14797215D01*
X-9457752Y-14797215D01*
X-9414076Y-15038335D01*
X-9324199Y-15266301D01*
X-9303977Y-15304120D01*
X-9124137Y-15396210D01*
X-8423978Y-14696051D01*
X-7999714Y-14696051D01*
X-7298990Y-15396775D01*
X-7119710Y-15304125D01*
X-7022065Y-15079375D01*
X-6970144Y-14839895D01*
X-6965940Y-14594887D01*
X-7009616Y-14353767D01*
X-7099493Y-14125801D01*
X-7119715Y-14087982D01*
X-7299555Y-13995892D01*
X-7999714Y-14696051D01*
X-8423978Y-14696051D01*
X-9124702Y-13995327D01*
X-9303982Y-14087977D01*
X-9401627Y-14312727D01*
X-9453548Y-14552207D01*
X-9457752Y-14797215D01*
X-10608107Y-14797215D01*
X-10598143Y-14696051D01*
X-10621312Y-14460810D01*
X-10689930Y-14234609D01*
X-10801358Y-14026141D01*
X-10951315Y-13843417D01*
X-11134039Y-13693460D01*
X-11342507Y-13582032D01*
X-11568708Y-13513414D01*
X-11744999Y-13496051D01*
X-11862899Y-13496051D01*
X-12039190Y-13513414D01*
X-12265391Y-13582032D01*
X-12473859Y-13693460D01*
X-12656583Y-13843417D01*
X-12806540Y-14026141D01*
X-12917968Y-14234609D01*
X-12986586Y-14460810D01*
X-13009755Y-14696051D01*
X-17737760Y-14696051D01*
X-18600435Y-13613461D01*
X-19078957Y-12900000D01*
X-15153775Y-12900000D01*
X-15147017Y-12968612D01*
X-15127004Y-13034587D01*
X-15094504Y-13095390D01*
X-15050767Y-13148685D01*
X-13848685Y-14350767D01*
X-13795390Y-14394504D01*
X-13734587Y-14427004D01*
X-13668612Y-14447017D01*
X-13600000Y-14453775D01*
X-13531388Y-14447017D01*
X-13465413Y-14427004D01*
X-13404610Y-14394504D01*
X-13351315Y-14350767D01*
X-12149233Y-13148685D01*
X-12105496Y-13095390D01*
X-12072996Y-13034587D01*
X-12052983Y-12968612D01*
X-12046225Y-12900000D01*
X-11213704Y-12900000D01*
X-11190535Y-13135241D01*
X-11121917Y-13361442D01*
X-11010489Y-13569910D01*
X-10860532Y-13752634D01*
X-10677808Y-13902591D01*
X-10469340Y-14014019D01*
X-10243139Y-14082637D01*
X-10066848Y-14100000D01*
X-9948948Y-14100000D01*
X-9772657Y-14082637D01*
X-9546456Y-14014019D01*
X-9337988Y-13902591D01*
X-9192503Y-13783195D01*
X-8912570Y-13783195D01*
X-8211846Y-14483919D01*
X-7511687Y-13783760D01*
X-7546748Y-13715290D01*
X-4211056Y-13715290D01*
X-4211056Y-13856711D01*
X-3758935Y-14308832D01*
X-3693420Y-14352607D01*
X-3620625Y-14382761D01*
X-3543346Y-14398133D01*
X-3464553Y-14398133D01*
X-3387274Y-14382760D01*
X-3314478Y-14352608D01*
X-3248964Y-14308833D01*
X-2796842Y-13856711D01*
X-2796842Y-13715290D01*
X-3503949Y-13008183D01*
X-4211056Y-13715290D01*
X-7546748Y-13715290D01*
X-7603777Y-13603920D01*
X-7641596Y-13583698D01*
X-7869562Y-13493821D01*
X-8110682Y-13450145D01*
X-8355690Y-13454349D01*
X-8595170Y-13506270D01*
X-8819920Y-13603915D01*
X-8912570Y-13783195D01*
X-9192503Y-13783195D01*
X-9155264Y-13752634D01*
X-9005307Y-13569910D01*
X-8893879Y-13361442D01*
X-8825261Y-13135241D01*
X-8802092Y-12900000D01*
X-8816210Y-12756655D01*
X-5106031Y-12756655D01*
X-5106031Y-12835448D01*
X-5090659Y-12912727D01*
X-5060505Y-12985522D01*
X-5016730Y-13051037D01*
X-4564609Y-13503158D01*
X-4423188Y-13503158D01*
X-3716081Y-12796051D01*
X-3291817Y-12796051D01*
X-2584710Y-13503158D01*
X-2443289Y-13503158D01*
X-1991167Y-13051036D01*
X-1947392Y-12985522D01*
X-1917240Y-12912726D01*
X-1901867Y-12835447D01*
X-1901867Y-12756654D01*
X-1917239Y-12679375D01*
X-1947393Y-12606580D01*
X-1991168Y-12541065D01*
X-2443289Y-12088944D01*
X-2584710Y-12088944D01*
X-3291817Y-12796051D01*
X-3716081Y-12796051D01*
X-4423188Y-12088944D01*
X-4564609Y-12088944D01*
X-5016731Y-12541066D01*
X-5060506Y-12606580D01*
X-5090658Y-12679376D01*
X-5106031Y-12756655D01*
X-8816210Y-12756655D01*
X-8825261Y-12664759D01*
X-8893879Y-12438558D01*
X-9005307Y-12230090D01*
X-9155264Y-12047366D01*
X-9337988Y-11897409D01*
X-9546456Y-11785981D01*
X-9772657Y-11717363D01*
X-9948948Y-11700000D01*
X-10066848Y-11700000D01*
X-10243139Y-11717363D01*
X-10469340Y-11785981D01*
X-10677808Y-11897409D01*
X-10860532Y-12047366D01*
X-11010489Y-12230090D01*
X-11121917Y-12438558D01*
X-11190535Y-12664759D01*
X-11213704Y-12900000D01*
X-12046225Y-12900000D01*
X-12052983Y-12831388D01*
X-12072996Y-12765413D01*
X-12105496Y-12704610D01*
X-12149233Y-12651315D01*
X-13351315Y-11449233D01*
X-13404610Y-11405496D01*
X-13465413Y-11372996D01*
X-13531388Y-11352983D01*
X-13600000Y-11346225D01*
X-13668612Y-11352983D01*
X-13734587Y-11372996D01*
X-13795390Y-11405496D01*
X-13848685Y-11449233D01*
X-15050767Y-12651315D01*
X-15094504Y-12704610D01*
X-15127004Y-12765413D01*
X-15147017Y-12831388D01*
X-15153775Y-12900000D01*
X-19078957Y-12900000D01*
X-19653356Y-12043592D01*
X-20177428Y-11103949D01*
X-13009755Y-11103949D01*
X-12986586Y-11339190D01*
X-12917968Y-11565391D01*
X-12806540Y-11773859D01*
X-12656583Y-11956583D01*
X-12473859Y-12106540D01*
X-12265391Y-12217968D01*
X-12039190Y-12286586D01*
X-11862899Y-12303949D01*
X-11744999Y-12303949D01*
X-11568708Y-12286586D01*
X-11342507Y-12217968D01*
X-11134039Y-12106540D01*
X-10951315Y-11956583D01*
X-10801358Y-11773859D01*
X-10689930Y-11565391D01*
X-10621312Y-11339190D01*
X-10598143Y-11103949D01*
X-10608380Y-11000000D01*
X-6505806Y-11000000D01*
X-6482637Y-11235241D01*
X-6414019Y-11461442D01*
X-6302591Y-11669910D01*
X-6152634Y-11852634D01*
X-5969910Y-12002591D01*
X-5761442Y-12114019D01*
X-5535241Y-12182637D01*
X-5358950Y-12200000D01*
X-5241050Y-12200000D01*
X-5064759Y-12182637D01*
X-4838558Y-12114019D01*
X-4630090Y-12002591D01*
X-4447366Y-11852634D01*
X-4351148Y-11735391D01*
X-4211056Y-11735391D01*
X-4211056Y-11876812D01*
X-3503949Y-12583919D01*
X-2796842Y-11876812D01*
X-2796842Y-11735391D01*
X-3248963Y-11283270D01*
X-3314478Y-11239495D01*
X-3387273Y-11209341D01*
X-3464552Y-11193969D01*
X-3543345Y-11193969D01*
X-3620624Y-11209342D01*
X-3693420Y-11239494D01*
X-3758934Y-11283269D01*
X-4211056Y-11735391D01*
X-4351148Y-11735391D01*
X-4297409Y-11669910D01*
X-4185981Y-11461442D01*
X-4117363Y-11235241D01*
X-4106617Y-11126131D01*
X4150000Y-11126131D01*
X4150000Y-11273869D01*
X4178822Y-11418767D01*
X4235359Y-11555258D01*
X4317437Y-11678097D01*
X4350000Y-11710660D01*
X4350001Y-15789339D01*
X4317437Y-15821903D01*
X4235359Y-15944742D01*
X4178822Y-16081233D01*
X4150000Y-16226131D01*
X4150000Y-16373869D01*
X4178822Y-16518767D01*
X4235359Y-16655258D01*
X4317437Y-16778097D01*
X4421903Y-16882563D01*
X4544742Y-16964641D01*
X4681233Y-17021178D01*
X4826131Y-17050000D01*
X4973869Y-17050000D01*
X5118767Y-17021178D01*
X5255258Y-16964641D01*
X5378097Y-16882563D01*
X5482563Y-16778097D01*
X5564641Y-16655258D01*
X5621178Y-16518767D01*
X5650000Y-16373869D01*
X5650000Y-16226131D01*
X5621178Y-16081233D01*
X5564641Y-15944742D01*
X5482563Y-15821903D01*
X5450000Y-15789340D01*
X5450000Y-11710660D01*
X5482563Y-11678097D01*
X5564641Y-11555258D01*
X5600000Y-11469895D01*
X5635359Y-11555258D01*
X5717437Y-11678097D01*
X5750000Y-11710660D01*
X5750001Y-14989345D01*
X5717437Y-15021909D01*
X5635359Y-15144748D01*
X5578822Y-15281239D01*
X5550000Y-15426137D01*
X5550000Y-15573875D01*
X5578822Y-15718773D01*
X5635359Y-15855264D01*
X5717437Y-15978103D01*
X5821903Y-16082569D01*
X5944742Y-16164647D01*
X6081233Y-16221184D01*
X6226131Y-16250006D01*
X6373869Y-16250006D01*
X6518767Y-16221184D01*
X6655258Y-16164647D01*
X6778097Y-16082569D01*
X6882563Y-15978103D01*
X6964641Y-15855264D01*
X7021178Y-15718773D01*
X7050000Y-15573875D01*
X7050000Y-15426137D01*
X7021178Y-15281239D01*
X6964641Y-15144748D01*
X6882563Y-15021909D01*
X6850000Y-14989346D01*
X6850000Y-11710660D01*
X6882563Y-11678097D01*
X6964641Y-11555258D01*
X7000009Y-11469872D01*
X7035359Y-11555213D01*
X7117437Y-11678052D01*
X7150001Y-11710616D01*
X7150000Y-14089340D01*
X7117437Y-14121903D01*
X7035359Y-14244742D01*
X6978822Y-14381233D01*
X6950000Y-14526131D01*
X6950000Y-14673869D01*
X6978822Y-14818767D01*
X7035359Y-14955258D01*
X7117437Y-15078097D01*
X7221903Y-15182563D01*
X7344742Y-15264641D01*
X7481233Y-15321178D01*
X7626131Y-15350000D01*
X7773869Y-15350000D01*
X7918767Y-15321178D01*
X8055258Y-15264641D01*
X8178097Y-15182563D01*
X8282563Y-15078097D01*
X8364641Y-14955258D01*
X8421178Y-14818767D01*
X8450000Y-14673869D01*
X8450000Y-14526131D01*
X8421178Y-14381233D01*
X8364641Y-14244742D01*
X8282563Y-14121903D01*
X8250000Y-14089340D01*
X8250000Y-11710615D01*
X8282563Y-11678052D01*
X8364641Y-11555213D01*
X8421178Y-11418722D01*
X8450000Y-11273824D01*
X8450000Y-11126086D01*
X8421178Y-10981188D01*
X8364641Y-10844697D01*
X8282563Y-10721858D01*
X8178097Y-10617392D01*
X8055258Y-10535314D01*
X7918767Y-10478777D01*
X7773869Y-10449955D01*
X7626131Y-10449955D01*
X7481233Y-10478777D01*
X7344742Y-10535314D01*
X7221903Y-10617392D01*
X7117437Y-10721858D01*
X7035359Y-10844697D01*
X6999991Y-10930083D01*
X6964641Y-10844742D01*
X6882563Y-10721903D01*
X6778097Y-10617437D01*
X6655258Y-10535359D01*
X6518767Y-10478822D01*
X6373869Y-10450000D01*
X6226131Y-10450000D01*
X6081233Y-10478822D01*
X5944742Y-10535359D01*
X5821903Y-10617437D01*
X5717437Y-10721903D01*
X5635359Y-10844742D01*
X5600000Y-10930105D01*
X5564641Y-10844742D01*
X5482563Y-10721903D01*
X5378097Y-10617437D01*
X5255258Y-10535359D01*
X5118767Y-10478822D01*
X4973869Y-10450000D01*
X4826131Y-10450000D01*
X4681233Y-10478822D01*
X4544742Y-10535359D01*
X4421903Y-10617437D01*
X4317437Y-10721903D01*
X4235359Y-10844742D01*
X4178822Y-10981233D01*
X4150000Y-11126131D01*
X-4106617Y-11126131D01*
X-4094194Y-11000000D01*
X-4117363Y-10764759D01*
X-4185981Y-10538558D01*
X-4297409Y-10330090D01*
X-4447366Y-10147366D01*
X-4630090Y-9997409D01*
X-4838558Y-9885981D01*
X-5064759Y-9817363D01*
X-5241050Y-9800000D01*
X-5358950Y-9800000D01*
X-5535241Y-9817363D01*
X-5761442Y-9885981D01*
X-5969910Y-9997409D01*
X-6152634Y-10147366D01*
X-6302591Y-10330090D01*
X-6414019Y-10538558D01*
X-6482637Y-10764759D01*
X-6505806Y-11000000D01*
X-10608380Y-11000000D01*
X-10621312Y-10868708D01*
X-10689930Y-10642507D01*
X-10801358Y-10434039D01*
X-10951315Y-10251315D01*
X-11134039Y-10101358D01*
X-11342507Y-9989930D01*
X-11568708Y-9921312D01*
X-11744999Y-9903949D01*
X-11862899Y-9903949D01*
X-12039190Y-9921312D01*
X-12265391Y-9989930D01*
X-12473859Y-10101358D01*
X-12656583Y-10251315D01*
X-12806540Y-10434039D01*
X-12917968Y-10642507D01*
X-12986586Y-10868708D01*
X-13009755Y-11103949D01*
X-20177428Y-11103949D01*
X-20574103Y-10392727D01*
X-21114608Y-9203949D01*
X-8301857Y-9203949D01*
X-8278688Y-9439190D01*
X-8210070Y-9665391D01*
X-8098642Y-9873859D01*
X-7948685Y-10056583D01*
X-7765961Y-10206540D01*
X-7557493Y-10317968D01*
X-7331292Y-10386586D01*
X-7155001Y-10403949D01*
X-7037101Y-10403949D01*
X-6860810Y-10386586D01*
X-6634609Y-10317968D01*
X-6426141Y-10206540D01*
X-6243417Y-10056583D01*
X-6093460Y-9873859D01*
X-5982032Y-9665391D01*
X-5913414Y-9439190D01*
X-5890245Y-9203949D01*
X-5913414Y-8968708D01*
X-5982032Y-8742507D01*
X-6093460Y-8534039D01*
X-6243417Y-8351315D01*
X-6395954Y-8226131D01*
X6950000Y-8226131D01*
X6950000Y-8373869D01*
X6978822Y-8518767D01*
X7035359Y-8655258D01*
X7117437Y-8778097D01*
X7221903Y-8882563D01*
X7344742Y-8964641D01*
X7481233Y-9021178D01*
X7626131Y-9050000D01*
X7773869Y-9050000D01*
X7918767Y-9021178D01*
X8055258Y-8964641D01*
X8178097Y-8882563D01*
X8210661Y-8849999D01*
X9989340Y-8849999D01*
X10021903Y-8882562D01*
X10144742Y-8964640D01*
X10281233Y-9021177D01*
X10426131Y-9049999D01*
X10573869Y-9049999D01*
X10718767Y-9021177D01*
X10855258Y-8964640D01*
X10978097Y-8882562D01*
X11082563Y-8778096D01*
X11164641Y-8655257D01*
X11221178Y-8518766D01*
X11250000Y-8373868D01*
X11250000Y-8226130D01*
X11221178Y-8081232D01*
X11164641Y-7944741D01*
X11101337Y-7850000D01*
X11718448Y-7850000D01*
X11836742Y-7929041D01*
X11973233Y-7985578D01*
X12118131Y-8014400D01*
X12265869Y-8014400D01*
X12410767Y-7985578D01*
X12547258Y-7929041D01*
X12670097Y-7846963D01*
X12774563Y-7742497D01*
X12856641Y-7619658D01*
X12913178Y-7483167D01*
X12942000Y-7338269D01*
X12942000Y-7190531D01*
X12913178Y-7045633D01*
X12856641Y-6909142D01*
X12774563Y-6786303D01*
X12670097Y-6681837D01*
X12547258Y-6599759D01*
X12410767Y-6543222D01*
X12265869Y-6514400D01*
X12118131Y-6514400D01*
X11973233Y-6543222D01*
X11836742Y-6599759D01*
X11713903Y-6681837D01*
X11645740Y-6750000D01*
X8810660Y-6750000D01*
X8778097Y-6717437D01*
X8655258Y-6635359D01*
X8518767Y-6578822D01*
X8373869Y-6550000D01*
X8226131Y-6550000D01*
X8081233Y-6578822D01*
X7944742Y-6635359D01*
X7821903Y-6717437D01*
X7717437Y-6821903D01*
X7635359Y-6944742D01*
X7578822Y-7081233D01*
X7550000Y-7226131D01*
X7550000Y-7373869D01*
X7578822Y-7518767D01*
X7594376Y-7556317D01*
X7481233Y-7578822D01*
X7344742Y-7635359D01*
X7221903Y-7717437D01*
X7117437Y-7821903D01*
X7035359Y-7944742D01*
X6978822Y-8081233D01*
X6950000Y-8226131D01*
X-6395954Y-8226131D01*
X-6426141Y-8201358D01*
X-6634609Y-8089930D01*
X-6860810Y-8021312D01*
X-7037101Y-8003949D01*
X-7155001Y-8003949D01*
X-7331292Y-8021312D01*
X-7557493Y-8089930D01*
X-7765961Y-8201358D01*
X-7948685Y-8351315D01*
X-8098642Y-8534039D01*
X-8210070Y-8742507D01*
X-8278688Y-8968708D01*
X-8301857Y-9203949D01*
X-21114608Y-9203949D01*
X-21356485Y-8671969D01*
X-21405085Y-8536605D01*
X-18804473Y-8536605D01*
X-18711650Y-8717059D01*
X-18485872Y-8815307D01*
X-18245264Y-8867618D01*
X-17999075Y-8871986D01*
X-17756764Y-8828240D01*
X-17527644Y-8738062D01*
X-17488350Y-8717059D01*
X-17395527Y-8536605D01*
X-18100000Y-7832132D01*
X-18804473Y-8536605D01*
X-21405085Y-8536605D01*
X-21697944Y-7720925D01*
X-19351986Y-7720925D01*
X-19308240Y-7963236D01*
X-19218062Y-8192356D01*
X-19197059Y-8231650D01*
X-19016605Y-8324473D01*
X-18312132Y-7620000D01*
X-17887868Y-7620000D01*
X-17183395Y-8324473D01*
X-17002941Y-8231650D01*
X-16904693Y-8005872D01*
X-16852382Y-7765264D01*
X-16848014Y-7519075D01*
X-16891760Y-7276764D01*
X-16981938Y-7047644D01*
X-17002941Y-7008350D01*
X-17183395Y-6915527D01*
X-17887868Y-7620000D01*
X-18312132Y-7620000D01*
X-19016605Y-6915527D01*
X-19197059Y-7008350D01*
X-19295307Y-7234128D01*
X-19347618Y-7474736D01*
X-19351986Y-7720925D01*
X-21697944Y-7720925D01*
X-21995240Y-6892890D01*
X-22172994Y-6231810D01*
X-22000000Y-6231810D01*
X-22000000Y-6468190D01*
X-21953884Y-6700027D01*
X-21863426Y-6918413D01*
X-21732101Y-7114955D01*
X-21564955Y-7282101D01*
X-21368413Y-7413426D01*
X-21150027Y-7503884D01*
X-20918190Y-7550000D01*
X-20681810Y-7550000D01*
X-20449973Y-7503884D01*
X-20231587Y-7413426D01*
X-20035045Y-7282101D01*
X-19867899Y-7114955D01*
X-19736574Y-6918413D01*
X-19647512Y-6703395D01*
X-18804473Y-6703395D01*
X-18100000Y-7407868D01*
X-17395527Y-6703395D01*
X-17488350Y-6522941D01*
X-17714128Y-6424693D01*
X-17954736Y-6372382D01*
X-18200925Y-6368014D01*
X-18443236Y-6411760D01*
X-18672356Y-6501938D01*
X-18711650Y-6522941D01*
X-18804473Y-6703395D01*
X-19647512Y-6703395D01*
X-19646116Y-6700027D01*
X-19600000Y-6468190D01*
X-19600000Y-6231810D01*
X-19646116Y-5999973D01*
X-19647511Y-5996605D01*
X-18804473Y-5996605D01*
X-18711650Y-6177059D01*
X-18485872Y-6275307D01*
X-18245264Y-6327618D01*
X-17999075Y-6331986D01*
X-17756764Y-6288240D01*
X-17527644Y-6198062D01*
X-17488350Y-6177059D01*
X-17395527Y-5996605D01*
X-18100000Y-5292132D01*
X-18804473Y-5996605D01*
X-19647511Y-5996605D01*
X-19736574Y-5781587D01*
X-19867899Y-5585045D01*
X-20035045Y-5417899D01*
X-20231587Y-5286574D01*
X-20449973Y-5196116D01*
X-20526342Y-5180925D01*
X-19351986Y-5180925D01*
X-19308240Y-5423236D01*
X-19218062Y-5652356D01*
X-19197059Y-5691650D01*
X-19016605Y-5784473D01*
X-18312132Y-5080000D01*
X-17887868Y-5080000D01*
X-17183395Y-5784473D01*
X-17002941Y-5691650D01*
X-16904693Y-5465872D01*
X-16852382Y-5225264D01*
X-16848014Y-4979075D01*
X-16891760Y-4736764D01*
X-16981938Y-4507644D01*
X-17002941Y-4468350D01*
X-17183395Y-4375527D01*
X-17887868Y-5080000D01*
X-18312132Y-5080000D01*
X-19016605Y-4375527D01*
X-19197059Y-4468350D01*
X-19295307Y-4694128D01*
X-19347618Y-4934736D01*
X-19351986Y-5180925D01*
X-20526342Y-5180925D01*
X-20681810Y-5150000D01*
X-20918190Y-5150000D01*
X-21150027Y-5196116D01*
X-21368413Y-5286574D01*
X-21564955Y-5417899D01*
X-21732101Y-5585045D01*
X-21863426Y-5781587D01*
X-21953884Y-5999973D01*
X-22000000Y-6231810D01*
X-22172994Y-6231810D01*
X-22486071Y-5067455D01*
X-22737308Y-3691810D01*
X-22000000Y-3691810D01*
X-22000000Y-3928190D01*
X-21953884Y-4160027D01*
X-21863426Y-4378413D01*
X-21732101Y-4574955D01*
X-21564955Y-4742101D01*
X-21368413Y-4873426D01*
X-21150027Y-4963884D01*
X-20918190Y-5010000D01*
X-20681810Y-5010000D01*
X-20449973Y-4963884D01*
X-20231587Y-4873426D01*
X-20035045Y-4742101D01*
X-19867899Y-4574955D01*
X-19736574Y-4378413D01*
X-19647512Y-4163395D01*
X-18804473Y-4163395D01*
X-18100000Y-4867868D01*
X-17395527Y-4163395D01*
X-17488350Y-3982941D01*
X-17714128Y-3884693D01*
X-17954736Y-3832382D01*
X-18200925Y-3828014D01*
X-18443236Y-3871760D01*
X-18672356Y-3961938D01*
X-18711650Y-3982941D01*
X-18804473Y-4163395D01*
X-19647512Y-4163395D01*
X-19646116Y-4160027D01*
X-19600000Y-3928190D01*
X-19600000Y-3691810D01*
X-19646116Y-3459973D01*
X-19647511Y-3456605D01*
X-18804473Y-3456605D01*
X-18711650Y-3637059D01*
X-18485872Y-3735307D01*
X-18245264Y-3787618D01*
X-17999075Y-3791986D01*
X-17756764Y-3748240D01*
X-17527644Y-3658062D01*
X-17488350Y-3637059D01*
X-17395527Y-3456605D01*
X-18100000Y-2752132D01*
X-18804473Y-3456605D01*
X-19647511Y-3456605D01*
X-19736574Y-3241587D01*
X-19867899Y-3045045D01*
X-20035045Y-2877899D01*
X-20231587Y-2746574D01*
X-20449973Y-2656116D01*
X-20526342Y-2640925D01*
X-19351986Y-2640925D01*
X-19308240Y-2883236D01*
X-19218062Y-3112356D01*
X-19197059Y-3151650D01*
X-19016605Y-3244473D01*
X-18312132Y-2540000D01*
X-17887868Y-2540000D01*
X-17183395Y-3244473D01*
X-17147737Y-3226131D01*
X-14450000Y-3226131D01*
X-14450000Y-3373869D01*
X-14421178Y-3518767D01*
X-14364641Y-3655258D01*
X-14350000Y-3677170D01*
X-14349999Y-6068069D01*
X-14353144Y-6100000D01*
X-14340594Y-6227422D01*
X-14303427Y-6349947D01*
X-14243070Y-6462868D01*
X-14182198Y-6537040D01*
X-14182195Y-6537043D01*
X-14161842Y-6561843D01*
X-14137043Y-6582195D01*
X-13282196Y-7437043D01*
X-13261843Y-7461843D01*
X-13237043Y-7482196D01*
X-13237041Y-7482198D01*
X-13210616Y-7503884D01*
X-13162868Y-7543070D01*
X-13049948Y-7603427D01*
X-12927422Y-7640595D01*
X-12831932Y-7650000D01*
X-12831922Y-7650000D01*
X-12800001Y-7653144D01*
X-12768080Y-7650000D01*
X-12450000Y-7650000D01*
X-12449999Y-7922829D01*
X-12464641Y-7944742D01*
X-12521178Y-8081233D01*
X-12550000Y-8226131D01*
X-12550000Y-8373869D01*
X-12521178Y-8518767D01*
X-12464641Y-8655258D01*
X-12382563Y-8778097D01*
X-12278097Y-8882563D01*
X-12155258Y-8964641D01*
X-12018767Y-9021178D01*
X-11873869Y-9050000D01*
X-11726131Y-9050000D01*
X-11581233Y-9021178D01*
X-11444742Y-8964641D01*
X-11321903Y-8882563D01*
X-11217437Y-8778097D01*
X-11135359Y-8655258D01*
X-11078822Y-8518767D01*
X-11050000Y-8373869D01*
X-11050000Y-8226131D01*
X-11078822Y-8081233D01*
X-11135359Y-7944742D01*
X-11150000Y-7922830D01*
X-11150000Y-7650000D01*
X-7977170Y-7650000D01*
X-7955258Y-7664641D01*
X-7818767Y-7721178D01*
X-7673869Y-7750000D01*
X-7526131Y-7750000D01*
X-7381233Y-7721178D01*
X-7244742Y-7664641D01*
X-7121903Y-7582563D01*
X-7017437Y-7478097D01*
X-6935359Y-7355258D01*
X-6878822Y-7218767D01*
X-6850000Y-7073869D01*
X-6850000Y-6926131D01*
X-6878822Y-6781233D01*
X-6935359Y-6644742D01*
X-7017437Y-6521903D01*
X-7121903Y-6417437D01*
X-7244742Y-6335359D01*
X-7381233Y-6278822D01*
X-7526131Y-6250000D01*
X-7673869Y-6250000D01*
X-7818767Y-6278822D01*
X-7955258Y-6335359D01*
X-7977170Y-6350000D01*
X-11668080Y-6350000D01*
X-11700001Y-6346856D01*
X-11731922Y-6350000D01*
X-12530761Y-6350000D01*
X-13050000Y-5830762D01*
X-13050000Y-3677170D01*
X-13035359Y-3655258D01*
X-12978822Y-3518767D01*
X-12950000Y-3373869D01*
X-12950000Y-3226131D01*
X-12978822Y-3081233D01*
X-13035359Y-2944742D01*
X-13117437Y-2821903D01*
X-13117609Y-2821731D01*
X-12180000Y-2821731D01*
X-12180000Y-2969469D01*
X-12151178Y-3114367D01*
X-12094641Y-3250858D01*
X-12012563Y-3373697D01*
X-11908097Y-3478163D01*
X-11785258Y-3560241D01*
X-11648767Y-3616778D01*
X-11503869Y-3645600D01*
X-11457818Y-3645600D01*
X-11399806Y-3703612D01*
X-11399801Y-3703616D01*
X-10833608Y-4269809D01*
X-10816390Y-4290790D01*
X-10795410Y-4308008D01*
X-10795405Y-4308013D01*
X-10732643Y-4359521D01*
X-10689533Y-4382563D01*
X-10637094Y-4410592D01*
X-10533419Y-4442042D01*
X-10452618Y-4450000D01*
X-10452609Y-4450000D01*
X-10425601Y-4452660D01*
X-10398593Y-4450000D01*
X-7710649Y-4450000D01*
X-7678086Y-4482563D01*
X-7555247Y-4564641D01*
X-7418756Y-4621178D01*
X-7273858Y-4650000D01*
X-7126120Y-4650000D01*
X-6981222Y-4621178D01*
X-6844731Y-4564641D01*
X-6721892Y-4482563D01*
X-6617426Y-4378097D01*
X-6535348Y-4255258D01*
X-6478811Y-4118767D01*
X-6449989Y-3973869D01*
X-6449989Y-3826131D01*
X-6478811Y-3681233D01*
X-6535348Y-3544742D01*
X-6617426Y-3421903D01*
X-6721892Y-3317437D01*
X-6844731Y-3235359D01*
X-6981222Y-3178822D01*
X-7126120Y-3150000D01*
X-7273858Y-3150000D01*
X-7418756Y-3178822D01*
X-7555247Y-3235359D01*
X-7678086Y-3317437D01*
X-7710649Y-3350000D01*
X-10197782Y-3350000D01*
X-10621984Y-2925799D01*
X-10621988Y-2925794D01*
X-10680000Y-2867782D01*
X-10680000Y-2821731D01*
X-10708822Y-2676833D01*
X-10765359Y-2540342D01*
X-10847437Y-2417503D01*
X-10951903Y-2313037D01*
X-11074742Y-2230959D01*
X-11211233Y-2174422D01*
X-11356131Y-2145600D01*
X-11503869Y-2145600D01*
X-11648767Y-2174422D01*
X-11785258Y-2230959D01*
X-11908097Y-2313037D01*
X-12012563Y-2417503D01*
X-12094641Y-2540342D01*
X-12151178Y-2676833D01*
X-12180000Y-2821731D01*
X-13117609Y-2821731D01*
X-13221903Y-2717437D01*
X-13344742Y-2635359D01*
X-13481233Y-2578822D01*
X-13626131Y-2550000D01*
X-13773869Y-2550000D01*
X-13918767Y-2578822D01*
X-14055258Y-2635359D01*
X-14178097Y-2717437D01*
X-14282563Y-2821903D01*
X-14364641Y-2944742D01*
X-14421178Y-3081233D01*
X-14450000Y-3226131D01*
X-17147737Y-3226131D01*
X-17002941Y-3151650D01*
X-16904693Y-2925872D01*
X-16852382Y-2685264D01*
X-16848014Y-2439075D01*
X-16891760Y-2196764D01*
X-16981938Y-1967644D01*
X-17002941Y-1928350D01*
X-17183395Y-1835527D01*
X-17887868Y-2540000D01*
X-18312132Y-2540000D01*
X-19016605Y-1835527D01*
X-19197059Y-1928350D01*
X-19295307Y-2154128D01*
X-19347618Y-2394736D01*
X-19351986Y-2640925D01*
X-20526342Y-2640925D01*
X-20681810Y-2610000D01*
X-20918190Y-2610000D01*
X-21150027Y-2656116D01*
X-21368413Y-2746574D01*
X-21564955Y-2877899D01*
X-21732101Y-3045045D01*
X-21863426Y-3241587D01*
X-21953884Y-3459973D01*
X-22000000Y-3691810D01*
X-22737308Y-3691810D01*
X-22825679Y-3207940D01*
X-23011779Y-1326851D01*
X-23014681Y-1151810D01*
X-22000000Y-1151810D01*
X-22000000Y-1388190D01*
X-21953884Y-1620027D01*
X-21863426Y-1838413D01*
X-21732101Y-2034955D01*
X-21564955Y-2202101D01*
X-21368413Y-2333426D01*
X-21150027Y-2423884D01*
X-20918190Y-2470000D01*
X-20681810Y-2470000D01*
X-20449973Y-2423884D01*
X-20231587Y-2333426D01*
X-20035045Y-2202101D01*
X-19867899Y-2034955D01*
X-19736574Y-1838413D01*
X-19647512Y-1623395D01*
X-18804473Y-1623395D01*
X-18100000Y-2327868D01*
X-17395527Y-1623395D01*
X-17488350Y-1442941D01*
X-17714128Y-1344693D01*
X-17954736Y-1292382D01*
X-18200925Y-1288014D01*
X-18443236Y-1331760D01*
X-18672356Y-1421938D01*
X-18711650Y-1442941D01*
X-18804473Y-1623395D01*
X-19647512Y-1623395D01*
X-19646116Y-1620027D01*
X-19600000Y-1388190D01*
X-19600000Y-1151810D01*
X-19646116Y-919973D01*
X-19736574Y-701587D01*
X-19867899Y-505045D01*
X-20035045Y-337899D01*
X-20231587Y-206574D01*
X-20449973Y-116116D01*
X-20681810Y-70000D01*
X-20918190Y-70000D01*
X-21150027Y-116116D01*
X-21368413Y-206574D01*
X-21564955Y-337899D01*
X-21732101Y-505045D01*
X-21863426Y-701587D01*
X-21953884Y-919973D01*
X-22000000Y-1151810D01*
X-23014681Y-1151810D01*
X-23043119Y563162D01*
X-22989045Y1388190D01*
X-22000000Y1388190D01*
X-22000000Y1151810D01*
X-21953884Y919973D01*
X-21863426Y701587D01*
X-21732101Y505045D01*
X-21564955Y337899D01*
X-21368413Y206574D01*
X-21150027Y116116D01*
X-20918190Y70000D01*
X-20681810Y70000D01*
X-20449973Y116116D01*
X-20444966Y118190D01*
X-19300000Y118190D01*
X-19300000Y-118190D01*
X-19253884Y-350027D01*
X-19163426Y-568413D01*
X-19032101Y-764955D01*
X-18864955Y-932101D01*
X-18668413Y-1063426D01*
X-18450027Y-1153884D01*
X-18218190Y-1200000D01*
X-17981810Y-1200000D01*
X-17749973Y-1153884D01*
X-17531587Y-1063426D01*
X-17335045Y-932101D01*
X-17167899Y-764955D01*
X-17036574Y-568413D01*
X-16946116Y-350027D01*
X-16900000Y-118190D01*
X-16900000Y118190D01*
X-16946116Y350027D01*
X-17036574Y568413D01*
X-17167899Y764955D01*
X-17335045Y932101D01*
X-17531587Y1063426D01*
X-17749973Y1153884D01*
X-17981810Y1200000D01*
X-18218190Y1200000D01*
X-18450027Y1153884D01*
X-18668413Y1063426D01*
X-18864955Y932101D01*
X-19032101Y764955D01*
X-19163426Y568413D01*
X-19253884Y350027D01*
X-19300000Y118190D01*
X-20444966Y118190D01*
X-20231587Y206574D01*
X-20035045Y337899D01*
X-19867899Y505045D01*
X-19736574Y701587D01*
X-19646116Y919973D01*
X-19600000Y1151810D01*
X-19600000Y1388190D01*
X-19646116Y1620027D01*
X-19736574Y1838413D01*
X-19867899Y2034955D01*
X-20035045Y2202101D01*
X-20231587Y2333426D01*
X-20449973Y2423884D01*
X-20681810Y2470000D01*
X-20918190Y2470000D01*
X-21150027Y2423884D01*
X-21368413Y2333426D01*
X-21564955Y2202101D01*
X-21732101Y2034955D01*
X-21863426Y1838413D01*
X-21953884Y1620027D01*
X-22000000Y1388190D01*
X-22989045Y1388190D01*
X-22919490Y2449387D01*
X-22699801Y3928190D01*
X-22000000Y3928190D01*
X-22000000Y3691810D01*
X-21953884Y3459973D01*
X-21863426Y3241587D01*
X-21732101Y3045045D01*
X-21564955Y2877899D01*
X-21368413Y2746574D01*
X-21150027Y2656116D01*
X-20918190Y2610000D01*
X-20681810Y2610000D01*
X-20449973Y2656116D01*
X-20444966Y2658190D01*
X-19300000Y2658190D01*
X-19300000Y2421810D01*
X-19253884Y2189973D01*
X-19163426Y1971587D01*
X-19032101Y1775045D01*
X-18864955Y1607899D01*
X-18668413Y1476574D01*
X-18450027Y1386116D01*
X-18218190Y1340000D01*
X-17981810Y1340000D01*
X-17749973Y1386116D01*
X-17531587Y1476574D01*
X-17335045Y1607899D01*
X-17167899Y1775045D01*
X-17036574Y1971587D01*
X-16946116Y2189973D01*
X-16900000Y2421810D01*
X-16900000Y2658190D01*
X-16946116Y2890027D01*
X-17036574Y3108413D01*
X-17167899Y3304955D01*
X-17335045Y3472101D01*
X-17531587Y3603426D01*
X-17749973Y3693884D01*
X-17981810Y3740000D01*
X-18218190Y3740000D01*
X-18450027Y3693884D01*
X-18668413Y3603426D01*
X-18864955Y3472101D01*
X-19032101Y3304955D01*
X-19163426Y3108413D01*
X-19253884Y2890027D01*
X-19300000Y2658190D01*
X-20444966Y2658190D01*
X-20231587Y2746574D01*
X-20035045Y2877899D01*
X-19867899Y3045045D01*
X-19736574Y3241587D01*
X-19646116Y3459973D01*
X-19600000Y3691810D01*
X-19600000Y3928190D01*
X-19646116Y4160027D01*
X-19736574Y4378413D01*
X-19867899Y4574955D01*
X-20035045Y4742101D01*
X-20231587Y4873426D01*
X-20449973Y4963884D01*
X-20681810Y5010000D01*
X-20918190Y5010000D01*
X-21150027Y4963884D01*
X-21368413Y4873426D01*
X-21564955Y4742101D01*
X-21732101Y4574955D01*
X-21863426Y4378413D01*
X-21953884Y4160027D01*
X-22000000Y3928190D01*
X-22699801Y3928190D01*
X-22641721Y4319139D01*
X-22211682Y6159845D01*
X-22112387Y6468190D01*
X-22000000Y6468190D01*
X-22000000Y6231810D01*
X-21953884Y5999973D01*
X-21863426Y5781587D01*
X-21732101Y5585045D01*
X-21564955Y5417899D01*
X-21368413Y5286574D01*
X-21150027Y5196116D01*
X-20918190Y5150000D01*
X-20681810Y5150000D01*
X-20449973Y5196116D01*
X-20444966Y5198190D01*
X-19300000Y5198190D01*
X-19300000Y4961810D01*
X-19253884Y4729973D01*
X-19163426Y4511587D01*
X-19032101Y4315045D01*
X-18864955Y4147899D01*
X-18668413Y4016574D01*
X-18450027Y3926116D01*
X-18218190Y3880000D01*
X-17981810Y3880000D01*
X-17749973Y3926116D01*
X-17531587Y4016574D01*
X-17335045Y4147899D01*
X-17167899Y4315045D01*
X-17036574Y4511587D01*
X-16946116Y4729973D01*
X-16900000Y4961810D01*
X-16900000Y5198190D01*
X-16946116Y5430027D01*
X-17036574Y5648413D01*
X-17167899Y5844955D01*
X-17335045Y6012101D01*
X-17531587Y6143426D01*
X-17749973Y6233884D01*
X-17981810Y6280000D01*
X-18218190Y6280000D01*
X-18450027Y6233884D01*
X-18668413Y6143426D01*
X-18864955Y6012101D01*
X-19032101Y5844955D01*
X-19163426Y5648413D01*
X-19253884Y5430027D01*
X-19300000Y5198190D01*
X-20444966Y5198190D01*
X-20231587Y5286574D01*
X-20035045Y5417899D01*
X-19867899Y5585045D01*
X-19736574Y5781587D01*
X-19646116Y5999973D01*
X-19600000Y6231810D01*
X-19600000Y6468190D01*
X-19646116Y6700027D01*
X-19736574Y6918413D01*
X-19867899Y7114955D01*
X-19926813Y7173869D01*
X-16350000Y7173869D01*
X-16350000Y7026131D01*
X-16321178Y6881233D01*
X-16264641Y6744742D01*
X-16249999Y6722829D01*
X-16250000Y1101922D01*
X-16253144Y1070000D01*
X-16250000Y1038079D01*
X-16250000Y1038069D01*
X-16240595Y942579D01*
X-16209423Y839818D01*
X-16203427Y820053D01*
X-16143070Y707132D01*
X-16138519Y701587D01*
X-16061843Y608157D01*
X-16037038Y587800D01*
X-15726319Y277081D01*
X-15721178Y251233D01*
X-15664641Y114742D01*
X-15582563Y-8097D01*
X-15478097Y-112563D01*
X-15355258Y-194641D01*
X-15218767Y-251178D01*
X-15073869Y-280000D01*
X-14926131Y-280000D01*
X-14781233Y-251178D01*
X-14644742Y-194641D01*
X-14521903Y-112563D01*
X-14417437Y-8097D01*
X-14335359Y114742D01*
X-14278822Y251233D01*
X-14250000Y396131D01*
X-14250000Y543869D01*
X-14278822Y688767D01*
X-14335359Y825258D01*
X-14376392Y886669D01*
X-10656000Y886669D01*
X-10656000Y738931D01*
X-10627178Y594033D01*
X-10570641Y457542D01*
X-10488563Y334703D01*
X-10455999Y302139D01*
X-10456000Y-1309396D01*
X-10458660Y-1336404D01*
X-10456000Y-1363412D01*
X-10456000Y-1363421D01*
X-10448042Y-1444222D01*
X-10416592Y-1547897D01*
X-10365521Y-1643446D01*
X-10296790Y-1727194D01*
X-10275804Y-1744417D01*
X-9452404Y-2567817D01*
X-9452404Y-2613869D01*
X-9423582Y-2758767D01*
X-9367045Y-2895258D01*
X-9284967Y-3018097D01*
X-9180501Y-3122563D01*
X-9057662Y-3204641D01*
X-8921171Y-3261178D01*
X-8776273Y-3290000D01*
X-8628535Y-3290000D01*
X-8483637Y-3261178D01*
X-8347146Y-3204641D01*
X-8224307Y-3122563D01*
X-8119841Y-3018097D01*
X-8037763Y-2895258D01*
X-7981226Y-2758767D01*
X-7952404Y-2613869D01*
X-7952404Y-2466131D01*
X-7981226Y-2321233D01*
X-8037763Y-2184742D01*
X-8119841Y-2061903D01*
X-8224307Y-1957437D01*
X-8347146Y-1875359D01*
X-8483637Y-1818822D01*
X-8628535Y-1790000D01*
X-8674587Y-1790000D01*
X-9114799Y-1349788D01*
X-9065469Y-1359600D01*
X-8917731Y-1359600D01*
X-8772833Y-1330778D01*
X-8636342Y-1274241D01*
X-8513503Y-1192163D01*
X-8494579Y-1173239D01*
X-7310412Y-2357405D01*
X-7252400Y-2415417D01*
X-7252400Y-2461469D01*
X-7223578Y-2606367D01*
X-7167041Y-2742858D01*
X-7084963Y-2865697D01*
X-6980497Y-2970163D01*
X-6857658Y-3052241D01*
X-6721167Y-3108778D01*
X-6576269Y-3137600D01*
X-6428531Y-3137600D01*
X-6283633Y-3108778D01*
X-6147142Y-3052241D01*
X-6024303Y-2970163D01*
X-5919837Y-2865697D01*
X-5837759Y-2742858D01*
X-5781222Y-2606367D01*
X-5752400Y-2461469D01*
X-5752400Y-2313731D01*
X-5781222Y-2168833D01*
X-5837759Y-2032342D01*
X-5919837Y-1909503D01*
X-6024303Y-1805037D01*
X-6147142Y-1722959D01*
X-6283633Y-1666422D01*
X-6428531Y-1637600D01*
X-6474583Y-1637600D01*
X-7786052Y-326131D01*
X-4750000Y-326131D01*
X-4750000Y-473869D01*
X-4721178Y-618767D01*
X-4664641Y-755258D01*
X-4582563Y-878097D01*
X-4478097Y-982563D01*
X-4355258Y-1064641D01*
X-4218767Y-1121178D01*
X-4073869Y-1150000D01*
X-4027817Y-1150000D01*
X363395Y-5541212D01*
X378822Y-5618767D01*
X435359Y-5755258D01*
X517437Y-5878097D01*
X621903Y-5982563D01*
X744742Y-6064641D01*
X881233Y-6121178D01*
X1026131Y-6150000D01*
X1173869Y-6150000D01*
X1318767Y-6121178D01*
X1455258Y-6064641D01*
X1578097Y-5982563D01*
X1682563Y-5878097D01*
X1764641Y-5755258D01*
X1821178Y-5618767D01*
X1850000Y-5473869D01*
X1850000Y-5326131D01*
X1821178Y-5181233D01*
X1764641Y-5044742D01*
X1682563Y-4921903D01*
X1578097Y-4817437D01*
X1455258Y-4735359D01*
X1318767Y-4678822D01*
X1173869Y-4650000D01*
X1027817Y-4650000D01*
X103948Y-3726131D01*
X6550002Y-3726131D01*
X6550002Y-3873869D01*
X6578824Y-4018767D01*
X6635361Y-4155258D01*
X6717439Y-4278097D01*
X6821905Y-4382563D01*
X6944744Y-4464641D01*
X7081235Y-4521178D01*
X7226133Y-4550000D01*
X7373871Y-4550000D01*
X7518769Y-4521178D01*
X7655260Y-4464641D01*
X7778099Y-4382563D01*
X7810662Y-4350000D01*
X13199431Y-4350000D01*
X13303593Y-4419599D01*
X13187103Y-4497435D01*
X13082637Y-4601901D01*
X13000559Y-4724740D01*
X12944022Y-4861231D01*
X12915200Y-5006129D01*
X12915200Y-5153867D01*
X12944022Y-5298765D01*
X13000559Y-5435256D01*
X13082637Y-5558095D01*
X13115200Y-5590658D01*
X13115200Y-5672700D01*
X13115201Y-5672710D01*
X13115200Y-8006984D01*
X13072184Y-8050000D01*
X13026132Y-8050000D01*
X12881234Y-8078822D01*
X12744743Y-8135359D01*
X12621904Y-8217437D01*
X12517438Y-8321903D01*
X12435360Y-8444742D01*
X12378823Y-8581233D01*
X12350001Y-8726131D01*
X12350001Y-8873869D01*
X12378823Y-9018767D01*
X12435360Y-9155258D01*
X12517438Y-9278097D01*
X12621904Y-9382563D01*
X12744743Y-9464641D01*
X12881234Y-9521178D01*
X13026132Y-9550000D01*
X13173870Y-9550000D01*
X13318768Y-9521178D01*
X13455259Y-9464641D01*
X13578098Y-9382563D01*
X13682564Y-9278097D01*
X13764642Y-9155258D01*
X13775001Y-9130251D01*
X13785359Y-9155258D01*
X13867437Y-9278097D01*
X13971903Y-9382563D01*
X14094742Y-9464641D01*
X14231233Y-9521178D01*
X14376131Y-9550000D01*
X14523869Y-9550000D01*
X14668767Y-9521178D01*
X14805258Y-9464641D01*
X14928097Y-9382563D01*
X15032563Y-9278097D01*
X15114641Y-9155258D01*
X15125000Y-9130249D01*
X15135359Y-9155258D01*
X15217437Y-9278097D01*
X15321903Y-9382563D01*
X15444742Y-9464641D01*
X15581233Y-9521178D01*
X15726131Y-9550000D01*
X15873869Y-9550000D01*
X16018767Y-9521178D01*
X16155258Y-9464641D01*
X16278097Y-9382563D01*
X16382563Y-9278097D01*
X16464641Y-9155258D01*
X16521178Y-9018767D01*
X16550000Y-8873869D01*
X16550000Y-8726131D01*
X16521178Y-8581233D01*
X16464641Y-8444742D01*
X16382563Y-8321903D01*
X16350000Y-8289340D01*
X16350000Y-7501810D01*
X16900000Y-7501810D01*
X16900000Y-7738190D01*
X16946116Y-7970027D01*
X17036574Y-8188413D01*
X17167899Y-8384955D01*
X17335045Y-8552101D01*
X17531587Y-8683426D01*
X17749973Y-8773884D01*
X17981810Y-8820000D01*
X18218190Y-8820000D01*
X18450027Y-8773884D01*
X18668413Y-8683426D01*
X18864955Y-8552101D01*
X19032101Y-8384955D01*
X19163426Y-8188413D01*
X19253884Y-7970027D01*
X19300000Y-7738190D01*
X19300000Y-7501810D01*
X19253884Y-7269973D01*
X19163426Y-7051587D01*
X19032101Y-6855045D01*
X18864955Y-6687899D01*
X18668413Y-6556574D01*
X18450027Y-6466116D01*
X18218190Y-6420000D01*
X17981810Y-6420000D01*
X17749973Y-6466116D01*
X17531587Y-6556574D01*
X17335045Y-6687899D01*
X17167899Y-6855045D01*
X17036574Y-7051587D01*
X16946116Y-7269973D01*
X16900000Y-7501810D01*
X16350000Y-7501810D01*
X16350000Y-4961810D01*
X16900000Y-4961810D01*
X16900000Y-5198190D01*
X16946116Y-5430027D01*
X17036574Y-5648413D01*
X17167899Y-5844955D01*
X17335045Y-6012101D01*
X17531587Y-6143426D01*
X17749973Y-6233884D01*
X17981810Y-6280000D01*
X18218190Y-6280000D01*
X18450027Y-6233884D01*
X18455034Y-6231810D01*
X19600000Y-6231810D01*
X19600000Y-6468190D01*
X19646116Y-6700027D01*
X19736574Y-6918413D01*
X19867899Y-7114955D01*
X20035045Y-7282101D01*
X20231587Y-7413426D01*
X20449973Y-7503884D01*
X20681810Y-7550000D01*
X20918190Y-7550000D01*
X21150027Y-7503884D01*
X21368413Y-7413426D01*
X21564955Y-7282101D01*
X21732101Y-7114955D01*
X21863426Y-6918413D01*
X21953884Y-6700027D01*
X22000000Y-6468190D01*
X22000000Y-6231810D01*
X21953884Y-5999973D01*
X21863426Y-5781587D01*
X21732101Y-5585045D01*
X21564955Y-5417899D01*
X21368413Y-5286574D01*
X21150027Y-5196116D01*
X20918190Y-5150000D01*
X20681810Y-5150000D01*
X20449973Y-5196116D01*
X20231587Y-5286574D01*
X20035045Y-5417899D01*
X19867899Y-5585045D01*
X19736574Y-5781587D01*
X19646116Y-5999973D01*
X19600000Y-6231810D01*
X18455034Y-6231810D01*
X18668413Y-6143426D01*
X18864955Y-6012101D01*
X19032101Y-5844955D01*
X19163426Y-5648413D01*
X19253884Y-5430027D01*
X19300000Y-5198190D01*
X19300000Y-4961810D01*
X19253884Y-4729973D01*
X19163426Y-4511587D01*
X19032101Y-4315045D01*
X18864955Y-4147899D01*
X18668413Y-4016574D01*
X18450027Y-3926116D01*
X18218190Y-3880000D01*
X17981810Y-3880000D01*
X17749973Y-3926116D01*
X17531587Y-4016574D01*
X17335045Y-4147899D01*
X17167899Y-4315045D01*
X17036574Y-4511587D01*
X16946116Y-4729973D01*
X16900000Y-4961810D01*
X16350000Y-4961810D01*
X16350000Y-2421810D01*
X16900000Y-2421810D01*
X16900000Y-2658190D01*
X16946116Y-2890027D01*
X17036574Y-3108413D01*
X17167899Y-3304955D01*
X17335045Y-3472101D01*
X17531587Y-3603426D01*
X17749973Y-3693884D01*
X17981810Y-3740000D01*
X18218190Y-3740000D01*
X18450027Y-3693884D01*
X18455034Y-3691810D01*
X19600000Y-3691810D01*
X19600000Y-3928190D01*
X19646116Y-4160027D01*
X19736574Y-4378413D01*
X19867899Y-4574955D01*
X20035045Y-4742101D01*
X20231587Y-4873426D01*
X20449973Y-4963884D01*
X20681810Y-5010000D01*
X20918190Y-5010000D01*
X21150027Y-4963884D01*
X21368413Y-4873426D01*
X21564955Y-4742101D01*
X21732101Y-4574955D01*
X21863426Y-4378413D01*
X21953884Y-4160027D01*
X22000000Y-3928190D01*
X22000000Y-3691810D01*
X21953884Y-3459973D01*
X21863426Y-3241587D01*
X21732101Y-3045045D01*
X21564955Y-2877899D01*
X21368413Y-2746574D01*
X21150027Y-2656116D01*
X20918190Y-2610000D01*
X20681810Y-2610000D01*
X20449973Y-2656116D01*
X20231587Y-2746574D01*
X20035045Y-2877899D01*
X19867899Y-3045045D01*
X19736574Y-3241587D01*
X19646116Y-3459973D01*
X19600000Y-3691810D01*
X18455034Y-3691810D01*
X18668413Y-3603426D01*
X18864955Y-3472101D01*
X19032101Y-3304955D01*
X19163426Y-3108413D01*
X19253884Y-2890027D01*
X19300000Y-2658190D01*
X19300000Y-2421810D01*
X19253884Y-2189973D01*
X19163426Y-1971587D01*
X19032101Y-1775045D01*
X18864955Y-1607899D01*
X18668413Y-1476574D01*
X18450027Y-1386116D01*
X18218190Y-1340000D01*
X17981810Y-1340000D01*
X17749973Y-1386116D01*
X17531587Y-1476574D01*
X17335045Y-1607899D01*
X17167899Y-1775045D01*
X17036574Y-1971587D01*
X16946116Y-2189973D01*
X16900000Y-2421810D01*
X16350000Y-2421810D01*
X16350000Y-510660D01*
X16382563Y-478097D01*
X16464641Y-355258D01*
X16521178Y-218767D01*
X16550000Y-73869D01*
X16550000Y73869D01*
X16541185Y118190D01*
X16900000Y118190D01*
X16900000Y-118190D01*
X16946116Y-350027D01*
X17036574Y-568413D01*
X17167899Y-764955D01*
X17335045Y-932101D01*
X17531587Y-1063426D01*
X17749973Y-1153884D01*
X17981810Y-1200000D01*
X18218190Y-1200000D01*
X18450027Y-1153884D01*
X18455034Y-1151810D01*
X19600000Y-1151810D01*
X19600000Y-1388190D01*
X19646116Y-1620027D01*
X19736574Y-1838413D01*
X19867899Y-2034955D01*
X20035045Y-2202101D01*
X20231587Y-2333426D01*
X20449973Y-2423884D01*
X20681810Y-2470000D01*
X20918190Y-2470000D01*
X21150027Y-2423884D01*
X21368413Y-2333426D01*
X21564955Y-2202101D01*
X21732101Y-2034955D01*
X21863426Y-1838413D01*
X21953884Y-1620027D01*
X22000000Y-1388190D01*
X22000000Y-1151810D01*
X21953884Y-919973D01*
X21863426Y-701587D01*
X21732101Y-505045D01*
X21564955Y-337899D01*
X21368413Y-206574D01*
X21150027Y-116116D01*
X20918190Y-70000D01*
X20681810Y-70000D01*
X20449973Y-116116D01*
X20231587Y-206574D01*
X20035045Y-337899D01*
X19867899Y-505045D01*
X19736574Y-701587D01*
X19646116Y-919973D01*
X19600000Y-1151810D01*
X18455034Y-1151810D01*
X18668413Y-1063426D01*
X18864955Y-932101D01*
X19032101Y-764955D01*
X19163426Y-568413D01*
X19253884Y-350027D01*
X19300000Y-118190D01*
X19300000Y118190D01*
X19253884Y350027D01*
X19163426Y568413D01*
X19032101Y764955D01*
X18864955Y932101D01*
X18668413Y1063426D01*
X18450027Y1153884D01*
X18218190Y1200000D01*
X17981810Y1200000D01*
X17749973Y1153884D01*
X17531587Y1063426D01*
X17335045Y932101D01*
X17167899Y764955D01*
X17036574Y568413D01*
X16946116Y350027D01*
X16900000Y118190D01*
X16541185Y118190D01*
X16521178Y218767D01*
X16464641Y355258D01*
X16382563Y478097D01*
X16278097Y582563D01*
X16155258Y664641D01*
X16018767Y721178D01*
X15873869Y750000D01*
X15726131Y750000D01*
X15581233Y721178D01*
X15444742Y664641D01*
X15321903Y582563D01*
X15217437Y478097D01*
X15150000Y377170D01*
X15082563Y478097D01*
X14978097Y582563D01*
X14855258Y664641D01*
X14718767Y721178D01*
X14573869Y750000D01*
X14527817Y750000D01*
X12681107Y2596710D01*
X12681107Y2620762D01*
X12652285Y2765660D01*
X12595748Y2902151D01*
X12513670Y3024990D01*
X12409204Y3129456D01*
X12286365Y3211534D01*
X12149874Y3268071D01*
X12004976Y3296893D01*
X11857238Y3296893D01*
X11712340Y3268071D01*
X11575849Y3211534D01*
X11453010Y3129456D01*
X11348544Y3024990D01*
X11266466Y2902151D01*
X11209929Y2765660D01*
X11181107Y2620762D01*
X11181107Y2473024D01*
X11209929Y2328126D01*
X11266466Y2191635D01*
X11348544Y2068796D01*
X11453010Y1964330D01*
X11575849Y1882252D01*
X11712340Y1825715D01*
X11857238Y1796893D01*
X11925290Y1796893D01*
X13750000Y-27817D01*
X13750000Y-73869D01*
X13778822Y-218767D01*
X13835359Y-355258D01*
X13917437Y-478097D01*
X14021903Y-582563D01*
X14122830Y-650000D01*
X14021903Y-717437D01*
X13917437Y-821903D01*
X13835359Y-944742D01*
X13778822Y-1081233D01*
X13750000Y-1226131D01*
X13750000Y-1272182D01*
X12930583Y-2091600D01*
X8638660Y-2091600D01*
X8606097Y-2059037D01*
X8483258Y-1976959D01*
X8346767Y-1920422D01*
X8201869Y-1891600D01*
X8054131Y-1891600D01*
X7909233Y-1920422D01*
X7772742Y-1976959D01*
X7649903Y-2059037D01*
X7545437Y-2163503D01*
X7463359Y-2286342D01*
X7406822Y-2422833D01*
X7378000Y-2567731D01*
X7378000Y-2715469D01*
X7406822Y-2860367D01*
X7463359Y-2996858D01*
X7518027Y-3078674D01*
X7373871Y-3050000D01*
X7226133Y-3050000D01*
X7081235Y-3078822D01*
X6944744Y-3135359D01*
X6821905Y-3217437D01*
X6717439Y-3321903D01*
X6635361Y-3444742D01*
X6578824Y-3581233D01*
X6550002Y-3726131D01*
X103948Y-3726131D01*
X-3250000Y-372183D01*
X-3250000Y-326131D01*
X-3278822Y-181233D01*
X-3335359Y-44742D01*
X-3417437Y78097D01*
X-3521903Y182563D01*
X-3644742Y264641D01*
X-3781233Y321178D01*
X-3926131Y350000D01*
X-4073869Y350000D01*
X-4218767Y321178D01*
X-4355258Y264641D01*
X-4478097Y182563D01*
X-4582563Y78097D01*
X-4664641Y-44742D01*
X-4721178Y-181233D01*
X-4750000Y-326131D01*
X-7786052Y-326131D01*
X-7872387Y-239796D01*
X-7889610Y-218810D01*
X-7973358Y-150079D01*
X-8068906Y-99008D01*
X-8172581Y-67558D01*
X-8253382Y-59600D01*
X-8253392Y-59600D01*
X-8280400Y-56940D01*
X-8307408Y-59600D01*
X-8480940Y-59600D01*
X-8513503Y-27037D01*
X-8636342Y55041D01*
X-8708437Y84904D01*
X-8532963Y50000D01*
X-8267037Y50000D01*
X-8006220Y101880D01*
X-7760535Y203646D01*
X-7539425Y351387D01*
X-7351387Y539425D01*
X-7203646Y760535D01*
X-7101880Y1006220D01*
X-7050000Y1267037D01*
X-7050000Y1532963D01*
X-7101880Y1793780D01*
X-7203646Y2039465D01*
X-7351387Y2260575D01*
X-7539425Y2448613D01*
X-7760535Y2596354D01*
X-8006220Y2698120D01*
X-8267037Y2750000D01*
X-8532963Y2750000D01*
X-8793780Y2698120D01*
X-9039465Y2596354D01*
X-9260575Y2448613D01*
X-9448613Y2260575D01*
X-9596354Y2039465D01*
X-9698120Y1793780D01*
X-9747417Y1545949D01*
X-9832131Y1562800D01*
X-9979869Y1562800D01*
X-10124767Y1533978D01*
X-10261258Y1477441D01*
X-10384097Y1395363D01*
X-10488563Y1290897D01*
X-10570641Y1168058D01*
X-10627178Y1031567D01*
X-10656000Y886669D01*
X-14376392Y886669D01*
X-14417437Y948097D01*
X-14521903Y1052563D01*
X-14644742Y1134641D01*
X-14781233Y1191178D01*
X-14807081Y1196319D01*
X-14950000Y1339238D01*
X-14950000Y2969469D01*
X-3798000Y2969469D01*
X-3798000Y2821731D01*
X-3769178Y2676833D01*
X-3712641Y2540342D01*
X-3630563Y2417503D01*
X-3526097Y2313037D01*
X-3403258Y2230959D01*
X-3266767Y2174422D01*
X-3121869Y2145600D01*
X-2974131Y2145600D01*
X-2829233Y2174422D01*
X-2692742Y2230959D01*
X-2569903Y2313037D01*
X-2465437Y2417503D01*
X-2383359Y2540342D01*
X-2326822Y2676833D01*
X-2304123Y2790950D01*
X-1266944Y3828128D01*
X-1152833Y3850826D01*
X-1016342Y3907363D01*
X-893503Y3989441D01*
X-789037Y4093907D01*
X-706959Y4216746D01*
X-650422Y4353237D01*
X-621600Y4498135D01*
X-621600Y4645873D01*
X-650422Y4790771D01*
X-706959Y4927262D01*
X-789037Y5050101D01*
X-893503Y5154567D01*
X-1016342Y5236645D01*
X-1152833Y5293182D01*
X-1297731Y5322004D01*
X-1445469Y5322004D01*
X-1590367Y5293182D01*
X-1726858Y5236645D01*
X-1849697Y5154567D01*
X-1954163Y5050101D01*
X-2036241Y4927262D01*
X-2092778Y4790771D01*
X-2115478Y4676650D01*
X-3152650Y3639477D01*
X-3266767Y3616778D01*
X-3403258Y3560241D01*
X-3526097Y3478163D01*
X-3630563Y3373697D01*
X-3712641Y3250858D01*
X-3769178Y3114367D01*
X-3798000Y2969469D01*
X-14950000Y2969469D01*
X-14950000Y4215014D01*
X-6576087Y4215014D01*
X-6478400Y3957119D01*
X-6332278Y3723237D01*
X-6143335Y3522356D01*
X-5918833Y3362196D01*
X-5667399Y3248912D01*
X-5584986Y3223913D01*
X-5368019Y3283845D01*
X-5368019Y4431981D01*
X-5068019Y4431981D01*
X-5068019Y3283845D01*
X-4851052Y3223913D01*
X-4593157Y3321600D01*
X-4359275Y3467722D01*
X-4158394Y3656665D01*
X-3998234Y3881167D01*
X-3884950Y4132601D01*
X-3859951Y4215014D01*
X-3919883Y4431981D01*
X-5068019Y4431981D01*
X-5368019Y4431981D01*
X-6516155Y4431981D01*
X-6576087Y4215014D01*
X-14950000Y4215014D01*
X-14950000Y6129157D01*
X-14346194Y6129157D01*
X-14346194Y5863231D01*
X-14294314Y5602414D01*
X-14192548Y5356729D01*
X-14044807Y5135619D01*
X-13856769Y4947581D01*
X-13635659Y4799840D01*
X-13389974Y4698074D01*
X-13129157Y4646194D01*
X-12863231Y4646194D01*
X-12602414Y4698074D01*
X-12356729Y4799840D01*
X-12135619Y4947581D01*
X-12134252Y4948948D01*
X-6576087Y4948948D01*
X-6516155Y4731981D01*
X-5368019Y4731981D01*
X-5368019Y5880117D01*
X-5068019Y5880117D01*
X-5068019Y4731981D01*
X-3919883Y4731981D01*
X-3859951Y4948948D01*
X-3957638Y5206843D01*
X-4103760Y5440725D01*
X-4292703Y5641606D01*
X-4517205Y5801766D01*
X-4768639Y5915050D01*
X-4851052Y5940049D01*
X-5068019Y5880117D01*
X-5368019Y5880117D01*
X-5584986Y5940049D01*
X-5842881Y5842362D01*
X-6076763Y5696240D01*
X-6277644Y5507297D01*
X-6437804Y5282795D01*
X-6551088Y5031361D01*
X-6576087Y4948948D01*
X-12134252Y4948948D01*
X-11947581Y5135619D01*
X-11799840Y5356729D01*
X-11698074Y5602414D01*
X-11646194Y5863231D01*
X-11646194Y6129157D01*
X-11698074Y6389974D01*
X-11799840Y6635659D01*
X-11947581Y6856769D01*
X-12135619Y7044807D01*
X-12356729Y7192548D01*
X-12463246Y7236669D01*
X2348800Y7236669D01*
X2348800Y7088931D01*
X2377622Y6944033D01*
X2434159Y6807542D01*
X2516237Y6684703D01*
X2620703Y6580237D01*
X2743542Y6498159D01*
X2880033Y6441622D01*
X3024931Y6412800D01*
X3070983Y6412800D01*
X3466400Y6017382D01*
X3466400Y5971331D01*
X3495222Y5826433D01*
X3551759Y5689942D01*
X3633837Y5567103D01*
X3738303Y5462637D01*
X3861142Y5380559D01*
X3997633Y5324022D01*
X4142531Y5295200D01*
X4290269Y5295200D01*
X4435167Y5324022D01*
X4571658Y5380559D01*
X4694497Y5462637D01*
X4741329Y5509469D01*
X5396800Y5509469D01*
X5396800Y5361731D01*
X5425622Y5216833D01*
X5482159Y5080342D01*
X5564237Y4957503D01*
X5668703Y4853037D01*
X5791542Y4770959D01*
X5928033Y4714422D01*
X6004001Y4699311D01*
X6004000Y2797460D01*
X5970637Y2764097D01*
X5888559Y2641258D01*
X5832022Y2504767D01*
X5803200Y2359869D01*
X5803200Y2212131D01*
X5832022Y2067233D01*
X5888559Y1930742D01*
X5970637Y1807903D01*
X6075103Y1703437D01*
X6197942Y1621359D01*
X6334433Y1564822D01*
X6479331Y1536000D01*
X6627069Y1536000D01*
X6771967Y1564822D01*
X6908458Y1621359D01*
X7031297Y1703437D01*
X7135763Y1807903D01*
X7217841Y1930742D01*
X7274378Y2067233D01*
X7303200Y2212131D01*
X7303200Y2359869D01*
X7274378Y2504767D01*
X7217841Y2641258D01*
X7204000Y2661973D01*
X7204000Y4948935D01*
X7206902Y4978401D01*
X7204000Y5007867D01*
X7204000Y5007874D01*
X7195318Y5096021D01*
X7161010Y5209121D01*
X7105296Y5313355D01*
X7030317Y5404717D01*
X7007424Y5423505D01*
X6890677Y5540251D01*
X6867978Y5654367D01*
X6811441Y5790858D01*
X6729363Y5913697D01*
X6624897Y6018163D01*
X6502058Y6100241D01*
X6365567Y6156778D01*
X6220669Y6185600D01*
X6072931Y6185600D01*
X5928033Y6156778D01*
X5791542Y6100241D01*
X5668703Y6018163D01*
X5564237Y5913697D01*
X5482159Y5790858D01*
X5425622Y5654367D01*
X5396800Y5509469D01*
X4741329Y5509469D01*
X4798963Y5567103D01*
X4881041Y5689942D01*
X4937578Y5826433D01*
X4966400Y5971331D01*
X4966400Y6119069D01*
X4937578Y6263967D01*
X4881041Y6400458D01*
X4798963Y6523297D01*
X4694497Y6627763D01*
X4571658Y6709841D01*
X4435167Y6766378D01*
X4290269Y6795200D01*
X4244218Y6795200D01*
X3848800Y7190617D01*
X3848800Y7236669D01*
X3819978Y7381567D01*
X3763441Y7518058D01*
X3681363Y7640897D01*
X3576897Y7745363D01*
X3454058Y7827441D01*
X3317567Y7883978D01*
X3172669Y7912800D01*
X3024931Y7912800D01*
X2880033Y7883978D01*
X2743542Y7827441D01*
X2620703Y7745363D01*
X2516237Y7640897D01*
X2434159Y7518058D01*
X2377622Y7381567D01*
X2348800Y7236669D01*
X-12463246Y7236669D01*
X-12602414Y7294314D01*
X-12863231Y7346194D01*
X-13129157Y7346194D01*
X-13389974Y7294314D01*
X-13635659Y7192548D01*
X-13856769Y7044807D01*
X-14044807Y6856769D01*
X-14192548Y6635659D01*
X-14294314Y6389974D01*
X-14346194Y6129157D01*
X-14950000Y6129157D01*
X-14950000Y6722830D01*
X-14935359Y6744742D01*
X-14878822Y6881233D01*
X-14850000Y7026131D01*
X-14850000Y7173869D01*
X-14878822Y7318767D01*
X-14935359Y7455258D01*
X-15017437Y7578097D01*
X-15121903Y7682563D01*
X-15244742Y7764641D01*
X-15381233Y7821178D01*
X-15526131Y7850000D01*
X-15673869Y7850000D01*
X-15818767Y7821178D01*
X-15955258Y7764641D01*
X-16078097Y7682563D01*
X-16182563Y7578097D01*
X-16264641Y7455258D01*
X-16321178Y7318767D01*
X-16350000Y7173869D01*
X-19926813Y7173869D01*
X-20035045Y7282101D01*
X-20231587Y7413426D01*
X-20449973Y7503884D01*
X-20681810Y7550000D01*
X-20918190Y7550000D01*
X-21150027Y7503884D01*
X-21368413Y7413426D01*
X-21564955Y7282101D01*
X-21732101Y7114955D01*
X-21863426Y6918413D01*
X-21953884Y6700027D01*
X-22000000Y6468190D01*
X-22112387Y6468190D01*
X-21632264Y7959123D01*
X-21278448Y8811208D01*
X-11172282Y8811208D01*
X-11074595Y8553313D01*
X-10928473Y8319431D01*
X-10739530Y8118550D01*
X-10515028Y7958390D01*
X-10263594Y7845106D01*
X-10181181Y7820107D01*
X-9964214Y7880039D01*
X-9964214Y9028175D01*
X-9664214Y9028175D01*
X-9664214Y7880039D01*
X-9447247Y7820107D01*
X-9189352Y7917794D01*
X-8955470Y8063916D01*
X-8754589Y8252859D01*
X-8594429Y8477361D01*
X-8481145Y8728795D01*
X-8456146Y8811208D01*
X-8516078Y9028175D01*
X-9664214Y9028175D01*
X-9964214Y9028175D01*
X-11112350Y9028175D01*
X-11172282Y8811208D01*
X-21278448Y8811208D01*
X-21067400Y9319469D01*
X9003598Y9319469D01*
X9003598Y9171731D01*
X9032420Y9026833D01*
X9088957Y8890342D01*
X9171035Y8767503D01*
X9203598Y8734940D01*
X9203598Y8652898D01*
X9203599Y8652888D01*
X9203598Y6529410D01*
X9200938Y6502402D01*
X9203598Y6475394D01*
X9203598Y6475385D01*
X9211556Y6394584D01*
X9243006Y6290909D01*
X9294077Y6195360D01*
X9316987Y6167445D01*
X9362808Y6111612D01*
X9383794Y6094389D01*
X11174387Y4303796D01*
X11191610Y4282810D01*
X11275358Y4214079D01*
X11370906Y4163008D01*
X11474581Y4131558D01*
X11555382Y4123600D01*
X11555389Y4123600D01*
X11582400Y4120940D01*
X11609411Y4123600D01*
X13764140Y4123600D01*
X13796703Y4091037D01*
X13919542Y4008959D01*
X14056033Y3952422D01*
X14200931Y3923600D01*
X14348669Y3923600D01*
X14493567Y3952422D01*
X14630058Y4008959D01*
X14752897Y4091037D01*
X14857363Y4195503D01*
X14939441Y4318342D01*
X14995978Y4454833D01*
X15024800Y4599731D01*
X15024800Y4747469D01*
X14995978Y4892367D01*
X14939441Y5028858D01*
X14857363Y5151697D01*
X14752897Y5256163D01*
X14630058Y5338241D01*
X14493567Y5394778D01*
X14348669Y5423600D01*
X14200931Y5423600D01*
X14056033Y5394778D01*
X13919542Y5338241D01*
X13796703Y5256163D01*
X13764140Y5223600D01*
X12714989Y5223600D01*
X12755041Y5283542D01*
X12811578Y5420033D01*
X12840400Y5564931D01*
X12840400Y5712669D01*
X12811578Y5857567D01*
X12755041Y5994058D01*
X12672963Y6116897D01*
X12568497Y6221363D01*
X12445658Y6303441D01*
X12309167Y6359978D01*
X12164269Y6388800D01*
X12118218Y6388800D01*
X11683141Y6823877D01*
X15000000Y6823877D01*
X15000000Y6676139D01*
X15028822Y6531241D01*
X15085359Y6394750D01*
X15167437Y6271911D01*
X15250001Y6189347D01*
X15250000Y3010660D01*
X15217437Y2978097D01*
X15135359Y2855258D01*
X15078822Y2718767D01*
X15050000Y2573869D01*
X15050000Y2426131D01*
X15078822Y2281233D01*
X15135359Y2144742D01*
X15217437Y2021903D01*
X15321903Y1917437D01*
X15444742Y1835359D01*
X15581233Y1778822D01*
X15726131Y1750000D01*
X15873869Y1750000D01*
X16018767Y1778822D01*
X16155258Y1835359D01*
X16278097Y1917437D01*
X16382563Y2021903D01*
X16464641Y2144742D01*
X16521178Y2281233D01*
X16550000Y2426131D01*
X16550000Y2573869D01*
X16533228Y2658190D01*
X16900000Y2658190D01*
X16900000Y2421810D01*
X16946116Y2189973D01*
X17036574Y1971587D01*
X17167899Y1775045D01*
X17335045Y1607899D01*
X17531587Y1476574D01*
X17749973Y1386116D01*
X17981810Y1340000D01*
X18218190Y1340000D01*
X18450027Y1386116D01*
X18455034Y1388190D01*
X19600000Y1388190D01*
X19600000Y1151810D01*
X19646116Y919973D01*
X19736574Y701587D01*
X19867899Y505045D01*
X20035045Y337899D01*
X20231587Y206574D01*
X20449973Y116116D01*
X20681810Y70000D01*
X20918190Y70000D01*
X21150027Y116116D01*
X21368413Y206574D01*
X21564955Y337899D01*
X21732101Y505045D01*
X21863426Y701587D01*
X21953884Y919973D01*
X22000000Y1151810D01*
X22000000Y1388190D01*
X21953884Y1620027D01*
X21863426Y1838413D01*
X21732101Y2034955D01*
X21564955Y2202101D01*
X21368413Y2333426D01*
X21150027Y2423884D01*
X20918190Y2470000D01*
X20681810Y2470000D01*
X20449973Y2423884D01*
X20231587Y2333426D01*
X20035045Y2202101D01*
X19867899Y2034955D01*
X19736574Y1838413D01*
X19646116Y1620027D01*
X19600000Y1388190D01*
X18455034Y1388190D01*
X18668413Y1476574D01*
X18864955Y1607899D01*
X19032101Y1775045D01*
X19163426Y1971587D01*
X19253884Y2189973D01*
X19300000Y2421810D01*
X19300000Y2658190D01*
X19253884Y2890027D01*
X19163426Y3108413D01*
X19032101Y3304955D01*
X18864955Y3472101D01*
X18668413Y3603426D01*
X18450027Y3693884D01*
X18218190Y3740000D01*
X17981810Y3740000D01*
X17749973Y3693884D01*
X17531587Y3603426D01*
X17335045Y3472101D01*
X17167899Y3304955D01*
X17036574Y3108413D01*
X16946116Y2890027D01*
X16900000Y2658190D01*
X16533228Y2658190D01*
X16521178Y2718767D01*
X16464641Y2855258D01*
X16382563Y2978097D01*
X16350000Y3010660D01*
X16350000Y5198190D01*
X16900000Y5198190D01*
X16900000Y4961810D01*
X16946116Y4729973D01*
X17036574Y4511587D01*
X17167899Y4315045D01*
X17335045Y4147899D01*
X17531587Y4016574D01*
X17749973Y3926116D01*
X17981810Y3880000D01*
X18218190Y3880000D01*
X18450027Y3926116D01*
X18668413Y4016574D01*
X18864955Y4147899D01*
X19032101Y4315045D01*
X19163426Y4511587D01*
X19212303Y4629587D01*
X19217437Y4621903D01*
X19321903Y4517437D01*
X19444742Y4435359D01*
X19581233Y4378822D01*
X19724906Y4350244D01*
X19646116Y4160027D01*
X19600000Y3928190D01*
X19600000Y3691810D01*
X19646116Y3459973D01*
X19736574Y3241587D01*
X19867899Y3045045D01*
X20035045Y2877899D01*
X20231587Y2746574D01*
X20449973Y2656116D01*
X20681810Y2610000D01*
X20918190Y2610000D01*
X21150027Y2656116D01*
X21368413Y2746574D01*
X21564955Y2877899D01*
X21732101Y3045045D01*
X21863426Y3241587D01*
X21953884Y3459973D01*
X22000000Y3691810D01*
X22000000Y3928190D01*
X21953884Y4160027D01*
X21863426Y4378413D01*
X21732101Y4574955D01*
X21564955Y4742101D01*
X21368413Y4873426D01*
X21150027Y4963884D01*
X20918190Y5010000D01*
X20681810Y5010000D01*
X20541229Y4982036D01*
X20550000Y5026131D01*
X20550000Y5173869D01*
X20549513Y5176316D01*
X20681810Y5150000D01*
X20918190Y5150000D01*
X21150027Y5196116D01*
X21368413Y5286574D01*
X21564955Y5417899D01*
X21732101Y5585045D01*
X21863426Y5781587D01*
X21953884Y5999973D01*
X22000000Y6231810D01*
X22000000Y6468190D01*
X21953884Y6700027D01*
X21863426Y6918413D01*
X21732101Y7114955D01*
X21564955Y7282101D01*
X21368413Y7413426D01*
X21150027Y7503884D01*
X20918190Y7550000D01*
X20681810Y7550000D01*
X20449973Y7503884D01*
X20231587Y7413426D01*
X20035045Y7282101D01*
X19959683Y7206739D01*
X19959520Y7207044D01*
X19908012Y7269806D01*
X19908007Y7269811D01*
X19890789Y7290791D01*
X19869808Y7308010D01*
X19850000Y7327818D01*
X19850000Y7373869D01*
X19821178Y7518767D01*
X19764641Y7655258D01*
X19701337Y7750000D01*
X20139396Y7750000D01*
X20216675Y7765372D01*
X20289471Y7795524D01*
X20354985Y7839299D01*
X20410700Y7895014D01*
X20454475Y7960529D01*
X20484628Y8033324D01*
X20500000Y8110603D01*
X20500000Y8750000D01*
X20400000Y8850000D01*
X19400000Y8850000D01*
X19400000Y8830000D01*
X19100000Y8830000D01*
X19100000Y8850000D01*
X18100000Y8850000D01*
X18000000Y8750000D01*
X18000000Y8110603D01*
X18015372Y8033324D01*
X18045525Y7960529D01*
X18089300Y7895014D01*
X18145015Y7839299D01*
X18210529Y7795524D01*
X18283325Y7765372D01*
X18360604Y7750000D01*
X18498663Y7750000D01*
X18435359Y7655258D01*
X18378822Y7518767D01*
X18350000Y7373869D01*
X18350000Y7226131D01*
X18378822Y7081233D01*
X18435359Y6944742D01*
X18517437Y6821903D01*
X18621903Y6717437D01*
X18744742Y6635359D01*
X18881233Y6578822D01*
X18949999Y6565144D01*
X18950000Y5927056D01*
X18864955Y6012101D01*
X18668413Y6143426D01*
X18450027Y6233884D01*
X18218190Y6280000D01*
X17981810Y6280000D01*
X17749973Y6233884D01*
X17531587Y6143426D01*
X17335045Y6012101D01*
X17167899Y5844955D01*
X17036574Y5648413D01*
X16946116Y5430027D01*
X16900000Y5198190D01*
X16350000Y5198190D01*
X16350000Y6298007D01*
X16414641Y6394750D01*
X16471178Y6531241D01*
X16500000Y6676139D01*
X16500000Y6823877D01*
X16471178Y6968775D01*
X16414641Y7105266D01*
X16332563Y7228105D01*
X16228097Y7332571D01*
X16105258Y7414649D01*
X15968767Y7471186D01*
X15823869Y7500008D01*
X15676131Y7500008D01*
X15531233Y7471186D01*
X15394742Y7414649D01*
X15271903Y7332571D01*
X15167437Y7228105D01*
X15085359Y7105266D01*
X15028822Y6968775D01*
X15000000Y6823877D01*
X11683141Y6823877D01*
X11421200Y7085817D01*
X11421200Y8734944D01*
X11453763Y8767507D01*
X11535841Y8890346D01*
X11581261Y9000000D01*
X12964194Y9000000D01*
X12987363Y8764759D01*
X13055981Y8538558D01*
X13167409Y8330090D01*
X13317366Y8147366D01*
X13500090Y7997409D01*
X13708558Y7885981D01*
X13934759Y7817363D01*
X14111050Y7800000D01*
X14228950Y7800000D01*
X14405241Y7817363D01*
X14631442Y7885981D01*
X14839910Y7997409D01*
X15022634Y8147366D01*
X15172591Y8330090D01*
X15284019Y8538558D01*
X15352637Y8764759D01*
X15375806Y9000000D01*
X15504194Y9000000D01*
X15527363Y8764759D01*
X15595981Y8538558D01*
X15707409Y8330090D01*
X15857366Y8147366D01*
X16040090Y7997409D01*
X16248558Y7885981D01*
X16474759Y7817363D01*
X16651050Y7800000D01*
X16768950Y7800000D01*
X16945241Y7817363D01*
X17171442Y7885981D01*
X17379910Y7997409D01*
X17562634Y8147366D01*
X17712591Y8330090D01*
X17824019Y8538558D01*
X17892637Y8764759D01*
X17915806Y9000000D01*
X17892637Y9235241D01*
X17824019Y9461442D01*
X17712591Y9669910D01*
X17562634Y9852634D01*
X17517838Y9889397D01*
X18000000Y9889397D01*
X18000000Y9250000D01*
X18100000Y9150000D01*
X19100000Y9150000D01*
X19100000Y10150000D01*
X19400000Y10150000D01*
X19400000Y9150000D01*
X20400000Y9150000D01*
X20500000Y9250000D01*
X20500000Y9889397D01*
X20484628Y9966676D01*
X20454475Y10039471D01*
X20410700Y10104986D01*
X20354985Y10160701D01*
X20289471Y10204476D01*
X20216675Y10234628D01*
X20139396Y10250000D01*
X19500000Y10250000D01*
X19400000Y10150000D01*
X19100000Y10150000D01*
X19000000Y10250000D01*
X18360604Y10250000D01*
X18283325Y10234628D01*
X18210529Y10204476D01*
X18145015Y10160701D01*
X18089300Y10104986D01*
X18045525Y10039471D01*
X18015372Y9966676D01*
X18000000Y9889397D01*
X17517838Y9889397D01*
X17379910Y10002591D01*
X17171442Y10114019D01*
X16945241Y10182637D01*
X16768950Y10200000D01*
X16651050Y10200000D01*
X16474759Y10182637D01*
X16248558Y10114019D01*
X16040090Y10002591D01*
X15857366Y9852634D01*
X15707409Y9669910D01*
X15595981Y9461442D01*
X15527363Y9235241D01*
X15504194Y9000000D01*
X15375806Y9000000D01*
X15352637Y9235241D01*
X15284019Y9461442D01*
X15172591Y9669910D01*
X15022634Y9852634D01*
X14839910Y10002591D01*
X14631442Y10114019D01*
X14405241Y10182637D01*
X14228950Y10200000D01*
X14111050Y10200000D01*
X13934759Y10182637D01*
X13708558Y10114019D01*
X13500090Y10002591D01*
X13317366Y9852634D01*
X13167409Y9669910D01*
X13055981Y9461442D01*
X12987363Y9235241D01*
X12964194Y9000000D01*
X11581261Y9000000D01*
X11592378Y9026837D01*
X11621200Y9171735D01*
X11621200Y9319473D01*
X11592378Y9464371D01*
X11535841Y9600862D01*
X11453763Y9723701D01*
X11349297Y9828167D01*
X11226458Y9910245D01*
X11089967Y9966782D01*
X10945069Y9995604D01*
X10797331Y9995604D01*
X10652433Y9966782D01*
X10515942Y9910245D01*
X10393103Y9828167D01*
X10312397Y9747461D01*
X10231695Y9828163D01*
X10108856Y9910241D01*
X9972365Y9966778D01*
X9827467Y9995600D01*
X9679729Y9995600D01*
X9534831Y9966778D01*
X9398340Y9910241D01*
X9275501Y9828163D01*
X9171035Y9723697D01*
X9088957Y9600858D01*
X9032420Y9464367D01*
X9003598Y9319469D01*
X-21067400Y9319469D01*
X-20973692Y9545142D01*
X-11172282Y9545142D01*
X-11112350Y9328175D01*
X-9964214Y9328175D01*
X-9964214Y10476311D01*
X-9664214Y10476311D01*
X-9664214Y9328175D01*
X-8516078Y9328175D01*
X-8456146Y9545142D01*
X-8553833Y9803037D01*
X-8699955Y10036919D01*
X-8888898Y10237800D01*
X-9113400Y10397960D01*
X-9364834Y10511244D01*
X-9447247Y10536243D01*
X-9664214Y10476311D01*
X-9964214Y10476311D01*
X-10181181Y10536243D01*
X-10439076Y10438556D01*
X-10672958Y10292434D01*
X-10873839Y10103491D01*
X-11033999Y9878989D01*
X-11147283Y9627555D01*
X-11172282Y9545142D01*
X-20973692Y9545142D01*
X-20907365Y9704875D01*
X-20268883Y10944565D01*
X-14843303Y10944565D01*
X-14473527Y10528478D01*
X-13855891Y10200559D01*
X-13186150Y9999435D01*
X-12490039Y9932837D01*
X-11794312Y10003322D01*
X-11125703Y10208182D01*
X-10526473Y10528478D01*
X-10156697Y10944565D01*
X-12500000Y13287868D01*
X-14843303Y10944565D01*
X-20268883Y10944565D01*
X-20041858Y11385360D01*
X-19041566Y12989275D01*
X-18668988Y13490039D01*
X-16067163Y13490039D01*
X-15996678Y12794312D01*
X-15791818Y12125703D01*
X-15471522Y11526473D01*
X-15055435Y11156697D01*
X-12712132Y13500000D01*
X-12287868Y13500000D01*
X-9944565Y11156697D01*
X-9528478Y11526473D01*
X-9200559Y12144109D01*
X-9011442Y12773869D01*
X-7850000Y12773869D01*
X-7850000Y12626131D01*
X-7821178Y12481233D01*
X-7764641Y12344742D01*
X-7682563Y12221903D01*
X-7578097Y12117437D01*
X-7455258Y12035359D01*
X-7318767Y11978822D01*
X-7173869Y11950000D01*
X-7127817Y11950000D01*
X-6650000Y11472182D01*
X-6650000Y11426131D01*
X-6621178Y11281233D01*
X-6564641Y11144742D01*
X-6482563Y11021903D01*
X-6378097Y10917437D01*
X-6255258Y10835359D01*
X-6118767Y10778822D01*
X-5973869Y10750000D01*
X-5826131Y10750000D01*
X-5681233Y10778822D01*
X-5544742Y10835359D01*
X-5421903Y10917437D01*
X-5359215Y10980125D01*
X10192257Y10980125D01*
X10556031Y10569160D01*
X11165163Y10246226D01*
X11825591Y10048333D01*
X12511937Y9983085D01*
X13197824Y10052990D01*
X13856893Y10255362D01*
X14443969Y10569160D01*
X14807743Y10980125D01*
X12500000Y13287868D01*
X10192257Y10980125D01*
X-5359215Y10980125D01*
X-5317437Y11021903D01*
X-5235359Y11144742D01*
X-5178822Y11281233D01*
X-5150000Y11426131D01*
X-5150000Y11573869D01*
X-5178822Y11718767D01*
X-5235359Y11855258D01*
X-5317437Y11978097D01*
X-5421903Y12082563D01*
X-5544742Y12164641D01*
X-5681233Y12221178D01*
X-5826131Y12250000D01*
X-5872182Y12250000D01*
X-6350000Y12727817D01*
X-6350000Y12773869D01*
X-6378822Y12918767D01*
X-6435359Y13055258D01*
X-6517437Y13178097D01*
X-6621903Y13282563D01*
X-6744742Y13364641D01*
X-6881233Y13421178D01*
X-7026131Y13450000D01*
X-7173869Y13450000D01*
X-7318767Y13421178D01*
X-7455258Y13364641D01*
X-7578097Y13282563D01*
X-7682563Y13178097D01*
X-7764641Y13055258D01*
X-7821178Y12918767D01*
X-7850000Y12773869D01*
X-9011442Y12773869D01*
X-8999435Y12813850D01*
X-8932837Y13509961D01*
X-9003322Y14205688D01*
X-9208182Y14874297D01*
X-9528478Y15473527D01*
X-9944565Y15843303D01*
X-12287868Y13500000D01*
X-12712132Y13500000D01*
X-15055435Y15843303D01*
X-15471522Y15473527D01*
X-15799441Y14855891D01*
X-16000565Y14186150D01*
X-16067163Y13490039D01*
X-18668988Y13490039D01*
X-17913214Y14505835D01*
X-16664393Y15924840D01*
X-16528922Y16055435D01*
X-14843303Y16055435D01*
X-12500000Y13712132D01*
X-10156697Y16055435D01*
X-10526473Y16471522D01*
X-11144109Y16799441D01*
X-11813850Y17000565D01*
X-12509961Y17067163D01*
X-13205688Y16996678D01*
X-13874297Y16791818D01*
X-14473527Y16471522D01*
X-14843303Y16055435D01*
X-16528922Y16055435D01*
X-15303499Y17236746D01*
X-14995981Y17487999D01*
X-7651861Y17487999D01*
X-7649200Y17460981D01*
X-7649201Y16096209D01*
X-7651861Y16069201D01*
X-7649201Y16042193D01*
X-7649201Y16042184D01*
X-7641243Y15961383D01*
X-7609793Y15857708D01*
X-7558722Y15762159D01*
X-7489991Y15678411D01*
X-7469005Y15661188D01*
X-5520000Y13712183D01*
X-5520000Y13666131D01*
X-5491178Y13521233D01*
X-5434641Y13384742D01*
X-5352563Y13261903D01*
X-5248097Y13157437D01*
X-5125258Y13075359D01*
X-4988767Y13018822D01*
X-4843869Y12990000D01*
X-4696131Y12990000D01*
X-4551233Y13018822D01*
X-4414742Y13075359D01*
X-4291903Y13157437D01*
X-4187437Y13261903D01*
X-4105359Y13384742D01*
X-4048822Y13521233D01*
X-4020000Y13666131D01*
X-4020000Y13813869D01*
X-4035532Y13891955D01*
X-814086Y13891955D01*
X-814086Y13744217D01*
X-785264Y13599319D01*
X-728727Y13462828D01*
X-646649Y13339989D01*
X-542183Y13235523D01*
X-419344Y13153445D01*
X-282853Y13096908D01*
X-137955Y13068086D01*
X9783Y13068086D01*
X154681Y13096908D01*
X291172Y13153445D01*
X414011Y13235523D01*
X496574Y13318086D01*
X1245926Y13318086D01*
X1270486Y13315667D01*
X1295046Y13318086D01*
X1368503Y13325321D01*
X1462753Y13353911D01*
X1549615Y13400340D01*
X1625750Y13462822D01*
X1641415Y13481909D01*
X1647569Y13488063D01*
X8983085Y13488063D01*
X9052990Y12802176D01*
X9255362Y12143107D01*
X9569160Y11556031D01*
X9980125Y11192257D01*
X12287868Y13500000D01*
X12712132Y13500000D01*
X15019875Y11192257D01*
X15430840Y11556031D01*
X15753774Y12165163D01*
X15951667Y12825591D01*
X16016915Y13511937D01*
X15947010Y14197824D01*
X15744638Y14856893D01*
X15430840Y15443969D01*
X15019875Y15807743D01*
X12712132Y13500000D01*
X12287868Y13500000D01*
X9980125Y15807743D01*
X9569160Y15443969D01*
X9246226Y14834837D01*
X9048333Y14174409D01*
X8983085Y13488063D01*
X1647569Y13488063D01*
X1785906Y13626400D01*
X1902669Y13626400D01*
X2047567Y13655222D01*
X2184058Y13711759D01*
X2306897Y13793837D01*
X2411363Y13898303D01*
X2493441Y14021142D01*
X2549978Y14157633D01*
X2578800Y14302531D01*
X2578800Y14450269D01*
X2549978Y14595167D01*
X2493441Y14731658D01*
X2411363Y14854497D01*
X2306897Y14958963D01*
X2184058Y15041041D01*
X2047567Y15097578D01*
X1902669Y15126400D01*
X1754931Y15126400D01*
X1610033Y15097578D01*
X1473542Y15041041D01*
X1350703Y14958963D01*
X1246237Y14854497D01*
X1164159Y14731658D01*
X1107622Y14595167D01*
X1078800Y14450269D01*
X1078800Y14333506D01*
X1063380Y14318086D01*
X496574Y14318086D01*
X414011Y14400649D01*
X291172Y14482727D01*
X154681Y14539264D01*
X9783Y14568086D01*
X-137955Y14568086D01*
X-282853Y14539264D01*
X-419344Y14482727D01*
X-542183Y14400649D01*
X-646649Y14296183D01*
X-728727Y14173344D01*
X-785264Y14036853D01*
X-814086Y13891955D01*
X-4035532Y13891955D01*
X-4048822Y13958767D01*
X-4105359Y14095258D01*
X-4187437Y14218097D01*
X-4291903Y14322563D01*
X-4414742Y14404641D01*
X-4551233Y14461178D01*
X-4696131Y14490000D01*
X-4742183Y14490000D01*
X-5980711Y15728528D01*
X-5943942Y15743759D01*
X-5821103Y15825837D01*
X-5796940Y15850000D01*
X-2510660Y15850000D01*
X-2478097Y15817437D01*
X-2355258Y15735359D01*
X-2218767Y15678822D01*
X-2073869Y15650000D01*
X-1926131Y15650000D01*
X-1781233Y15678822D01*
X-1644742Y15735359D01*
X-1521903Y15817437D01*
X-1417437Y15921903D01*
X-1351975Y16019875D01*
X10192257Y16019875D01*
X12500000Y13712132D01*
X14807743Y16019875D01*
X14443969Y16430840D01*
X13834837Y16753774D01*
X13174409Y16951667D01*
X12488063Y17016915D01*
X11802176Y16947010D01*
X11143107Y16744638D01*
X10556031Y16430840D01*
X10192257Y16019875D01*
X-1351975Y16019875D01*
X-1335359Y16044742D01*
X-1278822Y16181233D01*
X-1250000Y16326131D01*
X-1250000Y16473869D01*
X-1278822Y16618767D01*
X-1335359Y16755258D01*
X-1417437Y16878097D01*
X-1521903Y16982563D01*
X-1563806Y17010562D01*
X1685194Y17010562D01*
X1762771Y16842872D01*
X1967136Y16757174D01*
X2184293Y16712994D01*
X2405896Y16712028D01*
X2623431Y16754313D01*
X2828535Y16838224D01*
X2837229Y16842872D01*
X2914806Y17010562D01*
X2300000Y17625368D01*
X1685194Y17010562D01*
X-1563806Y17010562D01*
X-1644742Y17064641D01*
X-1781233Y17121178D01*
X-1812164Y17127331D01*
X-1794930Y17144565D01*
X-1873060Y17222695D01*
X-1705372Y17300271D01*
X-1619674Y17504636D01*
X-1575494Y17721793D01*
X-1575452Y17731604D01*
X1174528Y17731604D01*
X1216813Y17514069D01*
X1300724Y17308965D01*
X1305372Y17300271D01*
X1473062Y17222694D01*
X2087868Y17837500D01*
X2512132Y17837500D01*
X3126938Y17222694D01*
X3294628Y17300271D01*
X3380326Y17504636D01*
X3424506Y17721793D01*
X3425472Y17943396D01*
X3383187Y18160931D01*
X3299276Y18366035D01*
X3294628Y18374729D01*
X3126938Y18452306D01*
X2512132Y17837500D01*
X2087868Y17837500D01*
X1473062Y18452306D01*
X1305372Y18374729D01*
X1219674Y18170364D01*
X1175494Y17953207D01*
X1174528Y17731604D01*
X-1575452Y17731604D01*
X-1574528Y17943396D01*
X-1616813Y18160931D01*
X-1700724Y18366035D01*
X-1705372Y18374729D01*
X-1873062Y18452306D01*
X-2487868Y17837500D01*
X-2473726Y17823358D01*
X-2685858Y17611226D01*
X-2700000Y17625368D01*
X-3314806Y17010562D01*
X-3286789Y16950000D01*
X-5780140Y16950000D01*
X-5821103Y16990963D01*
X-5943942Y17073041D01*
X-6080433Y17129578D01*
X-6225331Y17158400D01*
X-6373069Y17158400D01*
X-6517967Y17129578D01*
X-6549201Y17116640D01*
X-6549201Y17260182D01*
X-6077779Y17731604D01*
X-3825472Y17731604D01*
X-3783187Y17514069D01*
X-3699276Y17308965D01*
X-3694628Y17300271D01*
X-3526938Y17222694D01*
X-2912132Y17837500D01*
X-3526938Y18452306D01*
X-3694628Y18374729D01*
X-3780326Y18170364D01*
X-3824506Y17953207D01*
X-3825472Y17731604D01*
X-6077779Y17731604D01*
X-5864983Y17944400D01*
X-5818931Y17944400D01*
X-5674033Y17973222D01*
X-5537542Y18029759D01*
X-5414703Y18111837D01*
X-5310237Y18216303D01*
X-5228159Y18339142D01*
X-5171622Y18475633D01*
X-5142800Y18620531D01*
X-5142800Y18664438D01*
X-3314806Y18664438D01*
X-2700000Y18049632D01*
X-2085194Y18664438D01*
X1685194Y18664438D01*
X2300000Y18049632D01*
X2914806Y18664438D01*
X2837229Y18832128D01*
X2632864Y18917826D01*
X2415707Y18962006D01*
X2194104Y18962972D01*
X1976569Y18920687D01*
X1771465Y18836776D01*
X1762771Y18832128D01*
X1685194Y18664438D01*
X-2085194Y18664438D01*
X-2162771Y18832128D01*
X-2367136Y18917826D01*
X-2584293Y18962006D01*
X-2805896Y18962972D01*
X-3023431Y18920687D01*
X-3228535Y18836776D01*
X-3237229Y18832128D01*
X-3314806Y18664438D01*
X-5142800Y18664438D01*
X-5142800Y18768269D01*
X-5171622Y18913167D01*
X-5228159Y19049658D01*
X-5310237Y19172497D01*
X-5414703Y19276963D01*
X-5537542Y19359041D01*
X-5674033Y19415578D01*
X-5818931Y19444400D01*
X-5966669Y19444400D01*
X-6111567Y19415578D01*
X-6248058Y19359041D01*
X-6370897Y19276963D01*
X-6475363Y19172497D01*
X-6557441Y19049658D01*
X-6613978Y18913167D01*
X-6642800Y18768269D01*
X-6642800Y18722217D01*
X-7469010Y17896007D01*
X-7489990Y17878789D01*
X-7507208Y17857809D01*
X-7507214Y17857803D01*
X-7558722Y17795041D01*
X-7609792Y17699493D01*
X-7641242Y17595817D01*
X-7651861Y17487999D01*
X-14995981Y17487999D01*
X-13839686Y18432731D01*
X-12282798Y19504752D01*
X-10744550Y20387500D01*
X-4700000Y20387500D01*
X-4700000Y20037500D01*
X-4651522Y19845292D01*
X-4566477Y19666235D01*
X-4448134Y19507210D01*
X-4301041Y19374328D01*
X-4130850Y19272696D01*
X-4002818Y19234452D01*
X-3850000Y19300088D01*
X-3850000Y20387500D01*
X-3550000Y20387500D01*
X-3550000Y19300088D01*
X-3397182Y19234452D01*
X-3269150Y19272696D01*
X-3098959Y19374328D01*
X-2951866Y19507210D01*
X-2833523Y19666235D01*
X-2748478Y19845292D01*
X-2700000Y20037500D01*
X-2700000Y20387500D01*
X2300000Y20387500D01*
X2300000Y20037500D01*
X2348478Y19845292D01*
X2433523Y19666235D01*
X2551866Y19507210D01*
X2698959Y19374328D01*
X2869150Y19272696D01*
X2997182Y19234452D01*
X3150000Y19300088D01*
X3150000Y20387500D01*
X3450000Y20387500D01*
X3450000Y19300088D01*
X3602818Y19234452D01*
X3730850Y19272696D01*
X3901041Y19374328D01*
X4048134Y19507210D01*
X4166477Y19666235D01*
X4251522Y19845292D01*
X4300000Y20037500D01*
X4300000Y20387500D01*
X3450000Y20387500D01*
X3150000Y20387500D01*
X2300000Y20387500D01*
X-2700000Y20387500D01*
X-3550000Y20387500D01*
X-3850000Y20387500D01*
X-4700000Y20387500D01*
X-10744550Y20387500D01*
X-10643306Y20445600D01*
X-9382600Y21037500D01*
X-4700000Y21037500D01*
X-4700000Y20687500D01*
X-3850000Y20687500D01*
X-3850000Y21774912D01*
X-3550000Y21774912D01*
X-3550000Y20687500D01*
X-2700000Y20687500D01*
X-2700000Y21037500D01*
X2300000Y21037500D01*
X2300000Y20687500D01*
X3150000Y20687500D01*
X3150000Y21774912D01*
X3450000Y21774912D01*
X3450000Y20687500D01*
X4300000Y20687500D01*
X4300000Y21037500D01*
X4251522Y21229708D01*
X4166477Y21408765D01*
X4048134Y21567790D01*
X3901041Y21700672D01*
X3730850Y21802304D01*
X3602818Y21840548D01*
X3450000Y21774912D01*
X3150000Y21774912D01*
X2997182Y21840548D01*
X2869150Y21802304D01*
X2698959Y21700672D01*
X2551866Y21567790D01*
X2433523Y21408765D01*
X2348478Y21229708D01*
X2300000Y21037500D01*
X-2700000Y21037500D01*
X-2748478Y21229708D01*
X-2833523Y21408765D01*
X-2951866Y21567790D01*
X-3098959Y21700672D01*
X-3269150Y21802304D01*
X-3397182Y21840548D01*
X-3550000Y21774912D01*
X-3850000Y21774912D01*
X-4002818Y21840548D01*
X-4130850Y21802304D01*
X-4301041Y21700672D01*
X-4448134Y21567790D01*
X-4566477Y21408765D01*
X-4651522Y21229708D01*
X-4700000Y21037500D01*
X-9382600Y21037500D01*
X-8932234Y21248946D01*
X-7161092Y21909388D01*
X-5341789Y22422484D01*
X-3486562Y22784784D01*
X-1607887Y22993851D01*
X281602Y23048280D01*
X2169197Y22947703D01*
G04 #@! TD*
M02*
