<?xml version="1.0" encoding="UTF-8" standalone="no"?>
<svg
   xmlns:dc="http://purl.org/dc/elements/1.1/"
   xmlns:cc="http://creativecommons.org/ns#"
   xmlns:rdf="http://www.w3.org/1999/02/22-rdf-syntax-ns#"
   xmlns:svg="http://www.w3.org/2000/svg"
   xmlns="http://www.w3.org/2000/svg"
   xmlns:sodipodi="http://sodipodi.sourceforge.net/DTD/sodipodi-0.dtd"
   xmlns:inkscape="http://www.inkscape.org/namespaces/inkscape"
   width="793.700787402"
   height="1122.51968504"
   version="1.1"
   id="svg77"
   sodipodi:docname="tapa_Superior_Sat.svg"
   inkscape:version="0.92.3 (2405546, 2018-03-11)">
  <metadata
     id="metadata81">
    <rdf:RDF>
      <cc:Work
         rdf:about="">
        <dc:format>image/svg+xml</dc:format>
        <dc:type
           rdf:resource="http://purl.org/dc/dcmitype/StillImage" />
      </cc:Work>
    </rdf:RDF>
  </metadata>
  <sodipodi:namedview
     pagecolor="#ffffff"
     bordercolor="#666666"
     borderopacity="1"
     objecttolerance="10"
     gridtolerance="10"
     guidetolerance="10"
     inkscape:pageopacity="0"
     inkscape:pageshadow="2"
     inkscape:window-width="1366"
     inkscape:window-height="705"
     id="namedview79"
     showgrid="false"
     inkscape:zoom="3.363861"
     inkscape:cx="-2.7553282"
     inkscape:cy="-7.7733821"
     inkscape:window-x="-8"
     inkscape:window-y="-8"
     inkscape:window-maximized="1"
     inkscape:current-layer="g75"
     showguides="false" />
  <desc
     id="desc2">C:\Users\LEO\Documents\Repos\CanSat\Hardware\Serigrafia\TapaSuperiorSat\tapaSuperiorSat.dxf - scale = 1.000000, origin = (0.000000, 0.000000), method = manual</desc>
  <defs
     id="defs17">
    <marker
       id="DistanceX"
       orient="auto"
       refX="0.0"
       refY="0.0"
       style="overflow:visible">
      <path
         d="M 3,-3 L -3,3 M 0,-5 L  0,5"
         style="stroke:#000000; stroke-width:0.5"
         id="path4" />
    </marker>
    <pattern
       height="8"
       id="Hatch"
       patternUnits="userSpaceOnUse"
       width="8"
       x="0"
       y="0">
      <path
         d="M8 4 l-4,4"
         linecap="square"
         stroke="#000000"
         stroke-width="0.25"
         id="path7" />
      <path
         d="M6 2 l-4,4"
         linecap="square"
         stroke="#000000"
         stroke-width="0.25"
         id="path9" />
      <path
         d="M4 0 l-4,4"
         linecap="square"
         stroke="#000000"
         stroke-width="0.25"
         id="path11" />
    </pattern>
    <symbol
       id="*Model_Space" />
    <symbol
       id="*Paper_Space" />
    <symbol
       id="*Paper_Space0" />
  </defs>
  <g
     inkscape:groupmode="layer"
     inkscape:label="0"
     id="g75">
    <path
       d="M 59.149606,1071.496063 A 11.905512,11.905512 -0.000000 1 0 35.338583,1071.496063 11.905512,11.905512 -0.000000 1 0 59.149606,1071.496063 z"
       style="stroke:#000000;stroke-width:0.6;fill:none;stroke-linecap: round"
       id="path23" />
    <path
       d="M 54.047244,1071.496063 A 6.803150,6.803150 -0.000000 1 0 40.440945,1071.496063 6.803150,6.803150 -0.000000 1 0 54.047244,1071.496063 z"
       style="stroke:#000000;stroke-width:0.6;fill:none;stroke-linecap: round"
       id="path25" />
    <path
       d="m 11.905512,1198.8661 c 0,-6.5752 -5.3302794,-11.9055 -11.905512,-11.9055 -6.5752326,0 -11.905512,5.3303 -11.905512,11.9055 2.7433646,17.5232 23.421706,12.8089 23.811024,0 z"
       style="fill:none;stroke:#000000;stroke-width:0.60000002;stroke-linecap:round"
       id="path41"
       inkscape:connector-curvature="0"
       sodipodi:nodetypes="cscc" />
    <path
       d="M -35.338583,1071.496063 A 11.905512,11.905512 -0.000000 1 0 -59.149606,1071.496063 11.905512,11.905512 -0.000000 1 0 -35.338583,1071.496063 z"
       style="stroke:#000000;stroke-width:0.6;fill:none;stroke-linecap: round"
       id="path43" />
    <path
       d="M -40.440945,1071.496063 A 6.803150,6.803150 -0.000000 1 0 -54.047244,1071.496063 6.803150,6.803150 -0.000000 1 0 -40.440945,1071.496063 z"
       style="stroke:#000000;stroke-width:0.6;fill:none;stroke-linecap: round"
       id="path45" />
    <path
       d="m 6.80315,1198.8661 c 0,-3.7572 -3.0458741,-6.8031 -6.80315,-6.8031 -3.7572759,0 -6.80315,3.0459 -6.80315,6.8031 1.567637,10.0133 13.3838326,7.3194 13.6063,0 z"
       style="fill:none;stroke:#000000;stroke-width:0.60000002;stroke-linecap:round"
       id="path49"
       inkscape:connector-curvature="0"
       sodipodi:nodetypes="cscc" />
    <path
       d="M -66.813296,1180.0567 H 67.603332"
       style="fill:none;stroke:#000000;stroke-width:0.55741525;stroke-linecap:round"
       id="path55"
       inkscape:connector-curvature="0" />
    <path
       d="M 51.776336,1106.9877 H 87.906034"
       style="fill:none;stroke:#000000;stroke-width:0.60876691;stroke-linecap:round"
       id="path57"
       inkscape:connector-curvature="0" />
    <path
       d="M -86.863956,1106.987684 -51.767379,1106.987684"
       style="stroke:#000000;stroke-width:0.6;fill:none;stroke-linecap: round"
       id="path59" />
    <path
       d="M 51.767379,1106.987684 A 54.047244,54.047244 -0.000000 0 0 -51.767379,1106.987684"
       style="stroke:#000000;stroke-width:0.6;fill:none;stroke-linecap: round"
       id="path69" />
    <path
       id="path877"
       style="fill:none;fill-rule:evenodd;stroke:#000000;stroke-width:0.95999998;stroke-miterlimit:4;stroke-dasharray:none;stroke-opacity:1"
       d="M 0.48046875,1033.2207 A 88.818901,88.818901 0 0 0 -88.339844,1122.0391 88.818901,88.818901 0 0 0 0.48046875,1210.8594 88.818901,88.818901 0 0 0 89.298828,1122.0391 88.818901,88.818901 0 0 0 0.48046875,1033.2207 Z" />
  </g>
</svg>
