999
dxfrw 0.6.3
  0
SECTION
  2
HEADER
  9
$ACADVER
  1
AC1009
  9
$DWGCODEPAGE
  3
ANSI_1252
  9
$INSBASE
 10
0
 20
0
 30
0
  9
$EXTMIN
 10
-22.982755
 20
-20.199989
 30
0
  9
$EXTMAX
 10
23.258471
 20
23.627023
 30
0
  9
$LIMMIN
 10
0
 20
0
  9
$LIMMAX
 10
420
 20
297
  9
$ORTHOMODE
 70
    0
  9
$REGENMODE
 70
    1
  9
$FILLMODE
 70
    1
  9
$QTEXTMODE
 70
    0
  9
$MIRRTEXT
 70
    0
  9
$DRAGMODE
 70
    2
  9
$LTSCALE
 40
1
  9
$OSMODE
 70
    0
  9
$ATTMODE
 70
    0
  9
$TEXTSIZE
 40
2.5
  9
$TRACEWID
 40
15.68
  9
$TEXTSTYLE
  7
STANDARD
  9
$CLAYER
  8
0
  9
$CELTYPE
  6
BYLAYER
  9
$CECOLOR
 62
  256
  9
$DIMSCALE
 40
2.5
  9
$DIMASZ
 40
2.5
  9
$DIMEXO
 40
0.625
  9
$DIMDLI
 40
3.75
  9
$DIMRND
 40
0
  9
$DIMDLE
 40
0
  9
$DIMEXE
 40
1.25
  9
$DIMTP
 40
0
  9
$DIMTM
 40
0
  9
$DIMTXT
 40
2.5
  9
$DIMCEN
 40
2.5
  9
$DIMTSZ
 40
0
  9
$DIMTOL
 70
    0
  9
$DIMLIM
 70
    0
  9
$DIMTIH
 70
    0
  9
$DIMTOH
 70
    0
  9
$DIMSE1
 70
    0
  9
$DIMSE2
 70
    0
  9
$DIMTAD
 70
    1
  9
$DIMZIN
 70
    8
  9
$DIMBLK
  1

  9
$DIMASO
 70
    1
  9
$DIMSHO
 70
    1
  9
$DIMPOST
  1

  9
$DIMAPOST
  1

  9
$DIMALT
 70
    0
  9
$DIMALTD
 70
    3
  9
$DIMALTF
 40
0.03937
  9
$DIMLFAC
 40
1
  9
$DIMTOFL
 70
    1
  9
$DIMTVP
 40
0
  9
$DIMTIX
 70
    0
  9
$DIMSOXD
 70
    0
  9
$DIMSAH
 70
    0
  9
$DIMBLK1
  1

  9
$DIMBLK2
  1

  9
$DIMSTYLE
  2
STANDARD
  9
$DIMCLRD
 70
    0
  9
$DIMCLRE
 70
    0
  9
$DIMCLRT
 70
    0
  9
$DIMTFAC
 40
1
  9
$DIMGAP
 40
0.625
  9
$LUNITS
 70
    2
  9
$LUPREC
 70
    4
  9
$SKETCHINC
 40
1
  9
$FILLETRAD
 40
0
  9
$AUNITS
 70
    0
  9
$AUPREC
 70
    2
  9
$MENU
  1
.
  9
$ELEVATION
 40
0
  9
$PELEVATION
 40
0
  9
$THICKNESS
 40
0
  9
$LIMCHECK
 70
    0
  9
$BLIPMODE
 70
    0
  9
$CHAMFERA
 40
0
  9
$CHAMFERB
 40
0
  9
$SKPOLY
 70
    0
  9
$USRTIMER
 70
    1
  9
$ANGBASE
 50
0
  9
$ANGDIR
 70
    0
  9
$PDMODE
 70
   34
  9
$PDSIZE
 40
0
  9
$PLINEWID
 40
0
  9
$COORDS
 70
    2
  9
$SPLFRAME
 70
    0
  9
$SPLINETYPE
 70
    2
  9
$SPLINESEGS
 70
    8
  9
$ATTDIA
 70
    1
  9
$ATTREQ
 70
    1
  9
$HANDLING
 70
    1
  9
$HANDSEED
  5
20000
  9
$SURFTAB1
 70
    6
  9
$SURFTAB2
 70
    6
  9
$SURFTYPE
 70
    6
  9
$SURFU
 70
    6
  9
$SURFV
 70
    6
  9
$UCSNAME
  2

  9
$UCSORG
 10
0
 20
0
 30
0
  9
$UCSXDIR
 10
1
 20
0
 30
0
  9
$UCSYDIR
 10
0
 20
1
 30
0
  9
$PUCSNAME
  2

  9
$PUCSORG
 10
0
 20
0
 30
0
  9
$PUCSXDIR
 10
1
 20
0
 30
0
  9
$PUCSYDIR
 10
0
 20
1
 30
0
  9
$USERI1
 70
    0
  9
$USERI2
 70
    0
  9
$USERI3
 70
    0
  9
$USERI4
 70
    0
  9
$USERI5
 70
    0
  9
$USERR1
 40
0
  9
$USERR2
 40
0
  9
$USERR3
 40
0
  9
$USERR4
 40
0
  9
$USERR5
 40
0
  9
$WORLDVIEW
 70
    1
  9
$SHADEDGE
 70
    3
  9
$SHADEDIF
 70
   70
  9
$TILEMODE
 70
    1
  9
$MAXACTVP
 70
   64
  9
$PLIMCHECK
 70
    0
  9
$PEXTMIN
 10
0
 20
0
 30
0
  9
$PEXTMAX
 10
0
 20
0
 30
0
  9
$GRIDMODE
 70
    0
  9
$SNAPSTYLE
 70
    0
  9
$PLIMMIN
 10
0
 20
0
  9
$PLIMMAX
 10
210
 20
297
  9
$UNITMODE
 70
    0
  9
$VISRETAIN
 70
    1
  9
$PLINEGEN
 70
    0
  9
$PSLTSCALE
 70
    1
  0
ENDSEC
  0
SECTION
  2
TABLES
  0
TABLE
  2
VPORT
 70
    1
  0
VPORT
  2
*ACTIVE
 70
    0
 10
0
 20
0
 11
1
 21
1
 12
210.2621268656717
 22
148.5513059701493
 13
0
 23
0
 14
10
 24
10
 15
10
 25
10
 16
0
 26
0
 36
1
 17
0
 27
0
 37
0
 40
341
 41
1.813432835820896
 42
50
 43
0
 44
0
 50
0
 51
0
 71
    0
 72
  100
 73
    1
 74
    3
 75
    0
 76
    0
 77
    0
 78
    0
  0
ENDTAB
  0
TABLE
  2
LTYPE
 70
    4
  0
LTYPE
  2
BYBLOCK
 70
    0
  3

 72
   65
 73
    0
 40
0
  0
LTYPE
  2
BYLAYER
 70
    0
  3

 72
   65
 73
    0
 40
0
  0
LTYPE
  2
CONTINUOUS
 70
    0
  3
Solid line
 72
   65
 73
    0
 40
0
  0
LTYPE
  2
DOT
 70
    0
  3
Dot . . . . . . . . . . . . . . . . . . . . . .
 72
   65
 73
    2
 40
6.35
 49
0
 49
-6.35
  0
LTYPE
  2
DOTTINY
 70
    0
  3
Dot (.15x) .....................................
 72
   65
 73
    2
 40
0.9525
 49
0
 49
-0.9525
  0
LTYPE
  2
DOT2
 70
    0
  3
Dot (.5x) .....................................
 72
   65
 73
    2
 40
3.175
 49
0
 49
-3.175
  0
LTYPE
  2
DOTX2
 70
    0
  3
Dot (2x) .  .  .  .  .  .  .  .  .  .  .  .  .
 72
   65
 73
    2
 40
12.7
 49
0
 49
-12.7
  0
LTYPE
  2
DASHED
 70
    0
  3
Dashed _ _ _ _ _ _ _ _ _ _ _ _ _ _ _ _ _
 72
   65
 73
    2
 40
19.05
 49
12.7
 49
-6.35
  0
LTYPE
  2
DASHEDTINY
 70
    0
  3
Dashed (.15x) _ _ _ _ _ _ _ _ _ _ _ _ _ _ _ _ _
 72
   65
 73
    2
 40
2.8575
 49
1.905
 49
-0.9525
  0
LTYPE
  2
DASHED2
 70
    0
  3
Dashed (.5x) _ _ _ _ _ _ _ _ _ _ _ _ _ _ _ _ _
 72
   65
 73
    2
 40
9.524999999999999
 49
6.35
 49
-3.175
  0
LTYPE
  2
DASHEDX2
 70
    0
  3
Dashed (2x) ____  ____  ____  ____  ____  ___
 72
   65
 73
    2
 40
38.09999999999999
 49
25.4
 49
-12.7
  0
LTYPE
  2
DASHDOT
 70
    0
  3
Dash dot __ . __ . __ . __ . __ . __ . __ . __
 72
   65
 73
    4
 40
25.4
 49
12.7
 49
-6.35
 49
0
 49
-6.35
  0
LTYPE
  2
DASHDOTTINY
 70
    0
  3
Dash dot (.15x) _._._._._._._._._._._._._._._.
 72
   65
 73
    4
 40
3.81
 49
1.905
 49
-0.9525
 49
0
 49
-0.9525
  0
LTYPE
  2
DASHDOT2
 70
    0
  3
Dash dot (.5x) _._._._._._._._._._._._._._._.
 72
   65
 73
    4
 40
12.7
 49
6.35
 49
-3.175
 49
0
 49
-3.175
  0
LTYPE
  2
DASHDOTX2
 70
    0
  3
Dash dot (2x) ____  .  ____  .  ____  .  ___
 72
   65
 73
    4
 40
50.8
 49
25.4
 49
-12.7
 49
0
 49
-12.7
  0
LTYPE
  2
DIVIDE
 70
    0
  3
Divide ____ . . ____ . . ____ . . ____ . . ____
 72
   65
 73
    6
 40
31.75
 49
12.7
 49
-6.35
 49
0
 49
-6.35
 49
0
 49
-6.35
  0
LTYPE
  2
DIVIDETINY
 70
    0
  3
Divide (.15x) __..__..__..__..__..__..__..__.._
 72
   65
 73
    6
 40
4.7625
 49
1.905
 49
-0.9525
 49
0
 49
-0.9525
 49
0
 49
-0.9525
  0
LTYPE
  2
DIVIDE2
 70
    0
  3
Divide (.5x) __..__..__..__..__..__..__..__.._
 72
   65
 73
    6
 40
15.875
 49
6.35
 49
-3.175
 49
0
 49
-3.175
 49
0
 49
-3.175
  0
LTYPE
  2
DIVIDEX2
 70
    0
  3
Divide (2x) ________  .  .  ________  .  .  _
 72
   65
 73
    6
 40
63.5
 49
25.4
 49
-12.7
 49
0
 49
-12.7
 49
0
 49
-12.7
  0
LTYPE
  2
BORDER
 70
    0
  3
Border __ __ . __ __ . __ __ . __ __ . __ __ .
 72
   65
 73
    6
 40
44.45
 49
12.7
 49
-6.35
 49
12.7
 49
-6.35
 49
0
 49
-6.35
  0
LTYPE
  2
BORDERTINY
 70
    0
  3
Border (.15x) __.__.__.__.__.__.__.__.__.__.__.
 72
   65
 73
    6
 40
6.6675
 49
1.905
 49
-0.9525
 49
1.905
 49
-0.9525
 49
0
 49
-0.9525
  0
LTYPE
  2
BORDER2
 70
    0
  3
Border (.5x) __.__.__.__.__.__.__.__.__.__.__.
 72
   65
 73
    6
 40
22.225
 49
6.35
 49
-3.175
 49
6.35
 49
-3.175
 49
0
 49
-3.175
  0
LTYPE
  2
BORDERX2
 70
    0
  3
Border (2x) ____  ____  .  ____  ____  .  ___
 72
   65
 73
    6
 40
88.89999999999999
 49
25.4
 49
-12.7
 49
25.4
 49
-12.7
 49
0
 49
-12.7
  0
LTYPE
  2
CENTER
 70
    0
  3
Center ____ _ ____ _ ____ _ ____ _ ____ _ ____
 72
   65
 73
    4
 40
50.8
 49
31.75
 49
-6.35
 49
6.35
 49
-6.35
  0
LTYPE
  2
CENTERTINY
 70
    0
  3
Center (.15x) ___ _ ___ _ ___ _ ___ _ ___ _ ___
 72
   65
 73
    4
 40
7.62
 49
4.7625
 49
-0.9525
 49
0.9525
 49
-0.9525
  0
LTYPE
  2
CENTER2
 70
    0
  3
Center (.5x) ___ _ ___ _ ___ _ ___ _ ___ _ ___
 72
   65
 73
    4
 40
28.575
 49
19.05
 49
-3.175
 49
3.175
 49
-3.175
  0
LTYPE
  2
CENTERX2
 70
    0
  3
Center (2x) ________  __  ________  __  _____
 72
   65
 73
    4
 40
101.6
 49
63.5
 49
-12.7
 49
12.7
 49
-12.7
  0
ENDTAB
  0
TABLE
  2
LAYER
 70
    1
  0
LAYER
  2
0
 70
    0
 62
    7
  6
CONTINUOUS
  0
ENDTAB
  0
TABLE
  2
STYLE
 70
    3
  0
STYLE
  2
STANDARD
 70
    0
 40
0
 41
1
 50
0
 71
    0
 42
1
  3
TXT
  4

  0
ENDTAB
  0
TABLE
  2
VIEW
 70
    0
  0
ENDTAB
  0
TABLE
  2
UCS
 70
    0
  0
ENDTAB
  0
TABLE
  2
APPID
 70
    1
  0
APPID
  2
ACAD
 70
    0
  0
APPID
  2
LIBRECAD
 70
    0
  0
ENDTAB
  0
TABLE
  2
DIMSTYLE
 70
    1
  0
DIMSTYLE
  2
STANDARD
 70
    0
  3

  4

  5

  6

  7

 40
1
 41
2.5
 42
0.625
 43
0.38
 44
1.25
 45
0
 46
0
 47
0
 48
0
 49
1
140
2.5
141
0.09
142
2.5
143
25.4
144
1
145
0
146
1
147
0.625
 71
    0
 72
    0
 73
    0
 74
    1
 75
    0
 76
    0
 77
    0
 78
    1
170
    0
171
    2
172
    0
173
    0
174
    0
175
    0
176
    0
177
    0
178
    0
  0
ENDTAB
  0
ENDSEC
  0
SECTION
  2
BLOCKS
  0
BLOCK
  8
0
  2
$MODEL_SPACE
 70
    0
 10
0
 20
0
 30
0
  3
$MODEL_SPACE
  1

  0
ENDBLK
  8
0
  0
BLOCK
  8
0
  2
$PAPER_SPACE
 70
    0
 10
0
 20
0
 30
0
  3
$PAPER_SPACE
  1

  0
ENDBLK
  8
0
  0
ENDSEC
  0
SECTION
  2
ENTITIES
  0
POLYLINE
  5
31
  8
0
  6
BYLAYER
 62
    7
 66
    1
 10
0
 20
0
 30
0
 70
    0
  0
VERTEX
  5
32
  8
0
  6
BYLAYER
 62
    7
 10
15.65
 20
13.5
 30
0
  0
VERTEX
  5
33
  8
0
  6
BYLAYER
 62
    7
 10
15.64816409163841
 20
13.60864977983283
 30
0
  0
VERTEX
  5
34
  8
0
  6
BYLAYER
 62
    7
 10
15.64262364257662
 20
13.71668764969286
 30
0
  0
VERTEX
  5
35
  8
0
  6
BYLAYER
 62
    7
 10
15.63342421201034
 20
13.82403466318687
 30
0
  0
VERTEX
  5
36
  8
0
  6
BYLAYER
 62
    7
 10
15.62061135913531
 20
13.93061187392166
 30
0
  0
VERTEX
  5
37
  8
0
  6
BYLAYER
 62
    7
 10
15.60423064314726
 20
14.03634033550401
 30
0
  0
VERTEX
  5
38
  8
0
  6
BYLAYER
 62
    7
 10
15.58432762324192
 20
14.14114110154073
 30
0
  0
VERTEX
  5
39
  8
0
  6
BYLAYER
 62
    7
 10
15.56094785861502
 20
14.24493522563862
 30
0
  0
VERTEX
  5
3A
  8
0
  6
BYLAYER
 62
    7
 10
15.53413690846229
 20
14.34764376140445
 30
0
  0
VERTEX
  5
3B
  8
0
  6
BYLAYER
 62
    7
 10
15.50394033197945
 20
14.44918776244503
 30
0
  0
VERTEX
  5
3C
  8
0
  6
BYLAYER
 62
    7
 10
15.47040368836226
 20
14.54948828236716
 30
0
  0
VERTEX
  5
3D
  8
0
  6
BYLAYER
 62
    7
 10
15.43357253680642
 20
14.64846637477762
 30
0
  0
VERTEX
  5
3E
  8
0
  6
BYLAYER
 62
    7
 10
15.39349243650767
 20
14.74604309328321
 30
0
  0
VERTEX
  5
3F
  8
0
  6
BYLAYER
 62
    7
 10
15.35020894666174
 20
14.84213949149072
 30
0
  0
VERTEX
  5
40
  8
0
  6
BYLAYER
 62
    7
 10
15.30376762646437
 20
14.93667662300695
 30
0
  0
VERTEX
  5
41
  8
0
  6
BYLAYER
 62
    7
 10
15.25421403511128
 20
15.02957554143869
 30
0
  0
VERTEX
  5
42
  8
0
  6
BYLAYER
 62
    7
 10
15.20159373179819
 20
15.12075730039273
 30
0
  0
VERTEX
  5
43
  8
0
  6
BYLAYER
 62
    7
 10
15.14595227572086
 20
15.21014295347588
 30
0
  0
VERTEX
  5
44
  8
0
  6
BYLAYER
 62
    7
 10
15.08733522607499
 20
15.29765355429492
 30
0
  0
VERTEX
  5
45
  8
0
  6
BYLAYER
 62
    7
 10
15.02578814205633
 20
15.38321015645665
 30
0
  0
VERTEX
  5
46
  8
0
  6
BYLAYER
 62
    7
 10
14.9613565828606
 20
15.46673381356786
 30
0
  0
VERTEX
  5
47
  8
0
  6
BYLAYER
 62
    7
 10
14.89408610768353
 20
15.54814557923534
 30
0
  0
VERTEX
  5
48
  8
0
  6
BYLAYER
 62
    7
 10
14.82402227572086
 20
15.62736650706589
 30
0
  0
VERTEX
  5
49
  8
0
  6
BYLAYER
 62
    7
 10
14.75121064616831
 20
15.70431765066631
 30
0
  0
VERTEX
  5
4A
  8
0
  6
BYLAYER
 62
    7
 10
14.67569677822161
 20
15.77892006364338
 30
0
  0
VERTEX
  5
4B
  8
0
  6
BYLAYER
 62
    7
 10
14.5975262310765
 20
15.85109479960391
 30
0
  0
VERTEX
  5
4C
  8
0
  6
BYLAYER
 62
    7
 10
14.5167445639287
 20
15.92076291215468
 30
0
  0
VERTEX
  5
4D
  8
0
  6
BYLAYER
 62
    7
 10
14.43339733597395
 20
15.98784545490249
 30
0
  0
VERTEX
  5
4E
  8
0
  6
BYLAYER
 62
    7
 10
14.34753010640798
 20
16.05226348145413
 30
0
  0
VERTEX
  5
4F
  8
0
  6
BYLAYER
 62
    7
 10
14.25918843442651
 20
16.1139380454164
 30
0
  0
VERTEX
  5
50
  8
0
  6
BYLAYER
 62
    7
 10
14.16841787922527
 20
16.17279020039609
 30
0
  0
VERTEX
  5
51
  8
0
  6
BYLAYER
 62
    7
 10
14.075264
 20
16.228741
 30
0
  0
SEQEND
  5
52
  8
0
  6
BYLAYER
 62
    7
  0
POLYLINE
  5
53
  8
0
  6
BYLAYER
 62
    7
 66
    1
 10
0
 20
0
 30
0
 70
    0
  0
VERTEX
  5
54
  8
0
  6
BYLAYER
 62
    7
 10
14.075264
 20
16.228741
 30
0
  0
VERTEX
  5
55
  8
0
  6
BYLAYER
 62
    7
 10
13.98024233815582
 20
16.28145758688865
 30
0
  0
VERTEX
  5
56
  8
0
  6
BYLAYER
 62
    7
 10
13.8838990215837
 20
16.33065973465141
 30
0
  0
VERTEX
  5
57
  8
0
  6
BYLAYER
 62
    7
 10
13.78632519888557
 20
16.37634744328824
 30
0
  0
VERTEX
  5
58
  8
0
  6
BYLAYER
 62
    7
 10
13.68761201866336
 20
16.41852071279917
 30
0
  0
VERTEX
  5
59
  8
0
  6
BYLAYER
 62
    7
 10
13.58785062951898
 20
16.45717954318418
 30
0
  0
VERTEX
  5
5A
  8
0
  6
BYLAYER
 62
    7
 10
13.48713218005438
 20
16.49232393444329
 30
0
  0
VERTEX
  5
5B
  8
0
  6
BYLAYER
 62
    7
 10
13.38554781887147
 20
16.52395388657648
 30
0
  0
VERTEX
  5
5C
  8
0
  6
BYLAYER
 62
    7
 10
13.28318869457219
 20
16.55206939958376
 30
0
  0
VERTEX
  5
5D
  8
0
  6
BYLAYER
 62
    7
 10
13.18014595575845
 20
16.57667047346514
 30
0
  0
VERTEX
  5
5E
  8
0
  6
BYLAYER
 62
    7
 10
13.07651075103219
 20
16.59775710822061
 30
0
  0
VERTEX
  5
5F
  8
0
  6
BYLAYER
 62
    7
 10
12.97237422899533
 20
16.61532930385016
 30
0
  0
VERTEX
  5
60
  8
0
  6
BYLAYER
 62
    7
 10
12.86782753824981
 20
16.6293870603538
 30
0
  0
VERTEX
  5
61
  8
0
  6
BYLAYER
 62
    7
 10
12.76296182739754
 20
16.63993037773153
 30
0
  0
VERTEX
  5
62
  8
0
  6
BYLAYER
 62
    7
 10
12.65786824504045
 20
16.64695925598335
 30
0
  0
VERTEX
  5
63
  8
0
  6
BYLAYER
 62
    7
 10
12.55263793978047
 20
16.65047369510926
 30
0
  0
VERTEX
  5
64
  8
0
  6
BYLAYER
 62
    7
 10
12.44736206021953
 20
16.65047369510926
 30
0
  0
VERTEX
  5
65
  8
0
  6
BYLAYER
 62
    7
 10
12.34213175495955
 20
16.64695925598335
 30
0
  0
VERTEX
  5
66
  8
0
  6
BYLAYER
 62
    7
 10
12.23703817260247
 20
16.63993037773153
 30
0
  0
VERTEX
  5
67
  8
0
  6
BYLAYER
 62
    7
 10
12.13217246175019
 20
16.6293870603538
 30
0
  0
VERTEX
  5
68
  8
0
  6
BYLAYER
 62
    7
 10
12.02762577100467
 20
16.61532930385016
 30
0
  0
VERTEX
  5
69
  8
0
  6
BYLAYER
 62
    7
 10
11.92348924896781
 20
16.59775710822061
 30
0
  0
VERTEX
  5
6A
  8
0
  6
BYLAYER
 62
    7
 10
11.81985404424155
 20
16.57667047346514
 30
0
  0
VERTEX
  5
6B
  8
0
  6
BYLAYER
 62
    7
 10
11.71681130542781
 20
16.55206939958377
 30
0
  0
VERTEX
  5
6C
  8
0
  6
BYLAYER
 62
    7
 10
11.61445218112853
 20
16.52395388657649
 30
0
  0
VERTEX
  5
6D
  8
0
  6
BYLAYER
 62
    7
 10
11.51286781994562
 20
16.49232393444329
 30
0
  0
VERTEX
  5
6E
  8
0
  6
BYLAYER
 62
    7
 10
11.41214937048102
 20
16.45717954318418
 30
0
  0
VERTEX
  5
6F
  8
0
  6
BYLAYER
 62
    7
 10
11.31238798133665
 20
16.41852071279917
 30
0
  0
VERTEX
  5
70
  8
0
  6
BYLAYER
 62
    7
 10
11.21367480111443
 20
16.37634744328824
 30
0
  0
VERTEX
  5
71
  8
0
  6
BYLAYER
 62
    7
 10
11.1161009784163
 20
16.33065973465141
 30
0
  0
VERTEX
  5
72
  8
0
  6
BYLAYER
 62
    7
 10
11.01975766184418
 20
16.28145758688866
 30
0
  0
VERTEX
  5
73
  8
0
  6
BYLAYER
 62
    7
 10
10.924736
 20
16.228741
 30
0
  0
SEQEND
  5
74
  8
0
  6
BYLAYER
 62
    7
  0
POLYLINE
  5
75
  8
0
  6
BYLAYER
 62
    7
 66
    1
 10
0
 20
0
 30
0
 70
    0
  0
VERTEX
  5
76
  8
0
  6
BYLAYER
 62
    7
 10
10.924736
 20
16.228741
 30
0
  0
VERTEX
  5
77
  8
0
  6
BYLAYER
 62
    7
 10
10.83158212077473
 20
16.17279020039609
 30
0
  0
VERTEX
  5
78
  8
0
  6
BYLAYER
 62
    7
 10
10.7408115655735
 20
16.1139380454164
 30
0
  0
VERTEX
  5
79
  8
0
  6
BYLAYER
 62
    7
 10
10.65246989359202
 20
16.05226348145413
 30
0
  0
VERTEX
  5
7A
  8
0
  6
BYLAYER
 62
    7
 10
10.56660266402605
 20
15.98784545490249
 30
0
  0
VERTEX
  5
7B
  8
0
  6
BYLAYER
 62
    7
 10
10.4832554360713
 20
15.92076291215468
 30
0
  0
VERTEX
  5
7C
  8
0
  6
BYLAYER
 62
    7
 10
10.4024737689235
 20
15.85109479960391
 30
0
  0
VERTEX
  5
7D
  8
0
  6
BYLAYER
 62
    7
 10
10.32430322177839
 20
15.77892006364338
 30
0
  0
VERTEX
  5
7E
  8
0
  6
BYLAYER
 62
    7
 10
10.24878935383169
 20
15.70431765066631
 30
0
  0
VERTEX
  5
7F
  8
0
  6
BYLAYER
 62
    7
 10
10.17597772427914
 20
15.62736650706589
 30
0
  0
VERTEX
  5
80
  8
0
  6
BYLAYER
 62
    7
 10
10.10591389231647
 20
15.54814557923534
 30
0
  0
VERTEX
  5
81
  8
0
  6
BYLAYER
 62
    7
 10
10.0386434171394
 20
15.46673381356785
 30
0
  0
VERTEX
  5
82
  8
0
  6
BYLAYER
 62
    7
 10
9.974211857943674
 20
15.38321015645665
 30
0
  0
VERTEX
  5
83
  8
0
  6
BYLAYER
 62
    7
 10
9.912664773925011
 20
15.29765355429492
 30
0
  0
VERTEX
  5
84
  8
0
  6
BYLAYER
 62
    7
 10
9.854047724279145
 20
15.21014295347588
 30
0
  0
VERTEX
  5
85
  8
0
  6
BYLAYER
 62
    7
 10
9.798406268201806
 20
15.12075730039274
 30
0
  0
VERTEX
  5
86
  8
0
  6
BYLAYER
 62
    7
 10
9.745785964888725
 20
15.02957554143869
 30
0
  0
VERTEX
  5
87
  8
0
  6
BYLAYER
 62
    7
 10
9.696232373535631
 20
14.93667662300695
 30
0
  0
VERTEX
  5
88
  8
0
  6
BYLAYER
 62
    7
 10
9.649791053338257
 20
14.84213949149072
 30
0
  0
VERTEX
  5
89
  8
0
  6
BYLAYER
 62
    7
 10
9.606507563492331
 20
14.74604309328321
 30
0
  0
VERTEX
  5
8A
  8
0
  6
BYLAYER
 62
    7
 10
9.566427463193584
 20
14.64846637477762
 30
0
  0
VERTEX
  5
8B
  8
0
  6
BYLAYER
 62
    7
 10
9.529596311637743
 20
14.54948828236716
 30
0
  0
VERTEX
  5
8C
  8
0
  6
BYLAYER
 62
    7
 10
9.496059668020544
 20
14.44918776244504
 30
0
  0
VERTEX
  5
8D
  8
0
  6
BYLAYER
 62
    7
 10
9.465863091537713
 20
14.34764376140445
 30
0
  0
VERTEX
  5
8E
  8
0
  6
BYLAYER
 62
    7
 10
9.439052141384984
 20
14.24493522563862
 30
0
  0
VERTEX
  5
8F
  8
0
  6
BYLAYER
 62
    7
 10
9.415672376758081
 20
14.14114110154073
 30
0
  0
VERTEX
  5
90
  8
0
  6
BYLAYER
 62
    7
 10
9.395769356852741
 20
14.03634033550401
 30
0
  0
VERTEX
  5
91
  8
0
  6
BYLAYER
 62
    7
 10
9.379388640864692
 20
13.93061187392166
 30
0
  0
VERTEX
  5
92
  8
0
  6
BYLAYER
 62
    7
 10
9.36657578798966
 20
13.82403466318687
 30
0
  0
VERTEX
  5
93
  8
0
  6
BYLAYER
 62
    7
 10
9.357376357423382
 20
13.71668764969286
 30
0
  0
VERTEX
  5
94
  8
0
  6
BYLAYER
 62
    7
 10
9.351835908361586
 20
13.60864977983284
 30
0
  0
VERTEX
  5
95
  8
0
  6
BYLAYER
 62
    7
 10
9.35
 20
13.5
 30
0
  0
SEQEND
  5
96
  8
0
  6
BYLAYER
 62
    7
  0
POLYLINE
  5
97
  8
0
  6
BYLAYER
 62
    7
 66
    1
 10
0
 20
0
 30
0
 70
    0
  0
VERTEX
  5
98
  8
0
  6
BYLAYER
 62
    7
 10
9.35
 20
13.5
 30
0
  0
VERTEX
  5
99
  8
0
  6
BYLAYER
 62
    7
 10
9.351835908361585
 20
13.39135022016717
 30
0
  0
VERTEX
  5
9A
  8
0
  6
BYLAYER
 62
    7
 10
9.357376357423382
 20
13.28331235030714
 30
0
  0
VERTEX
  5
9B
  8
0
  6
BYLAYER
 62
    7
 10
9.366575787989662
 20
13.17596533681313
 30
0
  0
VERTEX
  5
9C
  8
0
  6
BYLAYER
 62
    7
 10
9.379388640864692
 20
13.06938812607835
 30
0
  0
VERTEX
  5
9D
  8
0
  6
BYLAYER
 62
    7
 10
9.395769356852741
 20
12.96365966449599
 30
0
  0
VERTEX
  5
9E
  8
0
  6
BYLAYER
 62
    7
 10
9.415672376758083
 20
12.85885889845927
 30
0
  0
VERTEX
  5
9F
  8
0
  6
BYLAYER
 62
    7
 10
9.439052141384982
 20
12.75506477436139
 30
0
  0
VERTEX
  5
A0
  8
0
  6
BYLAYER
 62
    7
 10
9.465863091537713
 20
12.65235623859555
 30
0
  0
VERTEX
  5
A1
  8
0
  6
BYLAYER
 62
    7
 10
9.496059668020543
 20
12.55081223755497
 30
0
  0
VERTEX
  5
A2
  8
0
  6
BYLAYER
 62
    7
 10
9.529596311637743
 20
12.45051171763284
 30
0
  0
VERTEX
  5
A3
  8
0
  6
BYLAYER
 62
    7
 10
9.566427463193582
 20
12.35153362522238
 30
0
  0
VERTEX
  5
A4
  8
0
  6
BYLAYER
 62
    7
 10
9.606507563492331
 20
12.2539569067168
 30
0
  0
VERTEX
  5
A5
  8
0
  6
BYLAYER
 62
    7
 10
9.649791053338257
 20
12.15786050850928
 30
0
  0
VERTEX
  5
A6
  8
0
  6
BYLAYER
 62
    7
 10
9.696232373535633
 20
12.06332337699305
 30
0
  0
VERTEX
  5
A7
  8
0
  6
BYLAYER
 62
    7
 10
9.745785964888725
 20
11.97042445856131
 30
0
  0
VERTEX
  5
A8
  8
0
  6
BYLAYER
 62
    7
 10
9.798406268201806
 20
11.87924269960726
 30
0
  0
VERTEX
  5
A9
  8
0
  6
BYLAYER
 62
    7
 10
9.854047724279143
 20
11.78985704652412
 30
0
  0
VERTEX
  5
AA
  8
0
  6
BYLAYER
 62
    7
 10
9.912664773925011
 20
11.70234644570508
 30
0
  0
VERTEX
  5
AB
  8
0
  6
BYLAYER
 62
    7
 10
9.974211857943676
 20
11.61678984354335
 30
0
  0
VERTEX
  5
AC
  8
0
  6
BYLAYER
 62
    7
 10
10.0386434171394
 20
11.53326618643214
 30
0
  0
VERTEX
  5
AD
  8
0
  6
BYLAYER
 62
    7
 10
10.10591389231647
 20
11.45185442076466
 30
0
  0
VERTEX
  5
AE
  8
0
  6
BYLAYER
 62
    7
 10
10.17597772427914
 20
11.37263349293411
 30
0
  0
VERTEX
  5
AF
  8
0
  6
BYLAYER
 62
    7
 10
10.24878935383169
 20
11.29568234933369
 30
0
  0
VERTEX
  5
B0
  8
0
  6
BYLAYER
 62
    7
 10
10.32430322177839
 20
11.22107993635662
 30
0
  0
VERTEX
  5
B1
  8
0
  6
BYLAYER
 62
    7
 10
10.4024737689235
 20
11.14890520039609
 30
0
  0
VERTEX
  5
B2
  8
0
  6
BYLAYER
 62
    7
 10
10.48325543607129
 20
11.07923708784532
 30
0
  0
VERTEX
  5
B3
  8
0
  6
BYLAYER
 62
    7
 10
10.56660266402605
 20
11.01215454509751
 30
0
  0
VERTEX
  5
B4
  8
0
  6
BYLAYER
 62
    7
 10
10.65246989359202
 20
10.94773651854587
 30
0
  0
VERTEX
  5
B5
  8
0
  6
BYLAYER
 62
    7
 10
10.74081156557349
 20
10.8860619545836
 30
0
  0
VERTEX
  5
B6
  8
0
  6
BYLAYER
 62
    7
 10
10.83158212077473
 20
10.82720979960391
 30
0
  0
VERTEX
  5
B7
  8
0
  6
BYLAYER
 62
    7
 10
10.924736
 20
10.771259
 30
0
  0
SEQEND
  5
B8
  8
0
  6
BYLAYER
 62
    7
  0
POLYLINE
  5
B9
  8
0
  6
BYLAYER
 62
    7
 66
    1
 10
0
 20
0
 30
0
 70
    0
  0
VERTEX
  5
BA
  8
0
  6
BYLAYER
 62
    7
 10
10.924736
 20
10.771259
 30
0
  0
VERTEX
  5
BB
  8
0
  6
BYLAYER
 62
    7
 10
11.01975766184418
 20
10.71854241311134
 30
0
  0
VERTEX
  5
BC
  8
0
  6
BYLAYER
 62
    7
 10
11.1161009784163
 20
10.6693402653486
 30
0
  0
VERTEX
  5
BD
  8
0
  6
BYLAYER
 62
    7
 10
11.21367480111443
 20
10.62365255671176
 30
0
  0
VERTEX
  5
BE
  8
0
  6
BYLAYER
 62
    7
 10
11.31238798133665
 20
10.58147928720083
 30
0
  0
VERTEX
  5
BF
  8
0
  6
BYLAYER
 62
    7
 10
11.41214937048102
 20
10.54282045681582
 30
0
  0
VERTEX
  5
C0
  8
0
  6
BYLAYER
 62
    7
 10
11.51286781994562
 20
10.50767606555671
 30
0
  0
VERTEX
  5
C1
  8
0
  6
BYLAYER
 62
    7
 10
11.61445218112853
 20
10.47604611342352
 30
0
  0
VERTEX
  5
C2
  8
0
  6
BYLAYER
 62
    7
 10
11.71681130542781
 20
10.44793060041623
 30
0
  0
VERTEX
  5
C3
  8
0
  6
BYLAYER
 62
    7
 10
11.81985404424155
 20
10.42332952653486
 30
0
  0
VERTEX
  5
C4
  8
0
  6
BYLAYER
 62
    7
 10
11.92348924896781
 20
10.4022428917794
 30
0
  0
VERTEX
  5
C5
  8
0
  6
BYLAYER
 62
    7
 10
12.02762577100467
 20
10.38467069614985
 30
0
  0
VERTEX
  5
C6
  8
0
  6
BYLAYER
 62
    7
 10
12.13217246175019
 20
10.3706129396462
 30
0
  0
VERTEX
  5
C7
  8
0
  6
BYLAYER
 62
    7
 10
12.23703817260246
 20
10.36006962226847
 30
0
  0
VERTEX
  5
C8
  8
0
  6
BYLAYER
 62
    7
 10
12.34213175495955
 20
10.35304074401665
 30
0
  0
VERTEX
  5
C9
  8
0
  6
BYLAYER
 62
    7
 10
12.44736206021953
 20
10.34952630489074
 30
0
  0
VERTEX
  5
CA
  8
0
  6
BYLAYER
 62
    7
 10
12.55263793978047
 20
10.34952630489074
 30
0
  0
VERTEX
  5
CB
  8
0
  6
BYLAYER
 62
    7
 10
12.65786824504045
 20
10.35304074401665
 30
0
  0
VERTEX
  5
CC
  8
0
  6
BYLAYER
 62
    7
 10
12.76296182739754
 20
10.36006962226847
 30
0
  0
VERTEX
  5
CD
  8
0
  6
BYLAYER
 62
    7
 10
12.86782753824981
 20
10.3706129396462
 30
0
  0
VERTEX
  5
CE
  8
0
  6
BYLAYER
 62
    7
 10
12.97237422899533
 20
10.38467069614984
 30
0
  0
VERTEX
  5
CF
  8
0
  6
BYLAYER
 62
    7
 10
13.07651075103219
 20
10.4022428917794
 30
0
  0
VERTEX
  5
D0
  8
0
  6
BYLAYER
 62
    7
 10
13.18014595575845
 20
10.42332952653486
 30
0
  0
VERTEX
  5
D1
  8
0
  6
BYLAYER
 62
    7
 10
13.28318869457219
 20
10.44793060041623
 30
0
  0
VERTEX
  5
D2
  8
0
  6
BYLAYER
 62
    7
 10
13.38554781887147
 20
10.47604611342352
 30
0
  0
VERTEX
  5
D3
  8
0
  6
BYLAYER
 62
    7
 10
13.48713218005438
 20
10.50767606555671
 30
0
  0
VERTEX
  5
D4
  8
0
  6
BYLAYER
 62
    7
 10
13.58785062951898
 20
10.54282045681582
 30
0
  0
VERTEX
  5
D5
  8
0
  6
BYLAYER
 62
    7
 10
13.68761201866335
 20
10.58147928720083
 30
0
  0
VERTEX
  5
D6
  8
0
  6
BYLAYER
 62
    7
 10
13.78632519888557
 20
10.62365255671176
 30
0
  0
VERTEX
  5
D7
  8
0
  6
BYLAYER
 62
    7
 10
13.8838990215837
 20
10.66934026534859
 30
0
  0
VERTEX
  5
D8
  8
0
  6
BYLAYER
 62
    7
 10
13.98024233815582
 20
10.71854241311134
 30
0
  0
VERTEX
  5
D9
  8
0
  6
BYLAYER
 62
    7
 10
14.075264
 20
10.771259
 30
0
  0
SEQEND
  5
DA
  8
0
  6
BYLAYER
 62
    7
  0
POLYLINE
  5
DB
  8
0
  6
BYLAYER
 62
    7
 66
    1
 10
0
 20
0
 30
0
 70
    0
  0
VERTEX
  5
DC
  8
0
  6
BYLAYER
 62
    7
 10
14.075264
 20
10.771259
 30
0
  0
VERTEX
  5
DD
  8
0
  6
BYLAYER
 62
    7
 10
14.16841787922527
 20
10.82720979960391
 30
0
  0
VERTEX
  5
DE
  8
0
  6
BYLAYER
 62
    7
 10
14.25918843442651
 20
10.8860619545836
 30
0
  0
VERTEX
  5
DF
  8
0
  6
BYLAYER
 62
    7
 10
14.34753010640798
 20
10.94773651854587
 30
0
  0
VERTEX
  5
E0
  8
0
  6
BYLAYER
 62
    7
 10
14.43339733597395
 20
11.01215454509751
 30
0
  0
VERTEX
  5
E1
  8
0
  6
BYLAYER
 62
    7
 10
14.5167445639287
 20
11.07923708784532
 30
0
  0
VERTEX
  5
E2
  8
0
  6
BYLAYER
 62
    7
 10
14.5975262310765
 20
11.1489052003961
 30
0
  0
VERTEX
  5
E3
  8
0
  6
BYLAYER
 62
    7
 10
14.67569677822161
 20
11.22107993635662
 30
0
  0
VERTEX
  5
E4
  8
0
  6
BYLAYER
 62
    7
 10
14.75121064616831
 20
11.29568234933369
 30
0
  0
VERTEX
  5
E5
  8
0
  6
BYLAYER
 62
    7
 10
14.82402227572085
 20
11.37263349293411
 30
0
  0
VERTEX
  5
E6
  8
0
  6
BYLAYER
 62
    7
 10
14.89408610768353
 20
11.45185442076466
 30
0
  0
VERTEX
  5
E7
  8
0
  6
BYLAYER
 62
    7
 10
14.96135658286059
 20
11.53326618643214
 30
0
  0
VERTEX
  5
E8
  8
0
  6
BYLAYER
 62
    7
 10
15.02578814205633
 20
11.61678984354335
 30
0
  0
VERTEX
  5
E9
  8
0
  6
BYLAYER
 62
    7
 10
15.08733522607499
 20
11.70234644570508
 30
0
  0
VERTEX
  5
EA
  8
0
  6
BYLAYER
 62
    7
 10
15.14595227572086
 20
11.78985704652412
 30
0
  0
VERTEX
  5
EB
  8
0
  6
BYLAYER
 62
    7
 10
15.20159373179819
 20
11.87924269960726
 30
0
  0
VERTEX
  5
EC
  8
0
  6
BYLAYER
 62
    7
 10
15.25421403511127
 20
11.97042445856131
 30
0
  0
VERTEX
  5
ED
  8
0
  6
BYLAYER
 62
    7
 10
15.30376762646437
 20
12.06332337699305
 30
0
  0
VERTEX
  5
EE
  8
0
  6
BYLAYER
 62
    7
 10
15.35020894666174
 20
12.15786050850928
 30
0
  0
VERTEX
  5
EF
  8
0
  6
BYLAYER
 62
    7
 10
15.39349243650767
 20
12.25395690671679
 30
0
  0
VERTEX
  5
F0
  8
0
  6
BYLAYER
 62
    7
 10
15.43357253680642
 20
12.35153362522238
 30
0
  0
VERTEX
  5
F1
  8
0
  6
BYLAYER
 62
    7
 10
15.47040368836226
 20
12.45051171763284
 30
0
  0
VERTEX
  5
F2
  8
0
  6
BYLAYER
 62
    7
 10
15.50394033197946
 20
12.55081223755497
 30
0
  0
VERTEX
  5
F3
  8
0
  6
BYLAYER
 62
    7
 10
15.53413690846229
 20
12.65235623859555
 30
0
  0
VERTEX
  5
F4
  8
0
  6
BYLAYER
 62
    7
 10
15.56094785861502
 20
12.75506477436138
 30
0
  0
VERTEX
  5
F5
  8
0
  6
BYLAYER
 62
    7
 10
15.58432762324192
 20
12.85885889845926
 30
0
  0
VERTEX
  5
F6
  8
0
  6
BYLAYER
 62
    7
 10
15.60423064314726
 20
12.96365966449599
 30
0
  0
VERTEX
  5
F7
  8
0
  6
BYLAYER
 62
    7
 10
15.62061135913531
 20
13.06938812607835
 30
0
  0
VERTEX
  5
F8
  8
0
  6
BYLAYER
 62
    7
 10
15.63342421201034
 20
13.17596533681313
 30
0
  0
VERTEX
  5
F9
  8
0
  6
BYLAYER
 62
    7
 10
15.64262364257662
 20
13.28331235030714
 30
0
  0
VERTEX
  5
FA
  8
0
  6
BYLAYER
 62
    7
 10
15.64816409163841
 20
13.39135022016716
 30
0
  0
VERTEX
  5
FB
  8
0
  6
BYLAYER
 62
    7
 10
15.65
 20
13.5
 30
0
  0
SEQEND
  5
FC
  8
0
  6
BYLAYER
 62
    7
  0
POLYLINE
  5
FD
  8
0
  6
BYLAYER
 62
    7
 66
    1
 10
0
 20
0
 30
0
 70
    0
  0
VERTEX
  5
FE
  8
0
  6
BYLAYER
 62
    7
 10
3.15
 20
-20.199989
 30
0
  0
VERTEX
  5
FF
  8
0
  6
BYLAYER
 62
    7
 10
3.145633672250008
 20
-20.03269661884462
 30
0
  0
VERTEX
  5
100
  8
0
  6
BYLAYER
 62
    7
 10
3.132679821288309
 20
-19.86767841693801
 30
0
  0
VERTEX
  5
101
  8
0
  6
BYLAYER
 62
    7
 10
3.111356145547313
 20
-19.70515209694203
 30
0
  0
VERTEX
  5
102
  8
0
  6
BYLAYER
 62
    7
 10
3.081880343459434
 20
-19.54533536151858
 30
0
  0
VERTEX
  5
103
  8
0
  6
BYLAYER
 62
    7
 10
3.044470113457084
 20
-19.38844591332953
 30
0
  0
VERTEX
  5
104
  8
0
  6
BYLAYER
 62
    7
 10
2.999343153972676
 20
-19.23470145503676
 30
0
  0
VERTEX
  5
105
  8
0
  6
BYLAYER
 62
    7
 10
2.946717163438623
 20
-19.08431968930214
 30
0
  0
VERTEX
  5
106
  8
0
  6
BYLAYER
 62
    7
 10
2.886809840287335
 20
-18.93751831878755
 30
0
  0
VERTEX
  5
107
  8
0
  6
BYLAYER
 62
    7
 10
2.819838882951227
 20
-18.79451504615488
 30
0
  0
VERTEX
  5
108
  8
0
  6
BYLAYER
 62
    7
 10
2.74602198986271
 20
-18.655527574066
 30
0
  0
VERTEX
  5
109
  8
0
  6
BYLAYER
 62
    7
 10
2.665576859454197
 20
-18.52077360518278
 30
0
  0
VERTEX
  5
10A
  8
0
  6
BYLAYER
 62
    7
 10
2.578721190158102
 20
-18.3904708421671
 30
0
  0
VERTEX
  5
10B
  8
0
  6
BYLAYER
 62
    7
 10
2.485672680406835
 20
-18.26483698768084
 30
0
  0
VERTEX
  5
10C
  8
0
  6
BYLAYER
 62
    7
 10
2.386649028632809
 20
-18.14408974438589
 30
0
  0
VERTEX
  5
10D
  8
0
  6
BYLAYER
 62
    7
 10
2.281867933268438
 20
-18.02844681494411
 30
0
  0
VERTEX
  5
10E
  8
0
  6
BYLAYER
 62
    7
 10
2.171547092746132
 20
-17.91812590201739
 30
0
  0
VERTEX
  5
10F
  8
0
  6
BYLAYER
 62
    7
 10
2.055904205498306
 20
-17.8133447082676
 30
0
  0
VERTEX
  5
110
  8
0
  6
BYLAYER
 62
    7
 10
1.935156969957371
 20
-17.71432093635662
 30
0
  0
VERTEX
  5
111
  8
0
  6
BYLAYER
 62
    7
 10
1.80952308455574
 20
-17.62127228894633
 30
0
  0
VERTEX
  5
112
  8
0
  6
BYLAYER
 62
    7
 10
1.679220247725825
 20
-17.5344164686986
 30
0
  0
VERTEX
  5
113
  8
0
  6
BYLAYER
 62
    7
 10
1.544466157900038
 20
-17.45397117827532
 30
0
  0
VERTEX
  5
114
  8
0
  6
BYLAYER
 62
    7
 10
1.405478513510794
 20
-17.38015412033836
 30
0
  0
VERTEX
  5
115
  8
0
  6
BYLAYER
 62
    7
 10
1.262475012990502
 20
-17.3131829975496
 30
0
  0
VERTEX
  5
116
  8
0
  6
BYLAYER
 62
    7
 10
1.115673354771577
 20
-17.25327551257091
 30
0
  0
VERTEX
  5
117
  8
0
  6
BYLAYER
 62
    7
 10
0.9652912372864311
 20
-17.20064936806418
 30
0
  0
VERTEX
  5
118
  8
0
  6
BYLAYER
 62
    7
 10
0.811546358967476
 20
-17.15552226669128
 30
0
  0
VERTEX
  5
119
  8
0
  6
BYLAYER
 62
    7
 10
0.6546564182471243
 20
-17.1181119111141
 30
0
  0
VERTEX
  5
11A
  8
0
  6
BYLAYER
 62
    7
 10
0.4948391135577888
 20
-17.08863600399449
 30
0
  0
VERTEX
  5
11B
  8
0
  6
BYLAYER
 62
    7
 10
0.3323121433318818
 20
-17.06731224799436
 30
0
  0
VERTEX
  5
11C
  8
0
  6
BYLAYER
 62
    7
 10
0.1672932060018159
 20
-17.05435834577557
 30
0
  0
VERTEX
  5
11D
  8
0
  6
BYLAYER
 62
    7
 10
0
 20
-17.049992
 30
0
  0
SEQEND
  5
11E
  8
0
  6
BYLAYER
 62
    7
  0
POLYLINE
  5
11F
  8
0
  6
BYLAYER
 62
    7
 66
    1
 10
0
 20
0
 30
0
 70
    0
  0
VERTEX
  5
120
  8
0
  6
BYLAYER
 62
    7
 10
0
 20
-17.049992
 30
0
  0
VERTEX
  5
121
  8
0
  6
BYLAYER
 62
    7
 10
-0.1672932060018126
 20
-17.05435834577557
 30
0
  0
VERTEX
  5
122
  8
0
  6
BYLAYER
 62
    7
 10
-0.3323121433318788
 20
-17.06731224799436
 30
0
  0
VERTEX
  5
123
  8
0
  6
BYLAYER
 62
    7
 10
-0.4948391135577859
 20
-17.08863600399449
 30
0
  0
VERTEX
  5
124
  8
0
  6
BYLAYER
 62
    7
 10
-0.6546564182471216
 20
-17.1181119111141
 30
0
  0
VERTEX
  5
125
  8
0
  6
BYLAYER
 62
    7
 10
-0.8115463589674733
 20
-17.15552226669128
 30
0
  0
VERTEX
  5
126
  8
0
  6
BYLAYER
 62
    7
 10
-0.965291237286429
 20
-17.20064936806418
 30
0
  0
VERTEX
  5
127
  8
0
  6
BYLAYER
 62
    7
 10
-1.115673354771575
 20
-17.25327551257091
 30
0
  0
VERTEX
  5
128
  8
0
  6
BYLAYER
 62
    7
 10
-1.2624750129905
 20
-17.3131829975496
 30
0
  0
VERTEX
  5
129
  8
0
  6
BYLAYER
 62
    7
 10
-1.405478513510791
 20
-17.38015412033836
 30
0
  0
VERTEX
  5
12A
  8
0
  6
BYLAYER
 62
    7
 10
-1.544466157900037
 20
-17.45397117827532
 30
0
  0
VERTEX
  5
12B
  8
0
  6
BYLAYER
 62
    7
 10
-1.679220247725823
 20
-17.5344164686986
 30
0
  0
VERTEX
  5
12C
  8
0
  6
BYLAYER
 62
    7
 10
-1.809523084555738
 20
-17.62127228894633
 30
0
  0
VERTEX
  5
12D
  8
0
  6
BYLAYER
 62
    7
 10
-1.935156969957369
 20
-17.71432093635662
 30
0
  0
VERTEX
  5
12E
  8
0
  6
BYLAYER
 62
    7
 10
-2.055904205498304
 20
-17.8133447082676
 30
0
  0
VERTEX
  5
12F
  8
0
  6
BYLAYER
 62
    7
 10
-2.171547092746131
 20
-17.91812590201739
 30
0
  0
VERTEX
  5
130
  8
0
  6
BYLAYER
 62
    7
 10
-2.281867933268436
 20
-18.02844681494411
 30
0
  0
VERTEX
  5
131
  8
0
  6
BYLAYER
 62
    7
 10
-2.386649028632807
 20
-18.14408974438589
 30
0
  0
VERTEX
  5
132
  8
0
  6
BYLAYER
 62
    7
 10
-2.485672680406834
 20
-18.26483698768084
 30
0
  0
VERTEX
  5
133
  8
0
  6
BYLAYER
 62
    7
 10
-2.578721190158101
 20
-18.3904708421671
 30
0
  0
VERTEX
  5
134
  8
0
  6
BYLAYER
 62
    7
 10
-2.665576859454196
 20
-18.52077360518277
 30
0
  0
VERTEX
  5
135
  8
0
  6
BYLAYER
 62
    7
 10
-2.746021989862709
 20
-18.65552757406599
 30
0
  0
VERTEX
  5
136
  8
0
  6
BYLAYER
 62
    7
 10
-2.819838882951226
 20
-18.79451504615488
 30
0
  0
VERTEX
  5
137
  8
0
  6
BYLAYER
 62
    7
 10
-2.886809840287334
 20
-18.93751831878755
 30
0
  0
VERTEX
  5
138
  8
0
  6
BYLAYER
 62
    7
 10
-2.946717163438621
 20
-19.08431968930213
 30
0
  0
VERTEX
  5
139
  8
0
  6
BYLAYER
 62
    7
 10
-2.999343153972676
 20
-19.23470145503676
 30
0
  0
VERTEX
  5
13A
  8
0
  6
BYLAYER
 62
    7
 10
-3.044470113457083
 20
-19.38844591332953
 30
0
  0
VERTEX
  5
13B
  8
0
  6
BYLAYER
 62
    7
 10
-3.081880343459433
 20
-19.54533536151858
 30
0
  0
VERTEX
  5
13C
  8
0
  6
BYLAYER
 62
    7
 10
-3.111356145547313
 20
-19.70515209694203
 30
0
  0
VERTEX
  5
13D
  8
0
  6
BYLAYER
 62
    7
 10
-3.132679821288308
 20
-19.867678416938
 30
0
  0
VERTEX
  5
13E
  8
0
  6
BYLAYER
 62
    7
 10
-3.145633672250008
 20
-20.03269661884461
 30
0
  0
VERTEX
  5
13F
  8
0
  6
BYLAYER
 62
    7
 10
-3.15
 20
-20.199989
 30
0
  0
SEQEND
  5
140
  8
0
  6
BYLAYER
 62
    7
  0
POLYLINE
  5
141
  8
0
  6
BYLAYER
 62
    7
 66
    1
 10
0
 20
0
 30
0
 70
    0
  0
VERTEX
  5
142
  8
0
  6
BYLAYER
 62
    7
 10
-3.15
 20
-20.199989
 30
0
  0
VERTEX
  5
143
  8
0
  6
BYLAYER
 62
    7
 10
-3.065282411802222
 20
-20.63042600412876
 30
0
  0
VERTEX
  5
144
  8
0
  6
BYLAYER
 62
    7
 10
-2.952974468195093
 20
-21.02488196331107
 30
0
  0
VERTEX
  5
145
  8
0
  6
BYLAYER
 62
    7
 10
-2.815113045819207
 20
-21.38411052354738
 30
0
  0
VERTEX
  5
146
  8
0
  6
BYLAYER
 62
    7
 10
-2.653735021315163
 20
-21.70886533083817
 30
0
  0
VERTEX
  5
147
  8
0
  6
BYLAYER
 62
    7
 10
-2.470877271323555
 20
-21.99990003118391
 30
0
  0
VERTEX
  5
148
  8
0
  6
BYLAYER
 62
    7
 10
-2.268576672484979
 20
-22.25796827058508
 30
0
  0
VERTEX
  5
149
  8
0
  6
BYLAYER
 62
    7
 10
-2.048870101440032
 20
-22.48382369504213
 30
0
  0
VERTEX
  5
14A
  8
0
  6
BYLAYER
 62
    7
 10
-1.813794434829311
 20
-22.67821995055553
 30
0
  0
VERTEX
  5
14B
  8
0
  6
BYLAYER
 62
    7
 10
-1.565386549293411
 20
-22.84191068312577
 30
0
  0
VERTEX
  5
14C
  8
0
  6
BYLAYER
 62
    7
 10
-1.305683321472928
 20
-22.97564953875331
 30
0
  0
VERTEX
  5
14D
  8
0
  6
BYLAYER
 62
    7
 10
-1.03672162800846
 20
-23.08019016343862
 30
0
  0
VERTEX
  5
14E
  8
0
  6
BYLAYER
 62
    7
 10
-0.7605383455406007
 20
-23.15628620318217
 30
0
  0
VERTEX
  5
14F
  8
0
  6
BYLAYER
 62
    7
 10
-0.4791703507099473
 20
-23.20469130398443
 30
0
  0
VERTEX
  5
150
  8
0
  6
BYLAYER
 62
    7
 10
-0.1946545201570961
 20
-23.22615911184586
 30
0
  0
VERTEX
  5
151
  8
0
  6
BYLAYER
 62
    7
 10
0.09097226947735731
 20
-23.22144327276694
 30
0
  0
VERTEX
  5
152
  8
0
  6
BYLAYER
 62
    7
 10
0.3756731415528158
 20
-23.19129743274814
 30
0
  0
VERTEX
  5
153
  8
0
  6
BYLAYER
 62
    7
 10
0.657411219428684
 20
-23.13647523778993
 30
0
  0
VERTEX
  5
154
  8
0
  6
BYLAYER
 62
    7
 10
0.9341496264643662
 20
-23.05773033389278
 30
0
  0
VERTEX
  5
155
  8
0
  6
BYLAYER
 62
    7
 10
1.203851486019265
 20
-22.95581636705717
 30
0
  0
VERTEX
  5
156
  8
0
  6
BYLAYER
 62
    7
 10
1.464479921452785
 20
-22.83148698328354
 30
0
  0
VERTEX
  5
157
  8
0
  6
BYLAYER
 62
    7
 10
1.71399805612433
 20
-22.68549582857239
 30
0
  0
VERTEX
  5
158
  8
0
  6
BYLAYER
 62
    7
 10
1.950369013393304
 20
-22.51859654892417
 30
0
  0
VERTEX
  5
159
  8
0
  6
BYLAYER
 62
    7
 10
2.171555916619111
 20
-22.33154279033937
 30
0
  0
VERTEX
  5
15A
  8
0
  6
BYLAYER
 62
    7
 10
2.375521889161153
 20
-22.12508819881844
 30
0
  0
VERTEX
  5
15B
  8
0
  6
BYLAYER
 62
    7
 10
2.560230054378836
 20
-21.89998642036186
 30
0
  0
VERTEX
  5
15C
  8
0
  6
BYLAYER
 62
    7
 10
2.723643535631564
 20
-21.65699110097009
 30
0
  0
VERTEX
  5
15D
  8
0
  6
BYLAYER
 62
    7
 10
2.86372545627874
 20
-21.39685588664362
 30
0
  0
VERTEX
  5
15E
  8
0
  6
BYLAYER
 62
    7
 10
2.978438939679767
 20
-21.12033442338291
 30
0
  0
VERTEX
  5
15F
  8
0
  6
BYLAYER
 62
    7
 10
3.06574710919405
 20
-20.82818035718842
 30
0
  0
VERTEX
  5
160
  8
0
  6
BYLAYER
 62
    7
 10
3.123613088180993
 20
-20.52114733406063
 30
0
  0
VERTEX
  5
161
  8
0
  6
BYLAYER
 62
    7
 10
3.15
 20
-20.199989
 30
0
  0
SEQEND
  5
162
  8
0
  6
BYLAYER
 62
    7
  0
POLYLINE
  5
163
  8
0
  6
BYLAYER
 62
    7
 66
    1
 10
0
 20
0
 30
0
 70
    1
  0
VERTEX
  5
164
  8
0
  6
BYLAYER
 62
    7
 10
15.65
 20
13.5
 30
0
  0
SEQEND
  5
165
  8
0
  6
BYLAYER
 62
    7
  0
POLYLINE
  5
166
  8
0
  6
BYLAYER
 62
    7
 66
    1
 10
0
 20
0
 30
0
 70
    0
  0
VERTEX
  5
167
  8
0
  6
BYLAYER
 62
    7
 10
-9.35
 20
13.5
 30
0
  0
VERTEX
  5
168
  8
0
  6
BYLAYER
 62
    7
 10
-9.351835908361585
 20
13.60864977983283
 30
0
  0
VERTEX
  5
169
  8
0
  6
BYLAYER
 62
    7
 10
-9.357376357423382
 20
13.71668764969286
 30
0
  0
VERTEX
  5
16A
  8
0
  6
BYLAYER
 62
    7
 10
-9.366575787989662
 20
13.82403466318687
 30
0
  0
VERTEX
  5
16B
  8
0
  6
BYLAYER
 62
    7
 10
-9.379388640864692
 20
13.93061187392166
 30
0
  0
VERTEX
  5
16C
  8
0
  6
BYLAYER
 62
    7
 10
-9.395769356852741
 20
14.03634033550401
 30
0
  0
VERTEX
  5
16D
  8
0
  6
BYLAYER
 62
    7
 10
-9.415672376758083
 20
14.14114110154073
 30
0
  0
VERTEX
  5
16E
  8
0
  6
BYLAYER
 62
    7
 10
-9.439052141384982
 20
14.24493522563862
 30
0
  0
VERTEX
  5
16F
  8
0
  6
BYLAYER
 62
    7
 10
-9.465863091537713
 20
14.34764376140445
 30
0
  0
VERTEX
  5
170
  8
0
  6
BYLAYER
 62
    7
 10
-9.496059668020543
 20
14.44918776244503
 30
0
  0
VERTEX
  5
171
  8
0
  6
BYLAYER
 62
    7
 10
-9.529596311637743
 20
14.54948828236716
 30
0
  0
VERTEX
  5
172
  8
0
  6
BYLAYER
 62
    7
 10
-9.566427463193582
 20
14.64846637477762
 30
0
  0
VERTEX
  5
173
  8
0
  6
BYLAYER
 62
    7
 10
-9.606507563492331
 20
14.74604309328321
 30
0
  0
VERTEX
  5
174
  8
0
  6
BYLAYER
 62
    7
 10
-9.649791053338257
 20
14.84213949149072
 30
0
  0
VERTEX
  5
175
  8
0
  6
BYLAYER
 62
    7
 10
-9.696232373535633
 20
14.93667662300695
 30
0
  0
VERTEX
  5
176
  8
0
  6
BYLAYER
 62
    7
 10
-9.745785964888725
 20
15.02957554143869
 30
0
  0
VERTEX
  5
177
  8
0
  6
BYLAYER
 62
    7
 10
-9.798406268201806
 20
15.12075730039273
 30
0
  0
VERTEX
  5
178
  8
0
  6
BYLAYER
 62
    7
 10
-9.854047724279143
 20
15.21014295347588
 30
0
  0
VERTEX
  5
179
  8
0
  6
BYLAYER
 62
    7
 10
-9.912664773925011
 20
15.29765355429492
 30
0
  0
VERTEX
  5
17A
  8
0
  6
BYLAYER
 62
    7
 10
-9.974211857943676
 20
15.38321015645665
 30
0
  0
VERTEX
  5
17B
  8
0
  6
BYLAYER
 62
    7
 10
-10.0386434171394
 20
15.46673381356786
 30
0
  0
VERTEX
  5
17C
  8
0
  6
BYLAYER
 62
    7
 10
-10.10591389231647
 20
15.54814557923534
 30
0
  0
VERTEX
  5
17D
  8
0
  6
BYLAYER
 62
    7
 10
-10.17597772427914
 20
15.62736650706589
 30
0
  0
VERTEX
  5
17E
  8
0
  6
BYLAYER
 62
    7
 10
-10.24878935383169
 20
15.70431765066631
 30
0
  0
VERTEX
  5
17F
  8
0
  6
BYLAYER
 62
    7
 10
-10.32430322177839
 20
15.77892006364338
 30
0
  0
VERTEX
  5
180
  8
0
  6
BYLAYER
 62
    7
 10
-10.4024737689235
 20
15.85109479960391
 30
0
  0
VERTEX
  5
181
  8
0
  6
BYLAYER
 62
    7
 10
-10.48325543607129
 20
15.92076291215468
 30
0
  0
VERTEX
  5
182
  8
0
  6
BYLAYER
 62
    7
 10
-10.56660266402605
 20
15.98784545490249
 30
0
  0
VERTEX
  5
183
  8
0
  6
BYLAYER
 62
    7
 10
-10.65246989359202
 20
16.05226348145413
 30
0
  0
VERTEX
  5
184
  8
0
  6
BYLAYER
 62
    7
 10
-10.74081156557349
 20
16.1139380454164
 30
0
  0
VERTEX
  5
185
  8
0
  6
BYLAYER
 62
    7
 10
-10.83158212077473
 20
16.17279020039609
 30
0
  0
VERTEX
  5
186
  8
0
  6
BYLAYER
 62
    7
 10
-10.924736
 20
16.228741
 30
0
  0
SEQEND
  5
187
  8
0
  6
BYLAYER
 62
    7
  0
POLYLINE
  5
188
  8
0
  6
BYLAYER
 62
    7
 66
    1
 10
0
 20
0
 30
0
 70
    0
  0
VERTEX
  5
189
  8
0
  6
BYLAYER
 62
    7
 10
-10.924736
 20
16.228741
 30
0
  0
VERTEX
  5
18A
  8
0
  6
BYLAYER
 62
    7
 10
-11.01975766184418
 20
16.28145758688865
 30
0
  0
VERTEX
  5
18B
  8
0
  6
BYLAYER
 62
    7
 10
-11.1161009784163
 20
16.33065973465141
 30
0
  0
VERTEX
  5
18C
  8
0
  6
BYLAYER
 62
    7
 10
-11.21367480111443
 20
16.37634744328824
 30
0
  0
VERTEX
  5
18D
  8
0
  6
BYLAYER
 62
    7
 10
-11.31238798133665
 20
16.41852071279917
 30
0
  0
VERTEX
  5
18E
  8
0
  6
BYLAYER
 62
    7
 10
-11.41214937048102
 20
16.45717954318418
 30
0
  0
VERTEX
  5
18F
  8
0
  6
BYLAYER
 62
    7
 10
-11.51286781994562
 20
16.49232393444329
 30
0
  0
VERTEX
  5
190
  8
0
  6
BYLAYER
 62
    7
 10
-11.61445218112853
 20
16.52395388657648
 30
0
  0
VERTEX
  5
191
  8
0
  6
BYLAYER
 62
    7
 10
-11.71681130542781
 20
16.55206939958376
 30
0
  0
VERTEX
  5
192
  8
0
  6
BYLAYER
 62
    7
 10
-11.81985404424155
 20
16.57667047346514
 30
0
  0
VERTEX
  5
193
  8
0
  6
BYLAYER
 62
    7
 10
-11.92348924896781
 20
16.59775710822061
 30
0
  0
VERTEX
  5
194
  8
0
  6
BYLAYER
 62
    7
 10
-12.02762577100467
 20
16.61532930385016
 30
0
  0
VERTEX
  5
195
  8
0
  6
BYLAYER
 62
    7
 10
-12.13217246175019
 20
16.6293870603538
 30
0
  0
VERTEX
  5
196
  8
0
  6
BYLAYER
 62
    7
 10
-12.23703817260246
 20
16.63993037773153
 30
0
  0
VERTEX
  5
197
  8
0
  6
BYLAYER
 62
    7
 10
-12.34213175495955
 20
16.64695925598335
 30
0
  0
VERTEX
  5
198
  8
0
  6
BYLAYER
 62
    7
 10
-12.44736206021953
 20
16.65047369510926
 30
0
  0
VERTEX
  5
199
  8
0
  6
BYLAYER
 62
    7
 10
-12.55263793978047
 20
16.65047369510926
 30
0
  0
VERTEX
  5
19A
  8
0
  6
BYLAYER
 62
    7
 10
-12.65786824504045
 20
16.64695925598335
 30
0
  0
VERTEX
  5
19B
  8
0
  6
BYLAYER
 62
    7
 10
-12.76296182739754
 20
16.63993037773153
 30
0
  0
VERTEX
  5
19C
  8
0
  6
BYLAYER
 62
    7
 10
-12.86782753824981
 20
16.6293870603538
 30
0
  0
VERTEX
  5
19D
  8
0
  6
BYLAYER
 62
    7
 10
-12.97237422899533
 20
16.61532930385016
 30
0
  0
VERTEX
  5
19E
  8
0
  6
BYLAYER
 62
    7
 10
-13.07651075103219
 20
16.59775710822061
 30
0
  0
VERTEX
  5
19F
  8
0
  6
BYLAYER
 62
    7
 10
-13.18014595575845
 20
16.57667047346514
 30
0
  0
VERTEX
  5
1A0
  8
0
  6
BYLAYER
 62
    7
 10
-13.28318869457219
 20
16.55206939958377
 30
0
  0
VERTEX
  5
1A1
  8
0
  6
BYLAYER
 62
    7
 10
-13.38554781887147
 20
16.52395388657649
 30
0
  0
VERTEX
  5
1A2
  8
0
  6
BYLAYER
 62
    7
 10
-13.48713218005438
 20
16.49232393444329
 30
0
  0
VERTEX
  5
1A3
  8
0
  6
BYLAYER
 62
    7
 10
-13.58785062951898
 20
16.45717954318418
 30
0
  0
VERTEX
  5
1A4
  8
0
  6
BYLAYER
 62
    7
 10
-13.68761201866335
 20
16.41852071279917
 30
0
  0
VERTEX
  5
1A5
  8
0
  6
BYLAYER
 62
    7
 10
-13.78632519888557
 20
16.37634744328824
 30
0
  0
VERTEX
  5
1A6
  8
0
  6
BYLAYER
 62
    7
 10
-13.8838990215837
 20
16.33065973465141
 30
0
  0
VERTEX
  5
1A7
  8
0
  6
BYLAYER
 62
    7
 10
-13.98024233815582
 20
16.28145758688866
 30
0
  0
VERTEX
  5
1A8
  8
0
  6
BYLAYER
 62
    7
 10
-14.075264
 20
16.228741
 30
0
  0
SEQEND
  5
1A9
  8
0
  6
BYLAYER
 62
    7
  0
POLYLINE
  5
1AA
  8
0
  6
BYLAYER
 62
    7
 66
    1
 10
0
 20
0
 30
0
 70
    0
  0
VERTEX
  5
1AB
  8
0
  6
BYLAYER
 62
    7
 10
-14.075264
 20
16.228741
 30
0
  0
VERTEX
  5
1AC
  8
0
  6
BYLAYER
 62
    7
 10
-14.16841787922527
 20
16.17279020039609
 30
0
  0
VERTEX
  5
1AD
  8
0
  6
BYLAYER
 62
    7
 10
-14.25918843442651
 20
16.1139380454164
 30
0
  0
VERTEX
  5
1AE
  8
0
  6
BYLAYER
 62
    7
 10
-14.34753010640798
 20
16.05226348145413
 30
0
  0
VERTEX
  5
1AF
  8
0
  6
BYLAYER
 62
    7
 10
-14.43339733597395
 20
15.98784545490249
 30
0
  0
VERTEX
  5
1B0
  8
0
  6
BYLAYER
 62
    7
 10
-14.5167445639287
 20
15.92076291215468
 30
0
  0
VERTEX
  5
1B1
  8
0
  6
BYLAYER
 62
    7
 10
-14.5975262310765
 20
15.85109479960391
 30
0
  0
VERTEX
  5
1B2
  8
0
  6
BYLAYER
 62
    7
 10
-14.67569677822161
 20
15.77892006364338
 30
0
  0
VERTEX
  5
1B3
  8
0
  6
BYLAYER
 62
    7
 10
-14.75121064616831
 20
15.70431765066631
 30
0
  0
VERTEX
  5
1B4
  8
0
  6
BYLAYER
 62
    7
 10
-14.82402227572085
 20
15.62736650706589
 30
0
  0
VERTEX
  5
1B5
  8
0
  6
BYLAYER
 62
    7
 10
-14.89408610768353
 20
15.54814557923534
 30
0
  0
VERTEX
  5
1B6
  8
0
  6
BYLAYER
 62
    7
 10
-14.96135658286059
 20
15.46673381356785
 30
0
  0
VERTEX
  5
1B7
  8
0
  6
BYLAYER
 62
    7
 10
-15.02578814205633
 20
15.38321015645665
 30
0
  0
VERTEX
  5
1B8
  8
0
  6
BYLAYER
 62
    7
 10
-15.08733522607499
 20
15.29765355429492
 30
0
  0
VERTEX
  5
1B9
  8
0
  6
BYLAYER
 62
    7
 10
-15.14595227572086
 20
15.21014295347588
 30
0
  0
VERTEX
  5
1BA
  8
0
  6
BYLAYER
 62
    7
 10
-15.20159373179819
 20
15.12075730039274
 30
0
  0
VERTEX
  5
1BB
  8
0
  6
BYLAYER
 62
    7
 10
-15.25421403511127
 20
15.02957554143869
 30
0
  0
VERTEX
  5
1BC
  8
0
  6
BYLAYER
 62
    7
 10
-15.30376762646437
 20
14.93667662300695
 30
0
  0
VERTEX
  5
1BD
  8
0
  6
BYLAYER
 62
    7
 10
-15.35020894666174
 20
14.84213949149072
 30
0
  0
VERTEX
  5
1BE
  8
0
  6
BYLAYER
 62
    7
 10
-15.39349243650767
 20
14.74604309328321
 30
0
  0
VERTEX
  5
1BF
  8
0
  6
BYLAYER
 62
    7
 10
-15.43357253680642
 20
14.64846637477762
 30
0
  0
VERTEX
  5
1C0
  8
0
  6
BYLAYER
 62
    7
 10
-15.47040368836226
 20
14.54948828236716
 30
0
  0
VERTEX
  5
1C1
  8
0
  6
BYLAYER
 62
    7
 10
-15.50394033197946
 20
14.44918776244504
 30
0
  0
VERTEX
  5
1C2
  8
0
  6
BYLAYER
 62
    7
 10
-15.53413690846229
 20
14.34764376140445
 30
0
  0
VERTEX
  5
1C3
  8
0
  6
BYLAYER
 62
    7
 10
-15.56094785861502
 20
14.24493522563862
 30
0
  0
VERTEX
  5
1C4
  8
0
  6
BYLAYER
 62
    7
 10
-15.58432762324192
 20
14.14114110154073
 30
0
  0
VERTEX
  5
1C5
  8
0
  6
BYLAYER
 62
    7
 10
-15.60423064314726
 20
14.03634033550401
 30
0
  0
VERTEX
  5
1C6
  8
0
  6
BYLAYER
 62
    7
 10
-15.62061135913531
 20
13.93061187392166
 30
0
  0
VERTEX
  5
1C7
  8
0
  6
BYLAYER
 62
    7
 10
-15.63342421201034
 20
13.82403466318687
 30
0
  0
VERTEX
  5
1C8
  8
0
  6
BYLAYER
 62
    7
 10
-15.64262364257662
 20
13.71668764969286
 30
0
  0
VERTEX
  5
1C9
  8
0
  6
BYLAYER
 62
    7
 10
-15.64816409163841
 20
13.60864977983284
 30
0
  0
VERTEX
  5
1CA
  8
0
  6
BYLAYER
 62
    7
 10
-15.65
 20
13.5
 30
0
  0
SEQEND
  5
1CB
  8
0
  6
BYLAYER
 62
    7
  0
POLYLINE
  5
1CC
  8
0
  6
BYLAYER
 62
    7
 66
    1
 10
0
 20
0
 30
0
 70
    0
  0
VERTEX
  5
1CD
  8
0
  6
BYLAYER
 62
    7
 10
-15.65
 20
13.5
 30
0
  0
VERTEX
  5
1CE
  8
0
  6
BYLAYER
 62
    7
 10
-15.64816409163841
 20
13.39135022016717
 30
0
  0
VERTEX
  5
1CF
  8
0
  6
BYLAYER
 62
    7
 10
-15.64262364257662
 20
13.28331235030714
 30
0
  0
VERTEX
  5
1D0
  8
0
  6
BYLAYER
 62
    7
 10
-15.63342421201034
 20
13.17596533681313
 30
0
  0
VERTEX
  5
1D1
  8
0
  6
BYLAYER
 62
    7
 10
-15.62061135913531
 20
13.06938812607835
 30
0
  0
VERTEX
  5
1D2
  8
0
  6
BYLAYER
 62
    7
 10
-15.60423064314726
 20
12.96365966449599
 30
0
  0
VERTEX
  5
1D3
  8
0
  6
BYLAYER
 62
    7
 10
-15.58432762324192
 20
12.85885889845927
 30
0
  0
VERTEX
  5
1D4
  8
0
  6
BYLAYER
 62
    7
 10
-15.56094785861502
 20
12.75506477436139
 30
0
  0
VERTEX
  5
1D5
  8
0
  6
BYLAYER
 62
    7
 10
-15.53413690846229
 20
12.65235623859555
 30
0
  0
VERTEX
  5
1D6
  8
0
  6
BYLAYER
 62
    7
 10
-15.50394033197945
 20
12.55081223755497
 30
0
  0
VERTEX
  5
1D7
  8
0
  6
BYLAYER
 62
    7
 10
-15.47040368836226
 20
12.45051171763284
 30
0
  0
VERTEX
  5
1D8
  8
0
  6
BYLAYER
 62
    7
 10
-15.43357253680642
 20
12.35153362522238
 30
0
  0
VERTEX
  5
1D9
  8
0
  6
BYLAYER
 62
    7
 10
-15.39349243650767
 20
12.2539569067168
 30
0
  0
VERTEX
  5
1DA
  8
0
  6
BYLAYER
 62
    7
 10
-15.35020894666174
 20
12.15786050850928
 30
0
  0
VERTEX
  5
1DB
  8
0
  6
BYLAYER
 62
    7
 10
-15.30376762646437
 20
12.06332337699305
 30
0
  0
VERTEX
  5
1DC
  8
0
  6
BYLAYER
 62
    7
 10
-15.25421403511128
 20
11.97042445856131
 30
0
  0
VERTEX
  5
1DD
  8
0
  6
BYLAYER
 62
    7
 10
-15.20159373179819
 20
11.87924269960726
 30
0
  0
VERTEX
  5
1DE
  8
0
  6
BYLAYER
 62
    7
 10
-15.14595227572086
 20
11.78985704652412
 30
0
  0
VERTEX
  5
1DF
  8
0
  6
BYLAYER
 62
    7
 10
-15.08733522607499
 20
11.70234644570508
 30
0
  0
VERTEX
  5
1E0
  8
0
  6
BYLAYER
 62
    7
 10
-15.02578814205633
 20
11.61678984354335
 30
0
  0
VERTEX
  5
1E1
  8
0
  6
BYLAYER
 62
    7
 10
-14.9613565828606
 20
11.53326618643214
 30
0
  0
VERTEX
  5
1E2
  8
0
  6
BYLAYER
 62
    7
 10
-14.89408610768353
 20
11.45185442076466
 30
0
  0
VERTEX
  5
1E3
  8
0
  6
BYLAYER
 62
    7
 10
-14.82402227572086
 20
11.37263349293411
 30
0
  0
VERTEX
  5
1E4
  8
0
  6
BYLAYER
 62
    7
 10
-14.75121064616831
 20
11.29568234933369
 30
0
  0
VERTEX
  5
1E5
  8
0
  6
BYLAYER
 62
    7
 10
-14.67569677822161
 20
11.22107993635662
 30
0
  0
VERTEX
  5
1E6
  8
0
  6
BYLAYER
 62
    7
 10
-14.5975262310765
 20
11.14890520039609
 30
0
  0
VERTEX
  5
1E7
  8
0
  6
BYLAYER
 62
    7
 10
-14.5167445639287
 20
11.07923708784532
 30
0
  0
VERTEX
  5
1E8
  8
0
  6
BYLAYER
 62
    7
 10
-14.43339733597395
 20
11.01215454509751
 30
0
  0
VERTEX
  5
1E9
  8
0
  6
BYLAYER
 62
    7
 10
-14.34753010640798
 20
10.94773651854587
 30
0
  0
VERTEX
  5
1EA
  8
0
  6
BYLAYER
 62
    7
 10
-14.25918843442651
 20
10.8860619545836
 30
0
  0
VERTEX
  5
1EB
  8
0
  6
BYLAYER
 62
    7
 10
-14.16841787922527
 20
10.82720979960391
 30
0
  0
VERTEX
  5
1EC
  8
0
  6
BYLAYER
 62
    7
 10
-14.075264
 20
10.771259
 30
0
  0
SEQEND
  5
1ED
  8
0
  6
BYLAYER
 62
    7
  0
POLYLINE
  5
1EE
  8
0
  6
BYLAYER
 62
    7
 66
    1
 10
0
 20
0
 30
0
 70
    0
  0
VERTEX
  5
1EF
  8
0
  6
BYLAYER
 62
    7
 10
-14.075264
 20
10.771259
 30
0
  0
VERTEX
  5
1F0
  8
0
  6
BYLAYER
 62
    7
 10
-13.98024233815582
 20
10.71854241311134
 30
0
  0
VERTEX
  5
1F1
  8
0
  6
BYLAYER
 62
    7
 10
-13.8838990215837
 20
10.6693402653486
 30
0
  0
VERTEX
  5
1F2
  8
0
  6
BYLAYER
 62
    7
 10
-13.78632519888557
 20
10.62365255671176
 30
0
  0
VERTEX
  5
1F3
  8
0
  6
BYLAYER
 62
    7
 10
-13.68761201866336
 20
10.58147928720083
 30
0
  0
VERTEX
  5
1F4
  8
0
  6
BYLAYER
 62
    7
 10
-13.58785062951898
 20
10.54282045681582
 30
0
  0
VERTEX
  5
1F5
  8
0
  6
BYLAYER
 62
    7
 10
-13.48713218005438
 20
10.50767606555671
 30
0
  0
VERTEX
  5
1F6
  8
0
  6
BYLAYER
 62
    7
 10
-13.38554781887147
 20
10.47604611342352
 30
0
  0
VERTEX
  5
1F7
  8
0
  6
BYLAYER
 62
    7
 10
-13.28318869457219
 20
10.44793060041623
 30
0
  0
VERTEX
  5
1F8
  8
0
  6
BYLAYER
 62
    7
 10
-13.18014595575845
 20
10.42332952653486
 30
0
  0
VERTEX
  5
1F9
  8
0
  6
BYLAYER
 62
    7
 10
-13.07651075103219
 20
10.4022428917794
 30
0
  0
VERTEX
  5
1FA
  8
0
  6
BYLAYER
 62
    7
 10
-12.97237422899533
 20
10.38467069614985
 30
0
  0
VERTEX
  5
1FB
  8
0
  6
BYLAYER
 62
    7
 10
-12.86782753824981
 20
10.3706129396462
 30
0
  0
VERTEX
  5
1FC
  8
0
  6
BYLAYER
 62
    7
 10
-12.76296182739754
 20
10.36006962226847
 30
0
  0
VERTEX
  5
1FD
  8
0
  6
BYLAYER
 62
    7
 10
-12.65786824504045
 20
10.35304074401665
 30
0
  0
VERTEX
  5
1FE
  8
0
  6
BYLAYER
 62
    7
 10
-12.55263793978047
 20
10.34952630489074
 30
0
  0
VERTEX
  5
1FF
  8
0
  6
BYLAYER
 62
    7
 10
-12.44736206021953
 20
10.34952630489074
 30
0
  0
VERTEX
  5
200
  8
0
  6
BYLAYER
 62
    7
 10
-12.34213175495955
 20
10.35304074401665
 30
0
  0
VERTEX
  5
201
  8
0
  6
BYLAYER
 62
    7
 10
-12.23703817260247
 20
10.36006962226847
 30
0
  0
VERTEX
  5
202
  8
0
  6
BYLAYER
 62
    7
 10
-12.13217246175019
 20
10.3706129396462
 30
0
  0
VERTEX
  5
203
  8
0
  6
BYLAYER
 62
    7
 10
-12.02762577100467
 20
10.38467069614984
 30
0
  0
VERTEX
  5
204
  8
0
  6
BYLAYER
 62
    7
 10
-11.92348924896781
 20
10.4022428917794
 30
0
  0
VERTEX
  5
205
  8
0
  6
BYLAYER
 62
    7
 10
-11.81985404424155
 20
10.42332952653486
 30
0
  0
VERTEX
  5
206
  8
0
  6
BYLAYER
 62
    7
 10
-11.71681130542781
 20
10.44793060041623
 30
0
  0
VERTEX
  5
207
  8
0
  6
BYLAYER
 62
    7
 10
-11.61445218112853
 20
10.47604611342352
 30
0
  0
VERTEX
  5
208
  8
0
  6
BYLAYER
 62
    7
 10
-11.51286781994562
 20
10.50767606555671
 30
0
  0
VERTEX
  5
209
  8
0
  6
BYLAYER
 62
    7
 10
-11.41214937048102
 20
10.54282045681582
 30
0
  0
VERTEX
  5
20A
  8
0
  6
BYLAYER
 62
    7
 10
-11.31238798133665
 20
10.58147928720083
 30
0
  0
VERTEX
  5
20B
  8
0
  6
BYLAYER
 62
    7
 10
-11.21367480111443
 20
10.62365255671176
 30
0
  0
VERTEX
  5
20C
  8
0
  6
BYLAYER
 62
    7
 10
-11.1161009784163
 20
10.66934026534859
 30
0
  0
VERTEX
  5
20D
  8
0
  6
BYLAYER
 62
    7
 10
-11.01975766184418
 20
10.71854241311134
 30
0
  0
VERTEX
  5
20E
  8
0
  6
BYLAYER
 62
    7
 10
-10.924736
 20
10.771259
 30
0
  0
SEQEND
  5
20F
  8
0
  6
BYLAYER
 62
    7
  0
POLYLINE
  5
210
  8
0
  6
BYLAYER
 62
    7
 66
    1
 10
0
 20
0
 30
0
 70
    0
  0
VERTEX
  5
211
  8
0
  6
BYLAYER
 62
    7
 10
-10.924736
 20
10.771259
 30
0
  0
VERTEX
  5
212
  8
0
  6
BYLAYER
 62
    7
 10
-10.83158212077473
 20
10.82720979960391
 30
0
  0
VERTEX
  5
213
  8
0
  6
BYLAYER
 62
    7
 10
-10.7408115655735
 20
10.8860619545836
 30
0
  0
VERTEX
  5
214
  8
0
  6
BYLAYER
 62
    7
 10
-10.65246989359202
 20
10.94773651854587
 30
0
  0
VERTEX
  5
215
  8
0
  6
BYLAYER
 62
    7
 10
-10.56660266402605
 20
11.01215454509751
 30
0
  0
VERTEX
  5
216
  8
0
  6
BYLAYER
 62
    7
 10
-10.4832554360713
 20
11.07923708784532
 30
0
  0
VERTEX
  5
217
  8
0
  6
BYLAYER
 62
    7
 10
-10.4024737689235
 20
11.1489052003961
 30
0
  0
VERTEX
  5
218
  8
0
  6
BYLAYER
 62
    7
 10
-10.32430322177839
 20
11.22107993635662
 30
0
  0
VERTEX
  5
219
  8
0
  6
BYLAYER
 62
    7
 10
-10.24878935383169
 20
11.29568234933369
 30
0
  0
VERTEX
  5
21A
  8
0
  6
BYLAYER
 62
    7
 10
-10.17597772427914
 20
11.37263349293411
 30
0
  0
VERTEX
  5
21B
  8
0
  6
BYLAYER
 62
    7
 10
-10.10591389231647
 20
11.45185442076466
 30
0
  0
VERTEX
  5
21C
  8
0
  6
BYLAYER
 62
    7
 10
-10.0386434171394
 20
11.53326618643214
 30
0
  0
VERTEX
  5
21D
  8
0
  6
BYLAYER
 62
    7
 10
-9.974211857943674
 20
11.61678984354335
 30
0
  0
VERTEX
  5
21E
  8
0
  6
BYLAYER
 62
    7
 10
-9.912664773925011
 20
11.70234644570508
 30
0
  0
VERTEX
  5
21F
  8
0
  6
BYLAYER
 62
    7
 10
-9.854047724279145
 20
11.78985704652412
 30
0
  0
VERTEX
  5
220
  8
0
  6
BYLAYER
 62
    7
 10
-9.798406268201806
 20
11.87924269960726
 30
0
  0
VERTEX
  5
221
  8
0
  6
BYLAYER
 62
    7
 10
-9.745785964888725
 20
11.97042445856131
 30
0
  0
VERTEX
  5
222
  8
0
  6
BYLAYER
 62
    7
 10
-9.696232373535631
 20
12.06332337699305
 30
0
  0
VERTEX
  5
223
  8
0
  6
BYLAYER
 62
    7
 10
-9.649791053338257
 20
12.15786050850928
 30
0
  0
VERTEX
  5
224
  8
0
  6
BYLAYER
 62
    7
 10
-9.606507563492331
 20
12.25395690671679
 30
0
  0
VERTEX
  5
225
  8
0
  6
BYLAYER
 62
    7
 10
-9.566427463193584
 20
12.35153362522238
 30
0
  0
VERTEX
  5
226
  8
0
  6
BYLAYER
 62
    7
 10
-9.529596311637743
 20
12.45051171763284
 30
0
  0
VERTEX
  5
227
  8
0
  6
BYLAYER
 62
    7
 10
-9.496059668020544
 20
12.55081223755497
 30
0
  0
VERTEX
  5
228
  8
0
  6
BYLAYER
 62
    7
 10
-9.465863091537713
 20
12.65235623859555
 30
0
  0
VERTEX
  5
229
  8
0
  6
BYLAYER
 62
    7
 10
-9.439052141384984
 20
12.75506477436138
 30
0
  0
VERTEX
  5
22A
  8
0
  6
BYLAYER
 62
    7
 10
-9.415672376758081
 20
12.85885889845926
 30
0
  0
VERTEX
  5
22B
  8
0
  6
BYLAYER
 62
    7
 10
-9.395769356852741
 20
12.96365966449599
 30
0
  0
VERTEX
  5
22C
  8
0
  6
BYLAYER
 62
    7
 10
-9.379388640864692
 20
13.06938812607835
 30
0
  0
VERTEX
  5
22D
  8
0
  6
BYLAYER
 62
    7
 10
-9.36657578798966
 20
13.17596533681313
 30
0
  0
VERTEX
  5
22E
  8
0
  6
BYLAYER
 62
    7
 10
-9.357376357423382
 20
13.28331235030714
 30
0
  0
VERTEX
  5
22F
  8
0
  6
BYLAYER
 62
    7
 10
-9.351835908361586
 20
13.39135022016716
 30
0
  0
VERTEX
  5
230
  8
0
  6
BYLAYER
 62
    7
 10
-9.35
 20
13.5
 30
0
  0
SEQEND
  5
231
  8
0
  6
BYLAYER
 62
    7
  0
POLYLINE
  5
232
  8
0
  6
BYLAYER
 62
    7
 66
    1
 10
0
 20
0
 30
0
 70
    1
  0
VERTEX
  5
233
  8
0
  6
BYLAYER
 62
    7
 10
3.15
 20
-20.199989
 30
0
  0
SEQEND
  5
234
  8
0
  6
BYLAYER
 62
    7
  0
POLYLINE
  5
235
  8
0
  6
BYLAYER
 62
    7
 66
    1
 10
0
 20
0
 30
0
 70
    1
  0
VERTEX
  5
236
  8
0
  6
BYLAYER
 62
    7
 10
-9.35
 20
13.5
 30
0
  0
SEQEND
  5
237
  8
0
  6
BYLAYER
 62
    7
  0
POLYLINE
  5
238
  8
0
  6
BYLAYER
 62
    7
 66
    1
 10
0
 20
0
 30
0
 70
    0
  0
VERTEX
  5
239
  8
0
  6
BYLAYER
 62
    7
 10
-17.677685
 20
-15.223335
 30
0
  0
VERTEX
  5
23A
  8
0
  6
BYLAYER
 62
    7
 10
17.886715
 20
-15.223335
 30
0
  0
SEQEND
  5
23B
  8
0
  6
BYLAYER
 62
    7
  0
POLYLINE
  5
23C
  8
0
  6
BYLAYER
 62
    7
 66
    1
 10
0
 20
0
 30
0
 70
    0
  0
VERTEX
  5
23D
  8
0
  6
BYLAYER
 62
    7
 10
13.699156
 20
4.109504
 30
0
  0
VERTEX
  5
23E
  8
0
  6
BYLAYER
 62
    7
 10
23.258471
 20
4.109504
 30
0
  0
SEQEND
  5
23F
  8
0
  6
BYLAYER
 62
    7
  0
POLYLINE
  5
240
  8
0
  6
BYLAYER
 62
    7
 66
    1
 10
0
 20
0
 30
0
 70
    0
  0
VERTEX
  5
241
  8
0
  6
BYLAYER
 62
    7
 10
13.696786
 20
4.109509
 30
0
  0
VERTEX
  5
242
  8
0
  6
BYLAYER
 62
    7
 10
13.50955212648115
 20
4.688816679534088
 30
0
  0
VERTEX
  5
243
  8
0
  6
BYLAYER
 62
    7
 10
13.29949493068377
 20
5.255771414420463
 30
0
  0
VERTEX
  5
244
  8
0
  6
BYLAYER
 62
    7
 10
13.06721959813366
 20
5.809922942633681
 30
0
  0
VERTEX
  5
245
  8
0
  6
BYLAYER
 62
    7
 10
12.81333131435669
 20
6.350821002148301
 30
0
  0
VERTEX
  5
246
  8
0
  6
BYLAYER
 62
    7
 10
12.53843526487865
 20
6.878015330938873
 30
0
  0
VERTEX
  5
247
  8
0
  6
BYLAYER
 62
    7
 10
12.2431366352254
 20
7.391055666979961
 30
0
  0
VERTEX
  5
248
  8
0
  6
BYLAYER
 62
    7
 10
11.92804061092276
 20
7.889491748246115
 30
0
  0
VERTEX
  5
249
  8
0
  6
BYLAYER
 62
    7
 10
11.59375237749656
 20
8.372873312711894
 30
0
  0
VERTEX
  5
24A
  8
0
  6
BYLAYER
 62
    7
 10
11.24087712047262
 20
8.840750098351849
 30
0
  0
VERTEX
  5
24B
  8
0
  6
BYLAYER
 62
    7
 10
10.87002002537679
 20
9.292671843140546
 30
0
  0
VERTEX
  5
24C
  8
0
  6
BYLAYER
 62
    7
 10
10.48178627773489
 20
9.728188285052532
 30
0
  0
VERTEX
  5
24D
  8
0
  6
BYLAYER
 62
    7
 10
10.07678106307274
 20
10.14684916206237
 30
0
  0
VERTEX
  5
24E
  8
0
  6
BYLAYER
 62
    7
 10
9.655609566916185
 20
10.54820421214461
 30
0
  0
VERTEX
  5
24F
  8
0
  6
BYLAYER
 62
    7
 10
9.218876974791048
 20
10.93180317327381
 30
0
  0
VERTEX
  5
250
  8
0
  6
BYLAYER
 62
    7
 10
8.767188472223157
 20
11.29719578342452
 30
0
  0
VERTEX
  5
251
  8
0
  6
BYLAYER
 62
    7
 10
8.301149244738346
 20
11.64393178057131
 30
0
  0
VERTEX
  5
252
  8
0
  6
BYLAYER
 62
    7
 10
7.821364477862445
 20
11.97156090268873
 30
0
  0
VERTEX
  5
253
  8
0
  6
BYLAYER
 62
    7
 10
7.328439357121283
 20
12.27963288775133
 30
0
  0
VERTEX
  5
254
  8
0
  6
BYLAYER
 62
    7
 10
6.822979068040688
 20
12.56769747373368
 30
0
  0
VERTEX
  5
255
  8
0
  6
BYLAYER
 62
    7
 10
6.305588796146493
 20
12.83530439861032
 30
0
  0
VERTEX
  5
256
  8
0
  6
BYLAYER
 62
    7
 10
5.776873726964526
 20
13.08200340035581
 30
0
  0
VERTEX
  5
257
  8
0
  6
BYLAYER
 62
    7
 10
5.237439046020617
 20
13.30734421694471
 30
0
  0
VERTEX
  5
258
  8
0
  6
BYLAYER
 62
    7
 10
4.687889938840597
 20
13.51087658635158
 30
0
  0
VERTEX
  5
259
  8
0
  6
BYLAYER
 62
    7
 10
4.128831590950295
 20
13.69215024655097
 30
0
  0
VERTEX
  5
25A
  8
0
  6
BYLAYER
 62
    7
 10
3.560869187875541
 20
13.85071493551744
 30
0
  0
VERTEX
  5
25B
  8
0
  6
BYLAYER
 62
    7
 10
2.984607915142166
 20
13.98612039122554
 30
0
  0
VERTEX
  5
25C
  8
0
  6
BYLAYER
 62
    7
 10
2.400652958275999
 20
14.09791635164983
 30
0
  0
VERTEX
  5
25D
  8
0
  6
BYLAYER
 62
    7
 10
1.80960950280287
 20
14.18565255476486
 30
0
  0
VERTEX
  5
25E
  8
0
  6
BYLAYER
 62
    7
 10
1.21208273424861
 20
14.2488787385452
 30
0
  0
VERTEX
  5
25F
  8
0
  6
BYLAYER
 62
    7
 10
0.6086778381390472
 20
14.28714464096539
 30
0
  0
VERTEX
  5
260
  8
0
  6
BYLAYER
 62
    7
 10
0
 20
14.3
 30
0
  0
SEQEND
  5
261
  8
0
  6
BYLAYER
 62
    7
  0
POLYLINE
  5
262
  8
0
  6
BYLAYER
 62
    7
 66
    1
 10
0
 20
0
 30
0
 70
    0
  0
VERTEX
  5
263
  8
0
  6
BYLAYER
 62
    7
 10
0
 20
14.3
 30
0
  0
VERTEX
  5
264
  8
0
  6
BYLAYER
 62
    7
 10
-0.6086778381390352
 20
14.28714464096539
 30
0
  0
VERTEX
  5
265
  8
0
  6
BYLAYER
 62
    7
 10
-1.212082734248598
 20
14.2488787385452
 30
0
  0
VERTEX
  5
266
  8
0
  6
BYLAYER
 62
    7
 10
-1.80960950280286
 20
14.18565255476486
 30
0
  0
VERTEX
  5
267
  8
0
  6
BYLAYER
 62
    7
 10
-2.400652958275989
 20
14.09791635164983
 30
0
  0
VERTEX
  5
268
  8
0
  6
BYLAYER
 62
    7
 10
-2.984607915142156
 20
13.98612039122554
 30
0
  0
VERTEX
  5
269
  8
0
  6
BYLAYER
 62
    7
 10
-3.560869187875534
 20
13.85071493551744
 30
0
  0
VERTEX
  5
26A
  8
0
  6
BYLAYER
 62
    7
 10
-4.128831590950287
 20
13.69215024655097
 30
0
  0
VERTEX
  5
26B
  8
0
  6
BYLAYER
 62
    7
 10
-4.687889938840589
 20
13.51087658635158
 30
0
  0
VERTEX
  5
26C
  8
0
  6
BYLAYER
 62
    7
 10
-5.237439046020608
 20
13.30734421694471
 30
0
  0
VERTEX
  5
26D
  8
0
  6
BYLAYER
 62
    7
 10
-5.776873726964518
 20
13.08200340035581
 30
0
  0
VERTEX
  5
26E
  8
0
  6
BYLAYER
 62
    7
 10
-6.305588796146485
 20
12.83530439861032
 30
0
  0
VERTEX
  5
26F
  8
0
  6
BYLAYER
 62
    7
 10
-6.822979068040681
 20
12.56769747373368
 30
0
  0
VERTEX
  5
270
  8
0
  6
BYLAYER
 62
    7
 10
-7.328439357121275
 20
12.27963288775134
 30
0
  0
VERTEX
  5
271
  8
0
  6
BYLAYER
 62
    7
 10
-7.821364477862438
 20
11.97156090268873
 30
0
  0
VERTEX
  5
272
  8
0
  6
BYLAYER
 62
    7
 10
-8.30114924473834
 20
11.64393178057132
 30
0
  0
VERTEX
  5
273
  8
0
  6
BYLAYER
 62
    7
 10
-8.76718847222315
 20
11.29719578342453
 30
0
  0
VERTEX
  5
274
  8
0
  6
BYLAYER
 62
    7
 10
-9.218876974791041
 20
10.93180317327381
 30
0
  0
VERTEX
  5
275
  8
0
  6
BYLAYER
 62
    7
 10
-9.65560956691618
 20
10.54820421214461
 30
0
  0
VERTEX
  5
276
  8
0
  6
BYLAYER
 62
    7
 10
-10.07678106307274
 20
10.14684916206237
 30
0
  0
VERTEX
  5
277
  8
0
  6
BYLAYER
 62
    7
 10
-10.48178627773488
 20
9.728188285052539
 30
0
  0
VERTEX
  5
278
  8
0
  6
BYLAYER
 62
    7
 10
-10.87002002537679
 20
9.292671843140552
 30
0
  0
VERTEX
  5
279
  8
0
  6
BYLAYER
 62
    7
 10
-11.24087712047262
 20
8.840750098351858
 30
0
  0
VERTEX
  5
27A
  8
0
  6
BYLAYER
 62
    7
 10
-11.59375237749656
 20
8.372873312711899
 30
0
  0
VERTEX
  5
27B
  8
0
  6
BYLAYER
 62
    7
 10
-11.92804061092276
 20
7.889491748246122
 30
0
  0
VERTEX
  5
27C
  8
0
  6
BYLAYER
 62
    7
 10
-12.2431366352254
 20
7.391055666979968
 30
0
  0
VERTEX
  5
27D
  8
0
  6
BYLAYER
 62
    7
 10
-12.53843526487865
 20
6.878015330938883
 30
0
  0
VERTEX
  5
27E
  8
0
  6
BYLAYER
 62
    7
 10
-12.81333131435668
 20
6.35082100214831
 30
0
  0
VERTEX
  5
27F
  8
0
  6
BYLAYER
 62
    7
 10
-13.06721959813366
 20
5.80992294263369
 30
0
  0
VERTEX
  5
280
  8
0
  6
BYLAYER
 62
    7
 10
-13.29949493068376
 20
5.255771414420472
 30
0
  0
VERTEX
  5
281
  8
0
  6
BYLAYER
 62
    7
 10
-13.50955212648115
 20
4.688816679534098
 30
0
  0
VERTEX
  5
282
  8
0
  6
BYLAYER
 62
    7
 10
-13.696786
 20
4.109509
 30
0
  0
SEQEND
  5
283
  8
0
  6
BYLAYER
 62
    7
  0
POLYLINE
  5
284
  8
0
  6
BYLAYER
 62
    7
 66
    1
 10
0
 20
0
 30
0
 70
    0
  0
VERTEX
  5
285
  8
0
  6
BYLAYER
 62
    7
 10
0.127124
 20
23.627023
 30
0
  0
VERTEX
  5
286
  8
0
  6
BYLAYER
 62
    7
 10
-0.4751927256889664
 20
23.61932165523145
 30
0
  0
VERTEX
  5
287
  8
0
  6
BYLAYER
 62
    7
 10
-1.075651052129838
 20
23.59627159044678
 30
0
  0
VERTEX
  5
288
  8
0
  6
BYLAYER
 62
    7
 10
-1.673986138867443
 20
23.55798250186298
 30
0
  0
VERTEX
  5
289
  8
0
  6
BYLAYER
 62
    7
 10
-2.269933145446612
 20
23.50456408569703
 30
0
  0
VERTEX
  5
28A
  8
0
  6
BYLAYER
 62
    7
 10
-2.863227231412171
 20
23.43612603816589
 30
0
  0
VERTEX
  5
28B
  8
0
  6
BYLAYER
 62
    7
 10
-3.453603556308953
 20
23.35277805548656
 30
0
  0
VERTEX
  5
28C
  8
0
  6
BYLAYER
 62
    7
 10
-4.040797279681783
 20
23.254629833876
 30
0
  0
VERTEX
  5
28D
  8
0
  6
BYLAYER
 62
    7
 10
-4.624543561075492
 20
23.14179106955121
 30
0
  0
VERTEX
  5
28E
  8
0
  6
BYLAYER
 62
    7
 10
-5.204577560034908
 20
23.01437145872914
 30
0
  0
VERTEX
  5
28F
  8
0
  6
BYLAYER
 62
    7
 10
-5.780634436104862
 20
22.8724806976268
 30
0
  0
VERTEX
  5
290
  8
0
  6
BYLAYER
 62
    7
 10
-6.352449348830182
 20
22.71622848246114
 30
0
  0
VERTEX
  5
291
  8
0
  6
BYLAYER
 62
    7
 10
-6.919757457755695
 20
22.54572450944916
 30
0
  0
VERTEX
  5
292
  8
0
  6
BYLAYER
 62
    7
 10
-7.482293922426233
 20
22.36107847480783
 30
0
  0
VERTEX
  5
293
  8
0
  6
BYLAYER
 62
    7
 10
-8.039793902386624
 20
22.16240007475412
 30
0
  0
VERTEX
  5
294
  8
0
  6
BYLAYER
 62
    7
 10
-8.591992557181696
 20
21.94979900550502
 30
0
  0
VERTEX
  5
295
  8
0
  6
BYLAYER
 62
    7
 10
-9.138625046356278
 20
21.7233849632775
 30
0
  0
VERTEX
  5
296
  8
0
  6
BYLAYER
 62
    7
 10
-9.679426529455199
 20
21.48326764428855
 30
0
  0
VERTEX
  5
297
  8
0
  6
BYLAYER
 62
    7
 10
-10.21413216602329
 20
21.22955674475513
 30
0
  0
VERTEX
  5
298
  8
0
  6
BYLAYER
 62
    7
 10
-10.74247711560538
 20
20.96236196089423
 30
0
  0
VERTEX
  5
299
  8
0
  6
BYLAYER
 62
    7
 10
-11.26419653774629
 20
20.68179298892283
 30
0
  0
VERTEX
  5
29A
  8
0
  6
BYLAYER
 62
    7
 10
-11.77902559199086
 20
20.38795952505791
 30
0
  0
VERTEX
  5
29B
  8
0
  6
BYLAYER
 62
    7
 10
-12.28669943788392
 20
20.08097126551644
 30
0
  0
VERTEX
  5
29C
  8
0
  6
BYLAYER
 62
    7
 10
-12.78695323497029
 20
19.76093790651539
 30
0
  0
VERTEX
  5
29D
  8
0
  6
BYLAYER
 62
    7
 10
-13.2795221427948
 20
19.42796914427177
 30
0
  0
VERTEX
  5
29E
  8
0
  6
BYLAYER
 62
    7
 10
-13.76414132090228
 20
19.08217467500252
 30
0
  0
VERTEX
  5
29F
  8
0
  6
BYLAYER
 62
    7
 10
-14.24054592883756
 20
18.72366419492464
 30
0
  0
VERTEX
  5
2A0
  8
0
  6
BYLAYER
 62
    7
 10
-14.70847112614547
 20
18.35254740025512
 30
0
  0
VERTEX
  5
2A1
  8
0
  6
BYLAYER
 62
    7
 10
-15.16765207237084
 20
17.96893398721091
 30
0
  0
VERTEX
  5
2A2
  8
0
  6
BYLAYER
 62
    7
 10
-15.6178239270585
 20
17.572933652009
 30
0
  0
VERTEX
  5
2A3
  8
0
  6
BYLAYER
 62
    7
 10
-16.05872184975327
 20
17.16465609086638
 30
0
  0
VERTEX
  5
2A4
  8
0
  6
BYLAYER
 62
    7
 10
-16.490081
 20
16.744211
 30
0
  0
SEQEND
  5
2A5
  8
0
  6
BYLAYER
 62
    7
  0
POLYLINE
  5
2A6
  8
0
  6
BYLAYER
 62
    7
 66
    1
 10
0
 20
0
 30
0
 70
    0
  0
VERTEX
  5
2A7
  8
0
  6
BYLAYER
 62
    7
 10
-16.490081
 20
16.744211
 30
0
  0
VERTEX
  5
2A8
  8
0
  6
BYLAYER
 62
    7
 10
-16.91053538652613
 20
16.31286091487362
 30
0
  0
VERTEX
  5
2A9
  8
0
  6
BYLAYER
 62
    7
 10
-17.31882244392602
 20
15.8719717986976
 30
0
  0
VERTEX
  5
2AA
  8
0
  6
BYLAYER
 62
    7
 10
-17.7148324705448
 20
15.42180848930885
 30
0
  0
VERTEX
  5
2AB
  8
0
  6
BYLAYER
 62
    7
 10
-18.09845576472761
 20
14.96263582454433
 30
0
  0
VERTEX
  5
2AC
  8
0
  6
BYLAYER
 62
    7
 10
-18.46958262481958
 20
14.49471864224095
 30
0
  0
VERTEX
  5
2AD
  8
0
  6
BYLAYER
 62
    7
 10
-18.82810334916585
 20
14.01832178023564
 30
0
  0
VERTEX
  5
2AE
  8
0
  6
BYLAYER
 62
    7
 10
-19.17390823611158
 20
13.53371007636535
 30
0
  0
VERTEX
  5
2AF
  8
0
  6
BYLAYER
 62
    7
 10
-19.50688758400188
 20
13.04114836846699
 30
0
  0
VERTEX
  5
2B0
  8
0
  6
BYLAYER
 62
    7
 10
-19.8269316911819
 20
12.5409014943775
 30
0
  0
VERTEX
  5
2B1
  8
0
  6
BYLAYER
 62
    7
 10
-20.13393085599677
 20
12.03323429193381
 30
0
  0
VERTEX
  5
2B2
  8
0
  6
BYLAYER
 62
    7
 10
-20.42777537679165
 20
11.51841159897285
 30
0
  0
VERTEX
  5
2B3
  8
0
  6
BYLAYER
 62
    7
 10
-20.70835555191165
 20
10.99669825333154
 30
0
  0
VERTEX
  5
2B4
  8
0
  6
BYLAYER
 62
    7
 10
-20.97556167970192
 20
10.46835909284683
 30
0
  0
VERTEX
  5
2B5
  8
0
  6
BYLAYER
 62
    7
 10
-21.2292840585076
 20
9.933658955355646
 30
0
  0
VERTEX
  5
2B6
  8
0
  6
BYLAYER
 62
    7
 10
-21.46941298667382
 20
9.392862678694911
 30
0
  0
VERTEX
  5
2B7
  8
0
  6
BYLAYER
 62
    7
 10
-21.69583876254573
 20
8.846235100701559
 30
0
  0
VERTEX
  5
2B8
  8
0
  6
BYLAYER
 62
    7
 10
-21.90845168446846
 20
8.294041059212519
 30
0
  0
VERTEX
  5
2B9
  8
0
  6
BYLAYER
 62
    7
 10
-22.10714205078715
 20
7.736545392064722
 30
0
  0
VERTEX
  5
2BA
  8
0
  6
BYLAYER
 62
    7
 10
-22.29180015984694
 20
7.174012937095101
 30
0
  0
VERTEX
  5
2BB
  8
0
  6
BYLAYER
 62
    7
 10
-22.46231630999295
 20
6.606708532140586
 30
0
  0
VERTEX
  5
2BC
  8
0
  6
BYLAYER
 62
    7
 10
-22.61858079957034
 20
6.034897015038106
 30
0
  0
VERTEX
  5
2BD
  8
0
  6
BYLAYER
 62
    7
 10
-22.76048392692424
 20
5.458843223624592
 30
0
  0
VERTEX
  5
2BE
  8
0
  6
BYLAYER
 62
    7
 10
-22.88791599039978
 20
4.878811995736976
 30
0
  0
VERTEX
  5
2BF
  8
0
  6
BYLAYER
 62
    7
 10
-23.00076728834211
 20
4.295068169212187
 30
0
  0
VERTEX
  5
2C0
  8
0
  6
BYLAYER
 62
    7
 10
-23.09892811909637
 20
3.707876581887156
 30
0
  0
VERTEX
  5
2C1
  8
0
  6
BYLAYER
 62
    7
 10
-23.18228878100768
 20
3.117502071598814
 30
0
  0
VERTEX
  5
2C2
  8
0
  6
BYLAYER
 62
    7
 10
-23.2507395724212
 20
2.524209476184093
 30
0
  0
VERTEX
  5
2C3
  8
0
  6
BYLAYER
 62
    7
 10
-23.30417079168205
 20
1.928263633479921
 30
0
  0
VERTEX
  5
2C4
  8
0
  6
BYLAYER
 62
    7
 10
-23.34247273713537
 20
1.32992938132323
 30
0
  0
VERTEX
  5
2C5
  8
0
  6
BYLAYER
 62
    7
 10
-23.36553570712631
 20
0.7294715575509502
 30
0
  0
VERTEX
  5
2C6
  8
0
  6
BYLAYER
 62
    7
 10
-23.37325
 20
0.127155
 30
0
  0
SEQEND
  5
2C7
  8
0
  6
BYLAYER
 62
    7
  0
POLYLINE
  5
2C8
  8
0
  6
BYLAYER
 62
    7
 66
    1
 10
0
 20
0
 30
0
 70
    0
  0
VERTEX
  5
2C9
  8
0
  6
BYLAYER
 62
    7
 10
-23.37325
 20
0.127155
 30
0
  0
VERTEX
  5
2CA
  8
0
  6
BYLAYER
 62
    7
 10
-23.36554843771608
 20
-0.4751701996240475
 30
0
  0
VERTEX
  5
2CB
  8
0
  6
BYLAYER
 62
    7
 10
-23.34249772441341
 20
-1.075636909167198
 30
0
  0
VERTEX
  5
2CC
  8
0
  6
BYLAYER
 62
    7
 10
-23.30420756235105
 20
-1.673980278506931
 30
0
  0
VERTEX
  5
2CD
  8
0
  6
BYLAYER
 62
    7
 10
-23.25078765378806
 20
-2.269935457520728
 30
0
  0
VERTEX
  5
2CE
  8
0
  6
BYLAYER
 62
    7
 10
-23.18234770098352
 20
-2.863237596086066
 30
0
  0
VERTEX
  5
2CF
  8
0
  6
BYLAYER
 62
    7
 10
-23.0989974061965
 20
-3.453621844080427
 30
0
  0
VERTEX
  5
2D0
  8
0
  6
BYLAYER
 62
    7
 10
-23.00084647168608
 20
-4.04082335138129
 30
0
  0
VERTEX
  5
2D1
  8
0
  6
BYLAYER
 62
    7
 10
-22.88800459971132
 20
-4.624577267866133
 30
0
  0
VERTEX
  5
2D2
  8
0
  6
BYLAYER
 62
    7
 10
-22.7605814925313
 20
-5.204618743412438
 30
0
  0
VERTEX
  5
2D3
  8
0
  6
BYLAYER
 62
    7
 10
-22.61868685240509
 20
-5.780682927897685
 30
0
  0
VERTEX
  5
2D4
  8
0
  6
BYLAYER
 62
    7
 10
-22.46243038159175
 20
-6.352504971199354
 30
0
  0
VERTEX
  5
2D5
  8
0
  6
BYLAYER
 62
    7
 10
-22.29192178235037
 20
-6.919820023194922
 30
0
  0
VERTEX
  5
2D6
  8
0
  6
BYLAYER
 62
    7
 10
-22.10727075694001
 20
-7.482363233761872
 30
0
  0
VERTEX
  5
2D7
  8
0
  6
BYLAYER
 62
    7
 10
-21.90858700761975
 20
-8.039869752777681
 30
0
  0
VERTEX
  5
2D8
  8
0
  6
BYLAYER
 62
    7
 10
-21.69598023664865
 20
-8.592074730119833
 30
0
  0
VERTEX
  5
2D9
  8
0
  6
BYLAYER
 62
    7
 10
-21.4695601462858
 20
-9.1387133156658
 30
0
  0
VERTEX
  5
2DA
  8
0
  6
BYLAYER
 62
    7
 10
-21.22943643879024
 20
-9.67952065929307
 30
0
  0
VERTEX
  5
2DB
  8
0
  6
BYLAYER
 62
    7
 10
-20.97571881642107
 20
-10.21423191087912
 30
0
  0
VERTEX
  5
2DC
  8
0
  6
BYLAYER
 62
    7
 10
-20.70851698143735
 20
-10.74258222030143
 30
0
  0
VERTEX
  5
2DD
  8
0
  6
BYLAYER
 62
    7
 10
-20.42794063609815
 20
-11.26430673743748
 30
0
  0
VERTEX
  5
2DE
  8
0
  6
BYLAYER
 62
    7
 10
-20.13409948266255
 20
-11.77914061216474
 30
0
  0
VERTEX
  5
2DF
  8
0
  6
BYLAYER
 62
    7
 10
-19.82710322338962
 20
-12.28681899436071
 30
0
  0
VERTEX
  5
2E0
  8
0
  6
BYLAYER
 62
    7
 10
-19.50706156053842
 20
-12.78707703390285
 30
0
  0
VERTEX
  5
2E1
  8
0
  6
BYLAYER
 62
    7
 10
-19.17408419636804
 20
-13.27964988066865
 30
0
  0
VERTEX
  5
2E2
  8
0
  6
BYLAYER
 62
    7
 10
-18.82828083313753
 20
-13.76427268453559
 30
0
  0
VERTEX
  5
2E3
  8
0
  6
BYLAYER
 62
    7
 10
-18.46976117310598
 20
-14.24068059538115
 30
0
  0
VERTEX
  5
2E4
  8
0
  6
BYLAYER
 62
    7
 10
-18.09863491853245
 20
-14.7086087630828
 30
0
  0
VERTEX
  5
2E5
  8
0
  6
BYLAYER
 62
    7
 10
-17.71501177167602
 20
-15.16779233751803
 30
0
  0
VERTEX
  5
2E6
  8
0
  6
BYLAYER
 62
    7
 10
-17.31900143479575
 20
-15.61796646856432
 30
0
  0
VERTEX
  5
2E7
  8
0
  6
BYLAYER
 62
    7
 10
-16.91071361015073
 20
-16.05886630609915
 30
0
  0
VERTEX
  5
2E8
  8
0
  6
BYLAYER
 62
    7
 10
-16.490258
 20
-16.490227
 30
0
  0
SEQEND
  5
2E9
  8
0
  6
BYLAYER
 62
    7
  0
POLYLINE
  5
2EA
  8
0
  6
BYLAYER
 62
    7
 66
    1
 10
0
 20
0
 30
0
 70
    0
  0
VERTEX
  5
2EB
  8
0
  6
BYLAYER
 62
    7
 10
-16.490258
 20
-16.490227
 30
0
  0
VERTEX
  5
2EC
  8
0
  6
BYLAYER
 62
    7
 10
-16.05889730609915
 20
-16.91068241972408
 30
0
  0
VERTEX
  5
2ED
  8
0
  6
BYLAYER
 62
    7
 10
-15.61799746856433
 20
-17.31897006018596
 30
0
  0
VERTEX
  5
2EE
  8
0
  6
BYLAYER
 62
    7
 10
-15.16782333751804
 20
-17.71498021912658
 30
0
  0
VERTEX
  5
2EF
  8
0
  6
BYLAYER
 62
    7
 10
-14.70863976308281
 20
-18.09860319428687
 30
0
  0
VERTEX
  5
2F0
  8
0
  6
BYLAYER
 62
    7
 10
-14.24071159538116
 20
-18.46972928340774
 30
0
  0
VERTEX
  5
2F1
  8
0
  6
BYLAYER
 62
    7
 10
-13.7643036845356
 20
-18.82824878423014
 30
0
  0
VERTEX
  5
2F2
  8
0
  6
BYLAYER
 62
    7
 10
-13.27968088066866
 20
-19.17405199449498
 30
0
  0
VERTEX
  5
2F3
  8
0
  6
BYLAYER
 62
    7
 10
-12.78710803390286
 20
-19.5070292119432
 30
0
  0
VERTEX
  5
2F4
  8
0
  6
BYLAYER
 62
    7
 10
-12.28684999436071
 20
-19.82707073431573
 30
0
  0
VERTEX
  5
2F5
  8
0
  6
BYLAYER
 62
    7
 10
-11.77917161216475
 20
-20.1340668593535
 30
0
  0
VERTEX
  5
2F6
  8
0
  6
BYLAYER
 62
    7
 10
-11.26433773743748
 20
-20.42790788479742
 30
0
  0
VERTEX
  5
2F7
  8
0
  6
BYLAYER
 62
    7
 10
-10.74261322030143
 20
-20.70848410838844
 30
0
  0
VERTEX
  5
2F8
  8
0
  6
BYLAYER
 62
    7
 10
-10.21426291087913
 20
-20.97568582786748
 30
0
  0
VERTEX
  5
2F9
  8
0
  6
BYLAYER
 62
    7
 10
-9.679551659293079
 20
-21.22940334097546
 30
0
  0
VERTEX
  5
2FA
  8
0
  6
BYLAYER
 62
    7
 10
-9.138744315665809
 20
-21.46952694545332
 30
0
  0
VERTEX
  5
2FB
  8
0
  6
BYLAYER
 62
    7
 10
-8.592105730119837
 20
-21.69594693904199
 30
0
  0
VERTEX
  5
2FC
  8
0
  6
BYLAYER
 62
    7
 10
-8.039900752777688
 20
-21.90855361948239
 30
0
  0
VERTEX
  5
2FD
  8
0
  6
BYLAYER
 62
    7
 10
-7.48239423376188
 20
-22.10723728451546
 30
0
  0
VERTEX
  5
2FE
  8
0
  6
BYLAYER
 62
    7
 10
-6.91985102319493
 20
-22.29188823188211
 30
0
  0
VERTEX
  5
2FF
  8
0
  6
BYLAYER
 62
    7
 10
-6.352535971199361
 20
-22.46239675932328
 30
0
  0
VERTEX
  5
300
  8
0
  6
BYLAYER
 62
    7
 10
-5.780713927897694
 20
-22.6186531645799
 30
0
  0
VERTEX
  5
301
  8
0
  6
BYLAYER
 62
    7
 10
-5.204649743412448
 20
-22.76054774539291
 30
0
  0
VERTEX
  5
302
  8
0
  6
BYLAYER
 62
    7
 10
-4.624608267866141
 20
-22.88797079950321
 30
0
  0
VERTEX
  5
303
  8
0
  6
BYLAYER
 62
    7
 10
-4.040854351381298
 20
-23.00081262465174
 30
0
  0
VERTEX
  5
304
  8
0
  6
BYLAYER
 62
    7
 10
-3.453652844080436
 20
-23.09896351857943
 30
0
  0
VERTEX
  5
305
  8
0
  6
BYLAYER
 62
    7
 10
-2.863268596086076
 20
-23.18231377902722
 30
0
  0
VERTEX
  5
306
  8
0
  6
BYLAYER
 62
    7
 10
-2.269966457520738
 20
-23.25075370373603
 30
0
  0
VERTEX
  5
307
  8
0
  6
BYLAYER
 62
    7
 10
-1.674011278506942
 20
-23.30417359044678
 30
0
  0
VERTEX
  5
308
  8
0
  6
BYLAYER
 62
    7
 10
-1.075667909167209
 20
-23.3424637369004
 30
0
  0
VERTEX
  5
309
  8
0
  6
BYLAYER
 62
    7
 10
-0.4752011996240594
 20
-23.36551444083784
 30
0
  0
VERTEX
  5
30A
  8
0
  6
BYLAYER
 62
    7
 10
0.127124
 20
-23.373216
 30
0
  0
SEQEND
  5
30B
  8
0
  6
BYLAYER
 62
    7
  0
POLYLINE
  5
30C
  8
0
  6
BYLAYER
 62
    7
 66
    1
 10
0
 20
0
 30
0
 70
    0
  0
VERTEX
  5
30D
  8
0
  6
BYLAYER
 62
    7
 10
0.127124
 20
-23.373216
 30
0
  0
VERTEX
  5
30E
  8
0
  6
BYLAYER
 62
    7
 10
0.72944036091437
 20
-23.36550142304723
 30
0
  0
VERTEX
  5
30F
  8
0
  6
BYLAYER
 62
    7
 10
1.329897982007989
 20
-23.34243818146421
 30
0
  0
VERTEX
  5
310
  8
0
  6
BYLAYER
 62
    7
 10
1.928232025645329
 20
-23.30413597690578
 30
0
  0
VERTEX
  5
311
  8
0
  6
BYLAYER
 62
    7
 10
2.524177654190864
 20
-23.25070451102682
 30
0
  0
VERTEX
  5
312
  8
0
  6
BYLAYER
 62
    7
 10
3.117470030009063
 20
-23.18225348548219
 30
0
  0
VERTEX
  5
313
  8
0
  6
BYLAYER
 62
    7
 10
3.707844315464403
 20
-23.09889260192676
 30
0
  0
VERTEX
  5
314
  8
0
  6
BYLAYER
 62
    7
 10
4.295035672921352
 20
-23.00073156201537
 30
0
  0
VERTEX
  5
315
  8
0
  6
BYLAYER
 62
    7
 10
4.878779264744385
 20
-22.88788006740291
 30
0
  0
VERTEX
  5
316
  8
0
  6
BYLAYER
 62
    7
 10
5.458810253297974
 20
-22.76044781974421
 30
0
  0
VERTEX
  5
317
  8
0
  6
BYLAYER
 62
    7
 10
6.034863800946593
 20
-22.61854452069417
 30
0
  0
VERTEX
  5
318
  8
0
  6
BYLAYER
 62
    7
 10
6.606675070054711
 20
-22.46227987190762
 30
0
  0
VERTEX
  5
319
  8
0
  6
BYLAYER
 62
    7
 10
7.173979222986805
 20
-22.29176357503944
 30
0
  0
VERTEX
  5
31A
  8
0
  6
BYLAYER
 62
    7
 10
7.736511422107344
 20
-22.10710533174448
 30
0
  0
VERTEX
  5
31B
  8
0
  6
BYLAYER
 62
    7
 10
8.294006829780804
 20
-21.90841484367762
 30
0
  0
VERTEX
  5
31C
  8
0
  6
BYLAYER
 62
    7
 10
8.846200608371653
 20
-21.69580181249371
 30
0
  0
VERTEX
  5
31D
  8
0
  6
BYLAYER
 62
    7
 10
9.392827920244365
 20
-21.4693759398476
 30
0
  0
VERTEX
  5
31E
  8
0
  6
BYLAYER
 62
    7
 10
9.933623927763414
 20
-21.22924692739418
 30
0
  0
VERTEX
  5
31F
  8
0
  6
BYLAYER
 62
    7
 10
10.46832379329327
 20
-20.97552447678829
 30
0
  0
VERTEX
  5
320
  8
0
  6
BYLAYER
 62
    7
 10
10.99666267919841
 20
-20.70831828968481
 30
0
  0
VERTEX
  5
321
  8
0
  6
BYLAYER
 62
    7
 10
11.5183757478433
 20
-20.42773806773858
 30
0
  0
VERTEX
  5
322
  8
0
  6
BYLAYER
 62
    7
 10
12.03319816159242
 20
-20.13389351260448
 30
0
  0
VERTEX
  5
323
  8
0
  6
BYLAYER
 62
    7
 10
12.54086508281024
 20
-19.82689432593737
 30
0
  0
VERTEX
  5
324
  8
0
  6
BYLAYER
 62
    7
 10
13.04111167386123
 20
-19.50685020939211
 30
0
  0
VERTEX
  5
325
  8
0
  6
BYLAYER
 62
    7
 10
13.53367309710986
 20
-19.17387086462355
 30
0
  0
VERTEX
  5
326
  8
0
  6
BYLAYER
 62
    7
 10
14.01828451492061
 20
-18.82806599328657
 30
0
  0
VERTEX
  5
327
  8
0
  6
BYLAYER
 62
    7
 10
14.49468108965794
 20
-18.46954529703602
 30
0
  0
VERTEX
  5
328
  8
0
  6
BYLAYER
 62
    7
 10
14.96259798368634
 20
-18.09841847752678
 30
0
  0
VERTEX
  5
329
  8
0
  6
BYLAYER
 62
    7
 10
15.42177035937027
 20
-17.71479523641369
 30
0
  0
VERTEX
  5
32A
  8
0
  6
BYLAYER
 62
    7
 10
15.87193337907421
 20
-17.31878527535162
 30
0
  0
VERTEX
  5
32B
  8
0
  6
BYLAYER
 62
    7
 10
16.31282220516263
 20
-16.91049829599544
 30
0
  0
VERTEX
  5
32C
  8
0
  6
BYLAYER
 62
    7
 10
16.744172
 20
-16.490044
 30
0
  0
SEQEND
  5
32D
  8
0
  6
BYLAYER
 62
    7
  0
POLYLINE
  5
32E
  8
0
  6
BYLAYER
 62
    7
 66
    1
 10
0
 20
0
 30
0
 70
    0
  0
VERTEX
  5
32F
  8
0
  6
BYLAYER
 62
    7
 10
16.744172
 20
-16.490044
 30
0
  0
VERTEX
  5
330
  8
0
  6
BYLAYER
 62
    7
 10
17.16461690047329
 20
-16.05868495267027
 30
0
  0
VERTEX
  5
331
  8
0
  6
BYLAYER
 62
    7
 10
17.57289427766775
 20
-15.61778714477527
 30
0
  0
VERTEX
  5
332
  8
0
  6
BYLAYER
 62
    7
 10
17.96889443556779
 20
-15.16761541616596
 30
0
  0
VERTEX
  5
333
  8
0
  6
BYLAYER
 62
    7
 10
18.35250767815783
 20
-14.7084346066933
 30
0
  0
VERTEX
  5
334
  8
0
  6
BYLAYER
 62
    7
 10
18.72362430942231
 20
-14.24050955620825
 30
0
  0
VERTEX
  5
335
  8
0
  6
BYLAYER
 62
    7
 10
19.08213463334564
 20
-13.76410510456178
 30
0
  0
VERTEX
  5
336
  8
0
  6
BYLAYER
 62
    7
 10
19.42792895391226
 20
-13.27948609160485
 30
0
  0
VERTEX
  5
337
  8
0
  6
BYLAYER
 62
    7
 10
19.76089757510658
 20
-12.78691735718841
 30
0
  0
VERTEX
  5
338
  8
0
  6
BYLAYER
 62
    7
 10
20.08093080091303
 20
-12.28666374116344
 30
0
  0
VERTEX
  5
339
  8
0
  6
BYLAYER
 62
    7
 10
20.38791893531604
 20
-11.77899008338089
 30
0
  0
VERTEX
  5
33A
  8
0
  6
BYLAYER
 62
    7
 10
20.68175228230002
 20
-11.26416122369172
 30
0
  0
VERTEX
  5
33B
  8
0
  6
BYLAYER
 62
    7
 10
20.96232114584942
 20
-10.7424420019469
 30
0
  0
VERTEX
  5
33C
  8
0
  6
BYLAYER
 62
    7
 10
21.22951582994864
 20
-10.21409725799738
 30
0
  0
VERTEX
  5
33D
  8
0
  6
BYLAYER
 62
    7
 10
21.48322663858212
 20
-9.67939183169414
 30
0
  0
VERTEX
  5
33E
  8
0
  6
BYLAYER
 62
    7
 10
21.72334387573428
 20
-9.138590562888124
 30
0
  0
VERTEX
  5
33F
  8
0
  6
BYLAYER
 62
    7
 10
21.94975784538954
 20
-8.5919582914303
 30
0
  0
VERTEX
  5
340
  8
0
  6
BYLAYER
 62
    7
 10
22.16235885153234
 20
-8.039759857171632
 30
0
  0
VERTEX
  5
341
  8
0
  6
BYLAYER
 62
    7
 10
22.36103719814709
 20
-7.482260099963081
 30
0
  0
VERTEX
  5
342
  8
0
  6
BYLAYER
 62
    7
 10
22.54568318921822
 20
-6.919723859655606
 30
0
  0
VERTEX
  5
343
  8
0
  6
BYLAYER
 62
    7
 10
22.71618712873015
 20
-6.35241597610017
 30
0
  0
VERTEX
  5
344
  8
0
  6
BYLAYER
 62
    7
 10
22.87243932066731
 20
-5.780601289147735
 30
0
  0
VERTEX
  5
345
  8
0
  6
BYLAYER
 62
    7
 10
23.01433006901413
 20
-5.204544638649264
 30
0
  0
VERTEX
  5
346
  8
0
  6
BYLAYER
 62
    7
 10
23.14174967775502
 20
-4.624510864455716
 30
0
  0
VERTEX
  5
347
  8
0
  6
BYLAYER
 62
    7
 10
23.25458845087443
 20
-4.040764806418053
 30
0
  0
VERTEX
  5
348
  8
0
  6
BYLAYER
 62
    7
 10
23.35273669235675
 20
-3.45357130438724
 30
0
  0
VERTEX
  5
349
  8
0
  6
BYLAYER
 62
    7
 10
23.43608470618643
 20
-2.863195198214235
 30
0
  0
VERTEX
  5
34A
  8
0
  6
BYLAYER
 62
    7
 10
23.50452279634789
 20
-2.269901327750001
 30
0
  0
VERTEX
  5
34B
  8
0
  6
BYLAYER
 62
    7
 10
23.55794126682555
 20
-1.673954532845501
 30
0
  0
VERTEX
  5
34C
  8
0
  6
BYLAYER
 62
    7
 10
23.59623042160384
 20
-1.075619653351695
 30
0
  0
VERTEX
  5
34D
  8
0
  6
BYLAYER
 62
    7
 10
23.61928056466718
 20
-0.4751615291195446
 30
0
  0
VERTEX
  5
34E
  8
0
  6
BYLAYER
 62
    7
 10
23.626982
 20
0.127155
 30
0
  0
SEQEND
  5
34F
  8
0
  6
BYLAYER
 62
    7
  0
POLYLINE
  5
350
  8
0
  6
BYLAYER
 62
    7
 66
    1
 10
0
 20
0
 30
0
 70
    0
  0
VERTEX
  5
351
  8
0
  6
BYLAYER
 62
    7
 10
23.626982
 20
0.127155
 30
0
  0
VERTEX
  5
352
  8
0
  6
BYLAYER
 62
    7
 10
23.5944012098956
 20
1.375205004296599
 30
0
  0
VERTEX
  5
353
  8
0
  6
BYLAYER
 62
    7
 10
23.49775587063207
 20
2.606288308046055
 30
0
  0
VERTEX
  5
354
  8
0
  6
BYLAYER
 62
    7
 10
23.3386700449129
 20
3.818780847537847
 30
0
  0
VERTEX
  5
355
  8
0
  6
BYLAYER
 62
    7
 10
23.11876779544158
 20
5.011058559061462
 30
0
  0
VERTEX
  5
356
  8
0
  6
BYLAYER
 62
    7
 10
22.83967318492162
 20
6.181497378906381
 30
0
  0
VERTEX
  5
357
  8
0
  6
BYLAYER
 62
    7
 10
22.50301027605653
 20
7.328473243362091
 30
0
  0
VERTEX
  5
358
  8
0
  6
BYLAYER
 62
    7
 10
22.1104031315498
 20
8.450362088718069
 30
0
  0
VERTEX
  5
359
  8
0
  6
BYLAYER
 62
    7
 10
21.66347581410493
 20
9.545539851263802
 30
0
  0
VERTEX
  5
35A
  8
0
  6
BYLAYER
 62
    7
 10
21.16385238642543
 20
10.61238246728877
 30
0
  0
VERTEX
  5
35B
  8
0
  6
BYLAYER
 62
    7
 10
20.6131569112148
 20
11.64926587308247
 30
0
  0
VERTEX
  5
35C
  8
0
  6
BYLAYER
 62
    7
 10
20.01301345117653
 20
12.65456600493437
 30
0
  0
VERTEX
  5
35D
  8
0
  6
BYLAYER
 62
    7
 10
19.36504606901413
 20
13.62665879913396
 30
0
  0
VERTEX
  5
35E
  8
0
  6
BYLAYER
 62
    7
 10
18.6708788274311
 20
14.56392019197073
 30
0
  0
VERTEX
  5
35F
  8
0
  6
BYLAYER
 62
    7
 10
17.93213578913095
 20
15.46472611973414
 30
0
  0
VERTEX
  5
360
  8
0
  6
BYLAYER
 62
    7
 10
17.15044101681717
 20
16.3274525187137
 30
0
  0
VERTEX
  5
361
  8
0
  6
BYLAYER
 62
    7
 10
16.32741857319325
 20
17.15047532519888
 30
0
  0
VERTEX
  5
362
  8
0
  6
BYLAYER
 62
    7
 10
15.46469252096272
 20
17.93217047547917
 30
0
  0
VERTEX
  5
363
  8
0
  6
BYLAYER
 62
    7
 10
14.56388692282905
 20
18.67091390584404
 30
0
  0
VERTEX
  5
364
  8
0
  6
BYLAYER
 62
    7
 10
13.62662584149576
 20
19.36508155258299
 30
0
  0
VERTEX
  5
365
  8
0
  6
BYLAYER
 62
    7
 10
12.65453333966635
 20
20.01304935198549
 30
0
  0
VERTEX
  5
366
  8
0
  6
BYLAYER
 62
    7
 10
11.64923348004432
 20
20.61319324034104
 30
0
  0
VERTEX
  5
367
  8
0
  6
BYLAYER
 62
    7
 10
10.61235032533317
 20
21.1638891539391
 30
0
  0
VERTEX
  5
368
  8
0
  6
BYLAYER
 62
    7
 10
9.545507938236394
 20
21.66351302906918
 30
0
  0
VERTEX
  5
369
  8
0
  6
BYLAYER
 62
    7
 10
8.450330381457503
 20
22.11044080202074
 30
0
  0
VERTEX
  5
36A
  8
0
  6
BYLAYER
 62
    7
 10
7.328441717699994
 20
22.50304840908328
 30
0
  0
VERTEX
  5
36B
  8
0
  6
BYLAYER
 62
    7
 10
6.181466009667368
 20
22.83971178654627
 30
0
  0
VERTEX
  5
36C
  8
0
  6
BYLAYER
 62
    7
 10
5.011027320063127
 20
23.1188068706992
 30
0
  0
VERTEX
  5
36D
  8
0
  6
BYLAYER
 62
    7
 10
3.81874971159077
 20
23.33870959783156
 30
0
  0
VERTEX
  5
36E
  8
0
  6
BYLAYER
 62
    7
 10
2.606257246953801
 20
23.49779590423282
 30
0
  0
VERTEX
  5
36F
  8
0
  6
BYLAYER
 62
    7
 10
1.375173988855719
 20
23.59444172619247
 30
0
  0
VERTEX
  5
370
  8
0
  6
BYLAYER
 62
    7
 10
0.127124
 20
23.627023
 30
0
  0
SEQEND
  5
371
  8
0
  6
BYLAYER
 62
    7
  0
POLYLINE
  5
372
  8
0
  6
BYLAYER
 62
    7
 66
    1
 10
0
 20
0
 30
0
 70
    0
  0
VERTEX
  5
373
  8
0
  6
BYLAYER
 62
    7
 10
-22.982755
 20
4.109509
 30
0
  0
VERTEX
  5
374
  8
0
  6
BYLAYER
 62
    7
 10
-13.696786
 20
4.109509
 30
0
  0
SEQEND
  5
375
  8
0
  6
BYLAYER
 62
    7
  0
POLYLINE
  5
376
  8
0
  6
BYLAYER
 62
    7
 66
    1
 10
0
 20
0
 30
0
 70
    1
  0
VERTEX
  5
377
  8
0
  6
BYLAYER
 62
    7
 10
0.127124
 20
23.627023
 30
0
  0
SEQEND
  5
378
  8
0
  6
BYLAYER
 62
    7
  0
ENDSEC
  0
EOF
