999
dxfrw 0.6.3
  0
SECTION
  2
HEADER
  9
$ACADVER
  1
AC1009
  9
$DWGCODEPAGE
  3
ANSI_1252
  9
$INSBASE
 10
0
 20
0
 30
0
  9
$EXTMIN
 10
-22.982755
 20
-20.199989
 30
0
  9
$EXTMAX
 10
22.982755
 20
13.5
 30
0
  9
$LIMMIN
 10
0
 20
0
  9
$LIMMAX
 10
420
 20
297
  9
$ORTHOMODE
 70
    0
  9
$REGENMODE
 70
    1
  9
$FILLMODE
 70
    1
  9
$QTEXTMODE
 70
    0
  9
$MIRRTEXT
 70
    0
  9
$DRAGMODE
 70
    2
  9
$LTSCALE
 40
1
  9
$OSMODE
 70
    0
  9
$ATTMODE
 70
    0
  9
$TEXTSIZE
 40
2.5
  9
$TRACEWID
 40
15.68
  9
$TEXTSTYLE
  7
STANDARD
  9
$CLAYER
  8
0
  9
$CELTYPE
  6
BYLAYER
  9
$CECOLOR
 62
  256
  9
$DIMSCALE
 40
2.5
  9
$DIMASZ
 40
2.5
  9
$DIMEXO
 40
0.625
  9
$DIMDLI
 40
3.75
  9
$DIMRND
 40
0
  9
$DIMDLE
 40
0
  9
$DIMEXE
 40
1.25
  9
$DIMTP
 40
0
  9
$DIMTM
 40
0
  9
$DIMTXT
 40
2.5
  9
$DIMCEN
 40
2.5
  9
$DIMTSZ
 40
0
  9
$DIMTOL
 70
    0
  9
$DIMLIM
 70
    0
  9
$DIMTIH
 70
    0
  9
$DIMTOH
 70
    0
  9
$DIMSE1
 70
    0
  9
$DIMSE2
 70
    0
  9
$DIMTAD
 70
    1
  9
$DIMZIN
 70
    8
  9
$DIMBLK
  1

  9
$DIMASO
 70
    1
  9
$DIMSHO
 70
    1
  9
$DIMPOST
  1

  9
$DIMAPOST
  1

  9
$DIMALT
 70
    0
  9
$DIMALTD
 70
    3
  9
$DIMALTF
 40
0.03937
  9
$DIMLFAC
 40
1
  9
$DIMTOFL
 70
    1
  9
$DIMTVP
 40
0
  9
$DIMTIX
 70
    0
  9
$DIMSOXD
 70
    0
  9
$DIMSAH
 70
    0
  9
$DIMBLK1
  1

  9
$DIMBLK2
  1

  9
$DIMSTYLE
  2
STANDARD
  9
$DIMCLRD
 70
    0
  9
$DIMCLRE
 70
    0
  9
$DIMCLRT
 70
    0
  9
$DIMTFAC
 40
1
  9
$DIMGAP
 40
0.625
  9
$LUNITS
 70
    2
  9
$LUPREC
 70
    4
  9
$SKETCHINC
 40
1
  9
$FILLETRAD
 40
0
  9
$AUNITS
 70
    0
  9
$AUPREC
 70
    2
  9
$MENU
  1
.
  9
$ELEVATION
 40
0
  9
$PELEVATION
 40
0
  9
$THICKNESS
 40
0
  9
$LIMCHECK
 70
    0
  9
$BLIPMODE
 70
    0
  9
$CHAMFERA
 40
0
  9
$CHAMFERB
 40
0
  9
$SKPOLY
 70
    0
  9
$USRTIMER
 70
    1
  9
$ANGBASE
 50
0
  9
$ANGDIR
 70
    0
  9
$PDMODE
 70
   34
  9
$PDSIZE
 40
0
  9
$PLINEWID
 40
0
  9
$COORDS
 70
    2
  9
$SPLFRAME
 70
    0
  9
$SPLINETYPE
 70
    2
  9
$SPLINESEGS
 70
    8
  9
$ATTDIA
 70
    1
  9
$ATTREQ
 70
    1
  9
$HANDLING
 70
    1
  9
$HANDSEED
  5
20000
  9
$SURFTAB1
 70
    6
  9
$SURFTAB2
 70
    6
  9
$SURFTYPE
 70
    6
  9
$SURFU
 70
    6
  9
$SURFV
 70
    6
  9
$UCSNAME
  2

  9
$UCSORG
 10
0
 20
0
 30
0
  9
$UCSXDIR
 10
1
 20
0
 30
0
  9
$UCSYDIR
 10
0
 20
1
 30
0
  9
$PUCSNAME
  2

  9
$PUCSORG
 10
0
 20
0
 30
0
  9
$PUCSXDIR
 10
1
 20
0
 30
0
  9
$PUCSYDIR
 10
0
 20
1
 30
0
  9
$USERI1
 70
    0
  9
$USERI2
 70
    0
  9
$USERI3
 70
    0
  9
$USERI4
 70
    0
  9
$USERI5
 70
    0
  9
$USERR1
 40
0
  9
$USERR2
 40
0
  9
$USERR3
 40
0
  9
$USERR4
 40
0
  9
$USERR5
 40
0
  9
$WORLDVIEW
 70
    1
  9
$SHADEDGE
 70
    3
  9
$SHADEDIF
 70
   70
  9
$TILEMODE
 70
    1
  9
$MAXACTVP
 70
   64
  9
$PLIMCHECK
 70
    0
  9
$PEXTMIN
 10
0
 20
0
 30
0
  9
$PEXTMAX
 10
0
 20
0
 30
0
  9
$GRIDMODE
 70
    0
  9
$SNAPSTYLE
 70
    0
  9
$PLIMMIN
 10
0
 20
0
  9
$PLIMMAX
 10
210
 20
297
  9
$UNITMODE
 70
    0
  9
$VISRETAIN
 70
    1
  9
$PLINEGEN
 70
    0
  9
$PSLTSCALE
 70
    1
  0
ENDSEC
  0
SECTION
  2
TABLES
  0
TABLE
  2
VPORT
 70
    1
  0
VPORT
  2
*ACTIVE
 70
    0
 10
0
 20
0
 11
1
 21
1
 12
32.26001092680086
 22
15.91915571878082
 13
0
 23
0
 14
10
 24
10
 15
10
 25
10
 16
0
 26
0
 36
1
 17
0
 27
0
 37
0
 40
56.50773155805641
 41
1.813432835820896
 42
50
 43
0
 44
0
 50
0
 51
0
 71
    0
 72
  100
 73
    1
 74
    3
 75
    0
 76
    0
 77
    0
 78
    0
  0
ENDTAB
  0
TABLE
  2
LTYPE
 70
    4
  0
LTYPE
  2
BYBLOCK
 70
    0
  3

 72
   65
 73
    0
 40
0
  0
LTYPE
  2
BYLAYER
 70
    0
  3

 72
   65
 73
    0
 40
0
  0
LTYPE
  2
CONTINUOUS
 70
    0
  3
Solid line
 72
   65
 73
    0
 40
0
  0
LTYPE
  2
DOT
 70
    0
  3
Dot . . . . . . . . . . . . . . . . . . . . . .
 72
   65
 73
    2
 40
6.35
 49
0
 49
-6.35
  0
LTYPE
  2
DOTTINY
 70
    0
  3
Dot (.15x) .....................................
 72
   65
 73
    2
 40
0.9525
 49
0
 49
-0.9525
  0
LTYPE
  2
DOT2
 70
    0
  3
Dot (.5x) .....................................
 72
   65
 73
    2
 40
3.175
 49
0
 49
-3.175
  0
LTYPE
  2
DOTX2
 70
    0
  3
Dot (2x) .  .  .  .  .  .  .  .  .  .  .  .  .
 72
   65
 73
    2
 40
12.7
 49
0
 49
-12.7
  0
LTYPE
  2
DASHED
 70
    0
  3
Dashed _ _ _ _ _ _ _ _ _ _ _ _ _ _ _ _ _
 72
   65
 73
    2
 40
19.05
 49
12.7
 49
-6.35
  0
LTYPE
  2
DASHEDTINY
 70
    0
  3
Dashed (.15x) _ _ _ _ _ _ _ _ _ _ _ _ _ _ _ _ _
 72
   65
 73
    2
 40
2.8575
 49
1.905
 49
-0.9525
  0
LTYPE
  2
DASHED2
 70
    0
  3
Dashed (.5x) _ _ _ _ _ _ _ _ _ _ _ _ _ _ _ _ _
 72
   65
 73
    2
 40
9.524999999999999
 49
6.35
 49
-3.175
  0
LTYPE
  2
DASHEDX2
 70
    0
  3
Dashed (2x) ____  ____  ____  ____  ____  ___
 72
   65
 73
    2
 40
38.09999999999999
 49
25.4
 49
-12.7
  0
LTYPE
  2
DASHDOT
 70
    0
  3
Dash dot __ . __ . __ . __ . __ . __ . __ . __
 72
   65
 73
    4
 40
25.4
 49
12.7
 49
-6.35
 49
0
 49
-6.35
  0
LTYPE
  2
DASHDOTTINY
 70
    0
  3
Dash dot (.15x) _._._._._._._._._._._._._._._.
 72
   65
 73
    4
 40
3.81
 49
1.905
 49
-0.9525
 49
0
 49
-0.9525
  0
LTYPE
  2
DASHDOT2
 70
    0
  3
Dash dot (.5x) _._._._._._._._._._._._._._._.
 72
   65
 73
    4
 40
12.7
 49
6.35
 49
-3.175
 49
0
 49
-3.175
  0
LTYPE
  2
DASHDOTX2
 70
    0
  3
Dash dot (2x) ____  .  ____  .  ____  .  ___
 72
   65
 73
    4
 40
50.8
 49
25.4
 49
-12.7
 49
0
 49
-12.7
  0
LTYPE
  2
DIVIDE
 70
    0
  3
Divide ____ . . ____ . . ____ . . ____ . . ____
 72
   65
 73
    6
 40
31.75
 49
12.7
 49
-6.35
 49
0
 49
-6.35
 49
0
 49
-6.35
  0
LTYPE
  2
DIVIDETINY
 70
    0
  3
Divide (.15x) __..__..__..__..__..__..__..__.._
 72
   65
 73
    6
 40
4.7625
 49
1.905
 49
-0.9525
 49
0
 49
-0.9525
 49
0
 49
-0.9525
  0
LTYPE
  2
DIVIDE2
 70
    0
  3
Divide (.5x) __..__..__..__..__..__..__..__.._
 72
   65
 73
    6
 40
15.875
 49
6.35
 49
-3.175
 49
0
 49
-3.175
 49
0
 49
-3.175
  0
LTYPE
  2
DIVIDEX2
 70
    0
  3
Divide (2x) ________  .  .  ________  .  .  _
 72
   65
 73
    6
 40
63.5
 49
25.4
 49
-12.7
 49
0
 49
-12.7
 49
0
 49
-12.7
  0
LTYPE
  2
BORDER
 70
    0
  3
Border __ __ . __ __ . __ __ . __ __ . __ __ .
 72
   65
 73
    6
 40
44.45
 49
12.7
 49
-6.35
 49
12.7
 49
-6.35
 49
0
 49
-6.35
  0
LTYPE
  2
BORDERTINY
 70
    0
  3
Border (.15x) __.__.__.__.__.__.__.__.__.__.__.
 72
   65
 73
    6
 40
6.6675
 49
1.905
 49
-0.9525
 49
1.905
 49
-0.9525
 49
0
 49
-0.9525
  0
LTYPE
  2
BORDER2
 70
    0
  3
Border (.5x) __.__.__.__.__.__.__.__.__.__.__.
 72
   65
 73
    6
 40
22.225
 49
6.35
 49
-3.175
 49
6.35
 49
-3.175
 49
0
 49
-3.175
  0
LTYPE
  2
BORDERX2
 70
    0
  3
Border (2x) ____  ____  .  ____  ____  .  ___
 72
   65
 73
    6
 40
88.89999999999999
 49
25.4
 49
-12.7
 49
25.4
 49
-12.7
 49
0
 49
-12.7
  0
LTYPE
  2
CENTER
 70
    0
  3
Center ____ _ ____ _ ____ _ ____ _ ____ _ ____
 72
   65
 73
    4
 40
50.8
 49
31.75
 49
-6.35
 49
6.35
 49
-6.35
  0
LTYPE
  2
CENTERTINY
 70
    0
  3
Center (.15x) ___ _ ___ _ ___ _ ___ _ ___ _ ___
 72
   65
 73
    4
 40
7.62
 49
4.7625
 49
-0.9525
 49
0.9525
 49
-0.9525
  0
LTYPE
  2
CENTER2
 70
    0
  3
Center (.5x) ___ _ ___ _ ___ _ ___ _ ___ _ ___
 72
   65
 73
    4
 40
28.575
 49
19.05
 49
-3.175
 49
3.175
 49
-3.175
  0
LTYPE
  2
CENTERX2
 70
    0
  3
Center (2x) ________  __  ________  __  _____
 72
   65
 73
    4
 40
101.6
 49
63.5
 49
-12.7
 49
12.7
 49
-12.7
  0
ENDTAB
  0
TABLE
  2
LAYER
 70
    1
  0
LAYER
  2
0
 70
    0
 62
    7
  6
CONTINUOUS
  0
ENDTAB
  0
TABLE
  2
STYLE
 70
    3
  0
STYLE
  2
STANDARD
 70
    0
 40
0
 41
1
 50
0
 71
    0
 42
1
  3
TXT
  4

  0
ENDTAB
  0
TABLE
  2
VIEW
 70
    0
  0
ENDTAB
  0
TABLE
  2
UCS
 70
    0
  0
ENDTAB
  0
TABLE
  2
APPID
 70
    1
  0
APPID
  2
ACAD
 70
    0
  0
APPID
  2
LIBRECAD
 70
    0
  0
ENDTAB
  0
TABLE
  2
DIMSTYLE
 70
    1
  0
DIMSTYLE
  2
STANDARD
 70
    0
  3

  4

  5

  6

  7

 40
1
 41
2.5
 42
0.625
 43
0.38
 44
1.25
 45
0
 46
0
 47
0
 48
0
 49
1
140
2.5
141
0.09
142
2.5
143
25.4
144
1
145
0
146
1
147
0.625
 71
    0
 72
    0
 73
    0
 74
    1
 75
    0
 76
    0
 77
    0
 78
    1
170
    0
171
    2
172
    0
173
    0
174
    0
175
    0
176
    0
177
    0
178
    0
  0
ENDTAB
  0
ENDSEC
  0
SECTION
  2
BLOCKS
  0
BLOCK
  8
0
  2
$MODEL_SPACE
 70
    0
 10
0
 20
0
 30
0
  3
$MODEL_SPACE
  1

  0
ENDBLK
  8
0
  0
BLOCK
  8
0
  2
$PAPER_SPACE
 70
    0
 10
0
 20
0
 30
0
  3
$PAPER_SPACE
  1

  0
ENDBLK
  8
0
  0
ENDSEC
  0
SECTION
  2
ENTITIES
  0
POLYLINE
  5
31
  8
0
  6
BYLAYER
 62
    7
 66
    1
 10
0
 20
0
 30
0
 70
    0
  0
VERTEX
  5
32
  8
0
  6
BYLAYER
 62
    7
 10
15.65
 20
13.5
 30
0
  0
VERTEX
  5
33
  8
0
  6
BYLAYER
 62
    7
 10
15.64816409163841
 20
13.60864977983283
 30
0
  0
VERTEX
  5
34
  8
0
  6
BYLAYER
 62
    7
 10
15.64262364257662
 20
13.71668764969286
 30
0
  0
VERTEX
  5
35
  8
0
  6
BYLAYER
 62
    7
 10
15.63342421201034
 20
13.82403466318687
 30
0
  0
VERTEX
  5
36
  8
0
  6
BYLAYER
 62
    7
 10
15.62061135913531
 20
13.93061187392166
 30
0
  0
VERTEX
  5
37
  8
0
  6
BYLAYER
 62
    7
 10
15.60423064314726
 20
14.03634033550401
 30
0
  0
VERTEX
  5
38
  8
0
  6
BYLAYER
 62
    7
 10
15.58432762324192
 20
14.14114110154073
 30
0
  0
VERTEX
  5
39
  8
0
  6
BYLAYER
 62
    7
 10
15.56094785861502
 20
14.24493522563862
 30
0
  0
VERTEX
  5
3A
  8
0
  6
BYLAYER
 62
    7
 10
15.53413690846229
 20
14.34764376140445
 30
0
  0
VERTEX
  5
3B
  8
0
  6
BYLAYER
 62
    7
 10
15.50394033197945
 20
14.44918776244503
 30
0
  0
VERTEX
  5
3C
  8
0
  6
BYLAYER
 62
    7
 10
15.47040368836226
 20
14.54948828236716
 30
0
  0
VERTEX
  5
3D
  8
0
  6
BYLAYER
 62
    7
 10
15.43357253680642
 20
14.64846637477762
 30
0
  0
VERTEX
  5
3E
  8
0
  6
BYLAYER
 62
    7
 10
15.39349243650767
 20
14.74604309328321
 30
0
  0
VERTEX
  5
3F
  8
0
  6
BYLAYER
 62
    7
 10
15.35020894666174
 20
14.84213949149072
 30
0
  0
VERTEX
  5
40
  8
0
  6
BYLAYER
 62
    7
 10
15.30376762646437
 20
14.93667662300695
 30
0
  0
VERTEX
  5
41
  8
0
  6
BYLAYER
 62
    7
 10
15.25421403511128
 20
15.02957554143869
 30
0
  0
VERTEX
  5
42
  8
0
  6
BYLAYER
 62
    7
 10
15.20159373179819
 20
15.12075730039273
 30
0
  0
VERTEX
  5
43
  8
0
  6
BYLAYER
 62
    7
 10
15.14595227572086
 20
15.21014295347588
 30
0
  0
VERTEX
  5
44
  8
0
  6
BYLAYER
 62
    7
 10
15.08733522607499
 20
15.29765355429492
 30
0
  0
VERTEX
  5
45
  8
0
  6
BYLAYER
 62
    7
 10
15.02578814205633
 20
15.38321015645665
 30
0
  0
VERTEX
  5
46
  8
0
  6
BYLAYER
 62
    7
 10
14.9613565828606
 20
15.46673381356786
 30
0
  0
VERTEX
  5
47
  8
0
  6
BYLAYER
 62
    7
 10
14.89408610768353
 20
15.54814557923534
 30
0
  0
VERTEX
  5
48
  8
0
  6
BYLAYER
 62
    7
 10
14.82402227572086
 20
15.62736650706589
 30
0
  0
VERTEX
  5
49
  8
0
  6
BYLAYER
 62
    7
 10
14.75121064616831
 20
15.70431765066631
 30
0
  0
VERTEX
  5
4A
  8
0
  6
BYLAYER
 62
    7
 10
14.67569677822161
 20
15.77892006364338
 30
0
  0
VERTEX
  5
4B
  8
0
  6
BYLAYER
 62
    7
 10
14.5975262310765
 20
15.85109479960391
 30
0
  0
VERTEX
  5
4C
  8
0
  6
BYLAYER
 62
    7
 10
14.5167445639287
 20
15.92076291215468
 30
0
  0
VERTEX
  5
4D
  8
0
  6
BYLAYER
 62
    7
 10
14.43339733597395
 20
15.98784545490249
 30
0
  0
VERTEX
  5
4E
  8
0
  6
BYLAYER
 62
    7
 10
14.34753010640798
 20
16.05226348145413
 30
0
  0
VERTEX
  5
4F
  8
0
  6
BYLAYER
 62
    7
 10
14.25918843442651
 20
16.1139380454164
 30
0
  0
VERTEX
  5
50
  8
0
  6
BYLAYER
 62
    7
 10
14.16841787922527
 20
16.17279020039609
 30
0
  0
VERTEX
  5
51
  8
0
  6
BYLAYER
 62
    7
 10
14.075264
 20
16.228741
 30
0
  0
SEQEND
  5
52
  8
0
  6
BYLAYER
 62
    7
  0
POLYLINE
  5
53
  8
0
  6
BYLAYER
 62
    7
 66
    1
 10
0
 20
0
 30
0
 70
    0
  0
VERTEX
  5
54
  8
0
  6
BYLAYER
 62
    7
 10
14.075264
 20
16.228741
 30
0
  0
VERTEX
  5
55
  8
0
  6
BYLAYER
 62
    7
 10
13.98024233815582
 20
16.28145758688865
 30
0
  0
VERTEX
  5
56
  8
0
  6
BYLAYER
 62
    7
 10
13.8838990215837
 20
16.33065973465141
 30
0
  0
VERTEX
  5
57
  8
0
  6
BYLAYER
 62
    7
 10
13.78632519888557
 20
16.37634744328824
 30
0
  0
VERTEX
  5
58
  8
0
  6
BYLAYER
 62
    7
 10
13.68761201866336
 20
16.41852071279917
 30
0
  0
VERTEX
  5
59
  8
0
  6
BYLAYER
 62
    7
 10
13.58785062951898
 20
16.45717954318418
 30
0
  0
VERTEX
  5
5A
  8
0
  6
BYLAYER
 62
    7
 10
13.48713218005438
 20
16.49232393444329
 30
0
  0
VERTEX
  5
5B
  8
0
  6
BYLAYER
 62
    7
 10
13.38554781887147
 20
16.52395388657648
 30
0
  0
VERTEX
  5
5C
  8
0
  6
BYLAYER
 62
    7
 10
13.28318869457219
 20
16.55206939958376
 30
0
  0
VERTEX
  5
5D
  8
0
  6
BYLAYER
 62
    7
 10
13.18014595575845
 20
16.57667047346514
 30
0
  0
VERTEX
  5
5E
  8
0
  6
BYLAYER
 62
    7
 10
13.07651075103219
 20
16.59775710822061
 30
0
  0
VERTEX
  5
5F
  8
0
  6
BYLAYER
 62
    7
 10
12.97237422899533
 20
16.61532930385016
 30
0
  0
VERTEX
  5
60
  8
0
  6
BYLAYER
 62
    7
 10
12.86782753824981
 20
16.6293870603538
 30
0
  0
VERTEX
  5
61
  8
0
  6
BYLAYER
 62
    7
 10
12.76296182739754
 20
16.63993037773153
 30
0
  0
VERTEX
  5
62
  8
0
  6
BYLAYER
 62
    7
 10
12.65786824504045
 20
16.64695925598335
 30
0
  0
VERTEX
  5
63
  8
0
  6
BYLAYER
 62
    7
 10
12.55263793978047
 20
16.65047369510926
 30
0
  0
VERTEX
  5
64
  8
0
  6
BYLAYER
 62
    7
 10
12.44736206021953
 20
16.65047369510926
 30
0
  0
VERTEX
  5
65
  8
0
  6
BYLAYER
 62
    7
 10
12.34213175495955
 20
16.64695925598335
 30
0
  0
VERTEX
  5
66
  8
0
  6
BYLAYER
 62
    7
 10
12.23703817260247
 20
16.63993037773153
 30
0
  0
VERTEX
  5
67
  8
0
  6
BYLAYER
 62
    7
 10
12.13217246175019
 20
16.6293870603538
 30
0
  0
VERTEX
  5
68
  8
0
  6
BYLAYER
 62
    7
 10
12.02762577100467
 20
16.61532930385016
 30
0
  0
VERTEX
  5
69
  8
0
  6
BYLAYER
 62
    7
 10
11.92348924896781
 20
16.59775710822061
 30
0
  0
VERTEX
  5
6A
  8
0
  6
BYLAYER
 62
    7
 10
11.81985404424155
 20
16.57667047346514
 30
0
  0
VERTEX
  5
6B
  8
0
  6
BYLAYER
 62
    7
 10
11.71681130542781
 20
16.55206939958377
 30
0
  0
VERTEX
  5
6C
  8
0
  6
BYLAYER
 62
    7
 10
11.61445218112853
 20
16.52395388657649
 30
0
  0
VERTEX
  5
6D
  8
0
  6
BYLAYER
 62
    7
 10
11.51286781994562
 20
16.49232393444329
 30
0
  0
VERTEX
  5
6E
  8
0
  6
BYLAYER
 62
    7
 10
11.41214937048102
 20
16.45717954318418
 30
0
  0
VERTEX
  5
6F
  8
0
  6
BYLAYER
 62
    7
 10
11.31238798133665
 20
16.41852071279917
 30
0
  0
VERTEX
  5
70
  8
0
  6
BYLAYER
 62
    7
 10
11.21367480111443
 20
16.37634744328824
 30
0
  0
VERTEX
  5
71
  8
0
  6
BYLAYER
 62
    7
 10
11.1161009784163
 20
16.33065973465141
 30
0
  0
VERTEX
  5
72
  8
0
  6
BYLAYER
 62
    7
 10
11.01975766184418
 20
16.28145758688866
 30
0
  0
VERTEX
  5
73
  8
0
  6
BYLAYER
 62
    7
 10
10.924736
 20
16.228741
 30
0
  0
SEQEND
  5
74
  8
0
  6
BYLAYER
 62
    7
  0
POLYLINE
  5
75
  8
0
  6
BYLAYER
 62
    7
 66
    1
 10
0
 20
0
 30
0
 70
    0
  0
VERTEX
  5
76
  8
0
  6
BYLAYER
 62
    7
 10
10.924736
 20
16.228741
 30
0
  0
VERTEX
  5
77
  8
0
  6
BYLAYER
 62
    7
 10
10.83158212077473
 20
16.17279020039609
 30
0
  0
VERTEX
  5
78
  8
0
  6
BYLAYER
 62
    7
 10
10.7408115655735
 20
16.1139380454164
 30
0
  0
VERTEX
  5
79
  8
0
  6
BYLAYER
 62
    7
 10
10.65246989359202
 20
16.05226348145413
 30
0
  0
VERTEX
  5
7A
  8
0
  6
BYLAYER
 62
    7
 10
10.56660266402605
 20
15.98784545490249
 30
0
  0
VERTEX
  5
7B
  8
0
  6
BYLAYER
 62
    7
 10
10.4832554360713
 20
15.92076291215468
 30
0
  0
VERTEX
  5
7C
  8
0
  6
BYLAYER
 62
    7
 10
10.4024737689235
 20
15.85109479960391
 30
0
  0
VERTEX
  5
7D
  8
0
  6
BYLAYER
 62
    7
 10
10.32430322177839
 20
15.77892006364338
 30
0
  0
VERTEX
  5
7E
  8
0
  6
BYLAYER
 62
    7
 10
10.24878935383169
 20
15.70431765066631
 30
0
  0
VERTEX
  5
7F
  8
0
  6
BYLAYER
 62
    7
 10
10.17597772427914
 20
15.62736650706589
 30
0
  0
VERTEX
  5
80
  8
0
  6
BYLAYER
 62
    7
 10
10.10591389231647
 20
15.54814557923534
 30
0
  0
VERTEX
  5
81
  8
0
  6
BYLAYER
 62
    7
 10
10.0386434171394
 20
15.46673381356785
 30
0
  0
VERTEX
  5
82
  8
0
  6
BYLAYER
 62
    7
 10
9.974211857943674
 20
15.38321015645665
 30
0
  0
VERTEX
  5
83
  8
0
  6
BYLAYER
 62
    7
 10
9.912664773925011
 20
15.29765355429492
 30
0
  0
VERTEX
  5
84
  8
0
  6
BYLAYER
 62
    7
 10
9.854047724279145
 20
15.21014295347588
 30
0
  0
VERTEX
  5
85
  8
0
  6
BYLAYER
 62
    7
 10
9.798406268201806
 20
15.12075730039274
 30
0
  0
VERTEX
  5
86
  8
0
  6
BYLAYER
 62
    7
 10
9.745785964888725
 20
15.02957554143869
 30
0
  0
VERTEX
  5
87
  8
0
  6
BYLAYER
 62
    7
 10
9.696232373535631
 20
14.93667662300695
 30
0
  0
VERTEX
  5
88
  8
0
  6
BYLAYER
 62
    7
 10
9.649791053338257
 20
14.84213949149072
 30
0
  0
VERTEX
  5
89
  8
0
  6
BYLAYER
 62
    7
 10
9.606507563492331
 20
14.74604309328321
 30
0
  0
VERTEX
  5
8A
  8
0
  6
BYLAYER
 62
    7
 10
9.566427463193584
 20
14.64846637477762
 30
0
  0
VERTEX
  5
8B
  8
0
  6
BYLAYER
 62
    7
 10
9.529596311637743
 20
14.54948828236716
 30
0
  0
VERTEX
  5
8C
  8
0
  6
BYLAYER
 62
    7
 10
9.496059668020544
 20
14.44918776244504
 30
0
  0
VERTEX
  5
8D
  8
0
  6
BYLAYER
 62
    7
 10
9.465863091537713
 20
14.34764376140445
 30
0
  0
VERTEX
  5
8E
  8
0
  6
BYLAYER
 62
    7
 10
9.439052141384984
 20
14.24493522563862
 30
0
  0
VERTEX
  5
8F
  8
0
  6
BYLAYER
 62
    7
 10
9.415672376758081
 20
14.14114110154073
 30
0
  0
VERTEX
  5
90
  8
0
  6
BYLAYER
 62
    7
 10
9.395769356852741
 20
14.03634033550401
 30
0
  0
VERTEX
  5
91
  8
0
  6
BYLAYER
 62
    7
 10
9.379388640864692
 20
13.93061187392166
 30
0
  0
VERTEX
  5
92
  8
0
  6
BYLAYER
 62
    7
 10
9.36657578798966
 20
13.82403466318687
 30
0
  0
VERTEX
  5
93
  8
0
  6
BYLAYER
 62
    7
 10
9.357376357423382
 20
13.71668764969286
 30
0
  0
VERTEX
  5
94
  8
0
  6
BYLAYER
 62
    7
 10
9.351835908361586
 20
13.60864977983284
 30
0
  0
VERTEX
  5
95
  8
0
  6
BYLAYER
 62
    7
 10
9.35
 20
13.5
 30
0
  0
SEQEND
  5
96
  8
0
  6
BYLAYER
 62
    7
  0
POLYLINE
  5
97
  8
0
  6
BYLAYER
 62
    7
 66
    1
 10
0
 20
0
 30
0
 70
    0
  0
VERTEX
  5
98
  8
0
  6
BYLAYER
 62
    7
 10
9.35
 20
13.5
 30
0
  0
VERTEX
  5
99
  8
0
  6
BYLAYER
 62
    7
 10
9.351835908361585
 20
13.39135022016717
 30
0
  0
VERTEX
  5
9A
  8
0
  6
BYLAYER
 62
    7
 10
9.357376357423382
 20
13.28331235030714
 30
0
  0
VERTEX
  5
9B
  8
0
  6
BYLAYER
 62
    7
 10
9.366575787989662
 20
13.17596533681313
 30
0
  0
VERTEX
  5
9C
  8
0
  6
BYLAYER
 62
    7
 10
9.379388640864692
 20
13.06938812607835
 30
0
  0
VERTEX
  5
9D
  8
0
  6
BYLAYER
 62
    7
 10
9.395769356852741
 20
12.96365966449599
 30
0
  0
VERTEX
  5
9E
  8
0
  6
BYLAYER
 62
    7
 10
9.415672376758083
 20
12.85885889845927
 30
0
  0
VERTEX
  5
9F
  8
0
  6
BYLAYER
 62
    7
 10
9.439052141384982
 20
12.75506477436139
 30
0
  0
VERTEX
  5
A0
  8
0
  6
BYLAYER
 62
    7
 10
9.465863091537713
 20
12.65235623859555
 30
0
  0
VERTEX
  5
A1
  8
0
  6
BYLAYER
 62
    7
 10
9.496059668020543
 20
12.55081223755497
 30
0
  0
VERTEX
  5
A2
  8
0
  6
BYLAYER
 62
    7
 10
9.529596311637743
 20
12.45051171763284
 30
0
  0
VERTEX
  5
A3
  8
0
  6
BYLAYER
 62
    7
 10
9.566427463193582
 20
12.35153362522238
 30
0
  0
VERTEX
  5
A4
  8
0
  6
BYLAYER
 62
    7
 10
9.606507563492331
 20
12.2539569067168
 30
0
  0
VERTEX
  5
A5
  8
0
  6
BYLAYER
 62
    7
 10
9.649791053338257
 20
12.15786050850928
 30
0
  0
VERTEX
  5
A6
  8
0
  6
BYLAYER
 62
    7
 10
9.696232373535633
 20
12.06332337699305
 30
0
  0
VERTEX
  5
A7
  8
0
  6
BYLAYER
 62
    7
 10
9.745785964888725
 20
11.97042445856131
 30
0
  0
VERTEX
  5
A8
  8
0
  6
BYLAYER
 62
    7
 10
9.798406268201806
 20
11.87924269960726
 30
0
  0
VERTEX
  5
A9
  8
0
  6
BYLAYER
 62
    7
 10
9.854047724279143
 20
11.78985704652412
 30
0
  0
VERTEX
  5
AA
  8
0
  6
BYLAYER
 62
    7
 10
9.912664773925011
 20
11.70234644570508
 30
0
  0
VERTEX
  5
AB
  8
0
  6
BYLAYER
 62
    7
 10
9.974211857943676
 20
11.61678984354335
 30
0
  0
VERTEX
  5
AC
  8
0
  6
BYLAYER
 62
    7
 10
10.0386434171394
 20
11.53326618643214
 30
0
  0
VERTEX
  5
AD
  8
0
  6
BYLAYER
 62
    7
 10
10.10591389231647
 20
11.45185442076466
 30
0
  0
VERTEX
  5
AE
  8
0
  6
BYLAYER
 62
    7
 10
10.17597772427914
 20
11.37263349293411
 30
0
  0
VERTEX
  5
AF
  8
0
  6
BYLAYER
 62
    7
 10
10.24878935383169
 20
11.29568234933369
 30
0
  0
VERTEX
  5
B0
  8
0
  6
BYLAYER
 62
    7
 10
10.32430322177839
 20
11.22107993635662
 30
0
  0
VERTEX
  5
B1
  8
0
  6
BYLAYER
 62
    7
 10
10.4024737689235
 20
11.14890520039609
 30
0
  0
VERTEX
  5
B2
  8
0
  6
BYLAYER
 62
    7
 10
10.48325543607129
 20
11.07923708784532
 30
0
  0
VERTEX
  5
B3
  8
0
  6
BYLAYER
 62
    7
 10
10.56660266402605
 20
11.01215454509751
 30
0
  0
VERTEX
  5
B4
  8
0
  6
BYLAYER
 62
    7
 10
10.65246989359202
 20
10.94773651854587
 30
0
  0
VERTEX
  5
B5
  8
0
  6
BYLAYER
 62
    7
 10
10.74081156557349
 20
10.8860619545836
 30
0
  0
VERTEX
  5
B6
  8
0
  6
BYLAYER
 62
    7
 10
10.83158212077473
 20
10.82720979960391
 30
0
  0
VERTEX
  5
B7
  8
0
  6
BYLAYER
 62
    7
 10
10.924736
 20
10.771259
 30
0
  0
SEQEND
  5
B8
  8
0
  6
BYLAYER
 62
    7
  0
POLYLINE
  5
B9
  8
0
  6
BYLAYER
 62
    7
 66
    1
 10
0
 20
0
 30
0
 70
    0
  0
VERTEX
  5
BA
  8
0
  6
BYLAYER
 62
    7
 10
10.924736
 20
10.771259
 30
0
  0
VERTEX
  5
BB
  8
0
  6
BYLAYER
 62
    7
 10
11.01975766184418
 20
10.71854241311134
 30
0
  0
VERTEX
  5
BC
  8
0
  6
BYLAYER
 62
    7
 10
11.1161009784163
 20
10.6693402653486
 30
0
  0
VERTEX
  5
BD
  8
0
  6
BYLAYER
 62
    7
 10
11.21367480111443
 20
10.62365255671176
 30
0
  0
VERTEX
  5
BE
  8
0
  6
BYLAYER
 62
    7
 10
11.31238798133665
 20
10.58147928720083
 30
0
  0
VERTEX
  5
BF
  8
0
  6
BYLAYER
 62
    7
 10
11.41214937048102
 20
10.54282045681582
 30
0
  0
VERTEX
  5
C0
  8
0
  6
BYLAYER
 62
    7
 10
11.51286781994562
 20
10.50767606555671
 30
0
  0
VERTEX
  5
C1
  8
0
  6
BYLAYER
 62
    7
 10
11.61445218112853
 20
10.47604611342352
 30
0
  0
VERTEX
  5
C2
  8
0
  6
BYLAYER
 62
    7
 10
11.71681130542781
 20
10.44793060041623
 30
0
  0
VERTEX
  5
C3
  8
0
  6
BYLAYER
 62
    7
 10
11.81985404424155
 20
10.42332952653486
 30
0
  0
VERTEX
  5
C4
  8
0
  6
BYLAYER
 62
    7
 10
11.92348924896781
 20
10.4022428917794
 30
0
  0
VERTEX
  5
C5
  8
0
  6
BYLAYER
 62
    7
 10
12.02762577100467
 20
10.38467069614985
 30
0
  0
VERTEX
  5
C6
  8
0
  6
BYLAYER
 62
    7
 10
12.13217246175019
 20
10.3706129396462
 30
0
  0
VERTEX
  5
C7
  8
0
  6
BYLAYER
 62
    7
 10
12.23703817260246
 20
10.36006962226847
 30
0
  0
VERTEX
  5
C8
  8
0
  6
BYLAYER
 62
    7
 10
12.34213175495955
 20
10.35304074401665
 30
0
  0
VERTEX
  5
C9
  8
0
  6
BYLAYER
 62
    7
 10
12.44736206021953
 20
10.34952630489074
 30
0
  0
VERTEX
  5
CA
  8
0
  6
BYLAYER
 62
    7
 10
12.55263793978047
 20
10.34952630489074
 30
0
  0
VERTEX
  5
CB
  8
0
  6
BYLAYER
 62
    7
 10
12.65786824504045
 20
10.35304074401665
 30
0
  0
VERTEX
  5
CC
  8
0
  6
BYLAYER
 62
    7
 10
12.76296182739754
 20
10.36006962226847
 30
0
  0
VERTEX
  5
CD
  8
0
  6
BYLAYER
 62
    7
 10
12.86782753824981
 20
10.3706129396462
 30
0
  0
VERTEX
  5
CE
  8
0
  6
BYLAYER
 62
    7
 10
12.97237422899533
 20
10.38467069614984
 30
0
  0
VERTEX
  5
CF
  8
0
  6
BYLAYER
 62
    7
 10
13.07651075103219
 20
10.4022428917794
 30
0
  0
VERTEX
  5
D0
  8
0
  6
BYLAYER
 62
    7
 10
13.18014595575845
 20
10.42332952653486
 30
0
  0
VERTEX
  5
D1
  8
0
  6
BYLAYER
 62
    7
 10
13.28318869457219
 20
10.44793060041623
 30
0
  0
VERTEX
  5
D2
  8
0
  6
BYLAYER
 62
    7
 10
13.38554781887147
 20
10.47604611342352
 30
0
  0
VERTEX
  5
D3
  8
0
  6
BYLAYER
 62
    7
 10
13.48713218005438
 20
10.50767606555671
 30
0
  0
VERTEX
  5
D4
  8
0
  6
BYLAYER
 62
    7
 10
13.58785062951898
 20
10.54282045681582
 30
0
  0
VERTEX
  5
D5
  8
0
  6
BYLAYER
 62
    7
 10
13.68761201866335
 20
10.58147928720083
 30
0
  0
VERTEX
  5
D6
  8
0
  6
BYLAYER
 62
    7
 10
13.78632519888557
 20
10.62365255671176
 30
0
  0
VERTEX
  5
D7
  8
0
  6
BYLAYER
 62
    7
 10
13.8838990215837
 20
10.66934026534859
 30
0
  0
VERTEX
  5
D8
  8
0
  6
BYLAYER
 62
    7
 10
13.98024233815582
 20
10.71854241311134
 30
0
  0
VERTEX
  5
D9
  8
0
  6
BYLAYER
 62
    7
 10
14.075264
 20
10.771259
 30
0
  0
SEQEND
  5
DA
  8
0
  6
BYLAYER
 62
    7
  0
POLYLINE
  5
DB
  8
0
  6
BYLAYER
 62
    7
 66
    1
 10
0
 20
0
 30
0
 70
    0
  0
VERTEX
  5
DC
  8
0
  6
BYLAYER
 62
    7
 10
14.075264
 20
10.771259
 30
0
  0
VERTEX
  5
DD
  8
0
  6
BYLAYER
 62
    7
 10
14.16841787922527
 20
10.82720979960391
 30
0
  0
VERTEX
  5
DE
  8
0
  6
BYLAYER
 62
    7
 10
14.25918843442651
 20
10.8860619545836
 30
0
  0
VERTEX
  5
DF
  8
0
  6
BYLAYER
 62
    7
 10
14.34753010640798
 20
10.94773651854587
 30
0
  0
VERTEX
  5
E0
  8
0
  6
BYLAYER
 62
    7
 10
14.43339733597395
 20
11.01215454509751
 30
0
  0
VERTEX
  5
E1
  8
0
  6
BYLAYER
 62
    7
 10
14.5167445639287
 20
11.07923708784532
 30
0
  0
VERTEX
  5
E2
  8
0
  6
BYLAYER
 62
    7
 10
14.5975262310765
 20
11.1489052003961
 30
0
  0
VERTEX
  5
E3
  8
0
  6
BYLAYER
 62
    7
 10
14.67569677822161
 20
11.22107993635662
 30
0
  0
VERTEX
  5
E4
  8
0
  6
BYLAYER
 62
    7
 10
14.75121064616831
 20
11.29568234933369
 30
0
  0
VERTEX
  5
E5
  8
0
  6
BYLAYER
 62
    7
 10
14.82402227572085
 20
11.37263349293411
 30
0
  0
VERTEX
  5
E6
  8
0
  6
BYLAYER
 62
    7
 10
14.89408610768353
 20
11.45185442076466
 30
0
  0
VERTEX
  5
E7
  8
0
  6
BYLAYER
 62
    7
 10
14.96135658286059
 20
11.53326618643214
 30
0
  0
VERTEX
  5
E8
  8
0
  6
BYLAYER
 62
    7
 10
15.02578814205633
 20
11.61678984354335
 30
0
  0
VERTEX
  5
E9
  8
0
  6
BYLAYER
 62
    7
 10
15.08733522607499
 20
11.70234644570508
 30
0
  0
VERTEX
  5
EA
  8
0
  6
BYLAYER
 62
    7
 10
15.14595227572086
 20
11.78985704652412
 30
0
  0
VERTEX
  5
EB
  8
0
  6
BYLAYER
 62
    7
 10
15.20159373179819
 20
11.87924269960726
 30
0
  0
VERTEX
  5
EC
  8
0
  6
BYLAYER
 62
    7
 10
15.25421403511127
 20
11.97042445856131
 30
0
  0
VERTEX
  5
ED
  8
0
  6
BYLAYER
 62
    7
 10
15.30376762646437
 20
12.06332337699305
 30
0
  0
VERTEX
  5
EE
  8
0
  6
BYLAYER
 62
    7
 10
15.35020894666174
 20
12.15786050850928
 30
0
  0
VERTEX
  5
EF
  8
0
  6
BYLAYER
 62
    7
 10
15.39349243650767
 20
12.25395690671679
 30
0
  0
VERTEX
  5
F0
  8
0
  6
BYLAYER
 62
    7
 10
15.43357253680642
 20
12.35153362522238
 30
0
  0
VERTEX
  5
F1
  8
0
  6
BYLAYER
 62
    7
 10
15.47040368836226
 20
12.45051171763284
 30
0
  0
VERTEX
  5
F2
  8
0
  6
BYLAYER
 62
    7
 10
15.50394033197946
 20
12.55081223755497
 30
0
  0
VERTEX
  5
F3
  8
0
  6
BYLAYER
 62
    7
 10
15.53413690846229
 20
12.65235623859555
 30
0
  0
VERTEX
  5
F4
  8
0
  6
BYLAYER
 62
    7
 10
15.56094785861502
 20
12.75506477436138
 30
0
  0
VERTEX
  5
F5
  8
0
  6
BYLAYER
 62
    7
 10
15.58432762324192
 20
12.85885889845926
 30
0
  0
VERTEX
  5
F6
  8
0
  6
BYLAYER
 62
    7
 10
15.60423064314726
 20
12.96365966449599
 30
0
  0
VERTEX
  5
F7
  8
0
  6
BYLAYER
 62
    7
 10
15.62061135913531
 20
13.06938812607835
 30
0
  0
VERTEX
  5
F8
  8
0
  6
BYLAYER
 62
    7
 10
15.63342421201034
 20
13.17596533681313
 30
0
  0
VERTEX
  5
F9
  8
0
  6
BYLAYER
 62
    7
 10
15.64262364257662
 20
13.28331235030714
 30
0
  0
VERTEX
  5
FA
  8
0
  6
BYLAYER
 62
    7
 10
15.64816409163841
 20
13.39135022016716
 30
0
  0
VERTEX
  5
FB
  8
0
  6
BYLAYER
 62
    7
 10
15.65
 20
13.5
 30
0
  0
SEQEND
  5
FC
  8
0
  6
BYLAYER
 62
    7
  0
POLYLINE
  5
FD
  8
0
  6
BYLAYER
 62
    7
 66
    1
 10
0
 20
0
 30
0
 70
    0
  0
VERTEX
  5
FE
  8
0
  6
BYLAYER
 62
    7
 10
14.3
 20
13.5
 30
0
  0
VERTEX
  5
FF
  8
0
  6
BYLAYER
 62
    7
 10
14.29895663384915
 20
13.56208950156087
 30
0
  0
VERTEX
  5
100
  8
0
  6
BYLAYER
 62
    7
 10
14.29579608640194
 20
13.62382947346514
 30
0
  0
VERTEX
  5
101
  8
0
  6
BYLAYER
 62
    7
 10
14.29054439384378
 20
13.68517479396462
 30
0
  0
VERTEX
  5
102
  8
0
  6
BYLAYER
 62
    7
 10
14.28322759236011
 20
13.74608034131114
 30
0
  0
VERTEX
  5
103
  8
0
  6
BYLAYER
 62
    7
 10
14.27387171813635
 20
13.8065009937565
 30
0
  0
VERTEX
  5
104
  8
0
  6
BYLAYER
 62
    7
 10
14.26250280735793
 20
13.86639162955255
 30
0
  0
VERTEX
  5
105
  8
0
  6
BYLAYER
 62
    7
 10
14.24914689621027
 20
13.92570712695109
 30
0
  0
VERTEX
  5
106
  8
0
  6
BYLAYER
 62
    7
 10
14.23383002087879
 20
13.98440236420396
 30
0
  0
VERTEX
  5
107
  8
0
  6
BYLAYER
 62
    7
 10
14.21657821754892
 20
14.04243221956295
 30
0
  0
VERTEX
  5
108
  8
0
  6
BYLAYER
 62
    7
 10
14.1974175224061
 20
14.09975157127992
 30
0
  0
VERTEX
  5
109
  8
0
  6
BYLAYER
 62
    7
 10
14.17637397163573
 20
14.15631529760666
 30
0
  0
VERTEX
  5
10A
  8
0
  6
BYLAYER
 62
    7
 10
14.15347360142325
 20
14.21207827679501
 30
0
  0
VERTEX
  5
10B
  8
0
  6
BYLAYER
 62
    7
 10
14.12874244795408
 20
14.26699538709678
 30
0
  0
VERTEX
  5
10C
  8
0
  6
BYLAYER
 62
    7
 10
14.10220654741365
 20
14.32102150676379
 30
0
  0
VERTEX
  5
10D
  8
0
  6
BYLAYER
 62
    7
 10
14.07389193598738
 20
14.37411151404787
 30
0
  0
VERTEX
  5
10E
  8
0
  6
BYLAYER
 62
    7
 10
14.0438246498607
 20
14.42622028720083
 30
0
  0
VERTEX
  5
10F
  8
0
  6
BYLAYER
 62
    7
 10
14.01203072521903
 20
14.47730270447451
 30
0
  0
VERTEX
  5
110
  8
0
  6
BYLAYER
 62
    7
 10
13.97853619824779
 20
14.52731364412071
 30
0
  0
VERTEX
  5
111
  8
0
  6
BYLAYER
 62
    7
 10
13.94336710513242
 20
14.57620798439126
 30
0
  0
VERTEX
  5
112
  8
0
  6
BYLAYER
 62
    7
 10
13.90654948205834
 20
14.62394060353798
 30
0
  0
VERTEX
  5
113
  8
0
  6
BYLAYER
 62
    7
 10
13.86810936521097
 20
14.67046637981269
 30
0
  0
VERTEX
  5
114
  8
0
  6
BYLAYER
 62
    7
 10
13.82807279077574
 20
14.71574019146722
 30
0
  0
VERTEX
  5
115
  8
0
  6
BYLAYER
 62
    7
 10
13.78646579493807
 20
14.75971691675338
 30
0
  0
VERTEX
  5
116
  8
0
  6
BYLAYER
 62
    7
 10
13.74331441388339
 20
14.802351433923
 30
0
  0
VERTEX
  5
117
  8
0
  6
BYLAYER
 62
    7
 10
13.69864468379712
 20
14.84359862122789
 30
0
  0
VERTEX
  5
118
  8
0
  6
BYLAYER
 62
    7
 10
13.65248264086469
 20
14.88341335691987
 30
0
  0
VERTEX
  5
119
  8
0
  6
BYLAYER
 62
    7
 10
13.60485432127153
 20
14.92175051925078
 30
0
  0
VERTEX
  5
11A
  8
0
  6
BYLAYER
 62
    7
 10
13.55578576120305
 20
14.95856498647242
 30
0
  0
VERTEX
  5
11B
  8
0
  6
BYLAYER
 62
    7
 10
13.50530299684469
 20
14.99381163683663
 30
0
  0
VERTEX
  5
11C
  8
0
  6
BYLAYER
 62
    7
 10
13.45343206438186
 20
15.02744534859521
 30
0
  0
VERTEX
  5
11D
  8
0
  6
BYLAYER
 62
    7
 10
13.400199
 20
15.059421
 30
0
  0
SEQEND
  5
11E
  8
0
  6
BYLAYER
 62
    7
  0
POLYLINE
  5
11F
  8
0
  6
BYLAYER
 62
    7
 66
    1
 10
0
 20
0
 30
0
 70
    0
  0
VERTEX
  5
120
  8
0
  6
BYLAYER
 62
    7
 10
13.400199
 20
15.059421
 30
0
  0
VERTEX
  5
121
  8
0
  6
BYLAYER
 62
    7
 10
13.34589849823772
 20
15.08954824245578
 30
0
  0
VERTEX
  5
122
  8
0
  6
BYLAYER
 62
    7
 10
13.29084262586016
 20
15.11766700208117
 30
0
  0
VERTEX
  5
123
  8
0
  6
BYLAYER
 62
    7
 10
13.2350834773925
 20
15.14377727887617
 30
0
  0
VERTEX
  5
124
  8
0
  6
BYLAYER
 62
    7
 10
13.17867314735994
 20
15.16787907284079
 30
0
  0
VERTEX
  5
125
  8
0
  6
BYLAYER
 62
    7
 10
13.12166373028767
 20
15.18997238397503
 30
0
  0
VERTEX
  5
126
  8
0
  6
BYLAYER
 62
    7
 10
13.06410732070088
 20
15.21005721227888
 30
0
  0
VERTEX
  5
127
  8
0
  6
BYLAYER
 62
    7
 10
13.00605601312477
 20
15.22813355775234
 30
0
  0
VERTEX
  5
128
  8
0
  6
BYLAYER
 62
    7
 10
12.94756190208452
 20
15.24420142039542
 30
0
  0
VERTEX
  5
129
  8
0
  6
BYLAYER
 62
    7
 10
12.88867708210534
 20
15.25826080020811
 30
0
  0
VERTEX
  5
12A
  8
0
  6
BYLAYER
 62
    7
 10
12.8294536477124
 20
15.27031169719043
 30
0
  0
VERTEX
  5
12B
  8
0
  6
BYLAYER
 62
    7
 10
12.7699436934309
 20
15.28035411134235
 30
0
  0
VERTEX
  5
12C
  8
0
  6
BYLAYER
 62
    7
 10
12.71019931378604
 20
15.28838804266389
 30
0
  0
VERTEX
  5
12D
  8
0
  6
BYLAYER
 62
    7
 10
12.65027260330301
 20
15.29441349115505
 30
0
  0
VERTEX
  5
12E
  8
0
  6
BYLAYER
 62
    7
 10
12.590215656507
 20
15.29843045681582
 30
0
  0
VERTEX
  5
12F
  8
0
  6
BYLAYER
 62
    7
 10
12.5300805679232
 20
15.3004389396462
 30
0
  0
VERTEX
  5
130
  8
0
  6
BYLAYER
 62
    7
 10
12.4699194320768
 20
15.3004389396462
 30
0
  0
VERTEX
  5
131
  8
0
  6
BYLAYER
 62
    7
 10
12.409784343493
 20
15.29843045681582
 30
0
  0
VERTEX
  5
132
  8
0
  6
BYLAYER
 62
    7
 10
12.34972739669699
 20
15.29441349115505
 30
0
  0
VERTEX
  5
133
  8
0
  6
BYLAYER
 62
    7
 10
12.28980068621396
 20
15.28838804266389
 30
0
  0
VERTEX
  5
134
  8
0
  6
BYLAYER
 62
    7
 10
12.2300563065691
 20
15.28035411134235
 30
0
  0
VERTEX
  5
135
  8
0
  6
BYLAYER
 62
    7
 10
12.1705463522876
 20
15.27031169719043
 30
0
  0
VERTEX
  5
136
  8
0
  6
BYLAYER
 62
    7
 10
12.11132291789467
 20
15.25826080020812
 30
0
  0
VERTEX
  5
137
  8
0
  6
BYLAYER
 62
    7
 10
12.05243809791548
 20
15.24420142039542
 30
0
  0
VERTEX
  5
138
  8
0
  6
BYLAYER
 62
    7
 10
11.99394398687523
 20
15.22813355775234
 30
0
  0
VERTEX
  5
139
  8
0
  6
BYLAYER
 62
    7
 10
11.93589267929912
 20
15.21005721227888
 30
0
  0
VERTEX
  5
13A
  8
0
  6
BYLAYER
 62
    7
 10
11.87833626971233
 20
15.18997238397503
 30
0
  0
VERTEX
  5
13B
  8
0
  6
BYLAYER
 62
    7
 10
11.82132685264006
 20
15.16787907284079
 30
0
  0
VERTEX
  5
13C
  8
0
  6
BYLAYER
 62
    7
 10
11.7649165226075
 20
15.14377727887617
 30
0
  0
VERTEX
  5
13D
  8
0
  6
BYLAYER
 62
    7
 10
11.70915737413984
 20
15.11766700208117
 30
0
  0
VERTEX
  5
13E
  8
0
  6
BYLAYER
 62
    7
 10
11.65410150176228
 20
15.08954824245578
 30
0
  0
VERTEX
  5
13F
  8
0
  6
BYLAYER
 62
    7
 10
11.599801
 20
15.059421
 30
0
  0
SEQEND
  5
140
  8
0
  6
BYLAYER
 62
    7
  0
POLYLINE
  5
141
  8
0
  6
BYLAYER
 62
    7
 66
    1
 10
0
 20
0
 30
0
 70
    0
  0
VERTEX
  5
142
  8
0
  6
BYLAYER
 62
    7
 10
11.599801
 20
15.059421
 30
0
  0
VERTEX
  5
143
  8
0
  6
BYLAYER
 62
    7
 10
11.54656793561814
 20
15.02744534859522
 30
0
  0
VERTEX
  5
144
  8
0
  6
BYLAYER
 62
    7
 10
11.49469700315532
 20
14.99381163683663
 30
0
  0
VERTEX
  5
145
  8
0
  6
BYLAYER
 62
    7
 10
11.44421423879695
 20
14.95856498647242
 30
0
  0
VERTEX
  5
146
  8
0
  6
BYLAYER
 62
    7
 10
11.39514567872848
 20
14.92175051925078
 30
0
  0
VERTEX
  5
147
  8
0
  6
BYLAYER
 62
    7
 10
11.34751735913531
 20
14.88341335691988
 30
0
  0
VERTEX
  5
148
  8
0
  6
BYLAYER
 62
    7
 10
11.30135531620288
 20
14.84359862122789
 30
0
  0
VERTEX
  5
149
  8
0
  6
BYLAYER
 62
    7
 10
11.25668558611661
 20
14.802351433923
 30
0
  0
VERTEX
  5
14A
  8
0
  6
BYLAYER
 62
    7
 10
11.21353420506193
 20
14.75971691675338
 30
0
  0
VERTEX
  5
14B
  8
0
  6
BYLAYER
 62
    7
 10
11.17192720922426
 20
14.71574019146722
 30
0
  0
VERTEX
  5
14C
  8
0
  6
BYLAYER
 62
    7
 10
11.13189063478903
 20
14.6704663798127
 30
0
  0
VERTEX
  5
14D
  8
0
  6
BYLAYER
 62
    7
 10
11.09345051794166
 20
14.62394060353798
 30
0
  0
VERTEX
  5
14E
  8
0
  6
BYLAYER
 62
    7
 10
11.05663289486758
 20
14.57620798439126
 30
0
  0
VERTEX
  5
14F
  8
0
  6
BYLAYER
 62
    7
 10
11.02146380175221
 20
14.52731364412071
 30
0
  0
VERTEX
  5
150
  8
0
  6
BYLAYER
 62
    7
 10
10.98796927478097
 20
14.47730270447451
 30
0
  0
VERTEX
  5
151
  8
0
  6
BYLAYER
 62
    7
 10
10.9561753501393
 20
14.42622028720083
 30
0
  0
VERTEX
  5
152
  8
0
  6
BYLAYER
 62
    7
 10
10.92610806401262
 20
14.37411151404787
 30
0
  0
VERTEX
  5
153
  8
0
  6
BYLAYER
 62
    7
 10
10.89779345258635
 20
14.32102150676379
 30
0
  0
VERTEX
  5
154
  8
0
  6
BYLAYER
 62
    7
 10
10.87125755204592
 20
14.26699538709678
 30
0
  0
VERTEX
  5
155
  8
0
  6
BYLAYER
 62
    7
 10
10.84652639857675
 20
14.21207827679501
 30
0
  0
VERTEX
  5
156
  8
0
  6
BYLAYER
 62
    7
 10
10.82362602836427
 20
14.15631529760666
 30
0
  0
VERTEX
  5
157
  8
0
  6
BYLAYER
 62
    7
 10
10.8025824775939
 20
14.09975157127992
 30
0
  0
VERTEX
  5
158
  8
0
  6
BYLAYER
 62
    7
 10
10.78342178245108
 20
14.04243221956296
 30
0
  0
VERTEX
  5
159
  8
0
  6
BYLAYER
 62
    7
 10
10.76616997912121
 20
13.98440236420396
 30
0
  0
VERTEX
  5
15A
  8
0
  6
BYLAYER
 62
    7
 10
10.75085310378974
 20
13.92570712695109
 30
0
  0
VERTEX
  5
15B
  8
0
  6
BYLAYER
 62
    7
 10
10.73749719264207
 20
13.86639162955255
 30
0
  0
VERTEX
  5
15C
  8
0
  6
BYLAYER
 62
    7
 10
10.72612828186365
 20
13.8065009937565
 30
0
  0
VERTEX
  5
15D
  8
0
  6
BYLAYER
 62
    7
 10
10.71677240763989
 20
13.74608034131114
 30
0
  0
VERTEX
  5
15E
  8
0
  6
BYLAYER
 62
    7
 10
10.70945560615622
 20
13.68517479396462
 30
0
  0
VERTEX
  5
15F
  8
0
  6
BYLAYER
 62
    7
 10
10.70420391359806
 20
13.62382947346514
 30
0
  0
VERTEX
  5
160
  8
0
  6
BYLAYER
 62
    7
 10
10.70104336615085
 20
13.56208950156087
 30
0
  0
VERTEX
  5
161
  8
0
  6
BYLAYER
 62
    7
 10
10.7
 20
13.5
 30
0
  0
SEQEND
  5
162
  8
0
  6
BYLAYER
 62
    7
  0
POLYLINE
  5
163
  8
0
  6
BYLAYER
 62
    7
 66
    1
 10
0
 20
0
 30
0
 70
    0
  0
VERTEX
  5
164
  8
0
  6
BYLAYER
 62
    7
 10
10.7
 20
13.5
 30
0
  0
VERTEX
  5
165
  8
0
  6
BYLAYER
 62
    7
 10
10.70104336615085
 20
13.43791049843913
 30
0
  0
VERTEX
  5
166
  8
0
  6
BYLAYER
 62
    7
 10
10.70420391359807
 20
13.37617052653486
 30
0
  0
VERTEX
  5
167
  8
0
  6
BYLAYER
 62
    7
 10
10.70945560615622
 20
13.31482520603538
 30
0
  0
VERTEX
  5
168
  8
0
  6
BYLAYER
 62
    7
 10
10.71677240763989
 20
13.25391965868887
 30
0
  0
VERTEX
  5
169
  8
0
  6
BYLAYER
 62
    7
 10
10.72612828186365
 20
13.1934990062435
 30
0
  0
VERTEX
  5
16A
  8
0
  6
BYLAYER
 62
    7
 10
10.73749719264207
 20
13.13360837044745
 30
0
  0
VERTEX
  5
16B
  8
0
  6
BYLAYER
 62
    7
 10
10.75085310378974
 20
13.07429287304891
 30
0
  0
VERTEX
  5
16C
  8
0
  6
BYLAYER
 62
    7
 10
10.76616997912121
 20
13.01559763579604
 30
0
  0
VERTEX
  5
16D
  8
0
  6
BYLAYER
 62
    7
 10
10.78342178245107
 20
12.95756778043704
 30
0
  0
VERTEX
  5
16E
  8
0
  6
BYLAYER
 62
    7
 10
10.8025824775939
 20
12.90024842872008
 30
0
  0
VERTEX
  5
16F
  8
0
  6
BYLAYER
 62
    7
 10
10.82362602836427
 20
12.84368470239334
 30
0
  0
VERTEX
  5
170
  8
0
  6
BYLAYER
 62
    7
 10
10.84652639857675
 20
12.78792172320499
 30
0
  0
VERTEX
  5
171
  8
0
  6
BYLAYER
 62
    7
 10
10.87125755204592
 20
12.73300461290322
 30
0
  0
VERTEX
  5
172
  8
0
  6
BYLAYER
 62
    7
 10
10.89779345258635
 20
12.67897849323621
 30
0
  0
VERTEX
  5
173
  8
0
  6
BYLAYER
 62
    7
 10
10.92610806401262
 20
12.62588848595213
 30
0
  0
VERTEX
  5
174
  8
0
  6
BYLAYER
 62
    7
 10
10.9561753501393
 20
12.57377971279917
 30
0
  0
VERTEX
  5
175
  8
0
  6
BYLAYER
 62
    7
 10
10.98796927478097
 20
12.52269729552549
 30
0
  0
VERTEX
  5
176
  8
0
  6
BYLAYER
 62
    7
 10
11.0214638017522
 20
12.47268635587929
 30
0
  0
VERTEX
  5
177
  8
0
  6
BYLAYER
 62
    7
 10
11.05663289486758
 20
12.42379201560874
 30
0
  0
VERTEX
  5
178
  8
0
  6
BYLAYER
 62
    7
 10
11.09345051794166
 20
12.37605939646202
 30
0
  0
VERTEX
  5
179
  8
0
  6
BYLAYER
 62
    7
 10
11.13189063478903
 20
12.32953362018731
 30
0
  0
VERTEX
  5
17A
  8
0
  6
BYLAYER
 62
    7
 10
11.17192720922426
 20
12.28425980853278
 30
0
  0
VERTEX
  5
17B
  8
0
  6
BYLAYER
 62
    7
 10
11.21353420506193
 20
12.24028308324662
 30
0
  0
VERTEX
  5
17C
  8
0
  6
BYLAYER
 62
    7
 10
11.25668558611661
 20
12.197648566077
 30
0
  0
VERTEX
  5
17D
  8
0
  6
BYLAYER
 62
    7
 10
11.30135531620288
 20
12.15640137877211
 30
0
  0
VERTEX
  5
17E
  8
0
  6
BYLAYER
 62
    7
 10
11.34751735913531
 20
12.11658664308012
 30
0
  0
VERTEX
  5
17F
  8
0
  6
BYLAYER
 62
    7
 10
11.39514567872848
 20
12.07824948074922
 30
0
  0
VERTEX
  5
180
  8
0
  6
BYLAYER
 62
    7
 10
11.44421423879695
 20
12.04143501352758
 30
0
  0
VERTEX
  5
181
  8
0
  6
BYLAYER
 62
    7
 10
11.49469700315531
 20
12.00618836316337
 30
0
  0
VERTEX
  5
182
  8
0
  6
BYLAYER
 62
    7
 10
11.54656793561814
 20
11.97255465140479
 30
0
  0
VERTEX
  5
183
  8
0
  6
BYLAYER
 62
    7
 10
11.599801
 20
11.940579
 30
0
  0
SEQEND
  5
184
  8
0
  6
BYLAYER
 62
    7
  0
POLYLINE
  5
185
  8
0
  6
BYLAYER
 62
    7
 66
    1
 10
0
 20
0
 30
0
 70
    0
  0
VERTEX
  5
186
  8
0
  6
BYLAYER
 62
    7
 10
11.599801
 20
11.940579
 30
0
  0
VERTEX
  5
187
  8
0
  6
BYLAYER
 62
    7
 10
11.65410150176228
 20
11.91045175754422
 30
0
  0
VERTEX
  5
188
  8
0
  6
BYLAYER
 62
    7
 10
11.70915737413984
 20
11.88233299791884
 30
0
  0
VERTEX
  5
189
  8
0
  6
BYLAYER
 62
    7
 10
11.7649165226075
 20
11.85622272112383
 30
0
  0
VERTEX
  5
18A
  8
0
  6
BYLAYER
 62
    7
 10
11.82132685264006
 20
11.83212092715921
 30
0
  0
VERTEX
  5
18B
  8
0
  6
BYLAYER
 62
    7
 10
11.87833626971233
 20
11.81002761602497
 30
0
  0
VERTEX
  5
18C
  8
0
  6
BYLAYER
 62
    7
 10
11.93589267929912
 20
11.78994278772113
 30
0
  0
VERTEX
  5
18D
  8
0
  6
BYLAYER
 62
    7
 10
11.99394398687523
 20
11.77186644224766
 30
0
  0
VERTEX
  5
18E
  8
0
  6
BYLAYER
 62
    7
 10
12.05243809791548
 20
11.75579857960458
 30
0
  0
VERTEX
  5
18F
  8
0
  6
BYLAYER
 62
    7
 10
12.11132291789466
 20
11.74173919979188
 30
0
  0
VERTEX
  5
190
  8
0
  6
BYLAYER
 62
    7
 10
12.1705463522876
 20
11.72968830280958
 30
0
  0
VERTEX
  5
191
  8
0
  6
BYLAYER
 62
    7
 10
12.2300563065691
 20
11.71964588865765
 30
0
  0
VERTEX
  5
192
  8
0
  6
BYLAYER
 62
    7
 10
12.28980068621396
 20
11.71161195733611
 30
0
  0
VERTEX
  5
193
  8
0
  6
BYLAYER
 62
    7
 10
12.34972739669699
 20
11.70558650884495
 30
0
  0
VERTEX
  5
194
  8
0
  6
BYLAYER
 62
    7
 10
12.409784343493
 20
11.70156954318418
 30
0
  0
VERTEX
  5
195
  8
0
  6
BYLAYER
 62
    7
 10
12.4699194320768
 20
11.6995610603538
 30
0
  0
VERTEX
  5
196
  8
0
  6
BYLAYER
 62
    7
 10
12.5300805679232
 20
11.6995610603538
 30
0
  0
VERTEX
  5
197
  8
0
  6
BYLAYER
 62
    7
 10
12.590215656507
 20
11.70156954318418
 30
0
  0
VERTEX
  5
198
  8
0
  6
BYLAYER
 62
    7
 10
12.65027260330301
 20
11.70558650884495
 30
0
  0
VERTEX
  5
199
  8
0
  6
BYLAYER
 62
    7
 10
12.71019931378604
 20
11.71161195733611
 30
0
  0
VERTEX
  5
19A
  8
0
  6
BYLAYER
 62
    7
 10
12.7699436934309
 20
11.71964588865765
 30
0
  0
VERTEX
  5
19B
  8
0
  6
BYLAYER
 62
    7
 10
12.82945364771239
 20
11.72968830280957
 30
0
  0
VERTEX
  5
19C
  8
0
  6
BYLAYER
 62
    7
 10
12.88867708210533
 20
11.74173919979188
 30
0
  0
VERTEX
  5
19D
  8
0
  6
BYLAYER
 62
    7
 10
12.94756190208452
 20
11.75579857960458
 30
0
  0
VERTEX
  5
19E
  8
0
  6
BYLAYER
 62
    7
 10
13.00605601312477
 20
11.77186644224766
 30
0
  0
VERTEX
  5
19F
  8
0
  6
BYLAYER
 62
    7
 10
13.06410732070088
 20
11.78994278772112
 30
0
  0
VERTEX
  5
1A0
  8
0
  6
BYLAYER
 62
    7
 10
13.12166373028767
 20
11.81002761602497
 30
0
  0
VERTEX
  5
1A1
  8
0
  6
BYLAYER
 62
    7
 10
13.17867314735994
 20
11.83212092715921
 30
0
  0
VERTEX
  5
1A2
  8
0
  6
BYLAYER
 62
    7
 10
13.2350834773925
 20
11.85622272112383
 30
0
  0
VERTEX
  5
1A3
  8
0
  6
BYLAYER
 62
    7
 10
13.29084262586016
 20
11.88233299791883
 30
0
  0
VERTEX
  5
1A4
  8
0
  6
BYLAYER
 62
    7
 10
13.34589849823772
 20
11.91045175754422
 30
0
  0
VERTEX
  5
1A5
  8
0
  6
BYLAYER
 62
    7
 10
13.400199
 20
11.940579
 30
0
  0
SEQEND
  5
1A6
  8
0
  6
BYLAYER
 62
    7
  0
POLYLINE
  5
1A7
  8
0
  6
BYLAYER
 62
    7
 66
    1
 10
0
 20
0
 30
0
 70
    0
  0
VERTEX
  5
1A8
  8
0
  6
BYLAYER
 62
    7
 10
13.400199
 20
11.940579
 30
0
  0
VERTEX
  5
1A9
  8
0
  6
BYLAYER
 62
    7
 10
13.45343206438186
 20
11.97255465140479
 30
0
  0
VERTEX
  5
1AA
  8
0
  6
BYLAYER
 62
    7
 10
13.50530299684469
 20
12.00618836316337
 30
0
  0
VERTEX
  5
1AB
  8
0
  6
BYLAYER
 62
    7
 10
13.55578576120305
 20
12.04143501352757
 30
0
  0
VERTEX
  5
1AC
  8
0
  6
BYLAYER
 62
    7
 10
13.60485432127153
 20
12.07824948074922
 30
0
  0
VERTEX
  5
1AD
  8
0
  6
BYLAYER
 62
    7
 10
13.65248264086469
 20
12.11658664308012
 30
0
  0
VERTEX
  5
1AE
  8
0
  6
BYLAYER
 62
    7
 10
13.69864468379712
 20
12.15640137877212
 30
0
  0
VERTEX
  5
1AF
  8
0
  6
BYLAYER
 62
    7
 10
13.74331441388339
 20
12.197648566077
 30
0
  0
VERTEX
  5
1B0
  8
0
  6
BYLAYER
 62
    7
 10
13.78646579493807
 20
12.24028308324662
 30
0
  0
VERTEX
  5
1B1
  8
0
  6
BYLAYER
 62
    7
 10
13.82807279077574
 20
12.28425980853278
 30
0
  0
VERTEX
  5
1B2
  8
0
  6
BYLAYER
 62
    7
 10
13.86810936521097
 20
12.3295336201873
 30
0
  0
VERTEX
  5
1B3
  8
0
  6
BYLAYER
 62
    7
 10
13.90654948205834
 20
12.37605939646202
 30
0
  0
VERTEX
  5
1B4
  8
0
  6
BYLAYER
 62
    7
 10
13.94336710513242
 20
12.42379201560874
 30
0
  0
VERTEX
  5
1B5
  8
0
  6
BYLAYER
 62
    7
 10
13.9785361982478
 20
12.47268635587929
 30
0
  0
VERTEX
  5
1B6
  8
0
  6
BYLAYER
 62
    7
 10
14.01203072521903
 20
12.52269729552549
 30
0
  0
VERTEX
  5
1B7
  8
0
  6
BYLAYER
 62
    7
 10
14.0438246498607
 20
12.57377971279917
 30
0
  0
VERTEX
  5
1B8
  8
0
  6
BYLAYER
 62
    7
 10
14.07389193598738
 20
12.62588848595213
 30
0
  0
VERTEX
  5
1B9
  8
0
  6
BYLAYER
 62
    7
 10
14.10220654741365
 20
12.67897849323621
 30
0
  0
VERTEX
  5
1BA
  8
0
  6
BYLAYER
 62
    7
 10
14.12874244795408
 20
12.73300461290322
 30
0
  0
VERTEX
  5
1BB
  8
0
  6
BYLAYER
 62
    7
 10
14.15347360142325
 20
12.78792172320499
 30
0
  0
VERTEX
  5
1BC
  8
0
  6
BYLAYER
 62
    7
 10
14.17637397163573
 20
12.84368470239334
 30
0
  0
VERTEX
  5
1BD
  8
0
  6
BYLAYER
 62
    7
 10
14.1974175224061
 20
12.90024842872008
 30
0
  0
VERTEX
  5
1BE
  8
0
  6
BYLAYER
 62
    7
 10
14.21657821754892
 20
12.95756778043704
 30
0
  0
VERTEX
  5
1BF
  8
0
  6
BYLAYER
 62
    7
 10
14.23383002087879
 20
13.01559763579604
 30
0
  0
VERTEX
  5
1C0
  8
0
  6
BYLAYER
 62
    7
 10
14.24914689621027
 20
13.07429287304891
 30
0
  0
VERTEX
  5
1C1
  8
0
  6
BYLAYER
 62
    7
 10
14.26250280735793
 20
13.13360837044745
 30
0
  0
VERTEX
  5
1C2
  8
0
  6
BYLAYER
 62
    7
 10
14.27387171813635
 20
13.1934990062435
 30
0
  0
VERTEX
  5
1C3
  8
0
  6
BYLAYER
 62
    7
 10
14.28322759236011
 20
13.25391965868887
 30
0
  0
VERTEX
  5
1C4
  8
0
  6
BYLAYER
 62
    7
 10
14.29054439384378
 20
13.31482520603538
 30
0
  0
VERTEX
  5
1C5
  8
0
  6
BYLAYER
 62
    7
 10
14.29579608640193
 20
13.37617052653486
 30
0
  0
VERTEX
  5
1C6
  8
0
  6
BYLAYER
 62
    7
 10
14.29895663384915
 20
13.43791049843912
 30
0
  0
VERTEX
  5
1C7
  8
0
  6
BYLAYER
 62
    7
 10
14.3
 20
13.5
 30
0
  0
SEQEND
  5
1C8
  8
0
  6
BYLAYER
 62
    7
  0
POLYLINE
  5
1C9
  8
0
  6
BYLAYER
 62
    7
 66
    1
 10
0
 20
0
 30
0
 70
    1
  0
VERTEX
  5
1CA
  8
0
  6
BYLAYER
 62
    7
 10
15.65
 20
13.5
 30
0
  0
SEQEND
  5
1CB
  8
0
  6
BYLAYER
 62
    7
  0
POLYLINE
  5
1CC
  8
0
  6
BYLAYER
 62
    7
 66
    1
 10
0
 20
0
 30
0
 70
    0
  0
VERTEX
  5
1CD
  8
0
  6
BYLAYER
 62
    7
 10
3.15
 20
-20.199989
 30
0
  0
VERTEX
  5
1CE
  8
0
  6
BYLAYER
 62
    7
 10
3.145633672250008
 20
-20.03269661884462
 30
0
  0
VERTEX
  5
1CF
  8
0
  6
BYLAYER
 62
    7
 10
3.132679821288309
 20
-19.86767841693801
 30
0
  0
VERTEX
  5
1D0
  8
0
  6
BYLAYER
 62
    7
 10
3.111356145547313
 20
-19.70515209694203
 30
0
  0
VERTEX
  5
1D1
  8
0
  6
BYLAYER
 62
    7
 10
3.081880343459434
 20
-19.54533536151858
 30
0
  0
VERTEX
  5
1D2
  8
0
  6
BYLAYER
 62
    7
 10
3.044470113457084
 20
-19.38844591332953
 30
0
  0
VERTEX
  5
1D3
  8
0
  6
BYLAYER
 62
    7
 10
2.999343153972676
 20
-19.23470145503676
 30
0
  0
VERTEX
  5
1D4
  8
0
  6
BYLAYER
 62
    7
 10
2.946717163438623
 20
-19.08431968930214
 30
0
  0
VERTEX
  5
1D5
  8
0
  6
BYLAYER
 62
    7
 10
2.886809840287335
 20
-18.93751831878755
 30
0
  0
VERTEX
  5
1D6
  8
0
  6
BYLAYER
 62
    7
 10
2.819838882951227
 20
-18.79451504615488
 30
0
  0
VERTEX
  5
1D7
  8
0
  6
BYLAYER
 62
    7
 10
2.74602198986271
 20
-18.655527574066
 30
0
  0
VERTEX
  5
1D8
  8
0
  6
BYLAYER
 62
    7
 10
2.665576859454197
 20
-18.52077360518278
 30
0
  0
VERTEX
  5
1D9
  8
0
  6
BYLAYER
 62
    7
 10
2.578721190158102
 20
-18.3904708421671
 30
0
  0
VERTEX
  5
1DA
  8
0
  6
BYLAYER
 62
    7
 10
2.485672680406835
 20
-18.26483698768084
 30
0
  0
VERTEX
  5
1DB
  8
0
  6
BYLAYER
 62
    7
 10
2.386649028632809
 20
-18.14408974438589
 30
0
  0
VERTEX
  5
1DC
  8
0
  6
BYLAYER
 62
    7
 10
2.281867933268438
 20
-18.02844681494411
 30
0
  0
VERTEX
  5
1DD
  8
0
  6
BYLAYER
 62
    7
 10
2.171547092746132
 20
-17.91812590201739
 30
0
  0
VERTEX
  5
1DE
  8
0
  6
BYLAYER
 62
    7
 10
2.055904205498306
 20
-17.8133447082676
 30
0
  0
VERTEX
  5
1DF
  8
0
  6
BYLAYER
 62
    7
 10
1.935156969957371
 20
-17.71432093635662
 30
0
  0
VERTEX
  5
1E0
  8
0
  6
BYLAYER
 62
    7
 10
1.80952308455574
 20
-17.62127228894633
 30
0
  0
VERTEX
  5
1E1
  8
0
  6
BYLAYER
 62
    7
 10
1.679220247725825
 20
-17.5344164686986
 30
0
  0
VERTEX
  5
1E2
  8
0
  6
BYLAYER
 62
    7
 10
1.544466157900038
 20
-17.45397117827532
 30
0
  0
VERTEX
  5
1E3
  8
0
  6
BYLAYER
 62
    7
 10
1.405478513510794
 20
-17.38015412033836
 30
0
  0
VERTEX
  5
1E4
  8
0
  6
BYLAYER
 62
    7
 10
1.262475012990502
 20
-17.3131829975496
 30
0
  0
VERTEX
  5
1E5
  8
0
  6
BYLAYER
 62
    7
 10
1.115673354771577
 20
-17.25327551257091
 30
0
  0
VERTEX
  5
1E6
  8
0
  6
BYLAYER
 62
    7
 10
0.9652912372864311
 20
-17.20064936806418
 30
0
  0
VERTEX
  5
1E7
  8
0
  6
BYLAYER
 62
    7
 10
0.811546358967476
 20
-17.15552226669128
 30
0
  0
VERTEX
  5
1E8
  8
0
  6
BYLAYER
 62
    7
 10
0.6546564182471243
 20
-17.1181119111141
 30
0
  0
VERTEX
  5
1E9
  8
0
  6
BYLAYER
 62
    7
 10
0.4948391135577888
 20
-17.08863600399449
 30
0
  0
VERTEX
  5
1EA
  8
0
  6
BYLAYER
 62
    7
 10
0.3323121433318818
 20
-17.06731224799436
 30
0
  0
VERTEX
  5
1EB
  8
0
  6
BYLAYER
 62
    7
 10
0.1672932060018159
 20
-17.05435834577557
 30
0
  0
VERTEX
  5
1EC
  8
0
  6
BYLAYER
 62
    7
 10
0
 20
-17.049992
 30
0
  0
SEQEND
  5
1ED
  8
0
  6
BYLAYER
 62
    7
  0
POLYLINE
  5
1EE
  8
0
  6
BYLAYER
 62
    7
 66
    1
 10
0
 20
0
 30
0
 70
    0
  0
VERTEX
  5
1EF
  8
0
  6
BYLAYER
 62
    7
 10
0
 20
-17.049992
 30
0
  0
VERTEX
  5
1F0
  8
0
  6
BYLAYER
 62
    7
 10
-0.1672932060018126
 20
-17.05435834577557
 30
0
  0
VERTEX
  5
1F1
  8
0
  6
BYLAYER
 62
    7
 10
-0.3323121433318788
 20
-17.06731224799436
 30
0
  0
VERTEX
  5
1F2
  8
0
  6
BYLAYER
 62
    7
 10
-0.4948391135577859
 20
-17.08863600399449
 30
0
  0
VERTEX
  5
1F3
  8
0
  6
BYLAYER
 62
    7
 10
-0.6546564182471216
 20
-17.1181119111141
 30
0
  0
VERTEX
  5
1F4
  8
0
  6
BYLAYER
 62
    7
 10
-0.8115463589674733
 20
-17.15552226669128
 30
0
  0
VERTEX
  5
1F5
  8
0
  6
BYLAYER
 62
    7
 10
-0.965291237286429
 20
-17.20064936806418
 30
0
  0
VERTEX
  5
1F6
  8
0
  6
BYLAYER
 62
    7
 10
-1.115673354771575
 20
-17.25327551257091
 30
0
  0
VERTEX
  5
1F7
  8
0
  6
BYLAYER
 62
    7
 10
-1.2624750129905
 20
-17.3131829975496
 30
0
  0
VERTEX
  5
1F8
  8
0
  6
BYLAYER
 62
    7
 10
-1.405478513510791
 20
-17.38015412033836
 30
0
  0
VERTEX
  5
1F9
  8
0
  6
BYLAYER
 62
    7
 10
-1.544466157900037
 20
-17.45397117827532
 30
0
  0
VERTEX
  5
1FA
  8
0
  6
BYLAYER
 62
    7
 10
-1.679220247725823
 20
-17.5344164686986
 30
0
  0
VERTEX
  5
1FB
  8
0
  6
BYLAYER
 62
    7
 10
-1.809523084555738
 20
-17.62127228894633
 30
0
  0
VERTEX
  5
1FC
  8
0
  6
BYLAYER
 62
    7
 10
-1.935156969957369
 20
-17.71432093635662
 30
0
  0
VERTEX
  5
1FD
  8
0
  6
BYLAYER
 62
    7
 10
-2.055904205498304
 20
-17.8133447082676
 30
0
  0
VERTEX
  5
1FE
  8
0
  6
BYLAYER
 62
    7
 10
-2.171547092746131
 20
-17.91812590201739
 30
0
  0
VERTEX
  5
1FF
  8
0
  6
BYLAYER
 62
    7
 10
-2.281867933268436
 20
-18.02844681494411
 30
0
  0
VERTEX
  5
200
  8
0
  6
BYLAYER
 62
    7
 10
-2.386649028632807
 20
-18.14408974438589
 30
0
  0
VERTEX
  5
201
  8
0
  6
BYLAYER
 62
    7
 10
-2.485672680406834
 20
-18.26483698768084
 30
0
  0
VERTEX
  5
202
  8
0
  6
BYLAYER
 62
    7
 10
-2.578721190158101
 20
-18.3904708421671
 30
0
  0
VERTEX
  5
203
  8
0
  6
BYLAYER
 62
    7
 10
-2.665576859454196
 20
-18.52077360518277
 30
0
  0
VERTEX
  5
204
  8
0
  6
BYLAYER
 62
    7
 10
-2.746021989862709
 20
-18.65552757406599
 30
0
  0
VERTEX
  5
205
  8
0
  6
BYLAYER
 62
    7
 10
-2.819838882951226
 20
-18.79451504615488
 30
0
  0
VERTEX
  5
206
  8
0
  6
BYLAYER
 62
    7
 10
-2.886809840287334
 20
-18.93751831878755
 30
0
  0
VERTEX
  5
207
  8
0
  6
BYLAYER
 62
    7
 10
-2.946717163438621
 20
-19.08431968930213
 30
0
  0
VERTEX
  5
208
  8
0
  6
BYLAYER
 62
    7
 10
-2.999343153972676
 20
-19.23470145503676
 30
0
  0
VERTEX
  5
209
  8
0
  6
BYLAYER
 62
    7
 10
-3.044470113457083
 20
-19.38844591332953
 30
0
  0
VERTEX
  5
20A
  8
0
  6
BYLAYER
 62
    7
 10
-3.081880343459433
 20
-19.54533536151858
 30
0
  0
VERTEX
  5
20B
  8
0
  6
BYLAYER
 62
    7
 10
-3.111356145547313
 20
-19.70515209694203
 30
0
  0
VERTEX
  5
20C
  8
0
  6
BYLAYER
 62
    7
 10
-3.132679821288308
 20
-19.867678416938
 30
0
  0
VERTEX
  5
20D
  8
0
  6
BYLAYER
 62
    7
 10
-3.145633672250008
 20
-20.03269661884461
 30
0
  0
VERTEX
  5
20E
  8
0
  6
BYLAYER
 62
    7
 10
-3.15
 20
-20.199989
 30
0
  0
SEQEND
  5
20F
  8
0
  6
BYLAYER
 62
    7
  0
POLYLINE
  5
210
  8
0
  6
BYLAYER
 62
    7
 66
    1
 10
0
 20
0
 30
0
 70
    0
  0
VERTEX
  5
211
  8
0
  6
BYLAYER
 62
    7
 10
-3.15
 20
-20.199989
 30
0
  0
VERTEX
  5
212
  8
0
  6
BYLAYER
 62
    7
 10
-3.065282411802222
 20
-20.63042600412876
 30
0
  0
VERTEX
  5
213
  8
0
  6
BYLAYER
 62
    7
 10
-2.952974468195093
 20
-21.02488196331107
 30
0
  0
VERTEX
  5
214
  8
0
  6
BYLAYER
 62
    7
 10
-2.815113045819207
 20
-21.38411052354738
 30
0
  0
VERTEX
  5
215
  8
0
  6
BYLAYER
 62
    7
 10
-2.653735021315163
 20
-21.70886533083817
 30
0
  0
VERTEX
  5
216
  8
0
  6
BYLAYER
 62
    7
 10
-2.470877271323555
 20
-21.99990003118391
 30
0
  0
VERTEX
  5
217
  8
0
  6
BYLAYER
 62
    7
 10
-2.268576672484979
 20
-22.25796827058508
 30
0
  0
VERTEX
  5
218
  8
0
  6
BYLAYER
 62
    7
 10
-2.048870101440032
 20
-22.48382369504213
 30
0
  0
VERTEX
  5
219
  8
0
  6
BYLAYER
 62
    7
 10
-1.813794434829311
 20
-22.67821995055553
 30
0
  0
VERTEX
  5
21A
  8
0
  6
BYLAYER
 62
    7
 10
-1.565386549293411
 20
-22.84191068312577
 30
0
  0
VERTEX
  5
21B
  8
0
  6
BYLAYER
 62
    7
 10
-1.305683321472928
 20
-22.97564953875331
 30
0
  0
VERTEX
  5
21C
  8
0
  6
BYLAYER
 62
    7
 10
-1.03672162800846
 20
-23.08019016343862
 30
0
  0
VERTEX
  5
21D
  8
0
  6
BYLAYER
 62
    7
 10
-0.7605383455406007
 20
-23.15628620318217
 30
0
  0
VERTEX
  5
21E
  8
0
  6
BYLAYER
 62
    7
 10
-0.4791703507099473
 20
-23.20469130398443
 30
0
  0
VERTEX
  5
21F
  8
0
  6
BYLAYER
 62
    7
 10
-0.1946545201570961
 20
-23.22615911184586
 30
0
  0
VERTEX
  5
220
  8
0
  6
BYLAYER
 62
    7
 10
0.09097226947735731
 20
-23.22144327276694
 30
0
  0
VERTEX
  5
221
  8
0
  6
BYLAYER
 62
    7
 10
0.3756731415528158
 20
-23.19129743274814
 30
0
  0
VERTEX
  5
222
  8
0
  6
BYLAYER
 62
    7
 10
0.657411219428684
 20
-23.13647523778993
 30
0
  0
VERTEX
  5
223
  8
0
  6
BYLAYER
 62
    7
 10
0.9341496264643662
 20
-23.05773033389278
 30
0
  0
VERTEX
  5
224
  8
0
  6
BYLAYER
 62
    7
 10
1.203851486019265
 20
-22.95581636705717
 30
0
  0
VERTEX
  5
225
  8
0
  6
BYLAYER
 62
    7
 10
1.464479921452785
 20
-22.83148698328354
 30
0
  0
VERTEX
  5
226
  8
0
  6
BYLAYER
 62
    7
 10
1.71399805612433
 20
-22.68549582857239
 30
0
  0
VERTEX
  5
227
  8
0
  6
BYLAYER
 62
    7
 10
1.950369013393304
 20
-22.51859654892417
 30
0
  0
VERTEX
  5
228
  8
0
  6
BYLAYER
 62
    7
 10
2.171555916619111
 20
-22.33154279033937
 30
0
  0
VERTEX
  5
229
  8
0
  6
BYLAYER
 62
    7
 10
2.375521889161153
 20
-22.12508819881844
 30
0
  0
VERTEX
  5
22A
  8
0
  6
BYLAYER
 62
    7
 10
2.560230054378836
 20
-21.89998642036186
 30
0
  0
VERTEX
  5
22B
  8
0
  6
BYLAYER
 62
    7
 10
2.723643535631564
 20
-21.65699110097009
 30
0
  0
VERTEX
  5
22C
  8
0
  6
BYLAYER
 62
    7
 10
2.86372545627874
 20
-21.39685588664362
 30
0
  0
VERTEX
  5
22D
  8
0
  6
BYLAYER
 62
    7
 10
2.978438939679767
 20
-21.12033442338291
 30
0
  0
VERTEX
  5
22E
  8
0
  6
BYLAYER
 62
    7
 10
3.06574710919405
 20
-20.82818035718842
 30
0
  0
VERTEX
  5
22F
  8
0
  6
BYLAYER
 62
    7
 10
3.123613088180993
 20
-20.52114733406063
 30
0
  0
VERTEX
  5
230
  8
0
  6
BYLAYER
 62
    7
 10
3.15
 20
-20.199989
 30
0
  0
SEQEND
  5
231
  8
0
  6
BYLAYER
 62
    7
  0
POLYLINE
  5
232
  8
0
  6
BYLAYER
 62
    7
 66
    1
 10
0
 20
0
 30
0
 70
    1
  0
VERTEX
  5
233
  8
0
  6
BYLAYER
 62
    7
 10
14.3
 20
13.5
 30
0
  0
SEQEND
  5
234
  8
0
  6
BYLAYER
 62
    7
  0
POLYLINE
  5
235
  8
0
  6
BYLAYER
 62
    7
 66
    1
 10
0
 20
0
 30
0
 70
    0
  0
VERTEX
  5
236
  8
0
  6
BYLAYER
 62
    7
 10
-9.35
 20
13.5
 30
0
  0
VERTEX
  5
237
  8
0
  6
BYLAYER
 62
    7
 10
-9.351835908361585
 20
13.60864977983283
 30
0
  0
VERTEX
  5
238
  8
0
  6
BYLAYER
 62
    7
 10
-9.357376357423382
 20
13.71668764969286
 30
0
  0
VERTEX
  5
239
  8
0
  6
BYLAYER
 62
    7
 10
-9.366575787989662
 20
13.82403466318687
 30
0
  0
VERTEX
  5
23A
  8
0
  6
BYLAYER
 62
    7
 10
-9.379388640864692
 20
13.93061187392166
 30
0
  0
VERTEX
  5
23B
  8
0
  6
BYLAYER
 62
    7
 10
-9.395769356852741
 20
14.03634033550401
 30
0
  0
VERTEX
  5
23C
  8
0
  6
BYLAYER
 62
    7
 10
-9.415672376758083
 20
14.14114110154073
 30
0
  0
VERTEX
  5
23D
  8
0
  6
BYLAYER
 62
    7
 10
-9.439052141384982
 20
14.24493522563862
 30
0
  0
VERTEX
  5
23E
  8
0
  6
BYLAYER
 62
    7
 10
-9.465863091537713
 20
14.34764376140445
 30
0
  0
VERTEX
  5
23F
  8
0
  6
BYLAYER
 62
    7
 10
-9.496059668020543
 20
14.44918776244503
 30
0
  0
VERTEX
  5
240
  8
0
  6
BYLAYER
 62
    7
 10
-9.529596311637743
 20
14.54948828236716
 30
0
  0
VERTEX
  5
241
  8
0
  6
BYLAYER
 62
    7
 10
-9.566427463193582
 20
14.64846637477762
 30
0
  0
VERTEX
  5
242
  8
0
  6
BYLAYER
 62
    7
 10
-9.606507563492331
 20
14.74604309328321
 30
0
  0
VERTEX
  5
243
  8
0
  6
BYLAYER
 62
    7
 10
-9.649791053338257
 20
14.84213949149072
 30
0
  0
VERTEX
  5
244
  8
0
  6
BYLAYER
 62
    7
 10
-9.696232373535633
 20
14.93667662300695
 30
0
  0
VERTEX
  5
245
  8
0
  6
BYLAYER
 62
    7
 10
-9.745785964888725
 20
15.02957554143869
 30
0
  0
VERTEX
  5
246
  8
0
  6
BYLAYER
 62
    7
 10
-9.798406268201806
 20
15.12075730039273
 30
0
  0
VERTEX
  5
247
  8
0
  6
BYLAYER
 62
    7
 10
-9.854047724279143
 20
15.21014295347588
 30
0
  0
VERTEX
  5
248
  8
0
  6
BYLAYER
 62
    7
 10
-9.912664773925011
 20
15.29765355429492
 30
0
  0
VERTEX
  5
249
  8
0
  6
BYLAYER
 62
    7
 10
-9.974211857943676
 20
15.38321015645665
 30
0
  0
VERTEX
  5
24A
  8
0
  6
BYLAYER
 62
    7
 10
-10.0386434171394
 20
15.46673381356786
 30
0
  0
VERTEX
  5
24B
  8
0
  6
BYLAYER
 62
    7
 10
-10.10591389231647
 20
15.54814557923534
 30
0
  0
VERTEX
  5
24C
  8
0
  6
BYLAYER
 62
    7
 10
-10.17597772427914
 20
15.62736650706589
 30
0
  0
VERTEX
  5
24D
  8
0
  6
BYLAYER
 62
    7
 10
-10.24878935383169
 20
15.70431765066631
 30
0
  0
VERTEX
  5
24E
  8
0
  6
BYLAYER
 62
    7
 10
-10.32430322177839
 20
15.77892006364338
 30
0
  0
VERTEX
  5
24F
  8
0
  6
BYLAYER
 62
    7
 10
-10.4024737689235
 20
15.85109479960391
 30
0
  0
VERTEX
  5
250
  8
0
  6
BYLAYER
 62
    7
 10
-10.48325543607129
 20
15.92076291215468
 30
0
  0
VERTEX
  5
251
  8
0
  6
BYLAYER
 62
    7
 10
-10.56660266402605
 20
15.98784545490249
 30
0
  0
VERTEX
  5
252
  8
0
  6
BYLAYER
 62
    7
 10
-10.65246989359202
 20
16.05226348145413
 30
0
  0
VERTEX
  5
253
  8
0
  6
BYLAYER
 62
    7
 10
-10.74081156557349
 20
16.1139380454164
 30
0
  0
VERTEX
  5
254
  8
0
  6
BYLAYER
 62
    7
 10
-10.83158212077473
 20
16.17279020039609
 30
0
  0
VERTEX
  5
255
  8
0
  6
BYLAYER
 62
    7
 10
-10.924736
 20
16.228741
 30
0
  0
SEQEND
  5
256
  8
0
  6
BYLAYER
 62
    7
  0
POLYLINE
  5
257
  8
0
  6
BYLAYER
 62
    7
 66
    1
 10
0
 20
0
 30
0
 70
    0
  0
VERTEX
  5
258
  8
0
  6
BYLAYER
 62
    7
 10
-10.924736
 20
16.228741
 30
0
  0
VERTEX
  5
259
  8
0
  6
BYLAYER
 62
    7
 10
-11.01975766184418
 20
16.28145758688865
 30
0
  0
VERTEX
  5
25A
  8
0
  6
BYLAYER
 62
    7
 10
-11.1161009784163
 20
16.33065973465141
 30
0
  0
VERTEX
  5
25B
  8
0
  6
BYLAYER
 62
    7
 10
-11.21367480111443
 20
16.37634744328824
 30
0
  0
VERTEX
  5
25C
  8
0
  6
BYLAYER
 62
    7
 10
-11.31238798133665
 20
16.41852071279917
 30
0
  0
VERTEX
  5
25D
  8
0
  6
BYLAYER
 62
    7
 10
-11.41214937048102
 20
16.45717954318418
 30
0
  0
VERTEX
  5
25E
  8
0
  6
BYLAYER
 62
    7
 10
-11.51286781994562
 20
16.49232393444329
 30
0
  0
VERTEX
  5
25F
  8
0
  6
BYLAYER
 62
    7
 10
-11.61445218112853
 20
16.52395388657648
 30
0
  0
VERTEX
  5
260
  8
0
  6
BYLAYER
 62
    7
 10
-11.71681130542781
 20
16.55206939958376
 30
0
  0
VERTEX
  5
261
  8
0
  6
BYLAYER
 62
    7
 10
-11.81985404424155
 20
16.57667047346514
 30
0
  0
VERTEX
  5
262
  8
0
  6
BYLAYER
 62
    7
 10
-11.92348924896781
 20
16.59775710822061
 30
0
  0
VERTEX
  5
263
  8
0
  6
BYLAYER
 62
    7
 10
-12.02762577100467
 20
16.61532930385016
 30
0
  0
VERTEX
  5
264
  8
0
  6
BYLAYER
 62
    7
 10
-12.13217246175019
 20
16.6293870603538
 30
0
  0
VERTEX
  5
265
  8
0
  6
BYLAYER
 62
    7
 10
-12.23703817260246
 20
16.63993037773153
 30
0
  0
VERTEX
  5
266
  8
0
  6
BYLAYER
 62
    7
 10
-12.34213175495955
 20
16.64695925598335
 30
0
  0
VERTEX
  5
267
  8
0
  6
BYLAYER
 62
    7
 10
-12.44736206021953
 20
16.65047369510926
 30
0
  0
VERTEX
  5
268
  8
0
  6
BYLAYER
 62
    7
 10
-12.55263793978047
 20
16.65047369510926
 30
0
  0
VERTEX
  5
269
  8
0
  6
BYLAYER
 62
    7
 10
-12.65786824504045
 20
16.64695925598335
 30
0
  0
VERTEX
  5
26A
  8
0
  6
BYLAYER
 62
    7
 10
-12.76296182739754
 20
16.63993037773153
 30
0
  0
VERTEX
  5
26B
  8
0
  6
BYLAYER
 62
    7
 10
-12.86782753824981
 20
16.6293870603538
 30
0
  0
VERTEX
  5
26C
  8
0
  6
BYLAYER
 62
    7
 10
-12.97237422899533
 20
16.61532930385016
 30
0
  0
VERTEX
  5
26D
  8
0
  6
BYLAYER
 62
    7
 10
-13.07651075103219
 20
16.59775710822061
 30
0
  0
VERTEX
  5
26E
  8
0
  6
BYLAYER
 62
    7
 10
-13.18014595575845
 20
16.57667047346514
 30
0
  0
VERTEX
  5
26F
  8
0
  6
BYLAYER
 62
    7
 10
-13.28318869457219
 20
16.55206939958377
 30
0
  0
VERTEX
  5
270
  8
0
  6
BYLAYER
 62
    7
 10
-13.38554781887147
 20
16.52395388657649
 30
0
  0
VERTEX
  5
271
  8
0
  6
BYLAYER
 62
    7
 10
-13.48713218005438
 20
16.49232393444329
 30
0
  0
VERTEX
  5
272
  8
0
  6
BYLAYER
 62
    7
 10
-13.58785062951898
 20
16.45717954318418
 30
0
  0
VERTEX
  5
273
  8
0
  6
BYLAYER
 62
    7
 10
-13.68761201866335
 20
16.41852071279917
 30
0
  0
VERTEX
  5
274
  8
0
  6
BYLAYER
 62
    7
 10
-13.78632519888557
 20
16.37634744328824
 30
0
  0
VERTEX
  5
275
  8
0
  6
BYLAYER
 62
    7
 10
-13.8838990215837
 20
16.33065973465141
 30
0
  0
VERTEX
  5
276
  8
0
  6
BYLAYER
 62
    7
 10
-13.98024233815582
 20
16.28145758688866
 30
0
  0
VERTEX
  5
277
  8
0
  6
BYLAYER
 62
    7
 10
-14.075264
 20
16.228741
 30
0
  0
SEQEND
  5
278
  8
0
  6
BYLAYER
 62
    7
  0
POLYLINE
  5
279
  8
0
  6
BYLAYER
 62
    7
 66
    1
 10
0
 20
0
 30
0
 70
    0
  0
VERTEX
  5
27A
  8
0
  6
BYLAYER
 62
    7
 10
-14.075264
 20
16.228741
 30
0
  0
VERTEX
  5
27B
  8
0
  6
BYLAYER
 62
    7
 10
-14.16841787922527
 20
16.17279020039609
 30
0
  0
VERTEX
  5
27C
  8
0
  6
BYLAYER
 62
    7
 10
-14.25918843442651
 20
16.1139380454164
 30
0
  0
VERTEX
  5
27D
  8
0
  6
BYLAYER
 62
    7
 10
-14.34753010640798
 20
16.05226348145413
 30
0
  0
VERTEX
  5
27E
  8
0
  6
BYLAYER
 62
    7
 10
-14.43339733597395
 20
15.98784545490249
 30
0
  0
VERTEX
  5
27F
  8
0
  6
BYLAYER
 62
    7
 10
-14.5167445639287
 20
15.92076291215468
 30
0
  0
VERTEX
  5
280
  8
0
  6
BYLAYER
 62
    7
 10
-14.5975262310765
 20
15.85109479960391
 30
0
  0
VERTEX
  5
281
  8
0
  6
BYLAYER
 62
    7
 10
-14.67569677822161
 20
15.77892006364338
 30
0
  0
VERTEX
  5
282
  8
0
  6
BYLAYER
 62
    7
 10
-14.75121064616831
 20
15.70431765066631
 30
0
  0
VERTEX
  5
283
  8
0
  6
BYLAYER
 62
    7
 10
-14.82402227572085
 20
15.62736650706589
 30
0
  0
VERTEX
  5
284
  8
0
  6
BYLAYER
 62
    7
 10
-14.89408610768353
 20
15.54814557923534
 30
0
  0
VERTEX
  5
285
  8
0
  6
BYLAYER
 62
    7
 10
-14.96135658286059
 20
15.46673381356785
 30
0
  0
VERTEX
  5
286
  8
0
  6
BYLAYER
 62
    7
 10
-15.02578814205633
 20
15.38321015645665
 30
0
  0
VERTEX
  5
287
  8
0
  6
BYLAYER
 62
    7
 10
-15.08733522607499
 20
15.29765355429492
 30
0
  0
VERTEX
  5
288
  8
0
  6
BYLAYER
 62
    7
 10
-15.14595227572086
 20
15.21014295347588
 30
0
  0
VERTEX
  5
289
  8
0
  6
BYLAYER
 62
    7
 10
-15.20159373179819
 20
15.12075730039274
 30
0
  0
VERTEX
  5
28A
  8
0
  6
BYLAYER
 62
    7
 10
-15.25421403511127
 20
15.02957554143869
 30
0
  0
VERTEX
  5
28B
  8
0
  6
BYLAYER
 62
    7
 10
-15.30376762646437
 20
14.93667662300695
 30
0
  0
VERTEX
  5
28C
  8
0
  6
BYLAYER
 62
    7
 10
-15.35020894666174
 20
14.84213949149072
 30
0
  0
VERTEX
  5
28D
  8
0
  6
BYLAYER
 62
    7
 10
-15.39349243650767
 20
14.74604309328321
 30
0
  0
VERTEX
  5
28E
  8
0
  6
BYLAYER
 62
    7
 10
-15.43357253680642
 20
14.64846637477762
 30
0
  0
VERTEX
  5
28F
  8
0
  6
BYLAYER
 62
    7
 10
-15.47040368836226
 20
14.54948828236716
 30
0
  0
VERTEX
  5
290
  8
0
  6
BYLAYER
 62
    7
 10
-15.50394033197946
 20
14.44918776244504
 30
0
  0
VERTEX
  5
291
  8
0
  6
BYLAYER
 62
    7
 10
-15.53413690846229
 20
14.34764376140445
 30
0
  0
VERTEX
  5
292
  8
0
  6
BYLAYER
 62
    7
 10
-15.56094785861502
 20
14.24493522563862
 30
0
  0
VERTEX
  5
293
  8
0
  6
BYLAYER
 62
    7
 10
-15.58432762324192
 20
14.14114110154073
 30
0
  0
VERTEX
  5
294
  8
0
  6
BYLAYER
 62
    7
 10
-15.60423064314726
 20
14.03634033550401
 30
0
  0
VERTEX
  5
295
  8
0
  6
BYLAYER
 62
    7
 10
-15.62061135913531
 20
13.93061187392166
 30
0
  0
VERTEX
  5
296
  8
0
  6
BYLAYER
 62
    7
 10
-15.63342421201034
 20
13.82403466318687
 30
0
  0
VERTEX
  5
297
  8
0
  6
BYLAYER
 62
    7
 10
-15.64262364257662
 20
13.71668764969286
 30
0
  0
VERTEX
  5
298
  8
0
  6
BYLAYER
 62
    7
 10
-15.64816409163841
 20
13.60864977983284
 30
0
  0
VERTEX
  5
299
  8
0
  6
BYLAYER
 62
    7
 10
-15.65
 20
13.5
 30
0
  0
SEQEND
  5
29A
  8
0
  6
BYLAYER
 62
    7
  0
POLYLINE
  5
29B
  8
0
  6
BYLAYER
 62
    7
 66
    1
 10
0
 20
0
 30
0
 70
    0
  0
VERTEX
  5
29C
  8
0
  6
BYLAYER
 62
    7
 10
-15.65
 20
13.5
 30
0
  0
VERTEX
  5
29D
  8
0
  6
BYLAYER
 62
    7
 10
-15.64816409163841
 20
13.39135022016717
 30
0
  0
VERTEX
  5
29E
  8
0
  6
BYLAYER
 62
    7
 10
-15.64262364257662
 20
13.28331235030714
 30
0
  0
VERTEX
  5
29F
  8
0
  6
BYLAYER
 62
    7
 10
-15.63342421201034
 20
13.17596533681313
 30
0
  0
VERTEX
  5
2A0
  8
0
  6
BYLAYER
 62
    7
 10
-15.62061135913531
 20
13.06938812607835
 30
0
  0
VERTEX
  5
2A1
  8
0
  6
BYLAYER
 62
    7
 10
-15.60423064314726
 20
12.96365966449599
 30
0
  0
VERTEX
  5
2A2
  8
0
  6
BYLAYER
 62
    7
 10
-15.58432762324192
 20
12.85885889845927
 30
0
  0
VERTEX
  5
2A3
  8
0
  6
BYLAYER
 62
    7
 10
-15.56094785861502
 20
12.75506477436139
 30
0
  0
VERTEX
  5
2A4
  8
0
  6
BYLAYER
 62
    7
 10
-15.53413690846229
 20
12.65235623859555
 30
0
  0
VERTEX
  5
2A5
  8
0
  6
BYLAYER
 62
    7
 10
-15.50394033197945
 20
12.55081223755497
 30
0
  0
VERTEX
  5
2A6
  8
0
  6
BYLAYER
 62
    7
 10
-15.47040368836226
 20
12.45051171763284
 30
0
  0
VERTEX
  5
2A7
  8
0
  6
BYLAYER
 62
    7
 10
-15.43357253680642
 20
12.35153362522238
 30
0
  0
VERTEX
  5
2A8
  8
0
  6
BYLAYER
 62
    7
 10
-15.39349243650767
 20
12.2539569067168
 30
0
  0
VERTEX
  5
2A9
  8
0
  6
BYLAYER
 62
    7
 10
-15.35020894666174
 20
12.15786050850928
 30
0
  0
VERTEX
  5
2AA
  8
0
  6
BYLAYER
 62
    7
 10
-15.30376762646437
 20
12.06332337699305
 30
0
  0
VERTEX
  5
2AB
  8
0
  6
BYLAYER
 62
    7
 10
-15.25421403511128
 20
11.97042445856131
 30
0
  0
VERTEX
  5
2AC
  8
0
  6
BYLAYER
 62
    7
 10
-15.20159373179819
 20
11.87924269960726
 30
0
  0
VERTEX
  5
2AD
  8
0
  6
BYLAYER
 62
    7
 10
-15.14595227572086
 20
11.78985704652412
 30
0
  0
VERTEX
  5
2AE
  8
0
  6
BYLAYER
 62
    7
 10
-15.08733522607499
 20
11.70234644570508
 30
0
  0
VERTEX
  5
2AF
  8
0
  6
BYLAYER
 62
    7
 10
-15.02578814205633
 20
11.61678984354335
 30
0
  0
VERTEX
  5
2B0
  8
0
  6
BYLAYER
 62
    7
 10
-14.9613565828606
 20
11.53326618643214
 30
0
  0
VERTEX
  5
2B1
  8
0
  6
BYLAYER
 62
    7
 10
-14.89408610768353
 20
11.45185442076466
 30
0
  0
VERTEX
  5
2B2
  8
0
  6
BYLAYER
 62
    7
 10
-14.82402227572086
 20
11.37263349293411
 30
0
  0
VERTEX
  5
2B3
  8
0
  6
BYLAYER
 62
    7
 10
-14.75121064616831
 20
11.29568234933369
 30
0
  0
VERTEX
  5
2B4
  8
0
  6
BYLAYER
 62
    7
 10
-14.67569677822161
 20
11.22107993635662
 30
0
  0
VERTEX
  5
2B5
  8
0
  6
BYLAYER
 62
    7
 10
-14.5975262310765
 20
11.14890520039609
 30
0
  0
VERTEX
  5
2B6
  8
0
  6
BYLAYER
 62
    7
 10
-14.5167445639287
 20
11.07923708784532
 30
0
  0
VERTEX
  5
2B7
  8
0
  6
BYLAYER
 62
    7
 10
-14.43339733597395
 20
11.01215454509751
 30
0
  0
VERTEX
  5
2B8
  8
0
  6
BYLAYER
 62
    7
 10
-14.34753010640798
 20
10.94773651854587
 30
0
  0
VERTEX
  5
2B9
  8
0
  6
BYLAYER
 62
    7
 10
-14.25918843442651
 20
10.8860619545836
 30
0
  0
VERTEX
  5
2BA
  8
0
  6
BYLAYER
 62
    7
 10
-14.16841787922527
 20
10.82720979960391
 30
0
  0
VERTEX
  5
2BB
  8
0
  6
BYLAYER
 62
    7
 10
-14.075264
 20
10.771259
 30
0
  0
SEQEND
  5
2BC
  8
0
  6
BYLAYER
 62
    7
  0
POLYLINE
  5
2BD
  8
0
  6
BYLAYER
 62
    7
 66
    1
 10
0
 20
0
 30
0
 70
    0
  0
VERTEX
  5
2BE
  8
0
  6
BYLAYER
 62
    7
 10
-14.075264
 20
10.771259
 30
0
  0
VERTEX
  5
2BF
  8
0
  6
BYLAYER
 62
    7
 10
-13.98024233815582
 20
10.71854241311134
 30
0
  0
VERTEX
  5
2C0
  8
0
  6
BYLAYER
 62
    7
 10
-13.8838990215837
 20
10.6693402653486
 30
0
  0
VERTEX
  5
2C1
  8
0
  6
BYLAYER
 62
    7
 10
-13.78632519888557
 20
10.62365255671176
 30
0
  0
VERTEX
  5
2C2
  8
0
  6
BYLAYER
 62
    7
 10
-13.68761201866336
 20
10.58147928720083
 30
0
  0
VERTEX
  5
2C3
  8
0
  6
BYLAYER
 62
    7
 10
-13.58785062951898
 20
10.54282045681582
 30
0
  0
VERTEX
  5
2C4
  8
0
  6
BYLAYER
 62
    7
 10
-13.48713218005438
 20
10.50767606555671
 30
0
  0
VERTEX
  5
2C5
  8
0
  6
BYLAYER
 62
    7
 10
-13.38554781887147
 20
10.47604611342352
 30
0
  0
VERTEX
  5
2C6
  8
0
  6
BYLAYER
 62
    7
 10
-13.28318869457219
 20
10.44793060041623
 30
0
  0
VERTEX
  5
2C7
  8
0
  6
BYLAYER
 62
    7
 10
-13.18014595575845
 20
10.42332952653486
 30
0
  0
VERTEX
  5
2C8
  8
0
  6
BYLAYER
 62
    7
 10
-13.07651075103219
 20
10.4022428917794
 30
0
  0
VERTEX
  5
2C9
  8
0
  6
BYLAYER
 62
    7
 10
-12.97237422899533
 20
10.38467069614985
 30
0
  0
VERTEX
  5
2CA
  8
0
  6
BYLAYER
 62
    7
 10
-12.86782753824981
 20
10.3706129396462
 30
0
  0
VERTEX
  5
2CB
  8
0
  6
BYLAYER
 62
    7
 10
-12.76296182739754
 20
10.36006962226847
 30
0
  0
VERTEX
  5
2CC
  8
0
  6
BYLAYER
 62
    7
 10
-12.65786824504045
 20
10.35304074401665
 30
0
  0
VERTEX
  5
2CD
  8
0
  6
BYLAYER
 62
    7
 10
-12.55263793978047
 20
10.34952630489074
 30
0
  0
VERTEX
  5
2CE
  8
0
  6
BYLAYER
 62
    7
 10
-12.44736206021953
 20
10.34952630489074
 30
0
  0
VERTEX
  5
2CF
  8
0
  6
BYLAYER
 62
    7
 10
-12.34213175495955
 20
10.35304074401665
 30
0
  0
VERTEX
  5
2D0
  8
0
  6
BYLAYER
 62
    7
 10
-12.23703817260247
 20
10.36006962226847
 30
0
  0
VERTEX
  5
2D1
  8
0
  6
BYLAYER
 62
    7
 10
-12.13217246175019
 20
10.3706129396462
 30
0
  0
VERTEX
  5
2D2
  8
0
  6
BYLAYER
 62
    7
 10
-12.02762577100467
 20
10.38467069614984
 30
0
  0
VERTEX
  5
2D3
  8
0
  6
BYLAYER
 62
    7
 10
-11.92348924896781
 20
10.4022428917794
 30
0
  0
VERTEX
  5
2D4
  8
0
  6
BYLAYER
 62
    7
 10
-11.81985404424155
 20
10.42332952653486
 30
0
  0
VERTEX
  5
2D5
  8
0
  6
BYLAYER
 62
    7
 10
-11.71681130542781
 20
10.44793060041623
 30
0
  0
VERTEX
  5
2D6
  8
0
  6
BYLAYER
 62
    7
 10
-11.61445218112853
 20
10.47604611342352
 30
0
  0
VERTEX
  5
2D7
  8
0
  6
BYLAYER
 62
    7
 10
-11.51286781994562
 20
10.50767606555671
 30
0
  0
VERTEX
  5
2D8
  8
0
  6
BYLAYER
 62
    7
 10
-11.41214937048102
 20
10.54282045681582
 30
0
  0
VERTEX
  5
2D9
  8
0
  6
BYLAYER
 62
    7
 10
-11.31238798133665
 20
10.58147928720083
 30
0
  0
VERTEX
  5
2DA
  8
0
  6
BYLAYER
 62
    7
 10
-11.21367480111443
 20
10.62365255671176
 30
0
  0
VERTEX
  5
2DB
  8
0
  6
BYLAYER
 62
    7
 10
-11.1161009784163
 20
10.66934026534859
 30
0
  0
VERTEX
  5
2DC
  8
0
  6
BYLAYER
 62
    7
 10
-11.01975766184418
 20
10.71854241311134
 30
0
  0
VERTEX
  5
2DD
  8
0
  6
BYLAYER
 62
    7
 10
-10.924736
 20
10.771259
 30
0
  0
SEQEND
  5
2DE
  8
0
  6
BYLAYER
 62
    7
  0
POLYLINE
  5
2DF
  8
0
  6
BYLAYER
 62
    7
 66
    1
 10
0
 20
0
 30
0
 70
    0
  0
VERTEX
  5
2E0
  8
0
  6
BYLAYER
 62
    7
 10
-10.924736
 20
10.771259
 30
0
  0
VERTEX
  5
2E1
  8
0
  6
BYLAYER
 62
    7
 10
-10.83158212077473
 20
10.82720979960391
 30
0
  0
VERTEX
  5
2E2
  8
0
  6
BYLAYER
 62
    7
 10
-10.7408115655735
 20
10.8860619545836
 30
0
  0
VERTEX
  5
2E3
  8
0
  6
BYLAYER
 62
    7
 10
-10.65246989359202
 20
10.94773651854587
 30
0
  0
VERTEX
  5
2E4
  8
0
  6
BYLAYER
 62
    7
 10
-10.56660266402605
 20
11.01215454509751
 30
0
  0
VERTEX
  5
2E5
  8
0
  6
BYLAYER
 62
    7
 10
-10.4832554360713
 20
11.07923708784532
 30
0
  0
VERTEX
  5
2E6
  8
0
  6
BYLAYER
 62
    7
 10
-10.4024737689235
 20
11.1489052003961
 30
0
  0
VERTEX
  5
2E7
  8
0
  6
BYLAYER
 62
    7
 10
-10.32430322177839
 20
11.22107993635662
 30
0
  0
VERTEX
  5
2E8
  8
0
  6
BYLAYER
 62
    7
 10
-10.24878935383169
 20
11.29568234933369
 30
0
  0
VERTEX
  5
2E9
  8
0
  6
BYLAYER
 62
    7
 10
-10.17597772427914
 20
11.37263349293411
 30
0
  0
VERTEX
  5
2EA
  8
0
  6
BYLAYER
 62
    7
 10
-10.10591389231647
 20
11.45185442076466
 30
0
  0
VERTEX
  5
2EB
  8
0
  6
BYLAYER
 62
    7
 10
-10.0386434171394
 20
11.53326618643214
 30
0
  0
VERTEX
  5
2EC
  8
0
  6
BYLAYER
 62
    7
 10
-9.974211857943674
 20
11.61678984354335
 30
0
  0
VERTEX
  5
2ED
  8
0
  6
BYLAYER
 62
    7
 10
-9.912664773925011
 20
11.70234644570508
 30
0
  0
VERTEX
  5
2EE
  8
0
  6
BYLAYER
 62
    7
 10
-9.854047724279145
 20
11.78985704652412
 30
0
  0
VERTEX
  5
2EF
  8
0
  6
BYLAYER
 62
    7
 10
-9.798406268201806
 20
11.87924269960726
 30
0
  0
VERTEX
  5
2F0
  8
0
  6
BYLAYER
 62
    7
 10
-9.745785964888725
 20
11.97042445856131
 30
0
  0
VERTEX
  5
2F1
  8
0
  6
BYLAYER
 62
    7
 10
-9.696232373535631
 20
12.06332337699305
 30
0
  0
VERTEX
  5
2F2
  8
0
  6
BYLAYER
 62
    7
 10
-9.649791053338257
 20
12.15786050850928
 30
0
  0
VERTEX
  5
2F3
  8
0
  6
BYLAYER
 62
    7
 10
-9.606507563492331
 20
12.25395690671679
 30
0
  0
VERTEX
  5
2F4
  8
0
  6
BYLAYER
 62
    7
 10
-9.566427463193584
 20
12.35153362522238
 30
0
  0
VERTEX
  5
2F5
  8
0
  6
BYLAYER
 62
    7
 10
-9.529596311637743
 20
12.45051171763284
 30
0
  0
VERTEX
  5
2F6
  8
0
  6
BYLAYER
 62
    7
 10
-9.496059668020544
 20
12.55081223755497
 30
0
  0
VERTEX
  5
2F7
  8
0
  6
BYLAYER
 62
    7
 10
-9.465863091537713
 20
12.65235623859555
 30
0
  0
VERTEX
  5
2F8
  8
0
  6
BYLAYER
 62
    7
 10
-9.439052141384984
 20
12.75506477436138
 30
0
  0
VERTEX
  5
2F9
  8
0
  6
BYLAYER
 62
    7
 10
-9.415672376758081
 20
12.85885889845926
 30
0
  0
VERTEX
  5
2FA
  8
0
  6
BYLAYER
 62
    7
 10
-9.395769356852741
 20
12.96365966449599
 30
0
  0
VERTEX
  5
2FB
  8
0
  6
BYLAYER
 62
    7
 10
-9.379388640864692
 20
13.06938812607835
 30
0
  0
VERTEX
  5
2FC
  8
0
  6
BYLAYER
 62
    7
 10
-9.36657578798966
 20
13.17596533681313
 30
0
  0
VERTEX
  5
2FD
  8
0
  6
BYLAYER
 62
    7
 10
-9.357376357423382
 20
13.28331235030714
 30
0
  0
VERTEX
  5
2FE
  8
0
  6
BYLAYER
 62
    7
 10
-9.351835908361586
 20
13.39135022016716
 30
0
  0
VERTEX
  5
2FF
  8
0
  6
BYLAYER
 62
    7
 10
-9.35
 20
13.5
 30
0
  0
SEQEND
  5
300
  8
0
  6
BYLAYER
 62
    7
  0
POLYLINE
  5
301
  8
0
  6
BYLAYER
 62
    7
 66
    1
 10
0
 20
0
 30
0
 70
    1
  0
VERTEX
  5
302
  8
0
  6
BYLAYER
 62
    7
 10
3.15
 20
-20.199989
 30
0
  0
SEQEND
  5
303
  8
0
  6
BYLAYER
 62
    7
  0
POLYLINE
  5
304
  8
0
  6
BYLAYER
 62
    7
 66
    1
 10
0
 20
0
 30
0
 70
    0
  0
VERTEX
  5
305
  8
0
  6
BYLAYER
 62
    7
 10
-10.7
 20
13.5
 30
0
  0
VERTEX
  5
306
  8
0
  6
BYLAYER
 62
    7
 10
-10.70104336615085
 20
13.56208950156087
 30
0
  0
VERTEX
  5
307
  8
0
  6
BYLAYER
 62
    7
 10
-10.70420391359807
 20
13.62382947346514
 30
0
  0
VERTEX
  5
308
  8
0
  6
BYLAYER
 62
    7
 10
-10.70945560615622
 20
13.68517479396462
 30
0
  0
VERTEX
  5
309
  8
0
  6
BYLAYER
 62
    7
 10
-10.71677240763989
 20
13.74608034131114
 30
0
  0
VERTEX
  5
30A
  8
0
  6
BYLAYER
 62
    7
 10
-10.72612828186365
 20
13.8065009937565
 30
0
  0
VERTEX
  5
30B
  8
0
  6
BYLAYER
 62
    7
 10
-10.73749719264207
 20
13.86639162955255
 30
0
  0
VERTEX
  5
30C
  8
0
  6
BYLAYER
 62
    7
 10
-10.75085310378974
 20
13.92570712695109
 30
0
  0
VERTEX
  5
30D
  8
0
  6
BYLAYER
 62
    7
 10
-10.76616997912121
 20
13.98440236420396
 30
0
  0
VERTEX
  5
30E
  8
0
  6
BYLAYER
 62
    7
 10
-10.78342178245107
 20
14.04243221956295
 30
0
  0
VERTEX
  5
30F
  8
0
  6
BYLAYER
 62
    7
 10
-10.8025824775939
 20
14.09975157127992
 30
0
  0
VERTEX
  5
310
  8
0
  6
BYLAYER
 62
    7
 10
-10.82362602836427
 20
14.15631529760666
 30
0
  0
VERTEX
  5
311
  8
0
  6
BYLAYER
 62
    7
 10
-10.84652639857675
 20
14.21207827679501
 30
0
  0
VERTEX
  5
312
  8
0
  6
BYLAYER
 62
    7
 10
-10.87125755204592
 20
14.26699538709678
 30
0
  0
VERTEX
  5
313
  8
0
  6
BYLAYER
 62
    7
 10
-10.89779345258635
 20
14.32102150676379
 30
0
  0
VERTEX
  5
314
  8
0
  6
BYLAYER
 62
    7
 10
-10.92610806401262
 20
14.37411151404787
 30
0
  0
VERTEX
  5
315
  8
0
  6
BYLAYER
 62
    7
 10
-10.9561753501393
 20
14.42622028720083
 30
0
  0
VERTEX
  5
316
  8
0
  6
BYLAYER
 62
    7
 10
-10.98796927478097
 20
14.47730270447451
 30
0
  0
VERTEX
  5
317
  8
0
  6
BYLAYER
 62
    7
 10
-11.0214638017522
 20
14.52731364412071
 30
0
  0
VERTEX
  5
318
  8
0
  6
BYLAYER
 62
    7
 10
-11.05663289486758
 20
14.57620798439126
 30
0
  0
VERTEX
  5
319
  8
0
  6
BYLAYER
 62
    7
 10
-11.09345051794166
 20
14.62394060353798
 30
0
  0
VERTEX
  5
31A
  8
0
  6
BYLAYER
 62
    7
 10
-11.13189063478903
 20
14.67046637981269
 30
0
  0
VERTEX
  5
31B
  8
0
  6
BYLAYER
 62
    7
 10
-11.17192720922426
 20
14.71574019146722
 30
0
  0
VERTEX
  5
31C
  8
0
  6
BYLAYER
 62
    7
 10
-11.21353420506193
 20
14.75971691675338
 30
0
  0
VERTEX
  5
31D
  8
0
  6
BYLAYER
 62
    7
 10
-11.25668558611661
 20
14.802351433923
 30
0
  0
VERTEX
  5
31E
  8
0
  6
BYLAYER
 62
    7
 10
-11.30135531620288
 20
14.84359862122789
 30
0
  0
VERTEX
  5
31F
  8
0
  6
BYLAYER
 62
    7
 10
-11.34751735913531
 20
14.88341335691987
 30
0
  0
VERTEX
  5
320
  8
0
  6
BYLAYER
 62
    7
 10
-11.39514567872848
 20
14.92175051925078
 30
0
  0
VERTEX
  5
321
  8
0
  6
BYLAYER
 62
    7
 10
-11.44421423879695
 20
14.95856498647242
 30
0
  0
VERTEX
  5
322
  8
0
  6
BYLAYER
 62
    7
 10
-11.49469700315531
 20
14.99381163683663
 30
0
  0
VERTEX
  5
323
  8
0
  6
BYLAYER
 62
    7
 10
-11.54656793561814
 20
15.02744534859521
 30
0
  0
VERTEX
  5
324
  8
0
  6
BYLAYER
 62
    7
 10
-11.599801
 20
15.059421
 30
0
  0
SEQEND
  5
325
  8
0
  6
BYLAYER
 62
    7
  0
POLYLINE
  5
326
  8
0
  6
BYLAYER
 62
    7
 66
    1
 10
0
 20
0
 30
0
 70
    0
  0
VERTEX
  5
327
  8
0
  6
BYLAYER
 62
    7
 10
-11.599801
 20
15.059421
 30
0
  0
VERTEX
  5
328
  8
0
  6
BYLAYER
 62
    7
 10
-11.65410150176228
 20
15.08954824245578
 30
0
  0
VERTEX
  5
329
  8
0
  6
BYLAYER
 62
    7
 10
-11.70915737413984
 20
15.11766700208117
 30
0
  0
VERTEX
  5
32A
  8
0
  6
BYLAYER
 62
    7
 10
-11.7649165226075
 20
15.14377727887617
 30
0
  0
VERTEX
  5
32B
  8
0
  6
BYLAYER
 62
    7
 10
-11.82132685264006
 20
15.16787907284079
 30
0
  0
VERTEX
  5
32C
  8
0
  6
BYLAYER
 62
    7
 10
-11.87833626971233
 20
15.18997238397503
 30
0
  0
VERTEX
  5
32D
  8
0
  6
BYLAYER
 62
    7
 10
-11.93589267929912
 20
15.21005721227888
 30
0
  0
VERTEX
  5
32E
  8
0
  6
BYLAYER
 62
    7
 10
-11.99394398687523
 20
15.22813355775234
 30
0
  0
VERTEX
  5
32F
  8
0
  6
BYLAYER
 62
    7
 10
-12.05243809791548
 20
15.24420142039542
 30
0
  0
VERTEX
  5
330
  8
0
  6
BYLAYER
 62
    7
 10
-12.11132291789466
 20
15.25826080020811
 30
0
  0
VERTEX
  5
331
  8
0
  6
BYLAYER
 62
    7
 10
-12.1705463522876
 20
15.27031169719043
 30
0
  0
VERTEX
  5
332
  8
0
  6
BYLAYER
 62
    7
 10
-12.2300563065691
 20
15.28035411134235
 30
0
  0
VERTEX
  5
333
  8
0
  6
BYLAYER
 62
    7
 10
-12.28980068621396
 20
15.28838804266389
 30
0
  0
VERTEX
  5
334
  8
0
  6
BYLAYER
 62
    7
 10
-12.34972739669699
 20
15.29441349115505
 30
0
  0
VERTEX
  5
335
  8
0
  6
BYLAYER
 62
    7
 10
-12.409784343493
 20
15.29843045681582
 30
0
  0
VERTEX
  5
336
  8
0
  6
BYLAYER
 62
    7
 10
-12.4699194320768
 20
15.3004389396462
 30
0
  0
VERTEX
  5
337
  8
0
  6
BYLAYER
 62
    7
 10
-12.5300805679232
 20
15.3004389396462
 30
0
  0
VERTEX
  5
338
  8
0
  6
BYLAYER
 62
    7
 10
-12.590215656507
 20
15.29843045681582
 30
0
  0
VERTEX
  5
339
  8
0
  6
BYLAYER
 62
    7
 10
-12.65027260330301
 20
15.29441349115505
 30
0
  0
VERTEX
  5
33A
  8
0
  6
BYLAYER
 62
    7
 10
-12.71019931378604
 20
15.28838804266389
 30
0
  0
VERTEX
  5
33B
  8
0
  6
BYLAYER
 62
    7
 10
-12.7699436934309
 20
15.28035411134235
 30
0
  0
VERTEX
  5
33C
  8
0
  6
BYLAYER
 62
    7
 10
-12.82945364771239
 20
15.27031169719043
 30
0
  0
VERTEX
  5
33D
  8
0
  6
BYLAYER
 62
    7
 10
-12.88867708210533
 20
15.25826080020812
 30
0
  0
VERTEX
  5
33E
  8
0
  6
BYLAYER
 62
    7
 10
-12.94756190208452
 20
15.24420142039542
 30
0
  0
VERTEX
  5
33F
  8
0
  6
BYLAYER
 62
    7
 10
-13.00605601312477
 20
15.22813355775234
 30
0
  0
VERTEX
  5
340
  8
0
  6
BYLAYER
 62
    7
 10
-13.06410732070088
 20
15.21005721227888
 30
0
  0
VERTEX
  5
341
  8
0
  6
BYLAYER
 62
    7
 10
-13.12166373028767
 20
15.18997238397503
 30
0
  0
VERTEX
  5
342
  8
0
  6
BYLAYER
 62
    7
 10
-13.17867314735994
 20
15.16787907284079
 30
0
  0
VERTEX
  5
343
  8
0
  6
BYLAYER
 62
    7
 10
-13.2350834773925
 20
15.14377727887617
 30
0
  0
VERTEX
  5
344
  8
0
  6
BYLAYER
 62
    7
 10
-13.29084262586016
 20
15.11766700208117
 30
0
  0
VERTEX
  5
345
  8
0
  6
BYLAYER
 62
    7
 10
-13.34589849823772
 20
15.08954824245578
 30
0
  0
VERTEX
  5
346
  8
0
  6
BYLAYER
 62
    7
 10
-13.400199
 20
15.059421
 30
0
  0
SEQEND
  5
347
  8
0
  6
BYLAYER
 62
    7
  0
POLYLINE
  5
348
  8
0
  6
BYLAYER
 62
    7
 66
    1
 10
0
 20
0
 30
0
 70
    0
  0
VERTEX
  5
349
  8
0
  6
BYLAYER
 62
    7
 10
-13.400199
 20
15.059421
 30
0
  0
VERTEX
  5
34A
  8
0
  6
BYLAYER
 62
    7
 10
-13.45343206438186
 20
15.02744534859522
 30
0
  0
VERTEX
  5
34B
  8
0
  6
BYLAYER
 62
    7
 10
-13.50530299684469
 20
14.99381163683663
 30
0
  0
VERTEX
  5
34C
  8
0
  6
BYLAYER
 62
    7
 10
-13.55578576120305
 20
14.95856498647242
 30
0
  0
VERTEX
  5
34D
  8
0
  6
BYLAYER
 62
    7
 10
-13.60485432127153
 20
14.92175051925078
 30
0
  0
VERTEX
  5
34E
  8
0
  6
BYLAYER
 62
    7
 10
-13.65248264086469
 20
14.88341335691988
 30
0
  0
VERTEX
  5
34F
  8
0
  6
BYLAYER
 62
    7
 10
-13.69864468379712
 20
14.84359862122789
 30
0
  0
VERTEX
  5
350
  8
0
  6
BYLAYER
 62
    7
 10
-13.74331441388339
 20
14.802351433923
 30
0
  0
VERTEX
  5
351
  8
0
  6
BYLAYER
 62
    7
 10
-13.78646579493807
 20
14.75971691675338
 30
0
  0
VERTEX
  5
352
  8
0
  6
BYLAYER
 62
    7
 10
-13.82807279077574
 20
14.71574019146722
 30
0
  0
VERTEX
  5
353
  8
0
  6
BYLAYER
 62
    7
 10
-13.86810936521097
 20
14.6704663798127
 30
0
  0
VERTEX
  5
354
  8
0
  6
BYLAYER
 62
    7
 10
-13.90654948205834
 20
14.62394060353798
 30
0
  0
VERTEX
  5
355
  8
0
  6
BYLAYER
 62
    7
 10
-13.94336710513242
 20
14.57620798439126
 30
0
  0
VERTEX
  5
356
  8
0
  6
BYLAYER
 62
    7
 10
-13.9785361982478
 20
14.52731364412071
 30
0
  0
VERTEX
  5
357
  8
0
  6
BYLAYER
 62
    7
 10
-14.01203072521903
 20
14.47730270447451
 30
0
  0
VERTEX
  5
358
  8
0
  6
BYLAYER
 62
    7
 10
-14.0438246498607
 20
14.42622028720083
 30
0
  0
VERTEX
  5
359
  8
0
  6
BYLAYER
 62
    7
 10
-14.07389193598738
 20
14.37411151404787
 30
0
  0
VERTEX
  5
35A
  8
0
  6
BYLAYER
 62
    7
 10
-14.10220654741365
 20
14.32102150676379
 30
0
  0
VERTEX
  5
35B
  8
0
  6
BYLAYER
 62
    7
 10
-14.12874244795408
 20
14.26699538709678
 30
0
  0
VERTEX
  5
35C
  8
0
  6
BYLAYER
 62
    7
 10
-14.15347360142325
 20
14.21207827679501
 30
0
  0
VERTEX
  5
35D
  8
0
  6
BYLAYER
 62
    7
 10
-14.17637397163573
 20
14.15631529760666
 30
0
  0
VERTEX
  5
35E
  8
0
  6
BYLAYER
 62
    7
 10
-14.1974175224061
 20
14.09975157127992
 30
0
  0
VERTEX
  5
35F
  8
0
  6
BYLAYER
 62
    7
 10
-14.21657821754892
 20
14.04243221956296
 30
0
  0
VERTEX
  5
360
  8
0
  6
BYLAYER
 62
    7
 10
-14.23383002087879
 20
13.98440236420396
 30
0
  0
VERTEX
  5
361
  8
0
  6
BYLAYER
 62
    7
 10
-14.24914689621027
 20
13.92570712695109
 30
0
  0
VERTEX
  5
362
  8
0
  6
BYLAYER
 62
    7
 10
-14.26250280735793
 20
13.86639162955255
 30
0
  0
VERTEX
  5
363
  8
0
  6
BYLAYER
 62
    7
 10
-14.27387171813635
 20
13.8065009937565
 30
0
  0
VERTEX
  5
364
  8
0
  6
BYLAYER
 62
    7
 10
-14.28322759236011
 20
13.74608034131114
 30
0
  0
VERTEX
  5
365
  8
0
  6
BYLAYER
 62
    7
 10
-14.29054439384378
 20
13.68517479396462
 30
0
  0
VERTEX
  5
366
  8
0
  6
BYLAYER
 62
    7
 10
-14.29579608640193
 20
13.62382947346514
 30
0
  0
VERTEX
  5
367
  8
0
  6
BYLAYER
 62
    7
 10
-14.29895663384915
 20
13.56208950156087
 30
0
  0
VERTEX
  5
368
  8
0
  6
BYLAYER
 62
    7
 10
-14.3
 20
13.5
 30
0
  0
SEQEND
  5
369
  8
0
  6
BYLAYER
 62
    7
  0
POLYLINE
  5
36A
  8
0
  6
BYLAYER
 62
    7
 66
    1
 10
0
 20
0
 30
0
 70
    0
  0
VERTEX
  5
36B
  8
0
  6
BYLAYER
 62
    7
 10
-14.3
 20
13.5
 30
0
  0
VERTEX
  5
36C
  8
0
  6
BYLAYER
 62
    7
 10
-14.29895663384915
 20
13.43791049843913
 30
0
  0
VERTEX
  5
36D
  8
0
  6
BYLAYER
 62
    7
 10
-14.29579608640194
 20
13.37617052653486
 30
0
  0
VERTEX
  5
36E
  8
0
  6
BYLAYER
 62
    7
 10
-14.29054439384378
 20
13.31482520603538
 30
0
  0
VERTEX
  5
36F
  8
0
  6
BYLAYER
 62
    7
 10
-14.28322759236011
 20
13.25391965868887
 30
0
  0
VERTEX
  5
370
  8
0
  6
BYLAYER
 62
    7
 10
-14.27387171813635
 20
13.1934990062435
 30
0
  0
VERTEX
  5
371
  8
0
  6
BYLAYER
 62
    7
 10
-14.26250280735793
 20
13.13360837044745
 30
0
  0
VERTEX
  5
372
  8
0
  6
BYLAYER
 62
    7
 10
-14.24914689621027
 20
13.07429287304891
 30
0
  0
VERTEX
  5
373
  8
0
  6
BYLAYER
 62
    7
 10
-14.23383002087879
 20
13.01559763579604
 30
0
  0
VERTEX
  5
374
  8
0
  6
BYLAYER
 62
    7
 10
-14.21657821754892
 20
12.95756778043704
 30
0
  0
VERTEX
  5
375
  8
0
  6
BYLAYER
 62
    7
 10
-14.1974175224061
 20
12.90024842872008
 30
0
  0
VERTEX
  5
376
  8
0
  6
BYLAYER
 62
    7
 10
-14.17637397163573
 20
12.84368470239334
 30
0
  0
VERTEX
  5
377
  8
0
  6
BYLAYER
 62
    7
 10
-14.15347360142325
 20
12.78792172320499
 30
0
  0
VERTEX
  5
378
  8
0
  6
BYLAYER
 62
    7
 10
-14.12874244795408
 20
12.73300461290322
 30
0
  0
VERTEX
  5
379
  8
0
  6
BYLAYER
 62
    7
 10
-14.10220654741365
 20
12.67897849323621
 30
0
  0
VERTEX
  5
37A
  8
0
  6
BYLAYER
 62
    7
 10
-14.07389193598738
 20
12.62588848595213
 30
0
  0
VERTEX
  5
37B
  8
0
  6
BYLAYER
 62
    7
 10
-14.0438246498607
 20
12.57377971279917
 30
0
  0
VERTEX
  5
37C
  8
0
  6
BYLAYER
 62
    7
 10
-14.01203072521903
 20
12.52269729552549
 30
0
  0
VERTEX
  5
37D
  8
0
  6
BYLAYER
 62
    7
 10
-13.97853619824779
 20
12.47268635587929
 30
0
  0
VERTEX
  5
37E
  8
0
  6
BYLAYER
 62
    7
 10
-13.94336710513242
 20
12.42379201560874
 30
0
  0
VERTEX
  5
37F
  8
0
  6
BYLAYER
 62
    7
 10
-13.90654948205834
 20
12.37605939646202
 30
0
  0
VERTEX
  5
380
  8
0
  6
BYLAYER
 62
    7
 10
-13.86810936521097
 20
12.32953362018731
 30
0
  0
VERTEX
  5
381
  8
0
  6
BYLAYER
 62
    7
 10
-13.82807279077574
 20
12.28425980853278
 30
0
  0
VERTEX
  5
382
  8
0
  6
BYLAYER
 62
    7
 10
-13.78646579493807
 20
12.24028308324662
 30
0
  0
VERTEX
  5
383
  8
0
  6
BYLAYER
 62
    7
 10
-13.74331441388339
 20
12.197648566077
 30
0
  0
VERTEX
  5
384
  8
0
  6
BYLAYER
 62
    7
 10
-13.69864468379712
 20
12.15640137877211
 30
0
  0
VERTEX
  5
385
  8
0
  6
BYLAYER
 62
    7
 10
-13.65248264086469
 20
12.11658664308012
 30
0
  0
VERTEX
  5
386
  8
0
  6
BYLAYER
 62
    7
 10
-13.60485432127153
 20
12.07824948074922
 30
0
  0
VERTEX
  5
387
  8
0
  6
BYLAYER
 62
    7
 10
-13.55578576120305
 20
12.04143501352758
 30
0
  0
VERTEX
  5
388
  8
0
  6
BYLAYER
 62
    7
 10
-13.50530299684469
 20
12.00618836316337
 30
0
  0
VERTEX
  5
389
  8
0
  6
BYLAYER
 62
    7
 10
-13.45343206438186
 20
11.97255465140479
 30
0
  0
VERTEX
  5
38A
  8
0
  6
BYLAYER
 62
    7
 10
-13.400199
 20
11.940579
 30
0
  0
SEQEND
  5
38B
  8
0
  6
BYLAYER
 62
    7
  0
POLYLINE
  5
38C
  8
0
  6
BYLAYER
 62
    7
 66
    1
 10
0
 20
0
 30
0
 70
    0
  0
VERTEX
  5
38D
  8
0
  6
BYLAYER
 62
    7
 10
-13.400199
 20
11.940579
 30
0
  0
VERTEX
  5
38E
  8
0
  6
BYLAYER
 62
    7
 10
-13.34589849823772
 20
11.91045175754422
 30
0
  0
VERTEX
  5
38F
  8
0
  6
BYLAYER
 62
    7
 10
-13.29084262586016
 20
11.88233299791884
 30
0
  0
VERTEX
  5
390
  8
0
  6
BYLAYER
 62
    7
 10
-13.2350834773925
 20
11.85622272112383
 30
0
  0
VERTEX
  5
391
  8
0
  6
BYLAYER
 62
    7
 10
-13.17867314735994
 20
11.83212092715921
 30
0
  0
VERTEX
  5
392
  8
0
  6
BYLAYER
 62
    7
 10
-13.12166373028767
 20
11.81002761602497
 30
0
  0
VERTEX
  5
393
  8
0
  6
BYLAYER
 62
    7
 10
-13.06410732070088
 20
11.78994278772113
 30
0
  0
VERTEX
  5
394
  8
0
  6
BYLAYER
 62
    7
 10
-13.00605601312477
 20
11.77186644224766
 30
0
  0
VERTEX
  5
395
  8
0
  6
BYLAYER
 62
    7
 10
-12.94756190208452
 20
11.75579857960458
 30
0
  0
VERTEX
  5
396
  8
0
  6
BYLAYER
 62
    7
 10
-12.88867708210534
 20
11.74173919979188
 30
0
  0
VERTEX
  5
397
  8
0
  6
BYLAYER
 62
    7
 10
-12.8294536477124
 20
11.72968830280958
 30
0
  0
VERTEX
  5
398
  8
0
  6
BYLAYER
 62
    7
 10
-12.7699436934309
 20
11.71964588865765
 30
0
  0
VERTEX
  5
399
  8
0
  6
BYLAYER
 62
    7
 10
-12.71019931378604
 20
11.71161195733611
 30
0
  0
VERTEX
  5
39A
  8
0
  6
BYLAYER
 62
    7
 10
-12.65027260330301
 20
11.70558650884495
 30
0
  0
VERTEX
  5
39B
  8
0
  6
BYLAYER
 62
    7
 10
-12.590215656507
 20
11.70156954318418
 30
0
  0
VERTEX
  5
39C
  8
0
  6
BYLAYER
 62
    7
 10
-12.5300805679232
 20
11.6995610603538
 30
0
  0
VERTEX
  5
39D
  8
0
  6
BYLAYER
 62
    7
 10
-12.4699194320768
 20
11.6995610603538
 30
0
  0
VERTEX
  5
39E
  8
0
  6
BYLAYER
 62
    7
 10
-12.409784343493
 20
11.70156954318418
 30
0
  0
VERTEX
  5
39F
  8
0
  6
BYLAYER
 62
    7
 10
-12.34972739669699
 20
11.70558650884495
 30
0
  0
VERTEX
  5
3A0
  8
0
  6
BYLAYER
 62
    7
 10
-12.28980068621396
 20
11.71161195733611
 30
0
  0
VERTEX
  5
3A1
  8
0
  6
BYLAYER
 62
    7
 10
-12.2300563065691
 20
11.71964588865765
 30
0
  0
VERTEX
  5
3A2
  8
0
  6
BYLAYER
 62
    7
 10
-12.1705463522876
 20
11.72968830280957
 30
0
  0
VERTEX
  5
3A3
  8
0
  6
BYLAYER
 62
    7
 10
-12.11132291789467
 20
11.74173919979188
 30
0
  0
VERTEX
  5
3A4
  8
0
  6
BYLAYER
 62
    7
 10
-12.05243809791548
 20
11.75579857960458
 30
0
  0
VERTEX
  5
3A5
  8
0
  6
BYLAYER
 62
    7
 10
-11.99394398687523
 20
11.77186644224766
 30
0
  0
VERTEX
  5
3A6
  8
0
  6
BYLAYER
 62
    7
 10
-11.93589267929912
 20
11.78994278772112
 30
0
  0
VERTEX
  5
3A7
  8
0
  6
BYLAYER
 62
    7
 10
-11.87833626971233
 20
11.81002761602497
 30
0
  0
VERTEX
  5
3A8
  8
0
  6
BYLAYER
 62
    7
 10
-11.82132685264006
 20
11.83212092715921
 30
0
  0
VERTEX
  5
3A9
  8
0
  6
BYLAYER
 62
    7
 10
-11.7649165226075
 20
11.85622272112383
 30
0
  0
VERTEX
  5
3AA
  8
0
  6
BYLAYER
 62
    7
 10
-11.70915737413984
 20
11.88233299791883
 30
0
  0
VERTEX
  5
3AB
  8
0
  6
BYLAYER
 62
    7
 10
-11.65410150176228
 20
11.91045175754422
 30
0
  0
VERTEX
  5
3AC
  8
0
  6
BYLAYER
 62
    7
 10
-11.599801
 20
11.940579
 30
0
  0
SEQEND
  5
3AD
  8
0
  6
BYLAYER
 62
    7
  0
POLYLINE
  5
3AE
  8
0
  6
BYLAYER
 62
    7
 66
    1
 10
0
 20
0
 30
0
 70
    0
  0
VERTEX
  5
3AF
  8
0
  6
BYLAYER
 62
    7
 10
-11.599801
 20
11.940579
 30
0
  0
VERTEX
  5
3B0
  8
0
  6
BYLAYER
 62
    7
 10
-11.54656793561814
 20
11.97255465140479
 30
0
  0
VERTEX
  5
3B1
  8
0
  6
BYLAYER
 62
    7
 10
-11.49469700315532
 20
12.00618836316337
 30
0
  0
VERTEX
  5
3B2
  8
0
  6
BYLAYER
 62
    7
 10
-11.44421423879695
 20
12.04143501352757
 30
0
  0
VERTEX
  5
3B3
  8
0
  6
BYLAYER
 62
    7
 10
-11.39514567872848
 20
12.07824948074922
 30
0
  0
VERTEX
  5
3B4
  8
0
  6
BYLAYER
 62
    7
 10
-11.34751735913531
 20
12.11658664308012
 30
0
  0
VERTEX
  5
3B5
  8
0
  6
BYLAYER
 62
    7
 10
-11.30135531620288
 20
12.15640137877212
 30
0
  0
VERTEX
  5
3B6
  8
0
  6
BYLAYER
 62
    7
 10
-11.25668558611661
 20
12.197648566077
 30
0
  0
VERTEX
  5
3B7
  8
0
  6
BYLAYER
 62
    7
 10
-11.21353420506193
 20
12.24028308324662
 30
0
  0
VERTEX
  5
3B8
  8
0
  6
BYLAYER
 62
    7
 10
-11.17192720922426
 20
12.28425980853278
 30
0
  0
VERTEX
  5
3B9
  8
0
  6
BYLAYER
 62
    7
 10
-11.13189063478903
 20
12.3295336201873
 30
0
  0
VERTEX
  5
3BA
  8
0
  6
BYLAYER
 62
    7
 10
-11.09345051794166
 20
12.37605939646202
 30
0
  0
VERTEX
  5
3BB
  8
0
  6
BYLAYER
 62
    7
 10
-11.05663289486758
 20
12.42379201560874
 30
0
  0
VERTEX
  5
3BC
  8
0
  6
BYLAYER
 62
    7
 10
-11.02146380175221
 20
12.47268635587929
 30
0
  0
VERTEX
  5
3BD
  8
0
  6
BYLAYER
 62
    7
 10
-10.98796927478097
 20
12.52269729552549
 30
0
  0
VERTEX
  5
3BE
  8
0
  6
BYLAYER
 62
    7
 10
-10.9561753501393
 20
12.57377971279917
 30
0
  0
VERTEX
  5
3BF
  8
0
  6
BYLAYER
 62
    7
 10
-10.92610806401262
 20
12.62588848595213
 30
0
  0
VERTEX
  5
3C0
  8
0
  6
BYLAYER
 62
    7
 10
-10.89779345258635
 20
12.67897849323621
 30
0
  0
VERTEX
  5
3C1
  8
0
  6
BYLAYER
 62
    7
 10
-10.87125755204592
 20
12.73300461290322
 30
0
  0
VERTEX
  5
3C2
  8
0
  6
BYLAYER
 62
    7
 10
-10.84652639857675
 20
12.78792172320499
 30
0
  0
VERTEX
  5
3C3
  8
0
  6
BYLAYER
 62
    7
 10
-10.82362602836427
 20
12.84368470239334
 30
0
  0
VERTEX
  5
3C4
  8
0
  6
BYLAYER
 62
    7
 10
-10.8025824775939
 20
12.90024842872008
 30
0
  0
VERTEX
  5
3C5
  8
0
  6
BYLAYER
 62
    7
 10
-10.78342178245108
 20
12.95756778043704
 30
0
  0
VERTEX
  5
3C6
  8
0
  6
BYLAYER
 62
    7
 10
-10.76616997912121
 20
13.01559763579604
 30
0
  0
VERTEX
  5
3C7
  8
0
  6
BYLAYER
 62
    7
 10
-10.75085310378974
 20
13.07429287304891
 30
0
  0
VERTEX
  5
3C8
  8
0
  6
BYLAYER
 62
    7
 10
-10.73749719264207
 20
13.13360837044745
 30
0
  0
VERTEX
  5
3C9
  8
0
  6
BYLAYER
 62
    7
 10
-10.72612828186365
 20
13.1934990062435
 30
0
  0
VERTEX
  5
3CA
  8
0
  6
BYLAYER
 62
    7
 10
-10.71677240763989
 20
13.25391965868887
 30
0
  0
VERTEX
  5
3CB
  8
0
  6
BYLAYER
 62
    7
 10
-10.70945560615622
 20
13.31482520603538
 30
0
  0
VERTEX
  5
3CC
  8
0
  6
BYLAYER
 62
    7
 10
-10.70420391359806
 20
13.37617052653486
 30
0
  0
VERTEX
  5
3CD
  8
0
  6
BYLAYER
 62
    7
 10
-10.70104336615085
 20
13.43791049843912
 30
0
  0
VERTEX
  5
3CE
  8
0
  6
BYLAYER
 62
    7
 10
-10.7
 20
13.5
 30
0
  0
SEQEND
  5
3CF
  8
0
  6
BYLAYER
 62
    7
  0
POLYLINE
  5
3D0
  8
0
  6
BYLAYER
 62
    7
 66
    1
 10
0
 20
0
 30
0
 70
    1
  0
VERTEX
  5
3D1
  8
0
  6
BYLAYER
 62
    7
 10
-9.35
 20
13.5
 30
0
  0
SEQEND
  5
3D2
  8
0
  6
BYLAYER
 62
    7
  0
POLYLINE
  5
3D3
  8
0
  6
BYLAYER
 62
    7
 66
    1
 10
0
 20
0
 30
0
 70
    0
  0
VERTEX
  5
3D4
  8
0
  6
BYLAYER
 62
    7
 10
1.8
 20
-20.199989
 30
0
  0
VERTEX
  5
3D5
  8
0
  6
BYLAYER
 62
    7
 10
1.797504956866168
 20
-20.1043946957806
 30
0
  0
VERTEX
  5
3D6
  8
0
  6
BYLAYER
 62
    7
 10
1.790102760028197
 20
-20.01009981702527
 30
0
  0
VERTEX
  5
3D7
  8
0
  6
BYLAYER
 62
    7
 10
1.777917808331375
 20
-19.91722876942701
 30
0
  0
VERTEX
  5
3D8
  8
0
  6
BYLAYER
 62
    7
 10
1.761074500620993
 20
-19.8259059586788
 30
0
  0
VERTEX
  5
3D9
  8
0
  6
BYLAYER
 62
    7
 10
1.739697235742338
 20
-19.73625579047363
 30
0
  0
VERTEX
  5
3DA
  8
0
  6
BYLAYER
 62
    7
 10
1.7139104125407
 20
-19.64840267050452
 30
0
  0
VERTEX
  5
3DB
  8
0
  6
BYLAYER
 62
    7
 10
1.683838429861368
 20
-19.56247100446443
 30
0
  0
VERTEX
  5
3DC
  8
0
  6
BYLAYER
 62
    7
 10
1.649605686549629
 20
-19.47858519804639
 30
0
  0
VERTEX
  5
3DD
  8
0
  6
BYLAYER
 62
    7
 10
1.611336581450773
 20
-19.39686965694337
 30
0
  0
VERTEX
  5
3DE
  8
0
  6
BYLAYER
 62
    7
 10
1.56915551341009
 20
-19.31744878684837
 30
0
  0
VERTEX
  5
3DF
  8
0
  6
BYLAYER
 62
    7
 10
1.523186881272868
 20
-19.2404469934544
 30
0
  0
VERTEX
  5
3E0
  8
0
  6
BYLAYER
 62
    7
 10
1.473555083884395
 20
-19.16598868245443
 30
0
  0
VERTEX
  5
3E1
  8
0
  6
BYLAYER
 62
    7
 10
1.42038452008996
 20
-19.09419825954147
 30
0
  0
VERTEX
  5
3E2
  8
0
  6
BYLAYER
 62
    7
 10
1.363799588734853
 20
-19.02520013040851
 30
0
  0
VERTEX
  5
3E3
  8
0
  6
BYLAYER
 62
    7
 10
1.303924688664362
 20
-18.95911870074855
 30
0
  0
VERTEX
  5
3E4
  8
0
  6
BYLAYER
 62
    7
 10
1.240884218723776
 20
-18.89607837625457
 30
0
  0
VERTEX
  5
3E5
  8
0
  6
BYLAYER
 62
    7
 10
1.174802577758384
 20
-18.83620356261958
 30
0
  0
VERTEX
  5
3E6
  8
0
  6
BYLAYER
 62
    7
 10
1.105804164613474
 20
-18.77961866553657
 30
0
  0
VERTEX
  5
3E7
  8
0
  6
BYLAYER
 62
    7
 10
1.034013378134337
 20
-18.72644809069853
 30
0
  0
VERTEX
  5
3E8
  8
0
  6
BYLAYER
 62
    7
 10
0.959554617166259
 20
-18.67681624379846
 30
0
  0
VERTEX
  5
3E9
  8
0
  6
BYLAYER
 62
    7
 10
0.8825522805545308
 20
-18.63084753052935
 30
0
  0
VERTEX
  5
3EA
  8
0
  6
BYLAYER
 62
    7
 10
0.8031307671444406
 20
-18.58866635658421
 30
0
  0
VERTEX
  5
3EB
  8
0
  6
BYLAYER
 62
    7
 10
0.7214144757812774
 20
-18.55039712765601
 30
0
  0
VERTEX
  5
3EC
  8
0
  6
BYLAYER
 62
    7
 10
0.6375278053103299
 20
-18.51616424943775
 30
0
  0
VERTEX
  5
3ED
  8
0
  6
BYLAYER
 62
    7
 10
0.5515951545768869
 20
-18.48609212762243
 30
0
  0
VERTEX
  5
3EE
  8
0
  6
BYLAYER
 62
    7
 10
0.4637409224262375
 20
-18.46030516790306
 30
0
  0
VERTEX
  5
3EF
  8
0
  6
BYLAYER
 62
    7
 10
0.3740895077036704
 20
-18.43892777597261
 30
0
  0
VERTEX
  5
3F0
  8
0
  6
BYLAYER
 62
    7
 10
0.2827653092544745
 20
-18.42208435752408
 30
0
  0
VERTEX
  5
3F1
  8
0
  6
BYLAYER
 62
    7
 10
0.1898927259239385
 20
-18.40989931825048
 30
0
  0
VERTEX
  5
3F2
  8
0
  6
BYLAYER
 62
    7
 10
0.09559615655735142
 20
-18.40249706384479
 30
0
  0
VERTEX
  5
3F3
  8
0
  6
BYLAYER
 62
    7
 10
0
 20
-18.400002
 30
0
  0
SEQEND
  5
3F4
  8
0
  6
BYLAYER
 62
    7
  0
POLYLINE
  5
3F5
  8
0
  6
BYLAYER
 62
    7
 66
    1
 10
0
 20
0
 30
0
 70
    0
  0
VERTEX
  5
3F6
  8
0
  6
BYLAYER
 62
    7
 10
0
 20
-18.400002
 30
0
  0
VERTEX
  5
3F7
  8
0
  6
BYLAYER
 62
    7
 10
-0.09559615655734953
 20
-18.40249706384478
 30
0
  0
VERTEX
  5
3F8
  8
0
  6
BYLAYER
 62
    7
 10
-0.1898927259239368
 20
-18.40989931825048
 30
0
  0
VERTEX
  5
3F9
  8
0
  6
BYLAYER
 62
    7
 10
-0.2827653092544728
 20
-18.42208435752408
 30
0
  0
VERTEX
  5
3FA
  8
0
  6
BYLAYER
 62
    7
 10
-0.3740895077036689
 20
-18.43892777597261
 30
0
  0
VERTEX
  5
3FB
  8
0
  6
BYLAYER
 62
    7
 10
-0.4637409224262361
 20
-18.46030516790305
 30
0
  0
VERTEX
  5
3FC
  8
0
  6
BYLAYER
 62
    7
 10
-0.5515951545768858
 20
-18.48609212762244
 30
0
  0
VERTEX
  5
3FD
  8
0
  6
BYLAYER
 62
    7
 10
-0.6375278053103287
 20
-18.51616424943775
 30
0
  0
VERTEX
  5
3FE
  8
0
  6
BYLAYER
 62
    7
 10
-0.7214144757812762
 20
-18.55039712765601
 30
0
  0
VERTEX
  5
3FF
  8
0
  6
BYLAYER
 62
    7
 10
-0.8031307671444394
 20
-18.5886663565842
 30
0
  0
VERTEX
  5
400
  8
0
  6
BYLAYER
 62
    7
 10
-0.8825522805545297
 20
-18.63084753052935
 30
0
  0
VERTEX
  5
401
  8
0
  6
BYLAYER
 62
    7
 10
-0.959554617166258
 20
-18.67681624379846
 30
0
  0
VERTEX
  5
402
  8
0
  6
BYLAYER
 62
    7
 10
-1.034013378134336
 20
-18.72644809069854
 30
0
  0
VERTEX
  5
403
  8
0
  6
BYLAYER
 62
    7
 10
-1.105804164613474
 20
-18.77961866553657
 30
0
  0
VERTEX
  5
404
  8
0
  6
BYLAYER
 62
    7
 10
-1.174802577758383
 20
-18.83620356261958
 30
0
  0
VERTEX
  5
405
  8
0
  6
BYLAYER
 62
    7
 10
-1.240884218723775
 20
-18.89607837625458
 30
0
  0
VERTEX
  5
406
  8
0
  6
BYLAYER
 62
    7
 10
-1.303924688664361
 20
-18.95911870074855
 30
0
  0
VERTEX
  5
407
  8
0
  6
BYLAYER
 62
    7
 10
-1.363799588734852
 20
-19.02520013040851
 30
0
  0
VERTEX
  5
408
  8
0
  6
BYLAYER
 62
    7
 10
-1.42038452008996
 20
-19.09419825954147
 30
0
  0
VERTEX
  5
409
  8
0
  6
BYLAYER
 62
    7
 10
-1.473555083884394
 20
-19.16598868245443
 30
0
  0
VERTEX
  5
40A
  8
0
  6
BYLAYER
 62
    7
 10
-1.523186881272867
 20
-19.2404469934544
 30
0
  0
VERTEX
  5
40B
  8
0
  6
BYLAYER
 62
    7
 10
-1.56915551341009
 20
-19.31744878684837
 30
0
  0
VERTEX
  5
40C
  8
0
  6
BYLAYER
 62
    7
 10
-1.611336581450773
 20
-19.39686965694337
 30
0
  0
VERTEX
  5
40D
  8
0
  6
BYLAYER
 62
    7
 10
-1.649605686549629
 20
-19.47858519804639
 30
0
  0
VERTEX
  5
40E
  8
0
  6
BYLAYER
 62
    7
 10
-1.683838429861367
 20
-19.56247100446443
 30
0
  0
VERTEX
  5
40F
  8
0
  6
BYLAYER
 62
    7
 10
-1.7139104125407
 20
-19.64840267050451
 30
0
  0
VERTEX
  5
410
  8
0
  6
BYLAYER
 62
    7
 10
-1.739697235742338
 20
-19.73625579047363
 30
0
  0
VERTEX
  5
411
  8
0
  6
BYLAYER
 62
    7
 10
-1.761074500620993
 20
-19.8259059586788
 30
0
  0
VERTEX
  5
412
  8
0
  6
BYLAYER
 62
    7
 10
-1.777917808331375
 20
-19.91722876942701
 30
0
  0
VERTEX
  5
413
  8
0
  6
BYLAYER
 62
    7
 10
-1.790102760028196
 20
-20.01009981702527
 30
0
  0
VERTEX
  5
414
  8
0
  6
BYLAYER
 62
    7
 10
-1.797504956866167
 20
-20.1043946957806
 30
0
  0
VERTEX
  5
415
  8
0
  6
BYLAYER
 62
    7
 10
-1.8
 20
-20.199989
 30
0
  0
SEQEND
  5
416
  8
0
  6
BYLAYER
 62
    7
  0
POLYLINE
  5
417
  8
0
  6
BYLAYER
 62
    7
 66
    1
 10
0
 20
0
 30
0
 70
    0
  0
VERTEX
  5
418
  8
0
  6
BYLAYER
 62
    7
 10
-1.8
 20
-20.199989
 30
0
  0
VERTEX
  5
419
  8
0
  6
BYLAYER
 62
    7
 10
-1.751589936222349
 20
-20.44595400923098
 30
0
  0
VERTEX
  5
41A
  8
0
  6
BYLAYER
 62
    7
 10
-1.687413955959854
 20
-20.67135833503407
 30
0
  0
VERTEX
  5
41B
  8
0
  6
BYLAYER
 62
    7
 10
-1.608635988721426
 20
-20.87663263425195
 30
0
  0
VERTEX
  5
41C
  8
0
  6
BYLAYER
 62
    7
 10
-1.516419964015978
 20
-21.0622075637273
 30
0
  0
VERTEX
  5
41D
  8
0
  6
BYLAYER
 62
    7
 10
-1.411929811352422
 20
-21.22851378030277
 30
0
  0
VERTEX
  5
41E
  8
0
  6
BYLAYER
 62
    7
 10
-1.29632946023967
 20
-21.37598194082106
 30
0
  0
VERTEX
  5
41F
  8
0
  6
BYLAYER
 62
    7
 10
-1.170782840186634
 20
-21.5050427021248
 30
0
  0
VERTEX
  5
420
  8
0
  6
BYLAYER
 62
    7
 10
-1.036453880702225
 20
-21.6161267210567
 30
0
  0
VERTEX
  5
421
  8
0
  6
BYLAYER
 62
    7
 10
-0.8945065112953577
 20
-21.7096646544594
 30
0
  0
VERTEX
  5
422
  8
0
  6
BYLAYER
 62
    7
 10
-0.7461046614749425
 20
-21.78608715917559
 30
0
  0
VERTEX
  5
423
  8
0
  6
BYLAYER
 62
    7
 10
-0.5924122607498913
 20
-21.84582489204793
 30
0
  0
VERTEX
  5
424
  8
0
  6
BYLAYER
 62
    7
 10
-0.4345932386291169
 20
-21.8893085099191
 30
0
  0
VERTEX
  5
425
  8
0
  6
BYLAYER
 62
    7
 10
-0.2738115246215308
 20
-21.91696866963177
 30
0
  0
VERTEX
  5
426
  8
0
  6
BYLAYER
 62
    7
 10
-0.1112310482360453
 20
-21.92923602802859
 30
0
  0
VERTEX
  5
427
  8
0
  6
BYLAYER
 62
    7
 10
0.0519842610184274
 20
-21.92654124195227
 30
0
  0
VERTEX
  5
428
  8
0
  6
BYLAYER
 62
    7
 10
0.214670473632975
 20
-21.90931496824544
 30
0
  0
VERTEX
  5
429
  8
0
  6
BYLAYER
 62
    7
 10
0.3756636600986862
 20
-21.8779878637508
 30
0
  0
VERTEX
  5
42A
  8
0
  6
BYLAYER
 62
    7
 10
0.5337998909066484
 20
-21.832990585311
 30
0
  0
VERTEX
  5
42B
  8
0
  6
BYLAYER
 62
    7
 10
0.6879152365479493
 20
-21.77475378976872
 30
0
  0
VERTEX
  5
42C
  8
0
  6
BYLAYER
 62
    7
 10
0.8368457675136769
 20
-21.70370813396663
 30
0
  0
VERTEX
  5
42D
  8
0
  6
BYLAYER
 62
    7
 10
0.9794275542949196
 20
-21.62028427474741
 30
0
  0
VERTEX
  5
42E
  8
0
  6
BYLAYER
 62
    7
 10
1.114496667382765
 20
-21.52491286895371
 30
0
  0
VERTEX
  5
42F
  8
0
  6
BYLAYER
 62
    7
 10
1.240889177268301
 20
-21.41802457342822
 30
0
  0
VERTEX
  5
430
  8
0
  6
BYLAYER
 62
    7
 10
1.357441154442615
 20
-21.3000500450136
 30
0
  0
VERTEX
  5
431
  8
0
  6
BYLAYER
 62
    7
 10
1.462988669396796
 20
-21.17141994055252
 30
0
  0
VERTEX
  5
432
  8
0
  6
BYLAYER
 62
    7
 10
1.556367792621931
 20
-21.03256491688765
 30
0
  0
VERTEX
  5
433
  8
0
  6
BYLAYER
 62
    7
 10
1.636414594609109
 20
-20.88391563086167
 30
0
  0
VERTEX
  5
434
  8
0
  6
BYLAYER
 62
    7
 10
1.701965145849417
 20
-20.72590273931725
 30
0
  0
VERTEX
  5
435
  8
0
  6
BYLAYER
 62
    7
 10
1.751855516833942
 20
-20.55895689909704
 30
0
  0
VERTEX
  5
436
  8
0
  6
BYLAYER
 62
    7
 10
1.784921778053774
 20
-20.38350876704374
 30
0
  0
VERTEX
  5
437
  8
0
  6
BYLAYER
 62
    7
 10
1.8
 20
-20.199989
 30
0
  0
SEQEND
  5
438
  8
0
  6
BYLAYER
 62
    7
  0
POLYLINE
  5
439
  8
0
  6
BYLAYER
 62
    7
 66
    1
 10
0
 20
0
 30
0
 70
    1
  0
VERTEX
  5
43A
  8
0
  6
BYLAYER
 62
    7
 10
-10.7
 20
13.5
 30
0
  0
SEQEND
  5
43B
  8
0
  6
BYLAYER
 62
    7
  0
POLYLINE
  5
43C
  8
0
  6
BYLAYER
 62
    7
 66
    1
 10
0
 20
0
 30
0
 70
    1
  0
VERTEX
  5
43D
  8
0
  6
BYLAYER
 62
    7
 10
1.8
 20
-20.199989
 30
0
  0
SEQEND
  5
43E
  8
0
  6
BYLAYER
 62
    7
  0
POLYLINE
  5
43F
  8
0
  6
BYLAYER
 62
    7
 66
    1
 10
0
 20
0
 30
0
 70
    0
  0
VERTEX
  5
440
  8
0
  6
BYLAYER
 62
    7
 10
-20.602994
 20
-15.223337
 30
0
  0
VERTEX
  5
441
  8
0
  6
BYLAYER
 62
    7
 10
20.602994
 20
-15.223337
 30
0
  0
SEQEND
  5
442
  8
0
  6
BYLAYER
 62
    7
  0
POLYLINE
  5
443
  8
0
  6
BYLAYER
 62
    7
 66
    1
 10
0
 20
0
 30
0
 70
    0
  0
VERTEX
  5
444
  8
0
  6
BYLAYER
 62
    7
 10
13.696786
 20
4.109509
 30
0
  0
VERTEX
  5
445
  8
0
  6
BYLAYER
 62
    7
 10
22.982755
 20
4.109509
 30
0
  0
SEQEND
  5
446
  8
0
  6
BYLAYER
 62
    7
  0
POLYLINE
  5
447
  8
0
  6
BYLAYER
 62
    7
 66
    1
 10
0
 20
0
 30
0
 70
    0
  0
VERTEX
  5
448
  8
0
  6
BYLAYER
 62
    7
 10
-25.081906
 20
-12.445802
 30
0
  0
VERTEX
  5
449
  8
0
  6
BYLAYER
 62
    7
 10
-24.99744789345775
 20
-12.60848583354033
 30
0
  0
VERTEX
  5
44A
  8
0
  6
BYLAYER
 62
    7
 10
-24.90757268356215
 20
-12.76717511577322
 30
0
  0
VERTEX
  5
44B
  8
0
  6
BYLAYER
 62
    7
 10
-24.81242680910342
 20
-12.92177903524554
 30
0
  0
VERTEX
  5
44C
  8
0
  6
BYLAYER
 62
    7
 10
-24.71215670887181
 20
-13.07220678050418
 30
0
  0
VERTEX
  5
44D
  8
0
  6
BYLAYER
 62
    7
 10
-24.60690882165755
 20
-13.218367540096
 30
0
  0
VERTEX
  5
44E
  8
0
  6
BYLAYER
 62
    7
 10
-24.49682958625088
 20
-13.36017050256789
 30
0
  0
VERTEX
  5
44F
  8
0
  6
BYLAYER
 62
    7
 10
-24.38206544144204
 20
-13.49752485646672
 30
0
  0
VERTEX
  5
450
  8
0
  6
BYLAYER
 62
    7
 10
-24.26276282602128
 20
-13.63033979033937
 30
0
  0
VERTEX
  5
451
  8
0
  6
BYLAYER
 62
    7
 10
-24.13906817877882
 20
-13.7585244927327
 30
0
  0
VERTEX
  5
452
  8
0
  6
BYLAYER
 62
    7
 10
-24.01112793850492
 20
-13.88198815219361
 30
0
  0
VERTEX
  5
453
  8
0
  6
BYLAYER
 62
    7
 10
-23.87908854398979
 20
-14.00063995726897
 30
0
  0
VERTEX
  5
454
  8
0
  6
BYLAYER
 62
    7
 10
-23.7430964340237
 20
-14.11438909650566
 30
0
  0
VERTEX
  5
455
  8
0
  6
BYLAYER
 62
    7
 10
-23.60329804739686
 20
-14.22314475845054
 30
0
  0
VERTEX
  5
456
  8
0
  6
BYLAYER
 62
    7
 10
-23.45983982289954
 20
-14.3268161316505
 30
0
  0
VERTEX
  5
457
  8
0
  6
BYLAYER
 62
    7
 10
-23.31286819932194
 20
-14.42531240465241
 30
0
  0
VERTEX
  5
458
  8
0
  6
BYLAYER
 62
    7
 10
-23.16252961545434
 20
-14.51854276600316
 30
0
  0
VERTEX
  5
459
  8
0
  6
BYLAYER
 62
    7
 10
-23.00897051008694
 20
-14.60641640424961
 30
0
  0
VERTEX
  5
45A
  8
0
  6
BYLAYER
 62
    7
 10
-22.85233732201
 20
-14.68884250793864
 30
0
  0
VERTEX
  5
45B
  8
0
  6
BYLAYER
 62
    7
 10
-22.69277649001377
 20
-14.76573026561713
 30
0
  0
VERTEX
  5
45C
  8
0
  6
BYLAYER
 62
    7
 10
-22.53043445288846
 20
-14.83698886583196
 30
0
  0
VERTEX
  5
45D
  8
0
  6
BYLAYER
 62
    7
 10
-22.36545764942432
 20
-14.90252749713001
 30
0
  0
VERTEX
  5
45E
  8
0
  6
BYLAYER
 62
    7
 10
-22.1979925184116
 20
-14.96225534805814
 30
0
  0
VERTEX
  5
45F
  8
0
  6
BYLAYER
 62
    7
 10
-22.02818549864053
 20
-15.01608160716324
 30
0
  0
VERTEX
  5
460
  8
0
  6
BYLAYER
 62
    7
 10
-21.85618302890135
 20
-15.06391546299218
 30
0
  0
VERTEX
  5
461
  8
0
  6
BYLAYER
 62
    7
 10
-21.68213154798429
 20
-15.10566610409184
 30
0
  0
VERTEX
  5
462
  8
0
  6
BYLAYER
 62
    7
 10
-21.5061774946796
 20
-15.1412427190091
 30
0
  0
VERTEX
  5
463
  8
0
  6
BYLAYER
 62
    7
 10
-21.32846730777752
 20
-15.17055449629083
 30
0
  0
VERTEX
  5
464
  8
0
  6
BYLAYER
 62
    7
 10
-21.14914742606828
 20
-15.1935106244839
 30
0
  0
VERTEX
  5
465
  8
0
  6
BYLAYER
 62
    7
 10
-20.96836428834212
 20
-15.21002029213521
 30
0
  0
VERTEX
  5
466
  8
0
  6
BYLAYER
 62
    7
 10
-20.78626433338928
 20
-15.21999268779162
 30
0
  0
VERTEX
  5
467
  8
0
  6
BYLAYER
 62
    7
 10
-20.602994
 20
-15.223337
 30
0
  0
SEQEND
  5
468
  8
0
  6
BYLAYER
 62
    7
  0
POLYLINE
  5
469
  8
0
  6
BYLAYER
 62
    7
 66
    1
 10
0
 20
0
 30
0
 70
    0
  0
VERTEX
  5
46A
  8
0
  6
BYLAYER
 62
    7
 10
20.602994
 20
-15.223337
 30
0
  0
VERTEX
  5
46B
  8
0
  6
BYLAYER
 62
    7
 10
20.78626433338927
 20
-15.21999268779162
 30
0
  0
VERTEX
  5
46C
  8
0
  6
BYLAYER
 62
    7
 10
20.96836428834212
 20
-15.21002029213521
 30
0
  0
VERTEX
  5
46D
  8
0
  6
BYLAYER
 62
    7
 10
21.14914742606828
 20
-15.1935106244839
 30
0
  0
VERTEX
  5
46E
  8
0
  6
BYLAYER
 62
    7
 10
21.32846730777752
 20
-15.17055449629083
 30
0
  0
VERTEX
  5
46F
  8
0
  6
BYLAYER
 62
    7
 10
21.5061774946796
 20
-15.1412427190091
 30
0
  0
VERTEX
  5
470
  8
0
  6
BYLAYER
 62
    7
 10
21.68213154798429
 20
-15.10566610409184
 30
0
  0
VERTEX
  5
471
  8
0
  6
BYLAYER
 62
    7
 10
21.85618302890135
 20
-15.06391546299218
 30
0
  0
VERTEX
  5
472
  8
0
  6
BYLAYER
 62
    7
 10
22.02818549864053
 20
-15.01608160716324
 30
0
  0
VERTEX
  5
473
  8
0
  6
BYLAYER
 62
    7
 10
22.1979925184116
 20
-14.96225534805814
 30
0
  0
VERTEX
  5
474
  8
0
  6
BYLAYER
 62
    7
 10
22.36545764942432
 20
-14.90252749713001
 30
0
  0
VERTEX
  5
475
  8
0
  6
BYLAYER
 62
    7
 10
22.53043445288845
 20
-14.83698886583196
 30
0
  0
VERTEX
  5
476
  8
0
  6
BYLAYER
 62
    7
 10
22.69277649001376
 20
-14.76573026561713
 30
0
  0
VERTEX
  5
477
  8
0
  6
BYLAYER
 62
    7
 10
22.85233732201
 20
-14.68884250793864
 30
0
  0
VERTEX
  5
478
  8
0
  6
BYLAYER
 62
    7
 10
23.00897051008694
 20
-14.60641640424961
 30
0
  0
VERTEX
  5
479
  8
0
  6
BYLAYER
 62
    7
 10
23.16252961545433
 20
-14.51854276600316
 30
0
  0
VERTEX
  5
47A
  8
0
  6
BYLAYER
 62
    7
 10
23.31286819932194
 20
-14.42531240465241
 30
0
  0
VERTEX
  5
47B
  8
0
  6
BYLAYER
 62
    7
 10
23.45983982289953
 20
-14.3268161316505
 30
0
  0
VERTEX
  5
47C
  8
0
  6
BYLAYER
 62
    7
 10
23.60329804739687
 20
-14.22314475845054
 30
0
  0
VERTEX
  5
47D
  8
0
  6
BYLAYER
 62
    7
 10
23.7430964340237
 20
-14.11438909650566
 30
0
  0
VERTEX
  5
47E
  8
0
  6
BYLAYER
 62
    7
 10
23.87908854398979
 20
-14.00063995726898
 30
0
  0
VERTEX
  5
47F
  8
0
  6
BYLAYER
 62
    7
 10
24.01112793850491
 20
-13.88198815219362
 30
0
  0
VERTEX
  5
480
  8
0
  6
BYLAYER
 62
    7
 10
24.13906817877882
 20
-13.75852449273271
 30
0
  0
VERTEX
  5
481
  8
0
  6
BYLAYER
 62
    7
 10
24.26276282602128
 20
-13.63033979033937
 30
0
  0
VERTEX
  5
482
  8
0
  6
BYLAYER
 62
    7
 10
24.38206544144204
 20
-13.49752485646672
 30
0
  0
VERTEX
  5
483
  8
0
  6
BYLAYER
 62
    7
 10
24.49682958625088
 20
-13.36017050256789
 30
0
  0
VERTEX
  5
484
  8
0
  6
BYLAYER
 62
    7
 10
24.60690882165754
 20
-13.218367540096
 30
0
  0
VERTEX
  5
485
  8
0
  6
BYLAYER
 62
    7
 10
24.71215670887181
 20
-13.07220678050418
 30
0
  0
VERTEX
  5
486
  8
0
  6
BYLAYER
 62
    7
 10
24.81242680910342
 20
-12.92177903524555
 30
0
  0
VERTEX
  5
487
  8
0
  6
BYLAYER
 62
    7
 10
24.90757268356215
 20
-12.76717511577322
 30
0
  0
VERTEX
  5
488
  8
0
  6
BYLAYER
 62
    7
 10
24.99744789345775
 20
-12.60848583354034
 30
0
  0
VERTEX
  5
489
  8
0
  6
BYLAYER
 62
    7
 10
25.081906
 20
-12.445802
 30
0
  0
SEQEND
  5
48A
  8
0
  6
BYLAYER
 62
    7
  0
POLYLINE
  5
48B
  8
0
  6
BYLAYER
 62
    7
 66
    1
 10
0
 20
0
 30
0
 70
    0
  0
VERTEX
  5
48C
  8
0
  6
BYLAYER
 62
    7
 10
25.081906
 20
-12.445802
 30
0
  0
VERTEX
  5
48D
  8
0
  6
BYLAYER
 62
    7
 10
25.24950868806015
 20
-12.10216180007385
 30
0
  0
VERTEX
  5
48E
  8
0
  6
BYLAYER
 62
    7
 10
25.41229461374241
 20
-11.75650132879058
 30
0
  0
VERTEX
  5
48F
  8
0
  6
BYLAYER
 62
    7
 10
25.57025069833171
 20
-11.40887187566715
 30
0
  0
VERTEX
  5
490
  8
0
  6
BYLAYER
 62
    7
 10
25.72336386311303
 20
-11.05932473022054
 30
0
  0
VERTEX
  5
491
  8
0
  6
BYLAYER
 62
    7
 10
25.87162102937129
 20
-10.70791118196771
 30
0
  0
VERTEX
  5
492
  8
0
  6
BYLAYER
 62
    7
 10
26.01500911839146
 20
-10.35468252042563
 30
0
  0
VERTEX
  5
493
  8
0
  6
BYLAYER
 62
    7
 10
26.15351505145849
 20
-9.999690035111277
 30
0
  0
VERTEX
  5
494
  8
0
  6
BYLAYER
 62
    7
 10
26.28712574985734
 20
-9.642985015541607
 30
0
  0
VERTEX
  5
495
  8
0
  6
BYLAYER
 62
    7
 10
26.41582813487294
 20
-9.284618751233594
 30
0
  0
VERTEX
  5
496
  8
0
  6
BYLAYER
 62
    7
 10
26.53960912779027
 20
-8.924642531704206
 30
0
  0
VERTEX
  5
497
  8
0
  6
BYLAYER
 62
    7
 10
26.65845564989426
 20
-8.563107646470412
 30
0
  0
VERTEX
  5
498
  8
0
  6
BYLAYER
 62
    7
 10
26.77235462246988
 20
-8.200065385049177
 30
0
  0
VERTEX
  5
499
  8
0
  6
BYLAYER
 62
    7
 10
26.88129296680205
 20
-7.835567036957473
 30
0
  0
VERTEX
  5
49A
  8
0
  6
BYLAYER
 62
    7
 10
26.98525760417575
 20
-7.469663891712265
 30
0
  0
VERTEX
  5
49B
  8
0
  6
BYLAYER
 62
    7
 10
27.08423545587593
 20
-7.102407238830523
 30
0
  0
VERTEX
  5
49C
  8
0
  6
BYLAYER
 62
    7
 10
27.17821344318754
 20
-6.733848367829213
 30
0
  0
VERTEX
  5
49D
  8
0
  6
BYLAYER
 62
    7
 10
27.26717848739552
 20
-6.364038568225306
 30
0
  0
VERTEX
  5
49E
  8
0
  6
BYLAYER
 62
    7
 10
27.35111750978484
 20
-5.99302912953577
 30
0
  0
VERTEX
  5
49F
  8
0
  6
BYLAYER
 62
    7
 10
27.43001743164043
 20
-5.620871341277572
 30
0
  0
VERTEX
  5
4A0
  8
0
  6
BYLAYER
 62
    7
 10
27.50386517424726
 20
-5.247616492967679
 30
0
  0
VERTEX
  5
4A1
  8
0
  6
BYLAYER
 62
    7
 10
27.57264765889026
 20
-4.873315874123062
 30
0
  0
VERTEX
  5
4A2
  8
0
  6
BYLAYER
 62
    7
 10
27.63635180685442
 20
-4.498020774260688
 30
0
  0
VERTEX
  5
4A3
  8
0
  6
BYLAYER
 62
    7
 10
27.69496453942466
 20
-4.121782482897524
 30
0
  0
VERTEX
  5
4A4
  8
0
  6
BYLAYER
 62
    7
 10
27.74847277788594
 20
-3.744652289550541
 30
0
  0
VERTEX
  5
4A5
  8
0
  6
BYLAYER
 62
    7
 10
27.79686344352321
 20
-3.366681483736705
 30
0
  0
VERTEX
  5
4A6
  8
0
  6
BYLAYER
 62
    7
 10
27.84012345762142
 20
-2.987921354972984
 30
0
  0
VERTEX
  5
4A7
  8
0
  6
BYLAYER
 62
    7
 10
27.87823974146554
 20
-2.608423192776348
 30
0
  0
VERTEX
  5
4A8
  8
0
  6
BYLAYER
 62
    7
 10
27.9111992163405
 20
-2.228238286663764
 30
0
  0
VERTEX
  5
4A9
  8
0
  6
BYLAYER
 62
    7
 10
27.93898880353127
 20
-1.847417926152201
 30
0
  0
VERTEX
  5
4AA
  8
0
  6
BYLAYER
 62
    7
 10
27.96159542432278
 20
-1.466013400758626
 30
0
  0
VERTEX
  5
4AB
  8
0
  6
BYLAYER
 62
    7
 10
27.979006
 20
-1.084076
 30
0
  0
SEQEND
  5
4AC
  8
0
  6
BYLAYER
 62
    7
  0
POLYLINE
  5
4AD
  8
0
  6
BYLAYER
 62
    7
 66
    1
 10
0
 20
0
 30
0
 70
    0
  0
VERTEX
  5
4AE
  8
0
  6
BYLAYER
 62
    7
 10
27.979006
 20
-1.084076
 30
0
  0
VERTEX
  5
4AF
  8
0
  6
BYLAYER
 62
    7
 10
27.98236990842872
 20
-0.9527205191500788
 30
0
  0
VERTEX
  5
4B0
  8
0
  6
BYLAYER
 62
    7
 10
27.98228841831426
 20
-0.821658313450371
 30
0
  0
VERTEX
  5
4B1
  8
0
  6
BYLAYER
 62
    7
 10
27.97878486784599
 20
-0.6909507059178948
 30
0
  0
VERTEX
  5
4B2
  8
0
  6
BYLAYER
 62
    7
 10
27.97188259521332
 20
-0.5606590195696687
 30
0
  0
VERTEX
  5
4B3
  8
0
  6
BYLAYER
 62
    7
 10
27.96160493860562
 20
-0.4308445774227116
 30
0
  0
VERTEX
  5
4B4
  8
0
  6
BYLAYER
 62
    7
 10
27.94797523621228
 20
-0.3015687024940419
 30
0
  0
VERTEX
  5
4B5
  8
0
  6
BYLAYER
 62
    7
 10
27.93101682622268
 20
-0.1728927178006781
 30
0
  0
VERTEX
  5
4B6
  8
0
  6
BYLAYER
 62
    7
 10
27.91075304682622
 20
-0.04487794635963894
 30
0
  0
VERTEX
  5
4B7
  8
0
  6
BYLAYER
 62
    7
 10
27.88720723621228
 20
0.08241428881205705
 30
0
  0
VERTEX
  5
4B8
  8
0
  6
BYLAYER
 62
    7
 10
27.86040273257024
 20
0.2089226646973915
 30
0
  0
VERTEX
  5
4B9
  8
0
  6
BYLAYER
 62
    7
 10
27.83036287408949
 20
0.3345858582793457
 30
0
  0
VERTEX
  5
4BA
  8
0
  6
BYLAYER
 62
    7
 10
27.79711099895941
 20
0.4593425465409011
 30
0
  0
VERTEX
  5
4BB
  8
0
  6
BYLAYER
 62
    7
 10
27.76067044536941
 20
0.583131406465039
 30
0
  0
VERTEX
  5
4BC
  8
0
  6
BYLAYER
 62
    7
 10
27.72106455150884
 20
0.7058911150347413
 30
0
  0
VERTEX
  5
4BD
  8
0
  6
BYLAYER
 62
    7
 10
27.67831665556712
 20
0.827560349232989
 30
0
  0
VERTEX
  5
4BE
  8
0
  6
BYLAYER
 62
    7
 10
27.63245009573361
 20
0.9480777860427636
 30
0
  0
VERTEX
  5
4BF
  8
0
  6
BYLAYER
 62
    7
 10
27.58348821019771
 20
1.067382102447047
 30
0
  0
VERTEX
  5
4C0
  8
0
  6
BYLAYER
 62
    7
 10
27.5314543371488
 20
1.18541197542882
 30
0
  0
VERTEX
  5
4C1
  8
0
  6
BYLAYER
 62
    7
 10
27.47637181477628
 20
1.302106081971064
 30
0
  0
VERTEX
  5
4C2
  8
0
  6
BYLAYER
 62
    7
 10
27.41826398126951
 20
1.417403099056761
 30
0
  0
VERTEX
  5
4C3
  8
0
  6
BYLAYER
 62
    7
 10
27.3571541748179
 20
1.531241703668892
 30
0
  0
VERTEX
  5
4C4
  8
0
  6
BYLAYER
 62
    7
 10
27.29306573361083
 20
1.643560572790439
 30
0
  0
VERTEX
  5
4C5
  8
0
  6
BYLAYER
 62
    7
 10
27.22602199583767
 20
1.754298383404383
 30
0
  0
VERTEX
  5
4C6
  8
0
  6
BYLAYER
 62
    7
 10
27.15604629968783
 20
1.863393812493705
 30
0
  0
VERTEX
  5
4C7
  8
0
  6
BYLAYER
 62
    7
 10
27.08316198335068
 20
1.970785537041387
 30
0
  0
VERTEX
  5
4C8
  8
0
  6
BYLAYER
 62
    7
 10
27.00739238501561
 20
2.07641223403041
 30
0
  0
VERTEX
  5
4C9
  8
0
  6
BYLAYER
 62
    7
 10
26.92876084287202
 20
2.180212580443757
 30
0
  0
VERTEX
  5
4CA
  8
0
  6
BYLAYER
 62
    7
 10
26.84729069510927
 20
2.282125253264407
 30
0
  0
VERTEX
  5
4CB
  8
0
  6
BYLAYER
 62
    7
 10
26.76300527991675
 20
2.382088929475343
 30
0
  0
VERTEX
  5
4CC
  8
0
  6
BYLAYER
 62
    7
 10
26.67592793548387
 20
2.480042286059546
 30
0
  0
VERTEX
  5
4CD
  8
0
  6
BYLAYER
 62
    7
 10
26.586082
 20
2.575924
 30
0
  0
SEQEND
  5
4CE
  8
0
  6
BYLAYER
 62
    7
  0
POLYLINE
  5
4CF
  8
0
  6
BYLAYER
 62
    7
 66
    1
 10
0
 20
0
 30
0
 70
    0
  0
VERTEX
  5
4D0
  8
0
  6
BYLAYER
 62
    7
 10
26.586082
 20
2.575924
 30
0
  0
VERTEX
  5
4D1
  8
0
  6
BYLAYER
 62
    7
 10
26.49375068863079
 20
2.669414864187171
 30
0
  0
VERTEX
  5
4D2
  8
0
  6
BYLAYER
 62
    7
 10
26.39924210009735
 20
2.760219423382901
 30
0
  0
VERTEX
  5
4D3
  8
0
  6
BYLAYER
 62
    7
 10
26.30261660759961
 20
2.848311982377228
 30
0
  0
VERTEX
  5
4D4
  8
0
  6
BYLAYER
 62
    7
 10
26.20393458433756
 20
2.93366684596019
 30
0
  0
VERTEX
  5
4D5
  8
0
  6
BYLAYER
 62
    7
 10
26.10325640351112
 20
3.016258318921822
 30
0
  0
VERTEX
  5
4D6
  8
0
  6
BYLAYER
 62
    7
 10
26.0006424383203
 20
3.096060706052164
 30
0
  0
VERTEX
  5
4D7
  8
0
  6
BYLAYER
 62
    7
 10
25.89615306196503
 20
3.173048312141251
 30
0
  0
VERTEX
  5
4D8
  8
0
  6
BYLAYER
 62
    7
 10
25.78984864764526
 20
3.247195441979121
 30
0
  0
VERTEX
  5
4D9
  8
0
  6
BYLAYER
 62
    7
 10
25.68178956856097
 20
3.318476400355812
 30
0
  0
VERTEX
  5
4DA
  8
0
  6
BYLAYER
 62
    7
 10
25.57203619791212
 20
3.38686549206136
 30
0
  0
VERTEX
  5
4DB
  8
0
  6
BYLAYER
 62
    7
 10
25.46064890889866
 20
3.452337021885804
 30
0
  0
VERTEX
  5
4DC
  8
0
  6
BYLAYER
 62
    7
 10
25.34768807472055
 20
3.51486529461918
 30
0
  0
VERTEX
  5
4DD
  8
0
  6
BYLAYER
 62
    7
 10
25.23321406857776
 20
3.574424615051525
 30
0
  0
VERTEX
  5
4DE
  8
0
  6
BYLAYER
 62
    7
 10
25.11728726367024
 20
3.630989287972878
 30
0
  0
VERTEX
  5
4DF
  8
0
  6
BYLAYER
 62
    7
 10
24.99996803319795
 20
3.684533618173274
 30
0
  0
VERTEX
  5
4E0
  8
0
  6
BYLAYER
 62
    7
 10
24.88131675036085
 20
3.735031910442751
 30
0
  0
VERTEX
  5
4E1
  8
0
  6
BYLAYER
 62
    7
 10
24.7613937883589
 20
3.782458469571346
 30
0
  0
VERTEX
  5
4E2
  8
0
  6
BYLAYER
 62
    7
 10
24.64025952039207
 20
3.826787600349099
 30
0
  0
VERTEX
  5
4E3
  8
0
  6
BYLAYER
 62
    7
 10
24.5179743196603
 20
3.867993607566043
 30
0
  0
VERTEX
  5
4E4
  8
0
  6
BYLAYER
 62
    7
 10
24.39459855936357
 20
3.906050796012218
 30
0
  0
VERTEX
  5
4E5
  8
0
  6
BYLAYER
 62
    7
 10
24.27019261270183
 20
3.940933470477661
 30
0
  0
VERTEX
  5
4E6
  8
0
  6
BYLAYER
 62
    7
 10
24.14481685287503
 20
3.972615935752408
 30
0
  0
VERTEX
  5
4E7
  8
0
  6
BYLAYER
 62
    7
 10
24.01853165308315
 20
4.001072496626498
 30
0
  0
VERTEX
  5
4E8
  8
0
  6
BYLAYER
 62
    7
 10
23.89139738652613
 20
4.026277457889966
 30
0
  0
VERTEX
  5
4E9
  8
0
  6
BYLAYER
 62
    7
 10
23.76347442640395
 20
4.048205124332852
 30
0
  0
VERTEX
  5
4EA
  8
0
  6
BYLAYER
 62
    7
 10
23.63482314591655
 20
4.066829800745191
 30
0
  0
VERTEX
  5
4EB
  8
0
  6
BYLAYER
 62
    7
 10
23.50550391826391
 20
4.082125791917022
 30
0
  0
VERTEX
  5
4EC
  8
0
  6
BYLAYER
 62
    7
 10
23.37557711664597
 20
4.09406740263838
 30
0
  0
VERTEX
  5
4ED
  8
0
  6
BYLAYER
 62
    7
 10
23.2451031142627
 20
4.102628937699305
 30
0
  0
VERTEX
  5
4EE
  8
0
  6
BYLAYER
 62
    7
 10
23.11414228431406
 20
4.107784701889832
 30
0
  0
VERTEX
  5
4EF
  8
0
  6
BYLAYER
 62
    7
 10
22.982755
 20
4.109509
 30
0
  0
SEQEND
  5
4F0
  8
0
  6
BYLAYER
 62
    7
  0
POLYLINE
  5
4F1
  8
0
  6
BYLAYER
 62
    7
 66
    1
 10
0
 20
0
 30
0
 70
    0
  0
VERTEX
  5
4F2
  8
0
  6
BYLAYER
 62
    7
 10
13.696786
 20
4.109509
 30
0
  0
VERTEX
  5
4F3
  8
0
  6
BYLAYER
 62
    7
 10
13.50955212648115
 20
4.688816679534088
 30
0
  0
VERTEX
  5
4F4
  8
0
  6
BYLAYER
 62
    7
 10
13.29949493068377
 20
5.255771414420463
 30
0
  0
VERTEX
  5
4F5
  8
0
  6
BYLAYER
 62
    7
 10
13.06721959813366
 20
5.809922942633681
 30
0
  0
VERTEX
  5
4F6
  8
0
  6
BYLAYER
 62
    7
 10
12.81333131435669
 20
6.350821002148301
 30
0
  0
VERTEX
  5
4F7
  8
0
  6
BYLAYER
 62
    7
 10
12.53843526487865
 20
6.878015330938873
 30
0
  0
VERTEX
  5
4F8
  8
0
  6
BYLAYER
 62
    7
 10
12.2431366352254
 20
7.391055666979961
 30
0
  0
VERTEX
  5
4F9
  8
0
  6
BYLAYER
 62
    7
 10
11.92804061092276
 20
7.889491748246115
 30
0
  0
VERTEX
  5
4FA
  8
0
  6
BYLAYER
 62
    7
 10
11.59375237749656
 20
8.372873312711894
 30
0
  0
VERTEX
  5
4FB
  8
0
  6
BYLAYER
 62
    7
 10
11.24087712047262
 20
8.840750098351849
 30
0
  0
VERTEX
  5
4FC
  8
0
  6
BYLAYER
 62
    7
 10
10.87002002537679
 20
9.292671843140546
 30
0
  0
VERTEX
  5
4FD
  8
0
  6
BYLAYER
 62
    7
 10
10.48178627773489
 20
9.728188285052532
 30
0
  0
VERTEX
  5
4FE
  8
0
  6
BYLAYER
 62
    7
 10
10.07678106307274
 20
10.14684916206237
 30
0
  0
VERTEX
  5
4FF
  8
0
  6
BYLAYER
 62
    7
 10
9.655609566916185
 20
10.54820421214461
 30
0
  0
VERTEX
  5
500
  8
0
  6
BYLAYER
 62
    7
 10
9.218876974791048
 20
10.93180317327381
 30
0
  0
VERTEX
  5
501
  8
0
  6
BYLAYER
 62
    7
 10
8.767188472223157
 20
11.29719578342452
 30
0
  0
VERTEX
  5
502
  8
0
  6
BYLAYER
 62
    7
 10
8.301149244738346
 20
11.64393178057131
 30
0
  0
VERTEX
  5
503
  8
0
  6
BYLAYER
 62
    7
 10
7.821364477862445
 20
11.97156090268873
 30
0
  0
VERTEX
  5
504
  8
0
  6
BYLAYER
 62
    7
 10
7.328439357121283
 20
12.27963288775133
 30
0
  0
VERTEX
  5
505
  8
0
  6
BYLAYER
 62
    7
 10
6.822979068040688
 20
12.56769747373368
 30
0
  0
VERTEX
  5
506
  8
0
  6
BYLAYER
 62
    7
 10
6.305588796146493
 20
12.83530439861032
 30
0
  0
VERTEX
  5
507
  8
0
  6
BYLAYER
 62
    7
 10
5.776873726964526
 20
13.08200340035581
 30
0
  0
VERTEX
  5
508
  8
0
  6
BYLAYER
 62
    7
 10
5.237439046020617
 20
13.30734421694471
 30
0
  0
VERTEX
  5
509
  8
0
  6
BYLAYER
 62
    7
 10
4.687889938840597
 20
13.51087658635158
 30
0
  0
VERTEX
  5
50A
  8
0
  6
BYLAYER
 62
    7
 10
4.128831590950295
 20
13.69215024655097
 30
0
  0
VERTEX
  5
50B
  8
0
  6
BYLAYER
 62
    7
 10
3.560869187875541
 20
13.85071493551744
 30
0
  0
VERTEX
  5
50C
  8
0
  6
BYLAYER
 62
    7
 10
2.984607915142166
 20
13.98612039122554
 30
0
  0
VERTEX
  5
50D
  8
0
  6
BYLAYER
 62
    7
 10
2.400652958275999
 20
14.09791635164983
 30
0
  0
VERTEX
  5
50E
  8
0
  6
BYLAYER
 62
    7
 10
1.80960950280287
 20
14.18565255476486
 30
0
  0
VERTEX
  5
50F
  8
0
  6
BYLAYER
 62
    7
 10
1.21208273424861
 20
14.2488787385452
 30
0
  0
VERTEX
  5
510
  8
0
  6
BYLAYER
 62
    7
 10
0.6086778381390472
 20
14.28714464096539
 30
0
  0
VERTEX
  5
511
  8
0
  6
BYLAYER
 62
    7
 10
0
 20
14.3
 30
0
  0
SEQEND
  5
512
  8
0
  6
BYLAYER
 62
    7
  0
POLYLINE
  5
513
  8
0
  6
BYLAYER
 62
    7
 66
    1
 10
0
 20
0
 30
0
 70
    0
  0
VERTEX
  5
514
  8
0
  6
BYLAYER
 62
    7
 10
0
 20
14.3
 30
0
  0
VERTEX
  5
515
  8
0
  6
BYLAYER
 62
    7
 10
-0.6086778381390352
 20
14.28714464096539
 30
0
  0
VERTEX
  5
516
  8
0
  6
BYLAYER
 62
    7
 10
-1.212082734248598
 20
14.2488787385452
 30
0
  0
VERTEX
  5
517
  8
0
  6
BYLAYER
 62
    7
 10
-1.80960950280286
 20
14.18565255476486
 30
0
  0
VERTEX
  5
518
  8
0
  6
BYLAYER
 62
    7
 10
-2.400652958275989
 20
14.09791635164983
 30
0
  0
VERTEX
  5
519
  8
0
  6
BYLAYER
 62
    7
 10
-2.984607915142156
 20
13.98612039122554
 30
0
  0
VERTEX
  5
51A
  8
0
  6
BYLAYER
 62
    7
 10
-3.560869187875534
 20
13.85071493551744
 30
0
  0
VERTEX
  5
51B
  8
0
  6
BYLAYER
 62
    7
 10
-4.128831590950287
 20
13.69215024655097
 30
0
  0
VERTEX
  5
51C
  8
0
  6
BYLAYER
 62
    7
 10
-4.687889938840589
 20
13.51087658635158
 30
0
  0
VERTEX
  5
51D
  8
0
  6
BYLAYER
 62
    7
 10
-5.237439046020608
 20
13.30734421694471
 30
0
  0
VERTEX
  5
51E
  8
0
  6
BYLAYER
 62
    7
 10
-5.776873726964518
 20
13.08200340035581
 30
0
  0
VERTEX
  5
51F
  8
0
  6
BYLAYER
 62
    7
 10
-6.305588796146485
 20
12.83530439861032
 30
0
  0
VERTEX
  5
520
  8
0
  6
BYLAYER
 62
    7
 10
-6.822979068040681
 20
12.56769747373368
 30
0
  0
VERTEX
  5
521
  8
0
  6
BYLAYER
 62
    7
 10
-7.328439357121275
 20
12.27963288775134
 30
0
  0
VERTEX
  5
522
  8
0
  6
BYLAYER
 62
    7
 10
-7.821364477862438
 20
11.97156090268873
 30
0
  0
VERTEX
  5
523
  8
0
  6
BYLAYER
 62
    7
 10
-8.30114924473834
 20
11.64393178057132
 30
0
  0
VERTEX
  5
524
  8
0
  6
BYLAYER
 62
    7
 10
-8.76718847222315
 20
11.29719578342453
 30
0
  0
VERTEX
  5
525
  8
0
  6
BYLAYER
 62
    7
 10
-9.218876974791041
 20
10.93180317327381
 30
0
  0
VERTEX
  5
526
  8
0
  6
BYLAYER
 62
    7
 10
-9.65560956691618
 20
10.54820421214461
 30
0
  0
VERTEX
  5
527
  8
0
  6
BYLAYER
 62
    7
 10
-10.07678106307274
 20
10.14684916206237
 30
0
  0
VERTEX
  5
528
  8
0
  6
BYLAYER
 62
    7
 10
-10.48178627773488
 20
9.728188285052539
 30
0
  0
VERTEX
  5
529
  8
0
  6
BYLAYER
 62
    7
 10
-10.87002002537679
 20
9.292671843140552
 30
0
  0
VERTEX
  5
52A
  8
0
  6
BYLAYER
 62
    7
 10
-11.24087712047262
 20
8.840750098351858
 30
0
  0
VERTEX
  5
52B
  8
0
  6
BYLAYER
 62
    7
 10
-11.59375237749656
 20
8.372873312711899
 30
0
  0
VERTEX
  5
52C
  8
0
  6
BYLAYER
 62
    7
 10
-11.92804061092276
 20
7.889491748246122
 30
0
  0
VERTEX
  5
52D
  8
0
  6
BYLAYER
 62
    7
 10
-12.2431366352254
 20
7.391055666979968
 30
0
  0
VERTEX
  5
52E
  8
0
  6
BYLAYER
 62
    7
 10
-12.53843526487865
 20
6.878015330938883
 30
0
  0
VERTEX
  5
52F
  8
0
  6
BYLAYER
 62
    7
 10
-12.81333131435668
 20
6.35082100214831
 30
0
  0
VERTEX
  5
530
  8
0
  6
BYLAYER
 62
    7
 10
-13.06721959813366
 20
5.80992294263369
 30
0
  0
VERTEX
  5
531
  8
0
  6
BYLAYER
 62
    7
 10
-13.29949493068376
 20
5.255771414420472
 30
0
  0
VERTEX
  5
532
  8
0
  6
BYLAYER
 62
    7
 10
-13.50955212648115
 20
4.688816679534098
 30
0
  0
VERTEX
  5
533
  8
0
  6
BYLAYER
 62
    7
 10
-13.696786
 20
4.109509
 30
0
  0
SEQEND
  5
534
  8
0
  6
BYLAYER
 62
    7
  0
POLYLINE
  5
535
  8
0
  6
BYLAYER
 62
    7
 66
    1
 10
0
 20
0
 30
0
 70
    0
  0
VERTEX
  5
536
  8
0
  6
BYLAYER
 62
    7
 10
-22.982755
 20
4.109509
 30
0
  0
VERTEX
  5
537
  8
0
  6
BYLAYER
 62
    7
 10
-23.11414228431405
 20
4.107784701889833
 30
0
  0
VERTEX
  5
538
  8
0
  6
BYLAYER
 62
    7
 10
-23.2451031142627
 20
4.102628937699306
 30
0
  0
VERTEX
  5
539
  8
0
  6
BYLAYER
 62
    7
 10
-23.37557711664597
 20
4.094067402638381
 30
0
  0
VERTEX
  5
53A
  8
0
  6
BYLAYER
 62
    7
 10
-23.5055039182639
 20
4.082125791917023
 30
0
  0
VERTEX
  5
53B
  8
0
  6
BYLAYER
 62
    7
 10
-23.63482314591655
 20
4.066829800745191
 30
0
  0
VERTEX
  5
53C
  8
0
  6
BYLAYER
 62
    7
 10
-23.76347442640395
 20
4.048205124332853
 30
0
  0
VERTEX
  5
53D
  8
0
  6
BYLAYER
 62
    7
 10
-23.89139738652613
 20
4.026277457889967
 30
0
  0
VERTEX
  5
53E
  8
0
  6
BYLAYER
 62
    7
 10
-24.01853165308314
 20
4.001072496626498
 30
0
  0
VERTEX
  5
53F
  8
0
  6
BYLAYER
 62
    7
 10
-24.14481685287502
 20
3.972615935752408
 30
0
  0
VERTEX
  5
540
  8
0
  6
BYLAYER
 62
    7
 10
-24.27019261270182
 20
3.940933470477661
 30
0
  0
VERTEX
  5
541
  8
0
  6
BYLAYER
 62
    7
 10
-24.39459855936357
 20
3.906050796012218
 30
0
  0
VERTEX
  5
542
  8
0
  6
BYLAYER
 62
    7
 10
-24.5179743196603
 20
3.867993607566043
 30
0
  0
VERTEX
  5
543
  8
0
  6
BYLAYER
 62
    7
 10
-24.64025952039207
 20
3.826787600349099
 30
0
  0
VERTEX
  5
544
  8
0
  6
BYLAYER
 62
    7
 10
-24.7613937883589
 20
3.782458469571347
 30
0
  0
VERTEX
  5
545
  8
0
  6
BYLAYER
 62
    7
 10
-24.88131675036085
 20
3.735031910442752
 30
0
  0
VERTEX
  5
546
  8
0
  6
BYLAYER
 62
    7
 10
-24.99996803319794
 20
3.684533618173274
 30
0
  0
VERTEX
  5
547
  8
0
  6
BYLAYER
 62
    7
 10
-25.11728726367024
 20
3.630989287972878
 30
0
  0
VERTEX
  5
548
  8
0
  6
BYLAYER
 62
    7
 10
-25.23321406857776
 20
3.574424615051527
 30
0
  0
VERTEX
  5
549
  8
0
  6
BYLAYER
 62
    7
 10
-25.34768807472055
 20
3.514865294619181
 30
0
  0
VERTEX
  5
54A
  8
0
  6
BYLAYER
 62
    7
 10
-25.46064890889866
 20
3.452337021885805
 30
0
  0
VERTEX
  5
54B
  8
0
  6
BYLAYER
 62
    7
 10
-25.57203619791212
 20
3.386865492061362
 30
0
  0
VERTEX
  5
54C
  8
0
  6
BYLAYER
 62
    7
 10
-25.68178956856098
 20
3.318476400355813
 30
0
  0
VERTEX
  5
54D
  8
0
  6
BYLAYER
 62
    7
 10
-25.78984864764526
 20
3.247195441979122
 30
0
  0
VERTEX
  5
54E
  8
0
  6
BYLAYER
 62
    7
 10
-25.89615306196502
 20
3.173048312141252
 30
0
  0
VERTEX
  5
54F
  8
0
  6
BYLAYER
 62
    7
 10
-26.0006424383203
 20
3.096060706052165
 30
0
  0
VERTEX
  5
550
  8
0
  6
BYLAYER
 62
    7
 10
-26.10325640351112
 20
3.016258318921823
 30
0
  0
VERTEX
  5
551
  8
0
  6
BYLAYER
 62
    7
 10
-26.20393458433755
 20
2.933666845960191
 30
0
  0
VERTEX
  5
552
  8
0
  6
BYLAYER
 62
    7
 10
-26.30261660759961
 20
2.84831198237723
 30
0
  0
VERTEX
  5
553
  8
0
  6
BYLAYER
 62
    7
 10
-26.39924210009734
 20
2.760219423382902
 30
0
  0
VERTEX
  5
554
  8
0
  6
BYLAYER
 62
    7
 10
-26.49375068863079
 20
2.669414864187173
 30
0
  0
VERTEX
  5
555
  8
0
  6
BYLAYER
 62
    7
 10
-26.586082
 20
2.575924
 30
0
  0
SEQEND
  5
556
  8
0
  6
BYLAYER
 62
    7
  0
POLYLINE
  5
557
  8
0
  6
BYLAYER
 62
    7
 66
    1
 10
0
 20
0
 30
0
 70
    0
  0
VERTEX
  5
558
  8
0
  6
BYLAYER
 62
    7
 10
-26.586082
 20
2.575924
 30
0
  0
VERTEX
  5
559
  8
0
  6
BYLAYER
 62
    7
 10
-26.67592793548387
 20
2.480042286059548
 30
0
  0
VERTEX
  5
55A
  8
0
  6
BYLAYER
 62
    7
 10
-26.76300527991676
 20
2.382088929475346
 30
0
  0
VERTEX
  5
55B
  8
0
  6
BYLAYER
 62
    7
 10
-26.84729069510926
 20
2.282125253264409
 30
0
  0
VERTEX
  5
55C
  8
0
  6
BYLAYER
 62
    7
 10
-26.92876084287201
 20
2.180212580443758
 30
0
  0
VERTEX
  5
55D
  8
0
  6
BYLAYER
 62
    7
 10
-27.00739238501561
 20
2.076412234030412
 30
0
  0
VERTEX
  5
55E
  8
0
  6
BYLAYER
 62
    7
 10
-27.08316198335068
 20
1.970785537041388
 30
0
  0
VERTEX
  5
55F
  8
0
  6
BYLAYER
 62
    7
 10
-27.15604629968783
 20
1.863393812493706
 30
0
  0
VERTEX
  5
560
  8
0
  6
BYLAYER
 62
    7
 10
-27.22602199583767
 20
1.754298383404384
 30
0
  0
VERTEX
  5
561
  8
0
  6
BYLAYER
 62
    7
 10
-27.29306573361082
 20
1.64356057279044
 30
0
  0
VERTEX
  5
562
  8
0
  6
BYLAYER
 62
    7
 10
-27.3571541748179
 20
1.531241703668893
 30
0
  0
VERTEX
  5
563
  8
0
  6
BYLAYER
 62
    7
 10
-27.41826398126951
 20
1.417403099056763
 30
0
  0
VERTEX
  5
564
  8
0
  6
BYLAYER
 62
    7
 10
-27.47637181477628
 20
1.302106081971065
 30
0
  0
VERTEX
  5
565
  8
0
  6
BYLAYER
 62
    7
 10
-27.5314543371488
 20
1.185411975428821
 30
0
  0
VERTEX
  5
566
  8
0
  6
BYLAYER
 62
    7
 10
-27.58348821019771
 20
1.067382102447048
 30
0
  0
VERTEX
  5
567
  8
0
  6
BYLAYER
 62
    7
 10
-27.63245009573361
 20
0.9480777860427653
 30
0
  0
VERTEX
  5
568
  8
0
  6
BYLAYER
 62
    7
 10
-27.67831665556712
 20
0.8275603492329906
 30
0
  0
VERTEX
  5
569
  8
0
  6
BYLAYER
 62
    7
 10
-27.72106455150885
 20
0.705891115034743
 30
0
  0
VERTEX
  5
56A
  8
0
  6
BYLAYER
 62
    7
 10
-27.76067044536941
 20
0.5831314064650408
 30
0
  0
VERTEX
  5
56B
  8
0
  6
BYLAYER
 62
    7
 10
-27.79711099895942
 20
0.4593425465409028
 30
0
  0
VERTEX
  5
56C
  8
0
  6
BYLAYER
 62
    7
 10
-27.83036287408949
 20
0.3345858582793474
 30
0
  0
VERTEX
  5
56D
  8
0
  6
BYLAYER
 62
    7
 10
-27.86040273257024
 20
0.2089226646973933
 30
0
  0
VERTEX
  5
56E
  8
0
  6
BYLAYER
 62
    7
 10
-27.88720723621228
 20
0.08241428881205892
 30
0
  0
VERTEX
  5
56F
  8
0
  6
BYLAYER
 62
    7
 10
-27.91075304682622
 20
-0.04487794635963716
 30
0
  0
VERTEX
  5
570
  8
0
  6
BYLAYER
 62
    7
 10
-27.93101682622269
 20
-0.1728927178006763
 30
0
  0
VERTEX
  5
571
  8
0
  6
BYLAYER
 62
    7
 10
-27.94797523621228
 20
-0.3015687024940399
 30
0
  0
VERTEX
  5
572
  8
0
  6
BYLAYER
 62
    7
 10
-27.96160493860562
 20
-0.4308445774227095
 30
0
  0
VERTEX
  5
573
  8
0
  6
BYLAYER
 62
    7
 10
-27.97188259521332
 20
-0.5606590195696667
 30
0
  0
VERTEX
  5
574
  8
0
  6
BYLAYER
 62
    7
 10
-27.97878486784599
 20
-0.6909507059178924
 30
0
  0
VERTEX
  5
575
  8
0
  6
BYLAYER
 62
    7
 10
-27.98228841831425
 20
-0.8216583134503683
 30
0
  0
VERTEX
  5
576
  8
0
  6
BYLAYER
 62
    7
 10
-27.98236990842872
 20
-0.9527205191500763
 30
0
  0
VERTEX
  5
577
  8
0
  6
BYLAYER
 62
    7
 10
-27.979006
 20
-1.084076
 30
0
  0
SEQEND
  5
578
  8
0
  6
BYLAYER
 62
    7
  0
POLYLINE
  5
579
  8
0
  6
BYLAYER
 62
    7
 66
    1
 10
0
 20
0
 30
0
 70
    0
  0
VERTEX
  5
57A
  8
0
  6
BYLAYER
 62
    7
 10
-27.979006
 20
-1.084076
 30
0
  0
VERTEX
  5
57B
  8
0
  6
BYLAYER
 62
    7
 10
-27.96159542432278
 20
-1.466013400758618
 30
0
  0
VERTEX
  5
57C
  8
0
  6
BYLAYER
 62
    7
 10
-27.93898880353127
 20
-1.847417926152194
 30
0
  0
VERTEX
  5
57D
  8
0
  6
BYLAYER
 62
    7
 10
-27.9111992163405
 20
-2.228238286663757
 30
0
  0
VERTEX
  5
57E
  8
0
  6
BYLAYER
 62
    7
 10
-27.87823974146555
 20
-2.608423192776342
 30
0
  0
VERTEX
  5
57F
  8
0
  6
BYLAYER
 62
    7
 10
-27.84012345762142
 20
-2.987921354972978
 30
0
  0
VERTEX
  5
580
  8
0
  6
BYLAYER
 62
    7
 10
-27.79686344352321
 20
-3.3666814837367
 30
0
  0
VERTEX
  5
581
  8
0
  6
BYLAYER
 62
    7
 10
-27.74847277788594
 20
-3.744652289550535
 30
0
  0
VERTEX
  5
582
  8
0
  6
BYLAYER
 62
    7
 10
-27.69496453942465
 20
-4.121782482897519
 30
0
  0
VERTEX
  5
583
  8
0
  6
BYLAYER
 62
    7
 10
-27.63635180685442
 20
-4.498020774260681
 30
0
  0
VERTEX
  5
584
  8
0
  6
BYLAYER
 62
    7
 10
-27.57264765889026
 20
-4.873315874123057
 30
0
  0
VERTEX
  5
585
  8
0
  6
BYLAYER
 62
    7
 10
-27.50386517424725
 20
-5.247616492967674
 30
0
  0
VERTEX
  5
586
  8
0
  6
BYLAYER
 62
    7
 10
-27.43001743164043
 20
-5.620871341277565
 30
0
  0
VERTEX
  5
587
  8
0
  6
BYLAYER
 62
    7
 10
-27.35111750978483
 20
-5.993029129535764
 30
0
  0
VERTEX
  5
588
  8
0
  6
BYLAYER
 62
    7
 10
-27.26717848739552
 20
-6.3640385682253
 30
0
  0
VERTEX
  5
589
  8
0
  6
BYLAYER
 62
    7
 10
-27.17821344318754
 20
-6.733848367829207
 30
0
  0
VERTEX
  5
58A
  8
0
  6
BYLAYER
 62
    7
 10
-27.08423545587593
 20
-7.102407238830517
 30
0
  0
VERTEX
  5
58B
  8
0
  6
BYLAYER
 62
    7
 10
-26.98525760417576
 20
-7.469663891712258
 30
0
  0
VERTEX
  5
58C
  8
0
  6
BYLAYER
 62
    7
 10
-26.88129296680205
 20
-7.835567036957467
 30
0
  0
VERTEX
  5
58D
  8
0
  6
BYLAYER
 62
    7
 10
-26.77235462246987
 20
-8.200065385049173
 30
0
  0
VERTEX
  5
58E
  8
0
  6
BYLAYER
 62
    7
 10
-26.65845564989426
 20
-8.563107646470407
 30
0
  0
VERTEX
  5
58F
  8
0
  6
BYLAYER
 62
    7
 10
-26.53960912779027
 20
-8.924642531704201
 30
0
  0
VERTEX
  5
590
  8
0
  6
BYLAYER
 62
    7
 10
-26.41582813487295
 20
-9.284618751233591
 30
0
  0
VERTEX
  5
591
  8
0
  6
BYLAYER
 62
    7
 10
-26.28712574985734
 20
-9.642985015541603
 30
0
  0
VERTEX
  5
592
  8
0
  6
BYLAYER
 62
    7
 10
-26.1535150514585
 20
-9.999690035111271
 30
0
  0
VERTEX
  5
593
  8
0
  6
BYLAYER
 62
    7
 10
-26.01500911839146
 20
-10.35468252042563
 30
0
  0
VERTEX
  5
594
  8
0
  6
BYLAYER
 62
    7
 10
-25.87162102937129
 20
-10.7079111819677
 30
0
  0
VERTEX
  5
595
  8
0
  6
BYLAYER
 62
    7
 10
-25.72336386311302
 20
-11.05932473022053
 30
0
  0
VERTEX
  5
596
  8
0
  6
BYLAYER
 62
    7
 10
-25.57025069833172
 20
-11.40887187566714
 30
0
  0
VERTEX
  5
597
  8
0
  6
BYLAYER
 62
    7
 10
-25.41229461374241
 20
-11.75650132879057
 30
0
  0
VERTEX
  5
598
  8
0
  6
BYLAYER
 62
    7
 10
-25.24950868806015
 20
-12.10216180007384
 30
0
  0
VERTEX
  5
599
  8
0
  6
BYLAYER
 62
    7
 10
-25.081906
 20
-12.445802
 30
0
  0
SEQEND
  5
59A
  8
0
  6
BYLAYER
 62
    7
  0
POLYLINE
  5
59B
  8
0
  6
BYLAYER
 62
    7
 66
    1
 10
0
 20
0
 30
0
 70
    0
  0
VERTEX
  5
59C
  8
0
  6
BYLAYER
 62
    7
 10
-22.982755
 20
4.109509
 30
0
  0
VERTEX
  5
59D
  8
0
  6
BYLAYER
 62
    7
 10
-13.696786
 20
4.109509
 30
0
  0
SEQEND
  5
59E
  8
0
  6
BYLAYER
 62
    7
  0
ENDSEC
  0
EOF
