G04 #@! TF.GenerationSoftware,KiCad,Pcbnew,(5.0.0)*
G04 #@! TF.CreationDate,2019-01-09T16:36:43-03:00*
G04 #@! TF.ProjectId,PCB_A,5043425F412E6B696361645F70636200,rev?*
G04 #@! TF.SameCoordinates,Original*
G04 #@! TF.FileFunction,Soldermask,Top*
G04 #@! TF.FilePolarity,Negative*
%FSLAX46Y46*%
G04 Gerber Fmt 4.6, Leading zero omitted, Abs format (unit mm)*
G04 Created by KiCad (PCBNEW (5.0.0)) date 01/09/19 16:36:43*
%MOMM*%
%LPD*%
G01*
G04 APERTURE LIST*
%ADD10C,0.100000*%
G04 APERTURE END LIST*
D10*
G36*
X7104183Y-24226900D02*
X7206901Y-24269448D01*
X7231574Y-24279668D01*
X7346224Y-24356274D01*
X7443726Y-24453776D01*
X7450231Y-24463512D01*
X7520332Y-24568426D01*
X7573100Y-24695817D01*
X7600000Y-24831055D01*
X7600000Y-24968945D01*
X7573100Y-25104183D01*
X7520332Y-25231574D01*
X7443725Y-25346225D01*
X7346225Y-25443725D01*
X7231574Y-25520332D01*
X7104183Y-25573100D01*
X6968945Y-25600000D01*
X6831055Y-25600000D01*
X6695817Y-25573100D01*
X6568426Y-25520332D01*
X6453775Y-25443725D01*
X6356275Y-25346225D01*
X6279668Y-25231574D01*
X6226900Y-25104183D01*
X6200000Y-24968945D01*
X6200000Y-24831055D01*
X6226900Y-24695817D01*
X6279668Y-24568426D01*
X6349769Y-24463512D01*
X6356274Y-24453776D01*
X6453776Y-24356274D01*
X6568426Y-24279668D01*
X6593099Y-24269448D01*
X6695817Y-24226900D01*
X6831055Y-24200000D01*
X6968945Y-24200000D01*
X7104183Y-24226900D01*
X7104183Y-24226900D01*
G37*
G36*
X5122729Y-22408332D02*
X5303115Y-22444212D01*
X5494203Y-22523364D01*
X5666177Y-22638273D01*
X5812430Y-22784526D01*
X5927339Y-22956500D01*
X6006491Y-23147588D01*
X6046841Y-23350446D01*
X6046841Y-23557278D01*
X6006491Y-23760136D01*
X5927339Y-23951224D01*
X5812430Y-24123198D01*
X5666177Y-24269451D01*
X5494203Y-24384360D01*
X5303115Y-24463512D01*
X5122729Y-24499392D01*
X5100258Y-24503862D01*
X4893424Y-24503862D01*
X4870953Y-24499392D01*
X4690567Y-24463512D01*
X4499479Y-24384360D01*
X4327505Y-24269451D01*
X4181252Y-24123198D01*
X4066343Y-23951224D01*
X3987191Y-23760136D01*
X3946841Y-23557278D01*
X3946841Y-23350446D01*
X3987191Y-23147588D01*
X4066343Y-22956500D01*
X4181252Y-22784526D01*
X4327505Y-22638273D01*
X4499479Y-22523364D01*
X4690567Y-22444212D01*
X4870953Y-22408332D01*
X4893424Y-22403862D01*
X5100258Y-22403862D01*
X5122729Y-22408332D01*
X5122729Y-22408332D01*
G37*
G36*
X962574Y-17026817D02*
X1563135Y-17275577D01*
X2103630Y-17636725D01*
X2563275Y-18096370D01*
X2924423Y-18636865D01*
X3173183Y-19237426D01*
X3300000Y-19874977D01*
X3300000Y-20525023D01*
X3173183Y-21162574D01*
X2924423Y-21763135D01*
X2563275Y-22303630D01*
X2103630Y-22763275D01*
X1563135Y-23124423D01*
X962574Y-23373183D01*
X325023Y-23500000D01*
X-325023Y-23500000D01*
X-962574Y-23373183D01*
X-1563135Y-23124423D01*
X-2103630Y-22763275D01*
X-2563275Y-22303630D01*
X-2924423Y-21763135D01*
X-3173183Y-21162574D01*
X-3300000Y-20525023D01*
X-3300000Y-19874977D01*
X-3173183Y-19237426D01*
X-2924423Y-18636865D01*
X-2563275Y-18096370D01*
X-2103630Y-17636725D01*
X-1563135Y-17275577D01*
X-962574Y-17026817D01*
X-325023Y-16900000D01*
X325023Y-16900000D01*
X962574Y-17026817D01*
X962574Y-17026817D01*
G37*
G36*
X7104183Y-21626900D02*
X7231574Y-21679668D01*
X7346225Y-21756275D01*
X7443725Y-21853775D01*
X7520332Y-21968426D01*
X7573100Y-22095817D01*
X7600000Y-22231055D01*
X7600000Y-22368945D01*
X7573100Y-22504183D01*
X7520332Y-22631574D01*
X7443725Y-22746225D01*
X7346225Y-22843725D01*
X7231574Y-22920332D01*
X7104183Y-22973100D01*
X6968945Y-23000000D01*
X6831055Y-23000000D01*
X6695817Y-22973100D01*
X6568426Y-22920332D01*
X6453775Y-22843725D01*
X6356275Y-22746225D01*
X6279668Y-22631574D01*
X6226900Y-22504183D01*
X6200000Y-22368945D01*
X6200000Y-22231055D01*
X6226900Y-22095817D01*
X6279668Y-21968426D01*
X6356275Y-21853775D01*
X6453775Y-21756275D01*
X6568426Y-21679668D01*
X6695817Y-21626900D01*
X6831055Y-21600000D01*
X6968945Y-21600000D01*
X7104183Y-21626900D01*
X7104183Y-21626900D01*
G37*
G36*
X5125548Y-19871458D02*
X5202677Y-19879055D01*
X5334628Y-19919082D01*
X5400604Y-19939095D01*
X5583013Y-20036595D01*
X5742895Y-20167808D01*
X5874108Y-20327690D01*
X5971608Y-20510099D01*
X5971608Y-20510100D01*
X6031648Y-20708026D01*
X6051921Y-20913862D01*
X6031648Y-21119698D01*
X5991621Y-21251649D01*
X5971608Y-21317625D01*
X5874108Y-21500034D01*
X5742895Y-21659916D01*
X5583013Y-21791129D01*
X5400604Y-21888629D01*
X5334628Y-21908642D01*
X5202677Y-21948669D01*
X5125548Y-21956265D01*
X5048421Y-21963862D01*
X4945261Y-21963862D01*
X4868134Y-21956265D01*
X4791005Y-21948669D01*
X4659054Y-21908642D01*
X4593078Y-21888629D01*
X4410669Y-21791129D01*
X4250787Y-21659916D01*
X4119574Y-21500034D01*
X4022074Y-21317625D01*
X4002061Y-21251649D01*
X3962034Y-21119698D01*
X3941761Y-20913862D01*
X3962034Y-20708026D01*
X4022074Y-20510100D01*
X4022074Y-20510099D01*
X4119574Y-20327690D01*
X4250787Y-20167808D01*
X4410669Y-20036595D01*
X4593078Y-19939095D01*
X4659054Y-19919082D01*
X4791005Y-19879055D01*
X4868134Y-19871458D01*
X4945261Y-19863862D01*
X5048421Y-19863862D01*
X5125548Y-19871458D01*
X5125548Y-19871458D01*
G37*
G36*
X12156574Y-11571748D02*
X12191168Y-11582242D01*
X12223041Y-11599278D01*
X12250987Y-11622213D01*
X12273922Y-11650159D01*
X12290958Y-11682032D01*
X12301452Y-11716626D01*
X12305600Y-11758741D01*
X12305600Y-12366459D01*
X12301452Y-12408574D01*
X12290958Y-12443168D01*
X12269813Y-12482728D01*
X12265843Y-12488669D01*
X12256464Y-12511308D01*
X12251683Y-12535341D01*
X12251681Y-12559845D01*
X12256460Y-12583879D01*
X12265837Y-12606518D01*
X12269805Y-12612458D01*
X12290958Y-12652032D01*
X12301452Y-12686626D01*
X12305600Y-12728741D01*
X12305600Y-13336459D01*
X12301452Y-13378574D01*
X12290958Y-13413168D01*
X12273922Y-13445041D01*
X12250987Y-13472987D01*
X12223041Y-13495922D01*
X12191168Y-13512958D01*
X12156574Y-13523452D01*
X12114459Y-13527600D01*
X11472419Y-13527600D01*
X11448033Y-13530002D01*
X11424584Y-13537115D01*
X11402973Y-13548666D01*
X11384031Y-13564212D01*
X11368485Y-13583154D01*
X11356934Y-13604765D01*
X11349821Y-13628214D01*
X11347419Y-13652600D01*
X11349821Y-13676986D01*
X11356934Y-13700435D01*
X11368485Y-13722046D01*
X11375794Y-13731901D01*
X11390122Y-13749359D01*
X11407158Y-13781232D01*
X11417652Y-13815826D01*
X11421800Y-13857941D01*
X11421800Y-14465659D01*
X11417652Y-14507774D01*
X11407158Y-14542368D01*
X11386013Y-14581928D01*
X11382043Y-14587869D01*
X11372664Y-14610508D01*
X11367883Y-14634541D01*
X11367881Y-14659045D01*
X11372660Y-14683079D01*
X11382037Y-14705718D01*
X11386003Y-14711654D01*
X11412689Y-14761580D01*
X11426303Y-14781954D01*
X11443630Y-14799281D01*
X11464005Y-14812895D01*
X11486644Y-14822273D01*
X11510677Y-14827053D01*
X11535181Y-14827053D01*
X11559215Y-14822272D01*
X11581854Y-14812895D01*
X11602228Y-14799281D01*
X11619555Y-14781954D01*
X11636411Y-14761415D01*
X11664359Y-14738478D01*
X11696232Y-14721442D01*
X11730826Y-14710948D01*
X11772941Y-14706800D01*
X12430659Y-14706800D01*
X12472774Y-14710948D01*
X12507368Y-14721442D01*
X12539241Y-14738478D01*
X12567187Y-14761413D01*
X12590122Y-14789359D01*
X12607158Y-14821232D01*
X12617652Y-14855826D01*
X12621800Y-14897941D01*
X12621800Y-15505659D01*
X12617652Y-15547774D01*
X12607158Y-15582368D01*
X12586013Y-15621928D01*
X12582043Y-15627869D01*
X12572664Y-15650508D01*
X12567883Y-15674541D01*
X12567881Y-15699045D01*
X12572660Y-15723079D01*
X12582037Y-15745718D01*
X12586003Y-15751654D01*
X12591928Y-15762739D01*
X12605542Y-15783113D01*
X12622869Y-15800440D01*
X12643244Y-15814054D01*
X12665883Y-15823432D01*
X12689916Y-15828212D01*
X12714420Y-15828212D01*
X12738454Y-15823431D01*
X12761093Y-15814054D01*
X12781467Y-15800440D01*
X12798794Y-15783113D01*
X12812408Y-15762738D01*
X12820883Y-15742277D01*
X12838478Y-15709359D01*
X12861413Y-15681413D01*
X12889359Y-15658478D01*
X12921232Y-15641442D01*
X12955826Y-15630948D01*
X12997941Y-15626800D01*
X13605659Y-15626800D01*
X13647774Y-15630948D01*
X13682368Y-15641442D01*
X13721928Y-15662587D01*
X13727869Y-15666557D01*
X13750508Y-15675936D01*
X13774541Y-15680717D01*
X13799045Y-15680719D01*
X13823079Y-15675940D01*
X13845718Y-15666563D01*
X13851658Y-15662595D01*
X13891232Y-15641442D01*
X13925826Y-15630948D01*
X13967941Y-15626800D01*
X14575659Y-15626800D01*
X14617774Y-15630948D01*
X14652368Y-15641442D01*
X14684241Y-15658478D01*
X14712187Y-15681413D01*
X14735122Y-15709359D01*
X14752158Y-15741232D01*
X14762652Y-15775826D01*
X14766800Y-15817941D01*
X14766800Y-16475659D01*
X14762652Y-16517774D01*
X14752158Y-16552368D01*
X14735122Y-16584241D01*
X14712187Y-16612187D01*
X14684241Y-16635122D01*
X14652368Y-16652158D01*
X14617774Y-16662652D01*
X14575659Y-16666800D01*
X13967941Y-16666800D01*
X13925826Y-16662652D01*
X13891232Y-16652158D01*
X13851672Y-16631013D01*
X13845731Y-16627043D01*
X13823092Y-16617664D01*
X13799059Y-16612883D01*
X13774555Y-16612881D01*
X13750521Y-16617660D01*
X13727882Y-16627037D01*
X13721942Y-16631005D01*
X13682368Y-16652158D01*
X13647774Y-16662652D01*
X13605659Y-16666800D01*
X12997941Y-16666800D01*
X12955826Y-16662652D01*
X12921232Y-16652158D01*
X12889359Y-16635122D01*
X12861413Y-16612187D01*
X12838481Y-16584245D01*
X12824541Y-16558164D01*
X12810927Y-16537789D01*
X12793600Y-16520462D01*
X12773225Y-16506848D01*
X12750586Y-16497471D01*
X12726553Y-16492690D01*
X12702049Y-16492690D01*
X12678015Y-16497470D01*
X12655376Y-16506847D01*
X12635001Y-16520461D01*
X12617674Y-16537788D01*
X12604059Y-16558164D01*
X12590119Y-16584245D01*
X12567187Y-16612187D01*
X12539241Y-16635122D01*
X12507368Y-16652158D01*
X12472774Y-16662652D01*
X12430659Y-16666800D01*
X11772941Y-16666800D01*
X11730826Y-16662652D01*
X11696232Y-16652158D01*
X11664359Y-16635122D01*
X11636413Y-16612187D01*
X11624071Y-16597148D01*
X11606744Y-16579821D01*
X11586369Y-16566208D01*
X11563730Y-16556830D01*
X11539696Y-16552050D01*
X11515192Y-16552050D01*
X11491159Y-16556831D01*
X11468520Y-16566208D01*
X11448145Y-16579822D01*
X11430818Y-16597149D01*
X11417205Y-16617524D01*
X11407827Y-16640162D01*
X11407157Y-16642370D01*
X11386013Y-16681928D01*
X11382043Y-16687869D01*
X11372664Y-16710508D01*
X11367883Y-16734541D01*
X11367881Y-16759045D01*
X11372660Y-16783079D01*
X11382037Y-16805718D01*
X11386005Y-16811658D01*
X11407158Y-16851232D01*
X11417652Y-16885826D01*
X11421800Y-16927941D01*
X11421800Y-17535659D01*
X11417652Y-17577774D01*
X11407158Y-17612368D01*
X11390122Y-17644241D01*
X11367187Y-17672187D01*
X11363547Y-17675174D01*
X11346220Y-17692501D01*
X11332606Y-17712876D01*
X11323229Y-17735515D01*
X11318449Y-17759549D01*
X11318449Y-17784053D01*
X11323230Y-17808086D01*
X11332607Y-17830725D01*
X11346221Y-17851100D01*
X11363548Y-17868427D01*
X11383923Y-17882041D01*
X11406562Y-17891418D01*
X11442847Y-17896800D01*
X11601800Y-17896800D01*
X11601800Y-18721800D01*
X11604202Y-18746186D01*
X11611315Y-18769635D01*
X11622866Y-18791246D01*
X11638412Y-18810188D01*
X11657354Y-18825734D01*
X11678965Y-18837285D01*
X11702414Y-18844398D01*
X11726800Y-18846800D01*
X13101800Y-18846800D01*
X13101800Y-21446800D01*
X11651800Y-21446800D01*
X11651800Y-19471800D01*
X11649398Y-19447414D01*
X11642285Y-19423965D01*
X11630734Y-19402354D01*
X11615188Y-19383412D01*
X11596246Y-19367866D01*
X11574635Y-19356315D01*
X11551186Y-19349202D01*
X11526800Y-19346800D01*
X10276800Y-19346800D01*
X10252414Y-19349202D01*
X10228965Y-19356315D01*
X10207354Y-19367866D01*
X10188412Y-19383412D01*
X10172866Y-19402354D01*
X10161315Y-19423965D01*
X10154202Y-19447414D01*
X10151800Y-19471800D01*
X10151800Y-21446800D01*
X8701800Y-21446800D01*
X8701800Y-18846800D01*
X10076800Y-18846800D01*
X10101186Y-18844398D01*
X10124635Y-18837285D01*
X10146246Y-18825734D01*
X10165188Y-18810188D01*
X10180734Y-18791246D01*
X10192285Y-18769635D01*
X10199398Y-18746186D01*
X10201800Y-18721800D01*
X10201800Y-17896800D01*
X10360753Y-17896800D01*
X10385139Y-17894398D01*
X10408588Y-17887285D01*
X10430199Y-17875734D01*
X10449141Y-17860188D01*
X10464687Y-17841246D01*
X10476238Y-17819635D01*
X10483351Y-17796186D01*
X10485753Y-17771800D01*
X10483351Y-17747414D01*
X10476238Y-17723965D01*
X10464687Y-17702354D01*
X10440053Y-17675174D01*
X10436413Y-17672187D01*
X10413478Y-17644241D01*
X10396442Y-17612368D01*
X10385948Y-17577774D01*
X10381800Y-17535659D01*
X10381800Y-16927941D01*
X10385948Y-16885826D01*
X10396442Y-16851232D01*
X10417587Y-16811672D01*
X10421557Y-16805731D01*
X10430936Y-16783092D01*
X10435717Y-16759059D01*
X10435719Y-16734555D01*
X10430940Y-16710521D01*
X10421563Y-16687882D01*
X10417595Y-16681942D01*
X10396442Y-16642368D01*
X10385948Y-16607774D01*
X10381800Y-16565659D01*
X10381800Y-15957941D01*
X10385948Y-15915826D01*
X10396442Y-15881232D01*
X10413478Y-15849359D01*
X10436413Y-15821413D01*
X10470515Y-15793426D01*
X10487842Y-15776098D01*
X10501456Y-15755724D01*
X10510833Y-15733085D01*
X10515613Y-15709051D01*
X10515613Y-15684549D01*
X11287987Y-15684549D01*
X11287987Y-15709053D01*
X11292768Y-15733087D01*
X11302145Y-15755726D01*
X11315759Y-15776100D01*
X11333085Y-15793426D01*
X11367187Y-15821413D01*
X11379529Y-15836452D01*
X11396856Y-15853779D01*
X11417231Y-15867392D01*
X11439870Y-15876770D01*
X11463904Y-15881550D01*
X11488408Y-15881550D01*
X11512441Y-15876769D01*
X11535080Y-15867392D01*
X11555455Y-15853778D01*
X11572782Y-15836451D01*
X11586395Y-15816076D01*
X11595773Y-15793438D01*
X11596443Y-15791230D01*
X11617587Y-15751672D01*
X11621557Y-15745731D01*
X11630936Y-15723092D01*
X11635717Y-15699059D01*
X11635719Y-15674555D01*
X11630940Y-15650521D01*
X11621563Y-15627882D01*
X11617597Y-15621946D01*
X11590911Y-15572020D01*
X11577297Y-15551646D01*
X11559970Y-15534319D01*
X11539595Y-15520705D01*
X11516956Y-15511327D01*
X11492923Y-15506547D01*
X11468419Y-15506547D01*
X11444385Y-15511328D01*
X11421746Y-15520705D01*
X11401372Y-15534319D01*
X11384045Y-15551646D01*
X11367189Y-15572185D01*
X11333085Y-15600174D01*
X11315758Y-15617502D01*
X11302144Y-15637876D01*
X11292767Y-15660515D01*
X11287987Y-15684549D01*
X10515613Y-15684549D01*
X10515613Y-15684547D01*
X10510832Y-15660513D01*
X10501455Y-15637874D01*
X10487841Y-15617500D01*
X10470515Y-15600174D01*
X10427634Y-15564982D01*
X10407259Y-15551368D01*
X10384620Y-15541991D01*
X10360587Y-15537210D01*
X10336083Y-15537210D01*
X10312049Y-15541990D01*
X10289410Y-15551367D01*
X10269035Y-15564981D01*
X10251708Y-15582308D01*
X10227187Y-15612187D01*
X10199241Y-15635122D01*
X10167368Y-15652158D01*
X10132774Y-15662652D01*
X10090659Y-15666800D01*
X9482941Y-15666800D01*
X9440826Y-15662652D01*
X9406232Y-15652158D01*
X9366672Y-15631013D01*
X9360731Y-15627043D01*
X9338092Y-15617664D01*
X9314059Y-15612883D01*
X9289555Y-15612881D01*
X9265521Y-15617660D01*
X9242882Y-15627037D01*
X9236942Y-15631005D01*
X9197368Y-15652158D01*
X9162774Y-15662652D01*
X9120659Y-15666800D01*
X8512941Y-15666800D01*
X8470826Y-15662652D01*
X8436232Y-15652158D01*
X8404359Y-15635122D01*
X8376413Y-15612187D01*
X8353478Y-15584241D01*
X8336442Y-15552368D01*
X8325948Y-15517774D01*
X8321800Y-15475659D01*
X8321800Y-14817941D01*
X8325948Y-14775826D01*
X8336442Y-14741232D01*
X8353478Y-14709359D01*
X8376413Y-14681413D01*
X8404359Y-14658478D01*
X8436232Y-14641442D01*
X8470826Y-14630948D01*
X8512941Y-14626800D01*
X9120659Y-14626800D01*
X9162774Y-14630948D01*
X9197368Y-14641442D01*
X9236928Y-14662587D01*
X9242869Y-14666557D01*
X9265508Y-14675936D01*
X9289541Y-14680717D01*
X9314045Y-14680719D01*
X9338079Y-14675940D01*
X9360718Y-14666563D01*
X9366658Y-14662595D01*
X9406232Y-14641442D01*
X9440826Y-14630948D01*
X9482941Y-14626800D01*
X10090659Y-14626800D01*
X10132774Y-14630948D01*
X10167368Y-14641442D01*
X10209562Y-14663995D01*
X10210506Y-14664626D01*
X10233141Y-14674012D01*
X10257173Y-14678801D01*
X10281677Y-14678809D01*
X10305713Y-14674037D01*
X10328355Y-14664668D01*
X10348734Y-14651061D01*
X10366067Y-14633740D01*
X10379688Y-14613370D01*
X10389074Y-14590735D01*
X10393863Y-14566703D01*
X10393871Y-14542199D01*
X10389088Y-14518125D01*
X10385948Y-14507773D01*
X10381800Y-14465659D01*
X10381800Y-13857941D01*
X10385948Y-13815826D01*
X10396442Y-13781232D01*
X10413478Y-13749359D01*
X10436413Y-13721413D01*
X10464359Y-13698478D01*
X10496232Y-13681442D01*
X10530826Y-13670948D01*
X10572941Y-13666800D01*
X11214981Y-13666800D01*
X11239367Y-13664398D01*
X11262816Y-13657285D01*
X11284427Y-13645734D01*
X11303369Y-13630188D01*
X11318915Y-13611246D01*
X11330466Y-13589635D01*
X11337579Y-13566186D01*
X11339981Y-13541800D01*
X11337579Y-13517414D01*
X11330466Y-13493965D01*
X11318915Y-13472354D01*
X11311606Y-13462499D01*
X11297278Y-13445041D01*
X11280242Y-13413168D01*
X11269748Y-13378574D01*
X11265600Y-13336459D01*
X11265600Y-12728741D01*
X11269748Y-12686626D01*
X11280242Y-12652032D01*
X11301387Y-12612472D01*
X11305357Y-12606531D01*
X11314736Y-12583892D01*
X11319517Y-12559859D01*
X11319519Y-12535355D01*
X11314740Y-12511321D01*
X11305363Y-12488682D01*
X11301395Y-12482742D01*
X11280242Y-12443168D01*
X11269748Y-12408574D01*
X11265600Y-12366459D01*
X11265600Y-11758741D01*
X11269748Y-11716626D01*
X11280242Y-11682032D01*
X11297278Y-11650159D01*
X11320213Y-11622213D01*
X11348159Y-11599278D01*
X11380032Y-11582242D01*
X11414626Y-11571748D01*
X11456741Y-11567600D01*
X12114459Y-11567600D01*
X12156574Y-11571748D01*
X12156574Y-11571748D01*
G37*
G36*
X7104183Y-18726900D02*
X7226639Y-18777624D01*
X7231574Y-18779668D01*
X7346224Y-18856274D01*
X7443726Y-18953776D01*
X7447907Y-18960034D01*
X7520332Y-19068426D01*
X7573100Y-19195817D01*
X7600000Y-19331055D01*
X7600000Y-19468945D01*
X7573100Y-19604183D01*
X7520332Y-19731574D01*
X7443725Y-19846225D01*
X7346225Y-19943725D01*
X7231574Y-20020332D01*
X7104183Y-20073100D01*
X6968945Y-20100000D01*
X6831055Y-20100000D01*
X6695817Y-20073100D01*
X6568426Y-20020332D01*
X6453775Y-19943725D01*
X6356275Y-19846225D01*
X6279668Y-19731574D01*
X6226900Y-19604183D01*
X6200000Y-19468945D01*
X6200000Y-19331055D01*
X6226900Y-19195817D01*
X6279668Y-19068426D01*
X6352093Y-18960034D01*
X6356274Y-18953776D01*
X6453776Y-18856274D01*
X6568426Y-18779668D01*
X6573361Y-18777624D01*
X6695817Y-18726900D01*
X6831055Y-18700000D01*
X6968945Y-18700000D01*
X7104183Y-18726900D01*
X7104183Y-18726900D01*
G37*
G36*
X5113146Y-17330237D02*
X5202677Y-17339055D01*
X5304689Y-17370000D01*
X5400604Y-17399095D01*
X5583013Y-17496595D01*
X5742895Y-17627808D01*
X5874108Y-17787690D01*
X5971608Y-17970099D01*
X5971608Y-17970100D01*
X6031648Y-18168026D01*
X6051921Y-18373862D01*
X6031648Y-18579698D01*
X5995155Y-18700000D01*
X5971608Y-18777625D01*
X5874108Y-18960034D01*
X5742895Y-19119916D01*
X5583013Y-19251129D01*
X5400604Y-19348629D01*
X5375266Y-19356315D01*
X5202677Y-19408669D01*
X5125548Y-19416266D01*
X5048421Y-19423862D01*
X4945261Y-19423862D01*
X4868134Y-19416266D01*
X4791005Y-19408669D01*
X4618416Y-19356315D01*
X4593078Y-19348629D01*
X4410669Y-19251129D01*
X4250787Y-19119916D01*
X4119574Y-18960034D01*
X4022074Y-18777625D01*
X3998527Y-18700000D01*
X3962034Y-18579698D01*
X3941761Y-18373862D01*
X3962034Y-18168026D01*
X4022074Y-17970100D01*
X4022074Y-17970099D01*
X4119574Y-17787690D01*
X4250787Y-17627808D01*
X4410669Y-17496595D01*
X4593078Y-17399095D01*
X4688993Y-17370000D01*
X4791005Y-17339055D01*
X4880536Y-17330237D01*
X4945261Y-17323862D01*
X5048421Y-17323862D01*
X5113146Y-17330237D01*
X5113146Y-17330237D01*
G37*
G36*
X-7964026Y-16334148D02*
X-7929432Y-16344642D01*
X-7889872Y-16365787D01*
X-7883931Y-16369757D01*
X-7861292Y-16379136D01*
X-7837259Y-16383917D01*
X-7812755Y-16383919D01*
X-7788721Y-16379140D01*
X-7766082Y-16369763D01*
X-7760142Y-16365795D01*
X-7720568Y-16344642D01*
X-7685974Y-16334148D01*
X-7643859Y-16330000D01*
X-7036141Y-16330000D01*
X-6994026Y-16334148D01*
X-6959432Y-16344642D01*
X-6927559Y-16361678D01*
X-6899613Y-16384613D01*
X-6876678Y-16412559D01*
X-6859642Y-16444432D01*
X-6849148Y-16479026D01*
X-6845000Y-16521141D01*
X-6845000Y-17178859D01*
X-6849148Y-17220974D01*
X-6859642Y-17255568D01*
X-6876678Y-17287441D01*
X-6899613Y-17315387D01*
X-6927559Y-17338322D01*
X-6959432Y-17355358D01*
X-6994026Y-17365852D01*
X-7036141Y-17370000D01*
X-7643859Y-17370000D01*
X-7685974Y-17365852D01*
X-7720568Y-17355358D01*
X-7760128Y-17334213D01*
X-7766069Y-17330243D01*
X-7788708Y-17320864D01*
X-7812741Y-17316083D01*
X-7837245Y-17316081D01*
X-7861279Y-17320860D01*
X-7883918Y-17330237D01*
X-7889858Y-17334205D01*
X-7929432Y-17355358D01*
X-7964026Y-17365852D01*
X-8006141Y-17370000D01*
X-8613859Y-17370000D01*
X-8655974Y-17365852D01*
X-8690568Y-17355358D01*
X-8722441Y-17338322D01*
X-8750387Y-17315387D01*
X-8773322Y-17287441D01*
X-8790358Y-17255568D01*
X-8800852Y-17220974D01*
X-8805000Y-17178859D01*
X-8805000Y-16521141D01*
X-8800852Y-16479026D01*
X-8790358Y-16444432D01*
X-8773322Y-16412559D01*
X-8750387Y-16384613D01*
X-8722441Y-16361678D01*
X-8690568Y-16344642D01*
X-8655974Y-16334148D01*
X-8613859Y-16330000D01*
X-8006141Y-16330000D01*
X-7964026Y-16334148D01*
X-7964026Y-16334148D01*
G37*
G36*
X-8196470Y-14230877D02*
X-8144990Y-14246493D01*
X-8097558Y-14271846D01*
X-8055973Y-14305973D01*
X-8021846Y-14347558D01*
X-7996493Y-14394990D01*
X-7980877Y-14446470D01*
X-7975000Y-14506140D01*
X-7975000Y-15293860D01*
X-7980877Y-15353530D01*
X-7996493Y-15405010D01*
X-8021846Y-15452442D01*
X-8055973Y-15494027D01*
X-8097558Y-15528154D01*
X-8144990Y-15553507D01*
X-8196470Y-15569123D01*
X-8256140Y-15575000D01*
X-9143860Y-15575000D01*
X-9203530Y-15569123D01*
X-9255010Y-15553507D01*
X-9302442Y-15528154D01*
X-9344027Y-15494027D01*
X-9378154Y-15452442D01*
X-9403507Y-15405010D01*
X-9419123Y-15353530D01*
X-9425000Y-15293860D01*
X-9425000Y-14506140D01*
X-9419123Y-14446470D01*
X-9403507Y-14394990D01*
X-9378154Y-14347558D01*
X-9344027Y-14305973D01*
X-9302442Y-14271846D01*
X-9255010Y-14246493D01*
X-9203530Y-14230877D01*
X-9143860Y-14225000D01*
X-8256140Y-14225000D01*
X-8196470Y-14230877D01*
X-8196470Y-14230877D01*
G37*
G36*
X-6446470Y-14230877D02*
X-6394990Y-14246493D01*
X-6347558Y-14271846D01*
X-6305973Y-14305973D01*
X-6271846Y-14347558D01*
X-6246493Y-14394990D01*
X-6230877Y-14446470D01*
X-6225000Y-14506140D01*
X-6225000Y-15293860D01*
X-6230877Y-15353530D01*
X-6246493Y-15405010D01*
X-6271846Y-15452442D01*
X-6305973Y-15494027D01*
X-6347558Y-15528154D01*
X-6394990Y-15553507D01*
X-6446470Y-15569123D01*
X-6506140Y-15575000D01*
X-7393860Y-15575000D01*
X-7453530Y-15569123D01*
X-7505010Y-15553507D01*
X-7552442Y-15528154D01*
X-7594027Y-15494027D01*
X-7628154Y-15452442D01*
X-7653507Y-15405010D01*
X-7669123Y-15353530D01*
X-7675000Y-15293860D01*
X-7675000Y-14506140D01*
X-7669123Y-14446470D01*
X-7653507Y-14394990D01*
X-7628154Y-14347558D01*
X-7594027Y-14305973D01*
X-7552442Y-14271846D01*
X-7505010Y-14246493D01*
X-7453530Y-14230877D01*
X-7393860Y-14225000D01*
X-6506140Y-14225000D01*
X-6446470Y-14230877D01*
X-6446470Y-14230877D01*
G37*
G36*
X-12096470Y-14205877D02*
X-12044990Y-14221493D01*
X-11997558Y-14246846D01*
X-11955973Y-14280973D01*
X-11921846Y-14322558D01*
X-11896493Y-14369990D01*
X-11880877Y-14421470D01*
X-11875000Y-14481140D01*
X-11875000Y-15268860D01*
X-11880877Y-15328530D01*
X-11896493Y-15380010D01*
X-11921846Y-15427442D01*
X-11955973Y-15469027D01*
X-11997558Y-15503154D01*
X-12044990Y-15528507D01*
X-12096470Y-15544123D01*
X-12156140Y-15550000D01*
X-13043860Y-15550000D01*
X-13103530Y-15544123D01*
X-13155010Y-15528507D01*
X-13202442Y-15503154D01*
X-13244027Y-15469027D01*
X-13278154Y-15427442D01*
X-13303507Y-15380010D01*
X-13319123Y-15328530D01*
X-13325000Y-15268860D01*
X-13325000Y-14481140D01*
X-13319123Y-14421470D01*
X-13303507Y-14369990D01*
X-13278154Y-14322558D01*
X-13244027Y-14280973D01*
X-13202442Y-14246846D01*
X-13155010Y-14221493D01*
X-13103530Y-14205877D01*
X-13043860Y-14200000D01*
X-12156140Y-14200000D01*
X-12096470Y-14205877D01*
X-12096470Y-14205877D01*
G37*
G36*
X-10346470Y-14205877D02*
X-10294990Y-14221493D01*
X-10247558Y-14246846D01*
X-10205973Y-14280973D01*
X-10171846Y-14322558D01*
X-10146493Y-14369990D01*
X-10130877Y-14421470D01*
X-10125000Y-14481140D01*
X-10125000Y-15268860D01*
X-10130877Y-15328530D01*
X-10146493Y-15380010D01*
X-10171846Y-15427442D01*
X-10205973Y-15469027D01*
X-10247558Y-15503154D01*
X-10294990Y-15528507D01*
X-10346470Y-15544123D01*
X-10406140Y-15550000D01*
X-11293860Y-15550000D01*
X-11353530Y-15544123D01*
X-11405010Y-15528507D01*
X-11452442Y-15503154D01*
X-11494027Y-15469027D01*
X-11528154Y-15427442D01*
X-11553507Y-15380010D01*
X-11569123Y-15328530D01*
X-11575000Y-15268860D01*
X-11575000Y-14481140D01*
X-11569123Y-14421470D01*
X-11553507Y-14369990D01*
X-11528154Y-14322558D01*
X-11494027Y-14280973D01*
X-11452442Y-14246846D01*
X-11405010Y-14221493D01*
X-11353530Y-14205877D01*
X-11293860Y-14200000D01*
X-10406140Y-14200000D01*
X-10346470Y-14205877D01*
X-10346470Y-14205877D01*
G37*
G36*
X-4371470Y-12980877D02*
X-4319990Y-12996493D01*
X-4272558Y-13021846D01*
X-4230973Y-13055973D01*
X-4196846Y-13097558D01*
X-4171493Y-13144990D01*
X-4155877Y-13196470D01*
X-4150000Y-13256140D01*
X-4150000Y-14043860D01*
X-4155877Y-14103530D01*
X-4171493Y-14155010D01*
X-4196846Y-14202442D01*
X-4230973Y-14244027D01*
X-4272558Y-14278154D01*
X-4319990Y-14303507D01*
X-4371470Y-14319123D01*
X-4431140Y-14325000D01*
X-5318860Y-14325000D01*
X-5378530Y-14319123D01*
X-5430010Y-14303507D01*
X-5477442Y-14278154D01*
X-5519027Y-14244027D01*
X-5553154Y-14202442D01*
X-5578507Y-14155010D01*
X-5594123Y-14103530D01*
X-5600000Y-14043860D01*
X-5600000Y-13256140D01*
X-5594123Y-13196470D01*
X-5578507Y-13144990D01*
X-5553154Y-13097558D01*
X-5519027Y-13055973D01*
X-5477442Y-13021846D01*
X-5430010Y-12996493D01*
X-5378530Y-12980877D01*
X-5318860Y-12975000D01*
X-4431140Y-12975000D01*
X-4371470Y-12980877D01*
X-4371470Y-12980877D01*
G37*
G36*
X-2621470Y-12980877D02*
X-2569990Y-12996493D01*
X-2522558Y-13021846D01*
X-2480973Y-13055973D01*
X-2446846Y-13097558D01*
X-2421493Y-13144990D01*
X-2405877Y-13196470D01*
X-2400000Y-13256140D01*
X-2400000Y-14043860D01*
X-2405877Y-14103530D01*
X-2421493Y-14155010D01*
X-2446846Y-14202442D01*
X-2480973Y-14244027D01*
X-2522558Y-14278154D01*
X-2569990Y-14303507D01*
X-2621470Y-14319123D01*
X-2681140Y-14325000D01*
X-3568860Y-14325000D01*
X-3628530Y-14319123D01*
X-3680010Y-14303507D01*
X-3727442Y-14278154D01*
X-3769027Y-14244027D01*
X-3803154Y-14202442D01*
X-3828507Y-14155010D01*
X-3844123Y-14103530D01*
X-3850000Y-14043860D01*
X-3850000Y-13256140D01*
X-3844123Y-13196470D01*
X-3828507Y-13144990D01*
X-3803154Y-13097558D01*
X-3769027Y-13055973D01*
X-3727442Y-13021846D01*
X-3680010Y-12996493D01*
X-3628530Y-12980877D01*
X-3568860Y-12975000D01*
X-2681140Y-12975000D01*
X-2621470Y-12980877D01*
X-2621470Y-12980877D01*
G37*
G36*
X2580000Y-13650000D02*
X-1260000Y-13650000D01*
X-1260000Y-11750000D01*
X2580000Y-11750000D01*
X2580000Y-13650000D01*
X2580000Y-13650000D01*
G37*
G36*
X-6310000Y-13650000D02*
X-13960000Y-13650000D01*
X-13960000Y-11750000D01*
X-6310000Y-11750000D01*
X-6310000Y-13650000D01*
X-6310000Y-13650000D01*
G37*
G36*
X-18117088Y-7013123D02*
X-17598418Y-7227963D01*
X-17131628Y-7539862D01*
X-16734662Y-7936828D01*
X-16422763Y-8403618D01*
X-16207923Y-8922288D01*
X-16098400Y-9472898D01*
X-16098400Y-10034302D01*
X-16207923Y-10584912D01*
X-16422763Y-11103582D01*
X-16734662Y-11570372D01*
X-17131628Y-11967338D01*
X-17598418Y-12279237D01*
X-18117088Y-12494077D01*
X-18667698Y-12603600D01*
X-19229102Y-12603600D01*
X-19779712Y-12494077D01*
X-20298382Y-12279237D01*
X-20765172Y-11967338D01*
X-21162138Y-11570372D01*
X-21474037Y-11103582D01*
X-21688877Y-10584912D01*
X-21798400Y-10034302D01*
X-21798400Y-9472898D01*
X-21688877Y-8922288D01*
X-21474037Y-8403618D01*
X-21162138Y-7936828D01*
X-20765172Y-7539862D01*
X-20298382Y-7227963D01*
X-19779712Y-7013123D01*
X-19229102Y-6903600D01*
X-18667698Y-6903600D01*
X-18117088Y-7013123D01*
X-18117088Y-7013123D01*
G37*
G36*
X13475974Y-8224148D02*
X13510568Y-8234642D01*
X13550128Y-8255787D01*
X13556069Y-8259757D01*
X13578708Y-8269136D01*
X13602741Y-8273917D01*
X13627245Y-8273919D01*
X13651279Y-8269140D01*
X13673918Y-8259763D01*
X13679858Y-8255795D01*
X13719432Y-8234642D01*
X13754026Y-8224148D01*
X13796141Y-8220000D01*
X14403859Y-8220000D01*
X14445974Y-8224148D01*
X14480568Y-8234642D01*
X14512441Y-8251678D01*
X14540387Y-8274613D01*
X14563322Y-8302559D01*
X14580358Y-8334432D01*
X14590852Y-8369026D01*
X14595000Y-8411141D01*
X14595000Y-9068859D01*
X14590852Y-9110974D01*
X14580358Y-9145568D01*
X14563322Y-9177441D01*
X14540387Y-9205387D01*
X14512441Y-9228322D01*
X14480568Y-9245358D01*
X14445974Y-9255852D01*
X14403859Y-9260000D01*
X13796141Y-9260000D01*
X13754026Y-9255852D01*
X13719432Y-9245358D01*
X13679872Y-9224213D01*
X13673931Y-9220243D01*
X13651292Y-9210864D01*
X13627259Y-9206083D01*
X13602755Y-9206081D01*
X13578721Y-9210860D01*
X13556082Y-9220237D01*
X13550142Y-9224205D01*
X13510568Y-9245358D01*
X13475974Y-9255852D01*
X13433859Y-9260000D01*
X12826141Y-9260000D01*
X12784026Y-9255852D01*
X12749432Y-9245358D01*
X12717559Y-9228322D01*
X12689610Y-9205384D01*
X12671625Y-9183470D01*
X12654298Y-9166143D01*
X12633923Y-9152529D01*
X12611284Y-9143152D01*
X12587251Y-9138372D01*
X12562746Y-9138372D01*
X12538713Y-9143153D01*
X12516074Y-9152531D01*
X12495700Y-9166145D01*
X12478373Y-9183472D01*
X12464759Y-9203847D01*
X12455382Y-9226486D01*
X12450000Y-9262770D01*
X12450000Y-10835000D01*
X11050000Y-10835000D01*
X11050000Y-8785000D01*
X12510000Y-8785000D01*
X12534386Y-8782598D01*
X12557835Y-8775485D01*
X12579446Y-8763934D01*
X12598388Y-8748388D01*
X12613934Y-8729446D01*
X12625485Y-8707835D01*
X12632598Y-8684386D01*
X12635000Y-8660000D01*
X12635000Y-8411141D01*
X12639148Y-8369026D01*
X12649642Y-8334432D01*
X12666678Y-8302559D01*
X12689613Y-8274613D01*
X12717559Y-8251678D01*
X12749432Y-8234642D01*
X12784026Y-8224148D01*
X12826141Y-8220000D01*
X13433859Y-8220000D01*
X13475974Y-8224148D01*
X13475974Y-8224148D01*
G37*
G36*
X10650000Y-10835000D02*
X9250000Y-10835000D01*
X9250000Y-8785000D01*
X10650000Y-8785000D01*
X10650000Y-10835000D01*
X10650000Y-10835000D01*
G37*
G36*
X-10570000Y-9090000D02*
X-12240000Y-9090000D01*
X-12240000Y-7420000D01*
X-10570000Y-7420000D01*
X-10570000Y-9090000D01*
X-10570000Y-9090000D01*
G37*
G36*
X860000Y-9090000D02*
X-810000Y-9090000D01*
X-810000Y-7420000D01*
X860000Y-7420000D01*
X860000Y-9090000D01*
X860000Y-9090000D01*
G37*
G36*
X21600000Y-8500000D02*
X20200000Y-8500000D01*
X20200000Y-7100000D01*
X21600000Y-7100000D01*
X21600000Y-8500000D01*
X21600000Y-8500000D01*
G37*
G36*
X8710974Y-6164148D02*
X8745568Y-6174642D01*
X8777441Y-6191678D01*
X8805387Y-6214613D01*
X8828322Y-6242559D01*
X8845358Y-6274432D01*
X8855852Y-6309026D01*
X8860000Y-6351141D01*
X8860000Y-6958859D01*
X8855852Y-7000974D01*
X8845358Y-7035568D01*
X8824213Y-7075128D01*
X8820243Y-7081069D01*
X8810864Y-7103708D01*
X8806083Y-7127741D01*
X8806081Y-7152245D01*
X8810860Y-7176279D01*
X8820237Y-7198918D01*
X8824205Y-7204858D01*
X8845358Y-7244432D01*
X8855852Y-7279026D01*
X8860000Y-7321141D01*
X8860000Y-7928859D01*
X8855852Y-7970974D01*
X8845358Y-8005568D01*
X8828322Y-8037441D01*
X8805387Y-8065387D01*
X8777441Y-8088322D01*
X8745568Y-8105358D01*
X8710974Y-8115852D01*
X8668859Y-8120000D01*
X8011141Y-8120000D01*
X7969026Y-8115852D01*
X7934432Y-8105358D01*
X7902559Y-8088322D01*
X7874613Y-8065387D01*
X7851678Y-8037441D01*
X7834642Y-8005568D01*
X7824148Y-7970974D01*
X7820000Y-7928859D01*
X7820000Y-7321141D01*
X7824148Y-7279026D01*
X7834642Y-7244432D01*
X7855787Y-7204872D01*
X7859757Y-7198931D01*
X7869136Y-7176292D01*
X7873917Y-7152259D01*
X7873919Y-7127755D01*
X7869140Y-7103721D01*
X7859763Y-7081082D01*
X7855795Y-7075142D01*
X7834642Y-7035568D01*
X7824148Y-7000974D01*
X7820000Y-6958859D01*
X7820000Y-6351141D01*
X7824148Y-6309026D01*
X7834642Y-6274432D01*
X7851678Y-6242559D01*
X7874613Y-6214613D01*
X7902559Y-6191678D01*
X7934432Y-6174642D01*
X7969026Y-6164148D01*
X8011141Y-6160000D01*
X8668859Y-6160000D01*
X8710974Y-6164148D01*
X8710974Y-6164148D01*
G37*
G36*
X7270974Y-6164148D02*
X7305568Y-6174642D01*
X7337441Y-6191678D01*
X7365387Y-6214613D01*
X7388322Y-6242559D01*
X7405358Y-6274432D01*
X7415852Y-6309026D01*
X7420000Y-6351141D01*
X7420000Y-6958859D01*
X7415852Y-7000974D01*
X7405358Y-7035568D01*
X7384213Y-7075128D01*
X7380243Y-7081069D01*
X7370864Y-7103708D01*
X7366083Y-7127741D01*
X7366081Y-7152245D01*
X7370860Y-7176279D01*
X7380237Y-7198918D01*
X7384205Y-7204858D01*
X7405358Y-7244432D01*
X7415852Y-7279026D01*
X7420000Y-7321141D01*
X7420000Y-7928859D01*
X7415852Y-7970974D01*
X7405358Y-8005568D01*
X7388322Y-8037441D01*
X7365387Y-8065387D01*
X7337441Y-8088322D01*
X7305568Y-8105358D01*
X7270974Y-8115852D01*
X7228859Y-8120000D01*
X6571141Y-8120000D01*
X6529026Y-8115852D01*
X6494432Y-8105358D01*
X6462559Y-8088322D01*
X6434613Y-8065387D01*
X6411678Y-8037441D01*
X6394642Y-8005568D01*
X6384148Y-7970974D01*
X6380000Y-7928859D01*
X6380000Y-7321141D01*
X6384148Y-7279026D01*
X6394642Y-7244432D01*
X6415787Y-7204872D01*
X6419757Y-7198931D01*
X6429136Y-7176292D01*
X6433917Y-7152259D01*
X6433919Y-7127755D01*
X6429140Y-7103721D01*
X6419763Y-7081082D01*
X6415795Y-7075142D01*
X6394642Y-7035568D01*
X6384148Y-7000974D01*
X6380000Y-6958859D01*
X6380000Y-6351141D01*
X6384148Y-6309026D01*
X6394642Y-6274432D01*
X6411678Y-6242559D01*
X6434613Y-6214613D01*
X6462559Y-6191678D01*
X6494432Y-6174642D01*
X6529026Y-6164148D01*
X6571141Y-6160000D01*
X7228859Y-6160000D01*
X7270974Y-6164148D01*
X7270974Y-6164148D01*
G37*
G36*
X13460974Y-6824148D02*
X13495568Y-6834642D01*
X13535128Y-6855787D01*
X13541069Y-6859757D01*
X13563708Y-6869136D01*
X13587741Y-6873917D01*
X13612245Y-6873919D01*
X13636279Y-6869140D01*
X13658918Y-6859763D01*
X13664858Y-6855795D01*
X13704432Y-6834642D01*
X13739026Y-6824148D01*
X13781141Y-6820000D01*
X14388859Y-6820000D01*
X14430974Y-6824148D01*
X14465568Y-6834642D01*
X14497441Y-6851678D01*
X14525387Y-6874613D01*
X14548322Y-6902559D01*
X14565358Y-6934432D01*
X14575852Y-6969026D01*
X14580000Y-7011141D01*
X14580000Y-7668859D01*
X14575852Y-7710974D01*
X14565358Y-7745568D01*
X14548322Y-7777441D01*
X14525387Y-7805387D01*
X14497441Y-7828322D01*
X14465568Y-7845358D01*
X14430974Y-7855852D01*
X14388859Y-7860000D01*
X13781141Y-7860000D01*
X13739026Y-7855852D01*
X13704432Y-7845358D01*
X13664872Y-7824213D01*
X13658931Y-7820243D01*
X13636292Y-7810864D01*
X13612259Y-7806083D01*
X13587755Y-7806081D01*
X13563721Y-7810860D01*
X13541082Y-7820237D01*
X13535142Y-7824205D01*
X13495568Y-7845358D01*
X13460974Y-7855852D01*
X13418859Y-7860000D01*
X12811141Y-7860000D01*
X12769026Y-7855852D01*
X12734432Y-7845358D01*
X12702559Y-7828322D01*
X12674613Y-7805387D01*
X12651678Y-7777441D01*
X12634642Y-7745568D01*
X12624148Y-7710974D01*
X12620000Y-7668859D01*
X12620000Y-7011141D01*
X12624148Y-6969026D01*
X12634642Y-6934432D01*
X12651680Y-6902555D01*
X12658456Y-6894299D01*
X12665419Y-6883879D01*
X12671626Y-6878253D01*
X12674613Y-6874613D01*
X12702559Y-6851678D01*
X12734432Y-6834642D01*
X12769026Y-6824148D01*
X12811141Y-6820000D01*
X13418859Y-6820000D01*
X13460974Y-6824148D01*
X13460974Y-6824148D01*
G37*
G36*
X12450000Y-2515000D02*
X12452402Y-2539386D01*
X12459515Y-2562835D01*
X12471066Y-2584446D01*
X12486612Y-2603388D01*
X12505554Y-2618934D01*
X12527165Y-2630485D01*
X12550614Y-2637598D01*
X12552242Y-2637758D01*
X12552402Y-2639386D01*
X12559515Y-2662835D01*
X12571066Y-2684446D01*
X12586612Y-2703388D01*
X12605554Y-2718934D01*
X12627165Y-2730485D01*
X12650614Y-2737598D01*
X12675000Y-2740000D01*
X13700000Y-2740000D01*
X13700000Y-5440000D01*
X12675000Y-5440000D01*
X12650614Y-5442402D01*
X12627165Y-5449515D01*
X12605554Y-5461066D01*
X12586612Y-5476612D01*
X12571066Y-5495554D01*
X12559515Y-5517165D01*
X12552402Y-5540614D01*
X12552242Y-5542242D01*
X12550614Y-5542402D01*
X12527165Y-5549515D01*
X12505554Y-5561066D01*
X12486612Y-5576612D01*
X12471066Y-5595554D01*
X12459515Y-5617165D01*
X12452402Y-5640614D01*
X12450000Y-5665000D01*
X12450000Y-6690000D01*
X9750000Y-6690000D01*
X9750000Y-5665000D01*
X9747598Y-5640614D01*
X9740485Y-5617165D01*
X9728934Y-5595554D01*
X9713388Y-5576612D01*
X9694446Y-5561066D01*
X9672835Y-5549515D01*
X9649386Y-5542402D01*
X9647758Y-5542242D01*
X9647598Y-5540614D01*
X9640485Y-5517165D01*
X9628934Y-5495554D01*
X9613388Y-5476612D01*
X9594446Y-5461066D01*
X9572835Y-5449515D01*
X9549386Y-5442402D01*
X9525000Y-5440000D01*
X8500000Y-5440000D01*
X8500000Y-2740000D01*
X9525000Y-2740000D01*
X9549386Y-2737598D01*
X9572835Y-2730485D01*
X9594446Y-2718934D01*
X9613388Y-2703388D01*
X9628934Y-2684446D01*
X9640485Y-2662835D01*
X9647598Y-2639386D01*
X9647758Y-2637758D01*
X9649386Y-2637598D01*
X9672835Y-2630485D01*
X9694446Y-2618934D01*
X9713388Y-2603388D01*
X9728934Y-2584446D01*
X9740485Y-2562835D01*
X9747598Y-2539386D01*
X9750000Y-2515000D01*
X9750000Y-1490000D01*
X12450000Y-1490000D01*
X12450000Y-2515000D01*
X12450000Y-2515000D01*
G37*
G36*
X25004183Y-5226900D02*
X25131574Y-5279668D01*
X25246224Y-5356274D01*
X25343726Y-5453776D01*
X25413559Y-5558289D01*
X25420332Y-5568426D01*
X25473100Y-5695817D01*
X25500000Y-5831055D01*
X25500000Y-5968945D01*
X25473100Y-6104183D01*
X25420332Y-6231574D01*
X25359578Y-6322500D01*
X25343725Y-6346225D01*
X25246225Y-6443725D01*
X25131574Y-6520332D01*
X25004183Y-6573100D01*
X24868945Y-6600000D01*
X24731055Y-6600000D01*
X24595817Y-6573100D01*
X24468426Y-6520332D01*
X24353775Y-6443725D01*
X24256275Y-6346225D01*
X24240423Y-6322500D01*
X24179668Y-6231574D01*
X24126900Y-6104183D01*
X24100000Y-5968945D01*
X24100000Y-5831055D01*
X24126900Y-5695817D01*
X24179668Y-5568426D01*
X24186441Y-5558289D01*
X24256274Y-5453776D01*
X24353776Y-5356274D01*
X24468426Y-5279668D01*
X24595817Y-5226900D01*
X24731055Y-5200000D01*
X24868945Y-5200000D01*
X25004183Y-5226900D01*
X25004183Y-5226900D01*
G37*
G36*
X15120974Y-4614148D02*
X15155568Y-4624642D01*
X15187441Y-4641678D01*
X15215387Y-4664613D01*
X15238322Y-4692559D01*
X15255358Y-4724432D01*
X15265852Y-4759026D01*
X15270000Y-4801141D01*
X15270000Y-5408859D01*
X15265852Y-5450974D01*
X15255358Y-5485568D01*
X15234213Y-5525128D01*
X15230243Y-5531069D01*
X15220864Y-5553708D01*
X15216083Y-5577741D01*
X15216081Y-5602245D01*
X15220860Y-5626279D01*
X15230237Y-5648918D01*
X15234205Y-5654858D01*
X15255358Y-5694432D01*
X15265852Y-5729026D01*
X15270000Y-5771141D01*
X15270000Y-6378859D01*
X15265852Y-6420974D01*
X15255358Y-6455568D01*
X15238322Y-6487441D01*
X15215387Y-6515387D01*
X15187441Y-6538322D01*
X15155568Y-6555358D01*
X15120974Y-6565852D01*
X15078859Y-6570000D01*
X14421141Y-6570000D01*
X14379026Y-6565852D01*
X14344432Y-6555358D01*
X14312559Y-6538322D01*
X14284613Y-6515387D01*
X14261678Y-6487441D01*
X14244642Y-6455568D01*
X14234148Y-6420974D01*
X14230000Y-6378859D01*
X14230000Y-5771141D01*
X14234148Y-5729026D01*
X14244642Y-5694432D01*
X14265787Y-5654872D01*
X14269757Y-5648931D01*
X14279136Y-5626292D01*
X14283917Y-5602259D01*
X14283919Y-5577755D01*
X14279140Y-5553721D01*
X14269763Y-5531082D01*
X14265795Y-5525142D01*
X14244642Y-5485568D01*
X14234148Y-5450974D01*
X14230000Y-5408859D01*
X14230000Y-4801141D01*
X14234148Y-4759026D01*
X14244642Y-4724432D01*
X14261678Y-4692559D01*
X14284613Y-4664613D01*
X14312559Y-4641678D01*
X14344432Y-4624642D01*
X14379026Y-4614148D01*
X14421141Y-4610000D01*
X15078859Y-4610000D01*
X15120974Y-4614148D01*
X15120974Y-4614148D01*
G37*
G36*
X860000Y-6550000D02*
X-810000Y-6550000D01*
X-810000Y-4880000D01*
X860000Y-4880000D01*
X860000Y-6550000D01*
X860000Y-6550000D01*
G37*
G36*
X-10570000Y-6550000D02*
X-12240000Y-6550000D01*
X-12240000Y-4880000D01*
X-10570000Y-4880000D01*
X-10570000Y-6550000D01*
X-10570000Y-6550000D01*
G37*
G36*
X-5532440Y-1243759D02*
X-5041072Y-1447290D01*
X-5041070Y-1447291D01*
X-4718638Y-1662733D01*
X-4598847Y-1742775D01*
X-4222775Y-2118847D01*
X-4222773Y-2118850D01*
X-3945361Y-2534026D01*
X-3927290Y-2561072D01*
X-3723759Y-3052440D01*
X-3620000Y-3574072D01*
X-3620000Y-4105928D01*
X-3723759Y-4627560D01*
X-3892999Y-5036141D01*
X-3927291Y-5118930D01*
X-4141823Y-5440000D01*
X-4222775Y-5561153D01*
X-4598847Y-5937225D01*
X-4598850Y-5937227D01*
X-5041070Y-6232709D01*
X-5041071Y-6232710D01*
X-5041072Y-6232710D01*
X-5532440Y-6436241D01*
X-6054072Y-6540000D01*
X-6585928Y-6540000D01*
X-7107560Y-6436241D01*
X-7598928Y-6232710D01*
X-7598929Y-6232710D01*
X-7598930Y-6232709D01*
X-8041150Y-5937227D01*
X-8041153Y-5937225D01*
X-8417225Y-5561153D01*
X-8498177Y-5440000D01*
X-8712709Y-5118930D01*
X-8747001Y-5036141D01*
X-8916241Y-4627560D01*
X-9020000Y-4105928D01*
X-9020000Y-3574072D01*
X-8916241Y-3052440D01*
X-8712710Y-2561072D01*
X-8694638Y-2534026D01*
X-8417227Y-2118850D01*
X-8417225Y-2118847D01*
X-8041153Y-1742775D01*
X-7921362Y-1662733D01*
X-7598930Y-1447291D01*
X-7598928Y-1447290D01*
X-7107560Y-1243759D01*
X-6585928Y-1140000D01*
X-6054072Y-1140000D01*
X-5532440Y-1243759D01*
X-5532440Y-1243759D01*
G37*
G36*
X21028707Y-4037597D02*
X21105836Y-4045193D01*
X21237787Y-4085220D01*
X21303763Y-4105233D01*
X21486172Y-4202733D01*
X21646054Y-4333946D01*
X21777267Y-4493828D01*
X21874767Y-4676237D01*
X21894109Y-4740000D01*
X21934807Y-4874164D01*
X21955080Y-5080000D01*
X21934807Y-5285836D01*
X21894780Y-5417787D01*
X21874767Y-5483763D01*
X21777267Y-5666172D01*
X21646054Y-5826054D01*
X21486172Y-5957267D01*
X21303763Y-6054767D01*
X21237787Y-6074780D01*
X21105836Y-6114807D01*
X21028707Y-6122404D01*
X20951580Y-6130000D01*
X20848420Y-6130000D01*
X20771293Y-6122403D01*
X20694164Y-6114807D01*
X20562213Y-6074780D01*
X20496237Y-6054767D01*
X20313828Y-5957267D01*
X20153946Y-5826054D01*
X20022733Y-5666172D01*
X19925233Y-5483763D01*
X19905220Y-5417787D01*
X19865193Y-5285836D01*
X19844920Y-5080000D01*
X19865193Y-4874164D01*
X19905891Y-4740000D01*
X19925233Y-4676237D01*
X20022733Y-4493828D01*
X20153946Y-4333946D01*
X20313828Y-4202733D01*
X20496237Y-4105233D01*
X20562213Y-4085220D01*
X20694164Y-4045193D01*
X20771293Y-4037597D01*
X20848420Y-4030000D01*
X20951580Y-4030000D01*
X21028707Y-4037597D01*
X21028707Y-4037597D01*
G37*
G36*
X5375974Y-4849148D02*
X5410568Y-4859642D01*
X5450128Y-4880787D01*
X5456069Y-4884757D01*
X5478708Y-4894136D01*
X5502741Y-4898917D01*
X5527245Y-4898919D01*
X5551279Y-4894140D01*
X5573918Y-4884763D01*
X5579858Y-4880795D01*
X5619432Y-4859642D01*
X5654026Y-4849148D01*
X5696141Y-4845000D01*
X6303859Y-4845000D01*
X6345974Y-4849148D01*
X6380568Y-4859642D01*
X6412441Y-4876678D01*
X6440387Y-4899613D01*
X6463322Y-4927559D01*
X6480358Y-4959432D01*
X6490852Y-4994026D01*
X6495000Y-5036141D01*
X6495000Y-5693859D01*
X6490852Y-5735974D01*
X6480358Y-5770568D01*
X6463322Y-5802441D01*
X6440387Y-5830387D01*
X6412441Y-5853322D01*
X6380568Y-5870358D01*
X6345974Y-5880852D01*
X6303859Y-5885000D01*
X5696141Y-5885000D01*
X5654026Y-5880852D01*
X5619432Y-5870358D01*
X5579872Y-5849213D01*
X5573931Y-5845243D01*
X5551292Y-5835864D01*
X5527259Y-5831083D01*
X5502755Y-5831081D01*
X5478721Y-5835860D01*
X5456082Y-5845237D01*
X5450142Y-5849205D01*
X5410568Y-5870358D01*
X5375974Y-5880852D01*
X5333859Y-5885000D01*
X4726141Y-5885000D01*
X4684026Y-5880852D01*
X4649432Y-5870358D01*
X4617559Y-5853322D01*
X4589613Y-5830387D01*
X4566678Y-5802441D01*
X4549642Y-5770568D01*
X4539148Y-5735974D01*
X4535000Y-5693859D01*
X4535000Y-5036141D01*
X4539148Y-4994026D01*
X4549642Y-4959432D01*
X4566678Y-4927559D01*
X4589613Y-4899613D01*
X4617559Y-4876678D01*
X4649432Y-4859642D01*
X4684026Y-4849148D01*
X4726141Y-4845000D01*
X5333859Y-4845000D01*
X5375974Y-4849148D01*
X5375974Y-4849148D01*
G37*
G36*
X24925888Y-2764470D02*
X25106274Y-2800350D01*
X25297362Y-2879502D01*
X25469336Y-2994411D01*
X25615589Y-3140664D01*
X25730498Y-3312638D01*
X25809650Y-3503726D01*
X25850000Y-3706584D01*
X25850000Y-3913416D01*
X25809650Y-4116274D01*
X25730498Y-4307362D01*
X25615589Y-4479336D01*
X25469336Y-4625589D01*
X25297362Y-4740498D01*
X25106274Y-4819650D01*
X24925888Y-4855530D01*
X24903417Y-4860000D01*
X24696583Y-4860000D01*
X24674112Y-4855530D01*
X24493726Y-4819650D01*
X24302638Y-4740498D01*
X24130664Y-4625589D01*
X23984411Y-4479336D01*
X23869502Y-4307362D01*
X23790350Y-4116274D01*
X23750000Y-3913416D01*
X23750000Y-3706584D01*
X23790350Y-3503726D01*
X23869502Y-3312638D01*
X23984411Y-3140664D01*
X24130664Y-2994411D01*
X24302638Y-2879502D01*
X24493726Y-2800350D01*
X24674112Y-2764470D01*
X24696583Y-2760000D01*
X24903417Y-2760000D01*
X24925888Y-2764470D01*
X24925888Y-2764470D01*
G37*
G36*
X-24671293Y-2767597D02*
X-24594164Y-2775193D01*
X-24462213Y-2815220D01*
X-24396237Y-2835233D01*
X-24213828Y-2932733D01*
X-24053946Y-3063946D01*
X-23922733Y-3223828D01*
X-23825233Y-3406237D01*
X-23825233Y-3406238D01*
X-23765193Y-3604164D01*
X-23744920Y-3810000D01*
X-23765193Y-4015836D01*
X-23804612Y-4145785D01*
X-23825233Y-4213763D01*
X-23922733Y-4396172D01*
X-24053946Y-4556054D01*
X-24213828Y-4687267D01*
X-24396237Y-4784767D01*
X-24450216Y-4801141D01*
X-24594164Y-4844807D01*
X-24671293Y-4852404D01*
X-24748420Y-4860000D01*
X-24851580Y-4860000D01*
X-24928707Y-4852404D01*
X-25005836Y-4844807D01*
X-25149784Y-4801141D01*
X-25203763Y-4784767D01*
X-25386172Y-4687267D01*
X-25546054Y-4556054D01*
X-25677267Y-4396172D01*
X-25774767Y-4213763D01*
X-25795388Y-4145785D01*
X-25834807Y-4015836D01*
X-25855080Y-3810000D01*
X-25834807Y-3604164D01*
X-25774767Y-3406238D01*
X-25774767Y-3406237D01*
X-25677267Y-3223828D01*
X-25546054Y-3063946D01*
X-25386172Y-2932733D01*
X-25203763Y-2835233D01*
X-25137787Y-2815220D01*
X-25005836Y-2775193D01*
X-24928707Y-2767597D01*
X-24851580Y-2760000D01*
X-24748420Y-2760000D01*
X-24671293Y-2767597D01*
X-24671293Y-2767597D01*
G37*
G36*
X6900000Y-4515000D02*
X4100000Y-4515000D01*
X4100000Y-1215000D01*
X6900000Y-1215000D01*
X6900000Y-4515000D01*
X6900000Y-4515000D01*
G37*
G36*
X15095974Y-2389148D02*
X15130568Y-2399642D01*
X15162441Y-2416678D01*
X15190387Y-2439613D01*
X15213322Y-2467559D01*
X15230358Y-2499432D01*
X15240852Y-2534026D01*
X15245000Y-2576141D01*
X15245000Y-3183859D01*
X15240852Y-3225974D01*
X15230358Y-3260568D01*
X15209213Y-3300128D01*
X15205243Y-3306069D01*
X15195864Y-3328708D01*
X15191083Y-3352741D01*
X15191081Y-3377245D01*
X15195860Y-3401279D01*
X15205237Y-3423918D01*
X15209205Y-3429858D01*
X15230358Y-3469432D01*
X15240852Y-3504026D01*
X15245000Y-3546141D01*
X15245000Y-4153859D01*
X15240852Y-4195974D01*
X15230358Y-4230568D01*
X15213322Y-4262441D01*
X15190387Y-4290387D01*
X15162441Y-4313322D01*
X15130568Y-4330358D01*
X15095974Y-4340852D01*
X15053859Y-4345000D01*
X14396141Y-4345000D01*
X14354026Y-4340852D01*
X14319432Y-4330358D01*
X14287559Y-4313322D01*
X14259613Y-4290387D01*
X14236678Y-4262441D01*
X14219642Y-4230568D01*
X14209148Y-4195974D01*
X14205000Y-4153859D01*
X14205000Y-3546141D01*
X14209148Y-3504026D01*
X14219642Y-3469432D01*
X14240787Y-3429872D01*
X14244757Y-3423931D01*
X14254136Y-3401292D01*
X14258917Y-3377259D01*
X14258919Y-3352755D01*
X14254140Y-3328721D01*
X14244763Y-3306082D01*
X14240795Y-3300142D01*
X14219642Y-3260568D01*
X14209148Y-3225974D01*
X14205000Y-3183859D01*
X14205000Y-2576141D01*
X14209148Y-2534026D01*
X14219642Y-2499432D01*
X14236678Y-2467559D01*
X14259613Y-2439613D01*
X14287559Y-2416678D01*
X14319432Y-2399642D01*
X14354026Y-2389148D01*
X14396141Y-2385000D01*
X15053859Y-2385000D01*
X15095974Y-2389148D01*
X15095974Y-2389148D01*
G37*
G36*
X860000Y-4010000D02*
X-810000Y-4010000D01*
X-810000Y-2340000D01*
X860000Y-2340000D01*
X860000Y-4010000D01*
X860000Y-4010000D01*
G37*
G36*
X-10570000Y-4010000D02*
X-12240000Y-4010000D01*
X-12240000Y-2340000D01*
X-10570000Y-2340000D01*
X-10570000Y-4010000D01*
X-10570000Y-4010000D01*
G37*
G36*
X21028707Y-1497596D02*
X21105836Y-1505193D01*
X21237787Y-1545220D01*
X21303763Y-1565233D01*
X21486172Y-1662733D01*
X21646054Y-1793946D01*
X21777267Y-1953828D01*
X21874767Y-2136237D01*
X21874767Y-2136238D01*
X21934807Y-2334164D01*
X21955080Y-2540000D01*
X21934807Y-2745836D01*
X21921410Y-2790000D01*
X21874767Y-2943763D01*
X21777267Y-3126172D01*
X21646054Y-3286054D01*
X21486172Y-3417267D01*
X21303763Y-3514767D01*
X21237787Y-3534780D01*
X21105836Y-3574807D01*
X21028707Y-3582404D01*
X20951580Y-3590000D01*
X20848420Y-3590000D01*
X20771293Y-3582404D01*
X20694164Y-3574807D01*
X20562213Y-3534780D01*
X20496237Y-3514767D01*
X20313828Y-3417267D01*
X20153946Y-3286054D01*
X20022733Y-3126172D01*
X19925233Y-2943763D01*
X19878590Y-2790000D01*
X19865193Y-2745836D01*
X19844920Y-2540000D01*
X19865193Y-2334164D01*
X19925233Y-2136238D01*
X19925233Y-2136237D01*
X20022733Y-1953828D01*
X20153946Y-1793946D01*
X20313828Y-1662733D01*
X20496237Y-1565233D01*
X20562213Y-1545220D01*
X20694164Y-1505193D01*
X20771293Y-1497596D01*
X20848420Y-1490000D01*
X20951580Y-1490000D01*
X21028707Y-1497596D01*
X21028707Y-1497596D01*
G37*
G36*
X-24671293Y-227597D02*
X-24594164Y-235193D01*
X-24462213Y-275220D01*
X-24396237Y-295233D01*
X-24213828Y-392733D01*
X-24053946Y-523946D01*
X-23922733Y-683828D01*
X-23825233Y-866237D01*
X-23818870Y-887214D01*
X-23765193Y-1064164D01*
X-23744920Y-1270000D01*
X-23765193Y-1475836D01*
X-23792311Y-1565233D01*
X-23825233Y-1673763D01*
X-23922733Y-1856172D01*
X-24053946Y-2016054D01*
X-24213828Y-2147267D01*
X-24396237Y-2244767D01*
X-24462213Y-2264780D01*
X-24594164Y-2304807D01*
X-24671293Y-2312404D01*
X-24748420Y-2320000D01*
X-24851580Y-2320000D01*
X-24928707Y-2312403D01*
X-25005836Y-2304807D01*
X-25137787Y-2264780D01*
X-25203763Y-2244767D01*
X-25386172Y-2147267D01*
X-25546054Y-2016054D01*
X-25677267Y-1856172D01*
X-25774767Y-1673763D01*
X-25807689Y-1565233D01*
X-25834807Y-1475836D01*
X-25855080Y-1270000D01*
X-25834807Y-1064164D01*
X-25781130Y-887214D01*
X-25774767Y-866237D01*
X-25677267Y-683828D01*
X-25546054Y-523946D01*
X-25386172Y-392733D01*
X-25203763Y-295233D01*
X-25137787Y-275220D01*
X-25005836Y-235193D01*
X-24928707Y-227597D01*
X-24851580Y-220000D01*
X-24748420Y-220000D01*
X-24671293Y-227597D01*
X-24671293Y-227597D01*
G37*
G36*
X24928707Y-227597D02*
X25005836Y-235193D01*
X25137787Y-275220D01*
X25203763Y-295233D01*
X25386172Y-392733D01*
X25546054Y-523946D01*
X25677267Y-683828D01*
X25774767Y-866237D01*
X25781130Y-887214D01*
X25834807Y-1064164D01*
X25855080Y-1270000D01*
X25834807Y-1475836D01*
X25807689Y-1565233D01*
X25774767Y-1673763D01*
X25677267Y-1856172D01*
X25546054Y-2016054D01*
X25386172Y-2147267D01*
X25203763Y-2244767D01*
X25137787Y-2264780D01*
X25005836Y-2304807D01*
X24928707Y-2312403D01*
X24851580Y-2320000D01*
X24748420Y-2320000D01*
X24671293Y-2312404D01*
X24594164Y-2304807D01*
X24462213Y-2264780D01*
X24396237Y-2244767D01*
X24213828Y-2147267D01*
X24053946Y-2016054D01*
X23922733Y-1856172D01*
X23825233Y-1673763D01*
X23792311Y-1565233D01*
X23765193Y-1475836D01*
X23744920Y-1270000D01*
X23765193Y-1064164D01*
X23818870Y-887214D01*
X23825233Y-866237D01*
X23922733Y-683828D01*
X24053946Y-523946D01*
X24213828Y-392733D01*
X24396237Y-295233D01*
X24462213Y-275220D01*
X24594164Y-235193D01*
X24671293Y-227597D01*
X24748420Y-220000D01*
X24851580Y-220000D01*
X24928707Y-227597D01*
X24928707Y-227597D01*
G37*
G36*
X860000Y-1470000D02*
X-810000Y-1470000D01*
X-810000Y200000D01*
X860000Y200000D01*
X860000Y-1470000D01*
X860000Y-1470000D01*
G37*
G36*
X-10570000Y-1470000D02*
X-12240000Y-1470000D01*
X-12240000Y200000D01*
X-10570000Y200000D01*
X-10570000Y-1470000D01*
X-10570000Y-1470000D01*
G37*
G36*
X11220974Y870852D02*
X11255568Y860358D01*
X11287441Y843322D01*
X11315387Y820387D01*
X11338322Y792441D01*
X11355358Y760568D01*
X11365852Y725974D01*
X11370000Y683859D01*
X11370000Y76141D01*
X11365852Y34026D01*
X11355358Y-568D01*
X11334213Y-40128D01*
X11330243Y-46069D01*
X11320864Y-68708D01*
X11316083Y-92741D01*
X11316081Y-117245D01*
X11320860Y-141279D01*
X11330237Y-163918D01*
X11334205Y-169858D01*
X11355358Y-209432D01*
X11365852Y-244026D01*
X11370000Y-286141D01*
X11370000Y-893859D01*
X11365852Y-935974D01*
X11355358Y-970568D01*
X11338322Y-1002441D01*
X11315387Y-1030387D01*
X11287441Y-1053322D01*
X11255568Y-1070358D01*
X11220974Y-1080852D01*
X11178859Y-1085000D01*
X10521141Y-1085000D01*
X10479026Y-1080852D01*
X10444432Y-1070358D01*
X10412559Y-1053322D01*
X10384613Y-1030387D01*
X10361678Y-1002441D01*
X10344642Y-970568D01*
X10334148Y-935974D01*
X10330000Y-893859D01*
X10330000Y-286141D01*
X10334148Y-244026D01*
X10344642Y-209432D01*
X10365787Y-169872D01*
X10369757Y-163931D01*
X10379136Y-141292D01*
X10383917Y-117259D01*
X10383919Y-92755D01*
X10379140Y-68721D01*
X10369763Y-46082D01*
X10365795Y-40142D01*
X10344642Y-568D01*
X10334148Y34026D01*
X10330000Y76141D01*
X10330000Y683859D01*
X10334148Y725974D01*
X10344642Y760568D01*
X10361678Y792441D01*
X10384613Y820387D01*
X10412559Y843322D01*
X10444432Y860358D01*
X10479026Y870852D01*
X10521141Y875000D01*
X11178859Y875000D01*
X11220974Y870852D01*
X11220974Y870852D01*
G37*
G36*
X21950000Y-1050000D02*
X19850000Y-1050000D01*
X19850000Y-541726D01*
X19847598Y-517340D01*
X19840485Y-493891D01*
X19828934Y-472280D01*
X19813388Y-453338D01*
X19794446Y-437792D01*
X19772835Y-426241D01*
X19749386Y-419128D01*
X19725000Y-416726D01*
X19700614Y-419128D01*
X19677165Y-426241D01*
X19655554Y-437792D01*
X19636612Y-453338D01*
X19546225Y-543725D01*
X19431574Y-620332D01*
X19304183Y-673100D01*
X19168945Y-700000D01*
X19031055Y-700000D01*
X18895817Y-673100D01*
X18768426Y-620332D01*
X18653775Y-543725D01*
X18556275Y-446225D01*
X18479668Y-331574D01*
X18426900Y-204183D01*
X18400000Y-68945D01*
X18400000Y68945D01*
X18426900Y204183D01*
X18479668Y331574D01*
X18556275Y446225D01*
X18653775Y543725D01*
X18768426Y620332D01*
X18895817Y673100D01*
X19031055Y700000D01*
X19168945Y700000D01*
X19304183Y673100D01*
X19431574Y620332D01*
X19546225Y543725D01*
X19636612Y453338D01*
X19655554Y437792D01*
X19677165Y426241D01*
X19700614Y419128D01*
X19725000Y416726D01*
X19749386Y419128D01*
X19772835Y426241D01*
X19794446Y437792D01*
X19813388Y453338D01*
X19828934Y472280D01*
X19840485Y493891D01*
X19847598Y517340D01*
X19850000Y541726D01*
X19850000Y1050000D01*
X21950000Y1050000D01*
X21950000Y-1050000D01*
X21950000Y-1050000D01*
G37*
G36*
X9270974Y915852D02*
X9305568Y905358D01*
X9337441Y888322D01*
X9365387Y865387D01*
X9388322Y837441D01*
X9405358Y805568D01*
X9415852Y770974D01*
X9420000Y728859D01*
X9420000Y121141D01*
X9415852Y79026D01*
X9405358Y44432D01*
X9384213Y4872D01*
X9380243Y-1069D01*
X9370864Y-23708D01*
X9366083Y-47741D01*
X9366081Y-72245D01*
X9370860Y-96279D01*
X9380237Y-118918D01*
X9384205Y-124858D01*
X9405358Y-164432D01*
X9415852Y-199026D01*
X9420000Y-241141D01*
X9420000Y-848859D01*
X9415852Y-890974D01*
X9405358Y-925568D01*
X9388322Y-957441D01*
X9365387Y-985387D01*
X9337441Y-1008322D01*
X9305568Y-1025358D01*
X9270974Y-1035852D01*
X9228859Y-1040000D01*
X8571141Y-1040000D01*
X8529026Y-1035852D01*
X8494432Y-1025358D01*
X8462559Y-1008322D01*
X8434613Y-985387D01*
X8411678Y-957441D01*
X8394642Y-925568D01*
X8384148Y-890974D01*
X8380000Y-848859D01*
X8380000Y-241141D01*
X8384148Y-199026D01*
X8394642Y-164432D01*
X8415787Y-124872D01*
X8419757Y-118931D01*
X8429136Y-96292D01*
X8433917Y-72259D01*
X8433919Y-47755D01*
X8429140Y-23721D01*
X8419763Y-1082D01*
X8415795Y4858D01*
X8394642Y44432D01*
X8384148Y79026D01*
X8380000Y121141D01*
X8380000Y728859D01*
X8384148Y770974D01*
X8394642Y805568D01*
X8411678Y837441D01*
X8434613Y865387D01*
X8462559Y888322D01*
X8494432Y905358D01*
X8529026Y915852D01*
X8571141Y920000D01*
X9228859Y920000D01*
X9270974Y915852D01*
X9270974Y915852D01*
G37*
G36*
X5360974Y150852D02*
X5395568Y140358D01*
X5435128Y119213D01*
X5441069Y115243D01*
X5463708Y105864D01*
X5487741Y101083D01*
X5512245Y101081D01*
X5536279Y105860D01*
X5558918Y115237D01*
X5564858Y119205D01*
X5604432Y140358D01*
X5639026Y150852D01*
X5681141Y155000D01*
X6288859Y155000D01*
X6330974Y150852D01*
X6365568Y140358D01*
X6397441Y123322D01*
X6425387Y100387D01*
X6448322Y72441D01*
X6465358Y40568D01*
X6475852Y5974D01*
X6480000Y-36141D01*
X6480000Y-693859D01*
X6475852Y-735974D01*
X6465358Y-770568D01*
X6448322Y-802441D01*
X6425387Y-830387D01*
X6397441Y-853322D01*
X6365568Y-870358D01*
X6330974Y-880852D01*
X6288859Y-885000D01*
X5681141Y-885000D01*
X5639026Y-880852D01*
X5604432Y-870358D01*
X5564872Y-849213D01*
X5558931Y-845243D01*
X5536292Y-835864D01*
X5512259Y-831083D01*
X5487755Y-831081D01*
X5463721Y-835860D01*
X5441082Y-845237D01*
X5435142Y-849205D01*
X5395568Y-870358D01*
X5360974Y-880852D01*
X5318859Y-885000D01*
X4711141Y-885000D01*
X4669026Y-880852D01*
X4634432Y-870358D01*
X4602559Y-853322D01*
X4574613Y-830387D01*
X4551678Y-802441D01*
X4534642Y-770568D01*
X4524148Y-735974D01*
X4520000Y-693859D01*
X4520000Y-36141D01*
X4524148Y5974D01*
X4534642Y40568D01*
X4551678Y72441D01*
X4574613Y100387D01*
X4602559Y123322D01*
X4634432Y140358D01*
X4669026Y150852D01*
X4711141Y155000D01*
X5318859Y155000D01*
X5360974Y150852D01*
X5360974Y150852D01*
G37*
G36*
X24928707Y2312403D02*
X25005836Y2304807D01*
X25137787Y2264780D01*
X25203763Y2244767D01*
X25386172Y2147267D01*
X25546054Y2016054D01*
X25677267Y1856172D01*
X25774767Y1673763D01*
X25774767Y1673762D01*
X25834807Y1475836D01*
X25855080Y1270000D01*
X25834807Y1064164D01*
X25830510Y1050000D01*
X25774767Y866237D01*
X25677267Y683828D01*
X25546054Y523946D01*
X25386172Y392733D01*
X25203763Y295233D01*
X25137787Y275220D01*
X25005836Y235193D01*
X24928707Y227597D01*
X24851580Y220000D01*
X24748420Y220000D01*
X24671293Y227597D01*
X24594164Y235193D01*
X24462213Y275220D01*
X24396237Y295233D01*
X24213828Y392733D01*
X24053946Y523946D01*
X23922733Y683828D01*
X23825233Y866237D01*
X23769490Y1050000D01*
X23765193Y1064164D01*
X23744920Y1270000D01*
X23765193Y1475836D01*
X23825233Y1673762D01*
X23825233Y1673763D01*
X23922733Y1856172D01*
X24053946Y2016054D01*
X24213828Y2147267D01*
X24396237Y2244767D01*
X24462213Y2264780D01*
X24594164Y2304807D01*
X24671293Y2312404D01*
X24748420Y2320000D01*
X24851580Y2320000D01*
X24928707Y2312403D01*
X24928707Y2312403D01*
G37*
G36*
X-24671293Y2312404D02*
X-24594164Y2304807D01*
X-24462213Y2264780D01*
X-24396237Y2244767D01*
X-24213828Y2147267D01*
X-24053946Y2016054D01*
X-23922733Y1856172D01*
X-23825233Y1673763D01*
X-23825233Y1673762D01*
X-23765193Y1475836D01*
X-23744920Y1270000D01*
X-23765193Y1064164D01*
X-23769490Y1050000D01*
X-23825233Y866237D01*
X-23922733Y683828D01*
X-24053946Y523946D01*
X-24213828Y392733D01*
X-24396237Y295233D01*
X-24462213Y275220D01*
X-24594164Y235193D01*
X-24671293Y227597D01*
X-24748420Y220000D01*
X-24851580Y220000D01*
X-24928707Y227597D01*
X-25005836Y235193D01*
X-25137787Y275220D01*
X-25203763Y295233D01*
X-25386172Y392733D01*
X-25546054Y523946D01*
X-25677267Y683828D01*
X-25774767Y866237D01*
X-25830510Y1050000D01*
X-25834807Y1064164D01*
X-25855080Y1270000D01*
X-25834807Y1475836D01*
X-25774767Y1673762D01*
X-25774767Y1673763D01*
X-25677267Y1856172D01*
X-25546054Y2016054D01*
X-25386172Y2147267D01*
X-25203763Y2244767D01*
X-25137787Y2264780D01*
X-25005836Y2304807D01*
X-24928707Y2312403D01*
X-24851580Y2320000D01*
X-24748420Y2320000D01*
X-24671293Y2312404D01*
X-24671293Y2312404D01*
G37*
G36*
X18950000Y1350000D02*
X16850000Y1350000D01*
X16850000Y3450000D01*
X18950000Y3450000D01*
X18950000Y1350000D01*
X18950000Y1350000D01*
G37*
G36*
X15488707Y3442403D02*
X15565836Y3434807D01*
X15697787Y3394780D01*
X15763763Y3374767D01*
X15946172Y3277267D01*
X16106054Y3146054D01*
X16237267Y2986172D01*
X16334767Y2803763D01*
X16334767Y2803762D01*
X16394807Y2605836D01*
X16415080Y2400000D01*
X16394807Y2194164D01*
X16380581Y2147267D01*
X16334767Y1996237D01*
X16237267Y1813828D01*
X16106054Y1653946D01*
X15946172Y1522733D01*
X15763763Y1425233D01*
X15697787Y1405220D01*
X15565836Y1365193D01*
X15488707Y1357596D01*
X15411580Y1350000D01*
X15308420Y1350000D01*
X15231293Y1357596D01*
X15154164Y1365193D01*
X15022213Y1405220D01*
X14956237Y1425233D01*
X14773828Y1522733D01*
X14613946Y1653946D01*
X14482733Y1813828D01*
X14385233Y1996237D01*
X14339419Y2147267D01*
X14325193Y2194164D01*
X14304920Y2400000D01*
X14325193Y2605836D01*
X14385233Y2803762D01*
X14385233Y2803763D01*
X14482733Y2986172D01*
X14613946Y3146054D01*
X14773828Y3277267D01*
X14956237Y3374767D01*
X15022213Y3394780D01*
X15154164Y3434807D01*
X15231293Y3442403D01*
X15308420Y3450000D01*
X15411580Y3450000D01*
X15488707Y3442403D01*
X15488707Y3442403D01*
G37*
G36*
X12948707Y3442403D02*
X13025836Y3434807D01*
X13157787Y3394780D01*
X13223763Y3374767D01*
X13406172Y3277267D01*
X13566054Y3146054D01*
X13697267Y2986172D01*
X13794767Y2803763D01*
X13794767Y2803762D01*
X13854807Y2605836D01*
X13875080Y2400000D01*
X13854807Y2194164D01*
X13840581Y2147267D01*
X13794767Y1996237D01*
X13697267Y1813828D01*
X13566054Y1653946D01*
X13406172Y1522733D01*
X13223763Y1425233D01*
X13157787Y1405220D01*
X13025836Y1365193D01*
X12948707Y1357596D01*
X12871580Y1350000D01*
X12768420Y1350000D01*
X12691293Y1357596D01*
X12614164Y1365193D01*
X12482213Y1405220D01*
X12416237Y1425233D01*
X12233828Y1522733D01*
X12073946Y1653946D01*
X11942733Y1813828D01*
X11845233Y1996237D01*
X11799419Y2147267D01*
X11785193Y2194164D01*
X11764920Y2400000D01*
X11785193Y2605836D01*
X11845233Y2803762D01*
X11845233Y2803763D01*
X11942733Y2986172D01*
X12073946Y3146054D01*
X12233828Y3277267D01*
X12416237Y3374767D01*
X12482213Y3394780D01*
X12614164Y3434807D01*
X12691293Y3442403D01*
X12768420Y3450000D01*
X12871580Y3450000D01*
X12948707Y3442403D01*
X12948707Y3442403D01*
G37*
G36*
X-24674112Y4855530D02*
X-24493726Y4819650D01*
X-24302638Y4740498D01*
X-24130664Y4625589D01*
X-23984411Y4479336D01*
X-23869502Y4307362D01*
X-23790350Y4116274D01*
X-23750000Y3913416D01*
X-23750000Y3706584D01*
X-23790350Y3503726D01*
X-23869502Y3312638D01*
X-23984411Y3140664D01*
X-24130664Y2994411D01*
X-24302638Y2879502D01*
X-24493726Y2800350D01*
X-24674112Y2764470D01*
X-24696583Y2760000D01*
X-24903417Y2760000D01*
X-24925888Y2764470D01*
X-25106274Y2800350D01*
X-25297362Y2879502D01*
X-25469336Y2994411D01*
X-25615589Y3140664D01*
X-25730498Y3312638D01*
X-25809650Y3503726D01*
X-25850000Y3706584D01*
X-25850000Y3913416D01*
X-25809650Y4116274D01*
X-25730498Y4307362D01*
X-25615589Y4479336D01*
X-25469336Y4625589D01*
X-25297362Y4740498D01*
X-25106274Y4819650D01*
X-24925888Y4855530D01*
X-24903417Y4860000D01*
X-24696583Y4860000D01*
X-24674112Y4855530D01*
X-24674112Y4855530D01*
G37*
G36*
X24925888Y4855530D02*
X25106274Y4819650D01*
X25297362Y4740498D01*
X25469336Y4625589D01*
X25615589Y4479336D01*
X25730498Y4307362D01*
X25809650Y4116274D01*
X25850000Y3913416D01*
X25850000Y3706584D01*
X25809650Y3503726D01*
X25730498Y3312638D01*
X25615589Y3140664D01*
X25469336Y2994411D01*
X25297362Y2879502D01*
X25106274Y2800350D01*
X24925888Y2764470D01*
X24903417Y2760000D01*
X24696583Y2760000D01*
X24674112Y2764470D01*
X24493726Y2800350D01*
X24302638Y2879502D01*
X24130664Y2994411D01*
X23984411Y3140664D01*
X23869502Y3312638D01*
X23790350Y3503726D01*
X23750000Y3706584D01*
X23750000Y3913416D01*
X23790350Y4116274D01*
X23869502Y4307362D01*
X23984411Y4479336D01*
X24130664Y4625589D01*
X24302638Y4740498D01*
X24493726Y4819650D01*
X24674112Y4855530D01*
X24696583Y4860000D01*
X24903417Y4860000D01*
X24925888Y4855530D01*
X24925888Y4855530D01*
G37*
G36*
X2580000Y2860000D02*
X-13960000Y2860000D01*
X-13960000Y4760000D01*
X2580000Y4760000D01*
X2580000Y2860000D01*
X2580000Y2860000D01*
G37*
G36*
X21204183Y4573100D02*
X21331574Y4520332D01*
X21446224Y4443726D01*
X21543726Y4346224D01*
X21620332Y4231574D01*
X21673100Y4104183D01*
X21700000Y3968945D01*
X21700000Y3831055D01*
X21673100Y3695817D01*
X21620332Y3568426D01*
X21543726Y3453776D01*
X21446224Y3356274D01*
X21331574Y3279668D01*
X21204183Y3226900D01*
X21068945Y3200000D01*
X20931055Y3200000D01*
X20795817Y3226900D01*
X20668426Y3279668D01*
X20553776Y3356274D01*
X20456274Y3453776D01*
X20379668Y3568426D01*
X20326900Y3695817D01*
X20300000Y3831055D01*
X20300000Y3968945D01*
X20326900Y4104183D01*
X20379668Y4231574D01*
X20456274Y4346224D01*
X20553776Y4443726D01*
X20668426Y4520332D01*
X20795817Y4573100D01*
X20931055Y4600000D01*
X21068945Y4600000D01*
X21204183Y4573100D01*
X21204183Y4573100D01*
G37*
G36*
X11966853Y7838203D02*
X12013640Y7824011D01*
X12056758Y7800963D01*
X12094549Y7769949D01*
X12125563Y7732158D01*
X12148611Y7689040D01*
X12162803Y7642253D01*
X12168200Y7587459D01*
X12168200Y4299741D01*
X12162803Y4244947D01*
X12148611Y4198160D01*
X12125563Y4155042D01*
X12094549Y4117251D01*
X12056758Y4086237D01*
X12013640Y4063189D01*
X11966853Y4048997D01*
X11912059Y4043600D01*
X10724341Y4043600D01*
X10669547Y4048997D01*
X10622760Y4063189D01*
X10579642Y4086237D01*
X10541851Y4117251D01*
X10510837Y4155042D01*
X10487789Y4198160D01*
X10473597Y4244947D01*
X10468200Y4299741D01*
X10468200Y7587459D01*
X10473597Y7642253D01*
X10487789Y7689040D01*
X10510837Y7732158D01*
X10541851Y7769949D01*
X10579642Y7800963D01*
X10622760Y7824011D01*
X10669547Y7838203D01*
X10724341Y7843600D01*
X11912059Y7843600D01*
X11966853Y7838203D01*
X11966853Y7838203D01*
G37*
G36*
X7516853Y7838203D02*
X7563640Y7824011D01*
X7606758Y7800963D01*
X7644549Y7769949D01*
X7675563Y7732158D01*
X7698611Y7689040D01*
X7712803Y7642253D01*
X7718200Y7587459D01*
X7718200Y4299741D01*
X7712803Y4244947D01*
X7698611Y4198160D01*
X7675563Y4155042D01*
X7644549Y4117251D01*
X7606758Y4086237D01*
X7563640Y4063189D01*
X7516853Y4048997D01*
X7462059Y4043600D01*
X6274341Y4043600D01*
X6219547Y4048997D01*
X6172760Y4063189D01*
X6129642Y4086237D01*
X6091851Y4117251D01*
X6060837Y4155042D01*
X6037789Y4198160D01*
X6023597Y4244947D01*
X6018200Y4299741D01*
X6018200Y7587459D01*
X6023597Y7642253D01*
X6037789Y7689040D01*
X6060837Y7732158D01*
X6091851Y7769949D01*
X6129642Y7800963D01*
X6172760Y7824011D01*
X6219547Y7838203D01*
X6274341Y7843600D01*
X7462059Y7843600D01*
X7516853Y7838203D01*
X7516853Y7838203D01*
G37*
G36*
X-7046470Y6944123D02*
X-6994990Y6928507D01*
X-6947558Y6903154D01*
X-6905973Y6869027D01*
X-6871846Y6827442D01*
X-6846493Y6780010D01*
X-6830877Y6728530D01*
X-6825000Y6668860D01*
X-6825000Y5781140D01*
X-6830877Y5721470D01*
X-6846493Y5669990D01*
X-6871846Y5622558D01*
X-6905973Y5580973D01*
X-6947558Y5546846D01*
X-6994990Y5521493D01*
X-7046470Y5505877D01*
X-7106140Y5500000D01*
X-7893860Y5500000D01*
X-7953530Y5505877D01*
X-8005010Y5521493D01*
X-8052442Y5546846D01*
X-8094027Y5580973D01*
X-8128154Y5622558D01*
X-8153507Y5669990D01*
X-8169123Y5721470D01*
X-8175000Y5781140D01*
X-8175000Y6668860D01*
X-8169123Y6728530D01*
X-8153507Y6780010D01*
X-8128154Y6827442D01*
X-8094027Y6869027D01*
X-8052442Y6903154D01*
X-8005010Y6928507D01*
X-7953530Y6944123D01*
X-7893860Y6950000D01*
X-7106140Y6950000D01*
X-7046470Y6944123D01*
X-7046470Y6944123D01*
G37*
G36*
X-10746470Y6944123D02*
X-10694990Y6928507D01*
X-10647558Y6903154D01*
X-10605973Y6869027D01*
X-10571846Y6827442D01*
X-10546493Y6780010D01*
X-10530877Y6728530D01*
X-10525000Y6668860D01*
X-10525000Y5781140D01*
X-10530877Y5721470D01*
X-10546493Y5669990D01*
X-10571846Y5622558D01*
X-10605973Y5580973D01*
X-10647558Y5546846D01*
X-10694990Y5521493D01*
X-10746470Y5505877D01*
X-10806140Y5500000D01*
X-11593860Y5500000D01*
X-11653530Y5505877D01*
X-11705010Y5521493D01*
X-11752442Y5546846D01*
X-11794027Y5580973D01*
X-11828154Y5622558D01*
X-11853507Y5669990D01*
X-11869123Y5721470D01*
X-11875000Y5781140D01*
X-11875000Y6668860D01*
X-11869123Y6728530D01*
X-11853507Y6780010D01*
X-11828154Y6827442D01*
X-11794027Y6869027D01*
X-11752442Y6903154D01*
X-11705010Y6928507D01*
X-11653530Y6944123D01*
X-11593860Y6950000D01*
X-10806140Y6950000D01*
X-10746470Y6944123D01*
X-10746470Y6944123D01*
G37*
G36*
X-8846470Y6944123D02*
X-8794990Y6928507D01*
X-8747558Y6903154D01*
X-8705973Y6869027D01*
X-8671846Y6827442D01*
X-8646493Y6780010D01*
X-8630877Y6728530D01*
X-8625000Y6668860D01*
X-8625000Y5781140D01*
X-8630877Y5721470D01*
X-8646493Y5669990D01*
X-8671846Y5622558D01*
X-8705973Y5580973D01*
X-8747558Y5546846D01*
X-8794990Y5521493D01*
X-8846470Y5505877D01*
X-8906140Y5500000D01*
X-9693860Y5500000D01*
X-9753530Y5505877D01*
X-9805010Y5521493D01*
X-9852442Y5546846D01*
X-9894027Y5580973D01*
X-9928154Y5622558D01*
X-9953507Y5669990D01*
X-9969123Y5721470D01*
X-9975000Y5781140D01*
X-9975000Y6668860D01*
X-9969123Y6728530D01*
X-9953507Y6780010D01*
X-9928154Y6827442D01*
X-9894027Y6869027D01*
X-9852442Y6903154D01*
X-9805010Y6928507D01*
X-9753530Y6944123D01*
X-9693860Y6950000D01*
X-8906140Y6950000D01*
X-8846470Y6944123D01*
X-8846470Y6944123D01*
G37*
G36*
X4206800Y5564400D02*
X3006800Y5564400D01*
X3006800Y6864400D01*
X4206800Y6864400D01*
X4206800Y5564400D01*
X4206800Y5564400D01*
G37*
G36*
X15375600Y6214400D02*
X13275600Y6214400D01*
X13275600Y8314400D01*
X15375600Y8314400D01*
X15375600Y6214400D01*
X15375600Y6214400D01*
G37*
G36*
X16994307Y8306804D02*
X17071436Y8299207D01*
X17203387Y8259180D01*
X17269363Y8239167D01*
X17451772Y8141667D01*
X17611654Y8010454D01*
X17742867Y7850572D01*
X17840367Y7668163D01*
X17860380Y7602187D01*
X17900407Y7470236D01*
X17920680Y7264400D01*
X17900407Y7058564D01*
X17865692Y6944123D01*
X17840367Y6860637D01*
X17742867Y6678228D01*
X17611654Y6518346D01*
X17451772Y6387133D01*
X17269363Y6289633D01*
X17203387Y6269620D01*
X17071436Y6229593D01*
X16994307Y6221997D01*
X16917180Y6214400D01*
X16814020Y6214400D01*
X16736893Y6221997D01*
X16659764Y6229593D01*
X16527813Y6269620D01*
X16461837Y6289633D01*
X16279428Y6387133D01*
X16119546Y6518346D01*
X15988333Y6678228D01*
X15890833Y6860637D01*
X15865508Y6944123D01*
X15830793Y7058564D01*
X15810520Y7264400D01*
X15830793Y7470236D01*
X15870820Y7602187D01*
X15890833Y7668163D01*
X15988333Y7850572D01*
X16119546Y8010454D01*
X16279428Y8141667D01*
X16461837Y8239167D01*
X16527813Y8259180D01*
X16659764Y8299207D01*
X16736893Y8306804D01*
X16814020Y8314400D01*
X16917180Y8314400D01*
X16994307Y8306804D01*
X16994307Y8306804D01*
G37*
G36*
X-10746470Y8694123D02*
X-10694990Y8678507D01*
X-10647558Y8653154D01*
X-10605973Y8619027D01*
X-10571846Y8577442D01*
X-10546493Y8530010D01*
X-10530877Y8478530D01*
X-10525000Y8418860D01*
X-10525000Y7531140D01*
X-10530877Y7471470D01*
X-10546493Y7419990D01*
X-10571846Y7372558D01*
X-10605973Y7330973D01*
X-10647558Y7296846D01*
X-10694990Y7271493D01*
X-10746470Y7255877D01*
X-10806140Y7250000D01*
X-11593860Y7250000D01*
X-11653530Y7255877D01*
X-11705010Y7271493D01*
X-11752442Y7296846D01*
X-11794027Y7330973D01*
X-11828154Y7372558D01*
X-11853507Y7419990D01*
X-11869123Y7471470D01*
X-11875000Y7531140D01*
X-11875000Y8418860D01*
X-11869123Y8478530D01*
X-11853507Y8530010D01*
X-11828154Y8577442D01*
X-11794027Y8619027D01*
X-11752442Y8653154D01*
X-11705010Y8678507D01*
X-11653530Y8694123D01*
X-11593860Y8700000D01*
X-10806140Y8700000D01*
X-10746470Y8694123D01*
X-10746470Y8694123D01*
G37*
G36*
X-8846470Y8694123D02*
X-8794990Y8678507D01*
X-8747558Y8653154D01*
X-8705973Y8619027D01*
X-8671846Y8577442D01*
X-8646493Y8530010D01*
X-8630877Y8478530D01*
X-8625000Y8418860D01*
X-8625000Y7531140D01*
X-8630877Y7471470D01*
X-8646493Y7419990D01*
X-8671846Y7372558D01*
X-8705973Y7330973D01*
X-8747558Y7296846D01*
X-8794990Y7271493D01*
X-8846470Y7255877D01*
X-8906140Y7250000D01*
X-9693860Y7250000D01*
X-9753530Y7255877D01*
X-9805010Y7271493D01*
X-9852442Y7296846D01*
X-9894027Y7330973D01*
X-9928154Y7372558D01*
X-9953507Y7419990D01*
X-9969123Y7471470D01*
X-9975000Y7531140D01*
X-9975000Y8418860D01*
X-9969123Y8478530D01*
X-9953507Y8530010D01*
X-9928154Y8577442D01*
X-9894027Y8619027D01*
X-9852442Y8653154D01*
X-9805010Y8678507D01*
X-9753530Y8694123D01*
X-9693860Y8700000D01*
X-8906140Y8700000D01*
X-8846470Y8694123D01*
X-8846470Y8694123D01*
G37*
G36*
X-7046470Y8694123D02*
X-6994990Y8678507D01*
X-6947558Y8653154D01*
X-6905973Y8619027D01*
X-6871846Y8577442D01*
X-6846493Y8530010D01*
X-6830877Y8478530D01*
X-6825000Y8418860D01*
X-6825000Y7531140D01*
X-6830877Y7471470D01*
X-6846493Y7419990D01*
X-6871846Y7372558D01*
X-6905973Y7330973D01*
X-6947558Y7296846D01*
X-6994990Y7271493D01*
X-7046470Y7255877D01*
X-7106140Y7250000D01*
X-7893860Y7250000D01*
X-7953530Y7255877D01*
X-8005010Y7271493D01*
X-8052442Y7296846D01*
X-8094027Y7330973D01*
X-8128154Y7372558D01*
X-8153507Y7419990D01*
X-8169123Y7471470D01*
X-8175000Y7531140D01*
X-8175000Y8418860D01*
X-8169123Y8478530D01*
X-8153507Y8530010D01*
X-8128154Y8577442D01*
X-8094027Y8619027D01*
X-8052442Y8653154D01*
X-8005010Y8678507D01*
X-7953530Y8694123D01*
X-7893860Y8700000D01*
X-7106140Y8700000D01*
X-7046470Y8694123D01*
X-7046470Y8694123D01*
G37*
G36*
X5156800Y7664400D02*
X3956800Y7664400D01*
X3956800Y8964400D01*
X5156800Y8964400D01*
X5156800Y7664400D01*
X5156800Y7664400D01*
G37*
G36*
X3256800Y7664400D02*
X2056800Y7664400D01*
X2056800Y8964400D01*
X3256800Y8964400D01*
X3256800Y7664400D01*
X3256800Y7664400D01*
G37*
G36*
X-19495817Y9373100D02*
X-19368426Y9320332D01*
X-19253775Y9243725D01*
X-19156275Y9146225D01*
X-19079668Y9031574D01*
X-19026900Y8904183D01*
X-19000000Y8768945D01*
X-19000000Y8631055D01*
X-19026900Y8495817D01*
X-19079668Y8368426D01*
X-19156274Y8253776D01*
X-19253776Y8156274D01*
X-19368426Y8079668D01*
X-19495817Y8026900D01*
X-19631055Y8000000D01*
X-19768945Y8000000D01*
X-19904183Y8026900D01*
X-20031574Y8079668D01*
X-20146224Y8156274D01*
X-20243726Y8253776D01*
X-20320332Y8368426D01*
X-20373100Y8495817D01*
X-20400000Y8631055D01*
X-20400000Y8768945D01*
X-20373100Y8904183D01*
X-20320332Y9031574D01*
X-20243725Y9146225D01*
X-20146225Y9243725D01*
X-20031574Y9320332D01*
X-19904183Y9373100D01*
X-19768945Y9400000D01*
X-19631055Y9400000D01*
X-19495817Y9373100D01*
X-19495817Y9373100D01*
G37*
G36*
X-16995817Y9373100D02*
X-16868426Y9320332D01*
X-16753775Y9243725D01*
X-16656275Y9146225D01*
X-16579668Y9031574D01*
X-16526900Y8904183D01*
X-16500000Y8768945D01*
X-16500000Y8631055D01*
X-16526900Y8495817D01*
X-16579668Y8368426D01*
X-16656274Y8253776D01*
X-16753776Y8156274D01*
X-16868426Y8079668D01*
X-16995817Y8026900D01*
X-17131055Y8000000D01*
X-17268945Y8000000D01*
X-17404183Y8026900D01*
X-17531574Y8079668D01*
X-17646224Y8156274D01*
X-17743726Y8253776D01*
X-17820332Y8368426D01*
X-17873100Y8495817D01*
X-17900000Y8631055D01*
X-17900000Y8768945D01*
X-17873100Y8904183D01*
X-17820332Y9031574D01*
X-17743725Y9146225D01*
X-17646225Y9243725D01*
X-17531574Y9320332D01*
X-17404183Y9373100D01*
X-17268945Y9400000D01*
X-17131055Y9400000D01*
X-16995817Y9373100D01*
X-16995817Y9373100D01*
G37*
G36*
X8886330Y9953323D02*
X8937810Y9937707D01*
X8985242Y9912354D01*
X9026827Y9878227D01*
X9060954Y9836642D01*
X9086307Y9789210D01*
X9101923Y9737730D01*
X9107800Y9678060D01*
X9107800Y8790340D01*
X9101923Y8730670D01*
X9086307Y8679190D01*
X9060954Y8631758D01*
X9026827Y8590173D01*
X8985242Y8556046D01*
X8937810Y8530693D01*
X8886330Y8515077D01*
X8826660Y8509200D01*
X8038940Y8509200D01*
X7979270Y8515077D01*
X7927790Y8530693D01*
X7880358Y8556046D01*
X7838773Y8590173D01*
X7804646Y8631758D01*
X7779293Y8679190D01*
X7763677Y8730670D01*
X7757800Y8790340D01*
X7757800Y9678060D01*
X7763677Y9737730D01*
X7779293Y9789210D01*
X7804646Y9836642D01*
X7838773Y9878227D01*
X7880358Y9912354D01*
X7927790Y9937707D01*
X7979270Y9953323D01*
X8038940Y9959200D01*
X8826660Y9959200D01*
X8886330Y9953323D01*
X8886330Y9953323D01*
G37*
G36*
X-11522842Y16721262D02*
X-10913181Y16468732D01*
X-10364497Y16102113D01*
X-9897887Y15635503D01*
X-9531268Y15086819D01*
X-9278738Y14477158D01*
X-9150000Y13829948D01*
X-9150000Y13170052D01*
X-9278738Y12522842D01*
X-9531268Y11913181D01*
X-9897887Y11364497D01*
X-10364497Y10897887D01*
X-10913181Y10531268D01*
X-11522842Y10278738D01*
X-12170052Y10150000D01*
X-12829948Y10150000D01*
X-13477158Y10278738D01*
X-14086819Y10531268D01*
X-14635503Y10897887D01*
X-15102113Y11364497D01*
X-15468732Y11913181D01*
X-15721262Y12522842D01*
X-15850000Y13170052D01*
X-15850000Y13829948D01*
X-15721262Y14477158D01*
X-15468732Y15086819D01*
X-15102113Y15635503D01*
X-14635503Y16102113D01*
X-14086819Y16468732D01*
X-13477158Y16721262D01*
X-12829948Y16850000D01*
X-12170052Y16850000D01*
X-11522842Y16721262D01*
X-11522842Y16721262D01*
G37*
G36*
X-4206946Y13268094D02*
X-4206944Y13268093D01*
X-4206943Y13268093D01*
X-4139715Y13240246D01*
X-3918036Y13148424D01*
X-3658025Y12974690D01*
X-3436910Y12753575D01*
X-3263176Y12493564D01*
X-3228766Y12410491D01*
X-3148382Y12216427D01*
X-3143506Y12204654D01*
X-3082500Y11897957D01*
X-3082500Y11585243D01*
X-3143506Y11278546D01*
X-3263176Y10989636D01*
X-3436910Y10729625D01*
X-3658025Y10508510D01*
X-3918036Y10334776D01*
X-4053322Y10278739D01*
X-4206943Y10215107D01*
X-4206944Y10215107D01*
X-4206946Y10215106D01*
X-4513643Y10154100D01*
X-4826357Y10154100D01*
X-5133054Y10215106D01*
X-5133056Y10215107D01*
X-5133057Y10215107D01*
X-5286678Y10278739D01*
X-5421964Y10334776D01*
X-5681975Y10508510D01*
X-5903090Y10729625D01*
X-6076824Y10989636D01*
X-6196494Y11278546D01*
X-6257500Y11585243D01*
X-6257500Y11897957D01*
X-6196494Y12204654D01*
X-6191617Y12216427D01*
X-6111234Y12410491D01*
X-6076824Y12493564D01*
X-5903090Y12753575D01*
X-5681975Y12974690D01*
X-5421964Y13148424D01*
X-5200285Y13240246D01*
X-5133057Y13268093D01*
X-5133056Y13268093D01*
X-5133054Y13268094D01*
X-4826357Y13329100D01*
X-4513643Y13329100D01*
X-4206946Y13268094D01*
X-4206946Y13268094D01*
G37*
G36*
X493054Y13268094D02*
X493056Y13268093D01*
X493057Y13268093D01*
X560285Y13240246D01*
X781964Y13148424D01*
X1041975Y12974690D01*
X1263090Y12753575D01*
X1436824Y12493564D01*
X1471234Y12410491D01*
X1551618Y12216427D01*
X1556494Y12204654D01*
X1617500Y11897957D01*
X1617500Y11585243D01*
X1556494Y11278546D01*
X1436824Y10989636D01*
X1263090Y10729625D01*
X1041975Y10508510D01*
X781964Y10334776D01*
X646678Y10278739D01*
X493057Y10215107D01*
X493056Y10215107D01*
X493054Y10215106D01*
X186357Y10154100D01*
X-126357Y10154100D01*
X-433054Y10215106D01*
X-433056Y10215107D01*
X-433057Y10215107D01*
X-586678Y10278739D01*
X-721964Y10334776D01*
X-981975Y10508510D01*
X-1203090Y10729625D01*
X-1376824Y10989636D01*
X-1496494Y11278546D01*
X-1557500Y11585243D01*
X-1557500Y11897957D01*
X-1496494Y12204654D01*
X-1491617Y12216427D01*
X-1411234Y12410491D01*
X-1376824Y12493564D01*
X-1203090Y12753575D01*
X-981975Y12974690D01*
X-721964Y13148424D01*
X-500285Y13240246D01*
X-433057Y13268093D01*
X-433056Y13268093D01*
X-433054Y13268094D01*
X-126357Y13329100D01*
X186357Y13329100D01*
X493054Y13268094D01*
X493054Y13268094D01*
G37*
G36*
X5193054Y13268094D02*
X5193056Y13268093D01*
X5193057Y13268093D01*
X5260285Y13240246D01*
X5481964Y13148424D01*
X5741975Y12974690D01*
X5963090Y12753575D01*
X6136824Y12493564D01*
X6171234Y12410491D01*
X6251618Y12216427D01*
X6256494Y12204654D01*
X6317500Y11897957D01*
X6317500Y11585243D01*
X6256494Y11278546D01*
X6136824Y10989636D01*
X5963090Y10729625D01*
X5741975Y10508510D01*
X5481964Y10334776D01*
X5346678Y10278739D01*
X5193057Y10215107D01*
X5193056Y10215107D01*
X5193054Y10215106D01*
X4886357Y10154100D01*
X4573643Y10154100D01*
X4266946Y10215106D01*
X4266944Y10215107D01*
X4266943Y10215107D01*
X4113322Y10278739D01*
X3978036Y10334776D01*
X3718025Y10508510D01*
X3496910Y10729625D01*
X3323176Y10989636D01*
X3203506Y11278546D01*
X3142500Y11585243D01*
X3142500Y11897957D01*
X3203506Y12204654D01*
X3208383Y12216427D01*
X3288766Y12410491D01*
X3323176Y12493564D01*
X3496910Y12753575D01*
X3718025Y12974690D01*
X3978036Y13148424D01*
X4199715Y13240246D01*
X4266943Y13268093D01*
X4266944Y13268093D01*
X4266946Y13268094D01*
X4573643Y13329100D01*
X4886357Y13329100D01*
X5193054Y13268094D01*
X5193054Y13268094D01*
G37*
G36*
X13462574Y16673183D02*
X14063135Y16424423D01*
X14603630Y16063275D01*
X15063275Y15603630D01*
X15424423Y15063135D01*
X15673183Y14462574D01*
X15800000Y13825023D01*
X15800000Y13174977D01*
X15673183Y12537426D01*
X15424423Y11936865D01*
X15063275Y11396370D01*
X14603630Y10936725D01*
X14063135Y10575577D01*
X13462574Y10326817D01*
X12825023Y10200000D01*
X12174977Y10200000D01*
X11537426Y10326817D01*
X10936865Y10575577D01*
X10396370Y10936725D01*
X9936725Y11396370D01*
X9575577Y11936865D01*
X9326817Y12537426D01*
X9200000Y13174977D01*
X9200000Y13825023D01*
X9326817Y14462574D01*
X9575577Y15063135D01*
X9936725Y15603630D01*
X10396370Y16063275D01*
X10936865Y16424423D01*
X11537426Y16673183D01*
X12174977Y16800000D01*
X12825023Y16800000D01*
X13462574Y16673183D01*
X13462574Y16673183D01*
G37*
G36*
X8886330Y11703323D02*
X8937810Y11687707D01*
X8985242Y11662354D01*
X9026827Y11628227D01*
X9060954Y11586642D01*
X9086307Y11539210D01*
X9101923Y11487730D01*
X9107800Y11428060D01*
X9107800Y10540340D01*
X9101923Y10480670D01*
X9086307Y10429190D01*
X9060954Y10381758D01*
X9026827Y10340173D01*
X8985242Y10306046D01*
X8937810Y10280693D01*
X8886330Y10265077D01*
X8826660Y10259200D01*
X8038940Y10259200D01*
X7979270Y10265077D01*
X7927790Y10280693D01*
X7880358Y10306046D01*
X7838773Y10340173D01*
X7804646Y10381758D01*
X7779293Y10429190D01*
X7763677Y10480670D01*
X7757800Y10540340D01*
X7757800Y11428060D01*
X7763677Y11487730D01*
X7779293Y11539210D01*
X7804646Y11586642D01*
X7838773Y11628227D01*
X7880358Y11662354D01*
X7927790Y11687707D01*
X7979270Y11703323D01*
X8038940Y11709200D01*
X8826660Y11709200D01*
X8886330Y11703323D01*
X8886330Y11703323D01*
G37*
G36*
X22338150Y12446371D02*
X22518536Y12410491D01*
X22709624Y12331339D01*
X22881598Y12216430D01*
X23027851Y12070177D01*
X23142760Y11898203D01*
X23221912Y11707115D01*
X23262262Y11504257D01*
X23262262Y11297425D01*
X23221912Y11094567D01*
X23142760Y10903479D01*
X23027851Y10731505D01*
X22881598Y10585252D01*
X22709624Y10470343D01*
X22518536Y10391191D01*
X22338150Y10355311D01*
X22315679Y10350841D01*
X22108845Y10350841D01*
X22086374Y10355311D01*
X21905988Y10391191D01*
X21714900Y10470343D01*
X21542926Y10585252D01*
X21396673Y10731505D01*
X21281764Y10903479D01*
X21202612Y11094567D01*
X21162262Y11297425D01*
X21162262Y11504257D01*
X21202612Y11707115D01*
X21281764Y11898203D01*
X21396673Y12070177D01*
X21542926Y12216430D01*
X21714900Y12331339D01*
X21905988Y12410491D01*
X22086374Y12446371D01*
X22108845Y12450841D01*
X22315679Y12450841D01*
X22338150Y12446371D01*
X22338150Y12446371D01*
G37*
G36*
X18182262Y10350841D02*
X16082262Y10350841D01*
X16082262Y12450841D01*
X18182262Y12450841D01*
X18182262Y10350841D01*
X18182262Y10350841D01*
G37*
G36*
X19800969Y12443245D02*
X19878098Y12435648D01*
X20010049Y12395621D01*
X20076025Y12375608D01*
X20258434Y12278108D01*
X20418316Y12146895D01*
X20549529Y11987013D01*
X20647029Y11804604D01*
X20647029Y11804603D01*
X20707069Y11606677D01*
X20727342Y11400841D01*
X20707069Y11195005D01*
X20667042Y11063054D01*
X20647029Y10997078D01*
X20549529Y10814669D01*
X20418316Y10654787D01*
X20258434Y10523574D01*
X20076025Y10426074D01*
X20020381Y10409195D01*
X19878098Y10366034D01*
X19800969Y10358437D01*
X19723842Y10350841D01*
X19620682Y10350841D01*
X19543555Y10358437D01*
X19466426Y10366034D01*
X19324143Y10409195D01*
X19268499Y10426074D01*
X19086090Y10523574D01*
X18926208Y10654787D01*
X18794995Y10814669D01*
X18697495Y10997078D01*
X18677482Y11063054D01*
X18637455Y11195005D01*
X18617182Y11400841D01*
X18637455Y11606677D01*
X18697495Y11804603D01*
X18697495Y11804604D01*
X18794995Y11987013D01*
X18926208Y12146895D01*
X19086090Y12278108D01*
X19268499Y12375608D01*
X19334475Y12395621D01*
X19466426Y12435648D01*
X19543555Y12443244D01*
X19620682Y12450841D01*
X19723842Y12450841D01*
X19800969Y12443245D01*
X19800969Y12443245D01*
G37*
G36*
X-22139031Y12543245D02*
X-22061902Y12535648D01*
X-21929951Y12495621D01*
X-21863975Y12475608D01*
X-21681566Y12378108D01*
X-21521684Y12246895D01*
X-21390471Y12087013D01*
X-21292971Y11904604D01*
X-21290955Y11897957D01*
X-21232931Y11706677D01*
X-21212658Y11500841D01*
X-21232931Y11295005D01*
X-21272958Y11163054D01*
X-21292971Y11097078D01*
X-21390471Y10914669D01*
X-21521684Y10754787D01*
X-21681566Y10623574D01*
X-21863975Y10526074D01*
X-21929951Y10506061D01*
X-22061902Y10466034D01*
X-22139031Y10458437D01*
X-22216158Y10450841D01*
X-22319318Y10450841D01*
X-22396445Y10458437D01*
X-22473574Y10466034D01*
X-22605525Y10506061D01*
X-22671501Y10526074D01*
X-22853910Y10623574D01*
X-23013792Y10754787D01*
X-23145005Y10914669D01*
X-23242505Y11097078D01*
X-23262518Y11163054D01*
X-23302545Y11295005D01*
X-23322818Y11500841D01*
X-23302545Y11706677D01*
X-23244521Y11897957D01*
X-23242505Y11904604D01*
X-23145005Y12087013D01*
X-23013792Y12246895D01*
X-22853910Y12378108D01*
X-22671501Y12475608D01*
X-22605525Y12495621D01*
X-22473574Y12535648D01*
X-22396445Y12543245D01*
X-22319318Y12550841D01*
X-22216158Y12550841D01*
X-22139031Y12543245D01*
X-22139031Y12543245D01*
G37*
G36*
X-19599031Y12543245D02*
X-19521902Y12535648D01*
X-19389951Y12495621D01*
X-19323975Y12475608D01*
X-19141566Y12378108D01*
X-18981684Y12246895D01*
X-18850471Y12087013D01*
X-18752971Y11904604D01*
X-18750955Y11897957D01*
X-18692931Y11706677D01*
X-18672658Y11500841D01*
X-18692931Y11295005D01*
X-18732958Y11163054D01*
X-18752971Y11097078D01*
X-18850471Y10914669D01*
X-18981684Y10754787D01*
X-19141566Y10623574D01*
X-19323975Y10526074D01*
X-19389951Y10506061D01*
X-19521902Y10466034D01*
X-19599031Y10458437D01*
X-19676158Y10450841D01*
X-19779318Y10450841D01*
X-19856445Y10458437D01*
X-19933574Y10466034D01*
X-20065525Y10506061D01*
X-20131501Y10526074D01*
X-20313910Y10623574D01*
X-20473792Y10754787D01*
X-20605005Y10914669D01*
X-20702505Y11097078D01*
X-20722518Y11163054D01*
X-20762545Y11295005D01*
X-20782818Y11500841D01*
X-20762545Y11706677D01*
X-20704521Y11897957D01*
X-20702505Y11904604D01*
X-20605005Y12087013D01*
X-20473792Y12246895D01*
X-20313910Y12378108D01*
X-20131501Y12475608D01*
X-20065525Y12495621D01*
X-19933574Y12535648D01*
X-19856445Y12543245D01*
X-19779318Y12550841D01*
X-19676158Y12550841D01*
X-19599031Y12543245D01*
X-19599031Y12543245D01*
G37*
G36*
X-17061850Y12546371D02*
X-16881464Y12510491D01*
X-16690376Y12431339D01*
X-16518402Y12316430D01*
X-16372149Y12170177D01*
X-16257240Y11998203D01*
X-16178088Y11807115D01*
X-16137738Y11604257D01*
X-16137738Y11397425D01*
X-16178088Y11194567D01*
X-16257240Y11003479D01*
X-16372149Y10831505D01*
X-16518402Y10685252D01*
X-16690376Y10570343D01*
X-16881464Y10491191D01*
X-17061850Y10455311D01*
X-17084321Y10450841D01*
X-17291155Y10450841D01*
X-17313626Y10455311D01*
X-17494012Y10491191D01*
X-17685100Y10570343D01*
X-17857074Y10685252D01*
X-18003327Y10831505D01*
X-18118236Y11003479D01*
X-18197388Y11194567D01*
X-18237738Y11397425D01*
X-18237738Y11604257D01*
X-18197388Y11807115D01*
X-18118236Y11998203D01*
X-18003327Y12170177D01*
X-17857074Y12316430D01*
X-17685100Y12431339D01*
X-17494012Y12510491D01*
X-17313626Y12546371D01*
X-17291155Y12550841D01*
X-17084321Y12550841D01*
X-17061850Y12546371D01*
X-17061850Y12546371D01*
G37*
G36*
X-18507069Y14537523D02*
X-18455589Y14521907D01*
X-18408157Y14496554D01*
X-18366572Y14462427D01*
X-18332445Y14420842D01*
X-18307092Y14373410D01*
X-18291476Y14321930D01*
X-18285599Y14262260D01*
X-18285599Y13474540D01*
X-18291476Y13414870D01*
X-18307092Y13363390D01*
X-18332445Y13315958D01*
X-18366572Y13274373D01*
X-18408157Y13240246D01*
X-18455589Y13214893D01*
X-18507069Y13199277D01*
X-18566739Y13193400D01*
X-19454459Y13193400D01*
X-19514129Y13199277D01*
X-19565609Y13214893D01*
X-19613041Y13240246D01*
X-19654626Y13274373D01*
X-19688753Y13315958D01*
X-19714106Y13363390D01*
X-19729722Y13414870D01*
X-19735599Y13474540D01*
X-19735599Y14262260D01*
X-19729722Y14321930D01*
X-19714106Y14373410D01*
X-19688753Y14420842D01*
X-19654626Y14462427D01*
X-19613041Y14496554D01*
X-19565609Y14521907D01*
X-19514129Y14537523D01*
X-19454459Y14543400D01*
X-18566739Y14543400D01*
X-18507069Y14537523D01*
X-18507069Y14537523D01*
G37*
G36*
X-16757071Y14537523D02*
X-16705591Y14521907D01*
X-16658159Y14496554D01*
X-16616574Y14462427D01*
X-16582447Y14420842D01*
X-16557094Y14373410D01*
X-16541478Y14321930D01*
X-16535601Y14262260D01*
X-16535601Y13474540D01*
X-16541478Y13414870D01*
X-16557094Y13363390D01*
X-16582447Y13315958D01*
X-16616574Y13274373D01*
X-16658159Y13240246D01*
X-16705591Y13214893D01*
X-16757071Y13199277D01*
X-16816741Y13193400D01*
X-17704461Y13193400D01*
X-17764131Y13199277D01*
X-17815611Y13214893D01*
X-17863043Y13240246D01*
X-17904628Y13274373D01*
X-17938755Y13315958D01*
X-17964108Y13363390D01*
X-17979724Y13414870D01*
X-17985601Y13474540D01*
X-17985601Y14262260D01*
X-17979724Y14321930D01*
X-17964108Y14373410D01*
X-17938755Y14420842D01*
X-17904628Y14462427D01*
X-17863043Y14496554D01*
X-17815611Y14521907D01*
X-17764131Y14537523D01*
X-17704461Y14543400D01*
X-16816741Y14543400D01*
X-16757071Y14537523D01*
X-16757071Y14537523D01*
G37*
G36*
X8636983Y16173100D02*
X8764374Y16120332D01*
X8849767Y16063275D01*
X8879025Y16043725D01*
X8976525Y15946225D01*
X9053132Y15831574D01*
X9105900Y15704183D01*
X9132800Y15568945D01*
X9132800Y15431055D01*
X9105900Y15295817D01*
X9053132Y15168426D01*
X8976525Y15053775D01*
X8879025Y14956275D01*
X8764374Y14879668D01*
X8636983Y14826900D01*
X8501745Y14800000D01*
X8363855Y14800000D01*
X8228617Y14826900D01*
X8101226Y14879668D01*
X7986575Y14956275D01*
X7889075Y15053775D01*
X7812468Y15168426D01*
X7759700Y15295817D01*
X7732800Y15431055D01*
X7732800Y15568945D01*
X7759700Y15704183D01*
X7812468Y15831574D01*
X7889075Y15946225D01*
X7986575Y16043725D01*
X8015834Y16063275D01*
X8101226Y16120332D01*
X8228617Y16173100D01*
X8363855Y16200000D01*
X8501745Y16200000D01*
X8636983Y16173100D01*
X8636983Y16173100D01*
G37*
G36*
X-7369670Y16811323D02*
X-7318190Y16795707D01*
X-7270758Y16770354D01*
X-7229173Y16736227D01*
X-7195046Y16694642D01*
X-7169693Y16647210D01*
X-7154077Y16595730D01*
X-7148200Y16536060D01*
X-7148200Y15648340D01*
X-7154077Y15588670D01*
X-7169693Y15537190D01*
X-7195046Y15489758D01*
X-7229173Y15448173D01*
X-7270758Y15414046D01*
X-7318190Y15388693D01*
X-7369670Y15373077D01*
X-7429340Y15367200D01*
X-8217060Y15367200D01*
X-8276730Y15373077D01*
X-8328210Y15388693D01*
X-8375642Y15414046D01*
X-8417227Y15448173D01*
X-8451354Y15489758D01*
X-8476707Y15537190D01*
X-8492323Y15588670D01*
X-8498200Y15648340D01*
X-8498200Y16536060D01*
X-8492323Y16595730D01*
X-8476707Y16647210D01*
X-8451354Y16694642D01*
X-8417227Y16736227D01*
X-8375642Y16770354D01*
X-8328210Y16795707D01*
X-8276730Y16811323D01*
X-8217060Y16817200D01*
X-7429340Y16817200D01*
X-7369670Y16811323D01*
X-7369670Y16811323D01*
G37*
G36*
X-7369670Y18561323D02*
X-7318190Y18545707D01*
X-7270758Y18520354D01*
X-7229173Y18486227D01*
X-7195046Y18444642D01*
X-7169693Y18397210D01*
X-7154077Y18345730D01*
X-7148200Y18286060D01*
X-7148200Y17398340D01*
X-7154077Y17338670D01*
X-7169693Y17287190D01*
X-7195046Y17239758D01*
X-7229173Y17198173D01*
X-7270758Y17164046D01*
X-7318190Y17138693D01*
X-7369670Y17123077D01*
X-7429340Y17117200D01*
X-8217060Y17117200D01*
X-8276730Y17123077D01*
X-8328210Y17138693D01*
X-8375642Y17164046D01*
X-8417227Y17198173D01*
X-8451354Y17239758D01*
X-8476707Y17287190D01*
X-8492323Y17338670D01*
X-8498200Y17398340D01*
X-8498200Y18286060D01*
X-8492323Y18345730D01*
X-8476707Y18397210D01*
X-8451354Y18444642D01*
X-8417227Y18486227D01*
X-8375642Y18520354D01*
X-8328210Y18545707D01*
X-8276730Y18561323D01*
X-8217060Y18567200D01*
X-7429340Y18567200D01*
X-7369670Y18561323D01*
X-7369670Y18561323D01*
G37*
G36*
X-12389600Y18668400D02*
X-13689600Y18668400D01*
X-13689600Y19868400D01*
X-12389600Y19868400D01*
X-12389600Y18668400D01*
X-12389600Y18668400D01*
G37*
G36*
X10702931Y20887523D02*
X10754411Y20871907D01*
X10801843Y20846554D01*
X10843428Y20812427D01*
X10877555Y20770842D01*
X10902908Y20723410D01*
X10918524Y20671930D01*
X10924401Y20612260D01*
X10924401Y19824540D01*
X10918524Y19764870D01*
X10902908Y19713390D01*
X10877555Y19665958D01*
X10843428Y19624373D01*
X10801843Y19590246D01*
X10754411Y19564893D01*
X10702931Y19549277D01*
X10643261Y19543400D01*
X9755541Y19543400D01*
X9695871Y19549277D01*
X9644391Y19564893D01*
X9596959Y19590246D01*
X9555374Y19624373D01*
X9521247Y19665958D01*
X9495894Y19713390D01*
X9480278Y19764870D01*
X9474401Y19824540D01*
X9474401Y20612260D01*
X9480278Y20671930D01*
X9495894Y20723410D01*
X9521247Y20770842D01*
X9555374Y20812427D01*
X9596959Y20846554D01*
X9644391Y20871907D01*
X9695871Y20887523D01*
X9755541Y20893400D01*
X10643261Y20893400D01*
X10702931Y20887523D01*
X10702931Y20887523D01*
G37*
G36*
X12452929Y20887523D02*
X12504409Y20871907D01*
X12551841Y20846554D01*
X12593426Y20812427D01*
X12627553Y20770842D01*
X12652906Y20723410D01*
X12668522Y20671930D01*
X12674399Y20612260D01*
X12674399Y19824540D01*
X12668522Y19764870D01*
X12652906Y19713390D01*
X12627553Y19665958D01*
X12593426Y19624373D01*
X12551841Y19590246D01*
X12504409Y19564893D01*
X12452929Y19549277D01*
X12393259Y19543400D01*
X11505539Y19543400D01*
X11445869Y19549277D01*
X11394389Y19564893D01*
X11346957Y19590246D01*
X11305372Y19624373D01*
X11271245Y19665958D01*
X11245892Y19713390D01*
X11230276Y19764870D01*
X11224399Y19824540D01*
X11224399Y20612260D01*
X11230276Y20671930D01*
X11245892Y20723410D01*
X11271245Y20770842D01*
X11305372Y20812427D01*
X11346957Y20846554D01*
X11394389Y20871907D01*
X11445869Y20887523D01*
X11505539Y20893400D01*
X12393259Y20893400D01*
X12452929Y20887523D01*
X12452929Y20887523D01*
G37*
G36*
X-10389600Y19618400D02*
X-11689600Y19618400D01*
X-11689600Y20818400D01*
X-10389600Y20818400D01*
X-10389600Y19618400D01*
X-10389600Y19618400D01*
G37*
G36*
X7098054Y22798094D02*
X7098056Y22798093D01*
X7098057Y22798093D01*
X7204777Y22753888D01*
X7386964Y22678424D01*
X7646975Y22504690D01*
X7868090Y22283575D01*
X8041824Y22023564D01*
X8161494Y21734654D01*
X8222500Y21427957D01*
X8222500Y21115243D01*
X8161494Y20808546D01*
X8041824Y20519636D01*
X7868090Y20259625D01*
X7646975Y20038510D01*
X7386964Y19864776D01*
X7289825Y19824540D01*
X7098057Y19745107D01*
X7098056Y19745107D01*
X7098054Y19745106D01*
X6791357Y19684100D01*
X6478643Y19684100D01*
X6171946Y19745106D01*
X6171944Y19745107D01*
X6171943Y19745107D01*
X5980175Y19824540D01*
X5883036Y19864776D01*
X5623025Y20038510D01*
X5401910Y20259625D01*
X5228176Y20519636D01*
X5108506Y20808546D01*
X5047500Y21115243D01*
X5047500Y21427957D01*
X5108506Y21734654D01*
X5228176Y22023564D01*
X5401910Y22283575D01*
X5623025Y22504690D01*
X5883036Y22678424D01*
X6065223Y22753888D01*
X6171943Y22798093D01*
X6171944Y22798093D01*
X6171946Y22798094D01*
X6478643Y22859100D01*
X6791357Y22859100D01*
X7098054Y22798094D01*
X7098054Y22798094D01*
G37*
G36*
X-6111946Y22798094D02*
X-6111944Y22798093D01*
X-6111943Y22798093D01*
X-6005223Y22753888D01*
X-5823036Y22678424D01*
X-5563025Y22504690D01*
X-5341910Y22283575D01*
X-5168176Y22023564D01*
X-5048506Y21734654D01*
X-4987500Y21427957D01*
X-4987500Y21115243D01*
X-5048506Y20808546D01*
X-5168176Y20519636D01*
X-5341910Y20259625D01*
X-5563025Y20038510D01*
X-5823036Y19864776D01*
X-5920175Y19824540D01*
X-6111943Y19745107D01*
X-6111944Y19745107D01*
X-6111946Y19745106D01*
X-6418643Y19684100D01*
X-6731357Y19684100D01*
X-7038054Y19745106D01*
X-7038056Y19745107D01*
X-7038057Y19745107D01*
X-7229825Y19824540D01*
X-7326964Y19864776D01*
X-7586975Y20038510D01*
X-7808090Y20259625D01*
X-7981824Y20519636D01*
X-8101494Y20808546D01*
X-8162500Y21115243D01*
X-8162500Y21427957D01*
X-8101494Y21734654D01*
X-7981824Y22023564D01*
X-7808090Y22283575D01*
X-7586975Y22504690D01*
X-7326964Y22678424D01*
X-7144777Y22753888D01*
X-7038057Y22798093D01*
X-7038056Y22798093D01*
X-7038054Y22798094D01*
X-6731357Y22859100D01*
X-6418643Y22859100D01*
X-6111946Y22798094D01*
X-6111946Y22798094D01*
G37*
G36*
X-12389600Y20568400D02*
X-13689600Y20568400D01*
X-13689600Y21768400D01*
X-12389600Y21768400D01*
X-12389600Y20568400D01*
X-12389600Y20568400D01*
G37*
G36*
X-5908670Y25154723D02*
X-5857190Y25139107D01*
X-5809758Y25113754D01*
X-5768173Y25079627D01*
X-5734046Y25038042D01*
X-5708693Y24990610D01*
X-5693077Y24939130D01*
X-5687200Y24879460D01*
X-5687200Y24091740D01*
X-5693077Y24032070D01*
X-5708693Y23980590D01*
X-5734046Y23933158D01*
X-5768173Y23891573D01*
X-5809758Y23857446D01*
X-5857190Y23832093D01*
X-5908670Y23816477D01*
X-5968340Y23810600D01*
X-6856060Y23810600D01*
X-6915730Y23816477D01*
X-6967210Y23832093D01*
X-7014642Y23857446D01*
X-7056227Y23891573D01*
X-7090354Y23933158D01*
X-7115707Y23980590D01*
X-7131323Y24032070D01*
X-7137200Y24091740D01*
X-7137200Y24879460D01*
X-7131323Y24939130D01*
X-7115707Y24990610D01*
X-7090354Y25038042D01*
X-7056227Y25079627D01*
X-7014642Y25113754D01*
X-6967210Y25139107D01*
X-6915730Y25154723D01*
X-6856060Y25160600D01*
X-5968340Y25160600D01*
X-5908670Y25154723D01*
X-5908670Y25154723D01*
G37*
G36*
X-4158670Y25154723D02*
X-4107190Y25139107D01*
X-4059758Y25113754D01*
X-4018173Y25079627D01*
X-3984046Y25038042D01*
X-3958693Y24990610D01*
X-3943077Y24939130D01*
X-3937200Y24879460D01*
X-3937200Y24091740D01*
X-3943077Y24032070D01*
X-3958693Y23980590D01*
X-3984046Y23933158D01*
X-4018173Y23891573D01*
X-4059758Y23857446D01*
X-4107190Y23832093D01*
X-4158670Y23816477D01*
X-4218340Y23810600D01*
X-5106060Y23810600D01*
X-5165730Y23816477D01*
X-5217210Y23832093D01*
X-5264642Y23857446D01*
X-5306227Y23891573D01*
X-5340354Y23933158D01*
X-5365707Y23980590D01*
X-5381323Y24032070D01*
X-5387200Y24091740D01*
X-5387200Y24879460D01*
X-5381323Y24939130D01*
X-5365707Y24990610D01*
X-5340354Y25038042D01*
X-5306227Y25079627D01*
X-5264642Y25113754D01*
X-5217210Y25139107D01*
X-5165730Y25154723D01*
X-5106060Y25160600D01*
X-4218340Y25160600D01*
X-4158670Y25154723D01*
X-4158670Y25154723D01*
G37*
G36*
X5114930Y25154723D02*
X5166410Y25139107D01*
X5213842Y25113754D01*
X5255427Y25079627D01*
X5289554Y25038042D01*
X5314907Y24990610D01*
X5330523Y24939130D01*
X5336400Y24879460D01*
X5336400Y24091740D01*
X5330523Y24032070D01*
X5314907Y23980590D01*
X5289554Y23933158D01*
X5255427Y23891573D01*
X5213842Y23857446D01*
X5166410Y23832093D01*
X5114930Y23816477D01*
X5055260Y23810600D01*
X4167540Y23810600D01*
X4107870Y23816477D01*
X4056390Y23832093D01*
X4008958Y23857446D01*
X3967373Y23891573D01*
X3933246Y23933158D01*
X3907893Y23980590D01*
X3892277Y24032070D01*
X3886400Y24091740D01*
X3886400Y24879460D01*
X3892277Y24939130D01*
X3907893Y24990610D01*
X3933246Y25038042D01*
X3967373Y25079627D01*
X4008958Y25113754D01*
X4056390Y25139107D01*
X4107870Y25154723D01*
X4167540Y25160600D01*
X5055260Y25160600D01*
X5114930Y25154723D01*
X5114930Y25154723D01*
G37*
G36*
X6864930Y25154723D02*
X6916410Y25139107D01*
X6963842Y25113754D01*
X7005427Y25079627D01*
X7039554Y25038042D01*
X7064907Y24990610D01*
X7080523Y24939130D01*
X7086400Y24879460D01*
X7086400Y24091740D01*
X7080523Y24032070D01*
X7064907Y23980590D01*
X7039554Y23933158D01*
X7005427Y23891573D01*
X6963842Y23857446D01*
X6916410Y23832093D01*
X6864930Y23816477D01*
X6805260Y23810600D01*
X5917540Y23810600D01*
X5857870Y23816477D01*
X5806390Y23832093D01*
X5758958Y23857446D01*
X5717373Y23891573D01*
X5683246Y23933158D01*
X5657893Y23980590D01*
X5642277Y24032070D01*
X5636400Y24091740D01*
X5636400Y24879460D01*
X5642277Y24939130D01*
X5657893Y24990610D01*
X5683246Y25038042D01*
X5717373Y25079627D01*
X5758958Y25113754D01*
X5806390Y25139107D01*
X5857870Y25154723D01*
X5917540Y25160600D01*
X6805260Y25160600D01*
X6864930Y25154723D01*
X6864930Y25154723D01*
G37*
M02*
