M48
;DRILL file {KiCad (5.0.0)} date 01/09/19 16:36:55
;FORMAT={-:-/ absolute / metric / decimal}
FMAT,2
METRIC,TZ
T1C0.300
T2C0.400
T3C0.500
T4C1.000
T5C1.850
T6C3.200
T7C5.000
T8C5.300
%
G90
G05
M71
T1
X-20.9Y1.3
X-11.4Y1.3
X-11.227Y17.678
X-9.3Y9.4
X-7.45Y2.154
X-3.345Y-9.255
X0.102Y24.486
X3.41Y-9.28
X4.597Y-8.89
X4.662Y-6.252
X5.6Y-7.
X6.725Y-0.79
X7.5Y1.9
X7.55Y-4.766
X7.823Y-15.164
X8.4Y-8.58
X8.407Y-2.057
X8.69Y-9.82
X9.422Y-18.347
X9.95Y-11.37
X9.97Y-0.59
X10.26Y1.27
X10.271Y-3.269
X10.271Y-4.894
X10.847Y-9.785
X11.1Y-4.09
X11.896Y-4.894
X11.947Y-3.269
X12.392Y-18.397
X13.391Y-10.523
X14.275Y-15.062
X14.9Y-1.2
X15.5Y-3.9
X16.5Y-3.9
X23.1Y-5.9
T2
X15.494Y9.144
X16.307Y5.537
X16.916Y9.093
X18.186Y8.585
X18.644Y7.163
T3
X20.9Y-7.8
T4
X20.9Y0.
X20.9Y-2.54
X20.9Y-5.08
X12.82Y2.4
X15.36Y2.4
X17.9Y2.4
X-24.8Y3.81
X-24.8Y1.27
X-24.8Y-1.27
X-24.8Y-3.81
X-22.268Y11.501
X-19.728Y11.501
X-17.188Y11.501
X4.997Y-18.374
X4.997Y-20.914
X4.997Y-23.454
X17.132Y11.401
X19.672Y11.401
X22.212Y11.401
X24.8Y3.81
X24.8Y1.27
X24.8Y-1.27
X24.8Y-3.81
X14.326Y7.264
X16.866Y7.264
T5
X-6.575Y21.272
X-4.67Y11.742
X0.03Y11.742
X4.73Y11.742
X6.635Y21.272
T6
X-12.5Y13.5
X0.Y-20.2
X12.5Y13.5
T7
X-6.32Y-3.84
T8
X-18.948Y-9.754
T0
M30
