G04 #@! TF.GenerationSoftware,KiCad,Pcbnew,(5.0.0)*
G04 #@! TF.CreationDate,2019-01-09T16:36:41-03:00*
G04 #@! TF.ProjectId,PCB_A,5043425F412E6B696361645F70636200,rev?*
G04 #@! TF.SameCoordinates,Original*
G04 #@! TF.FileFunction,Paste,Top*
G04 #@! TF.FilePolarity,Positive*
%FSLAX46Y46*%
G04 Gerber Fmt 4.6, Leading zero omitted, Abs format (unit mm)*
G04 Created by KiCad (PCBNEW (5.0.0)) date 01/09/19 16:36:41*
%MOMM*%
%LPD*%
G01*
G04 APERTURE LIST*
%ADD10C,0.100000*%
%ADD11C,1.300000*%
%ADD12C,0.590000*%
%ADD13R,0.900000X0.800000*%
%ADD14C,0.950000*%
%ADD15R,0.900000X1.500000*%
%ADD16R,1.270000X1.270000*%
%ADD17R,0.800000X0.900000*%
%ADD18R,1.000000X1.050000*%
%ADD19R,1.050000X2.200000*%
%ADD20R,0.300000X0.900000*%
%ADD21R,0.900000X0.300000*%
%ADD22R,2.500000X2.500000*%
%ADD23R,1.000000X0.350000*%
%ADD24R,1.000000X1.150000*%
G04 APERTURE END LIST*
D10*
G04 #@! TO.C,F1*
G36*
X11742704Y7642396D02*
X11766973Y7638796D01*
X11790771Y7632835D01*
X11813871Y7624570D01*
X11836049Y7614080D01*
X11857093Y7601467D01*
X11876798Y7586853D01*
X11894977Y7570377D01*
X11911453Y7552198D01*
X11926067Y7532493D01*
X11938680Y7511449D01*
X11949170Y7489271D01*
X11957435Y7466171D01*
X11963396Y7442373D01*
X11966996Y7418104D01*
X11968200Y7393600D01*
X11968200Y4493600D01*
X11966996Y4469096D01*
X11963396Y4444827D01*
X11957435Y4421029D01*
X11949170Y4397929D01*
X11938680Y4375751D01*
X11926067Y4354707D01*
X11911453Y4335002D01*
X11894977Y4316823D01*
X11876798Y4300347D01*
X11857093Y4285733D01*
X11836049Y4273120D01*
X11813871Y4262630D01*
X11790771Y4254365D01*
X11766973Y4248404D01*
X11742704Y4244804D01*
X11718200Y4243600D01*
X10918200Y4243600D01*
X10893696Y4244804D01*
X10869427Y4248404D01*
X10845629Y4254365D01*
X10822529Y4262630D01*
X10800351Y4273120D01*
X10779307Y4285733D01*
X10759602Y4300347D01*
X10741423Y4316823D01*
X10724947Y4335002D01*
X10710333Y4354707D01*
X10697720Y4375751D01*
X10687230Y4397929D01*
X10678965Y4421029D01*
X10673004Y4444827D01*
X10669404Y4469096D01*
X10668200Y4493600D01*
X10668200Y7393600D01*
X10669404Y7418104D01*
X10673004Y7442373D01*
X10678965Y7466171D01*
X10687230Y7489271D01*
X10697720Y7511449D01*
X10710333Y7532493D01*
X10724947Y7552198D01*
X10741423Y7570377D01*
X10759602Y7586853D01*
X10779307Y7601467D01*
X10800351Y7614080D01*
X10822529Y7624570D01*
X10845629Y7632835D01*
X10869427Y7638796D01*
X10893696Y7642396D01*
X10918200Y7643600D01*
X11718200Y7643600D01*
X11742704Y7642396D01*
X11742704Y7642396D01*
G37*
D11*
X11318200Y5943600D03*
D10*
G36*
X7292704Y7642396D02*
X7316973Y7638796D01*
X7340771Y7632835D01*
X7363871Y7624570D01*
X7386049Y7614080D01*
X7407093Y7601467D01*
X7426798Y7586853D01*
X7444977Y7570377D01*
X7461453Y7552198D01*
X7476067Y7532493D01*
X7488680Y7511449D01*
X7499170Y7489271D01*
X7507435Y7466171D01*
X7513396Y7442373D01*
X7516996Y7418104D01*
X7518200Y7393600D01*
X7518200Y4493600D01*
X7516996Y4469096D01*
X7513396Y4444827D01*
X7507435Y4421029D01*
X7499170Y4397929D01*
X7488680Y4375751D01*
X7476067Y4354707D01*
X7461453Y4335002D01*
X7444977Y4316823D01*
X7426798Y4300347D01*
X7407093Y4285733D01*
X7386049Y4273120D01*
X7363871Y4262630D01*
X7340771Y4254365D01*
X7316973Y4248404D01*
X7292704Y4244804D01*
X7268200Y4243600D01*
X6468200Y4243600D01*
X6443696Y4244804D01*
X6419427Y4248404D01*
X6395629Y4254365D01*
X6372529Y4262630D01*
X6350351Y4273120D01*
X6329307Y4285733D01*
X6309602Y4300347D01*
X6291423Y4316823D01*
X6274947Y4335002D01*
X6260333Y4354707D01*
X6247720Y4375751D01*
X6237230Y4397929D01*
X6228965Y4421029D01*
X6223004Y4444827D01*
X6219404Y4469096D01*
X6218200Y4493600D01*
X6218200Y7393600D01*
X6219404Y7418104D01*
X6223004Y7442373D01*
X6228965Y7466171D01*
X6237230Y7489271D01*
X6247720Y7511449D01*
X6260333Y7532493D01*
X6274947Y7552198D01*
X6291423Y7570377D01*
X6309602Y7586853D01*
X6329307Y7601467D01*
X6350351Y7614080D01*
X6372529Y7624570D01*
X6395629Y7632835D01*
X6419427Y7638796D01*
X6443696Y7642396D01*
X6468200Y7643600D01*
X7268200Y7643600D01*
X7292704Y7642396D01*
X7292704Y7642396D01*
G37*
D11*
X6868200Y5943600D03*
G04 #@! TD*
D10*
G04 #@! TO.C,C15*
G36*
X11972558Y-12738310D02*
X11986876Y-12740434D01*
X12000917Y-12743951D01*
X12014546Y-12748828D01*
X12027631Y-12755017D01*
X12040047Y-12762458D01*
X12051673Y-12771081D01*
X12062398Y-12780802D01*
X12072119Y-12791527D01*
X12080742Y-12803153D01*
X12088183Y-12815569D01*
X12094372Y-12828654D01*
X12099249Y-12842283D01*
X12102766Y-12856324D01*
X12104890Y-12870642D01*
X12105600Y-12885100D01*
X12105600Y-13180100D01*
X12104890Y-13194558D01*
X12102766Y-13208876D01*
X12099249Y-13222917D01*
X12094372Y-13236546D01*
X12088183Y-13249631D01*
X12080742Y-13262047D01*
X12072119Y-13273673D01*
X12062398Y-13284398D01*
X12051673Y-13294119D01*
X12040047Y-13302742D01*
X12027631Y-13310183D01*
X12014546Y-13316372D01*
X12000917Y-13321249D01*
X11986876Y-13324766D01*
X11972558Y-13326890D01*
X11958100Y-13327600D01*
X11613100Y-13327600D01*
X11598642Y-13326890D01*
X11584324Y-13324766D01*
X11570283Y-13321249D01*
X11556654Y-13316372D01*
X11543569Y-13310183D01*
X11531153Y-13302742D01*
X11519527Y-13294119D01*
X11508802Y-13284398D01*
X11499081Y-13273673D01*
X11490458Y-13262047D01*
X11483017Y-13249631D01*
X11476828Y-13236546D01*
X11471951Y-13222917D01*
X11468434Y-13208876D01*
X11466310Y-13194558D01*
X11465600Y-13180100D01*
X11465600Y-12885100D01*
X11466310Y-12870642D01*
X11468434Y-12856324D01*
X11471951Y-12842283D01*
X11476828Y-12828654D01*
X11483017Y-12815569D01*
X11490458Y-12803153D01*
X11499081Y-12791527D01*
X11508802Y-12780802D01*
X11519527Y-12771081D01*
X11531153Y-12762458D01*
X11543569Y-12755017D01*
X11556654Y-12748828D01*
X11570283Y-12743951D01*
X11584324Y-12740434D01*
X11598642Y-12738310D01*
X11613100Y-12737600D01*
X11958100Y-12737600D01*
X11972558Y-12738310D01*
X11972558Y-12738310D01*
G37*
D12*
X11785600Y-13032600D03*
D10*
G36*
X11972558Y-11768310D02*
X11986876Y-11770434D01*
X12000917Y-11773951D01*
X12014546Y-11778828D01*
X12027631Y-11785017D01*
X12040047Y-11792458D01*
X12051673Y-11801081D01*
X12062398Y-11810802D01*
X12072119Y-11821527D01*
X12080742Y-11833153D01*
X12088183Y-11845569D01*
X12094372Y-11858654D01*
X12099249Y-11872283D01*
X12102766Y-11886324D01*
X12104890Y-11900642D01*
X12105600Y-11915100D01*
X12105600Y-12210100D01*
X12104890Y-12224558D01*
X12102766Y-12238876D01*
X12099249Y-12252917D01*
X12094372Y-12266546D01*
X12088183Y-12279631D01*
X12080742Y-12292047D01*
X12072119Y-12303673D01*
X12062398Y-12314398D01*
X12051673Y-12324119D01*
X12040047Y-12332742D01*
X12027631Y-12340183D01*
X12014546Y-12346372D01*
X12000917Y-12351249D01*
X11986876Y-12354766D01*
X11972558Y-12356890D01*
X11958100Y-12357600D01*
X11613100Y-12357600D01*
X11598642Y-12356890D01*
X11584324Y-12354766D01*
X11570283Y-12351249D01*
X11556654Y-12346372D01*
X11543569Y-12340183D01*
X11531153Y-12332742D01*
X11519527Y-12324119D01*
X11508802Y-12314398D01*
X11499081Y-12303673D01*
X11490458Y-12292047D01*
X11483017Y-12279631D01*
X11476828Y-12266546D01*
X11471951Y-12252917D01*
X11468434Y-12238876D01*
X11466310Y-12224558D01*
X11465600Y-12210100D01*
X11465600Y-11915100D01*
X11466310Y-11900642D01*
X11468434Y-11886324D01*
X11471951Y-11872283D01*
X11476828Y-11858654D01*
X11483017Y-11845569D01*
X11490458Y-11833153D01*
X11499081Y-11821527D01*
X11508802Y-11810802D01*
X11519527Y-11801081D01*
X11531153Y-11792458D01*
X11543569Y-11785017D01*
X11556654Y-11778828D01*
X11570283Y-11773951D01*
X11584324Y-11770434D01*
X11598642Y-11768310D01*
X11613100Y-11767600D01*
X11958100Y-11767600D01*
X11972558Y-11768310D01*
X11972558Y-11768310D01*
G37*
D12*
X11785600Y-12062600D03*
G04 #@! TD*
D13*
G04 #@! TO.C,Q2*
X-13039600Y21168400D03*
X-13039600Y19268400D03*
X-11039600Y20218400D03*
G04 #@! TD*
D10*
G04 #@! TO.C,R11*
G36*
X-7562421Y18366056D02*
X-7539366Y18362637D01*
X-7516757Y18356973D01*
X-7494813Y18349121D01*
X-7473743Y18339156D01*
X-7453752Y18327174D01*
X-7435032Y18313290D01*
X-7417762Y18297638D01*
X-7402110Y18280368D01*
X-7388226Y18261648D01*
X-7376244Y18241657D01*
X-7366279Y18220587D01*
X-7358427Y18198643D01*
X-7352763Y18176034D01*
X-7349344Y18152979D01*
X-7348200Y18129700D01*
X-7348200Y17554700D01*
X-7349344Y17531421D01*
X-7352763Y17508366D01*
X-7358427Y17485757D01*
X-7366279Y17463813D01*
X-7376244Y17442743D01*
X-7388226Y17422752D01*
X-7402110Y17404032D01*
X-7417762Y17386762D01*
X-7435032Y17371110D01*
X-7453752Y17357226D01*
X-7473743Y17345244D01*
X-7494813Y17335279D01*
X-7516757Y17327427D01*
X-7539366Y17321763D01*
X-7562421Y17318344D01*
X-7585700Y17317200D01*
X-8060700Y17317200D01*
X-8083979Y17318344D01*
X-8107034Y17321763D01*
X-8129643Y17327427D01*
X-8151587Y17335279D01*
X-8172657Y17345244D01*
X-8192648Y17357226D01*
X-8211368Y17371110D01*
X-8228638Y17386762D01*
X-8244290Y17404032D01*
X-8258174Y17422752D01*
X-8270156Y17442743D01*
X-8280121Y17463813D01*
X-8287973Y17485757D01*
X-8293637Y17508366D01*
X-8297056Y17531421D01*
X-8298200Y17554700D01*
X-8298200Y18129700D01*
X-8297056Y18152979D01*
X-8293637Y18176034D01*
X-8287973Y18198643D01*
X-8280121Y18220587D01*
X-8270156Y18241657D01*
X-8258174Y18261648D01*
X-8244290Y18280368D01*
X-8228638Y18297638D01*
X-8211368Y18313290D01*
X-8192648Y18327174D01*
X-8172657Y18339156D01*
X-8151587Y18349121D01*
X-8129643Y18356973D01*
X-8107034Y18362637D01*
X-8083979Y18366056D01*
X-8060700Y18367200D01*
X-7585700Y18367200D01*
X-7562421Y18366056D01*
X-7562421Y18366056D01*
G37*
D14*
X-7823200Y17842200D03*
D10*
G36*
X-7562421Y16616056D02*
X-7539366Y16612637D01*
X-7516757Y16606973D01*
X-7494813Y16599121D01*
X-7473743Y16589156D01*
X-7453752Y16577174D01*
X-7435032Y16563290D01*
X-7417762Y16547638D01*
X-7402110Y16530368D01*
X-7388226Y16511648D01*
X-7376244Y16491657D01*
X-7366279Y16470587D01*
X-7358427Y16448643D01*
X-7352763Y16426034D01*
X-7349344Y16402979D01*
X-7348200Y16379700D01*
X-7348200Y15804700D01*
X-7349344Y15781421D01*
X-7352763Y15758366D01*
X-7358427Y15735757D01*
X-7366279Y15713813D01*
X-7376244Y15692743D01*
X-7388226Y15672752D01*
X-7402110Y15654032D01*
X-7417762Y15636762D01*
X-7435032Y15621110D01*
X-7453752Y15607226D01*
X-7473743Y15595244D01*
X-7494813Y15585279D01*
X-7516757Y15577427D01*
X-7539366Y15571763D01*
X-7562421Y15568344D01*
X-7585700Y15567200D01*
X-8060700Y15567200D01*
X-8083979Y15568344D01*
X-8107034Y15571763D01*
X-8129643Y15577427D01*
X-8151587Y15585279D01*
X-8172657Y15595244D01*
X-8192648Y15607226D01*
X-8211368Y15621110D01*
X-8228638Y15636762D01*
X-8244290Y15654032D01*
X-8258174Y15672752D01*
X-8270156Y15692743D01*
X-8280121Y15713813D01*
X-8287973Y15735757D01*
X-8293637Y15758366D01*
X-8297056Y15781421D01*
X-8298200Y15804700D01*
X-8298200Y16379700D01*
X-8297056Y16402979D01*
X-8293637Y16426034D01*
X-8287973Y16448643D01*
X-8280121Y16470587D01*
X-8270156Y16491657D01*
X-8258174Y16511648D01*
X-8244290Y16530368D01*
X-8228638Y16547638D01*
X-8211368Y16563290D01*
X-8192648Y16577174D01*
X-8172657Y16589156D01*
X-8151587Y16599121D01*
X-8129643Y16606973D01*
X-8107034Y16612637D01*
X-8083979Y16616056D01*
X-8060700Y16617200D01*
X-7585700Y16617200D01*
X-7562421Y16616056D01*
X-7562421Y16616056D01*
G37*
D14*
X-7823200Y16092200D03*
G04 #@! TD*
D10*
G04 #@! TO.C,C2*
G36*
X-7178042Y-16530710D02*
X-7163724Y-16532834D01*
X-7149683Y-16536351D01*
X-7136054Y-16541228D01*
X-7122969Y-16547417D01*
X-7110553Y-16554858D01*
X-7098927Y-16563481D01*
X-7088202Y-16573202D01*
X-7078481Y-16583927D01*
X-7069858Y-16595553D01*
X-7062417Y-16607969D01*
X-7056228Y-16621054D01*
X-7051351Y-16634683D01*
X-7047834Y-16648724D01*
X-7045710Y-16663042D01*
X-7045000Y-16677500D01*
X-7045000Y-17022500D01*
X-7045710Y-17036958D01*
X-7047834Y-17051276D01*
X-7051351Y-17065317D01*
X-7056228Y-17078946D01*
X-7062417Y-17092031D01*
X-7069858Y-17104447D01*
X-7078481Y-17116073D01*
X-7088202Y-17126798D01*
X-7098927Y-17136519D01*
X-7110553Y-17145142D01*
X-7122969Y-17152583D01*
X-7136054Y-17158772D01*
X-7149683Y-17163649D01*
X-7163724Y-17167166D01*
X-7178042Y-17169290D01*
X-7192500Y-17170000D01*
X-7487500Y-17170000D01*
X-7501958Y-17169290D01*
X-7516276Y-17167166D01*
X-7530317Y-17163649D01*
X-7543946Y-17158772D01*
X-7557031Y-17152583D01*
X-7569447Y-17145142D01*
X-7581073Y-17136519D01*
X-7591798Y-17126798D01*
X-7601519Y-17116073D01*
X-7610142Y-17104447D01*
X-7617583Y-17092031D01*
X-7623772Y-17078946D01*
X-7628649Y-17065317D01*
X-7632166Y-17051276D01*
X-7634290Y-17036958D01*
X-7635000Y-17022500D01*
X-7635000Y-16677500D01*
X-7634290Y-16663042D01*
X-7632166Y-16648724D01*
X-7628649Y-16634683D01*
X-7623772Y-16621054D01*
X-7617583Y-16607969D01*
X-7610142Y-16595553D01*
X-7601519Y-16583927D01*
X-7591798Y-16573202D01*
X-7581073Y-16563481D01*
X-7569447Y-16554858D01*
X-7557031Y-16547417D01*
X-7543946Y-16541228D01*
X-7530317Y-16536351D01*
X-7516276Y-16532834D01*
X-7501958Y-16530710D01*
X-7487500Y-16530000D01*
X-7192500Y-16530000D01*
X-7178042Y-16530710D01*
X-7178042Y-16530710D01*
G37*
D12*
X-7340000Y-16850000D03*
D10*
G36*
X-8148042Y-16530710D02*
X-8133724Y-16532834D01*
X-8119683Y-16536351D01*
X-8106054Y-16541228D01*
X-8092969Y-16547417D01*
X-8080553Y-16554858D01*
X-8068927Y-16563481D01*
X-8058202Y-16573202D01*
X-8048481Y-16583927D01*
X-8039858Y-16595553D01*
X-8032417Y-16607969D01*
X-8026228Y-16621054D01*
X-8021351Y-16634683D01*
X-8017834Y-16648724D01*
X-8015710Y-16663042D01*
X-8015000Y-16677500D01*
X-8015000Y-17022500D01*
X-8015710Y-17036958D01*
X-8017834Y-17051276D01*
X-8021351Y-17065317D01*
X-8026228Y-17078946D01*
X-8032417Y-17092031D01*
X-8039858Y-17104447D01*
X-8048481Y-17116073D01*
X-8058202Y-17126798D01*
X-8068927Y-17136519D01*
X-8080553Y-17145142D01*
X-8092969Y-17152583D01*
X-8106054Y-17158772D01*
X-8119683Y-17163649D01*
X-8133724Y-17167166D01*
X-8148042Y-17169290D01*
X-8162500Y-17170000D01*
X-8457500Y-17170000D01*
X-8471958Y-17169290D01*
X-8486276Y-17167166D01*
X-8500317Y-17163649D01*
X-8513946Y-17158772D01*
X-8527031Y-17152583D01*
X-8539447Y-17145142D01*
X-8551073Y-17136519D01*
X-8561798Y-17126798D01*
X-8571519Y-17116073D01*
X-8580142Y-17104447D01*
X-8587583Y-17092031D01*
X-8593772Y-17078946D01*
X-8598649Y-17065317D01*
X-8602166Y-17051276D01*
X-8604290Y-17036958D01*
X-8605000Y-17022500D01*
X-8605000Y-16677500D01*
X-8604290Y-16663042D01*
X-8602166Y-16648724D01*
X-8598649Y-16634683D01*
X-8593772Y-16621054D01*
X-8587583Y-16607969D01*
X-8580142Y-16595553D01*
X-8571519Y-16583927D01*
X-8561798Y-16573202D01*
X-8551073Y-16563481D01*
X-8539447Y-16554858D01*
X-8527031Y-16547417D01*
X-8513946Y-16541228D01*
X-8500317Y-16536351D01*
X-8486276Y-16532834D01*
X-8471958Y-16530710D01*
X-8457500Y-16530000D01*
X-8162500Y-16530000D01*
X-8148042Y-16530710D01*
X-8148042Y-16530710D01*
G37*
D12*
X-8310000Y-16850000D03*
G04 #@! TD*
D15*
G04 #@! TO.C,U1*
X-13310000Y-12700000D03*
X-12040000Y-12700000D03*
X-10770000Y-12700000D03*
X-9500000Y-12700000D03*
X-8230000Y-12700000D03*
X-6960000Y-12700000D03*
X1930000Y-12700000D03*
X-610000Y-12700000D03*
X660000Y-12700000D03*
X1930000Y3810000D03*
X660000Y3810000D03*
X-610000Y3810000D03*
X-1880000Y3810000D03*
X-3150000Y3810000D03*
X-4420000Y3810000D03*
X-5690000Y3810000D03*
X-6960000Y3810000D03*
X-8230000Y3810000D03*
X-9500000Y3810000D03*
X-10770000Y3810000D03*
X-12040000Y3810000D03*
X-13310000Y3810000D03*
D16*
X25000Y-8255000D03*
X25000Y-5715000D03*
X25000Y-3175000D03*
X25000Y-635000D03*
X-11405000Y-635000D03*
X-11405000Y-3175000D03*
X-11405000Y-5715000D03*
X-11405000Y-8255000D03*
G04 #@! TD*
D10*
G04 #@! TO.C,C1*
G36*
X8693579Y9758056D02*
X8716634Y9754637D01*
X8739243Y9748973D01*
X8761187Y9741121D01*
X8782257Y9731156D01*
X8802248Y9719174D01*
X8820968Y9705290D01*
X8838238Y9689638D01*
X8853890Y9672368D01*
X8867774Y9653648D01*
X8879756Y9633657D01*
X8889721Y9612587D01*
X8897573Y9590643D01*
X8903237Y9568034D01*
X8906656Y9544979D01*
X8907800Y9521700D01*
X8907800Y8946700D01*
X8906656Y8923421D01*
X8903237Y8900366D01*
X8897573Y8877757D01*
X8889721Y8855813D01*
X8879756Y8834743D01*
X8867774Y8814752D01*
X8853890Y8796032D01*
X8838238Y8778762D01*
X8820968Y8763110D01*
X8802248Y8749226D01*
X8782257Y8737244D01*
X8761187Y8727279D01*
X8739243Y8719427D01*
X8716634Y8713763D01*
X8693579Y8710344D01*
X8670300Y8709200D01*
X8195300Y8709200D01*
X8172021Y8710344D01*
X8148966Y8713763D01*
X8126357Y8719427D01*
X8104413Y8727279D01*
X8083343Y8737244D01*
X8063352Y8749226D01*
X8044632Y8763110D01*
X8027362Y8778762D01*
X8011710Y8796032D01*
X7997826Y8814752D01*
X7985844Y8834743D01*
X7975879Y8855813D01*
X7968027Y8877757D01*
X7962363Y8900366D01*
X7958944Y8923421D01*
X7957800Y8946700D01*
X7957800Y9521700D01*
X7958944Y9544979D01*
X7962363Y9568034D01*
X7968027Y9590643D01*
X7975879Y9612587D01*
X7985844Y9633657D01*
X7997826Y9653648D01*
X8011710Y9672368D01*
X8027362Y9689638D01*
X8044632Y9705290D01*
X8063352Y9719174D01*
X8083343Y9731156D01*
X8104413Y9741121D01*
X8126357Y9748973D01*
X8148966Y9754637D01*
X8172021Y9758056D01*
X8195300Y9759200D01*
X8670300Y9759200D01*
X8693579Y9758056D01*
X8693579Y9758056D01*
G37*
D14*
X8432800Y9234200D03*
D10*
G36*
X8693579Y11508056D02*
X8716634Y11504637D01*
X8739243Y11498973D01*
X8761187Y11491121D01*
X8782257Y11481156D01*
X8802248Y11469174D01*
X8820968Y11455290D01*
X8838238Y11439638D01*
X8853890Y11422368D01*
X8867774Y11403648D01*
X8879756Y11383657D01*
X8889721Y11362587D01*
X8897573Y11340643D01*
X8903237Y11318034D01*
X8906656Y11294979D01*
X8907800Y11271700D01*
X8907800Y10696700D01*
X8906656Y10673421D01*
X8903237Y10650366D01*
X8897573Y10627757D01*
X8889721Y10605813D01*
X8879756Y10584743D01*
X8867774Y10564752D01*
X8853890Y10546032D01*
X8838238Y10528762D01*
X8820968Y10513110D01*
X8802248Y10499226D01*
X8782257Y10487244D01*
X8761187Y10477279D01*
X8739243Y10469427D01*
X8716634Y10463763D01*
X8693579Y10460344D01*
X8670300Y10459200D01*
X8195300Y10459200D01*
X8172021Y10460344D01*
X8148966Y10463763D01*
X8126357Y10469427D01*
X8104413Y10477279D01*
X8083343Y10487244D01*
X8063352Y10499226D01*
X8044632Y10513110D01*
X8027362Y10528762D01*
X8011710Y10546032D01*
X7997826Y10564752D01*
X7985844Y10584743D01*
X7975879Y10605813D01*
X7968027Y10627757D01*
X7962363Y10650366D01*
X7958944Y10673421D01*
X7957800Y10696700D01*
X7957800Y11271700D01*
X7958944Y11294979D01*
X7962363Y11318034D01*
X7968027Y11340643D01*
X7975879Y11362587D01*
X7985844Y11383657D01*
X7997826Y11403648D01*
X8011710Y11422368D01*
X8027362Y11439638D01*
X8044632Y11455290D01*
X8063352Y11469174D01*
X8083343Y11481156D01*
X8104413Y11491121D01*
X8126357Y11498973D01*
X8148966Y11504637D01*
X8172021Y11508056D01*
X8195300Y11509200D01*
X8670300Y11509200D01*
X8693579Y11508056D01*
X8693579Y11508056D01*
G37*
D14*
X8432800Y10984200D03*
G04 #@! TD*
D10*
G04 #@! TO.C,C3*
G36*
X-8389221Y-14426144D02*
X-8366166Y-14429563D01*
X-8343557Y-14435227D01*
X-8321613Y-14443079D01*
X-8300543Y-14453044D01*
X-8280552Y-14465026D01*
X-8261832Y-14478910D01*
X-8244562Y-14494562D01*
X-8228910Y-14511832D01*
X-8215026Y-14530552D01*
X-8203044Y-14550543D01*
X-8193079Y-14571613D01*
X-8185227Y-14593557D01*
X-8179563Y-14616166D01*
X-8176144Y-14639221D01*
X-8175000Y-14662500D01*
X-8175000Y-15137500D01*
X-8176144Y-15160779D01*
X-8179563Y-15183834D01*
X-8185227Y-15206443D01*
X-8193079Y-15228387D01*
X-8203044Y-15249457D01*
X-8215026Y-15269448D01*
X-8228910Y-15288168D01*
X-8244562Y-15305438D01*
X-8261832Y-15321090D01*
X-8280552Y-15334974D01*
X-8300543Y-15346956D01*
X-8321613Y-15356921D01*
X-8343557Y-15364773D01*
X-8366166Y-15370437D01*
X-8389221Y-15373856D01*
X-8412500Y-15375000D01*
X-8987500Y-15375000D01*
X-9010779Y-15373856D01*
X-9033834Y-15370437D01*
X-9056443Y-15364773D01*
X-9078387Y-15356921D01*
X-9099457Y-15346956D01*
X-9119448Y-15334974D01*
X-9138168Y-15321090D01*
X-9155438Y-15305438D01*
X-9171090Y-15288168D01*
X-9184974Y-15269448D01*
X-9196956Y-15249457D01*
X-9206921Y-15228387D01*
X-9214773Y-15206443D01*
X-9220437Y-15183834D01*
X-9223856Y-15160779D01*
X-9225000Y-15137500D01*
X-9225000Y-14662500D01*
X-9223856Y-14639221D01*
X-9220437Y-14616166D01*
X-9214773Y-14593557D01*
X-9206921Y-14571613D01*
X-9196956Y-14550543D01*
X-9184974Y-14530552D01*
X-9171090Y-14511832D01*
X-9155438Y-14494562D01*
X-9138168Y-14478910D01*
X-9119448Y-14465026D01*
X-9099457Y-14453044D01*
X-9078387Y-14443079D01*
X-9056443Y-14435227D01*
X-9033834Y-14429563D01*
X-9010779Y-14426144D01*
X-8987500Y-14425000D01*
X-8412500Y-14425000D01*
X-8389221Y-14426144D01*
X-8389221Y-14426144D01*
G37*
D14*
X-8700000Y-14900000D03*
D10*
G36*
X-6639221Y-14426144D02*
X-6616166Y-14429563D01*
X-6593557Y-14435227D01*
X-6571613Y-14443079D01*
X-6550543Y-14453044D01*
X-6530552Y-14465026D01*
X-6511832Y-14478910D01*
X-6494562Y-14494562D01*
X-6478910Y-14511832D01*
X-6465026Y-14530552D01*
X-6453044Y-14550543D01*
X-6443079Y-14571613D01*
X-6435227Y-14593557D01*
X-6429563Y-14616166D01*
X-6426144Y-14639221D01*
X-6425000Y-14662500D01*
X-6425000Y-15137500D01*
X-6426144Y-15160779D01*
X-6429563Y-15183834D01*
X-6435227Y-15206443D01*
X-6443079Y-15228387D01*
X-6453044Y-15249457D01*
X-6465026Y-15269448D01*
X-6478910Y-15288168D01*
X-6494562Y-15305438D01*
X-6511832Y-15321090D01*
X-6530552Y-15334974D01*
X-6550543Y-15346956D01*
X-6571613Y-15356921D01*
X-6593557Y-15364773D01*
X-6616166Y-15370437D01*
X-6639221Y-15373856D01*
X-6662500Y-15375000D01*
X-7237500Y-15375000D01*
X-7260779Y-15373856D01*
X-7283834Y-15370437D01*
X-7306443Y-15364773D01*
X-7328387Y-15356921D01*
X-7349457Y-15346956D01*
X-7369448Y-15334974D01*
X-7388168Y-15321090D01*
X-7405438Y-15305438D01*
X-7421090Y-15288168D01*
X-7434974Y-15269448D01*
X-7446956Y-15249457D01*
X-7456921Y-15228387D01*
X-7464773Y-15206443D01*
X-7470437Y-15183834D01*
X-7473856Y-15160779D01*
X-7475000Y-15137500D01*
X-7475000Y-14662500D01*
X-7473856Y-14639221D01*
X-7470437Y-14616166D01*
X-7464773Y-14593557D01*
X-7456921Y-14571613D01*
X-7446956Y-14550543D01*
X-7434974Y-14530552D01*
X-7421090Y-14511832D01*
X-7405438Y-14494562D01*
X-7388168Y-14478910D01*
X-7369448Y-14465026D01*
X-7349457Y-14453044D01*
X-7328387Y-14443079D01*
X-7306443Y-14435227D01*
X-7283834Y-14429563D01*
X-7260779Y-14426144D01*
X-7237500Y-14425000D01*
X-6662500Y-14425000D01*
X-6639221Y-14426144D01*
X-6639221Y-14426144D01*
G37*
D14*
X-6950000Y-14900000D03*
G04 #@! TD*
D10*
G04 #@! TO.C,D1*
G36*
X-4351421Y24959456D02*
X-4328366Y24956037D01*
X-4305757Y24950373D01*
X-4283813Y24942521D01*
X-4262743Y24932556D01*
X-4242752Y24920574D01*
X-4224032Y24906690D01*
X-4206762Y24891038D01*
X-4191110Y24873768D01*
X-4177226Y24855048D01*
X-4165244Y24835057D01*
X-4155279Y24813987D01*
X-4147427Y24792043D01*
X-4141763Y24769434D01*
X-4138344Y24746379D01*
X-4137200Y24723100D01*
X-4137200Y24248100D01*
X-4138344Y24224821D01*
X-4141763Y24201766D01*
X-4147427Y24179157D01*
X-4155279Y24157213D01*
X-4165244Y24136143D01*
X-4177226Y24116152D01*
X-4191110Y24097432D01*
X-4206762Y24080162D01*
X-4224032Y24064510D01*
X-4242752Y24050626D01*
X-4262743Y24038644D01*
X-4283813Y24028679D01*
X-4305757Y24020827D01*
X-4328366Y24015163D01*
X-4351421Y24011744D01*
X-4374700Y24010600D01*
X-4949700Y24010600D01*
X-4972979Y24011744D01*
X-4996034Y24015163D01*
X-5018643Y24020827D01*
X-5040587Y24028679D01*
X-5061657Y24038644D01*
X-5081648Y24050626D01*
X-5100368Y24064510D01*
X-5117638Y24080162D01*
X-5133290Y24097432D01*
X-5147174Y24116152D01*
X-5159156Y24136143D01*
X-5169121Y24157213D01*
X-5176973Y24179157D01*
X-5182637Y24201766D01*
X-5186056Y24224821D01*
X-5187200Y24248100D01*
X-5187200Y24723100D01*
X-5186056Y24746379D01*
X-5182637Y24769434D01*
X-5176973Y24792043D01*
X-5169121Y24813987D01*
X-5159156Y24835057D01*
X-5147174Y24855048D01*
X-5133290Y24873768D01*
X-5117638Y24891038D01*
X-5100368Y24906690D01*
X-5081648Y24920574D01*
X-5061657Y24932556D01*
X-5040587Y24942521D01*
X-5018643Y24950373D01*
X-4996034Y24956037D01*
X-4972979Y24959456D01*
X-4949700Y24960600D01*
X-4374700Y24960600D01*
X-4351421Y24959456D01*
X-4351421Y24959456D01*
G37*
D14*
X-4662200Y24485600D03*
D10*
G36*
X-6101421Y24959456D02*
X-6078366Y24956037D01*
X-6055757Y24950373D01*
X-6033813Y24942521D01*
X-6012743Y24932556D01*
X-5992752Y24920574D01*
X-5974032Y24906690D01*
X-5956762Y24891038D01*
X-5941110Y24873768D01*
X-5927226Y24855048D01*
X-5915244Y24835057D01*
X-5905279Y24813987D01*
X-5897427Y24792043D01*
X-5891763Y24769434D01*
X-5888344Y24746379D01*
X-5887200Y24723100D01*
X-5887200Y24248100D01*
X-5888344Y24224821D01*
X-5891763Y24201766D01*
X-5897427Y24179157D01*
X-5905279Y24157213D01*
X-5915244Y24136143D01*
X-5927226Y24116152D01*
X-5941110Y24097432D01*
X-5956762Y24080162D01*
X-5974032Y24064510D01*
X-5992752Y24050626D01*
X-6012743Y24038644D01*
X-6033813Y24028679D01*
X-6055757Y24020827D01*
X-6078366Y24015163D01*
X-6101421Y24011744D01*
X-6124700Y24010600D01*
X-6699700Y24010600D01*
X-6722979Y24011744D01*
X-6746034Y24015163D01*
X-6768643Y24020827D01*
X-6790587Y24028679D01*
X-6811657Y24038644D01*
X-6831648Y24050626D01*
X-6850368Y24064510D01*
X-6867638Y24080162D01*
X-6883290Y24097432D01*
X-6897174Y24116152D01*
X-6909156Y24136143D01*
X-6919121Y24157213D01*
X-6926973Y24179157D01*
X-6932637Y24201766D01*
X-6936056Y24224821D01*
X-6937200Y24248100D01*
X-6937200Y24723100D01*
X-6936056Y24746379D01*
X-6932637Y24769434D01*
X-6926973Y24792043D01*
X-6919121Y24813987D01*
X-6909156Y24835057D01*
X-6897174Y24855048D01*
X-6883290Y24873768D01*
X-6867638Y24891038D01*
X-6850368Y24906690D01*
X-6831648Y24920574D01*
X-6811657Y24932556D01*
X-6790587Y24942521D01*
X-6768643Y24950373D01*
X-6746034Y24956037D01*
X-6722979Y24959456D01*
X-6699700Y24960600D01*
X-6124700Y24960600D01*
X-6101421Y24959456D01*
X-6101421Y24959456D01*
G37*
D14*
X-6412200Y24485600D03*
G04 #@! TD*
D10*
G04 #@! TO.C,D2*
G36*
X4922179Y24959456D02*
X4945234Y24956037D01*
X4967843Y24950373D01*
X4989787Y24942521D01*
X5010857Y24932556D01*
X5030848Y24920574D01*
X5049568Y24906690D01*
X5066838Y24891038D01*
X5082490Y24873768D01*
X5096374Y24855048D01*
X5108356Y24835057D01*
X5118321Y24813987D01*
X5126173Y24792043D01*
X5131837Y24769434D01*
X5135256Y24746379D01*
X5136400Y24723100D01*
X5136400Y24248100D01*
X5135256Y24224821D01*
X5131837Y24201766D01*
X5126173Y24179157D01*
X5118321Y24157213D01*
X5108356Y24136143D01*
X5096374Y24116152D01*
X5082490Y24097432D01*
X5066838Y24080162D01*
X5049568Y24064510D01*
X5030848Y24050626D01*
X5010857Y24038644D01*
X4989787Y24028679D01*
X4967843Y24020827D01*
X4945234Y24015163D01*
X4922179Y24011744D01*
X4898900Y24010600D01*
X4323900Y24010600D01*
X4300621Y24011744D01*
X4277566Y24015163D01*
X4254957Y24020827D01*
X4233013Y24028679D01*
X4211943Y24038644D01*
X4191952Y24050626D01*
X4173232Y24064510D01*
X4155962Y24080162D01*
X4140310Y24097432D01*
X4126426Y24116152D01*
X4114444Y24136143D01*
X4104479Y24157213D01*
X4096627Y24179157D01*
X4090963Y24201766D01*
X4087544Y24224821D01*
X4086400Y24248100D01*
X4086400Y24723100D01*
X4087544Y24746379D01*
X4090963Y24769434D01*
X4096627Y24792043D01*
X4104479Y24813987D01*
X4114444Y24835057D01*
X4126426Y24855048D01*
X4140310Y24873768D01*
X4155962Y24891038D01*
X4173232Y24906690D01*
X4191952Y24920574D01*
X4211943Y24932556D01*
X4233013Y24942521D01*
X4254957Y24950373D01*
X4277566Y24956037D01*
X4300621Y24959456D01*
X4323900Y24960600D01*
X4898900Y24960600D01*
X4922179Y24959456D01*
X4922179Y24959456D01*
G37*
D14*
X4611400Y24485600D03*
D10*
G36*
X6672179Y24959456D02*
X6695234Y24956037D01*
X6717843Y24950373D01*
X6739787Y24942521D01*
X6760857Y24932556D01*
X6780848Y24920574D01*
X6799568Y24906690D01*
X6816838Y24891038D01*
X6832490Y24873768D01*
X6846374Y24855048D01*
X6858356Y24835057D01*
X6868321Y24813987D01*
X6876173Y24792043D01*
X6881837Y24769434D01*
X6885256Y24746379D01*
X6886400Y24723100D01*
X6886400Y24248100D01*
X6885256Y24224821D01*
X6881837Y24201766D01*
X6876173Y24179157D01*
X6868321Y24157213D01*
X6858356Y24136143D01*
X6846374Y24116152D01*
X6832490Y24097432D01*
X6816838Y24080162D01*
X6799568Y24064510D01*
X6780848Y24050626D01*
X6760857Y24038644D01*
X6739787Y24028679D01*
X6717843Y24020827D01*
X6695234Y24015163D01*
X6672179Y24011744D01*
X6648900Y24010600D01*
X6073900Y24010600D01*
X6050621Y24011744D01*
X6027566Y24015163D01*
X6004957Y24020827D01*
X5983013Y24028679D01*
X5961943Y24038644D01*
X5941952Y24050626D01*
X5923232Y24064510D01*
X5905962Y24080162D01*
X5890310Y24097432D01*
X5876426Y24116152D01*
X5864444Y24136143D01*
X5854479Y24157213D01*
X5846627Y24179157D01*
X5840963Y24201766D01*
X5837544Y24224821D01*
X5836400Y24248100D01*
X5836400Y24723100D01*
X5837544Y24746379D01*
X5840963Y24769434D01*
X5846627Y24792043D01*
X5854479Y24813987D01*
X5864444Y24835057D01*
X5876426Y24855048D01*
X5890310Y24873768D01*
X5905962Y24891038D01*
X5923232Y24906690D01*
X5941952Y24920574D01*
X5961943Y24932556D01*
X5983013Y24942521D01*
X6004957Y24950373D01*
X6027566Y24956037D01*
X6050621Y24959456D01*
X6073900Y24960600D01*
X6648900Y24960600D01*
X6672179Y24959456D01*
X6672179Y24959456D01*
G37*
D14*
X6361400Y24485600D03*
G04 #@! TD*
D17*
G04 #@! TO.C,Q1*
X4556800Y8314400D03*
X2656800Y8314400D03*
X3606800Y6214400D03*
G04 #@! TD*
D10*
G04 #@! TO.C,R1*
G36*
X-18699820Y14342256D02*
X-18676765Y14338837D01*
X-18654156Y14333173D01*
X-18632212Y14325321D01*
X-18611142Y14315356D01*
X-18591151Y14303374D01*
X-18572431Y14289490D01*
X-18555161Y14273838D01*
X-18539509Y14256568D01*
X-18525625Y14237848D01*
X-18513643Y14217857D01*
X-18503678Y14196787D01*
X-18495826Y14174843D01*
X-18490162Y14152234D01*
X-18486743Y14129179D01*
X-18485599Y14105900D01*
X-18485599Y13630900D01*
X-18486743Y13607621D01*
X-18490162Y13584566D01*
X-18495826Y13561957D01*
X-18503678Y13540013D01*
X-18513643Y13518943D01*
X-18525625Y13498952D01*
X-18539509Y13480232D01*
X-18555161Y13462962D01*
X-18572431Y13447310D01*
X-18591151Y13433426D01*
X-18611142Y13421444D01*
X-18632212Y13411479D01*
X-18654156Y13403627D01*
X-18676765Y13397963D01*
X-18699820Y13394544D01*
X-18723099Y13393400D01*
X-19298099Y13393400D01*
X-19321378Y13394544D01*
X-19344433Y13397963D01*
X-19367042Y13403627D01*
X-19388986Y13411479D01*
X-19410056Y13421444D01*
X-19430047Y13433426D01*
X-19448767Y13447310D01*
X-19466037Y13462962D01*
X-19481689Y13480232D01*
X-19495573Y13498952D01*
X-19507555Y13518943D01*
X-19517520Y13540013D01*
X-19525372Y13561957D01*
X-19531036Y13584566D01*
X-19534455Y13607621D01*
X-19535599Y13630900D01*
X-19535599Y14105900D01*
X-19534455Y14129179D01*
X-19531036Y14152234D01*
X-19525372Y14174843D01*
X-19517520Y14196787D01*
X-19507555Y14217857D01*
X-19495573Y14237848D01*
X-19481689Y14256568D01*
X-19466037Y14273838D01*
X-19448767Y14289490D01*
X-19430047Y14303374D01*
X-19410056Y14315356D01*
X-19388986Y14325321D01*
X-19367042Y14333173D01*
X-19344433Y14338837D01*
X-19321378Y14342256D01*
X-19298099Y14343400D01*
X-18723099Y14343400D01*
X-18699820Y14342256D01*
X-18699820Y14342256D01*
G37*
D14*
X-19010599Y13868400D03*
D10*
G36*
X-16949822Y14342256D02*
X-16926767Y14338837D01*
X-16904158Y14333173D01*
X-16882214Y14325321D01*
X-16861144Y14315356D01*
X-16841153Y14303374D01*
X-16822433Y14289490D01*
X-16805163Y14273838D01*
X-16789511Y14256568D01*
X-16775627Y14237848D01*
X-16763645Y14217857D01*
X-16753680Y14196787D01*
X-16745828Y14174843D01*
X-16740164Y14152234D01*
X-16736745Y14129179D01*
X-16735601Y14105900D01*
X-16735601Y13630900D01*
X-16736745Y13607621D01*
X-16740164Y13584566D01*
X-16745828Y13561957D01*
X-16753680Y13540013D01*
X-16763645Y13518943D01*
X-16775627Y13498952D01*
X-16789511Y13480232D01*
X-16805163Y13462962D01*
X-16822433Y13447310D01*
X-16841153Y13433426D01*
X-16861144Y13421444D01*
X-16882214Y13411479D01*
X-16904158Y13403627D01*
X-16926767Y13397963D01*
X-16949822Y13394544D01*
X-16973101Y13393400D01*
X-17548101Y13393400D01*
X-17571380Y13394544D01*
X-17594435Y13397963D01*
X-17617044Y13403627D01*
X-17638988Y13411479D01*
X-17660058Y13421444D01*
X-17680049Y13433426D01*
X-17698769Y13447310D01*
X-17716039Y13462962D01*
X-17731691Y13480232D01*
X-17745575Y13498952D01*
X-17757557Y13518943D01*
X-17767522Y13540013D01*
X-17775374Y13561957D01*
X-17781038Y13584566D01*
X-17784457Y13607621D01*
X-17785601Y13630900D01*
X-17785601Y14105900D01*
X-17784457Y14129179D01*
X-17781038Y14152234D01*
X-17775374Y14174843D01*
X-17767522Y14196787D01*
X-17757557Y14217857D01*
X-17745575Y14237848D01*
X-17731691Y14256568D01*
X-17716039Y14273838D01*
X-17698769Y14289490D01*
X-17680049Y14303374D01*
X-17660058Y14315356D01*
X-17638988Y14325321D01*
X-17617044Y14333173D01*
X-17594435Y14338837D01*
X-17571380Y14342256D01*
X-17548101Y14343400D01*
X-16973101Y14343400D01*
X-16949822Y14342256D01*
X-16949822Y14342256D01*
G37*
D14*
X-17260601Y13868400D03*
G04 #@! TD*
D10*
G04 #@! TO.C,R2*
G36*
X10510180Y20692256D02*
X10533235Y20688837D01*
X10555844Y20683173D01*
X10577788Y20675321D01*
X10598858Y20665356D01*
X10618849Y20653374D01*
X10637569Y20639490D01*
X10654839Y20623838D01*
X10670491Y20606568D01*
X10684375Y20587848D01*
X10696357Y20567857D01*
X10706322Y20546787D01*
X10714174Y20524843D01*
X10719838Y20502234D01*
X10723257Y20479179D01*
X10724401Y20455900D01*
X10724401Y19980900D01*
X10723257Y19957621D01*
X10719838Y19934566D01*
X10714174Y19911957D01*
X10706322Y19890013D01*
X10696357Y19868943D01*
X10684375Y19848952D01*
X10670491Y19830232D01*
X10654839Y19812962D01*
X10637569Y19797310D01*
X10618849Y19783426D01*
X10598858Y19771444D01*
X10577788Y19761479D01*
X10555844Y19753627D01*
X10533235Y19747963D01*
X10510180Y19744544D01*
X10486901Y19743400D01*
X9911901Y19743400D01*
X9888622Y19744544D01*
X9865567Y19747963D01*
X9842958Y19753627D01*
X9821014Y19761479D01*
X9799944Y19771444D01*
X9779953Y19783426D01*
X9761233Y19797310D01*
X9743963Y19812962D01*
X9728311Y19830232D01*
X9714427Y19848952D01*
X9702445Y19868943D01*
X9692480Y19890013D01*
X9684628Y19911957D01*
X9678964Y19934566D01*
X9675545Y19957621D01*
X9674401Y19980900D01*
X9674401Y20455900D01*
X9675545Y20479179D01*
X9678964Y20502234D01*
X9684628Y20524843D01*
X9692480Y20546787D01*
X9702445Y20567857D01*
X9714427Y20587848D01*
X9728311Y20606568D01*
X9743963Y20623838D01*
X9761233Y20639490D01*
X9779953Y20653374D01*
X9799944Y20665356D01*
X9821014Y20675321D01*
X9842958Y20683173D01*
X9865567Y20688837D01*
X9888622Y20692256D01*
X9911901Y20693400D01*
X10486901Y20693400D01*
X10510180Y20692256D01*
X10510180Y20692256D01*
G37*
D14*
X10199401Y20218400D03*
D10*
G36*
X12260178Y20692256D02*
X12283233Y20688837D01*
X12305842Y20683173D01*
X12327786Y20675321D01*
X12348856Y20665356D01*
X12368847Y20653374D01*
X12387567Y20639490D01*
X12404837Y20623838D01*
X12420489Y20606568D01*
X12434373Y20587848D01*
X12446355Y20567857D01*
X12456320Y20546787D01*
X12464172Y20524843D01*
X12469836Y20502234D01*
X12473255Y20479179D01*
X12474399Y20455900D01*
X12474399Y19980900D01*
X12473255Y19957621D01*
X12469836Y19934566D01*
X12464172Y19911957D01*
X12456320Y19890013D01*
X12446355Y19868943D01*
X12434373Y19848952D01*
X12420489Y19830232D01*
X12404837Y19812962D01*
X12387567Y19797310D01*
X12368847Y19783426D01*
X12348856Y19771444D01*
X12327786Y19761479D01*
X12305842Y19753627D01*
X12283233Y19747963D01*
X12260178Y19744544D01*
X12236899Y19743400D01*
X11661899Y19743400D01*
X11638620Y19744544D01*
X11615565Y19747963D01*
X11592956Y19753627D01*
X11571012Y19761479D01*
X11549942Y19771444D01*
X11529951Y19783426D01*
X11511231Y19797310D01*
X11493961Y19812962D01*
X11478309Y19830232D01*
X11464425Y19848952D01*
X11452443Y19868943D01*
X11442478Y19890013D01*
X11434626Y19911957D01*
X11428962Y19934566D01*
X11425543Y19957621D01*
X11424399Y19980900D01*
X11424399Y20455900D01*
X11425543Y20479179D01*
X11428962Y20502234D01*
X11434626Y20524843D01*
X11442478Y20546787D01*
X11452443Y20567857D01*
X11464425Y20587848D01*
X11478309Y20606568D01*
X11493961Y20623838D01*
X11511231Y20639490D01*
X11529951Y20653374D01*
X11549942Y20665356D01*
X11571012Y20675321D01*
X11592956Y20683173D01*
X11615565Y20688837D01*
X11638620Y20692256D01*
X11661899Y20693400D01*
X12236899Y20693400D01*
X12260178Y20692256D01*
X12260178Y20692256D01*
G37*
D14*
X11949399Y20218400D03*
G04 #@! TD*
D10*
G04 #@! TO.C,R3*
G36*
X-12289221Y-14401144D02*
X-12266166Y-14404563D01*
X-12243557Y-14410227D01*
X-12221613Y-14418079D01*
X-12200543Y-14428044D01*
X-12180552Y-14440026D01*
X-12161832Y-14453910D01*
X-12144562Y-14469562D01*
X-12128910Y-14486832D01*
X-12115026Y-14505552D01*
X-12103044Y-14525543D01*
X-12093079Y-14546613D01*
X-12085227Y-14568557D01*
X-12079563Y-14591166D01*
X-12076144Y-14614221D01*
X-12075000Y-14637500D01*
X-12075000Y-15112500D01*
X-12076144Y-15135779D01*
X-12079563Y-15158834D01*
X-12085227Y-15181443D01*
X-12093079Y-15203387D01*
X-12103044Y-15224457D01*
X-12115026Y-15244448D01*
X-12128910Y-15263168D01*
X-12144562Y-15280438D01*
X-12161832Y-15296090D01*
X-12180552Y-15309974D01*
X-12200543Y-15321956D01*
X-12221613Y-15331921D01*
X-12243557Y-15339773D01*
X-12266166Y-15345437D01*
X-12289221Y-15348856D01*
X-12312500Y-15350000D01*
X-12887500Y-15350000D01*
X-12910779Y-15348856D01*
X-12933834Y-15345437D01*
X-12956443Y-15339773D01*
X-12978387Y-15331921D01*
X-12999457Y-15321956D01*
X-13019448Y-15309974D01*
X-13038168Y-15296090D01*
X-13055438Y-15280438D01*
X-13071090Y-15263168D01*
X-13084974Y-15244448D01*
X-13096956Y-15224457D01*
X-13106921Y-15203387D01*
X-13114773Y-15181443D01*
X-13120437Y-15158834D01*
X-13123856Y-15135779D01*
X-13125000Y-15112500D01*
X-13125000Y-14637500D01*
X-13123856Y-14614221D01*
X-13120437Y-14591166D01*
X-13114773Y-14568557D01*
X-13106921Y-14546613D01*
X-13096956Y-14525543D01*
X-13084974Y-14505552D01*
X-13071090Y-14486832D01*
X-13055438Y-14469562D01*
X-13038168Y-14453910D01*
X-13019448Y-14440026D01*
X-12999457Y-14428044D01*
X-12978387Y-14418079D01*
X-12956443Y-14410227D01*
X-12933834Y-14404563D01*
X-12910779Y-14401144D01*
X-12887500Y-14400000D01*
X-12312500Y-14400000D01*
X-12289221Y-14401144D01*
X-12289221Y-14401144D01*
G37*
D14*
X-12600000Y-14875000D03*
D10*
G36*
X-10539221Y-14401144D02*
X-10516166Y-14404563D01*
X-10493557Y-14410227D01*
X-10471613Y-14418079D01*
X-10450543Y-14428044D01*
X-10430552Y-14440026D01*
X-10411832Y-14453910D01*
X-10394562Y-14469562D01*
X-10378910Y-14486832D01*
X-10365026Y-14505552D01*
X-10353044Y-14525543D01*
X-10343079Y-14546613D01*
X-10335227Y-14568557D01*
X-10329563Y-14591166D01*
X-10326144Y-14614221D01*
X-10325000Y-14637500D01*
X-10325000Y-15112500D01*
X-10326144Y-15135779D01*
X-10329563Y-15158834D01*
X-10335227Y-15181443D01*
X-10343079Y-15203387D01*
X-10353044Y-15224457D01*
X-10365026Y-15244448D01*
X-10378910Y-15263168D01*
X-10394562Y-15280438D01*
X-10411832Y-15296090D01*
X-10430552Y-15309974D01*
X-10450543Y-15321956D01*
X-10471613Y-15331921D01*
X-10493557Y-15339773D01*
X-10516166Y-15345437D01*
X-10539221Y-15348856D01*
X-10562500Y-15350000D01*
X-11137500Y-15350000D01*
X-11160779Y-15348856D01*
X-11183834Y-15345437D01*
X-11206443Y-15339773D01*
X-11228387Y-15331921D01*
X-11249457Y-15321956D01*
X-11269448Y-15309974D01*
X-11288168Y-15296090D01*
X-11305438Y-15280438D01*
X-11321090Y-15263168D01*
X-11334974Y-15244448D01*
X-11346956Y-15224457D01*
X-11356921Y-15203387D01*
X-11364773Y-15181443D01*
X-11370437Y-15158834D01*
X-11373856Y-15135779D01*
X-11375000Y-15112500D01*
X-11375000Y-14637500D01*
X-11373856Y-14614221D01*
X-11370437Y-14591166D01*
X-11364773Y-14568557D01*
X-11356921Y-14546613D01*
X-11346956Y-14525543D01*
X-11334974Y-14505552D01*
X-11321090Y-14486832D01*
X-11305438Y-14469562D01*
X-11288168Y-14453910D01*
X-11269448Y-14440026D01*
X-11249457Y-14428044D01*
X-11228387Y-14418079D01*
X-11206443Y-14410227D01*
X-11183834Y-14404563D01*
X-11160779Y-14401144D01*
X-11137500Y-14400000D01*
X-10562500Y-14400000D01*
X-10539221Y-14401144D01*
X-10539221Y-14401144D01*
G37*
D14*
X-10850000Y-14875000D03*
G04 #@! TD*
D10*
G04 #@! TO.C,R4*
G36*
X-4564221Y-13176144D02*
X-4541166Y-13179563D01*
X-4518557Y-13185227D01*
X-4496613Y-13193079D01*
X-4475543Y-13203044D01*
X-4455552Y-13215026D01*
X-4436832Y-13228910D01*
X-4419562Y-13244562D01*
X-4403910Y-13261832D01*
X-4390026Y-13280552D01*
X-4378044Y-13300543D01*
X-4368079Y-13321613D01*
X-4360227Y-13343557D01*
X-4354563Y-13366166D01*
X-4351144Y-13389221D01*
X-4350000Y-13412500D01*
X-4350000Y-13887500D01*
X-4351144Y-13910779D01*
X-4354563Y-13933834D01*
X-4360227Y-13956443D01*
X-4368079Y-13978387D01*
X-4378044Y-13999457D01*
X-4390026Y-14019448D01*
X-4403910Y-14038168D01*
X-4419562Y-14055438D01*
X-4436832Y-14071090D01*
X-4455552Y-14084974D01*
X-4475543Y-14096956D01*
X-4496613Y-14106921D01*
X-4518557Y-14114773D01*
X-4541166Y-14120437D01*
X-4564221Y-14123856D01*
X-4587500Y-14125000D01*
X-5162500Y-14125000D01*
X-5185779Y-14123856D01*
X-5208834Y-14120437D01*
X-5231443Y-14114773D01*
X-5253387Y-14106921D01*
X-5274457Y-14096956D01*
X-5294448Y-14084974D01*
X-5313168Y-14071090D01*
X-5330438Y-14055438D01*
X-5346090Y-14038168D01*
X-5359974Y-14019448D01*
X-5371956Y-13999457D01*
X-5381921Y-13978387D01*
X-5389773Y-13956443D01*
X-5395437Y-13933834D01*
X-5398856Y-13910779D01*
X-5400000Y-13887500D01*
X-5400000Y-13412500D01*
X-5398856Y-13389221D01*
X-5395437Y-13366166D01*
X-5389773Y-13343557D01*
X-5381921Y-13321613D01*
X-5371956Y-13300543D01*
X-5359974Y-13280552D01*
X-5346090Y-13261832D01*
X-5330438Y-13244562D01*
X-5313168Y-13228910D01*
X-5294448Y-13215026D01*
X-5274457Y-13203044D01*
X-5253387Y-13193079D01*
X-5231443Y-13185227D01*
X-5208834Y-13179563D01*
X-5185779Y-13176144D01*
X-5162500Y-13175000D01*
X-4587500Y-13175000D01*
X-4564221Y-13176144D01*
X-4564221Y-13176144D01*
G37*
D14*
X-4875000Y-13650000D03*
D10*
G36*
X-2814221Y-13176144D02*
X-2791166Y-13179563D01*
X-2768557Y-13185227D01*
X-2746613Y-13193079D01*
X-2725543Y-13203044D01*
X-2705552Y-13215026D01*
X-2686832Y-13228910D01*
X-2669562Y-13244562D01*
X-2653910Y-13261832D01*
X-2640026Y-13280552D01*
X-2628044Y-13300543D01*
X-2618079Y-13321613D01*
X-2610227Y-13343557D01*
X-2604563Y-13366166D01*
X-2601144Y-13389221D01*
X-2600000Y-13412500D01*
X-2600000Y-13887500D01*
X-2601144Y-13910779D01*
X-2604563Y-13933834D01*
X-2610227Y-13956443D01*
X-2618079Y-13978387D01*
X-2628044Y-13999457D01*
X-2640026Y-14019448D01*
X-2653910Y-14038168D01*
X-2669562Y-14055438D01*
X-2686832Y-14071090D01*
X-2705552Y-14084974D01*
X-2725543Y-14096956D01*
X-2746613Y-14106921D01*
X-2768557Y-14114773D01*
X-2791166Y-14120437D01*
X-2814221Y-14123856D01*
X-2837500Y-14125000D01*
X-3412500Y-14125000D01*
X-3435779Y-14123856D01*
X-3458834Y-14120437D01*
X-3481443Y-14114773D01*
X-3503387Y-14106921D01*
X-3524457Y-14096956D01*
X-3544448Y-14084974D01*
X-3563168Y-14071090D01*
X-3580438Y-14055438D01*
X-3596090Y-14038168D01*
X-3609974Y-14019448D01*
X-3621956Y-13999457D01*
X-3631921Y-13978387D01*
X-3639773Y-13956443D01*
X-3645437Y-13933834D01*
X-3648856Y-13910779D01*
X-3650000Y-13887500D01*
X-3650000Y-13412500D01*
X-3648856Y-13389221D01*
X-3645437Y-13366166D01*
X-3639773Y-13343557D01*
X-3631921Y-13321613D01*
X-3621956Y-13300543D01*
X-3609974Y-13280552D01*
X-3596090Y-13261832D01*
X-3580438Y-13244562D01*
X-3563168Y-13228910D01*
X-3544448Y-13215026D01*
X-3524457Y-13203044D01*
X-3503387Y-13193079D01*
X-3481443Y-13185227D01*
X-3458834Y-13179563D01*
X-3435779Y-13176144D01*
X-3412500Y-13175000D01*
X-2837500Y-13175000D01*
X-2814221Y-13176144D01*
X-2814221Y-13176144D01*
G37*
D14*
X-3125000Y-13650000D03*
G04 #@! TD*
D10*
G04 #@! TO.C,R5*
G36*
X-7239221Y6748856D02*
X-7216166Y6745437D01*
X-7193557Y6739773D01*
X-7171613Y6731921D01*
X-7150543Y6721956D01*
X-7130552Y6709974D01*
X-7111832Y6696090D01*
X-7094562Y6680438D01*
X-7078910Y6663168D01*
X-7065026Y6644448D01*
X-7053044Y6624457D01*
X-7043079Y6603387D01*
X-7035227Y6581443D01*
X-7029563Y6558834D01*
X-7026144Y6535779D01*
X-7025000Y6512500D01*
X-7025000Y5937500D01*
X-7026144Y5914221D01*
X-7029563Y5891166D01*
X-7035227Y5868557D01*
X-7043079Y5846613D01*
X-7053044Y5825543D01*
X-7065026Y5805552D01*
X-7078910Y5786832D01*
X-7094562Y5769562D01*
X-7111832Y5753910D01*
X-7130552Y5740026D01*
X-7150543Y5728044D01*
X-7171613Y5718079D01*
X-7193557Y5710227D01*
X-7216166Y5704563D01*
X-7239221Y5701144D01*
X-7262500Y5700000D01*
X-7737500Y5700000D01*
X-7760779Y5701144D01*
X-7783834Y5704563D01*
X-7806443Y5710227D01*
X-7828387Y5718079D01*
X-7849457Y5728044D01*
X-7869448Y5740026D01*
X-7888168Y5753910D01*
X-7905438Y5769562D01*
X-7921090Y5786832D01*
X-7934974Y5805552D01*
X-7946956Y5825543D01*
X-7956921Y5846613D01*
X-7964773Y5868557D01*
X-7970437Y5891166D01*
X-7973856Y5914221D01*
X-7975000Y5937500D01*
X-7975000Y6512500D01*
X-7973856Y6535779D01*
X-7970437Y6558834D01*
X-7964773Y6581443D01*
X-7956921Y6603387D01*
X-7946956Y6624457D01*
X-7934974Y6644448D01*
X-7921090Y6663168D01*
X-7905438Y6680438D01*
X-7888168Y6696090D01*
X-7869448Y6709974D01*
X-7849457Y6721956D01*
X-7828387Y6731921D01*
X-7806443Y6739773D01*
X-7783834Y6745437D01*
X-7760779Y6748856D01*
X-7737500Y6750000D01*
X-7262500Y6750000D01*
X-7239221Y6748856D01*
X-7239221Y6748856D01*
G37*
D14*
X-7500000Y6225000D03*
D10*
G36*
X-7239221Y8498856D02*
X-7216166Y8495437D01*
X-7193557Y8489773D01*
X-7171613Y8481921D01*
X-7150543Y8471956D01*
X-7130552Y8459974D01*
X-7111832Y8446090D01*
X-7094562Y8430438D01*
X-7078910Y8413168D01*
X-7065026Y8394448D01*
X-7053044Y8374457D01*
X-7043079Y8353387D01*
X-7035227Y8331443D01*
X-7029563Y8308834D01*
X-7026144Y8285779D01*
X-7025000Y8262500D01*
X-7025000Y7687500D01*
X-7026144Y7664221D01*
X-7029563Y7641166D01*
X-7035227Y7618557D01*
X-7043079Y7596613D01*
X-7053044Y7575543D01*
X-7065026Y7555552D01*
X-7078910Y7536832D01*
X-7094562Y7519562D01*
X-7111832Y7503910D01*
X-7130552Y7490026D01*
X-7150543Y7478044D01*
X-7171613Y7468079D01*
X-7193557Y7460227D01*
X-7216166Y7454563D01*
X-7239221Y7451144D01*
X-7262500Y7450000D01*
X-7737500Y7450000D01*
X-7760779Y7451144D01*
X-7783834Y7454563D01*
X-7806443Y7460227D01*
X-7828387Y7468079D01*
X-7849457Y7478044D01*
X-7869448Y7490026D01*
X-7888168Y7503910D01*
X-7905438Y7519562D01*
X-7921090Y7536832D01*
X-7934974Y7555552D01*
X-7946956Y7575543D01*
X-7956921Y7596613D01*
X-7964773Y7618557D01*
X-7970437Y7641166D01*
X-7973856Y7664221D01*
X-7975000Y7687500D01*
X-7975000Y8262500D01*
X-7973856Y8285779D01*
X-7970437Y8308834D01*
X-7964773Y8331443D01*
X-7956921Y8353387D01*
X-7946956Y8374457D01*
X-7934974Y8394448D01*
X-7921090Y8413168D01*
X-7905438Y8430438D01*
X-7888168Y8446090D01*
X-7869448Y8459974D01*
X-7849457Y8471956D01*
X-7828387Y8481921D01*
X-7806443Y8489773D01*
X-7783834Y8495437D01*
X-7760779Y8498856D01*
X-7737500Y8500000D01*
X-7262500Y8500000D01*
X-7239221Y8498856D01*
X-7239221Y8498856D01*
G37*
D14*
X-7500000Y7975000D03*
G04 #@! TD*
D10*
G04 #@! TO.C,R6*
G36*
X-9039221Y8498856D02*
X-9016166Y8495437D01*
X-8993557Y8489773D01*
X-8971613Y8481921D01*
X-8950543Y8471956D01*
X-8930552Y8459974D01*
X-8911832Y8446090D01*
X-8894562Y8430438D01*
X-8878910Y8413168D01*
X-8865026Y8394448D01*
X-8853044Y8374457D01*
X-8843079Y8353387D01*
X-8835227Y8331443D01*
X-8829563Y8308834D01*
X-8826144Y8285779D01*
X-8825000Y8262500D01*
X-8825000Y7687500D01*
X-8826144Y7664221D01*
X-8829563Y7641166D01*
X-8835227Y7618557D01*
X-8843079Y7596613D01*
X-8853044Y7575543D01*
X-8865026Y7555552D01*
X-8878910Y7536832D01*
X-8894562Y7519562D01*
X-8911832Y7503910D01*
X-8930552Y7490026D01*
X-8950543Y7478044D01*
X-8971613Y7468079D01*
X-8993557Y7460227D01*
X-9016166Y7454563D01*
X-9039221Y7451144D01*
X-9062500Y7450000D01*
X-9537500Y7450000D01*
X-9560779Y7451144D01*
X-9583834Y7454563D01*
X-9606443Y7460227D01*
X-9628387Y7468079D01*
X-9649457Y7478044D01*
X-9669448Y7490026D01*
X-9688168Y7503910D01*
X-9705438Y7519562D01*
X-9721090Y7536832D01*
X-9734974Y7555552D01*
X-9746956Y7575543D01*
X-9756921Y7596613D01*
X-9764773Y7618557D01*
X-9770437Y7641166D01*
X-9773856Y7664221D01*
X-9775000Y7687500D01*
X-9775000Y8262500D01*
X-9773856Y8285779D01*
X-9770437Y8308834D01*
X-9764773Y8331443D01*
X-9756921Y8353387D01*
X-9746956Y8374457D01*
X-9734974Y8394448D01*
X-9721090Y8413168D01*
X-9705438Y8430438D01*
X-9688168Y8446090D01*
X-9669448Y8459974D01*
X-9649457Y8471956D01*
X-9628387Y8481921D01*
X-9606443Y8489773D01*
X-9583834Y8495437D01*
X-9560779Y8498856D01*
X-9537500Y8500000D01*
X-9062500Y8500000D01*
X-9039221Y8498856D01*
X-9039221Y8498856D01*
G37*
D14*
X-9300000Y7975000D03*
D10*
G36*
X-9039221Y6748856D02*
X-9016166Y6745437D01*
X-8993557Y6739773D01*
X-8971613Y6731921D01*
X-8950543Y6721956D01*
X-8930552Y6709974D01*
X-8911832Y6696090D01*
X-8894562Y6680438D01*
X-8878910Y6663168D01*
X-8865026Y6644448D01*
X-8853044Y6624457D01*
X-8843079Y6603387D01*
X-8835227Y6581443D01*
X-8829563Y6558834D01*
X-8826144Y6535779D01*
X-8825000Y6512500D01*
X-8825000Y5937500D01*
X-8826144Y5914221D01*
X-8829563Y5891166D01*
X-8835227Y5868557D01*
X-8843079Y5846613D01*
X-8853044Y5825543D01*
X-8865026Y5805552D01*
X-8878910Y5786832D01*
X-8894562Y5769562D01*
X-8911832Y5753910D01*
X-8930552Y5740026D01*
X-8950543Y5728044D01*
X-8971613Y5718079D01*
X-8993557Y5710227D01*
X-9016166Y5704563D01*
X-9039221Y5701144D01*
X-9062500Y5700000D01*
X-9537500Y5700000D01*
X-9560779Y5701144D01*
X-9583834Y5704563D01*
X-9606443Y5710227D01*
X-9628387Y5718079D01*
X-9649457Y5728044D01*
X-9669448Y5740026D01*
X-9688168Y5753910D01*
X-9705438Y5769562D01*
X-9721090Y5786832D01*
X-9734974Y5805552D01*
X-9746956Y5825543D01*
X-9756921Y5846613D01*
X-9764773Y5868557D01*
X-9770437Y5891166D01*
X-9773856Y5914221D01*
X-9775000Y5937500D01*
X-9775000Y6512500D01*
X-9773856Y6535779D01*
X-9770437Y6558834D01*
X-9764773Y6581443D01*
X-9756921Y6603387D01*
X-9746956Y6624457D01*
X-9734974Y6644448D01*
X-9721090Y6663168D01*
X-9705438Y6680438D01*
X-9688168Y6696090D01*
X-9669448Y6709974D01*
X-9649457Y6721956D01*
X-9628387Y6731921D01*
X-9606443Y6739773D01*
X-9583834Y6745437D01*
X-9560779Y6748856D01*
X-9537500Y6750000D01*
X-9062500Y6750000D01*
X-9039221Y6748856D01*
X-9039221Y6748856D01*
G37*
D14*
X-9300000Y6225000D03*
G04 #@! TD*
D10*
G04 #@! TO.C,R7*
G36*
X-10939221Y6748856D02*
X-10916166Y6745437D01*
X-10893557Y6739773D01*
X-10871613Y6731921D01*
X-10850543Y6721956D01*
X-10830552Y6709974D01*
X-10811832Y6696090D01*
X-10794562Y6680438D01*
X-10778910Y6663168D01*
X-10765026Y6644448D01*
X-10753044Y6624457D01*
X-10743079Y6603387D01*
X-10735227Y6581443D01*
X-10729563Y6558834D01*
X-10726144Y6535779D01*
X-10725000Y6512500D01*
X-10725000Y5937500D01*
X-10726144Y5914221D01*
X-10729563Y5891166D01*
X-10735227Y5868557D01*
X-10743079Y5846613D01*
X-10753044Y5825543D01*
X-10765026Y5805552D01*
X-10778910Y5786832D01*
X-10794562Y5769562D01*
X-10811832Y5753910D01*
X-10830552Y5740026D01*
X-10850543Y5728044D01*
X-10871613Y5718079D01*
X-10893557Y5710227D01*
X-10916166Y5704563D01*
X-10939221Y5701144D01*
X-10962500Y5700000D01*
X-11437500Y5700000D01*
X-11460779Y5701144D01*
X-11483834Y5704563D01*
X-11506443Y5710227D01*
X-11528387Y5718079D01*
X-11549457Y5728044D01*
X-11569448Y5740026D01*
X-11588168Y5753910D01*
X-11605438Y5769562D01*
X-11621090Y5786832D01*
X-11634974Y5805552D01*
X-11646956Y5825543D01*
X-11656921Y5846613D01*
X-11664773Y5868557D01*
X-11670437Y5891166D01*
X-11673856Y5914221D01*
X-11675000Y5937500D01*
X-11675000Y6512500D01*
X-11673856Y6535779D01*
X-11670437Y6558834D01*
X-11664773Y6581443D01*
X-11656921Y6603387D01*
X-11646956Y6624457D01*
X-11634974Y6644448D01*
X-11621090Y6663168D01*
X-11605438Y6680438D01*
X-11588168Y6696090D01*
X-11569448Y6709974D01*
X-11549457Y6721956D01*
X-11528387Y6731921D01*
X-11506443Y6739773D01*
X-11483834Y6745437D01*
X-11460779Y6748856D01*
X-11437500Y6750000D01*
X-10962500Y6750000D01*
X-10939221Y6748856D01*
X-10939221Y6748856D01*
G37*
D14*
X-11200000Y6225000D03*
D10*
G36*
X-10939221Y8498856D02*
X-10916166Y8495437D01*
X-10893557Y8489773D01*
X-10871613Y8481921D01*
X-10850543Y8471956D01*
X-10830552Y8459974D01*
X-10811832Y8446090D01*
X-10794562Y8430438D01*
X-10778910Y8413168D01*
X-10765026Y8394448D01*
X-10753044Y8374457D01*
X-10743079Y8353387D01*
X-10735227Y8331443D01*
X-10729563Y8308834D01*
X-10726144Y8285779D01*
X-10725000Y8262500D01*
X-10725000Y7687500D01*
X-10726144Y7664221D01*
X-10729563Y7641166D01*
X-10735227Y7618557D01*
X-10743079Y7596613D01*
X-10753044Y7575543D01*
X-10765026Y7555552D01*
X-10778910Y7536832D01*
X-10794562Y7519562D01*
X-10811832Y7503910D01*
X-10830552Y7490026D01*
X-10850543Y7478044D01*
X-10871613Y7468079D01*
X-10893557Y7460227D01*
X-10916166Y7454563D01*
X-10939221Y7451144D01*
X-10962500Y7450000D01*
X-11437500Y7450000D01*
X-11460779Y7451144D01*
X-11483834Y7454563D01*
X-11506443Y7460227D01*
X-11528387Y7468079D01*
X-11549457Y7478044D01*
X-11569448Y7490026D01*
X-11588168Y7503910D01*
X-11605438Y7519562D01*
X-11621090Y7536832D01*
X-11634974Y7555552D01*
X-11646956Y7575543D01*
X-11656921Y7596613D01*
X-11664773Y7618557D01*
X-11670437Y7641166D01*
X-11673856Y7664221D01*
X-11675000Y7687500D01*
X-11675000Y8262500D01*
X-11673856Y8285779D01*
X-11670437Y8308834D01*
X-11664773Y8331443D01*
X-11656921Y8353387D01*
X-11646956Y8374457D01*
X-11634974Y8394448D01*
X-11621090Y8413168D01*
X-11605438Y8430438D01*
X-11588168Y8446090D01*
X-11569448Y8459974D01*
X-11549457Y8471956D01*
X-11528387Y8481921D01*
X-11506443Y8489773D01*
X-11483834Y8495437D01*
X-11460779Y8498856D01*
X-11437500Y8500000D01*
X-10962500Y8500000D01*
X-10939221Y8498856D01*
X-10939221Y8498856D01*
G37*
D14*
X-11200000Y7975000D03*
G04 #@! TD*
D10*
G04 #@! TO.C,C4*
G36*
X11036958Y-295710D02*
X11051276Y-297834D01*
X11065317Y-301351D01*
X11078946Y-306228D01*
X11092031Y-312417D01*
X11104447Y-319858D01*
X11116073Y-328481D01*
X11126798Y-338202D01*
X11136519Y-348927D01*
X11145142Y-360553D01*
X11152583Y-372969D01*
X11158772Y-386054D01*
X11163649Y-399683D01*
X11167166Y-413724D01*
X11169290Y-428042D01*
X11170000Y-442500D01*
X11170000Y-737500D01*
X11169290Y-751958D01*
X11167166Y-766276D01*
X11163649Y-780317D01*
X11158772Y-793946D01*
X11152583Y-807031D01*
X11145142Y-819447D01*
X11136519Y-831073D01*
X11126798Y-841798D01*
X11116073Y-851519D01*
X11104447Y-860142D01*
X11092031Y-867583D01*
X11078946Y-873772D01*
X11065317Y-878649D01*
X11051276Y-882166D01*
X11036958Y-884290D01*
X11022500Y-885000D01*
X10677500Y-885000D01*
X10663042Y-884290D01*
X10648724Y-882166D01*
X10634683Y-878649D01*
X10621054Y-873772D01*
X10607969Y-867583D01*
X10595553Y-860142D01*
X10583927Y-851519D01*
X10573202Y-841798D01*
X10563481Y-831073D01*
X10554858Y-819447D01*
X10547417Y-807031D01*
X10541228Y-793946D01*
X10536351Y-780317D01*
X10532834Y-766276D01*
X10530710Y-751958D01*
X10530000Y-737500D01*
X10530000Y-442500D01*
X10530710Y-428042D01*
X10532834Y-413724D01*
X10536351Y-399683D01*
X10541228Y-386054D01*
X10547417Y-372969D01*
X10554858Y-360553D01*
X10563481Y-348927D01*
X10573202Y-338202D01*
X10583927Y-328481D01*
X10595553Y-319858D01*
X10607969Y-312417D01*
X10621054Y-306228D01*
X10634683Y-301351D01*
X10648724Y-297834D01*
X10663042Y-295710D01*
X10677500Y-295000D01*
X11022500Y-295000D01*
X11036958Y-295710D01*
X11036958Y-295710D01*
G37*
D12*
X10850000Y-590000D03*
D10*
G36*
X11036958Y674290D02*
X11051276Y672166D01*
X11065317Y668649D01*
X11078946Y663772D01*
X11092031Y657583D01*
X11104447Y650142D01*
X11116073Y641519D01*
X11126798Y631798D01*
X11136519Y621073D01*
X11145142Y609447D01*
X11152583Y597031D01*
X11158772Y583946D01*
X11163649Y570317D01*
X11167166Y556276D01*
X11169290Y541958D01*
X11170000Y527500D01*
X11170000Y232500D01*
X11169290Y218042D01*
X11167166Y203724D01*
X11163649Y189683D01*
X11158772Y176054D01*
X11152583Y162969D01*
X11145142Y150553D01*
X11136519Y138927D01*
X11126798Y128202D01*
X11116073Y118481D01*
X11104447Y109858D01*
X11092031Y102417D01*
X11078946Y96228D01*
X11065317Y91351D01*
X11051276Y87834D01*
X11036958Y85710D01*
X11022500Y85000D01*
X10677500Y85000D01*
X10663042Y85710D01*
X10648724Y87834D01*
X10634683Y91351D01*
X10621054Y96228D01*
X10607969Y102417D01*
X10595553Y109858D01*
X10583927Y118481D01*
X10573202Y128202D01*
X10563481Y138927D01*
X10554858Y150553D01*
X10547417Y162969D01*
X10541228Y176054D01*
X10536351Y189683D01*
X10532834Y203724D01*
X10530710Y218042D01*
X10530000Y232500D01*
X10530000Y527500D01*
X10530710Y541958D01*
X10532834Y556276D01*
X10536351Y570317D01*
X10541228Y583946D01*
X10547417Y597031D01*
X10554858Y609447D01*
X10563481Y621073D01*
X10573202Y631798D01*
X10583927Y641519D01*
X10595553Y650142D01*
X10607969Y657583D01*
X10621054Y663772D01*
X10634683Y668649D01*
X10648724Y672166D01*
X10663042Y674290D01*
X10677500Y675000D01*
X11022500Y675000D01*
X11036958Y674290D01*
X11036958Y674290D01*
G37*
D12*
X10850000Y380000D03*
G04 #@! TD*
D10*
G04 #@! TO.C,C5*
G36*
X9086958Y719290D02*
X9101276Y717166D01*
X9115317Y713649D01*
X9128946Y708772D01*
X9142031Y702583D01*
X9154447Y695142D01*
X9166073Y686519D01*
X9176798Y676798D01*
X9186519Y666073D01*
X9195142Y654447D01*
X9202583Y642031D01*
X9208772Y628946D01*
X9213649Y615317D01*
X9217166Y601276D01*
X9219290Y586958D01*
X9220000Y572500D01*
X9220000Y277500D01*
X9219290Y263042D01*
X9217166Y248724D01*
X9213649Y234683D01*
X9208772Y221054D01*
X9202583Y207969D01*
X9195142Y195553D01*
X9186519Y183927D01*
X9176798Y173202D01*
X9166073Y163481D01*
X9154447Y154858D01*
X9142031Y147417D01*
X9128946Y141228D01*
X9115317Y136351D01*
X9101276Y132834D01*
X9086958Y130710D01*
X9072500Y130000D01*
X8727500Y130000D01*
X8713042Y130710D01*
X8698724Y132834D01*
X8684683Y136351D01*
X8671054Y141228D01*
X8657969Y147417D01*
X8645553Y154858D01*
X8633927Y163481D01*
X8623202Y173202D01*
X8613481Y183927D01*
X8604858Y195553D01*
X8597417Y207969D01*
X8591228Y221054D01*
X8586351Y234683D01*
X8582834Y248724D01*
X8580710Y263042D01*
X8580000Y277500D01*
X8580000Y572500D01*
X8580710Y586958D01*
X8582834Y601276D01*
X8586351Y615317D01*
X8591228Y628946D01*
X8597417Y642031D01*
X8604858Y654447D01*
X8613481Y666073D01*
X8623202Y676798D01*
X8633927Y686519D01*
X8645553Y695142D01*
X8657969Y702583D01*
X8671054Y708772D01*
X8684683Y713649D01*
X8698724Y717166D01*
X8713042Y719290D01*
X8727500Y720000D01*
X9072500Y720000D01*
X9086958Y719290D01*
X9086958Y719290D01*
G37*
D12*
X8900000Y425000D03*
D10*
G36*
X9086958Y-250710D02*
X9101276Y-252834D01*
X9115317Y-256351D01*
X9128946Y-261228D01*
X9142031Y-267417D01*
X9154447Y-274858D01*
X9166073Y-283481D01*
X9176798Y-293202D01*
X9186519Y-303927D01*
X9195142Y-315553D01*
X9202583Y-327969D01*
X9208772Y-341054D01*
X9213649Y-354683D01*
X9217166Y-368724D01*
X9219290Y-383042D01*
X9220000Y-397500D01*
X9220000Y-692500D01*
X9219290Y-706958D01*
X9217166Y-721276D01*
X9213649Y-735317D01*
X9208772Y-748946D01*
X9202583Y-762031D01*
X9195142Y-774447D01*
X9186519Y-786073D01*
X9176798Y-796798D01*
X9166073Y-806519D01*
X9154447Y-815142D01*
X9142031Y-822583D01*
X9128946Y-828772D01*
X9115317Y-833649D01*
X9101276Y-837166D01*
X9086958Y-839290D01*
X9072500Y-840000D01*
X8727500Y-840000D01*
X8713042Y-839290D01*
X8698724Y-837166D01*
X8684683Y-833649D01*
X8671054Y-828772D01*
X8657969Y-822583D01*
X8645553Y-815142D01*
X8633927Y-806519D01*
X8623202Y-796798D01*
X8613481Y-786073D01*
X8604858Y-774447D01*
X8597417Y-762031D01*
X8591228Y-748946D01*
X8586351Y-735317D01*
X8582834Y-721276D01*
X8580710Y-706958D01*
X8580000Y-692500D01*
X8580000Y-397500D01*
X8580710Y-383042D01*
X8582834Y-368724D01*
X8586351Y-354683D01*
X8591228Y-341054D01*
X8597417Y-327969D01*
X8604858Y-315553D01*
X8613481Y-303927D01*
X8623202Y-293202D01*
X8633927Y-283481D01*
X8645553Y-274858D01*
X8657969Y-267417D01*
X8671054Y-261228D01*
X8684683Y-256351D01*
X8698724Y-252834D01*
X8713042Y-250710D01*
X8727500Y-250000D01*
X9072500Y-250000D01*
X9086958Y-250710D01*
X9086958Y-250710D01*
G37*
D12*
X8900000Y-545000D03*
G04 #@! TD*
D10*
G04 #@! TO.C,C6*
G36*
X14911958Y-2585710D02*
X14926276Y-2587834D01*
X14940317Y-2591351D01*
X14953946Y-2596228D01*
X14967031Y-2602417D01*
X14979447Y-2609858D01*
X14991073Y-2618481D01*
X15001798Y-2628202D01*
X15011519Y-2638927D01*
X15020142Y-2650553D01*
X15027583Y-2662969D01*
X15033772Y-2676054D01*
X15038649Y-2689683D01*
X15042166Y-2703724D01*
X15044290Y-2718042D01*
X15045000Y-2732500D01*
X15045000Y-3027500D01*
X15044290Y-3041958D01*
X15042166Y-3056276D01*
X15038649Y-3070317D01*
X15033772Y-3083946D01*
X15027583Y-3097031D01*
X15020142Y-3109447D01*
X15011519Y-3121073D01*
X15001798Y-3131798D01*
X14991073Y-3141519D01*
X14979447Y-3150142D01*
X14967031Y-3157583D01*
X14953946Y-3163772D01*
X14940317Y-3168649D01*
X14926276Y-3172166D01*
X14911958Y-3174290D01*
X14897500Y-3175000D01*
X14552500Y-3175000D01*
X14538042Y-3174290D01*
X14523724Y-3172166D01*
X14509683Y-3168649D01*
X14496054Y-3163772D01*
X14482969Y-3157583D01*
X14470553Y-3150142D01*
X14458927Y-3141519D01*
X14448202Y-3131798D01*
X14438481Y-3121073D01*
X14429858Y-3109447D01*
X14422417Y-3097031D01*
X14416228Y-3083946D01*
X14411351Y-3070317D01*
X14407834Y-3056276D01*
X14405710Y-3041958D01*
X14405000Y-3027500D01*
X14405000Y-2732500D01*
X14405710Y-2718042D01*
X14407834Y-2703724D01*
X14411351Y-2689683D01*
X14416228Y-2676054D01*
X14422417Y-2662969D01*
X14429858Y-2650553D01*
X14438481Y-2638927D01*
X14448202Y-2628202D01*
X14458927Y-2618481D01*
X14470553Y-2609858D01*
X14482969Y-2602417D01*
X14496054Y-2596228D01*
X14509683Y-2591351D01*
X14523724Y-2587834D01*
X14538042Y-2585710D01*
X14552500Y-2585000D01*
X14897500Y-2585000D01*
X14911958Y-2585710D01*
X14911958Y-2585710D01*
G37*
D12*
X14725000Y-2880000D03*
D10*
G36*
X14911958Y-3555710D02*
X14926276Y-3557834D01*
X14940317Y-3561351D01*
X14953946Y-3566228D01*
X14967031Y-3572417D01*
X14979447Y-3579858D01*
X14991073Y-3588481D01*
X15001798Y-3598202D01*
X15011519Y-3608927D01*
X15020142Y-3620553D01*
X15027583Y-3632969D01*
X15033772Y-3646054D01*
X15038649Y-3659683D01*
X15042166Y-3673724D01*
X15044290Y-3688042D01*
X15045000Y-3702500D01*
X15045000Y-3997500D01*
X15044290Y-4011958D01*
X15042166Y-4026276D01*
X15038649Y-4040317D01*
X15033772Y-4053946D01*
X15027583Y-4067031D01*
X15020142Y-4079447D01*
X15011519Y-4091073D01*
X15001798Y-4101798D01*
X14991073Y-4111519D01*
X14979447Y-4120142D01*
X14967031Y-4127583D01*
X14953946Y-4133772D01*
X14940317Y-4138649D01*
X14926276Y-4142166D01*
X14911958Y-4144290D01*
X14897500Y-4145000D01*
X14552500Y-4145000D01*
X14538042Y-4144290D01*
X14523724Y-4142166D01*
X14509683Y-4138649D01*
X14496054Y-4133772D01*
X14482969Y-4127583D01*
X14470553Y-4120142D01*
X14458927Y-4111519D01*
X14448202Y-4101798D01*
X14438481Y-4091073D01*
X14429858Y-4079447D01*
X14422417Y-4067031D01*
X14416228Y-4053946D01*
X14411351Y-4040317D01*
X14407834Y-4026276D01*
X14405710Y-4011958D01*
X14405000Y-3997500D01*
X14405000Y-3702500D01*
X14405710Y-3688042D01*
X14407834Y-3673724D01*
X14411351Y-3659683D01*
X14416228Y-3646054D01*
X14422417Y-3632969D01*
X14429858Y-3620553D01*
X14438481Y-3608927D01*
X14448202Y-3598202D01*
X14458927Y-3588481D01*
X14470553Y-3579858D01*
X14482969Y-3572417D01*
X14496054Y-3566228D01*
X14509683Y-3561351D01*
X14523724Y-3557834D01*
X14538042Y-3555710D01*
X14552500Y-3555000D01*
X14897500Y-3555000D01*
X14911958Y-3555710D01*
X14911958Y-3555710D01*
G37*
D12*
X14725000Y-3850000D03*
G04 #@! TD*
D10*
G04 #@! TO.C,C7*
G36*
X5176958Y-45710D02*
X5191276Y-47834D01*
X5205317Y-51351D01*
X5218946Y-56228D01*
X5232031Y-62417D01*
X5244447Y-69858D01*
X5256073Y-78481D01*
X5266798Y-88202D01*
X5276519Y-98927D01*
X5285142Y-110553D01*
X5292583Y-122969D01*
X5298772Y-136054D01*
X5303649Y-149683D01*
X5307166Y-163724D01*
X5309290Y-178042D01*
X5310000Y-192500D01*
X5310000Y-537500D01*
X5309290Y-551958D01*
X5307166Y-566276D01*
X5303649Y-580317D01*
X5298772Y-593946D01*
X5292583Y-607031D01*
X5285142Y-619447D01*
X5276519Y-631073D01*
X5266798Y-641798D01*
X5256073Y-651519D01*
X5244447Y-660142D01*
X5232031Y-667583D01*
X5218946Y-673772D01*
X5205317Y-678649D01*
X5191276Y-682166D01*
X5176958Y-684290D01*
X5162500Y-685000D01*
X4867500Y-685000D01*
X4853042Y-684290D01*
X4838724Y-682166D01*
X4824683Y-678649D01*
X4811054Y-673772D01*
X4797969Y-667583D01*
X4785553Y-660142D01*
X4773927Y-651519D01*
X4763202Y-641798D01*
X4753481Y-631073D01*
X4744858Y-619447D01*
X4737417Y-607031D01*
X4731228Y-593946D01*
X4726351Y-580317D01*
X4722834Y-566276D01*
X4720710Y-551958D01*
X4720000Y-537500D01*
X4720000Y-192500D01*
X4720710Y-178042D01*
X4722834Y-163724D01*
X4726351Y-149683D01*
X4731228Y-136054D01*
X4737417Y-122969D01*
X4744858Y-110553D01*
X4753481Y-98927D01*
X4763202Y-88202D01*
X4773927Y-78481D01*
X4785553Y-69858D01*
X4797969Y-62417D01*
X4811054Y-56228D01*
X4824683Y-51351D01*
X4838724Y-47834D01*
X4853042Y-45710D01*
X4867500Y-45000D01*
X5162500Y-45000D01*
X5176958Y-45710D01*
X5176958Y-45710D01*
G37*
D12*
X5015000Y-365000D03*
D10*
G36*
X6146958Y-45710D02*
X6161276Y-47834D01*
X6175317Y-51351D01*
X6188946Y-56228D01*
X6202031Y-62417D01*
X6214447Y-69858D01*
X6226073Y-78481D01*
X6236798Y-88202D01*
X6246519Y-98927D01*
X6255142Y-110553D01*
X6262583Y-122969D01*
X6268772Y-136054D01*
X6273649Y-149683D01*
X6277166Y-163724D01*
X6279290Y-178042D01*
X6280000Y-192500D01*
X6280000Y-537500D01*
X6279290Y-551958D01*
X6277166Y-566276D01*
X6273649Y-580317D01*
X6268772Y-593946D01*
X6262583Y-607031D01*
X6255142Y-619447D01*
X6246519Y-631073D01*
X6236798Y-641798D01*
X6226073Y-651519D01*
X6214447Y-660142D01*
X6202031Y-667583D01*
X6188946Y-673772D01*
X6175317Y-678649D01*
X6161276Y-682166D01*
X6146958Y-684290D01*
X6132500Y-685000D01*
X5837500Y-685000D01*
X5823042Y-684290D01*
X5808724Y-682166D01*
X5794683Y-678649D01*
X5781054Y-673772D01*
X5767969Y-667583D01*
X5755553Y-660142D01*
X5743927Y-651519D01*
X5733202Y-641798D01*
X5723481Y-631073D01*
X5714858Y-619447D01*
X5707417Y-607031D01*
X5701228Y-593946D01*
X5696351Y-580317D01*
X5692834Y-566276D01*
X5690710Y-551958D01*
X5690000Y-537500D01*
X5690000Y-192500D01*
X5690710Y-178042D01*
X5692834Y-163724D01*
X5696351Y-149683D01*
X5701228Y-136054D01*
X5707417Y-122969D01*
X5714858Y-110553D01*
X5723481Y-98927D01*
X5733202Y-88202D01*
X5743927Y-78481D01*
X5755553Y-69858D01*
X5767969Y-62417D01*
X5781054Y-56228D01*
X5794683Y-51351D01*
X5808724Y-47834D01*
X5823042Y-45710D01*
X5837500Y-45000D01*
X6132500Y-45000D01*
X6146958Y-45710D01*
X6146958Y-45710D01*
G37*
D12*
X5985000Y-365000D03*
G04 #@! TD*
D10*
G04 #@! TO.C,C8*
G36*
X5191958Y-5045710D02*
X5206276Y-5047834D01*
X5220317Y-5051351D01*
X5233946Y-5056228D01*
X5247031Y-5062417D01*
X5259447Y-5069858D01*
X5271073Y-5078481D01*
X5281798Y-5088202D01*
X5291519Y-5098927D01*
X5300142Y-5110553D01*
X5307583Y-5122969D01*
X5313772Y-5136054D01*
X5318649Y-5149683D01*
X5322166Y-5163724D01*
X5324290Y-5178042D01*
X5325000Y-5192500D01*
X5325000Y-5537500D01*
X5324290Y-5551958D01*
X5322166Y-5566276D01*
X5318649Y-5580317D01*
X5313772Y-5593946D01*
X5307583Y-5607031D01*
X5300142Y-5619447D01*
X5291519Y-5631073D01*
X5281798Y-5641798D01*
X5271073Y-5651519D01*
X5259447Y-5660142D01*
X5247031Y-5667583D01*
X5233946Y-5673772D01*
X5220317Y-5678649D01*
X5206276Y-5682166D01*
X5191958Y-5684290D01*
X5177500Y-5685000D01*
X4882500Y-5685000D01*
X4868042Y-5684290D01*
X4853724Y-5682166D01*
X4839683Y-5678649D01*
X4826054Y-5673772D01*
X4812969Y-5667583D01*
X4800553Y-5660142D01*
X4788927Y-5651519D01*
X4778202Y-5641798D01*
X4768481Y-5631073D01*
X4759858Y-5619447D01*
X4752417Y-5607031D01*
X4746228Y-5593946D01*
X4741351Y-5580317D01*
X4737834Y-5566276D01*
X4735710Y-5551958D01*
X4735000Y-5537500D01*
X4735000Y-5192500D01*
X4735710Y-5178042D01*
X4737834Y-5163724D01*
X4741351Y-5149683D01*
X4746228Y-5136054D01*
X4752417Y-5122969D01*
X4759858Y-5110553D01*
X4768481Y-5098927D01*
X4778202Y-5088202D01*
X4788927Y-5078481D01*
X4800553Y-5069858D01*
X4812969Y-5062417D01*
X4826054Y-5056228D01*
X4839683Y-5051351D01*
X4853724Y-5047834D01*
X4868042Y-5045710D01*
X4882500Y-5045000D01*
X5177500Y-5045000D01*
X5191958Y-5045710D01*
X5191958Y-5045710D01*
G37*
D12*
X5030000Y-5365000D03*
D10*
G36*
X6161958Y-5045710D02*
X6176276Y-5047834D01*
X6190317Y-5051351D01*
X6203946Y-5056228D01*
X6217031Y-5062417D01*
X6229447Y-5069858D01*
X6241073Y-5078481D01*
X6251798Y-5088202D01*
X6261519Y-5098927D01*
X6270142Y-5110553D01*
X6277583Y-5122969D01*
X6283772Y-5136054D01*
X6288649Y-5149683D01*
X6292166Y-5163724D01*
X6294290Y-5178042D01*
X6295000Y-5192500D01*
X6295000Y-5537500D01*
X6294290Y-5551958D01*
X6292166Y-5566276D01*
X6288649Y-5580317D01*
X6283772Y-5593946D01*
X6277583Y-5607031D01*
X6270142Y-5619447D01*
X6261519Y-5631073D01*
X6251798Y-5641798D01*
X6241073Y-5651519D01*
X6229447Y-5660142D01*
X6217031Y-5667583D01*
X6203946Y-5673772D01*
X6190317Y-5678649D01*
X6176276Y-5682166D01*
X6161958Y-5684290D01*
X6147500Y-5685000D01*
X5852500Y-5685000D01*
X5838042Y-5684290D01*
X5823724Y-5682166D01*
X5809683Y-5678649D01*
X5796054Y-5673772D01*
X5782969Y-5667583D01*
X5770553Y-5660142D01*
X5758927Y-5651519D01*
X5748202Y-5641798D01*
X5738481Y-5631073D01*
X5729858Y-5619447D01*
X5722417Y-5607031D01*
X5716228Y-5593946D01*
X5711351Y-5580317D01*
X5707834Y-5566276D01*
X5705710Y-5551958D01*
X5705000Y-5537500D01*
X5705000Y-5192500D01*
X5705710Y-5178042D01*
X5707834Y-5163724D01*
X5711351Y-5149683D01*
X5716228Y-5136054D01*
X5722417Y-5122969D01*
X5729858Y-5110553D01*
X5738481Y-5098927D01*
X5748202Y-5088202D01*
X5758927Y-5078481D01*
X5770553Y-5069858D01*
X5782969Y-5062417D01*
X5796054Y-5056228D01*
X5809683Y-5051351D01*
X5823724Y-5047834D01*
X5838042Y-5045710D01*
X5852500Y-5045000D01*
X6147500Y-5045000D01*
X6161958Y-5045710D01*
X6161958Y-5045710D01*
G37*
D12*
X6000000Y-5365000D03*
G04 #@! TD*
D10*
G04 #@! TO.C,C9*
G36*
X7086958Y-6360710D02*
X7101276Y-6362834D01*
X7115317Y-6366351D01*
X7128946Y-6371228D01*
X7142031Y-6377417D01*
X7154447Y-6384858D01*
X7166073Y-6393481D01*
X7176798Y-6403202D01*
X7186519Y-6413927D01*
X7195142Y-6425553D01*
X7202583Y-6437969D01*
X7208772Y-6451054D01*
X7213649Y-6464683D01*
X7217166Y-6478724D01*
X7219290Y-6493042D01*
X7220000Y-6507500D01*
X7220000Y-6802500D01*
X7219290Y-6816958D01*
X7217166Y-6831276D01*
X7213649Y-6845317D01*
X7208772Y-6858946D01*
X7202583Y-6872031D01*
X7195142Y-6884447D01*
X7186519Y-6896073D01*
X7176798Y-6906798D01*
X7166073Y-6916519D01*
X7154447Y-6925142D01*
X7142031Y-6932583D01*
X7128946Y-6938772D01*
X7115317Y-6943649D01*
X7101276Y-6947166D01*
X7086958Y-6949290D01*
X7072500Y-6950000D01*
X6727500Y-6950000D01*
X6713042Y-6949290D01*
X6698724Y-6947166D01*
X6684683Y-6943649D01*
X6671054Y-6938772D01*
X6657969Y-6932583D01*
X6645553Y-6925142D01*
X6633927Y-6916519D01*
X6623202Y-6906798D01*
X6613481Y-6896073D01*
X6604858Y-6884447D01*
X6597417Y-6872031D01*
X6591228Y-6858946D01*
X6586351Y-6845317D01*
X6582834Y-6831276D01*
X6580710Y-6816958D01*
X6580000Y-6802500D01*
X6580000Y-6507500D01*
X6580710Y-6493042D01*
X6582834Y-6478724D01*
X6586351Y-6464683D01*
X6591228Y-6451054D01*
X6597417Y-6437969D01*
X6604858Y-6425553D01*
X6613481Y-6413927D01*
X6623202Y-6403202D01*
X6633927Y-6393481D01*
X6645553Y-6384858D01*
X6657969Y-6377417D01*
X6671054Y-6371228D01*
X6684683Y-6366351D01*
X6698724Y-6362834D01*
X6713042Y-6360710D01*
X6727500Y-6360000D01*
X7072500Y-6360000D01*
X7086958Y-6360710D01*
X7086958Y-6360710D01*
G37*
D12*
X6900000Y-6655000D03*
D10*
G36*
X7086958Y-7330710D02*
X7101276Y-7332834D01*
X7115317Y-7336351D01*
X7128946Y-7341228D01*
X7142031Y-7347417D01*
X7154447Y-7354858D01*
X7166073Y-7363481D01*
X7176798Y-7373202D01*
X7186519Y-7383927D01*
X7195142Y-7395553D01*
X7202583Y-7407969D01*
X7208772Y-7421054D01*
X7213649Y-7434683D01*
X7217166Y-7448724D01*
X7219290Y-7463042D01*
X7220000Y-7477500D01*
X7220000Y-7772500D01*
X7219290Y-7786958D01*
X7217166Y-7801276D01*
X7213649Y-7815317D01*
X7208772Y-7828946D01*
X7202583Y-7842031D01*
X7195142Y-7854447D01*
X7186519Y-7866073D01*
X7176798Y-7876798D01*
X7166073Y-7886519D01*
X7154447Y-7895142D01*
X7142031Y-7902583D01*
X7128946Y-7908772D01*
X7115317Y-7913649D01*
X7101276Y-7917166D01*
X7086958Y-7919290D01*
X7072500Y-7920000D01*
X6727500Y-7920000D01*
X6713042Y-7919290D01*
X6698724Y-7917166D01*
X6684683Y-7913649D01*
X6671054Y-7908772D01*
X6657969Y-7902583D01*
X6645553Y-7895142D01*
X6633927Y-7886519D01*
X6623202Y-7876798D01*
X6613481Y-7866073D01*
X6604858Y-7854447D01*
X6597417Y-7842031D01*
X6591228Y-7828946D01*
X6586351Y-7815317D01*
X6582834Y-7801276D01*
X6580710Y-7786958D01*
X6580000Y-7772500D01*
X6580000Y-7477500D01*
X6580710Y-7463042D01*
X6582834Y-7448724D01*
X6586351Y-7434683D01*
X6591228Y-7421054D01*
X6597417Y-7407969D01*
X6604858Y-7395553D01*
X6613481Y-7383927D01*
X6623202Y-7373202D01*
X6633927Y-7363481D01*
X6645553Y-7354858D01*
X6657969Y-7347417D01*
X6671054Y-7341228D01*
X6684683Y-7336351D01*
X6698724Y-7332834D01*
X6713042Y-7330710D01*
X6727500Y-7330000D01*
X7072500Y-7330000D01*
X7086958Y-7330710D01*
X7086958Y-7330710D01*
G37*
D12*
X6900000Y-7625000D03*
G04 #@! TD*
D10*
G04 #@! TO.C,C10*
G36*
X8526958Y-6360710D02*
X8541276Y-6362834D01*
X8555317Y-6366351D01*
X8568946Y-6371228D01*
X8582031Y-6377417D01*
X8594447Y-6384858D01*
X8606073Y-6393481D01*
X8616798Y-6403202D01*
X8626519Y-6413927D01*
X8635142Y-6425553D01*
X8642583Y-6437969D01*
X8648772Y-6451054D01*
X8653649Y-6464683D01*
X8657166Y-6478724D01*
X8659290Y-6493042D01*
X8660000Y-6507500D01*
X8660000Y-6802500D01*
X8659290Y-6816958D01*
X8657166Y-6831276D01*
X8653649Y-6845317D01*
X8648772Y-6858946D01*
X8642583Y-6872031D01*
X8635142Y-6884447D01*
X8626519Y-6896073D01*
X8616798Y-6906798D01*
X8606073Y-6916519D01*
X8594447Y-6925142D01*
X8582031Y-6932583D01*
X8568946Y-6938772D01*
X8555317Y-6943649D01*
X8541276Y-6947166D01*
X8526958Y-6949290D01*
X8512500Y-6950000D01*
X8167500Y-6950000D01*
X8153042Y-6949290D01*
X8138724Y-6947166D01*
X8124683Y-6943649D01*
X8111054Y-6938772D01*
X8097969Y-6932583D01*
X8085553Y-6925142D01*
X8073927Y-6916519D01*
X8063202Y-6906798D01*
X8053481Y-6896073D01*
X8044858Y-6884447D01*
X8037417Y-6872031D01*
X8031228Y-6858946D01*
X8026351Y-6845317D01*
X8022834Y-6831276D01*
X8020710Y-6816958D01*
X8020000Y-6802500D01*
X8020000Y-6507500D01*
X8020710Y-6493042D01*
X8022834Y-6478724D01*
X8026351Y-6464683D01*
X8031228Y-6451054D01*
X8037417Y-6437969D01*
X8044858Y-6425553D01*
X8053481Y-6413927D01*
X8063202Y-6403202D01*
X8073927Y-6393481D01*
X8085553Y-6384858D01*
X8097969Y-6377417D01*
X8111054Y-6371228D01*
X8124683Y-6366351D01*
X8138724Y-6362834D01*
X8153042Y-6360710D01*
X8167500Y-6360000D01*
X8512500Y-6360000D01*
X8526958Y-6360710D01*
X8526958Y-6360710D01*
G37*
D12*
X8340000Y-6655000D03*
D10*
G36*
X8526958Y-7330710D02*
X8541276Y-7332834D01*
X8555317Y-7336351D01*
X8568946Y-7341228D01*
X8582031Y-7347417D01*
X8594447Y-7354858D01*
X8606073Y-7363481D01*
X8616798Y-7373202D01*
X8626519Y-7383927D01*
X8635142Y-7395553D01*
X8642583Y-7407969D01*
X8648772Y-7421054D01*
X8653649Y-7434683D01*
X8657166Y-7448724D01*
X8659290Y-7463042D01*
X8660000Y-7477500D01*
X8660000Y-7772500D01*
X8659290Y-7786958D01*
X8657166Y-7801276D01*
X8653649Y-7815317D01*
X8648772Y-7828946D01*
X8642583Y-7842031D01*
X8635142Y-7854447D01*
X8626519Y-7866073D01*
X8616798Y-7876798D01*
X8606073Y-7886519D01*
X8594447Y-7895142D01*
X8582031Y-7902583D01*
X8568946Y-7908772D01*
X8555317Y-7913649D01*
X8541276Y-7917166D01*
X8526958Y-7919290D01*
X8512500Y-7920000D01*
X8167500Y-7920000D01*
X8153042Y-7919290D01*
X8138724Y-7917166D01*
X8124683Y-7913649D01*
X8111054Y-7908772D01*
X8097969Y-7902583D01*
X8085553Y-7895142D01*
X8073927Y-7886519D01*
X8063202Y-7876798D01*
X8053481Y-7866073D01*
X8044858Y-7854447D01*
X8037417Y-7842031D01*
X8031228Y-7828946D01*
X8026351Y-7815317D01*
X8022834Y-7801276D01*
X8020710Y-7786958D01*
X8020000Y-7772500D01*
X8020000Y-7477500D01*
X8020710Y-7463042D01*
X8022834Y-7448724D01*
X8026351Y-7434683D01*
X8031228Y-7421054D01*
X8037417Y-7407969D01*
X8044858Y-7395553D01*
X8053481Y-7383927D01*
X8063202Y-7373202D01*
X8073927Y-7363481D01*
X8085553Y-7354858D01*
X8097969Y-7347417D01*
X8111054Y-7341228D01*
X8124683Y-7336351D01*
X8138724Y-7332834D01*
X8153042Y-7330710D01*
X8167500Y-7330000D01*
X8512500Y-7330000D01*
X8526958Y-7330710D01*
X8526958Y-7330710D01*
G37*
D12*
X8340000Y-7625000D03*
G04 #@! TD*
D10*
G04 #@! TO.C,C11*
G36*
X14261958Y-8420710D02*
X14276276Y-8422834D01*
X14290317Y-8426351D01*
X14303946Y-8431228D01*
X14317031Y-8437417D01*
X14329447Y-8444858D01*
X14341073Y-8453481D01*
X14351798Y-8463202D01*
X14361519Y-8473927D01*
X14370142Y-8485553D01*
X14377583Y-8497969D01*
X14383772Y-8511054D01*
X14388649Y-8524683D01*
X14392166Y-8538724D01*
X14394290Y-8553042D01*
X14395000Y-8567500D01*
X14395000Y-8912500D01*
X14394290Y-8926958D01*
X14392166Y-8941276D01*
X14388649Y-8955317D01*
X14383772Y-8968946D01*
X14377583Y-8982031D01*
X14370142Y-8994447D01*
X14361519Y-9006073D01*
X14351798Y-9016798D01*
X14341073Y-9026519D01*
X14329447Y-9035142D01*
X14317031Y-9042583D01*
X14303946Y-9048772D01*
X14290317Y-9053649D01*
X14276276Y-9057166D01*
X14261958Y-9059290D01*
X14247500Y-9060000D01*
X13952500Y-9060000D01*
X13938042Y-9059290D01*
X13923724Y-9057166D01*
X13909683Y-9053649D01*
X13896054Y-9048772D01*
X13882969Y-9042583D01*
X13870553Y-9035142D01*
X13858927Y-9026519D01*
X13848202Y-9016798D01*
X13838481Y-9006073D01*
X13829858Y-8994447D01*
X13822417Y-8982031D01*
X13816228Y-8968946D01*
X13811351Y-8955317D01*
X13807834Y-8941276D01*
X13805710Y-8926958D01*
X13805000Y-8912500D01*
X13805000Y-8567500D01*
X13805710Y-8553042D01*
X13807834Y-8538724D01*
X13811351Y-8524683D01*
X13816228Y-8511054D01*
X13822417Y-8497969D01*
X13829858Y-8485553D01*
X13838481Y-8473927D01*
X13848202Y-8463202D01*
X13858927Y-8453481D01*
X13870553Y-8444858D01*
X13882969Y-8437417D01*
X13896054Y-8431228D01*
X13909683Y-8426351D01*
X13923724Y-8422834D01*
X13938042Y-8420710D01*
X13952500Y-8420000D01*
X14247500Y-8420000D01*
X14261958Y-8420710D01*
X14261958Y-8420710D01*
G37*
D12*
X14100000Y-8740000D03*
D10*
G36*
X13291958Y-8420710D02*
X13306276Y-8422834D01*
X13320317Y-8426351D01*
X13333946Y-8431228D01*
X13347031Y-8437417D01*
X13359447Y-8444858D01*
X13371073Y-8453481D01*
X13381798Y-8463202D01*
X13391519Y-8473927D01*
X13400142Y-8485553D01*
X13407583Y-8497969D01*
X13413772Y-8511054D01*
X13418649Y-8524683D01*
X13422166Y-8538724D01*
X13424290Y-8553042D01*
X13425000Y-8567500D01*
X13425000Y-8912500D01*
X13424290Y-8926958D01*
X13422166Y-8941276D01*
X13418649Y-8955317D01*
X13413772Y-8968946D01*
X13407583Y-8982031D01*
X13400142Y-8994447D01*
X13391519Y-9006073D01*
X13381798Y-9016798D01*
X13371073Y-9026519D01*
X13359447Y-9035142D01*
X13347031Y-9042583D01*
X13333946Y-9048772D01*
X13320317Y-9053649D01*
X13306276Y-9057166D01*
X13291958Y-9059290D01*
X13277500Y-9060000D01*
X12982500Y-9060000D01*
X12968042Y-9059290D01*
X12953724Y-9057166D01*
X12939683Y-9053649D01*
X12926054Y-9048772D01*
X12912969Y-9042583D01*
X12900553Y-9035142D01*
X12888927Y-9026519D01*
X12878202Y-9016798D01*
X12868481Y-9006073D01*
X12859858Y-8994447D01*
X12852417Y-8982031D01*
X12846228Y-8968946D01*
X12841351Y-8955317D01*
X12837834Y-8941276D01*
X12835710Y-8926958D01*
X12835000Y-8912500D01*
X12835000Y-8567500D01*
X12835710Y-8553042D01*
X12837834Y-8538724D01*
X12841351Y-8524683D01*
X12846228Y-8511054D01*
X12852417Y-8497969D01*
X12859858Y-8485553D01*
X12868481Y-8473927D01*
X12878202Y-8463202D01*
X12888927Y-8453481D01*
X12900553Y-8444858D01*
X12912969Y-8437417D01*
X12926054Y-8431228D01*
X12939683Y-8426351D01*
X12953724Y-8422834D01*
X12968042Y-8420710D01*
X12982500Y-8420000D01*
X13277500Y-8420000D01*
X13291958Y-8420710D01*
X13291958Y-8420710D01*
G37*
D12*
X13130000Y-8740000D03*
G04 #@! TD*
D10*
G04 #@! TO.C,C13*
G36*
X8978758Y-14827510D02*
X8993076Y-14829634D01*
X9007117Y-14833151D01*
X9020746Y-14838028D01*
X9033831Y-14844217D01*
X9046247Y-14851658D01*
X9057873Y-14860281D01*
X9068598Y-14870002D01*
X9078319Y-14880727D01*
X9086942Y-14892353D01*
X9094383Y-14904769D01*
X9100572Y-14917854D01*
X9105449Y-14931483D01*
X9108966Y-14945524D01*
X9111090Y-14959842D01*
X9111800Y-14974300D01*
X9111800Y-15319300D01*
X9111090Y-15333758D01*
X9108966Y-15348076D01*
X9105449Y-15362117D01*
X9100572Y-15375746D01*
X9094383Y-15388831D01*
X9086942Y-15401247D01*
X9078319Y-15412873D01*
X9068598Y-15423598D01*
X9057873Y-15433319D01*
X9046247Y-15441942D01*
X9033831Y-15449383D01*
X9020746Y-15455572D01*
X9007117Y-15460449D01*
X8993076Y-15463966D01*
X8978758Y-15466090D01*
X8964300Y-15466800D01*
X8669300Y-15466800D01*
X8654842Y-15466090D01*
X8640524Y-15463966D01*
X8626483Y-15460449D01*
X8612854Y-15455572D01*
X8599769Y-15449383D01*
X8587353Y-15441942D01*
X8575727Y-15433319D01*
X8565002Y-15423598D01*
X8555281Y-15412873D01*
X8546658Y-15401247D01*
X8539217Y-15388831D01*
X8533028Y-15375746D01*
X8528151Y-15362117D01*
X8524634Y-15348076D01*
X8522510Y-15333758D01*
X8521800Y-15319300D01*
X8521800Y-14974300D01*
X8522510Y-14959842D01*
X8524634Y-14945524D01*
X8528151Y-14931483D01*
X8533028Y-14917854D01*
X8539217Y-14904769D01*
X8546658Y-14892353D01*
X8555281Y-14880727D01*
X8565002Y-14870002D01*
X8575727Y-14860281D01*
X8587353Y-14851658D01*
X8599769Y-14844217D01*
X8612854Y-14838028D01*
X8626483Y-14833151D01*
X8640524Y-14829634D01*
X8654842Y-14827510D01*
X8669300Y-14826800D01*
X8964300Y-14826800D01*
X8978758Y-14827510D01*
X8978758Y-14827510D01*
G37*
D12*
X8816800Y-15146800D03*
D10*
G36*
X9948758Y-14827510D02*
X9963076Y-14829634D01*
X9977117Y-14833151D01*
X9990746Y-14838028D01*
X10003831Y-14844217D01*
X10016247Y-14851658D01*
X10027873Y-14860281D01*
X10038598Y-14870002D01*
X10048319Y-14880727D01*
X10056942Y-14892353D01*
X10064383Y-14904769D01*
X10070572Y-14917854D01*
X10075449Y-14931483D01*
X10078966Y-14945524D01*
X10081090Y-14959842D01*
X10081800Y-14974300D01*
X10081800Y-15319300D01*
X10081090Y-15333758D01*
X10078966Y-15348076D01*
X10075449Y-15362117D01*
X10070572Y-15375746D01*
X10064383Y-15388831D01*
X10056942Y-15401247D01*
X10048319Y-15412873D01*
X10038598Y-15423598D01*
X10027873Y-15433319D01*
X10016247Y-15441942D01*
X10003831Y-15449383D01*
X9990746Y-15455572D01*
X9977117Y-15460449D01*
X9963076Y-15463966D01*
X9948758Y-15466090D01*
X9934300Y-15466800D01*
X9639300Y-15466800D01*
X9624842Y-15466090D01*
X9610524Y-15463966D01*
X9596483Y-15460449D01*
X9582854Y-15455572D01*
X9569769Y-15449383D01*
X9557353Y-15441942D01*
X9545727Y-15433319D01*
X9535002Y-15423598D01*
X9525281Y-15412873D01*
X9516658Y-15401247D01*
X9509217Y-15388831D01*
X9503028Y-15375746D01*
X9498151Y-15362117D01*
X9494634Y-15348076D01*
X9492510Y-15333758D01*
X9491800Y-15319300D01*
X9491800Y-14974300D01*
X9492510Y-14959842D01*
X9494634Y-14945524D01*
X9498151Y-14931483D01*
X9503028Y-14917854D01*
X9509217Y-14904769D01*
X9516658Y-14892353D01*
X9525281Y-14880727D01*
X9535002Y-14870002D01*
X9545727Y-14860281D01*
X9557353Y-14851658D01*
X9569769Y-14844217D01*
X9582854Y-14838028D01*
X9596483Y-14833151D01*
X9610524Y-14829634D01*
X9624842Y-14827510D01*
X9639300Y-14826800D01*
X9934300Y-14826800D01*
X9948758Y-14827510D01*
X9948758Y-14827510D01*
G37*
D12*
X9786800Y-15146800D03*
G04 #@! TD*
D10*
G04 #@! TO.C,C14*
G36*
X13463758Y-15827510D02*
X13478076Y-15829634D01*
X13492117Y-15833151D01*
X13505746Y-15838028D01*
X13518831Y-15844217D01*
X13531247Y-15851658D01*
X13542873Y-15860281D01*
X13553598Y-15870002D01*
X13563319Y-15880727D01*
X13571942Y-15892353D01*
X13579383Y-15904769D01*
X13585572Y-15917854D01*
X13590449Y-15931483D01*
X13593966Y-15945524D01*
X13596090Y-15959842D01*
X13596800Y-15974300D01*
X13596800Y-16319300D01*
X13596090Y-16333758D01*
X13593966Y-16348076D01*
X13590449Y-16362117D01*
X13585572Y-16375746D01*
X13579383Y-16388831D01*
X13571942Y-16401247D01*
X13563319Y-16412873D01*
X13553598Y-16423598D01*
X13542873Y-16433319D01*
X13531247Y-16441942D01*
X13518831Y-16449383D01*
X13505746Y-16455572D01*
X13492117Y-16460449D01*
X13478076Y-16463966D01*
X13463758Y-16466090D01*
X13449300Y-16466800D01*
X13154300Y-16466800D01*
X13139842Y-16466090D01*
X13125524Y-16463966D01*
X13111483Y-16460449D01*
X13097854Y-16455572D01*
X13084769Y-16449383D01*
X13072353Y-16441942D01*
X13060727Y-16433319D01*
X13050002Y-16423598D01*
X13040281Y-16412873D01*
X13031658Y-16401247D01*
X13024217Y-16388831D01*
X13018028Y-16375746D01*
X13013151Y-16362117D01*
X13009634Y-16348076D01*
X13007510Y-16333758D01*
X13006800Y-16319300D01*
X13006800Y-15974300D01*
X13007510Y-15959842D01*
X13009634Y-15945524D01*
X13013151Y-15931483D01*
X13018028Y-15917854D01*
X13024217Y-15904769D01*
X13031658Y-15892353D01*
X13040281Y-15880727D01*
X13050002Y-15870002D01*
X13060727Y-15860281D01*
X13072353Y-15851658D01*
X13084769Y-15844217D01*
X13097854Y-15838028D01*
X13111483Y-15833151D01*
X13125524Y-15829634D01*
X13139842Y-15827510D01*
X13154300Y-15826800D01*
X13449300Y-15826800D01*
X13463758Y-15827510D01*
X13463758Y-15827510D01*
G37*
D12*
X13301800Y-16146800D03*
D10*
G36*
X14433758Y-15827510D02*
X14448076Y-15829634D01*
X14462117Y-15833151D01*
X14475746Y-15838028D01*
X14488831Y-15844217D01*
X14501247Y-15851658D01*
X14512873Y-15860281D01*
X14523598Y-15870002D01*
X14533319Y-15880727D01*
X14541942Y-15892353D01*
X14549383Y-15904769D01*
X14555572Y-15917854D01*
X14560449Y-15931483D01*
X14563966Y-15945524D01*
X14566090Y-15959842D01*
X14566800Y-15974300D01*
X14566800Y-16319300D01*
X14566090Y-16333758D01*
X14563966Y-16348076D01*
X14560449Y-16362117D01*
X14555572Y-16375746D01*
X14549383Y-16388831D01*
X14541942Y-16401247D01*
X14533319Y-16412873D01*
X14523598Y-16423598D01*
X14512873Y-16433319D01*
X14501247Y-16441942D01*
X14488831Y-16449383D01*
X14475746Y-16455572D01*
X14462117Y-16460449D01*
X14448076Y-16463966D01*
X14433758Y-16466090D01*
X14419300Y-16466800D01*
X14124300Y-16466800D01*
X14109842Y-16466090D01*
X14095524Y-16463966D01*
X14081483Y-16460449D01*
X14067854Y-16455572D01*
X14054769Y-16449383D01*
X14042353Y-16441942D01*
X14030727Y-16433319D01*
X14020002Y-16423598D01*
X14010281Y-16412873D01*
X14001658Y-16401247D01*
X13994217Y-16388831D01*
X13988028Y-16375746D01*
X13983151Y-16362117D01*
X13979634Y-16348076D01*
X13977510Y-16333758D01*
X13976800Y-16319300D01*
X13976800Y-15974300D01*
X13977510Y-15959842D01*
X13979634Y-15945524D01*
X13983151Y-15931483D01*
X13988028Y-15917854D01*
X13994217Y-15904769D01*
X14001658Y-15892353D01*
X14010281Y-15880727D01*
X14020002Y-15870002D01*
X14030727Y-15860281D01*
X14042353Y-15851658D01*
X14054769Y-15844217D01*
X14067854Y-15838028D01*
X14081483Y-15833151D01*
X14095524Y-15829634D01*
X14109842Y-15827510D01*
X14124300Y-15826800D01*
X14419300Y-15826800D01*
X14433758Y-15827510D01*
X14433758Y-15827510D01*
G37*
D12*
X14271800Y-16146800D03*
G04 #@! TD*
D18*
G04 #@! TO.C,J2*
X10901800Y-18621800D03*
D19*
X12376800Y-20146800D03*
X9426800Y-20146800D03*
G04 #@! TD*
D10*
G04 #@! TO.C,L1*
G36*
X11088758Y-15967510D02*
X11103076Y-15969634D01*
X11117117Y-15973151D01*
X11130746Y-15978028D01*
X11143831Y-15984217D01*
X11156247Y-15991658D01*
X11167873Y-16000281D01*
X11178598Y-16010002D01*
X11188319Y-16020727D01*
X11196942Y-16032353D01*
X11204383Y-16044769D01*
X11210572Y-16057854D01*
X11215449Y-16071483D01*
X11218966Y-16085524D01*
X11221090Y-16099842D01*
X11221800Y-16114300D01*
X11221800Y-16409300D01*
X11221090Y-16423758D01*
X11218966Y-16438076D01*
X11215449Y-16452117D01*
X11210572Y-16465746D01*
X11204383Y-16478831D01*
X11196942Y-16491247D01*
X11188319Y-16502873D01*
X11178598Y-16513598D01*
X11167873Y-16523319D01*
X11156247Y-16531942D01*
X11143831Y-16539383D01*
X11130746Y-16545572D01*
X11117117Y-16550449D01*
X11103076Y-16553966D01*
X11088758Y-16556090D01*
X11074300Y-16556800D01*
X10729300Y-16556800D01*
X10714842Y-16556090D01*
X10700524Y-16553966D01*
X10686483Y-16550449D01*
X10672854Y-16545572D01*
X10659769Y-16539383D01*
X10647353Y-16531942D01*
X10635727Y-16523319D01*
X10625002Y-16513598D01*
X10615281Y-16502873D01*
X10606658Y-16491247D01*
X10599217Y-16478831D01*
X10593028Y-16465746D01*
X10588151Y-16452117D01*
X10584634Y-16438076D01*
X10582510Y-16423758D01*
X10581800Y-16409300D01*
X10581800Y-16114300D01*
X10582510Y-16099842D01*
X10584634Y-16085524D01*
X10588151Y-16071483D01*
X10593028Y-16057854D01*
X10599217Y-16044769D01*
X10606658Y-16032353D01*
X10615281Y-16020727D01*
X10625002Y-16010002D01*
X10635727Y-16000281D01*
X10647353Y-15991658D01*
X10659769Y-15984217D01*
X10672854Y-15978028D01*
X10686483Y-15973151D01*
X10700524Y-15969634D01*
X10714842Y-15967510D01*
X10729300Y-15966800D01*
X11074300Y-15966800D01*
X11088758Y-15967510D01*
X11088758Y-15967510D01*
G37*
D12*
X10901800Y-16261800D03*
D10*
G36*
X11088758Y-16937510D02*
X11103076Y-16939634D01*
X11117117Y-16943151D01*
X11130746Y-16948028D01*
X11143831Y-16954217D01*
X11156247Y-16961658D01*
X11167873Y-16970281D01*
X11178598Y-16980002D01*
X11188319Y-16990727D01*
X11196942Y-17002353D01*
X11204383Y-17014769D01*
X11210572Y-17027854D01*
X11215449Y-17041483D01*
X11218966Y-17055524D01*
X11221090Y-17069842D01*
X11221800Y-17084300D01*
X11221800Y-17379300D01*
X11221090Y-17393758D01*
X11218966Y-17408076D01*
X11215449Y-17422117D01*
X11210572Y-17435746D01*
X11204383Y-17448831D01*
X11196942Y-17461247D01*
X11188319Y-17472873D01*
X11178598Y-17483598D01*
X11167873Y-17493319D01*
X11156247Y-17501942D01*
X11143831Y-17509383D01*
X11130746Y-17515572D01*
X11117117Y-17520449D01*
X11103076Y-17523966D01*
X11088758Y-17526090D01*
X11074300Y-17526800D01*
X10729300Y-17526800D01*
X10714842Y-17526090D01*
X10700524Y-17523966D01*
X10686483Y-17520449D01*
X10672854Y-17515572D01*
X10659769Y-17509383D01*
X10647353Y-17501942D01*
X10635727Y-17493319D01*
X10625002Y-17483598D01*
X10615281Y-17472873D01*
X10606658Y-17461247D01*
X10599217Y-17448831D01*
X10593028Y-17435746D01*
X10588151Y-17422117D01*
X10584634Y-17408076D01*
X10582510Y-17393758D01*
X10581800Y-17379300D01*
X10581800Y-17084300D01*
X10582510Y-17069842D01*
X10584634Y-17055524D01*
X10588151Y-17041483D01*
X10593028Y-17027854D01*
X10599217Y-17014769D01*
X10606658Y-17002353D01*
X10615281Y-16990727D01*
X10625002Y-16980002D01*
X10635727Y-16970281D01*
X10647353Y-16961658D01*
X10659769Y-16954217D01*
X10672854Y-16948028D01*
X10686483Y-16943151D01*
X10700524Y-16939634D01*
X10714842Y-16937510D01*
X10729300Y-16936800D01*
X11074300Y-16936800D01*
X11088758Y-16937510D01*
X11088758Y-16937510D01*
G37*
D12*
X10901800Y-17231800D03*
G04 #@! TD*
D10*
G04 #@! TO.C,R8*
G36*
X14936958Y-5780710D02*
X14951276Y-5782834D01*
X14965317Y-5786351D01*
X14978946Y-5791228D01*
X14992031Y-5797417D01*
X15004447Y-5804858D01*
X15016073Y-5813481D01*
X15026798Y-5823202D01*
X15036519Y-5833927D01*
X15045142Y-5845553D01*
X15052583Y-5857969D01*
X15058772Y-5871054D01*
X15063649Y-5884683D01*
X15067166Y-5898724D01*
X15069290Y-5913042D01*
X15070000Y-5927500D01*
X15070000Y-6222500D01*
X15069290Y-6236958D01*
X15067166Y-6251276D01*
X15063649Y-6265317D01*
X15058772Y-6278946D01*
X15052583Y-6292031D01*
X15045142Y-6304447D01*
X15036519Y-6316073D01*
X15026798Y-6326798D01*
X15016073Y-6336519D01*
X15004447Y-6345142D01*
X14992031Y-6352583D01*
X14978946Y-6358772D01*
X14965317Y-6363649D01*
X14951276Y-6367166D01*
X14936958Y-6369290D01*
X14922500Y-6370000D01*
X14577500Y-6370000D01*
X14563042Y-6369290D01*
X14548724Y-6367166D01*
X14534683Y-6363649D01*
X14521054Y-6358772D01*
X14507969Y-6352583D01*
X14495553Y-6345142D01*
X14483927Y-6336519D01*
X14473202Y-6326798D01*
X14463481Y-6316073D01*
X14454858Y-6304447D01*
X14447417Y-6292031D01*
X14441228Y-6278946D01*
X14436351Y-6265317D01*
X14432834Y-6251276D01*
X14430710Y-6236958D01*
X14430000Y-6222500D01*
X14430000Y-5927500D01*
X14430710Y-5913042D01*
X14432834Y-5898724D01*
X14436351Y-5884683D01*
X14441228Y-5871054D01*
X14447417Y-5857969D01*
X14454858Y-5845553D01*
X14463481Y-5833927D01*
X14473202Y-5823202D01*
X14483927Y-5813481D01*
X14495553Y-5804858D01*
X14507969Y-5797417D01*
X14521054Y-5791228D01*
X14534683Y-5786351D01*
X14548724Y-5782834D01*
X14563042Y-5780710D01*
X14577500Y-5780000D01*
X14922500Y-5780000D01*
X14936958Y-5780710D01*
X14936958Y-5780710D01*
G37*
D12*
X14750000Y-6075000D03*
D10*
G36*
X14936958Y-4810710D02*
X14951276Y-4812834D01*
X14965317Y-4816351D01*
X14978946Y-4821228D01*
X14992031Y-4827417D01*
X15004447Y-4834858D01*
X15016073Y-4843481D01*
X15026798Y-4853202D01*
X15036519Y-4863927D01*
X15045142Y-4875553D01*
X15052583Y-4887969D01*
X15058772Y-4901054D01*
X15063649Y-4914683D01*
X15067166Y-4928724D01*
X15069290Y-4943042D01*
X15070000Y-4957500D01*
X15070000Y-5252500D01*
X15069290Y-5266958D01*
X15067166Y-5281276D01*
X15063649Y-5295317D01*
X15058772Y-5308946D01*
X15052583Y-5322031D01*
X15045142Y-5334447D01*
X15036519Y-5346073D01*
X15026798Y-5356798D01*
X15016073Y-5366519D01*
X15004447Y-5375142D01*
X14992031Y-5382583D01*
X14978946Y-5388772D01*
X14965317Y-5393649D01*
X14951276Y-5397166D01*
X14936958Y-5399290D01*
X14922500Y-5400000D01*
X14577500Y-5400000D01*
X14563042Y-5399290D01*
X14548724Y-5397166D01*
X14534683Y-5393649D01*
X14521054Y-5388772D01*
X14507969Y-5382583D01*
X14495553Y-5375142D01*
X14483927Y-5366519D01*
X14473202Y-5356798D01*
X14463481Y-5346073D01*
X14454858Y-5334447D01*
X14447417Y-5322031D01*
X14441228Y-5308946D01*
X14436351Y-5295317D01*
X14432834Y-5281276D01*
X14430710Y-5266958D01*
X14430000Y-5252500D01*
X14430000Y-4957500D01*
X14430710Y-4943042D01*
X14432834Y-4928724D01*
X14436351Y-4914683D01*
X14441228Y-4901054D01*
X14447417Y-4887969D01*
X14454858Y-4875553D01*
X14463481Y-4863927D01*
X14473202Y-4853202D01*
X14483927Y-4843481D01*
X14495553Y-4834858D01*
X14507969Y-4827417D01*
X14521054Y-4821228D01*
X14534683Y-4816351D01*
X14548724Y-4812834D01*
X14563042Y-4810710D01*
X14577500Y-4810000D01*
X14922500Y-4810000D01*
X14936958Y-4810710D01*
X14936958Y-4810710D01*
G37*
D12*
X14750000Y-5105000D03*
G04 #@! TD*
D10*
G04 #@! TO.C,R9*
G36*
X11088758Y-14837510D02*
X11103076Y-14839634D01*
X11117117Y-14843151D01*
X11130746Y-14848028D01*
X11143831Y-14854217D01*
X11156247Y-14861658D01*
X11167873Y-14870281D01*
X11178598Y-14880002D01*
X11188319Y-14890727D01*
X11196942Y-14902353D01*
X11204383Y-14914769D01*
X11210572Y-14927854D01*
X11215449Y-14941483D01*
X11218966Y-14955524D01*
X11221090Y-14969842D01*
X11221800Y-14984300D01*
X11221800Y-15279300D01*
X11221090Y-15293758D01*
X11218966Y-15308076D01*
X11215449Y-15322117D01*
X11210572Y-15335746D01*
X11204383Y-15348831D01*
X11196942Y-15361247D01*
X11188319Y-15372873D01*
X11178598Y-15383598D01*
X11167873Y-15393319D01*
X11156247Y-15401942D01*
X11143831Y-15409383D01*
X11130746Y-15415572D01*
X11117117Y-15420449D01*
X11103076Y-15423966D01*
X11088758Y-15426090D01*
X11074300Y-15426800D01*
X10729300Y-15426800D01*
X10714842Y-15426090D01*
X10700524Y-15423966D01*
X10686483Y-15420449D01*
X10672854Y-15415572D01*
X10659769Y-15409383D01*
X10647353Y-15401942D01*
X10635727Y-15393319D01*
X10625002Y-15383598D01*
X10615281Y-15372873D01*
X10606658Y-15361247D01*
X10599217Y-15348831D01*
X10593028Y-15335746D01*
X10588151Y-15322117D01*
X10584634Y-15308076D01*
X10582510Y-15293758D01*
X10581800Y-15279300D01*
X10581800Y-14984300D01*
X10582510Y-14969842D01*
X10584634Y-14955524D01*
X10588151Y-14941483D01*
X10593028Y-14927854D01*
X10599217Y-14914769D01*
X10606658Y-14902353D01*
X10615281Y-14890727D01*
X10625002Y-14880002D01*
X10635727Y-14870281D01*
X10647353Y-14861658D01*
X10659769Y-14854217D01*
X10672854Y-14848028D01*
X10686483Y-14843151D01*
X10700524Y-14839634D01*
X10714842Y-14837510D01*
X10729300Y-14836800D01*
X11074300Y-14836800D01*
X11088758Y-14837510D01*
X11088758Y-14837510D01*
G37*
D12*
X10901800Y-15131800D03*
D10*
G36*
X11088758Y-13867510D02*
X11103076Y-13869634D01*
X11117117Y-13873151D01*
X11130746Y-13878028D01*
X11143831Y-13884217D01*
X11156247Y-13891658D01*
X11167873Y-13900281D01*
X11178598Y-13910002D01*
X11188319Y-13920727D01*
X11196942Y-13932353D01*
X11204383Y-13944769D01*
X11210572Y-13957854D01*
X11215449Y-13971483D01*
X11218966Y-13985524D01*
X11221090Y-13999842D01*
X11221800Y-14014300D01*
X11221800Y-14309300D01*
X11221090Y-14323758D01*
X11218966Y-14338076D01*
X11215449Y-14352117D01*
X11210572Y-14365746D01*
X11204383Y-14378831D01*
X11196942Y-14391247D01*
X11188319Y-14402873D01*
X11178598Y-14413598D01*
X11167873Y-14423319D01*
X11156247Y-14431942D01*
X11143831Y-14439383D01*
X11130746Y-14445572D01*
X11117117Y-14450449D01*
X11103076Y-14453966D01*
X11088758Y-14456090D01*
X11074300Y-14456800D01*
X10729300Y-14456800D01*
X10714842Y-14456090D01*
X10700524Y-14453966D01*
X10686483Y-14450449D01*
X10672854Y-14445572D01*
X10659769Y-14439383D01*
X10647353Y-14431942D01*
X10635727Y-14423319D01*
X10625002Y-14413598D01*
X10615281Y-14402873D01*
X10606658Y-14391247D01*
X10599217Y-14378831D01*
X10593028Y-14365746D01*
X10588151Y-14352117D01*
X10584634Y-14338076D01*
X10582510Y-14323758D01*
X10581800Y-14309300D01*
X10581800Y-14014300D01*
X10582510Y-13999842D01*
X10584634Y-13985524D01*
X10588151Y-13971483D01*
X10593028Y-13957854D01*
X10599217Y-13944769D01*
X10606658Y-13932353D01*
X10615281Y-13920727D01*
X10625002Y-13910002D01*
X10635727Y-13900281D01*
X10647353Y-13891658D01*
X10659769Y-13884217D01*
X10672854Y-13878028D01*
X10686483Y-13873151D01*
X10700524Y-13869634D01*
X10714842Y-13867510D01*
X10729300Y-13866800D01*
X11074300Y-13866800D01*
X11088758Y-13867510D01*
X11088758Y-13867510D01*
G37*
D12*
X10901800Y-14161800D03*
G04 #@! TD*
D10*
G04 #@! TO.C,R10*
G36*
X12288758Y-14907510D02*
X12303076Y-14909634D01*
X12317117Y-14913151D01*
X12330746Y-14918028D01*
X12343831Y-14924217D01*
X12356247Y-14931658D01*
X12367873Y-14940281D01*
X12378598Y-14950002D01*
X12388319Y-14960727D01*
X12396942Y-14972353D01*
X12404383Y-14984769D01*
X12410572Y-14997854D01*
X12415449Y-15011483D01*
X12418966Y-15025524D01*
X12421090Y-15039842D01*
X12421800Y-15054300D01*
X12421800Y-15349300D01*
X12421090Y-15363758D01*
X12418966Y-15378076D01*
X12415449Y-15392117D01*
X12410572Y-15405746D01*
X12404383Y-15418831D01*
X12396942Y-15431247D01*
X12388319Y-15442873D01*
X12378598Y-15453598D01*
X12367873Y-15463319D01*
X12356247Y-15471942D01*
X12343831Y-15479383D01*
X12330746Y-15485572D01*
X12317117Y-15490449D01*
X12303076Y-15493966D01*
X12288758Y-15496090D01*
X12274300Y-15496800D01*
X11929300Y-15496800D01*
X11914842Y-15496090D01*
X11900524Y-15493966D01*
X11886483Y-15490449D01*
X11872854Y-15485572D01*
X11859769Y-15479383D01*
X11847353Y-15471942D01*
X11835727Y-15463319D01*
X11825002Y-15453598D01*
X11815281Y-15442873D01*
X11806658Y-15431247D01*
X11799217Y-15418831D01*
X11793028Y-15405746D01*
X11788151Y-15392117D01*
X11784634Y-15378076D01*
X11782510Y-15363758D01*
X11781800Y-15349300D01*
X11781800Y-15054300D01*
X11782510Y-15039842D01*
X11784634Y-15025524D01*
X11788151Y-15011483D01*
X11793028Y-14997854D01*
X11799217Y-14984769D01*
X11806658Y-14972353D01*
X11815281Y-14960727D01*
X11825002Y-14950002D01*
X11835727Y-14940281D01*
X11847353Y-14931658D01*
X11859769Y-14924217D01*
X11872854Y-14918028D01*
X11886483Y-14913151D01*
X11900524Y-14909634D01*
X11914842Y-14907510D01*
X11929300Y-14906800D01*
X12274300Y-14906800D01*
X12288758Y-14907510D01*
X12288758Y-14907510D01*
G37*
D12*
X12101800Y-15201800D03*
D10*
G36*
X12288758Y-15877510D02*
X12303076Y-15879634D01*
X12317117Y-15883151D01*
X12330746Y-15888028D01*
X12343831Y-15894217D01*
X12356247Y-15901658D01*
X12367873Y-15910281D01*
X12378598Y-15920002D01*
X12388319Y-15930727D01*
X12396942Y-15942353D01*
X12404383Y-15954769D01*
X12410572Y-15967854D01*
X12415449Y-15981483D01*
X12418966Y-15995524D01*
X12421090Y-16009842D01*
X12421800Y-16024300D01*
X12421800Y-16319300D01*
X12421090Y-16333758D01*
X12418966Y-16348076D01*
X12415449Y-16362117D01*
X12410572Y-16375746D01*
X12404383Y-16388831D01*
X12396942Y-16401247D01*
X12388319Y-16412873D01*
X12378598Y-16423598D01*
X12367873Y-16433319D01*
X12356247Y-16441942D01*
X12343831Y-16449383D01*
X12330746Y-16455572D01*
X12317117Y-16460449D01*
X12303076Y-16463966D01*
X12288758Y-16466090D01*
X12274300Y-16466800D01*
X11929300Y-16466800D01*
X11914842Y-16466090D01*
X11900524Y-16463966D01*
X11886483Y-16460449D01*
X11872854Y-16455572D01*
X11859769Y-16449383D01*
X11847353Y-16441942D01*
X11835727Y-16433319D01*
X11825002Y-16423598D01*
X11815281Y-16412873D01*
X11806658Y-16401247D01*
X11799217Y-16388831D01*
X11793028Y-16375746D01*
X11788151Y-16362117D01*
X11784634Y-16348076D01*
X11782510Y-16333758D01*
X11781800Y-16319300D01*
X11781800Y-16024300D01*
X11782510Y-16009842D01*
X11784634Y-15995524D01*
X11788151Y-15981483D01*
X11793028Y-15967854D01*
X11799217Y-15954769D01*
X11806658Y-15942353D01*
X11815281Y-15930727D01*
X11825002Y-15920002D01*
X11835727Y-15910281D01*
X11847353Y-15901658D01*
X11859769Y-15894217D01*
X11872854Y-15888028D01*
X11886483Y-15883151D01*
X11900524Y-15879634D01*
X11914842Y-15877510D01*
X11929300Y-15876800D01*
X12274300Y-15876800D01*
X12288758Y-15877510D01*
X12288758Y-15877510D01*
G37*
D12*
X12101800Y-16171800D03*
G04 #@! TD*
D20*
G04 #@! TO.C,U2*
X12100000Y-2140000D03*
X11600000Y-2140000D03*
X11100000Y-2140000D03*
X10600000Y-2140000D03*
X10100000Y-2140000D03*
D21*
X9150000Y-3090000D03*
X9150000Y-3590000D03*
X9150000Y-4090000D03*
X9150000Y-4590000D03*
X9150000Y-5090000D03*
D20*
X10100000Y-6040000D03*
X10600000Y-6040000D03*
X11100000Y-6040000D03*
X11600000Y-6040000D03*
X12100000Y-6040000D03*
D21*
X13050000Y-5090000D03*
X13050000Y-4590000D03*
X13050000Y-4090000D03*
X13050000Y-3590000D03*
X13050000Y-3090000D03*
D22*
X11100000Y-4090000D03*
G04 #@! TD*
D23*
G04 #@! TO.C,U3*
X11750000Y-10460000D03*
X11750000Y-9810000D03*
X11750000Y-9160000D03*
X9950000Y-9160000D03*
X9950000Y-9810000D03*
X9950000Y-10460000D03*
G04 #@! TD*
D24*
G04 #@! TO.C,Y1*
X4800000Y-1990000D03*
X4800000Y-3740000D03*
X6200000Y-3740000D03*
X6200000Y-1990000D03*
G04 #@! TD*
D10*
G04 #@! TO.C,C12*
G36*
X13276958Y-7020710D02*
X13291276Y-7022834D01*
X13305317Y-7026351D01*
X13318946Y-7031228D01*
X13332031Y-7037417D01*
X13344447Y-7044858D01*
X13356073Y-7053481D01*
X13366798Y-7063202D01*
X13376519Y-7073927D01*
X13385142Y-7085553D01*
X13392583Y-7097969D01*
X13398772Y-7111054D01*
X13403649Y-7124683D01*
X13407166Y-7138724D01*
X13409290Y-7153042D01*
X13410000Y-7167500D01*
X13410000Y-7512500D01*
X13409290Y-7526958D01*
X13407166Y-7541276D01*
X13403649Y-7555317D01*
X13398772Y-7568946D01*
X13392583Y-7582031D01*
X13385142Y-7594447D01*
X13376519Y-7606073D01*
X13366798Y-7616798D01*
X13356073Y-7626519D01*
X13344447Y-7635142D01*
X13332031Y-7642583D01*
X13318946Y-7648772D01*
X13305317Y-7653649D01*
X13291276Y-7657166D01*
X13276958Y-7659290D01*
X13262500Y-7660000D01*
X12967500Y-7660000D01*
X12953042Y-7659290D01*
X12938724Y-7657166D01*
X12924683Y-7653649D01*
X12911054Y-7648772D01*
X12897969Y-7642583D01*
X12885553Y-7635142D01*
X12873927Y-7626519D01*
X12863202Y-7616798D01*
X12853481Y-7606073D01*
X12844858Y-7594447D01*
X12837417Y-7582031D01*
X12831228Y-7568946D01*
X12826351Y-7555317D01*
X12822834Y-7541276D01*
X12820710Y-7526958D01*
X12820000Y-7512500D01*
X12820000Y-7167500D01*
X12820710Y-7153042D01*
X12822834Y-7138724D01*
X12826351Y-7124683D01*
X12831228Y-7111054D01*
X12837417Y-7097969D01*
X12844858Y-7085553D01*
X12853481Y-7073927D01*
X12863202Y-7063202D01*
X12873927Y-7053481D01*
X12885553Y-7044858D01*
X12897969Y-7037417D01*
X12911054Y-7031228D01*
X12924683Y-7026351D01*
X12938724Y-7022834D01*
X12953042Y-7020710D01*
X12967500Y-7020000D01*
X13262500Y-7020000D01*
X13276958Y-7020710D01*
X13276958Y-7020710D01*
G37*
D12*
X13115000Y-7340000D03*
D10*
G36*
X14246958Y-7020710D02*
X14261276Y-7022834D01*
X14275317Y-7026351D01*
X14288946Y-7031228D01*
X14302031Y-7037417D01*
X14314447Y-7044858D01*
X14326073Y-7053481D01*
X14336798Y-7063202D01*
X14346519Y-7073927D01*
X14355142Y-7085553D01*
X14362583Y-7097969D01*
X14368772Y-7111054D01*
X14373649Y-7124683D01*
X14377166Y-7138724D01*
X14379290Y-7153042D01*
X14380000Y-7167500D01*
X14380000Y-7512500D01*
X14379290Y-7526958D01*
X14377166Y-7541276D01*
X14373649Y-7555317D01*
X14368772Y-7568946D01*
X14362583Y-7582031D01*
X14355142Y-7594447D01*
X14346519Y-7606073D01*
X14336798Y-7616798D01*
X14326073Y-7626519D01*
X14314447Y-7635142D01*
X14302031Y-7642583D01*
X14288946Y-7648772D01*
X14275317Y-7653649D01*
X14261276Y-7657166D01*
X14246958Y-7659290D01*
X14232500Y-7660000D01*
X13937500Y-7660000D01*
X13923042Y-7659290D01*
X13908724Y-7657166D01*
X13894683Y-7653649D01*
X13881054Y-7648772D01*
X13867969Y-7642583D01*
X13855553Y-7635142D01*
X13843927Y-7626519D01*
X13833202Y-7616798D01*
X13823481Y-7606073D01*
X13814858Y-7594447D01*
X13807417Y-7582031D01*
X13801228Y-7568946D01*
X13796351Y-7555317D01*
X13792834Y-7541276D01*
X13790710Y-7526958D01*
X13790000Y-7512500D01*
X13790000Y-7167500D01*
X13790710Y-7153042D01*
X13792834Y-7138724D01*
X13796351Y-7124683D01*
X13801228Y-7111054D01*
X13807417Y-7097969D01*
X13814858Y-7085553D01*
X13823481Y-7073927D01*
X13833202Y-7063202D01*
X13843927Y-7053481D01*
X13855553Y-7044858D01*
X13867969Y-7037417D01*
X13881054Y-7031228D01*
X13894683Y-7026351D01*
X13908724Y-7022834D01*
X13923042Y-7020710D01*
X13937500Y-7020000D01*
X14232500Y-7020000D01*
X14246958Y-7020710D01*
X14246958Y-7020710D01*
G37*
D12*
X14085000Y-7340000D03*
G04 #@! TD*
M02*
