G04 #@! TF.GenerationSoftware,KiCad,Pcbnew,(5.0.0)*
G04 #@! TF.CreationDate,2019-01-09T16:36:41-03:00*
G04 #@! TF.ProjectId,PCB_A,5043425F412E6B696361645F70636200,rev?*
G04 #@! TF.SameCoordinates,Original*
G04 #@! TF.FileFunction,Copper,L2,Bot,Signal*
G04 #@! TF.FilePolarity,Positive*
%FSLAX46Y46*%
G04 Gerber Fmt 4.6, Leading zero omitted, Abs format (unit mm)*
G04 Created by KiCad (PCBNEW (5.0.0)) date 01/09/19 16:36:41*
%MOMM*%
%LPD*%
G01*
G04 APERTURE LIST*
G04 #@! TA.AperFunction,ComponentPad*
%ADD10O,1.700000X1.700000*%
G04 #@! TD*
G04 #@! TA.AperFunction,ComponentPad*
%ADD11C,1.700000*%
G04 #@! TD*
G04 #@! TA.AperFunction,ComponentPad*
%ADD12R,1.700000X1.700000*%
G04 #@! TD*
G04 #@! TA.AperFunction,ComponentPad*
%ADD13C,6.200000*%
G04 #@! TD*
G04 #@! TA.AperFunction,ComponentPad*
%ADD14C,6.300000*%
G04 #@! TD*
G04 #@! TA.AperFunction,ComponentPad*
%ADD15C,2.775000*%
G04 #@! TD*
G04 #@! TA.AperFunction,ComponentPad*
%ADD16R,1.000000X1.000000*%
G04 #@! TD*
G04 #@! TA.AperFunction,ViaPad*
%ADD17C,1.000000*%
G04 #@! TD*
G04 #@! TA.AperFunction,ViaPad*
%ADD18C,0.800000*%
G04 #@! TD*
G04 #@! TA.AperFunction,Conductor*
%ADD19C,1.000000*%
G04 #@! TD*
G04 #@! TA.AperFunction,Conductor*
%ADD20C,0.300000*%
G04 #@! TD*
G04 #@! TA.AperFunction,Conductor*
%ADD21C,0.400000*%
G04 #@! TD*
G04 #@! TA.AperFunction,Conductor*
%ADD22C,0.200000*%
G04 #@! TD*
G04 APERTURE END LIST*
D10*
G04 #@! TO.P,J4,5*
G04 #@! TO.N,/S_GLOBO*
X24800000Y1270000D03*
G04 #@! TO.P,J4,10*
G04 #@! TO.N,/SCLK*
X4996841Y-18373862D03*
D11*
G04 #@! TO.P,J4,4*
G04 #@! TO.N,+5V*
X24800000Y3810000D03*
G04 #@! TO.P,J4,8*
G04 #@! TO.N,/SDI*
X4996841Y-23453862D03*
D10*
G04 #@! TO.P,J4,9*
G04 #@! TO.N,/CS*
X4996841Y-20913862D03*
D11*
G04 #@! TO.P,J4,7*
G04 #@! TO.N,/SDO*
X24800000Y-3810000D03*
D10*
G04 #@! TO.P,J4,6*
G04 #@! TO.N,/S_PARACAIDAS*
X24800000Y-1270000D03*
D11*
G04 #@! TO.P,J4,3*
G04 #@! TO.N,GND*
X22212262Y11400841D03*
D12*
G04 #@! TO.P,J4,1*
G04 #@! TO.N,Net-(J4-Pad1)*
X17132262Y11400841D03*
D10*
G04 #@! TO.P,J4,2*
X19672262Y11400841D03*
G04 #@! TO.P,J4,13*
G04 #@! TO.N,Net-(J4-Pad13)*
X-22267738Y11500841D03*
G04 #@! TO.P,J4,12*
G04 #@! TO.N,/GPS_TX*
X-19727738Y11500841D03*
D11*
G04 #@! TO.P,J4,11*
G04 #@! TO.N,/P1*
X-17187738Y11500841D03*
D10*
G04 #@! TO.P,J4,16*
G04 #@! TO.N,+3V3_Internal*
X-24800000Y-1270000D03*
G04 #@! TO.P,J4,17*
G04 #@! TO.N,Net-(J4-Pad17)*
X-24800000Y-3810000D03*
G04 #@! TO.P,J4,15*
G04 #@! TO.N,GND*
X-24800000Y1270000D03*
D11*
G04 #@! TO.P,J4,14*
G04 #@! TO.N,Net-(J4-Pad14)*
X-24800000Y3810000D03*
G04 #@! TD*
D12*
G04 #@! TO.P,J1,1*
G04 #@! TO.N,Net-(F1-Pad1)*
X14325600Y7264400D03*
D10*
G04 #@! TO.P,J1,2*
G04 #@! TO.N,GND*
X16865600Y7264400D03*
G04 #@! TD*
D12*
G04 #@! TO.P,J3,1*
G04 #@! TO.N,/S_GLOBO*
X17900000Y2400000D03*
D10*
G04 #@! TO.P,J3,2*
G04 #@! TO.N,+5V*
X15360000Y2400000D03*
G04 #@! TO.P,J3,3*
G04 #@! TO.N,GND*
X12820000Y2400000D03*
G04 #@! TD*
G04 #@! TO.P,J5,3*
G04 #@! TO.N,GND*
X20900000Y-5080000D03*
G04 #@! TO.P,J5,2*
G04 #@! TO.N,+5V*
X20900000Y-2540000D03*
D12*
G04 #@! TO.P,J5,1*
G04 #@! TO.N,/S_PARACAIDAS*
X20900000Y0D03*
G04 #@! TD*
D13*
G04 #@! TO.P,MH1,2*
G04 #@! TO.N,GND*
X12500000Y13500000D03*
D14*
G04 #@! TO.P,MH1,1*
X-12500000Y13500000D03*
D13*
G04 #@! TO.P,MH1,3*
X0Y-20200000D03*
G04 #@! TD*
D15*
G04 #@! TO.P,S1,1*
G04 #@! TO.N,Net-(S1-Pad1)*
X-4670000Y11741600D03*
G04 #@! TO.P,S1,2*
G04 #@! TO.N,Net-(J4-Pad1)*
X30000Y11741600D03*
G04 #@! TO.P,S1,3*
G04 #@! TO.N,+BATT*
X4730000Y11741600D03*
G04 #@! TO.P,S1,4*
G04 #@! TO.N,GND*
X-6575000Y21271600D03*
G04 #@! TO.P,S1,5*
X6635000Y21271600D03*
G04 #@! TD*
D16*
G04 #@! TO.P,TP10,1*
G04 #@! TO.N,GND*
X20900000Y-7800000D03*
G04 #@! TD*
D17*
G04 #@! TO.N,GND*
X18186400Y8585200D03*
X16306800Y5537200D03*
X15494000Y9144000D03*
X18643600Y7162800D03*
X16916400Y9093200D03*
D18*
X11100000Y-4090000D03*
X10270800Y-4894400D03*
X10270800Y-3268800D03*
X11896400Y-4894400D03*
X11947200Y-3268800D03*
X6725000Y-790000D03*
X8400000Y-8580000D03*
X9421800Y-18346800D03*
X12391800Y-18396800D03*
X10846914Y-9784957D03*
X10260000Y1269990D03*
X8690000Y-9820000D03*
X13390678Y-10522883D03*
X23100000Y-5900000D03*
X-20900000Y1300008D03*
X-11400000Y1299996D03*
X4662367Y-6252339D03*
X101600Y24485600D03*
X-11226800Y17678400D03*
X7823200Y-15163800D03*
X9950000Y-11370000D03*
X14274800Y-15062200D03*
G04 #@! TO.N,+3V3_Internal*
X7549638Y-4765752D03*
X9970000Y-590000D03*
X15500000Y-3900000D03*
X7500000Y1900000D03*
X-3344990Y-9255010D03*
X3410000Y-9280000D03*
X5600012Y-7000000D03*
G04 #@! TO.N,/CS*
X8407400Y-2057400D03*
X4597400Y-8890000D03*
G04 #@! TO.N,/SCLK*
X16500000Y-3900004D03*
X14900000Y-1200000D03*
G04 #@! TO.N,/GPS/GPS_1V8*
X-7450000Y2154010D03*
X-9300000Y9400000D03*
G04 #@! TD*
D19*
G04 #@! TO.N,+3V3_Internal*
X3385010Y-9255010D02*
X3410000Y-9280000D01*
X-3344990Y-9255010D02*
X3385010Y-9255010D01*
D20*
X5600012Y-6715378D02*
X5600012Y-7000000D01*
D19*
X7549638Y-5050374D02*
X7549638Y-4765752D01*
X5600012Y-7000000D02*
X7549638Y-5050374D01*
X7500000Y1880000D02*
X9970000Y-590000D01*
X7500000Y1900000D02*
X7500000Y1880000D01*
X12190000Y-590000D02*
X15399999Y-3799999D01*
X9970000Y-590000D02*
X12190000Y-590000D01*
D20*
G04 #@! TO.N,/CS*
X8407400Y-2057400D02*
X6248400Y-2057400D01*
X6248400Y-2057400D02*
X3505200Y-4800600D01*
X3505200Y-4800600D02*
X3505200Y-7797800D01*
X3505200Y-7797800D02*
X4597400Y-8890000D01*
G04 #@! TO.N,/SCLK*
X15299999Y-1599999D02*
X14900000Y-1200000D01*
X16500000Y-2800000D02*
X15299999Y-1599999D01*
X16500000Y-3900004D02*
X16500000Y-2800000D01*
D21*
G04 #@! TO.N,/GPS/GPS_1V8*
X-8900001Y9000001D02*
X-9300000Y9400000D01*
X-7450000Y7550000D02*
X-8900001Y9000001D01*
X-7450000Y2154010D02*
X-7450000Y7550000D01*
G04 #@! TD*
D22*
G04 #@! TO.N,GND*
G36*
X1560035Y26554239D02*
X2597967Y26473028D01*
X3632790Y26351213D01*
X4663209Y26188798D01*
X5688025Y25985776D01*
X6705962Y25742152D01*
X7715713Y25457945D01*
X8716172Y25133114D01*
X9705943Y24767707D01*
X10683901Y24361681D01*
X11648739Y23915058D01*
X12599244Y23427821D01*
X13534162Y22899971D01*
X14452260Y22331496D01*
X15131742Y21871651D01*
X15114686Y21789169D01*
X15112881Y21782599D01*
X15110710Y21769944D01*
X15108109Y21757366D01*
X15107390Y21750589D01*
X15081289Y21598442D01*
X15079711Y21591825D01*
X15077965Y21579065D01*
X15075794Y21566408D01*
X15075308Y21559640D01*
X15054474Y21407359D01*
X15053126Y21400720D01*
X15051813Y21387909D01*
X15050067Y21375147D01*
X15049811Y21368375D01*
X15034206Y21216114D01*
X15033084Y21209443D01*
X15032202Y21196560D01*
X15030888Y21183744D01*
X15030861Y21176994D01*
X15020439Y21024837D01*
X15019545Y21018154D01*
X15019096Y21005239D01*
X15018214Y20992361D01*
X15018415Y20985628D01*
X15013134Y20833696D01*
X15012468Y20827015D01*
X15012453Y20814098D01*
X15012003Y20801156D01*
X15012430Y20794440D01*
X15012251Y20642873D01*
X15011810Y20636181D01*
X15012228Y20623239D01*
X15012213Y20610290D01*
X15012862Y20603614D01*
X15017746Y20452498D01*
X15017529Y20445810D01*
X15018380Y20432875D01*
X15018799Y20419918D01*
X15019670Y20413283D01*
X15029577Y20262741D01*
X15029583Y20256062D01*
X15030867Y20243143D01*
X15031719Y20230196D01*
X15032808Y20223610D01*
X15047702Y20073745D01*
X15047930Y20067087D01*
X15049642Y20054224D01*
X15050928Y20041288D01*
X15052235Y20034745D01*
X15072080Y19885680D01*
X15072528Y19879043D01*
X15074668Y19866240D01*
X15076385Y19853340D01*
X15077908Y19846850D01*
X15102665Y19698714D01*
X15103334Y19692091D01*
X15105906Y19679326D01*
X15108047Y19666513D01*
X15109779Y19660100D01*
X15139420Y19512971D01*
X15140307Y19506379D01*
X15143301Y19493705D01*
X15145868Y19480963D01*
X15147811Y19474615D01*
X15182300Y19328615D01*
X15183405Y19322062D01*
X15186815Y19309504D01*
X15189806Y19296843D01*
X15191960Y19290558D01*
X15231265Y19145814D01*
X15232586Y19139300D01*
X15236413Y19126854D01*
X15239821Y19114304D01*
X15242180Y19108099D01*
X15286275Y18964700D01*
X15287810Y18958240D01*
X15292039Y18945953D01*
X15295867Y18933505D01*
X15298437Y18927367D01*
X15347283Y18785459D01*
X15349034Y18779046D01*
X15353671Y18766901D01*
X15357906Y18754597D01*
X15360677Y18748550D01*
X15414250Y18608230D01*
X15416217Y18601865D01*
X15421257Y18589876D01*
X15425890Y18577741D01*
X15428862Y18571786D01*
X15487136Y18433164D01*
X15489319Y18426855D01*
X15494755Y18415040D01*
X15499782Y18403083D01*
X15502952Y18397227D01*
X15565903Y18260417D01*
X15568297Y18254177D01*
X15574118Y18242562D01*
X15579538Y18230783D01*
X15582907Y18225025D01*
X15650505Y18090145D01*
X15653111Y18083979D01*
X15659306Y18072585D01*
X15665112Y18061000D01*
X15668681Y18055343D01*
X15740906Y17922502D01*
X15743719Y17916422D01*
X15750276Y17905269D01*
X15756467Y17893882D01*
X15760236Y17888327D01*
X15837053Y17757665D01*
X15840078Y17751663D01*
X15847001Y17740743D01*
X15853557Y17729592D01*
X15857517Y17724156D01*
X15938912Y17595774D01*
X15942146Y17589861D01*
X15949426Y17579190D01*
X15956341Y17568283D01*
X15960489Y17562974D01*
X16046439Y17436988D01*
X16049878Y17431175D01*
X16057498Y17420778D01*
X16064772Y17410115D01*
X16069112Y17404930D01*
X16159584Y17281478D01*
X16163234Y17275760D01*
X16171202Y17265625D01*
X16178807Y17255248D01*
X16183325Y17250206D01*
X16278319Y17129380D01*
X16282167Y17123779D01*
X16290454Y17113944D01*
X16298402Y17103835D01*
X16303106Y17098930D01*
X16402583Y16980875D01*
X16406629Y16975395D01*
X16415231Y16965864D01*
X16423510Y16956039D01*
X16428391Y16951283D01*
X16532331Y16836120D01*
X16536576Y16830763D01*
X16545492Y16821537D01*
X16554080Y16812022D01*
X16559130Y16807425D01*
X16667517Y16695275D01*
X16671943Y16690065D01*
X16681161Y16681157D01*
X16690069Y16671939D01*
X16695280Y16667512D01*
X16807429Y16559126D01*
X16812026Y16554076D01*
X16821541Y16545488D01*
X16830767Y16536572D01*
X16836123Y16532327D01*
X16951287Y16428387D01*
X16956043Y16423506D01*
X16965868Y16415227D01*
X16975399Y16406625D01*
X16980877Y16402580D01*
X17098934Y16303101D01*
X17103839Y16298398D01*
X17113948Y16290450D01*
X17123783Y16282163D01*
X17129384Y16278315D01*
X17250210Y16183321D01*
X17255252Y16178803D01*
X17265629Y16171198D01*
X17275764Y16163230D01*
X17281482Y16159580D01*
X17404934Y16069108D01*
X17410119Y16064768D01*
X17420782Y16057494D01*
X17431179Y16049874D01*
X17436992Y16046435D01*
X17562977Y15960486D01*
X17568287Y15956337D01*
X17579194Y15949422D01*
X17589865Y15942142D01*
X17595778Y15938908D01*
X17724160Y15857513D01*
X17729596Y15853553D01*
X17740747Y15846997D01*
X17751667Y15840074D01*
X17757670Y15837048D01*
X17888331Y15760232D01*
X17893886Y15756463D01*
X17905273Y15750272D01*
X17916426Y15743715D01*
X17922507Y15740902D01*
X18055347Y15668677D01*
X18061004Y15665108D01*
X18072589Y15659302D01*
X18083983Y15653107D01*
X18090149Y15650501D01*
X18225024Y15582906D01*
X18230788Y15579533D01*
X18242579Y15574107D01*
X18254181Y15568293D01*
X18260415Y15565901D01*
X18397236Y15502945D01*
X18403087Y15499778D01*
X18415033Y15494756D01*
X18426858Y15489315D01*
X18433171Y15487131D01*
X18571794Y15428856D01*
X18577745Y15425886D01*
X18589870Y15421257D01*
X18601868Y15416213D01*
X18608237Y15414244D01*
X18748558Y15360671D01*
X18754601Y15357902D01*
X18766896Y15353670D01*
X18779049Y15349030D01*
X18785466Y15347278D01*
X18927375Y15298431D01*
X18933509Y15295863D01*
X18945949Y15292038D01*
X18958243Y15287806D01*
X18964707Y15286270D01*
X19108102Y15242176D01*
X19114307Y15239817D01*
X19126857Y15236409D01*
X19139303Y15232582D01*
X19145817Y15231261D01*
X19290567Y15191954D01*
X19296847Y15189802D01*
X19309501Y15186813D01*
X19322065Y15183401D01*
X19328621Y15182296D01*
X19474619Y15147807D01*
X19480967Y15145864D01*
X19493710Y15143297D01*
X19506383Y15140303D01*
X19512975Y15139416D01*
X19660106Y15109774D01*
X19666517Y15108043D01*
X19679325Y15105902D01*
X19692094Y15103330D01*
X19698719Y15102661D01*
X19846856Y15077904D01*
X19853344Y15076381D01*
X19866240Y15074664D01*
X19879046Y15072524D01*
X19885684Y15072076D01*
X20034748Y15052231D01*
X20041291Y15050924D01*
X20054228Y15049638D01*
X20067090Y15047926D01*
X20073747Y15047698D01*
X20223617Y15032804D01*
X20230200Y15031715D01*
X20243142Y15030863D01*
X20256064Y15029579D01*
X20262745Y15029573D01*
X20413286Y15019666D01*
X20419921Y15018795D01*
X20432878Y15018376D01*
X20445813Y15017525D01*
X20452501Y15017742D01*
X20603619Y15012858D01*
X20610294Y15012209D01*
X20623242Y15012224D01*
X20636184Y15011806D01*
X20642876Y15012247D01*
X20794444Y15012426D01*
X20801160Y15011999D01*
X20814102Y15012449D01*
X20827019Y15012464D01*
X20833700Y15013130D01*
X20985632Y15018411D01*
X20992365Y15018210D01*
X21005243Y15019092D01*
X21018158Y15019541D01*
X21024841Y15020435D01*
X21176998Y15030857D01*
X21183748Y15030884D01*
X21196564Y15032198D01*
X21209447Y15033080D01*
X21216118Y15034202D01*
X21368379Y15049807D01*
X21375151Y15050063D01*
X21387913Y15051809D01*
X21400724Y15053122D01*
X21407363Y15054470D01*
X21559644Y15075304D01*
X21566412Y15075790D01*
X21579069Y15077961D01*
X21591829Y15079707D01*
X21598446Y15081285D01*
X21750593Y15107386D01*
X21757370Y15108105D01*
X21769948Y15110706D01*
X21782603Y15112877D01*
X21789173Y15114682D01*
X21871655Y15131738D01*
X22331517Y14452231D01*
X22899988Y13534134D01*
X23427840Y12599212D01*
X23915075Y11648707D01*
X24361697Y10683869D01*
X24767721Y9705912D01*
X25133135Y8716118D01*
X25457945Y7715719D01*
X25742168Y6705912D01*
X25985780Y5688022D01*
X26188803Y4663201D01*
X26351218Y3632783D01*
X26473033Y2597961D01*
X26554241Y1560056D01*
X26594848Y520215D01*
X26594847Y-520241D01*
X26554244Y-1560030D01*
X26473034Y-2597962D01*
X26351220Y-3632784D01*
X26188807Y-4663203D01*
X25985786Y-5688017D01*
X25742173Y-6705913D01*
X25457951Y-7715721D01*
X25133144Y-8716111D01*
X24767720Y-9705935D01*
X24361705Y-10683871D01*
X23915088Y-11648701D01*
X23427844Y-12599225D01*
X22900005Y-13534126D01*
X22331523Y-14452240D01*
X21871667Y-15131741D01*
X21789185Y-15114685D01*
X21782615Y-15112880D01*
X21769960Y-15110709D01*
X21757382Y-15108108D01*
X21750605Y-15107389D01*
X21598458Y-15081288D01*
X21591841Y-15079710D01*
X21579081Y-15077964D01*
X21566424Y-15075793D01*
X21559656Y-15075307D01*
X21407378Y-15054473D01*
X21400737Y-15053125D01*
X21387922Y-15051812D01*
X21375163Y-15050066D01*
X21368393Y-15049810D01*
X21216128Y-15034204D01*
X21209458Y-15033083D01*
X21196583Y-15032201D01*
X21183761Y-15030887D01*
X21177006Y-15030860D01*
X21024854Y-15020439D01*
X21018171Y-15019545D01*
X21005253Y-15019096D01*
X20992376Y-15018214D01*
X20985646Y-15018415D01*
X20833713Y-15013134D01*
X20827032Y-15012468D01*
X20814115Y-15012453D01*
X20801173Y-15012003D01*
X20794457Y-15012430D01*
X20642888Y-15012251D01*
X20636196Y-15011810D01*
X20623254Y-15012228D01*
X20610306Y-15012213D01*
X20603631Y-15012862D01*
X20452514Y-15017746D01*
X20445828Y-15017529D01*
X20432895Y-15018380D01*
X20419933Y-15018799D01*
X20413297Y-15019670D01*
X20262763Y-15029576D01*
X20256076Y-15029582D01*
X20243149Y-15030867D01*
X20230215Y-15031718D01*
X20223632Y-15032807D01*
X20073768Y-15047702D01*
X20067103Y-15047930D01*
X20054220Y-15049645D01*
X20041302Y-15050929D01*
X20034770Y-15052234D01*
X19885707Y-15072078D01*
X19879061Y-15072527D01*
X19866231Y-15074671D01*
X19853357Y-15076385D01*
X19846881Y-15077905D01*
X19698716Y-15102666D01*
X19692104Y-15103334D01*
X19679368Y-15105900D01*
X19666532Y-15108045D01*
X19660106Y-15109780D01*
X19512981Y-15139421D01*
X19506396Y-15140307D01*
X19493735Y-15143298D01*
X19480978Y-15145868D01*
X19474623Y-15147813D01*
X19328634Y-15182300D01*
X19322078Y-15183405D01*
X19309514Y-15186817D01*
X19296860Y-15189806D01*
X19290580Y-15191958D01*
X19145830Y-15231265D01*
X19139316Y-15232586D01*
X19126870Y-15236413D01*
X19114320Y-15239821D01*
X19108115Y-15242180D01*
X18964720Y-15286274D01*
X18958256Y-15287810D01*
X18945962Y-15292042D01*
X18933522Y-15295867D01*
X18927388Y-15298435D01*
X18785479Y-15347282D01*
X18779062Y-15349034D01*
X18766909Y-15353674D01*
X18754614Y-15357906D01*
X18748571Y-15360675D01*
X18608251Y-15414248D01*
X18601881Y-15416217D01*
X18589883Y-15421261D01*
X18577758Y-15425890D01*
X18571807Y-15428860D01*
X18433179Y-15487137D01*
X18426875Y-15489318D01*
X18415064Y-15494752D01*
X18403100Y-15499782D01*
X18397243Y-15502952D01*
X18260427Y-15565904D01*
X18254192Y-15568297D01*
X18242593Y-15574110D01*
X18230803Y-15579535D01*
X18225037Y-15582909D01*
X18090153Y-15650510D01*
X18083995Y-15653112D01*
X18072615Y-15659299D01*
X18061015Y-15665113D01*
X18055350Y-15668686D01*
X17922526Y-15740904D01*
X17916440Y-15743719D01*
X17905278Y-15750281D01*
X17893899Y-15756468D01*
X17888349Y-15760234D01*
X17757690Y-15837049D01*
X17751682Y-15840077D01*
X17740752Y-15847006D01*
X17729610Y-15853557D01*
X17724179Y-15857514D01*
X17595788Y-15938913D01*
X17589878Y-15942146D01*
X17579214Y-15949421D01*
X17568301Y-15956340D01*
X17562988Y-15960491D01*
X17437005Y-16046439D01*
X17431192Y-16049878D01*
X17420796Y-16057497D01*
X17410132Y-16064772D01*
X17404947Y-16069112D01*
X17281501Y-16159580D01*
X17275776Y-16163234D01*
X17265629Y-16171211D01*
X17255265Y-16178807D01*
X17250228Y-16183321D01*
X17129397Y-16278319D01*
X17123797Y-16282167D01*
X17113960Y-16290456D01*
X17103852Y-16298403D01*
X17098949Y-16303105D01*
X16980891Y-16402584D01*
X16975413Y-16406629D01*
X16965882Y-16415231D01*
X16956057Y-16423510D01*
X16951301Y-16428391D01*
X16836137Y-16532331D01*
X16830781Y-16536576D01*
X16821555Y-16545492D01*
X16812040Y-16554080D01*
X16807443Y-16559130D01*
X16695294Y-16667516D01*
X16690083Y-16671943D01*
X16681175Y-16681161D01*
X16671957Y-16690069D01*
X16667531Y-16695279D01*
X16559144Y-16807429D01*
X16554094Y-16812026D01*
X16545506Y-16821541D01*
X16536590Y-16830767D01*
X16532345Y-16836124D01*
X16428405Y-16951287D01*
X16423524Y-16956043D01*
X16415245Y-16965868D01*
X16406643Y-16975399D01*
X16402597Y-16980879D01*
X16303126Y-17098927D01*
X16298415Y-17103839D01*
X16290454Y-17113965D01*
X16282181Y-17123783D01*
X16278338Y-17129375D01*
X16183342Y-17250205D01*
X16178823Y-17255249D01*
X16171213Y-17265633D01*
X16163248Y-17275764D01*
X16159601Y-17281478D01*
X16069123Y-17404936D01*
X16064786Y-17410118D01*
X16057517Y-17420773D01*
X16049893Y-17431176D01*
X16046451Y-17436993D01*
X15960505Y-17562974D01*
X15956354Y-17568287D01*
X15949436Y-17579198D01*
X15942160Y-17589864D01*
X15938927Y-17595776D01*
X15857535Y-17724155D01*
X15853573Y-17729593D01*
X15847012Y-17740754D01*
X15840092Y-17751668D01*
X15837069Y-17757666D01*
X15760250Y-17888332D01*
X15756481Y-17893886D01*
X15750290Y-17905272D01*
X15743733Y-17916426D01*
X15740919Y-17922508D01*
X15668700Y-18055338D01*
X15665128Y-18061001D01*
X15659314Y-18072601D01*
X15653126Y-18083983D01*
X15650524Y-18090140D01*
X15582922Y-18225026D01*
X15579552Y-18230786D01*
X15574131Y-18242567D01*
X15568312Y-18254178D01*
X15565918Y-18260417D01*
X15502966Y-18397229D01*
X15499795Y-18403088D01*
X15494769Y-18415044D01*
X15489333Y-18426858D01*
X15487150Y-18433169D01*
X15428880Y-18571783D01*
X15425906Y-18577742D01*
X15421267Y-18589893D01*
X15416232Y-18601870D01*
X15414267Y-18608227D01*
X15360694Y-18748546D01*
X15357919Y-18754602D01*
X15353680Y-18766918D01*
X15349049Y-18779047D01*
X15347300Y-18785453D01*
X15298449Y-18927376D01*
X15295882Y-18933508D01*
X15292057Y-18945946D01*
X15287824Y-18958245D01*
X15286288Y-18964709D01*
X15242195Y-19108102D01*
X15239836Y-19114307D01*
X15236428Y-19126857D01*
X15232601Y-19139303D01*
X15231280Y-19145817D01*
X15191974Y-19290565D01*
X15189822Y-19296844D01*
X15186834Y-19309494D01*
X15183420Y-19322065D01*
X15182315Y-19328624D01*
X15147828Y-19474608D01*
X15145882Y-19480966D01*
X15143312Y-19493725D01*
X15140322Y-19506380D01*
X15139435Y-19512965D01*
X15109794Y-19660096D01*
X15108060Y-19666518D01*
X15105916Y-19679347D01*
X15103348Y-19692094D01*
X15102680Y-19698709D01*
X15077920Y-19846865D01*
X15076400Y-19853343D01*
X15074686Y-19866222D01*
X15072542Y-19879048D01*
X15072093Y-19885692D01*
X15052250Y-20034754D01*
X15050944Y-20041288D01*
X15049660Y-20054210D01*
X15047945Y-20067090D01*
X15047717Y-20073754D01*
X15032822Y-20223618D01*
X15031733Y-20230201D01*
X15030882Y-20243135D01*
X15029597Y-20256062D01*
X15029591Y-20262749D01*
X15019685Y-20413285D01*
X15018814Y-20419920D01*
X15018395Y-20432880D01*
X15017544Y-20445814D01*
X15017761Y-20452501D01*
X15012878Y-20603614D01*
X15012228Y-20610289D01*
X15012243Y-20623243D01*
X15011825Y-20636183D01*
X15012266Y-20642873D01*
X15012444Y-20794440D01*
X15012017Y-20801158D01*
X15012467Y-20814102D01*
X15012482Y-20827014D01*
X15013148Y-20833694D01*
X15018429Y-20985630D01*
X15018228Y-20992363D01*
X15019110Y-21005241D01*
X15019559Y-21018156D01*
X15020453Y-21024839D01*
X15030875Y-21176996D01*
X15030902Y-21183744D01*
X15032215Y-21196558D01*
X15033098Y-21209445D01*
X15034220Y-21216117D01*
X15049824Y-21368372D01*
X15050080Y-21375149D01*
X15051827Y-21387919D01*
X15053139Y-21400720D01*
X15054486Y-21407357D01*
X15075321Y-21559642D01*
X15075807Y-21566410D01*
X15077978Y-21579067D01*
X15079724Y-21591827D01*
X15081302Y-21598444D01*
X15107403Y-21750591D01*
X15108122Y-21757368D01*
X15110723Y-21769946D01*
X15112894Y-21782601D01*
X15114699Y-21789171D01*
X15131755Y-21871653D01*
X14452279Y-22331494D01*
X13534173Y-22899974D01*
X12599265Y-23427819D01*
X11648749Y-23915062D01*
X10683920Y-24361682D01*
X9705954Y-24767712D01*
X8716160Y-25133126D01*
X7715721Y-25457950D01*
X6705946Y-25742164D01*
X5688037Y-25985781D01*
X4663225Y-26188802D01*
X3632796Y-26351219D01*
X2597970Y-26473035D01*
X1560040Y-26554244D01*
X520248Y-26594848D01*
X-520234Y-26594848D01*
X-1560024Y-26554245D01*
X-2597955Y-26473036D01*
X-3632777Y-26351221D01*
X-4663203Y-26188805D01*
X-5688014Y-25985785D01*
X-6705909Y-25742172D01*
X-7715717Y-25457949D01*
X-8716109Y-25133141D01*
X-9705911Y-24767725D01*
X-10683870Y-24361701D01*
X-11648689Y-23915089D01*
X-12599205Y-23427849D01*
X-13534127Y-22899998D01*
X-13770859Y-22753417D01*
X-2270574Y-22753417D01*
X-1902054Y-23158213D01*
X-1288388Y-23472444D01*
X-625210Y-23660916D01*
X61994Y-23716389D01*
X746816Y-23636728D01*
X1402939Y-23424996D01*
X1570052Y-23335672D01*
X3796841Y-23335672D01*
X3796841Y-23572052D01*
X3842957Y-23803889D01*
X3933415Y-24022275D01*
X4064740Y-24218817D01*
X4231886Y-24385963D01*
X4428428Y-24517288D01*
X4646814Y-24607746D01*
X4878651Y-24653862D01*
X5115031Y-24653862D01*
X5346868Y-24607746D01*
X5565254Y-24517288D01*
X5761796Y-24385963D01*
X5928942Y-24218817D01*
X6060267Y-24022275D01*
X6150725Y-23803889D01*
X6196841Y-23572052D01*
X6196841Y-23335672D01*
X6150725Y-23103835D01*
X6060267Y-22885449D01*
X5928942Y-22688907D01*
X5761796Y-22521761D01*
X5565254Y-22390436D01*
X5346868Y-22299978D01*
X5115031Y-22253862D01*
X4878651Y-22253862D01*
X4646814Y-22299978D01*
X4428428Y-22390436D01*
X4231886Y-22521761D01*
X4064740Y-22688907D01*
X3933415Y-22885449D01*
X3842957Y-23103835D01*
X3796841Y-23335672D01*
X1570052Y-23335672D01*
X1902054Y-23158213D01*
X2270574Y-22753417D01*
X0Y-20482843D01*
X-2270574Y-22753417D01*
X-13770859Y-22753417D01*
X-14452234Y-22331521D01*
X-15131742Y-21871659D01*
X-15114683Y-21789164D01*
X-15112882Y-21782608D01*
X-15110716Y-21769980D01*
X-15108109Y-21757375D01*
X-15107388Y-21750585D01*
X-15081289Y-21598450D01*
X-15079711Y-21591833D01*
X-15077966Y-21579076D01*
X-15075794Y-21566417D01*
X-15075308Y-21559647D01*
X-15054474Y-21407365D01*
X-15053126Y-21400728D01*
X-15051813Y-21387921D01*
X-15050067Y-21375156D01*
X-15049811Y-21368383D01*
X-15034205Y-21216121D01*
X-15033084Y-21209451D01*
X-15032202Y-21196571D01*
X-15030888Y-21183753D01*
X-15030861Y-21177002D01*
X-15020438Y-21024844D01*
X-15019545Y-21018162D01*
X-15019096Y-21005249D01*
X-15018214Y-20992370D01*
X-15018415Y-20985637D01*
X-15013134Y-20833704D01*
X-15012468Y-20827023D01*
X-15012453Y-20814106D01*
X-15012003Y-20801164D01*
X-15012430Y-20794448D01*
X-15012251Y-20642880D01*
X-15011810Y-20636188D01*
X-15012228Y-20623246D01*
X-15012213Y-20610298D01*
X-15012862Y-20603623D01*
X-15017746Y-20452505D01*
X-15017529Y-20445817D01*
X-15018380Y-20432882D01*
X-15018799Y-20419925D01*
X-15019670Y-20413290D01*
X-15029577Y-20262749D01*
X-15029577Y-20261994D01*
X-3516389Y-20261994D01*
X-3436728Y-20946816D01*
X-3224996Y-21602939D01*
X-2958213Y-22102054D01*
X-2553417Y-22470574D01*
X-282843Y-20200000D01*
X282843Y-20200000D01*
X2553417Y-22470574D01*
X2958213Y-22102054D01*
X3272444Y-21488388D01*
X3435721Y-20913862D01*
X3791035Y-20913862D01*
X3814204Y-21149103D01*
X3882822Y-21375304D01*
X3994250Y-21583772D01*
X4144207Y-21766496D01*
X4326931Y-21916453D01*
X4535399Y-22027881D01*
X4761600Y-22096499D01*
X4937891Y-22113862D01*
X5055791Y-22113862D01*
X5232082Y-22096499D01*
X5458283Y-22027881D01*
X5666751Y-21916453D01*
X5849475Y-21766496D01*
X5999432Y-21583772D01*
X6110860Y-21375304D01*
X6179478Y-21149103D01*
X6202647Y-20913862D01*
X6179478Y-20678621D01*
X6110860Y-20452420D01*
X5999432Y-20243952D01*
X5849475Y-20061228D01*
X5666751Y-19911271D01*
X5458283Y-19799843D01*
X5232082Y-19731225D01*
X5055791Y-19713862D01*
X4937891Y-19713862D01*
X4761600Y-19731225D01*
X4535399Y-19799843D01*
X4326931Y-19911271D01*
X4144207Y-20061228D01*
X3994250Y-20243952D01*
X3882822Y-20452420D01*
X3814204Y-20678621D01*
X3791035Y-20913862D01*
X3435721Y-20913862D01*
X3460916Y-20825210D01*
X3516389Y-20138006D01*
X3436728Y-19453184D01*
X3224996Y-18797061D01*
X2998792Y-18373862D01*
X3791035Y-18373862D01*
X3814204Y-18609103D01*
X3882822Y-18835304D01*
X3994250Y-19043772D01*
X4144207Y-19226496D01*
X4326931Y-19376453D01*
X4535399Y-19487881D01*
X4761600Y-19556499D01*
X4937891Y-19573862D01*
X5055791Y-19573862D01*
X5232082Y-19556499D01*
X5458283Y-19487881D01*
X5666751Y-19376453D01*
X5849475Y-19226496D01*
X5999432Y-19043772D01*
X6110860Y-18835304D01*
X6179478Y-18609103D01*
X6202647Y-18373862D01*
X6179478Y-18138621D01*
X6110860Y-17912420D01*
X5999432Y-17703952D01*
X5849475Y-17521228D01*
X5666751Y-17371271D01*
X5458283Y-17259843D01*
X5232082Y-17191225D01*
X5055791Y-17173862D01*
X4937891Y-17173862D01*
X4761600Y-17191225D01*
X4535399Y-17259843D01*
X4326931Y-17371271D01*
X4144207Y-17521228D01*
X3994250Y-17703952D01*
X3882822Y-17912420D01*
X3814204Y-18138621D01*
X3791035Y-18373862D01*
X2998792Y-18373862D01*
X2958213Y-18297946D01*
X2553417Y-17929426D01*
X282843Y-20200000D01*
X-282843Y-20200000D01*
X-2553417Y-17929426D01*
X-2958213Y-18297946D01*
X-3272444Y-18911612D01*
X-3460916Y-19574790D01*
X-3516389Y-20261994D01*
X-15029577Y-20261994D01*
X-15029583Y-20256068D01*
X-15030867Y-20243146D01*
X-15031719Y-20230204D01*
X-15032808Y-20223621D01*
X-15047702Y-20073751D01*
X-15047930Y-20067094D01*
X-15049642Y-20054232D01*
X-15050928Y-20041295D01*
X-15052235Y-20034752D01*
X-15072080Y-19885688D01*
X-15072528Y-19879050D01*
X-15074668Y-19866244D01*
X-15076385Y-19853348D01*
X-15077908Y-19846860D01*
X-15102665Y-19698723D01*
X-15103334Y-19692098D01*
X-15105906Y-19679329D01*
X-15108047Y-19666521D01*
X-15109778Y-19660110D01*
X-15139420Y-19512979D01*
X-15140307Y-19506387D01*
X-15143301Y-19493714D01*
X-15145868Y-19480971D01*
X-15147811Y-19474623D01*
X-15182300Y-19328625D01*
X-15183405Y-19322069D01*
X-15186817Y-19309505D01*
X-15189806Y-19296851D01*
X-15191958Y-19290571D01*
X-15231265Y-19145821D01*
X-15232586Y-19139307D01*
X-15236413Y-19126861D01*
X-15239821Y-19114311D01*
X-15242180Y-19108106D01*
X-15286274Y-18964711D01*
X-15287810Y-18958247D01*
X-15292042Y-18945953D01*
X-15295867Y-18933513D01*
X-15298435Y-18927379D01*
X-15347282Y-18785470D01*
X-15349034Y-18779053D01*
X-15353674Y-18766900D01*
X-15357906Y-18754605D01*
X-15360675Y-18748562D01*
X-15414248Y-18608241D01*
X-15416217Y-18601872D01*
X-15421261Y-18589874D01*
X-15425890Y-18577749D01*
X-15428860Y-18571798D01*
X-15487135Y-18433175D01*
X-15489319Y-18426862D01*
X-15494760Y-18415037D01*
X-15499782Y-18403091D01*
X-15502949Y-18397240D01*
X-15565905Y-18260419D01*
X-15568297Y-18254185D01*
X-15574111Y-18242583D01*
X-15579537Y-18230792D01*
X-15582910Y-18225028D01*
X-15650505Y-18090153D01*
X-15653111Y-18083987D01*
X-15659306Y-18072593D01*
X-15665112Y-18061008D01*
X-15668681Y-18055351D01*
X-15740906Y-17922511D01*
X-15743719Y-17916430D01*
X-15750276Y-17905277D01*
X-15756467Y-17893890D01*
X-15760236Y-17888335D01*
X-15837052Y-17757674D01*
X-15840078Y-17751671D01*
X-15847001Y-17740751D01*
X-15853557Y-17729600D01*
X-15857517Y-17724164D01*
X-15906703Y-17646583D01*
X-2270574Y-17646583D01*
X0Y-19917157D01*
X2270574Y-17646583D01*
X1902054Y-17241787D01*
X1288388Y-16927556D01*
X625210Y-16739084D01*
X-61994Y-16683611D01*
X-746816Y-16763272D01*
X-1402939Y-16975004D01*
X-1902054Y-17241787D01*
X-2270574Y-17646583D01*
X-15906703Y-17646583D01*
X-15938912Y-17595782D01*
X-15942146Y-17589869D01*
X-15949426Y-17579198D01*
X-15956341Y-17568291D01*
X-15960490Y-17562981D01*
X-16046439Y-17436996D01*
X-16049878Y-17431183D01*
X-16057498Y-17420786D01*
X-16064772Y-17410123D01*
X-16069112Y-17404938D01*
X-16159584Y-17281486D01*
X-16163234Y-17275768D01*
X-16171202Y-17265633D01*
X-16178807Y-17255256D01*
X-16183325Y-17250214D01*
X-16278319Y-17129388D01*
X-16282167Y-17123787D01*
X-16290454Y-17113952D01*
X-16298402Y-17103843D01*
X-16303105Y-17098938D01*
X-16402584Y-16980881D01*
X-16406629Y-16975403D01*
X-16415231Y-16965872D01*
X-16423510Y-16956047D01*
X-16428391Y-16951291D01*
X-16532331Y-16836127D01*
X-16536576Y-16830771D01*
X-16545492Y-16821545D01*
X-16554080Y-16812030D01*
X-16559130Y-16807433D01*
X-16667516Y-16695284D01*
X-16671943Y-16690073D01*
X-16681161Y-16681165D01*
X-16690069Y-16671947D01*
X-16695279Y-16667521D01*
X-16807429Y-16559134D01*
X-16812026Y-16554084D01*
X-16821541Y-16545496D01*
X-16830767Y-16536580D01*
X-16836124Y-16532335D01*
X-16951287Y-16428395D01*
X-16956043Y-16423514D01*
X-16965868Y-16415235D01*
X-16975399Y-16406633D01*
X-16980879Y-16402587D01*
X-17098934Y-16303110D01*
X-17103839Y-16298406D01*
X-17113948Y-16290458D01*
X-17123783Y-16282171D01*
X-17129384Y-16278323D01*
X-17250210Y-16183329D01*
X-17255252Y-16178811D01*
X-17265629Y-16171206D01*
X-17275764Y-16163238D01*
X-17281482Y-16159588D01*
X-17404934Y-16069116D01*
X-17410119Y-16064776D01*
X-17420782Y-16057502D01*
X-17431179Y-16049882D01*
X-17436992Y-16046443D01*
X-17562978Y-15960493D01*
X-17568287Y-15956345D01*
X-17579194Y-15949430D01*
X-17589865Y-15942150D01*
X-17595778Y-15938916D01*
X-17724160Y-15857521D01*
X-17729596Y-15853561D01*
X-17740747Y-15847005D01*
X-17751667Y-15840082D01*
X-17757669Y-15837057D01*
X-17888331Y-15760240D01*
X-17893886Y-15756471D01*
X-17905273Y-15750280D01*
X-17916426Y-15743723D01*
X-17922506Y-15740910D01*
X-18055347Y-15668685D01*
X-18061004Y-15665116D01*
X-18072589Y-15659310D01*
X-18083983Y-15653115D01*
X-18090149Y-15650509D01*
X-18225029Y-15582911D01*
X-18230787Y-15579542D01*
X-18242566Y-15574122D01*
X-18254181Y-15568301D01*
X-18260421Y-15565907D01*
X-18397231Y-15502956D01*
X-18403087Y-15499786D01*
X-18415044Y-15494759D01*
X-18426859Y-15489323D01*
X-18433168Y-15487140D01*
X-18571790Y-15428866D01*
X-18577745Y-15425894D01*
X-18589880Y-15421261D01*
X-18601869Y-15416221D01*
X-18608234Y-15414254D01*
X-18748554Y-15360681D01*
X-18754601Y-15357910D01*
X-18766905Y-15353675D01*
X-18779050Y-15349038D01*
X-18785463Y-15347287D01*
X-18927371Y-15298441D01*
X-18933509Y-15295871D01*
X-18945957Y-15292043D01*
X-18958244Y-15287814D01*
X-18964704Y-15286279D01*
X-19108103Y-15242184D01*
X-19114308Y-15239825D01*
X-19126858Y-15236417D01*
X-19139304Y-15232590D01*
X-19145818Y-15231269D01*
X-19290562Y-15191964D01*
X-19296847Y-15189810D01*
X-19309508Y-15186819D01*
X-19322066Y-15183409D01*
X-19328619Y-15182304D01*
X-19474619Y-15147815D01*
X-19480967Y-15145872D01*
X-19493709Y-15143305D01*
X-19506383Y-15140311D01*
X-19512975Y-15139424D01*
X-19660104Y-15109783D01*
X-19666517Y-15108051D01*
X-19679330Y-15105910D01*
X-19692095Y-15103338D01*
X-19698718Y-15102669D01*
X-19846854Y-15077912D01*
X-19853344Y-15076389D01*
X-19866244Y-15074672D01*
X-19879047Y-15072532D01*
X-19885684Y-15072084D01*
X-20034749Y-15052239D01*
X-20041292Y-15050932D01*
X-20054228Y-15049646D01*
X-20067091Y-15047934D01*
X-20073749Y-15047706D01*
X-20223614Y-15032812D01*
X-20230200Y-15031723D01*
X-20243147Y-15030871D01*
X-20256066Y-15029587D01*
X-20262745Y-15029581D01*
X-20413287Y-15019674D01*
X-20419922Y-15018803D01*
X-20432879Y-15018384D01*
X-20445814Y-15017533D01*
X-20452502Y-15017750D01*
X-20603618Y-15012866D01*
X-20610294Y-15012217D01*
X-20623243Y-15012232D01*
X-20636185Y-15011814D01*
X-20642877Y-15012255D01*
X-20794444Y-15012434D01*
X-20801160Y-15012007D01*
X-20814102Y-15012457D01*
X-20827019Y-15012472D01*
X-20833700Y-15013138D01*
X-20985633Y-15018419D01*
X-20992366Y-15018218D01*
X-21005245Y-15019100D01*
X-21018158Y-15019549D01*
X-21024840Y-15020442D01*
X-21176998Y-15030865D01*
X-21183749Y-15030892D01*
X-21196567Y-15032206D01*
X-21209447Y-15033088D01*
X-21216117Y-15034209D01*
X-21368379Y-15049815D01*
X-21375152Y-15050071D01*
X-21387917Y-15051817D01*
X-21400724Y-15053130D01*
X-21407361Y-15054478D01*
X-21559643Y-15075312D01*
X-21566413Y-15075798D01*
X-21579072Y-15077970D01*
X-21591829Y-15079715D01*
X-21598446Y-15081293D01*
X-21750581Y-15107392D01*
X-21757371Y-15108113D01*
X-21769976Y-15110720D01*
X-21782604Y-15112886D01*
X-21789160Y-15114687D01*
X-21871654Y-15131746D01*
X-22331500Y-14452263D01*
X-22899975Y-13534165D01*
X-23427820Y-12599256D01*
X-23915057Y-11648751D01*
X-24361685Y-10683901D01*
X-24767711Y-9705943D01*
X-24859200Y-9458126D01*
X-21948400Y-9458126D01*
X-21948400Y-10049074D01*
X-21833112Y-10628668D01*
X-21606966Y-11174633D01*
X-21278652Y-11665989D01*
X-20860789Y-12083852D01*
X-20369433Y-12412166D01*
X-19823468Y-12638312D01*
X-19243874Y-12753600D01*
X-18652926Y-12753600D01*
X-18073332Y-12638312D01*
X-17527367Y-12412166D01*
X-17036011Y-12083852D01*
X-16618148Y-11665989D01*
X-16289834Y-11174633D01*
X-16063688Y-10628668D01*
X-15948400Y-10049074D01*
X-15948400Y-9458126D01*
X-15988802Y-9255010D01*
X-4199102Y-9255010D01*
X-4182690Y-9421639D01*
X-4134087Y-9581865D01*
X-4055158Y-9729529D01*
X-3948938Y-9858958D01*
X-3819509Y-9965178D01*
X-3671845Y-10044107D01*
X-3511619Y-10092710D01*
X-3386739Y-10105010D01*
X3201537Y-10105010D01*
X3243371Y-10117700D01*
X3409999Y-10134111D01*
X3576628Y-10117700D01*
X3736854Y-10069097D01*
X3884518Y-9990167D01*
X4013948Y-9883948D01*
X4120167Y-9754518D01*
X4199097Y-9606854D01*
X4219520Y-9539526D01*
X4242142Y-9554641D01*
X4378633Y-9611178D01*
X4523531Y-9640000D01*
X4671269Y-9640000D01*
X4816167Y-9611178D01*
X4952658Y-9554641D01*
X5075497Y-9472563D01*
X5179963Y-9368097D01*
X5262041Y-9245258D01*
X5318578Y-9108767D01*
X5347400Y-8963869D01*
X5347400Y-8816131D01*
X5318578Y-8671233D01*
X5262041Y-8534742D01*
X5179963Y-8411903D01*
X5075497Y-8307437D01*
X4952658Y-8225359D01*
X4816167Y-8168822D01*
X4671269Y-8140000D01*
X4554506Y-8140000D01*
X4514506Y-8100000D01*
X20000000Y-8100000D01*
X20000000Y-8339396D01*
X20015372Y-8416675D01*
X20045524Y-8489471D01*
X20089299Y-8554985D01*
X20145014Y-8610700D01*
X20210529Y-8654475D01*
X20283324Y-8684628D01*
X20360603Y-8700000D01*
X20600000Y-8700000D01*
X20700000Y-8600000D01*
X20700000Y-8000000D01*
X21100000Y-8000000D01*
X21100000Y-8600000D01*
X21200000Y-8700000D01*
X21439397Y-8700000D01*
X21516676Y-8684628D01*
X21589471Y-8654475D01*
X21654986Y-8610700D01*
X21710701Y-8554985D01*
X21754476Y-8489471D01*
X21784628Y-8416675D01*
X21800000Y-8339396D01*
X21800000Y-8100000D01*
X21700000Y-8000000D01*
X21100000Y-8000000D01*
X20700000Y-8000000D01*
X20100000Y-8000000D01*
X20000000Y-8100000D01*
X4514506Y-8100000D01*
X4005200Y-7590695D01*
X4005200Y-7000000D01*
X4745901Y-7000000D01*
X4762312Y-7166629D01*
X4810915Y-7326854D01*
X4889845Y-7474518D01*
X4996064Y-7603948D01*
X5125494Y-7710167D01*
X5273158Y-7789097D01*
X5433383Y-7837700D01*
X5600012Y-7854111D01*
X5766641Y-7837700D01*
X5926866Y-7789097D01*
X6074530Y-7710167D01*
X6171531Y-7630561D01*
X6541488Y-7260604D01*
X20000000Y-7260604D01*
X20000000Y-7500000D01*
X20100000Y-7600000D01*
X20700000Y-7600000D01*
X20700000Y-7000000D01*
X21100000Y-7000000D01*
X21100000Y-7600000D01*
X21700000Y-7600000D01*
X21800000Y-7500000D01*
X21800000Y-7260604D01*
X21784628Y-7183325D01*
X21754476Y-7110529D01*
X21710701Y-7045015D01*
X21654986Y-6989300D01*
X21589471Y-6945525D01*
X21516676Y-6915372D01*
X21439397Y-6900000D01*
X21200000Y-6900000D01*
X21100000Y-7000000D01*
X20700000Y-7000000D01*
X20600000Y-6900000D01*
X20360603Y-6900000D01*
X20283324Y-6915372D01*
X20210529Y-6945525D01*
X20145014Y-6989300D01*
X20089299Y-7045015D01*
X20045524Y-7110529D01*
X20015372Y-7183325D01*
X20000000Y-7260604D01*
X6541488Y-7260604D01*
X8121164Y-5680930D01*
X8153586Y-5654322D01*
X8180195Y-5621899D01*
X8180200Y-5621894D01*
X8259806Y-5524893D01*
X8288846Y-5470562D01*
X19712582Y-5470562D01*
X19784192Y-5643469D01*
X19915559Y-5850325D01*
X20084758Y-6027578D01*
X20285286Y-6168416D01*
X20509437Y-6267427D01*
X20700000Y-6213905D01*
X20700000Y-5280000D01*
X21100000Y-5280000D01*
X21100000Y-6213905D01*
X21290563Y-6267427D01*
X21514714Y-6168416D01*
X21715242Y-6027578D01*
X21884441Y-5850325D01*
X22015808Y-5643469D01*
X22087418Y-5470562D01*
X22032475Y-5280000D01*
X21100000Y-5280000D01*
X20700000Y-5280000D01*
X19767525Y-5280000D01*
X19712582Y-5470562D01*
X8288846Y-5470562D01*
X8338735Y-5377229D01*
X8387338Y-5217003D01*
X8387338Y-5217002D01*
X8399638Y-5092123D01*
X8399638Y-5092115D01*
X8403749Y-5050374D01*
X8399638Y-5008633D01*
X8399638Y-4724004D01*
X8396234Y-4689438D01*
X19712582Y-4689438D01*
X19767525Y-4880000D01*
X20700000Y-4880000D01*
X20700000Y-3946095D01*
X21100000Y-3946095D01*
X21100000Y-4880000D01*
X22032475Y-4880000D01*
X22087418Y-4689438D01*
X22015808Y-4516531D01*
X21884441Y-4309675D01*
X21715242Y-4132422D01*
X21514714Y-3991584D01*
X21290563Y-3892573D01*
X21100000Y-3946095D01*
X20700000Y-3946095D01*
X20509437Y-3892573D01*
X20285286Y-3991584D01*
X20084758Y-4132422D01*
X19915559Y-4309675D01*
X19784192Y-4516531D01*
X19712582Y-4689438D01*
X8396234Y-4689438D01*
X8387338Y-4599124D01*
X8338735Y-4438897D01*
X8259806Y-4291233D01*
X8153586Y-4161804D01*
X8024157Y-4055584D01*
X7876493Y-3976655D01*
X7716267Y-3928052D01*
X7549638Y-3911640D01*
X7383010Y-3928052D01*
X7222784Y-3976655D01*
X7075120Y-4055584D01*
X6945690Y-4161804D01*
X6839470Y-4291233D01*
X6760541Y-4438897D01*
X6711938Y-4599123D01*
X6702447Y-4695483D01*
X4969451Y-6428481D01*
X4889845Y-6525482D01*
X4810915Y-6673146D01*
X4762312Y-6833371D01*
X4745901Y-7000000D01*
X4005200Y-7000000D01*
X4005200Y-5007705D01*
X6455507Y-2557400D01*
X7846740Y-2557400D01*
X7929303Y-2639963D01*
X8052142Y-2722041D01*
X8188633Y-2778578D01*
X8333531Y-2807400D01*
X8481269Y-2807400D01*
X8626167Y-2778578D01*
X8762658Y-2722041D01*
X8885497Y-2639963D01*
X8989963Y-2535497D01*
X9072041Y-2412658D01*
X9128578Y-2276167D01*
X9157400Y-2131269D01*
X9157400Y-1983531D01*
X9128578Y-1838633D01*
X9072041Y-1702142D01*
X8989963Y-1579303D01*
X8885497Y-1474837D01*
X8762658Y-1392759D01*
X8626167Y-1336222D01*
X8481269Y-1307400D01*
X8333531Y-1307400D01*
X8188633Y-1336222D01*
X8052142Y-1392759D01*
X7929303Y-1474837D01*
X7846740Y-1557400D01*
X6272960Y-1557400D01*
X6248400Y-1554981D01*
X6223840Y-1557400D01*
X6150383Y-1564635D01*
X6056133Y-1593225D01*
X5969271Y-1639654D01*
X5893136Y-1702136D01*
X5877480Y-1721213D01*
X3169024Y-4429671D01*
X3149936Y-4445336D01*
X3087454Y-4521471D01*
X3041025Y-4608334D01*
X3024554Y-4662634D01*
X3012435Y-4702583D01*
X3002781Y-4800600D01*
X3005200Y-4825160D01*
X3005201Y-7773230D01*
X3002781Y-7797800D01*
X3012435Y-7895817D01*
X3030729Y-7956123D01*
X3041026Y-7990067D01*
X3087455Y-8076929D01*
X3149937Y-8153064D01*
X3169019Y-8168724D01*
X3402962Y-8402667D01*
X3385010Y-8400899D01*
X3343269Y-8405010D01*
X-3386739Y-8405010D01*
X-3511619Y-8417310D01*
X-3671845Y-8465913D01*
X-3819509Y-8544842D01*
X-3948938Y-8651062D01*
X-4055158Y-8780491D01*
X-4134087Y-8928155D01*
X-4182690Y-9088381D01*
X-4199102Y-9255010D01*
X-15988802Y-9255010D01*
X-16063688Y-8878532D01*
X-16289834Y-8332567D01*
X-16618148Y-7841211D01*
X-17036011Y-7423348D01*
X-17527367Y-7095034D01*
X-18073332Y-6868888D01*
X-18652926Y-6753600D01*
X-19243874Y-6753600D01*
X-19823468Y-6868888D01*
X-20369433Y-7095034D01*
X-20860789Y-7423348D01*
X-21278652Y-7841211D01*
X-21606966Y-8332567D01*
X-21833112Y-8878532D01*
X-21948400Y-9458126D01*
X-24859200Y-9458126D01*
X-25133125Y-8716149D01*
X-25457949Y-7715710D01*
X-25742157Y-6705954D01*
X-25985783Y-5688003D01*
X-26188800Y-4663210D01*
X-26323283Y-3810000D01*
X-26005806Y-3810000D01*
X-25982637Y-4045241D01*
X-25914019Y-4271442D01*
X-25802591Y-4479910D01*
X-25652634Y-4662634D01*
X-25469910Y-4812591D01*
X-25261442Y-4924019D01*
X-25035241Y-4992637D01*
X-24858950Y-5010000D01*
X-24741050Y-5010000D01*
X-24564759Y-4992637D01*
X-24338558Y-4924019D01*
X-24130090Y-4812591D01*
X-23947366Y-4662634D01*
X-23797409Y-4479910D01*
X-23685981Y-4271442D01*
X-23617363Y-4045241D01*
X-23594194Y-3810000D01*
X-23617363Y-3574759D01*
X-23622052Y-3559299D01*
X-9170000Y-3559299D01*
X-9170000Y-4120701D01*
X-9060476Y-4671314D01*
X-8845637Y-5189981D01*
X-8533740Y-5656769D01*
X-8136769Y-6053740D01*
X-7669981Y-6365637D01*
X-7151314Y-6580476D01*
X-6600701Y-6690000D01*
X-6039299Y-6690000D01*
X-5488686Y-6580476D01*
X-4970019Y-6365637D01*
X-4503231Y-6053740D01*
X-4106260Y-5656769D01*
X-3794363Y-5189981D01*
X-3579524Y-4671314D01*
X-3470000Y-4120701D01*
X-3470000Y-3559299D01*
X-3579524Y-3008686D01*
X-3794363Y-2490019D01*
X-4106260Y-2023231D01*
X-4503231Y-1626260D01*
X-4970019Y-1314363D01*
X-5488686Y-1099524D01*
X-6039299Y-990000D01*
X-6600701Y-990000D01*
X-7151314Y-1099524D01*
X-7669981Y-1314363D01*
X-8136769Y-1626260D01*
X-8533740Y-2023231D01*
X-8845637Y-2490019D01*
X-9060476Y-3008686D01*
X-9170000Y-3559299D01*
X-23622052Y-3559299D01*
X-23685981Y-3348558D01*
X-23797409Y-3140090D01*
X-23947366Y-2957366D01*
X-24130090Y-2807409D01*
X-24338558Y-2695981D01*
X-24564759Y-2627363D01*
X-24741050Y-2610000D01*
X-24858950Y-2610000D01*
X-25035241Y-2627363D01*
X-25261442Y-2695981D01*
X-25469910Y-2807409D01*
X-25652634Y-2957366D01*
X-25802591Y-3140090D01*
X-25914019Y-3348558D01*
X-25982637Y-3574759D01*
X-26005806Y-3810000D01*
X-26323283Y-3810000D01*
X-26351216Y-3632784D01*
X-26473032Y-2597959D01*
X-26554241Y-1560029D01*
X-26565566Y-1270000D01*
X-26005806Y-1270000D01*
X-25982637Y-1505241D01*
X-25914019Y-1731442D01*
X-25802591Y-1939910D01*
X-25652634Y-2122634D01*
X-25469910Y-2272591D01*
X-25261442Y-2384019D01*
X-25035241Y-2452637D01*
X-24858950Y-2470000D01*
X-24741050Y-2470000D01*
X-24564759Y-2452637D01*
X-24338558Y-2384019D01*
X-24130090Y-2272591D01*
X-23947366Y-2122634D01*
X-23797409Y-1939910D01*
X-23685981Y-1731442D01*
X-23617363Y-1505241D01*
X-23594194Y-1270000D01*
X-23617363Y-1034759D01*
X-23685981Y-808558D01*
X-23797409Y-600090D01*
X-23947366Y-417366D01*
X-24130090Y-267409D01*
X-24338558Y-155981D01*
X-24564759Y-87363D01*
X-24741050Y-70000D01*
X-24858950Y-70000D01*
X-25035241Y-87363D01*
X-25261442Y-155981D01*
X-25469910Y-267409D01*
X-25652634Y-417366D01*
X-25802591Y-600090D01*
X-25914019Y-808558D01*
X-25982637Y-1034759D01*
X-26005806Y-1270000D01*
X-26565566Y-1270000D01*
X-26594844Y-520237D01*
X-26594844Y520244D01*
X-26580818Y879438D01*
X-25987418Y879438D01*
X-25915808Y706531D01*
X-25784441Y499675D01*
X-25615242Y322422D01*
X-25414714Y181584D01*
X-25190563Y82573D01*
X-25000000Y136095D01*
X-25000000Y1070000D01*
X-24600000Y1070000D01*
X-24600000Y136095D01*
X-24409437Y82573D01*
X-24185286Y181584D01*
X-23984758Y322422D01*
X-23815559Y499675D01*
X-23684192Y706531D01*
X-23612582Y879438D01*
X-23667525Y1070000D01*
X-24600000Y1070000D01*
X-25000000Y1070000D01*
X-25932475Y1070000D01*
X-25987418Y879438D01*
X-26580818Y879438D01*
X-26554240Y1560036D01*
X-26546375Y1660562D01*
X-25987418Y1660562D01*
X-25932475Y1470000D01*
X-25000000Y1470000D01*
X-25000000Y2403905D01*
X-24600000Y2403905D01*
X-24600000Y1470000D01*
X-23667525Y1470000D01*
X-23612582Y1660562D01*
X-23684192Y1833469D01*
X-23815559Y2040325D01*
X-23984758Y2217578D01*
X-24185286Y2358416D01*
X-24409437Y2457427D01*
X-24600000Y2403905D01*
X-25000000Y2403905D01*
X-25190563Y2457427D01*
X-25414714Y2358416D01*
X-25615242Y2217578D01*
X-25784441Y2040325D01*
X-25915808Y1833469D01*
X-25987418Y1660562D01*
X-26546375Y1660562D01*
X-26473031Y2597966D01*
X-26351215Y3632792D01*
X-26304655Y3928190D01*
X-26000000Y3928190D01*
X-26000000Y3691810D01*
X-25953884Y3459973D01*
X-25863426Y3241587D01*
X-25732101Y3045045D01*
X-25564955Y2877899D01*
X-25368413Y2746574D01*
X-25150027Y2656116D01*
X-24918190Y2610000D01*
X-24681810Y2610000D01*
X-24449973Y2656116D01*
X-24231587Y2746574D01*
X-24035045Y2877899D01*
X-23867899Y3045045D01*
X-23736574Y3241587D01*
X-23646116Y3459973D01*
X-23600000Y3691810D01*
X-23600000Y3928190D01*
X-23646116Y4160027D01*
X-23736574Y4378413D01*
X-23867899Y4574955D01*
X-24035045Y4742101D01*
X-24231587Y4873426D01*
X-24449973Y4963884D01*
X-24681810Y5010000D01*
X-24918190Y5010000D01*
X-25150027Y4963884D01*
X-25368413Y4873426D01*
X-25564955Y4742101D01*
X-25732101Y4574955D01*
X-25863426Y4378413D01*
X-25953884Y4160027D01*
X-26000000Y3928190D01*
X-26304655Y3928190D01*
X-26188798Y4663221D01*
X-25985777Y5688033D01*
X-25742160Y6705942D01*
X-25457946Y7715717D01*
X-25133122Y8716156D01*
X-24853389Y9473869D01*
X-10050000Y9473869D01*
X-10050000Y9326131D01*
X-10021178Y9181233D01*
X-9964641Y9044742D01*
X-9882563Y8921903D01*
X-9778097Y8817437D01*
X-9655258Y8735359D01*
X-9518767Y8678822D01*
X-9373869Y8650000D01*
X-9327818Y8650000D01*
X-9269806Y8591988D01*
X-9269801Y8591984D01*
X-7999999Y7322181D01*
X-8000000Y2664670D01*
X-8032563Y2632107D01*
X-8114641Y2509268D01*
X-8171178Y2372777D01*
X-8200000Y2227879D01*
X-8200000Y2080141D01*
X-8171178Y1935243D01*
X-8114641Y1798752D01*
X-8032563Y1675913D01*
X-7928097Y1571447D01*
X-7805258Y1489369D01*
X-7668767Y1432832D01*
X-7523869Y1404010D01*
X-7376131Y1404010D01*
X-7231233Y1432832D01*
X-7094742Y1489369D01*
X-6971903Y1571447D01*
X-6867437Y1675913D01*
X-6785359Y1798752D01*
X-6751705Y1880000D01*
X6645889Y1880000D01*
X6650000Y1838259D01*
X6650000Y1838251D01*
X6662300Y1713371D01*
X6710903Y1553145D01*
X6789832Y1405481D01*
X6896052Y1276052D01*
X6928485Y1249435D01*
X9339443Y-1161525D01*
X9366052Y-1193948D01*
X9398475Y-1220557D01*
X9398479Y-1220561D01*
X9458721Y-1270000D01*
X9495481Y-1300168D01*
X9643145Y-1379097D01*
X9803371Y-1427700D01*
X9928251Y-1440000D01*
X9928261Y-1440000D01*
X9969999Y-1444111D01*
X10011737Y-1440000D01*
X11837920Y-1440000D01*
X14828479Y-4430560D01*
X14925480Y-4510166D01*
X15073144Y-4589096D01*
X15233369Y-4637699D01*
X15399998Y-4654110D01*
X15441729Y-4650000D01*
X15573869Y-4650000D01*
X15718767Y-4621178D01*
X15855258Y-4564641D01*
X15978097Y-4482563D01*
X15999998Y-4460662D01*
X16021903Y-4482567D01*
X16144742Y-4564645D01*
X16281233Y-4621182D01*
X16426131Y-4650004D01*
X16573869Y-4650004D01*
X16718767Y-4621182D01*
X16855258Y-4564645D01*
X16978097Y-4482567D01*
X17082563Y-4378101D01*
X17164641Y-4255262D01*
X17221178Y-4118771D01*
X17250000Y-3973873D01*
X17250000Y-3826135D01*
X17221178Y-3681237D01*
X17164641Y-3544746D01*
X17082563Y-3421907D01*
X17000000Y-3339344D01*
X17000000Y-2824560D01*
X17002419Y-2800000D01*
X16992765Y-2701983D01*
X16990944Y-2695981D01*
X16964175Y-2607733D01*
X16927971Y-2540000D01*
X19694194Y-2540000D01*
X19717363Y-2775241D01*
X19785981Y-3001442D01*
X19897409Y-3209910D01*
X20047366Y-3392634D01*
X20230090Y-3542591D01*
X20438558Y-3654019D01*
X20664759Y-3722637D01*
X20841050Y-3740000D01*
X20958950Y-3740000D01*
X21135241Y-3722637D01*
X21236862Y-3691810D01*
X23600000Y-3691810D01*
X23600000Y-3928190D01*
X23646116Y-4160027D01*
X23736574Y-4378413D01*
X23867899Y-4574955D01*
X24035045Y-4742101D01*
X24231587Y-4873426D01*
X24449973Y-4963884D01*
X24681810Y-5010000D01*
X24918190Y-5010000D01*
X25150027Y-4963884D01*
X25368413Y-4873426D01*
X25564955Y-4742101D01*
X25732101Y-4574955D01*
X25863426Y-4378413D01*
X25953884Y-4160027D01*
X26000000Y-3928190D01*
X26000000Y-3691810D01*
X25953884Y-3459973D01*
X25863426Y-3241587D01*
X25732101Y-3045045D01*
X25564955Y-2877899D01*
X25368413Y-2746574D01*
X25150027Y-2656116D01*
X24918190Y-2610000D01*
X24681810Y-2610000D01*
X24449973Y-2656116D01*
X24231587Y-2746574D01*
X24035045Y-2877899D01*
X23867899Y-3045045D01*
X23736574Y-3241587D01*
X23646116Y-3459973D01*
X23600000Y-3691810D01*
X21236862Y-3691810D01*
X21361442Y-3654019D01*
X21569910Y-3542591D01*
X21752634Y-3392634D01*
X21902591Y-3209910D01*
X22014019Y-3001442D01*
X22082637Y-2775241D01*
X22105806Y-2540000D01*
X22082637Y-2304759D01*
X22014019Y-2078558D01*
X21902591Y-1870090D01*
X21752634Y-1687366D01*
X21569910Y-1537409D01*
X21361442Y-1425981D01*
X21135241Y-1357363D01*
X20958950Y-1340000D01*
X20841050Y-1340000D01*
X20664759Y-1357363D01*
X20438558Y-1425981D01*
X20230090Y-1537409D01*
X20047366Y-1687366D01*
X19897409Y-1870090D01*
X19785981Y-2078558D01*
X19717363Y-2304759D01*
X19694194Y-2540000D01*
X16927971Y-2540000D01*
X16917746Y-2520871D01*
X16855264Y-2444736D01*
X16836187Y-2429080D01*
X15677106Y-1270000D01*
X23594194Y-1270000D01*
X23617363Y-1505241D01*
X23685981Y-1731442D01*
X23797409Y-1939910D01*
X23947366Y-2122634D01*
X24130090Y-2272591D01*
X24338558Y-2384019D01*
X24564759Y-2452637D01*
X24741050Y-2470000D01*
X24858950Y-2470000D01*
X25035241Y-2452637D01*
X25261442Y-2384019D01*
X25469910Y-2272591D01*
X25652634Y-2122634D01*
X25802591Y-1939910D01*
X25914019Y-1731442D01*
X25982637Y-1505241D01*
X26005806Y-1270000D01*
X25982637Y-1034759D01*
X25914019Y-808558D01*
X25802591Y-600090D01*
X25652634Y-417366D01*
X25469910Y-267409D01*
X25261442Y-155981D01*
X25035241Y-87363D01*
X24858950Y-70000D01*
X24741050Y-70000D01*
X24564759Y-87363D01*
X24338558Y-155981D01*
X24130090Y-267409D01*
X23947366Y-417366D01*
X23797409Y-600090D01*
X23685981Y-808558D01*
X23617363Y-1034759D01*
X23594194Y-1270000D01*
X15677106Y-1270000D01*
X15670922Y-1263817D01*
X15670918Y-1263812D01*
X15650000Y-1242894D01*
X15650000Y-1126131D01*
X15621178Y-981233D01*
X15564641Y-844742D01*
X15482563Y-721903D01*
X15378097Y-617437D01*
X15255258Y-535359D01*
X15118767Y-478822D01*
X14973869Y-450000D01*
X14826131Y-450000D01*
X14681233Y-478822D01*
X14544742Y-535359D01*
X14421903Y-617437D01*
X14317437Y-721903D01*
X14235359Y-844742D01*
X14178822Y-981233D01*
X14150000Y-1126131D01*
X14150000Y-1273869D01*
X14168387Y-1366307D01*
X12820566Y-18486D01*
X12793948Y13948D01*
X12664519Y120168D01*
X12516855Y199097D01*
X12356629Y247700D01*
X12231749Y260000D01*
X12231741Y260000D01*
X12190000Y264111D01*
X12148259Y260000D01*
X10322082Y260000D01*
X9732082Y850000D01*
X19698307Y850000D01*
X19698307Y-850000D01*
X19705065Y-918612D01*
X19725078Y-984587D01*
X19757578Y-1045390D01*
X19801315Y-1098685D01*
X19854610Y-1142422D01*
X19915413Y-1174922D01*
X19981388Y-1194935D01*
X20050000Y-1201693D01*
X21750000Y-1201693D01*
X21818612Y-1194935D01*
X21884587Y-1174922D01*
X21945390Y-1142422D01*
X21998685Y-1098685D01*
X22042422Y-1045390D01*
X22074922Y-984587D01*
X22094935Y-918612D01*
X22101693Y-850000D01*
X22101693Y850000D01*
X22094935Y918612D01*
X22074922Y984587D01*
X22042422Y1045390D01*
X21998685Y1098685D01*
X21945390Y1142422D01*
X21884587Y1174922D01*
X21818612Y1194935D01*
X21750000Y1201693D01*
X20050000Y1201693D01*
X19981388Y1194935D01*
X19915413Y1174922D01*
X19854610Y1142422D01*
X19801315Y1098685D01*
X19757578Y1045390D01*
X19725078Y984587D01*
X19705065Y918612D01*
X19698307Y850000D01*
X9732082Y850000D01*
X8572645Y2009437D01*
X11632573Y2009437D01*
X11731584Y1785286D01*
X11872422Y1584758D01*
X12049675Y1415559D01*
X12256531Y1284192D01*
X12429438Y1212582D01*
X12620000Y1267525D01*
X12620000Y2200000D01*
X13020000Y2200000D01*
X13020000Y1267525D01*
X13210562Y1212582D01*
X13383469Y1284192D01*
X13590325Y1415559D01*
X13767578Y1584758D01*
X13908416Y1785286D01*
X14007427Y2009437D01*
X13953905Y2200000D01*
X13020000Y2200000D01*
X12620000Y2200000D01*
X11686095Y2200000D01*
X11632573Y2009437D01*
X8572645Y2009437D01*
X8213162Y2368919D01*
X8210168Y2374519D01*
X8189257Y2400000D01*
X14154194Y2400000D01*
X14177363Y2164759D01*
X14245981Y1938558D01*
X14357409Y1730090D01*
X14507366Y1547366D01*
X14690090Y1397409D01*
X14898558Y1285981D01*
X15124759Y1217363D01*
X15301050Y1200000D01*
X15418950Y1200000D01*
X15595241Y1217363D01*
X15821442Y1285981D01*
X16029910Y1397409D01*
X16212634Y1547366D01*
X16362591Y1730090D01*
X16474019Y1938558D01*
X16542637Y2164759D01*
X16565806Y2400000D01*
X16542637Y2635241D01*
X16474019Y2861442D01*
X16362591Y3069910D01*
X16214796Y3250000D01*
X16698307Y3250000D01*
X16698307Y1550000D01*
X16705065Y1481388D01*
X16725078Y1415413D01*
X16757578Y1354610D01*
X16801315Y1301315D01*
X16854610Y1257578D01*
X16915413Y1225078D01*
X16981388Y1205065D01*
X17050000Y1198307D01*
X18750000Y1198307D01*
X18818612Y1205065D01*
X18884587Y1225078D01*
X18945390Y1257578D01*
X18960526Y1270000D01*
X23594194Y1270000D01*
X23617363Y1034759D01*
X23685981Y808558D01*
X23797409Y600090D01*
X23947366Y417366D01*
X24130090Y267409D01*
X24338558Y155981D01*
X24564759Y87363D01*
X24741050Y70000D01*
X24858950Y70000D01*
X25035241Y87363D01*
X25261442Y155981D01*
X25469910Y267409D01*
X25652634Y417366D01*
X25802591Y600090D01*
X25914019Y808558D01*
X25982637Y1034759D01*
X26005806Y1270000D01*
X25982637Y1505241D01*
X25914019Y1731442D01*
X25802591Y1939910D01*
X25652634Y2122634D01*
X25469910Y2272591D01*
X25261442Y2384019D01*
X25035241Y2452637D01*
X24858950Y2470000D01*
X24741050Y2470000D01*
X24564759Y2452637D01*
X24338558Y2384019D01*
X24130090Y2272591D01*
X23947366Y2122634D01*
X23797409Y1939910D01*
X23685981Y1731442D01*
X23617363Y1505241D01*
X23594194Y1270000D01*
X18960526Y1270000D01*
X18998685Y1301315D01*
X19042422Y1354610D01*
X19074922Y1415413D01*
X19094935Y1481388D01*
X19101693Y1550000D01*
X19101693Y3250000D01*
X19094935Y3318612D01*
X19074922Y3384587D01*
X19042422Y3445390D01*
X18998685Y3498685D01*
X18945390Y3542422D01*
X18884587Y3574922D01*
X18818612Y3594935D01*
X18750000Y3601693D01*
X17050000Y3601693D01*
X16981388Y3594935D01*
X16915413Y3574922D01*
X16854610Y3542422D01*
X16801315Y3498685D01*
X16757578Y3445390D01*
X16725078Y3384587D01*
X16705065Y3318612D01*
X16698307Y3250000D01*
X16214796Y3250000D01*
X16212634Y3252634D01*
X16029910Y3402591D01*
X15821442Y3514019D01*
X15595241Y3582637D01*
X15418950Y3600000D01*
X15301050Y3600000D01*
X15124759Y3582637D01*
X14898558Y3514019D01*
X14690090Y3402591D01*
X14507366Y3252634D01*
X14357409Y3069910D01*
X14245981Y2861442D01*
X14177363Y2635241D01*
X14154194Y2400000D01*
X8189257Y2400000D01*
X8103948Y2503948D01*
X7974518Y2610168D01*
X7826854Y2689097D01*
X7666628Y2737700D01*
X7500000Y2754112D01*
X7333371Y2737700D01*
X7173145Y2689097D01*
X7025481Y2610168D01*
X6896052Y2503948D01*
X6789832Y2374518D01*
X6710903Y2226854D01*
X6662300Y2066628D01*
X6650000Y1941748D01*
X6650000Y1921741D01*
X6645889Y1880000D01*
X-6751705Y1880000D01*
X-6728822Y1935243D01*
X-6700000Y2080141D01*
X-6700000Y2227879D01*
X-6728822Y2372777D01*
X-6785359Y2509268D01*
X-6867437Y2632107D01*
X-6900000Y2664670D01*
X-6900000Y2790563D01*
X11632573Y2790563D01*
X11686095Y2600000D01*
X12620000Y2600000D01*
X12620000Y3532475D01*
X13020000Y3532475D01*
X13020000Y2600000D01*
X13953905Y2600000D01*
X14007427Y2790563D01*
X13908416Y3014714D01*
X13767578Y3215242D01*
X13590325Y3384441D01*
X13383469Y3515808D01*
X13210562Y3587418D01*
X13020000Y3532475D01*
X12620000Y3532475D01*
X12429438Y3587418D01*
X12256531Y3515808D01*
X12049675Y3384441D01*
X11872422Y3215242D01*
X11731584Y3014714D01*
X11632573Y2790563D01*
X-6900000Y2790563D01*
X-6900000Y3928190D01*
X23600000Y3928190D01*
X23600000Y3691810D01*
X23646116Y3459973D01*
X23736574Y3241587D01*
X23867899Y3045045D01*
X24035045Y2877899D01*
X24231587Y2746574D01*
X24449973Y2656116D01*
X24681810Y2610000D01*
X24918190Y2610000D01*
X25150027Y2656116D01*
X25368413Y2746574D01*
X25564955Y2877899D01*
X25732101Y3045045D01*
X25863426Y3241587D01*
X25953884Y3459973D01*
X26000000Y3691810D01*
X26000000Y3928190D01*
X25953884Y4160027D01*
X25863426Y4378413D01*
X25732101Y4574955D01*
X25564955Y4742101D01*
X25368413Y4873426D01*
X25150027Y4963884D01*
X24918190Y5010000D01*
X24681810Y5010000D01*
X24449973Y4963884D01*
X24231587Y4873426D01*
X24035045Y4742101D01*
X23867899Y4574955D01*
X23736574Y4378413D01*
X23646116Y4160027D01*
X23600000Y3928190D01*
X-6900000Y3928190D01*
X-6900000Y7522993D01*
X-6897340Y7550001D01*
X-6900000Y7577009D01*
X-6900000Y7577018D01*
X-6907958Y7657819D01*
X-6939408Y7761494D01*
X-6963182Y7805972D01*
X-6990479Y7857043D01*
X-7041987Y7919805D01*
X-7041992Y7919810D01*
X-7059210Y7940790D01*
X-7080190Y7958008D01*
X-7236582Y8114400D01*
X13123907Y8114400D01*
X13123907Y6414400D01*
X13130665Y6345788D01*
X13150678Y6279813D01*
X13183178Y6219010D01*
X13226915Y6165715D01*
X13280210Y6121978D01*
X13341013Y6089478D01*
X13406988Y6069465D01*
X13475600Y6062707D01*
X15175600Y6062707D01*
X15244212Y6069465D01*
X15310187Y6089478D01*
X15370990Y6121978D01*
X15424285Y6165715D01*
X15468022Y6219010D01*
X15500522Y6279813D01*
X15520535Y6345788D01*
X15527293Y6414400D01*
X15527293Y6873837D01*
X15678173Y6873837D01*
X15777184Y6649686D01*
X15918022Y6449158D01*
X16095275Y6279959D01*
X16302131Y6148592D01*
X16475038Y6076982D01*
X16665600Y6131925D01*
X16665600Y7064400D01*
X17065600Y7064400D01*
X17065600Y6131925D01*
X17256162Y6076982D01*
X17429069Y6148592D01*
X17635925Y6279959D01*
X17813178Y6449158D01*
X17954016Y6649686D01*
X18053027Y6873837D01*
X17999505Y7064400D01*
X17065600Y7064400D01*
X16665600Y7064400D01*
X15731695Y7064400D01*
X15678173Y6873837D01*
X15527293Y6873837D01*
X15527293Y7654963D01*
X15678173Y7654963D01*
X15731695Y7464400D01*
X16665600Y7464400D01*
X16665600Y8396875D01*
X17065600Y8396875D01*
X17065600Y7464400D01*
X17999505Y7464400D01*
X18053027Y7654963D01*
X17954016Y7879114D01*
X17813178Y8079642D01*
X17635925Y8248841D01*
X17429069Y8380208D01*
X17256162Y8451818D01*
X17065600Y8396875D01*
X16665600Y8396875D01*
X16475038Y8451818D01*
X16302131Y8380208D01*
X16095275Y8248841D01*
X15918022Y8079642D01*
X15777184Y7879114D01*
X15678173Y7654963D01*
X15527293Y7654963D01*
X15527293Y8114400D01*
X15520535Y8183012D01*
X15500522Y8248987D01*
X15468022Y8309790D01*
X15424285Y8363085D01*
X15370990Y8406822D01*
X15310187Y8439322D01*
X15244212Y8459335D01*
X15175600Y8466093D01*
X13475600Y8466093D01*
X13406988Y8459335D01*
X13341013Y8439322D01*
X13280210Y8406822D01*
X13226915Y8363085D01*
X13183178Y8309790D01*
X13150678Y8248987D01*
X13130665Y8183012D01*
X13123907Y8114400D01*
X-7236582Y8114400D01*
X-8491984Y9369801D01*
X-8491988Y9369806D01*
X-8550000Y9427818D01*
X-8550000Y9473869D01*
X-8578822Y9618767D01*
X-8635359Y9755258D01*
X-8717437Y9878097D01*
X-8821903Y9982563D01*
X-8944742Y10064641D01*
X-9081233Y10121178D01*
X-9226131Y10150000D01*
X-9373869Y10150000D01*
X-9518767Y10121178D01*
X-9655258Y10064641D01*
X-9778097Y9982563D01*
X-9882563Y9878097D01*
X-9964641Y9755258D01*
X-10021178Y9618767D01*
X-10050000Y9473869D01*
X-24853389Y9473869D01*
X-24767708Y9705950D01*
X-24361678Y10683916D01*
X-23983523Y11500841D01*
X-23473544Y11500841D01*
X-23450375Y11265600D01*
X-23381757Y11039399D01*
X-23270329Y10830931D01*
X-23120372Y10648207D01*
X-22937648Y10498250D01*
X-22729180Y10386822D01*
X-22502979Y10318204D01*
X-22326688Y10300841D01*
X-22208788Y10300841D01*
X-22032497Y10318204D01*
X-21806296Y10386822D01*
X-21597828Y10498250D01*
X-21415104Y10648207D01*
X-21265147Y10830931D01*
X-21153719Y11039399D01*
X-21085101Y11265600D01*
X-21061932Y11500841D01*
X-20933544Y11500841D01*
X-20910375Y11265600D01*
X-20841757Y11039399D01*
X-20730329Y10830931D01*
X-20580372Y10648207D01*
X-20397648Y10498250D01*
X-20189180Y10386822D01*
X-19962979Y10318204D01*
X-19786688Y10300841D01*
X-19668788Y10300841D01*
X-19492497Y10318204D01*
X-19266296Y10386822D01*
X-19057828Y10498250D01*
X-18875104Y10648207D01*
X-18725147Y10830931D01*
X-18613719Y11039399D01*
X-18545101Y11265600D01*
X-18521932Y11500841D01*
X-18533572Y11619031D01*
X-18387738Y11619031D01*
X-18387738Y11382651D01*
X-18341622Y11150814D01*
X-18251164Y10932428D01*
X-18119839Y10735886D01*
X-17952693Y10568740D01*
X-17756151Y10437415D01*
X-17537765Y10346957D01*
X-17305928Y10300841D01*
X-17069548Y10300841D01*
X-16837711Y10346957D01*
X-16619325Y10437415D01*
X-16422783Y10568740D01*
X-16255637Y10735886D01*
X-16138633Y10910996D01*
X-14806161Y10910996D01*
X-14431633Y10501076D01*
X-13809456Y10181856D01*
X-13136958Y9990151D01*
X-12439981Y9933328D01*
X-11745311Y10013570D01*
X-11079644Y10227793D01*
X-10568367Y10501076D01*
X-10193839Y10910996D01*
X-12500000Y13217157D01*
X-14806161Y10910996D01*
X-16138633Y10910996D01*
X-16124312Y10932428D01*
X-16033854Y11150814D01*
X-15987738Y11382651D01*
X-15987738Y11619031D01*
X-16033854Y11850868D01*
X-16124312Y12069254D01*
X-16255637Y12265796D01*
X-16422783Y12432942D01*
X-16619325Y12564267D01*
X-16837711Y12654725D01*
X-17069548Y12700841D01*
X-17305928Y12700841D01*
X-17537765Y12654725D01*
X-17756151Y12564267D01*
X-17952693Y12432942D01*
X-18119839Y12265796D01*
X-18251164Y12069254D01*
X-18341622Y11850868D01*
X-18387738Y11619031D01*
X-18533572Y11619031D01*
X-18545101Y11736082D01*
X-18613719Y11962283D01*
X-18725147Y12170751D01*
X-18875104Y12353475D01*
X-19057828Y12503432D01*
X-19266296Y12614860D01*
X-19492497Y12683478D01*
X-19668788Y12700841D01*
X-19786688Y12700841D01*
X-19962979Y12683478D01*
X-20189180Y12614860D01*
X-20397648Y12503432D01*
X-20580372Y12353475D01*
X-20730329Y12170751D01*
X-20841757Y11962283D01*
X-20910375Y11736082D01*
X-20933544Y11500841D01*
X-21061932Y11500841D01*
X-21085101Y11736082D01*
X-21153719Y11962283D01*
X-21265147Y12170751D01*
X-21415104Y12353475D01*
X-21597828Y12503432D01*
X-21806296Y12614860D01*
X-22032497Y12683478D01*
X-22208788Y12700841D01*
X-22326688Y12700841D01*
X-22502979Y12683478D01*
X-22729180Y12614860D01*
X-22937648Y12503432D01*
X-23120372Y12353475D01*
X-23270329Y12170751D01*
X-23381757Y11962283D01*
X-23450375Y11736082D01*
X-23473544Y11500841D01*
X-23983523Y11500841D01*
X-23915058Y11648745D01*
X-23427815Y12599261D01*
X-22953149Y13439981D01*
X-16066672Y13439981D01*
X-15986430Y12745311D01*
X-15772207Y12079644D01*
X-15498924Y11568367D01*
X-15089004Y11193839D01*
X-12782843Y13500000D01*
X-12217157Y13500000D01*
X-9910996Y11193839D01*
X-9501076Y11568367D01*
X-9324395Y11912729D01*
X-6407500Y11912729D01*
X-6407500Y11570471D01*
X-6340729Y11234790D01*
X-6209753Y10918585D01*
X-6019604Y10634008D01*
X-5777592Y10391996D01*
X-5493015Y10201847D01*
X-5176810Y10070871D01*
X-4841129Y10004100D01*
X-4498871Y10004100D01*
X-4163190Y10070871D01*
X-3846985Y10201847D01*
X-3562408Y10391996D01*
X-3320396Y10634008D01*
X-3130247Y10918585D01*
X-2999271Y11234790D01*
X-2932500Y11570471D01*
X-2932500Y11912729D01*
X-1707500Y11912729D01*
X-1707500Y11570471D01*
X-1640729Y11234790D01*
X-1509753Y10918585D01*
X-1319604Y10634008D01*
X-1077592Y10391996D01*
X-793015Y10201847D01*
X-476810Y10070871D01*
X-141129Y10004100D01*
X201129Y10004100D01*
X536810Y10070871D01*
X853015Y10201847D01*
X1137592Y10391996D01*
X1379604Y10634008D01*
X1569753Y10918585D01*
X1700729Y11234790D01*
X1767500Y11570471D01*
X1767500Y11912729D01*
X2992500Y11912729D01*
X2992500Y11570471D01*
X3059271Y11234790D01*
X3190247Y10918585D01*
X3380396Y10634008D01*
X3622408Y10391996D01*
X3906985Y10201847D01*
X4223190Y10070871D01*
X4558871Y10004100D01*
X4901129Y10004100D01*
X5236810Y10070871D01*
X5553015Y10201847D01*
X5837592Y10391996D01*
X6079604Y10634008D01*
X6269753Y10918585D01*
X6281350Y10946583D01*
X10229426Y10946583D01*
X10597946Y10541787D01*
X11211612Y10227556D01*
X11874790Y10039084D01*
X12561994Y9983611D01*
X13246816Y10063272D01*
X13902939Y10275004D01*
X14402054Y10541787D01*
X14770574Y10946583D01*
X12500000Y13217157D01*
X10229426Y10946583D01*
X6281350Y10946583D01*
X6400729Y11234790D01*
X6467500Y11570471D01*
X6467500Y11912729D01*
X6400729Y12248410D01*
X6269753Y12564615D01*
X6079604Y12849192D01*
X5837592Y13091204D01*
X5553015Y13281353D01*
X5236810Y13412329D01*
X5107723Y13438006D01*
X8983611Y13438006D01*
X9063272Y12753184D01*
X9275004Y12097061D01*
X9541787Y11597946D01*
X9946583Y11229426D01*
X12217157Y13500000D01*
X12782843Y13500000D01*
X15053417Y11229426D01*
X15458213Y11597946D01*
X15772444Y12211612D01*
X15783592Y12250841D01*
X15930569Y12250841D01*
X15930569Y10550841D01*
X15937327Y10482229D01*
X15957340Y10416254D01*
X15989840Y10355451D01*
X16033577Y10302156D01*
X16086872Y10258419D01*
X16147675Y10225919D01*
X16213650Y10205906D01*
X16282262Y10199148D01*
X17982262Y10199148D01*
X18050874Y10205906D01*
X18116849Y10225919D01*
X18177652Y10258419D01*
X18230947Y10302156D01*
X18274684Y10355451D01*
X18307184Y10416254D01*
X18327197Y10482229D01*
X18333955Y10550841D01*
X18333955Y11400841D01*
X18466456Y11400841D01*
X18489625Y11165600D01*
X18558243Y10939399D01*
X18669671Y10730931D01*
X18819628Y10548207D01*
X19002352Y10398250D01*
X19210820Y10286822D01*
X19437021Y10218204D01*
X19613312Y10200841D01*
X19731212Y10200841D01*
X19907503Y10218204D01*
X20133704Y10286822D01*
X20342172Y10398250D01*
X20410465Y10454297D01*
X21548560Y10454297D01*
X21645198Y10280085D01*
X21874743Y10190991D01*
X22117259Y10148392D01*
X22363425Y10153923D01*
X22603783Y10207372D01*
X22779326Y10280085D01*
X22875964Y10454297D01*
X22212262Y11117998D01*
X21548560Y10454297D01*
X20410465Y10454297D01*
X20524896Y10548207D01*
X20674853Y10730931D01*
X20786281Y10939399D01*
X20854899Y11165600D01*
X20878068Y11400841D01*
X20868712Y11495844D01*
X20959813Y11495844D01*
X20965344Y11249678D01*
X21018793Y11009320D01*
X21091506Y10833777D01*
X21265718Y10737139D01*
X21929419Y11400841D01*
X22495105Y11400841D01*
X23158806Y10737139D01*
X23333018Y10833777D01*
X23422112Y11063322D01*
X23464711Y11305838D01*
X23459180Y11552004D01*
X23405731Y11792362D01*
X23333018Y11967905D01*
X23158806Y12064543D01*
X22495105Y11400841D01*
X21929419Y11400841D01*
X21265718Y12064543D01*
X21091506Y11967905D01*
X21002412Y11738360D01*
X20959813Y11495844D01*
X20868712Y11495844D01*
X20854899Y11636082D01*
X20786281Y11862283D01*
X20674853Y12070751D01*
X20524896Y12253475D01*
X20410466Y12347385D01*
X21548560Y12347385D01*
X22212262Y11683684D01*
X22875964Y12347385D01*
X22779326Y12521597D01*
X22549781Y12610691D01*
X22307265Y12653290D01*
X22061099Y12647759D01*
X21820741Y12594310D01*
X21645198Y12521597D01*
X21548560Y12347385D01*
X20410466Y12347385D01*
X20342172Y12403432D01*
X20133704Y12514860D01*
X19907503Y12583478D01*
X19731212Y12600841D01*
X19613312Y12600841D01*
X19437021Y12583478D01*
X19210820Y12514860D01*
X19002352Y12403432D01*
X18819628Y12253475D01*
X18669671Y12070751D01*
X18558243Y11862283D01*
X18489625Y11636082D01*
X18466456Y11400841D01*
X18333955Y11400841D01*
X18333955Y12250841D01*
X18327197Y12319453D01*
X18307184Y12385428D01*
X18274684Y12446231D01*
X18230947Y12499526D01*
X18177652Y12543263D01*
X18116849Y12575763D01*
X18050874Y12595776D01*
X17982262Y12602534D01*
X16282262Y12602534D01*
X16213650Y12595776D01*
X16147675Y12575763D01*
X16086872Y12543263D01*
X16033577Y12499526D01*
X15989840Y12446231D01*
X15957340Y12385428D01*
X15937327Y12319453D01*
X15930569Y12250841D01*
X15783592Y12250841D01*
X15960916Y12874790D01*
X16016389Y13561994D01*
X15936728Y14246816D01*
X15724996Y14902939D01*
X15458213Y15402054D01*
X15053417Y15770574D01*
X12782843Y13500000D01*
X12217157Y13500000D01*
X9946583Y15770574D01*
X9541787Y15402054D01*
X9227556Y14788388D01*
X9039084Y14125210D01*
X8983611Y13438006D01*
X5107723Y13438006D01*
X4901129Y13479100D01*
X4558871Y13479100D01*
X4223190Y13412329D01*
X3906985Y13281353D01*
X3622408Y13091204D01*
X3380396Y12849192D01*
X3190247Y12564615D01*
X3059271Y12248410D01*
X2992500Y11912729D01*
X1767500Y11912729D01*
X1700729Y12248410D01*
X1569753Y12564615D01*
X1379604Y12849192D01*
X1137592Y13091204D01*
X853015Y13281353D01*
X536810Y13412329D01*
X201129Y13479100D01*
X-141129Y13479100D01*
X-476810Y13412329D01*
X-793015Y13281353D01*
X-1077592Y13091204D01*
X-1319604Y12849192D01*
X-1509753Y12564615D01*
X-1640729Y12248410D01*
X-1707500Y11912729D01*
X-2932500Y11912729D01*
X-2999271Y12248410D01*
X-3130247Y12564615D01*
X-3320396Y12849192D01*
X-3562408Y13091204D01*
X-3846985Y13281353D01*
X-4163190Y13412329D01*
X-4498871Y13479100D01*
X-4841129Y13479100D01*
X-5176810Y13412329D01*
X-5493015Y13281353D01*
X-5777592Y13091204D01*
X-6019604Y12849192D01*
X-6209753Y12564615D01*
X-6340729Y12248410D01*
X-6407500Y11912729D01*
X-9324395Y11912729D01*
X-9181856Y12190544D01*
X-8990151Y12863042D01*
X-8933328Y13560019D01*
X-9013570Y14254689D01*
X-9227793Y14920356D01*
X-9501076Y15431633D01*
X-9910996Y15806161D01*
X-12217157Y13500000D01*
X-12782843Y13500000D01*
X-15089004Y15806161D01*
X-15498924Y15431633D01*
X-15818144Y14809456D01*
X-16009849Y14136958D01*
X-16066672Y13439981D01*
X-22953149Y13439981D01*
X-22899970Y13534169D01*
X-22331490Y14452275D01*
X-21871649Y15131751D01*
X-21789154Y15114692D01*
X-21782598Y15112891D01*
X-21769970Y15110725D01*
X-21757365Y15108118D01*
X-21750575Y15107397D01*
X-21598440Y15081298D01*
X-21591823Y15079720D01*
X-21579066Y15077975D01*
X-21566407Y15075803D01*
X-21559637Y15075317D01*
X-21407351Y15054482D01*
X-21400716Y15053135D01*
X-21387918Y15051823D01*
X-21375146Y15050076D01*
X-21368368Y15049820D01*
X-21216112Y15034216D01*
X-21209441Y15033094D01*
X-21196556Y15032211D01*
X-21183741Y15030898D01*
X-21176992Y15030871D01*
X-21024834Y15020448D01*
X-21018152Y15019555D01*
X-21005239Y15019106D01*
X-20992360Y15018224D01*
X-20985627Y15018425D01*
X-20833690Y15013144D01*
X-20827010Y15012478D01*
X-20814098Y15012463D01*
X-20801154Y15012013D01*
X-20794436Y15012440D01*
X-20642869Y15012262D01*
X-20636179Y15011821D01*
X-20623239Y15012239D01*
X-20610286Y15012224D01*
X-20603611Y15012874D01*
X-20452497Y15017757D01*
X-20445810Y15017540D01*
X-20432876Y15018391D01*
X-20419916Y15018810D01*
X-20413281Y15019681D01*
X-20262745Y15029587D01*
X-20256058Y15029593D01*
X-20243131Y15030878D01*
X-20230197Y15031729D01*
X-20223614Y15032818D01*
X-20073750Y15047713D01*
X-20067086Y15047941D01*
X-20054206Y15049656D01*
X-20041284Y15050940D01*
X-20034750Y15052246D01*
X-19885688Y15072089D01*
X-19879044Y15072538D01*
X-19866218Y15074682D01*
X-19853339Y15076396D01*
X-19846861Y15077916D01*
X-19698705Y15102676D01*
X-19692090Y15103344D01*
X-19679343Y15105912D01*
X-19666514Y15108056D01*
X-19660092Y15109790D01*
X-19512961Y15139431D01*
X-19506376Y15140318D01*
X-19493721Y15143308D01*
X-19480962Y15145878D01*
X-19474604Y15147824D01*
X-19328620Y15182311D01*
X-19322061Y15183416D01*
X-19309490Y15186830D01*
X-19296840Y15189818D01*
X-19290561Y15191970D01*
X-19145813Y15231276D01*
X-19139299Y15232597D01*
X-19126853Y15236424D01*
X-19114303Y15239832D01*
X-19108098Y15242191D01*
X-18964705Y15286284D01*
X-18958241Y15287820D01*
X-18945942Y15292053D01*
X-18933504Y15295878D01*
X-18927372Y15298445D01*
X-18785449Y15347296D01*
X-18779043Y15349045D01*
X-18766914Y15353676D01*
X-18754598Y15357915D01*
X-18748542Y15360690D01*
X-18608223Y15414263D01*
X-18601866Y15416228D01*
X-18589889Y15421263D01*
X-18577738Y15425902D01*
X-18571779Y15428876D01*
X-18433165Y15487146D01*
X-18426854Y15489329D01*
X-18415040Y15494765D01*
X-18403084Y15499791D01*
X-18397225Y15502962D01*
X-18260413Y15565914D01*
X-18254174Y15568308D01*
X-18242563Y15574127D01*
X-18230782Y15579548D01*
X-18225022Y15582918D01*
X-18090136Y15650520D01*
X-18083979Y15653122D01*
X-18072590Y15659314D01*
X-18060997Y15665124D01*
X-18055334Y15668696D01*
X-17922504Y15740915D01*
X-17916422Y15743729D01*
X-17905268Y15750286D01*
X-17893882Y15756477D01*
X-17888328Y15760246D01*
X-17757662Y15837065D01*
X-17751664Y15840088D01*
X-17740750Y15847008D01*
X-17729589Y15853569D01*
X-17724151Y15857531D01*
X-17595772Y15938923D01*
X-17589860Y15942156D01*
X-17579194Y15949432D01*
X-17568283Y15956350D01*
X-17562970Y15960501D01*
X-17436989Y16046447D01*
X-17431172Y16049889D01*
X-17420769Y16057513D01*
X-17410114Y16064782D01*
X-17404932Y16069119D01*
X-17377799Y16089004D01*
X-14806161Y16089004D01*
X-12500000Y13782843D01*
X-10229426Y16053417D01*
X10229426Y16053417D01*
X12500000Y13782843D01*
X14770574Y16053417D01*
X14402054Y16458213D01*
X13788388Y16772444D01*
X13125210Y16960916D01*
X12438006Y17016389D01*
X11753184Y16936728D01*
X11097061Y16724996D01*
X10597946Y16458213D01*
X10229426Y16053417D01*
X-10229426Y16053417D01*
X-10193839Y16089004D01*
X-10568367Y16498924D01*
X-11190544Y16818144D01*
X-11863042Y17009849D01*
X-12560019Y17066672D01*
X-13254689Y16986430D01*
X-13920356Y16772207D01*
X-14431633Y16498924D01*
X-14806161Y16089004D01*
X-17377799Y16089004D01*
X-17281474Y16159597D01*
X-17275760Y16163244D01*
X-17265629Y16171209D01*
X-17255245Y16178819D01*
X-17250201Y16183338D01*
X-17129371Y16278334D01*
X-17123779Y16282177D01*
X-17113961Y16290450D01*
X-17103835Y16298411D01*
X-17098923Y16303122D01*
X-16980875Y16402593D01*
X-16975395Y16406639D01*
X-16965864Y16415241D01*
X-16956039Y16423520D01*
X-16951283Y16428401D01*
X-16836120Y16532341D01*
X-16830763Y16536586D01*
X-16821537Y16545502D01*
X-16812022Y16554090D01*
X-16807425Y16559140D01*
X-16695275Y16667527D01*
X-16690065Y16671953D01*
X-16681157Y16681171D01*
X-16671939Y16690079D01*
X-16667512Y16695290D01*
X-16559126Y16807439D01*
X-16554076Y16812036D01*
X-16545488Y16821551D01*
X-16536572Y16830777D01*
X-16532327Y16836133D01*
X-16428387Y16951297D01*
X-16423506Y16956053D01*
X-16415227Y16965878D01*
X-16406625Y16975409D01*
X-16402580Y16980887D01*
X-16303101Y17098945D01*
X-16298399Y17103848D01*
X-16290452Y17113956D01*
X-16282163Y17123793D01*
X-16278315Y17129393D01*
X-16183317Y17250224D01*
X-16178803Y17255261D01*
X-16171207Y17265625D01*
X-16163230Y17275772D01*
X-16159576Y17281497D01*
X-16069108Y17404943D01*
X-16064768Y17410128D01*
X-16057494Y17420791D01*
X-16049874Y17431188D01*
X-16046435Y17437001D01*
X-15960487Y17562984D01*
X-15956336Y17568297D01*
X-15949417Y17579210D01*
X-15942142Y17589874D01*
X-15938909Y17595784D01*
X-15857510Y17724175D01*
X-15853553Y17729606D01*
X-15847002Y17740748D01*
X-15840073Y17751678D01*
X-15837045Y17757686D01*
X-15760230Y17888345D01*
X-15756464Y17893895D01*
X-15750277Y17905274D01*
X-15743715Y17916436D01*
X-15740900Y17922522D01*
X-15668682Y18055346D01*
X-15665109Y18061011D01*
X-15659295Y18072611D01*
X-15653108Y18083991D01*
X-15650506Y18090149D01*
X-15582905Y18225033D01*
X-15579531Y18230799D01*
X-15574106Y18242589D01*
X-15568293Y18254188D01*
X-15565900Y18260423D01*
X-15502948Y18397239D01*
X-15499778Y18403096D01*
X-15494748Y18415060D01*
X-15489314Y18426871D01*
X-15487133Y18433175D01*
X-15428856Y18571803D01*
X-15425886Y18577754D01*
X-15421257Y18589879D01*
X-15416213Y18601877D01*
X-15414244Y18608247D01*
X-15360671Y18748567D01*
X-15357902Y18754610D01*
X-15353670Y18766905D01*
X-15349030Y18779058D01*
X-15347278Y18785475D01*
X-15298431Y18927384D01*
X-15295863Y18933518D01*
X-15292038Y18945958D01*
X-15287806Y18958252D01*
X-15286270Y18964716D01*
X-15242176Y19108111D01*
X-15239817Y19114316D01*
X-15236409Y19126866D01*
X-15232582Y19139312D01*
X-15231261Y19145826D01*
X-15191954Y19290576D01*
X-15189802Y19296856D01*
X-15186813Y19309510D01*
X-15183401Y19322074D01*
X-15182296Y19328630D01*
X-15147809Y19474619D01*
X-15145864Y19480974D01*
X-15143294Y19493731D01*
X-15140303Y19506392D01*
X-15139417Y19512977D01*
X-15109776Y19660102D01*
X-15108041Y19666528D01*
X-15105896Y19679364D01*
X-15103330Y19692100D01*
X-15102662Y19698712D01*
X-15077901Y19846877D01*
X-15076381Y19853353D01*
X-15074667Y19866227D01*
X-15072523Y19879057D01*
X-15072074Y19885703D01*
X-15064954Y19939187D01*
X-7624570Y19939187D01*
X-7462381Y19709965D01*
X-7140670Y19566852D01*
X-6797221Y19489251D01*
X-6445232Y19480145D01*
X-6098230Y19539883D01*
X-5769550Y19666171D01*
X-5687619Y19709965D01*
X-5525430Y19939187D01*
X5585430Y19939187D01*
X5747619Y19709965D01*
X6069330Y19566852D01*
X6412779Y19489251D01*
X6764768Y19480145D01*
X7111770Y19539883D01*
X7440450Y19666171D01*
X7522381Y19709965D01*
X7684570Y19939187D01*
X6635000Y20988757D01*
X5585430Y19939187D01*
X-5525430Y19939187D01*
X-6575000Y20988757D01*
X-7624570Y19939187D01*
X-15064954Y19939187D01*
X-15052230Y20034766D01*
X-15050925Y20041298D01*
X-15049641Y20054216D01*
X-15047926Y20067099D01*
X-15047698Y20073764D01*
X-15032803Y20223628D01*
X-15031714Y20230211D01*
X-15030863Y20243145D01*
X-15029578Y20256072D01*
X-15029572Y20262759D01*
X-15019666Y20413293D01*
X-15018795Y20419929D01*
X-15018376Y20432891D01*
X-15017525Y20445824D01*
X-15017742Y20452510D01*
X-15012858Y20603627D01*
X-15012209Y20610302D01*
X-15012224Y20623250D01*
X-15011806Y20636192D01*
X-15012247Y20642884D01*
X-15012426Y20794453D01*
X-15011999Y20801169D01*
X-15012449Y20814111D01*
X-15012464Y20827028D01*
X-15013130Y20833709D01*
X-15018411Y20985642D01*
X-15018210Y20992372D01*
X-15019092Y21005249D01*
X-15019541Y21018167D01*
X-15020435Y21024850D01*
X-15028447Y21141832D01*
X-8366455Y21141832D01*
X-8306717Y20794830D01*
X-8180429Y20466150D01*
X-8136635Y20384219D01*
X-7907413Y20222030D01*
X-6857843Y21271600D01*
X-6292157Y21271600D01*
X-5242587Y20222030D01*
X-5013365Y20384219D01*
X-4870252Y20705930D01*
X-4792651Y21049379D01*
X-4790260Y21141832D01*
X4843545Y21141832D01*
X4903283Y20794830D01*
X5029571Y20466150D01*
X5073365Y20384219D01*
X5302587Y20222030D01*
X6352157Y21271600D01*
X6917843Y21271600D01*
X7967413Y20222030D01*
X8196635Y20384219D01*
X8339748Y20705930D01*
X8417349Y21049379D01*
X8426455Y21401368D01*
X8366717Y21748370D01*
X8240429Y22077050D01*
X8196635Y22158981D01*
X7967413Y22321170D01*
X6917843Y21271600D01*
X6352157Y21271600D01*
X5302587Y22321170D01*
X5073365Y22158981D01*
X4930252Y21837270D01*
X4852651Y21493821D01*
X4843545Y21141832D01*
X-4790260Y21141832D01*
X-4783545Y21401368D01*
X-4843283Y21748370D01*
X-4969571Y22077050D01*
X-5013365Y22158981D01*
X-5242587Y22321170D01*
X-6292157Y21271600D01*
X-6857843Y21271600D01*
X-7907413Y22321170D01*
X-8136635Y22158981D01*
X-8279748Y21837270D01*
X-8357349Y21493821D01*
X-8366455Y21141832D01*
X-15028447Y21141832D01*
X-15030856Y21177002D01*
X-15030883Y21183758D01*
X-15032197Y21196582D01*
X-15033079Y21209454D01*
X-15034200Y21216122D01*
X-15049806Y21368389D01*
X-15050062Y21375160D01*
X-15051808Y21387922D01*
X-15053121Y21400733D01*
X-15054469Y21407372D01*
X-15075303Y21559651D01*
X-15075789Y21566421D01*
X-15077961Y21579080D01*
X-15079706Y21591837D01*
X-15081284Y21598454D01*
X-15107383Y21750589D01*
X-15108104Y21757379D01*
X-15110711Y21769984D01*
X-15112877Y21782612D01*
X-15114678Y21789168D01*
X-15131737Y21871663D01*
X-14452236Y22331519D01*
X-14012151Y22604013D01*
X-7624570Y22604013D01*
X-6575000Y21554443D01*
X-5525430Y22604013D01*
X5585430Y22604013D01*
X6635000Y21554443D01*
X7684570Y22604013D01*
X7522381Y22833235D01*
X7200670Y22976348D01*
X6857221Y23053949D01*
X6505232Y23063055D01*
X6158230Y23003317D01*
X5829550Y22877029D01*
X5747619Y22833235D01*
X5585430Y22604013D01*
X-5525430Y22604013D01*
X-5687619Y22833235D01*
X-6009330Y22976348D01*
X-6352779Y23053949D01*
X-6704768Y23063055D01*
X-7051770Y23003317D01*
X-7380450Y22877029D01*
X-7462381Y22833235D01*
X-7624570Y22604013D01*
X-14012151Y22604013D01*
X-13534122Y22900001D01*
X-12599221Y23427840D01*
X-11648697Y23915084D01*
X-10683867Y24361701D01*
X-9705931Y24767716D01*
X-8716107Y25133140D01*
X-7715717Y25457947D01*
X-6705909Y25742169D01*
X-5688013Y25985782D01*
X-4663199Y26188803D01*
X-3632780Y26351216D01*
X-2597958Y26473030D01*
X-1560026Y26554240D01*
X-520237Y26594843D01*
X520244Y26594843D01*
X1560035Y26554239D01*
X1560035Y26554239D01*
G37*
X1560035Y26554239D02*
X2597967Y26473028D01*
X3632790Y26351213D01*
X4663209Y26188798D01*
X5688025Y25985776D01*
X6705962Y25742152D01*
X7715713Y25457945D01*
X8716172Y25133114D01*
X9705943Y24767707D01*
X10683901Y24361681D01*
X11648739Y23915058D01*
X12599244Y23427821D01*
X13534162Y22899971D01*
X14452260Y22331496D01*
X15131742Y21871651D01*
X15114686Y21789169D01*
X15112881Y21782599D01*
X15110710Y21769944D01*
X15108109Y21757366D01*
X15107390Y21750589D01*
X15081289Y21598442D01*
X15079711Y21591825D01*
X15077965Y21579065D01*
X15075794Y21566408D01*
X15075308Y21559640D01*
X15054474Y21407359D01*
X15053126Y21400720D01*
X15051813Y21387909D01*
X15050067Y21375147D01*
X15049811Y21368375D01*
X15034206Y21216114D01*
X15033084Y21209443D01*
X15032202Y21196560D01*
X15030888Y21183744D01*
X15030861Y21176994D01*
X15020439Y21024837D01*
X15019545Y21018154D01*
X15019096Y21005239D01*
X15018214Y20992361D01*
X15018415Y20985628D01*
X15013134Y20833696D01*
X15012468Y20827015D01*
X15012453Y20814098D01*
X15012003Y20801156D01*
X15012430Y20794440D01*
X15012251Y20642873D01*
X15011810Y20636181D01*
X15012228Y20623239D01*
X15012213Y20610290D01*
X15012862Y20603614D01*
X15017746Y20452498D01*
X15017529Y20445810D01*
X15018380Y20432875D01*
X15018799Y20419918D01*
X15019670Y20413283D01*
X15029577Y20262741D01*
X15029583Y20256062D01*
X15030867Y20243143D01*
X15031719Y20230196D01*
X15032808Y20223610D01*
X15047702Y20073745D01*
X15047930Y20067087D01*
X15049642Y20054224D01*
X15050928Y20041288D01*
X15052235Y20034745D01*
X15072080Y19885680D01*
X15072528Y19879043D01*
X15074668Y19866240D01*
X15076385Y19853340D01*
X15077908Y19846850D01*
X15102665Y19698714D01*
X15103334Y19692091D01*
X15105906Y19679326D01*
X15108047Y19666513D01*
X15109779Y19660100D01*
X15139420Y19512971D01*
X15140307Y19506379D01*
X15143301Y19493705D01*
X15145868Y19480963D01*
X15147811Y19474615D01*
X15182300Y19328615D01*
X15183405Y19322062D01*
X15186815Y19309504D01*
X15189806Y19296843D01*
X15191960Y19290558D01*
X15231265Y19145814D01*
X15232586Y19139300D01*
X15236413Y19126854D01*
X15239821Y19114304D01*
X15242180Y19108099D01*
X15286275Y18964700D01*
X15287810Y18958240D01*
X15292039Y18945953D01*
X15295867Y18933505D01*
X15298437Y18927367D01*
X15347283Y18785459D01*
X15349034Y18779046D01*
X15353671Y18766901D01*
X15357906Y18754597D01*
X15360677Y18748550D01*
X15414250Y18608230D01*
X15416217Y18601865D01*
X15421257Y18589876D01*
X15425890Y18577741D01*
X15428862Y18571786D01*
X15487136Y18433164D01*
X15489319Y18426855D01*
X15494755Y18415040D01*
X15499782Y18403083D01*
X15502952Y18397227D01*
X15565903Y18260417D01*
X15568297Y18254177D01*
X15574118Y18242562D01*
X15579538Y18230783D01*
X15582907Y18225025D01*
X15650505Y18090145D01*
X15653111Y18083979D01*
X15659306Y18072585D01*
X15665112Y18061000D01*
X15668681Y18055343D01*
X15740906Y17922502D01*
X15743719Y17916422D01*
X15750276Y17905269D01*
X15756467Y17893882D01*
X15760236Y17888327D01*
X15837053Y17757665D01*
X15840078Y17751663D01*
X15847001Y17740743D01*
X15853557Y17729592D01*
X15857517Y17724156D01*
X15938912Y17595774D01*
X15942146Y17589861D01*
X15949426Y17579190D01*
X15956341Y17568283D01*
X15960489Y17562974D01*
X16046439Y17436988D01*
X16049878Y17431175D01*
X16057498Y17420778D01*
X16064772Y17410115D01*
X16069112Y17404930D01*
X16159584Y17281478D01*
X16163234Y17275760D01*
X16171202Y17265625D01*
X16178807Y17255248D01*
X16183325Y17250206D01*
X16278319Y17129380D01*
X16282167Y17123779D01*
X16290454Y17113944D01*
X16298402Y17103835D01*
X16303106Y17098930D01*
X16402583Y16980875D01*
X16406629Y16975395D01*
X16415231Y16965864D01*
X16423510Y16956039D01*
X16428391Y16951283D01*
X16532331Y16836120D01*
X16536576Y16830763D01*
X16545492Y16821537D01*
X16554080Y16812022D01*
X16559130Y16807425D01*
X16667517Y16695275D01*
X16671943Y16690065D01*
X16681161Y16681157D01*
X16690069Y16671939D01*
X16695280Y16667512D01*
X16807429Y16559126D01*
X16812026Y16554076D01*
X16821541Y16545488D01*
X16830767Y16536572D01*
X16836123Y16532327D01*
X16951287Y16428387D01*
X16956043Y16423506D01*
X16965868Y16415227D01*
X16975399Y16406625D01*
X16980877Y16402580D01*
X17098934Y16303101D01*
X17103839Y16298398D01*
X17113948Y16290450D01*
X17123783Y16282163D01*
X17129384Y16278315D01*
X17250210Y16183321D01*
X17255252Y16178803D01*
X17265629Y16171198D01*
X17275764Y16163230D01*
X17281482Y16159580D01*
X17404934Y16069108D01*
X17410119Y16064768D01*
X17420782Y16057494D01*
X17431179Y16049874D01*
X17436992Y16046435D01*
X17562977Y15960486D01*
X17568287Y15956337D01*
X17579194Y15949422D01*
X17589865Y15942142D01*
X17595778Y15938908D01*
X17724160Y15857513D01*
X17729596Y15853553D01*
X17740747Y15846997D01*
X17751667Y15840074D01*
X17757670Y15837048D01*
X17888331Y15760232D01*
X17893886Y15756463D01*
X17905273Y15750272D01*
X17916426Y15743715D01*
X17922507Y15740902D01*
X18055347Y15668677D01*
X18061004Y15665108D01*
X18072589Y15659302D01*
X18083983Y15653107D01*
X18090149Y15650501D01*
X18225024Y15582906D01*
X18230788Y15579533D01*
X18242579Y15574107D01*
X18254181Y15568293D01*
X18260415Y15565901D01*
X18397236Y15502945D01*
X18403087Y15499778D01*
X18415033Y15494756D01*
X18426858Y15489315D01*
X18433171Y15487131D01*
X18571794Y15428856D01*
X18577745Y15425886D01*
X18589870Y15421257D01*
X18601868Y15416213D01*
X18608237Y15414244D01*
X18748558Y15360671D01*
X18754601Y15357902D01*
X18766896Y15353670D01*
X18779049Y15349030D01*
X18785466Y15347278D01*
X18927375Y15298431D01*
X18933509Y15295863D01*
X18945949Y15292038D01*
X18958243Y15287806D01*
X18964707Y15286270D01*
X19108102Y15242176D01*
X19114307Y15239817D01*
X19126857Y15236409D01*
X19139303Y15232582D01*
X19145817Y15231261D01*
X19290567Y15191954D01*
X19296847Y15189802D01*
X19309501Y15186813D01*
X19322065Y15183401D01*
X19328621Y15182296D01*
X19474619Y15147807D01*
X19480967Y15145864D01*
X19493710Y15143297D01*
X19506383Y15140303D01*
X19512975Y15139416D01*
X19660106Y15109774D01*
X19666517Y15108043D01*
X19679325Y15105902D01*
X19692094Y15103330D01*
X19698719Y15102661D01*
X19846856Y15077904D01*
X19853344Y15076381D01*
X19866240Y15074664D01*
X19879046Y15072524D01*
X19885684Y15072076D01*
X20034748Y15052231D01*
X20041291Y15050924D01*
X20054228Y15049638D01*
X20067090Y15047926D01*
X20073747Y15047698D01*
X20223617Y15032804D01*
X20230200Y15031715D01*
X20243142Y15030863D01*
X20256064Y15029579D01*
X20262745Y15029573D01*
X20413286Y15019666D01*
X20419921Y15018795D01*
X20432878Y15018376D01*
X20445813Y15017525D01*
X20452501Y15017742D01*
X20603619Y15012858D01*
X20610294Y15012209D01*
X20623242Y15012224D01*
X20636184Y15011806D01*
X20642876Y15012247D01*
X20794444Y15012426D01*
X20801160Y15011999D01*
X20814102Y15012449D01*
X20827019Y15012464D01*
X20833700Y15013130D01*
X20985632Y15018411D01*
X20992365Y15018210D01*
X21005243Y15019092D01*
X21018158Y15019541D01*
X21024841Y15020435D01*
X21176998Y15030857D01*
X21183748Y15030884D01*
X21196564Y15032198D01*
X21209447Y15033080D01*
X21216118Y15034202D01*
X21368379Y15049807D01*
X21375151Y15050063D01*
X21387913Y15051809D01*
X21400724Y15053122D01*
X21407363Y15054470D01*
X21559644Y15075304D01*
X21566412Y15075790D01*
X21579069Y15077961D01*
X21591829Y15079707D01*
X21598446Y15081285D01*
X21750593Y15107386D01*
X21757370Y15108105D01*
X21769948Y15110706D01*
X21782603Y15112877D01*
X21789173Y15114682D01*
X21871655Y15131738D01*
X22331517Y14452231D01*
X22899988Y13534134D01*
X23427840Y12599212D01*
X23915075Y11648707D01*
X24361697Y10683869D01*
X24767721Y9705912D01*
X25133135Y8716118D01*
X25457945Y7715719D01*
X25742168Y6705912D01*
X25985780Y5688022D01*
X26188803Y4663201D01*
X26351218Y3632783D01*
X26473033Y2597961D01*
X26554241Y1560056D01*
X26594848Y520215D01*
X26594847Y-520241D01*
X26554244Y-1560030D01*
X26473034Y-2597962D01*
X26351220Y-3632784D01*
X26188807Y-4663203D01*
X25985786Y-5688017D01*
X25742173Y-6705913D01*
X25457951Y-7715721D01*
X25133144Y-8716111D01*
X24767720Y-9705935D01*
X24361705Y-10683871D01*
X23915088Y-11648701D01*
X23427844Y-12599225D01*
X22900005Y-13534126D01*
X22331523Y-14452240D01*
X21871667Y-15131741D01*
X21789185Y-15114685D01*
X21782615Y-15112880D01*
X21769960Y-15110709D01*
X21757382Y-15108108D01*
X21750605Y-15107389D01*
X21598458Y-15081288D01*
X21591841Y-15079710D01*
X21579081Y-15077964D01*
X21566424Y-15075793D01*
X21559656Y-15075307D01*
X21407378Y-15054473D01*
X21400737Y-15053125D01*
X21387922Y-15051812D01*
X21375163Y-15050066D01*
X21368393Y-15049810D01*
X21216128Y-15034204D01*
X21209458Y-15033083D01*
X21196583Y-15032201D01*
X21183761Y-15030887D01*
X21177006Y-15030860D01*
X21024854Y-15020439D01*
X21018171Y-15019545D01*
X21005253Y-15019096D01*
X20992376Y-15018214D01*
X20985646Y-15018415D01*
X20833713Y-15013134D01*
X20827032Y-15012468D01*
X20814115Y-15012453D01*
X20801173Y-15012003D01*
X20794457Y-15012430D01*
X20642888Y-15012251D01*
X20636196Y-15011810D01*
X20623254Y-15012228D01*
X20610306Y-15012213D01*
X20603631Y-15012862D01*
X20452514Y-15017746D01*
X20445828Y-15017529D01*
X20432895Y-15018380D01*
X20419933Y-15018799D01*
X20413297Y-15019670D01*
X20262763Y-15029576D01*
X20256076Y-15029582D01*
X20243149Y-15030867D01*
X20230215Y-15031718D01*
X20223632Y-15032807D01*
X20073768Y-15047702D01*
X20067103Y-15047930D01*
X20054220Y-15049645D01*
X20041302Y-15050929D01*
X20034770Y-15052234D01*
X19885707Y-15072078D01*
X19879061Y-15072527D01*
X19866231Y-15074671D01*
X19853357Y-15076385D01*
X19846881Y-15077905D01*
X19698716Y-15102666D01*
X19692104Y-15103334D01*
X19679368Y-15105900D01*
X19666532Y-15108045D01*
X19660106Y-15109780D01*
X19512981Y-15139421D01*
X19506396Y-15140307D01*
X19493735Y-15143298D01*
X19480978Y-15145868D01*
X19474623Y-15147813D01*
X19328634Y-15182300D01*
X19322078Y-15183405D01*
X19309514Y-15186817D01*
X19296860Y-15189806D01*
X19290580Y-15191958D01*
X19145830Y-15231265D01*
X19139316Y-15232586D01*
X19126870Y-15236413D01*
X19114320Y-15239821D01*
X19108115Y-15242180D01*
X18964720Y-15286274D01*
X18958256Y-15287810D01*
X18945962Y-15292042D01*
X18933522Y-15295867D01*
X18927388Y-15298435D01*
X18785479Y-15347282D01*
X18779062Y-15349034D01*
X18766909Y-15353674D01*
X18754614Y-15357906D01*
X18748571Y-15360675D01*
X18608251Y-15414248D01*
X18601881Y-15416217D01*
X18589883Y-15421261D01*
X18577758Y-15425890D01*
X18571807Y-15428860D01*
X18433179Y-15487137D01*
X18426875Y-15489318D01*
X18415064Y-15494752D01*
X18403100Y-15499782D01*
X18397243Y-15502952D01*
X18260427Y-15565904D01*
X18254192Y-15568297D01*
X18242593Y-15574110D01*
X18230803Y-15579535D01*
X18225037Y-15582909D01*
X18090153Y-15650510D01*
X18083995Y-15653112D01*
X18072615Y-15659299D01*
X18061015Y-15665113D01*
X18055350Y-15668686D01*
X17922526Y-15740904D01*
X17916440Y-15743719D01*
X17905278Y-15750281D01*
X17893899Y-15756468D01*
X17888349Y-15760234D01*
X17757690Y-15837049D01*
X17751682Y-15840077D01*
X17740752Y-15847006D01*
X17729610Y-15853557D01*
X17724179Y-15857514D01*
X17595788Y-15938913D01*
X17589878Y-15942146D01*
X17579214Y-15949421D01*
X17568301Y-15956340D01*
X17562988Y-15960491D01*
X17437005Y-16046439D01*
X17431192Y-16049878D01*
X17420796Y-16057497D01*
X17410132Y-16064772D01*
X17404947Y-16069112D01*
X17281501Y-16159580D01*
X17275776Y-16163234D01*
X17265629Y-16171211D01*
X17255265Y-16178807D01*
X17250228Y-16183321D01*
X17129397Y-16278319D01*
X17123797Y-16282167D01*
X17113960Y-16290456D01*
X17103852Y-16298403D01*
X17098949Y-16303105D01*
X16980891Y-16402584D01*
X16975413Y-16406629D01*
X16965882Y-16415231D01*
X16956057Y-16423510D01*
X16951301Y-16428391D01*
X16836137Y-16532331D01*
X16830781Y-16536576D01*
X16821555Y-16545492D01*
X16812040Y-16554080D01*
X16807443Y-16559130D01*
X16695294Y-16667516D01*
X16690083Y-16671943D01*
X16681175Y-16681161D01*
X16671957Y-16690069D01*
X16667531Y-16695279D01*
X16559144Y-16807429D01*
X16554094Y-16812026D01*
X16545506Y-16821541D01*
X16536590Y-16830767D01*
X16532345Y-16836124D01*
X16428405Y-16951287D01*
X16423524Y-16956043D01*
X16415245Y-16965868D01*
X16406643Y-16975399D01*
X16402597Y-16980879D01*
X16303126Y-17098927D01*
X16298415Y-17103839D01*
X16290454Y-17113965D01*
X16282181Y-17123783D01*
X16278338Y-17129375D01*
X16183342Y-17250205D01*
X16178823Y-17255249D01*
X16171213Y-17265633D01*
X16163248Y-17275764D01*
X16159601Y-17281478D01*
X16069123Y-17404936D01*
X16064786Y-17410118D01*
X16057517Y-17420773D01*
X16049893Y-17431176D01*
X16046451Y-17436993D01*
X15960505Y-17562974D01*
X15956354Y-17568287D01*
X15949436Y-17579198D01*
X15942160Y-17589864D01*
X15938927Y-17595776D01*
X15857535Y-17724155D01*
X15853573Y-17729593D01*
X15847012Y-17740754D01*
X15840092Y-17751668D01*
X15837069Y-17757666D01*
X15760250Y-17888332D01*
X15756481Y-17893886D01*
X15750290Y-17905272D01*
X15743733Y-17916426D01*
X15740919Y-17922508D01*
X15668700Y-18055338D01*
X15665128Y-18061001D01*
X15659314Y-18072601D01*
X15653126Y-18083983D01*
X15650524Y-18090140D01*
X15582922Y-18225026D01*
X15579552Y-18230786D01*
X15574131Y-18242567D01*
X15568312Y-18254178D01*
X15565918Y-18260417D01*
X15502966Y-18397229D01*
X15499795Y-18403088D01*
X15494769Y-18415044D01*
X15489333Y-18426858D01*
X15487150Y-18433169D01*
X15428880Y-18571783D01*
X15425906Y-18577742D01*
X15421267Y-18589893D01*
X15416232Y-18601870D01*
X15414267Y-18608227D01*
X15360694Y-18748546D01*
X15357919Y-18754602D01*
X15353680Y-18766918D01*
X15349049Y-18779047D01*
X15347300Y-18785453D01*
X15298449Y-18927376D01*
X15295882Y-18933508D01*
X15292057Y-18945946D01*
X15287824Y-18958245D01*
X15286288Y-18964709D01*
X15242195Y-19108102D01*
X15239836Y-19114307D01*
X15236428Y-19126857D01*
X15232601Y-19139303D01*
X15231280Y-19145817D01*
X15191974Y-19290565D01*
X15189822Y-19296844D01*
X15186834Y-19309494D01*
X15183420Y-19322065D01*
X15182315Y-19328624D01*
X15147828Y-19474608D01*
X15145882Y-19480966D01*
X15143312Y-19493725D01*
X15140322Y-19506380D01*
X15139435Y-19512965D01*
X15109794Y-19660096D01*
X15108060Y-19666518D01*
X15105916Y-19679347D01*
X15103348Y-19692094D01*
X15102680Y-19698709D01*
X15077920Y-19846865D01*
X15076400Y-19853343D01*
X15074686Y-19866222D01*
X15072542Y-19879048D01*
X15072093Y-19885692D01*
X15052250Y-20034754D01*
X15050944Y-20041288D01*
X15049660Y-20054210D01*
X15047945Y-20067090D01*
X15047717Y-20073754D01*
X15032822Y-20223618D01*
X15031733Y-20230201D01*
X15030882Y-20243135D01*
X15029597Y-20256062D01*
X15029591Y-20262749D01*
X15019685Y-20413285D01*
X15018814Y-20419920D01*
X15018395Y-20432880D01*
X15017544Y-20445814D01*
X15017761Y-20452501D01*
X15012878Y-20603614D01*
X15012228Y-20610289D01*
X15012243Y-20623243D01*
X15011825Y-20636183D01*
X15012266Y-20642873D01*
X15012444Y-20794440D01*
X15012017Y-20801158D01*
X15012467Y-20814102D01*
X15012482Y-20827014D01*
X15013148Y-20833694D01*
X15018429Y-20985630D01*
X15018228Y-20992363D01*
X15019110Y-21005241D01*
X15019559Y-21018156D01*
X15020453Y-21024839D01*
X15030875Y-21176996D01*
X15030902Y-21183744D01*
X15032215Y-21196558D01*
X15033098Y-21209445D01*
X15034220Y-21216117D01*
X15049824Y-21368372D01*
X15050080Y-21375149D01*
X15051827Y-21387919D01*
X15053139Y-21400720D01*
X15054486Y-21407357D01*
X15075321Y-21559642D01*
X15075807Y-21566410D01*
X15077978Y-21579067D01*
X15079724Y-21591827D01*
X15081302Y-21598444D01*
X15107403Y-21750591D01*
X15108122Y-21757368D01*
X15110723Y-21769946D01*
X15112894Y-21782601D01*
X15114699Y-21789171D01*
X15131755Y-21871653D01*
X14452279Y-22331494D01*
X13534173Y-22899974D01*
X12599265Y-23427819D01*
X11648749Y-23915062D01*
X10683920Y-24361682D01*
X9705954Y-24767712D01*
X8716160Y-25133126D01*
X7715721Y-25457950D01*
X6705946Y-25742164D01*
X5688037Y-25985781D01*
X4663225Y-26188802D01*
X3632796Y-26351219D01*
X2597970Y-26473035D01*
X1560040Y-26554244D01*
X520248Y-26594848D01*
X-520234Y-26594848D01*
X-1560024Y-26554245D01*
X-2597955Y-26473036D01*
X-3632777Y-26351221D01*
X-4663203Y-26188805D01*
X-5688014Y-25985785D01*
X-6705909Y-25742172D01*
X-7715717Y-25457949D01*
X-8716109Y-25133141D01*
X-9705911Y-24767725D01*
X-10683870Y-24361701D01*
X-11648689Y-23915089D01*
X-12599205Y-23427849D01*
X-13534127Y-22899998D01*
X-13770859Y-22753417D01*
X-2270574Y-22753417D01*
X-1902054Y-23158213D01*
X-1288388Y-23472444D01*
X-625210Y-23660916D01*
X61994Y-23716389D01*
X746816Y-23636728D01*
X1402939Y-23424996D01*
X1570052Y-23335672D01*
X3796841Y-23335672D01*
X3796841Y-23572052D01*
X3842957Y-23803889D01*
X3933415Y-24022275D01*
X4064740Y-24218817D01*
X4231886Y-24385963D01*
X4428428Y-24517288D01*
X4646814Y-24607746D01*
X4878651Y-24653862D01*
X5115031Y-24653862D01*
X5346868Y-24607746D01*
X5565254Y-24517288D01*
X5761796Y-24385963D01*
X5928942Y-24218817D01*
X6060267Y-24022275D01*
X6150725Y-23803889D01*
X6196841Y-23572052D01*
X6196841Y-23335672D01*
X6150725Y-23103835D01*
X6060267Y-22885449D01*
X5928942Y-22688907D01*
X5761796Y-22521761D01*
X5565254Y-22390436D01*
X5346868Y-22299978D01*
X5115031Y-22253862D01*
X4878651Y-22253862D01*
X4646814Y-22299978D01*
X4428428Y-22390436D01*
X4231886Y-22521761D01*
X4064740Y-22688907D01*
X3933415Y-22885449D01*
X3842957Y-23103835D01*
X3796841Y-23335672D01*
X1570052Y-23335672D01*
X1902054Y-23158213D01*
X2270574Y-22753417D01*
X0Y-20482843D01*
X-2270574Y-22753417D01*
X-13770859Y-22753417D01*
X-14452234Y-22331521D01*
X-15131742Y-21871659D01*
X-15114683Y-21789164D01*
X-15112882Y-21782608D01*
X-15110716Y-21769980D01*
X-15108109Y-21757375D01*
X-15107388Y-21750585D01*
X-15081289Y-21598450D01*
X-15079711Y-21591833D01*
X-15077966Y-21579076D01*
X-15075794Y-21566417D01*
X-15075308Y-21559647D01*
X-15054474Y-21407365D01*
X-15053126Y-21400728D01*
X-15051813Y-21387921D01*
X-15050067Y-21375156D01*
X-15049811Y-21368383D01*
X-15034205Y-21216121D01*
X-15033084Y-21209451D01*
X-15032202Y-21196571D01*
X-15030888Y-21183753D01*
X-15030861Y-21177002D01*
X-15020438Y-21024844D01*
X-15019545Y-21018162D01*
X-15019096Y-21005249D01*
X-15018214Y-20992370D01*
X-15018415Y-20985637D01*
X-15013134Y-20833704D01*
X-15012468Y-20827023D01*
X-15012453Y-20814106D01*
X-15012003Y-20801164D01*
X-15012430Y-20794448D01*
X-15012251Y-20642880D01*
X-15011810Y-20636188D01*
X-15012228Y-20623246D01*
X-15012213Y-20610298D01*
X-15012862Y-20603623D01*
X-15017746Y-20452505D01*
X-15017529Y-20445817D01*
X-15018380Y-20432882D01*
X-15018799Y-20419925D01*
X-15019670Y-20413290D01*
X-15029577Y-20262749D01*
X-15029577Y-20261994D01*
X-3516389Y-20261994D01*
X-3436728Y-20946816D01*
X-3224996Y-21602939D01*
X-2958213Y-22102054D01*
X-2553417Y-22470574D01*
X-282843Y-20200000D01*
X282843Y-20200000D01*
X2553417Y-22470574D01*
X2958213Y-22102054D01*
X3272444Y-21488388D01*
X3435721Y-20913862D01*
X3791035Y-20913862D01*
X3814204Y-21149103D01*
X3882822Y-21375304D01*
X3994250Y-21583772D01*
X4144207Y-21766496D01*
X4326931Y-21916453D01*
X4535399Y-22027881D01*
X4761600Y-22096499D01*
X4937891Y-22113862D01*
X5055791Y-22113862D01*
X5232082Y-22096499D01*
X5458283Y-22027881D01*
X5666751Y-21916453D01*
X5849475Y-21766496D01*
X5999432Y-21583772D01*
X6110860Y-21375304D01*
X6179478Y-21149103D01*
X6202647Y-20913862D01*
X6179478Y-20678621D01*
X6110860Y-20452420D01*
X5999432Y-20243952D01*
X5849475Y-20061228D01*
X5666751Y-19911271D01*
X5458283Y-19799843D01*
X5232082Y-19731225D01*
X5055791Y-19713862D01*
X4937891Y-19713862D01*
X4761600Y-19731225D01*
X4535399Y-19799843D01*
X4326931Y-19911271D01*
X4144207Y-20061228D01*
X3994250Y-20243952D01*
X3882822Y-20452420D01*
X3814204Y-20678621D01*
X3791035Y-20913862D01*
X3435721Y-20913862D01*
X3460916Y-20825210D01*
X3516389Y-20138006D01*
X3436728Y-19453184D01*
X3224996Y-18797061D01*
X2998792Y-18373862D01*
X3791035Y-18373862D01*
X3814204Y-18609103D01*
X3882822Y-18835304D01*
X3994250Y-19043772D01*
X4144207Y-19226496D01*
X4326931Y-19376453D01*
X4535399Y-19487881D01*
X4761600Y-19556499D01*
X4937891Y-19573862D01*
X5055791Y-19573862D01*
X5232082Y-19556499D01*
X5458283Y-19487881D01*
X5666751Y-19376453D01*
X5849475Y-19226496D01*
X5999432Y-19043772D01*
X6110860Y-18835304D01*
X6179478Y-18609103D01*
X6202647Y-18373862D01*
X6179478Y-18138621D01*
X6110860Y-17912420D01*
X5999432Y-17703952D01*
X5849475Y-17521228D01*
X5666751Y-17371271D01*
X5458283Y-17259843D01*
X5232082Y-17191225D01*
X5055791Y-17173862D01*
X4937891Y-17173862D01*
X4761600Y-17191225D01*
X4535399Y-17259843D01*
X4326931Y-17371271D01*
X4144207Y-17521228D01*
X3994250Y-17703952D01*
X3882822Y-17912420D01*
X3814204Y-18138621D01*
X3791035Y-18373862D01*
X2998792Y-18373862D01*
X2958213Y-18297946D01*
X2553417Y-17929426D01*
X282843Y-20200000D01*
X-282843Y-20200000D01*
X-2553417Y-17929426D01*
X-2958213Y-18297946D01*
X-3272444Y-18911612D01*
X-3460916Y-19574790D01*
X-3516389Y-20261994D01*
X-15029577Y-20261994D01*
X-15029583Y-20256068D01*
X-15030867Y-20243146D01*
X-15031719Y-20230204D01*
X-15032808Y-20223621D01*
X-15047702Y-20073751D01*
X-15047930Y-20067094D01*
X-15049642Y-20054232D01*
X-15050928Y-20041295D01*
X-15052235Y-20034752D01*
X-15072080Y-19885688D01*
X-15072528Y-19879050D01*
X-15074668Y-19866244D01*
X-15076385Y-19853348D01*
X-15077908Y-19846860D01*
X-15102665Y-19698723D01*
X-15103334Y-19692098D01*
X-15105906Y-19679329D01*
X-15108047Y-19666521D01*
X-15109778Y-19660110D01*
X-15139420Y-19512979D01*
X-15140307Y-19506387D01*
X-15143301Y-19493714D01*
X-15145868Y-19480971D01*
X-15147811Y-19474623D01*
X-15182300Y-19328625D01*
X-15183405Y-19322069D01*
X-15186817Y-19309505D01*
X-15189806Y-19296851D01*
X-15191958Y-19290571D01*
X-15231265Y-19145821D01*
X-15232586Y-19139307D01*
X-15236413Y-19126861D01*
X-15239821Y-19114311D01*
X-15242180Y-19108106D01*
X-15286274Y-18964711D01*
X-15287810Y-18958247D01*
X-15292042Y-18945953D01*
X-15295867Y-18933513D01*
X-15298435Y-18927379D01*
X-15347282Y-18785470D01*
X-15349034Y-18779053D01*
X-15353674Y-18766900D01*
X-15357906Y-18754605D01*
X-15360675Y-18748562D01*
X-15414248Y-18608241D01*
X-15416217Y-18601872D01*
X-15421261Y-18589874D01*
X-15425890Y-18577749D01*
X-15428860Y-18571798D01*
X-15487135Y-18433175D01*
X-15489319Y-18426862D01*
X-15494760Y-18415037D01*
X-15499782Y-18403091D01*
X-15502949Y-18397240D01*
X-15565905Y-18260419D01*
X-15568297Y-18254185D01*
X-15574111Y-18242583D01*
X-15579537Y-18230792D01*
X-15582910Y-18225028D01*
X-15650505Y-18090153D01*
X-15653111Y-18083987D01*
X-15659306Y-18072593D01*
X-15665112Y-18061008D01*
X-15668681Y-18055351D01*
X-15740906Y-17922511D01*
X-15743719Y-17916430D01*
X-15750276Y-17905277D01*
X-15756467Y-17893890D01*
X-15760236Y-17888335D01*
X-15837052Y-17757674D01*
X-15840078Y-17751671D01*
X-15847001Y-17740751D01*
X-15853557Y-17729600D01*
X-15857517Y-17724164D01*
X-15906703Y-17646583D01*
X-2270574Y-17646583D01*
X0Y-19917157D01*
X2270574Y-17646583D01*
X1902054Y-17241787D01*
X1288388Y-16927556D01*
X625210Y-16739084D01*
X-61994Y-16683611D01*
X-746816Y-16763272D01*
X-1402939Y-16975004D01*
X-1902054Y-17241787D01*
X-2270574Y-17646583D01*
X-15906703Y-17646583D01*
X-15938912Y-17595782D01*
X-15942146Y-17589869D01*
X-15949426Y-17579198D01*
X-15956341Y-17568291D01*
X-15960490Y-17562981D01*
X-16046439Y-17436996D01*
X-16049878Y-17431183D01*
X-16057498Y-17420786D01*
X-16064772Y-17410123D01*
X-16069112Y-17404938D01*
X-16159584Y-17281486D01*
X-16163234Y-17275768D01*
X-16171202Y-17265633D01*
X-16178807Y-17255256D01*
X-16183325Y-17250214D01*
X-16278319Y-17129388D01*
X-16282167Y-17123787D01*
X-16290454Y-17113952D01*
X-16298402Y-17103843D01*
X-16303105Y-17098938D01*
X-16402584Y-16980881D01*
X-16406629Y-16975403D01*
X-16415231Y-16965872D01*
X-16423510Y-16956047D01*
X-16428391Y-16951291D01*
X-16532331Y-16836127D01*
X-16536576Y-16830771D01*
X-16545492Y-16821545D01*
X-16554080Y-16812030D01*
X-16559130Y-16807433D01*
X-16667516Y-16695284D01*
X-16671943Y-16690073D01*
X-16681161Y-16681165D01*
X-16690069Y-16671947D01*
X-16695279Y-16667521D01*
X-16807429Y-16559134D01*
X-16812026Y-16554084D01*
X-16821541Y-16545496D01*
X-16830767Y-16536580D01*
X-16836124Y-16532335D01*
X-16951287Y-16428395D01*
X-16956043Y-16423514D01*
X-16965868Y-16415235D01*
X-16975399Y-16406633D01*
X-16980879Y-16402587D01*
X-17098934Y-16303110D01*
X-17103839Y-16298406D01*
X-17113948Y-16290458D01*
X-17123783Y-16282171D01*
X-17129384Y-16278323D01*
X-17250210Y-16183329D01*
X-17255252Y-16178811D01*
X-17265629Y-16171206D01*
X-17275764Y-16163238D01*
X-17281482Y-16159588D01*
X-17404934Y-16069116D01*
X-17410119Y-16064776D01*
X-17420782Y-16057502D01*
X-17431179Y-16049882D01*
X-17436992Y-16046443D01*
X-17562978Y-15960493D01*
X-17568287Y-15956345D01*
X-17579194Y-15949430D01*
X-17589865Y-15942150D01*
X-17595778Y-15938916D01*
X-17724160Y-15857521D01*
X-17729596Y-15853561D01*
X-17740747Y-15847005D01*
X-17751667Y-15840082D01*
X-17757669Y-15837057D01*
X-17888331Y-15760240D01*
X-17893886Y-15756471D01*
X-17905273Y-15750280D01*
X-17916426Y-15743723D01*
X-17922506Y-15740910D01*
X-18055347Y-15668685D01*
X-18061004Y-15665116D01*
X-18072589Y-15659310D01*
X-18083983Y-15653115D01*
X-18090149Y-15650509D01*
X-18225029Y-15582911D01*
X-18230787Y-15579542D01*
X-18242566Y-15574122D01*
X-18254181Y-15568301D01*
X-18260421Y-15565907D01*
X-18397231Y-15502956D01*
X-18403087Y-15499786D01*
X-18415044Y-15494759D01*
X-18426859Y-15489323D01*
X-18433168Y-15487140D01*
X-18571790Y-15428866D01*
X-18577745Y-15425894D01*
X-18589880Y-15421261D01*
X-18601869Y-15416221D01*
X-18608234Y-15414254D01*
X-18748554Y-15360681D01*
X-18754601Y-15357910D01*
X-18766905Y-15353675D01*
X-18779050Y-15349038D01*
X-18785463Y-15347287D01*
X-18927371Y-15298441D01*
X-18933509Y-15295871D01*
X-18945957Y-15292043D01*
X-18958244Y-15287814D01*
X-18964704Y-15286279D01*
X-19108103Y-15242184D01*
X-19114308Y-15239825D01*
X-19126858Y-15236417D01*
X-19139304Y-15232590D01*
X-19145818Y-15231269D01*
X-19290562Y-15191964D01*
X-19296847Y-15189810D01*
X-19309508Y-15186819D01*
X-19322066Y-15183409D01*
X-19328619Y-15182304D01*
X-19474619Y-15147815D01*
X-19480967Y-15145872D01*
X-19493709Y-15143305D01*
X-19506383Y-15140311D01*
X-19512975Y-15139424D01*
X-19660104Y-15109783D01*
X-19666517Y-15108051D01*
X-19679330Y-15105910D01*
X-19692095Y-15103338D01*
X-19698718Y-15102669D01*
X-19846854Y-15077912D01*
X-19853344Y-15076389D01*
X-19866244Y-15074672D01*
X-19879047Y-15072532D01*
X-19885684Y-15072084D01*
X-20034749Y-15052239D01*
X-20041292Y-15050932D01*
X-20054228Y-15049646D01*
X-20067091Y-15047934D01*
X-20073749Y-15047706D01*
X-20223614Y-15032812D01*
X-20230200Y-15031723D01*
X-20243147Y-15030871D01*
X-20256066Y-15029587D01*
X-20262745Y-15029581D01*
X-20413287Y-15019674D01*
X-20419922Y-15018803D01*
X-20432879Y-15018384D01*
X-20445814Y-15017533D01*
X-20452502Y-15017750D01*
X-20603618Y-15012866D01*
X-20610294Y-15012217D01*
X-20623243Y-15012232D01*
X-20636185Y-15011814D01*
X-20642877Y-15012255D01*
X-20794444Y-15012434D01*
X-20801160Y-15012007D01*
X-20814102Y-15012457D01*
X-20827019Y-15012472D01*
X-20833700Y-15013138D01*
X-20985633Y-15018419D01*
X-20992366Y-15018218D01*
X-21005245Y-15019100D01*
X-21018158Y-15019549D01*
X-21024840Y-15020442D01*
X-21176998Y-15030865D01*
X-21183749Y-15030892D01*
X-21196567Y-15032206D01*
X-21209447Y-15033088D01*
X-21216117Y-15034209D01*
X-21368379Y-15049815D01*
X-21375152Y-15050071D01*
X-21387917Y-15051817D01*
X-21400724Y-15053130D01*
X-21407361Y-15054478D01*
X-21559643Y-15075312D01*
X-21566413Y-15075798D01*
X-21579072Y-15077970D01*
X-21591829Y-15079715D01*
X-21598446Y-15081293D01*
X-21750581Y-15107392D01*
X-21757371Y-15108113D01*
X-21769976Y-15110720D01*
X-21782604Y-15112886D01*
X-21789160Y-15114687D01*
X-21871654Y-15131746D01*
X-22331500Y-14452263D01*
X-22899975Y-13534165D01*
X-23427820Y-12599256D01*
X-23915057Y-11648751D01*
X-24361685Y-10683901D01*
X-24767711Y-9705943D01*
X-24859200Y-9458126D01*
X-21948400Y-9458126D01*
X-21948400Y-10049074D01*
X-21833112Y-10628668D01*
X-21606966Y-11174633D01*
X-21278652Y-11665989D01*
X-20860789Y-12083852D01*
X-20369433Y-12412166D01*
X-19823468Y-12638312D01*
X-19243874Y-12753600D01*
X-18652926Y-12753600D01*
X-18073332Y-12638312D01*
X-17527367Y-12412166D01*
X-17036011Y-12083852D01*
X-16618148Y-11665989D01*
X-16289834Y-11174633D01*
X-16063688Y-10628668D01*
X-15948400Y-10049074D01*
X-15948400Y-9458126D01*
X-15988802Y-9255010D01*
X-4199102Y-9255010D01*
X-4182690Y-9421639D01*
X-4134087Y-9581865D01*
X-4055158Y-9729529D01*
X-3948938Y-9858958D01*
X-3819509Y-9965178D01*
X-3671845Y-10044107D01*
X-3511619Y-10092710D01*
X-3386739Y-10105010D01*
X3201537Y-10105010D01*
X3243371Y-10117700D01*
X3409999Y-10134111D01*
X3576628Y-10117700D01*
X3736854Y-10069097D01*
X3884518Y-9990167D01*
X4013948Y-9883948D01*
X4120167Y-9754518D01*
X4199097Y-9606854D01*
X4219520Y-9539526D01*
X4242142Y-9554641D01*
X4378633Y-9611178D01*
X4523531Y-9640000D01*
X4671269Y-9640000D01*
X4816167Y-9611178D01*
X4952658Y-9554641D01*
X5075497Y-9472563D01*
X5179963Y-9368097D01*
X5262041Y-9245258D01*
X5318578Y-9108767D01*
X5347400Y-8963869D01*
X5347400Y-8816131D01*
X5318578Y-8671233D01*
X5262041Y-8534742D01*
X5179963Y-8411903D01*
X5075497Y-8307437D01*
X4952658Y-8225359D01*
X4816167Y-8168822D01*
X4671269Y-8140000D01*
X4554506Y-8140000D01*
X4514506Y-8100000D01*
X20000000Y-8100000D01*
X20000000Y-8339396D01*
X20015372Y-8416675D01*
X20045524Y-8489471D01*
X20089299Y-8554985D01*
X20145014Y-8610700D01*
X20210529Y-8654475D01*
X20283324Y-8684628D01*
X20360603Y-8700000D01*
X20600000Y-8700000D01*
X20700000Y-8600000D01*
X20700000Y-8000000D01*
X21100000Y-8000000D01*
X21100000Y-8600000D01*
X21200000Y-8700000D01*
X21439397Y-8700000D01*
X21516676Y-8684628D01*
X21589471Y-8654475D01*
X21654986Y-8610700D01*
X21710701Y-8554985D01*
X21754476Y-8489471D01*
X21784628Y-8416675D01*
X21800000Y-8339396D01*
X21800000Y-8100000D01*
X21700000Y-8000000D01*
X21100000Y-8000000D01*
X20700000Y-8000000D01*
X20100000Y-8000000D01*
X20000000Y-8100000D01*
X4514506Y-8100000D01*
X4005200Y-7590695D01*
X4005200Y-7000000D01*
X4745901Y-7000000D01*
X4762312Y-7166629D01*
X4810915Y-7326854D01*
X4889845Y-7474518D01*
X4996064Y-7603948D01*
X5125494Y-7710167D01*
X5273158Y-7789097D01*
X5433383Y-7837700D01*
X5600012Y-7854111D01*
X5766641Y-7837700D01*
X5926866Y-7789097D01*
X6074530Y-7710167D01*
X6171531Y-7630561D01*
X6541488Y-7260604D01*
X20000000Y-7260604D01*
X20000000Y-7500000D01*
X20100000Y-7600000D01*
X20700000Y-7600000D01*
X20700000Y-7000000D01*
X21100000Y-7000000D01*
X21100000Y-7600000D01*
X21700000Y-7600000D01*
X21800000Y-7500000D01*
X21800000Y-7260604D01*
X21784628Y-7183325D01*
X21754476Y-7110529D01*
X21710701Y-7045015D01*
X21654986Y-6989300D01*
X21589471Y-6945525D01*
X21516676Y-6915372D01*
X21439397Y-6900000D01*
X21200000Y-6900000D01*
X21100000Y-7000000D01*
X20700000Y-7000000D01*
X20600000Y-6900000D01*
X20360603Y-6900000D01*
X20283324Y-6915372D01*
X20210529Y-6945525D01*
X20145014Y-6989300D01*
X20089299Y-7045015D01*
X20045524Y-7110529D01*
X20015372Y-7183325D01*
X20000000Y-7260604D01*
X6541488Y-7260604D01*
X8121164Y-5680930D01*
X8153586Y-5654322D01*
X8180195Y-5621899D01*
X8180200Y-5621894D01*
X8259806Y-5524893D01*
X8288846Y-5470562D01*
X19712582Y-5470562D01*
X19784192Y-5643469D01*
X19915559Y-5850325D01*
X20084758Y-6027578D01*
X20285286Y-6168416D01*
X20509437Y-6267427D01*
X20700000Y-6213905D01*
X20700000Y-5280000D01*
X21100000Y-5280000D01*
X21100000Y-6213905D01*
X21290563Y-6267427D01*
X21514714Y-6168416D01*
X21715242Y-6027578D01*
X21884441Y-5850325D01*
X22015808Y-5643469D01*
X22087418Y-5470562D01*
X22032475Y-5280000D01*
X21100000Y-5280000D01*
X20700000Y-5280000D01*
X19767525Y-5280000D01*
X19712582Y-5470562D01*
X8288846Y-5470562D01*
X8338735Y-5377229D01*
X8387338Y-5217003D01*
X8387338Y-5217002D01*
X8399638Y-5092123D01*
X8399638Y-5092115D01*
X8403749Y-5050374D01*
X8399638Y-5008633D01*
X8399638Y-4724004D01*
X8396234Y-4689438D01*
X19712582Y-4689438D01*
X19767525Y-4880000D01*
X20700000Y-4880000D01*
X20700000Y-3946095D01*
X21100000Y-3946095D01*
X21100000Y-4880000D01*
X22032475Y-4880000D01*
X22087418Y-4689438D01*
X22015808Y-4516531D01*
X21884441Y-4309675D01*
X21715242Y-4132422D01*
X21514714Y-3991584D01*
X21290563Y-3892573D01*
X21100000Y-3946095D01*
X20700000Y-3946095D01*
X20509437Y-3892573D01*
X20285286Y-3991584D01*
X20084758Y-4132422D01*
X19915559Y-4309675D01*
X19784192Y-4516531D01*
X19712582Y-4689438D01*
X8396234Y-4689438D01*
X8387338Y-4599124D01*
X8338735Y-4438897D01*
X8259806Y-4291233D01*
X8153586Y-4161804D01*
X8024157Y-4055584D01*
X7876493Y-3976655D01*
X7716267Y-3928052D01*
X7549638Y-3911640D01*
X7383010Y-3928052D01*
X7222784Y-3976655D01*
X7075120Y-4055584D01*
X6945690Y-4161804D01*
X6839470Y-4291233D01*
X6760541Y-4438897D01*
X6711938Y-4599123D01*
X6702447Y-4695483D01*
X4969451Y-6428481D01*
X4889845Y-6525482D01*
X4810915Y-6673146D01*
X4762312Y-6833371D01*
X4745901Y-7000000D01*
X4005200Y-7000000D01*
X4005200Y-5007705D01*
X6455507Y-2557400D01*
X7846740Y-2557400D01*
X7929303Y-2639963D01*
X8052142Y-2722041D01*
X8188633Y-2778578D01*
X8333531Y-2807400D01*
X8481269Y-2807400D01*
X8626167Y-2778578D01*
X8762658Y-2722041D01*
X8885497Y-2639963D01*
X8989963Y-2535497D01*
X9072041Y-2412658D01*
X9128578Y-2276167D01*
X9157400Y-2131269D01*
X9157400Y-1983531D01*
X9128578Y-1838633D01*
X9072041Y-1702142D01*
X8989963Y-1579303D01*
X8885497Y-1474837D01*
X8762658Y-1392759D01*
X8626167Y-1336222D01*
X8481269Y-1307400D01*
X8333531Y-1307400D01*
X8188633Y-1336222D01*
X8052142Y-1392759D01*
X7929303Y-1474837D01*
X7846740Y-1557400D01*
X6272960Y-1557400D01*
X6248400Y-1554981D01*
X6223840Y-1557400D01*
X6150383Y-1564635D01*
X6056133Y-1593225D01*
X5969271Y-1639654D01*
X5893136Y-1702136D01*
X5877480Y-1721213D01*
X3169024Y-4429671D01*
X3149936Y-4445336D01*
X3087454Y-4521471D01*
X3041025Y-4608334D01*
X3024554Y-4662634D01*
X3012435Y-4702583D01*
X3002781Y-4800600D01*
X3005200Y-4825160D01*
X3005201Y-7773230D01*
X3002781Y-7797800D01*
X3012435Y-7895817D01*
X3030729Y-7956123D01*
X3041026Y-7990067D01*
X3087455Y-8076929D01*
X3149937Y-8153064D01*
X3169019Y-8168724D01*
X3402962Y-8402667D01*
X3385010Y-8400899D01*
X3343269Y-8405010D01*
X-3386739Y-8405010D01*
X-3511619Y-8417310D01*
X-3671845Y-8465913D01*
X-3819509Y-8544842D01*
X-3948938Y-8651062D01*
X-4055158Y-8780491D01*
X-4134087Y-8928155D01*
X-4182690Y-9088381D01*
X-4199102Y-9255010D01*
X-15988802Y-9255010D01*
X-16063688Y-8878532D01*
X-16289834Y-8332567D01*
X-16618148Y-7841211D01*
X-17036011Y-7423348D01*
X-17527367Y-7095034D01*
X-18073332Y-6868888D01*
X-18652926Y-6753600D01*
X-19243874Y-6753600D01*
X-19823468Y-6868888D01*
X-20369433Y-7095034D01*
X-20860789Y-7423348D01*
X-21278652Y-7841211D01*
X-21606966Y-8332567D01*
X-21833112Y-8878532D01*
X-21948400Y-9458126D01*
X-24859200Y-9458126D01*
X-25133125Y-8716149D01*
X-25457949Y-7715710D01*
X-25742157Y-6705954D01*
X-25985783Y-5688003D01*
X-26188800Y-4663210D01*
X-26323283Y-3810000D01*
X-26005806Y-3810000D01*
X-25982637Y-4045241D01*
X-25914019Y-4271442D01*
X-25802591Y-4479910D01*
X-25652634Y-4662634D01*
X-25469910Y-4812591D01*
X-25261442Y-4924019D01*
X-25035241Y-4992637D01*
X-24858950Y-5010000D01*
X-24741050Y-5010000D01*
X-24564759Y-4992637D01*
X-24338558Y-4924019D01*
X-24130090Y-4812591D01*
X-23947366Y-4662634D01*
X-23797409Y-4479910D01*
X-23685981Y-4271442D01*
X-23617363Y-4045241D01*
X-23594194Y-3810000D01*
X-23617363Y-3574759D01*
X-23622052Y-3559299D01*
X-9170000Y-3559299D01*
X-9170000Y-4120701D01*
X-9060476Y-4671314D01*
X-8845637Y-5189981D01*
X-8533740Y-5656769D01*
X-8136769Y-6053740D01*
X-7669981Y-6365637D01*
X-7151314Y-6580476D01*
X-6600701Y-6690000D01*
X-6039299Y-6690000D01*
X-5488686Y-6580476D01*
X-4970019Y-6365637D01*
X-4503231Y-6053740D01*
X-4106260Y-5656769D01*
X-3794363Y-5189981D01*
X-3579524Y-4671314D01*
X-3470000Y-4120701D01*
X-3470000Y-3559299D01*
X-3579524Y-3008686D01*
X-3794363Y-2490019D01*
X-4106260Y-2023231D01*
X-4503231Y-1626260D01*
X-4970019Y-1314363D01*
X-5488686Y-1099524D01*
X-6039299Y-990000D01*
X-6600701Y-990000D01*
X-7151314Y-1099524D01*
X-7669981Y-1314363D01*
X-8136769Y-1626260D01*
X-8533740Y-2023231D01*
X-8845637Y-2490019D01*
X-9060476Y-3008686D01*
X-9170000Y-3559299D01*
X-23622052Y-3559299D01*
X-23685981Y-3348558D01*
X-23797409Y-3140090D01*
X-23947366Y-2957366D01*
X-24130090Y-2807409D01*
X-24338558Y-2695981D01*
X-24564759Y-2627363D01*
X-24741050Y-2610000D01*
X-24858950Y-2610000D01*
X-25035241Y-2627363D01*
X-25261442Y-2695981D01*
X-25469910Y-2807409D01*
X-25652634Y-2957366D01*
X-25802591Y-3140090D01*
X-25914019Y-3348558D01*
X-25982637Y-3574759D01*
X-26005806Y-3810000D01*
X-26323283Y-3810000D01*
X-26351216Y-3632784D01*
X-26473032Y-2597959D01*
X-26554241Y-1560029D01*
X-26565566Y-1270000D01*
X-26005806Y-1270000D01*
X-25982637Y-1505241D01*
X-25914019Y-1731442D01*
X-25802591Y-1939910D01*
X-25652634Y-2122634D01*
X-25469910Y-2272591D01*
X-25261442Y-2384019D01*
X-25035241Y-2452637D01*
X-24858950Y-2470000D01*
X-24741050Y-2470000D01*
X-24564759Y-2452637D01*
X-24338558Y-2384019D01*
X-24130090Y-2272591D01*
X-23947366Y-2122634D01*
X-23797409Y-1939910D01*
X-23685981Y-1731442D01*
X-23617363Y-1505241D01*
X-23594194Y-1270000D01*
X-23617363Y-1034759D01*
X-23685981Y-808558D01*
X-23797409Y-600090D01*
X-23947366Y-417366D01*
X-24130090Y-267409D01*
X-24338558Y-155981D01*
X-24564759Y-87363D01*
X-24741050Y-70000D01*
X-24858950Y-70000D01*
X-25035241Y-87363D01*
X-25261442Y-155981D01*
X-25469910Y-267409D01*
X-25652634Y-417366D01*
X-25802591Y-600090D01*
X-25914019Y-808558D01*
X-25982637Y-1034759D01*
X-26005806Y-1270000D01*
X-26565566Y-1270000D01*
X-26594844Y-520237D01*
X-26594844Y520244D01*
X-26580818Y879438D01*
X-25987418Y879438D01*
X-25915808Y706531D01*
X-25784441Y499675D01*
X-25615242Y322422D01*
X-25414714Y181584D01*
X-25190563Y82573D01*
X-25000000Y136095D01*
X-25000000Y1070000D01*
X-24600000Y1070000D01*
X-24600000Y136095D01*
X-24409437Y82573D01*
X-24185286Y181584D01*
X-23984758Y322422D01*
X-23815559Y499675D01*
X-23684192Y706531D01*
X-23612582Y879438D01*
X-23667525Y1070000D01*
X-24600000Y1070000D01*
X-25000000Y1070000D01*
X-25932475Y1070000D01*
X-25987418Y879438D01*
X-26580818Y879438D01*
X-26554240Y1560036D01*
X-26546375Y1660562D01*
X-25987418Y1660562D01*
X-25932475Y1470000D01*
X-25000000Y1470000D01*
X-25000000Y2403905D01*
X-24600000Y2403905D01*
X-24600000Y1470000D01*
X-23667525Y1470000D01*
X-23612582Y1660562D01*
X-23684192Y1833469D01*
X-23815559Y2040325D01*
X-23984758Y2217578D01*
X-24185286Y2358416D01*
X-24409437Y2457427D01*
X-24600000Y2403905D01*
X-25000000Y2403905D01*
X-25190563Y2457427D01*
X-25414714Y2358416D01*
X-25615242Y2217578D01*
X-25784441Y2040325D01*
X-25915808Y1833469D01*
X-25987418Y1660562D01*
X-26546375Y1660562D01*
X-26473031Y2597966D01*
X-26351215Y3632792D01*
X-26304655Y3928190D01*
X-26000000Y3928190D01*
X-26000000Y3691810D01*
X-25953884Y3459973D01*
X-25863426Y3241587D01*
X-25732101Y3045045D01*
X-25564955Y2877899D01*
X-25368413Y2746574D01*
X-25150027Y2656116D01*
X-24918190Y2610000D01*
X-24681810Y2610000D01*
X-24449973Y2656116D01*
X-24231587Y2746574D01*
X-24035045Y2877899D01*
X-23867899Y3045045D01*
X-23736574Y3241587D01*
X-23646116Y3459973D01*
X-23600000Y3691810D01*
X-23600000Y3928190D01*
X-23646116Y4160027D01*
X-23736574Y4378413D01*
X-23867899Y4574955D01*
X-24035045Y4742101D01*
X-24231587Y4873426D01*
X-24449973Y4963884D01*
X-24681810Y5010000D01*
X-24918190Y5010000D01*
X-25150027Y4963884D01*
X-25368413Y4873426D01*
X-25564955Y4742101D01*
X-25732101Y4574955D01*
X-25863426Y4378413D01*
X-25953884Y4160027D01*
X-26000000Y3928190D01*
X-26304655Y3928190D01*
X-26188798Y4663221D01*
X-25985777Y5688033D01*
X-25742160Y6705942D01*
X-25457946Y7715717D01*
X-25133122Y8716156D01*
X-24853389Y9473869D01*
X-10050000Y9473869D01*
X-10050000Y9326131D01*
X-10021178Y9181233D01*
X-9964641Y9044742D01*
X-9882563Y8921903D01*
X-9778097Y8817437D01*
X-9655258Y8735359D01*
X-9518767Y8678822D01*
X-9373869Y8650000D01*
X-9327818Y8650000D01*
X-9269806Y8591988D01*
X-9269801Y8591984D01*
X-7999999Y7322181D01*
X-8000000Y2664670D01*
X-8032563Y2632107D01*
X-8114641Y2509268D01*
X-8171178Y2372777D01*
X-8200000Y2227879D01*
X-8200000Y2080141D01*
X-8171178Y1935243D01*
X-8114641Y1798752D01*
X-8032563Y1675913D01*
X-7928097Y1571447D01*
X-7805258Y1489369D01*
X-7668767Y1432832D01*
X-7523869Y1404010D01*
X-7376131Y1404010D01*
X-7231233Y1432832D01*
X-7094742Y1489369D01*
X-6971903Y1571447D01*
X-6867437Y1675913D01*
X-6785359Y1798752D01*
X-6751705Y1880000D01*
X6645889Y1880000D01*
X6650000Y1838259D01*
X6650000Y1838251D01*
X6662300Y1713371D01*
X6710903Y1553145D01*
X6789832Y1405481D01*
X6896052Y1276052D01*
X6928485Y1249435D01*
X9339443Y-1161525D01*
X9366052Y-1193948D01*
X9398475Y-1220557D01*
X9398479Y-1220561D01*
X9458721Y-1270000D01*
X9495481Y-1300168D01*
X9643145Y-1379097D01*
X9803371Y-1427700D01*
X9928251Y-1440000D01*
X9928261Y-1440000D01*
X9969999Y-1444111D01*
X10011737Y-1440000D01*
X11837920Y-1440000D01*
X14828479Y-4430560D01*
X14925480Y-4510166D01*
X15073144Y-4589096D01*
X15233369Y-4637699D01*
X15399998Y-4654110D01*
X15441729Y-4650000D01*
X15573869Y-4650000D01*
X15718767Y-4621178D01*
X15855258Y-4564641D01*
X15978097Y-4482563D01*
X15999998Y-4460662D01*
X16021903Y-4482567D01*
X16144742Y-4564645D01*
X16281233Y-4621182D01*
X16426131Y-4650004D01*
X16573869Y-4650004D01*
X16718767Y-4621182D01*
X16855258Y-4564645D01*
X16978097Y-4482567D01*
X17082563Y-4378101D01*
X17164641Y-4255262D01*
X17221178Y-4118771D01*
X17250000Y-3973873D01*
X17250000Y-3826135D01*
X17221178Y-3681237D01*
X17164641Y-3544746D01*
X17082563Y-3421907D01*
X17000000Y-3339344D01*
X17000000Y-2824560D01*
X17002419Y-2800000D01*
X16992765Y-2701983D01*
X16990944Y-2695981D01*
X16964175Y-2607733D01*
X16927971Y-2540000D01*
X19694194Y-2540000D01*
X19717363Y-2775241D01*
X19785981Y-3001442D01*
X19897409Y-3209910D01*
X20047366Y-3392634D01*
X20230090Y-3542591D01*
X20438558Y-3654019D01*
X20664759Y-3722637D01*
X20841050Y-3740000D01*
X20958950Y-3740000D01*
X21135241Y-3722637D01*
X21236862Y-3691810D01*
X23600000Y-3691810D01*
X23600000Y-3928190D01*
X23646116Y-4160027D01*
X23736574Y-4378413D01*
X23867899Y-4574955D01*
X24035045Y-4742101D01*
X24231587Y-4873426D01*
X24449973Y-4963884D01*
X24681810Y-5010000D01*
X24918190Y-5010000D01*
X25150027Y-4963884D01*
X25368413Y-4873426D01*
X25564955Y-4742101D01*
X25732101Y-4574955D01*
X25863426Y-4378413D01*
X25953884Y-4160027D01*
X26000000Y-3928190D01*
X26000000Y-3691810D01*
X25953884Y-3459973D01*
X25863426Y-3241587D01*
X25732101Y-3045045D01*
X25564955Y-2877899D01*
X25368413Y-2746574D01*
X25150027Y-2656116D01*
X24918190Y-2610000D01*
X24681810Y-2610000D01*
X24449973Y-2656116D01*
X24231587Y-2746574D01*
X24035045Y-2877899D01*
X23867899Y-3045045D01*
X23736574Y-3241587D01*
X23646116Y-3459973D01*
X23600000Y-3691810D01*
X21236862Y-3691810D01*
X21361442Y-3654019D01*
X21569910Y-3542591D01*
X21752634Y-3392634D01*
X21902591Y-3209910D01*
X22014019Y-3001442D01*
X22082637Y-2775241D01*
X22105806Y-2540000D01*
X22082637Y-2304759D01*
X22014019Y-2078558D01*
X21902591Y-1870090D01*
X21752634Y-1687366D01*
X21569910Y-1537409D01*
X21361442Y-1425981D01*
X21135241Y-1357363D01*
X20958950Y-1340000D01*
X20841050Y-1340000D01*
X20664759Y-1357363D01*
X20438558Y-1425981D01*
X20230090Y-1537409D01*
X20047366Y-1687366D01*
X19897409Y-1870090D01*
X19785981Y-2078558D01*
X19717363Y-2304759D01*
X19694194Y-2540000D01*
X16927971Y-2540000D01*
X16917746Y-2520871D01*
X16855264Y-2444736D01*
X16836187Y-2429080D01*
X15677106Y-1270000D01*
X23594194Y-1270000D01*
X23617363Y-1505241D01*
X23685981Y-1731442D01*
X23797409Y-1939910D01*
X23947366Y-2122634D01*
X24130090Y-2272591D01*
X24338558Y-2384019D01*
X24564759Y-2452637D01*
X24741050Y-2470000D01*
X24858950Y-2470000D01*
X25035241Y-2452637D01*
X25261442Y-2384019D01*
X25469910Y-2272591D01*
X25652634Y-2122634D01*
X25802591Y-1939910D01*
X25914019Y-1731442D01*
X25982637Y-1505241D01*
X26005806Y-1270000D01*
X25982637Y-1034759D01*
X25914019Y-808558D01*
X25802591Y-600090D01*
X25652634Y-417366D01*
X25469910Y-267409D01*
X25261442Y-155981D01*
X25035241Y-87363D01*
X24858950Y-70000D01*
X24741050Y-70000D01*
X24564759Y-87363D01*
X24338558Y-155981D01*
X24130090Y-267409D01*
X23947366Y-417366D01*
X23797409Y-600090D01*
X23685981Y-808558D01*
X23617363Y-1034759D01*
X23594194Y-1270000D01*
X15677106Y-1270000D01*
X15670922Y-1263817D01*
X15670918Y-1263812D01*
X15650000Y-1242894D01*
X15650000Y-1126131D01*
X15621178Y-981233D01*
X15564641Y-844742D01*
X15482563Y-721903D01*
X15378097Y-617437D01*
X15255258Y-535359D01*
X15118767Y-478822D01*
X14973869Y-450000D01*
X14826131Y-450000D01*
X14681233Y-478822D01*
X14544742Y-535359D01*
X14421903Y-617437D01*
X14317437Y-721903D01*
X14235359Y-844742D01*
X14178822Y-981233D01*
X14150000Y-1126131D01*
X14150000Y-1273869D01*
X14168387Y-1366307D01*
X12820566Y-18486D01*
X12793948Y13948D01*
X12664519Y120168D01*
X12516855Y199097D01*
X12356629Y247700D01*
X12231749Y260000D01*
X12231741Y260000D01*
X12190000Y264111D01*
X12148259Y260000D01*
X10322082Y260000D01*
X9732082Y850000D01*
X19698307Y850000D01*
X19698307Y-850000D01*
X19705065Y-918612D01*
X19725078Y-984587D01*
X19757578Y-1045390D01*
X19801315Y-1098685D01*
X19854610Y-1142422D01*
X19915413Y-1174922D01*
X19981388Y-1194935D01*
X20050000Y-1201693D01*
X21750000Y-1201693D01*
X21818612Y-1194935D01*
X21884587Y-1174922D01*
X21945390Y-1142422D01*
X21998685Y-1098685D01*
X22042422Y-1045390D01*
X22074922Y-984587D01*
X22094935Y-918612D01*
X22101693Y-850000D01*
X22101693Y850000D01*
X22094935Y918612D01*
X22074922Y984587D01*
X22042422Y1045390D01*
X21998685Y1098685D01*
X21945390Y1142422D01*
X21884587Y1174922D01*
X21818612Y1194935D01*
X21750000Y1201693D01*
X20050000Y1201693D01*
X19981388Y1194935D01*
X19915413Y1174922D01*
X19854610Y1142422D01*
X19801315Y1098685D01*
X19757578Y1045390D01*
X19725078Y984587D01*
X19705065Y918612D01*
X19698307Y850000D01*
X9732082Y850000D01*
X8572645Y2009437D01*
X11632573Y2009437D01*
X11731584Y1785286D01*
X11872422Y1584758D01*
X12049675Y1415559D01*
X12256531Y1284192D01*
X12429438Y1212582D01*
X12620000Y1267525D01*
X12620000Y2200000D01*
X13020000Y2200000D01*
X13020000Y1267525D01*
X13210562Y1212582D01*
X13383469Y1284192D01*
X13590325Y1415559D01*
X13767578Y1584758D01*
X13908416Y1785286D01*
X14007427Y2009437D01*
X13953905Y2200000D01*
X13020000Y2200000D01*
X12620000Y2200000D01*
X11686095Y2200000D01*
X11632573Y2009437D01*
X8572645Y2009437D01*
X8213162Y2368919D01*
X8210168Y2374519D01*
X8189257Y2400000D01*
X14154194Y2400000D01*
X14177363Y2164759D01*
X14245981Y1938558D01*
X14357409Y1730090D01*
X14507366Y1547366D01*
X14690090Y1397409D01*
X14898558Y1285981D01*
X15124759Y1217363D01*
X15301050Y1200000D01*
X15418950Y1200000D01*
X15595241Y1217363D01*
X15821442Y1285981D01*
X16029910Y1397409D01*
X16212634Y1547366D01*
X16362591Y1730090D01*
X16474019Y1938558D01*
X16542637Y2164759D01*
X16565806Y2400000D01*
X16542637Y2635241D01*
X16474019Y2861442D01*
X16362591Y3069910D01*
X16214796Y3250000D01*
X16698307Y3250000D01*
X16698307Y1550000D01*
X16705065Y1481388D01*
X16725078Y1415413D01*
X16757578Y1354610D01*
X16801315Y1301315D01*
X16854610Y1257578D01*
X16915413Y1225078D01*
X16981388Y1205065D01*
X17050000Y1198307D01*
X18750000Y1198307D01*
X18818612Y1205065D01*
X18884587Y1225078D01*
X18945390Y1257578D01*
X18960526Y1270000D01*
X23594194Y1270000D01*
X23617363Y1034759D01*
X23685981Y808558D01*
X23797409Y600090D01*
X23947366Y417366D01*
X24130090Y267409D01*
X24338558Y155981D01*
X24564759Y87363D01*
X24741050Y70000D01*
X24858950Y70000D01*
X25035241Y87363D01*
X25261442Y155981D01*
X25469910Y267409D01*
X25652634Y417366D01*
X25802591Y600090D01*
X25914019Y808558D01*
X25982637Y1034759D01*
X26005806Y1270000D01*
X25982637Y1505241D01*
X25914019Y1731442D01*
X25802591Y1939910D01*
X25652634Y2122634D01*
X25469910Y2272591D01*
X25261442Y2384019D01*
X25035241Y2452637D01*
X24858950Y2470000D01*
X24741050Y2470000D01*
X24564759Y2452637D01*
X24338558Y2384019D01*
X24130090Y2272591D01*
X23947366Y2122634D01*
X23797409Y1939910D01*
X23685981Y1731442D01*
X23617363Y1505241D01*
X23594194Y1270000D01*
X18960526Y1270000D01*
X18998685Y1301315D01*
X19042422Y1354610D01*
X19074922Y1415413D01*
X19094935Y1481388D01*
X19101693Y1550000D01*
X19101693Y3250000D01*
X19094935Y3318612D01*
X19074922Y3384587D01*
X19042422Y3445390D01*
X18998685Y3498685D01*
X18945390Y3542422D01*
X18884587Y3574922D01*
X18818612Y3594935D01*
X18750000Y3601693D01*
X17050000Y3601693D01*
X16981388Y3594935D01*
X16915413Y3574922D01*
X16854610Y3542422D01*
X16801315Y3498685D01*
X16757578Y3445390D01*
X16725078Y3384587D01*
X16705065Y3318612D01*
X16698307Y3250000D01*
X16214796Y3250000D01*
X16212634Y3252634D01*
X16029910Y3402591D01*
X15821442Y3514019D01*
X15595241Y3582637D01*
X15418950Y3600000D01*
X15301050Y3600000D01*
X15124759Y3582637D01*
X14898558Y3514019D01*
X14690090Y3402591D01*
X14507366Y3252634D01*
X14357409Y3069910D01*
X14245981Y2861442D01*
X14177363Y2635241D01*
X14154194Y2400000D01*
X8189257Y2400000D01*
X8103948Y2503948D01*
X7974518Y2610168D01*
X7826854Y2689097D01*
X7666628Y2737700D01*
X7500000Y2754112D01*
X7333371Y2737700D01*
X7173145Y2689097D01*
X7025481Y2610168D01*
X6896052Y2503948D01*
X6789832Y2374518D01*
X6710903Y2226854D01*
X6662300Y2066628D01*
X6650000Y1941748D01*
X6650000Y1921741D01*
X6645889Y1880000D01*
X-6751705Y1880000D01*
X-6728822Y1935243D01*
X-6700000Y2080141D01*
X-6700000Y2227879D01*
X-6728822Y2372777D01*
X-6785359Y2509268D01*
X-6867437Y2632107D01*
X-6900000Y2664670D01*
X-6900000Y2790563D01*
X11632573Y2790563D01*
X11686095Y2600000D01*
X12620000Y2600000D01*
X12620000Y3532475D01*
X13020000Y3532475D01*
X13020000Y2600000D01*
X13953905Y2600000D01*
X14007427Y2790563D01*
X13908416Y3014714D01*
X13767578Y3215242D01*
X13590325Y3384441D01*
X13383469Y3515808D01*
X13210562Y3587418D01*
X13020000Y3532475D01*
X12620000Y3532475D01*
X12429438Y3587418D01*
X12256531Y3515808D01*
X12049675Y3384441D01*
X11872422Y3215242D01*
X11731584Y3014714D01*
X11632573Y2790563D01*
X-6900000Y2790563D01*
X-6900000Y3928190D01*
X23600000Y3928190D01*
X23600000Y3691810D01*
X23646116Y3459973D01*
X23736574Y3241587D01*
X23867899Y3045045D01*
X24035045Y2877899D01*
X24231587Y2746574D01*
X24449973Y2656116D01*
X24681810Y2610000D01*
X24918190Y2610000D01*
X25150027Y2656116D01*
X25368413Y2746574D01*
X25564955Y2877899D01*
X25732101Y3045045D01*
X25863426Y3241587D01*
X25953884Y3459973D01*
X26000000Y3691810D01*
X26000000Y3928190D01*
X25953884Y4160027D01*
X25863426Y4378413D01*
X25732101Y4574955D01*
X25564955Y4742101D01*
X25368413Y4873426D01*
X25150027Y4963884D01*
X24918190Y5010000D01*
X24681810Y5010000D01*
X24449973Y4963884D01*
X24231587Y4873426D01*
X24035045Y4742101D01*
X23867899Y4574955D01*
X23736574Y4378413D01*
X23646116Y4160027D01*
X23600000Y3928190D01*
X-6900000Y3928190D01*
X-6900000Y7522993D01*
X-6897340Y7550001D01*
X-6900000Y7577009D01*
X-6900000Y7577018D01*
X-6907958Y7657819D01*
X-6939408Y7761494D01*
X-6963182Y7805972D01*
X-6990479Y7857043D01*
X-7041987Y7919805D01*
X-7041992Y7919810D01*
X-7059210Y7940790D01*
X-7080190Y7958008D01*
X-7236582Y8114400D01*
X13123907Y8114400D01*
X13123907Y6414400D01*
X13130665Y6345788D01*
X13150678Y6279813D01*
X13183178Y6219010D01*
X13226915Y6165715D01*
X13280210Y6121978D01*
X13341013Y6089478D01*
X13406988Y6069465D01*
X13475600Y6062707D01*
X15175600Y6062707D01*
X15244212Y6069465D01*
X15310187Y6089478D01*
X15370990Y6121978D01*
X15424285Y6165715D01*
X15468022Y6219010D01*
X15500522Y6279813D01*
X15520535Y6345788D01*
X15527293Y6414400D01*
X15527293Y6873837D01*
X15678173Y6873837D01*
X15777184Y6649686D01*
X15918022Y6449158D01*
X16095275Y6279959D01*
X16302131Y6148592D01*
X16475038Y6076982D01*
X16665600Y6131925D01*
X16665600Y7064400D01*
X17065600Y7064400D01*
X17065600Y6131925D01*
X17256162Y6076982D01*
X17429069Y6148592D01*
X17635925Y6279959D01*
X17813178Y6449158D01*
X17954016Y6649686D01*
X18053027Y6873837D01*
X17999505Y7064400D01*
X17065600Y7064400D01*
X16665600Y7064400D01*
X15731695Y7064400D01*
X15678173Y6873837D01*
X15527293Y6873837D01*
X15527293Y7654963D01*
X15678173Y7654963D01*
X15731695Y7464400D01*
X16665600Y7464400D01*
X16665600Y8396875D01*
X17065600Y8396875D01*
X17065600Y7464400D01*
X17999505Y7464400D01*
X18053027Y7654963D01*
X17954016Y7879114D01*
X17813178Y8079642D01*
X17635925Y8248841D01*
X17429069Y8380208D01*
X17256162Y8451818D01*
X17065600Y8396875D01*
X16665600Y8396875D01*
X16475038Y8451818D01*
X16302131Y8380208D01*
X16095275Y8248841D01*
X15918022Y8079642D01*
X15777184Y7879114D01*
X15678173Y7654963D01*
X15527293Y7654963D01*
X15527293Y8114400D01*
X15520535Y8183012D01*
X15500522Y8248987D01*
X15468022Y8309790D01*
X15424285Y8363085D01*
X15370990Y8406822D01*
X15310187Y8439322D01*
X15244212Y8459335D01*
X15175600Y8466093D01*
X13475600Y8466093D01*
X13406988Y8459335D01*
X13341013Y8439322D01*
X13280210Y8406822D01*
X13226915Y8363085D01*
X13183178Y8309790D01*
X13150678Y8248987D01*
X13130665Y8183012D01*
X13123907Y8114400D01*
X-7236582Y8114400D01*
X-8491984Y9369801D01*
X-8491988Y9369806D01*
X-8550000Y9427818D01*
X-8550000Y9473869D01*
X-8578822Y9618767D01*
X-8635359Y9755258D01*
X-8717437Y9878097D01*
X-8821903Y9982563D01*
X-8944742Y10064641D01*
X-9081233Y10121178D01*
X-9226131Y10150000D01*
X-9373869Y10150000D01*
X-9518767Y10121178D01*
X-9655258Y10064641D01*
X-9778097Y9982563D01*
X-9882563Y9878097D01*
X-9964641Y9755258D01*
X-10021178Y9618767D01*
X-10050000Y9473869D01*
X-24853389Y9473869D01*
X-24767708Y9705950D01*
X-24361678Y10683916D01*
X-23983523Y11500841D01*
X-23473544Y11500841D01*
X-23450375Y11265600D01*
X-23381757Y11039399D01*
X-23270329Y10830931D01*
X-23120372Y10648207D01*
X-22937648Y10498250D01*
X-22729180Y10386822D01*
X-22502979Y10318204D01*
X-22326688Y10300841D01*
X-22208788Y10300841D01*
X-22032497Y10318204D01*
X-21806296Y10386822D01*
X-21597828Y10498250D01*
X-21415104Y10648207D01*
X-21265147Y10830931D01*
X-21153719Y11039399D01*
X-21085101Y11265600D01*
X-21061932Y11500841D01*
X-20933544Y11500841D01*
X-20910375Y11265600D01*
X-20841757Y11039399D01*
X-20730329Y10830931D01*
X-20580372Y10648207D01*
X-20397648Y10498250D01*
X-20189180Y10386822D01*
X-19962979Y10318204D01*
X-19786688Y10300841D01*
X-19668788Y10300841D01*
X-19492497Y10318204D01*
X-19266296Y10386822D01*
X-19057828Y10498250D01*
X-18875104Y10648207D01*
X-18725147Y10830931D01*
X-18613719Y11039399D01*
X-18545101Y11265600D01*
X-18521932Y11500841D01*
X-18533572Y11619031D01*
X-18387738Y11619031D01*
X-18387738Y11382651D01*
X-18341622Y11150814D01*
X-18251164Y10932428D01*
X-18119839Y10735886D01*
X-17952693Y10568740D01*
X-17756151Y10437415D01*
X-17537765Y10346957D01*
X-17305928Y10300841D01*
X-17069548Y10300841D01*
X-16837711Y10346957D01*
X-16619325Y10437415D01*
X-16422783Y10568740D01*
X-16255637Y10735886D01*
X-16138633Y10910996D01*
X-14806161Y10910996D01*
X-14431633Y10501076D01*
X-13809456Y10181856D01*
X-13136958Y9990151D01*
X-12439981Y9933328D01*
X-11745311Y10013570D01*
X-11079644Y10227793D01*
X-10568367Y10501076D01*
X-10193839Y10910996D01*
X-12500000Y13217157D01*
X-14806161Y10910996D01*
X-16138633Y10910996D01*
X-16124312Y10932428D01*
X-16033854Y11150814D01*
X-15987738Y11382651D01*
X-15987738Y11619031D01*
X-16033854Y11850868D01*
X-16124312Y12069254D01*
X-16255637Y12265796D01*
X-16422783Y12432942D01*
X-16619325Y12564267D01*
X-16837711Y12654725D01*
X-17069548Y12700841D01*
X-17305928Y12700841D01*
X-17537765Y12654725D01*
X-17756151Y12564267D01*
X-17952693Y12432942D01*
X-18119839Y12265796D01*
X-18251164Y12069254D01*
X-18341622Y11850868D01*
X-18387738Y11619031D01*
X-18533572Y11619031D01*
X-18545101Y11736082D01*
X-18613719Y11962283D01*
X-18725147Y12170751D01*
X-18875104Y12353475D01*
X-19057828Y12503432D01*
X-19266296Y12614860D01*
X-19492497Y12683478D01*
X-19668788Y12700841D01*
X-19786688Y12700841D01*
X-19962979Y12683478D01*
X-20189180Y12614860D01*
X-20397648Y12503432D01*
X-20580372Y12353475D01*
X-20730329Y12170751D01*
X-20841757Y11962283D01*
X-20910375Y11736082D01*
X-20933544Y11500841D01*
X-21061932Y11500841D01*
X-21085101Y11736082D01*
X-21153719Y11962283D01*
X-21265147Y12170751D01*
X-21415104Y12353475D01*
X-21597828Y12503432D01*
X-21806296Y12614860D01*
X-22032497Y12683478D01*
X-22208788Y12700841D01*
X-22326688Y12700841D01*
X-22502979Y12683478D01*
X-22729180Y12614860D01*
X-22937648Y12503432D01*
X-23120372Y12353475D01*
X-23270329Y12170751D01*
X-23381757Y11962283D01*
X-23450375Y11736082D01*
X-23473544Y11500841D01*
X-23983523Y11500841D01*
X-23915058Y11648745D01*
X-23427815Y12599261D01*
X-22953149Y13439981D01*
X-16066672Y13439981D01*
X-15986430Y12745311D01*
X-15772207Y12079644D01*
X-15498924Y11568367D01*
X-15089004Y11193839D01*
X-12782843Y13500000D01*
X-12217157Y13500000D01*
X-9910996Y11193839D01*
X-9501076Y11568367D01*
X-9324395Y11912729D01*
X-6407500Y11912729D01*
X-6407500Y11570471D01*
X-6340729Y11234790D01*
X-6209753Y10918585D01*
X-6019604Y10634008D01*
X-5777592Y10391996D01*
X-5493015Y10201847D01*
X-5176810Y10070871D01*
X-4841129Y10004100D01*
X-4498871Y10004100D01*
X-4163190Y10070871D01*
X-3846985Y10201847D01*
X-3562408Y10391996D01*
X-3320396Y10634008D01*
X-3130247Y10918585D01*
X-2999271Y11234790D01*
X-2932500Y11570471D01*
X-2932500Y11912729D01*
X-1707500Y11912729D01*
X-1707500Y11570471D01*
X-1640729Y11234790D01*
X-1509753Y10918585D01*
X-1319604Y10634008D01*
X-1077592Y10391996D01*
X-793015Y10201847D01*
X-476810Y10070871D01*
X-141129Y10004100D01*
X201129Y10004100D01*
X536810Y10070871D01*
X853015Y10201847D01*
X1137592Y10391996D01*
X1379604Y10634008D01*
X1569753Y10918585D01*
X1700729Y11234790D01*
X1767500Y11570471D01*
X1767500Y11912729D01*
X2992500Y11912729D01*
X2992500Y11570471D01*
X3059271Y11234790D01*
X3190247Y10918585D01*
X3380396Y10634008D01*
X3622408Y10391996D01*
X3906985Y10201847D01*
X4223190Y10070871D01*
X4558871Y10004100D01*
X4901129Y10004100D01*
X5236810Y10070871D01*
X5553015Y10201847D01*
X5837592Y10391996D01*
X6079604Y10634008D01*
X6269753Y10918585D01*
X6281350Y10946583D01*
X10229426Y10946583D01*
X10597946Y10541787D01*
X11211612Y10227556D01*
X11874790Y10039084D01*
X12561994Y9983611D01*
X13246816Y10063272D01*
X13902939Y10275004D01*
X14402054Y10541787D01*
X14770574Y10946583D01*
X12500000Y13217157D01*
X10229426Y10946583D01*
X6281350Y10946583D01*
X6400729Y11234790D01*
X6467500Y11570471D01*
X6467500Y11912729D01*
X6400729Y12248410D01*
X6269753Y12564615D01*
X6079604Y12849192D01*
X5837592Y13091204D01*
X5553015Y13281353D01*
X5236810Y13412329D01*
X5107723Y13438006D01*
X8983611Y13438006D01*
X9063272Y12753184D01*
X9275004Y12097061D01*
X9541787Y11597946D01*
X9946583Y11229426D01*
X12217157Y13500000D01*
X12782843Y13500000D01*
X15053417Y11229426D01*
X15458213Y11597946D01*
X15772444Y12211612D01*
X15783592Y12250841D01*
X15930569Y12250841D01*
X15930569Y10550841D01*
X15937327Y10482229D01*
X15957340Y10416254D01*
X15989840Y10355451D01*
X16033577Y10302156D01*
X16086872Y10258419D01*
X16147675Y10225919D01*
X16213650Y10205906D01*
X16282262Y10199148D01*
X17982262Y10199148D01*
X18050874Y10205906D01*
X18116849Y10225919D01*
X18177652Y10258419D01*
X18230947Y10302156D01*
X18274684Y10355451D01*
X18307184Y10416254D01*
X18327197Y10482229D01*
X18333955Y10550841D01*
X18333955Y11400841D01*
X18466456Y11400841D01*
X18489625Y11165600D01*
X18558243Y10939399D01*
X18669671Y10730931D01*
X18819628Y10548207D01*
X19002352Y10398250D01*
X19210820Y10286822D01*
X19437021Y10218204D01*
X19613312Y10200841D01*
X19731212Y10200841D01*
X19907503Y10218204D01*
X20133704Y10286822D01*
X20342172Y10398250D01*
X20410465Y10454297D01*
X21548560Y10454297D01*
X21645198Y10280085D01*
X21874743Y10190991D01*
X22117259Y10148392D01*
X22363425Y10153923D01*
X22603783Y10207372D01*
X22779326Y10280085D01*
X22875964Y10454297D01*
X22212262Y11117998D01*
X21548560Y10454297D01*
X20410465Y10454297D01*
X20524896Y10548207D01*
X20674853Y10730931D01*
X20786281Y10939399D01*
X20854899Y11165600D01*
X20878068Y11400841D01*
X20868712Y11495844D01*
X20959813Y11495844D01*
X20965344Y11249678D01*
X21018793Y11009320D01*
X21091506Y10833777D01*
X21265718Y10737139D01*
X21929419Y11400841D01*
X22495105Y11400841D01*
X23158806Y10737139D01*
X23333018Y10833777D01*
X23422112Y11063322D01*
X23464711Y11305838D01*
X23459180Y11552004D01*
X23405731Y11792362D01*
X23333018Y11967905D01*
X23158806Y12064543D01*
X22495105Y11400841D01*
X21929419Y11400841D01*
X21265718Y12064543D01*
X21091506Y11967905D01*
X21002412Y11738360D01*
X20959813Y11495844D01*
X20868712Y11495844D01*
X20854899Y11636082D01*
X20786281Y11862283D01*
X20674853Y12070751D01*
X20524896Y12253475D01*
X20410466Y12347385D01*
X21548560Y12347385D01*
X22212262Y11683684D01*
X22875964Y12347385D01*
X22779326Y12521597D01*
X22549781Y12610691D01*
X22307265Y12653290D01*
X22061099Y12647759D01*
X21820741Y12594310D01*
X21645198Y12521597D01*
X21548560Y12347385D01*
X20410466Y12347385D01*
X20342172Y12403432D01*
X20133704Y12514860D01*
X19907503Y12583478D01*
X19731212Y12600841D01*
X19613312Y12600841D01*
X19437021Y12583478D01*
X19210820Y12514860D01*
X19002352Y12403432D01*
X18819628Y12253475D01*
X18669671Y12070751D01*
X18558243Y11862283D01*
X18489625Y11636082D01*
X18466456Y11400841D01*
X18333955Y11400841D01*
X18333955Y12250841D01*
X18327197Y12319453D01*
X18307184Y12385428D01*
X18274684Y12446231D01*
X18230947Y12499526D01*
X18177652Y12543263D01*
X18116849Y12575763D01*
X18050874Y12595776D01*
X17982262Y12602534D01*
X16282262Y12602534D01*
X16213650Y12595776D01*
X16147675Y12575763D01*
X16086872Y12543263D01*
X16033577Y12499526D01*
X15989840Y12446231D01*
X15957340Y12385428D01*
X15937327Y12319453D01*
X15930569Y12250841D01*
X15783592Y12250841D01*
X15960916Y12874790D01*
X16016389Y13561994D01*
X15936728Y14246816D01*
X15724996Y14902939D01*
X15458213Y15402054D01*
X15053417Y15770574D01*
X12782843Y13500000D01*
X12217157Y13500000D01*
X9946583Y15770574D01*
X9541787Y15402054D01*
X9227556Y14788388D01*
X9039084Y14125210D01*
X8983611Y13438006D01*
X5107723Y13438006D01*
X4901129Y13479100D01*
X4558871Y13479100D01*
X4223190Y13412329D01*
X3906985Y13281353D01*
X3622408Y13091204D01*
X3380396Y12849192D01*
X3190247Y12564615D01*
X3059271Y12248410D01*
X2992500Y11912729D01*
X1767500Y11912729D01*
X1700729Y12248410D01*
X1569753Y12564615D01*
X1379604Y12849192D01*
X1137592Y13091204D01*
X853015Y13281353D01*
X536810Y13412329D01*
X201129Y13479100D01*
X-141129Y13479100D01*
X-476810Y13412329D01*
X-793015Y13281353D01*
X-1077592Y13091204D01*
X-1319604Y12849192D01*
X-1509753Y12564615D01*
X-1640729Y12248410D01*
X-1707500Y11912729D01*
X-2932500Y11912729D01*
X-2999271Y12248410D01*
X-3130247Y12564615D01*
X-3320396Y12849192D01*
X-3562408Y13091204D01*
X-3846985Y13281353D01*
X-4163190Y13412329D01*
X-4498871Y13479100D01*
X-4841129Y13479100D01*
X-5176810Y13412329D01*
X-5493015Y13281353D01*
X-5777592Y13091204D01*
X-6019604Y12849192D01*
X-6209753Y12564615D01*
X-6340729Y12248410D01*
X-6407500Y11912729D01*
X-9324395Y11912729D01*
X-9181856Y12190544D01*
X-8990151Y12863042D01*
X-8933328Y13560019D01*
X-9013570Y14254689D01*
X-9227793Y14920356D01*
X-9501076Y15431633D01*
X-9910996Y15806161D01*
X-12217157Y13500000D01*
X-12782843Y13500000D01*
X-15089004Y15806161D01*
X-15498924Y15431633D01*
X-15818144Y14809456D01*
X-16009849Y14136958D01*
X-16066672Y13439981D01*
X-22953149Y13439981D01*
X-22899970Y13534169D01*
X-22331490Y14452275D01*
X-21871649Y15131751D01*
X-21789154Y15114692D01*
X-21782598Y15112891D01*
X-21769970Y15110725D01*
X-21757365Y15108118D01*
X-21750575Y15107397D01*
X-21598440Y15081298D01*
X-21591823Y15079720D01*
X-21579066Y15077975D01*
X-21566407Y15075803D01*
X-21559637Y15075317D01*
X-21407351Y15054482D01*
X-21400716Y15053135D01*
X-21387918Y15051823D01*
X-21375146Y15050076D01*
X-21368368Y15049820D01*
X-21216112Y15034216D01*
X-21209441Y15033094D01*
X-21196556Y15032211D01*
X-21183741Y15030898D01*
X-21176992Y15030871D01*
X-21024834Y15020448D01*
X-21018152Y15019555D01*
X-21005239Y15019106D01*
X-20992360Y15018224D01*
X-20985627Y15018425D01*
X-20833690Y15013144D01*
X-20827010Y15012478D01*
X-20814098Y15012463D01*
X-20801154Y15012013D01*
X-20794436Y15012440D01*
X-20642869Y15012262D01*
X-20636179Y15011821D01*
X-20623239Y15012239D01*
X-20610286Y15012224D01*
X-20603611Y15012874D01*
X-20452497Y15017757D01*
X-20445810Y15017540D01*
X-20432876Y15018391D01*
X-20419916Y15018810D01*
X-20413281Y15019681D01*
X-20262745Y15029587D01*
X-20256058Y15029593D01*
X-20243131Y15030878D01*
X-20230197Y15031729D01*
X-20223614Y15032818D01*
X-20073750Y15047713D01*
X-20067086Y15047941D01*
X-20054206Y15049656D01*
X-20041284Y15050940D01*
X-20034750Y15052246D01*
X-19885688Y15072089D01*
X-19879044Y15072538D01*
X-19866218Y15074682D01*
X-19853339Y15076396D01*
X-19846861Y15077916D01*
X-19698705Y15102676D01*
X-19692090Y15103344D01*
X-19679343Y15105912D01*
X-19666514Y15108056D01*
X-19660092Y15109790D01*
X-19512961Y15139431D01*
X-19506376Y15140318D01*
X-19493721Y15143308D01*
X-19480962Y15145878D01*
X-19474604Y15147824D01*
X-19328620Y15182311D01*
X-19322061Y15183416D01*
X-19309490Y15186830D01*
X-19296840Y15189818D01*
X-19290561Y15191970D01*
X-19145813Y15231276D01*
X-19139299Y15232597D01*
X-19126853Y15236424D01*
X-19114303Y15239832D01*
X-19108098Y15242191D01*
X-18964705Y15286284D01*
X-18958241Y15287820D01*
X-18945942Y15292053D01*
X-18933504Y15295878D01*
X-18927372Y15298445D01*
X-18785449Y15347296D01*
X-18779043Y15349045D01*
X-18766914Y15353676D01*
X-18754598Y15357915D01*
X-18748542Y15360690D01*
X-18608223Y15414263D01*
X-18601866Y15416228D01*
X-18589889Y15421263D01*
X-18577738Y15425902D01*
X-18571779Y15428876D01*
X-18433165Y15487146D01*
X-18426854Y15489329D01*
X-18415040Y15494765D01*
X-18403084Y15499791D01*
X-18397225Y15502962D01*
X-18260413Y15565914D01*
X-18254174Y15568308D01*
X-18242563Y15574127D01*
X-18230782Y15579548D01*
X-18225022Y15582918D01*
X-18090136Y15650520D01*
X-18083979Y15653122D01*
X-18072590Y15659314D01*
X-18060997Y15665124D01*
X-18055334Y15668696D01*
X-17922504Y15740915D01*
X-17916422Y15743729D01*
X-17905268Y15750286D01*
X-17893882Y15756477D01*
X-17888328Y15760246D01*
X-17757662Y15837065D01*
X-17751664Y15840088D01*
X-17740750Y15847008D01*
X-17729589Y15853569D01*
X-17724151Y15857531D01*
X-17595772Y15938923D01*
X-17589860Y15942156D01*
X-17579194Y15949432D01*
X-17568283Y15956350D01*
X-17562970Y15960501D01*
X-17436989Y16046447D01*
X-17431172Y16049889D01*
X-17420769Y16057513D01*
X-17410114Y16064782D01*
X-17404932Y16069119D01*
X-17377799Y16089004D01*
X-14806161Y16089004D01*
X-12500000Y13782843D01*
X-10229426Y16053417D01*
X10229426Y16053417D01*
X12500000Y13782843D01*
X14770574Y16053417D01*
X14402054Y16458213D01*
X13788388Y16772444D01*
X13125210Y16960916D01*
X12438006Y17016389D01*
X11753184Y16936728D01*
X11097061Y16724996D01*
X10597946Y16458213D01*
X10229426Y16053417D01*
X-10229426Y16053417D01*
X-10193839Y16089004D01*
X-10568367Y16498924D01*
X-11190544Y16818144D01*
X-11863042Y17009849D01*
X-12560019Y17066672D01*
X-13254689Y16986430D01*
X-13920356Y16772207D01*
X-14431633Y16498924D01*
X-14806161Y16089004D01*
X-17377799Y16089004D01*
X-17281474Y16159597D01*
X-17275760Y16163244D01*
X-17265629Y16171209D01*
X-17255245Y16178819D01*
X-17250201Y16183338D01*
X-17129371Y16278334D01*
X-17123779Y16282177D01*
X-17113961Y16290450D01*
X-17103835Y16298411D01*
X-17098923Y16303122D01*
X-16980875Y16402593D01*
X-16975395Y16406639D01*
X-16965864Y16415241D01*
X-16956039Y16423520D01*
X-16951283Y16428401D01*
X-16836120Y16532341D01*
X-16830763Y16536586D01*
X-16821537Y16545502D01*
X-16812022Y16554090D01*
X-16807425Y16559140D01*
X-16695275Y16667527D01*
X-16690065Y16671953D01*
X-16681157Y16681171D01*
X-16671939Y16690079D01*
X-16667512Y16695290D01*
X-16559126Y16807439D01*
X-16554076Y16812036D01*
X-16545488Y16821551D01*
X-16536572Y16830777D01*
X-16532327Y16836133D01*
X-16428387Y16951297D01*
X-16423506Y16956053D01*
X-16415227Y16965878D01*
X-16406625Y16975409D01*
X-16402580Y16980887D01*
X-16303101Y17098945D01*
X-16298399Y17103848D01*
X-16290452Y17113956D01*
X-16282163Y17123793D01*
X-16278315Y17129393D01*
X-16183317Y17250224D01*
X-16178803Y17255261D01*
X-16171207Y17265625D01*
X-16163230Y17275772D01*
X-16159576Y17281497D01*
X-16069108Y17404943D01*
X-16064768Y17410128D01*
X-16057494Y17420791D01*
X-16049874Y17431188D01*
X-16046435Y17437001D01*
X-15960487Y17562984D01*
X-15956336Y17568297D01*
X-15949417Y17579210D01*
X-15942142Y17589874D01*
X-15938909Y17595784D01*
X-15857510Y17724175D01*
X-15853553Y17729606D01*
X-15847002Y17740748D01*
X-15840073Y17751678D01*
X-15837045Y17757686D01*
X-15760230Y17888345D01*
X-15756464Y17893895D01*
X-15750277Y17905274D01*
X-15743715Y17916436D01*
X-15740900Y17922522D01*
X-15668682Y18055346D01*
X-15665109Y18061011D01*
X-15659295Y18072611D01*
X-15653108Y18083991D01*
X-15650506Y18090149D01*
X-15582905Y18225033D01*
X-15579531Y18230799D01*
X-15574106Y18242589D01*
X-15568293Y18254188D01*
X-15565900Y18260423D01*
X-15502948Y18397239D01*
X-15499778Y18403096D01*
X-15494748Y18415060D01*
X-15489314Y18426871D01*
X-15487133Y18433175D01*
X-15428856Y18571803D01*
X-15425886Y18577754D01*
X-15421257Y18589879D01*
X-15416213Y18601877D01*
X-15414244Y18608247D01*
X-15360671Y18748567D01*
X-15357902Y18754610D01*
X-15353670Y18766905D01*
X-15349030Y18779058D01*
X-15347278Y18785475D01*
X-15298431Y18927384D01*
X-15295863Y18933518D01*
X-15292038Y18945958D01*
X-15287806Y18958252D01*
X-15286270Y18964716D01*
X-15242176Y19108111D01*
X-15239817Y19114316D01*
X-15236409Y19126866D01*
X-15232582Y19139312D01*
X-15231261Y19145826D01*
X-15191954Y19290576D01*
X-15189802Y19296856D01*
X-15186813Y19309510D01*
X-15183401Y19322074D01*
X-15182296Y19328630D01*
X-15147809Y19474619D01*
X-15145864Y19480974D01*
X-15143294Y19493731D01*
X-15140303Y19506392D01*
X-15139417Y19512977D01*
X-15109776Y19660102D01*
X-15108041Y19666528D01*
X-15105896Y19679364D01*
X-15103330Y19692100D01*
X-15102662Y19698712D01*
X-15077901Y19846877D01*
X-15076381Y19853353D01*
X-15074667Y19866227D01*
X-15072523Y19879057D01*
X-15072074Y19885703D01*
X-15064954Y19939187D01*
X-7624570Y19939187D01*
X-7462381Y19709965D01*
X-7140670Y19566852D01*
X-6797221Y19489251D01*
X-6445232Y19480145D01*
X-6098230Y19539883D01*
X-5769550Y19666171D01*
X-5687619Y19709965D01*
X-5525430Y19939187D01*
X5585430Y19939187D01*
X5747619Y19709965D01*
X6069330Y19566852D01*
X6412779Y19489251D01*
X6764768Y19480145D01*
X7111770Y19539883D01*
X7440450Y19666171D01*
X7522381Y19709965D01*
X7684570Y19939187D01*
X6635000Y20988757D01*
X5585430Y19939187D01*
X-5525430Y19939187D01*
X-6575000Y20988757D01*
X-7624570Y19939187D01*
X-15064954Y19939187D01*
X-15052230Y20034766D01*
X-15050925Y20041298D01*
X-15049641Y20054216D01*
X-15047926Y20067099D01*
X-15047698Y20073764D01*
X-15032803Y20223628D01*
X-15031714Y20230211D01*
X-15030863Y20243145D01*
X-15029578Y20256072D01*
X-15029572Y20262759D01*
X-15019666Y20413293D01*
X-15018795Y20419929D01*
X-15018376Y20432891D01*
X-15017525Y20445824D01*
X-15017742Y20452510D01*
X-15012858Y20603627D01*
X-15012209Y20610302D01*
X-15012224Y20623250D01*
X-15011806Y20636192D01*
X-15012247Y20642884D01*
X-15012426Y20794453D01*
X-15011999Y20801169D01*
X-15012449Y20814111D01*
X-15012464Y20827028D01*
X-15013130Y20833709D01*
X-15018411Y20985642D01*
X-15018210Y20992372D01*
X-15019092Y21005249D01*
X-15019541Y21018167D01*
X-15020435Y21024850D01*
X-15028447Y21141832D01*
X-8366455Y21141832D01*
X-8306717Y20794830D01*
X-8180429Y20466150D01*
X-8136635Y20384219D01*
X-7907413Y20222030D01*
X-6857843Y21271600D01*
X-6292157Y21271600D01*
X-5242587Y20222030D01*
X-5013365Y20384219D01*
X-4870252Y20705930D01*
X-4792651Y21049379D01*
X-4790260Y21141832D01*
X4843545Y21141832D01*
X4903283Y20794830D01*
X5029571Y20466150D01*
X5073365Y20384219D01*
X5302587Y20222030D01*
X6352157Y21271600D01*
X6917843Y21271600D01*
X7967413Y20222030D01*
X8196635Y20384219D01*
X8339748Y20705930D01*
X8417349Y21049379D01*
X8426455Y21401368D01*
X8366717Y21748370D01*
X8240429Y22077050D01*
X8196635Y22158981D01*
X7967413Y22321170D01*
X6917843Y21271600D01*
X6352157Y21271600D01*
X5302587Y22321170D01*
X5073365Y22158981D01*
X4930252Y21837270D01*
X4852651Y21493821D01*
X4843545Y21141832D01*
X-4790260Y21141832D01*
X-4783545Y21401368D01*
X-4843283Y21748370D01*
X-4969571Y22077050D01*
X-5013365Y22158981D01*
X-5242587Y22321170D01*
X-6292157Y21271600D01*
X-6857843Y21271600D01*
X-7907413Y22321170D01*
X-8136635Y22158981D01*
X-8279748Y21837270D01*
X-8357349Y21493821D01*
X-8366455Y21141832D01*
X-15028447Y21141832D01*
X-15030856Y21177002D01*
X-15030883Y21183758D01*
X-15032197Y21196582D01*
X-15033079Y21209454D01*
X-15034200Y21216122D01*
X-15049806Y21368389D01*
X-15050062Y21375160D01*
X-15051808Y21387922D01*
X-15053121Y21400733D01*
X-15054469Y21407372D01*
X-15075303Y21559651D01*
X-15075789Y21566421D01*
X-15077961Y21579080D01*
X-15079706Y21591837D01*
X-15081284Y21598454D01*
X-15107383Y21750589D01*
X-15108104Y21757379D01*
X-15110711Y21769984D01*
X-15112877Y21782612D01*
X-15114678Y21789168D01*
X-15131737Y21871663D01*
X-14452236Y22331519D01*
X-14012151Y22604013D01*
X-7624570Y22604013D01*
X-6575000Y21554443D01*
X-5525430Y22604013D01*
X5585430Y22604013D01*
X6635000Y21554443D01*
X7684570Y22604013D01*
X7522381Y22833235D01*
X7200670Y22976348D01*
X6857221Y23053949D01*
X6505232Y23063055D01*
X6158230Y23003317D01*
X5829550Y22877029D01*
X5747619Y22833235D01*
X5585430Y22604013D01*
X-5525430Y22604013D01*
X-5687619Y22833235D01*
X-6009330Y22976348D01*
X-6352779Y23053949D01*
X-6704768Y23063055D01*
X-7051770Y23003317D01*
X-7380450Y22877029D01*
X-7462381Y22833235D01*
X-7624570Y22604013D01*
X-14012151Y22604013D01*
X-13534122Y22900001D01*
X-12599221Y23427840D01*
X-11648697Y23915084D01*
X-10683867Y24361701D01*
X-9705931Y24767716D01*
X-8716107Y25133140D01*
X-7715717Y25457947D01*
X-6705909Y25742169D01*
X-5688013Y25985782D01*
X-4663199Y26188803D01*
X-3632780Y26351216D01*
X-2597958Y26473030D01*
X-1560026Y26554240D01*
X-520237Y26594843D01*
X520244Y26594843D01*
X1560035Y26554239D01*
G04 #@! TD*
M02*
