G04 #@! TF.GenerationSoftware,KiCad,Pcbnew,(5.0.0)*
G04 #@! TF.CreationDate,2019-01-09T16:36:43-03:00*
G04 #@! TF.ProjectId,PCB_A,5043425F412E6B696361645F70636200,rev?*
G04 #@! TF.SameCoordinates,Original*
G04 #@! TF.FileFunction,Soldermask,Bot*
G04 #@! TF.FilePolarity,Negative*
%FSLAX46Y46*%
G04 Gerber Fmt 4.6, Leading zero omitted, Abs format (unit mm)*
G04 Created by KiCad (PCBNEW (5.0.0)) date 01/09/19 16:36:43*
%MOMM*%
%LPD*%
G01*
G04 APERTURE LIST*
%ADD10C,0.100000*%
G04 APERTURE END LIST*
D10*
G36*
X5122729Y-22408332D02*
X5303115Y-22444212D01*
X5494203Y-22523364D01*
X5666177Y-22638273D01*
X5812430Y-22784526D01*
X5927339Y-22956500D01*
X6006491Y-23147588D01*
X6046841Y-23350446D01*
X6046841Y-23557278D01*
X6006491Y-23760136D01*
X5927339Y-23951224D01*
X5812430Y-24123198D01*
X5666177Y-24269451D01*
X5494203Y-24384360D01*
X5303115Y-24463512D01*
X5122729Y-24499392D01*
X5100258Y-24503862D01*
X4893424Y-24503862D01*
X4870953Y-24499392D01*
X4690567Y-24463512D01*
X4499479Y-24384360D01*
X4327505Y-24269451D01*
X4181252Y-24123198D01*
X4066343Y-23951224D01*
X3987191Y-23760136D01*
X3946841Y-23557278D01*
X3946841Y-23350446D01*
X3987191Y-23147588D01*
X4066343Y-22956500D01*
X4181252Y-22784526D01*
X4327505Y-22638273D01*
X4499479Y-22523364D01*
X4690567Y-22444212D01*
X4870953Y-22408332D01*
X4893424Y-22403862D01*
X5100258Y-22403862D01*
X5122729Y-22408332D01*
X5122729Y-22408332D01*
G37*
G36*
X962574Y-17026817D02*
X1563135Y-17275577D01*
X2103630Y-17636725D01*
X2563275Y-18096370D01*
X2924423Y-18636865D01*
X3173183Y-19237426D01*
X3300000Y-19874977D01*
X3300000Y-20525023D01*
X3173183Y-21162574D01*
X2924423Y-21763135D01*
X2563275Y-22303630D01*
X2103630Y-22763275D01*
X1563135Y-23124423D01*
X962574Y-23373183D01*
X325023Y-23500000D01*
X-325023Y-23500000D01*
X-962574Y-23373183D01*
X-1563135Y-23124423D01*
X-2103630Y-22763275D01*
X-2563275Y-22303630D01*
X-2924423Y-21763135D01*
X-3173183Y-21162574D01*
X-3300000Y-20525023D01*
X-3300000Y-19874977D01*
X-3173183Y-19237426D01*
X-2924423Y-18636865D01*
X-2563275Y-18096370D01*
X-2103630Y-17636725D01*
X-1563135Y-17275577D01*
X-962574Y-17026817D01*
X-325023Y-16900000D01*
X325023Y-16900000D01*
X962574Y-17026817D01*
X962574Y-17026817D01*
G37*
G36*
X5125548Y-19871458D02*
X5202677Y-19879055D01*
X5334628Y-19919082D01*
X5400604Y-19939095D01*
X5583013Y-20036595D01*
X5742895Y-20167808D01*
X5874108Y-20327690D01*
X5971608Y-20510099D01*
X5971608Y-20510100D01*
X6031648Y-20708026D01*
X6051921Y-20913862D01*
X6031648Y-21119698D01*
X5991621Y-21251649D01*
X5971608Y-21317625D01*
X5874108Y-21500034D01*
X5742895Y-21659916D01*
X5583013Y-21791129D01*
X5400604Y-21888629D01*
X5334628Y-21908642D01*
X5202677Y-21948669D01*
X5125548Y-21956265D01*
X5048421Y-21963862D01*
X4945261Y-21963862D01*
X4868134Y-21956265D01*
X4791005Y-21948669D01*
X4659054Y-21908642D01*
X4593078Y-21888629D01*
X4410669Y-21791129D01*
X4250787Y-21659916D01*
X4119574Y-21500034D01*
X4022074Y-21317625D01*
X4002061Y-21251649D01*
X3962034Y-21119698D01*
X3941761Y-20913862D01*
X3962034Y-20708026D01*
X4022074Y-20510100D01*
X4022074Y-20510099D01*
X4119574Y-20327690D01*
X4250787Y-20167808D01*
X4410669Y-20036595D01*
X4593078Y-19939095D01*
X4659054Y-19919082D01*
X4791005Y-19879055D01*
X4868134Y-19871458D01*
X4945261Y-19863862D01*
X5048421Y-19863862D01*
X5125548Y-19871458D01*
X5125548Y-19871458D01*
G37*
G36*
X5125548Y-17331458D02*
X5202677Y-17339055D01*
X5334628Y-17379082D01*
X5400604Y-17399095D01*
X5583013Y-17496595D01*
X5742895Y-17627808D01*
X5874108Y-17787690D01*
X5971608Y-17970099D01*
X5971608Y-17970100D01*
X6031648Y-18168026D01*
X6051921Y-18373862D01*
X6031648Y-18579698D01*
X5991621Y-18711649D01*
X5971608Y-18777625D01*
X5874108Y-18960034D01*
X5742895Y-19119916D01*
X5583013Y-19251129D01*
X5400604Y-19348629D01*
X5334628Y-19368642D01*
X5202677Y-19408669D01*
X5125548Y-19416266D01*
X5048421Y-19423862D01*
X4945261Y-19423862D01*
X4868134Y-19416266D01*
X4791005Y-19408669D01*
X4659054Y-19368642D01*
X4593078Y-19348629D01*
X4410669Y-19251129D01*
X4250787Y-19119916D01*
X4119574Y-18960034D01*
X4022074Y-18777625D01*
X4002061Y-18711649D01*
X3962034Y-18579698D01*
X3941761Y-18373862D01*
X3962034Y-18168026D01*
X4022074Y-17970100D01*
X4022074Y-17970099D01*
X4119574Y-17787690D01*
X4250787Y-17627808D01*
X4410669Y-17496595D01*
X4593078Y-17399095D01*
X4659054Y-17379082D01*
X4791005Y-17339055D01*
X4868134Y-17331458D01*
X4945261Y-17323862D01*
X5048421Y-17323862D01*
X5125548Y-17331458D01*
X5125548Y-17331458D01*
G37*
G36*
X-18117088Y-7013123D02*
X-17598418Y-7227963D01*
X-17131628Y-7539862D01*
X-16734662Y-7936828D01*
X-16422763Y-8403618D01*
X-16207923Y-8922288D01*
X-16098400Y-9472898D01*
X-16098400Y-10034302D01*
X-16207923Y-10584912D01*
X-16422763Y-11103582D01*
X-16734662Y-11570372D01*
X-17131628Y-11967338D01*
X-17598418Y-12279237D01*
X-18117088Y-12494077D01*
X-18667698Y-12603600D01*
X-19229102Y-12603600D01*
X-19779712Y-12494077D01*
X-20298382Y-12279237D01*
X-20765172Y-11967338D01*
X-21162138Y-11570372D01*
X-21474037Y-11103582D01*
X-21688877Y-10584912D01*
X-21798400Y-10034302D01*
X-21798400Y-9472898D01*
X-21688877Y-8922288D01*
X-21474037Y-8403618D01*
X-21162138Y-7936828D01*
X-20765172Y-7539862D01*
X-20298382Y-7227963D01*
X-19779712Y-7013123D01*
X-19229102Y-6903600D01*
X-18667698Y-6903600D01*
X-18117088Y-7013123D01*
X-18117088Y-7013123D01*
G37*
G36*
X21600000Y-8500000D02*
X20200000Y-8500000D01*
X20200000Y-7100000D01*
X21600000Y-7100000D01*
X21600000Y-8500000D01*
X21600000Y-8500000D01*
G37*
G36*
X-5532440Y-1243759D02*
X-5041072Y-1447290D01*
X-5041070Y-1447291D01*
X-4718638Y-1662733D01*
X-4598847Y-1742775D01*
X-4222775Y-2118847D01*
X-4222773Y-2118850D01*
X-4078903Y-2334166D01*
X-3927290Y-2561072D01*
X-3723759Y-3052440D01*
X-3620000Y-3574072D01*
X-3620000Y-4105928D01*
X-3723759Y-4627560D01*
X-3927290Y-5118928D01*
X-4222775Y-5561153D01*
X-4598847Y-5937225D01*
X-4598850Y-5937227D01*
X-5041070Y-6232709D01*
X-5041071Y-6232710D01*
X-5041072Y-6232710D01*
X-5532440Y-6436241D01*
X-6054072Y-6540000D01*
X-6585928Y-6540000D01*
X-7107560Y-6436241D01*
X-7598928Y-6232710D01*
X-7598929Y-6232710D01*
X-7598930Y-6232709D01*
X-8041150Y-5937227D01*
X-8041153Y-5937225D01*
X-8417225Y-5561153D01*
X-8712710Y-5118928D01*
X-8916241Y-4627560D01*
X-9020000Y-4105928D01*
X-9020000Y-3574072D01*
X-8916241Y-3052440D01*
X-8712710Y-2561072D01*
X-8561096Y-2334166D01*
X-8417227Y-2118850D01*
X-8417225Y-2118847D01*
X-8041153Y-1742775D01*
X-7921362Y-1662733D01*
X-7598930Y-1447291D01*
X-7598928Y-1447290D01*
X-7107560Y-1243759D01*
X-6585928Y-1140000D01*
X-6054072Y-1140000D01*
X-5532440Y-1243759D01*
X-5532440Y-1243759D01*
G37*
G36*
X21028707Y-4037597D02*
X21105836Y-4045193D01*
X21237787Y-4085220D01*
X21303763Y-4105233D01*
X21486172Y-4202733D01*
X21646054Y-4333946D01*
X21777267Y-4493828D01*
X21874767Y-4676237D01*
X21874767Y-4676238D01*
X21934807Y-4874164D01*
X21955080Y-5080000D01*
X21934807Y-5285836D01*
X21894780Y-5417787D01*
X21874767Y-5483763D01*
X21777267Y-5666172D01*
X21646054Y-5826054D01*
X21486172Y-5957267D01*
X21303763Y-6054767D01*
X21237787Y-6074780D01*
X21105836Y-6114807D01*
X21028707Y-6122404D01*
X20951580Y-6130000D01*
X20848420Y-6130000D01*
X20771293Y-6122403D01*
X20694164Y-6114807D01*
X20562213Y-6074780D01*
X20496237Y-6054767D01*
X20313828Y-5957267D01*
X20153946Y-5826054D01*
X20022733Y-5666172D01*
X19925233Y-5483763D01*
X19905220Y-5417787D01*
X19865193Y-5285836D01*
X19844920Y-5080000D01*
X19865193Y-4874164D01*
X19925233Y-4676238D01*
X19925233Y-4676237D01*
X20022733Y-4493828D01*
X20153946Y-4333946D01*
X20313828Y-4202733D01*
X20496237Y-4105233D01*
X20562213Y-4085220D01*
X20694164Y-4045193D01*
X20771293Y-4037597D01*
X20848420Y-4030000D01*
X20951580Y-4030000D01*
X21028707Y-4037597D01*
X21028707Y-4037597D01*
G37*
G36*
X-24671293Y-2767597D02*
X-24594164Y-2775193D01*
X-24462213Y-2815220D01*
X-24396237Y-2835233D01*
X-24213828Y-2932733D01*
X-24053946Y-3063946D01*
X-23922733Y-3223828D01*
X-23825233Y-3406237D01*
X-23825233Y-3406238D01*
X-23765193Y-3604164D01*
X-23744920Y-3810000D01*
X-23765193Y-4015836D01*
X-23805220Y-4147787D01*
X-23825233Y-4213763D01*
X-23922733Y-4396172D01*
X-24053946Y-4556054D01*
X-24213828Y-4687267D01*
X-24396237Y-4784767D01*
X-24462213Y-4804780D01*
X-24594164Y-4844807D01*
X-24671293Y-4852404D01*
X-24748420Y-4860000D01*
X-24851580Y-4860000D01*
X-24928707Y-4852404D01*
X-25005836Y-4844807D01*
X-25137787Y-4804780D01*
X-25203763Y-4784767D01*
X-25386172Y-4687267D01*
X-25546054Y-4556054D01*
X-25677267Y-4396172D01*
X-25774767Y-4213763D01*
X-25794780Y-4147787D01*
X-25834807Y-4015836D01*
X-25855080Y-3810000D01*
X-25834807Y-3604164D01*
X-25774767Y-3406238D01*
X-25774767Y-3406237D01*
X-25677267Y-3223828D01*
X-25546054Y-3063946D01*
X-25386172Y-2932733D01*
X-25203763Y-2835233D01*
X-25137787Y-2815220D01*
X-25005836Y-2775193D01*
X-24928707Y-2767597D01*
X-24851580Y-2760000D01*
X-24748420Y-2760000D01*
X-24671293Y-2767597D01*
X-24671293Y-2767597D01*
G37*
G36*
X24925888Y-2764470D02*
X25106274Y-2800350D01*
X25297362Y-2879502D01*
X25469336Y-2994411D01*
X25615589Y-3140664D01*
X25730498Y-3312638D01*
X25809650Y-3503726D01*
X25850000Y-3706584D01*
X25850000Y-3913416D01*
X25809650Y-4116274D01*
X25730498Y-4307362D01*
X25615589Y-4479336D01*
X25469336Y-4625589D01*
X25297362Y-4740498D01*
X25106274Y-4819650D01*
X24925888Y-4855530D01*
X24903417Y-4860000D01*
X24696583Y-4860000D01*
X24674112Y-4855530D01*
X24493726Y-4819650D01*
X24302638Y-4740498D01*
X24130664Y-4625589D01*
X23984411Y-4479336D01*
X23869502Y-4307362D01*
X23790350Y-4116274D01*
X23750000Y-3913416D01*
X23750000Y-3706584D01*
X23790350Y-3503726D01*
X23869502Y-3312638D01*
X23984411Y-3140664D01*
X24130664Y-2994411D01*
X24302638Y-2879502D01*
X24493726Y-2800350D01*
X24674112Y-2764470D01*
X24696583Y-2760000D01*
X24903417Y-2760000D01*
X24925888Y-2764470D01*
X24925888Y-2764470D01*
G37*
G36*
X21028707Y-1497596D02*
X21105836Y-1505193D01*
X21237787Y-1545220D01*
X21303763Y-1565233D01*
X21486172Y-1662733D01*
X21646054Y-1793946D01*
X21777267Y-1953828D01*
X21874767Y-2136237D01*
X21874767Y-2136238D01*
X21934807Y-2334164D01*
X21955080Y-2540000D01*
X21934807Y-2745836D01*
X21918270Y-2800350D01*
X21874767Y-2943763D01*
X21777267Y-3126172D01*
X21646054Y-3286054D01*
X21486172Y-3417267D01*
X21303763Y-3514767D01*
X21237787Y-3534780D01*
X21105836Y-3574807D01*
X21028707Y-3582404D01*
X20951580Y-3590000D01*
X20848420Y-3590000D01*
X20771293Y-3582404D01*
X20694164Y-3574807D01*
X20562213Y-3534780D01*
X20496237Y-3514767D01*
X20313828Y-3417267D01*
X20153946Y-3286054D01*
X20022733Y-3126172D01*
X19925233Y-2943763D01*
X19881730Y-2800350D01*
X19865193Y-2745836D01*
X19844920Y-2540000D01*
X19865193Y-2334164D01*
X19925233Y-2136238D01*
X19925233Y-2136237D01*
X20022733Y-1953828D01*
X20153946Y-1793946D01*
X20313828Y-1662733D01*
X20496237Y-1565233D01*
X20562213Y-1545220D01*
X20694164Y-1505193D01*
X20771293Y-1497596D01*
X20848420Y-1490000D01*
X20951580Y-1490000D01*
X21028707Y-1497596D01*
X21028707Y-1497596D01*
G37*
G36*
X24928707Y-227597D02*
X25005836Y-235193D01*
X25137787Y-275220D01*
X25203763Y-295233D01*
X25386172Y-392733D01*
X25546054Y-523946D01*
X25677267Y-683828D01*
X25774767Y-866237D01*
X25774767Y-866238D01*
X25834807Y-1064164D01*
X25855080Y-1270000D01*
X25834807Y-1475836D01*
X25807689Y-1565233D01*
X25774767Y-1673763D01*
X25677267Y-1856172D01*
X25546054Y-2016054D01*
X25386172Y-2147267D01*
X25203763Y-2244767D01*
X25137787Y-2264780D01*
X25005836Y-2304807D01*
X24928707Y-2312403D01*
X24851580Y-2320000D01*
X24748420Y-2320000D01*
X24671293Y-2312404D01*
X24594164Y-2304807D01*
X24462213Y-2264780D01*
X24396237Y-2244767D01*
X24213828Y-2147267D01*
X24053946Y-2016054D01*
X23922733Y-1856172D01*
X23825233Y-1673763D01*
X23792311Y-1565233D01*
X23765193Y-1475836D01*
X23744920Y-1270000D01*
X23765193Y-1064164D01*
X23825233Y-866238D01*
X23825233Y-866237D01*
X23922733Y-683828D01*
X24053946Y-523946D01*
X24213828Y-392733D01*
X24396237Y-295233D01*
X24462213Y-275220D01*
X24594164Y-235193D01*
X24671293Y-227597D01*
X24748420Y-220000D01*
X24851580Y-220000D01*
X24928707Y-227597D01*
X24928707Y-227597D01*
G37*
G36*
X-24671293Y-227597D02*
X-24594164Y-235193D01*
X-24462213Y-275220D01*
X-24396237Y-295233D01*
X-24213828Y-392733D01*
X-24053946Y-523946D01*
X-23922733Y-683828D01*
X-23825233Y-866237D01*
X-23825233Y-866238D01*
X-23765193Y-1064164D01*
X-23744920Y-1270000D01*
X-23765193Y-1475836D01*
X-23792311Y-1565233D01*
X-23825233Y-1673763D01*
X-23922733Y-1856172D01*
X-24053946Y-2016054D01*
X-24213828Y-2147267D01*
X-24396237Y-2244767D01*
X-24462213Y-2264780D01*
X-24594164Y-2304807D01*
X-24671293Y-2312404D01*
X-24748420Y-2320000D01*
X-24851580Y-2320000D01*
X-24928707Y-2312403D01*
X-25005836Y-2304807D01*
X-25137787Y-2264780D01*
X-25203763Y-2244767D01*
X-25386172Y-2147267D01*
X-25546054Y-2016054D01*
X-25677267Y-1856172D01*
X-25774767Y-1673763D01*
X-25807689Y-1565233D01*
X-25834807Y-1475836D01*
X-25855080Y-1270000D01*
X-25834807Y-1064164D01*
X-25774767Y-866238D01*
X-25774767Y-866237D01*
X-25677267Y-683828D01*
X-25546054Y-523946D01*
X-25386172Y-392733D01*
X-25203763Y-295233D01*
X-25137787Y-275220D01*
X-25005836Y-235193D01*
X-24928707Y-227597D01*
X-24851580Y-220000D01*
X-24748420Y-220000D01*
X-24671293Y-227597D01*
X-24671293Y-227597D01*
G37*
G36*
X21950000Y-1050000D02*
X19850000Y-1050000D01*
X19850000Y1050000D01*
X21950000Y1050000D01*
X21950000Y-1050000D01*
X21950000Y-1050000D01*
G37*
G36*
X24928707Y2312403D02*
X25005836Y2304807D01*
X25137787Y2264780D01*
X25203763Y2244767D01*
X25386172Y2147267D01*
X25546054Y2016054D01*
X25677267Y1856172D01*
X25774767Y1673763D01*
X25774767Y1673762D01*
X25834807Y1475836D01*
X25855080Y1270000D01*
X25834807Y1064164D01*
X25830510Y1050000D01*
X25774767Y866237D01*
X25677267Y683828D01*
X25546054Y523946D01*
X25386172Y392733D01*
X25203763Y295233D01*
X25137787Y275220D01*
X25005836Y235193D01*
X24928707Y227597D01*
X24851580Y220000D01*
X24748420Y220000D01*
X24671293Y227597D01*
X24594164Y235193D01*
X24462213Y275220D01*
X24396237Y295233D01*
X24213828Y392733D01*
X24053946Y523946D01*
X23922733Y683828D01*
X23825233Y866237D01*
X23769490Y1050000D01*
X23765193Y1064164D01*
X23744920Y1270000D01*
X23765193Y1475836D01*
X23825233Y1673762D01*
X23825233Y1673763D01*
X23922733Y1856172D01*
X24053946Y2016054D01*
X24213828Y2147267D01*
X24396237Y2244767D01*
X24462213Y2264780D01*
X24594164Y2304807D01*
X24671293Y2312404D01*
X24748420Y2320000D01*
X24851580Y2320000D01*
X24928707Y2312403D01*
X24928707Y2312403D01*
G37*
G36*
X-24671293Y2312404D02*
X-24594164Y2304807D01*
X-24462213Y2264780D01*
X-24396237Y2244767D01*
X-24213828Y2147267D01*
X-24053946Y2016054D01*
X-23922733Y1856172D01*
X-23825233Y1673763D01*
X-23825233Y1673762D01*
X-23765193Y1475836D01*
X-23744920Y1270000D01*
X-23765193Y1064164D01*
X-23769490Y1050000D01*
X-23825233Y866237D01*
X-23922733Y683828D01*
X-24053946Y523946D01*
X-24213828Y392733D01*
X-24396237Y295233D01*
X-24462213Y275220D01*
X-24594164Y235193D01*
X-24671293Y227597D01*
X-24748420Y220000D01*
X-24851580Y220000D01*
X-24928707Y227597D01*
X-25005836Y235193D01*
X-25137787Y275220D01*
X-25203763Y295233D01*
X-25386172Y392733D01*
X-25546054Y523946D01*
X-25677267Y683828D01*
X-25774767Y866237D01*
X-25830510Y1050000D01*
X-25834807Y1064164D01*
X-25855080Y1270000D01*
X-25834807Y1475836D01*
X-25774767Y1673762D01*
X-25774767Y1673763D01*
X-25677267Y1856172D01*
X-25546054Y2016054D01*
X-25386172Y2147267D01*
X-25203763Y2244767D01*
X-25137787Y2264780D01*
X-25005836Y2304807D01*
X-24928707Y2312403D01*
X-24851580Y2320000D01*
X-24748420Y2320000D01*
X-24671293Y2312404D01*
X-24671293Y2312404D01*
G37*
G36*
X12948707Y3442403D02*
X13025836Y3434807D01*
X13157787Y3394780D01*
X13223763Y3374767D01*
X13406172Y3277267D01*
X13566054Y3146054D01*
X13697267Y2986172D01*
X13794767Y2803763D01*
X13794767Y2803762D01*
X13854807Y2605836D01*
X13875080Y2400000D01*
X13854807Y2194164D01*
X13840581Y2147267D01*
X13794767Y1996237D01*
X13697267Y1813828D01*
X13566054Y1653946D01*
X13406172Y1522733D01*
X13223763Y1425233D01*
X13157787Y1405220D01*
X13025836Y1365193D01*
X12948707Y1357596D01*
X12871580Y1350000D01*
X12768420Y1350000D01*
X12691293Y1357596D01*
X12614164Y1365193D01*
X12482213Y1405220D01*
X12416237Y1425233D01*
X12233828Y1522733D01*
X12073946Y1653946D01*
X11942733Y1813828D01*
X11845233Y1996237D01*
X11799419Y2147267D01*
X11785193Y2194164D01*
X11764920Y2400000D01*
X11785193Y2605836D01*
X11845233Y2803762D01*
X11845233Y2803763D01*
X11942733Y2986172D01*
X12073946Y3146054D01*
X12233828Y3277267D01*
X12416237Y3374767D01*
X12482213Y3394780D01*
X12614164Y3434807D01*
X12691293Y3442403D01*
X12768420Y3450000D01*
X12871580Y3450000D01*
X12948707Y3442403D01*
X12948707Y3442403D01*
G37*
G36*
X18950000Y1350000D02*
X16850000Y1350000D01*
X16850000Y3450000D01*
X18950000Y3450000D01*
X18950000Y1350000D01*
X18950000Y1350000D01*
G37*
G36*
X15488707Y3442403D02*
X15565836Y3434807D01*
X15697787Y3394780D01*
X15763763Y3374767D01*
X15946172Y3277267D01*
X16106054Y3146054D01*
X16237267Y2986172D01*
X16334767Y2803763D01*
X16334767Y2803762D01*
X16394807Y2605836D01*
X16415080Y2400000D01*
X16394807Y2194164D01*
X16380581Y2147267D01*
X16334767Y1996237D01*
X16237267Y1813828D01*
X16106054Y1653946D01*
X15946172Y1522733D01*
X15763763Y1425233D01*
X15697787Y1405220D01*
X15565836Y1365193D01*
X15488707Y1357596D01*
X15411580Y1350000D01*
X15308420Y1350000D01*
X15231293Y1357596D01*
X15154164Y1365193D01*
X15022213Y1405220D01*
X14956237Y1425233D01*
X14773828Y1522733D01*
X14613946Y1653946D01*
X14482733Y1813828D01*
X14385233Y1996237D01*
X14339419Y2147267D01*
X14325193Y2194164D01*
X14304920Y2400000D01*
X14325193Y2605836D01*
X14385233Y2803762D01*
X14385233Y2803763D01*
X14482733Y2986172D01*
X14613946Y3146054D01*
X14773828Y3277267D01*
X14956237Y3374767D01*
X15022213Y3394780D01*
X15154164Y3434807D01*
X15231293Y3442403D01*
X15308420Y3450000D01*
X15411580Y3450000D01*
X15488707Y3442403D01*
X15488707Y3442403D01*
G37*
G36*
X24925888Y4855530D02*
X25106274Y4819650D01*
X25297362Y4740498D01*
X25469336Y4625589D01*
X25615589Y4479336D01*
X25730498Y4307362D01*
X25809650Y4116274D01*
X25850000Y3913416D01*
X25850000Y3706584D01*
X25809650Y3503726D01*
X25730498Y3312638D01*
X25615589Y3140664D01*
X25469336Y2994411D01*
X25297362Y2879502D01*
X25106274Y2800350D01*
X24925888Y2764470D01*
X24903417Y2760000D01*
X24696583Y2760000D01*
X24674112Y2764470D01*
X24493726Y2800350D01*
X24302638Y2879502D01*
X24130664Y2994411D01*
X23984411Y3140664D01*
X23869502Y3312638D01*
X23790350Y3503726D01*
X23750000Y3706584D01*
X23750000Y3913416D01*
X23790350Y4116274D01*
X23869502Y4307362D01*
X23984411Y4479336D01*
X24130664Y4625589D01*
X24302638Y4740498D01*
X24493726Y4819650D01*
X24674112Y4855530D01*
X24696583Y4860000D01*
X24903417Y4860000D01*
X24925888Y4855530D01*
X24925888Y4855530D01*
G37*
G36*
X-24674112Y4855530D02*
X-24493726Y4819650D01*
X-24302638Y4740498D01*
X-24130664Y4625589D01*
X-23984411Y4479336D01*
X-23869502Y4307362D01*
X-23790350Y4116274D01*
X-23750000Y3913416D01*
X-23750000Y3706584D01*
X-23790350Y3503726D01*
X-23869502Y3312638D01*
X-23984411Y3140664D01*
X-24130664Y2994411D01*
X-24302638Y2879502D01*
X-24493726Y2800350D01*
X-24674112Y2764470D01*
X-24696583Y2760000D01*
X-24903417Y2760000D01*
X-24925888Y2764470D01*
X-25106274Y2800350D01*
X-25297362Y2879502D01*
X-25469336Y2994411D01*
X-25615589Y3140664D01*
X-25730498Y3312638D01*
X-25809650Y3503726D01*
X-25850000Y3706584D01*
X-25850000Y3913416D01*
X-25809650Y4116274D01*
X-25730498Y4307362D01*
X-25615589Y4479336D01*
X-25469336Y4625589D01*
X-25297362Y4740498D01*
X-25106274Y4819650D01*
X-24925888Y4855530D01*
X-24903417Y4860000D01*
X-24696583Y4860000D01*
X-24674112Y4855530D01*
X-24674112Y4855530D01*
G37*
G36*
X15375600Y6214400D02*
X13275600Y6214400D01*
X13275600Y8314400D01*
X15375600Y8314400D01*
X15375600Y6214400D01*
X15375600Y6214400D01*
G37*
G36*
X16994307Y8306804D02*
X17071436Y8299207D01*
X17203387Y8259180D01*
X17269363Y8239167D01*
X17451772Y8141667D01*
X17611654Y8010454D01*
X17742867Y7850572D01*
X17840367Y7668163D01*
X17840367Y7668162D01*
X17900407Y7470236D01*
X17920680Y7264400D01*
X17900407Y7058564D01*
X17860380Y6926613D01*
X17840367Y6860637D01*
X17742867Y6678228D01*
X17611654Y6518346D01*
X17451772Y6387133D01*
X17269363Y6289633D01*
X17203387Y6269620D01*
X17071436Y6229593D01*
X16994307Y6221997D01*
X16917180Y6214400D01*
X16814020Y6214400D01*
X16736893Y6221997D01*
X16659764Y6229593D01*
X16527813Y6269620D01*
X16461837Y6289633D01*
X16279428Y6387133D01*
X16119546Y6518346D01*
X15988333Y6678228D01*
X15890833Y6860637D01*
X15870820Y6926613D01*
X15830793Y7058564D01*
X15810520Y7264400D01*
X15830793Y7470236D01*
X15890833Y7668162D01*
X15890833Y7668163D01*
X15988333Y7850572D01*
X16119546Y8010454D01*
X16279428Y8141667D01*
X16461837Y8239167D01*
X16527813Y8259180D01*
X16659764Y8299207D01*
X16736893Y8306804D01*
X16814020Y8314400D01*
X16917180Y8314400D01*
X16994307Y8306804D01*
X16994307Y8306804D01*
G37*
G36*
X-11522842Y16721262D02*
X-10913181Y16468732D01*
X-10364497Y16102113D01*
X-9897887Y15635503D01*
X-9531268Y15086819D01*
X-9278738Y14477158D01*
X-9150000Y13829948D01*
X-9150000Y13170052D01*
X-9278738Y12522842D01*
X-9531268Y11913181D01*
X-9897887Y11364497D01*
X-10364497Y10897887D01*
X-10913181Y10531268D01*
X-11522842Y10278738D01*
X-12170052Y10150000D01*
X-12829948Y10150000D01*
X-13477158Y10278738D01*
X-14086819Y10531268D01*
X-14635503Y10897887D01*
X-15102113Y11364497D01*
X-15468732Y11913181D01*
X-15721262Y12522842D01*
X-15850000Y13170052D01*
X-15850000Y13829948D01*
X-15721262Y14477158D01*
X-15468732Y15086819D01*
X-15102113Y15635503D01*
X-14635503Y16102113D01*
X-14086819Y16468732D01*
X-13477158Y16721262D01*
X-12829948Y16850000D01*
X-12170052Y16850000D01*
X-11522842Y16721262D01*
X-11522842Y16721262D01*
G37*
G36*
X5193054Y13268094D02*
X5193056Y13268093D01*
X5193057Y13268093D01*
X5299777Y13223888D01*
X5481964Y13148424D01*
X5741975Y12974690D01*
X5963090Y12753575D01*
X6136824Y12493564D01*
X6171234Y12410491D01*
X6251618Y12216427D01*
X6256494Y12204654D01*
X6317500Y11897957D01*
X6317500Y11585243D01*
X6256494Y11278546D01*
X6136824Y10989636D01*
X5963090Y10729625D01*
X5741975Y10508510D01*
X5481964Y10334776D01*
X5346678Y10278739D01*
X5193057Y10215107D01*
X5193056Y10215107D01*
X5193054Y10215106D01*
X4886357Y10154100D01*
X4573643Y10154100D01*
X4266946Y10215106D01*
X4266944Y10215107D01*
X4266943Y10215107D01*
X4113322Y10278739D01*
X3978036Y10334776D01*
X3718025Y10508510D01*
X3496910Y10729625D01*
X3323176Y10989636D01*
X3203506Y11278546D01*
X3142500Y11585243D01*
X3142500Y11897957D01*
X3203506Y12204654D01*
X3208383Y12216427D01*
X3288766Y12410491D01*
X3323176Y12493564D01*
X3496910Y12753575D01*
X3718025Y12974690D01*
X3978036Y13148424D01*
X4160223Y13223888D01*
X4266943Y13268093D01*
X4266944Y13268093D01*
X4266946Y13268094D01*
X4573643Y13329100D01*
X4886357Y13329100D01*
X5193054Y13268094D01*
X5193054Y13268094D01*
G37*
G36*
X-4206946Y13268094D02*
X-4206944Y13268093D01*
X-4206943Y13268093D01*
X-4100223Y13223888D01*
X-3918036Y13148424D01*
X-3658025Y12974690D01*
X-3436910Y12753575D01*
X-3263176Y12493564D01*
X-3228766Y12410491D01*
X-3148382Y12216427D01*
X-3143506Y12204654D01*
X-3082500Y11897957D01*
X-3082500Y11585243D01*
X-3143506Y11278546D01*
X-3263176Y10989636D01*
X-3436910Y10729625D01*
X-3658025Y10508510D01*
X-3918036Y10334776D01*
X-4053322Y10278739D01*
X-4206943Y10215107D01*
X-4206944Y10215107D01*
X-4206946Y10215106D01*
X-4513643Y10154100D01*
X-4826357Y10154100D01*
X-5133054Y10215106D01*
X-5133056Y10215107D01*
X-5133057Y10215107D01*
X-5286678Y10278739D01*
X-5421964Y10334776D01*
X-5681975Y10508510D01*
X-5903090Y10729625D01*
X-6076824Y10989636D01*
X-6196494Y11278546D01*
X-6257500Y11585243D01*
X-6257500Y11897957D01*
X-6196494Y12204654D01*
X-6191617Y12216427D01*
X-6111234Y12410491D01*
X-6076824Y12493564D01*
X-5903090Y12753575D01*
X-5681975Y12974690D01*
X-5421964Y13148424D01*
X-5239777Y13223888D01*
X-5133057Y13268093D01*
X-5133056Y13268093D01*
X-5133054Y13268094D01*
X-4826357Y13329100D01*
X-4513643Y13329100D01*
X-4206946Y13268094D01*
X-4206946Y13268094D01*
G37*
G36*
X493054Y13268094D02*
X493056Y13268093D01*
X493057Y13268093D01*
X599777Y13223888D01*
X781964Y13148424D01*
X1041975Y12974690D01*
X1263090Y12753575D01*
X1436824Y12493564D01*
X1471234Y12410491D01*
X1551618Y12216427D01*
X1556494Y12204654D01*
X1617500Y11897957D01*
X1617500Y11585243D01*
X1556494Y11278546D01*
X1436824Y10989636D01*
X1263090Y10729625D01*
X1041975Y10508510D01*
X781964Y10334776D01*
X646678Y10278739D01*
X493057Y10215107D01*
X493056Y10215107D01*
X493054Y10215106D01*
X186357Y10154100D01*
X-126357Y10154100D01*
X-433054Y10215106D01*
X-433056Y10215107D01*
X-433057Y10215107D01*
X-586678Y10278739D01*
X-721964Y10334776D01*
X-981975Y10508510D01*
X-1203090Y10729625D01*
X-1376824Y10989636D01*
X-1496494Y11278546D01*
X-1557500Y11585243D01*
X-1557500Y11897957D01*
X-1496494Y12204654D01*
X-1491617Y12216427D01*
X-1411234Y12410491D01*
X-1376824Y12493564D01*
X-1203090Y12753575D01*
X-981975Y12974690D01*
X-721964Y13148424D01*
X-539777Y13223888D01*
X-433057Y13268093D01*
X-433056Y13268093D01*
X-433054Y13268094D01*
X-126357Y13329100D01*
X186357Y13329100D01*
X493054Y13268094D01*
X493054Y13268094D01*
G37*
G36*
X13462574Y16673183D02*
X14063135Y16424423D01*
X14603630Y16063275D01*
X15063275Y15603630D01*
X15424423Y15063135D01*
X15673183Y14462574D01*
X15800000Y13825023D01*
X15800000Y13174977D01*
X15673183Y12537426D01*
X15424423Y11936865D01*
X15063275Y11396370D01*
X14603630Y10936725D01*
X14063135Y10575577D01*
X13462574Y10326817D01*
X12825023Y10200000D01*
X12174977Y10200000D01*
X11537426Y10326817D01*
X10936865Y10575577D01*
X10396370Y10936725D01*
X9936725Y11396370D01*
X9575577Y11936865D01*
X9326817Y12537426D01*
X9200000Y13174977D01*
X9200000Y13825023D01*
X9326817Y14462574D01*
X9575577Y15063135D01*
X9936725Y15603630D01*
X10396370Y16063275D01*
X10936865Y16424423D01*
X11537426Y16673183D01*
X12174977Y16800000D01*
X12825023Y16800000D01*
X13462574Y16673183D01*
X13462574Y16673183D01*
G37*
G36*
X19800969Y12443245D02*
X19878098Y12435648D01*
X20010049Y12395621D01*
X20076025Y12375608D01*
X20258434Y12278108D01*
X20418316Y12146895D01*
X20549529Y11987013D01*
X20647029Y11804604D01*
X20647029Y11804603D01*
X20707069Y11606677D01*
X20727342Y11400841D01*
X20707069Y11195005D01*
X20667042Y11063054D01*
X20647029Y10997078D01*
X20549529Y10814669D01*
X20418316Y10654787D01*
X20258434Y10523574D01*
X20076025Y10426074D01*
X20010049Y10406061D01*
X19878098Y10366034D01*
X19800969Y10358437D01*
X19723842Y10350841D01*
X19620682Y10350841D01*
X19543555Y10358437D01*
X19466426Y10366034D01*
X19334475Y10406061D01*
X19268499Y10426074D01*
X19086090Y10523574D01*
X18926208Y10654787D01*
X18794995Y10814669D01*
X18697495Y10997078D01*
X18677482Y11063054D01*
X18637455Y11195005D01*
X18617182Y11400841D01*
X18637455Y11606677D01*
X18697495Y11804603D01*
X18697495Y11804604D01*
X18794995Y11987013D01*
X18926208Y12146895D01*
X19086090Y12278108D01*
X19268499Y12375608D01*
X19334475Y12395621D01*
X19466426Y12435648D01*
X19543555Y12443244D01*
X19620682Y12450841D01*
X19723842Y12450841D01*
X19800969Y12443245D01*
X19800969Y12443245D01*
G37*
G36*
X18182262Y10350841D02*
X16082262Y10350841D01*
X16082262Y12450841D01*
X18182262Y12450841D01*
X18182262Y10350841D01*
X18182262Y10350841D01*
G37*
G36*
X22338150Y12446371D02*
X22518536Y12410491D01*
X22709624Y12331339D01*
X22881598Y12216430D01*
X23027851Y12070177D01*
X23142760Y11898203D01*
X23221912Y11707115D01*
X23262262Y11504257D01*
X23262262Y11297425D01*
X23221912Y11094567D01*
X23142760Y10903479D01*
X23027851Y10731505D01*
X22881598Y10585252D01*
X22709624Y10470343D01*
X22518536Y10391191D01*
X22338150Y10355311D01*
X22315679Y10350841D01*
X22108845Y10350841D01*
X22086374Y10355311D01*
X21905988Y10391191D01*
X21714900Y10470343D01*
X21542926Y10585252D01*
X21396673Y10731505D01*
X21281764Y10903479D01*
X21202612Y11094567D01*
X21162262Y11297425D01*
X21162262Y11504257D01*
X21202612Y11707115D01*
X21281764Y11898203D01*
X21396673Y12070177D01*
X21542926Y12216430D01*
X21714900Y12331339D01*
X21905988Y12410491D01*
X22086374Y12446371D01*
X22108845Y12450841D01*
X22315679Y12450841D01*
X22338150Y12446371D01*
X22338150Y12446371D01*
G37*
G36*
X-19599031Y12543245D02*
X-19521902Y12535648D01*
X-19389951Y12495621D01*
X-19323975Y12475608D01*
X-19141566Y12378108D01*
X-18981684Y12246895D01*
X-18850471Y12087013D01*
X-18752971Y11904604D01*
X-18750955Y11897957D01*
X-18692931Y11706677D01*
X-18672658Y11500841D01*
X-18692931Y11295005D01*
X-18732958Y11163054D01*
X-18752971Y11097078D01*
X-18850471Y10914669D01*
X-18981684Y10754787D01*
X-19141566Y10623574D01*
X-19323975Y10526074D01*
X-19389951Y10506061D01*
X-19521902Y10466034D01*
X-19599031Y10458437D01*
X-19676158Y10450841D01*
X-19779318Y10450841D01*
X-19856445Y10458437D01*
X-19933574Y10466034D01*
X-20065525Y10506061D01*
X-20131501Y10526074D01*
X-20313910Y10623574D01*
X-20473792Y10754787D01*
X-20605005Y10914669D01*
X-20702505Y11097078D01*
X-20722518Y11163054D01*
X-20762545Y11295005D01*
X-20782818Y11500841D01*
X-20762545Y11706677D01*
X-20704521Y11897957D01*
X-20702505Y11904604D01*
X-20605005Y12087013D01*
X-20473792Y12246895D01*
X-20313910Y12378108D01*
X-20131501Y12475608D01*
X-20065525Y12495621D01*
X-19933574Y12535648D01*
X-19856445Y12543245D01*
X-19779318Y12550841D01*
X-19676158Y12550841D01*
X-19599031Y12543245D01*
X-19599031Y12543245D01*
G37*
G36*
X-22139031Y12543245D02*
X-22061902Y12535648D01*
X-21929951Y12495621D01*
X-21863975Y12475608D01*
X-21681566Y12378108D01*
X-21521684Y12246895D01*
X-21390471Y12087013D01*
X-21292971Y11904604D01*
X-21290955Y11897957D01*
X-21232931Y11706677D01*
X-21212658Y11500841D01*
X-21232931Y11295005D01*
X-21272958Y11163054D01*
X-21292971Y11097078D01*
X-21390471Y10914669D01*
X-21521684Y10754787D01*
X-21681566Y10623574D01*
X-21863975Y10526074D01*
X-21929951Y10506061D01*
X-22061902Y10466034D01*
X-22139031Y10458437D01*
X-22216158Y10450841D01*
X-22319318Y10450841D01*
X-22396445Y10458437D01*
X-22473574Y10466034D01*
X-22605525Y10506061D01*
X-22671501Y10526074D01*
X-22853910Y10623574D01*
X-23013792Y10754787D01*
X-23145005Y10914669D01*
X-23242505Y11097078D01*
X-23262518Y11163054D01*
X-23302545Y11295005D01*
X-23322818Y11500841D01*
X-23302545Y11706677D01*
X-23244521Y11897957D01*
X-23242505Y11904604D01*
X-23145005Y12087013D01*
X-23013792Y12246895D01*
X-22853910Y12378108D01*
X-22671501Y12475608D01*
X-22605525Y12495621D01*
X-22473574Y12535648D01*
X-22396445Y12543245D01*
X-22319318Y12550841D01*
X-22216158Y12550841D01*
X-22139031Y12543245D01*
X-22139031Y12543245D01*
G37*
G36*
X-17061850Y12546371D02*
X-16881464Y12510491D01*
X-16690376Y12431339D01*
X-16518402Y12316430D01*
X-16372149Y12170177D01*
X-16257240Y11998203D01*
X-16178088Y11807115D01*
X-16137738Y11604257D01*
X-16137738Y11397425D01*
X-16178088Y11194567D01*
X-16257240Y11003479D01*
X-16372149Y10831505D01*
X-16518402Y10685252D01*
X-16690376Y10570343D01*
X-16881464Y10491191D01*
X-17061850Y10455311D01*
X-17084321Y10450841D01*
X-17291155Y10450841D01*
X-17313626Y10455311D01*
X-17494012Y10491191D01*
X-17685100Y10570343D01*
X-17857074Y10685252D01*
X-18003327Y10831505D01*
X-18118236Y11003479D01*
X-18197388Y11194567D01*
X-18237738Y11397425D01*
X-18237738Y11604257D01*
X-18197388Y11807115D01*
X-18118236Y11998203D01*
X-18003327Y12170177D01*
X-17857074Y12316430D01*
X-17685100Y12431339D01*
X-17494012Y12510491D01*
X-17313626Y12546371D01*
X-17291155Y12550841D01*
X-17084321Y12550841D01*
X-17061850Y12546371D01*
X-17061850Y12546371D01*
G37*
G36*
X7098054Y22798094D02*
X7098056Y22798093D01*
X7098057Y22798093D01*
X7204777Y22753888D01*
X7386964Y22678424D01*
X7646975Y22504690D01*
X7868090Y22283575D01*
X8041824Y22023564D01*
X8161494Y21734654D01*
X8222500Y21427957D01*
X8222500Y21115243D01*
X8161494Y20808546D01*
X8041824Y20519636D01*
X7868090Y20259625D01*
X7646975Y20038510D01*
X7386964Y19864776D01*
X7204777Y19789312D01*
X7098057Y19745107D01*
X7098056Y19745107D01*
X7098054Y19745106D01*
X6791357Y19684100D01*
X6478643Y19684100D01*
X6171946Y19745106D01*
X6171944Y19745107D01*
X6171943Y19745107D01*
X6065223Y19789312D01*
X5883036Y19864776D01*
X5623025Y20038510D01*
X5401910Y20259625D01*
X5228176Y20519636D01*
X5108506Y20808546D01*
X5047500Y21115243D01*
X5047500Y21427957D01*
X5108506Y21734654D01*
X5228176Y22023564D01*
X5401910Y22283575D01*
X5623025Y22504690D01*
X5883036Y22678424D01*
X6065223Y22753888D01*
X6171943Y22798093D01*
X6171944Y22798093D01*
X6171946Y22798094D01*
X6478643Y22859100D01*
X6791357Y22859100D01*
X7098054Y22798094D01*
X7098054Y22798094D01*
G37*
G36*
X-6111946Y22798094D02*
X-6111944Y22798093D01*
X-6111943Y22798093D01*
X-6005223Y22753888D01*
X-5823036Y22678424D01*
X-5563025Y22504690D01*
X-5341910Y22283575D01*
X-5168176Y22023564D01*
X-5048506Y21734654D01*
X-4987500Y21427957D01*
X-4987500Y21115243D01*
X-5048506Y20808546D01*
X-5168176Y20519636D01*
X-5341910Y20259625D01*
X-5563025Y20038510D01*
X-5823036Y19864776D01*
X-6005223Y19789312D01*
X-6111943Y19745107D01*
X-6111944Y19745107D01*
X-6111946Y19745106D01*
X-6418643Y19684100D01*
X-6731357Y19684100D01*
X-7038054Y19745106D01*
X-7038056Y19745107D01*
X-7038057Y19745107D01*
X-7144777Y19789312D01*
X-7326964Y19864776D01*
X-7586975Y20038510D01*
X-7808090Y20259625D01*
X-7981824Y20519636D01*
X-8101494Y20808546D01*
X-8162500Y21115243D01*
X-8162500Y21427957D01*
X-8101494Y21734654D01*
X-7981824Y22023564D01*
X-7808090Y22283575D01*
X-7586975Y22504690D01*
X-7326964Y22678424D01*
X-7144777Y22753888D01*
X-7038057Y22798093D01*
X-7038056Y22798093D01*
X-7038054Y22798094D01*
X-6731357Y22859100D01*
X-6418643Y22859100D01*
X-6111946Y22798094D01*
X-6111946Y22798094D01*
G37*
M02*
