999
dxfrw 0.6.3
  0
SECTION
  2
HEADER
  9
$ACADVER
  1
AC1009
  9
$DWGCODEPAGE
  3
ANSI_1252
  9
$INSBASE
 10
0
 20
0
 30
0
  9
$EXTMIN
 10
10000000000
 20
10000000000
 30
0
  9
$EXTMAX
 10
-10000000000
 20
-10000000000
 30
0
  9
$LIMMIN
 10
0
 20
0
  9
$LIMMAX
 10
420
 20
297
  9
$ORTHOMODE
 70
    0
  9
$REGENMODE
 70
    1
  9
$FILLMODE
 70
    1
  9
$QTEXTMODE
 70
    0
  9
$MIRRTEXT
 70
    0
  9
$DRAGMODE
 70
    2
  9
$LTSCALE
 40
1
  9
$OSMODE
 70
    0
  9
$ATTMODE
 70
    0
  9
$TEXTSIZE
 40
2.5
  9
$TRACEWID
 40
15.68
  9
$TEXTSTYLE
  7
STANDARD
  9
$CLAYER
  8
0
  9
$CELTYPE
  6
BYLAYER
  9
$CECOLOR
 62
  256
  9
$DIMSCALE
 40
2.5
  9
$DIMASZ
 40
2.5
  9
$DIMEXO
 40
0.625
  9
$DIMDLI
 40
3.75
  9
$DIMRND
 40
0
  9
$DIMDLE
 40
0
  9
$DIMEXE
 40
1.25
  9
$DIMTP
 40
0
  9
$DIMTM
 40
0
  9
$DIMTXT
 40
2.5
  9
$DIMCEN
 40
2.5
  9
$DIMTSZ
 40
0
  9
$DIMTOL
 70
    0
  9
$DIMLIM
 70
    0
  9
$DIMTIH
 70
    0
  9
$DIMTOH
 70
    0
  9
$DIMSE1
 70
    0
  9
$DIMSE2
 70
    0
  9
$DIMTAD
 70
    1
  9
$DIMZIN
 70
    8
  9
$DIMBLK
  1

  9
$DIMASO
 70
    1
  9
$DIMSHO
 70
    1
  9
$DIMPOST
  1

  9
$DIMAPOST
  1

  9
$DIMALT
 70
    0
  9
$DIMALTD
 70
    3
  9
$DIMALTF
 40
0.03937
  9
$DIMLFAC
 40
1
  9
$DIMTOFL
 70
    1
  9
$DIMTVP
 40
0
  9
$DIMTIX
 70
    0
  9
$DIMSOXD
 70
    0
  9
$DIMSAH
 70
    0
  9
$DIMBLK1
  1

  9
$DIMBLK2
  1

  9
$DIMSTYLE
  2
STANDARD
  9
$DIMCLRD
 70
    0
  9
$DIMCLRE
 70
    0
  9
$DIMCLRT
 70
    0
  9
$DIMTFAC
 40
1
  9
$DIMGAP
 40
0.625
  9
$LUNITS
 70
    2
  9
$LUPREC
 70
    4
  9
$SKETCHINC
 40
1
  9
$FILLETRAD
 40
0
  9
$AUNITS
 70
    0
  9
$AUPREC
 70
    2
  9
$MENU
  1
.
  9
$ELEVATION
 40
0
  9
$PELEVATION
 40
0
  9
$THICKNESS
 40
0
  9
$LIMCHECK
 70
    0
  9
$BLIPMODE
 70
    0
  9
$CHAMFERA
 40
0
  9
$CHAMFERB
 40
0
  9
$SKPOLY
 70
    0
  9
$USRTIMER
 70
    1
  9
$ANGBASE
 50
0
  9
$ANGDIR
 70
    0
  9
$PDMODE
 70
   34
  9
$PDSIZE
 40
0
  9
$PLINEWID
 40
0
  9
$COORDS
 70
    2
  9
$SPLFRAME
 70
    0
  9
$SPLINETYPE
 70
    2
  9
$SPLINESEGS
 70
    8
  9
$ATTDIA
 70
    1
  9
$ATTREQ
 70
    1
  9
$HANDLING
 70
    1
  9
$HANDSEED
  5
20000
  9
$SURFTAB1
 70
    6
  9
$SURFTAB2
 70
    6
  9
$SURFTYPE
 70
    6
  9
$SURFU
 70
    6
  9
$SURFV
 70
    6
  9
$UCSNAME
  2

  9
$UCSORG
 10
0
 20
0
 30
0
  9
$UCSXDIR
 10
1
 20
0
 30
0
  9
$UCSYDIR
 10
0
 20
1
 30
0
  9
$PUCSNAME
  2

  9
$PUCSORG
 10
0
 20
0
 30
0
  9
$PUCSXDIR
 10
1
 20
0
 30
0
  9
$PUCSYDIR
 10
0
 20
1
 30
0
  9
$USERI1
 70
    0
  9
$USERI2
 70
    0
  9
$USERI3
 70
    0
  9
$USERI4
 70
    0
  9
$USERI5
 70
    0
  9
$USERR1
 40
0
  9
$USERR2
 40
0
  9
$USERR3
 40
0
  9
$USERR4
 40
0
  9
$USERR5
 40
0
  9
$WORLDVIEW
 70
    1
  9
$SHADEDGE
 70
    3
  9
$SHADEDIF
 70
   70
  9
$TILEMODE
 70
    1
  9
$MAXACTVP
 70
   64
  9
$PLIMCHECK
 70
    0
  9
$PEXTMIN
 10
0
 20
0
 30
0
  9
$PEXTMAX
 10
0
 20
0
 30
0
  9
$GRIDMODE
 70
    0
  9
$SNAPSTYLE
 70
    0
  9
$PLIMMIN
 10
0
 20
0
  9
$PLIMMAX
 10
210
 20
297
  9
$UNITMODE
 70
    0
  9
$VISRETAIN
 70
    1
  9
$PLINEGEN
 70
    0
  9
$PSLTSCALE
 70
    1
  0
ENDSEC
  0
SECTION
  2
TABLES
  0
TABLE
  2
VPORT
 70
    1
  0
VPORT
  2
*ACTIVE
 70
    0
 10
0
 20
0
 11
1
 21
1
 12
210.2621268656717
 22
148.5513059701493
 13
0
 23
0
 14
10
 24
10
 15
10
 25
10
 16
0
 26
0
 36
1
 17
0
 27
0
 37
0
 40
341
 41
1.813432835820896
 42
50
 43
0
 44
0
 50
0
 51
0
 71
    0
 72
  100
 73
    1
 74
    3
 75
    0
 76
    0
 77
    0
 78
    0
  0
ENDTAB
  0
TABLE
  2
LTYPE
 70
    4
  0
LTYPE
  2
BYBLOCK
 70
    0
  3

 72
   65
 73
    0
 40
0
  0
LTYPE
  2
BYLAYER
 70
    0
  3

 72
   65
 73
    0
 40
0
  0
LTYPE
  2
CONTINUOUS
 70
    0
  3
Solid line
 72
   65
 73
    0
 40
0
  0
LTYPE
  2
DOT
 70
    0
  3
Dot . . . . . . . . . . . . . . . . . . . . . .
 72
   65
 73
    2
 40
6.35
 49
0
 49
-6.35
  0
LTYPE
  2
DOTTINY
 70
    0
  3
Dot (.15x) .....................................
 72
   65
 73
    2
 40
0.9525
 49
0
 49
-0.9525
  0
LTYPE
  2
DOT2
 70
    0
  3
Dot (.5x) .....................................
 72
   65
 73
    2
 40
3.175
 49
0
 49
-3.175
  0
LTYPE
  2
DOTX2
 70
    0
  3
Dot (2x) .  .  .  .  .  .  .  .  .  .  .  .  .
 72
   65
 73
    2
 40
12.7
 49
0
 49
-12.7
  0
LTYPE
  2
DASHED
 70
    0
  3
Dashed _ _ _ _ _ _ _ _ _ _ _ _ _ _ _ _ _
 72
   65
 73
    2
 40
19.05
 49
12.7
 49
-6.35
  0
LTYPE
  2
DASHEDTINY
 70
    0
  3
Dashed (.15x) _ _ _ _ _ _ _ _ _ _ _ _ _ _ _ _ _
 72
   65
 73
    2
 40
2.8575
 49
1.905
 49
-0.9525
  0
LTYPE
  2
DASHED2
 70
    0
  3
Dashed (.5x) _ _ _ _ _ _ _ _ _ _ _ _ _ _ _ _ _
 72
   65
 73
    2
 40
9.524999999999999
 49
6.35
 49
-3.175
  0
LTYPE
  2
DASHEDX2
 70
    0
  3
Dashed (2x) ____  ____  ____  ____  ____  ___
 72
   65
 73
    2
 40
38.09999999999999
 49
25.4
 49
-12.7
  0
LTYPE
  2
DASHDOT
 70
    0
  3
Dash dot __ . __ . __ . __ . __ . __ . __ . __
 72
   65
 73
    4
 40
25.4
 49
12.7
 49
-6.35
 49
0
 49
-6.35
  0
LTYPE
  2
DASHDOTTINY
 70
    0
  3
Dash dot (.15x) _._._._._._._._._._._._._._._.
 72
   65
 73
    4
 40
3.81
 49
1.905
 49
-0.9525
 49
0
 49
-0.9525
  0
LTYPE
  2
DASHDOT2
 70
    0
  3
Dash dot (.5x) _._._._._._._._._._._._._._._.
 72
   65
 73
    4
 40
12.7
 49
6.35
 49
-3.175
 49
0
 49
-3.175
  0
LTYPE
  2
DASHDOTX2
 70
    0
  3
Dash dot (2x) ____  .  ____  .  ____  .  ___
 72
   65
 73
    4
 40
50.8
 49
25.4
 49
-12.7
 49
0
 49
-12.7
  0
LTYPE
  2
DIVIDE
 70
    0
  3
Divide ____ . . ____ . . ____ . . ____ . . ____
 72
   65
 73
    6
 40
31.75
 49
12.7
 49
-6.35
 49
0
 49
-6.35
 49
0
 49
-6.35
  0
LTYPE
  2
DIVIDETINY
 70
    0
  3
Divide (.15x) __..__..__..__..__..__..__..__.._
 72
   65
 73
    6
 40
4.7625
 49
1.905
 49
-0.9525
 49
0
 49
-0.9525
 49
0
 49
-0.9525
  0
LTYPE
  2
DIVIDE2
 70
    0
  3
Divide (.5x) __..__..__..__..__..__..__..__.._
 72
   65
 73
    6
 40
15.875
 49
6.35
 49
-3.175
 49
0
 49
-3.175
 49
0
 49
-3.175
  0
LTYPE
  2
DIVIDEX2
 70
    0
  3
Divide (2x) ________  .  .  ________  .  .  _
 72
   65
 73
    6
 40
63.5
 49
25.4
 49
-12.7
 49
0
 49
-12.7
 49
0
 49
-12.7
  0
LTYPE
  2
BORDER
 70
    0
  3
Border __ __ . __ __ . __ __ . __ __ . __ __ .
 72
   65
 73
    6
 40
44.45
 49
12.7
 49
-6.35
 49
12.7
 49
-6.35
 49
0
 49
-6.35
  0
LTYPE
  2
BORDERTINY
 70
    0
  3
Border (.15x) __.__.__.__.__.__.__.__.__.__.__.
 72
   65
 73
    6
 40
6.6675
 49
1.905
 49
-0.9525
 49
1.905
 49
-0.9525
 49
0
 49
-0.9525
  0
LTYPE
  2
BORDER2
 70
    0
  3
Border (.5x) __.__.__.__.__.__.__.__.__.__.__.
 72
   65
 73
    6
 40
22.225
 49
6.35
 49
-3.175
 49
6.35
 49
-3.175
 49
0
 49
-3.175
  0
LTYPE
  2
BORDERX2
 70
    0
  3
Border (2x) ____  ____  .  ____  ____  .  ___
 72
   65
 73
    6
 40
88.89999999999999
 49
25.4
 49
-12.7
 49
25.4
 49
-12.7
 49
0
 49
-12.7
  0
LTYPE
  2
CENTER
 70
    0
  3
Center ____ _ ____ _ ____ _ ____ _ ____ _ ____
 72
   65
 73
    4
 40
50.8
 49
31.75
 49
-6.35
 49
6.35
 49
-6.35
  0
LTYPE
  2
CENTERTINY
 70
    0
  3
Center (.15x) ___ _ ___ _ ___ _ ___ _ ___ _ ___
 72
   65
 73
    4
 40
7.62
 49
4.7625
 49
-0.9525
 49
0.9525
 49
-0.9525
  0
LTYPE
  2
CENTER2
 70
    0
  3
Center (.5x) ___ _ ___ _ ___ _ ___ _ ___ _ ___
 72
   65
 73
    4
 40
28.575
 49
19.05
 49
-3.175
 49
3.175
 49
-3.175
  0
LTYPE
  2
CENTERX2
 70
    0
  3
Center (2x) ________  __  ________  __  _____
 72
   65
 73
    4
 40
101.6
 49
63.5
 49
-12.7
 49
12.7
 49
-12.7
  0
ENDTAB
  0
TABLE
  2
LAYER
 70
    1
  0
LAYER
  2
0
 70
    0
 62
    7
  6
CONTINUOUS
  0
ENDTAB
  0
TABLE
  2
STYLE
 70
    3
  0
STYLE
  2
STANDARD
 70
    0
 40
0
 41
1
 50
0
 71
    0
 42
1
  3
TXT
  4

  0
ENDTAB
  0
TABLE
  2
VIEW
 70
    0
  0
ENDTAB
  0
TABLE
  2
UCS
 70
    0
  0
ENDTAB
  0
TABLE
  2
APPID
 70
    1
  0
APPID
  2
ACAD
 70
    0
  0
APPID
  2
LIBRECAD
 70
    0
  0
ENDTAB
  0
TABLE
  2
DIMSTYLE
 70
    1
  0
DIMSTYLE
  2
STANDARD
 70
    0
  3

  4

  5

  6

  7

 40
1
 41
2.5
 42
0.625
 43
0.38
 44
1.25
 45
0
 46
0
 47
0
 48
0
 49
1
140
2.5
141
0.09
142
2.5
143
25.4
144
1
145
0
146
1
147
0.625
 71
    0
 72
    0
 73
    0
 74
    1
 75
    0
 76
    0
 77
    0
 78
    1
170
    0
171
    2
172
    0
173
    0
174
    0
175
    0
176
    0
177
    0
178
    0
  0
ENDTAB
  0
ENDSEC
  0
SECTION
  2
BLOCKS
  0
BLOCK
  8
0
  2
$MODEL_SPACE
 70
    0
 10
0
 20
0
 30
0
  3
$MODEL_SPACE
  1

  0
ENDBLK
  8
0
  0
BLOCK
  8
0
  2
$PAPER_SPACE
 70
    0
 10
0
 20
0
 30
0
  3
$PAPER_SPACE
  1

  0
ENDBLK
  8
0
  0
ENDSEC
  0
SECTION
  2
ENTITIES
  0
POLYLINE
  5
31
  8
0
  6
BYLAYER
 62
    7
 66
    1
 10
0
 20
0
 30
0
 70
    0
  0
VERTEX
  5
32
  8
0
  6
BYLAYER
 62
    7
 10
15.583223
 20
22.049098
 30
0
  0
VERTEX
  5
33
  8
0
  6
BYLAYER
 62
    7
 10
14.66972415165654
 20
22.66731569500856
 30
0
  0
VERTEX
  5
34
  8
0
  6
BYLAYER
 62
    7
 10
13.73785129129603
 20
23.24431890866369
 30
0
  0
VERTEX
  5
35
  8
0
  6
BYLAYER
 62
    7
 10
12.78887159108456
 20
23.78010764036118
 30
0
  0
VERTEX
  5
36
  8
0
  6
BYLAYER
 62
    7
 10
11.82405222318821
 20
24.27468188949683
 30
0
  0
VERTEX
  5
37
  8
0
  6
BYLAYER
 62
    7
 10
10.84466035977309
 20
24.72804165546641
 30
0
  0
VERTEX
  5
38
  8
0
  6
BYLAYER
 62
    7
 10
9.85196317300527
 20
25.14018693766574
 30
0
  0
VERTEX
  5
39
  8
0
  6
BYLAYER
 62
    7
 10
8.847227835050854
 20
25.51111773549059
 30
0
  0
VERTEX
  5
3A
  8
0
  6
BYLAYER
 62
    7
 10
7.831721518075931
 20
25.84083404833675
 30
0
  0
VERTEX
  5
3B
  8
0
  6
BYLAYER
 62
    7
 10
6.806711394246586
 20
26.12933587560001
 30
0
  0
VERTEX
  5
3C
  8
0
  6
BYLAYER
 62
    7
 10
5.773464635728914
 20
26.37662321667618
 30
0
  0
VERTEX
  5
3D
  8
0
  6
BYLAYER
 62
    7
 10
4.733248414689003
 20
26.58269607096103
 30
0
  0
VERTEX
  5
3E
  8
0
  6
BYLAYER
 62
    7
 10
3.687329903292946
 20
26.74755443785036
 30
0
  0
VERTEX
  5
3F
  8
0
  6
BYLAYER
 62
    7
 10
2.636976273706829
 20
26.87119831673995
 30
0
  0
VERTEX
  5
40
  8
0
  6
BYLAYER
 62
    7
 10
1.583454698096747
 20
26.95362770702561
 30
0
  0
VERTEX
  5
41
  8
0
  6
BYLAYER
 62
    7
 10
0.5280323486287875
 20
26.99484260810312
 30
0
  0
VERTEX
  5
42
  8
0
  6
BYLAYER
 62
    7
 10
-0.5280236025309573
 20
26.99484301936827
 30
0
  0
VERTEX
  5
43
  8
0
  6
BYLAYER
 62
    7
 10
-1.583445983216399
 20
26.95362894021684
 30
0
  0
VERTEX
  5
44
  8
0
  6
BYLAYER
 62
    7
 10
-2.636967621261446
 20
26.87120037004464
 30
0
  0
VERTEX
  5
45
  8
0
  6
BYLAYER
 62
    7
 10
-3.687321344500007
 20
26.74755730824746
 30
0
  0
VERTEX
  5
46
  8
0
  6
BYLAYER
 62
    7
 10
-4.733239980765992
 20
26.58269975422107
 30
0
  0
VERTEX
  5
47
  8
0
  6
BYLAYER
 62
    7
 10
-5.773456357893311
 20
26.37662770736129
 30
0
  0
VERTEX
  5
48
  8
0
  6
BYLAYER
 62
    7
 10
-6.806703303715874
 20
26.12934116706388
 30
0
  0
VERTEX
  5
49
  8
0
  6
BYLAYER
 62
    7
 10
-7.831713646067591
 20
25.84084013272465
 30
0
  0
VERTEX
  5
4A
  8
0
  6
BYLAYER
 62
    7
 10
-8.84722021278237
 20
25.51112460373939
 30
0
  0
VERTEX
  5
4B
  8
0
  6
BYLAYER
 62
    7
 10
-9.85195583169412
 20
25.14019457950388
 30
0
  0
VERTEX
  5
4C
  8
0
  6
BYLAYER
 62
    7
 10
-10.84465333063675
 20
24.72805005941392
 30
0
  0
VERTEX
  5
4D
  8
0
  6
BYLAYER
 62
    7
 10
-11.82404553744418
 20
24.2746910428653
 30
0
  0
VERTEX
  5
4E
  8
0
  6
BYLAYER
 62
    7
 10
-12.7888652799503
 20
23.78011752925381
 30
0
  0
VERTEX
  5
4F
  8
0
  6
BYLAYER
 62
    7
 10
-13.73784538598904
 20
23.24432951797523
 30
0
  0
VERTEX
  5
50
  8
0
  6
BYLAYER
 62
    7
 10
-14.6697186833943
 20
22.66732700842537
 30
0
  0
VERTEX
  5
51
  8
0
  6
BYLAYER
 62
    7
 10
-15.583218
 20
22.04911
 30
0
  0
SEQEND
  5
52
  8
0
  6
BYLAYER
 62
    7
  0
POLYLINE
  5
53
  8
0
  6
BYLAYER
 62
    7
 66
    1
 10
0
 20
0
 30
0
 70
    0
  0
VERTEX
  5
54
  8
0
  6
BYLAYER
 62
    7
 10
15.583223
 20
22.049098
 30
0
  0
VERTEX
  5
55
  8
0
  6
BYLAYER
 62
    7
 10
15.54040912738746
 20
21.87263785807794
 30
0
  0
VERTEX
  5
56
  8
0
  6
BYLAYER
 62
    7
 10
15.50379988798631
 20
21.6956035181095
 30
0
  0
VERTEX
  5
57
  8
0
  6
BYLAYER
 62
    7
 10
15.47335588170924
 20
21.51814007653318
 30
0
  0
VERTEX
  5
58
  8
0
  6
BYLAYER
 62
    7
 10
15.449037708469
 20
21.34039262978752
 30
0
  0
VERTEX
  5
59
  8
0
  6
BYLAYER
 62
    7
 10
15.43080596817831
 20
21.16250627431103
 30
0
  0
VERTEX
  5
5A
  8
0
  6
BYLAYER
 62
    7
 10
15.41862126074989
 20
20.98462610654224
 30
0
  0
VERTEX
  5
5B
  8
0
  6
BYLAYER
 62
    7
 10
15.41244418609647
 20
20.80689722291967
 30
0
  0
VERTEX
  5
5C
  8
0
  6
BYLAYER
 62
    7
 10
15.41223534413078
 20
20.62946471988184
 30
0
  0
VERTEX
  5
5D
  8
0
  6
BYLAYER
 62
    7
 10
15.41795533476553
 20
20.45247369386727
 30
0
  0
VERTEX
  5
5E
  8
0
  6
BYLAYER
 62
    7
 10
15.42956475791346
 20
20.27606924131449
 30
0
  0
VERTEX
  5
5F
  8
0
  6
BYLAYER
 62
    7
 10
15.44702421348729
 20
20.10039645866201
 30
0
  0
VERTEX
  5
60
  8
0
  6
BYLAYER
 62
    7
 10
15.47029430139975
 20
19.92560044234836
 30
0
  0
VERTEX
  5
61
  8
0
  6
BYLAYER
 62
    7
 10
15.49933562156356
 20
19.75182628881206
 30
0
  0
VERTEX
  5
62
  8
0
  6
BYLAYER
 62
    7
 10
15.53410877389144
 20
19.57921909449163
 30
0
  0
VERTEX
  5
63
  8
0
  6
BYLAYER
 62
    7
 10
15.57457435829613
 20
19.40792395582558
 30
0
  0
VERTEX
  5
64
  8
0
  6
BYLAYER
 62
    7
 10
15.62069297469034
 20
19.23808596925246
 30
0
  0
VERTEX
  5
65
  8
0
  6
BYLAYER
 62
    7
 10
15.67242522298681
 20
19.06985023121077
 30
0
  0
VERTEX
  5
66
  8
0
  6
BYLAYER
 62
    7
 10
15.72973170309825
 20
18.90336183813904
 30
0
  0
VERTEX
  5
67
  8
0
  6
BYLAYER
 62
    7
 10
15.7925730149374
 20
18.73876588647578
 30
0
  0
VERTEX
  5
68
  8
0
  6
BYLAYER
 62
    7
 10
15.86090975841697
 20
18.57620747265953
 30
0
  0
VERTEX
  5
69
  8
0
  6
BYLAYER
 62
    7
 10
15.9347025334497
 20
18.4158316931288
 30
0
  0
VERTEX
  5
6A
  8
0
  6
BYLAYER
 62
    7
 10
16.01391193994831
 20
18.25778364432211
 30
0
  0
VERTEX
  5
6B
  8
0
  6
BYLAYER
 62
    7
 10
16.09849857782552
 20
18.10220842267799
 30
0
  0
VERTEX
  5
6C
  8
0
  6
BYLAYER
 62
    7
 10
16.18842304699406
 20
17.94925112463496
 30
0
  0
VERTEX
  5
6D
  8
0
  6
BYLAYER
 62
    7
 10
16.28364594736665
 20
17.79905684663154
 30
0
  0
VERTEX
  5
6E
  8
0
  6
BYLAYER
 62
    7
 10
16.38412787885603
 20
17.65177068510624
 30
0
  0
VERTEX
  5
6F
  8
0
  6
BYLAYER
 62
    7
 10
16.48982944137491
 20
17.5075377364976
 30
0
  0
VERTEX
  5
70
  8
0
  6
BYLAYER
 62
    7
 10
16.60071123483602
 20
17.36650309724413
 30
0
  0
VERTEX
  5
71
  8
0
  6
BYLAYER
 62
    7
 10
16.71673385915209
 20
17.22881186378437
 30
0
  0
VERTEX
  5
72
  8
0
  6
BYLAYER
 62
    7
 10
16.83785791423584
 20
17.09460913255682
 30
0
  0
VERTEX
  5
73
  8
0
  6
BYLAYER
 62
    7
 10
16.964044
 20
16.96404
 30
0
  0
SEQEND
  5
74
  8
0
  6
BYLAYER
 62
    7
  0
POLYLINE
  5
75
  8
0
  6
BYLAYER
 62
    7
 66
    1
 10
0
 20
0
 30
0
 70
    0
  0
VERTEX
  5
76
  8
0
  6
BYLAYER
 62
    7
 10
16.964044
 20
16.96404
 30
0
  0
VERTEX
  5
77
  8
0
  6
BYLAYER
 62
    7
 10
17.09461313255681
 20
16.83785391423584
 30
0
  0
VERTEX
  5
78
  8
0
  6
BYLAYER
 62
    7
 10
17.22881586378437
 20
16.71672985915209
 30
0
  0
VERTEX
  5
79
  8
0
  6
BYLAYER
 62
    7
 10
17.36650709724413
 20
16.60070723483603
 30
0
  0
VERTEX
  5
7A
  8
0
  6
BYLAYER
 62
    7
 10
17.5075417364976
 20
16.48982544137492
 30
0
  0
VERTEX
  5
7B
  8
0
  6
BYLAYER
 62
    7
 10
17.65177468510624
 20
16.38412387885603
 30
0
  0
VERTEX
  5
7C
  8
0
  6
BYLAYER
 62
    7
 10
17.79906084663154
 20
16.28364194736666
 30
0
  0
VERTEX
  5
7D
  8
0
  6
BYLAYER
 62
    7
 10
17.94925512463496
 20
16.18841904699406
 30
0
  0
VERTEX
  5
7E
  8
0
  6
BYLAYER
 62
    7
 10
18.10221242267799
 20
16.09849457782552
 30
0
  0
VERTEX
  5
7F
  8
0
  6
BYLAYER
 62
    7
 10
18.25778764432211
 20
16.0139079399483
 30
0
  0
VERTEX
  5
80
  8
0
  6
BYLAYER
 62
    7
 10
18.41583569312879
 20
15.9346985334497
 30
0
  0
VERTEX
  5
81
  8
0
  6
BYLAYER
 62
    7
 10
18.57621147265953
 20
15.86090575841697
 30
0
  0
VERTEX
  5
82
  8
0
  6
BYLAYER
 62
    7
 10
18.73876988647578
 20
15.7925690149374
 30
0
  0
VERTEX
  5
83
  8
0
  6
BYLAYER
 62
    7
 10
18.90336583813903
 20
15.72972770309825
 30
0
  0
VERTEX
  5
84
  8
0
  6
BYLAYER
 62
    7
 10
19.06985423121077
 20
15.67242122298681
 30
0
  0
VERTEX
  5
85
  8
0
  6
BYLAYER
 62
    7
 10
19.23808996925246
 20
15.62068897469034
 30
0
  0
VERTEX
  5
86
  8
0
  6
BYLAYER
 62
    7
 10
19.40792795582558
 20
15.57457035829613
 30
0
  0
VERTEX
  5
87
  8
0
  6
BYLAYER
 62
    7
 10
19.57922309449162
 20
15.53410477389144
 30
0
  0
VERTEX
  5
88
  8
0
  6
BYLAYER
 62
    7
 10
19.75183028881206
 20
15.49933162156356
 30
0
  0
VERTEX
  5
89
  8
0
  6
BYLAYER
 62
    7
 10
19.92560444234836
 20
15.47029030139975
 30
0
  0
VERTEX
  5
8A
  8
0
  6
BYLAYER
 62
    7
 10
20.10040045866201
 20
15.4470202134873
 30
0
  0
VERTEX
  5
8B
  8
0
  6
BYLAYER
 62
    7
 10
20.27607324131449
 20
15.42956075791346
 30
0
  0
VERTEX
  5
8C
  8
0
  6
BYLAYER
 62
    7
 10
20.45247769386727
 20
15.41795133476553
 30
0
  0
VERTEX
  5
8D
  8
0
  6
BYLAYER
 62
    7
 10
20.62946871988184
 20
15.41223134413078
 30
0
  0
VERTEX
  5
8E
  8
0
  6
BYLAYER
 62
    7
 10
20.80690122291967
 20
15.41244018609647
 30
0
  0
VERTEX
  5
8F
  8
0
  6
BYLAYER
 62
    7
 10
20.98463010654224
 20
15.41861726074989
 30
0
  0
VERTEX
  5
90
  8
0
  6
BYLAYER
 62
    7
 10
21.16251027431103
 20
15.43080196817831
 30
0
  0
VERTEX
  5
91
  8
0
  6
BYLAYER
 62
    7
 10
21.34039662978752
 20
15.449033708469
 30
0
  0
VERTEX
  5
92
  8
0
  6
BYLAYER
 62
    7
 10
21.51814407653318
 20
15.47335188170924
 30
0
  0
VERTEX
  5
93
  8
0
  6
BYLAYER
 62
    7
 10
21.69560751810949
 20
15.5037958879863
 30
0
  0
VERTEX
  5
94
  8
0
  6
BYLAYER
 62
    7
 10
21.87264185807794
 20
15.54040512738747
 30
0
  0
VERTEX
  5
95
  8
0
  6
BYLAYER
 62
    7
 10
22.049102
 20
15.583219
 30
0
  0
SEQEND
  5
96
  8
0
  6
BYLAYER
 62
    7
  0
POLYLINE
  5
97
  8
0
  6
BYLAYER
 62
    7
 66
    1
 10
0
 20
0
 30
0
 70
    0
  0
VERTEX
  5
98
  8
0
  6
BYLAYER
 62
    7
 10
22.049114
 20
-15.583222
 30
0
  0
VERTEX
  5
99
  8
0
  6
BYLAYER
 62
    7
 10
22.66733100842536
 20
-14.66972268339431
 30
0
  0
VERTEX
  5
9A
  8
0
  6
BYLAYER
 62
    7
 10
23.24433351797523
 20
-13.73784938598906
 30
0
  0
VERTEX
  5
9B
  8
0
  6
BYLAYER
 62
    7
 10
23.7801215292538
 20
-12.78886927995032
 30
0
  0
VERTEX
  5
9C
  8
0
  6
BYLAYER
 62
    7
 10
24.2746950428653
 20
-11.82404953744419
 30
0
  0
VERTEX
  5
9D
  8
0
  6
BYLAYER
 62
    7
 10
24.72805405941392
 20
-10.84465733063677
 30
0
  0
VERTEX
  5
9E
  8
0
  6
BYLAYER
 62
    7
 10
25.14019857950388
 20
-9.851959831694137
 30
0
  0
VERTEX
  5
9F
  8
0
  6
BYLAYER
 62
    7
 10
25.51112860373939
 20
-8.847224212782384
 30
0
  0
VERTEX
  5
A0
  8
0
  6
BYLAYER
 62
    7
 10
25.84084413272465
 20
-7.831717646067606
 30
0
  0
VERTEX
  5
A1
  8
0
  6
BYLAYER
 62
    7
 10
26.12934516706387
 20
-6.806707303715889
 30
0
  0
VERTEX
  5
A2
  8
0
  6
BYLAYER
 62
    7
 10
26.37663170736128
 20
-5.773460357893326
 30
0
  0
VERTEX
  5
A3
  8
0
  6
BYLAYER
 62
    7
 10
26.58270375422107
 20
-4.733243980766007
 30
0
  0
VERTEX
  5
A4
  8
0
  6
BYLAYER
 62
    7
 10
26.74756130824746
 20
-3.687325344500021
 30
0
  0
VERTEX
  5
A5
  8
0
  6
BYLAYER
 62
    7
 10
26.87120437004464
 20
-2.636971621261459
 30
0
  0
VERTEX
  5
A6
  8
0
  6
BYLAYER
 62
    7
 10
26.95363294021685
 20
-1.583449983216414
 30
0
  0
VERTEX
  5
A7
  8
0
  6
BYLAYER
 62
    7
 10
26.99484701936827
 20
-0.5280276025309723
 30
0
  0
VERTEX
  5
A8
  8
0
  6
BYLAYER
 62
    7
 10
26.99484660810312
 20
0.528028348628772
 30
0
  0
VERTEX
  5
A9
  8
0
  6
BYLAYER
 62
    7
 10
26.95363170702561
 20
1.583450698096731
 30
0
  0
VERTEX
  5
AA
  8
0
  6
BYLAYER
 62
    7
 10
26.87120231673996
 20
2.636972273706815
 30
0
  0
VERTEX
  5
AB
  8
0
  6
BYLAYER
 62
    7
 10
26.74755843785036
 20
3.68732590329293
 30
0
  0
VERTEX
  5
AC
  8
0
  6
BYLAYER
 62
    7
 10
26.58270007096103
 20
4.733244414688988
 30
0
  0
VERTEX
  5
AD
  8
0
  6
BYLAYER
 62
    7
 10
26.37662721667618
 20
5.773460635728899
 30
0
  0
VERTEX
  5
AE
  8
0
  6
BYLAYER
 62
    7
 10
26.12933987560002
 20
6.806707394246571
 30
0
  0
VERTEX
  5
AF
  8
0
  6
BYLAYER
 62
    7
 10
25.84083804833675
 20
7.831717518075916
 30
0
  0
VERTEX
  5
B0
  8
0
  6
BYLAYER
 62
    7
 10
25.51112173549059
 20
8.847223835050841
 30
0
  0
VERTEX
  5
B1
  8
0
  6
BYLAYER
 62
    7
 10
25.14019093766574
 20
9.851959173005255
 30
0
  0
VERTEX
  5
B2
  8
0
  6
BYLAYER
 62
    7
 10
24.72804565546642
 20
10.84465635977307
 30
0
  0
VERTEX
  5
B3
  8
0
  6
BYLAYER
 62
    7
 10
24.27468588949684
 20
11.82404822318819
 30
0
  0
VERTEX
  5
B4
  8
0
  6
BYLAYER
 62
    7
 10
23.78011164036119
 20
12.78886759108454
 30
0
  0
VERTEX
  5
B5
  8
0
  6
BYLAYER
 62
    7
 10
23.2443229086637
 20
13.73784729129601
 30
0
  0
VERTEX
  5
B6
  8
0
  6
BYLAYER
 62
    7
 10
22.66731969500857
 20
14.66972015165652
 30
0
  0
VERTEX
  5
B7
  8
0
  6
BYLAYER
 62
    7
 10
22.049102
 20
15.583219
 30
0
  0
SEQEND
  5
B8
  8
0
  6
BYLAYER
 62
    7
  0
POLYLINE
  5
B9
  8
0
  6
BYLAYER
 62
    7
 66
    1
 10
0
 20
0
 30
0
 70
    0
  0
VERTEX
  5
BA
  8
0
  6
BYLAYER
 62
    7
 10
22.049114
 20
-15.583222
 30
0
  0
VERTEX
  5
BB
  8
0
  6
BYLAYER
 62
    7
 10
21.87265395179752
 20
-15.54040822107348
 30
0
  0
VERTEX
  5
BC
  8
0
  6
BYLAYER
 62
    7
 10
21.69561969970797
 20
-15.50379906931624
 30
0
  0
VERTEX
  5
BD
  8
0
  6
BYLAYER
 62
    7
 10
21.51815634057266
 20
-15.4733551448424
 30
0
  0
VERTEX
  5
BE
  8
0
  6
BYLAYER
 62
    7
 10
21.34040897123293
 20
-15.44903704776611
 30
0
  0
VERTEX
  5
BF
  8
0
  6
BYLAYER
 62
    7
 10
21.16252268853009
 20
-15.43080537820147
 30
0
  0
VERTEX
  5
C0
  8
0
  6
BYLAYER
 62
    7
 10
20.9846425893055
 20
-15.41862073626263
 30
0
  0
VERTEX
  5
C1
  8
0
  6
BYLAYER
 62
    7
 10
20.80691377040045
 20
-15.41244372206371
 30
0
  0
VERTEX
  5
C2
  8
0
  6
BYLAYER
 62
    7
 10
20.6294813286563
 20
-15.41223493571884
 30
0
  0
VERTEX
  5
C3
  8
0
  6
BYLAYER
 62
    7
 10
20.45249036091437
 20
-15.41795497734215
 30
0
  0
VERTEX
  5
C4
  8
0
  6
BYLAYER
 62
    7
 10
20.27608596401598
 20
-15.42956444704777
 30
0
  0
VERTEX
  5
C5
  8
0
  6
BYLAYER
 62
    7
 10
20.10041323480246
 20
-15.44702394494982
 30
0
  0
VERTEX
  5
C6
  8
0
  6
BYLAYER
 62
    7
 10
19.92561727011514
 20
-15.47029407116243
 30
0
  0
VERTEX
  5
C7
  8
0
  6
BYLAYER
 62
    7
 10
19.75184316679534
 20
-15.49933542579974
 30
0
  0
VERTEX
  5
C8
  8
0
  6
BYLAYER
 62
    7
 10
19.5792360216844
 20
-15.53410860897586
 30
0
  0
VERTEX
  5
C9
  8
0
  6
BYLAYER
 62
    7
 10
19.40794093162364
 20
-15.57457422080494
 30
0
  0
VERTEX
  5
CA
  8
0
  6
BYLAYER
 62
    7
 10
19.2381029934544
 20
-15.62069286140109
 30
0
  0
VERTEX
  5
CB
  8
0
  6
BYLAYER
 62
    7
 10
19.06986730401799
 20
-15.67242513087845
 30
0
  0
VERTEX
  5
CC
  8
0
  6
BYLAYER
 62
    7
 10
18.90337896015575
 20
-15.72973162935115
 30
0
  0
VERTEX
  5
CD
  8
0
  6
BYLAYER
 62
    7
 10
18.73878305870901
 20
-15.7925729569333
 30
0
  0
VERTEX
  5
CE
  8
0
  6
BYLAYER
 62
    7
 10
18.57622469651908
 20
-15.86090971373905
 30
0
  0
VERTEX
  5
CF
  8
0
  6
BYLAYER
 62
    7
 10
18.41584897042731
 20
-15.93470249988251
 30
0
  0
VERTEX
  5
D0
  8
0
  6
BYLAYER
 62
    7
 10
18.25780097727502
 20
-16.01391191547783
 30
0
  0
VERTEX
  5
D1
  8
0
  6
BYLAYER
 62
    7
 10
18.10222581390353
 20
-16.09849856063912
 30
0
  0
VERTEX
  5
D2
  8
0
  6
BYLAYER
 62
    7
 10
17.94926857715418
 20
-16.18842303548051
 30
0
  0
VERTEX
  5
D3
  8
0
  6
BYLAYER
 62
    7
 10
17.79907436386829
 20
-16.28364594011614
 30
0
  0
VERTEX
  5
D4
  8
0
  6
BYLAYER
 62
    7
 10
17.65178827088718
 20
-16.38412787466013
 30
0
  0
VERTEX
  5
D5
  8
0
  6
BYLAYER
 62
    7
 10
17.5075553950522
 20
-16.48982943922661
 30
0
  0
VERTEX
  5
D6
  8
0
  6
BYLAYER
 62
    7
 10
17.36652083320466
 20
-16.60071123392971
 30
0
  0
VERTEX
  5
D7
  8
0
  6
BYLAYER
 62
    7
 10
17.2288296821859
 20
-16.71673385888355
 30
0
  0
VERTEX
  5
D8
  8
0
  6
BYLAYER
 62
    7
 10
17.09462703883723
 20
-16.83785791420227
 30
0
  0
VERTEX
  5
D9
  8
0
  6
BYLAYER
 62
    7
 10
16.964058
 20
-16.964044
 30
0
  0
SEQEND
  5
DA
  8
0
  6
BYLAYER
 62
    7
  0
POLYLINE
  5
DB
  8
0
  6
BYLAYER
 62
    7
 66
    1
 10
0
 20
0
 30
0
 70
    0
  0
VERTEX
  5
DC
  8
0
  6
BYLAYER
 62
    7
 10
16.964058
 20
-16.964044
 30
0
  0
VERTEX
  5
DD
  8
0
  6
BYLAYER
 62
    7
 10
16.83787200785472
 20
-17.09461303581619
 30
0
  0
VERTEX
  5
DE
  8
0
  6
BYLAYER
 62
    7
 10
16.71674803994495
 20
-17.22881567050452
 30
0
  0
VERTEX
  5
DF
  8
0
  6
BYLAYER
 62
    7
 10
16.60072549615656
 20
-17.36650680782787
 30
0
  0
VERTEX
  5
E0
  8
0
  6
BYLAYER
 62
    7
 10
16.48984377637542
 20
-17.50754135154913
 30
0
  0
VERTEX
  5
E1
  8
0
  6
BYLAYER
 62
    7
 10
16.3841422804874
 20
-17.65177420543117
 30
0
  0
VERTEX
  5
E2
  8
0
  6
BYLAYER
 62
    7
 10
16.28366040837837
 20
-17.79906027323688
 30
0
  0
VERTEX
  5
E3
  8
0
  6
BYLAYER
 62
    7
 10
16.18843755993421
 20
-17.94925445872915
 30
0
  0
VERTEX
  5
E4
  8
0
  6
BYLAYER
 62
    7
 10
16.09851313504079
 20
-18.10221166567084
 30
0
  0
VERTEX
  5
E5
  8
0
  6
BYLAYER
 62
    7
 10
16.01392653358397
 20
-18.25778679782484
 30
0
  0
VERTEX
  5
E6
  8
0
  6
BYLAYER
 62
    7
 10
15.93471715544963
 20
-18.41583475895404
 30
0
  0
VERTEX
  5
E7
  8
0
  6
BYLAYER
 62
    7
 10
15.86092440052365
 20
-18.57621045282132
 30
0
  0
VERTEX
  5
E8
  8
0
  6
BYLAYER
 62
    7
 10
15.79258766869189
 20
-18.73876878318955
 30
0
  0
VERTEX
  5
E9
  8
0
  6
BYLAYER
 62
    7
 10
15.72974635984022
 20
-18.90336465382162
 30
0
  0
VERTEX
  5
EA
  8
0
  6
BYLAYER
 62
    7
 10
15.67243987385452
 20
-19.06985296848041
 30
0
  0
VERTEX
  5
EB
  8
0
  6
BYLAYER
 62
    7
 10
15.62070761062066
 20
-19.2380886309288
 30
0
  0
VERTEX
  5
EC
  8
0
  6
BYLAYER
 62
    7
 10
15.5745889700245
 20
-19.40792654492968
 30
0
  0
VERTEX
  5
ED
  8
0
  6
BYLAYER
 62
    7
 10
15.53412335195193
 20
-19.57922161424591
 30
0
  0
VERTEX
  5
EE
  8
0
  6
BYLAYER
 62
    7
 10
15.49935015628881
 20
-19.75182874264039
 30
0
  0
VERTEX
  5
EF
  8
0
  6
BYLAYER
 62
    7
 10
15.47030878292102
 20
-19.925602833876
 30
0
  0
VERTEX
  5
F0
  8
0
  6
BYLAYER
 62
    7
 10
15.44703863173442
 20
-20.10039879171562
 30
0
  0
VERTEX
  5
F1
  8
0
  6
BYLAYER
 62
    7
 10
15.42957910261488
 20
-20.27607151992212
 30
0
  0
VERTEX
  5
F2
  8
0
  6
BYLAYER
 62
    7
 10
15.41796959544829
 20
-20.4524759222584
 30
0
  0
VERTEX
  5
F3
  8
0
  6
BYLAYER
 62
    7
 10
15.41224951012051
 20
-20.62946690248733
 30
0
  0
VERTEX
  5
F4
  8
0
  6
BYLAYER
 62
    7
 10
15.4124582465174
 20
-20.80689936437179
 30
0
  0
VERTEX
  5
F5
  8
0
  6
BYLAYER
 62
    7
 10
15.41863520452486
 20
-20.98462821167466
 30
0
  0
VERTEX
  5
F6
  8
0
  6
BYLAYER
 62
    7
 10
15.43081978402873
 20
-21.16250834815883
 30
0
  0
VERTEX
  5
F7
  8
0
  6
BYLAYER
 62
    7
 10
15.44905138491491
 20
-21.34039467758719
 30
0
  0
VERTEX
  5
F8
  8
0
  6
BYLAYER
 62
    7
 10
15.47336940706925
 20
-21.5181421037226
 30
0
  0
VERTEX
  5
F9
  8
0
  6
BYLAYER
 62
    7
 10
15.50381325037763
 20
-21.69560553032795
 30
0
  0
VERTEX
  5
FA
  8
0
  6
BYLAYER
 62
    7
 10
15.54042231472592
 20
-21.87263986116612
 30
0
  0
VERTEX
  5
FB
  8
0
  6
BYLAYER
 62
    7
 10
15.583236
 20
-22.0491
 30
0
  0
SEQEND
  5
FC
  8
0
  6
BYLAYER
 62
    7
  0
POLYLINE
  5
FD
  8
0
  6
BYLAYER
 62
    7
 66
    1
 10
0
 20
0
 30
0
 70
    0
  0
VERTEX
  5
FE
  8
0
  6
BYLAYER
 62
    7
 10
-15.583223
 20
-22.049106
 30
0
  0
VERTEX
  5
FF
  8
0
  6
BYLAYER
 62
    7
 10
-14.6697233716223
 20
-22.66732395119331
 30
0
  0
VERTEX
  5
100
  8
0
  6
BYLAYER
 62
    7
 10
-13.7378497211574
 20
-23.24432735356316
 30
0
  0
VERTEX
  5
101
  8
0
  6
BYLAYER
 62
    7
 10
-12.78886922318821
 20
-23.78011620771374
 30
0
  0
VERTEX
  5
102
  8
0
  6
BYLAYER
 62
    7
 10
-11.82404905229768
 20
-24.27469051424927
 30
0
  0
VERTEX
  5
103
  8
0
  6
BYLAYER
 62
    7
 10
-10.84465638306871
 20
-24.72805027377396
 30
0
  0
VERTEX
  5
104
  8
0
  6
BYLAYER
 62
    7
 10
-9.851958390084254
 20
-25.14019548689201
 30
0
  0
VERTEX
  5
105
  8
0
  6
BYLAYER
 62
    7
 10
-8.847222247927228
 20
-25.51112615420765
 30
0
  0
VERTEX
  5
106
  8
0
  6
BYLAYER
 62
    7
 10
-7.831715131180559
 20
-25.84084227632506
 30
0
  0
VERTEX
  5
107
  8
0
  6
BYLAYER
 62
    7
 10
-6.806704214427177
 20
-26.12934385384848
 30
0
  0
VERTEX
  5
108
  8
0
  6
BYLAYER
 62
    7
 10
-5.773456672250011
 20
-26.3766308873821
 30
0
  0
VERTEX
  5
109
  8
0
  6
BYLAYER
 62
    7
 10
-4.733239679231986
 20
-26.58270337753013
 30
0
  0
VERTEX
  5
10A
  8
0
  6
BYLAYER
 62
    7
 10
-3.687320409956031
 20
-26.74756132489678
 30
0
  0
VERTEX
  5
10B
  8
0
  6
BYLAYER
 62
    7
 10
-2.636966039005074
 20
-26.87120473008627
 30
0
  0
VERTEX
  5
10C
  8
0
  6
BYLAYER
 62
    7
 10
-1.583443740962042
 20
-26.9536335937028
 30
0
  0
VERTEX
  5
10D
  8
0
  6
BYLAYER
 62
    7
 10
-0.5280206904098625
 20
-26.99484791635058
 30
0
  0
VERTEX
  5
10E
  8
0
  6
BYLAYER
 62
    7
 10
0.5280359380685358
 20
-26.99484769863382
 30
0
  0
VERTEX
  5
10F
  8
0
  6
BYLAYER
 62
    7
 10
1.583458969890226
 20
-26.95363294115673
 30
0
  0
VERTEX
  5
110
  8
0
  6
BYLAYER
 62
    7
 10
2.636981230472281
 20
-26.87120364452351
 30
0
  0
VERTEX
  5
111
  8
0
  6
BYLAYER
 62
    7
 10
3.687335545231771
 20
-26.74755980933839
 30
0
  0
VERTEX
  5
112
  8
0
  6
BYLAYER
 62
    7
 10
4.733254739585769
 20
-26.58270143620557
 30
0
  0
VERTEX
  5
113
  8
0
  6
BYLAYER
 62
    7
 10
5.773471638951348
 20
-26.37662852572925
 30
0
  0
VERTEX
  5
114
  8
0
  6
BYLAYER
 62
    7
 10
6.806719068745581
 20
-26.12934107851365
 30
0
  0
VERTEX
  5
115
  8
0
  6
BYLAYER
 62
    7
 10
7.831729854385539
 20
-25.84083909516298
 30
0
  0
VERTEX
  5
116
  8
0
  6
BYLAYER
 62
    7
 10
8.847236821288295
 20
-25.51112257628143
 30
0
  0
VERTEX
  5
117
  8
0
  6
BYLAYER
 62
    7
 10
9.851972794870919
 20
-25.14019152247323
 30
0
  0
VERTEX
  5
118
  8
0
  6
BYLAYER
 62
    7
 10
10.84467060055048
 20
-24.72804593434259
 30
0
  0
VERTEX
  5
119
  8
0
  6
BYLAYER
 62
    7
 10
11.82406306374407
 20
-24.27468581249371
 30
0
  0
VERTEX
  5
11A
  8
0
  6
BYLAYER
 62
    7
 10
12.78888300986873
 20
-23.78011115753081
 30
0
  0
VERTEX
  5
11B
  8
0
  6
BYLAYER
 62
    7
 10
13.73786326434156
 20
-23.24432197005808
 30
0
  0
VERTEX
  5
11C
  8
0
  6
BYLAYER
 62
    7
 10
14.66973665257962
 20
-22.66731825067975
 30
0
  0
VERTEX
  5
11D
  8
0
  6
BYLAYER
 62
    7
 10
15.583236
 20
-22.0491
 30
0
  0
SEQEND
  5
11E
  8
0
  6
BYLAYER
 62
    7
  0
POLYLINE
  5
11F
  8
0
  6
BYLAYER
 62
    7
 66
    1
 10
0
 20
0
 30
0
 70
    0
  0
VERTEX
  5
120
  8
0
  6
BYLAYER
 62
    7
 10
-15.583223
 20
-22.049106
 30
0
  0
VERTEX
  5
121
  8
0
  6
BYLAYER
 62
    7
 10
-15.54040912738746
 20
-21.87264585807794
 30
0
  0
VERTEX
  5
122
  8
0
  6
BYLAYER
 62
    7
 10
-15.50379988798631
 20
-21.6956115181095
 30
0
  0
VERTEX
  5
123
  8
0
  6
BYLAYER
 62
    7
 10
-15.47335588170924
 20
-21.51814807653318
 30
0
  0
VERTEX
  5
124
  8
0
  6
BYLAYER
 62
    7
 10
-15.449037708469
 20
-21.34040062978752
 30
0
  0
VERTEX
  5
125
  8
0
  6
BYLAYER
 62
    7
 10
-15.43080596817831
 20
-21.16251427431104
 30
0
  0
VERTEX
  5
126
  8
0
  6
BYLAYER
 62
    7
 10
-15.41862126074989
 20
-20.98463410654225
 30
0
  0
VERTEX
  5
127
  8
0
  6
BYLAYER
 62
    7
 10
-15.41244418609647
 20
-20.80690522291967
 30
0
  0
VERTEX
  5
128
  8
0
  6
BYLAYER
 62
    7
 10
-15.41223534413078
 20
-20.62947271988184
 30
0
  0
VERTEX
  5
129
  8
0
  6
BYLAYER
 62
    7
 10
-15.41795533476553
 20
-20.45248169386727
 30
0
  0
VERTEX
  5
12A
  8
0
  6
BYLAYER
 62
    7
 10
-15.42956475791346
 20
-20.27607724131449
 30
0
  0
VERTEX
  5
12B
  8
0
  6
BYLAYER
 62
    7
 10
-15.44702421348729
 20
-20.10040445866201
 30
0
  0
VERTEX
  5
12C
  8
0
  6
BYLAYER
 62
    7
 10
-15.47029430139975
 20
-19.92560844234836
 30
0
  0
VERTEX
  5
12D
  8
0
  6
BYLAYER
 62
    7
 10
-15.49933562156356
 20
-19.75183428881206
 30
0
  0
VERTEX
  5
12E
  8
0
  6
BYLAYER
 62
    7
 10
-15.53410877389144
 20
-19.57922709449162
 30
0
  0
VERTEX
  5
12F
  8
0
  6
BYLAYER
 62
    7
 10
-15.57457435829613
 20
-19.40793195582559
 30
0
  0
VERTEX
  5
130
  8
0
  6
BYLAYER
 62
    7
 10
-15.62069297469034
 20
-19.23809396925246
 30
0
  0
VERTEX
  5
131
  8
0
  6
BYLAYER
 62
    7
 10
-15.67242522298681
 20
-19.06985823121077
 30
0
  0
VERTEX
  5
132
  8
0
  6
BYLAYER
 62
    7
 10
-15.72973170309825
 20
-18.90336983813904
 30
0
  0
VERTEX
  5
133
  8
0
  6
BYLAYER
 62
    7
 10
-15.7925730149374
 20
-18.73877388647578
 30
0
  0
VERTEX
  5
134
  8
0
  6
BYLAYER
 62
    7
 10
-15.86090975841697
 20
-18.57621547265953
 30
0
  0
VERTEX
  5
135
  8
0
  6
BYLAYER
 62
    7
 10
-15.9347025334497
 20
-18.4158396931288
 30
0
  0
VERTEX
  5
136
  8
0
  6
BYLAYER
 62
    7
 10
-16.01391193994831
 20
-18.25779164432211
 30
0
  0
VERTEX
  5
137
  8
0
  6
BYLAYER
 62
    7
 10
-16.09849857782552
 20
-18.10221642267799
 30
0
  0
VERTEX
  5
138
  8
0
  6
BYLAYER
 62
    7
 10
-16.18842304699406
 20
-17.94925912463496
 30
0
  0
VERTEX
  5
139
  8
0
  6
BYLAYER
 62
    7
 10
-16.28364594736665
 20
-17.79906484663153
 30
0
  0
VERTEX
  5
13A
  8
0
  6
BYLAYER
 62
    7
 10
-16.38412787885603
 20
-17.65177868510624
 30
0
  0
VERTEX
  5
13B
  8
0
  6
BYLAYER
 62
    7
 10
-16.48982944137491
 20
-17.5075457364976
 30
0
  0
VERTEX
  5
13C
  8
0
  6
BYLAYER
 62
    7
 10
-16.60071123483602
 20
-17.36651109724414
 30
0
  0
VERTEX
  5
13D
  8
0
  6
BYLAYER
 62
    7
 10
-16.71673385915209
 20
-17.22881986378436
 30
0
  0
VERTEX
  5
13E
  8
0
  6
BYLAYER
 62
    7
 10
-16.83785791423584
 20
-17.09461713255681
 30
0
  0
VERTEX
  5
13F
  8
0
  6
BYLAYER
 62
    7
 10
-16.964044
 20
-16.964048
 30
0
  0
SEQEND
  5
140
  8
0
  6
BYLAYER
 62
    7
  0
POLYLINE
  5
141
  8
0
  6
BYLAYER
 62
    7
 66
    1
 10
0
 20
0
 30
0
 70
    0
  0
VERTEX
  5
142
  8
0
  6
BYLAYER
 62
    7
 10
-16.964044
 20
-16.964048
 30
0
  0
VERTEX
  5
143
  8
0
  6
BYLAYER
 62
    7
 10
-17.09461313255681
 20
-16.83786191423584
 30
0
  0
VERTEX
  5
144
  8
0
  6
BYLAYER
 62
    7
 10
-17.22881586378437
 20
-16.71673785915209
 30
0
  0
VERTEX
  5
145
  8
0
  6
BYLAYER
 62
    7
 10
-17.36650709724413
 20
-16.60071523483603
 30
0
  0
VERTEX
  5
146
  8
0
  6
BYLAYER
 62
    7
 10
-17.5075417364976
 20
-16.48983344137491
 30
0
  0
VERTEX
  5
147
  8
0
  6
BYLAYER
 62
    7
 10
-17.65177468510624
 20
-16.38413187885603
 30
0
  0
VERTEX
  5
148
  8
0
  6
BYLAYER
 62
    7
 10
-17.79906084663154
 20
-16.28364994736665
 30
0
  0
VERTEX
  5
149
  8
0
  6
BYLAYER
 62
    7
 10
-17.94925512463496
 20
-16.18842704699406
 30
0
  0
VERTEX
  5
14A
  8
0
  6
BYLAYER
 62
    7
 10
-18.10221242267799
 20
-16.09850257782552
 30
0
  0
VERTEX
  5
14B
  8
0
  6
BYLAYER
 62
    7
 10
-18.25778764432211
 20
-16.0139159399483
 30
0
  0
VERTEX
  5
14C
  8
0
  6
BYLAYER
 62
    7
 10
-18.41583569312879
 20
-15.9347065334497
 30
0
  0
VERTEX
  5
14D
  8
0
  6
BYLAYER
 62
    7
 10
-18.57621147265953
 20
-15.86091375841697
 30
0
  0
VERTEX
  5
14E
  8
0
  6
BYLAYER
 62
    7
 10
-18.73876988647578
 20
-15.7925770149374
 30
0
  0
VERTEX
  5
14F
  8
0
  6
BYLAYER
 62
    7
 10
-18.90336583813903
 20
-15.72973570309825
 30
0
  0
VERTEX
  5
150
  8
0
  6
BYLAYER
 62
    7
 10
-19.06985423121077
 20
-15.67242922298681
 30
0
  0
VERTEX
  5
151
  8
0
  6
BYLAYER
 62
    7
 10
-19.23808996925246
 20
-15.62069697469034
 30
0
  0
VERTEX
  5
152
  8
0
  6
BYLAYER
 62
    7
 10
-19.40792795582558
 20
-15.57457835829613
 30
0
  0
VERTEX
  5
153
  8
0
  6
BYLAYER
 62
    7
 10
-19.57922309449162
 20
-15.53411277389144
 30
0
  0
VERTEX
  5
154
  8
0
  6
BYLAYER
 62
    7
 10
-19.75183028881206
 20
-15.49933962156356
 30
0
  0
VERTEX
  5
155
  8
0
  6
BYLAYER
 62
    7
 10
-19.92560444234836
 20
-15.47029830139975
 30
0
  0
VERTEX
  5
156
  8
0
  6
BYLAYER
 62
    7
 10
-20.10040045866201
 20
-15.44702821348729
 30
0
  0
VERTEX
  5
157
  8
0
  6
BYLAYER
 62
    7
 10
-20.27607324131449
 20
-15.42956875791347
 30
0
  0
VERTEX
  5
158
  8
0
  6
BYLAYER
 62
    7
 10
-20.45247769386727
 20
-15.41795933476553
 30
0
  0
VERTEX
  5
159
  8
0
  6
BYLAYER
 62
    7
 10
-20.62946871988184
 20
-15.41223934413078
 30
0
  0
VERTEX
  5
15A
  8
0
  6
BYLAYER
 62
    7
 10
-20.80690122291967
 20
-15.41244818609647
 30
0
  0
VERTEX
  5
15B
  8
0
  6
BYLAYER
 62
    7
 10
-20.98463010654224
 20
-15.41862526074989
 30
0
  0
VERTEX
  5
15C
  8
0
  6
BYLAYER
 62
    7
 10
-21.16251027431103
 20
-15.43080996817831
 30
0
  0
VERTEX
  5
15D
  8
0
  6
BYLAYER
 62
    7
 10
-21.34039662978752
 20
-15.449041708469
 30
0
  0
VERTEX
  5
15E
  8
0
  6
BYLAYER
 62
    7
 10
-21.51814407653318
 20
-15.47335988170924
 30
0
  0
VERTEX
  5
15F
  8
0
  6
BYLAYER
 62
    7
 10
-21.69560751810949
 20
-15.5038038879863
 30
0
  0
VERTEX
  5
160
  8
0
  6
BYLAYER
 62
    7
 10
-21.87264185807794
 20
-15.54041312738747
 30
0
  0
VERTEX
  5
161
  8
0
  6
BYLAYER
 62
    7
 10
-22.049102
 20
-15.583227
 30
0
  0
SEQEND
  5
162
  8
0
  6
BYLAYER
 62
    7
  0
POLYLINE
  5
163
  8
0
  6
BYLAYER
 62
    7
 66
    1
 10
0
 20
0
 30
0
 70
    0
  0
VERTEX
  5
164
  8
0
  6
BYLAYER
 62
    7
 10
-22.049096
 20
15.583232
 30
0
  0
VERTEX
  5
165
  8
0
  6
BYLAYER
 62
    7
 10
-22.66731425067973
 20
14.66973265257964
 30
0
  0
VERTEX
  5
166
  8
0
  6
BYLAYER
 62
    7
 10
-23.24431797005807
 20
13.73785926434158
 30
0
  0
VERTEX
  5
167
  8
0
  6
BYLAYER
 62
    7
 10
-23.7801071575308
 20
12.78887900986875
 30
0
  0
VERTEX
  5
168
  8
0
  6
BYLAYER
 62
    7
 10
-24.27468181249371
 20
11.82405906374408
 30
0
  0
VERTEX
  5
169
  8
0
  6
BYLAYER
 62
    7
 10
-24.72804193434258
 20
10.8446666005505
 30
0
  0
VERTEX
  5
16A
  8
0
  6
BYLAYER
 62
    7
 10
-25.14018752247323
 20
9.851968794870936
 30
0
  0
VERTEX
  5
16B
  8
0
  6
BYLAYER
 62
    7
 10
-25.51111857628143
 20
8.847232821288308
 30
0
  0
VERTEX
  5
16C
  8
0
  6
BYLAYER
 62
    7
 10
-25.84083509516297
 20
7.831725854385552
 30
0
  0
VERTEX
  5
16D
  8
0
  6
BYLAYER
 62
    7
 10
-26.12933707851364
 20
6.806715068745596
 30
0
  0
VERTEX
  5
16E
  8
0
  6
BYLAYER
 62
    7
 10
-26.37662452572924
 20
5.773467638951363
 30
0
  0
VERTEX
  5
16F
  8
0
  6
BYLAYER
 62
    7
 10
-26.58269743620556
 20
4.733250739585784
 30
0
  0
VERTEX
  5
170
  8
0
  6
BYLAYER
 62
    7
 10
-26.74755580933839
 20
3.687331545231785
 30
0
  0
VERTEX
  5
171
  8
0
  6
BYLAYER
 62
    7
 10
-26.87119964452351
 20
2.636977230472296
 30
0
  0
VERTEX
  5
172
  8
0
  6
BYLAYER
 62
    7
 10
-26.95362894115673
 20
1.583454969890242
 30
0
  0
VERTEX
  5
173
  8
0
  6
BYLAYER
 62
    7
 10
-26.99484369863382
 20
0.5280319380685508
 30
0
  0
VERTEX
  5
174
  8
0
  6
BYLAYER
 62
    7
 10
-26.99484391635058
 20
-0.5280246904098478
 30
0
  0
VERTEX
  5
175
  8
0
  6
BYLAYER
 62
    7
 10
-26.9536295937028
 20
-1.583447740962026
 30
0
  0
VERTEX
  5
176
  8
0
  6
BYLAYER
 62
    7
 10
-26.87120073008627
 20
-2.636970039005059
 30
0
  0
VERTEX
  5
177
  8
0
  6
BYLAYER
 62
    7
 10
-26.74755732489678
 20
-3.687324409956017
 30
0
  0
VERTEX
  5
178
  8
0
  6
BYLAYER
 62
    7
 10
-26.58269937753013
 20
-4.733243679231971
 30
0
  0
VERTEX
  5
179
  8
0
  6
BYLAYER
 62
    7
 10
-26.3766268873821
 20
-5.773460672249996
 30
0
  0
VERTEX
  5
17A
  8
0
  6
BYLAYER
 62
    7
 10
-26.12933985384849
 20
-6.806708214427164
 30
0
  0
VERTEX
  5
17B
  8
0
  6
BYLAYER
 62
    7
 10
-25.84083827632507
 20
-7.831719131180545
 30
0
  0
VERTEX
  5
17C
  8
0
  6
BYLAYER
 62
    7
 10
-25.51112215420765
 20
-8.847226247927214
 30
0
  0
VERTEX
  5
17D
  8
0
  6
BYLAYER
 62
    7
 10
-25.14019148689202
 20
-9.851962390084239
 30
0
  0
VERTEX
  5
17E
  8
0
  6
BYLAYER
 62
    7
 10
-24.72804627377397
 20
-10.8446603830687
 30
0
  0
VERTEX
  5
17F
  8
0
  6
BYLAYER
 62
    7
 10
-24.27468651424928
 20
-11.82405305229766
 30
0
  0
VERTEX
  5
180
  8
0
  6
BYLAYER
 62
    7
 10
-23.78011220771375
 20
-12.7888732231882
 30
0
  0
VERTEX
  5
181
  8
0
  6
BYLAYER
 62
    7
 10
-23.24432335356317
 20
-13.73785372115738
 30
0
  0
VERTEX
  5
182
  8
0
  6
BYLAYER
 62
    7
 10
-22.66731995119332
 20
-14.66972737162228
 30
0
  0
VERTEX
  5
183
  8
0
  6
BYLAYER
 62
    7
 10
-22.049102
 20
-15.583227
 30
0
  0
SEQEND
  5
184
  8
0
  6
BYLAYER
 62
    7
  0
POLYLINE
  5
185
  8
0
  6
BYLAYER
 62
    7
 66
    1
 10
0
 20
0
 30
0
 70
    0
  0
VERTEX
  5
186
  8
0
  6
BYLAYER
 62
    7
 10
-22.049096
 20
15.583232
 30
0
  0
VERTEX
  5
187
  8
0
  6
BYLAYER
 62
    7
 10
-21.87263586116612
 20
15.54041831472593
 30
0
  0
VERTEX
  5
188
  8
0
  6
BYLAYER
 62
    7
 10
-21.69560153032796
 20
15.50380925037763
 30
0
  0
VERTEX
  5
189
  8
0
  6
BYLAYER
 62
    7
 10
-21.5181381037226
 20
15.47336540706925
 30
0
  0
VERTEX
  5
18A
  8
0
  6
BYLAYER
 62
    7
 10
-21.34039067758719
 20
15.44904738491491
 30
0
  0
VERTEX
  5
18B
  8
0
  6
BYLAYER
 62
    7
 10
-21.16250434815884
 20
15.43081578402873
 30
0
  0
VERTEX
  5
18C
  8
0
  6
BYLAYER
 62
    7
 10
-20.98462421167467
 20
15.41863120452486
 30
0
  0
VERTEX
  5
18D
  8
0
  6
BYLAYER
 62
    7
 10
-20.80689536437179
 20
15.41245424651741
 30
0
  0
VERTEX
  5
18E
  8
0
  6
BYLAYER
 62
    7
 10
-20.62946290248733
 20
15.4122455101205
 30
0
  0
VERTEX
  5
18F
  8
0
  6
BYLAYER
 62
    7
 10
-20.4524719222584
 20
15.41796559544829
 30
0
  0
VERTEX
  5
190
  8
0
  6
BYLAYER
 62
    7
 10
-20.27606751992212
 20
15.42957510261488
 30
0
  0
VERTEX
  5
191
  8
0
  6
BYLAYER
 62
    7
 10
-20.10039479171562
 20
15.44703463173441
 30
0
  0
VERTEX
  5
192
  8
0
  6
BYLAYER
 62
    7
 10
-19.925598833876
 20
15.47030478292102
 30
0
  0
VERTEX
  5
193
  8
0
  6
BYLAYER
 62
    7
 10
-19.75182474264039
 20
15.49934615628881
 30
0
  0
VERTEX
  5
194
  8
0
  6
BYLAYER
 62
    7
 10
-19.57921761424591
 20
15.53411935195193
 30
0
  0
VERTEX
  5
195
  8
0
  6
BYLAYER
 62
    7
 10
-19.40792254492968
 20
15.5745849700245
 30
0
  0
VERTEX
  5
196
  8
0
  6
BYLAYER
 62
    7
 10
-19.2380846309288
 20
15.62070361062066
 30
0
  0
VERTEX
  5
197
  8
0
  6
BYLAYER
 62
    7
 10
-19.06984896848041
 20
15.67243587385452
 30
0
  0
VERTEX
  5
198
  8
0
  6
BYLAYER
 62
    7
 10
-18.90336065382163
 20
15.72974235984022
 30
0
  0
VERTEX
  5
199
  8
0
  6
BYLAYER
 62
    7
 10
-18.73876478318956
 20
15.79258366869189
 30
0
  0
VERTEX
  5
19A
  8
0
  6
BYLAYER
 62
    7
 10
-18.57620645282132
 20
15.86092040052365
 30
0
  0
VERTEX
  5
19B
  8
0
  6
BYLAYER
 62
    7
 10
-18.41583075895405
 20
15.93471315544963
 30
0
  0
VERTEX
  5
19C
  8
0
  6
BYLAYER
 62
    7
 10
-18.25778279782485
 20
16.01392253358397
 30
0
  0
VERTEX
  5
19D
  8
0
  6
BYLAYER
 62
    7
 10
-18.10220766567084
 20
16.09850913504079
 30
0
  0
VERTEX
  5
19E
  8
0
  6
BYLAYER
 62
    7
 10
-17.94925045872915
 20
16.18843355993421
 30
0
  0
VERTEX
  5
19F
  8
0
  6
BYLAYER
 62
    7
 10
-17.79905627323689
 20
16.28365640837837
 30
0
  0
VERTEX
  5
1A0
  8
0
  6
BYLAYER
 62
    7
 10
-17.65177020543117
 20
16.38413828048739
 30
0
  0
VERTEX
  5
1A1
  8
0
  6
BYLAYER
 62
    7
 10
-17.50753735154913
 20
16.48983977637542
 30
0
  0
VERTEX
  5
1A2
  8
0
  6
BYLAYER
 62
    7
 10
-17.36650280782787
 20
16.60072149615656
 30
0
  0
VERTEX
  5
1A3
  8
0
  6
BYLAYER
 62
    7
 10
-17.22881167050452
 20
16.71674403994495
 30
0
  0
VERTEX
  5
1A4
  8
0
  6
BYLAYER
 62
    7
 10
-17.09460903581619
 20
16.83786800785472
 30
0
  0
VERTEX
  5
1A5
  8
0
  6
BYLAYER
 62
    7
 10
-16.96404
 20
16.964054
 30
0
  0
SEQEND
  5
1A6
  8
0
  6
BYLAYER
 62
    7
  0
POLYLINE
  5
1A7
  8
0
  6
BYLAYER
 62
    7
 66
    1
 10
0
 20
0
 30
0
 70
    0
  0
VERTEX
  5
1A8
  8
0
  6
BYLAYER
 62
    7
 10
-16.96404
 20
16.964054
 30
0
  0
VERTEX
  5
1A9
  8
0
  6
BYLAYER
 62
    7
 10
-16.83785391420227
 20
17.09462303883723
 30
0
  0
VERTEX
  5
1AA
  8
0
  6
BYLAYER
 62
    7
 10
-16.71672985888356
 20
17.2288256821859
 30
0
  0
VERTEX
  5
1AB
  8
0
  6
BYLAYER
 62
    7
 10
-16.60070723392971
 20
17.36651683320466
 30
0
  0
VERTEX
  5
1AC
  8
0
  6
BYLAYER
 62
    7
 10
-16.48982543922661
 20
17.5075513950522
 30
0
  0
VERTEX
  5
1AD
  8
0
  6
BYLAYER
 62
    7
 10
-16.38412387466013
 20
17.65178427088718
 30
0
  0
VERTEX
  5
1AE
  8
0
  6
BYLAYER
 62
    7
 10
-16.28364194011614
 20
17.79907036386829
 30
0
  0
VERTEX
  5
1AF
  8
0
  6
BYLAYER
 62
    7
 10
-16.18841903548051
 20
17.94926457715417
 30
0
  0
VERTEX
  5
1B0
  8
0
  6
BYLAYER
 62
    7
 10
-16.09849456063912
 20
18.10222181390353
 30
0
  0
VERTEX
  5
1B1
  8
0
  6
BYLAYER
 62
    7
 10
-16.01390791547783
 20
18.25779697727501
 30
0
  0
VERTEX
  5
1B2
  8
0
  6
BYLAYER
 62
    7
 10
-15.93469849988251
 20
18.41584497042731
 30
0
  0
VERTEX
  5
1B3
  8
0
  6
BYLAYER
 62
    7
 10
-15.86090571373905
 20
18.57622069651908
 30
0
  0
VERTEX
  5
1B4
  8
0
  6
BYLAYER
 62
    7
 10
-15.7925689569333
 20
18.73877905870901
 30
0
  0
VERTEX
  5
1B5
  8
0
  6
BYLAYER
 62
    7
 10
-15.72972762935115
 20
18.90337496015575
 30
0
  0
VERTEX
  5
1B6
  8
0
  6
BYLAYER
 62
    7
 10
-15.67242113087845
 20
19.06986330401799
 30
0
  0
VERTEX
  5
1B7
  8
0
  6
BYLAYER
 62
    7
 10
-15.6206888614011
 20
19.2380989934544
 30
0
  0
VERTEX
  5
1B8
  8
0
  6
BYLAYER
 62
    7
 10
-15.57457022080494
 20
19.40793693162365
 30
0
  0
VERTEX
  5
1B9
  8
0
  6
BYLAYER
 62
    7
 10
-15.53410460897586
 20
19.5792320216844
 30
0
  0
VERTEX
  5
1BA
  8
0
  6
BYLAYER
 62
    7
 10
-15.49933142579974
 20
19.75183916679534
 30
0
  0
VERTEX
  5
1BB
  8
0
  6
BYLAYER
 62
    7
 10
-15.47029007116243
 20
19.92561327011514
 30
0
  0
VERTEX
  5
1BC
  8
0
  6
BYLAYER
 62
    7
 10
-15.44701994494982
 20
20.10040923480246
 30
0
  0
VERTEX
  5
1BD
  8
0
  6
BYLAYER
 62
    7
 10
-15.42956044704777
 20
20.27608196401598
 30
0
  0
VERTEX
  5
1BE
  8
0
  6
BYLAYER
 62
    7
 10
-15.41795097734215
 20
20.45248636091437
 30
0
  0
VERTEX
  5
1BF
  8
0
  6
BYLAYER
 62
    7
 10
-15.41223093571884
 20
20.6294773286563
 30
0
  0
VERTEX
  5
1C0
  8
0
  6
BYLAYER
 62
    7
 10
-15.41243972206371
 20
20.80690977040045
 30
0
  0
VERTEX
  5
1C1
  8
0
  6
BYLAYER
 62
    7
 10
-15.41861673626263
 20
20.98463858930549
 30
0
  0
VERTEX
  5
1C2
  8
0
  6
BYLAYER
 62
    7
 10
-15.43080137820147
 20
21.16251868853009
 30
0
  0
VERTEX
  5
1C3
  8
0
  6
BYLAYER
 62
    7
 10
-15.4490330477661
 20
21.34040497123292
 30
0
  0
VERTEX
  5
1C4
  8
0
  6
BYLAYER
 62
    7
 10
-15.4733511448424
 20
21.51815234057266
 30
0
  0
VERTEX
  5
1C5
  8
0
  6
BYLAYER
 62
    7
 10
-15.50379506931624
 20
21.69561569970796
 30
0
  0
VERTEX
  5
1C6
  8
0
  6
BYLAYER
 62
    7
 10
-15.54040422107348
 20
21.87264995179752
 30
0
  0
VERTEX
  5
1C7
  8
0
  6
BYLAYER
 62
    7
 10
-15.583218
 20
22.04911
 30
0
  0
SEQEND
  5
1C8
  8
0
  6
BYLAYER
 62
    7
  0
ENDSEC
  0
EOF
