M48
;DRILL file {KiCad (5.0.0)} date 01/09/19 16:47:14
;FORMAT={-:-/ absolute / metric / decimal}
FMAT,2
METRIC,TZ
T1C0.400
T2C0.800
T3C1.000
T4C3.200
%
G90
G05
M71
T1
X-13.Y8.25
X-6.5Y10.
T2
X-20.8Y6.37
X-20.8Y3.83
X-20.8Y1.29
X-20.8Y-1.25
X-20.8Y-3.79
X-20.8Y-6.33
X-18.1Y5.1
X-18.1Y2.56
X-18.1Y0.02
X-18.1Y-2.52
X-18.1Y-5.06
X-18.1Y-7.6
X18.1Y5.1
X18.1Y2.56
X18.1Y0.02
X18.1Y-2.52
X18.1Y-5.06
X18.1Y-7.6
X20.8Y6.37
X20.8Y3.83
X20.8Y1.29
X20.8Y-1.25
X20.8Y-3.79
X20.8Y-6.33
T3
X4.86Y16.44
X4.86Y13.9
X7.4Y16.44
X7.4Y13.9
X-1.2Y16.4
X-1.2Y13.86
X1.34Y16.4
X1.34Y13.86
X-7.3Y16.4
X-7.3Y13.86
X-4.76Y16.4
X-4.76Y13.86
X0.282Y7.4
X0.282Y4.86
X0.282Y2.32
X0.282Y-0.22
X0.282Y-2.76
X0.282Y-5.3
X0.282Y-7.84
X0.282Y-10.38
X0.282Y-12.92
X0.282Y-15.46
X2.822Y7.4
X2.822Y4.86
X2.822Y2.32
X2.822Y-0.22
X2.822Y-2.76
X2.822Y-5.3
X2.822Y-7.84
X2.822Y-10.38
X2.822Y-12.92
X2.822Y-15.46
X14.5Y6.37
X14.5Y3.83
X14.5Y1.29
X14.5Y-1.25
X14.5Y-3.79
X14.5Y-6.33
X-4.897Y7.4
X-4.897Y4.86
X-4.897Y2.32
X-4.897Y-0.22
X-4.897Y-2.76
X-4.897Y-5.3
X-4.897Y-7.84
X-4.897Y-10.38
X-4.897Y-12.92
X-4.897Y-15.46
X-2.357Y7.4
X-2.357Y4.86
X-2.357Y2.32
X-2.357Y-0.22
X-2.357Y-2.76
X-2.357Y-5.3
X-2.357Y-7.84
X-2.357Y-10.38
X-2.357Y-12.92
X-2.357Y-15.46
X-10.075Y7.375
X-10.075Y4.835
X-10.075Y2.295
X-10.075Y-0.245
X-10.075Y-2.785
X-10.075Y-5.325
X-10.075Y-7.865
X-10.075Y-10.405
X-10.075Y-12.945
X-10.075Y-15.485
X-7.535Y7.375
X-7.535Y4.835
X-7.535Y2.295
X-7.535Y-0.245
X-7.535Y-2.785
X-7.535Y-5.325
X-7.535Y-7.865
X-7.535Y-10.405
X-7.535Y-12.945
X-7.535Y-15.485
X11.7Y5.1
X11.7Y2.56
X11.7Y0.02
X11.7Y-2.52
X11.7Y-5.06
X11.7Y-7.6
X5.46Y7.4
X5.46Y4.86
X5.46Y2.32
X5.46Y-0.22
X5.46Y-2.76
X5.46Y-5.3
X5.46Y-7.84
X5.46Y-10.38
X5.46Y-12.92
X5.46Y-15.46
X8.Y7.4
X8.Y4.86
X8.Y2.32
X8.Y-0.22
X8.Y-2.76
X8.Y-5.3
X8.Y-7.84
X8.Y-10.38
X8.Y-12.92
X8.Y-15.46
X-13.5Y6.35
X-13.5Y3.81
X-13.5Y1.27
X-13.5Y-1.27
X-13.5Y-3.81
X-13.5Y-6.35
T4
X-12.5Y13.5
X0.Y-20.2
X12.5Y13.5
T0
M30
