  0
SECTION
  2
HEADER
  9
$ACADVER
  1
AC1014
  9
$HANDSEED
  5
FFFF
  9
$MEASUREMENT
 70
     1
  0
ENDSEC
  0
SECTION
  2
TABLES
  0
TABLE
  2
VPORT
  5
8
330
0
100
AcDbSymbolTable
 70
     4
  0
VPORT
  5
2E
330
8
100
AcDbSymbolTableRecord
100
AcDbViewportTableRecord
  2
*ACTIVE
 70
     0
 10
0.0
 20
0.0
 11
1.0
 21
1.0
 12
210.0
 22
148.5
 13
0.0
 23
0.0
 14
10.0
 24
10.0
 15
10.0
 25
10.0
 16
0.0
 26
0.0
 36
1.0
 17
0.0
 27
0.0
 37
0.0
 40
341.0
 41
1.24
 42
50.0
 43
0.0
 44
0.0
 50
0.0
 51
0.0
 71
     0
 72
   100
 73
     1
 74
     3
 75
     0
 76
     0
 77
     0
 78
     0
  0
ENDTAB
  0
TABLE
  2
LTYPE
  5
5
330
0
100
AcDbSymbolTable
 70
     1
  0
LTYPE
  5
14
330
5
100
AcDbSymbolTableRecord
100
AcDbLinetypeTableRecord
  2
BYBLOCK
 70
     0
  3

 72
    65
 73
     0
 40
0.0
  0
LTYPE
  5
15
330
5
100
AcDbSymbolTableRecord
100
AcDbLinetypeTableRecord
  2
BYLAYER
 70
     0
  3

 72
    65
 73
     0
 40
0.0
  0
LTYPE
  5
16
330
5
100
AcDbSymbolTableRecord
100
AcDbLinetypeTableRecord
  2
CONTINUOUS
 70
     0
  3
Solid line
 72
    65
 73
     0
 40
0.0
  0
ENDTAB
  0
TABLE
  2
LAYER
  5
2
100
AcDbSymbolTable
 70
2
  0
LAYER
  5
50
100
AcDbSymbolTableRecord
100
AcDbLayerTableRecord
  2
0
 70
0
  6
CONTINUOUS
  0
LAYER
  5
51
100
AcDbSymbolTableRecord
100
AcDbLayerTableRecord
  2
Capa_1
 70
0
  6
CONTINUOUS
  0
ENDTAB
  0
TABLE
  2
STYLE
  5
3
330
0
100
AcDbSymbolTable
 70
     1
  0
STYLE
  5
11
330
3
100
AcDbSymbolTableRecord
100
AcDbTextStyleTableRecord
  2
STANDARD
 70
     0
 40
0.0
 41
1.0
 50
0.0
 71
     0
 42
2.5
  3
txt
  4

  0
ENDTAB
  0
TABLE
  2
VIEW
  5
6
330
0
100
AcDbSymbolTable
 70
     0
  0
ENDTAB
  0
TABLE
  2
UCS
  5
7
330
0
100
AcDbSymbolTable
 70
     0
  0
ENDTAB
  0
TABLE
  2
APPID
  5
9
330
0
100
AcDbSymbolTable
 70
     2
  0
APPID
  5
12
330
9
100
AcDbSymbolTableRecord
100
AcDbRegAppTableRecord
  2
ACAD
 70
     0
  0
ENDTAB
  0
TABLE
  2
DIMSTYLE
  5
A
330
0
100
AcDbSymbolTable
 70
     1
  0
DIMSTYLE
105
27
330
A
100
AcDbSymbolTableRecord
100
AcDbDimStyleTableRecord
  2
ISO-25
 70
     0
  3

  4

  5

  6

  7

 40
1.0
 41
2.5
 42
0.625
 43
3.75
 44
1.25
 45
0.0
 46
0.0
 47
0.0
 48
0.0
140
2.5
141
2.5
142
0.0
143
0.03937007874016
144
1.0
145
0.0
146
1.0
147
0.625
 71
     0
 72
     0
 73
     0
 74
     0
 75
     0
 76
     0
 77
     1
 78
     8
170
     0
171
     3
172
     1
173
     0
174
     0
175
     0
176
     0
177
     0
178
     0
270
     2
271
     2
272
     2
273
     2
274
     3
340
11
275
     0
280
     0
281
     0
282
     0
283
     0
284
     8
285
     0
286
     0
287
     3
288
     0
  0
ENDTAB
  0
TABLE
  2
BLOCK_RECORD
  5
1
330
0
100
AcDbSymbolTable
 70
     1
  0
BLOCK_RECORD
  5
1F
330
1
100
AcDbSymbolTableRecord
100
AcDbBlockTableRecord
  2
*MODEL_SPACE
  0
BLOCK_RECORD
  5
1B
330
1
100
AcDbSymbolTableRecord
100
AcDbBlockTableRecord
  2
*PAPER_SPACE
  0
ENDTAB
  0
ENDSEC
  0
SECTION
  2
BLOCKS
  0
BLOCK
  5
20
330
1F
100
AcDbEntity
  8
0
100
AcDbBlockBegin
  2
*MODEL_SPACE
 70
     0
 10
0.0
 20
0.0
 30
0.0
  3
*MODEL_SPACE
  1

  0
ENDBLK
  5
21
330
1F
100
AcDbEntity
  8
0
100
AcDbBlockEnd
  0
BLOCK
  5
1C
330
1B
100
AcDbEntity
 67
     1
  8
0
100
AcDbBlockBegin
  2
*PAPER_SPACE
  1

  0
ENDBLK
  5
1D
330
1B
100
AcDbEntity
 67
     1
  8
0
100
AcDbBlockEnd
  0
ENDSEC
  0
SECTION
  2
ENTITIES
  0
LWPOLYLINE
  5
100
100
AcDbEntity
  8
Capa_1
 62
7
100
AcDbPolyline
 90
4
 70
1
 10
0.073810
 20
9.926210
 30
0.0
 10
2.727999
 20
9.926210
 30
0.0
 10
2.727999
 20
0.073830
 30
0.0
 10
0.073810
 20
0.073830
 30
0.0
  0
SPLINE
  5
101
100
AcDbEntity
  8
Capa_1
 62
7
100
AcDbSpline
 70
8
 71
3
 72
8
 73
4
 74
0
 40
0
 40
0
 40
0
 40
0
 40
1
 40
1
 40
1
 40
1
 10
1.742106
 20
9.095053
 30
0.0
 10
1.762758
 20
9.080614
 30
0.0
 10
1.784368
 20
9.070296
 30
0.0
 10
1.806936
 20
9.064098
 30
0.0
  0
SPLINE
  5
102
100
AcDbEntity
  8
Capa_1
 62
7
100
AcDbSpline
 70
8
 71
3
 72
8
 73
4
 74
0
 40
0
 40
0
 40
0
 40
0
 40
1
 40
1
 40
1
 40
1
 10
1.806936
 20
9.064098
 30
0.0
 10
1.829503
 20
9.057968
 30
0.0
 10
1.857287
 20
9.054903
 30
0.0
 10
1.890288
 20
9.054903
 30
0.0
  0
LWPOLYLINE
  5
103
100
AcDbEntity
  8
Capa_1
 62
7
100
AcDbPolyline
 90
12
 70
1
 10
2.140662
 20
9.245709
 30
0.0
 10
2.314711
 20
9.245709
 30
0.0
 10
2.314711
 20
9.064057
 30
0.0
 10
2.367724
 20
9.064057
 30
0.0
 10
2.367724
 20
9.245709
 30
0.0
 10
2.541773
 20
9.245709
 30
0.0
 10
2.541773
 20
9.299037
 30
0.0
 10
2.367724
 20
9.299037
 30
0.0
 10
2.367724
 20
9.480688
 30
0.0
 10
2.314711
 20
9.480688
 30
0.0
 10
2.314711
 20
9.299037
 30
0.0
 10
2.140662
 20
9.299037
 30
0.0
  0
SPLINE
  5
104
100
AcDbEntity
  8
Capa_1
 62
7
100
AcDbSpline
 70
8
 71
3
 72
8
 73
4
 74
0
 40
0
 40
0
 40
0
 40
0
 40
1
 40
1
 40
1
 40
1
 10
1.818752
 20
9.551343
 30
0.0
 10
1.784048
 20
9.551343
 30
0.0
 10
1.758287
 20
9.549981
 30
0.0
 10
1.741468
 20
9.547256
 30
0.0
  0
SPLINE
  5
105
100
AcDbEntity
  8
Capa_1
 62
7
100
AcDbSpline
 70
8
 71
3
 72
8
 73
4
 74
0
 40
0
 40
0
 40
0
 40
0
 40
1
 40
1
 40
1
 40
1
 10
1.741468
 20
9.547256
 30
0.0
 10
1.724436
 20
9.544532
 30
0.0
 10
1.708894
 20
9.538879
 30
0.0
 10
1.694842
 20
9.530298
 30
0.0
  0
SPLINE
  5
106
100
AcDbEntity
  8
Capa_1
 62
7
100
AcDbSpline
 70
8
 71
3
 72
8
 73
4
 74
0
 40
0
 40
0
 40
0
 40
0
 40
1
 40
1
 40
1
 40
1
 10
1.694842
 20
9.530298
 30
0.0
 10
1.683132
 20
9.522738
 30
0.0
 10
1.674403
 20
9.513067
 30
0.0
 10
1.668655
 20
9.501284
 30
0.0
  0
SPLINE
  5
107
100
AcDbEntity
  8
Capa_1
 62
7
100
AcDbSpline
 70
8
 71
3
 72
8
 73
4
 74
0
 40
0
 40
0
 40
0
 40
0
 40
1
 40
1
 40
1
 40
1
 10
1.668655
 20
9.501284
 30
0.0
 10
1.662690
 20
9.489706
 30
0.0
 10
1.659708
 20
9.476834
 30
0.0
 10
1.659708
 20
9.462667
 30
0.0
  0
SPLINE
  5
108
100
AcDbEntity
  8
Capa_1
 62
7
100
AcDbSpline
 70
8
 71
3
 72
8
 73
4
 74
0
 40
0
 40
0
 40
0
 40
0
 40
1
 40
1
 40
1
 40
1
 10
1.659708
 20
9.462667
 30
0.0
 10
1.659708
 20
9.433994
 30
0.0
 10
1.667479
 20
9.408658
 30
0.0
 10
1.683021
 20
9.386660
 30
0.0
  0
SPLINE
  5
109
100
AcDbEntity
  8
Capa_1
 62
7
100
AcDbSpline
 70
8
 71
3
 72
8
 73
4
 74
0
 40
0
 40
0
 40
0
 40
0
 40
1
 40
1
 40
1
 40
1
 10
1.683021
 20
9.386660
 30
0.0
 10
1.698564
 20
9.364661
 30
0.0
 10
1.720067
 20
9.347669
 30
0.0
 10
1.747532
 20
9.335682
 30
0.0
  0
LWPOLYLINE
  5
10a
100
AcDbEntity
  8
Capa_1
 62
7
100
AcDbPolyline
 90
4
 70
0
 10
1.890288
 20
9.054903
 30
0.0
 10
2.064975
 20
9.054903
 30
0.0
 10
1.955436
 20
9.551343
 30
0.0
 10
1.818752
 20
9.551343
 30
0.0
  0
SPLINE
  5
10b
100
AcDbEntity
  8
Capa_1
 62
7
100
AcDbSpline
 70
8
 71
3
 72
8
 73
4
 74
0
 40
0
 40
0
 40
0
 40
0
 40
1
 40
1
 40
1
 40
1
 10
1.747532
 20
9.332617
 30
0.0
 10
1.721983
 20
9.326487
 30
0.0
 10
1.702502
 20
9.315284
 30
0.0
 10
1.689089
 20
9.299006
 30
0.0
  0
SPLINE
  5
10c
100
AcDbEntity
  8
Capa_1
 62
7
100
AcDbSpline
 70
8
 71
3
 72
8
 73
4
 74
0
 40
0
 40
0
 40
0
 40
0
 40
1
 40
1
 40
1
 40
1
 10
1.689089
 20
9.299006
 30
0.0
 10
1.675464
 20
9.282592
 30
0.0
 10
1.668651
 20
9.261479
 30
0.0
 10
1.668651
 20
9.235666
 30
0.0
  0
SPLINE
  5
10d
100
AcDbEntity
  8
Capa_1
 62
7
100
AcDbSpline
 70
8
 71
3
 72
8
 73
4
 74
0
 40
0
 40
0
 40
0
 40
0
 40
1
 40
1
 40
1
 40
1
 10
1.668651
 20
9.235666
 30
0.0
 10
1.668651
 20
9.207470
 30
0.0
 10
1.675464
 20
9.180704
 30
0.0
 10
1.689089
 20
9.155368
 30
0.0
  0
SPLINE
  5
10e
100
AcDbEntity
  8
Capa_1
 62
7
100
AcDbSpline
 70
8
 71
3
 72
8
 73
4
 74
0
 40
0
 40
0
 40
0
 40
0
 40
1
 40
1
 40
1
 40
1
 10
1.689089
 20
9.155368
 30
0.0
 10
1.702502
 20
9.130237
 30
0.0
 10
1.720173
 20
9.109907
 30
0.0
 10
1.742103
 20
9.094378
 30
0.0
  0
LWPOLYLINE
  5
10f
100
AcDbEntity
  8
Capa_1
 62
7
100
AcDbPolyline
 90
2
 70
0
 10
1.747532
 20
9.335682
 30
0.0
 10
1.747532
 20
9.332617
 30
0.0
  0
SPLINE
  5
110
100
AcDbEntity
  8
Capa_1
 62
7
100
AcDbSpline
 70
8
 71
3
 72
8
 73
4
 74
0
 40
0
 40
0
 40
0
 40
0
 40
1
 40
1
 40
1
 40
1
 10
1.728374
 20
9.444687
 30
0.0
 10
1.728374
 20
9.454018
 30
0.0
 10
1.729865
 20
9.461680
 30
0.0
 10
1.732847
 20
9.467673
 30
0.0
  0
SPLINE
  5
111
100
AcDbEntity
  8
Capa_1
 62
7
100
AcDbSpline
 70
8
 71
3
 72
8
 73
4
 74
0
 40
0
 40
0
 40
0
 40
0
 40
1
 40
1
 40
1
 40
1
 10
1.732847
 20
9.467673
 30
0.0
 10
1.735830
 20
9.473803
 30
0.0
 10
1.740088
 20
9.478911
 30
0.0
 10
1.745621
 20
9.482997
 30
0.0
  0
SPLINE
  5
112
100
AcDbEntity
  8
Capa_1
 62
7
100
AcDbSpline
 70
8
 71
3
 72
8
 73
4
 74
0
 40
0
 40
0
 40
0
 40
0
 40
1
 40
1
 40
1
 40
1
 10
1.745621
 20
9.482997
 30
0.0
 10
1.754564
 20
9.489127
 30
0.0
 10
1.765741
 20
9.493009
 30
0.0
 10
1.779154
 20
9.494644
 30
0.0
  0
SPLINE
  5
113
100
AcDbEntity
  8
Capa_1
 62
7
100
AcDbSpline
 70
8
 71
3
 72
8
 73
4
 74
0
 40
0
 40
0
 40
0
 40
0
 40
1
 40
1
 40
1
 40
1
 10
1.779154
 20
9.494644
 30
0.0
 10
1.792567
 20
9.496687
 30
0.0
 10
1.809919
 20
9.497708
 30
0.0
 10
1.831209
 20
9.497708
 30
0.0
  0
LWPOLYLINE
  5
114
100
AcDbEntity
  8
Capa_1
 62
7
100
AcDbPolyline
 90
2
 70
0
 10
1.742103
 20
9.094378
 30
0.0
 10
1.742106
 20
9.095053
 30
0.0
  0
SPLINE
  5
115
100
AcDbEntity
  8
Capa_1
 62
7
100
AcDbSpline
 70
8
 71
3
 72
8
 73
4
 74
0
 40
0
 40
0
 40
0
 40
0
 40
1
 40
1
 40
1
 40
1
 10
1.852925
 20
9.350383
 30
0.0
 10
1.834616
 20
9.350383
 30
0.0
 10
1.818648
 20
9.351745
 30
0.0
 10
1.805022
 20
9.354469
 30
0.0
  0
SPLINE
  5
116
100
AcDbEntity
  8
Capa_1
 62
7
100
AcDbSpline
 70
8
 71
3
 72
8
 73
4
 74
0
 40
0
 40
0
 40
0
 40
0
 40
1
 40
1
 40
1
 40
1
 10
1.805022
 20
9.354469
 30
0.0
 10
1.791397
 20
9.357193
 30
0.0
 10
1.779474
 20
9.361620
 30
0.0
 10
1.769254
 20
9.367750
 30
0.0
  0
SPLINE
  5
117
100
AcDbEntity
  8
Capa_1
 62
7
100
AcDbSpline
 70
8
 71
3
 72
8
 73
4
 74
0
 40
0
 40
0
 40
0
 40
0
 40
1
 40
1
 40
1
 40
1
 10
1.769254
 20
9.367750
 30
0.0
 10
1.756054
 20
9.375787
 30
0.0
 10
1.745941
 20
9.387126
 30
0.0
 10
1.738916
 20
9.401769
 30
0.0
  0
SPLINE
  5
118
100
AcDbEntity
  8
Capa_1
 62
7
100
AcDbSpline
 70
8
 71
3
 72
8
 73
4
 74
0
 40
0
 40
0
 40
0
 40
0
 40
1
 40
1
 40
1
 40
1
 10
1.738916
 20
9.401769
 30
0.0
 10
1.731890
 20
9.416685
 30
0.0
 10
1.728377
 20
9.431124
 30
0.0
 10
1.728377
 20
9.445086
 30
0.0
  0
LWPOLYLINE
  5
119
100
AcDbEntity
  8
Capa_1
 62
7
100
AcDbPolyline
 90
4
 70
0
 10
1.831209
 20
9.497708
 30
0.0
 10
1.903384
 20
9.497708
 30
0.0
 10
1.935958
 20
9.350383
 30
0.0
 10
1.852925
 20
9.350383
 30
0.0
  0
SPLINE
  5
11a
100
AcDbEntity
  8
Capa_1
 62
7
100
AcDbSpline
 70
8
 71
3
 72
8
 73
4
 74
0
 40
0
 40
0
 40
0
 40
0
 40
1
 40
1
 40
1
 40
1
 10
1.735402
 20
9.231703
 30
0.0
 10
1.735402
 20
9.244166
 30
0.0
 10
1.737425
 20
9.254178
 30
0.0
 10
1.741471
 20
9.261738
 30
0.0
  0
SPLINE
  5
11b
100
AcDbEntity
  8
Capa_1
 62
7
100
AcDbSpline
 70
8
 71
3
 72
8
 73
4
 74
0
 40
0
 40
0
 40
0
 40
0
 40
1
 40
1
 40
1
 40
1
 10
1.741471
 20
9.261738
 30
0.0
 10
1.745517
 20
9.269502
 30
0.0
 10
1.752756
 20
9.276721
 30
0.0
 10
1.763187
 20
9.283396
 30
0.0
  0
SPLINE
  5
11c
100
AcDbEntity
  8
Capa_1
 62
7
100
AcDbSpline
 70
8
 71
3
 72
8
 73
4
 74
0
 40
0
 40
0
 40
0
 40
0
 40
1
 40
1
 40
1
 40
1
 10
1.763187
 20
9.283396
 30
0.0
 10
1.771703
 20
9.288844
 30
0.0
 10
1.782667
 20
9.292522
 30
0.0
 10
1.796080
 20
9.294429
 30
0.0
  0
SPLINE
  5
11d
100
AcDbEntity
  8
Capa_1
 62
7
100
AcDbSpline
 70
8
 71
3
 72
8
 73
4
 74
0
 40
0
 40
0
 40
0
 40
0
 40
1
 40
1
 40
1
 40
1
 10
1.796080
 20
9.294429
 30
0.0
 10
1.809280
 20
9.296472
 30
0.0
 10
1.827696
 20
9.297494
 30
0.0
 10
1.851328
 20
9.297494
 30
0.0
  0
LWPOLYLINE
  5
11e
100
AcDbEntity
  8
Capa_1
 62
7
100
AcDbPolyline
 90
2
 70
0
 10
1.728377
 20
9.445086
 30
0.0
 10
1.728374
 20
9.444687
 30
0.0
  0
SPLINE
  5
11f
100
AcDbEntity
  8
Capa_1
 62
7
100
AcDbSpline
 70
8
 71
3
 72
8
 73
4
 74
0
 40
0
 40
0
 40
0
 40
0
 40
1
 40
1
 40
1
 40
1
 10
1.902106
 20
9.109508
 30
0.0
 10
1.873790
 20
9.109508
 30
0.0
 10
1.850796
 20
9.111211
 30
0.0
 10
1.833125
 20
9.114616
 30
0.0
  0
SPLINE
  5
120
100
AcDbEntity
  8
Capa_1
 62
7
100
AcDbSpline
 70
8
 71
3
 72
8
 73
4
 74
0
 40
0
 40
0
 40
0
 40
0
 40
1
 40
1
 40
1
 40
1
 10
1.833125
 20
9.114616
 30
0.0
 10
1.815241
 20
9.118022
 30
0.0
 10
1.799806
 20
9.123811
 30
0.0
 10
1.786819
 20
9.131984
 30
0.0
  0
SPLINE
  5
121
100
AcDbEntity
  8
Capa_1
 62
7
100
AcDbSpline
 70
8
 71
3
 72
8
 73
4
 74
0
 40
0
 40
0
 40
0
 40
0
 40
1
 40
1
 40
1
 40
1
 10
1.786819
 20
9.131984
 30
0.0
 10
1.769999
 20
9.142404
 30
0.0
 10
1.757225
 20
9.156638
 30
0.0
 10
1.748496
 20
9.174687
 30
0.0
  0
SPLINE
  5
122
100
AcDbEntity
  8
Capa_1
 62
7
100
AcDbSpline
 70
8
 71
3
 72
8
 73
4
 74
0
 40
0
 40
0
 40
0
 40
0
 40
1
 40
1
 40
1
 40
1
 10
1.748496
 20
9.174687
 30
0.0
 10
1.739767
 20
9.192871
 30
0.0
 10
1.735403
 20
9.212214
 30
0.0
 10
1.735403
 20
9.232714
 30
0.0
  0
LWPOLYLINE
  5
123
100
AcDbEntity
  8
Capa_1
 62
7
100
AcDbPolyline
 90
4
 70
0
 10
1.851328
 20
9.297494
 30
0.0
 10
1.947455
 20
9.297494
 30
0.0
 10
1.989290
 20
9.109508
 30
0.0
 10
1.902106
 20
9.109508
 30
0.0
  0
LWPOLYLINE
  5
124
100
AcDbEntity
  8
Capa_1
 62
7
100
AcDbPolyline
 90
2
 70
0
 10
1.735403
 20
9.232714
 30
0.0
 10
1.735402
 20
9.231703
 30
0.0
  0
LWPOLYLINE
  5
125
100
AcDbEntity
  8
Capa_1
 62
7
100
AcDbPolyline
 90
8
 70
1
 10
1.236247
 20
9.055057
 30
0.0
 10
1.300437
 20
9.055057
 30
0.0
 10
1.316405
 20
9.194710
 30
0.0
 10
1.521432
 20
9.194710
 30
0.0
 10
1.599355
 20
9.055057
 30
0.0
 10
1.666100
 20
9.055057
 30
0.0
 10
1.383151
 20
9.551343
 30
0.0
 10
1.299479
 20
9.551343
 30
0.0
  0
LWPOLYLINE
  5
126
100
AcDbEntity
  8
Capa_1
 62
7
100
AcDbPolyline
 90
3
 70
1
 10
1.323431
 20
9.248702
 30
0.0
 10
1.353131
 20
9.493683
 30
0.0
 10
1.491093
 20
9.248702
 30
0.0
  0
LWPOLYLINE
  5
127
100
AcDbEntity
  8
Capa_1
 62
7
100
AcDbPolyline
 90
8
 70
1
 10
0.732623
 20
9.495022
 30
0.0
 10
0.902201
 20
9.495022
 30
0.0
 10
0.999604
 20
9.055057
 30
0.0
 10
1.063475
 20
9.055057
 30
0.0
 10
0.966072
 20
9.495022
 30
0.0
 10
1.135650
 20
9.495022
 30
0.0
 10
1.123514
 20
9.551312
 30
0.0
 10
0.720487
 20
9.551312
 30
0.0
  0
LWPOLYLINE
  5
128
100
AcDbEntity
  8
Capa_1
 62
7
100
AcDbPolyline
 90
8
 70
1
 10
0.328957
 20
9.495022
 30
0.0
 10
0.498535
 20
9.495022
 30
0.0
 10
0.595938
 20
9.055057
 30
0.0
 10
0.659809
 20
9.055057
 30
0.0
 10
0.562406
 20
9.495022
 30
0.0
 10
0.731984
 20
9.495022
 30
0.0
 10
0.719848
 20
9.551312
 30
0.0
 10
0.316821
 20
9.551312
 30
0.0
  0
SPLINE
  5
129
100
AcDbEntity
  8
Capa_1
 62
7
100
AcDbSpline
 70
8
 71
3
 72
8
 73
4
 74
0
 40
0
 40
0
 40
0
 40
0
 40
1
 40
1
 40
1
 40
1
 10
1.355047
 20
7.396857
 30
0.0
 10
1.373782
 20
7.378400
 30
0.0
 10
1.395605
 20
7.363961
 30
0.0
 10
1.420515
 20
7.353541
 30
0.0
  0
SPLINE
  5
12a
100
AcDbEntity
  8
Capa_1
 62
7
100
AcDbSpline
 70
8
 71
3
 72
8
 73
4
 74
0
 40
0
 40
0
 40
0
 40
0
 40
1
 40
1
 40
1
 40
1
 10
1.420515
 20
7.353541
 30
0.0
 10
1.445424
 20
7.343324
 30
0.0
 10
1.474699
 20
7.338216
 30
0.0
 10
1.508337
 20
7.338216
 30
0.0
  0
SPLINE
  5
12b
100
AcDbEntity
  8
Capa_1
 62
7
100
AcDbSpline
 70
8
 71
3
 72
8
 73
4
 74
0
 40
0
 40
0
 40
0
 40
0
 40
1
 40
1
 40
1
 40
1
 10
1.508337
 20
7.338216
 30
0.0
 10
1.534311
 20
7.338216
 30
0.0
 10
1.558795
 20
7.341622
 30
0.0
 10
1.581789
 20
7.348432
 30
0.0
  0
SPLINE
  5
12c
100
AcDbEntity
  8
Capa_1
 62
7
100
AcDbSpline
 70
8
 71
3
 72
8
 73
4
 74
0
 40
0
 40
0
 40
0
 40
0
 40
1
 40
1
 40
1
 40
1
 10
1.581789
 20
7.348432
 30
0.0
 10
1.604783
 20
7.355243
 30
0.0
 10
1.623838
 20
7.362565
 30
0.0
 10
1.638954
 20
7.370397
 30
0.0
  0
LWPOLYLINE
  5
12d
100
AcDbEntity
  8
Capa_1
 62
7
100
AcDbPolyline
 90
12
 70
1
 10
1.721029
 20
7.539187
 30
0.0
 10
1.895078
 20
7.539187
 30
0.0
 10
1.895078
 20
7.357535
 30
0.0
 10
1.948091
 20
7.357535
 30
0.0
 10
1.948091
 20
7.539187
 30
0.0
 10
2.122140
 20
7.539187
 30
0.0
 10
2.122140
 20
7.592515
 30
0.0
 10
1.948091
 20
7.592515
 30
0.0
 10
1.948091
 20
7.774167
 30
0.0
 10
1.895078
 20
7.774167
 30
0.0
 10
1.895078
 20
7.592515
 30
0.0
 10
1.721029
 20
7.592515
 30
0.0
  0
SPLINE
  5
12e
100
AcDbEntity
  8
Capa_1
 62
7
100
AcDbSpline
 70
8
 71
3
 72
8
 73
4
 74
0
 40
0
 40
0
 40
0
 40
0
 40
1
 40
1
 40
1
 40
1
 10
1.621707
 20
7.435065
 30
0.0
 10
1.608506
 20
7.424644
 30
0.0
 10
1.590729
 20
7.415075
 30
0.0
 10
1.568374
 20
7.406358
 30
0.0
  0
SPLINE
  5
12f
100
AcDbEntity
  8
Capa_1
 62
7
100
AcDbSpline
 70
8
 71
3
 72
8
 73
4
 74
0
 40
0
 40
0
 40
0
 40
0
 40
1
 40
1
 40
1
 40
1
 10
1.568374
 20
7.406358
 30
0.0
 10
1.546019
 20
7.397912
 30
0.0
 10
1.522812
 20
7.393690
 30
0.0
 10
1.498754
 20
7.393690
 30
0.0
  0
SPLINE
  5
130
100
AcDbEntity
  8
Capa_1
 62
7
100
AcDbSpline
 70
8
 71
3
 72
8
 73
4
 74
0
 40
0
 40
0
 40
0
 40
0
 40
1
 40
1
 40
1
 40
1
 10
1.498754
 20
7.393690
 30
0.0
 10
1.459154
 20
7.393690
 30
0.0
 10
1.427218
 20
7.405676
 30
0.0
 10
1.402947
 20
7.429650
 30
0.0
  0
SPLINE
  5
131
100
AcDbEntity
  8
Capa_1
 62
7
100
AcDbSpline
 70
8
 71
3
 72
8
 73
4
 74
0
 40
0
 40
0
 40
0
 40
0
 40
1
 40
1
 40
1
 40
1
 10
1.402947
 20
7.429650
 30
0.0
 10
1.378676
 20
7.453624
 30
0.0
 10
1.366541
 20
7.485055
 30
0.0
 10
1.366541
 20
7.523944
 30
0.0
  0
SPLINE
  5
132
100
AcDbEntity
  8
Capa_1
 62
7
100
AcDbSpline
 70
8
 71
3
 72
8
 73
4
 74
0
 40
0
 40
0
 40
0
 40
0
 40
1
 40
1
 40
1
 40
1
 10
1.366541
 20
7.523944
 30
0.0
 10
1.366541
 20
7.539064
 30
0.0
 10
1.369308
 20
7.551630
 30
0.0
 10
1.374841
 20
7.561642
 30
0.0
  0
SPLINE
  5
133
100
AcDbEntity
  8
Capa_1
 62
7
100
AcDbSpline
 70
8
 71
3
 72
8
 73
4
 74
0
 40
0
 40
0
 40
0
 40
0
 40
1
 40
1
 40
1
 40
1
 10
1.374841
 20
7.561642
 30
0.0
 10
1.380375
 20
7.571653
 30
0.0
 10
1.387827
 20
7.579758
 30
0.0
 10
1.397196
 20
7.585956
 30
0.0
  0
SPLINE
  5
134
100
AcDbEntity
  8
Capa_1
 62
7
100
AcDbSpline
 70
8
 71
3
 72
8
 73
4
 74
0
 40
0
 40
0
 40
0
 40
0
 40
1
 40
1
 40
1
 40
1
 10
1.397196
 20
7.585956
 30
0.0
 10
1.406777
 20
7.592086
 30
0.0
 10
1.418168
 20
7.596513
 30
0.0
 10
1.431367
 20
7.599237
 30
0.0
  0
SPLINE
  5
135
100
AcDbEntity
  8
Capa_1
 62
7
100
AcDbSpline
 70
8
 71
3
 72
8
 73
4
 74
0
 40
0
 40
0
 40
0
 40
0
 40
1
 40
1
 40
1
 40
1
 10
1.431367
 20
7.599237
 30
0.0
 10
1.444355
 20
7.601961
 30
0.0
 10
1.458087
 20
7.603323
 30
0.0
 10
1.472564
 20
7.603323
 30
0.0
  0
SPLINE
  5
136
100
AcDbEntity
  8
Capa_1
 62
7
100
AcDbSpline
 70
8
 71
3
 72
8
 73
4
 74
0
 40
0
 40
0
 40
0
 40
0
 40
1
 40
1
 40
1
 40
1
 10
1.472564
 20
7.603323
 30
0.0
 10
1.491299
 20
7.603323
 30
0.0
 10
1.510141
 20
7.601961
 30
0.0
 10
1.529090
 20
7.599237
 30
0.0
  0
SPLINE
  5
137
100
AcDbEntity
  8
Capa_1
 62
7
100
AcDbSpline
 70
8
 71
3
 72
8
 73
4
 74
0
 40
0
 40
0
 40
0
 40
0
 40
1
 40
1
 40
1
 40
1
 10
1.529090
 20
7.599237
 30
0.0
 10
1.547826
 20
7.596513
 30
0.0
 10
1.563793
 20
7.593788
 30
0.0
 10
1.576993
 20
7.591064
 30
0.0
  0
LWPOLYLINE
  5
138
100
AcDbEntity
  8
Capa_1
 62
7
100
AcDbPolyline
 90
3
 70
0
 10
1.638954
 20
7.370397
 30
0.0
 10
1.626180
 20
7.435065
 30
0.0
 10
1.621707
 20
7.435065
 30
0.0
  0
SPLINE
  5
139
100
AcDbEntity
  8
Capa_1
 62
7
100
AcDbSpline
 70
8
 71
3
 72
8
 73
4
 74
0
 40
0
 40
0
 40
0
 40
0
 40
1
 40
1
 40
1
 40
1
 10
1.501312
 20
7.652738
 30
0.0
 10
1.492583
 20
7.654101
 30
0.0
 10
1.484067
 20
7.655122
 30
0.0
 10
1.475764
 20
7.655803
 30
0.0
  0
SPLINE
  5
13a
100
AcDbEntity
  8
Capa_1
 62
7
100
AcDbSpline
 70
8
 71
3
 72
8
 73
4
 74
0
 40
0
 40
0
 40
0
 40
0
 40
1
 40
1
 40
1
 40
1
 10
1.475764
 20
7.655803
 30
0.0
 10
1.467461
 20
7.656471
 30
0.0
 10
1.459051
 20
7.656804
 30
0.0
 10
1.450535
 20
7.656804
 30
0.0
  0
SPLINE
  5
13b
100
AcDbEntity
  8
Capa_1
 62
7
100
AcDbSpline
 70
8
 71
3
 72
8
 73
4
 74
0
 40
0
 40
0
 40
0
 40
0
 40
1
 40
1
 40
1
 40
1
 10
1.450535
 20
7.656804
 30
0.0
 10
1.402632
 20
7.656804
 30
0.0
 10
1.365374
 20
7.646043
 30
0.0
 10
1.338761
 20
7.624522
 30
0.0
  0
SPLINE
  5
13c
100
AcDbEntity
  8
Capa_1
 62
7
100
AcDbSpline
 70
8
 71
3
 72
8
 73
4
 74
0
 40
0
 40
0
 40
0
 40
0
 40
1
 40
1
 40
1
 40
1
 10
1.338761
 20
7.624522
 30
0.0
 10
1.311935
 20
7.603000
 30
0.0
 10
1.298522
 20
7.573680
 30
0.0
 10
1.298522
 20
7.536561
 30
0.0
  0
SPLINE
  5
13d
100
AcDbEntity
  8
Capa_1
 62
7
100
AcDbSpline
 70
8
 71
3
 72
8
 73
4
 74
0
 40
0
 40
0
 40
0
 40
0
 40
1
 40
1
 40
1
 40
1
 10
1.298522
 20
7.536561
 30
0.0
 10
1.298522
 20
7.509863
 30
0.0
 10
1.303419
 20
7.484527
 30
0.0
 10
1.313213
 20
7.460554
 30
0.0
  0
SPLINE
  5
13e
100
AcDbEntity
  8
Capa_1
 62
7
100
AcDbSpline
 70
8
 71
3
 72
8
 73
4
 74
0
 40
0
 40
0
 40
0
 40
0
 40
1
 40
1
 40
1
 40
1
 10
1.313213
 20
7.460554
 30
0.0
 10
1.323006
 20
7.436580
 30
0.0
 10
1.336952
 20
7.415569
 30
0.0
 10
1.355049
 20
7.397521
 30
0.0
  0
LWPOLYLINE
  5
13f
100
AcDbEntity
  8
Capa_1
 62
7
100
AcDbPolyline
 90
6
 70
0
 10
1.576993
 20
7.591064
 30
0.0
 10
1.520786
 20
7.845372
 30
0.0
 10
1.235601
 20
7.845372
 30
0.0
 10
1.248056
 20
7.789388
 30
0.0
 10
1.471293
 20
7.789388
 30
0.0
 10
1.501312
 20
7.652738
 30
0.0
  0
LWPOLYLINE
  5
140
100
AcDbEntity
  8
Capa_1
 62
7
100
AcDbPolyline
 90
2
 70
0
 10
1.355049
 20
7.397521
 30
0.0
 10
1.355047
 20
7.396857
 30
0.0
  0
LWPOLYLINE
  5
141
100
AcDbEntity
  8
Capa_1
 62
7
100
AcDbPolyline
 90
7
 70
1
 10
0.749548
 20
7.844821
 30
0.0
 10
1.032498
 20
7.348535
 30
0.0
 10
1.116808
 20
7.348535
 30
0.0
 10
1.180041
 20
7.844821
 30
0.0
 10
1.114253
 20
7.844821
 30
0.0
 10
1.062198
 20
7.408860
 30
0.0
 10
0.816933
 20
7.844821
 30
0.0
  0
SPLINE
  5
142
100
AcDbEntity
  8
Capa_1
 62
7
100
AcDbSpline
 70
8
 71
3
 72
8
 73
4
 74
0
 40
0
 40
0
 40
0
 40
0
 40
1
 40
1
 40
1
 40
1
 10
1.571890
 20
5.685676
 30
0.0
 10
1.590625
 20
5.668581
 30
0.0
 10
1.612235
 20
5.655232
 30
0.0
 10
1.636719
 20
5.645629
 30
0.0
  0
SPLINE
  5
143
100
AcDbEntity
  8
Capa_1
 62
7
100
AcDbSpline
 70
8
 71
3
 72
8
 73
4
 74
0
 40
0
 40
0
 40
0
 40
0
 40
1
 40
1
 40
1
 40
1
 10
1.636719
 20
5.645629
 30
0.0
 10
1.660990
 20
5.636298
 30
0.0
 10
1.689200
 20
5.631633
 30
0.0
 10
1.721348
 20
5.631633
 30
0.0
  0
SPLINE
  5
144
100
AcDbEntity
  8
Capa_1
 62
7
100
AcDbSpline
 70
8
 71
3
 72
8
 73
4
 74
0
 40
0
 40
0
 40
0
 40
0
 40
1
 40
1
 40
1
 40
1
 10
1.721348
 20
5.631633
 30
0.0
 10
1.747110
 20
5.631633
 30
0.0
 10
1.772126
 20
5.635073
 30
0.0
 10
1.796397
 20
5.641951
 30
0.0
  0
SPLINE
  5
145
100
AcDbEntity
  8
Capa_1
 62
7
100
AcDbSpline
 70
8
 71
3
 72
8
 73
4
 74
0
 40
0
 40
0
 40
0
 40
0
 40
1
 40
1
 40
1
 40
1
 10
1.796397
 20
5.641951
 30
0.0
 10
1.820455
 20
5.648762
 30
0.0
 10
1.840788
 20
5.656765
 30
0.0
 10
1.857394
 20
5.665959
 30
0.0
  0
LWPOLYLINE
  5
146
100
AcDbEntity
  8
Capa_1
 62
7
100
AcDbPolyline
 90
12
 70
1
 10
1.929249
 20
5.832665
 30
0.0
 10
2.103298
 20
5.832665
 30
0.0
 10
2.103298
 20
5.651013
 30
0.0
 10
2.156311
 20
5.651013
 30
0.0
 10
2.156311
 20
5.832665
 30
0.0
 10
2.330360
 20
5.832665
 30
0.0
 10
2.330360
 20
5.885993
 30
0.0
 10
2.156311
 20
5.885993
 30
0.0
 10
2.156311
 20
6.067645
 30
0.0
 10
2.103298
 20
6.067645
 30
0.0
 10
2.103298
 20
5.885993
 30
0.0
 10
1.929249
 20
5.885993
 30
0.0
  0
SPLINE
  5
147
100
AcDbEntity
  8
Capa_1
 62
7
100
AcDbSpline
 70
8
 71
3
 72
8
 73
4
 74
0
 40
0
 40
0
 40
0
 40
0
 40
1
 40
1
 40
1
 40
1
 10
1.837598
 20
5.729912
 30
0.0
 10
1.822907
 20
5.718333
 30
0.0
 10
1.804491
 20
5.708220
 30
0.0
 10
1.782349
 20
5.699570
 30
0.0
  0
SPLINE
  5
148
100
AcDbEntity
  8
Capa_1
 62
7
100
AcDbSpline
 70
8
 71
3
 72
8
 73
4
 74
0
 40
0
 40
0
 40
0
 40
0
 40
1
 40
1
 40
1
 40
1
 10
1.782349
 20
5.699570
 30
0.0
 10
1.760207
 20
5.691125
 30
0.0
 10
1.736788
 20
5.686902
 30
0.0
 10
1.712091
 20
5.686902
 30
0.0
  0
SPLINE
  5
149
100
AcDbEntity
  8
Capa_1
 62
7
100
AcDbSpline
 70
8
 71
3
 72
8
 73
4
 74
0
 40
0
 40
0
 40
0
 40
0
 40
1
 40
1
 40
1
 40
1
 10
1.712091
 20
5.686902
 30
0.0
 10
1.673769
 20
5.686902
 30
0.0
 10
1.642366
 20
5.698787
 30
0.0
 10
1.617882
 20
5.722556
 30
0.0
  0
SPLINE
  5
14a
100
AcDbEntity
  8
Capa_1
 62
7
100
AcDbSpline
 70
8
 71
3
 72
8
 73
4
 74
0
 40
0
 40
0
 40
0
 40
0
 40
1
 40
1
 40
1
 40
1
 10
1.617882
 20
5.722556
 30
0.0
 10
1.593398
 20
5.746325
 30
0.0
 10
1.581157
 20
5.777212
 30
0.0
 10
1.581157
 20
5.815216
 30
0.0
  0
SPLINE
  5
14b
100
AcDbEntity
  8
Capa_1
 62
7
100
AcDbSpline
 70
8
 71
3
 72
8
 73
4
 74
0
 40
0
 40
0
 40
0
 40
0
 40
1
 40
1
 40
1
 40
1
 10
1.581157
 20
5.815216
 30
0.0
 10
1.581157
 20
5.838577
 30
0.0
 10
1.588928
 20
5.856012
 30
0.0
 10
1.604470
 20
5.867522
 30
0.0
  0
SPLINE
  5
14c
100
AcDbEntity
  8
Capa_1
 62
7
100
AcDbSpline
 70
8
 71
3
 72
8
 73
4
 74
0
 40
0
 40
0
 40
0
 40
0
 40
1
 40
1
 40
1
 40
1
 10
1.604470
 20
5.867522
 30
0.0
 10
1.620012
 20
5.879100
 30
0.0
 10
1.644177
 20
5.884889
 30
0.0
 10
1.676963
 20
5.884889
 30
0.0
  0
LWPOLYLINE
  5
14d
100
AcDbEntity
  8
Capa_1
 62
7
100
AcDbPolyline
 90
3
 70
0
 10
1.857394
 20
5.665959
 30
0.0
 10
1.842384
 20
5.729912
 30
0.0
 10
1.837598
 20
5.729912
 30
0.0
  0
SPLINE
  5
14e
100
AcDbEntity
  8
Capa_1
 62
7
100
AcDbSpline
 70
8
 71
3
 72
8
 73
4
 74
0
 40
0
 40
0
 40
0
 40
0
 40
1
 40
1
 40
1
 40
1
 10
1.664509
 20
5.937911
 30
0.0
 10
1.628528
 20
5.937911
 30
0.0
 10
1.599041
 20
5.946458
 30
0.0
 10
1.576047
 20
5.963553
 30
0.0
  0
SPLINE
  5
14f
100
AcDbEntity
  8
Capa_1
 62
7
100
AcDbSpline
 70
8
 71
3
 72
8
 73
4
 74
0
 40
0
 40
0
 40
0
 40
0
 40
1
 40
1
 40
1
 40
1
 10
1.576047
 20
5.963553
 30
0.0
 10
1.553053
 20
5.980852
 30
0.0
 10
1.541556
 20
6.004281
 30
0.0
 10
1.541556
 20
6.033840
 30
0.0
  0
SPLINE
  5
150
100
AcDbEntity
  8
Capa_1
 62
7
100
AcDbSpline
 70
8
 71
3
 72
8
 73
4
 74
0
 40
0
 40
0
 40
0
 40
0
 40
1
 40
1
 40
1
 40
1
 10
1.541556
 20
6.033840
 30
0.0
 10
1.541556
 20
6.052501
 30
0.0
 10
1.548476
 20
6.067042
 30
0.0
 10
1.562315
 20
6.077462
 30
0.0
  0
SPLINE
  5
151
100
AcDbEntity
  8
Capa_1
 62
7
100
AcDbSpline
 70
8
 71
3
 72
8
 73
4
 74
0
 40
0
 40
0
 40
0
 40
0
 40
1
 40
1
 40
1
 40
1
 10
1.562315
 20
6.077462
 30
0.0
 10
1.575940
 20
6.087883
 30
0.0
 10
1.596166
 20
6.093093
 30
0.0
 10
1.622993
 20
6.093093
 30
0.0
  0
SPLINE
  5
152
100
AcDbEntity
  8
Capa_1
 62
7
100
AcDbSpline
 70
8
 71
3
 72
8
 73
4
 74
0
 40
0
 40
0
 40
0
 40
0
 40
1
 40
1
 40
1
 40
1
 10
1.622993
 20
6.093093
 30
0.0
 10
1.645135
 20
6.093093
 30
0.0
 10
1.668767
 20
6.088870
 30
0.0
 10
1.693890
 20
6.080425
 30
0.0
  0
SPLINE
  5
153
100
AcDbEntity
  8
Capa_1
 62
7
100
AcDbSpline
 70
8
 71
3
 72
8
 73
4
 74
0
 40
0
 40
0
 40
0
 40
0
 40
1
 40
1
 40
1
 40
1
 10
1.693890
 20
6.080425
 30
0.0
 10
1.719012
 20
6.071980
 30
0.0
 10
1.741261
 20
6.061763
 30
0.0
 10
1.760636
 20
6.049777
 30
0.0
  0
LWPOLYLINE
  5
154
100
AcDbEntity
  8
Capa_1
 62
7
100
AcDbPolyline
 90
4
 70
0
 10
1.676963
 20
5.884889
 30
0.0
 10
1.707302
 20
5.884889
 30
0.0
 10
1.694847
 20
5.937911
 30
0.0
 10
1.664509
 20
5.937911
 30
0.0
  0
SPLINE
  5
155
100
AcDbEntity
  8
Capa_1
 62
7
100
AcDbSpline
 70
8
 71
3
 72
8
 73
4
 74
0
 40
0
 40
0
 40
0
 40
0
 40
1
 40
1
 40
1
 40
1
 10
1.750094
 20
6.117100
 30
0.0
 10
1.733062
 20
6.124865
 30
0.0
 10
1.711453
 20
6.131982
 30
0.0
 10
1.685265
 20
6.138452
 30
0.0
  0
SPLINE
  5
156
100
AcDbEntity
  8
Capa_1
 62
7
100
AcDbSpline
 70
8
 71
3
 72
8
 73
4
 74
0
 40
0
 40
0
 40
0
 40
0
 40
1
 40
1
 40
1
 40
1
 10
1.685265
 20
6.138452
 30
0.0
 10
1.658865
 20
6.145263
 30
0.0
 10
1.633849
 20
6.148668
 30
0.0
 10
1.610217
 20
6.148668
 30
0.0
  0
SPLINE
  5
157
100
AcDbEntity
  8
Capa_1
 62
7
100
AcDbSpline
 70
8
 71
3
 72
8
 73
4
 74
0
 40
0
 40
0
 40
0
 40
0
 40
1
 40
1
 40
1
 40
1
 10
1.610217
 20
6.148668
 30
0.0
 10
1.568275
 20
6.148668
 30
0.0
 10
1.535275
 20
6.139882
 30
0.0
 10
1.511216
 20
6.122311
 30
0.0
  0
SPLINE
  5
158
100
AcDbEntity
  8
Capa_1
 62
7
100
AcDbSpline
 70
8
 71
3
 72
8
 73
4
 74
0
 40
0
 40
0
 40
0
 40
0
 40
1
 40
1
 40
1
 40
1
 10
1.511216
 20
6.122311
 30
0.0
 10
1.486945
 20
6.104943
 30
0.0
 10
1.474810
 20
6.081174
 30
0.0
 10
1.474810
 20
6.051003
 30
0.0
  0
SPLINE
  5
159
100
AcDbEntity
  8
Capa_1
 62
7
100
AcDbSpline
 70
8
 71
3
 72
8
 73
4
 74
0
 40
0
 40
0
 40
0
 40
0
 40
1
 40
1
 40
1
 40
1
 10
1.474810
 20
6.051003
 30
0.0
 10
1.474810
 20
6.018107
 30
0.0
 10
1.486520
 20
5.988889
 30
0.0
 10
1.509939
 20
5.963349
 30
0.0
  0
SPLINE
  5
15a
100
AcDbEntity
  8
Capa_1
 62
7
100
AcDbSpline
 70
8
 71
3
 72
8
 73
4
 74
0
 40
0
 40
0
 40
0
 40
0
 40
1
 40
1
 40
1
 40
1
 10
1.509939
 20
5.963349
 30
0.0
 10
1.533146
 20
5.938013
 30
0.0
 10
1.562526
 20
5.921906
 30
0.0
 10
1.598082
 20
5.915027
 30
0.0
  0
LWPOLYLINE
  5
15b
100
AcDbEntity
  8
Capa_1
 62
7
100
AcDbPolyline
 90
3
 70
0
 10
1.760636
 20
6.049777
 30
0.0
 10
1.763827
 20
6.049777
 30
0.0
 10
1.750094
 20
6.117100
 30
0.0
  0
SPLINE
  5
15c
100
AcDbEntity
  8
Capa_1
 62
7
100
AcDbSpline
 70
8
 71
3
 72
8
 73
4
 74
0
 40
0
 40
0
 40
0
 40
0
 40
1
 40
1
 40
1
 40
1
 10
1.598082
 20
5.911962
 30
0.0
 10
1.589778
 20
5.909919
 30
0.0
 10
1.580623
 20
5.906513
 30
0.0
 10
1.570617
 20
5.901746
 30
0.0
  0
SPLINE
  5
15d
100
AcDbEntity
  8
Capa_1
 62
7
100
AcDbSpline
 70
8
 71
3
 72
8
 73
4
 74
0
 40
0
 40
0
 40
0
 40
0
 40
1
 40
1
 40
1
 40
1
 10
1.570617
 20
5.901746
 30
0.0
 10
1.560398
 20
5.896978
 30
0.0
 10
1.551456
 20
5.890985
 30
0.0
 10
1.543792
 20
5.883766
 30
0.0
  0
SPLINE
  5
15e
100
AcDbEntity
  8
Capa_1
 62
7
100
AcDbSpline
 70
8
 71
3
 72
8
 73
4
 74
0
 40
0
 40
0
 40
0
 40
0
 40
1
 40
1
 40
1
 40
1
 10
1.543792
 20
5.883766
 30
0.0
 10
1.535701
 20
5.876206
 30
0.0
 10
1.528995
 20
5.866637
 30
0.0
 10
1.523672
 20
5.855058
 30
0.0
  0
SPLINE
  5
15f
100
AcDbEntity
  8
Capa_1
 62
7
100
AcDbSpline
 70
8
 71
3
 72
8
 73
4
 74
0
 40
0
 40
0
 40
0
 40
0
 40
1
 40
1
 40
1
 40
1
 10
1.523672
 20
5.855058
 30
0.0
 10
1.518138
 20
5.843480
 30
0.0
 10
1.515372
 20
5.829825
 30
0.0
 10
1.515372
 20
5.814092
 30
0.0
  0
SPLINE
  5
160
100
AcDbEntity
  8
Capa_1
 62
7
100
AcDbSpline
 70
8
 71
3
 72
8
 73
4
 74
0
 40
0
 40
0
 40
0
 40
0
 40
1
 40
1
 40
1
 40
1
 10
1.515372
 20
5.814092
 30
0.0
 10
1.515372
 20
5.789846
 30
0.0
 10
1.520375
 20
5.766417
 30
0.0
 10
1.530381
 20
5.743806
 30
0.0
  0
SPLINE
  5
161
100
AcDbEntity
  8
Capa_1
 62
7
100
AcDbSpline
 70
8
 71
3
 72
8
 73
4
 74
0
 40
0
 40
0
 40
0
 40
0
 40
1
 40
1
 40
1
 40
1
 10
1.530381
 20
5.743806
 30
0.0
 10
1.540388
 20
5.721330
 30
0.0
 10
1.554226
 20
5.701988
 30
0.0
 10
1.571897
 20
5.685778
 30
0.0
  0
LWPOLYLINE
  5
162
100
AcDbEntity
  8
Capa_1
 62
7
100
AcDbPolyline
 90
2
 70
0
 10
1.598082
 20
5.915027
 30
0.0
 10
1.598082
 20
5.911962
 30
0.0
  0
LWPOLYLINE
  5
163
100
AcDbEntity
  8
Capa_1
 62
7
100
AcDbPolyline
 90
2
 70
0
 10
1.571897
 20
5.685778
 30
0.0
 10
1.571890
 20
5.685676
 30
0.0
  0
SPLINE
  5
164
100
AcDbEntity
  8
Capa_1
 62
7
100
AcDbSpline
 70
8
 71
3
 72
8
 73
4
 74
0
 40
0
 40
0
 40
0
 40
0
 40
1
 40
1
 40
1
 40
1
 10
0.708352
 20
5.685676
 30
0.0
 10
0.727087
 20
5.668581
 30
0.0
 10
0.748697
 20
5.655232
 30
0.0
 10
0.773181
 20
5.645629
 30
0.0
  0
SPLINE
  5
165
100
AcDbEntity
  8
Capa_1
 62
7
100
AcDbSpline
 70
8
 71
3
 72
8
 73
4
 74
0
 40
0
 40
0
 40
0
 40
0
 40
1
 40
1
 40
1
 40
1
 10
0.773181
 20
5.645629
 30
0.0
 10
0.797452
 20
5.636298
 30
0.0
 10
0.825662
 20
5.631633
 30
0.0
 10
0.857810
 20
5.631633
 30
0.0
  0
SPLINE
  5
166
100
AcDbEntity
  8
Capa_1
 62
7
100
AcDbSpline
 70
8
 71
3
 72
8
 73
4
 74
0
 40
0
 40
0
 40
0
 40
0
 40
1
 40
1
 40
1
 40
1
 10
0.857810
 20
5.631633
 30
0.0
 10
0.883572
 20
5.631633
 30
0.0
 10
0.908588
 20
5.635073
 30
0.0
 10
0.932859
 20
5.641951
 30
0.0
  0
SPLINE
  5
167
100
AcDbEntity
  8
Capa_1
 62
7
100
AcDbSpline
 70
8
 71
3
 72
8
 73
4
 74
0
 40
0
 40
0
 40
0
 40
0
 40
1
 40
1
 40
1
 40
1
 10
0.932859
 20
5.641951
 30
0.0
 10
0.956917
 20
5.648762
 30
0.0
 10
0.977249
 20
5.656765
 30
0.0
 10
0.993856
 20
5.665959
 30
0.0
  0
LWPOLYLINE
  5
168
100
AcDbEntity
  8
Capa_1
 62
7
100
AcDbPolyline
 90
7
 70
1
 10
0.957768
 20
6.138299
 30
0.0
 10
1.240718
 20
5.642013
 30
0.0
 10
1.325028
 20
5.642013
 30
0.0
 10
1.388261
 20
6.138299
 30
0.0
 10
1.322473
 20
6.138299
 30
0.0
 10
1.270418
 20
5.702339
 30
0.0
 10
1.025153
 20
6.138299
 30
0.0
  0
SPLINE
  5
169
100
AcDbEntity
  8
Capa_1
 62
7
100
AcDbSpline
 70
8
 71
3
 72
8
 73
4
 74
0
 40
0
 40
0
 40
0
 40
0
 40
1
 40
1
 40
1
 40
1
 10
0.974060
 20
5.729912
 30
0.0
 10
0.959369
 20
5.718333
 30
0.0
 10
0.940953
 20
5.708220
 30
0.0
 10
0.918811
 20
5.699570
 30
0.0
  0
SPLINE
  5
16a
100
AcDbEntity
  8
Capa_1
 62
7
100
AcDbSpline
 70
8
 71
3
 72
8
 73
4
 74
0
 40
0
 40
0
 40
0
 40
0
 40
1
 40
1
 40
1
 40
1
 10
0.918811
 20
5.699570
 30
0.0
 10
0.896669
 20
5.691125
 30
0.0
 10
0.873250
 20
5.686902
 30
0.0
 10
0.848553
 20
5.686902
 30
0.0
  0
SPLINE
  5
16b
100
AcDbEntity
  8
Capa_1
 62
7
100
AcDbSpline
 70
8
 71
3
 72
8
 73
4
 74
0
 40
0
 40
0
 40
0
 40
0
 40
1
 40
1
 40
1
 40
1
 10
0.848553
 20
5.686902
 30
0.0
 10
0.810231
 20
5.686902
 30
0.0
 10
0.778827
 20
5.698787
 30
0.0
 10
0.754343
 20
5.722556
 30
0.0
  0
SPLINE
  5
16c
100
AcDbEntity
  8
Capa_1
 62
7
100
AcDbSpline
 70
8
 71
3
 72
8
 73
4
 74
0
 40
0
 40
0
 40
0
 40
0
 40
1
 40
1
 40
1
 40
1
 10
0.754343
 20
5.722556
 30
0.0
 10
0.729859
 20
5.746325
 30
0.0
 10
0.717617
 20
5.777212
 30
0.0
 10
0.717617
 20
5.815216
 30
0.0
  0
SPLINE
  5
16d
100
AcDbEntity
  8
Capa_1
 62
7
100
AcDbSpline
 70
8
 71
3
 72
8
 73
4
 74
0
 40
0
 40
0
 40
0
 40
0
 40
1
 40
1
 40
1
 40
1
 10
0.717617
 20
5.815216
 30
0.0
 10
0.717617
 20
5.838577
 30
0.0
 10
0.725388
 20
5.856012
 30
0.0
 10
0.740931
 20
5.867522
 30
0.0
  0
SPLINE
  5
16e
100
AcDbEntity
  8
Capa_1
 62
7
100
AcDbSpline
 70
8
 71
3
 72
8
 73
4
 74
0
 40
0
 40
0
 40
0
 40
0
 40
1
 40
1
 40
1
 40
1
 10
0.740931
 20
5.867522
 30
0.0
 10
0.756473
 20
5.879100
 30
0.0
 10
0.780637
 20
5.884889
 30
0.0
 10
0.813424
 20
5.884889
 30
0.0
  0
LWPOLYLINE
  5
16f
100
AcDbEntity
  8
Capa_1
 62
7
100
AcDbPolyline
 90
3
 70
0
 10
0.993856
 20
5.665959
 30
0.0
 10
0.978846
 20
5.729912
 30
0.0
 10
0.974060
 20
5.729912
 30
0.0
  0
SPLINE
  5
170
100
AcDbEntity
  8
Capa_1
 62
7
100
AcDbSpline
 70
8
 71
3
 72
8
 73
4
 74
0
 40
0
 40
0
 40
0
 40
0
 40
1
 40
1
 40
1
 40
1
 10
0.800969
 20
5.937911
 30
0.0
 10
0.764989
 20
5.937911
 30
0.0
 10
0.735502
 20
5.946458
 30
0.0
 10
0.712508
 20
5.963553
 30
0.0
  0
SPLINE
  5
171
100
AcDbEntity
  8
Capa_1
 62
7
100
AcDbSpline
 70
8
 71
3
 72
8
 73
4
 74
0
 40
0
 40
0
 40
0
 40
0
 40
1
 40
1
 40
1
 40
1
 10
0.712508
 20
5.963553
 30
0.0
 10
0.689514
 20
5.980852
 30
0.0
 10
0.678017
 20
6.004281
 30
0.0
 10
0.678017
 20
6.033840
 30
0.0
  0
SPLINE
  5
172
100
AcDbEntity
  8
Capa_1
 62
7
100
AcDbSpline
 70
8
 71
3
 72
8
 73
4
 74
0
 40
0
 40
0
 40
0
 40
0
 40
1
 40
1
 40
1
 40
1
 10
0.678017
 20
6.033840
 30
0.0
 10
0.678017
 20
6.052501
 30
0.0
 10
0.684937
 20
6.067042
 30
0.0
 10
0.698776
 20
6.077462
 30
0.0
  0
SPLINE
  5
173
100
AcDbEntity
  8
Capa_1
 62
7
100
AcDbSpline
 70
8
 71
3
 72
8
 73
4
 74
0
 40
0
 40
0
 40
0
 40
0
 40
1
 40
1
 40
1
 40
1
 10
0.698776
 20
6.077462
 30
0.0
 10
0.712401
 20
6.087883
 30
0.0
 10
0.732627
 20
6.093093
 30
0.0
 10
0.759453
 20
6.093093
 30
0.0
  0
SPLINE
  5
174
100
AcDbEntity
  8
Capa_1
 62
7
100
AcDbSpline
 70
8
 71
3
 72
8
 73
4
 74
0
 40
0
 40
0
 40
0
 40
0
 40
1
 40
1
 40
1
 40
1
 10
0.759453
 20
6.093093
 30
0.0
 10
0.781596
 20
6.093093
 30
0.0
 10
0.805228
 20
6.088870
 30
0.0
 10
0.830351
 20
6.080425
 30
0.0
  0
SPLINE
  5
175
100
AcDbEntity
  8
Capa_1
 62
7
100
AcDbSpline
 70
8
 71
3
 72
8
 73
4
 74
0
 40
0
 40
0
 40
0
 40
0
 40
1
 40
1
 40
1
 40
1
 10
0.830351
 20
6.080425
 30
0.0
 10
0.855473
 20
6.071980
 30
0.0
 10
0.877721
 20
6.061763
 30
0.0
 10
0.897096
 20
6.049777
 30
0.0
  0
LWPOLYLINE
  5
176
100
AcDbEntity
  8
Capa_1
 62
7
100
AcDbPolyline
 90
4
 70
0
 10
0.813424
 20
5.884889
 30
0.0
 10
0.843763
 20
5.884889
 30
0.0
 10
0.831308
 20
5.937911
 30
0.0
 10
0.800969
 20
5.937911
 30
0.0
  0
SPLINE
  5
177
100
AcDbEntity
  8
Capa_1
 62
7
100
AcDbSpline
 70
8
 71
3
 72
8
 73
4
 74
0
 40
0
 40
0
 40
0
 40
0
 40
1
 40
1
 40
1
 40
1
 10
0.886554
 20
6.117100
 30
0.0
 10
0.869522
 20
6.124865
 30
0.0
 10
0.847912
 20
6.131982
 30
0.0
 10
0.821725
 20
6.138452
 30
0.0
  0
SPLINE
  5
178
100
AcDbEntity
  8
Capa_1
 62
7
100
AcDbSpline
 70
8
 71
3
 72
8
 73
4
 74
0
 40
0
 40
0
 40
0
 40
0
 40
1
 40
1
 40
1
 40
1
 10
0.821725
 20
6.138452
 30
0.0
 10
0.795325
 20
6.145263
 30
0.0
 10
0.770309
 20
6.148668
 30
0.0
 10
0.746677
 20
6.148668
 30
0.0
  0
SPLINE
  5
179
100
AcDbEntity
  8
Capa_1
 62
7
100
AcDbSpline
 70
8
 71
3
 72
8
 73
4
 74
0
 40
0
 40
0
 40
0
 40
0
 40
1
 40
1
 40
1
 40
1
 10
0.746677
 20
6.148668
 30
0.0
 10
0.704735
 20
6.148668
 30
0.0
 10
0.671735
 20
6.139882
 30
0.0
 10
0.647676
 20
6.122311
 30
0.0
  0
SPLINE
  5
17a
100
AcDbEntity
  8
Capa_1
 62
7
100
AcDbSpline
 70
8
 71
3
 72
8
 73
4
 74
0
 40
0
 40
0
 40
0
 40
0
 40
1
 40
1
 40
1
 40
1
 10
0.647676
 20
6.122311
 30
0.0
 10
0.623405
 20
6.104943
 30
0.0
 10
0.611270
 20
6.081174
 30
0.0
 10
0.611270
 20
6.051003
 30
0.0
  0
SPLINE
  5
17b
100
AcDbEntity
  8
Capa_1
 62
7
100
AcDbSpline
 70
8
 71
3
 72
8
 73
4
 74
0
 40
0
 40
0
 40
0
 40
0
 40
1
 40
1
 40
1
 40
1
 10
0.611270
 20
6.051003
 30
0.0
 10
0.611270
 20
6.018107
 30
0.0
 10
0.622979
 20
5.988889
 30
0.0
 10
0.646399
 20
5.963349
 30
0.0
  0
SPLINE
  5
17c
100
AcDbEntity
  8
Capa_1
 62
7
100
AcDbSpline
 70
8
 71
3
 72
8
 73
4
 74
0
 40
0
 40
0
 40
0
 40
0
 40
1
 40
1
 40
1
 40
1
 10
0.646399
 20
5.963349
 30
0.0
 10
0.669605
 20
5.938013
 30
0.0
 10
0.698986
 20
5.921906
 30
0.0
 10
0.734541
 20
5.915027
 30
0.0
  0
LWPOLYLINE
  5
17d
100
AcDbEntity
  8
Capa_1
 62
7
100
AcDbPolyline
 90
3
 70
0
 10
0.897096
 20
6.049777
 30
0.0
 10
0.900287
 20
6.049777
 30
0.0
 10
0.886554
 20
6.117100
 30
0.0
  0
SPLINE
  5
17e
100
AcDbEntity
  8
Capa_1
 62
7
100
AcDbSpline
 70
8
 71
3
 72
8
 73
4
 74
0
 40
0
 40
0
 40
0
 40
0
 40
1
 40
1
 40
1
 40
1
 10
0.734541
 20
5.911962
 30
0.0
 10
0.726238
 20
5.909919
 30
0.0
 10
0.717083
 20
5.906513
 30
0.0
 10
0.707077
 20
5.901746
 30
0.0
  0
SPLINE
  5
17f
100
AcDbEntity
  8
Capa_1
 62
7
100
AcDbSpline
 70
8
 71
3
 72
8
 73
4
 74
0
 40
0
 40
0
 40
0
 40
0
 40
1
 40
1
 40
1
 40
1
 10
0.707077
 20
5.901746
 30
0.0
 10
0.696858
 20
5.896978
 30
0.0
 10
0.687916
 20
5.890985
 30
0.0
 10
0.680251
 20
5.883766
 30
0.0
  0
SPLINE
  5
180
100
AcDbEntity
  8
Capa_1
 62
7
100
AcDbSpline
 70
8
 71
3
 72
8
 73
4
 74
0
 40
0
 40
0
 40
0
 40
0
 40
1
 40
1
 40
1
 40
1
 10
0.680251
 20
5.883766
 30
0.0
 10
0.672161
 20
5.876206
 30
0.0
 10
0.665454
 20
5.866637
 30
0.0
 10
0.660132
 20
5.855058
 30
0.0
  0
SPLINE
  5
181
100
AcDbEntity
  8
Capa_1
 62
7
100
AcDbSpline
 70
8
 71
3
 72
8
 73
4
 74
0
 40
0
 40
0
 40
0
 40
0
 40
1
 40
1
 40
1
 40
1
 10
0.660132
 20
5.855058
 30
0.0
 10
0.654598
 20
5.843480
 30
0.0
 10
0.651831
 20
5.829825
 30
0.0
 10
0.651831
 20
5.814092
 30
0.0
  0
SPLINE
  5
182
100
AcDbEntity
  8
Capa_1
 62
7
100
AcDbSpline
 70
8
 71
3
 72
8
 73
4
 74
0
 40
0
 40
0
 40
0
 40
0
 40
1
 40
1
 40
1
 40
1
 10
0.651831
 20
5.814092
 30
0.0
 10
0.651831
 20
5.789846
 30
0.0
 10
0.656835
 20
5.766417
 30
0.0
 10
0.666841
 20
5.743806
 30
0.0
  0
SPLINE
  5
183
100
AcDbEntity
  8
Capa_1
 62
7
100
AcDbSpline
 70
8
 71
3
 72
8
 73
4
 74
0
 40
0
 40
0
 40
0
 40
0
 40
1
 40
1
 40
1
 40
1
 10
0.666841
 20
5.743806
 30
0.0
 10
0.676848
 20
5.721330
 30
0.0
 10
0.690686
 20
5.701988
 30
0.0
 10
0.708357
 20
5.685778
 30
0.0
  0
LWPOLYLINE
  5
184
100
AcDbEntity
  8
Capa_1
 62
7
100
AcDbPolyline
 90
2
 70
0
 10
0.734541
 20
5.915027
 30
0.0
 10
0.734541
 20
5.911962
 30
0.0
  0
SPLINE
  5
185
100
AcDbEntity
  8
Capa_1
 62
7
100
AcDbSpline
 70
8
 71
3
 72
8
 73
4
 74
0
 40
0
 40
0
 40
0
 40
0
 40
1
 40
1
 40
1
 40
1
 10
2.000785
 20
3.925826
 30
0.0
 10
2.066359
 20
3.925826
 30
0.0
 10
2.117562
 20
3.942717
 30
0.0
 10
2.154395
 20
3.976498
 30
0.0
  0
SPLINE
  5
186
100
AcDbEntity
  8
Capa_1
 62
7
100
AcDbSpline
 70
8
 71
3
 72
8
 73
4
 74
0
 40
0
 40
0
 40
0
 40
0
 40
1
 40
1
 40
1
 40
1
 10
2.154395
 20
3.976498
 30
0.0
 10
2.191227
 20
4.010279
 30
0.0
 10
2.209643
 20
4.058274
 30
0.0
 10
2.209643
 20
4.120483
 30
0.0
  0
SPLINE
  5
187
100
AcDbEntity
  8
Capa_1
 62
7
100
AcDbSpline
 70
8
 71
3
 72
8
 73
4
 74
0
 40
0
 40
0
 40
0
 40
0
 40
1
 40
1
 40
1
 40
1
 10
2.209643
 20
4.120483
 30
0.0
 10
2.209643
 20
4.166251
 30
0.0
 10
2.202937
 20
4.208580
 30
0.0
 10
2.189524
 20
4.247469
 30
0.0
  0
SPLINE
  5
188
100
AcDbEntity
  8
Capa_1
 62
7
100
AcDbSpline
 70
8
 71
3
 72
8
 73
4
 74
0
 40
0
 40
0
 40
0
 40
0
 40
1
 40
1
 40
1
 40
1
 10
2.189524
 20
4.247469
 30
0.0
 10
2.175898
 20
4.286358
 30
0.0
 10
2.156204
 20
4.320241
 30
0.0
 10
2.130443
 20
4.349119
 30
0.0
  0
SPLINE
  5
189
100
AcDbEntity
  8
Capa_1
 62
7
100
AcDbSpline
 70
8
 71
3
 72
8
 73
4
 74
0
 40
0
 40
0
 40
0
 40
0
 40
1
 40
1
 40
1
 40
1
 10
2.130443
 20
4.349119
 30
0.0
 10
2.104895
 20
4.377792
 30
0.0
 10
2.073598
 20
4.400233
 30
0.0
 10
2.036553
 20
4.416443
 30
0.0
  0
SPLINE
  5
18a
100
AcDbEntity
  8
Capa_1
 62
7
100
AcDbSpline
 70
8
 71
3
 72
8
 73
4
 74
0
 40
0
 40
0
 40
0
 40
0
 40
1
 40
1
 40
1
 40
1
 10
2.036553
 20
4.416443
 30
0.0
 10
1.999294
 20
4.432652
 30
0.0
 10
1.957459
 20
4.440757
 30
0.0
 10
1.911046
 20
4.440757
 30
0.0
  0
SPLINE
  5
18b
100
AcDbEntity
  8
Capa_1
 62
7
100
AcDbSpline
 70
8
 71
3
 72
8
 73
4
 74
0
 40
0
 40
0
 40
0
 40
0
 40
1
 40
1
 40
1
 40
1
 10
1.911046
 20
4.440757
 30
0.0
 10
1.883155
 20
4.440757
 30
0.0
 10
1.855371
 20
4.437215
 30
0.0
 10
1.827694
 20
4.430132
 30
0.0
  0
SPLINE
  5
18c
100
AcDbEntity
  8
Capa_1
 62
7
100
AcDbSpline
 70
8
 71
3
 72
8
 73
4
 74
0
 40
0
 40
0
 40
0
 40
0
 40
1
 40
1
 40
1
 40
1
 10
1.827694
 20
4.430132
 30
0.0
 10
1.799803
 20
4.423253
 30
0.0
 10
1.771381
 20
4.411913
 30
0.0
 10
1.742426
 20
4.396113
 30
0.0
  0
LWPOLYLINE
  5
18d
100
AcDbEntity
  8
Capa_1
 62
7
100
AcDbPolyline
 90
2
 70
0
 10
0.708357
 20
5.685778
 30
0.0
 10
0.708352
 20
5.685676
 30
0.0
  0
SPLINE
  5
18e
100
AcDbEntity
  8
Capa_1
 62
7
100
AcDbSpline
 70
8
 71
3
 72
8
 73
4
 74
0
 40
0
 40
0
 40
0
 40
0
 40
1
 40
1
 40
1
 40
1
 10
1.762543
 20
4.320820
 30
0.0
 10
1.786176
 20
4.343908
 30
0.0
 10
1.811937
 20
4.360561
 30
0.0
 10
1.839828
 20
4.370777
 30
0.0
  0
SPLINE
  5
18f
100
AcDbEntity
  8
Capa_1
 62
7
100
AcDbSpline
 70
8
 71
3
 72
8
 73
4
 74
0
 40
0
 40
0
 40
0
 40
0
 40
1
 40
1
 40
1
 40
1
 10
1.839828
 20
4.370777
 30
0.0
 10
1.867505
 20
4.381197
 30
0.0
 10
1.897312
 20
4.386407
 30
0.0
 10
1.929247
 20
4.386407
 30
0.0
  0
SPLINE
  5
190
100
AcDbEntity
  8
Capa_1
 62
7
100
AcDbSpline
 70
8
 71
3
 72
8
 73
4
 74
0
 40
0
 40
0
 40
0
 40
0
 40
1
 40
1
 40
1
 40
1
 10
1.929247
 20
4.386407
 30
0.0
 10
1.964376
 20
4.386407
 30
0.0
 10
1.995141
 20
4.379188
 30
0.0
 10
2.021541
 20
4.364749
 30
0.0
  0
SPLINE
  5
191
100
AcDbEntity
  8
Capa_1
 62
7
100
AcDbSpline
 70
8
 71
3
 72
8
 73
4
 74
0
 40
0
 40
0
 40
0
 40
0
 40
1
 40
1
 40
1
 40
1
 10
2.021541
 20
4.364749
 30
0.0
 10
2.047941
 20
4.350311
 30
0.0
 10
2.070190
 20
4.331104
 30
0.0
 10
2.088287
 20
4.307131
 30
0.0
  0
SPLINE
  5
192
100
AcDbEntity
  8
Capa_1
 62
7
100
AcDbSpline
 70
8
 71
3
 72
8
 73
4
 74
0
 40
0
 40
0
 40
0
 40
0
 40
1
 40
1
 40
1
 40
1
 10
2.088287
 20
4.307131
 30
0.0
 10
2.105958
 20
4.283566
 30
0.0
 10
2.119370
 20
4.256118
 30
0.0
 10
2.128525
 20
4.224789
 30
0.0
  0
SPLINE
  5
193
100
AcDbEntity
  8
Capa_1
 62
7
100
AcDbSpline
 70
8
 71
3
 72
8
 73
4
 74
0
 40
0
 40
0
 40
0
 40
0
 40
1
 40
1
 40
1
 40
1
 10
2.128525
 20
4.224789
 30
0.0
 10
2.137467
 20
4.193460
 30
0.0
 10
2.141938
 20
4.161892
 30
0.0
 10
2.141938
 20
4.130086
 30
0.0
  0
SPLINE
  5
194
100
AcDbEntity
  8
Capa_1
 62
7
100
AcDbSpline
 70
8
 71
3
 72
8
 73
4
 74
0
 40
0
 40
0
 40
0
 40
0
 40
1
 40
1
 40
1
 40
1
 10
2.141938
 20
4.130086
 30
0.0
 10
2.141938
 20
4.082343
 30
0.0
 10
2.129483
 20
4.045456
 30
0.0
 10
2.104574
 20
4.019426
 30
0.0
  0
SPLINE
  5
195
100
AcDbEntity
  8
Capa_1
 62
7
100
AcDbSpline
 70
8
 71
3
 72
8
 73
4
 74
0
 40
0
 40
0
 40
0
 40
0
 40
1
 40
1
 40
1
 40
1
 10
2.104574
 20
4.019426
 30
0.0
 10
2.079451
 20
3.993409
 30
0.0
 10
2.042406
 20
3.980400
 30
0.0
 10
1.993438
 20
3.980400
 30
0.0
  0
SPLINE
  5
196
100
AcDbEntity
  8
Capa_1
 62
7
100
AcDbSpline
 70
8
 71
3
 72
8
 73
4
 74
0
 40
0
 40
0
 40
0
 40
0
 40
1
 40
1
 40
1
 40
1
 10
1.993438
 20
3.980400
 30
0.0
 10
1.971934
 20
3.980400
 30
0.0
 10
1.951815
 20
3.982444
 30
0.0
 10
1.933080
 20
3.986530
 30
0.0
  0
SPLINE
  5
197
100
AcDbEntity
  8
Capa_1
 62
7
100
AcDbSpline
 70
8
 71
3
 72
8
 73
4
 74
0
 40
0
 40
0
 40
0
 40
0
 40
1
 40
1
 40
1
 40
1
 10
1.933080
 20
3.986530
 30
0.0
 10
1.914131
 20
3.990617
 30
0.0
 10
1.896354
 20
3.995963
 30
0.0
 10
1.879747
 20
4.002569
 30
0.0
  0
LWPOLYLINE
  5
198
100
AcDbEntity
  8
Capa_1
 62
7
100
AcDbPolyline
 90
3
 70
0
 10
1.742426
 20
4.396113
 30
0.0
 10
1.756798
 20
4.320820
 30
0.0
 10
1.762543
 20
4.320820
 30
0.0
  0
SPLINE
  5
199
100
AcDbEntity
  8
Capa_1
 62
7
100
AcDbSpline
 70
8
 71
3
 72
8
 73
4
 74
0
 40
0
 40
0
 40
0
 40
0
 40
1
 40
1
 40
1
 40
1
 10
1.824500
 20
3.972258
 30
0.0
 10
1.838552
 20
3.966129
 30
0.0
 10
1.851220
 20
3.960680
 30
0.0
 10
1.862503
 20
3.955913
 30
0.0
  0
SPLINE
  5
19a
100
AcDbEntity
  8
Capa_1
 62
7
100
AcDbSpline
 70
8
 71
3
 72
8
 73
4
 74
0
 40
0
 40
0
 40
0
 40
0
 40
1
 40
1
 40
1
 40
1
 10
1.862503
 20
3.955913
 30
0.0
 10
1.873787
 20
3.951145
 30
0.0
 10
1.887946
 20
3.946241
 30
0.0
 10
1.904978
 20
3.941201
 30
0.0
  0
SPLINE
  5
19b
100
AcDbEntity
  8
Capa_1
 62
7
100
AcDbSpline
 70
8
 71
3
 72
8
 73
4
 74
0
 40
0
 40
0
 40
0
 40
0
 40
1
 40
1
 40
1
 40
1
 10
1.904978
 20
3.941201
 30
0.0
 10
1.919668
 20
3.936434
 30
0.0
 10
1.934891
 20
3.932756
 30
0.0
 10
1.950646
 20
3.930168
 30
0.0
  0
SPLINE
  5
19c
100
AcDbEntity
  8
Capa_1
 62
7
100
AcDbSpline
 70
8
 71
3
 72
8
 73
4
 74
0
 40
0
 40
0
 40
0
 40
0
 40
1
 40
1
 40
1
 40
1
 10
1.950646
 20
3.930168
 30
0.0
 10
1.966187
 20
3.927444
 30
0.0
 10
1.982900
 20
3.926082
 30
0.0
 10
2.000784
 20
3.926082
 30
0.0
  0
LWPOLYLINE
  5
19d
100
AcDbEntity
  8
Capa_1
 62
7
100
AcDbPolyline
 90
6
 70
0
 10
1.879747
 20
4.002569
 30
0.0
 10
1.852921
 20
4.129565
 30
0.0
 10
1.979707
 20
4.129565
 30
0.0
 10
1.967572
 20
4.185243
 30
0.0
 10
1.777236
 20
4.185243
 30
0.0
 10
1.824500
 20
3.972258
 30
0.0
  0
LWPOLYLINE
  5
19e
100
AcDbEntity
  8
Capa_1
 62
7
100
AcDbPolyline
 90
2
 70
0
 10
2.000784
 20
3.926082
 30
0.0
 10
2.000785
 20
3.925826
 30
0.0
  0
SPLINE
  5
19f
100
AcDbEntity
  8
Capa_1
 62
7
100
AcDbSpline
 70
8
 71
3
 72
8
 73
4
 74
0
 40
0
 40
0
 40
0
 40
0
 40
1
 40
1
 40
1
 40
1
 10
0.770626
 20
4.241462
 30
0.0
 10
0.770626
 20
4.187249
 30
0.0
 10
0.783826
 20
4.135920
 30
0.0
 10
0.810226
 20
4.087475
 30
0.0
  0
SPLINE
  5
1a0
100
AcDbEntity
  8
Capa_1
 62
7
100
AcDbSpline
 70
8
 71
3
 72
8
 73
4
 74
0
 40
0
 40
0
 40
0
 40
0
 40
1
 40
1
 40
1
 40
1
 10
0.810226
 20
4.087475
 30
0.0
 10
0.836627
 20
4.039051
 30
0.0
 10
0.872714
 20
4.001609
 30
0.0
 10
0.918488
 20
3.975149
 30
0.0
  0
SPLINE
  5
1a1
100
AcDbEntity
  8
Capa_1
 62
7
100
AcDbSpline
 70
8
 71
3
 72
8
 73
4
 74
0
 40
0
 40
0
 40
0
 40
0
 40
1
 40
1
 40
1
 40
1
 10
0.918488
 20
3.975149
 30
0.0
 10
0.946591
 20
3.959349
 30
0.0
 10
0.975333
 20
3.948792
 30
0.0
 10
1.004714
 20
3.943480
 30
0.0
  0
SPLINE
  5
1a2
100
AcDbEntity
  8
Capa_1
 62
7
100
AcDbSpline
 70
8
 71
3
 72
8
 73
4
 74
0
 40
0
 40
0
 40
0
 40
0
 40
1
 40
1
 40
1
 40
1
 10
1.004714
 20
3.943480
 30
0.0
 10
1.034094
 20
3.938031
 30
0.0
 10
1.067414
 20
3.935307
 30
0.0
 10
1.104672
 20
3.935307
 30
0.0
  0
LWPOLYLINE
  5
1a3
100
AcDbEntity
  8
Capa_1
 62
7
100
AcDbPolyline
 90
10
 70
1
 10
1.359199
 20
3.935491
 30
0.0
 10
1.434566
 20
3.935491
 30
0.0
 10
1.564544
 20
4.379450
 30
0.0
 10
1.662906
 20
3.935491
 30
0.0
 10
1.722625
 20
3.935491
 30
0.0
 10
1.612767
 20
4.431777
 30
0.0
 10
1.517599
 20
4.431777
 30
0.0
 10
1.398799
 20
4.026475
 30
0.0
 10
1.309060
 20
4.431777
 30
0.0
 10
1.249340
 20
4.431777
 30
0.0
  0
SPLINE
  5
1a4
100
AcDbEntity
  8
Capa_1
 62
7
100
AcDbSpline
 70
8
 71
3
 72
8
 73
4
 74
0
 40
0
 40
0
 40
0
 40
0
 40
1
 40
1
 40
1
 40
1
 10
1.012698
 20
4.431593
 30
0.0
 10
0.978208
 20
4.431593
 30
0.0
 10
0.946804
 20
4.428869
 30
0.0
 10
0.918488
 20
4.423420
 30
0.0
  0
SPLINE
  5
1a5
100
AcDbEntity
  8
Capa_1
 62
7
100
AcDbSpline
 70
8
 71
3
 72
8
 73
4
 74
0
 40
0
 40
0
 40
0
 40
0
 40
1
 40
1
 40
1
 40
1
 10
0.918488
 20
4.423420
 30
0.0
 10
0.889959
 20
4.418653
 30
0.0
 10
0.863878
 20
4.407994
 30
0.0
 10
0.840246
 20
4.391444
 30
0.0
  0
SPLINE
  5
1a6
100
AcDbEntity
  8
Capa_1
 62
7
100
AcDbSpline
 70
8
 71
3
 72
8
 73
4
 74
0
 40
0
 40
0
 40
0
 40
0
 40
1
 40
1
 40
1
 40
1
 10
0.840246
 20
4.391444
 30
0.0
 10
0.817678
 20
4.375643
 30
0.0
 10
0.800433
 20
4.354972
 30
0.0
 10
0.788511
 20
4.329432
 30
0.0
  0
SPLINE
  5
1a7
100
AcDbEntity
  8
Capa_1
 62
7
100
AcDbSpline
 70
8
 71
3
 72
8
 73
4
 74
0
 40
0
 40
0
 40
0
 40
0
 40
1
 40
1
 40
1
 40
1
 10
0.788511
 20
4.329432
 30
0.0
 10
0.776588
 20
4.304096
 30
0.0
 10
0.770627
 20
4.274538
 30
0.0
 10
0.770627
 20
4.240757
 30
0.0
  0
LWPOLYLINE
  5
1a8
100
AcDbEntity
  8
Capa_1
 62
7
100
AcDbPolyline
 90
4
 70
0
 10
1.104672
 20
3.935307
 30
0.0
 10
1.233053
 20
3.935307
 30
0.0
 10
1.123195
 20
4.431593
 30
0.0
 10
1.012698
 20
4.431593
 30
0.0
  0
SPLINE
  5
1a9
100
AcDbEntity
  8
Capa_1
 62
7
100
AcDbSpline
 70
8
 71
3
 72
8
 73
4
 74
0
 40
0
 40
0
 40
0
 40
0
 40
1
 40
1
 40
1
 40
1
 10
0.837372
 20
4.235332
 30
0.0
 10
0.837372
 20
4.260668
 30
0.0
 10
0.841737
 20
4.282428
 30
0.0
 10
0.850466
 20
4.300613
 30
0.0
  0
SPLINE
  5
1aa
100
AcDbEntity
  8
Capa_1
 62
7
100
AcDbSpline
 70
8
 71
3
 72
8
 73
4
 74
0
 40
0
 40
0
 40
0
 40
0
 40
1
 40
1
 40
1
 40
1
 10
0.850466
 20
4.300613
 30
0.0
 10
0.858982
 20
4.319070
 30
0.0
 10
0.871969
 20
4.334394
 30
0.0
 10
0.889427
 20
4.346585
 30
0.0
  0
SPLINE
  5
1ab
100
AcDbEntity
  8
Capa_1
 62
7
100
AcDbSpline
 70
8
 71
3
 72
8
 73
4
 74
0
 40
0
 40
0
 40
0
 40
0
 40
1
 40
1
 40
1
 40
1
 10
0.889427
 20
4.346585
 30
0.0
 10
0.906672
 20
4.358572
 30
0.0
 10
0.925089
 20
4.366575
 30
0.0
 10
0.944675
 20
4.370593
 30
0.0
  0
SPLINE
  5
1ac
100
AcDbEntity
  8
Capa_1
 62
7
100
AcDbSpline
 70
8
 71
3
 72
8
 73
4
 74
0
 40
0
 40
0
 40
0
 40
0
 40
1
 40
1
 40
1
 40
1
 10
0.944675
 20
4.370593
 30
0.0
 10
0.964262
 20
4.374679
 30
0.0
 10
0.989066
 20
4.376722
 30
0.0
 10
1.019086
 20
4.376722
 30
0.0
  0
LWPOLYLINE
  5
1ad
100
AcDbEntity
  8
Capa_1
 62
7
100
AcDbPolyline
 90
2
 70
0
 10
0.770627
 20
4.240757
 30
0.0
 10
0.770626
 20
4.241462
 30
0.0
  0
SPLINE
  5
1ae
100
AcDbEntity
  8
Capa_1
 62
7
100
AcDbSpline
 70
8
 71
3
 72
8
 73
4
 74
0
 40
0
 40
0
 40
0
 40
0
 40
1
 40
1
 40
1
 40
1
 10
1.091898
 20
3.989094
 30
0.0
 10
1.061453
 20
3.989094
 30
0.0
 10
1.034308
 20
3.991478
 30
0.0
 10
1.010463
 20
3.996246
 30
0.0
  0
SPLINE
  5
1af
100
AcDbEntity
  8
Capa_1
 62
7
100
AcDbSpline
 70
8
 71
3
 72
8
 73
4
 74
0
 40
0
 40
0
 40
0
 40
0
 40
1
 40
1
 40
1
 40
1
 10
1.010463
 20
3.996246
 30
0.0
 10
0.986405
 20
4.001694
 30
0.0
 10
0.963730
 20
4.010684
 30
0.0
 10
0.942440
 20
4.023216
 30
0.0
  0
SPLINE
  5
1b0
100
AcDbEntity
  8
Capa_1
 62
7
100
AcDbSpline
 70
8
 71
3
 72
8
 73
4
 74
0
 40
0
 40
0
 40
0
 40
0
 40
1
 40
1
 40
1
 40
1
 10
0.942440
 20
4.023216
 30
0.0
 10
0.908162
 20
4.043648
 30
0.0
 10
0.882081
 20
4.073104
 30
0.0
 10
0.864197
 20
4.111585
 30
0.0
  0
SPLINE
  5
1b1
100
AcDbEntity
  8
Capa_1
 62
7
100
AcDbSpline
 70
8
 71
3
 72
8
 73
4
 74
0
 40
0
 40
0
 40
0
 40
0
 40
1
 40
1
 40
1
 40
1
 10
0.864197
 20
4.111585
 30
0.0
 10
0.846314
 20
4.150270
 30
0.0
 10
0.837372
 20
4.191267
 30
0.0
 10
0.837372
 20
4.234576
 30
0.0
  0
LWPOLYLINE
  5
1b2
100
AcDbEntity
  8
Capa_1
 62
7
100
AcDbPolyline
 90
4
 70
0
 10
1.019086
 20
4.376722
 30
0.0
 10
1.071779
 20
4.376722
 30
0.0
 10
1.158005
 20
3.989094
 30
0.0
 10
1.091898
 20
3.989094
 30
0.0
  0
SPLINE
  5
1b3
100
AcDbEntity
  8
Capa_1
 62
7
100
AcDbSpline
 70
8
 71
3
 72
8
 73
4
 74
0
 40
0
 40
0
 40
0
 40
0
 40
1
 40
1
 40
1
 40
1
 10
2.000785
 20
2.219294
 30
0.0
 10
2.066359
 20
2.219294
 30
0.0
 10
2.117562
 20
2.236185
 30
0.0
 10
2.154395
 20
2.269966
 30
0.0
  0
SPLINE
  5
1b4
100
AcDbEntity
  8
Capa_1
 62
7
100
AcDbSpline
 70
8
 71
3
 72
8
 73
4
 74
0
 40
0
 40
0
 40
0
 40
0
 40
1
 40
1
 40
1
 40
1
 10
2.154395
 20
2.269966
 30
0.0
 10
2.191227
 20
2.303747
 30
0.0
 10
2.209643
 20
2.351742
 30
0.0
 10
2.209643
 20
2.413951
 30
0.0
  0
SPLINE
  5
1b5
100
AcDbEntity
  8
Capa_1
 62
7
100
AcDbSpline
 70
8
 71
3
 72
8
 73
4
 74
0
 40
0
 40
0
 40
0
 40
0
 40
1
 40
1
 40
1
 40
1
 10
2.209643
 20
2.413951
 30
0.0
 10
2.209643
 20
2.459719
 30
0.0
 10
2.202937
 20
2.502047
 30
0.0
 10
2.189524
 20
2.540937
 30
0.0
  0
SPLINE
  5
1b6
100
AcDbEntity
  8
Capa_1
 62
7
100
AcDbSpline
 70
8
 71
3
 72
8
 73
4
 74
0
 40
0
 40
0
 40
0
 40
0
 40
1
 40
1
 40
1
 40
1
 10
2.189524
 20
2.540937
 30
0.0
 10
2.175898
 20
2.579826
 30
0.0
 10
2.156204
 20
2.613709
 30
0.0
 10
2.130443
 20
2.642586
 30
0.0
  0
SPLINE
  5
1b7
100
AcDbEntity
  8
Capa_1
 62
7
100
AcDbSpline
 70
8
 71
3
 72
8
 73
4
 74
0
 40
0
 40
0
 40
0
 40
0
 40
1
 40
1
 40
1
 40
1
 10
2.130443
 20
2.642586
 30
0.0
 10
2.104895
 20
2.671260
 30
0.0
 10
2.073598
 20
2.693701
 30
0.0
 10
2.036553
 20
2.709910
 30
0.0
  0
SPLINE
  5
1b8
100
AcDbEntity
  8
Capa_1
 62
7
100
AcDbSpline
 70
8
 71
3
 72
8
 73
4
 74
0
 40
0
 40
0
 40
0
 40
0
 40
1
 40
1
 40
1
 40
1
 10
2.036553
 20
2.709910
 30
0.0
 10
1.999294
 20
2.726120
 30
0.0
 10
1.957459
 20
2.734225
 30
0.0
 10
1.911046
 20
2.734225
 30
0.0
  0
SPLINE
  5
1b9
100
AcDbEntity
  8
Capa_1
 62
7
100
AcDbSpline
 70
8
 71
3
 72
8
 73
4
 74
0
 40
0
 40
0
 40
0
 40
0
 40
1
 40
1
 40
1
 40
1
 10
1.911046
 20
2.734225
 30
0.0
 10
1.883155
 20
2.734225
 30
0.0
 10
1.855371
 20
2.730683
 30
0.0
 10
1.827694
 20
2.723600
 30
0.0
  0
SPLINE
  5
1ba
100
AcDbEntity
  8
Capa_1
 62
7
100
AcDbSpline
 70
8
 71
3
 72
8
 73
4
 74
0
 40
0
 40
0
 40
0
 40
0
 40
1
 40
1
 40
1
 40
1
 10
1.827694
 20
2.723600
 30
0.0
 10
1.799803
 20
2.716721
 30
0.0
 10
1.771381
 20
2.705381
 30
0.0
 10
1.742426
 20
2.689580
 30
0.0
  0
LWPOLYLINE
  5
1bb
100
AcDbEntity
  8
Capa_1
 62
7
100
AcDbPolyline
 90
2
 70
0
 10
0.837372
 20
4.234576
 30
0.0
 10
0.837372
 20
4.235332
 30
0.0
  0
SPLINE
  5
1bc
100
AcDbEntity
  8
Capa_1
 62
7
100
AcDbSpline
 70
8
 71
3
 72
8
 73
4
 74
0
 40
0
 40
0
 40
0
 40
0
 40
1
 40
1
 40
1
 40
1
 10
1.762543
 20
2.614288
 30
0.0
 10
1.786176
 20
2.637376
 30
0.0
 10
1.811937
 20
2.654028
 30
0.0
 10
1.839828
 20
2.664245
 30
0.0
  0
SPLINE
  5
1bd
100
AcDbEntity
  8
Capa_1
 62
7
100
AcDbSpline
 70
8
 71
3
 72
8
 73
4
 74
0
 40
0
 40
0
 40
0
 40
0
 40
1
 40
1
 40
1
 40
1
 10
1.839828
 20
2.664245
 30
0.0
 10
1.867505
 20
2.674665
 30
0.0
 10
1.897312
 20
2.679875
 30
0.0
 10
1.929247
 20
2.679875
 30
0.0
  0
SPLINE
  5
1be
100
AcDbEntity
  8
Capa_1
 62
7
100
AcDbSpline
 70
8
 71
3
 72
8
 73
4
 74
0
 40
0
 40
0
 40
0
 40
0
 40
1
 40
1
 40
1
 40
1
 10
1.929247
 20
2.679875
 30
0.0
 10
1.964376
 20
2.679875
 30
0.0
 10
1.995141
 20
2.672656
 30
0.0
 10
2.021541
 20
2.658217
 30
0.0
  0
SPLINE
  5
1bf
100
AcDbEntity
  8
Capa_1
 62
7
100
AcDbSpline
 70
8
 71
3
 72
8
 73
4
 74
0
 40
0
 40
0
 40
0
 40
0
 40
1
 40
1
 40
1
 40
1
 10
2.021541
 20
2.658217
 30
0.0
 10
2.047941
 20
2.643778
 30
0.0
 10
2.070190
 20
2.624572
 30
0.0
 10
2.088287
 20
2.600598
 30
0.0
  0
SPLINE
  5
1c0
100
AcDbEntity
  8
Capa_1
 62
7
100
AcDbSpline
 70
8
 71
3
 72
8
 73
4
 74
0
 40
0
 40
0
 40
0
 40
0
 40
1
 40
1
 40
1
 40
1
 10
2.088287
 20
2.600598
 30
0.0
 10
2.105958
 20
2.577033
 30
0.0
 10
2.119370
 20
2.549586
 30
0.0
 10
2.128525
 20
2.518257
 30
0.0
  0
SPLINE
  5
1c1
100
AcDbEntity
  8
Capa_1
 62
7
100
AcDbSpline
 70
8
 71
3
 72
8
 73
4
 74
0
 40
0
 40
0
 40
0
 40
0
 40
1
 40
1
 40
1
 40
1
 10
2.128525
 20
2.518257
 30
0.0
 10
2.137467
 20
2.486928
 30
0.0
 10
2.141938
 20
2.455360
 30
0.0
 10
2.141938
 20
2.423554
 30
0.0
  0
SPLINE
  5
1c2
100
AcDbEntity
  8
Capa_1
 62
7
100
AcDbSpline
 70
8
 71
3
 72
8
 73
4
 74
0
 40
0
 40
0
 40
0
 40
0
 40
1
 40
1
 40
1
 40
1
 10
2.141938
 20
2.423554
 30
0.0
 10
2.141938
 20
2.375743
 30
0.0
 10
2.129483
 20
2.338856
 30
0.0
 10
2.104574
 20
2.312894
 30
0.0
  0
SPLINE
  5
1c3
100
AcDbEntity
  8
Capa_1
 62
7
100
AcDbSpline
 70
8
 71
3
 72
8
 73
4
 74
0
 40
0
 40
0
 40
0
 40
0
 40
1
 40
1
 40
1
 40
1
 10
2.104574
 20
2.312894
 30
0.0
 10
2.079451
 20
2.286877
 30
0.0
 10
2.042406
 20
2.273868
 30
0.0
 10
1.993438
 20
2.273868
 30
0.0
  0
SPLINE
  5
1c4
100
AcDbEntity
  8
Capa_1
 62
7
100
AcDbSpline
 70
8
 71
3
 72
8
 73
4
 74
0
 40
0
 40
0
 40
0
 40
0
 40
1
 40
1
 40
1
 40
1
 10
1.993438
 20
2.273868
 30
0.0
 10
1.971934
 20
2.273868
 30
0.0
 10
1.951815
 20
2.275912
 30
0.0
 10
1.933080
 20
2.279998
 30
0.0
  0
SPLINE
  5
1c5
100
AcDbEntity
  8
Capa_1
 62
7
100
AcDbSpline
 70
8
 71
3
 72
8
 73
4
 74
0
 40
0
 40
0
 40
0
 40
0
 40
1
 40
1
 40
1
 40
1
 10
1.933080
 20
2.279998
 30
0.0
 10
1.914131
 20
2.284084
 30
0.0
 10
1.896354
 20
2.289431
 30
0.0
 10
1.879747
 20
2.296037
 30
0.0
  0
LWPOLYLINE
  5
1c6
100
AcDbEntity
  8
Capa_1
 62
7
100
AcDbPolyline
 90
3
 70
0
 10
1.742426
 20
2.689580
 30
0.0
 10
1.756798
 20
2.614288
 30
0.0
 10
1.762543
 20
2.614288
 30
0.0
  0
SPLINE
  5
1c7
100
AcDbEntity
  8
Capa_1
 62
7
100
AcDbSpline
 70
8
 71
3
 72
8
 73
4
 74
0
 40
0
 40
0
 40
0
 40
0
 40
1
 40
1
 40
1
 40
1
 10
1.824500
 20
2.265726
 30
0.0
 10
1.838552
 20
2.259596
 30
0.0
 10
1.851220
 20
2.254148
 30
0.0
 10
1.862503
 20
2.249380
 30
0.0
  0
SPLINE
  5
1c8
100
AcDbEntity
  8
Capa_1
 62
7
100
AcDbSpline
 70
8
 71
3
 72
8
 73
4
 74
0
 40
0
 40
0
 40
0
 40
0
 40
1
 40
1
 40
1
 40
1
 10
1.862503
 20
2.249380
 30
0.0
 10
1.873787
 20
2.244613
 30
0.0
 10
1.887946
 20
2.239709
 30
0.0
 10
1.904978
 20
2.234669
 30
0.0
  0
SPLINE
  5
1c9
100
AcDbEntity
  8
Capa_1
 62
7
100
AcDbSpline
 70
8
 71
3
 72
8
 73
4
 74
0
 40
0
 40
0
 40
0
 40
0
 40
1
 40
1
 40
1
 40
1
 10
1.904978
 20
2.234669
 30
0.0
 10
1.919668
 20
2.229902
 30
0.0
 10
1.934891
 20
2.226224
 30
0.0
 10
1.950646
 20
2.223636
 30
0.0
  0
SPLINE
  5
1ca
100
AcDbEntity
  8
Capa_1
 62
7
100
AcDbSpline
 70
8
 71
3
 72
8
 73
4
 74
0
 40
0
 40
0
 40
0
 40
0
 40
1
 40
1
 40
1
 40
1
 10
1.950646
 20
2.223636
 30
0.0
 10
1.966187
 20
2.220912
 30
0.0
 10
1.982900
 20
2.219549
 30
0.0
 10
2.000784
 20
2.219549
 30
0.0
  0
LWPOLYLINE
  5
1cb
100
AcDbEntity
  8
Capa_1
 62
7
100
AcDbPolyline
 90
6
 70
0
 10
1.879747
 20
2.296037
 30
0.0
 10
1.852921
 20
2.423033
 30
0.0
 10
1.979707
 20
2.423033
 30
0.0
 10
1.967572
 20
2.478711
 30
0.0
 10
1.777236
 20
2.478711
 30
0.0
 10
1.824500
 20
2.265726
 30
0.0
  0
LWPOLYLINE
  5
1cc
100
AcDbEntity
  8
Capa_1
 62
7
100
AcDbPolyline
 90
2
 70
0
 10
2.000784
 20
2.219549
 30
0.0
 10
2.000785
 20
2.219294
 30
0.0
  0
SPLINE
  5
1cd
100
AcDbEntity
  8
Capa_1
 62
7
100
AcDbSpline
 70
8
 71
3
 72
8
 73
4
 74
0
 40
0
 40
0
 40
0
 40
0
 40
1
 40
1
 40
1
 40
1
 10
0.770626
 20
2.534940
 30
0.0
 10
0.770626
 20
2.480727
 30
0.0
 10
0.783826
 20
2.429398
 30
0.0
 10
0.810226
 20
2.380953
 30
0.0
  0
SPLINE
  5
1ce
100
AcDbEntity
  8
Capa_1
 62
7
100
AcDbSpline
 70
8
 71
3
 72
8
 73
4
 74
0
 40
0
 40
0
 40
0
 40
0
 40
1
 40
1
 40
1
 40
1
 10
0.810226
 20
2.380953
 30
0.0
 10
0.836627
 20
2.332529
 30
0.0
 10
0.872714
 20
2.295087
 30
0.0
 10
0.918488
 20
2.268627
 30
0.0
  0
SPLINE
  5
1cf
100
AcDbEntity
  8
Capa_1
 62
7
100
AcDbSpline
 70
8
 71
3
 72
8
 73
4
 74
0
 40
0
 40
0
 40
0
 40
0
 40
1
 40
1
 40
1
 40
1
 10
0.918488
 20
2.268627
 30
0.0
 10
0.946591
 20
2.252827
 30
0.0
 10
0.975333
 20
2.242270
 30
0.0
 10
1.004714
 20
2.236958
 30
0.0
  0
SPLINE
  5
1d0
100
AcDbEntity
  8
Capa_1
 62
7
100
AcDbSpline
 70
8
 71
3
 72
8
 73
4
 74
0
 40
0
 40
0
 40
0
 40
0
 40
1
 40
1
 40
1
 40
1
 10
1.004714
 20
2.236958
 30
0.0
 10
1.034094
 20
2.231509
 30
0.0
 10
1.067414
 20
2.228785
 30
0.0
 10
1.104672
 20
2.228785
 30
0.0
  0
LWPOLYLINE
  5
1d1
100
AcDbEntity
  8
Capa_1
 62
7
100
AcDbPolyline
 90
10
 70
1
 10
1.359199
 20
2.228969
 30
0.0
 10
1.434566
 20
2.228969
 30
0.0
 10
1.564544
 20
2.672928
 30
0.0
 10
1.662906
 20
2.228969
 30
0.0
 10
1.722625
 20
2.228969
 30
0.0
 10
1.612767
 20
2.725255
 30
0.0
 10
1.517599
 20
2.725255
 30
0.0
 10
1.398799
 20
2.319953
 30
0.0
 10
1.309060
 20
2.725255
 30
0.0
 10
1.249340
 20
2.725255
 30
0.0
  0
SPLINE
  5
1d2
100
AcDbEntity
  8
Capa_1
 62
7
100
AcDbSpline
 70
8
 71
3
 72
8
 73
4
 74
0
 40
0
 40
0
 40
0
 40
0
 40
1
 40
1
 40
1
 40
1
 10
1.012698
 20
2.725071
 30
0.0
 10
0.978208
 20
2.725071
 30
0.0
 10
0.946804
 20
2.722687
 30
0.0
 10
0.918488
 20
2.717920
 30
0.0
  0
SPLINE
  5
1d3
100
AcDbEntity
  8
Capa_1
 62
7
100
AcDbSpline
 70
8
 71
3
 72
8
 73
4
 74
0
 40
0
 40
0
 40
0
 40
0
 40
1
 40
1
 40
1
 40
1
 10
0.918488
 20
2.717920
 30
0.0
 10
0.889959
 20
2.713152
 30
0.0
 10
0.863878
 20
2.702493
 30
0.0
 10
0.840246
 20
2.685943
 30
0.0
  0
SPLINE
  5
1d4
100
AcDbEntity
  8
Capa_1
 62
7
100
AcDbSpline
 70
8
 71
3
 72
8
 73
4
 74
0
 40
0
 40
0
 40
0
 40
0
 40
1
 40
1
 40
1
 40
1
 10
0.840246
 20
2.685943
 30
0.0
 10
0.817678
 20
2.670143
 30
0.0
 10
0.800433
 20
2.649472
 30
0.0
 10
0.788511
 20
2.623932
 30
0.0
  0
SPLINE
  5
1d5
100
AcDbEntity
  8
Capa_1
 62
7
100
AcDbSpline
 70
8
 71
3
 72
8
 73
4
 74
0
 40
0
 40
0
 40
0
 40
0
 40
1
 40
1
 40
1
 40
1
 10
0.788511
 20
2.623932
 30
0.0
 10
0.776588
 20
2.598596
 30
0.0
 10
0.770627
 20
2.569038
 30
0.0
 10
0.770627
 20
2.535257
 30
0.0
  0
LWPOLYLINE
  5
1d6
100
AcDbEntity
  8
Capa_1
 62
7
100
AcDbPolyline
 90
4
 70
0
 10
1.104672
 20
2.228785
 30
0.0
 10
1.233053
 20
2.228785
 30
0.0
 10
1.123195
 20
2.725071
 30
0.0
 10
1.012698
 20
2.725071
 30
0.0
  0
SPLINE
  5
1d7
100
AcDbEntity
  8
Capa_1
 62
7
100
AcDbSpline
 70
8
 71
3
 72
8
 73
4
 74
0
 40
0
 40
0
 40
0
 40
0
 40
1
 40
1
 40
1
 40
1
 10
0.837372
 20
2.528810
 30
0.0
 10
0.837372
 20
2.554146
 30
0.0
 10
0.841737
 20
2.575906
 30
0.0
 10
0.850466
 20
2.594091
 30
0.0
  0
SPLINE
  5
1d8
100
AcDbEntity
  8
Capa_1
 62
7
100
AcDbSpline
 70
8
 71
3
 72
8
 73
4
 74
0
 40
0
 40
0
 40
0
 40
0
 40
1
 40
1
 40
1
 40
1
 10
0.850466
 20
2.594091
 30
0.0
 10
0.858982
 20
2.612548
 30
0.0
 10
0.871969
 20
2.627872
 30
0.0
 10
0.889427
 20
2.640063
 30
0.0
  0
SPLINE
  5
1d9
100
AcDbEntity
  8
Capa_1
 62
7
100
AcDbSpline
 70
8
 71
3
 72
8
 73
4
 74
0
 40
0
 40
0
 40
0
 40
0
 40
1
 40
1
 40
1
 40
1
 10
0.889427
 20
2.640063
 30
0.0
 10
0.906672
 20
2.652050
 30
0.0
 10
0.925089
 20
2.660053
 30
0.0
 10
0.944675
 20
2.664071
 30
0.0
  0
SPLINE
  5
1da
100
AcDbEntity
  8
Capa_1
 62
7
100
AcDbSpline
 70
8
 71
3
 72
8
 73
4
 74
0
 40
0
 40
0
 40
0
 40
0
 40
1
 40
1
 40
1
 40
1
 10
0.944675
 20
2.664071
 30
0.0
 10
0.964262
 20
2.668157
 30
0.0
 10
0.989066
 20
2.670201
 30
0.0
 10
1.019086
 20
2.670201
 30
0.0
  0
LWPOLYLINE
  5
1db
100
AcDbEntity
  8
Capa_1
 62
7
100
AcDbPolyline
 90
2
 70
0
 10
0.770627
 20
2.535257
 30
0.0
 10
0.770626
 20
2.534940
 30
0.0
  0
SPLINE
  5
1dc
100
AcDbEntity
  8
Capa_1
 62
7
100
AcDbSpline
 70
8
 71
3
 72
8
 73
4
 74
0
 40
0
 40
0
 40
0
 40
0
 40
1
 40
1
 40
1
 40
1
 10
1.091898
 20
2.282572
 30
0.0
 10
1.061453
 20
2.282572
 30
0.0
 10
1.034308
 20
2.284956
 30
0.0
 10
1.010463
 20
2.289724
 30
0.0
  0
SPLINE
  5
1dd
100
AcDbEntity
  8
Capa_1
 62
7
100
AcDbSpline
 70
8
 71
3
 72
8
 73
4
 74
0
 40
0
 40
0
 40
0
 40
0
 40
1
 40
1
 40
1
 40
1
 10
1.010463
 20
2.289724
 30
0.0
 10
0.986405
 20
2.295172
 30
0.0
 10
0.963730
 20
2.304162
 30
0.0
 10
0.942440
 20
2.316694
 30
0.0
  0
SPLINE
  5
1de
100
AcDbEntity
  8
Capa_1
 62
7
100
AcDbSpline
 70
8
 71
3
 72
8
 73
4
 74
0
 40
0
 40
0
 40
0
 40
0
 40
1
 40
1
 40
1
 40
1
 10
0.942440
 20
2.316694
 30
0.0
 10
0.908162
 20
2.337126
 30
0.0
 10
0.882081
 20
2.366582
 30
0.0
 10
0.864197
 20
2.405063
 30
0.0
  0
SPLINE
  5
1df
100
AcDbEntity
  8
Capa_1
 62
7
100
AcDbSpline
 70
8
 71
3
 72
8
 73
4
 74
0
 40
0
 40
0
 40
0
 40
0
 40
1
 40
1
 40
1
 40
1
 10
0.864197
 20
2.405063
 30
0.0
 10
0.846314
 20
2.443748
 30
0.0
 10
0.837372
 20
2.484745
 30
0.0
 10
0.837372
 20
2.528054
 30
0.0
  0
LWPOLYLINE
  5
1e0
100
AcDbEntity
  8
Capa_1
 62
7
100
AcDbPolyline
 90
4
 70
0
 10
1.019086
 20
2.670201
 30
0.0
 10
1.071779
 20
2.670201
 30
0.0
 10
1.158005
 20
2.282572
 30
0.0
 10
1.091898
 20
2.282572
 30
0.0
  0
SPLINE
  5
1e1
100
AcDbEntity
  8
Capa_1
 62
7
100
AcDbSpline
 70
8
 71
3
 72
8
 73
4
 74
0
 40
0
 40
0
 40
0
 40
0
 40
1
 40
1
 40
1
 40
1
 10
2.000785
 20
0.512772
 30
0.0
 10
2.066359
 20
0.512772
 30
0.0
 10
2.117562
 20
0.529663
 30
0.0
 10
2.154395
 20
0.563444
 30
0.0
  0
SPLINE
  5
1e2
100
AcDbEntity
  8
Capa_1
 62
7
100
AcDbSpline
 70
8
 71
3
 72
8
 73
4
 74
0
 40
0
 40
0
 40
0
 40
0
 40
1
 40
1
 40
1
 40
1
 10
2.154395
 20
0.563444
 30
0.0
 10
2.191227
 20
0.597225
 30
0.0
 10
2.209643
 20
0.645220
 30
0.0
 10
2.209643
 20
0.707429
 30
0.0
  0
SPLINE
  5
1e3
100
AcDbEntity
  8
Capa_1
 62
7
100
AcDbSpline
 70
8
 71
3
 72
8
 73
4
 74
0
 40
0
 40
0
 40
0
 40
0
 40
1
 40
1
 40
1
 40
1
 10
2.209643
 20
0.707429
 30
0.0
 10
2.209643
 20
0.753197
 30
0.0
 10
2.202937
 20
0.795526
 30
0.0
 10
2.189524
 20
0.834415
 30
0.0
  0
SPLINE
  5
1e4
100
AcDbEntity
  8
Capa_1
 62
7
100
AcDbSpline
 70
8
 71
3
 72
8
 73
4
 74
0
 40
0
 40
0
 40
0
 40
0
 40
1
 40
1
 40
1
 40
1
 10
2.189524
 20
0.834415
 30
0.0
 10
2.175898
 20
0.873304
 30
0.0
 10
2.156204
 20
0.907187
 30
0.0
 10
2.130443
 20
0.936065
 30
0.0
  0
SPLINE
  5
1e5
100
AcDbEntity
  8
Capa_1
 62
7
100
AcDbSpline
 70
8
 71
3
 72
8
 73
4
 74
0
 40
0
 40
0
 40
0
 40
0
 40
1
 40
1
 40
1
 40
1
 10
2.130443
 20
0.936065
 30
0.0
 10
2.104895
 20
0.964738
 30
0.0
 10
2.073598
 20
0.987179
 30
0.0
 10
2.036553
 20
1.003388
 30
0.0
  0
SPLINE
  5
1e6
100
AcDbEntity
  8
Capa_1
 62
7
100
AcDbSpline
 70
8
 71
3
 72
8
 73
4
 74
0
 40
0
 40
0
 40
0
 40
0
 40
1
 40
1
 40
1
 40
1
 10
2.036553
 20
1.003388
 30
0.0
 10
1.999294
 20
1.019598
 30
0.0
 10
1.957459
 20
1.027703
 30
0.0
 10
1.911046
 20
1.027703
 30
0.0
  0
SPLINE
  5
1e7
100
AcDbEntity
  8
Capa_1
 62
7
100
AcDbSpline
 70
8
 71
3
 72
8
 73
4
 74
0
 40
0
 40
0
 40
0
 40
0
 40
1
 40
1
 40
1
 40
1
 10
1.911046
 20
1.027703
 30
0.0
 10
1.883155
 20
1.027703
 30
0.0
 10
1.855371
 20
1.024161
 30
0.0
 10
1.827694
 20
1.017078
 30
0.0
  0
SPLINE
  5
1e8
100
AcDbEntity
  8
Capa_1
 62
7
100
AcDbSpline
 70
8
 71
3
 72
8
 73
4
 74
0
 40
0
 40
0
 40
0
 40
0
 40
1
 40
1
 40
1
 40
1
 10
1.827694
 20
1.017078
 30
0.0
 10
1.799803
 20
1.010199
 30
0.0
 10
1.771381
 20
0.998859
 30
0.0
 10
1.742426
 20
0.983058
 30
0.0
  0
LWPOLYLINE
  5
1e9
100
AcDbEntity
  8
Capa_1
 62
7
100
AcDbPolyline
 90
2
 70
0
 10
0.837372
 20
2.528054
 30
0.0
 10
0.837372
 20
2.528810
 30
0.0
  0
SPLINE
  5
1ea
100
AcDbEntity
  8
Capa_1
 62
7
100
AcDbSpline
 70
8
 71
3
 72
8
 73
4
 74
0
 40
0
 40
0
 40
0
 40
0
 40
1
 40
1
 40
1
 40
1
 10
1.762543
 20
0.907766
 30
0.0
 10
1.786176
 20
0.930854
 30
0.0
 10
1.811937
 20
0.947506
 30
0.0
 10
1.839828
 20
0.957723
 30
0.0
  0
SPLINE
  5
1eb
100
AcDbEntity
  8
Capa_1
 62
7
100
AcDbSpline
 70
8
 71
3
 72
8
 73
4
 74
0
 40
0
 40
0
 40
0
 40
0
 40
1
 40
1
 40
1
 40
1
 10
1.839828
 20
0.957723
 30
0.0
 10
1.867505
 20
0.968143
 30
0.0
 10
1.897312
 20
0.973353
 30
0.0
 10
1.929247
 20
0.973353
 30
0.0
  0
SPLINE
  5
1ec
100
AcDbEntity
  8
Capa_1
 62
7
100
AcDbSpline
 70
8
 71
3
 72
8
 73
4
 74
0
 40
0
 40
0
 40
0
 40
0
 40
1
 40
1
 40
1
 40
1
 10
1.929247
 20
0.973353
 30
0.0
 10
1.964376
 20
0.973353
 30
0.0
 10
1.995141
 20
0.966134
 30
0.0
 10
2.021541
 20
0.951695
 30
0.0
  0
SPLINE
  5
1ed
100
AcDbEntity
  8
Capa_1
 62
7
100
AcDbSpline
 70
8
 71
3
 72
8
 73
4
 74
0
 40
0
 40
0
 40
0
 40
0
 40
1
 40
1
 40
1
 40
1
 10
2.021541
 20
0.951695
 30
0.0
 10
2.047941
 20
0.937256
 30
0.0
 10
2.070190
 20
0.918050
 30
0.0
 10
2.088287
 20
0.894076
 30
0.0
  0
SPLINE
  5
1ee
100
AcDbEntity
  8
Capa_1
 62
7
100
AcDbSpline
 70
8
 71
3
 72
8
 73
4
 74
0
 40
0
 40
0
 40
0
 40
0
 40
1
 40
1
 40
1
 40
1
 10
2.088287
 20
0.894076
 30
0.0
 10
2.105958
 20
0.870511
 30
0.0
 10
2.119370
 20
0.843064
 30
0.0
 10
2.128525
 20
0.811735
 30
0.0
  0
SPLINE
  5
1ef
100
AcDbEntity
  8
Capa_1
 62
7
100
AcDbSpline
 70
8
 71
3
 72
8
 73
4
 74
0
 40
0
 40
0
 40
0
 40
0
 40
1
 40
1
 40
1
 40
1
 10
2.128525
 20
0.811735
 30
0.0
 10
2.137467
 20
0.780406
 30
0.0
 10
2.141938
 20
0.748838
 30
0.0
 10
2.141938
 20
0.717032
 30
0.0
  0
SPLINE
  5
1f0
100
AcDbEntity
  8
Capa_1
 62
7
100
AcDbSpline
 70
8
 71
3
 72
8
 73
4
 74
0
 40
0
 40
0
 40
0
 40
0
 40
1
 40
1
 40
1
 40
1
 10
2.141938
 20
0.717032
 30
0.0
 10
2.141938
 20
0.669221
 30
0.0
 10
2.129483
 20
0.632334
 30
0.0
 10
2.104574
 20
0.606372
 30
0.0
  0
SPLINE
  5
1f1
100
AcDbEntity
  8
Capa_1
 62
7
100
AcDbSpline
 70
8
 71
3
 72
8
 73
4
 74
0
 40
0
 40
0
 40
0
 40
0
 40
1
 40
1
 40
1
 40
1
 10
2.104574
 20
0.606372
 30
0.0
 10
2.079451
 20
0.580355
 30
0.0
 10
2.042406
 20
0.567346
 30
0.0
 10
1.993438
 20
0.567346
 30
0.0
  0
SPLINE
  5
1f2
100
AcDbEntity
  8
Capa_1
 62
7
100
AcDbSpline
 70
8
 71
3
 72
8
 73
4
 74
0
 40
0
 40
0
 40
0
 40
0
 40
1
 40
1
 40
1
 40
1
 10
1.993438
 20
0.567346
 30
0.0
 10
1.971934
 20
0.567346
 30
0.0
 10
1.951815
 20
0.569390
 30
0.0
 10
1.933080
 20
0.573476
 30
0.0
  0
SPLINE
  5
1f3
100
AcDbEntity
  8
Capa_1
 62
7
100
AcDbSpline
 70
8
 71
3
 72
8
 73
4
 74
0
 40
0
 40
0
 40
0
 40
0
 40
1
 40
1
 40
1
 40
1
 10
1.933080
 20
0.573476
 30
0.0
 10
1.914131
 20
0.577562
 30
0.0
 10
1.896354
 20
0.582909
 30
0.0
 10
1.879747
 20
0.589515
 30
0.0
  0
LWPOLYLINE
  5
1f4
100
AcDbEntity
  8
Capa_1
 62
7
100
AcDbPolyline
 90
3
 70
0
 10
1.742426
 20
0.983058
 30
0.0
 10
1.756798
 20
0.907766
 30
0.0
 10
1.762543
 20
0.907766
 30
0.0
  0
SPLINE
  5
1f5
100
AcDbEntity
  8
Capa_1
 62
7
100
AcDbSpline
 70
8
 71
3
 72
8
 73
4
 74
0
 40
0
 40
0
 40
0
 40
0
 40
1
 40
1
 40
1
 40
1
 10
1.824500
 20
0.559204
 30
0.0
 10
1.838552
 20
0.553074
 30
0.0
 10
1.851220
 20
0.547626
 30
0.0
 10
1.862503
 20
0.542858
 30
0.0
  0
SPLINE
  5
1f6
100
AcDbEntity
  8
Capa_1
 62
7
100
AcDbSpline
 70
8
 71
3
 72
8
 73
4
 74
0
 40
0
 40
0
 40
0
 40
0
 40
1
 40
1
 40
1
 40
1
 10
1.862503
 20
0.542858
 30
0.0
 10
1.873787
 20
0.538091
 30
0.0
 10
1.887946
 20
0.533187
 30
0.0
 10
1.904978
 20
0.528147
 30
0.0
  0
SPLINE
  5
1f7
100
AcDbEntity
  8
Capa_1
 62
7
100
AcDbSpline
 70
8
 71
3
 72
8
 73
4
 74
0
 40
0
 40
0
 40
0
 40
0
 40
1
 40
1
 40
1
 40
1
 10
1.904978
 20
0.528147
 30
0.0
 10
1.919668
 20
0.523380
 30
0.0
 10
1.934891
 20
0.519702
 30
0.0
 10
1.950646
 20
0.517114
 30
0.0
  0
SPLINE
  5
1f8
100
AcDbEntity
  8
Capa_1
 62
7
100
AcDbSpline
 70
8
 71
3
 72
8
 73
4
 74
0
 40
0
 40
0
 40
0
 40
0
 40
1
 40
1
 40
1
 40
1
 10
1.950646
 20
0.517114
 30
0.0
 10
1.966187
 20
0.514390
 30
0.0
 10
1.982900
 20
0.513028
 30
0.0
 10
2.000784
 20
0.513028
 30
0.0
  0
LWPOLYLINE
  5
1f9
100
AcDbEntity
  8
Capa_1
 62
7
100
AcDbPolyline
 90
6
 70
0
 10
1.879747
 20
0.589515
 30
0.0
 10
1.852921
 20
0.716511
 30
0.0
 10
1.979707
 20
0.716511
 30
0.0
 10
1.967572
 20
0.772189
 30
0.0
 10
1.777236
 20
0.772189
 30
0.0
 10
1.824500
 20
0.559204
 30
0.0
  0
LWPOLYLINE
  5
1fa
100
AcDbEntity
  8
Capa_1
 62
7
100
AcDbPolyline
 90
2
 70
0
 10
2.000784
 20
0.513028
 30
0.0
 10
2.000785
 20
0.512772
 30
0.0
  0
SPLINE
  5
1fb
100
AcDbEntity
  8
Capa_1
 62
7
100
AcDbSpline
 70
8
 71
3
 72
8
 73
4
 74
0
 40
0
 40
0
 40
0
 40
0
 40
1
 40
1
 40
1
 40
1
 10
0.770626
 20
0.828418
 30
0.0
 10
0.770626
 20
0.774205
 30
0.0
 10
0.783826
 20
0.722876
 30
0.0
 10
0.810226
 20
0.674431
 30
0.0
  0
SPLINE
  5
1fc
100
AcDbEntity
  8
Capa_1
 62
7
100
AcDbSpline
 70
8
 71
3
 72
8
 73
4
 74
0
 40
0
 40
0
 40
0
 40
0
 40
1
 40
1
 40
1
 40
1
 10
0.810226
 20
0.674431
 30
0.0
 10
0.836627
 20
0.626007
 30
0.0
 10
0.872714
 20
0.588565
 30
0.0
 10
0.918488
 20
0.562105
 30
0.0
  0
SPLINE
  5
1fd
100
AcDbEntity
  8
Capa_1
 62
7
100
AcDbSpline
 70
8
 71
3
 72
8
 73
4
 74
0
 40
0
 40
0
 40
0
 40
0
 40
1
 40
1
 40
1
 40
1
 10
0.918488
 20
0.562105
 30
0.0
 10
0.946591
 20
0.546305
 30
0.0
 10
0.975333
 20
0.535748
 30
0.0
 10
1.004714
 20
0.530436
 30
0.0
  0
SPLINE
  5
1fe
100
AcDbEntity
  8
Capa_1
 62
7
100
AcDbSpline
 70
8
 71
3
 72
8
 73
4
 74
0
 40
0
 40
0
 40
0
 40
0
 40
1
 40
1
 40
1
 40
1
 10
1.004714
 20
0.530436
 30
0.0
 10
1.034094
 20
0.524987
 30
0.0
 10
1.067414
 20
0.522263
 30
0.0
 10
1.104672
 20
0.522263
 30
0.0
  0
LWPOLYLINE
  5
1ff
100
AcDbEntity
  8
Capa_1
 62
7
100
AcDbPolyline
 90
10
 70
1
 10
1.359199
 20
0.522447
 30
0.0
 10
1.434566
 20
0.522447
 30
0.0
 10
1.564544
 20
0.966406
 30
0.0
 10
1.662906
 20
0.522447
 30
0.0
 10
1.722625
 20
0.522447
 30
0.0
 10
1.612767
 20
1.018733
 30
0.0
 10
1.517599
 20
1.018733
 30
0.0
 10
1.398799
 20
0.613431
 30
0.0
 10
1.309060
 20
1.018733
 30
0.0
 10
1.249340
 20
1.018733
 30
0.0
  0
SPLINE
  5
200
100
AcDbEntity
  8
Capa_1
 62
7
100
AcDbSpline
 70
8
 71
3
 72
8
 73
4
 74
0
 40
0
 40
0
 40
0
 40
0
 40
1
 40
1
 40
1
 40
1
 10
1.012698
 20
1.018549
 30
0.0
 10
0.978208
 20
1.018549
 30
0.0
 10
0.946804
 20
1.016165
 30
0.0
 10
0.918488
 20
1.011398
 30
0.0
  0
SPLINE
  5
201
100
AcDbEntity
  8
Capa_1
 62
7
100
AcDbSpline
 70
8
 71
3
 72
8
 73
4
 74
0
 40
0
 40
0
 40
0
 40
0
 40
1
 40
1
 40
1
 40
1
 10
0.918488
 20
1.011398
 30
0.0
 10
0.889959
 20
1.006630
 30
0.0
 10
0.863878
 20
0.995972
 30
0.0
 10
0.840246
 20
0.979421
 30
0.0
  0
SPLINE
  5
202
100
AcDbEntity
  8
Capa_1
 62
7
100
AcDbSpline
 70
8
 71
3
 72
8
 73
4
 74
0
 40
0
 40
0
 40
0
 40
0
 40
1
 40
1
 40
1
 40
1
 10
0.840246
 20
0.979421
 30
0.0
 10
0.817678
 20
0.963621
 30
0.0
 10
0.800433
 20
0.942950
 30
0.0
 10
0.788511
 20
0.917410
 30
0.0
  0
SPLINE
  5
203
100
AcDbEntity
  8
Capa_1
 62
7
100
AcDbSpline
 70
8
 71
3
 72
8
 73
4
 74
0
 40
0
 40
0
 40
0
 40
0
 40
1
 40
1
 40
1
 40
1
 10
0.788511
 20
0.917410
 30
0.0
 10
0.776588
 20
0.892074
 30
0.0
 10
0.770627
 20
0.862516
 30
0.0
 10
0.770627
 20
0.828735
 30
0.0
  0
LWPOLYLINE
  5
204
100
AcDbEntity
  8
Capa_1
 62
7
100
AcDbPolyline
 90
4
 70
0
 10
1.104672
 20
0.522263
 30
0.0
 10
1.233053
 20
0.522263
 30
0.0
 10
1.123195
 20
1.018549
 30
0.0
 10
1.012698
 20
1.018549
 30
0.0
  0
SPLINE
  5
205
100
AcDbEntity
  8
Capa_1
 62
7
100
AcDbSpline
 70
8
 71
3
 72
8
 73
4
 74
0
 40
0
 40
0
 40
0
 40
0
 40
1
 40
1
 40
1
 40
1
 10
0.837372
 20
0.822288
 30
0.0
 10
0.837372
 20
0.847624
 30
0.0
 10
0.841737
 20
0.869418
 30
0.0
 10
0.850466
 20
0.887671
 30
0.0
  0
SPLINE
  5
206
100
AcDbEntity
  8
Capa_1
 62
7
100
AcDbSpline
 70
8
 71
3
 72
8
 73
4
 74
0
 40
0
 40
0
 40
0
 40
0
 40
1
 40
1
 40
1
 40
1
 10
0.850466
 20
0.887671
 30
0.0
 10
0.858982
 20
0.906128
 30
0.0
 10
0.871969
 20
0.921452
 30
0.0
 10
0.889427
 20
0.933643
 30
0.0
  0
SPLINE
  5
207
100
AcDbEntity
  8
Capa_1
 62
7
100
AcDbSpline
 70
8
 71
3
 72
8
 73
4
 74
0
 40
0
 40
0
 40
0
 40
0
 40
1
 40
1
 40
1
 40
1
 10
0.889427
 20
0.933643
 30
0.0
 10
0.906672
 20
0.945630
 30
0.0
 10
0.925089
 20
0.953633
 30
0.0
 10
0.944675
 20
0.957651
 30
0.0
  0
SPLINE
  5
208
100
AcDbEntity
  8
Capa_1
 62
7
100
AcDbSpline
 70
8
 71
3
 72
8
 73
4
 74
0
 40
0
 40
0
 40
0
 40
0
 40
1
 40
1
 40
1
 40
1
 10
0.944675
 20
0.957651
 30
0.0
 10
0.964262
 20
0.961737
 30
0.0
 10
0.989066
 20
0.963781
 30
0.0
 10
1.019086
 20
0.963781
 30
0.0
  0
LWPOLYLINE
  5
209
100
AcDbEntity
  8
Capa_1
 62
7
100
AcDbPolyline
 90
2
 70
0
 10
0.770627
 20
0.828735
 30
0.0
 10
0.770626
 20
0.828418
 30
0.0
  0
SPLINE
  5
20a
100
AcDbEntity
  8
Capa_1
 62
7
100
AcDbSpline
 70
8
 71
3
 72
8
 73
4
 74
0
 40
0
 40
0
 40
0
 40
0
 40
1
 40
1
 40
1
 40
1
 10
1.091898
 20
0.576153
 30
0.0
 10
1.061453
 20
0.576153
 30
0.0
 10
1.034308
 20
0.578536
 30
0.0
 10
1.010463
 20
0.583304
 30
0.0
  0
SPLINE
  5
20b
100
AcDbEntity
  8
Capa_1
 62
7
100
AcDbSpline
 70
8
 71
3
 72
8
 73
4
 74
0
 40
0
 40
0
 40
0
 40
0
 40
1
 40
1
 40
1
 40
1
 10
1.010463
 20
0.583304
 30
0.0
 10
0.986405
 20
0.588752
 30
0.0
 10
0.963730
 20
0.597743
 30
0.0
 10
0.942440
 20
0.610274
 30
0.0
  0
SPLINE
  5
20c
100
AcDbEntity
  8
Capa_1
 62
7
100
AcDbSpline
 70
8
 71
3
 72
8
 73
4
 74
0
 40
0
 40
0
 40
0
 40
0
 40
1
 40
1
 40
1
 40
1
 10
0.942440
 20
0.610274
 30
0.0
 10
0.908162
 20
0.630706
 30
0.0
 10
0.882081
 20
0.660163
 30
0.0
 10
0.864197
 20
0.698643
 30
0.0
  0
SPLINE
  5
20d
100
AcDbEntity
  8
Capa_1
 62
7
100
AcDbSpline
 70
8
 71
3
 72
8
 73
4
 74
0
 40
0
 40
0
 40
0
 40
0
 40
1
 40
1
 40
1
 40
1
 10
0.864197
 20
0.698643
 30
0.0
 10
0.846314
 20
0.737328
 30
0.0
 10
0.837372
 20
0.778325
 30
0.0
 10
0.837372
 20
0.821634
 30
0.0
  0
LWPOLYLINE
  5
20e
100
AcDbEntity
  8
Capa_1
 62
7
100
AcDbPolyline
 90
4
 70
0
 10
1.019086
 20
0.963781
 30
0.0
 10
1.071779
 20
0.963781
 30
0.0
 10
1.158005
 20
0.576153
 30
0.0
 10
1.091898
 20
0.576153
 30
0.0
  0
LWPOLYLINE
  5
20f
100
AcDbEntity
  8
Capa_1
 62
7
100
AcDbPolyline
 90
2
 70
0
 10
0.837372
 20
0.821634
 30
0.0
 10
0.837372
 20
0.822288
 30
0.0
  0
LWPOLYLINE
  5
210
100
AcDbEntity
  8
Capa_1
 62
7
100
AcDbPolyline
 90
4
 70
1
 10
2.715358
 20
9.102260
 30
0.0
 10
5.369546
 20
9.102260
 30
0.0
 10
5.369546
 20
-0.750121
 30
0.0
 10
2.715358
 20
-0.750121
 30
0.0
  0
SPLINE
  5
211
100
AcDbEntity
  8
Capa_1
 62
7
100
AcDbSpline
 70
8
 71
3
 72
8
 73
4
 74
0
 40
0
 40
0
 40
0
 40
0
 40
1
 40
1
 40
1
 40
1
 10
3.887374
 20
8.551783
 30
0.0
 10
3.887374
 20
8.508671
 30
0.0
 10
3.893654
 20
8.467119
 30
0.0
 10
3.906215
 20
8.427126
 30
0.0
  0
SPLINE
  5
212
100
AcDbEntity
  8
Capa_1
 62
7
100
AcDbSpline
 70
8
 71
3
 72
8
 73
4
 74
0
 40
0
 40
0
 40
0
 40
0
 40
1
 40
1
 40
1
 40
1
 10
3.906215
 20
8.427126
 30
0.0
 10
3.918564
 20
8.387147
 30
0.0
 10
3.936554
 20
8.351929
 30
0.0
 10
3.960186
 20
8.321472
 30
0.0
  0
SPLINE
  5
213
100
AcDbEntity
  8
Capa_1
 62
7
100
AcDbSpline
 70
8
 71
3
 72
8
 73
4
 74
0
 40
0
 40
0
 40
0
 40
0
 40
1
 40
1
 40
1
 40
1
 10
3.960186
 20
8.321472
 30
0.0
 10
3.984457
 20
8.290142
 30
0.0
 10
4.013625
 20
8.265488
 30
0.0
 10
4.047690
 20
8.247507
 30
0.0
  0
SPLINE
  5
214
100
AcDbEntity
  8
Capa_1
 62
7
100
AcDbSpline
 70
8
 71
3
 72
8
 73
4
 74
0
 40
0
 40
0
 40
0
 40
0
 40
1
 40
1
 40
1
 40
1
 10
4.047690
 20
8.247507
 30
0.0
 10
4.081754
 20
8.229731
 30
0.0
 10
4.120184
 20
8.220843
 30
0.0
 10
4.162977
 20
8.220843
 30
0.0
  0
SPLINE
  5
215
100
AcDbEntity
  8
Capa_1
 62
7
100
AcDbSpline
 70
8
 71
3
 72
8
 73
4
 74
0
 40
0
 40
0
 40
0
 40
0
 40
1
 40
1
 40
1
 40
1
 10
4.162977
 20
8.220843
 30
0.0
 10
4.219610
 20
8.220843
 30
0.0
 10
4.263894
 20
8.236951
 30
0.0
 10
4.295829
 20
8.269165
 30
0.0
  0
SPLINE
  5
216
100
AcDbEntity
  8
Capa_1
 62
7
100
AcDbSpline
 70
8
 71
3
 72
8
 73
4
 74
0
 40
0
 40
0
 40
0
 40
0
 40
1
 40
1
 40
1
 40
1
 10
4.295829
 20
8.269165
 30
0.0
 10
4.327765
 20
8.301584
 30
0.0
 10
4.343732
 20
8.347581
 30
0.0
 10
4.343732
 20
8.407154
 30
0.0
  0
SPLINE
  5
217
100
AcDbEntity
  8
Capa_1
 62
7
100
AcDbSpline
 70
8
 71
3
 72
8
 73
4
 74
0
 40
0
 40
0
 40
0
 40
0
 40
1
 40
1
 40
1
 40
1
 10
4.343732
 20
8.407154
 30
0.0
 10
4.343732
 20
8.452513
 30
0.0
 10
4.337345
 20
8.494845
 30
0.0
 10
4.324571
 20
8.534150
 30
0.0
  0
SPLINE
  5
218
100
AcDbEntity
  8
Capa_1
 62
7
100
AcDbSpline
 70
8
 71
3
 72
8
 73
4
 74
0
 40
0
 40
0
 40
0
 40
0
 40
1
 40
1
 40
1
 40
1
 10
4.324571
 20
8.534150
 30
0.0
 10
4.311797
 20
8.573448
 30
0.0
 10
4.293381
 20
8.608553
 30
0.0
 10
4.269323
 20
8.639467
 30
0.0
  0
SPLINE
  5
219
100
AcDbEntity
  8
Capa_1
 62
7
100
AcDbSpline
 70
8
 71
3
 72
8
 73
4
 74
0
 40
0
 40
0
 40
0
 40
0
 40
1
 40
1
 40
1
 40
1
 10
4.269323
 20
8.639467
 30
0.0
 10
4.245904
 20
8.669230
 30
0.0
 10
4.216949
 20
8.692999
 30
0.0
 10
4.182458
 20
8.710775
 30
0.0
  0
SPLINE
  5
21a
100
AcDbEntity
  8
Capa_1
 62
7
100
AcDbSpline
 70
8
 71
3
 72
8
 73
4
 74
0
 40
0
 40
0
 40
0
 40
0
 40
1
 40
1
 40
1
 40
1
 10
4.182458
 20
8.710775
 30
0.0
 10
4.147754
 20
8.728756
 30
0.0
 10
4.109751
 20
8.737746
 30
0.0
 10
4.068448
 20
8.737746
 30
0.0
  0
SPLINE
  5
21b
100
AcDbEntity
  8
Capa_1
 62
7
100
AcDbSpline
 70
8
 71
3
 72
8
 73
4
 74
0
 40
0
 40
0
 40
0
 40
0
 40
1
 40
1
 40
1
 40
1
 10
4.068448
 20
8.737746
 30
0.0
 10
4.012028
 20
8.737746
 30
0.0
 10
3.967744
 20
8.721638
 30
0.0
 10
3.935596
 20
8.689424
 30
0.0
  0
SPLINE
  5
21c
100
AcDbEntity
  8
Capa_1
 62
7
100
AcDbSpline
 70
8
 71
3
 72
8
 73
4
 74
0
 40
0
 40
0
 40
0
 40
0
 40
1
 40
1
 40
1
 40
1
 10
3.935596
 20
8.689424
 30
0.0
 10
3.903447
 20
8.657413
 30
0.0
 10
3.887373
 20
8.611530
 30
0.0
 10
3.887373
 20
8.551772
 30
0.0
  0
LWPOLYLINE
  5
21d
100
AcDbEntity
  8
Capa_1
 62
7
100
AcDbPolyline
 90
13
 70
1
 10
4.491914
 20
8.231141
 30
0.0
 10
4.555785
 20
8.231141
 30
0.0
 10
4.461895
 20
8.652768
 30
0.0
 10
4.655105
 20
8.367791
 30
0.0
 10
4.692789
 20
8.367791
 30
0.0
 10
4.759854
 20
8.665773
 30
0.0
 10
4.856299
 20
8.231141
 30
0.0
 10
4.916019
 20
8.231141
 30
0.0
 10
4.806160
 20
8.727438
 30
0.0
 10
4.719295
 20
8.727438
 30
0.0
 10
4.655105
 20
8.451124
 30
0.0
 10
4.469879
 20
8.727438
 30
0.0
 10
4.382056
 20
8.727438
 30
0.0
  0
SPLINE
  5
21e
100
AcDbEntity
  8
Capa_1
 62
7
100
AcDbSpline
 70
8
 71
3
 72
8
 73
4
 74
0
 40
0
 40
0
 40
0
 40
0
 40
1
 40
1
 40
1
 40
1
 10
4.008409
 20
8.354459
 30
0.0
 10
3.990526
 20
8.379795
 30
0.0
 10
3.977006
 20
8.408026
 30
0.0
 10
3.967851
 20
8.439151
 30
0.0
  0
SPLINE
  5
21f
100
AcDbEntity
  8
Capa_1
 62
7
100
AcDbSpline
 70
8
 71
3
 72
8
 73
4
 74
0
 40
0
 40
0
 40
0
 40
0
 40
1
 40
1
 40
1
 40
1
 10
3.967851
 20
8.439151
 30
0.0
 10
3.958696
 20
8.470480
 30
0.0
 10
3.954118
 20
8.504922
 30
0.0
 10
3.954118
 20
8.542476
 30
0.0
  0
SPLINE
  5
220
100
AcDbEntity
  8
Capa_1
 62
7
100
AcDbSpline
 70
8
 71
3
 72
8
 73
4
 74
0
 40
0
 40
0
 40
0
 40
0
 40
1
 40
1
 40
1
 40
1
 10
3.954118
 20
8.542476
 30
0.0
 10
3.954118
 20
8.587835
 30
0.0
 10
3.965083
 20
8.622611
 30
0.0
 10
3.987012
 20
8.646802
 30
0.0
  0
SPLINE
  5
221
100
AcDbEntity
  8
Capa_1
 62
7
100
AcDbSpline
 70
8
 71
3
 72
8
 73
4
 74
0
 40
0
 40
0
 40
0
 40
0
 40
1
 40
1
 40
1
 40
1
 10
3.987012
 20
8.646802
 30
0.0
 10
4.008728
 20
8.671253
 30
0.0
 10
4.039173
 20
8.683478
 30
0.0
 10
4.078347
 20
8.683478
 30
0.0
  0
SPLINE
  5
222
100
AcDbEntity
  8
Capa_1
 62
7
100
AcDbSpline
 70
8
 71
3
 72
8
 73
4
 74
0
 40
0
 40
0
 40
0
 40
0
 40
1
 40
1
 40
1
 40
1
 10
4.078347
 20
8.683478
 30
0.0
 10
4.108793
 20
8.683478
 30
0.0
 10
4.136257
 20
8.676156
 30
0.0
 10
4.160741
 20
8.661513
 30
0.0
  0
SPLINE
  5
223
100
AcDbEntity
  8
Capa_1
 62
7
100
AcDbSpline
 70
8
 71
3
 72
8
 73
4
 74
0
 40
0
 40
0
 40
0
 40
0
 40
1
 40
1
 40
1
 40
1
 10
4.160741
 20
8.661513
 30
0.0
 10
4.185225
 20
8.647075
 30
0.0
 10
4.206302
 20
8.627426
 30
0.0
 10
4.223974
 20
8.602567
 30
0.0
  0
SPLINE
  5
224
100
AcDbEntity
  8
Capa_1
 62
7
100
AcDbSpline
 70
8
 71
3
 72
8
 73
4
 74
0
 40
0
 40
0
 40
0
 40
0
 40
1
 40
1
 40
1
 40
1
 10
4.223974
 20
8.602567
 30
0.0
 10
4.241006
 20
8.578116
 30
0.0
 10
4.254100
 20
8.549682
 30
0.0
 10
4.263254
 20
8.517263
 30
0.0
  0
SPLINE
  5
225
100
AcDbEntity
  8
Capa_1
 62
7
100
AcDbSpline
 70
8
 71
3
 72
8
 73
4
 74
0
 40
0
 40
0
 40
0
 40
0
 40
1
 40
1
 40
1
 40
1
 10
4.263254
 20
8.517263
 30
0.0
 10
4.272409
 20
8.485048
 30
0.0
 10
4.276986
 20
8.451812
 30
0.0
 10
4.276986
 20
8.417554
 30
0.0
  0
SPLINE
  5
226
100
AcDbEntity
  8
Capa_1
 62
7
100
AcDbSpline
 70
8
 71
3
 72
8
 73
4
 74
0
 40
0
 40
0
 40
0
 40
0
 40
1
 40
1
 40
1
 40
1
 10
4.276986
 20
8.417554
 30
0.0
 10
4.276986
 20
8.371786
 30
0.0
 10
4.266128
 20
8.336564
 30
0.0
 10
4.244412
 20
8.311889
 30
0.0
  0
SPLINE
  5
227
100
AcDbEntity
  8
Capa_1
 62
7
100
AcDbSpline
 70
8
 71
3
 72
8
 73
4
 74
0
 40
0
 40
0
 40
0
 40
0
 40
1
 40
1
 40
1
 40
1
 10
4.244412
 20
8.311889
 30
0.0
 10
4.222483
 20
8.287439
 30
0.0
 10
4.191825
 20
8.275213
 30
0.0
 10
4.152437
 20
8.275213
 30
0.0
  0
SPLINE
  5
228
100
AcDbEntity
  8
Capa_1
 62
7
100
AcDbSpline
 70
8
 71
3
 72
8
 73
4
 74
0
 40
0
 40
0
 40
0
 40
0
 40
1
 40
1
 40
1
 40
1
 10
4.152437
 20
8.275213
 30
0.0
 10
4.122418
 20
8.275213
 30
0.0
 10
4.095166
 20
8.282433
 30
0.0
 10
4.070682
 20
8.296871
 30
0.0
  0
SPLINE
  5
229
100
AcDbEntity
  8
Capa_1
 62
7
100
AcDbSpline
 70
8
 71
3
 72
8
 73
4
 74
0
 40
0
 40
0
 40
0
 40
0
 40
1
 40
1
 40
1
 40
1
 10
4.070682
 20
8.296871
 30
0.0
 10
4.045985
 20
8.311310
 30
0.0
 10
4.025227
 20
8.330516
 30
0.0
 10
4.008407
 20
8.354490
 30
0.0
  0
LWPOLYLINE
  5
22a
100
AcDbEntity
  8
Capa_1
 62
7
100
AcDbPolyline
 90
1
 70
1
 10
3.887373
 20
8.551772
 30
0.0
  0
SPLINE
  5
22b
100
AcDbEntity
  8
Capa_1
 62
7
100
AcDbSpline
 70
8
 71
3
 72
8
 73
4
 74
0
 40
0
 40
0
 40
0
 40
0
 40
1
 40
1
 40
1
 40
1
 10
3.684902
 20
8.222141
 30
0.0
 10
3.715773
 20
8.222141
 30
0.0
 10
3.745154
 20
8.225546
 30
0.0
 10
3.773045
 20
8.232357
 30
0.0
  0
SPLINE
  5
22c
100
AcDbEntity
  8
Capa_1
 62
7
100
AcDbSpline
 70
8
 71
3
 72
8
 73
4
 74
0
 40
0
 40
0
 40
0
 40
0
 40
1
 40
1
 40
1
 40
1
 10
3.773045
 20
8.232357
 30
0.0
 10
3.800935
 20
8.239236
 30
0.0
 10
3.828293
 20
8.249690
 30
0.0
 10
3.855119
 20
8.263720
 30
0.0
  0
LWPOLYLINE
  5
22d
100
AcDbEntity
  8
Capa_1
 62
7
100
AcDbPolyline
 90
1
 70
1
 10
4.008407
 20
8.354490
 30
0.0
  0
SPLINE
  5
22e
100
AcDbEntity
  8
Capa_1
 62
7
100
AcDbSpline
 70
8
 71
3
 72
8
 73
4
 74
0
 40
0
 40
0
 40
0
 40
0
 40
1
 40
1
 40
1
 40
1
 10
3.835317
 20
8.339421
 30
0.0
 10
3.814879
 20
8.319194
 30
0.0
 10
3.789863
 20
8.303631
 30
0.0
 10
3.760269
 20
8.292734
 30
0.0
  0
SPLINE
  5
22f
100
AcDbEntity
  8
Capa_1
 62
7
100
AcDbSpline
 70
8
 71
3
 72
8
 73
4
 74
0
 40
0
 40
0
 40
0
 40
0
 40
1
 40
1
 40
1
 40
1
 10
3.760269
 20
8.292734
 30
0.0
 10
3.730462
 20
8.282041
 30
0.0
 10
3.701720
 20
8.276695
 30
0.0
 10
3.674043
 20
8.276695
 30
0.0
  0
SPLINE
  5
230
100
AcDbEntity
  8
Capa_1
 62
7
100
AcDbSpline
 70
8
 71
3
 72
8
 73
4
 74
0
 40
0
 40
0
 40
0
 40
0
 40
1
 40
1
 40
1
 40
1
 10
3.674043
 20
8.276695
 30
0.0
 10
3.628694
 20
8.276695
 30
0.0
 10
3.593991
 20
8.286025
 30
0.0
 10
3.569933
 20
8.304687
 30
0.0
  0
SPLINE
  5
231
100
AcDbEntity
  8
Capa_1
 62
7
100
AcDbSpline
 70
8
 71
3
 72
8
 73
4
 74
0
 40
0
 40
0
 40
0
 40
0
 40
1
 40
1
 40
1
 40
1
 10
3.569933
 20
8.304687
 30
0.0
 10
3.545662
 20
8.323552
 30
0.0
 10
3.533526
 20
8.347560
 30
0.0
 10
3.533526
 20
8.376710
 30
0.0
  0
SPLINE
  5
232
100
AcDbEntity
  8
Capa_1
 62
7
100
AcDbSpline
 70
8
 71
3
 72
8
 73
4
 74
0
 40
0
 40
0
 40
0
 40
0
 40
1
 40
1
 40
1
 40
1
 10
3.533526
 20
8.376710
 30
0.0
 10
3.533526
 20
8.392034
 30
0.0
 10
3.537891
 20
8.404804
 30
0.0
 10
3.546620
 20
8.415020
 30
0.0
  0
SPLINE
  5
233
100
AcDbEntity
  8
Capa_1
 62
7
100
AcDbSpline
 70
8
 71
3
 72
8
 73
4
 74
0
 40
0
 40
0
 40
0
 40
0
 40
1
 40
1
 40
1
 40
1
 10
3.546620
 20
8.415020
 30
0.0
 10
3.555136
 20
8.425236
 30
0.0
 10
3.567698
 20
8.432796
 30
0.0
 10
3.584304
 20
8.437700
 30
0.0
  0
SPLINE
  5
234
100
AcDbEntity
  8
Capa_1
 62
7
100
AcDbSpline
 70
8
 71
3
 72
8
 73
4
 74
0
 40
0
 40
0
 40
0
 40
0
 40
1
 40
1
 40
1
 40
1
 10
3.584304
 20
8.437700
 30
0.0
 10
3.598143
 20
8.441786
 30
0.0
 10
3.614643
 20
8.445566
 30
0.0
 10
3.633805
 20
8.449040
 30
0.0
  0
SPLINE
  5
235
100
AcDbEntity
  8
Capa_1
 62
7
100
AcDbSpline
 70
8
 71
3
 72
8
 73
4
 74
0
 40
0
 40
0
 40
0
 40
0
 40
1
 40
1
 40
1
 40
1
 10
3.633805
 20
8.449040
 30
0.0
 10
3.652753
 20
8.453126
 30
0.0
 10
3.670850
 20
8.457110
 30
0.0
 10
3.688096
 20
8.460992
 30
0.0
  0
SPLINE
  5
236
100
AcDbEntity
  8
Capa_1
 62
7
100
AcDbSpline
 70
8
 71
3
 72
8
 73
4
 74
0
 40
0
 40
0
 40
0
 40
0
 40
1
 40
1
 40
1
 40
1
 10
3.688096
 20
8.460992
 30
0.0
 10
3.721521
 20
8.468757
 30
0.0
 10
3.747389
 20
8.482106
 30
0.0
 10
3.765699
 20
8.501039
 30
0.0
  0
SPLINE
  5
237
100
AcDbEntity
  8
Capa_1
 62
7
100
AcDbSpline
 70
8
 71
3
 72
8
 73
4
 74
0
 40
0
 40
0
 40
0
 40
0
 40
1
 40
1
 40
1
 40
1
 10
3.765699
 20
8.501039
 30
0.0
 10
3.784009
 20
8.519905
 30
0.0
 10
3.793163
 20
8.543334
 30
0.0
 10
3.793163
 20
8.571326
 30
0.0
  0
SPLINE
  5
238
100
AcDbEntity
  8
Capa_1
 62
7
100
AcDbSpline
 70
8
 71
3
 72
8
 73
4
 74
0
 40
0
 40
0
 40
0
 40
0
 40
1
 40
1
 40
1
 40
1
 10
3.793163
 20
8.571326
 30
0.0
 10
3.793163
 20
8.618660
 30
0.0
 10
3.774002
 20
8.657992
 30
0.0
 10
3.735679
 20
8.689322
 30
0.0
  0
SPLINE
  5
239
100
AcDbEntity
  8
Capa_1
 62
7
100
AcDbSpline
 70
8
 71
3
 72
8
 73
4
 74
0
 40
0
 40
0
 40
0
 40
0
 40
1
 40
1
 40
1
 40
1
 10
3.735679
 20
8.689322
 30
0.0
 10
3.697144
 20
8.720855
 30
0.0
 10
3.647431
 20
8.736622
 30
0.0
 10
3.586540
 20
8.736622
 30
0.0
  0
SPLINE
  5
23a
100
AcDbEntity
  8
Capa_1
 62
7
100
AcDbSpline
 70
8
 71
3
 72
8
 73
4
 74
0
 40
0
 40
0
 40
0
 40
0
 40
1
 40
1
 40
1
 40
1
 10
3.586540
 20
8.736622
 30
0.0
 10
3.553327
 20
8.736622
 30
0.0
 10
3.523201
 20
8.732944
 30
0.0
 10
3.496163
 20
8.725589
 30
0.0
  0
SPLINE
  5
23b
100
AcDbEntity
  8
Capa_1
 62
7
100
AcDbSpline
 70
8
 71
3
 72
8
 73
4
 74
0
 40
0
 40
0
 40
0
 40
0
 40
1
 40
1
 40
1
 40
1
 10
3.496163
 20
8.725589
 30
0.0
 10
3.468911
 20
8.718505
 30
0.0
 10
3.445492
 20
8.710060
 30
0.0
 10
3.425905
 20
8.700253
 30
0.0
  0
LWPOLYLINE
  5
23c
100
AcDbEntity
  8
Capa_1
 62
7
100
AcDbPolyline
 90
3
 70
0
 10
3.855119
 20
8.263720
 30
0.0
 10
3.839790
 20
8.339421
 30
0.0
 10
3.835317
 20
8.339421
 30
0.0
  0
SPLINE
  5
23d
100
AcDbEntity
  8
Capa_1
 62
7
100
AcDbSpline
 70
8
 71
3
 72
8
 73
4
 74
0
 40
0
 40
0
 40
0
 40
0
 40
1
 40
1
 40
1
 40
1
 10
3.444750
 20
8.629251
 30
0.0
 10
3.459866
 20
8.643690
 30
0.0
 10
3.481476
 20
8.656119
 30
0.0
 10
3.509579
 20
8.666540
 30
0.0
  0
SPLINE
  5
23e
100
AcDbEntity
  8
Capa_1
 62
7
100
AcDbSpline
 70
8
 71
3
 72
8
 73
4
 74
0
 40
0
 40
0
 40
0
 40
0
 40
1
 40
1
 40
1
 40
1
 10
3.509579
 20
8.666540
 30
0.0
 10
3.537469
 20
8.676960
 30
0.0
 10
3.566850
 20
8.682170
 30
0.0
 10
3.597722
 20
8.682170
 30
0.0
  0
SPLINE
  5
23f
100
AcDbEntity
  8
Capa_1
 62
7
100
AcDbSpline
 70
8
 71
3
 72
8
 73
4
 74
0
 40
0
 40
0
 40
0
 40
0
 40
1
 40
1
 40
1
 40
1
 10
3.597722
 20
8.682170
 30
0.0
 10
3.636470
 20
8.682170
 30
0.0
 10
3.667448
 20
8.673282
 30
0.0
 10
3.690654
 20
8.655506
 30
0.0
  0
SPLINE
  5
240
100
AcDbEntity
  8
Capa_1
 62
7
100
AcDbSpline
 70
8
 71
3
 72
8
 73
4
 74
0
 40
0
 40
0
 40
0
 40
0
 40
1
 40
1
 40
1
 40
1
 10
3.690654
 20
8.655506
 30
0.0
 10
3.713648
 20
8.637730
 30
0.0
 10
3.725144
 20
8.615187
 30
0.0
 10
3.725144
 20
8.587876
 30
0.0
  0
SPLINE
  5
241
100
AcDbEntity
  8
Capa_1
 62
7
100
AcDbSpline
 70
8
 71
3
 72
8
 73
4
 74
0
 40
0
 40
0
 40
0
 40
0
 40
1
 40
1
 40
1
 40
1
 10
3.725144
 20
8.587876
 30
0.0
 10
3.725144
 20
8.573233
 30
0.0
 10
3.720993
 20
8.560361
 30
0.0
 10
3.712690
 20
8.549259
 30
0.0
  0
SPLINE
  5
242
100
AcDbEntity
  8
Capa_1
 62
7
100
AcDbSpline
 70
8
 71
3
 72
8
 73
4
 74
0
 40
0
 40
0
 40
0
 40
0
 40
1
 40
1
 40
1
 40
1
 10
3.712690
 20
8.549259
 30
0.0
 10
3.704386
 20
8.538158
 30
0.0
 10
3.689589
 20
8.529815
 30
0.0
 10
3.668299
 20
8.524230
 30
0.0
  0
SPLINE
  5
243
100
AcDbEntity
  8
Capa_1
 62
7
100
AcDbSpline
 70
8
 71
3
 72
8
 73
4
 74
0
 40
0
 40
0
 40
0
 40
0
 40
1
 40
1
 40
1
 40
1
 10
3.668299
 20
8.524230
 30
0.0
 10
3.654673
 20
8.520825
 30
0.0
 10
3.636576
 20
8.516704
 30
0.0
 10
3.614008
 20
8.511868
 30
0.0
  0
SPLINE
  5
244
100
AcDbEntity
  8
Capa_1
 62
7
100
AcDbSpline
 70
8
 71
3
 72
8
 73
4
 74
0
 40
0
 40
0
 40
0
 40
0
 40
1
 40
1
 40
1
 40
1
 10
3.614008
 20
8.511868
 30
0.0
 10
3.591440
 20
8.507101
 30
0.0
 10
3.572491
 20
8.502640
 30
0.0
 10
3.557162
 20
8.498485
 30
0.0
  0
SPLINE
  5
245
100
AcDbEntity
  8
Capa_1
 62
7
100
AcDbSpline
 70
8
 71
3
 72
8
 73
4
 74
0
 40
0
 40
0
 40
0
 40
0
 40
1
 40
1
 40
1
 40
1
 10
3.557162
 20
8.498485
 30
0.0
 10
3.526930
 20
8.489836
 30
0.0
 10
3.504043
 20
8.476964
 30
0.0
 10
3.488500
 20
8.459869
 30
0.0
  0
SPLINE
  5
246
100
AcDbEntity
  8
Capa_1
 62
7
100
AcDbSpline
 70
8
 71
3
 72
8
 73
4
 74
0
 40
0
 40
0
 40
0
 40
0
 40
1
 40
1
 40
1
 40
1
 10
3.488500
 20
8.459869
 30
0.0
 10
3.472746
 20
8.442774
 30
0.0
 10
3.464868
 20
8.421218
 30
0.0
 10
3.464868
 20
8.395201
 30
0.0
  0
SPLINE
  5
247
100
AcDbEntity
  8
Capa_1
 62
7
100
AcDbSpline
 70
8
 71
3
 72
8
 73
4
 74
0
 40
0
 40
0
 40
0
 40
0
 40
1
 40
1
 40
1
 40
1
 10
3.464868
 20
8.395201
 30
0.0
 10
3.464868
 20
8.373407
 30
0.0
 10
3.469978
 20
8.351749
 30
0.0
 10
3.480197
 20
8.330227
 30
0.0
  0
SPLINE
  5
248
100
AcDbEntity
  8
Capa_1
 62
7
100
AcDbSpline
 70
8
 71
3
 72
8
 73
4
 74
0
 40
0
 40
0
 40
0
 40
0
 40
1
 40
1
 40
1
 40
1
 10
3.480197
 20
8.330227
 30
0.0
 10
3.490416
 20
8.308637
 30
0.0
 10
3.504681
 20
8.290180
 30
0.0
 10
3.522990
 20
8.274856
 30
0.0
  0
SPLINE
  5
249
100
AcDbEntity
  8
Capa_1
 62
7
100
AcDbSpline
 70
8
 71
3
 72
8
 73
4
 74
0
 40
0
 40
0
 40
0
 40
0
 40
1
 40
1
 40
1
 40
1
 10
3.522990
 20
8.274856
 30
0.0
 10
3.542578
 20
8.258442
 30
0.0
 10
3.565571
 20
8.245570
 30
0.0
 10
3.591971
 20
8.236239
 30
0.0
  0
SPLINE
  5
24a
100
AcDbEntity
  8
Capa_1
 62
7
100
AcDbSpline
 70
8
 71
3
 72
8
 73
4
 74
0
 40
0
 40
0
 40
0
 40
0
 40
1
 40
1
 40
1
 40
1
 10
3.591971
 20
8.236239
 30
0.0
 10
3.618158
 20
8.226908
 30
0.0
 10
3.649135
 20
8.222243
 30
0.0
 10
3.684903
 20
8.222243
 30
0.0
  0
LWPOLYLINE
  5
24b
100
AcDbEntity
  8
Capa_1
 62
7
100
AcDbPolyline
 90
3
 70
0
 10
3.425905
 20
8.700253
 30
0.0
 10
3.440276
 20
8.629251
 30
0.0
 10
3.444750
 20
8.629251
 30
0.0
  0
LWPOLYLINE
  5
24c
100
AcDbEntity
  8
Capa_1
 62
7
100
AcDbPolyline
 90
2
 70
0
 10
3.684903
 20
8.222243
 30
0.0
 10
3.684902
 20
8.222141
 30
0.0
  0
LWPOLYLINE
  5
24d
100
AcDbEntity
  8
Capa_1
 62
7
100
AcDbPolyline
 90
12
 70
1
 10
3.233972
 20
8.231141
 30
0.0
 10
3.422391
 20
8.231141
 30
0.0
 10
3.411853
 20
8.279463
 30
0.0
 10
3.349579
 20
8.279463
 30
0.0
 10
3.260798
 20
8.679095
 30
0.0
 10
3.323072
 20
8.679095
 30
0.0
 10
3.312534
 20
8.727417
 30
0.0
 10
3.124114
 20
8.727417
 30
0.0
 10
3.134652
 20
8.679095
 30
0.0
 10
3.196927
 20
8.679095
 30
0.0
 10
3.285708
 20
8.279463
 30
0.0
 10
3.223433
 20
8.279463
 30
0.0
  0
LWPOLYLINE
  5
24e
100
AcDbEntity
  8
Capa_1
 62
7
100
AcDbPolyline
 90
13
 70
1
 10
4.491914
 20
6.524619
 30
0.0
 10
4.555785
 20
6.524619
 30
0.0
 10
4.461895
 20
6.946246
 30
0.0
 10
4.655105
 20
6.661269
 30
0.0
 10
4.692789
 20
6.661269
 30
0.0
 10
4.759854
 20
6.959252
 30
0.0
 10
4.856299
 20
6.524619
 30
0.0
 10
4.916019
 20
6.524619
 30
0.0
 10
4.806160
 20
7.020905
 30
0.0
 10
4.719295
 20
7.020905
 30
0.0
 10
4.655105
 20
6.744602
 30
0.0
 10
4.469879
 20
7.020905
 30
0.0
 10
4.382056
 20
7.020905
 30
0.0
  0
SPLINE
  5
24f
100
AcDbEntity
  8
Capa_1
 62
7
100
AcDbSpline
 70
8
 71
3
 72
8
 73
4
 74
0
 40
0
 40
0
 40
0
 40
0
 40
1
 40
1
 40
1
 40
1
 10
3.923780
 20
6.515619
 30
0.0
 10
3.954651
 20
6.515619
 30
0.0
 10
3.984032
 20
6.519024
 30
0.0
 10
4.011923
 20
6.525835
 30
0.0
  0
SPLINE
  5
250
100
AcDbEntity
  8
Capa_1
 62
7
100
AcDbSpline
 70
8
 71
3
 72
8
 73
4
 74
0
 40
0
 40
0
 40
0
 40
0
 40
1
 40
1
 40
1
 40
1
 10
4.011923
 20
6.525835
 30
0.0
 10
4.039813
 20
6.532714
 30
0.0
 10
4.067172
 20
6.543168
 30
0.0
 10
4.093997
 20
6.557198
 30
0.0
  0
LWPOLYLINE
  5
251
100
AcDbEntity
  8
Capa_1
 62
7
100
AcDbPolyline
 90
12
 70
1
 10
4.195871
 20
6.524619
 30
0.0
 10
4.384291
 20
6.524619
 30
0.0
 10
4.373753
 20
6.572941
 30
0.0
 10
4.311478
 20
6.572941
 30
0.0
 10
4.222698
 20
6.972573
 30
0.0
 10
4.284972
 20
6.972573
 30
0.0
 10
4.274434
 20
7.020895
 30
0.0
 10
4.086014
 20
7.020895
 30
0.0
 10
4.096552
 20
6.972573
 30
0.0
 10
4.158827
 20
6.972573
 30
0.0
 10
4.247607
 20
6.572941
 30
0.0
 10
4.185333
 20
6.572941
 30
0.0
  0
SPLINE
  5
252
100
AcDbEntity
  8
Capa_1
 62
7
100
AcDbSpline
 70
8
 71
3
 72
8
 73
4
 74
0
 40
0
 40
0
 40
0
 40
0
 40
1
 40
1
 40
1
 40
1
 10
4.074195
 20
6.632899
 30
0.0
 10
4.053757
 20
6.612672
 30
0.0
 10
4.028741
 20
6.597109
 30
0.0
 10
3.999147
 20
6.586212
 30
0.0
  0
SPLINE
  5
253
100
AcDbEntity
  8
Capa_1
 62
7
100
AcDbSpline
 70
8
 71
3
 72
8
 73
4
 74
0
 40
0
 40
0
 40
0
 40
0
 40
1
 40
1
 40
1
 40
1
 10
3.999147
 20
6.586212
 30
0.0
 10
3.969340
 20
6.575519
 30
0.0
 10
3.940598
 20
6.570173
 30
0.0
 10
3.912921
 20
6.570173
 30
0.0
  0
SPLINE
  5
254
100
AcDbEntity
  8
Capa_1
 62
7
100
AcDbSpline
 70
8
 71
3
 72
8
 73
4
 74
0
 40
0
 40
0
 40
0
 40
0
 40
1
 40
1
 40
1
 40
1
 10
3.912921
 20
6.570173
 30
0.0
 10
3.867573
 20
6.570173
 30
0.0
 10
3.832869
 20
6.579503
 30
0.0
 10
3.808811
 20
6.598165
 30
0.0
  0
SPLINE
  5
255
100
AcDbEntity
  8
Capa_1
 62
7
100
AcDbSpline
 70
8
 71
3
 72
8
 73
4
 74
0
 40
0
 40
0
 40
0
 40
0
 40
1
 40
1
 40
1
 40
1
 10
3.808811
 20
6.598165
 30
0.0
 10
3.784540
 20
6.617030
 30
0.0
 10
3.772404
 20
6.641038
 30
0.0
 10
3.772404
 20
6.670188
 30
0.0
  0
SPLINE
  5
256
100
AcDbEntity
  8
Capa_1
 62
7
100
AcDbSpline
 70
8
 71
3
 72
8
 73
4
 74
0
 40
0
 40
0
 40
0
 40
0
 40
1
 40
1
 40
1
 40
1
 10
3.772404
 20
6.670188
 30
0.0
 10
3.772404
 20
6.685512
 30
0.0
 10
3.776769
 20
6.698282
 30
0.0
 10
3.785499
 20
6.708498
 30
0.0
  0
SPLINE
  5
257
100
AcDbEntity
  8
Capa_1
 62
7
100
AcDbSpline
 70
8
 71
3
 72
8
 73
4
 74
0
 40
0
 40
0
 40
0
 40
0
 40
1
 40
1
 40
1
 40
1
 10
3.785499
 20
6.708498
 30
0.0
 10
3.794015
 20
6.718714
 30
0.0
 10
3.806576
 20
6.726274
 30
0.0
 10
3.823182
 20
6.731178
 30
0.0
  0
SPLINE
  5
258
100
AcDbEntity
  8
Capa_1
 62
7
100
AcDbSpline
 70
8
 71
3
 72
8
 73
4
 74
0
 40
0
 40
0
 40
0
 40
0
 40
1
 40
1
 40
1
 40
1
 10
3.823182
 20
6.731178
 30
0.0
 10
3.837021
 20
6.735264
 30
0.0
 10
3.853521
 20
6.739044
 30
0.0
 10
3.872683
 20
6.742518
 30
0.0
  0
SPLINE
  5
259
100
AcDbEntity
  8
Capa_1
 62
7
100
AcDbSpline
 70
8
 71
3
 72
8
 73
4
 74
0
 40
0
 40
0
 40
0
 40
0
 40
1
 40
1
 40
1
 40
1
 10
3.872683
 20
6.742518
 30
0.0
 10
3.891631
 20
6.746604
 30
0.0
 10
3.909728
 20
6.750622
 30
0.0
 10
3.926974
 20
6.754573
 30
0.0
  0
SPLINE
  5
25a
100
AcDbEntity
  8
Capa_1
 62
7
100
AcDbSpline
 70
8
 71
3
 72
8
 73
4
 74
0
 40
0
 40
0
 40
0
 40
0
 40
1
 40
1
 40
1
 40
1
 10
3.926974
 20
6.754573
 30
0.0
 10
3.960400
 20
6.762337
 30
0.0
 10
3.986267
 20
6.775652
 30
0.0
 10
4.004577
 20
6.794517
 30
0.0
  0
SPLINE
  5
25b
100
AcDbEntity
  8
Capa_1
 62
7
100
AcDbSpline
 70
8
 71
3
 72
8
 73
4
 74
0
 40
0
 40
0
 40
0
 40
0
 40
1
 40
1
 40
1
 40
1
 10
4.004577
 20
6.794517
 30
0.0
 10
4.022887
 20
6.813383
 30
0.0
 10
4.032042
 20
6.836812
 30
0.0
 10
4.032042
 20
6.864804
 30
0.0
  0
SPLINE
  5
25c
100
AcDbEntity
  8
Capa_1
 62
7
100
AcDbSpline
 70
8
 71
3
 72
8
 73
4
 74
0
 40
0
 40
0
 40
0
 40
0
 40
1
 40
1
 40
1
 40
1
 10
4.032042
 20
6.864804
 30
0.0
 10
4.032042
 20
6.912138
 30
0.0
 10
4.012880
 20
6.951470
 30
0.0
 10
3.974558
 20
6.982800
 30
0.0
  0
SPLINE
  5
25d
100
AcDbEntity
  8
Capa_1
 62
7
100
AcDbSpline
 70
8
 71
3
 72
8
 73
4
 74
0
 40
0
 40
0
 40
0
 40
0
 40
1
 40
1
 40
1
 40
1
 10
3.974558
 20
6.982800
 30
0.0
 10
3.936022
 20
7.014333
 30
0.0
 10
3.886309
 20
7.030100
 30
0.0
 10
3.825418
 20
7.030100
 30
0.0
  0
SPLINE
  5
25e
100
AcDbEntity
  8
Capa_1
 62
7
100
AcDbSpline
 70
8
 71
3
 72
8
 73
4
 74
0
 40
0
 40
0
 40
0
 40
0
 40
1
 40
1
 40
1
 40
1
 10
3.825418
 20
7.030100
 30
0.0
 10
3.792205
 20
7.030100
 30
0.0
 10
3.762079
 20
7.026422
 30
0.0
 10
3.735040
 20
7.019067
 30
0.0
  0
SPLINE
  5
25f
100
AcDbEntity
  8
Capa_1
 62
7
100
AcDbSpline
 70
8
 71
3
 72
8
 73
4
 74
0
 40
0
 40
0
 40
0
 40
0
 40
1
 40
1
 40
1
 40
1
 10
3.735040
 20
7.019067
 30
0.0
 10
3.707788
 20
7.011983
 30
0.0
 10
3.684369
 20
7.003538
 30
0.0
 10
3.664782
 20
6.993731
 30
0.0
  0
LWPOLYLINE
  5
260
100
AcDbEntity
  8
Capa_1
 62
7
100
AcDbPolyline
 90
3
 70
0
 10
4.093997
 20
6.557198
 30
0.0
 10
4.078669
 20
6.632899
 30
0.0
 10
4.074195
 20
6.632899
 30
0.0
  0
SPLINE
  5
261
100
AcDbEntity
  8
Capa_1
 62
7
100
AcDbSpline
 70
8
 71
3
 72
8
 73
4
 74
0
 40
0
 40
0
 40
0
 40
0
 40
1
 40
1
 40
1
 40
1
 10
3.683627
 20
6.922729
 30
0.0
 10
3.698743
 20
6.937168
 30
0.0
 10
3.720353
 20
6.949597
 30
0.0
 10
3.748456
 20
6.960018
 30
0.0
  0
SPLINE
  5
262
100
AcDbEntity
  8
Capa_1
 62
7
100
AcDbSpline
 70
8
 71
3
 72
8
 73
4
 74
0
 40
0
 40
0
 40
0
 40
0
 40
1
 40
1
 40
1
 40
1
 10
3.748456
 20
6.960018
 30
0.0
 10
3.776346
 20
6.970438
 30
0.0
 10
3.805727
 20
6.975648
 30
0.0
 10
3.836599
 20
6.975648
 30
0.0
  0
SPLINE
  5
263
100
AcDbEntity
  8
Capa_1
 62
7
100
AcDbSpline
 70
8
 71
3
 72
8
 73
4
 74
0
 40
0
 40
0
 40
0
 40
0
 40
1
 40
1
 40
1
 40
1
 10
3.836599
 20
6.975648
 30
0.0
 10
3.875348
 20
6.975648
 30
0.0
 10
3.906325
 20
6.966760
 30
0.0
 10
3.929531
 20
6.948984
 30
0.0
  0
SPLINE
  5
264
100
AcDbEntity
  8
Capa_1
 62
7
100
AcDbSpline
 70
8
 71
3
 72
8
 73
4
 74
0
 40
0
 40
0
 40
0
 40
0
 40
1
 40
1
 40
1
 40
1
 10
3.929531
 20
6.948984
 30
0.0
 10
3.952525
 20
6.931208
 30
0.0
 10
3.964022
 20
6.908665
 30
0.0
 10
3.964022
 20
6.881354
 30
0.0
  0
SPLINE
  5
265
100
AcDbEntity
  8
Capa_1
 62
7
100
AcDbSpline
 70
8
 71
3
 72
8
 73
4
 74
0
 40
0
 40
0
 40
0
 40
0
 40
1
 40
1
 40
1
 40
1
 10
3.964022
 20
6.881354
 30
0.0
 10
3.964022
 20
6.866711
 30
0.0
 10
3.959870
 20
6.853839
 30
0.0
 10
3.951567
 20
6.842737
 30
0.0
  0
SPLINE
  5
266
100
AcDbEntity
  8
Capa_1
 62
7
100
AcDbSpline
 70
8
 71
3
 72
8
 73
4
 74
0
 40
0
 40
0
 40
0
 40
0
 40
1
 40
1
 40
1
 40
1
 10
3.951567
 20
6.842737
 30
0.0
 10
3.943264
 20
6.831636
 30
0.0
 10
3.928467
 20
6.823293
 30
0.0
 10
3.907176
 20
6.817708
 30
0.0
  0
SPLINE
  5
267
100
AcDbEntity
  8
Capa_1
 62
7
100
AcDbSpline
 70
8
 71
3
 72
8
 73
4
 74
0
 40
0
 40
0
 40
0
 40
0
 40
1
 40
1
 40
1
 40
1
 10
3.907176
 20
6.817708
 30
0.0
 10
3.893550
 20
6.814303
 30
0.0
 10
3.875453
 20
6.810182
 30
0.0
 10
3.852885
 20
6.805347
 30
0.0
  0
SPLINE
  5
268
100
AcDbEntity
  8
Capa_1
 62
7
100
AcDbSpline
 70
8
 71
3
 72
8
 73
4
 74
0
 40
0
 40
0
 40
0
 40
0
 40
1
 40
1
 40
1
 40
1
 10
3.852885
 20
6.805347
 30
0.0
 10
3.830317
 20
6.800579
 30
0.0
 10
3.811369
 20
6.796118
 30
0.0
 10
3.796039
 20
6.791963
 30
0.0
  0
SPLINE
  5
269
100
AcDbEntity
  8
Capa_1
 62
7
100
AcDbSpline
 70
8
 71
3
 72
8
 73
4
 74
0
 40
0
 40
0
 40
0
 40
0
 40
1
 40
1
 40
1
 40
1
 10
3.796039
 20
6.791963
 30
0.0
 10
3.765807
 20
6.783314
 30
0.0
 10
3.742920
 20
6.770442
 30
0.0
 10
3.727378
 20
6.753347
 30
0.0
  0
SPLINE
  5
26a
100
AcDbEntity
  8
Capa_1
 62
7
100
AcDbSpline
 70
8
 71
3
 72
8
 73
4
 74
0
 40
0
 40
0
 40
0
 40
0
 40
1
 40
1
 40
1
 40
1
 10
3.727378
 20
6.753347
 30
0.0
 10
3.711623
 20
6.736252
 30
0.0
 10
3.703745
 20
6.714696
 30
0.0
 10
3.703745
 20
6.688679
 30
0.0
  0
SPLINE
  5
26b
100
AcDbEntity
  8
Capa_1
 62
7
100
AcDbSpline
 70
8
 71
3
 72
8
 73
4
 74
0
 40
0
 40
0
 40
0
 40
0
 40
1
 40
1
 40
1
 40
1
 10
3.703745
 20
6.688679
 30
0.0
 10
3.703745
 20
6.666885
 30
0.0
 10
3.708855
 20
6.645227
 30
0.0
 10
3.719074
 20
6.623705
 30
0.0
  0
SPLINE
  5
26c
100
AcDbEntity
  8
Capa_1
 62
7
100
AcDbSpline
 70
8
 71
3
 72
8
 73
4
 74
0
 40
0
 40
0
 40
0
 40
0
 40
1
 40
1
 40
1
 40
1
 10
3.719074
 20
6.623705
 30
0.0
 10
3.729293
 20
6.602115
 30
0.0
 10
3.743558
 20
6.583658
 30
0.0
 10
3.761868
 20
6.568334
 30
0.0
  0
SPLINE
  5
26d
100
AcDbEntity
  8
Capa_1
 62
7
100
AcDbSpline
 70
8
 71
3
 72
8
 73
4
 74
0
 40
0
 40
0
 40
0
 40
0
 40
1
 40
1
 40
1
 40
1
 10
3.761868
 20
6.568334
 30
0.0
 10
3.781455
 20
6.551920
 30
0.0
 10
3.804449
 20
6.539048
 30
0.0
 10
3.830848
 20
6.529717
 30
0.0
  0
SPLINE
  5
26e
100
AcDbEntity
  8
Capa_1
 62
7
100
AcDbSpline
 70
8
 71
3
 72
8
 73
4
 74
0
 40
0
 40
0
 40
0
 40
0
 40
1
 40
1
 40
1
 40
1
 10
3.830848
 20
6.529717
 30
0.0
 10
3.857035
 20
6.520386
 30
0.0
 10
3.888012
 20
6.515721
 30
0.0
 10
3.923780
 20
6.515721
 30
0.0
  0
LWPOLYLINE
  5
26f
100
AcDbEntity
  8
Capa_1
 62
7
100
AcDbPolyline
 90
3
 70
0
 10
3.664782
 20
6.993731
 30
0.0
 10
3.679154
 20
6.922729
 30
0.0
 10
3.683627
 20
6.922729
 30
0.0
  0
SPLINE
  5
270
100
AcDbEntity
  8
Capa_1
 62
7
100
AcDbSpline
 70
8
 71
3
 72
8
 73
4
 74
0
 40
0
 40
0
 40
0
 40
0
 40
1
 40
1
 40
1
 40
1
 10
3.164352
 20
6.845261
 30
0.0
 10
3.164352
 20
6.802149
 30
0.0
 10
3.170633
 20
6.760597
 30
0.0
 10
3.183194
 20
6.720604
 30
0.0
  0
SPLINE
  5
271
100
AcDbEntity
  8
Capa_1
 62
7
100
AcDbSpline
 70
8
 71
3
 72
8
 73
4
 74
0
 40
0
 40
0
 40
0
 40
0
 40
1
 40
1
 40
1
 40
1
 10
3.183194
 20
6.720604
 30
0.0
 10
3.195542
 20
6.680625
 30
0.0
 10
3.213533
 20
6.645404
 30
0.0
 10
3.237165
 20
6.614940
 30
0.0
  0
SPLINE
  5
272
100
AcDbEntity
  8
Capa_1
 62
7
100
AcDbSpline
 70
8
 71
3
 72
8
 73
4
 74
0
 40
0
 40
0
 40
0
 40
0
 40
1
 40
1
 40
1
 40
1
 10
3.237165
 20
6.614940
 30
0.0
 10
3.261436
 20
6.583610
 30
0.0
 10
3.290604
 20
6.558955
 30
0.0
 10
3.324668
 20
6.540975
 30
0.0
  0
SPLINE
  5
273
100
AcDbEntity
  8
Capa_1
 62
7
100
AcDbSpline
 70
8
 71
3
 72
8
 73
4
 74
0
 40
0
 40
0
 40
0
 40
0
 40
1
 40
1
 40
1
 40
1
 10
3.324668
 20
6.540975
 30
0.0
 10
3.358733
 20
6.523199
 30
0.0
 10
3.397162
 20
6.514311
 30
0.0
 10
3.439956
 20
6.514311
 30
0.0
  0
SPLINE
  5
274
100
AcDbEntity
  8
Capa_1
 62
7
100
AcDbSpline
 70
8
 71
3
 72
8
 73
4
 74
0
 40
0
 40
0
 40
0
 40
0
 40
1
 40
1
 40
1
 40
1
 10
3.439956
 20
6.514311
 30
0.0
 10
3.496588
 20
6.514311
 30
0.0
 10
3.540872
 20
6.530419
 30
0.0
 10
3.572808
 20
6.562633
 30
0.0
  0
SPLINE
  5
275
100
AcDbEntity
  8
Capa_1
 62
7
100
AcDbSpline
 70
8
 71
3
 72
8
 73
4
 74
0
 40
0
 40
0
 40
0
 40
0
 40
1
 40
1
 40
1
 40
1
 10
3.572808
 20
6.562633
 30
0.0
 10
3.604743
 20
6.595052
 30
0.0
 10
3.620711
 20
6.641048
 30
0.0
 10
3.620711
 20
6.700622
 30
0.0
  0
SPLINE
  5
276
100
AcDbEntity
  8
Capa_1
 62
7
100
AcDbSpline
 70
8
 71
3
 72
8
 73
4
 74
0
 40
0
 40
0
 40
0
 40
0
 40
1
 40
1
 40
1
 40
1
 10
3.620711
 20
6.700622
 30
0.0
 10
3.620711
 20
6.745981
 30
0.0
 10
3.614324
 20
6.788313
 30
0.0
 10
3.601550
 20
6.827618
 30
0.0
  0
SPLINE
  5
277
100
AcDbEntity
  8
Capa_1
 62
7
100
AcDbSpline
 70
8
 71
3
 72
8
 73
4
 74
0
 40
0
 40
0
 40
0
 40
0
 40
1
 40
1
 40
1
 40
1
 10
3.601550
 20
6.827618
 30
0.0
 10
3.588776
 20
6.866915
 30
0.0
 10
3.570360
 20
6.902021
 30
0.0
 10
3.546301
 20
6.932935
 30
0.0
  0
SPLINE
  5
278
100
AcDbEntity
  8
Capa_1
 62
7
100
AcDbSpline
 70
8
 71
3
 72
8
 73
4
 74
0
 40
0
 40
0
 40
0
 40
0
 40
1
 40
1
 40
1
 40
1
 10
3.546301
 20
6.932935
 30
0.0
 10
3.522882
 20
6.962698
 30
0.0
 10
3.493927
 20
6.986467
 30
0.0
 10
3.459436
 20
7.004243
 30
0.0
  0
SPLINE
  5
279
100
AcDbEntity
  8
Capa_1
 62
7
100
AcDbSpline
 70
8
 71
3
 72
8
 73
4
 74
0
 40
0
 40
0
 40
0
 40
0
 40
1
 40
1
 40
1
 40
1
 10
3.459436
 20
7.004243
 30
0.0
 10
3.424733
 20
7.022223
 30
0.0
 10
3.386729
 20
7.031213
 30
0.0
 10
3.345426
 20
7.031213
 30
0.0
  0
SPLINE
  5
27a
100
AcDbEntity
  8
Capa_1
 62
7
100
AcDbSpline
 70
8
 71
3
 72
8
 73
4
 74
0
 40
0
 40
0
 40
0
 40
0
 40
1
 40
1
 40
1
 40
1
 10
3.345426
 20
7.031213
 30
0.0
 10
3.289007
 20
7.031213
 30
0.0
 10
3.244723
 20
7.015106
 30
0.0
 10
3.212574
 20
6.982891
 30
0.0
  0
SPLINE
  5
27b
100
AcDbEntity
  8
Capa_1
 62
7
100
AcDbSpline
 70
8
 71
3
 72
8
 73
4
 74
0
 40
0
 40
0
 40
0
 40
0
 40
1
 40
1
 40
1
 40
1
 10
3.212574
 20
6.982891
 30
0.0
 10
3.180426
 20
6.950881
 30
0.0
 10
3.164351
 20
6.904997
 30
0.0
 10
3.164351
 20
6.845240
 30
0.0
  0
LWPOLYLINE
  5
27c
100
AcDbEntity
  8
Capa_1
 62
7
100
AcDbPolyline
 90
2
 70
0
 10
3.923780
 20
6.515721
 30
0.0
 10
3.923780
 20
6.515619
 30
0.0
  0
SPLINE
  5
27d
100
AcDbEntity
  8
Capa_1
 62
7
100
AcDbSpline
 70
8
 71
3
 72
8
 73
4
 74
0
 40
0
 40
0
 40
0
 40
0
 40
1
 40
1
 40
1
 40
1
 10
3.285388
 20
6.647937
 30
0.0
 10
3.267504
 20
6.673273
 30
0.0
 10
3.253985
 20
6.701504
 30
0.0
 10
3.244829
 20
6.732629
 30
0.0
  0
SPLINE
  5
27e
100
AcDbEntity
  8
Capa_1
 62
7
100
AcDbSpline
 70
8
 71
3
 72
8
 73
4
 74
0
 40
0
 40
0
 40
0
 40
0
 40
1
 40
1
 40
1
 40
1
 10
3.244829
 20
6.732629
 30
0.0
 10
3.235674
 20
6.763958
 30
0.0
 10
3.231097
 20
6.798400
 30
0.0
 10
3.231097
 20
6.835954
 30
0.0
  0
SPLINE
  5
27f
100
AcDbEntity
  8
Capa_1
 62
7
100
AcDbSpline
 70
8
 71
3
 72
8
 73
4
 74
0
 40
0
 40
0
 40
0
 40
0
 40
1
 40
1
 40
1
 40
1
 10
3.231097
 20
6.835954
 30
0.0
 10
3.231097
 20
6.881313
 30
0.0
 10
3.242061
 20
6.916089
 30
0.0
 10
3.263990
 20
6.940280
 30
0.0
  0
SPLINE
  5
280
100
AcDbEntity
  8
Capa_1
 62
7
100
AcDbSpline
 70
8
 71
3
 72
8
 73
4
 74
0
 40
0
 40
0
 40
0
 40
0
 40
1
 40
1
 40
1
 40
1
 10
3.263990
 20
6.940280
 30
0.0
 10
3.285706
 20
6.964731
 30
0.0
 10
3.316152
 20
6.976956
 30
0.0
 10
3.355326
 20
6.976956
 30
0.0
  0
SPLINE
  5
281
100
AcDbEntity
  8
Capa_1
 62
7
100
AcDbSpline
 70
8
 71
3
 72
8
 73
4
 74
0
 40
0
 40
0
 40
0
 40
0
 40
1
 40
1
 40
1
 40
1
 10
3.355326
 20
6.976956
 30
0.0
 10
3.385771
 20
6.976956
 30
0.0
 10
3.413236
 20
6.969634
 30
0.0
 10
3.437720
 20
6.954991
 30
0.0
  0
SPLINE
  5
282
100
AcDbEntity
  8
Capa_1
 62
7
100
AcDbSpline
 70
8
 71
3
 72
8
 73
4
 74
0
 40
0
 40
0
 40
0
 40
0
 40
1
 40
1
 40
1
 40
1
 10
3.437720
 20
6.954991
 30
0.0
 10
3.462203
 20
6.940553
 30
0.0
 10
3.483281
 20
6.920904
 30
0.0
 10
3.500952
 20
6.896045
 30
0.0
  0
SPLINE
  5
283
100
AcDbEntity
  8
Capa_1
 62
7
100
AcDbSpline
 70
8
 71
3
 72
8
 73
4
 74
0
 40
0
 40
0
 40
0
 40
0
 40
1
 40
1
 40
1
 40
1
 10
3.500952
 20
6.896045
 30
0.0
 10
3.517985
 20
6.871594
 30
0.0
 10
3.531078
 20
6.843160
 30
0.0
 10
3.540233
 20
6.810741
 30
0.0
  0
SPLINE
  5
284
100
AcDbEntity
  8
Capa_1
 62
7
100
AcDbSpline
 70
8
 71
3
 72
8
 73
4
 74
0
 40
0
 40
0
 40
0
 40
0
 40
1
 40
1
 40
1
 40
1
 10
3.540233
 20
6.810741
 30
0.0
 10
3.549387
 20
6.778526
 30
0.0
 10
3.553965
 20
6.745290
 30
0.0
 10
3.553965
 20
6.711032
 30
0.0
  0
SPLINE
  5
285
100
AcDbEntity
  8
Capa_1
 62
7
100
AcDbSpline
 70
8
 71
3
 72
8
 73
4
 74
0
 40
0
 40
0
 40
0
 40
0
 40
1
 40
1
 40
1
 40
1
 10
3.553965
 20
6.711032
 30
0.0
 10
3.553965
 20
6.665264
 30
0.0
 10
3.543107
 20
6.630042
 30
0.0
 10
3.521391
 20
6.605367
 30
0.0
  0
SPLINE
  5
286
100
AcDbEntity
  8
Capa_1
 62
7
100
AcDbSpline
 70
8
 71
3
 72
8
 73
4
 74
0
 40
0
 40
0
 40
0
 40
0
 40
1
 40
1
 40
1
 40
1
 10
3.521391
 20
6.605367
 30
0.0
 10
3.499462
 20
6.580917
 30
0.0
 10
3.468804
 20
6.568691
 30
0.0
 10
3.429416
 20
6.568691
 30
0.0
  0
SPLINE
  5
287
100
AcDbEntity
  8
Capa_1
 62
7
100
AcDbSpline
 70
8
 71
3
 72
8
 73
4
 74
0
 40
0
 40
0
 40
0
 40
0
 40
1
 40
1
 40
1
 40
1
 10
3.429416
 20
6.568691
 30
0.0
 10
3.399397
 20
6.568691
 30
0.0
 10
3.372145
 20
6.575911
 30
0.0
 10
3.347660
 20
6.590349
 30
0.0
  0
SPLINE
  5
288
100
AcDbEntity
  8
Capa_1
 62
7
100
AcDbSpline
 70
8
 71
3
 72
8
 73
4
 74
0
 40
0
 40
0
 40
0
 40
0
 40
1
 40
1
 40
1
 40
1
 10
3.347660
 20
6.590349
 30
0.0
 10
3.322963
 20
6.604788
 30
0.0
 10
3.302205
 20
6.623994
 30
0.0
 10
3.285386
 20
6.647968
 30
0.0
  0
LWPOLYLINE
  5
289
100
AcDbEntity
  8
Capa_1
 62
7
100
AcDbPolyline
 90
1
 70
1
 10
3.164351
 20
6.845240
 30
0.0
  0
SPLINE
  5
28a
100
AcDbEntity
  8
Capa_1
 62
7
100
AcDbSpline
 70
8
 71
3
 72
8
 73
4
 74
0
 40
0
 40
0
 40
0
 40
0
 40
1
 40
1
 40
1
 40
1
 10
4.535666
 20
4.809097
 30
0.0
 10
4.566537
 20
4.809097
 30
0.0
 10
4.595918
 20
4.812502
 30
0.0
 10
4.623808
 20
4.819313
 30
0.0
  0
SPLINE
  5
28b
100
AcDbEntity
  8
Capa_1
 62
7
100
AcDbSpline
 70
8
 71
3
 72
8
 73
4
 74
0
 40
0
 40
0
 40
0
 40
0
 40
1
 40
1
 40
1
 40
1
 10
4.623808
 20
4.819313
 30
0.0
 10
4.651699
 20
4.826192
 30
0.0
 10
4.679057
 20
4.836646
 30
0.0
 10
4.705883
 20
4.850676
 30
0.0
  0
LWPOLYLINE
  5
28c
100
AcDbEntity
  8
Capa_1
 62
7
100
AcDbPolyline
 90
1
 70
1
 10
3.285386
 20
6.647968
 30
0.0
  0
SPLINE
  5
28d
100
AcDbEntity
  8
Capa_1
 62
7
100
AcDbSpline
 70
8
 71
3
 72
8
 73
4
 74
0
 40
0
 40
0
 40
0
 40
0
 40
1
 40
1
 40
1
 40
1
 10
4.686081
 20
4.926377
 30
0.0
 10
4.665642
 20
4.906150
 30
0.0
 10
4.640626
 20
4.890587
 30
0.0
 10
4.611032
 20
4.879690
 30
0.0
  0
SPLINE
  5
28e
100
AcDbEntity
  8
Capa_1
 62
7
100
AcDbSpline
 70
8
 71
3
 72
8
 73
4
 74
0
 40
0
 40
0
 40
0
 40
0
 40
1
 40
1
 40
1
 40
1
 10
4.611032
 20
4.879690
 30
0.0
 10
4.581226
 20
4.868997
 30
0.0
 10
4.552484
 20
4.863651
 30
0.0
 10
4.524807
 20
4.863651
 30
0.0
  0
SPLINE
  5
28f
100
AcDbEntity
  8
Capa_1
 62
7
100
AcDbSpline
 70
8
 71
3
 72
8
 73
4
 74
0
 40
0
 40
0
 40
0
 40
0
 40
1
 40
1
 40
1
 40
1
 10
4.524807
 20
4.863651
 30
0.0
 10
4.479458
 20
4.863651
 30
0.0
 10
4.444755
 20
4.872981
 30
0.0
 10
4.420697
 20
4.891643
 30
0.0
  0
SPLINE
  5
290
100
AcDbEntity
  8
Capa_1
 62
7
100
AcDbSpline
 70
8
 71
3
 72
8
 73
4
 74
0
 40
0
 40
0
 40
0
 40
0
 40
1
 40
1
 40
1
 40
1
 10
4.420697
 20
4.891643
 30
0.0
 10
4.396426
 20
4.910508
 30
0.0
 10
4.384290
 20
4.934516
 30
0.0
 10
4.384290
 20
4.963666
 30
0.0
  0
SPLINE
  5
291
100
AcDbEntity
  8
Capa_1
 62
7
100
AcDbSpline
 70
8
 71
3
 72
8
 73
4
 74
0
 40
0
 40
0
 40
0
 40
0
 40
1
 40
1
 40
1
 40
1
 10
4.384290
 20
4.963666
 30
0.0
 10
4.384290
 20
4.978990
 30
0.0
 10
4.388655
 20
4.991760
 30
0.0
 10
4.397384
 20
5.001976
 30
0.0
  0
SPLINE
  5
292
100
AcDbEntity
  8
Capa_1
 62
7
100
AcDbSpline
 70
8
 71
3
 72
8
 73
4
 74
0
 40
0
 40
0
 40
0
 40
0
 40
1
 40
1
 40
1
 40
1
 10
4.397384
 20
5.001976
 30
0.0
 10
4.405900
 20
5.012192
 30
0.0
 10
4.418462
 20
5.019752
 30
0.0
 10
4.435068
 20
5.024656
 30
0.0
  0
SPLINE
  5
293
100
AcDbEntity
  8
Capa_1
 62
7
100
AcDbSpline
 70
8
 71
3
 72
8
 73
4
 74
0
 40
0
 40
0
 40
0
 40
0
 40
1
 40
1
 40
1
 40
1
 10
4.435068
 20
5.024656
 30
0.0
 10
4.448907
 20
5.028742
 30
0.0
 10
4.465407
 20
5.032522
 30
0.0
 10
4.484569
 20
5.035996
 30
0.0
  0
SPLINE
  5
294
100
AcDbEntity
  8
Capa_1
 62
7
100
AcDbSpline
 70
8
 71
3
 72
8
 73
4
 74
0
 40
0
 40
0
 40
0
 40
0
 40
1
 40
1
 40
1
 40
1
 10
4.484569
 20
5.035996
 30
0.0
 10
4.503517
 20
5.040082
 30
0.0
 10
4.521614
 20
5.044100
 30
0.0
 10
4.538859
 20
5.048051
 30
0.0
  0
SPLINE
  5
295
100
AcDbEntity
  8
Capa_1
 62
7
100
AcDbSpline
 70
8
 71
3
 72
8
 73
4
 74
0
 40
0
 40
0
 40
0
 40
0
 40
1
 40
1
 40
1
 40
1
 10
4.538859
 20
5.048051
 30
0.0
 10
4.572285
 20
5.055815
 30
0.0
 10
4.598153
 20
5.069164
 30
0.0
 10
4.616463
 20
5.088098
 30
0.0
  0
SPLINE
  5
296
100
AcDbEntity
  8
Capa_1
 62
7
100
AcDbSpline
 70
8
 71
3
 72
8
 73
4
 74
0
 40
0
 40
0
 40
0
 40
0
 40
1
 40
1
 40
1
 40
1
 10
4.616463
 20
5.088098
 30
0.0
 10
4.634772
 20
5.106963
 30
0.0
 10
4.643927
 20
5.130392
 30
0.0
 10
4.643927
 20
5.158384
 30
0.0
  0
SPLINE
  5
297
100
AcDbEntity
  8
Capa_1
 62
7
100
AcDbSpline
 70
8
 71
3
 72
8
 73
4
 74
0
 40
0
 40
0
 40
0
 40
0
 40
1
 40
1
 40
1
 40
1
 10
4.643927
 20
5.158384
 30
0.0
 10
4.643927
 20
5.205719
 30
0.0
 10
4.624766
 20
5.245047
 30
0.0
 10
4.586443
 20
5.276370
 30
0.0
  0
SPLINE
  5
298
100
AcDbEntity
  8
Capa_1
 62
7
100
AcDbSpline
 70
8
 71
3
 72
8
 73
4
 74
0
 40
0
 40
0
 40
0
 40
0
 40
1
 40
1
 40
1
 40
1
 10
4.586443
 20
5.276370
 30
0.0
 10
4.547908
 20
5.307903
 30
0.0
 10
4.498195
 20
5.323670
 30
0.0
 10
4.437304
 20
5.323670
 30
0.0
  0
SPLINE
  5
299
100
AcDbEntity
  8
Capa_1
 62
7
100
AcDbSpline
 70
8
 71
3
 72
8
 73
4
 74
0
 40
0
 40
0
 40
0
 40
0
 40
1
 40
1
 40
1
 40
1
 10
4.437304
 20
5.323670
 30
0.0
 10
4.404091
 20
5.323670
 30
0.0
 10
4.373965
 20
5.319992
 30
0.0
 10
4.346927
 20
5.312637
 30
0.0
  0
SPLINE
  5
29a
100
AcDbEntity
  8
Capa_1
 62
7
100
AcDbSpline
 70
8
 71
3
 72
8
 73
4
 74
0
 40
0
 40
0
 40
0
 40
0
 40
1
 40
1
 40
1
 40
1
 10
4.346927
 20
5.312637
 30
0.0
 10
4.319675
 20
5.305553
 30
0.0
 10
4.296256
 20
5.297108
 30
0.0
 10
4.276669
 20
5.287301
 30
0.0
  0
LWPOLYLINE
  5
29b
100
AcDbEntity
  8
Capa_1
 62
7
100
AcDbPolyline
 90
3
 70
0
 10
4.705883
 20
4.850676
 30
0.0
 10
4.690554
 20
4.926377
 30
0.0
 10
4.686081
 20
4.926377
 30
0.0
  0
SPLINE
  5
29c
100
AcDbEntity
  8
Capa_1
 62
7
100
AcDbSpline
 70
8
 71
3
 72
8
 73
4
 74
0
 40
0
 40
0
 40
0
 40
0
 40
1
 40
1
 40
1
 40
1
 10
4.295514
 20
5.216299
 30
0.0
 10
4.310630
 20
5.230738
 30
0.0
 10
4.332240
 20
5.243167
 30
0.0
 10
4.360343
 20
5.253588
 30
0.0
  0
SPLINE
  5
29d
100
AcDbEntity
  8
Capa_1
 62
7
100
AcDbSpline
 70
8
 71
3
 72
8
 73
4
 74
0
 40
0
 40
0
 40
0
 40
0
 40
1
 40
1
 40
1
 40
1
 10
4.360343
 20
5.253588
 30
0.0
 10
4.388233
 20
5.264008
 30
0.0
 10
4.417614
 20
5.269218
 30
0.0
 10
4.448486
 20
5.269218
 30
0.0
  0
SPLINE
  5
29e
100
AcDbEntity
  8
Capa_1
 62
7
100
AcDbSpline
 70
8
 71
3
 72
8
 73
4
 74
0
 40
0
 40
0
 40
0
 40
0
 40
1
 40
1
 40
1
 40
1
 10
4.448486
 20
5.269218
 30
0.0
 10
4.487234
 20
5.269218
 30
0.0
 10
4.518212
 20
5.260330
 30
0.0
 10
4.541418
 20
5.242554
 30
0.0
  0
SPLINE
  5
29f
100
AcDbEntity
  8
Capa_1
 62
7
100
AcDbSpline
 70
8
 71
3
 72
8
 73
4
 74
0
 40
0
 40
0
 40
0
 40
0
 40
1
 40
1
 40
1
 40
1
 10
4.541418
 20
5.242554
 30
0.0
 10
4.564412
 20
5.224778
 30
0.0
 10
4.575908
 20
5.202235
 30
0.0
 10
4.575908
 20
5.174924
 30
0.0
  0
SPLINE
  5
2a0
100
AcDbEntity
  8
Capa_1
 62
7
100
AcDbSpline
 70
8
 71
3
 72
8
 73
4
 74
0
 40
0
 40
0
 40
0
 40
0
 40
1
 40
1
 40
1
 40
1
 10
4.575908
 20
5.174924
 30
0.0
 10
4.575908
 20
5.160281
 30
0.0
 10
4.571757
 20
5.147409
 30
0.0
 10
4.563454
 20
5.136307
 30
0.0
  0
SPLINE
  5
2a1
100
AcDbEntity
  8
Capa_1
 62
7
100
AcDbSpline
 70
8
 71
3
 72
8
 73
4
 74
0
 40
0
 40
0
 40
0
 40
0
 40
1
 40
1
 40
1
 40
1
 10
4.563454
 20
5.136307
 30
0.0
 10
4.555150
 20
5.125206
 30
0.0
 10
4.540353
 20
5.116863
 30
0.0
 10
4.519063
 20
5.111278
 30
0.0
  0
SPLINE
  5
2a2
100
AcDbEntity
  8
Capa_1
 62
7
100
AcDbSpline
 70
8
 71
3
 72
8
 73
4
 74
0
 40
0
 40
0
 40
0
 40
0
 40
1
 40
1
 40
1
 40
1
 10
4.519063
 20
5.111278
 30
0.0
 10
4.505437
 20
5.107873
 30
0.0
 10
4.487340
 20
5.103752
 30
0.0
 10
4.464772
 20
5.098916
 30
0.0
  0
SPLINE
  5
2a3
100
AcDbEntity
  8
Capa_1
 62
7
100
AcDbSpline
 70
8
 71
3
 72
8
 73
4
 74
0
 40
0
 40
0
 40
0
 40
0
 40
1
 40
1
 40
1
 40
1
 10
4.464772
 20
5.098916
 30
0.0
 10
4.442204
 20
5.094149
 30
0.0
 10
4.423255
 20
5.089688
 30
0.0
 10
4.407926
 20
5.085533
 30
0.0
  0
SPLINE
  5
2a4
100
AcDbEntity
  8
Capa_1
 62
7
100
AcDbSpline
 70
8
 71
3
 72
8
 73
4
 74
0
 40
0
 40
0
 40
0
 40
0
 40
1
 40
1
 40
1
 40
1
 10
4.407926
 20
5.085533
 30
0.0
 10
4.377694
 20
5.076884
 30
0.0
 10
4.354807
 20
5.064012
 30
0.0
 10
4.339265
 20
5.046917
 30
0.0
  0
SPLINE
  5
2a5
100
AcDbEntity
  8
Capa_1
 62
7
100
AcDbSpline
 70
8
 71
3
 72
8
 73
4
 74
0
 40
0
 40
0
 40
0
 40
0
 40
1
 40
1
 40
1
 40
1
 10
4.339265
 20
5.046917
 30
0.0
 10
4.323510
 20
5.029822
 30
0.0
 10
4.315632
 20
5.008266
 30
0.0
 10
4.315632
 20
4.982249
 30
0.0
  0
SPLINE
  5
2a6
100
AcDbEntity
  8
Capa_1
 62
7
100
AcDbSpline
 70
8
 71
3
 72
8
 73
4
 74
0
 40
0
 40
0
 40
0
 40
0
 40
1
 40
1
 40
1
 40
1
 10
4.315632
 20
4.982249
 30
0.0
 10
4.315632
 20
4.960455
 30
0.0
 10
4.320742
 20
4.938797
 30
0.0
 10
4.330961
 20
4.917275
 30
0.0
  0
SPLINE
  5
2a7
100
AcDbEntity
  8
Capa_1
 62
7
100
AcDbSpline
 70
8
 71
3
 72
8
 73
4
 74
0
 40
0
 40
0
 40
0
 40
0
 40
1
 40
1
 40
1
 40
1
 10
4.330961
 20
4.917275
 30
0.0
 10
4.341180
 20
4.895753
 30
0.0
 10
4.355445
 20
4.877296
 30
0.0
 10
4.373754
 20
4.861904
 30
0.0
  0
SPLINE
  5
2a8
100
AcDbEntity
  8
Capa_1
 62
7
100
AcDbSpline
 70
8
 71
3
 72
8
 73
4
 74
0
 40
0
 40
0
 40
0
 40
0
 40
1
 40
1
 40
1
 40
1
 10
4.373754
 20
4.861904
 30
0.0
 10
4.393342
 20
4.845490
 30
0.0
 10
4.416335
 20
4.832618
 30
0.0
 10
4.442735
 20
4.823287
 30
0.0
  0
SPLINE
  5
2a9
100
AcDbEntity
  8
Capa_1
 62
7
100
AcDbSpline
 70
8
 71
3
 72
8
 73
4
 74
0
 40
0
 40
0
 40
0
 40
0
 40
1
 40
1
 40
1
 40
1
 10
4.442735
 20
4.823287
 30
0.0
 10
4.468922
 20
4.813956
 30
0.0
 10
4.499899
 20
4.809291
 30
0.0
 10
4.535667
 20
4.809291
 30
0.0
  0
LWPOLYLINE
  5
2aa
100
AcDbEntity
  8
Capa_1
 62
7
100
AcDbPolyline
 90
3
 70
0
 10
4.276669
 20
5.287301
 30
0.0
 10
4.291040
 20
5.216299
 30
0.0
 10
4.295514
 20
5.216299
 30
0.0
  0
SPLINE
  5
2ab
100
AcDbEntity
  8
Capa_1
 62
7
100
AcDbSpline
 70
8
 71
3
 72
8
 73
4
 74
0
 40
0
 40
0
 40
0
 40
0
 40
1
 40
1
 40
1
 40
1
 10
4.039706
 20
4.809097
 30
0.0
 10
4.099958
 20
4.809097
 30
0.0
 10
4.147223
 20
4.825306
 30
0.0
 10
4.181500
 20
4.857725
 30
0.0
  0
SPLINE
  5
2ac
100
AcDbEntity
  8
Capa_1
 62
7
100
AcDbSpline
 70
8
 71
3
 72
8
 73
4
 74
0
 40
0
 40
0
 40
0
 40
0
 40
1
 40
1
 40
1
 40
1
 10
4.181500
 20
4.857725
 30
0.0
 10
4.215778
 20
4.890417
 30
0.0
 10
4.232916
 20
4.936638
 30
0.0
 10
4.232916
 20
4.996388
 30
0.0
  0
SPLINE
  5
2ad
100
AcDbEntity
  8
Capa_1
 62
7
100
AcDbSpline
 70
8
 71
3
 72
8
 73
4
 74
0
 40
0
 40
0
 40
0
 40
0
 40
1
 40
1
 40
1
 40
1
 10
4.232916
 20
4.996388
 30
0.0
 10
4.232916
 20
5.042156
 30
0.0
 10
4.226316
 20
5.084818
 30
0.0
 10
4.213116
 20
5.124375
 30
0.0
  0
SPLINE
  5
2ae
100
AcDbEntity
  8
Capa_1
 62
7
100
AcDbSpline
 70
8
 71
3
 72
8
 73
4
 74
0
 40
0
 40
0
 40
0
 40
0
 40
1
 40
1
 40
1
 40
1
 10
4.213116
 20
5.124375
 30
0.0
 10
4.199916
 20
5.163945
 30
0.0
 10
4.180968
 20
5.198608
 30
0.0
 10
4.156270
 20
5.228364
 30
0.0
  0
SPLINE
  5
2af
100
AcDbEntity
  8
Capa_1
 62
7
100
AcDbSpline
 70
8
 71
3
 72
8
 73
4
 74
0
 40
0
 40
0
 40
0
 40
0
 40
1
 40
1
 40
1
 40
1
 10
4.156270
 20
5.228364
 30
0.0
 10
4.131787
 20
5.257718
 30
0.0
 10
4.101661
 20
5.280841
 30
0.0
 10
4.065893
 20
5.297731
 30
0.0
  0
SPLINE
  5
2b0
100
AcDbEntity
  8
Capa_1
 62
7
100
AcDbSpline
 70
8
 71
3
 72
8
 73
4
 74
0
 40
0
 40
0
 40
0
 40
0
 40
1
 40
1
 40
1
 40
1
 10
4.065893
 20
5.297731
 30
0.0
 10
4.030125
 20
5.314826
 30
0.0
 10
3.990206
 20
5.323374
 30
0.0
 10
3.946135
 20
5.323374
 30
0.0
  0
SPLINE
  5
2b1
100
AcDbEntity
  8
Capa_1
 62
7
100
AcDbSpline
 70
8
 71
3
 72
8
 73
4
 74
0
 40
0
 40
0
 40
0
 40
0
 40
1
 40
1
 40
1
 40
1
 10
3.946135
 20
5.323374
 30
0.0
 10
3.918670
 20
5.323374
 30
0.0
 10
3.892696
 20
5.319832
 30
0.0
 10
3.868212
 20
5.312749
 30
0.0
  0
SPLINE
  5
2b2
100
AcDbEntity
  8
Capa_1
 62
7
100
AcDbSpline
 70
8
 71
3
 72
8
 73
4
 74
0
 40
0
 40
0
 40
0
 40
0
 40
1
 40
1
 40
1
 40
1
 10
3.868212
 20
5.312749
 30
0.0
 10
3.843729
 20
5.305870
 30
0.0
 10
3.818606
 20
5.294871
 30
0.0
 10
3.792845
 20
5.279751
 30
0.0
  0
LWPOLYLINE
  5
2b3
100
AcDbEntity
  8
Capa_1
 62
7
100
AcDbPolyline
 90
2
 70
0
 10
4.535667
 20
4.809291
 30
0.0
 10
4.535666
 20
4.809097
 30
0.0
  0
SPLINE
  5
2b4
100
AcDbEntity
  8
Capa_1
 62
7
100
AcDbSpline
 70
8
 71
3
 72
8
 73
4
 74
0
 40
0
 40
0
 40
0
 40
0
 40
1
 40
1
 40
1
 40
1
 10
3.812003
 20
5.205072
 30
0.0
 10
3.819029
 20
5.212427
 30
0.0
 10
3.826161
 20
5.219204
 30
0.0
 10
3.833400
 20
5.225402
 30
0.0
  0
SPLINE
  5
2b5
100
AcDbEntity
  8
Capa_1
 62
7
100
AcDbSpline
 70
8
 71
3
 72
8
 73
4
 74
0
 40
0
 40
0
 40
0
 40
0
 40
1
 40
1
 40
1
 40
1
 10
3.833400
 20
5.225402
 30
0.0
 10
3.840425
 20
5.231531
 30
0.0
 10
3.851070
 20
5.238546
 30
0.0
 10
3.865336
 20
5.246447
 30
0.0
  0
SPLINE
  5
2b6
100
AcDbEntity
  8
Capa_1
 62
7
100
AcDbSpline
 70
8
 71
3
 72
8
 73
4
 74
0
 40
0
 40
0
 40
0
 40
0
 40
1
 40
1
 40
1
 40
1
 10
3.865336
 20
5.246447
 30
0.0
 10
3.877045
 20
5.252576
 30
0.0
 10
3.890991
 20
5.257923
 30
0.0
 10
3.907172
 20
5.262486
 30
0.0
  0
SPLINE
  5
2b7
100
AcDbEntity
  8
Capa_1
 62
7
100
AcDbSpline
 70
8
 71
3
 72
8
 73
4
 74
0
 40
0
 40
0
 40
0
 40
0
 40
1
 40
1
 40
1
 40
1
 10
3.907172
 20
5.262486
 30
0.0
 10
3.923352
 20
5.267253
 30
0.0
 10
3.941236
 20
5.269637
 30
0.0
 10
3.960823
 20
5.269637
 30
0.0
  0
SPLINE
  5
2b8
100
AcDbEntity
  8
Capa_1
 62
7
100
AcDbSpline
 70
8
 71
3
 72
8
 73
4
 74
0
 40
0
 40
0
 40
0
 40
0
 40
1
 40
1
 40
1
 40
1
 10
3.960823
 20
5.269637
 30
0.0
 10
3.990630
 20
5.269637
 30
0.0
 10
4.017988
 20
5.263099
 30
0.0
 10
4.042898
 20
5.250022
 30
0.0
  0
SPLINE
  5
2b9
100
AcDbEntity
  8
Capa_1
 62
7
100
AcDbSpline
 70
8
 71
3
 72
8
 73
4
 74
0
 40
0
 40
0
 40
0
 40
0
 40
1
 40
1
 40
1
 40
1
 10
4.042898
 20
5.250022
 30
0.0
 10
4.067808
 20
5.237150
 30
0.0
 10
4.089418
 20
5.219034
 30
0.0
 10
4.107727
 20
5.195673
 30
0.0
  0
SPLINE
  5
2ba
100
AcDbEntity
  8
Capa_1
 62
7
100
AcDbSpline
 70
8
 71
3
 72
8
 73
4
 74
0
 40
0
 40
0
 40
0
 40
0
 40
1
 40
1
 40
1
 40
1
 10
4.107727
 20
5.195673
 30
0.0
 10
4.125611
 20
5.172993
 30
0.0
 10
4.139663
 20
5.145444
 30
0.0
 10
4.149882
 20
5.113025
 30
0.0
  0
SPLINE
  5
2bb
100
AcDbEntity
  8
Capa_1
 62
7
100
AcDbSpline
 70
8
 71
3
 72
8
 73
4
 74
0
 40
0
 40
0
 40
0
 40
0
 40
1
 40
1
 40
1
 40
1
 10
4.149882
 20
5.113025
 30
0.0
 10
4.160102
 20
5.080606
 30
0.0
 10
4.165211
 20
5.046055
 30
0.0
 10
4.165211
 20
5.009373
 30
0.0
  0
SPLINE
  5
2bc
100
AcDbEntity
  8
Capa_1
 62
7
100
AcDbSpline
 70
8
 71
3
 72
8
 73
4
 74
0
 40
0
 40
0
 40
0
 40
0
 40
1
 40
1
 40
1
 40
1
 10
4.165211
 20
5.009373
 30
0.0
 10
4.165211
 20
4.963605
 30
0.0
 10
4.153821
 20
4.927940
 30
0.0
 10
4.131041
 20
4.902380
 30
0.0
  0
SPLINE
  5
2bd
100
AcDbEntity
  8
Capa_1
 62
7
100
AcDbSpline
 70
8
 71
3
 72
8
 73
4
 74
0
 40
0
 40
0
 40
0
 40
0
 40
1
 40
1
 40
1
 40
1
 10
4.131041
 20
4.902380
 30
0.0
 10
4.108260
 20
4.877044
 30
0.0
 10
4.075366
 20
4.864376
 30
0.0
 10
4.032360
 20
4.864376
 30
0.0
  0
SPLINE
  5
2be
100
AcDbEntity
  8
Capa_1
 62
7
100
AcDbSpline
 70
8
 71
3
 72
8
 73
4
 74
0
 40
0
 40
0
 40
0
 40
0
 40
1
 40
1
 40
1
 40
1
 10
4.032360
 20
4.864376
 30
0.0
 10
4.012134
 20
4.864376
 30
0.0
 10
3.992973
 20
4.866760
 30
0.0
 10
3.974876
 20
4.871527
 30
0.0
  0
SPLINE
  5
2bf
100
AcDbEntity
  8
Capa_1
 62
7
100
AcDbSpline
 70
8
 71
3
 72
8
 73
4
 74
0
 40
0
 40
0
 40
0
 40
0
 40
1
 40
1
 40
1
 40
1
 10
3.974876
 20
4.871527
 30
0.0
 10
3.956566
 20
4.876295
 30
0.0
 10
3.939959
 20
4.882390
 30
0.0
 10
3.925056
 20
4.889814
 30
0.0
  0
SPLINE
  5
2c0
100
AcDbEntity
  8
Capa_1
 62
7
100
AcDbSpline
 70
8
 71
3
 72
8
 73
4
 74
0
 40
0
 40
0
 40
0
 40
0
 40
1
 40
1
 40
1
 40
1
 10
3.925056
 20
4.889814
 30
0.0
 10
3.911217
 20
4.896693
 30
0.0
 10
3.898762
 20
4.903912
 30
0.0
 10
3.887691
 20
4.911472
 30
0.0
  0
SPLINE
  5
2c1
100
AcDbEntity
  8
Capa_1
 62
7
100
AcDbSpline
 70
8
 71
3
 72
8
 73
4
 74
0
 40
0
 40
0
 40
0
 40
0
 40
1
 40
1
 40
1
 40
1
 10
3.887691
 20
4.911472
 30
0.0
 10
3.876621
 20
4.919032
 30
0.0
 10
3.867146
 20
4.926047
 30
0.0
 10
3.859268
 20
4.932517
 30
0.0
  0
LWPOLYLINE
  5
2c2
100
AcDbEntity
  8
Capa_1
 62
7
100
AcDbPolyline
 90
3
 70
0
 10
3.792845
 20
5.279751
 30
0.0
 10
3.807216
 20
5.205072
 30
0.0
 10
3.812003
 20
5.205072
 30
0.0
  0
SPLINE
  5
2c3
100
AcDbEntity
  8
Capa_1
 62
7
100
AcDbSpline
 70
8
 71
3
 72
8
 73
4
 74
0
 40
0
 40
0
 40
0
 40
0
 40
1
 40
1
 40
1
 40
1
 10
3.869805
 20
4.855897
 30
0.0
 10
3.892160
 20
4.844114
 30
0.0
 10
3.917921
 20
4.833455
 30
0.0
 10
3.947089
 20
4.823920
 30
0.0
  0
SPLINE
  5
2c4
100
AcDbEntity
  8
Capa_1
 62
7
100
AcDbSpline
 70
8
 71
3
 72
8
 73
4
 74
0
 40
0
 40
0
 40
0
 40
0
 40
1
 40
1
 40
1
 40
1
 10
3.947089
 20
4.823920
 30
0.0
 10
3.976044
 20
4.814590
 30
0.0
 10
4.006915
 20
4.809924
 30
0.0
 10
4.039702
 20
4.809924
 30
0.0
  0
LWPOLYLINE
  5
2c5
100
AcDbEntity
  8
Capa_1
 62
7
100
AcDbPolyline
 90
3
 70
0
 10
3.859268
 20
4.932517
 30
0.0
 10
3.854795
 20
4.932517
 30
0.0
 10
3.869805
 20
4.855897
 30
0.0
  0
LWPOLYLINE
  5
2c6
100
AcDbEntity
  8
Capa_1
 62
7
100
AcDbPolyline
 90
2
 70
0
 10
4.039702
 20
4.809924
 30
0.0
 10
4.039706
 20
4.809097
 30
0.0
  0
SPLINE
  5
2c7
100
AcDbEntity
  8
Capa_1
 62
7
100
AcDbSpline
 70
8
 71
3
 72
8
 73
4
 74
0
 40
0
 40
0
 40
0
 40
0
 40
1
 40
1
 40
1
 40
1
 10
4.540776
 20
3.101911
 30
0.0
 10
4.606350
 20
3.101911
 30
0.0
 10
4.657553
 20
3.118801
 30
0.0
 10
4.694386
 20
3.152583
 30
0.0
  0
SPLINE
  5
2c8
100
AcDbEntity
  8
Capa_1
 62
7
100
AcDbSpline
 70
8
 71
3
 72
8
 73
4
 74
0
 40
0
 40
0
 40
0
 40
0
 40
1
 40
1
 40
1
 40
1
 10
4.694386
 20
3.152583
 30
0.0
 10
4.731218
 20
3.186364
 30
0.0
 10
4.749634
 20
3.234359
 30
0.0
 10
4.749634
 20
3.296568
 30
0.0
  0
SPLINE
  5
2c9
100
AcDbEntity
  8
Capa_1
 62
7
100
AcDbSpline
 70
8
 71
3
 72
8
 73
4
 74
0
 40
0
 40
0
 40
0
 40
0
 40
1
 40
1
 40
1
 40
1
 10
4.749634
 20
3.296568
 30
0.0
 10
4.749634
 20
3.342336
 30
0.0
 10
4.742928
 20
3.384664
 30
0.0
 10
4.729515
 20
3.423553
 30
0.0
  0
SPLINE
  5
2ca
100
AcDbEntity
  8
Capa_1
 62
7
100
AcDbSpline
 70
8
 71
3
 72
8
 73
4
 74
0
 40
0
 40
0
 40
0
 40
0
 40
1
 40
1
 40
1
 40
1
 10
4.729515
 20
3.423553
 30
0.0
 10
4.715889
 20
3.462443
 30
0.0
 10
4.696196
 20
3.496326
 30
0.0
 10
4.670434
 20
3.525203
 30
0.0
  0
SPLINE
  5
2cb
100
AcDbEntity
  8
Capa_1
 62
7
100
AcDbSpline
 70
8
 71
3
 72
8
 73
4
 74
0
 40
0
 40
0
 40
0
 40
0
 40
1
 40
1
 40
1
 40
1
 10
4.670434
 20
3.525203
 30
0.0
 10
4.644886
 20
3.553876
 30
0.0
 10
4.613589
 20
3.576318
 30
0.0
 10
4.576544
 20
3.592527
 30
0.0
  0
SPLINE
  5
2cc
100
AcDbEntity
  8
Capa_1
 62
7
100
AcDbSpline
 70
8
 71
3
 72
8
 73
4
 74
0
 40
0
 40
0
 40
0
 40
0
 40
1
 40
1
 40
1
 40
1
 10
4.576544
 20
3.592527
 30
0.0
 10
4.539286
 20
3.608737
 30
0.0
 10
4.497450
 20
3.616841
 30
0.0
 10
4.451037
 20
3.616841
 30
0.0
  0
SPLINE
  5
2cd
100
AcDbEntity
  8
Capa_1
 62
7
100
AcDbSpline
 70
8
 71
3
 72
8
 73
4
 74
0
 40
0
 40
0
 40
0
 40
0
 40
1
 40
1
 40
1
 40
1
 10
4.451037
 20
3.616841
 30
0.0
 10
4.423146
 20
3.616841
 30
0.0
 10
4.395362
 20
3.613300
 30
0.0
 10
4.367685
 20
3.606217
 30
0.0
  0
SPLINE
  5
2ce
100
AcDbEntity
  8
Capa_1
 62
7
100
AcDbSpline
 70
8
 71
3
 72
8
 73
4
 74
0
 40
0
 40
0
 40
0
 40
0
 40
1
 40
1
 40
1
 40
1
 10
4.367685
 20
3.606217
 30
0.0
 10
4.339795
 20
3.599338
 30
0.0
 10
4.311372
 20
3.587998
 30
0.0
 10
4.282417
 20
3.572197
 30
0.0
  0
LWPOLYLINE
  5
2cf
100
AcDbEntity
  8
Capa_1
 62
7
100
AcDbPolyline
 90
12
 70
1
 10
3.407701
 20
4.818097
 30
0.0
 10
3.482430
 20
4.818097
 30
0.0
 10
3.629015
 20
5.039745
 30
0.0
 10
3.694163
 20
4.982126
 30
0.0
 10
3.730250
 20
4.818138
 30
0.0
 10
3.794121
 20
4.818138
 30
0.0
 10
3.684263
 20
5.314424
 30
0.0
 10
3.620392
 20
5.314424
 30
0.0
 10
3.677876
 20
5.056785
 30
0.0
 10
3.398440
 20
5.314424
 30
0.0
 10
3.317962
 20
5.314424
 30
0.0
 10
3.578876
 20
5.076778
 30
0.0
  0
SPLINE
  5
2d0
100
AcDbEntity
  8
Capa_1
 62
7
100
AcDbSpline
 70
8
 71
3
 72
8
 73
4
 74
0
 40
0
 40
0
 40
0
 40
0
 40
1
 40
1
 40
1
 40
1
 10
4.302535
 20
3.496905
 30
0.0
 10
4.326167
 20
3.519993
 30
0.0
 10
4.351928
 20
3.536645
 30
0.0
 10
4.379819
 20
3.546861
 30
0.0
  0
SPLINE
  5
2d1
100
AcDbEntity
  8
Capa_1
 62
7
100
AcDbSpline
 70
8
 71
3
 72
8
 73
4
 74
0
 40
0
 40
0
 40
0
 40
0
 40
1
 40
1
 40
1
 40
1
 10
4.379819
 20
3.546861
 30
0.0
 10
4.407496
 20
3.557282
 30
0.0
 10
4.437303
 20
3.562492
 30
0.0
 10
4.469239
 20
3.562492
 30
0.0
  0
SPLINE
  5
2d2
100
AcDbEntity
  8
Capa_1
 62
7
100
AcDbSpline
 70
8
 71
3
 72
8
 73
4
 74
0
 40
0
 40
0
 40
0
 40
0
 40
1
 40
1
 40
1
 40
1
 10
4.469239
 20
3.562492
 30
0.0
 10
4.504368
 20
3.562492
 30
0.0
 10
4.535132
 20
3.555273
 30
0.0
 10
4.561533
 20
3.540834
 30
0.0
  0
SPLINE
  5
2d3
100
AcDbEntity
  8
Capa_1
 62
7
100
AcDbSpline
 70
8
 71
3
 72
8
 73
4
 74
0
 40
0
 40
0
 40
0
 40
0
 40
1
 40
1
 40
1
 40
1
 10
4.561533
 20
3.540834
 30
0.0
 10
4.587933
 20
3.526395
 30
0.0
 10
4.610181
 20
3.507189
 30
0.0
 10
4.628278
 20
3.483215
 30
0.0
  0
SPLINE
  5
2d4
100
AcDbEntity
  8
Capa_1
 62
7
100
AcDbSpline
 70
8
 71
3
 72
8
 73
4
 74
0
 40
0
 40
0
 40
0
 40
0
 40
1
 40
1
 40
1
 40
1
 10
4.628278
 20
3.483215
 30
0.0
 10
4.645949
 20
3.459650
 30
0.0
 10
4.659362
 20
3.432203
 30
0.0
 10
4.668517
 20
3.400874
 30
0.0
  0
SPLINE
  5
2d5
100
AcDbEntity
  8
Capa_1
 62
7
100
AcDbSpline
 70
8
 71
3
 72
8
 73
4
 74
0
 40
0
 40
0
 40
0
 40
0
 40
1
 40
1
 40
1
 40
1
 10
4.668517
 20
3.400874
 30
0.0
 10
4.677459
 20
3.369545
 30
0.0
 10
4.681930
 20
3.337977
 30
0.0
 10
4.681930
 20
3.306171
 30
0.0
  0
SPLINE
  5
2d6
100
AcDbEntity
  8
Capa_1
 62
7
100
AcDbSpline
 70
8
 71
3
 72
8
 73
4
 74
0
 40
0
 40
0
 40
0
 40
0
 40
1
 40
1
 40
1
 40
1
 10
4.681930
 20
3.306171
 30
0.0
 10
4.681930
 20
3.258428
 30
0.0
 10
4.669475
 20
3.221544
 30
0.0
 10
4.644566
 20
3.195521
 30
0.0
  0
SPLINE
  5
2d7
100
AcDbEntity
  8
Capa_1
 62
7
100
AcDbSpline
 70
8
 71
3
 72
8
 73
4
 74
0
 40
0
 40
0
 40
0
 40
0
 40
1
 40
1
 40
1
 40
1
 10
4.644566
 20
3.195521
 30
0.0
 10
4.619443
 20
3.169504
 30
0.0
 10
4.582398
 20
3.156495
 30
0.0
 10
4.533430
 20
3.156495
 30
0.0
  0
SPLINE
  5
2d8
100
AcDbEntity
  8
Capa_1
 62
7
100
AcDbSpline
 70
8
 71
3
 72
8
 73
4
 74
0
 40
0
 40
0
 40
0
 40
0
 40
1
 40
1
 40
1
 40
1
 10
4.533430
 20
3.156495
 30
0.0
 10
4.511926
 20
3.156495
 30
0.0
 10
4.491807
 20
3.158539
 30
0.0
 10
4.473072
 20
3.162625
 30
0.0
  0
SPLINE
  5
2d9
100
AcDbEntity
  8
Capa_1
 62
7
100
AcDbSpline
 70
8
 71
3
 72
8
 73
4
 74
0
 40
0
 40
0
 40
0
 40
0
 40
1
 40
1
 40
1
 40
1
 10
4.473072
 20
3.162625
 30
0.0
 10
4.454123
 20
3.166711
 30
0.0
 10
4.436346
 20
3.172058
 30
0.0
 10
4.419739
 20
3.178664
 30
0.0
  0
LWPOLYLINE
  5
2da
100
AcDbEntity
  8
Capa_1
 62
7
100
AcDbPolyline
 90
3
 70
0
 10
4.282417
 20
3.572197
 30
0.0
 10
4.296789
 20
3.496905
 30
0.0
 10
4.302535
 20
3.496905
 30
0.0
  0
SPLINE
  5
2db
100
AcDbEntity
  8
Capa_1
 62
7
100
AcDbSpline
 70
8
 71
3
 72
8
 73
4
 74
0
 40
0
 40
0
 40
0
 40
0
 40
1
 40
1
 40
1
 40
1
 10
4.364491
 20
3.148353
 30
0.0
 10
4.378543
 20
3.142224
 30
0.0
 10
4.391211
 20
3.136775
 30
0.0
 10
4.402495
 20
3.132007
 30
0.0
  0
SPLINE
  5
2dc
100
AcDbEntity
  8
Capa_1
 62
7
100
AcDbSpline
 70
8
 71
3
 72
8
 73
4
 74
0
 40
0
 40
0
 40
0
 40
0
 40
1
 40
1
 40
1
 40
1
 10
4.402495
 20
3.132007
 30
0.0
 10
4.413779
 20
3.127240
 30
0.0
 10
4.427937
 20
3.122336
 30
0.0
 10
4.444969
 20
3.117296
 30
0.0
  0
SPLINE
  5
2dd
100
AcDbEntity
  8
Capa_1
 62
7
100
AcDbSpline
 70
8
 71
3
 72
8
 73
4
 74
0
 40
0
 40
0
 40
0
 40
0
 40
1
 40
1
 40
1
 40
1
 10
4.444969
 20
3.117296
 30
0.0
 10
4.459660
 20
3.112529
 30
0.0
 10
4.474883
 20
3.108851
 30
0.0
 10
4.490638
 20
3.106263
 30
0.0
  0
SPLINE
  5
2de
100
AcDbEntity
  8
Capa_1
 62
7
100
AcDbSpline
 70
8
 71
3
 72
8
 73
4
 74
0
 40
0
 40
0
 40
0
 40
0
 40
1
 40
1
 40
1
 40
1
 10
4.490638
 20
3.106263
 30
0.0
 10
4.506180
 20
3.103539
 30
0.0
 10
4.522893
 20
3.102177
 30
0.0
 10
4.540776
 20
3.102177
 30
0.0
  0
LWPOLYLINE
  5
2df
100
AcDbEntity
  8
Capa_1
 62
7
100
AcDbPolyline
 90
6
 70
0
 10
4.419739
 20
3.178664
 30
0.0
 10
4.392914
 20
3.305650
 30
0.0
 10
4.519698
 20
3.305650
 30
0.0
 10
4.507562
 20
3.361327
 30
0.0
 10
4.317226
 20
3.361327
 30
0.0
 10
4.364491
 20
3.148353
 30
0.0
  0
LWPOLYLINE
  5
2e0
100
AcDbEntity
  8
Capa_1
 62
7
100
AcDbPolyline
 90
2
 70
0
 10
4.540776
 20
3.102177
 30
0.0
 10
4.540776
 20
3.101911
 30
0.0
  0
SPLINE
  5
2e1
100
AcDbEntity
  8
Capa_1
 62
7
100
AcDbSpline
 70
8
 71
3
 72
8
 73
4
 74
0
 40
0
 40
0
 40
0
 40
0
 40
1
 40
1
 40
1
 40
1
 10
3.310617
 20
3.417546
 30
0.0
 10
3.310617
 20
3.363333
 30
0.0
 10
3.323817
 20
3.312004
 30
0.0
 10
3.350217
 20
3.263560
 30
0.0
  0
SPLINE
  5
2e2
100
AcDbEntity
  8
Capa_1
 62
7
100
AcDbSpline
 70
8
 71
3
 72
8
 73
4
 74
0
 40
0
 40
0
 40
0
 40
0
 40
1
 40
1
 40
1
 40
1
 10
3.350217
 20
3.263560
 30
0.0
 10
3.376618
 20
3.215136
 30
0.0
 10
3.412705
 20
3.177694
 30
0.0
 10
3.458479
 20
3.151234
 30
0.0
  0
SPLINE
  5
2e3
100
AcDbEntity
  8
Capa_1
 62
7
100
AcDbSpline
 70
8
 71
3
 72
8
 73
4
 74
0
 40
0
 40
0
 40
0
 40
0
 40
1
 40
1
 40
1
 40
1
 10
3.458479
 20
3.151234
 30
0.0
 10
3.486582
 20
3.135433
 30
0.0
 10
3.515324
 20
3.124877
 30
0.0
 10
3.544705
 20
3.119564
 30
0.0
  0
SPLINE
  5
2e4
100
AcDbEntity
  8
Capa_1
 62
7
100
AcDbSpline
 70
8
 71
3
 72
8
 73
4
 74
0
 40
0
 40
0
 40
0
 40
0
 40
1
 40
1
 40
1
 40
1
 10
3.544705
 20
3.119564
 30
0.0
 10
3.574086
 20
3.114116
 30
0.0
 10
3.607405
 20
3.111391
 30
0.0
 10
3.644663
 20
3.111391
 30
0.0
  0
LWPOLYLINE
  5
2e5
100
AcDbEntity
  8
Capa_1
 62
7
100
AcDbPolyline
 90
10
 70
1
 10
3.899190
 20
3.111575
 30
0.0
 10
3.974557
 20
3.111575
 30
0.0
 10
4.104535
 20
3.555535
 30
0.0
 10
4.202897
 20
3.111575
 30
0.0
 10
4.262616
 20
3.111575
 30
0.0
 10
4.152758
 20
3.607862
 30
0.0
 10
4.057590
 20
3.607862
 30
0.0
 10
3.938790
 20
3.202570
 30
0.0
 10
3.849051
 20
3.607862
 30
0.0
 10
3.789331
 20
3.607862
 30
0.0
  0
SPLINE
  5
2e6
100
AcDbEntity
  8
Capa_1
 62
7
100
AcDbSpline
 70
8
 71
3
 72
8
 73
4
 74
0
 40
0
 40
0
 40
0
 40
0
 40
1
 40
1
 40
1
 40
1
 10
3.552689
 20
3.607678
 30
0.0
 10
3.518198
 20
3.607678
 30
0.0
 10
3.486794
 20
3.604953
 30
0.0
 10
3.458478
 20
3.599505
 30
0.0
  0
SPLINE
  5
2e7
100
AcDbEntity
  8
Capa_1
 62
7
100
AcDbSpline
 70
8
 71
3
 72
8
 73
4
 74
0
 40
0
 40
0
 40
0
 40
0
 40
1
 40
1
 40
1
 40
1
 10
3.458478
 20
3.599505
 30
0.0
 10
3.429949
 20
3.594737
 30
0.0
 10
3.403868
 20
3.584079
 30
0.0
 10
3.380236
 20
3.567528
 30
0.0
  0
SPLINE
  5
2e8
100
AcDbEntity
  8
Capa_1
 62
7
100
AcDbSpline
 70
8
 71
3
 72
8
 73
4
 74
0
 40
0
 40
0
 40
0
 40
0
 40
1
 40
1
 40
1
 40
1
 10
3.380236
 20
3.567528
 30
0.0
 10
3.357668
 20
3.551728
 30
0.0
 10
3.340423
 20
3.531057
 30
0.0
 10
3.328500
 20
3.505517
 30
0.0
  0
SPLINE
  5
2e9
100
AcDbEntity
  8
Capa_1
 62
7
100
AcDbSpline
 70
8
 71
3
 72
8
 73
4
 74
0
 40
0
 40
0
 40
0
 40
0
 40
1
 40
1
 40
1
 40
1
 10
3.328500
 20
3.505517
 30
0.0
 10
3.316577
 20
3.480181
 30
0.0
 10
3.310616
 20
3.450623
 30
0.0
 10
3.310616
 20
3.416842
 30
0.0
  0
LWPOLYLINE
  5
2ea
100
AcDbEntity
  8
Capa_1
 62
7
100
AcDbPolyline
 90
4
 70
0
 10
3.644663
 20
3.111391
 30
0.0
 10
3.773044
 20
3.111391
 30
0.0
 10
3.663186
 20
3.607678
 30
0.0
 10
3.552689
 20
3.607678
 30
0.0
  0
SPLINE
  5
2eb
100
AcDbEntity
  8
Capa_1
 62
7
100
AcDbSpline
 70
8
 71
3
 72
8
 73
4
 74
0
 40
0
 40
0
 40
0
 40
0
 40
1
 40
1
 40
1
 40
1
 10
3.377363
 20
3.411417
 30
0.0
 10
3.377363
 20
3.436753
 30
0.0
 10
3.381727
 20
3.458513
 30
0.0
 10
3.390456
 20
3.476697
 30
0.0
  0
SPLINE
  5
2ec
100
AcDbEntity
  8
Capa_1
 62
7
100
AcDbSpline
 70
8
 71
3
 72
8
 73
4
 74
0
 40
0
 40
0
 40
0
 40
0
 40
1
 40
1
 40
1
 40
1
 10
3.390456
 20
3.476697
 30
0.0
 10
3.398972
 20
3.495154
 30
0.0
 10
3.411959
 20
3.510479
 30
0.0
 10
3.429417
 20
3.522670
 30
0.0
  0
SPLINE
  5
2ed
100
AcDbEntity
  8
Capa_1
 62
7
100
AcDbSpline
 70
8
 71
3
 72
8
 73
4
 74
0
 40
0
 40
0
 40
0
 40
0
 40
1
 40
1
 40
1
 40
1
 10
3.429417
 20
3.522670
 30
0.0
 10
3.446663
 20
3.534657
 30
0.0
 10
3.465079
 20
3.542659
 30
0.0
 10
3.484665
 20
3.546677
 30
0.0
  0
SPLINE
  5
2ee
100
AcDbEntity
  8
Capa_1
 62
7
100
AcDbSpline
 70
8
 71
3
 72
8
 73
4
 74
0
 40
0
 40
0
 40
0
 40
0
 40
1
 40
1
 40
1
 40
1
 10
3.484665
 20
3.546677
 30
0.0
 10
3.504253
 20
3.550764
 30
0.0
 10
3.529056
 20
3.552807
 30
0.0
 10
3.559076
 20
3.552807
 30
0.0
  0
LWPOLYLINE
  5
2ef
100
AcDbEntity
  8
Capa_1
 62
7
100
AcDbPolyline
 90
2
 70
0
 10
3.310616
 20
3.416842
 30
0.0
 10
3.310617
 20
3.417546
 30
0.0
  0
SPLINE
  5
2f0
100
AcDbEntity
  8
Capa_1
 62
7
100
AcDbSpline
 70
8
 71
3
 72
8
 73
4
 74
0
 40
0
 40
0
 40
0
 40
0
 40
1
 40
1
 40
1
 40
1
 10
3.631888
 20
3.165179
 30
0.0
 10
3.601443
 20
3.165179
 30
0.0
 10
3.574298
 20
3.167563
 30
0.0
 10
3.550453
 20
3.172330
 30
0.0
  0
SPLINE
  5
2f1
100
AcDbEntity
  8
Capa_1
 62
7
100
AcDbSpline
 70
8
 71
3
 72
8
 73
4
 74
0
 40
0
 40
0
 40
0
 40
0
 40
1
 40
1
 40
1
 40
1
 10
3.550453
 20
3.172330
 30
0.0
 10
3.526395
 20
3.177779
 30
0.0
 10
3.503721
 20
3.186769
 30
0.0
 10
3.482431
 20
3.199301
 30
0.0
  0
SPLINE
  5
2f2
100
AcDbEntity
  8
Capa_1
 62
7
100
AcDbSpline
 70
8
 71
3
 72
8
 73
4
 74
0
 40
0
 40
0
 40
0
 40
0
 40
1
 40
1
 40
1
 40
1
 10
3.482431
 20
3.199301
 30
0.0
 10
3.448153
 20
3.219733
 30
0.0
 10
3.422072
 20
3.249189
 30
0.0
 10
3.404188
 20
3.287670
 30
0.0
  0
SPLINE
  5
2f3
100
AcDbEntity
  8
Capa_1
 62
7
100
AcDbSpline
 70
8
 71
3
 72
8
 73
4
 74
0
 40
0
 40
0
 40
0
 40
0
 40
1
 40
1
 40
1
 40
1
 10
3.404188
 20
3.287670
 30
0.0
 10
3.386305
 20
3.326354
 30
0.0
 10
3.377363
 20
3.367352
 30
0.0
 10
3.377363
 20
3.410661
 30
0.0
  0
LWPOLYLINE
  5
2f4
100
AcDbEntity
  8
Capa_1
 62
7
100
AcDbPolyline
 90
4
 70
0
 10
3.559076
 20
3.552807
 30
0.0
 10
3.611769
 20
3.552807
 30
0.0
 10
3.697995
 20
3.165179
 30
0.0
 10
3.631888
 20
3.165179
 30
0.0
  0
SPLINE
  5
2f5
100
AcDbEntity
  8
Capa_1
 62
7
100
AcDbSpline
 70
8
 71
3
 72
8
 73
4
 74
0
 40
0
 40
0
 40
0
 40
0
 40
1
 40
1
 40
1
 40
1
 10
4.303814
 20
1.396053
 30
0.0
 10
4.334685
 20
1.396053
 30
0.0
 10
4.364065
 20
1.399458
 30
0.0
 10
4.391956
 20
1.406269
 30
0.0
  0
SPLINE
  5
2f6
100
AcDbEntity
  8
Capa_1
 62
7
100
AcDbSpline
 70
8
 71
3
 72
8
 73
4
 74
0
 40
0
 40
0
 40
0
 40
0
 40
1
 40
1
 40
1
 40
1
 10
4.391956
 20
1.406269
 30
0.0
 10
4.419847
 20
1.413148
 30
0.0
 10
4.447205
 20
1.423602
 30
0.0
 10
4.474031
 20
1.437632
 30
0.0
  0
LWPOLYLINE
  5
2f7
100
AcDbEntity
  8
Capa_1
 62
7
100
AcDbPolyline
 90
2
 70
0
 10
3.377363
 20
3.410661
 30
0.0
 10
3.377363
 20
3.411417
 30
0.0
  0
SPLINE
  5
2f8
100
AcDbEntity
  8
Capa_1
 62
7
100
AcDbSpline
 70
8
 71
3
 72
8
 73
4
 74
0
 40
0
 40
0
 40
0
 40
0
 40
1
 40
1
 40
1
 40
1
 10
4.454229
 20
1.513333
 30
0.0
 10
4.433790
 20
1.493106
 30
0.0
 10
4.408773
 20
1.477543
 30
0.0
 10
4.379180
 20
1.466646
 30
0.0
  0
SPLINE
  5
2f9
100
AcDbEntity
  8
Capa_1
 62
7
100
AcDbSpline
 70
8
 71
3
 72
8
 73
4
 74
0
 40
0
 40
0
 40
0
 40
0
 40
1
 40
1
 40
1
 40
1
 10
4.379180
 20
1.466646
 30
0.0
 10
4.349374
 20
1.455953
 30
0.0
 10
4.320632
 20
1.450607
 30
0.0
 10
4.292954
 20
1.450607
 30
0.0
  0
SPLINE
  5
2fa
100
AcDbEntity
  8
Capa_1
 62
7
100
AcDbSpline
 70
8
 71
3
 72
8
 73
4
 74
0
 40
0
 40
0
 40
0
 40
0
 40
1
 40
1
 40
1
 40
1
 10
4.292954
 20
1.450607
 30
0.0
 10
4.247606
 20
1.450607
 30
0.0
 10
4.212903
 20
1.459937
 30
0.0
 10
4.188844
 20
1.478599
 30
0.0
  0
SPLINE
  5
2fb
100
AcDbEntity
  8
Capa_1
 62
7
100
AcDbSpline
 70
8
 71
3
 72
8
 73
4
 74
0
 40
0
 40
0
 40
0
 40
0
 40
1
 40
1
 40
1
 40
1
 10
4.188844
 20
1.478599
 30
0.0
 10
4.164573
 20
1.497464
 30
0.0
 10
4.152438
 20
1.521472
 30
0.0
 10
4.152438
 20
1.550622
 30
0.0
  0
SPLINE
  5
2fc
100
AcDbEntity
  8
Capa_1
 62
7
100
AcDbSpline
 70
8
 71
3
 72
8
 73
4
 74
0
 40
0
 40
0
 40
0
 40
0
 40
1
 40
1
 40
1
 40
1
 10
4.152438
 20
1.550622
 30
0.0
 10
4.152438
 20
1.565946
 30
0.0
 10
4.156803
 20
1.578716
 30
0.0
 10
4.165532
 20
1.588932
 30
0.0
  0
SPLINE
  5
2fd
100
AcDbEntity
  8
Capa_1
 62
7
100
AcDbSpline
 70
8
 71
3
 72
8
 73
4
 74
0
 40
0
 40
0
 40
0
 40
0
 40
1
 40
1
 40
1
 40
1
 10
4.165532
 20
1.588932
 30
0.0
 10
4.174048
 20
1.599148
 30
0.0
 10
4.186609
 20
1.606708
 30
0.0
 10
4.203216
 20
1.611612
 30
0.0
  0
SPLINE
  5
2fe
100
AcDbEntity
  8
Capa_1
 62
7
100
AcDbSpline
 70
8
 71
3
 72
8
 73
4
 74
0
 40
0
 40
0
 40
0
 40
0
 40
1
 40
1
 40
1
 40
1
 10
4.203216
 20
1.611612
 30
0.0
 10
4.217055
 20
1.615698
 30
0.0
 10
4.233555
 20
1.619478
 30
0.0
 10
4.252716
 20
1.622952
 30
0.0
  0
SPLINE
  5
2ff
100
AcDbEntity
  8
Capa_1
 62
7
100
AcDbSpline
 70
8
 71
3
 72
8
 73
4
 74
0
 40
0
 40
0
 40
0
 40
0
 40
1
 40
1
 40
1
 40
1
 10
4.252716
 20
1.622952
 30
0.0
 10
4.271665
 20
1.627038
 30
0.0
 10
4.289762
 20
1.631057
 30
0.0
 10
4.307007
 20
1.635007
 30
0.0
  0
SPLINE
  5
300
100
AcDbEntity
  8
Capa_1
 62
7
100
AcDbSpline
 70
8
 71
3
 72
8
 73
4
 74
0
 40
0
 40
0
 40
0
 40
0
 40
1
 40
1
 40
1
 40
1
 10
4.307007
 20
1.635007
 30
0.0
 10
4.340433
 20
1.642771
 30
0.0
 10
4.366301
 20
1.656120
 30
0.0
 10
4.384610
 20
1.675054
 30
0.0
  0
SPLINE
  5
301
100
AcDbEntity
  8
Capa_1
 62
7
100
AcDbSpline
 70
8
 71
3
 72
8
 73
4
 74
0
 40
0
 40
0
 40
0
 40
0
 40
1
 40
1
 40
1
 40
1
 10
4.384610
 20
1.675054
 30
0.0
 10
4.402920
 20
1.693919
 30
0.0
 10
4.412075
 20
1.717348
 30
0.0
 10
4.412075
 20
1.745340
 30
0.0
  0
SPLINE
  5
302
100
AcDbEntity
  8
Capa_1
 62
7
100
AcDbSpline
 70
8
 71
3
 72
8
 73
4
 74
0
 40
0
 40
0
 40
0
 40
0
 40
1
 40
1
 40
1
 40
1
 10
4.412075
 20
1.745340
 30
0.0
 10
4.412075
 20
1.792675
 30
0.0
 10
4.392914
 20
1.832003
 30
0.0
 10
4.354591
 20
1.863326
 30
0.0
  0
SPLINE
  5
303
100
AcDbEntity
  8
Capa_1
 62
7
100
AcDbSpline
 70
8
 71
3
 72
8
 73
4
 74
0
 40
0
 40
0
 40
0
 40
0
 40
1
 40
1
 40
1
 40
1
 10
4.354591
 20
1.863326
 30
0.0
 10
4.316056
 20
1.894859
 30
0.0
 10
4.266343
 20
1.910626
 30
0.0
 10
4.205452
 20
1.910626
 30
0.0
  0
SPLINE
  5
304
100
AcDbEntity
  8
Capa_1
 62
7
100
AcDbSpline
 70
8
 71
3
 72
8
 73
4
 74
0
 40
0
 40
0
 40
0
 40
0
 40
1
 40
1
 40
1
 40
1
 10
4.205452
 20
1.910626
 30
0.0
 10
4.172239
 20
1.910626
 30
0.0
 10
4.142113
 20
1.906948
 30
0.0
 10
4.115075
 20
1.899593
 30
0.0
  0
SPLINE
  5
305
100
AcDbEntity
  8
Capa_1
 62
7
100
AcDbSpline
 70
8
 71
3
 72
8
 73
4
 74
0
 40
0
 40
0
 40
0
 40
0
 40
1
 40
1
 40
1
 40
1
 10
4.115075
 20
1.899593
 30
0.0
 10
4.087823
 20
1.892509
 30
0.0
 10
4.064403
 20
1.884064
 30
0.0
 10
4.044817
 20
1.874257
 30
0.0
  0
LWPOLYLINE
  5
306
100
AcDbEntity
  8
Capa_1
 62
7
100
AcDbPolyline
 90
3
 70
0
 10
4.474031
 20
1.437632
 30
0.0
 10
4.458702
 20
1.513333
 30
0.0
 10
4.454229
 20
1.513333
 30
0.0
  0
SPLINE
  5
307
100
AcDbEntity
  8
Capa_1
 62
7
100
AcDbSpline
 70
8
 71
3
 72
8
 73
4
 74
0
 40
0
 40
0
 40
0
 40
0
 40
1
 40
1
 40
1
 40
1
 10
4.063662
 20
1.803255
 30
0.0
 10
4.078778
 20
1.817694
 30
0.0
 10
4.100387
 20
1.830123
 30
0.0
 10
4.128491
 20
1.840544
 30
0.0
  0
SPLINE
  5
308
100
AcDbEntity
  8
Capa_1
 62
7
100
AcDbSpline
 70
8
 71
3
 72
8
 73
4
 74
0
 40
0
 40
0
 40
0
 40
0
 40
1
 40
1
 40
1
 40
1
 10
4.128491
 20
1.840544
 30
0.0
 10
4.156381
 20
1.850964
 30
0.0
 10
4.185762
 20
1.856174
 30
0.0
 10
4.216633
 20
1.856174
 30
0.0
  0
SPLINE
  5
309
100
AcDbEntity
  8
Capa_1
 62
7
100
AcDbSpline
 70
8
 71
3
 72
8
 73
4
 74
0
 40
0
 40
0
 40
0
 40
0
 40
1
 40
1
 40
1
 40
1
 10
4.216633
 20
1.856174
 30
0.0
 10
4.255382
 20
1.856174
 30
0.0
 10
4.286360
 20
1.847286
 30
0.0
 10
4.309566
 20
1.829510
 30
0.0
  0
SPLINE
  5
30a
100
AcDbEntity
  8
Capa_1
 62
7
100
AcDbSpline
 70
8
 71
3
 72
8
 73
4
 74
0
 40
0
 40
0
 40
0
 40
0
 40
1
 40
1
 40
1
 40
1
 10
4.309566
 20
1.829510
 30
0.0
 10
4.332560
 20
1.811734
 30
0.0
 10
4.344057
 20
1.789191
 30
0.0
 10
4.344057
 20
1.761880
 30
0.0
  0
SPLINE
  5
30b
100
AcDbEntity
  8
Capa_1
 62
7
100
AcDbSpline
 70
8
 71
3
 72
8
 73
4
 74
0
 40
0
 40
0
 40
0
 40
0
 40
1
 40
1
 40
1
 40
1
 10
4.344057
 20
1.761880
 30
0.0
 10
4.344057
 20
1.747237
 30
0.0
 10
4.339906
 20
1.734365
 30
0.0
 10
4.331602
 20
1.723263
 30
0.0
  0
SPLINE
  5
30c
100
AcDbEntity
  8
Capa_1
 62
7
100
AcDbSpline
 70
8
 71
3
 72
8
 73
4
 74
0
 40
0
 40
0
 40
0
 40
0
 40
1
 40
1
 40
1
 40
1
 10
4.331602
 20
1.723263
 30
0.0
 10
4.323299
 20
1.712162
 30
0.0
 10
4.308502
 20
1.703819
 30
0.0
 10
4.287211
 20
1.698234
 30
0.0
  0
SPLINE
  5
30d
100
AcDbEntity
  8
Capa_1
 62
7
100
AcDbSpline
 70
8
 71
3
 72
8
 73
4
 74
0
 40
0
 40
0
 40
0
 40
0
 40
1
 40
1
 40
1
 40
1
 10
4.287211
 20
1.698234
 30
0.0
 10
4.273586
 20
1.694829
 30
0.0
 10
4.255489
 20
1.690708
 30
0.0
 10
4.232921
 20
1.685873
 30
0.0
  0
SPLINE
  5
30e
100
AcDbEntity
  8
Capa_1
 62
7
100
AcDbSpline
 70
8
 71
3
 72
8
 73
4
 74
0
 40
0
 40
0
 40
0
 40
0
 40
1
 40
1
 40
1
 40
1
 10
4.232921
 20
1.685873
 30
0.0
 10
4.210354
 20
1.681105
 30
0.0
 10
4.191405
 20
1.676678
 30
0.0
 10
4.176076
 20
1.672592
 30
0.0
  0
SPLINE
  5
30f
100
AcDbEntity
  8
Capa_1
 62
7
100
AcDbSpline
 70
8
 71
3
 72
8
 73
4
 74
0
 40
0
 40
0
 40
0
 40
0
 40
1
 40
1
 40
1
 40
1
 10
4.176076
 20
1.672592
 30
0.0
 10
4.145844
 20
1.663942
 30
0.0
 10
4.122956
 20
1.651070
 30
0.0
 10
4.107414
 20
1.633975
 30
0.0
  0
SPLINE
  5
310
100
AcDbEntity
  8
Capa_1
 62
7
100
AcDbSpline
 70
8
 71
3
 72
8
 73
4
 74
0
 40
0
 40
0
 40
0
 40
0
 40
1
 40
1
 40
1
 40
1
 10
4.107414
 20
1.633975
 30
0.0
 10
4.091659
 20
1.616880
 30
0.0
 10
4.083782
 20
1.595324
 30
0.0
 10
4.083782
 20
1.569307
 30
0.0
  0
SPLINE
  5
311
100
AcDbEntity
  8
Capa_1
 62
7
100
AcDbSpline
 70
8
 71
3
 72
8
 73
4
 74
0
 40
0
 40
0
 40
0
 40
0
 40
1
 40
1
 40
1
 40
1
 10
4.083782
 20
1.569307
 30
0.0
 10
4.083782
 20
1.547513
 30
0.0
 10
4.088891
 20
1.525855
 30
0.0
 10
4.099111
 20
1.504333
 30
0.0
  0
SPLINE
  5
312
100
AcDbEntity
  8
Capa_1
 62
7
100
AcDbSpline
 70
8
 71
3
 72
8
 73
4
 74
0
 40
0
 40
0
 40
0
 40
0
 40
1
 40
1
 40
1
 40
1
 10
4.099111
 20
1.504333
 30
0.0
 10
4.109330
 20
1.482743
 30
0.0
 10
4.123594
 20
1.464286
 30
0.0
 10
4.141904
 20
1.448962
 30
0.0
  0
SPLINE
  5
313
100
AcDbEntity
  8
Capa_1
 62
7
100
AcDbSpline
 70
8
 71
3
 72
8
 73
4
 74
0
 40
0
 40
0
 40
0
 40
0
 40
1
 40
1
 40
1
 40
1
 10
4.141904
 20
1.448962
 30
0.0
 10
4.161491
 20
1.432548
 30
0.0
 10
4.184485
 20
1.419676
 30
0.0
 10
4.210885
 20
1.410345
 30
0.0
  0
SPLINE
  5
314
100
AcDbEntity
  8
Capa_1
 62
7
100
AcDbSpline
 70
8
 71
3
 72
8
 73
4
 74
0
 40
0
 40
0
 40
0
 40
0
 40
1
 40
1
 40
1
 40
1
 10
4.210885
 20
1.410345
 30
0.0
 10
4.237071
 20
1.401015
 30
0.0
 10
4.268049
 20
1.396349
 30
0.0
 10
4.303818
 20
1.396349
 30
0.0
  0
LWPOLYLINE
  5
315
100
AcDbEntity
  8
Capa_1
 62
7
100
AcDbPolyline
 90
3
 70
0
 10
4.044817
 20
1.874257
 30
0.0
 10
4.059188
 20
1.803255
 30
0.0
 10
4.063662
 20
1.803255
 30
0.0
  0
SPLINE
  5
316
100
AcDbEntity
  8
Capa_1
 62
7
100
AcDbSpline
 70
8
 71
3
 72
8
 73
4
 74
0
 40
0
 40
0
 40
0
 40
0
 40
1
 40
1
 40
1
 40
1
 10
3.856715
 20
1.396053
 30
0.0
 10
3.887586
 20
1.396053
 30
0.0
 10
3.916967
 20
1.399458
 30
0.0
 10
3.944858
 20
1.406269
 30
0.0
  0
SPLINE
  5
317
100
AcDbEntity
  8
Capa_1
 62
7
100
AcDbSpline
 70
8
 71
3
 72
8
 73
4
 74
0
 40
0
 40
0
 40
0
 40
0
 40
1
 40
1
 40
1
 40
1
 10
3.944858
 20
1.406269
 30
0.0
 10
3.972748
 20
1.413148
 30
0.0
 10
4.000106
 20
1.423602
 30
0.0
 10
4.026933
 20
1.437632
 30
0.0
  0
LWPOLYLINE
  5
318
100
AcDbEntity
  8
Capa_1
 62
7
100
AcDbPolyline
 90
2
 70
0
 10
4.303818
 20
1.396349
 30
0.0
 10
4.303814
 20
1.396053
 30
0.0
  0
SPLINE
  5
319
100
AcDbEntity
  8
Capa_1
 62
7
100
AcDbSpline
 70
8
 71
3
 72
8
 73
4
 74
0
 40
0
 40
0
 40
0
 40
0
 40
1
 40
1
 40
1
 40
1
 10
4.007131
 20
1.513333
 30
0.0
 10
3.986691
 20
1.493106
 30
0.0
 10
3.961675
 20
1.477543
 30
0.0
 10
3.932082
 20
1.466646
 30
0.0
  0
SPLINE
  5
31a
100
AcDbEntity
  8
Capa_1
 62
7
100
AcDbSpline
 70
8
 71
3
 72
8
 73
4
 74
0
 40
0
 40
0
 40
0
 40
0
 40
1
 40
1
 40
1
 40
1
 10
3.932082
 20
1.466646
 30
0.0
 10
3.902275
 20
1.455953
 30
0.0
 10
3.873533
 20
1.450607
 30
0.0
 10
3.845856
 20
1.450607
 30
0.0
  0
SPLINE
  5
31b
100
AcDbEntity
  8
Capa_1
 62
7
100
AcDbSpline
 70
8
 71
3
 72
8
 73
4
 74
0
 40
0
 40
0
 40
0
 40
0
 40
1
 40
1
 40
1
 40
1
 10
3.845856
 20
1.450607
 30
0.0
 10
3.800508
 20
1.450607
 30
0.0
 10
3.765805
 20
1.459937
 30
0.0
 10
3.741746
 20
1.478599
 30
0.0
  0
SPLINE
  5
31c
100
AcDbEntity
  8
Capa_1
 62
7
100
AcDbSpline
 70
8
 71
3
 72
8
 73
4
 74
0
 40
0
 40
0
 40
0
 40
0
 40
1
 40
1
 40
1
 40
1
 10
3.741746
 20
1.478599
 30
0.0
 10
3.717475
 20
1.497464
 30
0.0
 10
3.705340
 20
1.521472
 30
0.0
 10
3.705340
 20
1.550622
 30
0.0
  0
SPLINE
  5
31d
100
AcDbEntity
  8
Capa_1
 62
7
100
AcDbSpline
 70
8
 71
3
 72
8
 73
4
 74
0
 40
0
 40
0
 40
0
 40
0
 40
1
 40
1
 40
1
 40
1
 10
3.705340
 20
1.550622
 30
0.0
 10
3.705340
 20
1.565946
 30
0.0
 10
3.709704
 20
1.578716
 30
0.0
 10
3.718433
 20
1.588932
 30
0.0
  0
SPLINE
  5
31e
100
AcDbEntity
  8
Capa_1
 62
7
100
AcDbSpline
 70
8
 71
3
 72
8
 73
4
 74
0
 40
0
 40
0
 40
0
 40
0
 40
1
 40
1
 40
1
 40
1
 10
3.718433
 20
1.588932
 30
0.0
 10
3.726949
 20
1.599148
 30
0.0
 10
3.739510
 20
1.606708
 30
0.0
 10
3.756117
 20
1.611612
 30
0.0
  0
SPLINE
  5
31f
100
AcDbEntity
  8
Capa_1
 62
7
100
AcDbSpline
 70
8
 71
3
 72
8
 73
4
 74
0
 40
0
 40
0
 40
0
 40
0
 40
1
 40
1
 40
1
 40
1
 10
3.756117
 20
1.611612
 30
0.0
 10
3.769956
 20
1.615698
 30
0.0
 10
3.786456
 20
1.619478
 30
0.0
 10
3.805617
 20
1.622952
 30
0.0
  0
SPLINE
  5
320
100
AcDbEntity
  8
Capa_1
 62
7
100
AcDbSpline
 70
8
 71
3
 72
8
 73
4
 74
0
 40
0
 40
0
 40
0
 40
0
 40
1
 40
1
 40
1
 40
1
 10
3.805617
 20
1.622952
 30
0.0
 10
3.824566
 20
1.627038
 30
0.0
 10
3.842663
 20
1.631057
 30
0.0
 10
3.859908
 20
1.635007
 30
0.0
  0
SPLINE
  5
321
100
AcDbEntity
  8
Capa_1
 62
7
100
AcDbSpline
 70
8
 71
3
 72
8
 73
4
 74
0
 40
0
 40
0
 40
0
 40
0
 40
1
 40
1
 40
1
 40
1
 10
3.859908
 20
1.635007
 30
0.0
 10
3.893334
 20
1.642771
 30
0.0
 10
3.919202
 20
1.656120
 30
0.0
 10
3.937511
 20
1.675054
 30
0.0
  0
SPLINE
  5
322
100
AcDbEntity
  8
Capa_1
 62
7
100
AcDbSpline
 70
8
 71
3
 72
8
 73
4
 74
0
 40
0
 40
0
 40
0
 40
0
 40
1
 40
1
 40
1
 40
1
 10
3.937511
 20
1.675054
 30
0.0
 10
3.955821
 20
1.693919
 30
0.0
 10
3.964976
 20
1.717348
 30
0.0
 10
3.964976
 20
1.745340
 30
0.0
  0
SPLINE
  5
323
100
AcDbEntity
  8
Capa_1
 62
7
100
AcDbSpline
 70
8
 71
3
 72
8
 73
4
 74
0
 40
0
 40
0
 40
0
 40
0
 40
1
 40
1
 40
1
 40
1
 10
3.964976
 20
1.745340
 30
0.0
 10
3.964976
 20
1.792675
 30
0.0
 10
3.945815
 20
1.832003
 30
0.0
 10
3.907492
 20
1.863326
 30
0.0
  0
SPLINE
  5
324
100
AcDbEntity
  8
Capa_1
 62
7
100
AcDbSpline
 70
8
 71
3
 72
8
 73
4
 74
0
 40
0
 40
0
 40
0
 40
0
 40
1
 40
1
 40
1
 40
1
 10
3.907492
 20
1.863326
 30
0.0
 10
3.868956
 20
1.894859
 30
0.0
 10
3.819243
 20
1.910626
 30
0.0
 10
3.758353
 20
1.910626
 30
0.0
  0
SPLINE
  5
325
100
AcDbEntity
  8
Capa_1
 62
7
100
AcDbSpline
 70
8
 71
3
 72
8
 73
4
 74
0
 40
0
 40
0
 40
0
 40
0
 40
1
 40
1
 40
1
 40
1
 10
3.758353
 20
1.910626
 30
0.0
 10
3.725140
 20
1.910626
 30
0.0
 10
3.695014
 20
1.906948
 30
0.0
 10
3.667975
 20
1.899593
 30
0.0
  0
SPLINE
  5
326
100
AcDbEntity
  8
Capa_1
 62
7
100
AcDbSpline
 70
8
 71
3
 72
8
 73
4
 74
0
 40
0
 40
0
 40
0
 40
0
 40
1
 40
1
 40
1
 40
1
 10
3.667975
 20
1.899593
 30
0.0
 10
3.640724
 20
1.892509
 30
0.0
 10
3.617304
 20
1.884064
 30
0.0
 10
3.597717
 20
1.874257
 30
0.0
  0
LWPOLYLINE
  5
327
100
AcDbEntity
  8
Capa_1
 62
7
100
AcDbPolyline
 90
3
 70
0
 10
4.026933
 20
1.437632
 30
0.0
 10
4.011604
 20
1.513333
 30
0.0
 10
4.007131
 20
1.513333
 30
0.0
  0
SPLINE
  5
328
100
AcDbEntity
  8
Capa_1
 62
7
100
AcDbSpline
 70
8
 71
3
 72
8
 73
4
 74
0
 40
0
 40
0
 40
0
 40
0
 40
1
 40
1
 40
1
 40
1
 10
3.616562
 20
1.803255
 30
0.0
 10
3.631678
 20
1.817694
 30
0.0
 10
3.653288
 20
1.830123
 30
0.0
 10
3.681391
 20
1.840544
 30
0.0
  0
SPLINE
  5
329
100
AcDbEntity
  8
Capa_1
 62
7
100
AcDbSpline
 70
8
 71
3
 72
8
 73
4
 74
0
 40
0
 40
0
 40
0
 40
0
 40
1
 40
1
 40
1
 40
1
 10
3.681391
 20
1.840544
 30
0.0
 10
3.709282
 20
1.850964
 30
0.0
 10
3.738663
 20
1.856174
 30
0.0
 10
3.769534
 20
1.856174
 30
0.0
  0
SPLINE
  5
32a
100
AcDbEntity
  8
Capa_1
 62
7
100
AcDbSpline
 70
8
 71
3
 72
8
 73
4
 74
0
 40
0
 40
0
 40
0
 40
0
 40
1
 40
1
 40
1
 40
1
 10
3.769534
 20
1.856174
 30
0.0
 10
3.808283
 20
1.856174
 30
0.0
 10
3.839260
 20
1.847286
 30
0.0
 10
3.862466
 20
1.829510
 30
0.0
  0
SPLINE
  5
32b
100
AcDbEntity
  8
Capa_1
 62
7
100
AcDbSpline
 70
8
 71
3
 72
8
 73
4
 74
0
 40
0
 40
0
 40
0
 40
0
 40
1
 40
1
 40
1
 40
1
 10
3.862466
 20
1.829510
 30
0.0
 10
3.885460
 20
1.811734
 30
0.0
 10
3.896957
 20
1.789191
 30
0.0
 10
3.896957
 20
1.761880
 30
0.0
  0
SPLINE
  5
32c
100
AcDbEntity
  8
Capa_1
 62
7
100
AcDbSpline
 70
8
 71
3
 72
8
 73
4
 74
0
 40
0
 40
0
 40
0
 40
0
 40
1
 40
1
 40
1
 40
1
 10
3.896957
 20
1.761880
 30
0.0
 10
3.896957
 20
1.747237
 30
0.0
 10
3.892805
 20
1.734365
 30
0.0
 10
3.884502
 20
1.723263
 30
0.0
  0
SPLINE
  5
32d
100
AcDbEntity
  8
Capa_1
 62
7
100
AcDbSpline
 70
8
 71
3
 72
8
 73
4
 74
0
 40
0
 40
0
 40
0
 40
0
 40
1
 40
1
 40
1
 40
1
 10
3.884502
 20
1.723263
 30
0.0
 10
3.876199
 20
1.712162
 30
0.0
 10
3.861402
 20
1.703819
 30
0.0
 10
3.840111
 20
1.698234
 30
0.0
  0
SPLINE
  5
32e
100
AcDbEntity
  8
Capa_1
 62
7
100
AcDbSpline
 70
8
 71
3
 72
8
 73
4
 74
0
 40
0
 40
0
 40
0
 40
0
 40
1
 40
1
 40
1
 40
1
 10
3.840111
 20
1.698234
 30
0.0
 10
3.826486
 20
1.694829
 30
0.0
 10
3.808389
 20
1.690708
 30
0.0
 10
3.785820
 20
1.685873
 30
0.0
  0
SPLINE
  5
32f
100
AcDbEntity
  8
Capa_1
 62
7
100
AcDbSpline
 70
8
 71
3
 72
8
 73
4
 74
0
 40
0
 40
0
 40
0
 40
0
 40
1
 40
1
 40
1
 40
1
 10
3.785820
 20
1.685873
 30
0.0
 10
3.763252
 20
1.681105
 30
0.0
 10
3.744304
 20
1.676678
 30
0.0
 10
3.728974
 20
1.672592
 30
0.0
  0
SPLINE
  5
330
100
AcDbEntity
  8
Capa_1
 62
7
100
AcDbSpline
 70
8
 71
3
 72
8
 73
4
 74
0
 40
0
 40
0
 40
0
 40
0
 40
1
 40
1
 40
1
 40
1
 10
3.728974
 20
1.672592
 30
0.0
 10
3.698742
 20
1.663942
 30
0.0
 10
3.675855
 20
1.651070
 30
0.0
 10
3.660313
 20
1.633975
 30
0.0
  0
SPLINE
  5
331
100
AcDbEntity
  8
Capa_1
 62
7
100
AcDbSpline
 70
8
 71
3
 72
8
 73
4
 74
0
 40
0
 40
0
 40
0
 40
0
 40
1
 40
1
 40
1
 40
1
 10
3.660313
 20
1.633975
 30
0.0
 10
3.644558
 20
1.616880
 30
0.0
 10
3.636681
 20
1.595324
 30
0.0
 10
3.636681
 20
1.569307
 30
0.0
  0
SPLINE
  5
332
100
AcDbEntity
  8
Capa_1
 62
7
100
AcDbSpline
 70
8
 71
3
 72
8
 73
4
 74
0
 40
0
 40
0
 40
0
 40
0
 40
1
 40
1
 40
1
 40
1
 10
3.636681
 20
1.569307
 30
0.0
 10
3.636681
 20
1.547513
 30
0.0
 10
3.641790
 20
1.525855
 30
0.0
 10
3.652009
 20
1.504333
 30
0.0
  0
SPLINE
  5
333
100
AcDbEntity
  8
Capa_1
 62
7
100
AcDbSpline
 70
8
 71
3
 72
8
 73
4
 74
0
 40
0
 40
0
 40
0
 40
0
 40
1
 40
1
 40
1
 40
1
 10
3.652009
 20
1.504333
 30
0.0
 10
3.662229
 20
1.482743
 30
0.0
 10
3.676493
 20
1.464286
 30
0.0
 10
3.694803
 20
1.448962
 30
0.0
  0
SPLINE
  5
334
100
AcDbEntity
  8
Capa_1
 62
7
100
AcDbSpline
 70
8
 71
3
 72
8
 73
4
 74
0
 40
0
 40
0
 40
0
 40
0
 40
1
 40
1
 40
1
 40
1
 10
3.694803
 20
1.448962
 30
0.0
 10
3.714390
 20
1.432548
 30
0.0
 10
3.737384
 20
1.419676
 30
0.0
 10
3.763783
 20
1.410345
 30
0.0
  0
SPLINE
  5
335
100
AcDbEntity
  8
Capa_1
 62
7
100
AcDbSpline
 70
8
 71
3
 72
8
 73
4
 74
0
 40
0
 40
0
 40
0
 40
0
 40
1
 40
1
 40
1
 40
1
 10
3.763783
 20
1.410345
 30
0.0
 10
3.789970
 20
1.401015
 30
0.0
 10
3.820948
 20
1.396349
 30
0.0
 10
3.856715
 20
1.396349
 30
0.0
  0
LWPOLYLINE
  5
336
100
AcDbEntity
  8
Capa_1
 62
7
100
AcDbPolyline
 90
3
 70
0
 10
3.597717
 20
1.874257
 30
0.0
 10
3.612089
 20
1.803255
 30
0.0
 10
3.616562
 20
1.803255
 30
0.0
  0
SPLINE
  5
337
100
AcDbEntity
  8
Capa_1
 62
7
100
AcDbSpline
 70
8
 71
3
 72
8
 73
4
 74
0
 40
0
 40
0
 40
0
 40
0
 40
1
 40
1
 40
1
 40
1
 10
4.490956
 20
-0.310469
 30
0.0
 10
4.521827
 20
-0.310469
 30
0.0
 10
4.551208
 20
-0.307064
 30
0.0
 10
4.579099
 20
-0.300253
 30
0.0
  0
SPLINE
  5
338
100
AcDbEntity
  8
Capa_1
 62
7
100
AcDbSpline
 70
8
 71
3
 72
8
 73
4
 74
0
 40
0
 40
0
 40
0
 40
0
 40
1
 40
1
 40
1
 40
1
 10
4.579099
 20
-0.300253
 30
0.0
 10
4.606989
 20
-0.293374
 30
0.0
 10
4.634348
 20
-0.282920
 30
0.0
 10
4.661173
 20
-0.268890
 30
0.0
  0
LWPOLYLINE
  5
339
100
AcDbEntity
  8
Capa_1
 62
7
100
AcDbPolyline
 90
2
 70
0
 10
3.856715
 20
1.396349
 30
0.0
 10
3.856715
 20
1.396053
 30
0.0
  0
SPLINE
  5
33a
100
AcDbEntity
  8
Capa_1
 62
7
100
AcDbSpline
 70
8
 71
3
 72
8
 73
4
 74
0
 40
0
 40
0
 40
0
 40
0
 40
1
 40
1
 40
1
 40
1
 10
4.641371
 20
-0.193189
 30
0.0
 10
4.620932
 20
-0.213416
 30
0.0
 10
4.595916
 20
-0.228979
 30
0.0
 10
4.566323
 20
-0.239876
 30
0.0
  0
SPLINE
  5
33b
100
AcDbEntity
  8
Capa_1
 62
7
100
AcDbSpline
 70
8
 71
3
 72
8
 73
4
 74
0
 40
0
 40
0
 40
0
 40
0
 40
1
 40
1
 40
1
 40
1
 10
4.566323
 20
-0.239876
 30
0.0
 10
4.536516
 20
-0.250569
 30
0.0
 10
4.507774
 20
-0.255915
 30
0.0
 10
4.480097
 20
-0.255915
 30
0.0
  0
SPLINE
  5
33c
100
AcDbEntity
  8
Capa_1
 62
7
100
AcDbSpline
 70
8
 71
3
 72
8
 73
4
 74
0
 40
0
 40
0
 40
0
 40
0
 40
1
 40
1
 40
1
 40
1
 10
4.480097
 20
-0.255915
 30
0.0
 10
4.434749
 20
-0.255915
 30
0.0
 10
4.400045
 20
-0.246585
 30
0.0
 10
4.375987
 20
-0.227923
 30
0.0
  0
SPLINE
  5
33d
100
AcDbEntity
  8
Capa_1
 62
7
100
AcDbSpline
 70
8
 71
3
 72
8
 73
4
 74
0
 40
0
 40
0
 40
0
 40
0
 40
1
 40
1
 40
1
 40
1
 10
4.375987
 20
-0.227923
 30
0.0
 10
4.351716
 20
-0.209058
 30
0.0
 10
4.339580
 20
-0.185050
 30
0.0
 10
4.339580
 20
-0.155900
 30
0.0
  0
SPLINE
  5
33e
100
AcDbEntity
  8
Capa_1
 62
7
100
AcDbSpline
 70
8
 71
3
 72
8
 73
4
 74
0
 40
0
 40
0
 40
0
 40
0
 40
1
 40
1
 40
1
 40
1
 10
4.339580
 20
-0.155900
 30
0.0
 10
4.339580
 20
-0.140576
 30
0.0
 10
4.343945
 20
-0.127806
 30
0.0
 10
4.352674
 20
-0.117590
 30
0.0
  0
SPLINE
  5
33f
100
AcDbEntity
  8
Capa_1
 62
7
100
AcDbSpline
 70
8
 71
3
 72
8
 73
4
 74
0
 40
0
 40
0
 40
0
 40
0
 40
1
 40
1
 40
1
 40
1
 10
4.352674
 20
-0.117590
 30
0.0
 10
4.361190
 20
-0.107374
 30
0.0
 10
4.373752
 20
-0.099814
 30
0.0
 10
4.390358
 20
-0.094910
 30
0.0
  0
SPLINE
  5
340
100
AcDbEntity
  8
Capa_1
 62
7
100
AcDbSpline
 70
8
 71
3
 72
8
 73
4
 74
0
 40
0
 40
0
 40
0
 40
0
 40
1
 40
1
 40
1
 40
1
 10
4.390358
 20
-0.094910
 30
0.0
 10
4.404197
 20
-0.090824
 30
0.0
 10
4.420697
 20
-0.087044
 30
0.0
 10
4.439859
 20
-0.083570
 30
0.0
  0
SPLINE
  5
341
100
AcDbEntity
  8
Capa_1
 62
7
100
AcDbSpline
 70
8
 71
3
 72
8
 73
4
 74
0
 40
0
 40
0
 40
0
 40
0
 40
1
 40
1
 40
1
 40
1
 10
4.439859
 20
-0.083570
 30
0.0
 10
4.458807
 20
-0.079484
 30
0.0
 10
4.476904
 20
-0.075465
 30
0.0
 10
4.494150
 20
-0.071515
 30
0.0
  0
SPLINE
  5
342
100
AcDbEntity
  8
Capa_1
 62
7
100
AcDbSpline
 70
8
 71
3
 72
8
 73
4
 74
0
 40
0
 40
0
 40
0
 40
0
 40
1
 40
1
 40
1
 40
1
 10
4.494150
 20
-0.071515
 30
0.0
 10
4.527575
 20
-0.063751
 30
0.0
 10
4.553443
 20
-0.050402
 30
0.0
 10
4.571753
 20
-0.031468
 30
0.0
  0
SPLINE
  5
343
100
AcDbEntity
  8
Capa_1
 62
7
100
AcDbSpline
 70
8
 71
3
 72
8
 73
4
 74
0
 40
0
 40
0
 40
0
 40
0
 40
1
 40
1
 40
1
 40
1
 10
4.571753
 20
-0.031468
 30
0.0
 10
4.590063
 20
-0.012603
 30
0.0
 10
4.599217
 20
0.010826
 30
0.0
 10
4.599217
 20
0.038818
 30
0.0
  0
SPLINE
  5
344
100
AcDbEntity
  8
Capa_1
 62
7
100
AcDbSpline
 70
8
 71
3
 72
8
 73
4
 74
0
 40
0
 40
0
 40
0
 40
0
 40
1
 40
1
 40
1
 40
1
 10
4.599217
 20
0.038818
 30
0.0
 10
4.599217
 20
0.086153
 30
0.0
 10
4.580056
 20
0.125481
 30
0.0
 10
4.541733
 20
0.156804
 30
0.0
  0
SPLINE
  5
345
100
AcDbEntity
  8
Capa_1
 62
7
100
AcDbSpline
 70
8
 71
3
 72
8
 73
4
 74
0
 40
0
 40
0
 40
0
 40
0
 40
1
 40
1
 40
1
 40
1
 10
4.541733
 20
0.156804
 30
0.0
 10
4.503198
 20
0.188337
 30
0.0
 10
4.453485
 20
0.204104
 30
0.0
 10
4.392594
 20
0.204104
 30
0.0
  0
SPLINE
  5
346
100
AcDbEntity
  8
Capa_1
 62
7
100
AcDbSpline
 70
8
 71
3
 72
8
 73
4
 74
0
 40
0
 40
0
 40
0
 40
0
 40
1
 40
1
 40
1
 40
1
 10
4.392594
 20
0.204104
 30
0.0
 10
4.359381
 20
0.204104
 30
0.0
 10
4.329255
 20
0.200426
 30
0.0
 10
4.302216
 20
0.193071
 30
0.0
  0
SPLINE
  5
347
100
AcDbEntity
  8
Capa_1
 62
7
100
AcDbSpline
 70
8
 71
3
 72
8
 73
4
 74
0
 40
0
 40
0
 40
0
 40
0
 40
1
 40
1
 40
1
 40
1
 10
4.302216
 20
0.193071
 30
0.0
 10
4.274964
 20
0.185987
 30
0.0
 10
4.251545
 20
0.177542
 30
0.0
 10
4.231958
 20
0.167735
 30
0.0
  0
LWPOLYLINE
  5
348
100
AcDbEntity
  8
Capa_1
 62
7
100
AcDbPolyline
 90
3
 70
0
 10
4.661173
 20
-0.268890
 30
0.0
 10
4.645845
 20
-0.193189
 30
0.0
 10
4.641371
 20
-0.193189
 30
0.0
  0
SPLINE
  5
349
100
AcDbEntity
  8
Capa_1
 62
7
100
AcDbSpline
 70
8
 71
3
 72
8
 73
4
 74
0
 40
0
 40
0
 40
0
 40
0
 40
1
 40
1
 40
1
 40
1
 10
4.250803
 20
0.096733
 30
0.0
 10
4.265919
 20
0.111172
 30
0.0
 10
4.287529
 20
0.123601
 30
0.0
 10
4.315632
 20
0.134022
 30
0.0
  0
SPLINE
  5
34a
100
AcDbEntity
  8
Capa_1
 62
7
100
AcDbSpline
 70
8
 71
3
 72
8
 73
4
 74
0
 40
0
 40
0
 40
0
 40
0
 40
1
 40
1
 40
1
 40
1
 10
4.315632
 20
0.134022
 30
0.0
 10
4.343523
 20
0.144442
 30
0.0
 10
4.372904
 20
0.149652
 30
0.0
 10
4.403775
 20
0.149652
 30
0.0
  0
SPLINE
  5
34b
100
AcDbEntity
  8
Capa_1
 62
7
100
AcDbSpline
 70
8
 71
3
 72
8
 73
4
 74
0
 40
0
 40
0
 40
0
 40
0
 40
1
 40
1
 40
1
 40
1
 10
4.403775
 20
0.149652
 30
0.0
 10
4.442524
 20
0.149652
 30
0.0
 10
4.473501
 20
0.140764
 30
0.0
 10
4.496707
 20
0.122988
 30
0.0
  0
SPLINE
  5
34c
100
AcDbEntity
  8
Capa_1
 62
7
100
AcDbSpline
 70
8
 71
3
 72
8
 73
4
 74
0
 40
0
 40
0
 40
0
 40
0
 40
1
 40
1
 40
1
 40
1
 10
4.496707
 20
0.122988
 30
0.0
 10
4.519701
 20
0.105212
 30
0.0
 10
4.531198
 20
0.082669
 30
0.0
 10
4.531198
 20
0.055358
 30
0.0
  0
SPLINE
  5
34d
100
AcDbEntity
  8
Capa_1
 62
7
100
AcDbSpline
 70
8
 71
3
 72
8
 73
4
 74
0
 40
0
 40
0
 40
0
 40
0
 40
1
 40
1
 40
1
 40
1
 10
4.531198
 20
0.055358
 30
0.0
 10
4.531198
 20
0.040715
 30
0.0
 10
4.527046
 20
0.027843
 30
0.0
 10
4.518743
 20
0.016741
 30
0.0
  0
SPLINE
  5
34e
100
AcDbEntity
  8
Capa_1
 62
7
100
AcDbSpline
 70
8
 71
3
 72
8
 73
4
 74
0
 40
0
 40
0
 40
0
 40
0
 40
1
 40
1
 40
1
 40
1
 10
4.518743
 20
0.016741
 30
0.0
 10
4.510439
 20
0.005640
 30
0.0
 10
4.495643
 20
-0.002703
 30
0.0
 10
4.474353
 20
-0.008288
 30
0.0
  0
SPLINE
  5
34f
100
AcDbEntity
  8
Capa_1
 62
7
100
AcDbSpline
 70
8
 71
3
 72
8
 73
4
 74
0
 40
0
 40
0
 40
0
 40
0
 40
1
 40
1
 40
1
 40
1
 10
4.474353
 20
-0.008288
 30
0.0
 10
4.460727
 20
-0.011693
 30
0.0
 10
4.442630
 20
-0.015814
 30
0.0
 10
4.420062
 20
-0.020649
 30
0.0
  0
SPLINE
  5
350
100
AcDbEntity
  8
Capa_1
 62
7
100
AcDbSpline
 70
8
 71
3
 72
8
 73
4
 74
0
 40
0
 40
0
 40
0
 40
0
 40
1
 40
1
 40
1
 40
1
 10
4.420062
 20
-0.020649
 30
0.0
 10
4.397494
 20
-0.025417
 30
0.0
 10
4.378546
 20
-0.029878
 30
0.0
 10
4.363216
 20
-0.034033
 30
0.0
  0
SPLINE
  5
351
100
AcDbEntity
  8
Capa_1
 62
7
100
AcDbSpline
 70
8
 71
3
 72
8
 73
4
 74
0
 40
0
 40
0
 40
0
 40
0
 40
1
 40
1
 40
1
 40
1
 10
4.363216
 20
-0.034033
 30
0.0
 10
4.332984
 20
-0.042682
 30
0.0
 10
4.310097
 20
-0.055554
 30
0.0
 10
4.294555
 20
-0.072649
 30
0.0
  0
SPLINE
  5
352
100
AcDbEntity
  8
Capa_1
 62
7
100
AcDbSpline
 70
8
 71
3
 72
8
 73
4
 74
0
 40
0
 40
0
 40
0
 40
0
 40
1
 40
1
 40
1
 40
1
 10
4.294555
 20
-0.072649
 30
0.0
 10
4.278800
 20
-0.089744
 30
0.0
 10
4.270922
 20
-0.111300
 30
0.0
 10
4.270922
 20
-0.137317
 30
0.0
  0
SPLINE
  5
353
100
AcDbEntity
  8
Capa_1
 62
7
100
AcDbSpline
 70
8
 71
3
 72
8
 73
4
 74
0
 40
0
 40
0
 40
0
 40
0
 40
1
 40
1
 40
1
 40
1
 10
4.270922
 20
-0.137317
 30
0.0
 10
4.270922
 20
-0.159111
 30
0.0
 10
4.276032
 20
-0.180769
 30
0.0
 10
4.286251
 20
-0.202291
 30
0.0
  0
SPLINE
  5
354
100
AcDbEntity
  8
Capa_1
 62
7
100
AcDbSpline
 70
8
 71
3
 72
8
 73
4
 74
0
 40
0
 40
0
 40
0
 40
0
 40
1
 40
1
 40
1
 40
1
 10
4.286251
 20
-0.202291
 30
0.0
 10
4.296470
 20
-0.223881
 30
0.0
 10
4.310735
 20
-0.242338
 30
0.0
 10
4.329044
 20
-0.257662
 30
0.0
  0
SPLINE
  5
355
100
AcDbEntity
  8
Capa_1
 62
7
100
AcDbSpline
 70
8
 71
3
 72
8
 73
4
 74
0
 40
0
 40
0
 40
0
 40
0
 40
1
 40
1
 40
1
 40
1
 10
4.329044
 20
-0.257662
 30
0.0
 10
4.348632
 20
-0.274076
 30
0.0
 10
4.371625
 20
-0.286948
 30
0.0
 10
4.398025
 20
-0.296279
 30
0.0
  0
SPLINE
  5
356
100
AcDbEntity
  8
Capa_1
 62
7
100
AcDbSpline
 70
8
 71
3
 72
8
 73
4
 74
0
 40
0
 40
0
 40
0
 40
0
 40
1
 40
1
 40
1
 40
1
 10
4.398025
 20
-0.296279
 30
0.0
 10
4.424212
 20
-0.305610
 30
0.0
 10
4.455189
 20
-0.310275
 30
0.0
 10
4.490957
 20
-0.310275
 30
0.0
  0
LWPOLYLINE
  5
357
100
AcDbEntity
  8
Capa_1
 62
7
100
AcDbPolyline
 90
3
 70
0
 10
4.231958
 20
0.167735
 30
0.0
 10
4.246330
 20
0.096733
 30
0.0
 10
4.250803
 20
0.096733
 30
0.0
  0
SPLINE
  5
358
100
AcDbEntity
  8
Capa_1
 62
7
100
AcDbSpline
 70
8
 71
3
 72
8
 73
4
 74
0
 40
0
 40
0
 40
0
 40
0
 40
1
 40
1
 40
1
 40
1
 10
3.994997
 20
-0.310469
 30
0.0
 10
4.055248
 20
-0.310469
 30
0.0
 10
4.102513
 20
-0.294259
 30
0.0
 10
4.136790
 20
-0.261841
 30
0.0
  0
SPLINE
  5
359
100
AcDbEntity
  8
Capa_1
 62
7
100
AcDbSpline
 70
8
 71
3
 72
8
 73
4
 74
0
 40
0
 40
0
 40
0
 40
0
 40
1
 40
1
 40
1
 40
1
 10
4.136790
 20
-0.261841
 30
0.0
 10
4.171068
 20
-0.229149
 30
0.0
 10
4.188207
 20
-0.182932
 30
0.0
 10
4.188207
 20
-0.123188
 30
0.0
  0
SPLINE
  5
35a
100
AcDbEntity
  8
Capa_1
 62
7
100
AcDbSpline
 70
8
 71
3
 72
8
 73
4
 74
0
 40
0
 40
0
 40
0
 40
0
 40
1
 40
1
 40
1
 40
1
 10
4.188207
 20
-0.123188
 30
0.0
 10
4.188207
 20
-0.077420
 30
0.0
 10
4.181606
 20
-0.034754
 30
0.0
 10
4.168406
 20
0.004809
 30
0.0
  0
SPLINE
  5
35b
100
AcDbEntity
  8
Capa_1
 62
7
100
AcDbSpline
 70
8
 71
3
 72
8
 73
4
 74
0
 40
0
 40
0
 40
0
 40
0
 40
1
 40
1
 40
1
 40
1
 10
4.168406
 20
0.004809
 30
0.0
 10
4.155206
 20
0.044379
 30
0.0
 10
4.136258
 20
0.079042
 30
0.0
 10
4.111561
 20
0.108798
 30
0.0
  0
SPLINE
  5
35c
100
AcDbEntity
  8
Capa_1
 62
7
100
AcDbSpline
 70
8
 71
3
 72
8
 73
4
 74
0
 40
0
 40
0
 40
0
 40
0
 40
1
 40
1
 40
1
 40
1
 10
4.111561
 20
0.108798
 30
0.0
 10
4.087077
 20
0.138152
 30
0.0
 10
4.056951
 20
0.161275
 30
0.0
 10
4.021183
 20
0.178165
 30
0.0
  0
SPLINE
  5
35d
100
AcDbEntity
  8
Capa_1
 62
7
100
AcDbSpline
 70
8
 71
3
 72
8
 73
4
 74
0
 40
0
 40
0
 40
0
 40
0
 40
1
 40
1
 40
1
 40
1
 10
4.021183
 20
0.178165
 30
0.0
 10
3.985415
 20
0.195260
 30
0.0
 10
3.945496
 20
0.203808
 30
0.0
 10
3.901425
 20
0.203808
 30
0.0
  0
SPLINE
  5
35e
100
AcDbEntity
  8
Capa_1
 62
7
100
AcDbSpline
 70
8
 71
3
 72
8
 73
4
 74
0
 40
0
 40
0
 40
0
 40
0
 40
1
 40
1
 40
1
 40
1
 10
3.901425
 20
0.203808
 30
0.0
 10
3.873960
 20
0.203808
 30
0.0
 10
3.847986
 20
0.200266
 30
0.0
 10
3.823502
 20
0.193183
 30
0.0
  0
SPLINE
  5
35f
100
AcDbEntity
  8
Capa_1
 62
7
100
AcDbSpline
 70
8
 71
3
 72
8
 73
4
 74
0
 40
0
 40
0
 40
0
 40
0
 40
1
 40
1
 40
1
 40
1
 10
3.823502
 20
0.193183
 30
0.0
 10
3.799018
 20
0.186304
 30
0.0
 10
3.773896
 20
0.175305
 30
0.0
 10
3.748135
 20
0.160185
 30
0.0
  0
LWPOLYLINE
  5
360
100
AcDbEntity
  8
Capa_1
 62
7
100
AcDbPolyline
 90
2
 70
0
 10
4.490957
 20
-0.310275
 30
0.0
 10
4.490956
 20
-0.310469
 30
0.0
  0
SPLINE
  5
361
100
AcDbEntity
  8
Capa_1
 62
7
100
AcDbSpline
 70
8
 71
3
 72
8
 73
4
 74
0
 40
0
 40
0
 40
0
 40
0
 40
1
 40
1
 40
1
 40
1
 10
3.767293
 20
0.085506
 30
0.0
 10
3.774318
 20
0.092861
 30
0.0
 10
3.781451
 20
0.099638
 30
0.0
 10
3.788690
 20
0.105836
 30
0.0
  0
SPLINE
  5
362
100
AcDbEntity
  8
Capa_1
 62
7
100
AcDbSpline
 70
8
 71
3
 72
8
 73
4
 74
0
 40
0
 40
0
 40
0
 40
0
 40
1
 40
1
 40
1
 40
1
 10
3.788690
 20
0.105836
 30
0.0
 10
3.795715
 20
0.111965
 30
0.0
 10
3.806361
 20
0.118980
 30
0.0
 10
3.820626
 20
0.126881
 30
0.0
  0
SPLINE
  5
363
100
AcDbEntity
  8
Capa_1
 62
7
100
AcDbSpline
 70
8
 71
3
 72
8
 73
4
 74
0
 40
0
 40
0
 40
0
 40
0
 40
1
 40
1
 40
1
 40
1
 10
3.820626
 20
0.126881
 30
0.0
 10
3.832335
 20
0.133010
 30
0.0
 10
3.846280
 20
0.138357
 30
0.0
 10
3.862461
 20
0.142920
 30
0.0
  0
SPLINE
  5
364
100
AcDbEntity
  8
Capa_1
 62
7
100
AcDbSpline
 70
8
 71
3
 72
8
 73
4
 74
0
 40
0
 40
0
 40
0
 40
0
 40
1
 40
1
 40
1
 40
1
 10
3.862461
 20
0.142920
 30
0.0
 10
3.878641
 20
0.147687
 30
0.0
 10
3.896525
 20
0.150071
 30
0.0
 10
3.916113
 20
0.150071
 30
0.0
  0
SPLINE
  5
365
100
AcDbEntity
  8
Capa_1
 62
7
100
AcDbSpline
 70
8
 71
3
 72
8
 73
4
 74
0
 40
0
 40
0
 40
0
 40
0
 40
1
 40
1
 40
1
 40
1
 10
3.916113
 20
0.150071
 30
0.0
 10
3.945919
 20
0.150071
 30
0.0
 10
3.973277
 20
0.143533
 30
0.0
 10
3.998187
 20
0.130456
 30
0.0
  0
SPLINE
  5
366
100
AcDbEntity
  8
Capa_1
 62
7
100
AcDbSpline
 70
8
 71
3
 72
8
 73
4
 74
0
 40
0
 40
0
 40
0
 40
0
 40
1
 40
1
 40
1
 40
1
 10
3.998187
 20
0.130456
 30
0.0
 10
4.023097
 20
0.117584
 30
0.0
 10
4.044707
 20
0.099468
 30
0.0
 10
4.063016
 20
0.076107
 30
0.0
  0
SPLINE
  5
367
100
AcDbEntity
  8
Capa_1
 62
7
100
AcDbSpline
 70
8
 71
3
 72
8
 73
4
 74
0
 40
0
 40
0
 40
0
 40
0
 40
1
 40
1
 40
1
 40
1
 10
4.063016
 20
0.076107
 30
0.0
 10
4.080900
 20
0.053427
 30
0.0
 10
4.094952
 20
0.025878
 30
0.0
 10
4.105172
 20
-0.006541
 30
0.0
  0
SPLINE
  5
368
100
AcDbEntity
  8
Capa_1
 62
7
100
AcDbSpline
 70
8
 71
3
 72
8
 73
4
 74
0
 40
0
 40
0
 40
0
 40
0
 40
1
 40
1
 40
1
 40
1
 10
4.105172
 20
-0.006541
 30
0.0
 10
4.115391
 20
-0.038960
 30
0.0
 10
4.120500
 20
-0.073511
 30
0.0
 10
4.120500
 20
-0.110193
 30
0.0
  0
SPLINE
  5
369
100
AcDbEntity
  8
Capa_1
 62
7
100
AcDbSpline
 70
8
 71
3
 72
8
 73
4
 74
0
 40
0
 40
0
 40
0
 40
0
 40
1
 40
1
 40
1
 40
1
 10
4.120500
 20
-0.110193
 30
0.0
 10
4.120500
 20
-0.155961
 30
0.0
 10
4.109110
 20
-0.191626
 30
0.0
 10
4.086330
 20
-0.217186
 30
0.0
  0
SPLINE
  5
36a
100
AcDbEntity
  8
Capa_1
 62
7
100
AcDbSpline
 70
8
 71
3
 72
8
 73
4
 74
0
 40
0
 40
0
 40
0
 40
0
 40
1
 40
1
 40
1
 40
1
 10
4.086330
 20
-0.217186
 30
0.0
 10
4.063549
 20
-0.242522
 30
0.0
 10
4.030656
 20
-0.255190
 30
0.0
 10
3.987649
 20
-0.255190
 30
0.0
  0
SPLINE
  5
36b
100
AcDbEntity
  8
Capa_1
 62
7
100
AcDbSpline
 70
8
 71
3
 72
8
 73
4
 74
0
 40
0
 40
0
 40
0
 40
0
 40
1
 40
1
 40
1
 40
1
 10
3.987649
 20
-0.255190
 30
0.0
 10
3.967423
 20
-0.255190
 30
0.0
 10
3.948262
 20
-0.252806
 30
0.0
 10
3.930165
 20
-0.248039
 30
0.0
  0
SPLINE
  5
36c
100
AcDbEntity
  8
Capa_1
 62
7
100
AcDbSpline
 70
8
 71
3
 72
8
 73
4
 74
0
 40
0
 40
0
 40
0
 40
0
 40
1
 40
1
 40
1
 40
1
 10
3.930165
 20
-0.248039
 30
0.0
 10
3.911855
 20
-0.243271
 30
0.0
 10
3.895249
 20
-0.237176
 30
0.0
 10
3.880345
 20
-0.229752
 30
0.0
  0
SPLINE
  5
36d
100
AcDbEntity
  8
Capa_1
 62
7
100
AcDbSpline
 70
8
 71
3
 72
8
 73
4
 74
0
 40
0
 40
0
 40
0
 40
0
 40
1
 40
1
 40
1
 40
1
 10
3.880345
 20
-0.229752
 30
0.0
 10
3.866506
 20
-0.222873
 30
0.0
 10
3.854051
 20
-0.215654
 30
0.0
 10
3.842981
 20
-0.208094
 30
0.0
  0
SPLINE
  5
36e
100
AcDbEntity
  8
Capa_1
 62
7
100
AcDbSpline
 70
8
 71
3
 72
8
 73
4
 74
0
 40
0
 40
0
 40
0
 40
0
 40
1
 40
1
 40
1
 40
1
 10
3.842981
 20
-0.208094
 30
0.0
 10
3.831910
 20
-0.200534
 30
0.0
 10
3.822435
 20
-0.193553
 30
0.0
 10
3.814558
 20
-0.187151
 30
0.0
  0
LWPOLYLINE
  5
36f
100
AcDbEntity
  8
Capa_1
 62
7
100
AcDbPolyline
 90
3
 70
0
 10
3.748135
 20
0.160185
 30
0.0
 10
3.762506
 20
0.085506
 30
0.0
 10
3.767293
 20
0.085506
 30
0.0
  0
SPLINE
  5
370
100
AcDbEntity
  8
Capa_1
 62
7
100
AcDbSpline
 70
8
 71
3
 72
8
 73
4
 74
0
 40
0
 40
0
 40
0
 40
0
 40
1
 40
1
 40
1
 40
1
 10
3.825094
 20
-0.263771
 30
0.0
 10
3.847449
 20
-0.275554
 30
0.0
 10
3.873210
 20
-0.286213
 30
0.0
 10
3.902378
 20
-0.295748
 30
0.0
  0
SPLINE
  5
371
100
AcDbEntity
  8
Capa_1
 62
7
100
AcDbSpline
 70
8
 71
3
 72
8
 73
4
 74
0
 40
0
 40
0
 40
0
 40
0
 40
1
 40
1
 40
1
 40
1
 10
3.902378
 20
-0.295748
 30
0.0
 10
3.931333
 20
-0.305078
 30
0.0
 10
3.962204
 20
-0.309744
 30
0.0
 10
3.994991
 20
-0.309744
 30
0.0
  0
LWPOLYLINE
  5
372
100
AcDbEntity
  8
Capa_1
 62
7
100
AcDbPolyline
 90
3
 70
0
 10
3.814558
 20
-0.187151
 30
0.0
 10
3.810084
 20
-0.187151
 30
0.0
 10
3.825094
 20
-0.263771
 30
0.0
  0
LWPOLYLINE
  5
373
100
AcDbEntity
  8
Capa_1
 62
7
100
AcDbPolyline
 90
2
 70
0
 10
3.994991
 20
-0.309744
 30
0.0
 10
3.994997
 20
-0.310469
 30
0.0
  0
LWPOLYLINE
  5
374
100
AcDbEntity
  8
Capa_1
 62
7
100
AcDbPolyline
 90
6
 70
1
 10
3.449856
 20
-0.301469
 30
0.0
 10
3.751009
 20
-0.301469
 30
0.0
 10
3.641150
 20
0.194818
 30
0.0
 10
3.577279
 20
0.194818
 30
0.0
 10
3.674683
 20
-0.245147
 30
0.0
 10
3.437401
 20
-0.245147
 30
0.0
  0
ENDSEC
  0
SECTION
  2
OBJECTS
  0
DICTIONARY
  5
C
330
0
100
AcDbDictionary
  3
ACAD_GROUP
350
D
  3
ACAD_MLINESTYLE
350
17
  0
DICTIONARY
  5
D
330
C
100
AcDbDictionary
  0
DICTIONARY
  5
1A
330
C
100
AcDbDictionary
  0
DICTIONARY
  5
17
330
C
100
AcDbDictionary
  3
STANDARD
350
18
  0
DICTIONARY
  5
19
330
C
100
AcDbDictionary
  0
ENDSEC
  0
EOF
