<?xml version="1.0" encoding="UTF-8" standalone="no"?>
<!-- Created with Inkscape (http://www.inkscape.org/) -->

<svg
   xmlns:dc="http://purl.org/dc/elements/1.1/"
   xmlns:cc="http://creativecommons.org/ns#"
   xmlns:rdf="http://www.w3.org/1999/02/22-rdf-syntax-ns#"
   xmlns:svg="http://www.w3.org/2000/svg"
   xmlns="http://www.w3.org/2000/svg"
   xmlns:sodipodi="http://sodipodi.sourceforge.net/DTD/sodipodi-0.dtd"
   xmlns:inkscape="http://www.inkscape.org/namespaces/inkscape"
   width="210mm"
   height="297mm"
   viewBox="0 0 210 297"
   version="1.1"
   id="svg8"
   inkscape:version="0.92.3 (2405546, 2018-03-11)"
   sodipodi:docname="Con_Expansion_IO_NC_Mirror.svg">
  <defs
     id="defs2" />
  <sodipodi:namedview
     id="base"
     pagecolor="#ffffff"
     bordercolor="#666666"
     borderopacity="1.0"
     inkscape:pageopacity="0.0"
     inkscape:pageshadow="2"
     inkscape:zoom="7.919596"
     inkscape:cx="24.951677"
     inkscape:cy="23.568032"
     inkscape:document-units="mm"
     inkscape:current-layer="layer1"
     showgrid="false"
     inkscape:window-width="1366"
     inkscape:window-height="705"
     inkscape:window-x="-8"
     inkscape:window-y="-8"
     inkscape:window-maximized="1" />
  <metadata
     id="metadata5">
    <rdf:RDF>
      <cc:Work
         rdf:about="">
        <dc:format>image/svg+xml</dc:format>
        <dc:type
           rdf:resource="http://purl.org/dc/dcmitype/StillImage" />
        <dc:title></dc:title>
      </cc:Work>
    </rdf:RDF>
  </metadata>
  <g
     inkscape:label="Capa 1"
     inkscape:groupmode="layer"
     id="layer1">
    <rect
       style="fill:none;stroke:#000000;stroke-width:0.12424601;stroke-miterlimit:4;stroke-dasharray:none;stroke-opacity:1"
       id="rect815"
       width="1.875754"
       height="9.8757544"
       x="0.062123004"
       y="287.0621" />
    <flowRoot
       xml:space="preserve"
       id="flowRoot831"
       style="fill:black;fill-opacity:1;stroke:none;font-family:sans-serif;font-style:normal;font-weight:normal;font-size:1.33333333px;line-height:1.25;letter-spacing:0px;word-spacing:0px"><flowRegion
         id="flowRegion833"><rect
           id="rect835"
           width="7.4107141"
           height="10.267858"
           x="144.82143"
           y="179.84111" /></flowRegion><flowPara
         id="flowPara837" /></flowRoot>    <g
       aria-label="IO6
IO7
AD0
AD1
AD2
AD3
"
       transform="matrix(-0.97885057,0,0,1.0216064,1.9690851,0)"
       style="font-style:italic;font-variant:normal;font-weight:normal;font-stretch:normal;font-size:0.66817218px;line-height:2.5;font-family:sans-serif;-inkscape-font-specification:'sans-serif Italic';letter-spacing:0px;word-spacing:0px;fill:#000000;fill-opacity:1;stroke:none;stroke-width:0.07061514;stroke-miterlimit:4;stroke-dasharray:none"
       id="text841">
      <path
         d="M 0.52540311,281.88779 H 0.3329121 l 0.0107664,-0.0473 h 0.0636199 l 0.0906992,-0.39118 H 0.4343777 l 0.0107664,-0.0473 h 0.19249101 l -0.0107664,0.0473 H 0.5632488 l -0.0906992,0.39118 h 0.0636199 z"
         style="font-style:italic;font-variant:normal;font-weight:normal;font-stretch:normal;line-height:2.5;font-family:sans-serif;-inkscape-font-specification:'sans-serif Italic';stroke-width:0.07061514;stroke-miterlimit:4;stroke-dasharray:none"
         id="path891"
         inkscape:connector-curvature="0" />
      <path
         d="m 1.1224515,281.57393 q 0,0.0633 -0.019249,0.12202 -0.018923,0.0587 -0.055137,0.10342 -0.037193,0.046 -0.0893941,0.0724 -0.052201,0.0261 -0.11777839,0.0261 -0.0867841,0 -0.13572248,-0.0473 -0.0489384,-0.0476 -0.0489384,-0.13507 0,-0.0666 0.0195754,-0.1243 0.0195753,-0.0577 0.0564423,-0.1031 0.0358882,-0.0437 0.0887416,-0.0698 0.0531797,-0.0264 0.11647338,-0.0264 0.0864578,0 0.13572249,0.0473 0.049265,0.047 0.049265,0.13475 z m -0.12365101,0.19314 q 0.0274055,-0.0372 0.0414345,-0.0829 0.014029,-0.046 0.014029,-0.10114 0,-0.0666 -0.033604,-0.10211 -0.0332781,-0.0359 -0.0933092,-0.0359 -0.0466546,0 -0.084174,0.0215 -0.0375194,0.0212 -0.0645987,0.0577 -0.0261005,0.0359 -0.0401295,0.0835 -0.014029,0.0473 -0.014029,0.0975 0,0.0672 0.0332781,0.10342 0.0336044,0.0359 0.0939617,0.0359 0.0460021,0 0.0835215,-0.0212 0.0378457,-0.0212 0.0636199,-0.0564 z"
         style="font-style:italic;font-variant:normal;font-weight:normal;font-stretch:normal;line-height:2.5;font-family:sans-serif;-inkscape-font-specification:'sans-serif Italic';stroke-width:0.07061514;stroke-miterlimit:4;stroke-dasharray:none"
         id="path893"
         inkscape:connector-curvature="0" />
      <path
         d="m 1.3325603,281.8979 q -0.07145,0 -0.110927,-0.044 -0.039477,-0.0444 -0.039477,-0.12104 0,-0.0705 0.019902,-0.13116 0.019902,-0.061 0.0584,-0.10832 0.037846,-0.046 0.093962,-0.0731 0.056442,-0.0274 0.126261,-0.0274 0.020554,0 0.034257,0.002 0.013703,0.002 0.022838,0.005 l -0.011419,0.0577 h -0.00326 q -0.0075,-0.004 -0.025774,-0.008 -0.017944,-0.004 -0.037193,-0.004 -0.069819,0 -0.1243035,0.0457 -0.054485,0.0453 -0.073408,0.11811 0.028384,-0.016 0.060684,-0.0251 0.032299,-0.009 0.064272,-0.009 0.030016,0 0.054485,0.008 0.024795,0.007 0.044371,0.0238 0.02088,0.0176 0.030994,0.0418 0.010114,0.0242 0.010114,0.0555 0,0.0803 -0.055463,0.1367 -0.055137,0.0564 -0.1393113,0.0564 z m 0.1269136,-0.18597 q 0,-0.0411 -0.024143,-0.0626 -0.024143,-0.0219 -0.072103,-0.0219 -0.024795,0 -0.05318,0.008 -0.028058,0.008 -0.055464,0.0219 -0.00326,0.014 -0.00555,0.0359 -0.00196,0.0215 -0.00196,0.0421 0,0.0316 0.00816,0.0532 0.00848,0.0215 0.020554,0.0339 0.01305,0.0134 0.029689,0.0192 0.016965,0.006 0.034909,0.006 0.052854,0 0.085805,-0.0372 0.033278,-0.0372 0.033278,-0.0979 z"
         style="font-style:italic;font-variant:normal;font-weight:normal;font-stretch:normal;line-height:2.5;font-family:sans-serif;-inkscape-font-specification:'sans-serif Italic';stroke-width:0.07061514;stroke-miterlimit:4;stroke-dasharray:none"
         id="path895"
         inkscape:connector-curvature="0" />
      <path
         d="M 0.52540311,283.55822 H 0.3329121 l 0.0107664,-0.0473 h 0.0636199 l 0.0906992,-0.39118 H 0.4343777 l 0.0107664,-0.0473 h 0.19249101 l -0.0107664,0.0473 H 0.5632488 l -0.0906992,0.39118 h 0.0636199 z"
         style="font-style:italic;font-variant:normal;font-weight:normal;font-stretch:normal;line-height:2.5;font-family:sans-serif;-inkscape-font-specification:'sans-serif Italic';stroke-width:0.07061514;stroke-miterlimit:4;stroke-dasharray:none"
         id="path897"
         inkscape:connector-curvature="0" />
      <path
         d="m 1.1224515,283.24436 q 0,0.0633 -0.019249,0.12202 -0.018923,0.0587 -0.055137,0.10342 -0.037193,0.046 -0.0893941,0.0724 -0.052201,0.0261 -0.11777839,0.0261 -0.0867841,0 -0.13572248,-0.0473 -0.0489384,-0.0476 -0.0489384,-0.13507 0,-0.0666 0.0195754,-0.1243 0.0195753,-0.0577 0.0564423,-0.1031 0.0358882,-0.0437 0.0887416,-0.0698 0.0531797,-0.0264 0.11647338,-0.0264 0.0864578,0 0.13572249,0.0473 0.049265,0.047 0.049265,0.13474 z m -0.12365101,0.19314 q 0.0274055,-0.0372 0.0414345,-0.0829 0.014029,-0.046 0.014029,-0.10114 0,-0.0666 -0.033604,-0.10211 -0.0332781,-0.0359 -0.0933092,-0.0359 -0.0466546,0 -0.084174,0.0215 -0.0375194,0.0212 -0.0645987,0.0577 -0.0261005,0.0359 -0.0401295,0.0835 -0.014029,0.0473 -0.014029,0.0975 0,0.0672 0.0332781,0.10342 0.0336044,0.0359 0.0939617,0.0359 0.0460021,0 0.0835215,-0.0212 0.0378457,-0.0212 0.0636199,-0.0564 z"
         style="font-style:italic;font-variant:normal;font-weight:normal;font-stretch:normal;line-height:2.5;font-family:sans-serif;-inkscape-font-specification:'sans-serif Italic';stroke-width:0.07061514;stroke-miterlimit:4;stroke-dasharray:none"
         id="path899"
         inkscape:connector-curvature="0" />
      <path
         d="m 1.5733372,283.14518 -0.3119007,0.41304 h -0.07406 l 0.3318023,-0.43099 h -0.276665 l 0.012398,-0.0548 h 0.3350648 z"
         style="font-style:italic;font-variant:normal;font-weight:normal;font-stretch:normal;line-height:2.5;font-family:sans-serif;-inkscape-font-specification:'sans-serif Italic';stroke-width:0.07061514;stroke-miterlimit:4;stroke-dasharray:none"
         id="path901"
         inkscape:connector-curvature="0" />
      <path
         d="m 0.74203706,285.22865 h -0.0655775 l -0.0163128,-0.1367 H 0.45069049 l -0.0796065,0.1367 h -0.0681875 l 0.28906277,-0.4858 h 0.0854791 z m -0.0890679,-0.18956 -0.0303418,-0.2398 -0.14094257,0.2398 z"
         style="font-style:italic;font-variant:normal;font-weight:normal;font-stretch:normal;line-height:2.5;font-family:sans-serif;-inkscape-font-specification:'sans-serif Italic';stroke-width:0.07061514;stroke-miterlimit:4;stroke-dasharray:none"
         id="path903"
         inkscape:connector-curvature="0" />
      <path
         d="m 1.2829694,284.92914 q 0,0.0796 -0.040456,0.15074 -0.040456,0.0711 -0.1106008,0.10994 -0.043066,0.0232 -0.088089,0.031 -0.0450233,0.008 -0.10211811,0.008 H 0.8105508 l 0.11223204,-0.4858 H 1.0356674 q 0.052854,0 0.096246,0.008 0.043718,0.007 0.079933,0.0313 0.034583,0.0232 0.052854,0.0607 0.01827,0.0372 0.01827,0.0868 z m -0.068188,0.006 q 0,-0.0372 -0.013376,-0.0639 -0.01305,-0.0271 -0.039803,-0.045 -0.026427,-0.0176 -0.056442,-0.0235 -0.030016,-0.006 -0.076018,-0.006 H 0.9753102 l -0.0880891,0.37944 h 0.067535 q 0.0466546,0 0.0831953,-0.008 0.036867,-0.008 0.069492,-0.0264 0.052527,-0.03 0.079933,-0.0865 0.027405,-0.0568 0.027405,-0.12039 z"
         style="font-style:italic;font-variant:normal;font-weight:normal;font-stretch:normal;line-height:2.5;font-family:sans-serif;-inkscape-font-specification:'sans-serif Italic';stroke-width:0.07061514;stroke-miterlimit:4;stroke-dasharray:none"
         id="path905"
         inkscape:connector-curvature="0" />
      <path
         d="m 1.7087334,284.87564 q 0,0.0646 -0.024143,0.15203 -0.023817,0.0874 -0.059379,0.13442 -0.030342,0.0395 -0.067209,0.0581 -0.036541,0.0186 -0.084827,0.0186 -0.06623,0 -0.098529,-0.0352 -0.032299,-0.0352 -0.032299,-0.10734 0,-0.0584 0.022512,-0.14714 0.022838,-0.0888 0.06101,-0.13931 0.029363,-0.0392 0.066883,-0.0577 0.037846,-0.0189 0.085479,-0.0189 0.065904,0 0.098203,0.0356 0.032299,0.0352 0.032299,0.10701 z m -0.065904,-9.8e-4 q 0,-0.0437 -0.016639,-0.0669 -0.016313,-0.0232 -0.058726,-0.0232 -0.031321,0 -0.055464,0.0137 -0.023817,0.0137 -0.043718,0.0483 -0.022838,0.0401 -0.041435,0.11974 -0.018597,0.0793 -0.018597,0.13083 0,0.0437 0.016313,0.0669 0.016639,0.0232 0.059052,0.0232 0.029689,0 0.055137,-0.0143 0.025448,-0.0144 0.044045,-0.0476 0.022838,-0.0408 0.041435,-0.12006 0.018597,-0.0796 0.018597,-0.1305 z"
         style="font-style:italic;font-variant:normal;font-weight:normal;font-stretch:normal;line-height:2.5;font-family:sans-serif;-inkscape-font-specification:'sans-serif Italic';stroke-width:0.07061514;stroke-miterlimit:4;stroke-dasharray:none"
         id="path907"
         inkscape:connector-curvature="0" />
      <path
         d="m 0.74203706,286.89908 h -0.0655775 l -0.0163128,-0.1367 H 0.45069049 l -0.0796065,0.1367 h -0.0681875 l 0.28906277,-0.4858 h 0.0854791 z m -0.0890679,-0.18956 -0.0303418,-0.23979 -0.14094257,0.23979 z"
         style="font-style:italic;font-variant:normal;font-weight:normal;font-stretch:normal;line-height:2.5;font-family:sans-serif;-inkscape-font-specification:'sans-serif Italic';stroke-width:0.07061514;stroke-miterlimit:4;stroke-dasharray:none"
         id="path909"
         inkscape:connector-curvature="0" />
      <path
         d="m 1.2829694,286.59958 q 0,0.0796 -0.040456,0.15073 -0.040456,0.0711 -0.1106008,0.10994 -0.043066,0.0232 -0.088089,0.031 -0.0450233,0.008 -0.10211811,0.008 H 0.8105508 l 0.11223204,-0.4858 H 1.0356674 q 0.052854,0 0.096246,0.008 0.043718,0.007 0.079933,0.0313 0.034583,0.0232 0.052854,0.0607 0.01827,0.0372 0.01827,0.0868 z m -0.068188,0.006 q 0,-0.0372 -0.013376,-0.0639 -0.01305,-0.0271 -0.039803,-0.045 -0.026427,-0.0176 -0.056442,-0.0235 -0.030016,-0.006 -0.076018,-0.006 H 0.9753102 l -0.0880891,0.37944 h 0.067535 q 0.0466546,0 0.0831953,-0.008 0.036867,-0.008 0.069492,-0.0264 0.052527,-0.03 0.079933,-0.0865 0.027405,-0.0568 0.027405,-0.12039 z"
         style="font-style:italic;font-variant:normal;font-weight:normal;font-stretch:normal;line-height:2.5;font-family:sans-serif;-inkscape-font-specification:'sans-serif Italic';stroke-width:0.07061514;stroke-miterlimit:4;stroke-dasharray:none"
         id="path911"
         inkscape:connector-curvature="0" />
      <path
         d="M 1.6131404,286.89908 H 1.3495256 l 0.011093,-0.0473 h 0.099834 l 0.076344,-0.33017 H 1.4356572 l 0.00946,-0.0421 q 0.056442,0 0.087437,-0.0157 0.031321,-0.016 0.041761,-0.0522 h 0.050896 l -0.1014656,0.44012 h 0.1004868 z"
         style="font-style:italic;font-variant:normal;font-weight:normal;font-stretch:normal;line-height:2.5;font-family:sans-serif;-inkscape-font-specification:'sans-serif Italic';stroke-width:0.07061514;stroke-miterlimit:4;stroke-dasharray:none"
         id="path913"
         inkscape:connector-curvature="0" />
      <path
         d="m 0.74203706,288.56951 h -0.0655775 l -0.0163128,-0.1367 H 0.45069049 l -0.0796065,0.1367 h -0.0681875 l 0.28906277,-0.4858 h 0.0854791 z m -0.0890679,-0.18956 -0.0303418,-0.23979 -0.14094257,0.23979 z"
         style="font-style:italic;font-variant:normal;font-weight:normal;font-stretch:normal;line-height:2.5;font-family:sans-serif;-inkscape-font-specification:'sans-serif Italic';stroke-width:0.07061514;stroke-miterlimit:4;stroke-dasharray:none"
         id="path915"
         inkscape:connector-curvature="0" />
      <path
         d="m 1.2829694,288.27001 q 0,0.0796 -0.040456,0.15073 -0.040456,0.0711 -0.1106008,0.10994 -0.043066,0.0232 -0.088089,0.031 -0.0450233,0.008 -0.10211811,0.008 H 0.8105508 l 0.11223204,-0.4858 H 1.0356674 q 0.052854,0 0.096246,0.008 0.043718,0.007 0.079933,0.0313 0.034583,0.0232 0.052854,0.0607 0.01827,0.0372 0.01827,0.0868 z m -0.068188,0.006 q 0,-0.0372 -0.013376,-0.0639 -0.01305,-0.0271 -0.039803,-0.045 -0.026427,-0.0176 -0.056442,-0.0235 -0.030016,-0.006 -0.076018,-0.006 H 0.9753102 l -0.0880891,0.37944 h 0.067535 q 0.0466546,0 0.0831953,-0.007 0.036867,-0.008 0.069492,-0.0264 0.052527,-0.03 0.079933,-0.0865 0.027405,-0.0568 0.027405,-0.12039 z"
         style="font-style:italic;font-variant:normal;font-weight:normal;font-stretch:normal;line-height:2.5;font-family:sans-serif;-inkscape-font-specification:'sans-serif Italic';stroke-width:0.07061514;stroke-miterlimit:4;stroke-dasharray:none"
         id="path917"
         inkscape:connector-curvature="0" />
      <path
         d="M 1.6392409,288.56951 H 1.3100486 l 0.015334,-0.0682 q 0.046002,-0.0336 0.077975,-0.0571 0.032299,-0.0238 0.077649,-0.06 0.079606,-0.0636 0.112232,-0.10702 0.032952,-0.0437 0.032952,-0.0848 0,-0.032 -0.022838,-0.0483 -0.022512,-0.0163 -0.058074,-0.0163 -0.029037,0 -0.066556,0.0111 -0.037193,0.0108 -0.073081,0.0313 h -0.00326 l 0.01305,-0.0662 q 0.025774,-0.0117 0.065904,-0.0209 0.040129,-0.009 0.076996,-0.009 0.065577,0 0.1011394,0.0287 0.035562,0.0284 0.035562,0.077 0,0.0525 -0.030016,0.0995 -0.030015,0.0467 -0.1050544,0.10897 -0.044697,0.0369 -0.092004,0.0718 -0.046981,0.0346 -0.077649,0.0564 h 0.2610048 z"
         style="font-style:italic;font-variant:normal;font-weight:normal;font-stretch:normal;line-height:2.5;font-family:sans-serif;-inkscape-font-specification:'sans-serif Italic';stroke-width:0.07061514;stroke-miterlimit:4;stroke-dasharray:none"
         id="path919"
         inkscape:connector-curvature="0" />
      <path
         d="m 0.74203706,290.23994 h -0.0655775 l -0.0163128,-0.1367 H 0.45069049 l -0.0796065,0.1367 h -0.0681875 l 0.28906277,-0.4858 h 0.0854791 z m -0.0890679,-0.18956 -0.0303418,-0.23979 -0.14094257,0.23979 z"
         style="font-style:italic;font-variant:normal;font-weight:normal;font-stretch:normal;line-height:2.5;font-family:sans-serif;-inkscape-font-specification:'sans-serif Italic';stroke-width:0.07061514;stroke-miterlimit:4;stroke-dasharray:none"
         id="path921"
         inkscape:connector-curvature="0" />
      <path
         d="m 1.2829694,289.94044 q 0,0.0796 -0.040456,0.15073 -0.040456,0.0711 -0.1106008,0.10994 -0.043066,0.0232 -0.088089,0.031 -0.0450233,0.008 -0.10211811,0.008 H 0.8105508 l 0.11223204,-0.4858 H 1.0356674 q 0.052854,0 0.096246,0.008 0.043718,0.007 0.079933,0.0313 0.034583,0.0232 0.052854,0.0607 0.01827,0.0372 0.01827,0.0868 z m -0.068188,0.006 q 0,-0.0372 -0.013376,-0.0639 -0.01305,-0.0271 -0.039803,-0.045 -0.026427,-0.0176 -0.056442,-0.0235 -0.030016,-0.006 -0.076018,-0.006 H 0.9753102 l -0.0880891,0.37944 h 0.067535 q 0.0466546,0 0.0831953,-0.007 0.036867,-0.008 0.069492,-0.0264 0.052527,-0.03 0.079933,-0.0865 0.027405,-0.0568 0.027405,-0.12039 z"
         style="font-style:italic;font-variant:normal;font-weight:normal;font-stretch:normal;line-height:2.5;font-family:sans-serif;-inkscape-font-specification:'sans-serif Italic';stroke-width:0.07061514;stroke-miterlimit:4;stroke-dasharray:none"
         id="path923"
         inkscape:connector-curvature="0" />
      <path
         d="m 1.6095516,290.1972 q -0.028711,0.0251 -0.06623,0.0392 -0.037193,0.0137 -0.086458,0.0137 -0.039477,0 -0.07667,-0.0101 -0.036867,-0.01 -0.062315,-0.0235 l 0.015334,-0.0626 h 0.00489 q 0.022512,0.017 0.056442,0.0297 0.033931,0.0124 0.071776,0.0124 0.058726,0 0.096246,-0.0349 0.037519,-0.0349 0.037519,-0.0907 0,-0.0343 -0.023817,-0.0512 -0.023817,-0.017 -0.07406,-0.017 h -0.030994 l 0.012724,-0.0519 h 0.030994 q 0.055137,0 0.090373,-0.0251 0.035236,-0.0254 0.035236,-0.0688 0,-0.0274 -0.021207,-0.0427 -0.02088,-0.0153 -0.061989,-0.0153 -0.033931,0 -0.072429,0.0124 -0.038498,0.0124 -0.068188,0.03 h -0.00326 l 0.014029,-0.0659 q 0.026101,-0.0114 0.06623,-0.0209 0.040456,-0.01 0.07667,-0.01 0.064272,0 0.1011393,0.0258 0.037193,0.0255 0.037193,0.0698 0,0.0483 -0.035888,0.0858 -0.035562,0.0372 -0.090047,0.0473 v 0.003 q 0.012724,0.003 0.028058,0.01 0.01566,0.007 0.027405,0.0176 0.012398,0.0111 0.020554,0.0281 0.00848,0.017 0.00848,0.0401 0,0.0356 -0.015334,0.0688 -0.015334,0.033 -0.042413,0.0568 z"
         style="font-style:italic;font-variant:normal;font-weight:normal;font-stretch:normal;line-height:2.5;font-family:sans-serif;-inkscape-font-specification:'sans-serif Italic';stroke-width:0.07061514;stroke-miterlimit:4;stroke-dasharray:none"
         id="path925"
         inkscape:connector-curvature="0" />
    </g>
    <flowRoot
       xml:space="preserve"
       id="flowRoot855"
       style="fill:black;fill-opacity:1;stroke:none;font-family:sans-serif;font-style:normal;font-weight:normal;font-size:1.33333333px;line-height:1.25;letter-spacing:0px;word-spacing:0px"><flowRegion
         id="flowRegion857"><rect
           id="rect859"
           width="7.8571429"
           height="13.839286"
           x="146.875"
           y="183.41254" /></flowRegion><flowPara
         id="flowPara861" /></flowRoot>    <text
       xml:space="preserve"
       style="font-style:normal;font-weight:normal;font-size:0.35277778px;line-height:1.25;font-family:sans-serif;letter-spacing:0px;word-spacing:0px;fill:#000000;fill-opacity:1;stroke:none;stroke-width:0.26458332"
       x="40.348957"
       y="49.614582"
       id="text865"><tspan
         sodipodi:role="line"
         id="tspan863"
         x="40.348957"
         y="49.936432"
         style="stroke-width:0.26458332" /><tspan
         sodipodi:role="line"
         x="40.348957"
         y="50.377403"
         style="stroke-width:0.26458332"
         id="tspan867" /></text>
    <flowRoot
       xml:space="preserve"
       id="flowRoot957"
       style="fill:black;fill-opacity:1;stroke:none;font-family:sans-serif;font-style:normal;font-weight:normal;font-size:1.33333333px;line-height:1.25;letter-spacing:0px;word-spacing:0px"><flowRegion
         id="flowRegion959"><rect
           id="rect961"
           width="0"
           height="3.9285715"
           x="6.3392859"
           y="1099.3054" /></flowRegion><flowPara
         id="flowPara963" /></flowRoot>    <rect
       style="fill:none;stroke:#000000;stroke-width:0.12424602;stroke-miterlimit:4;stroke-dasharray:none;stroke-opacity:1"
       id="rect815-1"
       width="1.8757541"
       height="9.8757544"
       x="1.9686791"
       y="286.08197" />
    <g
       aria-label="IO0
IO1
IO2
IO3
NC
NC
"
       transform="matrix(-0.97885057,0,0,1.0216064,5.6544556,0)"
       style="font-style:italic;font-variant:normal;font-weight:normal;font-stretch:normal;font-size:0.66817218px;line-height:2.5;font-family:sans-serif;-inkscape-font-specification:'sans-serif Italic';letter-spacing:0px;word-spacing:0px;fill:#000000;fill-opacity:1;stroke:none;stroke-width:0.07061514;stroke-miterlimit:4;stroke-dasharray:none"
       id="text841-8">
      <path
         d="m 2.4731528,280.92838 h -0.192491 l 0.010766,-0.0473 h 0.06362 l 0.090699,-0.39118 h -0.06362 l 0.010766,-0.0473 h 0.1924911 l -0.010767,0.0473 h -0.06362 l -0.090699,0.39118 h 0.06362 z"
         style="font-style:italic;font-variant:normal;font-weight:normal;font-stretch:normal;line-height:2.5;font-family:sans-serif;-inkscape-font-specification:'sans-serif Italic';stroke-width:0.07061514;stroke-miterlimit:4;stroke-dasharray:none"
         id="path928"
         inkscape:connector-curvature="0" />
      <path
         d="m 3.0702012,280.61452 q 0,0.0633 -0.019249,0.12202 -0.018923,0.0587 -0.055137,0.10342 -0.037193,0.046 -0.089394,0.0724 -0.052201,0.0261 -0.1177784,0.0261 -0.086784,0 -0.1357225,-0.0473 -0.048938,-0.0476 -0.048938,-0.13507 0,-0.0666 0.019575,-0.1243 0.019575,-0.0577 0.056442,-0.1031 0.035888,-0.0437 0.088742,-0.0698 0.05318,-0.0264 0.1164734,-0.0264 0.086458,0 0.1357225,0.0473 0.049265,0.047 0.049265,0.13475 z m -0.123651,0.19314 q 0.027405,-0.0372 0.041435,-0.0829 0.014029,-0.046 0.014029,-0.10114 0,-0.0666 -0.033604,-0.10212 -0.033278,-0.0359 -0.093309,-0.0359 -0.046655,0 -0.084174,0.0215 -0.037519,0.0212 -0.064599,0.0577 -0.0261,0.0359 -0.040129,0.0835 -0.014029,0.0473 -0.014029,0.0975 0,0.0672 0.033278,0.10342 0.033604,0.0359 0.093962,0.0359 0.046002,0 0.083521,-0.0212 0.037846,-0.0212 0.06362,-0.0564 z"
         style="font-style:italic;font-variant:normal;font-weight:normal;font-stretch:normal;line-height:2.5;font-family:sans-serif;-inkscape-font-specification:'sans-serif Italic';stroke-width:0.07061514;stroke-miterlimit:4;stroke-dasharray:none"
         id="path930"
         inkscape:connector-curvature="0" />
      <path
         d="m 3.4959652,280.57537 q 0,0.0646 -0.024143,0.15203 -0.023817,0.0874 -0.059379,0.13442 -0.030342,0.0395 -0.067209,0.0581 -0.036541,0.0186 -0.084826,0.0186 -0.06623,0 -0.098529,-0.0352 -0.032299,-0.0352 -0.032299,-0.10733 0,-0.0584 0.022512,-0.14715 0.022838,-0.0887 0.06101,-0.13931 0.029363,-0.0392 0.066883,-0.0577 0.037846,-0.0189 0.085479,-0.0189 0.065904,0 0.098203,0.0356 0.032299,0.0352 0.032299,0.10702 z m -0.065904,-9.8e-4 q 0,-0.0437 -0.016639,-0.0669 -0.016313,-0.0232 -0.058726,-0.0232 -0.031321,0 -0.055464,0.0137 -0.023817,0.0137 -0.043718,0.0483 -0.022838,0.0401 -0.041435,0.11974 -0.018597,0.0793 -0.018597,0.13082 0,0.0437 0.016313,0.0669 0.016639,0.0232 0.059052,0.0232 0.029689,0 0.055137,-0.0143 0.025448,-0.0144 0.044045,-0.0476 0.022838,-0.0408 0.041434,-0.12006 0.018597,-0.0796 0.018597,-0.1305 z"
         style="font-style:italic;font-variant:normal;font-weight:normal;font-stretch:normal;line-height:2.5;font-family:sans-serif;-inkscape-font-specification:'sans-serif Italic';stroke-width:0.07061514;stroke-miterlimit:4;stroke-dasharray:none"
         id="path932"
         inkscape:connector-curvature="0" />
      <path
         d="m 2.4731528,282.59881 h -0.192491 l 0.010766,-0.0473 h 0.06362 l 0.090699,-0.39118 h -0.06362 l 0.010766,-0.0473 h 0.1924911 l -0.010767,0.0473 h -0.06362 l -0.090699,0.39118 h 0.06362 z"
         style="font-style:italic;font-variant:normal;font-weight:normal;font-stretch:normal;line-height:2.5;font-family:sans-serif;-inkscape-font-specification:'sans-serif Italic';stroke-width:0.07061514;stroke-miterlimit:4;stroke-dasharray:none"
         id="path934"
         inkscape:connector-curvature="0" />
      <path
         d="m 3.0702012,282.28495 q 0,0.0633 -0.019249,0.12202 -0.018923,0.0587 -0.055137,0.10342 -0.037193,0.046 -0.089394,0.0724 -0.052201,0.0261 -0.1177784,0.0261 -0.086784,0 -0.1357225,-0.0473 -0.048938,-0.0476 -0.048938,-0.13507 0,-0.0666 0.019575,-0.1243 0.019575,-0.0577 0.056442,-0.1031 0.035888,-0.0437 0.088742,-0.0698 0.05318,-0.0264 0.1164734,-0.0264 0.086458,0 0.1357225,0.0473 0.049265,0.047 0.049265,0.13475 z m -0.123651,0.19314 q 0.027405,-0.0372 0.041435,-0.0829 0.014029,-0.046 0.014029,-0.10114 0,-0.0666 -0.033604,-0.10212 -0.033278,-0.0359 -0.093309,-0.0359 -0.046655,0 -0.084174,0.0215 -0.037519,0.0212 -0.064599,0.0577 -0.0261,0.0359 -0.040129,0.0835 -0.014029,0.0473 -0.014029,0.0976 0,0.0672 0.033278,0.10342 0.033604,0.0359 0.093962,0.0359 0.046002,0 0.083521,-0.0212 0.037846,-0.0212 0.06362,-0.0564 z"
         style="font-style:italic;font-variant:normal;font-weight:normal;font-stretch:normal;line-height:2.5;font-family:sans-serif;-inkscape-font-specification:'sans-serif Italic';stroke-width:0.07061514;stroke-miterlimit:4;stroke-dasharray:none"
         id="path936"
         inkscape:connector-curvature="0" />
      <path
         d="M 3.4003722,282.59881 H 3.1367574 l 0.011093,-0.0473 h 0.099834 l 0.076344,-0.33017 H 3.222889 l 0.00946,-0.0421 q 0.056442,0 0.087437,-0.0157 0.031321,-0.016 0.041761,-0.0522 h 0.050896 l -0.1014656,0.44012 h 0.1004868 z"
         style="font-style:italic;font-variant:normal;font-weight:normal;font-stretch:normal;line-height:2.5;font-family:sans-serif;-inkscape-font-specification:'sans-serif Italic';stroke-width:0.07061514;stroke-miterlimit:4;stroke-dasharray:none"
         id="path938"
         inkscape:connector-curvature="0" />
      <path
         d="m 2.4731528,284.26924 h -0.192491 l 0.010766,-0.0473 h 0.06362 l 0.090699,-0.39118 h -0.06362 l 0.010766,-0.0473 h 0.1924911 l -0.010767,0.0473 h -0.06362 l -0.090699,0.39118 h 0.06362 z"
         style="font-style:italic;font-variant:normal;font-weight:normal;font-stretch:normal;line-height:2.5;font-family:sans-serif;-inkscape-font-specification:'sans-serif Italic';stroke-width:0.07061514;stroke-miterlimit:4;stroke-dasharray:none"
         id="path940"
         inkscape:connector-curvature="0" />
      <path
         d="m 3.0702012,283.95538 q 0,0.0633 -0.019249,0.12202 -0.018923,0.0587 -0.055137,0.10342 -0.037193,0.046 -0.089394,0.0724 -0.052201,0.0261 -0.1177784,0.0261 -0.086784,0 -0.1357225,-0.0473 -0.048938,-0.0476 -0.048938,-0.13507 0,-0.0666 0.019575,-0.1243 0.019575,-0.0577 0.056442,-0.1031 0.035888,-0.0437 0.088742,-0.0698 0.05318,-0.0264 0.1164734,-0.0264 0.086458,0 0.1357225,0.0473 0.049265,0.047 0.049265,0.13475 z m -0.123651,0.19314 q 0.027405,-0.0372 0.041435,-0.0829 0.014029,-0.046 0.014029,-0.10114 0,-0.0666 -0.033604,-0.10212 -0.033278,-0.0359 -0.093309,-0.0359 -0.046655,0 -0.084174,0.0215 -0.037519,0.0212 -0.064599,0.0577 -0.0261,0.0359 -0.040129,0.0835 -0.014029,0.0473 -0.014029,0.0976 0,0.0672 0.033278,0.10342 0.033604,0.0359 0.093962,0.0359 0.046002,0 0.083521,-0.0212 0.037846,-0.0212 0.06362,-0.0564 z"
         style="font-style:italic;font-variant:normal;font-weight:normal;font-stretch:normal;line-height:2.5;font-family:sans-serif;-inkscape-font-specification:'sans-serif Italic';stroke-width:0.07061514;stroke-miterlimit:4;stroke-dasharray:none"
         id="path942"
         inkscape:connector-curvature="0" />
      <path
         d="M 3.4264727,284.26924 H 3.0972804 l 0.015334,-0.0682 q 0.046002,-0.0336 0.077975,-0.0571 0.032299,-0.0238 0.077649,-0.06 0.079607,-0.0636 0.1122321,-0.10701 0.032952,-0.0437 0.032952,-0.0848 0,-0.032 -0.022838,-0.0483 -0.022512,-0.0163 -0.058074,-0.0163 -0.029037,0 -0.066556,0.0111 -0.037193,0.0108 -0.073081,0.0313 h -0.00326 l 0.01305,-0.0662 q 0.025774,-0.0118 0.065904,-0.0209 0.040129,-0.009 0.076996,-0.009 0.065577,0 0.1011393,0.0287 0.035562,0.0284 0.035562,0.077 0,0.0525 -0.030016,0.0995 -0.030016,0.0467 -0.1050544,0.10897 -0.044697,0.0369 -0.092004,0.0718 -0.046981,0.0346 -0.077649,0.0564 h 0.2610047 z"
         style="font-style:italic;font-variant:normal;font-weight:normal;font-stretch:normal;line-height:2.5;font-family:sans-serif;-inkscape-font-specification:'sans-serif Italic';stroke-width:0.07061514;stroke-miterlimit:4;stroke-dasharray:none"
         id="path944"
         inkscape:connector-curvature="0" />
      <path
         d="m 2.4731528,285.93967 h -0.192491 l 0.010766,-0.0473 h 0.06362 l 0.090699,-0.39118 h -0.06362 l 0.010766,-0.0473 h 0.1924911 l -0.010767,0.0473 h -0.06362 l -0.090699,0.39118 h 0.06362 z"
         style="font-style:italic;font-variant:normal;font-weight:normal;font-stretch:normal;line-height:2.5;font-family:sans-serif;-inkscape-font-specification:'sans-serif Italic';stroke-width:0.07061514;stroke-miterlimit:4;stroke-dasharray:none"
         id="path946"
         inkscape:connector-curvature="0" />
      <path
         d="m 3.0702012,285.62581 q 0,0.0633 -0.019249,0.12202 -0.018923,0.0587 -0.055137,0.10342 -0.037193,0.046 -0.089394,0.0724 -0.052201,0.0261 -0.1177784,0.0261 -0.086784,0 -0.1357225,-0.0473 -0.048938,-0.0476 -0.048938,-0.13507 0,-0.0666 0.019575,-0.1243 0.019575,-0.0577 0.056442,-0.1031 0.035888,-0.0437 0.088742,-0.0698 0.05318,-0.0264 0.1164734,-0.0264 0.086458,0 0.1357225,0.0473 0.049265,0.047 0.049265,0.13475 z m -0.123651,0.19314 q 0.027405,-0.0372 0.041435,-0.0829 0.014029,-0.046 0.014029,-0.10114 0,-0.0665 -0.033604,-0.10211 -0.033278,-0.0359 -0.093309,-0.0359 -0.046655,0 -0.084174,0.0215 -0.037519,0.0212 -0.064599,0.0577 -0.0261,0.0359 -0.040129,0.0835 -0.014029,0.0473 -0.014029,0.0976 0,0.0672 0.033278,0.10342 0.033604,0.0359 0.093962,0.0359 0.046002,0 0.083521,-0.0212 0.037846,-0.0212 0.06362,-0.0564 z"
         style="font-style:italic;font-variant:normal;font-weight:normal;font-stretch:normal;line-height:2.5;font-family:sans-serif;-inkscape-font-specification:'sans-serif Italic';stroke-width:0.07061514;stroke-miterlimit:4;stroke-dasharray:none"
         id="path948"
         inkscape:connector-curvature="0" />
      <path
         d="m 3.3967834,285.89693 q -0.02871,0.0251 -0.06623,0.0392 -0.037193,0.0137 -0.086458,0.0137 -0.039477,0 -0.07667,-0.0101 -0.036867,-0.01 -0.062315,-0.0235 l 0.015334,-0.0626 h 0.00489 q 0.022512,0.017 0.056442,0.0297 0.033931,0.0124 0.071776,0.0124 0.058726,0 0.096246,-0.0349 0.03752,-0.0349 0.03752,-0.0907 0,-0.0342 -0.023817,-0.0512 -0.023817,-0.017 -0.07406,-0.017 h -0.030994 l 0.012724,-0.0519 h 0.030994 q 0.055137,0 0.090373,-0.0251 0.035236,-0.0254 0.035236,-0.0688 0,-0.0274 -0.021207,-0.0427 -0.02088,-0.0153 -0.061989,-0.0153 -0.033931,0 -0.072429,0.0124 -0.038498,0.0124 -0.068188,0.03 h -0.00326 l 0.014029,-0.0659 q 0.0261,-0.0114 0.06623,-0.0209 0.040456,-0.01 0.07667,-0.01 0.064272,0 0.1011393,0.0258 0.037193,0.0254 0.037193,0.0698 0,0.0483 -0.035888,0.0858 -0.035562,0.0372 -0.090047,0.0473 v 0.003 q 0.012724,0.003 0.028058,0.01 0.01566,0.007 0.027406,0.0176 0.012398,0.0111 0.020554,0.0281 0.00848,0.017 0.00848,0.0401 0,0.0356 -0.015334,0.0688 -0.015334,0.0329 -0.042413,0.0568 z"
         style="font-style:italic;font-variant:normal;font-weight:normal;font-stretch:normal;line-height:2.5;font-family:sans-serif;-inkscape-font-specification:'sans-serif Italic';stroke-width:0.07061514;stroke-miterlimit:4;stroke-dasharray:none"
         id="path950"
         inkscape:connector-curvature="0" />
      <path
         d="M 2.6724952,287.6101 H 2.5954992 L 2.462713,287.17552 2.3622262,287.6101 h -0.06101 l 0.1122321,-0.4858 h 0.097224 l 0.1213673,0.39673 0.091678,-0.39673 h 0.06101 z"
         style="font-style:italic;font-variant:normal;font-weight:normal;font-stretch:normal;line-height:2.5;font-family:sans-serif;-inkscape-font-specification:'sans-serif Italic';stroke-width:0.07061514;stroke-miterlimit:4;stroke-dasharray:none"
         id="path952"
         inkscape:connector-curvature="0" />
      <path
         d="m 3.018979,287.61891 q -0.09233,0 -0.1448576,-0.0476 -0.052527,-0.048 -0.052527,-0.13572 0,-0.0672 0.020228,-0.12528 0.020228,-0.0581 0.058074,-0.10179 0.037519,-0.0431 0.09233,-0.0679 0.054811,-0.0251 0.122346,-0.0251 0.042087,0 0.079606,0.0104 0.037519,0.0101 0.076996,0.0323 l -0.014682,0.0731 h -0.00489 q -0.010766,-0.0108 -0.021859,-0.0199 -0.010766,-0.009 -0.032625,-0.0206 -0.017944,-0.009 -0.04274,-0.0157 -0.024795,-0.007 -0.054811,-0.007 -0.045676,0 -0.083848,0.0192 -0.038172,0.0189 -0.06623,0.0532 -0.027405,0.0333 -0.043066,0.0809 -0.01566,0.0476 -0.01566,0.10147 0,0.0672 0.034909,0.10473 0.034909,0.0372 0.1008131,0.0372 0.030994,0 0.058726,-0.007 0.028058,-0.007 0.050896,-0.018 0.021207,-0.0101 0.038172,-0.0212 0.016965,-0.0111 0.029037,-0.0206 h 0.00457 l -0.015334,0.075 q -0.034257,0.0173 -0.078954,0.0313 -0.044371,0.0137 -0.094614,0.0137 z"
         style="font-style:italic;font-variant:normal;font-weight:normal;font-stretch:normal;line-height:2.5;font-family:sans-serif;-inkscape-font-specification:'sans-serif Italic';stroke-width:0.07061514;stroke-miterlimit:4;stroke-dasharray:none"
         id="path954"
         inkscape:connector-curvature="0" />
      <path
         d="m 2.6724952,289.28053 h -0.076996 l -0.1327862,-0.43458 -0.1004868,0.43458 h -0.06101 l 0.1122321,-0.4858 h 0.097224 l 0.1213673,0.39673 0.091678,-0.39673 h 0.06101 z"
         style="font-style:italic;font-variant:normal;font-weight:normal;font-stretch:normal;line-height:2.5;font-family:sans-serif;-inkscape-font-specification:'sans-serif Italic';stroke-width:0.07061514;stroke-miterlimit:4;stroke-dasharray:none"
         id="path956"
         inkscape:connector-curvature="0" />
      <path
         d="m 3.018979,289.28934 q -0.09233,0 -0.1448576,-0.0476 -0.052527,-0.048 -0.052527,-0.13572 0,-0.0672 0.020228,-0.12528 0.020228,-0.0581 0.058074,-0.10179 0.037519,-0.0431 0.09233,-0.0679 0.054811,-0.0251 0.122346,-0.0251 0.042087,0 0.079606,0.0104 0.037519,0.0101 0.076996,0.0323 l -0.014682,0.0731 h -0.00489 q -0.010766,-0.0108 -0.021859,-0.0199 -0.010766,-0.009 -0.032625,-0.0206 -0.017944,-0.009 -0.04274,-0.0157 -0.024795,-0.007 -0.054811,-0.007 -0.045676,0 -0.083848,0.0192 -0.038172,0.0189 -0.06623,0.0532 -0.027405,0.0333 -0.043066,0.0809 -0.01566,0.0476 -0.01566,0.10147 0,0.0672 0.034909,0.10473 0.034909,0.0372 0.1008131,0.0372 0.030994,0 0.058726,-0.007 0.028058,-0.007 0.050896,-0.0179 0.021207,-0.0101 0.038172,-0.0212 0.016965,-0.0111 0.029037,-0.0206 h 0.00457 l -0.015334,0.075 q -0.034257,0.0173 -0.078954,0.0313 -0.044371,0.0137 -0.094614,0.0137 z"
         style="font-style:italic;font-variant:normal;font-weight:normal;font-stretch:normal;line-height:2.5;font-family:sans-serif;-inkscape-font-specification:'sans-serif Italic';stroke-width:0.07061514;stroke-miterlimit:4;stroke-dasharray:none"
         id="path958"
         inkscape:connector-curvature="0" />
    </g>
  </g>
</svg>
