  0
SECTION
  2
HEADER
  9
$ACADVER
  1
AC1014
  9
$HANDSEED
  5
FFFF
  9
$MEASUREMENT
 70
     1
  0
ENDSEC
  0
SECTION
  2
TABLES
  0
TABLE
  2
VPORT
  5
8
330
0
100
AcDbSymbolTable
 70
     4
  0
VPORT
  5
2E
330
8
100
AcDbSymbolTableRecord
100
AcDbViewportTableRecord
  2
*ACTIVE
 70
     0
 10
0.0
 20
0.0
 11
1.0
 21
1.0
 12
210.0
 22
148.5
 13
0.0
 23
0.0
 14
10.0
 24
10.0
 15
10.0
 25
10.0
 16
0.0
 26
0.0
 36
1.0
 17
0.0
 27
0.0
 37
0.0
 40
341.0
 41
1.24
 42
50.0
 43
0.0
 44
0.0
 50
0.0
 51
0.0
 71
     0
 72
   100
 73
     1
 74
     3
 75
     0
 76
     0
 77
     0
 78
     0
  0
ENDTAB
  0
TABLE
  2
LTYPE
  5
5
330
0
100
AcDbSymbolTable
 70
     1
  0
LTYPE
  5
14
330
5
100
AcDbSymbolTableRecord
100
AcDbLinetypeTableRecord
  2
BYBLOCK
 70
     0
  3

 72
    65
 73
     0
 40
0.0
  0
LTYPE
  5
15
330
5
100
AcDbSymbolTableRecord
100
AcDbLinetypeTableRecord
  2
BYLAYER
 70
     0
  3

 72
    65
 73
     0
 40
0.0
  0
LTYPE
  5
16
330
5
100
AcDbSymbolTableRecord
100
AcDbLinetypeTableRecord
  2
CONTINUOUS
 70
     0
  3
Solid line
 72
    65
 73
     0
 40
0.0
  0
ENDTAB
  0
TABLE
  2
LAYER
  5
2
100
AcDbSymbolTable
 70
2
  0
LAYER
  5
50
100
AcDbSymbolTableRecord
100
AcDbLayerTableRecord
  2
0
 70
0
  6
CONTINUOUS
  0
LAYER
  5
51
100
AcDbSymbolTableRecord
100
AcDbLayerTableRecord
  2
Capa_1
 70
0
  6
CONTINUOUS
  0
ENDTAB
  0
TABLE
  2
STYLE
  5
3
330
0
100
AcDbSymbolTable
 70
     1
  0
STYLE
  5
11
330
3
100
AcDbSymbolTableRecord
100
AcDbTextStyleTableRecord
  2
STANDARD
 70
     0
 40
0.0
 41
1.0
 50
0.0
 71
     0
 42
2.5
  3
txt
  4

  0
ENDTAB
  0
TABLE
  2
VIEW
  5
6
330
0
100
AcDbSymbolTable
 70
     0
  0
ENDTAB
  0
TABLE
  2
UCS
  5
7
330
0
100
AcDbSymbolTable
 70
     0
  0
ENDTAB
  0
TABLE
  2
APPID
  5
9
330
0
100
AcDbSymbolTable
 70
     2
  0
APPID
  5
12
330
9
100
AcDbSymbolTableRecord
100
AcDbRegAppTableRecord
  2
ACAD
 70
     0
  0
ENDTAB
  0
TABLE
  2
DIMSTYLE
  5
A
330
0
100
AcDbSymbolTable
 70
     1
  0
DIMSTYLE
105
27
330
A
100
AcDbSymbolTableRecord
100
AcDbDimStyleTableRecord
  2
ISO-25
 70
     0
  3

  4

  5

  6

  7

 40
1.0
 41
2.5
 42
0.625
 43
3.75
 44
1.25
 45
0.0
 46
0.0
 47
0.0
 48
0.0
140
2.5
141
2.5
142
0.0
143
0.03937007874016
144
1.0
145
0.0
146
1.0
147
0.625
 71
     0
 72
     0
 73
     0
 74
     0
 75
     0
 76
     0
 77
     1
 78
     8
170
     0
171
     3
172
     1
173
     0
174
     0
175
     0
176
     0
177
     0
178
     0
270
     2
271
     2
272
     2
273
     2
274
     3
340
11
275
     0
280
     0
281
     0
282
     0
283
     0
284
     8
285
     0
286
     0
287
     3
288
     0
  0
ENDTAB
  0
TABLE
  2
BLOCK_RECORD
  5
1
330
0
100
AcDbSymbolTable
 70
     1
  0
BLOCK_RECORD
  5
1F
330
1
100
AcDbSymbolTableRecord
100
AcDbBlockTableRecord
  2
*MODEL_SPACE
  0
BLOCK_RECORD
  5
1B
330
1
100
AcDbSymbolTableRecord
100
AcDbBlockTableRecord
  2
*PAPER_SPACE
  0
ENDTAB
  0
ENDSEC
  0
SECTION
  2
BLOCKS
  0
BLOCK
  5
20
330
1F
100
AcDbEntity
  8
0
100
AcDbBlockBegin
  2
*MODEL_SPACE
 70
     0
 10
0.0
 20
0.0
 30
0.0
  3
*MODEL_SPACE
  1

  0
ENDBLK
  5
21
330
1F
100
AcDbEntity
  8
0
100
AcDbBlockEnd
  0
BLOCK
  5
1C
330
1B
100
AcDbEntity
 67
     1
  8
0
100
AcDbBlockBegin
  2
*PAPER_SPACE
  1

  0
ENDBLK
  5
1D
330
1B
100
AcDbEntity
 67
     1
  8
0
100
AcDbBlockEnd
  0
ENDSEC
  0
SECTION
  2
ENTITIES
  0
LWPOLYLINE
  5
100
100
AcDbEntity
  8
Capa_1
 62
7
100
AcDbPolyline
 90
4
 70
1
 10
0.073810
 20
9.926210
 30
0.0
 10
2.727999
 20
9.926210
 30
0.0
 10
2.727999
 20
0.073830
 30
0.0
 10
0.073810
 20
0.073830
 30
0.0
  0
SPLINE
  5
101
100
AcDbEntity
  8
Capa_1
 62
7
100
AcDbSpline
 70
8
 71
3
 72
8
 73
4
 74
0
 40
0
 40
0
 40
0
 40
0
 40
1
 40
1
 40
1
 40
1
 10
3.755775
 20
8.293245
 30
0.0
 10
3.735123
 20
8.278806
 30
0.0
 10
3.713514
 20
8.268488
 30
0.0
 10
3.690946
 20
8.262290
 30
0.0
  0
SPLINE
  5
102
100
AcDbEntity
  8
Capa_1
 62
7
100
AcDbSpline
 70
8
 71
3
 72
8
 73
4
 74
0
 40
0
 40
0
 40
0
 40
0
 40
1
 40
1
 40
1
 40
1
 10
3.690946
 20
8.262290
 30
0.0
 10
3.668378
 20
8.256160
 30
0.0
 10
3.640594
 20
8.253096
 30
0.0
 10
3.607594
 20
8.253096
 30
0.0
  0
LWPOLYLINE
  5
103
100
AcDbEntity
  8
Capa_1
 62
7
100
AcDbPolyline
 90
12
 70
1
 10
3.357219
 20
8.443901
 30
0.0
 10
3.183170
 20
8.443901
 30
0.0
 10
3.183170
 20
8.262249
 30
0.0
 10
3.130157
 20
8.262249
 30
0.0
 10
3.130157
 20
8.443901
 30
0.0
 10
2.956108
 20
8.443901
 30
0.0
 10
2.956108
 20
8.497229
 30
0.0
 10
3.130157
 20
8.497229
 30
0.0
 10
3.130157
 20
8.678881
 30
0.0
 10
3.183171
 20
8.678881
 30
0.0
 10
3.183171
 20
8.497229
 30
0.0
 10
3.357219
 20
8.497229
 30
0.0
  0
SPLINE
  5
104
100
AcDbEntity
  8
Capa_1
 62
7
100
AcDbSpline
 70
8
 71
3
 72
8
 73
4
 74
0
 40
0
 40
0
 40
0
 40
0
 40
1
 40
1
 40
1
 40
1
 10
3.679130
 20
8.749382
 30
0.0
 10
3.713833
 20
8.749382
 30
0.0
 10
3.739595
 20
8.748020
 30
0.0
 10
3.756414
 20
8.745295
 30
0.0
  0
SPLINE
  5
105
100
AcDbEntity
  8
Capa_1
 62
7
100
AcDbSpline
 70
8
 71
3
 72
8
 73
4
 74
0
 40
0
 40
0
 40
0
 40
0
 40
1
 40
1
 40
1
 40
1
 10
3.756414
 20
8.745295
 30
0.0
 10
3.773446
 20
8.742571
 30
0.0
 10
3.788988
 20
8.736918
 30
0.0
 10
3.803039
 20
8.728337
 30
0.0
  0
SPLINE
  5
106
100
AcDbEntity
  8
Capa_1
 62
7
100
AcDbSpline
 70
8
 71
3
 72
8
 73
4
 74
0
 40
0
 40
0
 40
0
 40
0
 40
1
 40
1
 40
1
 40
1
 10
3.803039
 20
8.728337
 30
0.0
 10
3.814749
 20
8.720777
 30
0.0
 10
3.823478
 20
8.711106
 30
0.0
 10
3.829227
 20
8.699323
 30
0.0
  0
SPLINE
  5
107
100
AcDbEntity
  8
Capa_1
 62
7
100
AcDbSpline
 70
8
 71
3
 72
8
 73
4
 74
0
 40
0
 40
0
 40
0
 40
0
 40
1
 40
1
 40
1
 40
1
 10
3.829227
 20
8.699323
 30
0.0
 10
3.835191
 20
8.687745
 30
0.0
 10
3.838173
 20
8.674873
 30
0.0
 10
3.838173
 20
8.660706
 30
0.0
  0
SPLINE
  5
108
100
AcDbEntity
  8
Capa_1
 62
7
100
AcDbSpline
 70
8
 71
3
 72
8
 73
4
 74
0
 40
0
 40
0
 40
0
 40
0
 40
1
 40
1
 40
1
 40
1
 10
3.838173
 20
8.660706
 30
0.0
 10
3.838173
 20
8.632033
 30
0.0
 10
3.830402
 20
8.606697
 30
0.0
 10
3.814860
 20
8.584699
 30
0.0
  0
SPLINE
  5
109
100
AcDbEntity
  8
Capa_1
 62
7
100
AcDbSpline
 70
8
 71
3
 72
8
 73
4
 74
0
 40
0
 40
0
 40
0
 40
0
 40
1
 40
1
 40
1
 40
1
 10
3.814860
 20
8.584699
 30
0.0
 10
3.799318
 20
8.562700
 30
0.0
 10
3.777814
 20
8.545708
 30
0.0
 10
3.750350
 20
8.533721
 30
0.0
  0
LWPOLYLINE
  5
10a
100
AcDbEntity
  8
Capa_1
 62
7
100
AcDbPolyline
 90
4
 70
0
 10
3.607594
 20
8.253096
 30
0.0
 10
3.432906
 20
8.253096
 30
0.0
 10
3.542445
 20
8.749382
 30
0.0
 10
3.679130
 20
8.749382
 30
0.0
  0
SPLINE
  5
10b
100
AcDbEntity
  8
Capa_1
 62
7
100
AcDbSpline
 70
8
 71
3
 72
8
 73
4
 74
0
 40
0
 40
0
 40
0
 40
0
 40
1
 40
1
 40
1
 40
1
 10
3.750350
 20
8.530656
 30
0.0
 10
3.775899
 20
8.524526
 30
0.0
 10
3.795379
 20
8.513323
 30
0.0
 10
3.808792
 20
8.497045
 30
0.0
  0
SPLINE
  5
10c
100
AcDbEntity
  8
Capa_1
 62
7
100
AcDbSpline
 70
8
 71
3
 72
8
 73
4
 74
0
 40
0
 40
0
 40
0
 40
0
 40
1
 40
1
 40
1
 40
1
 10
3.808792
 20
8.497045
 30
0.0
 10
3.822418
 20
8.480631
 30
0.0
 10
3.829231
 20
8.459518
 30
0.0
 10
3.829231
 20
8.433705
 30
0.0
  0
SPLINE
  5
10d
100
AcDbEntity
  8
Capa_1
 62
7
100
AcDbSpline
 70
8
 71
3
 72
8
 73
4
 74
0
 40
0
 40
0
 40
0
 40
0
 40
1
 40
1
 40
1
 40
1
 10
3.829231
 20
8.433705
 30
0.0
 10
3.829231
 20
8.405509
 30
0.0
 10
3.822418
 20
8.378743
 30
0.0
 10
3.808792
 20
8.353407
 30
0.0
  0
SPLINE
  5
10e
100
AcDbEntity
  8
Capa_1
 62
7
100
AcDbSpline
 70
8
 71
3
 72
8
 73
4
 74
0
 40
0
 40
0
 40
0
 40
0
 40
1
 40
1
 40
1
 40
1
 10
3.808792
 20
8.353407
 30
0.0
 10
3.795379
 20
8.328276
 30
0.0
 10
3.777708
 20
8.307946
 30
0.0
 10
3.755780
 20
8.292417
 30
0.0
  0
LWPOLYLINE
  5
10f
100
AcDbEntity
  8
Capa_1
 62
7
100
AcDbPolyline
 90
2
 70
0
 10
3.750350
 20
8.533721
 30
0.0
 10
3.750350
 20
8.530656
 30
0.0
  0
SPLINE
  5
110
100
AcDbEntity
  8
Capa_1
 62
7
100
AcDbSpline
 70
8
 71
3
 72
8
 73
4
 74
0
 40
0
 40
0
 40
0
 40
0
 40
1
 40
1
 40
1
 40
1
 10
3.769507
 20
8.642879
 30
0.0
 10
3.769507
 20
8.652210
 30
0.0
 10
3.768016
 20
8.659872
 30
0.0
 10
3.765034
 20
8.665865
 30
0.0
  0
SPLINE
  5
111
100
AcDbEntity
  8
Capa_1
 62
7
100
AcDbSpline
 70
8
 71
3
 72
8
 73
4
 74
0
 40
0
 40
0
 40
0
 40
0
 40
1
 40
1
 40
1
 40
1
 10
3.765034
 20
8.665865
 30
0.0
 10
3.762052
 20
8.671995
 30
0.0
 10
3.757794
 20
8.677103
 30
0.0
 10
3.752260
 20
8.681190
 30
0.0
  0
SPLINE
  5
112
100
AcDbEntity
  8
Capa_1
 62
7
100
AcDbSpline
 70
8
 71
3
 72
8
 73
4
 74
0
 40
0
 40
0
 40
0
 40
0
 40
1
 40
1
 40
1
 40
1
 10
3.752260
 20
8.681190
 30
0.0
 10
3.743318
 20
8.687319
 30
0.0
 10
3.732140
 20
8.691201
 30
0.0
 10
3.718728
 20
8.692836
 30
0.0
  0
SPLINE
  5
113
100
AcDbEntity
  8
Capa_1
 62
7
100
AcDbSpline
 70
8
 71
3
 72
8
 73
4
 74
0
 40
0
 40
0
 40
0
 40
0
 40
1
 40
1
 40
1
 40
1
 10
3.718728
 20
8.692836
 30
0.0
 10
3.705315
 20
8.694879
 30
0.0
 10
3.687963
 20
8.695901
 30
0.0
 10
3.666672
 20
8.695901
 30
0.0
  0
LWPOLYLINE
  5
114
100
AcDbEntity
  8
Capa_1
 62
7
100
AcDbPolyline
 90
2
 70
0
 10
3.755780
 20
8.292417
 30
0.0
 10
3.755775
 20
8.293245
 30
0.0
  0
SPLINE
  5
115
100
AcDbEntity
  8
Capa_1
 62
7
100
AcDbSpline
 70
8
 71
3
 72
8
 73
4
 74
0
 40
0
 40
0
 40
0
 40
0
 40
1
 40
1
 40
1
 40
1
 10
3.644956
 20
8.548575
 30
0.0
 10
3.663266
 20
8.548575
 30
0.0
 10
3.679234
 20
8.549937
 30
0.0
 10
3.692859
 20
8.552661
 30
0.0
  0
SPLINE
  5
116
100
AcDbEntity
  8
Capa_1
 62
7
100
AcDbSpline
 70
8
 71
3
 72
8
 73
4
 74
0
 40
0
 40
0
 40
0
 40
0
 40
1
 40
1
 40
1
 40
1
 10
3.692859
 20
8.552661
 30
0.0
 10
3.706485
 20
8.555386
 30
0.0
 10
3.718408
 20
8.559812
 30
0.0
 10
3.728628
 20
8.565942
 30
0.0
  0
SPLINE
  5
117
100
AcDbEntity
  8
Capa_1
 62
7
100
AcDbSpline
 70
8
 71
3
 72
8
 73
4
 74
0
 40
0
 40
0
 40
0
 40
0
 40
1
 40
1
 40
1
 40
1
 10
3.728628
 20
8.565942
 30
0.0
 10
3.741828
 20
8.573911
 30
0.0
 10
3.751941
 20
8.585250
 30
0.0
 10
3.758966
 20
8.599962
 30
0.0
  0
SPLINE
  5
118
100
AcDbEntity
  8
Capa_1
 62
7
100
AcDbSpline
 70
8
 71
3
 72
8
 73
4
 74
0
 40
0
 40
0
 40
0
 40
0
 40
1
 40
1
 40
1
 40
1
 10
3.758966
 20
8.599962
 30
0.0
 10
3.765992
 20
8.614877
 30
0.0
 10
3.769504
 20
8.629316
 30
0.0
 10
3.769504
 20
8.643278
 30
0.0
  0
LWPOLYLINE
  5
119
100
AcDbEntity
  8
Capa_1
 62
7
100
AcDbPolyline
 90
4
 70
0
 10
3.666672
 20
8.695901
 30
0.0
 10
3.594498
 20
8.695901
 30
0.0
 10
3.561923
 20
8.548575
 30
0.0
 10
3.644956
 20
8.548575
 30
0.0
  0
SPLINE
  5
11a
100
AcDbEntity
  8
Capa_1
 62
7
100
AcDbSpline
 70
8
 71
3
 72
8
 73
4
 74
0
 40
0
 40
0
 40
0
 40
0
 40
1
 40
1
 40
1
 40
1
 10
3.762479
 20
8.429895
 30
0.0
 10
3.762479
 20
8.442358
 30
0.0
 10
3.760456
 20
8.452370
 30
0.0
 10
3.756410
 20
8.459930
 30
0.0
  0
SPLINE
  5
11b
100
AcDbEntity
  8
Capa_1
 62
7
100
AcDbSpline
 70
8
 71
3
 72
8
 73
4
 74
0
 40
0
 40
0
 40
0
 40
0
 40
1
 40
1
 40
1
 40
1
 10
3.756410
 20
8.459930
 30
0.0
 10
3.752364
 20
8.467694
 30
0.0
 10
3.745126
 20
8.474914
 30
0.0
 10
3.734695
 20
8.481588
 30
0.0
  0
SPLINE
  5
11c
100
AcDbEntity
  8
Capa_1
 62
7
100
AcDbSpline
 70
8
 71
3
 72
8
 73
4
 74
0
 40
0
 40
0
 40
0
 40
0
 40
1
 40
1
 40
1
 40
1
 10
3.734695
 20
8.481588
 30
0.0
 10
3.726179
 20
8.487037
 30
0.0
 10
3.715214
 20
8.490714
 30
0.0
 10
3.701801
 20
8.492621
 30
0.0
  0
SPLINE
  5
11d
100
AcDbEntity
  8
Capa_1
 62
7
100
AcDbSpline
 70
8
 71
3
 72
8
 73
4
 74
0
 40
0
 40
0
 40
0
 40
0
 40
1
 40
1
 40
1
 40
1
 10
3.701801
 20
8.492621
 30
0.0
 10
3.688601
 20
8.494665
 30
0.0
 10
3.670185
 20
8.495686
 30
0.0
 10
3.646553
 20
8.495686
 30
0.0
  0
LWPOLYLINE
  5
11e
100
AcDbEntity
  8
Capa_1
 62
7
100
AcDbPolyline
 90
2
 70
0
 10
3.769504
 20
8.643278
 30
0.0
 10
3.769507
 20
8.642879
 30
0.0
  0
SPLINE
  5
11f
100
AcDbEntity
  8
Capa_1
 62
7
100
AcDbSpline
 70
8
 71
3
 72
8
 73
4
 74
0
 40
0
 40
0
 40
0
 40
0
 40
1
 40
1
 40
1
 40
1
 10
3.595775
 20
8.307700
 30
0.0
 10
3.624091
 20
8.307700
 30
0.0
 10
3.647085
 20
8.309403
 30
0.0
 10
3.664756
 20
8.312808
 30
0.0
  0
SPLINE
  5
120
100
AcDbEntity
  8
Capa_1
 62
7
100
AcDbSpline
 70
8
 71
3
 72
8
 73
4
 74
0
 40
0
 40
0
 40
0
 40
0
 40
1
 40
1
 40
1
 40
1
 10
3.664756
 20
8.312808
 30
0.0
 10
3.682639
 20
8.316214
 30
0.0
 10
3.698075
 20
8.322003
 30
0.0
 10
3.711062
 20
8.330176
 30
0.0
  0
SPLINE
  5
121
100
AcDbEntity
  8
Capa_1
 62
7
100
AcDbSpline
 70
8
 71
3
 72
8
 73
4
 74
0
 40
0
 40
0
 40
0
 40
0
 40
1
 40
1
 40
1
 40
1
 10
3.711062
 20
8.330176
 30
0.0
 10
3.727881
 20
8.340596
 30
0.0
 10
3.740656
 20
8.354831
 30
0.0
 10
3.749385
 20
8.372879
 30
0.0
  0
SPLINE
  5
122
100
AcDbEntity
  8
Capa_1
 62
7
100
AcDbSpline
 70
8
 71
3
 72
8
 73
4
 74
0
 40
0
 40
0
 40
0
 40
0
 40
1
 40
1
 40
1
 40
1
 10
3.749385
 20
8.372879
 30
0.0
 10
3.758115
 20
8.391132
 30
0.0
 10
3.762479
 20
8.410474
 30
0.0
 10
3.762479
 20
8.430906
 30
0.0
  0
LWPOLYLINE
  5
123
100
AcDbEntity
  8
Capa_1
 62
7
100
AcDbPolyline
 90
4
 70
0
 10
3.646553
 20
8.495686
 30
0.0
 10
3.550427
 20
8.495686
 30
0.0
 10
3.508591
 20
8.307700
 30
0.0
 10
3.595775
 20
8.307700
 30
0.0
  0
LWPOLYLINE
  5
124
100
AcDbEntity
  8
Capa_1
 62
7
100
AcDbPolyline
 90
2
 70
0
 10
3.762479
 20
8.430906
 30
0.0
 10
3.762479
 20
8.429895
 30
0.0
  0
LWPOLYLINE
  5
125
100
AcDbEntity
  8
Capa_1
 62
7
100
AcDbPolyline
 90
8
 70
1
 10
4.261635
 20
8.253249
 30
0.0
 10
4.197445
 20
8.253249
 30
0.0
 10
4.181477
 20
8.392902
 30
0.0
 10
3.976450
 20
8.392902
 30
0.0
 10
3.898527
 20
8.253249
 30
0.0
 10
3.831783
 20
8.253249
 30
0.0
 10
4.114732
 20
8.749535
 30
0.0
 10
4.198403
 20
8.749535
 30
0.0
  0
LWPOLYLINE
  5
126
100
AcDbEntity
  8
Capa_1
 62
7
100
AcDbPolyline
 90
3
 70
1
 10
4.174450
 20
8.446894
 30
0.0
 10
4.144750
 20
8.691876
 30
0.0
 10
4.006788
 20
8.446894
 30
0.0
  0
LWPOLYLINE
  5
127
100
AcDbEntity
  8
Capa_1
 62
7
100
AcDbPolyline
 90
8
 70
1
 10
4.765259
 20
8.693204
 30
0.0
 10
4.595681
 20
8.693204
 30
0.0
 10
4.498277
 20
8.253249
 30
0.0
 10
4.434406
 20
8.253249
 30
0.0
 10
4.531810
 20
8.693204
 30
0.0
 10
4.362232
 20
8.693204
 30
0.0
 10
4.374367
 20
8.749494
 30
0.0
 10
4.777395
 20
8.749494
 30
0.0
  0
LWPOLYLINE
  5
128
100
AcDbEntity
  8
Capa_1
 62
7
100
AcDbPolyline
 90
8
 70
1
 10
5.168924
 20
8.693204
 30
0.0
 10
4.999347
 20
8.693204
 30
0.0
 10
4.901943
 20
8.253249
 30
0.0
 10
4.838072
 20
8.253249
 30
0.0
 10
4.935476
 20
8.693204
 30
0.0
 10
4.765897
 20
8.693204
 30
0.0
 10
4.778033
 20
8.749494
 30
0.0
 10
5.181060
 20
8.749494
 30
0.0
  0
SPLINE
  5
129
100
AcDbEntity
  8
Capa_1
 62
7
100
AcDbSpline
 70
8
 71
3
 72
8
 73
4
 74
0
 40
0
 40
0
 40
0
 40
0
 40
1
 40
1
 40
1
 40
1
 10
3.925992
 20
6.590390
 30
0.0
 10
3.907256
 20
6.573295
 30
0.0
 10
3.885646
 20
6.559946
 30
0.0
 10
3.861162
 20
6.550343
 30
0.0
  0
SPLINE
  5
12a
100
AcDbEntity
  8
Capa_1
 62
7
100
AcDbSpline
 70
8
 71
3
 72
8
 73
4
 74
0
 40
0
 40
0
 40
0
 40
0
 40
1
 40
1
 40
1
 40
1
 10
3.861162
 20
6.550343
 30
0.0
 10
3.836891
 20
6.541013
 30
0.0
 10
3.808682
 20
6.536347
 30
0.0
 10
3.776533
 20
6.536347
 30
0.0
  0
SPLINE
  5
12b
100
AcDbEntity
  8
Capa_1
 62
7
100
AcDbSpline
 70
8
 71
3
 72
8
 73
4
 74
0
 40
0
 40
0
 40
0
 40
0
 40
1
 40
1
 40
1
 40
1
 10
3.776533
 20
6.536347
 30
0.0
 10
3.750772
 20
6.536347
 30
0.0
 10
3.725755
 20
6.539787
 30
0.0
 10
3.701484
 20
6.546666
 30
0.0
  0
SPLINE
  5
12c
100
AcDbEntity
  8
Capa_1
 62
7
100
AcDbSpline
 70
8
 71
3
 72
8
 73
4
 74
0
 40
0
 40
0
 40
0
 40
0
 40
1
 40
1
 40
1
 40
1
 10
3.701484
 20
6.546666
 30
0.0
 10
3.677426
 20
6.553476
 30
0.0
 10
3.657094
 20
6.561479
 30
0.0
 10
3.640487
 20
6.570673
 30
0.0
  0
LWPOLYLINE
  5
12d
100
AcDbEntity
  8
Capa_1
 62
7
100
AcDbPolyline
 90
12
 70
1
 10
3.568633
 20
6.737369
 30
0.0
 10
3.394584
 20
6.737369
 30
0.0
 10
3.394584
 20
6.555727
 30
0.0
 10
3.341570
 20
6.555727
 30
0.0
 10
3.341570
 20
6.737369
 30
0.0
 10
3.167522
 20
6.737369
 30
0.0
 10
3.167522
 20
6.790697
 30
0.0
 10
3.341571
 20
6.790697
 30
0.0
 10
3.341571
 20
6.972349
 30
0.0
 10
3.394584
 20
6.972349
 30
0.0
 10
3.394584
 20
6.790697
 30
0.0
 10
3.568633
 20
6.790697
 30
0.0
  0
SPLINE
  5
12e
100
AcDbEntity
  8
Capa_1
 62
7
100
AcDbSpline
 70
8
 71
3
 72
8
 73
4
 74
0
 40
0
 40
0
 40
0
 40
0
 40
1
 40
1
 40
1
 40
1
 10
3.660284
 20
6.634626
 30
0.0
 10
3.674974
 20
6.623048
 30
0.0
 10
3.693390
 20
6.612934
 30
0.0
 10
3.715532
 20
6.604284
 30
0.0
  0
SPLINE
  5
12f
100
AcDbEntity
  8
Capa_1
 62
7
100
AcDbSpline
 70
8
 71
3
 72
8
 73
4
 74
0
 40
0
 40
0
 40
0
 40
0
 40
1
 40
1
 40
1
 40
1
 10
3.715532
 20
6.604284
 30
0.0
 10
3.737674
 20
6.595839
 30
0.0
 10
3.761094
 20
6.591616
 30
0.0
 10
3.785790
 20
6.591616
 30
0.0
  0
SPLINE
  5
130
100
AcDbEntity
  8
Capa_1
 62
7
100
AcDbSpline
 70
8
 71
3
 72
8
 73
4
 74
0
 40
0
 40
0
 40
0
 40
0
 40
1
 40
1
 40
1
 40
1
 10
3.785790
 20
6.591616
 30
0.0
 10
3.824113
 20
6.591616
 30
0.0
 10
3.855516
 20
6.603501
 30
0.0
 10
3.879999
 20
6.627270
 30
0.0
  0
SPLINE
  5
131
100
AcDbEntity
  8
Capa_1
 62
7
100
AcDbSpline
 70
8
 71
3
 72
8
 73
4
 74
0
 40
0
 40
0
 40
0
 40
0
 40
1
 40
1
 40
1
 40
1
 10
3.879999
 20
6.627270
 30
0.0
 10
3.904484
 20
6.651040
 30
0.0
 10
3.916726
 20
6.681926
 30
0.0
 10
3.916726
 20
6.719930
 30
0.0
  0
SPLINE
  5
132
100
AcDbEntity
  8
Capa_1
 62
7
100
AcDbSpline
 70
8
 71
3
 72
8
 73
4
 74
0
 40
0
 40
0
 40
0
 40
0
 40
1
 40
1
 40
1
 40
1
 10
3.916726
 20
6.719930
 30
0.0
 10
3.916726
 20
6.743291
 30
0.0
 10
3.908955
 20
6.760726
 30
0.0
 10
3.893413
 20
6.772236
 30
0.0
  0
SPLINE
  5
133
100
AcDbEntity
  8
Capa_1
 62
7
100
AcDbSpline
 70
8
 71
3
 72
8
 73
4
 74
0
 40
0
 40
0
 40
0
 40
0
 40
1
 40
1
 40
1
 40
1
 10
3.893413
 20
6.772236
 30
0.0
 10
3.877870
 20
6.783814
 30
0.0
 10
3.853706
 20
6.789604
 30
0.0
 10
3.820919
 20
6.789604
 30
0.0
  0
LWPOLYLINE
  5
134
100
AcDbEntity
  8
Capa_1
 62
7
100
AcDbPolyline
 90
3
 70
0
 10
3.640487
 20
6.570673
 30
0.0
 10
3.655497
 20
6.634626
 30
0.0
 10
3.660284
 20
6.634626
 30
0.0
  0
SPLINE
  5
135
100
AcDbEntity
  8
Capa_1
 62
7
100
AcDbSpline
 70
8
 71
3
 72
8
 73
4
 74
0
 40
0
 40
0
 40
0
 40
0
 40
1
 40
1
 40
1
 40
1
 10
3.833374
 20
6.842625
 30
0.0
 10
3.869354
 20
6.842625
 30
0.0
 10
3.898842
 20
6.851172
 30
0.0
 10
3.921835
 20
6.868267
 30
0.0
  0
SPLINE
  5
136
100
AcDbEntity
  8
Capa_1
 62
7
100
AcDbSpline
 70
8
 71
3
 72
8
 73
4
 74
0
 40
0
 40
0
 40
0
 40
0
 40
1
 40
1
 40
1
 40
1
 10
3.921835
 20
6.868267
 30
0.0
 10
3.944829
 20
6.885566
 30
0.0
 10
3.956326
 20
6.908995
 30
0.0
 10
3.956326
 20
6.938554
 30
0.0
  0
SPLINE
  5
137
100
AcDbEntity
  8
Capa_1
 62
7
100
AcDbSpline
 70
8
 71
3
 72
8
 73
4
 74
0
 40
0
 40
0
 40
0
 40
0
 40
1
 40
1
 40
1
 40
1
 10
3.956326
 20
6.938554
 30
0.0
 10
3.956326
 20
6.957215
 30
0.0
 10
3.949407
 20
6.971756
 30
0.0
 10
3.935568
 20
6.982176
 30
0.0
  0
SPLINE
  5
138
100
AcDbEntity
  8
Capa_1
 62
7
100
AcDbSpline
 70
8
 71
3
 72
8
 73
4
 74
0
 40
0
 40
0
 40
0
 40
0
 40
1
 40
1
 40
1
 40
1
 10
3.935568
 20
6.982176
 30
0.0
 10
3.921942
 20
6.992597
 30
0.0
 10
3.901716
 20
6.997807
 30
0.0
 10
3.874890
 20
6.997807
 30
0.0
  0
SPLINE
  5
139
100
AcDbEntity
  8
Capa_1
 62
7
100
AcDbSpline
 70
8
 71
3
 72
8
 73
4
 74
0
 40
0
 40
0
 40
0
 40
0
 40
1
 40
1
 40
1
 40
1
 10
3.874890
 20
6.997807
 30
0.0
 10
3.852748
 20
6.997807
 30
0.0
 10
3.829115
 20
6.993584
 30
0.0
 10
3.803993
 20
6.985139
 30
0.0
  0
SPLINE
  5
13a
100
AcDbEntity
  8
Capa_1
 62
7
100
AcDbSpline
 70
8
 71
3
 72
8
 73
4
 74
0
 40
0
 40
0
 40
0
 40
0
 40
1
 40
1
 40
1
 40
1
 10
3.803993
 20
6.985139
 30
0.0
 10
3.778870
 20
6.976694
 30
0.0
 10
3.756621
 20
6.966478
 30
0.0
 10
3.737247
 20
6.954491
 30
0.0
  0
LWPOLYLINE
  5
13b
100
AcDbEntity
  8
Capa_1
 62
7
100
AcDbPolyline
 90
4
 70
0
 10
3.820919
 20
6.789604
 30
0.0
 10
3.790580
 20
6.789604
 30
0.0
 10
3.803035
 20
6.842625
 30
0.0
 10
3.833374
 20
6.842625
 30
0.0
  0
SPLINE
  5
13c
100
AcDbEntity
  8
Capa_1
 62
7
100
AcDbSpline
 70
8
 71
3
 72
8
 73
4
 74
0
 40
0
 40
0
 40
0
 40
0
 40
1
 40
1
 40
1
 40
1
 10
3.747788
 20
7.021815
 30
0.0
 10
3.764821
 20
7.029579
 30
0.0
 10
3.786430
 20
7.036696
 30
0.0
 10
3.812617
 20
7.043166
 30
0.0
  0
SPLINE
  5
13d
100
AcDbEntity
  8
Capa_1
 62
7
100
AcDbSpline
 70
8
 71
3
 72
8
 73
4
 74
0
 40
0
 40
0
 40
0
 40
0
 40
1
 40
1
 40
1
 40
1
 10
3.812617
 20
7.043166
 30
0.0
 10
3.839018
 20
7.049977
 30
0.0
 10
3.864034
 20
7.053382
 30
0.0
 10
3.887666
 20
7.053382
 30
0.0
  0
SPLINE
  5
13e
100
AcDbEntity
  8
Capa_1
 62
7
100
AcDbSpline
 70
8
 71
3
 72
8
 73
4
 74
0
 40
0
 40
0
 40
0
 40
0
 40
1
 40
1
 40
1
 40
1
 10
3.887666
 20
7.053382
 30
0.0
 10
3.929608
 20
7.053382
 30
0.0
 10
3.962608
 20
7.044597
 30
0.0
 10
3.986666
 20
7.027025
 30
0.0
  0
SPLINE
  5
13f
100
AcDbEntity
  8
Capa_1
 62
7
100
AcDbSpline
 70
8
 71
3
 72
8
 73
4
 74
0
 40
0
 40
0
 40
0
 40
0
 40
1
 40
1
 40
1
 40
1
 10
3.986666
 20
7.027025
 30
0.0
 10
4.010937
 20
7.009658
 30
0.0
 10
4.023072
 20
6.985888
 30
0.0
 10
4.023072
 20
6.955717
 30
0.0
  0
SPLINE
  5
140
100
AcDbEntity
  8
Capa_1
 62
7
100
AcDbSpline
 70
8
 71
3
 72
8
 73
4
 74
0
 40
0
 40
0
 40
0
 40
0
 40
1
 40
1
 40
1
 40
1
 10
4.023072
 20
6.955717
 30
0.0
 10
4.023072
 20
6.922821
 30
0.0
 10
4.011363
 20
6.893603
 30
0.0
 10
3.987943
 20
6.868063
 30
0.0
  0
SPLINE
  5
141
100
AcDbEntity
  8
Capa_1
 62
7
100
AcDbSpline
 70
8
 71
3
 72
8
 73
4
 74
0
 40
0
 40
0
 40
0
 40
0
 40
1
 40
1
 40
1
 40
1
 10
3.987943
 20
6.868063
 30
0.0
 10
3.964737
 20
6.842727
 30
0.0
 10
3.935356
 20
6.826620
 30
0.0
 10
3.899801
 20
6.819741
 30
0.0
  0
LWPOLYLINE
  5
142
100
AcDbEntity
  8
Capa_1
 62
7
100
AcDbPolyline
 90
3
 70
0
 10
3.737247
 20
6.954491
 30
0.0
 10
3.734056
 20
6.954491
 30
0.0
 10
3.747788
 20
7.021815
 30
0.0
  0
SPLINE
  5
143
100
AcDbEntity
  8
Capa_1
 62
7
100
AcDbSpline
 70
8
 71
3
 72
8
 73
4
 74
0
 40
0
 40
0
 40
0
 40
0
 40
1
 40
1
 40
1
 40
1
 10
3.899801
 20
6.816676
 30
0.0
 10
3.908104
 20
6.814633
 30
0.0
 10
3.917259
 20
6.811228
 30
0.0
 10
3.927265
 20
6.806460
 30
0.0
  0
SPLINE
  5
144
100
AcDbEntity
  8
Capa_1
 62
7
100
AcDbSpline
 70
8
 71
3
 72
8
 73
4
 74
0
 40
0
 40
0
 40
0
 40
0
 40
1
 40
1
 40
1
 40
1
 10
3.927265
 20
6.806460
 30
0.0
 10
3.937485
 20
6.801693
 30
0.0
 10
3.946427
 20
6.795699
 30
0.0
 10
3.954092
 20
6.788480
 30
0.0
  0
SPLINE
  5
145
100
AcDbEntity
  8
Capa_1
 62
7
100
AcDbSpline
 70
8
 71
3
 72
8
 73
4
 74
0
 40
0
 40
0
 40
0
 40
0
 40
1
 40
1
 40
1
 40
1
 10
3.954092
 20
6.788480
 30
0.0
 10
3.962182
 20
6.780920
 30
0.0
 10
3.968889
 20
6.771351
 30
0.0
 10
3.974211
 20
6.759773
 30
0.0
  0
SPLINE
  5
146
100
AcDbEntity
  8
Capa_1
 62
7
100
AcDbSpline
 70
8
 71
3
 72
8
 73
4
 74
0
 40
0
 40
0
 40
0
 40
0
 40
1
 40
1
 40
1
 40
1
 10
3.974211
 20
6.759773
 30
0.0
 10
3.979745
 20
6.748194
 30
0.0
 10
3.982512
 20
6.734539
 30
0.0
 10
3.982512
 20
6.718806
 30
0.0
  0
SPLINE
  5
147
100
AcDbEntity
  8
Capa_1
 62
7
100
AcDbSpline
 70
8
 71
3
 72
8
 73
4
 74
0
 40
0
 40
0
 40
0
 40
0
 40
1
 40
1
 40
1
 40
1
 10
3.982512
 20
6.718806
 30
0.0
 10
3.982512
 20
6.694560
 30
0.0
 10
3.977509
 20
6.671131
 30
0.0
 10
3.967502
 20
6.648520
 30
0.0
  0
SPLINE
  5
148
100
AcDbEntity
  8
Capa_1
 62
7
100
AcDbSpline
 70
8
 71
3
 72
8
 73
4
 74
0
 40
0
 40
0
 40
0
 40
0
 40
1
 40
1
 40
1
 40
1
 10
3.967502
 20
6.648520
 30
0.0
 10
3.957496
 20
6.626044
 30
0.0
 10
3.943657
 20
6.606702
 30
0.0
 10
3.925986
 20
6.590492
 30
0.0
  0
LWPOLYLINE
  5
149
100
AcDbEntity
  8
Capa_1
 62
7
100
AcDbPolyline
 90
2
 70
0
 10
3.899801
 20
6.819741
 30
0.0
 10
3.899801
 20
6.816676
 30
0.0
  0
LWPOLYLINE
  5
14a
100
AcDbEntity
  8
Capa_1
 62
7
100
AcDbPolyline
 90
2
 70
0
 10
3.925986
 20
6.590492
 30
0.0
 10
3.925992
 20
6.590390
 30
0.0
  0
SPLINE
  5
14b
100
AcDbEntity
  8
Capa_1
 62
7
100
AcDbSpline
 70
8
 71
3
 72
8
 73
4
 74
0
 40
0
 40
0
 40
0
 40
0
 40
1
 40
1
 40
1
 40
1
 10
4.789530
 20
6.590390
 30
0.0
 10
4.770795
 20
6.573295
 30
0.0
 10
4.749185
 20
6.559946
 30
0.0
 10
4.724701
 20
6.550343
 30
0.0
  0
SPLINE
  5
14c
100
AcDbEntity
  8
Capa_1
 62
7
100
AcDbSpline
 70
8
 71
3
 72
8
 73
4
 74
0
 40
0
 40
0
 40
0
 40
0
 40
1
 40
1
 40
1
 40
1
 10
4.724701
 20
6.550343
 30
0.0
 10
4.700430
 20
6.541013
 30
0.0
 10
4.672220
 20
6.536347
 30
0.0
 10
4.640071
 20
6.536347
 30
0.0
  0
SPLINE
  5
14d
100
AcDbEntity
  8
Capa_1
 62
7
100
AcDbSpline
 70
8
 71
3
 72
8
 73
4
 74
0
 40
0
 40
0
 40
0
 40
0
 40
1
 40
1
 40
1
 40
1
 10
4.640071
 20
6.536347
 30
0.0
 10
4.614310
 20
6.536347
 30
0.0
 10
4.589294
 20
6.539787
 30
0.0
 10
4.565023
 20
6.546666
 30
0.0
  0
SPLINE
  5
14e
100
AcDbEntity
  8
Capa_1
 62
7
100
AcDbSpline
 70
8
 71
3
 72
8
 73
4
 74
0
 40
0
 40
0
 40
0
 40
0
 40
1
 40
1
 40
1
 40
1
 10
4.565023
 20
6.546666
 30
0.0
 10
4.540964
 20
6.553476
 30
0.0
 10
4.520632
 20
6.561479
 30
0.0
 10
4.504026
 20
6.570673
 30
0.0
  0
LWPOLYLINE
  5
14f
100
AcDbEntity
  8
Capa_1
 62
7
100
AcDbPolyline
 90
7
 70
1
 10
4.540113
 20
7.043013
 30
0.0
 10
4.257164
 20
6.546727
 30
0.0
 10
4.172854
 20
6.546727
 30
0.0
 10
4.109621
 20
7.043013
 30
0.0
 10
4.175408
 20
7.043013
 30
0.0
 10
4.227464
 20
6.607053
 30
0.0
 10
4.472729
 20
7.043013
 30
0.0
  0
SPLINE
  5
150
100
AcDbEntity
  8
Capa_1
 62
7
100
AcDbSpline
 70
8
 71
3
 72
8
 73
4
 74
0
 40
0
 40
0
 40
0
 40
0
 40
1
 40
1
 40
1
 40
1
 10
4.523822
 20
6.634626
 30
0.0
 10
4.538512
 20
6.623048
 30
0.0
 10
4.556929
 20
6.612934
 30
0.0
 10
4.579070
 20
6.604284
 30
0.0
  0
SPLINE
  5
151
100
AcDbEntity
  8
Capa_1
 62
7
100
AcDbSpline
 70
8
 71
3
 72
8
 73
4
 74
0
 40
0
 40
0
 40
0
 40
0
 40
1
 40
1
 40
1
 40
1
 10
4.579070
 20
6.604284
 30
0.0
 10
4.601212
 20
6.595839
 30
0.0
 10
4.624632
 20
6.591616
 30
0.0
 10
4.649328
 20
6.591616
 30
0.0
  0
SPLINE
  5
152
100
AcDbEntity
  8
Capa_1
 62
7
100
AcDbSpline
 70
8
 71
3
 72
8
 73
4
 74
0
 40
0
 40
0
 40
0
 40
0
 40
1
 40
1
 40
1
 40
1
 10
4.649328
 20
6.591616
 30
0.0
 10
4.687651
 20
6.591616
 30
0.0
 10
4.719054
 20
6.603501
 30
0.0
 10
4.743539
 20
6.627270
 30
0.0
  0
SPLINE
  5
153
100
AcDbEntity
  8
Capa_1
 62
7
100
AcDbSpline
 70
8
 71
3
 72
8
 73
4
 74
0
 40
0
 40
0
 40
0
 40
0
 40
1
 40
1
 40
1
 40
1
 10
4.743539
 20
6.627270
 30
0.0
 10
4.768022
 20
6.651040
 30
0.0
 10
4.780264
 20
6.681926
 30
0.0
 10
4.780264
 20
6.719930
 30
0.0
  0
SPLINE
  5
154
100
AcDbEntity
  8
Capa_1
 62
7
100
AcDbSpline
 70
8
 71
3
 72
8
 73
4
 74
0
 40
0
 40
0
 40
0
 40
0
 40
1
 40
1
 40
1
 40
1
 10
4.780264
 20
6.719930
 30
0.0
 10
4.780264
 20
6.743291
 30
0.0
 10
4.772493
 20
6.760726
 30
0.0
 10
4.756951
 20
6.772236
 30
0.0
  0
SPLINE
  5
155
100
AcDbEntity
  8
Capa_1
 62
7
100
AcDbSpline
 70
8
 71
3
 72
8
 73
4
 74
0
 40
0
 40
0
 40
0
 40
0
 40
1
 40
1
 40
1
 40
1
 10
4.756951
 20
6.772236
 30
0.0
 10
4.741409
 20
6.783814
 30
0.0
 10
4.717244
 20
6.789604
 30
0.0
 10
4.684457
 20
6.789604
 30
0.0
  0
LWPOLYLINE
  5
156
100
AcDbEntity
  8
Capa_1
 62
7
100
AcDbPolyline
 90
3
 70
0
 10
4.504026
 20
6.570673
 30
0.0
 10
4.519035
 20
6.634626
 30
0.0
 10
4.523822
 20
6.634626
 30
0.0
  0
SPLINE
  5
157
100
AcDbEntity
  8
Capa_1
 62
7
100
AcDbSpline
 70
8
 71
3
 72
8
 73
4
 74
0
 40
0
 40
0
 40
0
 40
0
 40
1
 40
1
 40
1
 40
1
 10
4.696912
 20
6.842625
 30
0.0
 10
4.732893
 20
6.842625
 30
0.0
 10
4.762380
 20
6.851172
 30
0.0
 10
4.785374
 20
6.868267
 30
0.0
  0
SPLINE
  5
158
100
AcDbEntity
  8
Capa_1
 62
7
100
AcDbSpline
 70
8
 71
3
 72
8
 73
4
 74
0
 40
0
 40
0
 40
0
 40
0
 40
1
 40
1
 40
1
 40
1
 10
4.785374
 20
6.868267
 30
0.0
 10
4.808367
 20
6.885566
 30
0.0
 10
4.819864
 20
6.908995
 30
0.0
 10
4.819864
 20
6.938554
 30
0.0
  0
SPLINE
  5
159
100
AcDbEntity
  8
Capa_1
 62
7
100
AcDbSpline
 70
8
 71
3
 72
8
 73
4
 74
0
 40
0
 40
0
 40
0
 40
0
 40
1
 40
1
 40
1
 40
1
 10
4.819864
 20
6.938554
 30
0.0
 10
4.819864
 20
6.957215
 30
0.0
 10
4.812945
 20
6.971756
 30
0.0
 10
4.799106
 20
6.982176
 30
0.0
  0
SPLINE
  5
15a
100
AcDbEntity
  8
Capa_1
 62
7
100
AcDbSpline
 70
8
 71
3
 72
8
 73
4
 74
0
 40
0
 40
0
 40
0
 40
0
 40
1
 40
1
 40
1
 40
1
 10
4.799106
 20
6.982176
 30
0.0
 10
4.785480
 20
6.992597
 30
0.0
 10
4.765254
 20
6.997807
 30
0.0
 10
4.738428
 20
6.997807
 30
0.0
  0
SPLINE
  5
15b
100
AcDbEntity
  8
Capa_1
 62
7
100
AcDbSpline
 70
8
 71
3
 72
8
 73
4
 74
0
 40
0
 40
0
 40
0
 40
0
 40
1
 40
1
 40
1
 40
1
 10
4.738428
 20
6.997807
 30
0.0
 10
4.716286
 20
6.997807
 30
0.0
 10
4.692653
 20
6.993584
 30
0.0
 10
4.667531
 20
6.985139
 30
0.0
  0
SPLINE
  5
15c
100
AcDbEntity
  8
Capa_1
 62
7
100
AcDbSpline
 70
8
 71
3
 72
8
 73
4
 74
0
 40
0
 40
0
 40
0
 40
0
 40
1
 40
1
 40
1
 40
1
 10
4.667531
 20
6.985139
 30
0.0
 10
4.642408
 20
6.976694
 30
0.0
 10
4.620160
 20
6.966478
 30
0.0
 10
4.600785
 20
6.954491
 30
0.0
  0
LWPOLYLINE
  5
15d
100
AcDbEntity
  8
Capa_1
 62
7
100
AcDbPolyline
 90
4
 70
0
 10
4.684457
 20
6.789604
 30
0.0
 10
4.654119
 20
6.789604
 30
0.0
 10
4.666573
 20
6.842625
 30
0.0
 10
4.696912
 20
6.842625
 30
0.0
  0
SPLINE
  5
15e
100
AcDbEntity
  8
Capa_1
 62
7
100
AcDbSpline
 70
8
 71
3
 72
8
 73
4
 74
0
 40
0
 40
0
 40
0
 40
0
 40
1
 40
1
 40
1
 40
1
 10
4.611326
 20
7.021815
 30
0.0
 10
4.628359
 20
7.029579
 30
0.0
 10
4.649969
 20
7.036696
 30
0.0
 10
4.676155
 20
7.043166
 30
0.0
  0
SPLINE
  5
15f
100
AcDbEntity
  8
Capa_1
 62
7
100
AcDbSpline
 70
8
 71
3
 72
8
 73
4
 74
0
 40
0
 40
0
 40
0
 40
0
 40
1
 40
1
 40
1
 40
1
 10
4.676155
 20
7.043166
 30
0.0
 10
4.702556
 20
7.049977
 30
0.0
 10
4.727572
 20
7.053382
 30
0.0
 10
4.751204
 20
7.053382
 30
0.0
  0
SPLINE
  5
160
100
AcDbEntity
  8
Capa_1
 62
7
100
AcDbSpline
 70
8
 71
3
 72
8
 73
4
 74
0
 40
0
 40
0
 40
0
 40
0
 40
1
 40
1
 40
1
 40
1
 10
4.751204
 20
7.053382
 30
0.0
 10
4.793146
 20
7.053382
 30
0.0
 10
4.826146
 20
7.044597
 30
0.0
 10
4.850204
 20
7.027025
 30
0.0
  0
SPLINE
  5
161
100
AcDbEntity
  8
Capa_1
 62
7
100
AcDbSpline
 70
8
 71
3
 72
8
 73
4
 74
0
 40
0
 40
0
 40
0
 40
0
 40
1
 40
1
 40
1
 40
1
 10
4.850204
 20
7.027025
 30
0.0
 10
4.874475
 20
7.009658
 30
0.0
 10
4.886611
 20
6.985888
 30
0.0
 10
4.886611
 20
6.955717
 30
0.0
  0
SPLINE
  5
162
100
AcDbEntity
  8
Capa_1
 62
7
100
AcDbSpline
 70
8
 71
3
 72
8
 73
4
 74
0
 40
0
 40
0
 40
0
 40
0
 40
1
 40
1
 40
1
 40
1
 10
4.886611
 20
6.955717
 30
0.0
 10
4.886611
 20
6.922821
 30
0.0
 10
4.874901
 20
6.893603
 30
0.0
 10
4.851482
 20
6.868063
 30
0.0
  0
SPLINE
  5
163
100
AcDbEntity
  8
Capa_1
 62
7
100
AcDbSpline
 70
8
 71
3
 72
8
 73
4
 74
0
 40
0
 40
0
 40
0
 40
0
 40
1
 40
1
 40
1
 40
1
 10
4.851482
 20
6.868063
 30
0.0
 10
4.828275
 20
6.842727
 30
0.0
 10
4.798894
 20
6.826620
 30
0.0
 10
4.763339
 20
6.819741
 30
0.0
  0
LWPOLYLINE
  5
164
100
AcDbEntity
  8
Capa_1
 62
7
100
AcDbPolyline
 90
3
 70
0
 10
4.600785
 20
6.954491
 30
0.0
 10
4.597594
 20
6.954491
 30
0.0
 10
4.611326
 20
7.021815
 30
0.0
  0
SPLINE
  5
165
100
AcDbEntity
  8
Capa_1
 62
7
100
AcDbSpline
 70
8
 71
3
 72
8
 73
4
 74
0
 40
0
 40
0
 40
0
 40
0
 40
1
 40
1
 40
1
 40
1
 10
4.763339
 20
6.816676
 30
0.0
 10
4.771642
 20
6.814633
 30
0.0
 10
4.780797
 20
6.811228
 30
0.0
 10
4.790804
 20
6.806460
 30
0.0
  0
SPLINE
  5
166
100
AcDbEntity
  8
Capa_1
 62
7
100
AcDbSpline
 70
8
 71
3
 72
8
 73
4
 74
0
 40
0
 40
0
 40
0
 40
0
 40
1
 40
1
 40
1
 40
1
 10
4.790804
 20
6.806460
 30
0.0
 10
4.801023
 20
6.801693
 30
0.0
 10
4.809965
 20
6.795699
 30
0.0
 10
4.817630
 20
6.788480
 30
0.0
  0
SPLINE
  5
167
100
AcDbEntity
  8
Capa_1
 62
7
100
AcDbSpline
 70
8
 71
3
 72
8
 73
4
 74
0
 40
0
 40
0
 40
0
 40
0
 40
1
 40
1
 40
1
 40
1
 10
4.817630
 20
6.788480
 30
0.0
 10
4.825721
 20
6.780920
 30
0.0
 10
4.832427
 20
6.771351
 30
0.0
 10
4.837749
 20
6.759773
 30
0.0
  0
SPLINE
  5
168
100
AcDbEntity
  8
Capa_1
 62
7
100
AcDbSpline
 70
8
 71
3
 72
8
 73
4
 74
0
 40
0
 40
0
 40
0
 40
0
 40
1
 40
1
 40
1
 40
1
 10
4.837749
 20
6.759773
 30
0.0
 10
4.843283
 20
6.748194
 30
0.0
 10
4.846050
 20
6.734539
 30
0.0
 10
4.846050
 20
6.718806
 30
0.0
  0
SPLINE
  5
169
100
AcDbEntity
  8
Capa_1
 62
7
100
AcDbSpline
 70
8
 71
3
 72
8
 73
4
 74
0
 40
0
 40
0
 40
0
 40
0
 40
1
 40
1
 40
1
 40
1
 10
4.846050
 20
6.718806
 30
0.0
 10
4.846050
 20
6.694560
 30
0.0
 10
4.841047
 20
6.671131
 30
0.0
 10
4.831040
 20
6.648520
 30
0.0
  0
SPLINE
  5
16a
100
AcDbEntity
  8
Capa_1
 62
7
100
AcDbSpline
 70
8
 71
3
 72
8
 73
4
 74
0
 40
0
 40
0
 40
0
 40
0
 40
1
 40
1
 40
1
 40
1
 10
4.831040
 20
6.648520
 30
0.0
 10
4.821034
 20
6.626044
 30
0.0
 10
4.807195
 20
6.606702
 30
0.0
 10
4.789524
 20
6.590492
 30
0.0
  0
LWPOLYLINE
  5
16b
100
AcDbEntity
  8
Capa_1
 62
7
100
AcDbPolyline
 90
2
 70
0
 10
4.763339
 20
6.819741
 30
0.0
 10
4.763339
 20
6.816676
 30
0.0
  0
LWPOLYLINE
  5
16c
100
AcDbEntity
  8
Capa_1
 62
7
100
AcDbPolyline
 90
2
 70
0
 10
4.789524
 20
6.590492
 30
0.0
 10
4.789530
 20
6.590390
 30
0.0
  0
SPLINE
  5
16d
100
AcDbEntity
  8
Capa_1
 62
7
100
AcDbSpline
 70
8
 71
3
 72
8
 73
4
 74
0
 40
0
 40
0
 40
0
 40
0
 40
1
 40
1
 40
1
 40
1
 10
4.142834
 20
4.888527
 30
0.0
 10
4.124099
 20
4.870070
 30
0.0
 10
4.102277
 20
4.855631
 30
0.0
 10
4.077367
 20
4.845211
 30
0.0
  0
SPLINE
  5
16e
100
AcDbEntity
  8
Capa_1
 62
7
100
AcDbSpline
 70
8
 71
3
 72
8
 73
4
 74
0
 40
0
 40
0
 40
0
 40
0
 40
1
 40
1
 40
1
 40
1
 10
4.077367
 20
4.845211
 30
0.0
 10
4.052457
 20
4.834995
 30
0.0
 10
4.023183
 20
4.829887
 30
0.0
 10
3.989544
 20
4.829887
 30
0.0
  0
SPLINE
  5
16f
100
AcDbEntity
  8
Capa_1
 62
7
100
AcDbSpline
 70
8
 71
3
 72
8
 73
4
 74
0
 40
0
 40
0
 40
0
 40
0
 40
1
 40
1
 40
1
 40
1
 10
3.989544
 20
4.829887
 30
0.0
 10
3.963570
 20
4.829887
 30
0.0
 10
3.939086
 20
4.833292
 30
0.0
 10
3.916092
 20
4.840103
 30
0.0
  0
SPLINE
  5
170
100
AcDbEntity
  8
Capa_1
 62
7
100
AcDbSpline
 70
8
 71
3
 72
8
 73
4
 74
0
 40
0
 40
0
 40
0
 40
0
 40
1
 40
1
 40
1
 40
1
 10
3.916092
 20
4.840103
 30
0.0
 10
3.893099
 20
4.846913
 30
0.0
 10
3.874044
 20
4.854235
 30
0.0
 10
3.858927
 20
4.862067
 30
0.0
  0
LWPOLYLINE
  5
171
100
AcDbEntity
  8
Capa_1
 62
7
100
AcDbPolyline
 90
12
 70
1
 10
3.776853
 20
5.030847
 30
0.0
 10
3.602804
 20
5.030847
 30
0.0
 10
3.602804
 20
4.849195
 30
0.0
 10
3.549790
 20
4.849195
 30
0.0
 10
3.549790
 20
5.030847
 30
0.0
 10
3.375742
 20
5.030847
 30
0.0
 10
3.375742
 20
5.084175
 30
0.0
 10
3.549791
 20
5.084175
 30
0.0
 10
3.549791
 20
5.265816
 30
0.0
 10
3.602804
 20
5.265816
 30
0.0
 10
3.602804
 20
5.084175
 30
0.0
 10
3.776853
 20
5.084175
 30
0.0
  0
SPLINE
  5
172
100
AcDbEntity
  8
Capa_1
 62
7
100
AcDbSpline
 70
8
 71
3
 72
8
 73
4
 74
0
 40
0
 40
0
 40
0
 40
0
 40
1
 40
1
 40
1
 40
1
 10
3.876175
 20
4.926735
 30
0.0
 10
3.889375
 20
4.916315
 30
0.0
 10
3.907153
 20
4.906746
 30
0.0
 10
3.929508
 20
4.898028
 30
0.0
  0
SPLINE
  5
173
100
AcDbEntity
  8
Capa_1
 62
7
100
AcDbSpline
 70
8
 71
3
 72
8
 73
4
 74
0
 40
0
 40
0
 40
0
 40
0
 40
1
 40
1
 40
1
 40
1
 10
3.929508
 20
4.898028
 30
0.0
 10
3.951863
 20
4.889583
 30
0.0
 10
3.975069
 20
4.885360
 30
0.0
 10
3.999127
 20
4.885360
 30
0.0
  0
SPLINE
  5
174
100
AcDbEntity
  8
Capa_1
 62
7
100
AcDbSpline
 70
8
 71
3
 72
8
 73
4
 74
0
 40
0
 40
0
 40
0
 40
0
 40
1
 40
1
 40
1
 40
1
 10
3.999127
 20
4.885360
 30
0.0
 10
4.038728
 20
4.885360
 30
0.0
 10
4.070663
 20
4.897347
 30
0.0
 10
4.094934
 20
4.921320
 30
0.0
  0
SPLINE
  5
175
100
AcDbEntity
  8
Capa_1
 62
7
100
AcDbSpline
 70
8
 71
3
 72
8
 73
4
 74
0
 40
0
 40
0
 40
0
 40
0
 40
1
 40
1
 40
1
 40
1
 10
4.094934
 20
4.921320
 30
0.0
 10
4.119205
 20
4.945294
 30
0.0
 10
4.131341
 20
4.976726
 30
0.0
 10
4.131341
 20
5.015615
 30
0.0
  0
SPLINE
  5
176
100
AcDbEntity
  8
Capa_1
 62
7
100
AcDbSpline
 70
8
 71
3
 72
8
 73
4
 74
0
 40
0
 40
0
 40
0
 40
0
 40
1
 40
1
 40
1
 40
1
 10
4.131341
 20
5.015615
 30
0.0
 10
4.131341
 20
5.030734
 30
0.0
 10
4.128574
 20
5.043300
 30
0.0
 10
4.123040
 20
5.053312
 30
0.0
  0
SPLINE
  5
177
100
AcDbEntity
  8
Capa_1
 62
7
100
AcDbSpline
 70
8
 71
3
 72
8
 73
4
 74
0
 40
0
 40
0
 40
0
 40
0
 40
1
 40
1
 40
1
 40
1
 10
4.123040
 20
5.053312
 30
0.0
 10
4.117506
 20
5.063324
 30
0.0
 10
4.110055
 20
5.071428
 30
0.0
 10
4.100685
 20
5.077626
 30
0.0
  0
SPLINE
  5
178
100
AcDbEntity
  8
Capa_1
 62
7
100
AcDbSpline
 70
8
 71
3
 72
8
 73
4
 74
0
 40
0
 40
0
 40
0
 40
0
 40
1
 40
1
 40
1
 40
1
 10
4.100685
 20
5.077626
 30
0.0
 10
4.091104
 20
5.083756
 30
0.0
 10
4.079714
 20
5.088217
 30
0.0
 10
4.066514
 20
5.091009
 30
0.0
  0
SPLINE
  5
179
100
AcDbEntity
  8
Capa_1
 62
7
100
AcDbSpline
 70
8
 71
3
 72
8
 73
4
 74
0
 40
0
 40
0
 40
0
 40
0
 40
1
 40
1
 40
1
 40
1
 10
4.066514
 20
5.091009
 30
0.0
 10
4.053527
 20
5.093734
 30
0.0
 10
4.039795
 20
5.095096
 30
0.0
 10
4.025317
 20
5.095096
 30
0.0
  0
SPLINE
  5
17a
100
AcDbEntity
  8
Capa_1
 62
7
100
AcDbSpline
 70
8
 71
3
 72
8
 73
4
 74
0
 40
0
 40
0
 40
0
 40
0
 40
1
 40
1
 40
1
 40
1
 10
4.025317
 20
5.095096
 30
0.0
 10
4.006582
 20
5.095096
 30
0.0
 10
3.987740
 20
5.093734
 30
0.0
 10
3.968792
 20
5.091009
 30
0.0
  0
SPLINE
  5
17b
100
AcDbEntity
  8
Capa_1
 62
7
100
AcDbSpline
 70
8
 71
3
 72
8
 73
4
 74
0
 40
0
 40
0
 40
0
 40
0
 40
1
 40
1
 40
1
 40
1
 10
3.968792
 20
5.091009
 30
0.0
 10
3.950057
 20
5.088285
 30
0.0
 10
3.934089
 20
5.085561
 30
0.0
 10
3.920889
 20
5.082836
 30
0.0
  0
LWPOLYLINE
  5
17c
100
AcDbEntity
  8
Capa_1
 62
7
100
AcDbPolyline
 90
3
 70
0
 10
3.858927
 20
4.862067
 30
0.0
 10
3.871701
 20
4.926735
 30
0.0
 10
3.876175
 20
4.926735
 30
0.0
  0
SPLINE
  5
17d
100
AcDbEntity
  8
Capa_1
 62
7
100
AcDbSpline
 70
8
 71
3
 72
8
 73
4
 74
0
 40
0
 40
0
 40
0
 40
0
 40
1
 40
1
 40
1
 40
1
 10
3.996569
 20
5.144511
 30
0.0
 10
4.005298
 20
5.145873
 30
0.0
 10
4.013814
 20
5.146895
 30
0.0
 10
4.022117
 20
5.147576
 30
0.0
  0
SPLINE
  5
17e
100
AcDbEntity
  8
Capa_1
 62
7
100
AcDbSpline
 70
8
 71
3
 72
8
 73
4
 74
0
 40
0
 40
0
 40
0
 40
0
 40
1
 40
1
 40
1
 40
1
 10
4.022117
 20
5.147576
 30
0.0
 10
4.030421
 20
5.148243
 30
0.0
 10
4.038830
 20
5.148577
 30
0.0
 10
4.047346
 20
5.148577
 30
0.0
  0
SPLINE
  5
17f
100
AcDbEntity
  8
Capa_1
 62
7
100
AcDbSpline
 70
8
 71
3
 72
8
 73
4
 74
0
 40
0
 40
0
 40
0
 40
0
 40
1
 40
1
 40
1
 40
1
 10
4.047346
 20
5.148577
 30
0.0
 10
4.095250
 20
5.148577
 30
0.0
 10
4.132508
 20
5.137782
 30
0.0
 10
4.159121
 20
5.116192
 30
0.0
  0
SPLINE
  5
180
100
AcDbEntity
  8
Capa_1
 62
7
100
AcDbSpline
 70
8
 71
3
 72
8
 73
4
 74
0
 40
0
 40
0
 40
0
 40
0
 40
1
 40
1
 40
1
 40
1
 10
4.159121
 20
5.116192
 30
0.0
 10
4.185946
 20
5.094670
 30
0.0
 10
4.199359
 20
5.065350
 30
0.0
 10
4.199359
 20
5.028232
 30
0.0
  0
SPLINE
  5
181
100
AcDbEntity
  8
Capa_1
 62
7
100
AcDbSpline
 70
8
 71
3
 72
8
 73
4
 74
0
 40
0
 40
0
 40
0
 40
0
 40
1
 40
1
 40
1
 40
1
 10
4.199359
 20
5.028232
 30
0.0
 10
4.199359
 20
5.001534
 30
0.0
 10
4.194462
 20
4.976198
 30
0.0
 10
4.184669
 20
4.952224
 30
0.0
  0
SPLINE
  5
182
100
AcDbEntity
  8
Capa_1
 62
7
100
AcDbSpline
 70
8
 71
3
 72
8
 73
4
 74
0
 40
0
 40
0
 40
0
 40
0
 40
1
 40
1
 40
1
 40
1
 10
4.184669
 20
4.952224
 30
0.0
 10
4.174875
 20
4.928250
 30
0.0
 10
4.160930
 20
4.907239
 30
0.0
 10
4.142833
 20
4.889191
 30
0.0
  0
LWPOLYLINE
  5
183
100
AcDbEntity
  8
Capa_1
 62
7
100
AcDbPolyline
 90
6
 70
0
 10
3.920889
 20
5.082836
 30
0.0
 10
3.977095
 20
5.337145
 30
0.0
 10
4.262280
 20
5.337145
 30
0.0
 10
4.249825
 20
5.281161
 30
0.0
 10
4.026589
 20
5.281161
 30
0.0
 10
3.996569
 20
5.144511
 30
0.0
  0
LWPOLYLINE
  5
184
100
AcDbEntity
  8
Capa_1
 62
7
100
AcDbPolyline
 90
2
 70
0
 10
4.142833
 20
4.889191
 30
0.0
 10
4.142834
 20
4.888527
 30
0.0
  0
SPLINE
  5
185
100
AcDbEntity
  8
Capa_1
 62
7
100
AcDbSpline
 70
8
 71
3
 72
8
 73
4
 74
0
 40
0
 40
0
 40
0
 40
0
 40
1
 40
1
 40
1
 40
1
 10
3.497097
 20
3.124008
 30
0.0
 10
3.431522
 20
3.124008
 30
0.0
 10
3.380319
 20
3.140899
 30
0.0
 10
3.343487
 20
3.174680
 30
0.0
  0
SPLINE
  5
186
100
AcDbEntity
  8
Capa_1
 62
7
100
AcDbSpline
 70
8
 71
3
 72
8
 73
4
 74
0
 40
0
 40
0
 40
0
 40
0
 40
1
 40
1
 40
1
 40
1
 10
3.343487
 20
3.174680
 30
0.0
 10
3.306655
 20
3.208461
 30
0.0
 10
3.288238
 20
3.256456
 30
0.0
 10
3.288238
 20
3.318665
 30
0.0
  0
SPLINE
  5
187
100
AcDbEntity
  8
Capa_1
 62
7
100
AcDbSpline
 70
8
 71
3
 72
8
 73
4
 74
0
 40
0
 40
0
 40
0
 40
0
 40
1
 40
1
 40
1
 40
1
 10
3.288238
 20
3.318665
 30
0.0
 10
3.288238
 20
3.364433
 30
0.0
 10
3.294945
 20
3.406762
 30
0.0
 10
3.308358
 20
3.445651
 30
0.0
  0
SPLINE
  5
188
100
AcDbEntity
  8
Capa_1
 62
7
100
AcDbSpline
 70
8
 71
3
 72
8
 73
4
 74
0
 40
0
 40
0
 40
0
 40
0
 40
1
 40
1
 40
1
 40
1
 10
3.308358
 20
3.445651
 30
0.0
 10
3.321983
 20
3.484540
 30
0.0
 10
3.341677
 20
3.518423
 30
0.0
 10
3.367438
 20
3.547301
 30
0.0
  0
SPLINE
  5
189
100
AcDbEntity
  8
Capa_1
 62
7
100
AcDbSpline
 70
8
 71
3
 72
8
 73
4
 74
0
 40
0
 40
0
 40
0
 40
0
 40
1
 40
1
 40
1
 40
1
 10
3.367438
 20
3.547301
 30
0.0
 10
3.392987
 20
3.575974
 30
0.0
 10
3.424284
 20
3.598415
 30
0.0
 10
3.461329
 20
3.614625
 30
0.0
  0
SPLINE
  5
18a
100
AcDbEntity
  8
Capa_1
 62
7
100
AcDbSpline
 70
8
 71
3
 72
8
 73
4
 74
0
 40
0
 40
0
 40
0
 40
0
 40
1
 40
1
 40
1
 40
1
 10
3.461329
 20
3.614625
 30
0.0
 10
3.498587
 20
3.630834
 30
0.0
 10
3.540423
 20
3.638939
 30
0.0
 10
3.586835
 20
3.638939
 30
0.0
  0
SPLINE
  5
18b
100
AcDbEntity
  8
Capa_1
 62
7
100
AcDbSpline
 70
8
 71
3
 72
8
 73
4
 74
0
 40
0
 40
0
 40
0
 40
0
 40
1
 40
1
 40
1
 40
1
 10
3.586835
 20
3.638939
 30
0.0
 10
3.614726
 20
3.638939
 30
0.0
 10
3.642510
 20
3.635397
 30
0.0
 10
3.670187
 20
3.628314
 30
0.0
  0
SPLINE
  5
18c
100
AcDbEntity
  8
Capa_1
 62
7
100
AcDbSpline
 70
8
 71
3
 72
8
 73
4
 74
0
 40
0
 40
0
 40
0
 40
0
 40
1
 40
1
 40
1
 40
1
 10
3.670187
 20
3.628314
 30
0.0
 10
3.698078
 20
3.621435
 30
0.0
 10
3.726501
 20
3.610095
 30
0.0
 10
3.755455
 20
3.594295
 30
0.0
  0
LWPOLYLINE
  5
18d
100
AcDbEntity
  8
Capa_1
 62
7
100
AcDbPolyline
 90
7
 70
1
 10
4.748333
 20
5.336491
 30
0.0
 10
4.465384
 20
4.840205
 30
0.0
 10
4.381073
 20
4.840205
 30
0.0
 10
4.317841
 20
5.336491
 30
0.0
 10
4.383628
 20
5.336491
 30
0.0
 10
4.435683
 20
4.900531
 30
0.0
 10
4.680949
 20
5.336491
 30
0.0
  0
SPLINE
  5
18e
100
AcDbEntity
  8
Capa_1
 62
7
100
AcDbSpline
 70
8
 71
3
 72
8
 73
4
 74
0
 40
0
 40
0
 40
0
 40
0
 40
1
 40
1
 40
1
 40
1
 10
3.735338
 20
3.519002
 30
0.0
 10
3.711706
 20
3.542090
 30
0.0
 10
3.685944
 20
3.558743
 30
0.0
 10
3.658054
 20
3.568959
 30
0.0
  0
SPLINE
  5
18f
100
AcDbEntity
  8
Capa_1
 62
7
100
AcDbSpline
 70
8
 71
3
 72
8
 73
4
 74
0
 40
0
 40
0
 40
0
 40
0
 40
1
 40
1
 40
1
 40
1
 10
3.658054
 20
3.568959
 30
0.0
 10
3.630376
 20
3.579379
 30
0.0
 10
3.600570
 20
3.584589
 30
0.0
 10
3.568634
 20
3.584589
 30
0.0
  0
SPLINE
  5
190
100
AcDbEntity
  8
Capa_1
 62
7
100
AcDbSpline
 70
8
 71
3
 72
8
 73
4
 74
0
 40
0
 40
0
 40
0
 40
0
 40
1
 40
1
 40
1
 40
1
 10
3.568634
 20
3.584589
 30
0.0
 10
3.533505
 20
3.584589
 30
0.0
 10
3.502740
 20
3.577370
 30
0.0
 10
3.476340
 20
3.562931
 30
0.0
  0
SPLINE
  5
191
100
AcDbEntity
  8
Capa_1
 62
7
100
AcDbSpline
 70
8
 71
3
 72
8
 73
4
 74
0
 40
0
 40
0
 40
0
 40
0
 40
1
 40
1
 40
1
 40
1
 10
3.476340
 20
3.562931
 30
0.0
 10
3.449940
 20
3.548493
 30
0.0
 10
3.427691
 20
3.529286
 30
0.0
 10
3.409594
 20
3.505313
 30
0.0
  0
SPLINE
  5
192
100
AcDbEntity
  8
Capa_1
 62
7
100
AcDbSpline
 70
8
 71
3
 72
8
 73
4
 74
0
 40
0
 40
0
 40
0
 40
0
 40
1
 40
1
 40
1
 40
1
 10
3.409594
 20
3.505313
 30
0.0
 10
3.391923
 20
3.481748
 30
0.0
 10
3.378510
 20
3.454300
 30
0.0
 10
3.369355
 20
3.422971
 30
0.0
  0
SPLINE
  5
193
100
AcDbEntity
  8
Capa_1
 62
7
100
AcDbSpline
 70
8
 71
3
 72
8
 73
4
 74
0
 40
0
 40
0
 40
0
 40
0
 40
1
 40
1
 40
1
 40
1
 10
3.369355
 20
3.422971
 30
0.0
 10
3.360413
 20
3.391642
 30
0.0
 10
3.355942
 20
3.360074
 30
0.0
 10
3.355942
 20
3.328268
 30
0.0
  0
SPLINE
  5
194
100
AcDbEntity
  8
Capa_1
 62
7
100
AcDbSpline
 70
8
 71
3
 72
8
 73
4
 74
0
 40
0
 40
0
 40
0
 40
0
 40
1
 40
1
 40
1
 40
1
 10
3.355942
 20
3.328268
 30
0.0
 10
3.355942
 20
3.280525
 30
0.0
 10
3.368397
 20
3.243638
 30
0.0
 10
3.393307
 20
3.217608
 30
0.0
  0
SPLINE
  5
195
100
AcDbEntity
  8
Capa_1
 62
7
100
AcDbSpline
 70
8
 71
3
 72
8
 73
4
 74
0
 40
0
 40
0
 40
0
 40
0
 40
1
 40
1
 40
1
 40
1
 10
3.393307
 20
3.217608
 30
0.0
 10
3.418429
 20
3.191591
 30
0.0
 10
3.455475
 20
3.178582
 30
0.0
 10
3.504443
 20
3.178582
 30
0.0
  0
SPLINE
  5
196
100
AcDbEntity
  8
Capa_1
 62
7
100
AcDbSpline
 70
8
 71
3
 72
8
 73
4
 74
0
 40
0
 40
0
 40
0
 40
0
 40
1
 40
1
 40
1
 40
1
 10
3.504443
 20
3.178582
 30
0.0
 10
3.525946
 20
3.178582
 30
0.0
 10
3.546065
 20
3.180626
 30
0.0
 10
3.564801
 20
3.184712
 30
0.0
  0
SPLINE
  5
197
100
AcDbEntity
  8
Capa_1
 62
7
100
AcDbSpline
 70
8
 71
3
 72
8
 73
4
 74
0
 40
0
 40
0
 40
0
 40
0
 40
1
 40
1
 40
1
 40
1
 10
3.564801
 20
3.184712
 30
0.0
 10
3.583749
 20
3.188799
 30
0.0
 10
3.601527
 20
3.194145
 30
0.0
 10
3.618133
 20
3.200751
 30
0.0
  0
LWPOLYLINE
  5
198
100
AcDbEntity
  8
Capa_1
 62
7
100
AcDbPolyline
 90
3
 70
0
 10
3.755455
 20
3.594295
 30
0.0
 10
3.741084
 20
3.519002
 30
0.0
 10
3.735338
 20
3.519002
 30
0.0
  0
SPLINE
  5
199
100
AcDbEntity
  8
Capa_1
 62
7
100
AcDbSpline
 70
8
 71
3
 72
8
 73
4
 74
0
 40
0
 40
0
 40
0
 40
0
 40
1
 40
1
 40
1
 40
1
 10
3.673381
 20
3.170440
 30
0.0
 10
3.659330
 20
3.164311
 30
0.0
 10
3.646662
 20
3.158862
 30
0.0
 10
3.635378
 20
3.154095
 30
0.0
  0
SPLINE
  5
19a
100
AcDbEntity
  8
Capa_1
 62
7
100
AcDbSpline
 70
8
 71
3
 72
8
 73
4
 74
0
 40
0
 40
0
 40
0
 40
0
 40
1
 40
1
 40
1
 40
1
 10
3.635378
 20
3.154095
 30
0.0
 10
3.624093
 20
3.149327
 30
0.0
 10
3.609935
 20
3.144423
 30
0.0
 10
3.592903
 20
3.139383
 30
0.0
  0
SPLINE
  5
19b
100
AcDbEntity
  8
Capa_1
 62
7
100
AcDbSpline
 70
8
 71
3
 72
8
 73
4
 74
0
 40
0
 40
0
 40
0
 40
0
 40
1
 40
1
 40
1
 40
1
 10
3.592903
 20
3.139383
 30
0.0
 10
3.578213
 20
3.134616
 30
0.0
 10
3.562990
 20
3.130938
 30
0.0
 10
3.547235
 20
3.128350
 30
0.0
  0
SPLINE
  5
19c
100
AcDbEntity
  8
Capa_1
 62
7
100
AcDbSpline
 70
8
 71
3
 72
8
 73
4
 74
0
 40
0
 40
0
 40
0
 40
0
 40
1
 40
1
 40
1
 40
1
 10
3.547235
 20
3.128350
 30
0.0
 10
3.531693
 20
3.125626
 30
0.0
 10
3.514980
 20
3.124264
 30
0.0
 10
3.497096
 20
3.124264
 30
0.0
  0
LWPOLYLINE
  5
19d
100
AcDbEntity
  8
Capa_1
 62
7
100
AcDbPolyline
 90
6
 70
0
 10
3.618133
 20
3.200751
 30
0.0
 10
3.644959
 20
3.327747
 30
0.0
 10
3.518174
 20
3.327747
 30
0.0
 10
3.530310
 20
3.383425
 30
0.0
 10
3.720646
 20
3.383425
 30
0.0
 10
3.673381
 20
3.170440
 30
0.0
  0
LWPOLYLINE
  5
19e
100
AcDbEntity
  8
Capa_1
 62
7
100
AcDbPolyline
 90
2
 70
0
 10
3.497096
 20
3.124264
 30
0.0
 10
3.497097
 20
3.124008
 30
0.0
  0
SPLINE
  5
19f
100
AcDbEntity
  8
Capa_1
 62
7
100
AcDbSpline
 70
8
 71
3
 72
8
 73
4
 74
0
 40
0
 40
0
 40
0
 40
0
 40
1
 40
1
 40
1
 40
1
 10
4.727255
 20
3.439654
 30
0.0
 10
4.727255
 20
3.385441
 30
0.0
 10
4.714055
 20
3.334112
 30
0.0
 10
4.687655
 20
3.285667
 30
0.0
  0
SPLINE
  5
1a0
100
AcDbEntity
  8
Capa_1
 62
7
100
AcDbSpline
 70
8
 71
3
 72
8
 73
4
 74
0
 40
0
 40
0
 40
0
 40
0
 40
1
 40
1
 40
1
 40
1
 10
4.687655
 20
3.285667
 30
0.0
 10
4.661255
 20
3.237243
 30
0.0
 10
4.625168
 20
3.199801
 30
0.0
 10
4.579393
 20
3.173342
 30
0.0
  0
SPLINE
  5
1a1
100
AcDbEntity
  8
Capa_1
 62
7
100
AcDbSpline
 70
8
 71
3
 72
8
 73
4
 74
0
 40
0
 40
0
 40
0
 40
0
 40
1
 40
1
 40
1
 40
1
 10
4.579393
 20
3.173342
 30
0.0
 10
4.551290
 20
3.157541
 30
0.0
 10
4.522548
 20
3.146984
 30
0.0
 10
4.493167
 20
3.141672
 30
0.0
  0
SPLINE
  5
1a2
100
AcDbEntity
  8
Capa_1
 62
7
100
AcDbSpline
 70
8
 71
3
 72
8
 73
4
 74
0
 40
0
 40
0
 40
0
 40
0
 40
1
 40
1
 40
1
 40
1
 10
4.493167
 20
3.141672
 30
0.0
 10
4.463787
 20
3.136223
 30
0.0
 10
4.430467
 20
3.133499
 30
0.0
 10
4.393209
 20
3.133499
 30
0.0
  0
LWPOLYLINE
  5
1a3
100
AcDbEntity
  8
Capa_1
 62
7
100
AcDbPolyline
 90
10
 70
1
 10
4.138683
 20
3.133683
 30
0.0
 10
4.063315
 20
3.133683
 30
0.0
 10
3.933337
 20
3.577642
 30
0.0
 10
3.834976
 20
3.133683
 30
0.0
 10
3.775256
 20
3.133683
 30
0.0
 10
3.885114
 20
3.629969
 30
0.0
 10
3.980282
 20
3.629969
 30
0.0
 10
4.099082
 20
3.224667
 30
0.0
 10
4.188821
 20
3.629969
 30
0.0
 10
4.248541
 20
3.629969
 30
0.0
  0
SPLINE
  5
1a4
100
AcDbEntity
  8
Capa_1
 62
7
100
AcDbSpline
 70
8
 71
3
 72
8
 73
4
 74
0
 40
0
 40
0
 40
0
 40
0
 40
1
 40
1
 40
1
 40
1
 10
4.485184
 20
3.629785
 30
0.0
 10
4.519675
 20
3.629785
 30
0.0
 10
4.551078
 20
3.627401
 30
0.0
 10
4.579394
 20
3.622634
 30
0.0
  0
SPLINE
  5
1a5
100
AcDbEntity
  8
Capa_1
 62
7
100
AcDbSpline
 70
8
 71
3
 72
8
 73
4
 74
0
 40
0
 40
0
 40
0
 40
0
 40
1
 40
1
 40
1
 40
1
 10
4.579394
 20
3.622634
 30
0.0
 10
4.607923
 20
3.617866
 30
0.0
 10
4.634004
 20
3.607208
 30
0.0
 10
4.657637
 20
3.590658
 30
0.0
  0
SPLINE
  5
1a6
100
AcDbEntity
  8
Capa_1
 62
7
100
AcDbSpline
 70
8
 71
3
 72
8
 73
4
 74
0
 40
0
 40
0
 40
0
 40
0
 40
1
 40
1
 40
1
 40
1
 10
4.657637
 20
3.590658
 30
0.0
 10
4.680204
 20
3.574857
 30
0.0
 10
4.697449
 20
3.554186
 30
0.0
 10
4.709372
 20
3.528646
 30
0.0
  0
SPLINE
  5
1a7
100
AcDbEntity
  8
Capa_1
 62
7
100
AcDbSpline
 70
8
 71
3
 72
8
 73
4
 74
0
 40
0
 40
0
 40
0
 40
0
 40
1
 40
1
 40
1
 40
1
 10
4.709372
 20
3.528646
 30
0.0
 10
4.721294
 20
3.503310
 30
0.0
 10
4.727255
 20
3.473752
 30
0.0
 10
4.727255
 20
3.439971
 30
0.0
  0
LWPOLYLINE
  5
1a8
100
AcDbEntity
  8
Capa_1
 62
7
100
AcDbPolyline
 90
4
 70
0
 10
4.393209
 20
3.133499
 30
0.0
 10
4.264828
 20
3.133499
 30
0.0
 10
4.374687
 20
3.629785
 30
0.0
 10
4.485184
 20
3.629785
 30
0.0
  0
SPLINE
  5
1a9
100
AcDbEntity
  8
Capa_1
 62
7
100
AcDbSpline
 70
8
 71
3
 72
8
 73
4
 74
0
 40
0
 40
0
 40
0
 40
0
 40
1
 40
1
 40
1
 40
1
 10
4.660511
 20
3.433524
 30
0.0
 10
4.660511
 20
3.458860
 30
0.0
 10
4.656146
 20
3.480620
 30
0.0
 10
4.647416
 20
3.498805
 30
0.0
  0
SPLINE
  5
1aa
100
AcDbEntity
  8
Capa_1
 62
7
100
AcDbSpline
 70
8
 71
3
 72
8
 73
4
 74
0
 40
0
 40
0
 40
0
 40
0
 40
1
 40
1
 40
1
 40
1
 10
4.647416
 20
3.498805
 30
0.0
 10
4.638900
 20
3.517262
 30
0.0
 10
4.625913
 20
3.532586
 30
0.0
 10
4.608455
 20
3.544777
 30
0.0
  0
SPLINE
  5
1ab
100
AcDbEntity
  8
Capa_1
 62
7
100
AcDbSpline
 70
8
 71
3
 72
8
 73
4
 74
0
 40
0
 40
0
 40
0
 40
0
 40
1
 40
1
 40
1
 40
1
 10
4.608455
 20
3.544777
 30
0.0
 10
4.591210
 20
3.556764
 30
0.0
 10
4.572794
 20
3.564767
 30
0.0
 10
4.553207
 20
3.568785
 30
0.0
  0
SPLINE
  5
1ac
100
AcDbEntity
  8
Capa_1
 62
7
100
AcDbSpline
 70
8
 71
3
 72
8
 73
4
 74
0
 40
0
 40
0
 40
0
 40
0
 40
1
 40
1
 40
1
 40
1
 10
4.553207
 20
3.568785
 30
0.0
 10
4.533620
 20
3.572871
 30
0.0
 10
4.508817
 20
3.574915
 30
0.0
 10
4.478797
 20
3.574915
 30
0.0
  0
LWPOLYLINE
  5
1ad
100
AcDbEntity
  8
Capa_1
 62
7
100
AcDbPolyline
 90
2
 70
0
 10
4.727255
 20
3.439971
 30
0.0
 10
4.727255
 20
3.439654
 30
0.0
  0
SPLINE
  5
1ae
100
AcDbEntity
  8
Capa_1
 62
7
100
AcDbSpline
 70
8
 71
3
 72
8
 73
4
 74
0
 40
0
 40
0
 40
0
 40
0
 40
1
 40
1
 40
1
 40
1
 10
4.405984
 20
3.187287
 30
0.0
 10
4.436429
 20
3.187287
 30
0.0
 10
4.463574
 20
3.189670
 30
0.0
 10
4.487419
 20
3.194438
 30
0.0
  0
SPLINE
  5
1af
100
AcDbEntity
  8
Capa_1
 62
7
100
AcDbSpline
 70
8
 71
3
 72
8
 73
4
 74
0
 40
0
 40
0
 40
0
 40
0
 40
1
 40
1
 40
1
 40
1
 10
4.487419
 20
3.194438
 30
0.0
 10
4.511477
 20
3.199886
 30
0.0
 10
4.534151
 20
3.208877
 30
0.0
 10
4.555441
 20
3.221408
 30
0.0
  0
SPLINE
  5
1b0
100
AcDbEntity
  8
Capa_1
 62
7
100
AcDbSpline
 70
8
 71
3
 72
8
 73
4
 74
0
 40
0
 40
0
 40
0
 40
0
 40
1
 40
1
 40
1
 40
1
 10
4.555441
 20
3.221408
 30
0.0
 10
4.589719
 20
3.241840
 30
0.0
 10
4.615800
 20
3.271297
 30
0.0
 10
4.633684
 20
3.309777
 30
0.0
  0
SPLINE
  5
1b1
100
AcDbEntity
  8
Capa_1
 62
7
100
AcDbSpline
 70
8
 71
3
 72
8
 73
4
 74
0
 40
0
 40
0
 40
0
 40
0
 40
1
 40
1
 40
1
 40
1
 10
4.633684
 20
3.309777
 30
0.0
 10
4.651568
 20
3.348462
 30
0.0
 10
4.660510
 20
3.389459
 30
0.0
 10
4.660510
 20
3.432768
 30
0.0
  0
LWPOLYLINE
  5
1b2
100
AcDbEntity
  8
Capa_1
 62
7
100
AcDbPolyline
 90
4
 70
0
 10
4.478797
 20
3.574915
 30
0.0
 10
4.426103
 20
3.574915
 30
0.0
 10
4.339877
 20
3.187287
 30
0.0
 10
4.405984
 20
3.187287
 30
0.0
  0
SPLINE
  5
1b3
100
AcDbEntity
  8
Capa_1
 62
7
100
AcDbSpline
 70
8
 71
3
 72
8
 73
4
 74
0
 40
0
 40
0
 40
0
 40
0
 40
1
 40
1
 40
1
 40
1
 10
3.497097
 20
1.417486
 30
0.0
 10
3.431522
 20
1.417486
 30
0.0
 10
3.380319
 20
1.434377
 30
0.0
 10
3.343487
 20
1.468158
 30
0.0
  0
SPLINE
  5
1b4
100
AcDbEntity
  8
Capa_1
 62
7
100
AcDbSpline
 70
8
 71
3
 72
8
 73
4
 74
0
 40
0
 40
0
 40
0
 40
0
 40
1
 40
1
 40
1
 40
1
 10
3.343487
 20
1.468158
 30
0.0
 10
3.306655
 20
1.501939
 30
0.0
 10
3.288238
 20
1.549938
 30
0.0
 10
3.288238
 20
1.612153
 30
0.0
  0
SPLINE
  5
1b5
100
AcDbEntity
  8
Capa_1
 62
7
100
AcDbSpline
 70
8
 71
3
 72
8
 73
4
 74
0
 40
0
 40
0
 40
0
 40
0
 40
1
 40
1
 40
1
 40
1
 10
3.288238
 20
1.612153
 30
0.0
 10
3.288238
 20
1.657921
 30
0.0
 10
3.294945
 20
1.700250
 30
0.0
 10
3.308358
 20
1.739139
 30
0.0
  0
SPLINE
  5
1b6
100
AcDbEntity
  8
Capa_1
 62
7
100
AcDbSpline
 70
8
 71
3
 72
8
 73
4
 74
0
 40
0
 40
0
 40
0
 40
0
 40
1
 40
1
 40
1
 40
1
 10
3.308358
 20
1.739139
 30
0.0
 10
3.321983
 20
1.778028
 30
0.0
 10
3.341677
 20
1.811912
 30
0.0
 10
3.367438
 20
1.840789
 30
0.0
  0
SPLINE
  5
1b7
100
AcDbEntity
  8
Capa_1
 62
7
100
AcDbSpline
 70
8
 71
3
 72
8
 73
4
 74
0
 40
0
 40
0
 40
0
 40
0
 40
1
 40
1
 40
1
 40
1
 10
3.367438
 20
1.840789
 30
0.0
 10
3.392987
 20
1.869462
 30
0.0
 10
3.424284
 20
1.891903
 30
0.0
 10
3.461329
 20
1.908113
 30
0.0
  0
SPLINE
  5
1b8
100
AcDbEntity
  8
Capa_1
 62
7
100
AcDbSpline
 70
8
 71
3
 72
8
 73
4
 74
0
 40
0
 40
0
 40
0
 40
0
 40
1
 40
1
 40
1
 40
1
 10
3.461329
 20
1.908113
 30
0.0
 10
3.498587
 20
1.924322
 30
0.0
 10
3.540423
 20
1.932427
 30
0.0
 10
3.586835
 20
1.932427
 30
0.0
  0
SPLINE
  5
1b9
100
AcDbEntity
  8
Capa_1
 62
7
100
AcDbSpline
 70
8
 71
3
 72
8
 73
4
 74
0
 40
0
 40
0
 40
0
 40
0
 40
1
 40
1
 40
1
 40
1
 10
3.586835
 20
1.932427
 30
0.0
 10
3.614726
 20
1.932427
 30
0.0
 10
3.642510
 20
1.928885
 30
0.0
 10
3.670187
 20
1.921802
 30
0.0
  0
SPLINE
  5
1ba
100
AcDbEntity
  8
Capa_1
 62
7
100
AcDbSpline
 70
8
 71
3
 72
8
 73
4
 74
0
 40
0
 40
0
 40
0
 40
0
 40
1
 40
1
 40
1
 40
1
 10
3.670187
 20
1.921802
 30
0.0
 10
3.698078
 20
1.914923
 30
0.0
 10
3.726501
 20
1.903584
 30
0.0
 10
3.755455
 20
1.887783
 30
0.0
  0
LWPOLYLINE
  5
1bb
100
AcDbEntity
  8
Capa_1
 62
7
100
AcDbPolyline
 90
2
 70
0
 10
4.660510
 20
3.432768
 30
0.0
 10
4.660511
 20
3.433524
 30
0.0
  0
SPLINE
  5
1bc
100
AcDbEntity
  8
Capa_1
 62
7
100
AcDbSpline
 70
8
 71
3
 72
8
 73
4
 74
0
 40
0
 40
0
 40
0
 40
0
 40
1
 40
1
 40
1
 40
1
 10
3.735338
 20
1.812490
 30
0.0
 10
3.711706
 20
1.835579
 30
0.0
 10
3.685944
 20
1.852231
 30
0.0
 10
3.658054
 20
1.862447
 30
0.0
  0
SPLINE
  5
1bd
100
AcDbEntity
  8
Capa_1
 62
7
100
AcDbSpline
 70
8
 71
3
 72
8
 73
4
 74
0
 40
0
 40
0
 40
0
 40
0
 40
1
 40
1
 40
1
 40
1
 10
3.658054
 20
1.862447
 30
0.0
 10
3.630376
 20
1.872867
 30
0.0
 10
3.600570
 20
1.878078
 30
0.0
 10
3.568634
 20
1.878078
 30
0.0
  0
SPLINE
  5
1be
100
AcDbEntity
  8
Capa_1
 62
7
100
AcDbSpline
 70
8
 71
3
 72
8
 73
4
 74
0
 40
0
 40
0
 40
0
 40
0
 40
1
 40
1
 40
1
 40
1
 10
3.568634
 20
1.878078
 30
0.0
 10
3.533505
 20
1.878078
 30
0.0
 10
3.502740
 20
1.870858
 30
0.0
 10
3.476340
 20
1.856419
 30
0.0
  0
SPLINE
  5
1bf
100
AcDbEntity
  8
Capa_1
 62
7
100
AcDbSpline
 70
8
 71
3
 72
8
 73
4
 74
0
 40
0
 40
0
 40
0
 40
0
 40
1
 40
1
 40
1
 40
1
 10
3.476340
 20
1.856419
 30
0.0
 10
3.449940
 20
1.841981
 30
0.0
 10
3.427691
 20
1.822775
 30
0.0
 10
3.409594
 20
1.798801
 30
0.0
  0
SPLINE
  5
1c0
100
AcDbEntity
  8
Capa_1
 62
7
100
AcDbSpline
 70
8
 71
3
 72
8
 73
4
 74
0
 40
0
 40
0
 40
0
 40
0
 40
1
 40
1
 40
1
 40
1
 10
3.409594
 20
1.798801
 30
0.0
 10
3.391923
 20
1.775236
 30
0.0
 10
3.378510
 20
1.747789
 30
0.0
 10
3.369355
 20
1.716459
 30
0.0
  0
SPLINE
  5
1c1
100
AcDbEntity
  8
Capa_1
 62
7
100
AcDbSpline
 70
8
 71
3
 72
8
 73
4
 74
0
 40
0
 40
0
 40
0
 40
0
 40
1
 40
1
 40
1
 40
1
 10
3.369355
 20
1.716459
 30
0.0
 10
3.360413
 20
1.685130
 30
0.0
 10
3.355942
 20
1.653563
 30
0.0
 10
3.355942
 20
1.621757
 30
0.0
  0
SPLINE
  5
1c2
100
AcDbEntity
  8
Capa_1
 62
7
100
AcDbSpline
 70
8
 71
3
 72
8
 73
4
 74
0
 40
0
 40
0
 40
0
 40
0
 40
1
 40
1
 40
1
 40
1
 10
3.355942
 20
1.621757
 30
0.0
 10
3.355942
 20
1.573945
 30
0.0
 10
3.368397
 20
1.537059
 30
0.0
 10
3.393307
 20
1.511096
 30
0.0
  0
SPLINE
  5
1c3
100
AcDbEntity
  8
Capa_1
 62
7
100
AcDbSpline
 70
8
 71
3
 72
8
 73
4
 74
0
 40
0
 40
0
 40
0
 40
0
 40
1
 40
1
 40
1
 40
1
 10
3.393307
 20
1.511096
 30
0.0
 10
3.418429
 20
1.485079
 30
0.0
 10
3.455475
 20
1.472071
 30
0.0
 10
3.504443
 20
1.472071
 30
0.0
  0
SPLINE
  5
1c4
100
AcDbEntity
  8
Capa_1
 62
7
100
AcDbSpline
 70
8
 71
3
 72
8
 73
4
 74
0
 40
0
 40
0
 40
0
 40
0
 40
1
 40
1
 40
1
 40
1
 10
3.504443
 20
1.472071
 30
0.0
 10
3.525946
 20
1.472071
 30
0.0
 10
3.546065
 20
1.474114
 30
0.0
 10
3.564801
 20
1.478200
 30
0.0
  0
SPLINE
  5
1c5
100
AcDbEntity
  8
Capa_1
 62
7
100
AcDbSpline
 70
8
 71
3
 72
8
 73
4
 74
0
 40
0
 40
0
 40
0
 40
0
 40
1
 40
1
 40
1
 40
1
 10
3.564801
 20
1.478200
 30
0.0
 10
3.583749
 20
1.482287
 30
0.0
 10
3.601527
 20
1.487633
 30
0.0
 10
3.618133
 20
1.494240
 30
0.0
  0
LWPOLYLINE
  5
1c6
100
AcDbEntity
  8
Capa_1
 62
7
100
AcDbPolyline
 90
3
 70
0
 10
3.755455
 20
1.887783
 30
0.0
 10
3.741084
 20
1.812490
 30
0.0
 10
3.735338
 20
1.812490
 30
0.0
  0
SPLINE
  5
1c7
100
AcDbEntity
  8
Capa_1
 62
7
100
AcDbSpline
 70
8
 71
3
 72
8
 73
4
 74
0
 40
0
 40
0
 40
0
 40
0
 40
1
 40
1
 40
1
 40
1
 10
3.673381
 20
1.463929
 30
0.0
 10
3.659330
 20
1.457799
 30
0.0
 10
3.646662
 20
1.452350
 30
0.0
 10
3.635378
 20
1.447583
 30
0.0
  0
SPLINE
  5
1c8
100
AcDbEntity
  8
Capa_1
 62
7
100
AcDbSpline
 70
8
 71
3
 72
8
 73
4
 74
0
 40
0
 40
0
 40
0
 40
0
 40
1
 40
1
 40
1
 40
1
 10
3.635378
 20
1.447583
 30
0.0
 10
3.624093
 20
1.442815
 30
0.0
 10
3.609935
 20
1.437912
 30
0.0
 10
3.592903
 20
1.432872
 30
0.0
  0
SPLINE
  5
1c9
100
AcDbEntity
  8
Capa_1
 62
7
100
AcDbSpline
 70
8
 71
3
 72
8
 73
4
 74
0
 40
0
 40
0
 40
0
 40
0
 40
1
 40
1
 40
1
 40
1
 10
3.592903
 20
1.432872
 30
0.0
 10
3.578213
 20
1.428104
 30
0.0
 10
3.562990
 20
1.424426
 30
0.0
 10
3.547235
 20
1.421838
 30
0.0
  0
SPLINE
  5
1ca
100
AcDbEntity
  8
Capa_1
 62
7
100
AcDbSpline
 70
8
 71
3
 72
8
 73
4
 74
0
 40
0
 40
0
 40
0
 40
0
 40
1
 40
1
 40
1
 40
1
 10
3.547235
 20
1.421838
 30
0.0
 10
3.531693
 20
1.419114
 30
0.0
 10
3.514980
 20
1.417752
 30
0.0
 10
3.497096
 20
1.417752
 30
0.0
  0
LWPOLYLINE
  5
1cb
100
AcDbEntity
  8
Capa_1
 62
7
100
AcDbPolyline
 90
6
 70
0
 10
3.618133
 20
1.494240
 30
0.0
 10
3.644959
 20
1.621235
 30
0.0
 10
3.518174
 20
1.621235
 30
0.0
 10
3.530310
 20
1.676913
 30
0.0
 10
3.720646
 20
1.676913
 30
0.0
 10
3.673381
 20
1.463929
 30
0.0
  0
LWPOLYLINE
  5
1cc
100
AcDbEntity
  8
Capa_1
 62
7
100
AcDbPolyline
 90
2
 70
0
 10
3.497096
 20
1.417752
 30
0.0
 10
3.497097
 20
1.417486
 30
0.0
  0
SPLINE
  5
1cd
100
AcDbEntity
  8
Capa_1
 62
7
100
AcDbSpline
 70
8
 71
3
 72
8
 73
4
 74
0
 40
0
 40
0
 40
0
 40
0
 40
1
 40
1
 40
1
 40
1
 10
4.727255
 20
1.733132
 30
0.0
 10
4.727255
 20
1.678919
 30
0.0
 10
4.714055
 20
1.627590
 30
0.0
 10
4.687655
 20
1.579145
 30
0.0
  0
SPLINE
  5
1ce
100
AcDbEntity
  8
Capa_1
 62
7
100
AcDbSpline
 70
8
 71
3
 72
8
 73
4
 74
0
 40
0
 40
0
 40
0
 40
0
 40
1
 40
1
 40
1
 40
1
 10
4.687655
 20
1.579145
 30
0.0
 10
4.661255
 20
1.530721
 30
0.0
 10
4.625168
 20
1.493279
 30
0.0
 10
4.579393
 20
1.466820
 30
0.0
  0
SPLINE
  5
1cf
100
AcDbEntity
  8
Capa_1
 62
7
100
AcDbSpline
 70
8
 71
3
 72
8
 73
4
 74
0
 40
0
 40
0
 40
0
 40
0
 40
1
 40
1
 40
1
 40
1
 10
4.579393
 20
1.466820
 30
0.0
 10
4.551290
 20
1.451019
 30
0.0
 10
4.522548
 20
1.440462
 30
0.0
 10
4.493167
 20
1.435150
 30
0.0
  0
SPLINE
  5
1d0
100
AcDbEntity
  8
Capa_1
 62
7
100
AcDbSpline
 70
8
 71
3
 72
8
 73
4
 74
0
 40
0
 40
0
 40
0
 40
0
 40
1
 40
1
 40
1
 40
1
 10
4.493167
 20
1.435150
 30
0.0
 10
4.463787
 20
1.429701
 30
0.0
 10
4.430467
 20
1.426977
 30
0.0
 10
4.393209
 20
1.426977
 30
0.0
  0
LWPOLYLINE
  5
1d1
100
AcDbEntity
  8
Capa_1
 62
7
100
AcDbPolyline
 90
10
 70
1
 10
4.138683
 20
1.427161
 30
0.0
 10
4.063315
 20
1.427161
 30
0.0
 10
3.933337
 20
1.871120
 30
0.0
 10
3.834976
 20
1.427161
 30
0.0
 10
3.775256
 20
1.427161
 30
0.0
 10
3.885114
 20
1.923447
 30
0.0
 10
3.980282
 20
1.923447
 30
0.0
 10
4.099082
 20
1.518145
 30
0.0
 10
4.188821
 20
1.923447
 30
0.0
 10
4.248541
 20
1.923447
 30
0.0
  0
SPLINE
  5
1d2
100
AcDbEntity
  8
Capa_1
 62
7
100
AcDbSpline
 70
8
 71
3
 72
8
 73
4
 74
0
 40
0
 40
0
 40
0
 40
0
 40
1
 40
1
 40
1
 40
1
 10
4.485184
 20
1.923263
 30
0.0
 10
4.519675
 20
1.923263
 30
0.0
 10
4.551078
 20
1.920879
 30
0.0
 10
4.579394
 20
1.916112
 30
0.0
  0
SPLINE
  5
1d3
100
AcDbEntity
  8
Capa_1
 62
7
100
AcDbSpline
 70
8
 71
3
 72
8
 73
4
 74
0
 40
0
 40
0
 40
0
 40
0
 40
1
 40
1
 40
1
 40
1
 10
4.579394
 20
1.916112
 30
0.0
 10
4.607923
 20
1.911344
 30
0.0
 10
4.634004
 20
1.900686
 30
0.0
 10
4.657637
 20
1.884136
 30
0.0
  0
SPLINE
  5
1d4
100
AcDbEntity
  8
Capa_1
 62
7
100
AcDbSpline
 70
8
 71
3
 72
8
 73
4
 74
0
 40
0
 40
0
 40
0
 40
0
 40
1
 40
1
 40
1
 40
1
 10
4.657637
 20
1.884136
 30
0.0
 10
4.680204
 20
1.868335
 30
0.0
 10
4.697449
 20
1.847664
 30
0.0
 10
4.709372
 20
1.822124
 30
0.0
  0
SPLINE
  5
1d5
100
AcDbEntity
  8
Capa_1
 62
7
100
AcDbSpline
 70
8
 71
3
 72
8
 73
4
 74
0
 40
0
 40
0
 40
0
 40
0
 40
1
 40
1
 40
1
 40
1
 10
4.709372
 20
1.822124
 30
0.0
 10
4.721294
 20
1.796788
 30
0.0
 10
4.727255
 20
1.767230
 30
0.0
 10
4.727255
 20
1.733449
 30
0.0
  0
LWPOLYLINE
  5
1d6
100
AcDbEntity
  8
Capa_1
 62
7
100
AcDbPolyline
 90
4
 70
0
 10
4.393209
 20
1.426977
 30
0.0
 10
4.264828
 20
1.426977
 30
0.0
 10
4.374687
 20
1.923263
 30
0.0
 10
4.485184
 20
1.923263
 30
0.0
  0
SPLINE
  5
1d7
100
AcDbEntity
  8
Capa_1
 62
7
100
AcDbSpline
 70
8
 71
3
 72
8
 73
4
 74
0
 40
0
 40
0
 40
0
 40
0
 40
1
 40
1
 40
1
 40
1
 10
4.660511
 20
1.727002
 30
0.0
 10
4.660511
 20
1.752338
 30
0.0
 10
4.656146
 20
1.774133
 30
0.0
 10
4.647416
 20
1.792385
 30
0.0
  0
SPLINE
  5
1d8
100
AcDbEntity
  8
Capa_1
 62
7
100
AcDbSpline
 70
8
 71
3
 72
8
 73
4
 74
0
 40
0
 40
0
 40
0
 40
0
 40
1
 40
1
 40
1
 40
1
 10
4.647416
 20
1.792385
 30
0.0
 10
4.638900
 20
1.810842
 30
0.0
 10
4.625913
 20
1.826166
 30
0.0
 10
4.608455
 20
1.838357
 30
0.0
  0
SPLINE
  5
1d9
100
AcDbEntity
  8
Capa_1
 62
7
100
AcDbSpline
 70
8
 71
3
 72
8
 73
4
 74
0
 40
0
 40
0
 40
0
 40
0
 40
1
 40
1
 40
1
 40
1
 10
4.608455
 20
1.838357
 30
0.0
 10
4.591210
 20
1.850344
 30
0.0
 10
4.572794
 20
1.858347
 30
0.0
 10
4.553207
 20
1.862365
 30
0.0
  0
SPLINE
  5
1da
100
AcDbEntity
  8
Capa_1
 62
7
100
AcDbSpline
 70
8
 71
3
 72
8
 73
4
 74
0
 40
0
 40
0
 40
0
 40
0
 40
1
 40
1
 40
1
 40
1
 10
4.553207
 20
1.862365
 30
0.0
 10
4.533620
 20
1.866452
 30
0.0
 10
4.508817
 20
1.868495
 30
0.0
 10
4.478797
 20
1.868495
 30
0.0
  0
LWPOLYLINE
  5
1db
100
AcDbEntity
  8
Capa_1
 62
7
100
AcDbPolyline
 90
2
 70
0
 10
4.727255
 20
1.733449
 30
0.0
 10
4.727255
 20
1.733132
 30
0.0
  0
SPLINE
  5
1dc
100
AcDbEntity
  8
Capa_1
 62
7
100
AcDbSpline
 70
8
 71
3
 72
8
 73
4
 74
0
 40
0
 40
0
 40
0
 40
0
 40
1
 40
1
 40
1
 40
1
 10
4.405984
 20
1.480857
 30
0.0
 10
4.436429
 20
1.480857
 30
0.0
 10
4.463574
 20
1.483581
 30
0.0
 10
4.487419
 20
1.489029
 30
0.0
  0
SPLINE
  5
1dd
100
AcDbEntity
  8
Capa_1
 62
7
100
AcDbSpline
 70
8
 71
3
 72
8
 73
4
 74
0
 40
0
 40
0
 40
0
 40
0
 40
1
 40
1
 40
1
 40
1
 10
4.487419
 20
1.489029
 30
0.0
 10
4.511477
 20
1.494478
 30
0.0
 10
4.534151
 20
1.503468
 30
0.0
 10
4.555441
 20
1.516000
 30
0.0
  0
SPLINE
  5
1de
100
AcDbEntity
  8
Capa_1
 62
7
100
AcDbSpline
 70
8
 71
3
 72
8
 73
4
 74
0
 40
0
 40
0
 40
0
 40
0
 40
1
 40
1
 40
1
 40
1
 10
4.555441
 20
1.516000
 30
0.0
 10
4.589719
 20
1.536432
 30
0.0
 10
4.615800
 20
1.565888
 30
0.0
 10
4.633684
 20
1.604369
 30
0.0
  0
SPLINE
  5
1df
100
AcDbEntity
  8
Capa_1
 62
7
100
AcDbSpline
 70
8
 71
3
 72
8
 73
4
 74
0
 40
0
 40
0
 40
0
 40
0
 40
1
 40
1
 40
1
 40
1
 10
4.633684
 20
1.604369
 30
0.0
 10
4.651568
 20
1.643054
 30
0.0
 10
4.660510
 20
1.684051
 30
0.0
 10
4.660510
 20
1.727360
 30
0.0
  0
LWPOLYLINE
  5
1e0
100
AcDbEntity
  8
Capa_1
 62
7
100
AcDbPolyline
 90
4
 70
0
 10
4.478797
 20
1.868495
 30
0.0
 10
4.426103
 20
1.868495
 30
0.0
 10
4.339877
 20
1.480857
 30
0.0
 10
4.405984
 20
1.480857
 30
0.0
  0
SPLINE
  5
1e1
100
AcDbEntity
  8
Capa_1
 62
7
100
AcDbSpline
 70
8
 71
3
 72
8
 73
4
 74
0
 40
0
 40
0
 40
0
 40
0
 40
1
 40
1
 40
1
 40
1
 10
3.497097
 20
-0.289036
 30
0.0
 10
3.431522
 20
-0.289036
 30
0.0
 10
3.380319
 20
-0.272145
 30
0.0
 10
3.343487
 20
-0.238364
 30
0.0
  0
SPLINE
  5
1e2
100
AcDbEntity
  8
Capa_1
 62
7
100
AcDbSpline
 70
8
 71
3
 72
8
 73
4
 74
0
 40
0
 40
0
 40
0
 40
0
 40
1
 40
1
 40
1
 40
1
 10
3.343487
 20
-0.238364
 30
0.0
 10
3.306655
 20
-0.204583
 30
0.0
 10
3.288238
 20
-0.156584
 30
0.0
 10
3.288238
 20
-0.094369
 30
0.0
  0
SPLINE
  5
1e3
100
AcDbEntity
  8
Capa_1
 62
7
100
AcDbSpline
 70
8
 71
3
 72
8
 73
4
 74
0
 40
0
 40
0
 40
0
 40
0
 40
1
 40
1
 40
1
 40
1
 10
3.288238
 20
-0.094369
 30
0.0
 10
3.288238
 20
-0.048601
 30
0.0
 10
3.294945
 20
-0.006272
 30
0.0
 10
3.308358
 20
0.032617
 30
0.0
  0
SPLINE
  5
1e4
100
AcDbEntity
  8
Capa_1
 62
7
100
AcDbSpline
 70
8
 71
3
 72
8
 73
4
 74
0
 40
0
 40
0
 40
0
 40
0
 40
1
 40
1
 40
1
 40
1
 10
3.308358
 20
0.032617
 30
0.0
 10
3.321983
 20
0.071506
 30
0.0
 10
3.341677
 20
0.105390
 30
0.0
 10
3.367438
 20
0.134267
 30
0.0
  0
SPLINE
  5
1e5
100
AcDbEntity
  8
Capa_1
 62
7
100
AcDbSpline
 70
8
 71
3
 72
8
 73
4
 74
0
 40
0
 40
0
 40
0
 40
0
 40
1
 40
1
 40
1
 40
1
 10
3.367438
 20
0.134267
 30
0.0
 10
3.392987
 20
0.162940
 30
0.0
 10
3.424284
 20
0.185381
 30
0.0
 10
3.461329
 20
0.201591
 30
0.0
  0
SPLINE
  5
1e6
100
AcDbEntity
  8
Capa_1
 62
7
100
AcDbSpline
 70
8
 71
3
 72
8
 73
4
 74
0
 40
0
 40
0
 40
0
 40
0
 40
1
 40
1
 40
1
 40
1
 10
3.461329
 20
0.201591
 30
0.0
 10
3.498587
 20
0.217800
 30
0.0
 10
3.540423
 20
0.225905
 30
0.0
 10
3.586835
 20
0.225905
 30
0.0
  0
SPLINE
  5
1e7
100
AcDbEntity
  8
Capa_1
 62
7
100
AcDbSpline
 70
8
 71
3
 72
8
 73
4
 74
0
 40
0
 40
0
 40
0
 40
0
 40
1
 40
1
 40
1
 40
1
 10
3.586835
 20
0.225905
 30
0.0
 10
3.614726
 20
0.225905
 30
0.0
 10
3.642510
 20
0.222363
 30
0.0
 10
3.670187
 20
0.215280
 30
0.0
  0
SPLINE
  5
1e8
100
AcDbEntity
  8
Capa_1
 62
7
100
AcDbSpline
 70
8
 71
3
 72
8
 73
4
 74
0
 40
0
 40
0
 40
0
 40
0
 40
1
 40
1
 40
1
 40
1
 10
3.670187
 20
0.215280
 30
0.0
 10
3.698078
 20
0.208402
 30
0.0
 10
3.726501
 20
0.197062
 30
0.0
 10
3.755455
 20
0.181261
 30
0.0
  0
LWPOLYLINE
  5
1e9
100
AcDbEntity
  8
Capa_1
 62
7
100
AcDbPolyline
 90
2
 70
0
 10
4.660510
 20
1.727360
 30
0.0
 10
4.660511
 20
1.727002
 30
0.0
  0
SPLINE
  5
1ea
100
AcDbEntity
  8
Capa_1
 62
7
100
AcDbSpline
 70
8
 71
3
 72
8
 73
4
 74
0
 40
0
 40
0
 40
0
 40
0
 40
1
 40
1
 40
1
 40
1
 10
3.735338
 20
0.105968
 30
0.0
 10
3.711706
 20
0.129057
 30
0.0
 10
3.685944
 20
0.145709
 30
0.0
 10
3.658054
 20
0.155925
 30
0.0
  0
SPLINE
  5
1eb
100
AcDbEntity
  8
Capa_1
 62
7
100
AcDbSpline
 70
8
 71
3
 72
8
 73
4
 74
0
 40
0
 40
0
 40
0
 40
0
 40
1
 40
1
 40
1
 40
1
 10
3.658054
 20
0.155925
 30
0.0
 10
3.630376
 20
0.166345
 30
0.0
 10
3.600570
 20
0.171556
 30
0.0
 10
3.568634
 20
0.171556
 30
0.0
  0
SPLINE
  5
1ec
100
AcDbEntity
  8
Capa_1
 62
7
100
AcDbSpline
 70
8
 71
3
 72
8
 73
4
 74
0
 40
0
 40
0
 40
0
 40
0
 40
1
 40
1
 40
1
 40
1
 10
3.568634
 20
0.171556
 30
0.0
 10
3.533505
 20
0.171556
 30
0.0
 10
3.502740
 20
0.164336
 30
0.0
 10
3.476340
 20
0.149898
 30
0.0
  0
SPLINE
  5
1ed
100
AcDbEntity
  8
Capa_1
 62
7
100
AcDbSpline
 70
8
 71
3
 72
8
 73
4
 74
0
 40
0
 40
0
 40
0
 40
0
 40
1
 40
1
 40
1
 40
1
 10
3.476340
 20
0.149898
 30
0.0
 10
3.449940
 20
0.135459
 30
0.0
 10
3.427691
 20
0.116253
 30
0.0
 10
3.409594
 20
0.092279
 30
0.0
  0
SPLINE
  5
1ee
100
AcDbEntity
  8
Capa_1
 62
7
100
AcDbSpline
 70
8
 71
3
 72
8
 73
4
 74
0
 40
0
 40
0
 40
0
 40
0
 40
1
 40
1
 40
1
 40
1
 10
3.409594
 20
0.092279
 30
0.0
 10
3.391923
 20
0.068714
 30
0.0
 10
3.378510
 20
0.041267
 30
0.0
 10
3.369355
 20
0.009937
 30
0.0
  0
SPLINE
  5
1ef
100
AcDbEntity
  8
Capa_1
 62
7
100
AcDbSpline
 70
8
 71
3
 72
8
 73
4
 74
0
 40
0
 40
0
 40
0
 40
0
 40
1
 40
1
 40
1
 40
1
 10
3.369355
 20
0.009937
 30
0.0
 10
3.360413
 20
-0.021392
 30
0.0
 10
3.355942
 20
-0.052925
 30
0.0
 10
3.355942
 20
-0.084663
 30
0.0
  0
SPLINE
  5
1f0
100
AcDbEntity
  8
Capa_1
 62
7
100
AcDbSpline
 70
8
 71
3
 72
8
 73
4
 74
0
 40
0
 40
0
 40
0
 40
0
 40
1
 40
1
 40
1
 40
1
 10
3.355942
 20
-0.084663
 30
0.0
 10
3.355942
 20
-0.132474
 30
0.0
 10
3.368397
 20
-0.169361
 30
0.0
 10
3.393307
 20
-0.195324
 30
0.0
  0
SPLINE
  5
1f1
100
AcDbEntity
  8
Capa_1
 62
7
100
AcDbSpline
 70
8
 71
3
 72
8
 73
4
 74
0
 40
0
 40
0
 40
0
 40
0
 40
1
 40
1
 40
1
 40
1
 10
3.393307
 20
-0.195324
 30
0.0
 10
3.418429
 20
-0.221341
 30
0.0
 10
3.455475
 20
-0.234349
 30
0.0
 10
3.504443
 20
-0.234349
 30
0.0
  0
SPLINE
  5
1f2
100
AcDbEntity
  8
Capa_1
 62
7
100
AcDbSpline
 70
8
 71
3
 72
8
 73
4
 74
0
 40
0
 40
0
 40
0
 40
0
 40
1
 40
1
 40
1
 40
1
 10
3.504443
 20
-0.234349
 30
0.0
 10
3.525946
 20
-0.234349
 30
0.0
 10
3.546065
 20
-0.232306
 30
0.0
 10
3.564801
 20
-0.228219
 30
0.0
  0
SPLINE
  5
1f3
100
AcDbEntity
  8
Capa_1
 62
7
100
AcDbSpline
 70
8
 71
3
 72
8
 73
4
 74
0
 40
0
 40
0
 40
0
 40
0
 40
1
 40
1
 40
1
 40
1
 10
3.564801
 20
-0.228219
 30
0.0
 10
3.583749
 20
-0.224133
 30
0.0
 10
3.601527
 20
-0.218787
 30
0.0
 10
3.618133
 20
-0.212180
 30
0.0
  0
LWPOLYLINE
  5
1f4
100
AcDbEntity
  8
Capa_1
 62
7
100
AcDbPolyline
 90
3
 70
0
 10
3.755455
 20
0.181261
 30
0.0
 10
3.741084
 20
0.105968
 30
0.0
 10
3.735338
 20
0.105968
 30
0.0
  0
SPLINE
  5
1f5
100
AcDbEntity
  8
Capa_1
 62
7
100
AcDbSpline
 70
8
 71
3
 72
8
 73
4
 74
0
 40
0
 40
0
 40
0
 40
0
 40
1
 40
1
 40
1
 40
1
 10
3.673381
 20
-0.242491
 30
0.0
 10
3.659330
 20
-0.248621
 30
0.0
 10
3.646662
 20
-0.254069
 30
0.0
 10
3.635378
 20
-0.258837
 30
0.0
  0
SPLINE
  5
1f6
100
AcDbEntity
  8
Capa_1
 62
7
100
AcDbSpline
 70
8
 71
3
 72
8
 73
4
 74
0
 40
0
 40
0
 40
0
 40
0
 40
1
 40
1
 40
1
 40
1
 10
3.635378
 20
-0.258837
 30
0.0
 10
3.624093
 20
-0.263604
 30
0.0
 10
3.609935
 20
-0.268508
 30
0.0
 10
3.592903
 20
-0.273548
 30
0.0
  0
SPLINE
  5
1f7
100
AcDbEntity
  8
Capa_1
 62
7
100
AcDbSpline
 70
8
 71
3
 72
8
 73
4
 74
0
 40
0
 40
0
 40
0
 40
0
 40
1
 40
1
 40
1
 40
1
 10
3.592903
 20
-0.273548
 30
0.0
 10
3.578213
 20
-0.278316
 30
0.0
 10
3.562990
 20
-0.281993
 30
0.0
 10
3.547235
 20
-0.284581
 30
0.0
  0
SPLINE
  5
1f8
100
AcDbEntity
  8
Capa_1
 62
7
100
AcDbSpline
 70
8
 71
3
 72
8
 73
4
 74
0
 40
0
 40
0
 40
0
 40
0
 40
1
 40
1
 40
1
 40
1
 10
3.547235
 20
-0.284581
 30
0.0
 10
3.531693
 20
-0.287306
 30
0.0
 10
3.514980
 20
-0.288668
 30
0.0
 10
3.497096
 20
-0.288668
 30
0.0
  0
LWPOLYLINE
  5
1f9
100
AcDbEntity
  8
Capa_1
 62
7
100
AcDbPolyline
 90
6
 70
0
 10
3.618133
 20
-0.212180
 30
0.0
 10
3.644959
 20
-0.085184
 30
0.0
 10
3.518174
 20
-0.085184
 30
0.0
 10
3.530310
 20
-0.029507
 30
0.0
 10
3.720646
 20
-0.029507
 30
0.0
 10
3.673381
 20
-0.242491
 30
0.0
  0
LWPOLYLINE
  5
1fa
100
AcDbEntity
  8
Capa_1
 62
7
100
AcDbPolyline
 90
2
 70
0
 10
3.497096
 20
-0.288668
 30
0.0
 10
3.497097
 20
-0.289036
 30
0.0
  0
SPLINE
  5
1fb
100
AcDbEntity
  8
Capa_1
 62
7
100
AcDbSpline
 70
8
 71
3
 72
8
 73
4
 74
0
 40
0
 40
0
 40
0
 40
0
 40
1
 40
1
 40
1
 40
1
 10
4.727255
 20
0.026610
 30
0.0
 10
4.727255
 20
-0.027603
 30
0.0
 10
4.714055
 20
-0.078932
 30
0.0
 10
4.687655
 20
-0.127377
 30
0.0
  0
SPLINE
  5
1fc
100
AcDbEntity
  8
Capa_1
 62
7
100
AcDbSpline
 70
8
 71
3
 72
8
 73
4
 74
0
 40
0
 40
0
 40
0
 40
0
 40
1
 40
1
 40
1
 40
1
 10
4.687655
 20
-0.127377
 30
0.0
 10
4.661255
 20
-0.175801
 30
0.0
 10
4.625168
 20
-0.213243
 30
0.0
 10
4.579393
 20
-0.239702
 30
0.0
  0
SPLINE
  5
1fd
100
AcDbEntity
  8
Capa_1
 62
7
100
AcDbSpline
 70
8
 71
3
 72
8
 73
4
 74
0
 40
0
 40
0
 40
0
 40
0
 40
1
 40
1
 40
1
 40
1
 10
4.579393
 20
-0.239702
 30
0.0
 10
4.551290
 20
-0.255503
 30
0.0
 10
4.522548
 20
-0.266060
 30
0.0
 10
4.493167
 20
-0.271372
 30
0.0
  0
SPLINE
  5
1fe
100
AcDbEntity
  8
Capa_1
 62
7
100
AcDbSpline
 70
8
 71
3
 72
8
 73
4
 74
0
 40
0
 40
0
 40
0
 40
0
 40
1
 40
1
 40
1
 40
1
 10
4.493167
 20
-0.271372
 30
0.0
 10
4.463787
 20
-0.276821
 30
0.0
 10
4.430467
 20
-0.279545
 30
0.0
 10
4.393209
 20
-0.279545
 30
0.0
  0
LWPOLYLINE
  5
1ff
100
AcDbEntity
  8
Capa_1
 62
7
100
AcDbPolyline
 90
10
 70
1
 10
4.138683
 20
-0.279371
 30
0.0
 10
4.063315
 20
-0.279371
 30
0.0
 10
3.933337
 20
0.164598
 30
0.0
 10
3.834976
 20
-0.279371
 30
0.0
 10
3.775256
 20
-0.279371
 30
0.0
 10
3.885114
 20
0.216925
 30
0.0
 10
3.980282
 20
0.216925
 30
0.0
 10
4.099082
 20
-0.188377
 30
0.0
 10
4.188821
 20
0.216925
 30
0.0
 10
4.248541
 20
0.216925
 30
0.0
  0
SPLINE
  5
200
100
AcDbEntity
  8
Capa_1
 62
7
100
AcDbSpline
 70
8
 71
3
 72
8
 73
4
 74
0
 40
0
 40
0
 40
0
 40
0
 40
1
 40
1
 40
1
 40
1
 10
4.485184
 20
0.216751
 30
0.0
 10
4.519675
 20
0.216751
 30
0.0
 10
4.551078
 20
0.214368
 30
0.0
 10
4.579394
 20
0.209600
 30
0.0
  0
SPLINE
  5
201
100
AcDbEntity
  8
Capa_1
 62
7
100
AcDbSpline
 70
8
 71
3
 72
8
 73
4
 74
0
 40
0
 40
0
 40
0
 40
0
 40
1
 40
1
 40
1
 40
1
 10
4.579394
 20
0.209600
 30
0.0
 10
4.607923
 20
0.204833
 30
0.0
 10
4.634004
 20
0.194174
 30
0.0
 10
4.657637
 20
0.177624
 30
0.0
  0
SPLINE
  5
202
100
AcDbEntity
  8
Capa_1
 62
7
100
AcDbSpline
 70
8
 71
3
 72
8
 73
4
 74
0
 40
0
 40
0
 40
0
 40
0
 40
1
 40
1
 40
1
 40
1
 10
4.657637
 20
0.177624
 30
0.0
 10
4.680204
 20
0.161823
 30
0.0
 10
4.697449
 20
0.141153
 30
0.0
 10
4.709372
 20
0.115612
 30
0.0
  0
SPLINE
  5
203
100
AcDbEntity
  8
Capa_1
 62
7
100
AcDbSpline
 70
8
 71
3
 72
8
 73
4
 74
0
 40
0
 40
0
 40
0
 40
0
 40
1
 40
1
 40
1
 40
1
 10
4.709372
 20
0.115612
 30
0.0
 10
4.721294
 20
0.090277
 30
0.0
 10
4.727255
 20
0.060718
 30
0.0
 10
4.727255
 20
0.026937
 30
0.0
  0
LWPOLYLINE
  5
204
100
AcDbEntity
  8
Capa_1
 62
7
100
AcDbPolyline
 90
4
 70
0
 10
4.393209
 20
-0.279545
 30
0.0
 10
4.264828
 20
-0.279545
 30
0.0
 10
4.374687
 20
0.216751
 30
0.0
 10
4.485184
 20
0.216751
 30
0.0
  0
SPLINE
  5
205
100
AcDbEntity
  8
Capa_1
 62
7
100
AcDbSpline
 70
8
 71
3
 72
8
 73
4
 74
0
 40
0
 40
0
 40
0
 40
0
 40
1
 40
1
 40
1
 40
1
 10
4.660511
 20
0.020480
 30
0.0
 10
4.660511
 20
0.045816
 30
0.0
 10
4.656146
 20
0.067611
 30
0.0
 10
4.647416
 20
0.085863
 30
0.0
  0
SPLINE
  5
206
100
AcDbEntity
  8
Capa_1
 62
7
100
AcDbSpline
 70
8
 71
3
 72
8
 73
4
 74
0
 40
0
 40
0
 40
0
 40
0
 40
1
 40
1
 40
1
 40
1
 10
4.647416
 20
0.085863
 30
0.0
 10
4.638900
 20
0.104320
 30
0.0
 10
4.625913
 20
0.119644
 30
0.0
 10
4.608455
 20
0.131836
 30
0.0
  0
SPLINE
  5
207
100
AcDbEntity
  8
Capa_1
 62
7
100
AcDbSpline
 70
8
 71
3
 72
8
 73
4
 74
0
 40
0
 40
0
 40
0
 40
0
 40
1
 40
1
 40
1
 40
1
 10
4.608455
 20
0.131836
 30
0.0
 10
4.591210
 20
0.143822
 30
0.0
 10
4.572794
 20
0.151825
 30
0.0
 10
4.553207
 20
0.155843
 30
0.0
  0
SPLINE
  5
208
100
AcDbEntity
  8
Capa_1
 62
7
100
AcDbSpline
 70
8
 71
3
 72
8
 73
4
 74
0
 40
0
 40
0
 40
0
 40
0
 40
1
 40
1
 40
1
 40
1
 10
4.553207
 20
0.155843
 30
0.0
 10
4.533620
 20
0.159930
 30
0.0
 10
4.508817
 20
0.161973
 30
0.0
 10
4.478797
 20
0.161973
 30
0.0
  0
LWPOLYLINE
  5
209
100
AcDbEntity
  8
Capa_1
 62
7
100
AcDbPolyline
 90
2
 70
0
 10
4.727255
 20
0.026937
 30
0.0
 10
4.727255
 20
0.026610
 30
0.0
  0
SPLINE
  5
20a
100
AcDbEntity
  8
Capa_1
 62
7
100
AcDbSpline
 70
8
 71
3
 72
8
 73
4
 74
0
 40
0
 40
0
 40
0
 40
0
 40
1
 40
1
 40
1
 40
1
 10
4.405984
 20
-0.225665
 30
0.0
 10
4.436429
 20
-0.225665
 30
0.0
 10
4.463574
 20
-0.222941
 30
0.0
 10
4.487419
 20
-0.217493
 30
0.0
  0
SPLINE
  5
20b
100
AcDbEntity
  8
Capa_1
 62
7
100
AcDbSpline
 70
8
 71
3
 72
8
 73
4
 74
0
 40
0
 40
0
 40
0
 40
0
 40
1
 40
1
 40
1
 40
1
 10
4.487419
 20
-0.217493
 30
0.0
 10
4.511477
 20
-0.212044
 30
0.0
 10
4.534151
 20
-0.203054
 30
0.0
 10
4.555441
 20
-0.190522
 30
0.0
  0
SPLINE
  5
20c
100
AcDbEntity
  8
Capa_1
 62
7
100
AcDbSpline
 70
8
 71
3
 72
8
 73
4
 74
0
 40
0
 40
0
 40
0
 40
0
 40
1
 40
1
 40
1
 40
1
 10
4.555441
 20
-0.190522
 30
0.0
 10
4.589719
 20
-0.170090
 30
0.0
 10
4.615800
 20
-0.140634
 30
0.0
 10
4.633684
 20
-0.102153
 30
0.0
  0
SPLINE
  5
20d
100
AcDbEntity
  8
Capa_1
 62
7
100
AcDbSpline
 70
8
 71
3
 72
8
 73
4
 74
0
 40
0
 40
0
 40
0
 40
0
 40
1
 40
1
 40
1
 40
1
 10
4.633684
 20
-0.102153
 30
0.0
 10
4.651568
 20
-0.063468
 30
0.0
 10
4.660510
 20
-0.022471
 30
0.0
 10
4.660510
 20
0.020838
 30
0.0
  0
LWPOLYLINE
  5
20e
100
AcDbEntity
  8
Capa_1
 62
7
100
AcDbPolyline
 90
4
 70
0
 10
4.478797
 20
0.161973
 30
0.0
 10
4.426103
 20
0.161973
 30
0.0
 10
4.339877
 20
-0.225665
 30
0.0
 10
4.405984
 20
-0.225665
 30
0.0
  0
LWPOLYLINE
  5
20f
100
AcDbEntity
  8
Capa_1
 62
7
100
AcDbPolyline
 90
2
 70
0
 10
4.660510
 20
0.020838
 30
0.0
 10
4.660511
 20
0.020480
 30
0.0
  0
LWPOLYLINE
  5
210
100
AcDbEntity
  8
Capa_1
 62
7
100
AcDbPolyline
 90
4
 70
1
 10
2.715358
 20
9.102260
 30
0.0
 10
5.369546
 20
9.102260
 30
0.0
 10
5.369546
 20
-0.750121
 30
0.0
 10
2.715358
 20
-0.750121
 30
0.0
  0
SPLINE
  5
211
100
AcDbEntity
  8
Capa_1
 62
7
100
AcDbSpline
 70
8
 71
3
 72
8
 73
4
 74
0
 40
0
 40
0
 40
0
 40
0
 40
1
 40
1
 40
1
 40
1
 10
1.446655
 20
9.353590
 30
0.0
 10
1.446655
 20
9.310479
 30
0.0
 10
1.440375
 20
9.268927
 30
0.0
 10
1.427814
 20
9.228934
 30
0.0
  0
SPLINE
  5
212
100
AcDbEntity
  8
Capa_1
 62
7
100
AcDbSpline
 70
8
 71
3
 72
8
 73
4
 74
0
 40
0
 40
0
 40
0
 40
0
 40
1
 40
1
 40
1
 40
1
 10
1.427814
 20
9.228934
 30
0.0
 10
1.415465
 20
9.188955
 30
0.0
 10
1.397475
 20
9.153737
 30
0.0
 10
1.373843
 20
9.123279
 30
0.0
  0
SPLINE
  5
213
100
AcDbEntity
  8
Capa_1
 62
7
100
AcDbSpline
 70
8
 71
3
 72
8
 73
4
 74
0
 40
0
 40
0
 40
0
 40
0
 40
1
 40
1
 40
1
 40
1
 10
1.373843
 20
9.123279
 30
0.0
 10
1.349572
 20
9.091950
 30
0.0
 10
1.320404
 20
9.067295
 30
0.0
 10
1.286339
 20
9.049315
 30
0.0
  0
SPLINE
  5
214
100
AcDbEntity
  8
Capa_1
 62
7
100
AcDbSpline
 70
8
 71
3
 72
8
 73
4
 74
0
 40
0
 40
0
 40
0
 40
0
 40
1
 40
1
 40
1
 40
1
 10
1.286339
 20
9.049315
 30
0.0
 10
1.252275
 20
9.031539
 30
0.0
 10
1.213845
 20
9.022651
 30
0.0
 10
1.171052
 20
9.022651
 30
0.0
  0
SPLINE
  5
215
100
AcDbEntity
  8
Capa_1
 62
7
100
AcDbSpline
 70
8
 71
3
 72
8
 73
4
 74
0
 40
0
 40
0
 40
0
 40
0
 40
1
 40
1
 40
1
 40
1
 10
1.171052
 20
9.022651
 30
0.0
 10
1.114419
 20
9.022651
 30
0.0
 10
1.070135
 20
9.038759
 30
0.0
 10
1.038200
 20
9.070973
 30
0.0
  0
SPLINE
  5
216
100
AcDbEntity
  8
Capa_1
 62
7
100
AcDbSpline
 70
8
 71
3
 72
8
 73
4
 74
0
 40
0
 40
0
 40
0
 40
0
 40
1
 40
1
 40
1
 40
1
 10
1.038200
 20
9.070973
 30
0.0
 10
1.006264
 20
9.103392
 30
0.0
 10
0.990297
 20
9.149388
 30
0.0
 10
0.990297
 20
9.208962
 30
0.0
  0
SPLINE
  5
217
100
AcDbEntity
  8
Capa_1
 62
7
100
AcDbSpline
 70
8
 71
3
 72
8
 73
4
 74
0
 40
0
 40
0
 40
0
 40
0
 40
1
 40
1
 40
1
 40
1
 10
0.990297
 20
9.208962
 30
0.0
 10
0.990297
 20
9.254321
 30
0.0
 10
0.996684
 20
9.296653
 30
0.0
 10
1.009458
 20
9.335958
 30
0.0
  0
SPLINE
  5
218
100
AcDbEntity
  8
Capa_1
 62
7
100
AcDbSpline
 70
8
 71
3
 72
8
 73
4
 74
0
 40
0
 40
0
 40
0
 40
0
 40
1
 40
1
 40
1
 40
1
 10
1.009458
 20
9.335958
 30
0.0
 10
1.022232
 20
9.375255
 30
0.0
 10
1.040648
 20
9.410361
 30
0.0
 10
1.064706
 20
9.441275
 30
0.0
  0
SPLINE
  5
219
100
AcDbEntity
  8
Capa_1
 62
7
100
AcDbSpline
 70
8
 71
3
 72
8
 73
4
 74
0
 40
0
 40
0
 40
0
 40
0
 40
1
 40
1
 40
1
 40
1
 10
1.064706
 20
9.441275
 30
0.0
 10
1.088125
 20
9.471038
 30
0.0
 10
1.117080
 20
9.494807
 30
0.0
 10
1.151571
 20
9.512583
 30
0.0
  0
SPLINE
  5
21a
100
AcDbEntity
  8
Capa_1
 62
7
100
AcDbSpline
 70
8
 71
3
 72
8
 73
4
 74
0
 40
0
 40
0
 40
0
 40
0
 40
1
 40
1
 40
1
 40
1
 10
1.151571
 20
9.512583
 30
0.0
 10
1.186275
 20
9.530563
 30
0.0
 10
1.224278
 20
9.539553
 30
0.0
 10
1.265581
 20
9.539553
 30
0.0
  0
SPLINE
  5
21b
100
AcDbEntity
  8
Capa_1
 62
7
100
AcDbSpline
 70
8
 71
3
 72
8
 73
4
 74
0
 40
0
 40
0
 40
0
 40
0
 40
1
 40
1
 40
1
 40
1
 10
1.265581
 20
9.539553
 30
0.0
 10
1.322001
 20
9.539553
 30
0.0
 10
1.366285
 20
9.523446
 30
0.0
 10
1.398433
 20
9.491231
 30
0.0
  0
SPLINE
  5
21c
100
AcDbEntity
  8
Capa_1
 62
7
100
AcDbSpline
 70
8
 71
3
 72
8
 73
4
 74
0
 40
0
 40
0
 40
0
 40
0
 40
1
 40
1
 40
1
 40
1
 10
1.398433
 20
9.491231
 30
0.0
 10
1.430582
 20
9.459221
 30
0.0
 10
1.446656
 20
9.413337
 30
0.0
 10
1.446656
 20
9.353580
 30
0.0
  0
LWPOLYLINE
  5
21d
100
AcDbEntity
  8
Capa_1
 62
7
100
AcDbPolyline
 90
13
 70
1
 10
0.842115
 20
9.032949
 30
0.0
 10
0.778244
 20
9.032949
 30
0.0
 10
0.872134
 20
9.454576
 30
0.0
 10
0.678924
 20
9.169609
 30
0.0
 10
0.641240
 20
9.169609
 30
0.0
 10
0.574175
 20
9.467581
 30
0.0
 10
0.477730
 20
9.032949
 30
0.0
 10
0.418010
 20
9.032949
 30
0.0
 10
0.527869
 20
9.529245
 30
0.0
 10
0.614733
 20
9.529245
 30
0.0
 10
0.678924
 20
9.252932
 30
0.0
 10
0.864150
 20
9.529245
 30
0.0
 10
0.951973
 20
9.529245
 30
0.0
  0
SPLINE
  5
21e
100
AcDbEntity
  8
Capa_1
 62
7
100
AcDbSpline
 70
8
 71
3
 72
8
 73
4
 74
0
 40
0
 40
0
 40
0
 40
0
 40
1
 40
1
 40
1
 40
1
 10
1.325620
 20
9.156277
 30
0.0
 10
1.343503
 20
9.181613
 30
0.0
 10
1.357023
 20
9.209844
 30
0.0
 10
1.366178
 20
9.240969
 30
0.0
  0
SPLINE
  5
21f
100
AcDbEntity
  8
Capa_1
 62
7
100
AcDbSpline
 70
8
 71
3
 72
8
 73
4
 74
0
 40
0
 40
0
 40
0
 40
0
 40
1
 40
1
 40
1
 40
1
 10
1.366178
 20
9.240969
 30
0.0
 10
1.375333
 20
9.272298
 30
0.0
 10
1.379911
 20
9.306740
 30
0.0
 10
1.379911
 20
9.344294
 30
0.0
  0
SPLINE
  5
220
100
AcDbEntity
  8
Capa_1
 62
7
100
AcDbSpline
 70
8
 71
3
 72
8
 73
4
 74
0
 40
0
 40
0
 40
0
 40
0
 40
1
 40
1
 40
1
 40
1
 10
1.379911
 20
9.344294
 30
0.0
 10
1.379911
 20
9.389653
 30
0.0
 10
1.368946
 20
9.424429
 30
0.0
 10
1.347017
 20
9.448620
 30
0.0
  0
SPLINE
  5
221
100
AcDbEntity
  8
Capa_1
 62
7
100
AcDbSpline
 70
8
 71
3
 72
8
 73
4
 74
0
 40
0
 40
0
 40
0
 40
0
 40
1
 40
1
 40
1
 40
1
 10
1.347017
 20
9.448620
 30
0.0
 10
1.325301
 20
9.473071
 30
0.0
 10
1.294856
 20
9.485296
 30
0.0
 10
1.255682
 20
9.485296
 30
0.0
  0
SPLINE
  5
222
100
AcDbEntity
  8
Capa_1
 62
7
100
AcDbSpline
 70
8
 71
3
 72
8
 73
4
 74
0
 40
0
 40
0
 40
0
 40
0
 40
1
 40
1
 40
1
 40
1
 10
1.255682
 20
9.485296
 30
0.0
 10
1.225236
 20
9.485296
 30
0.0
 10
1.197772
 20
9.477974
 30
0.0
 10
1.173288
 20
9.463331
 30
0.0
  0
SPLINE
  5
223
100
AcDbEntity
  8
Capa_1
 62
7
100
AcDbSpline
 70
8
 71
3
 72
8
 73
4
 74
0
 40
0
 40
0
 40
0
 40
0
 40
1
 40
1
 40
1
 40
1
 10
1.173288
 20
9.463331
 30
0.0
 10
1.148804
 20
9.448893
 30
0.0
 10
1.127727
 20
9.429244
 30
0.0
 10
1.110055
 20
9.404385
 30
0.0
  0
SPLINE
  5
224
100
AcDbEntity
  8
Capa_1
 62
7
100
AcDbSpline
 70
8
 71
3
 72
8
 73
4
 74
0
 40
0
 40
0
 40
0
 40
0
 40
1
 40
1
 40
1
 40
1
 10
1.110055
 20
9.404385
 30
0.0
 10
1.093022
 20
9.379934
 30
0.0
 10
1.079929
 20
9.351500
 30
0.0
 10
1.070775
 20
9.319081
 30
0.0
  0
SPLINE
  5
225
100
AcDbEntity
  8
Capa_1
 62
7
100
AcDbSpline
 70
8
 71
3
 72
8
 73
4
 74
0
 40
0
 40
0
 40
0
 40
0
 40
1
 40
1
 40
1
 40
1
 10
1.070775
 20
9.319081
 30
0.0
 10
1.061620
 20
9.286866
 30
0.0
 10
1.057043
 20
9.253664
 30
0.0
 10
1.057043
 20
9.219474
 30
0.0
  0
SPLINE
  5
226
100
AcDbEntity
  8
Capa_1
 62
7
100
AcDbSpline
 70
8
 71
3
 72
8
 73
4
 74
0
 40
0
 40
0
 40
0
 40
0
 40
1
 40
1
 40
1
 40
1
 10
1.057043
 20
9.219474
 30
0.0
 10
1.057043
 20
9.173706
 30
0.0
 10
1.067901
 20
9.138484
 30
0.0
 10
1.089617
 20
9.113809
 30
0.0
  0
SPLINE
  5
227
100
AcDbEntity
  8
Capa_1
 62
7
100
AcDbSpline
 70
8
 71
3
 72
8
 73
4
 74
0
 40
0
 40
0
 40
0
 40
0
 40
1
 40
1
 40
1
 40
1
 10
1.089617
 20
9.113809
 30
0.0
 10
1.111546
 20
9.089359
 30
0.0
 10
1.142204
 20
9.077134
 30
0.0
 10
1.181591
 20
9.077134
 30
0.0
  0
SPLINE
  5
228
100
AcDbEntity
  8
Capa_1
 62
7
100
AcDbSpline
 70
8
 71
3
 72
8
 73
4
 74
0
 40
0
 40
0
 40
0
 40
0
 40
1
 40
1
 40
1
 40
1
 10
1.181591
 20
9.077134
 30
0.0
 10
1.211611
 20
9.077134
 30
0.0
 10
1.238863
 20
9.084353
 30
0.0
 10
1.263347
 20
9.098792
 30
0.0
  0
SPLINE
  5
229
100
AcDbEntity
  8
Capa_1
 62
7
100
AcDbSpline
 70
8
 71
3
 72
8
 73
4
 74
0
 40
0
 40
0
 40
0
 40
0
 40
1
 40
1
 40
1
 40
1
 10
1.263347
 20
9.098792
 30
0.0
 10
1.288044
 20
9.113230
 30
0.0
 10
1.308802
 20
9.132436
 30
0.0
 10
1.325622
 20
9.156410
 30
0.0
  0
LWPOLYLINE
  5
22a
100
AcDbEntity
  8
Capa_1
 62
7
100
AcDbPolyline
 90
1
 70
1
 10
1.446656
 20
9.353580
 30
0.0
  0
SPLINE
  5
22b
100
AcDbEntity
  8
Capa_1
 62
7
100
AcDbSpline
 70
8
 71
3
 72
8
 73
4
 74
0
 40
0
 40
0
 40
0
 40
0
 40
1
 40
1
 40
1
 40
1
 10
1.649127
 20
9.023949
 30
0.0
 10
1.618256
 20
9.023949
 30
0.0
 10
1.588875
 20
9.027354
 30
0.0
 10
1.560984
 20
9.034165
 30
0.0
  0
SPLINE
  5
22c
100
AcDbEntity
  8
Capa_1
 62
7
100
AcDbSpline
 70
8
 71
3
 72
8
 73
4
 74
0
 40
0
 40
0
 40
0
 40
0
 40
1
 40
1
 40
1
 40
1
 10
1.560984
 20
9.034165
 30
0.0
 10
1.533094
 20
9.041044
 30
0.0
 10
1.505736
 20
9.051498
 30
0.0
 10
1.478910
 20
9.065528
 30
0.0
  0
LWPOLYLINE
  5
22d
100
AcDbEntity
  8
Capa_1
 62
7
100
AcDbPolyline
 90
2
 70
0
 10
1.325622
 20
9.156410
 30
0.0
 10
1.325620
 20
9.156277
 30
0.0
  0
SPLINE
  5
22e
100
AcDbEntity
  8
Capa_1
 62
7
100
AcDbSpline
 70
8
 71
3
 72
8
 73
4
 74
0
 40
0
 40
0
 40
0
 40
0
 40
1
 40
1
 40
1
 40
1
 10
1.498712
 20
9.141229
 30
0.0
 10
1.519151
 20
9.121001
 30
0.0
 10
1.544167
 20
9.105439
 30
0.0
 10
1.573760
 20
9.094542
 30
0.0
  0
SPLINE
  5
22f
100
AcDbEntity
  8
Capa_1
 62
7
100
AcDbSpline
 70
8
 71
3
 72
8
 73
4
 74
0
 40
0
 40
0
 40
0
 40
0
 40
1
 40
1
 40
1
 40
1
 10
1.573760
 20
9.094542
 30
0.0
 10
1.603567
 20
9.083849
 30
0.0
 10
1.632309
 20
9.078502
 30
0.0
 10
1.659986
 20
9.078502
 30
0.0
  0
SPLINE
  5
230
100
AcDbEntity
  8
Capa_1
 62
7
100
AcDbSpline
 70
8
 71
3
 72
8
 73
4
 74
0
 40
0
 40
0
 40
0
 40
0
 40
1
 40
1
 40
1
 40
1
 10
1.659986
 20
9.078502
 30
0.0
 10
1.705334
 20
9.078502
 30
0.0
 10
1.740038
 20
9.087833
 30
0.0
 10
1.764096
 20
9.106494
 30
0.0
  0
SPLINE
  5
231
100
AcDbEntity
  8
Capa_1
 62
7
100
AcDbSpline
 70
8
 71
3
 72
8
 73
4
 74
0
 40
0
 40
0
 40
0
 40
0
 40
1
 40
1
 40
1
 40
1
 10
1.764096
 20
9.106494
 30
0.0
 10
1.788367
 20
9.125360
 30
0.0
 10
1.800503
 20
9.149368
 30
0.0
 10
1.800503
 20
9.178518
 30
0.0
  0
SPLINE
  5
232
100
AcDbEntity
  8
Capa_1
 62
7
100
AcDbSpline
 70
8
 71
3
 72
8
 73
4
 74
0
 40
0
 40
0
 40
0
 40
0
 40
1
 40
1
 40
1
 40
1
 10
1.800503
 20
9.178518
 30
0.0
 10
1.800503
 20
9.193842
 30
0.0
 10
1.796138
 20
9.206612
 30
0.0
 10
1.787410
 20
9.216828
 30
0.0
  0
SPLINE
  5
233
100
AcDbEntity
  8
Capa_1
 62
7
100
AcDbSpline
 70
8
 71
3
 72
8
 73
4
 74
0
 40
0
 40
0
 40
0
 40
0
 40
1
 40
1
 40
1
 40
1
 10
1.787410
 20
9.216828
 30
0.0
 10
1.778894
 20
9.227044
 30
0.0
 10
1.766332
 20
9.234604
 30
0.0
 10
1.749726
 20
9.239508
 30
0.0
  0
SPLINE
  5
234
100
AcDbEntity
  8
Capa_1
 62
7
100
AcDbSpline
 70
8
 71
3
 72
8
 73
4
 74
0
 40
0
 40
0
 40
0
 40
0
 40
1
 40
1
 40
1
 40
1
 10
1.749726
 20
9.239508
 30
0.0
 10
1.735887
 20
9.243594
 30
0.0
 10
1.719387
 20
9.247374
 30
0.0
 10
1.700225
 20
9.250847
 30
0.0
  0
SPLINE
  5
235
100
AcDbEntity
  8
Capa_1
 62
7
100
AcDbSpline
 70
8
 71
3
 72
8
 73
4
 74
0
 40
0
 40
0
 40
0
 40
0
 40
1
 40
1
 40
1
 40
1
 10
1.700225
 20
9.250847
 30
0.0
 10
1.681277
 20
9.254934
 30
0.0
 10
1.663180
 20
9.258918
 30
0.0
 10
1.645934
 20
9.262800
 30
0.0
  0
SPLINE
  5
236
100
AcDbEntity
  8
Capa_1
 62
7
100
AcDbSpline
 70
8
 71
3
 72
8
 73
4
 74
0
 40
0
 40
0
 40
0
 40
0
 40
1
 40
1
 40
1
 40
1
 10
1.645934
 20
9.262800
 30
0.0
 10
1.612509
 20
9.270564
 30
0.0
 10
1.586641
 20
9.283913
 30
0.0
 10
1.568331
 20
9.302847
 30
0.0
  0
SPLINE
  5
237
100
AcDbEntity
  8
Capa_1
 62
7
100
AcDbSpline
 70
8
 71
3
 72
8
 73
4
 74
0
 40
0
 40
0
 40
0
 40
0
 40
1
 40
1
 40
1
 40
1
 10
1.568331
 20
9.302847
 30
0.0
 10
1.550021
 20
9.321713
 30
0.0
 10
1.540867
 20
9.345142
 30
0.0
 10
1.540867
 20
9.373134
 30
0.0
  0
SPLINE
  5
238
100
AcDbEntity
  8
Capa_1
 62
7
100
AcDbSpline
 70
8
 71
3
 72
8
 73
4
 74
0
 40
0
 40
0
 40
0
 40
0
 40
1
 40
1
 40
1
 40
1
 10
1.540867
 20
9.373134
 30
0.0
 10
1.540867
 20
9.420468
 30
0.0
 10
1.560028
 20
9.459800
 30
0.0
 10
1.598351
 20
9.491129
 30
0.0
  0
SPLINE
  5
239
100
AcDbEntity
  8
Capa_1
 62
7
100
AcDbSpline
 70
8
 71
3
 72
8
 73
4
 74
0
 40
0
 40
0
 40
0
 40
0
 40
1
 40
1
 40
1
 40
1
 10
1.598351
 20
9.491129
 30
0.0
 10
1.636886
 20
9.522663
 30
0.0
 10
1.686599
 20
9.538430
 30
0.0
 10
1.747490
 20
9.538430
 30
0.0
  0
SPLINE
  5
23a
100
AcDbEntity
  8
Capa_1
 62
7
100
AcDbSpline
 70
8
 71
3
 72
8
 73
4
 74
0
 40
0
 40
0
 40
0
 40
0
 40
1
 40
1
 40
1
 40
1
 10
1.747490
 20
9.538430
 30
0.0
 10
1.780703
 20
9.538430
 30
0.0
 10
1.810829
 20
9.534752
 30
0.0
 10
1.837867
 20
9.527396
 30
0.0
  0
SPLINE
  5
23b
100
AcDbEntity
  8
Capa_1
 62
7
100
AcDbSpline
 70
8
 71
3
 72
8
 73
4
 74
0
 40
0
 40
0
 40
0
 40
0
 40
1
 40
1
 40
1
 40
1
 10
1.837867
 20
9.527396
 30
0.0
 10
1.865119
 20
9.520313
 30
0.0
 10
1.888538
 20
9.511868
 30
0.0
 10
1.908125
 20
9.502060
 30
0.0
  0
LWPOLYLINE
  5
23c
100
AcDbEntity
  8
Capa_1
 62
7
100
AcDbPolyline
 90
3
 70
0
 10
1.478910
 20
9.065528
 30
0.0
 10
1.494238
 20
9.141229
 30
0.0
 10
1.498712
 20
9.141229
 30
0.0
  0
SPLINE
  5
23d
100
AcDbEntity
  8
Capa_1
 62
7
100
AcDbSpline
 70
8
 71
3
 72
8
 73
4
 74
0
 40
0
 40
0
 40
0
 40
0
 40
1
 40
1
 40
1
 40
1
 10
1.889280
 20
9.431059
 30
0.0
 10
1.874164
 20
9.445498
 30
0.0
 10
1.852554
 20
9.457927
 30
0.0
 10
1.824451
 20
9.468347
 30
0.0
  0
SPLINE
  5
23e
100
AcDbEntity
  8
Capa_1
 62
7
100
AcDbSpline
 70
8
 71
3
 72
8
 73
4
 74
0
 40
0
 40
0
 40
0
 40
0
 40
1
 40
1
 40
1
 40
1
 10
1.824451
 20
9.468347
 30
0.0
 10
1.796561
 20
9.478768
 30
0.0
 10
1.767180
 20
9.483978
 30
0.0
 10
1.736308
 20
9.483978
 30
0.0
  0
SPLINE
  5
23f
100
AcDbEntity
  8
Capa_1
 62
7
100
AcDbSpline
 70
8
 71
3
 72
8
 73
4
 74
0
 40
0
 40
0
 40
0
 40
0
 40
1
 40
1
 40
1
 40
1
 10
1.736308
 20
9.483978
 30
0.0
 10
1.697560
 20
9.483978
 30
0.0
 10
1.666582
 20
9.475090
 30
0.0
 10
1.643376
 20
9.457314
 30
0.0
  0
SPLINE
  5
240
100
AcDbEntity
  8
Capa_1
 62
7
100
AcDbSpline
 70
8
 71
3
 72
8
 73
4
 74
0
 40
0
 40
0
 40
0
 40
0
 40
1
 40
1
 40
1
 40
1
 10
1.643376
 20
9.457314
 30
0.0
 10
1.620382
 20
9.439538
 30
0.0
 10
1.608885
 20
9.416995
 30
0.0
 10
1.608885
 20
9.389684
 30
0.0
  0
SPLINE
  5
241
100
AcDbEntity
  8
Capa_1
 62
7
100
AcDbSpline
 70
8
 71
3
 72
8
 73
4
 74
0
 40
0
 40
0
 40
0
 40
0
 40
1
 40
1
 40
1
 40
1
 10
1.608885
 20
9.389684
 30
0.0
 10
1.608885
 20
9.375041
 30
0.0
 10
1.613037
 20
9.362169
 30
0.0
 10
1.621340
 20
9.351067
 30
0.0
  0
SPLINE
  5
242
100
AcDbEntity
  8
Capa_1
 62
7
100
AcDbSpline
 70
8
 71
3
 72
8
 73
4
 74
0
 40
0
 40
0
 40
0
 40
0
 40
1
 40
1
 40
1
 40
1
 10
1.621340
 20
9.351067
 30
0.0
 10
1.629644
 20
9.339966
 30
0.0
 10
1.644440
 20
9.331622
 30
0.0
 10
1.665730
 20
9.326038
 30
0.0
  0
SPLINE
  5
243
100
AcDbEntity
  8
Capa_1
 62
7
100
AcDbSpline
 70
8
 71
3
 72
8
 73
4
 74
0
 40
0
 40
0
 40
0
 40
0
 40
1
 40
1
 40
1
 40
1
 10
1.665730
 20
9.326038
 30
0.0
 10
1.679356
 20
9.322632
 30
0.0
 10
1.697453
 20
9.318512
 30
0.0
 10
1.720021
 20
9.313676
 30
0.0
  0
SPLINE
  5
244
100
AcDbEntity
  8
Capa_1
 62
7
100
AcDbSpline
 70
8
 71
3
 72
8
 73
4
 74
0
 40
0
 40
0
 40
0
 40
0
 40
1
 40
1
 40
1
 40
1
 10
1.720021
 20
9.313676
 30
0.0
 10
1.742589
 20
9.308909
 30
0.0
 10
1.761538
 20
9.304448
 30
0.0
 10
1.776867
 20
9.300293
 30
0.0
  0
SPLINE
  5
245
100
AcDbEntity
  8
Capa_1
 62
7
100
AcDbSpline
 70
8
 71
3
 72
8
 73
4
 74
0
 40
0
 40
0
 40
0
 40
0
 40
1
 40
1
 40
1
 40
1
 10
1.776867
 20
9.300293
 30
0.0
 10
1.807099
 20
9.291644
 30
0.0
 10
1.829986
 20
9.278771
 30
0.0
 10
1.845528
 20
9.261677
 30
0.0
  0
SPLINE
  5
246
100
AcDbEntity
  8
Capa_1
 62
7
100
AcDbSpline
 70
8
 71
3
 72
8
 73
4
 74
0
 40
0
 40
0
 40
0
 40
0
 40
1
 40
1
 40
1
 40
1
 10
1.845528
 20
9.261677
 30
0.0
 10
1.861283
 20
9.244582
 30
0.0
 10
1.869161
 20
9.223026
 30
0.0
 10
1.869161
 20
9.197009
 30
0.0
  0
SPLINE
  5
247
100
AcDbEntity
  8
Capa_1
 62
7
100
AcDbSpline
 70
8
 71
3
 72
8
 73
4
 74
0
 40
0
 40
0
 40
0
 40
0
 40
1
 40
1
 40
1
 40
1
 10
1.869161
 20
9.197009
 30
0.0
 10
1.869161
 20
9.175215
 30
0.0
 10
1.864051
 20
9.153556
 30
0.0
 10
1.853832
 20
9.132035
 30
0.0
  0
SPLINE
  5
248
100
AcDbEntity
  8
Capa_1
 62
7
100
AcDbSpline
 70
8
 71
3
 72
8
 73
4
 74
0
 40
0
 40
0
 40
0
 40
0
 40
1
 40
1
 40
1
 40
1
 10
1.853832
 20
9.132035
 30
0.0
 10
1.843613
 20
9.110445
 30
0.0
 10
1.829348
 20
9.091988
 30
0.0
 10
1.811039
 20
9.076664
 30
0.0
  0
SPLINE
  5
249
100
AcDbEntity
  8
Capa_1
 62
7
100
AcDbSpline
 70
8
 71
3
 72
8
 73
4
 74
0
 40
0
 40
0
 40
0
 40
0
 40
1
 40
1
 40
1
 40
1
 10
1.811039
 20
9.076664
 30
0.0
 10
1.791451
 20
9.060250
 30
0.0
 10
1.768458
 20
9.047378
 30
0.0
 10
1.742058
 20
9.038047
 30
0.0
  0
SPLINE
  5
24a
100
AcDbEntity
  8
Capa_1
 62
7
100
AcDbSpline
 70
8
 71
3
 72
8
 73
4
 74
0
 40
0
 40
0
 40
0
 40
0
 40
1
 40
1
 40
1
 40
1
 10
1.742058
 20
9.038047
 30
0.0
 10
1.715871
 20
9.028716
 30
0.0
 10
1.684894
 20
9.024051
 30
0.0
 10
1.649126
 20
9.024051
 30
0.0
  0
LWPOLYLINE
  5
24b
100
AcDbEntity
  8
Capa_1
 62
7
100
AcDbPolyline
 90
3
 70
0
 10
1.908125
 20
9.502060
 30
0.0
 10
1.893754
 20
9.431059
 30
0.0
 10
1.889280
 20
9.431059
 30
0.0
  0
LWPOLYLINE
  5
24c
100
AcDbEntity
  8
Capa_1
 62
7
100
AcDbPolyline
 90
2
 70
0
 10
1.649126
 20
9.024051
 30
0.0
 10
1.649127
 20
9.023949
 30
0.0
  0
LWPOLYLINE
  5
24d
100
AcDbEntity
  8
Capa_1
 62
7
100
AcDbPolyline
 90
12
 70
1
 10
2.100057
 20
9.032949
 30
0.0
 10
1.911638
 20
9.032949
 30
0.0
 10
1.922176
 20
9.081271
 30
0.0
 10
1.984450
 20
9.081271
 30
0.0
 10
2.073231
 20
9.480903
 30
0.0
 10
2.010957
 20
9.480903
 30
0.0
 10
2.021495
 20
9.529225
 30
0.0
 10
2.209915
 20
9.529225
 30
0.0
 10
2.199377
 20
9.480903
 30
0.0
 10
2.137102
 20
9.480903
 30
0.0
 10
2.048321
 20
9.081271
 30
0.0
 10
2.110596
 20
9.081271
 30
0.0
  0
LWPOLYLINE
  5
24e
100
AcDbEntity
  8
Capa_1
 62
7
100
AcDbPolyline
 90
13
 70
1
 10
0.842115
 20
7.326427
 30
0.0
 10
0.778244
 20
7.326427
 30
0.0
 10
0.872134
 20
7.748054
 30
0.0
 10
0.678924
 20
7.463087
 30
0.0
 10
0.641240
 20
7.463087
 30
0.0
 10
0.574175
 20
7.761059
 30
0.0
 10
0.477730
 20
7.326427
 30
0.0
 10
0.418010
 20
7.326427
 30
0.0
 10
0.527869
 20
7.822723
 30
0.0
 10
0.614733
 20
7.822723
 30
0.0
 10
0.678924
 20
7.546410
 30
0.0
 10
0.864150
 20
7.822723
 30
0.0
 10
0.951973
 20
7.822723
 30
0.0
  0
SPLINE
  5
24f
100
AcDbEntity
  8
Capa_1
 62
7
100
AcDbSpline
 70
8
 71
3
 72
8
 73
4
 74
0
 40
0
 40
0
 40
0
 40
0
 40
1
 40
1
 40
1
 40
1
 10
1.410249
 20
7.317427
 30
0.0
 10
1.379378
 20
7.317427
 30
0.0
 10
1.349997
 20
7.320832
 30
0.0
 10
1.322106
 20
7.327643
 30
0.0
  0
SPLINE
  5
250
100
AcDbEntity
  8
Capa_1
 62
7
100
AcDbSpline
 70
8
 71
3
 72
8
 73
4
 74
0
 40
0
 40
0
 40
0
 40
0
 40
1
 40
1
 40
1
 40
1
 10
1.322106
 20
7.327643
 30
0.0
 10
1.294216
 20
7.334522
 30
0.0
 10
1.266857
 20
7.344976
 30
0.0
 10
1.240032
 20
7.359006
 30
0.0
  0
LWPOLYLINE
  5
251
100
AcDbEntity
  8
Capa_1
 62
7
100
AcDbPolyline
 90
12
 70
1
 10
1.138158
 20
7.326427
 30
0.0
 10
0.949738
 20
7.326427
 30
0.0
 10
0.960276
 20
7.374749
 30
0.0
 10
1.022551
 20
7.374749
 30
0.0
 10
1.111332
 20
7.774381
 30
0.0
 10
1.049057
 20
7.774381
 30
0.0
 10
1.059596
 20
7.822703
 30
0.0
 10
1.248016
 20
7.822703
 30
0.0
 10
1.237477
 20
7.774381
 30
0.0
 10
1.175203
 20
7.774381
 30
0.0
 10
1.086422
 20
7.374749
 30
0.0
 10
1.148696
 20
7.374749
 30
0.0
  0
SPLINE
  5
252
100
AcDbEntity
  8
Capa_1
 62
7
100
AcDbSpline
 70
8
 71
3
 72
8
 73
4
 74
0
 40
0
 40
0
 40
0
 40
0
 40
1
 40
1
 40
1
 40
1
 10
1.259834
 20
7.434707
 30
0.0
 10
1.280272
 20
7.414479
 30
0.0
 10
1.305288
 20
7.398917
 30
0.0
 10
1.334882
 20
7.388020
 30
0.0
  0
SPLINE
  5
253
100
AcDbEntity
  8
Capa_1
 62
7
100
AcDbSpline
 70
8
 71
3
 72
8
 73
4
 74
0
 40
0
 40
0
 40
0
 40
0
 40
1
 40
1
 40
1
 40
1
 10
1.334882
 20
7.388020
 30
0.0
 10
1.364689
 20
7.377327
 30
0.0
 10
1.393431
 20
7.371981
 30
0.0
 10
1.421108
 20
7.371981
 30
0.0
  0
SPLINE
  5
254
100
AcDbEntity
  8
Capa_1
 62
7
100
AcDbSpline
 70
8
 71
3
 72
8
 73
4
 74
0
 40
0
 40
0
 40
0
 40
0
 40
1
 40
1
 40
1
 40
1
 10
1.421108
 20
7.371981
 30
0.0
 10
1.466456
 20
7.371981
 30
0.0
 10
1.501160
 20
7.381311
 30
0.0
 10
1.525218
 20
7.399973
 30
0.0
  0
SPLINE
  5
255
100
AcDbEntity
  8
Capa_1
 62
7
100
AcDbSpline
 70
8
 71
3
 72
8
 73
4
 74
0
 40
0
 40
0
 40
0
 40
0
 40
1
 40
1
 40
1
 40
1
 10
1.525218
 20
7.399973
 30
0.0
 10
1.549489
 20
7.418838
 30
0.0
 10
1.561625
 20
7.442846
 30
0.0
 10
1.561625
 20
7.471996
 30
0.0
  0
SPLINE
  5
256
100
AcDbEntity
  8
Capa_1
 62
7
100
AcDbSpline
 70
8
 71
3
 72
8
 73
4
 74
0
 40
0
 40
0
 40
0
 40
0
 40
1
 40
1
 40
1
 40
1
 10
1.561625
 20
7.471996
 30
0.0
 10
1.561625
 20
7.487320
 30
0.0
 10
1.557260
 20
7.500090
 30
0.0
 10
1.548530
 20
7.510306
 30
0.0
  0
SPLINE
  5
257
100
AcDbEntity
  8
Capa_1
 62
7
100
AcDbSpline
 70
8
 71
3
 72
8
 73
4
 74
0
 40
0
 40
0
 40
0
 40
0
 40
1
 40
1
 40
1
 40
1
 10
1.548530
 20
7.510306
 30
0.0
 10
1.540014
 20
7.520522
 30
0.0
 10
1.527453
 20
7.528082
 30
0.0
 10
1.510847
 20
7.532986
 30
0.0
  0
SPLINE
  5
258
100
AcDbEntity
  8
Capa_1
 62
7
100
AcDbSpline
 70
8
 71
3
 72
8
 73
4
 74
0
 40
0
 40
0
 40
0
 40
0
 40
1
 40
1
 40
1
 40
1
 10
1.510847
 20
7.532986
 30
0.0
 10
1.497008
 20
7.537072
 30
0.0
 10
1.480508
 20
7.540852
 30
0.0
 10
1.461346
 20
7.544326
 30
0.0
  0
SPLINE
  5
259
100
AcDbEntity
  8
Capa_1
 62
7
100
AcDbSpline
 70
8
 71
3
 72
8
 73
4
 74
0
 40
0
 40
0
 40
0
 40
0
 40
1
 40
1
 40
1
 40
1
 10
1.461346
 20
7.544326
 30
0.0
 10
1.442398
 20
7.548412
 30
0.0
 10
1.424301
 20
7.552396
 30
0.0
 10
1.407055
 20
7.556278
 30
0.0
  0
SPLINE
  5
25a
100
AcDbEntity
  8
Capa_1
 62
7
100
AcDbSpline
 70
8
 71
3
 72
8
 73
4
 74
0
 40
0
 40
0
 40
0
 40
0
 40
1
 40
1
 40
1
 40
1
 10
1.407055
 20
7.556278
 30
0.0
 10
1.373629
 20
7.564043
 30
0.0
 10
1.347762
 20
7.577357
 30
0.0
 10
1.329452
 20
7.596223
 30
0.0
  0
SPLINE
  5
25b
100
AcDbEntity
  8
Capa_1
 62
7
100
AcDbSpline
 70
8
 71
3
 72
8
 73
4
 74
0
 40
0
 40
0
 40
0
 40
0
 40
1
 40
1
 40
1
 40
1
 10
1.329452
 20
7.596223
 30
0.0
 10
1.311142
 20
7.615089
 30
0.0
 10
1.301987
 20
7.638518
 30
0.0
 10
1.301987
 20
7.666510
 30
0.0
  0
SPLINE
  5
25c
100
AcDbEntity
  8
Capa_1
 62
7
100
AcDbSpline
 70
8
 71
3
 72
8
 73
4
 74
0
 40
0
 40
0
 40
0
 40
0
 40
1
 40
1
 40
1
 40
1
 10
1.301987
 20
7.666510
 30
0.0
 10
1.301987
 20
7.713844
 30
0.0
 10
1.321149
 20
7.753176
 30
0.0
 10
1.359471
 20
7.784505
 30
0.0
  0
SPLINE
  5
25d
100
AcDbEntity
  8
Capa_1
 62
7
100
AcDbSpline
 70
8
 71
3
 72
8
 73
4
 74
0
 40
0
 40
0
 40
0
 40
0
 40
1
 40
1
 40
1
 40
1
 10
1.359471
 20
7.784505
 30
0.0
 10
1.398007
 20
7.816039
 30
0.0
 10
1.447720
 20
7.831806
 30
0.0
 10
1.508610
 20
7.831806
 30
0.0
  0
SPLINE
  5
25e
100
AcDbEntity
  8
Capa_1
 62
7
100
AcDbSpline
 70
8
 71
3
 72
8
 73
4
 74
0
 40
0
 40
0
 40
0
 40
0
 40
1
 40
1
 40
1
 40
1
 10
1.508610
 20
7.831806
 30
0.0
 10
1.541824
 20
7.831806
 30
0.0
 10
1.571949
 20
7.828128
 30
0.0
 10
1.598988
 20
7.820772
 30
0.0
  0
SPLINE
  5
25f
100
AcDbEntity
  8
Capa_1
 62
7
100
AcDbSpline
 70
8
 71
3
 72
8
 73
4
 74
0
 40
0
 40
0
 40
0
 40
0
 40
1
 40
1
 40
1
 40
1
 10
1.598988
 20
7.820772
 30
0.0
 10
1.626240
 20
7.813689
 30
0.0
 10
1.649659
 20
7.805244
 30
0.0
 10
1.669246
 20
7.795436
 30
0.0
  0
LWPOLYLINE
  5
260
100
AcDbEntity
  8
Capa_1
 62
7
100
AcDbPolyline
 90
3
 70
0
 10
1.240032
 20
7.359006
 30
0.0
 10
1.255360
 20
7.434707
 30
0.0
 10
1.259834
 20
7.434707
 30
0.0
  0
SPLINE
  5
261
100
AcDbEntity
  8
Capa_1
 62
7
100
AcDbSpline
 70
8
 71
3
 72
8
 73
4
 74
0
 40
0
 40
0
 40
0
 40
0
 40
1
 40
1
 40
1
 40
1
 10
1.650401
 20
7.724435
 30
0.0
 10
1.635285
 20
7.738873
 30
0.0
 10
1.613675
 20
7.751303
 30
0.0
 10
1.585572
 20
7.761723
 30
0.0
  0
SPLINE
  5
262
100
AcDbEntity
  8
Capa_1
 62
7
100
AcDbSpline
 70
8
 71
3
 72
8
 73
4
 74
0
 40
0
 40
0
 40
0
 40
0
 40
1
 40
1
 40
1
 40
1
 10
1.585572
 20
7.761723
 30
0.0
 10
1.557681
 20
7.772144
 30
0.0
 10
1.528300
 20
7.777354
 30
0.0
 10
1.497429
 20
7.777354
 30
0.0
  0
SPLINE
  5
263
100
AcDbEntity
  8
Capa_1
 62
7
100
AcDbSpline
 70
8
 71
3
 72
8
 73
4
 74
0
 40
0
 40
0
 40
0
 40
0
 40
1
 40
1
 40
1
 40
1
 10
1.497429
 20
7.777354
 30
0.0
 10
1.458680
 20
7.777354
 30
0.0
 10
1.427703
 20
7.768466
 30
0.0
 10
1.404496
 20
7.750690
 30
0.0
  0
SPLINE
  5
264
100
AcDbEntity
  8
Capa_1
 62
7
100
AcDbSpline
 70
8
 71
3
 72
8
 73
4
 74
0
 40
0
 40
0
 40
0
 40
0
 40
1
 40
1
 40
1
 40
1
 10
1.404496
 20
7.750690
 30
0.0
 10
1.381502
 20
7.732914
 30
0.0
 10
1.370005
 20
7.710371
 30
0.0
 10
1.370005
 20
7.683060
 30
0.0
  0
SPLINE
  5
265
100
AcDbEntity
  8
Capa_1
 62
7
100
AcDbSpline
 70
8
 71
3
 72
8
 73
4
 74
0
 40
0
 40
0
 40
0
 40
0
 40
1
 40
1
 40
1
 40
1
 10
1.370005
 20
7.683060
 30
0.0
 10
1.370005
 20
7.668417
 30
0.0
 10
1.374157
 20
7.655544
 30
0.0
 10
1.382460
 20
7.644443
 30
0.0
  0
SPLINE
  5
266
100
AcDbEntity
  8
Capa_1
 62
7
100
AcDbSpline
 70
8
 71
3
 72
8
 73
4
 74
0
 40
0
 40
0
 40
0
 40
0
 40
1
 40
1
 40
1
 40
1
 10
1.382460
 20
7.644443
 30
0.0
 10
1.390763
 20
7.633341
 30
0.0
 10
1.405560
 20
7.624998
 30
0.0
 10
1.426851
 20
7.619414
 30
0.0
  0
SPLINE
  5
267
100
AcDbEntity
  8
Capa_1
 62
7
100
AcDbSpline
 70
8
 71
3
 72
8
 73
4
 74
0
 40
0
 40
0
 40
0
 40
0
 40
1
 40
1
 40
1
 40
1
 10
1.426851
 20
7.619414
 30
0.0
 10
1.440477
 20
7.616008
 30
0.0
 10
1.458573
 20
7.611888
 30
0.0
 10
1.481141
 20
7.607052
 30
0.0
  0
SPLINE
  5
268
100
AcDbEntity
  8
Capa_1
 62
7
100
AcDbSpline
 70
8
 71
3
 72
8
 73
4
 74
0
 40
0
 40
0
 40
0
 40
0
 40
1
 40
1
 40
1
 40
1
 10
1.481141
 20
7.607052
 30
0.0
 10
1.503709
 20
7.602285
 30
0.0
 10
1.522657
 20
7.597824
 30
0.0
 10
1.537987
 20
7.593669
 30
0.0
  0
SPLINE
  5
269
100
AcDbEntity
  8
Capa_1
 62
7
100
AcDbSpline
 70
8
 71
3
 72
8
 73
4
 74
0
 40
0
 40
0
 40
0
 40
0
 40
1
 40
1
 40
1
 40
1
 10
1.537987
 20
7.593669
 30
0.0
 10
1.568219
 20
7.585019
 30
0.0
 10
1.591106
 20
7.572147
 30
0.0
 10
1.606648
 20
7.555052
 30
0.0
  0
SPLINE
  5
26a
100
AcDbEntity
  8
Capa_1
 62
7
100
AcDbSpline
 70
8
 71
3
 72
8
 73
4
 74
0
 40
0
 40
0
 40
0
 40
0
 40
1
 40
1
 40
1
 40
1
 10
1.606648
 20
7.555052
 30
0.0
 10
1.622403
 20
7.537957
 30
0.0
 10
1.630281
 20
7.516402
 30
0.0
 10
1.630281
 20
7.490385
 30
0.0
  0
SPLINE
  5
26b
100
AcDbEntity
  8
Capa_1
 62
7
100
AcDbSpline
 70
8
 71
3
 72
8
 73
4
 74
0
 40
0
 40
0
 40
0
 40
0
 40
1
 40
1
 40
1
 40
1
 10
1.630281
 20
7.490385
 30
0.0
 10
1.630281
 20
7.468590
 30
0.0
 10
1.625171
 20
7.446932
 30
0.0
 10
1.614952
 20
7.425411
 30
0.0
  0
SPLINE
  5
26c
100
AcDbEntity
  8
Capa_1
 62
7
100
AcDbSpline
 70
8
 71
3
 72
8
 73
4
 74
0
 40
0
 40
0
 40
0
 40
0
 40
1
 40
1
 40
1
 40
1
 10
1.614952
 20
7.425411
 30
0.0
 10
1.604733
 20
7.403821
 30
0.0
 10
1.590468
 20
7.385364
 30
0.0
 10
1.572158
 20
7.370039
 30
0.0
  0
SPLINE
  5
26d
100
AcDbEntity
  8
Capa_1
 62
7
100
AcDbSpline
 70
8
 71
3
 72
8
 73
4
 74
0
 40
0
 40
0
 40
0
 40
0
 40
1
 40
1
 40
1
 40
1
 10
1.572158
 20
7.370039
 30
0.0
 10
1.552571
 20
7.353626
 30
0.0
 10
1.529577
 20
7.340719
 30
0.0
 10
1.503178
 20
7.331321
 30
0.0
  0
SPLINE
  5
26e
100
AcDbEntity
  8
Capa_1
 62
7
100
AcDbSpline
 70
8
 71
3
 72
8
 73
4
 74
0
 40
0
 40
0
 40
0
 40
0
 40
1
 40
1
 40
1
 40
1
 10
1.503178
 20
7.331321
 30
0.0
 10
1.476990
 20
7.321990
 30
0.0
 10
1.446013
 20
7.317325
 30
0.0
 10
1.410245
 20
7.317325
 30
0.0
  0
LWPOLYLINE
  5
26f
100
AcDbEntity
  8
Capa_1
 62
7
100
AcDbPolyline
 90
3
 70
0
 10
1.669246
 20
7.795436
 30
0.0
 10
1.654874
 20
7.724435
 30
0.0
 10
1.650401
 20
7.724435
 30
0.0
  0
SPLINE
  5
270
100
AcDbEntity
  8
Capa_1
 62
7
100
AcDbSpline
 70
8
 71
3
 72
8
 73
4
 74
0
 40
0
 40
0
 40
0
 40
0
 40
1
 40
1
 40
1
 40
1
 10
2.169677
 20
7.647068
 30
0.0
 10
2.169677
 20
7.603957
 30
0.0
 10
2.163396
 20
7.562405
 30
0.0
 10
2.150835
 20
7.522412
 30
0.0
  0
SPLINE
  5
271
100
AcDbEntity
  8
Capa_1
 62
7
100
AcDbSpline
 70
8
 71
3
 72
8
 73
4
 74
0
 40
0
 40
0
 40
0
 40
0
 40
1
 40
1
 40
1
 40
1
 10
2.150835
 20
7.522412
 30
0.0
 10
2.138486
 20
7.482433
 30
0.0
 10
2.120496
 20
7.447215
 30
0.0
 10
2.096864
 20
7.416758
 30
0.0
  0
SPLINE
  5
272
100
AcDbEntity
  8
Capa_1
 62
7
100
AcDbSpline
 70
8
 71
3
 72
8
 73
4
 74
0
 40
0
 40
0
 40
0
 40
0
 40
1
 40
1
 40
1
 40
1
 10
2.096864
 20
7.416758
 30
0.0
 10
2.072593
 20
7.385428
 30
0.0
 10
2.043425
 20
7.360773
 30
0.0
 10
2.009361
 20
7.342793
 30
0.0
  0
SPLINE
  5
273
100
AcDbEntity
  8
Capa_1
 62
7
100
AcDbSpline
 70
8
 71
3
 72
8
 73
4
 74
0
 40
0
 40
0
 40
0
 40
0
 40
1
 40
1
 40
1
 40
1
 10
2.009361
 20
7.342793
 30
0.0
 10
1.975296
 20
7.325017
 30
0.0
 10
1.936867
 20
7.316129
 30
0.0
 10
1.894073
 20
7.316129
 30
0.0
  0
SPLINE
  5
274
100
AcDbEntity
  8
Capa_1
 62
7
100
AcDbSpline
 70
8
 71
3
 72
8
 73
4
 74
0
 40
0
 40
0
 40
0
 40
0
 40
1
 40
1
 40
1
 40
1
 10
1.894073
 20
7.316129
 30
0.0
 10
1.837441
 20
7.316129
 30
0.0
 10
1.793157
 20
7.332237
 30
0.0
 10
1.761221
 20
7.364451
 30
0.0
  0
SPLINE
  5
275
100
AcDbEntity
  8
Capa_1
 62
7
100
AcDbSpline
 70
8
 71
3
 72
8
 73
4
 74
0
 40
0
 40
0
 40
0
 40
0
 40
1
 40
1
 40
1
 40
1
 10
1.761221
 20
7.364451
 30
0.0
 10
1.729286
 20
7.396870
 30
0.0
 10
1.713318
 20
7.442866
 30
0.0
 10
1.713318
 20
7.502440
 30
0.0
  0
SPLINE
  5
276
100
AcDbEntity
  8
Capa_1
 62
7
100
AcDbSpline
 70
8
 71
3
 72
8
 73
4
 74
0
 40
0
 40
0
 40
0
 40
0
 40
1
 40
1
 40
1
 40
1
 10
1.713318
 20
7.502440
 30
0.0
 10
1.713318
 20
7.547799
 30
0.0
 10
1.719705
 20
7.590131
 30
0.0
 10
1.732479
 20
7.629436
 30
0.0
  0
SPLINE
  5
277
100
AcDbEntity
  8
Capa_1
 62
7
100
AcDbSpline
 70
8
 71
3
 72
8
 73
4
 74
0
 40
0
 40
0
 40
0
 40
0
 40
1
 40
1
 40
1
 40
1
 10
1.732479
 20
7.629436
 30
0.0
 10
1.745253
 20
7.668733
 30
0.0
 10
1.763669
 20
7.703839
 30
0.0
 10
1.787728
 20
7.734753
 30
0.0
  0
SPLINE
  5
278
100
AcDbEntity
  8
Capa_1
 62
7
100
AcDbSpline
 70
8
 71
3
 72
8
 73
4
 74
0
 40
0
 40
0
 40
0
 40
0
 40
1
 40
1
 40
1
 40
1
 10
1.787728
 20
7.734753
 30
0.0
 10
1.811147
 20
7.764516
 30
0.0
 10
1.840102
 20
7.788285
 30
0.0
 10
1.874593
 20
7.806061
 30
0.0
  0
SPLINE
  5
279
100
AcDbEntity
  8
Capa_1
 62
7
100
AcDbSpline
 70
8
 71
3
 72
8
 73
4
 74
0
 40
0
 40
0
 40
0
 40
0
 40
1
 40
1
 40
1
 40
1
 10
1.874593
 20
7.806061
 30
0.0
 10
1.909296
 20
7.824041
 30
0.0
 10
1.947300
 20
7.833031
 30
0.0
 10
1.988603
 20
7.833031
 30
0.0
  0
SPLINE
  5
27a
100
AcDbEntity
  8
Capa_1
 62
7
100
AcDbSpline
 70
8
 71
3
 72
8
 73
4
 74
0
 40
0
 40
0
 40
0
 40
0
 40
1
 40
1
 40
1
 40
1
 10
1.988603
 20
7.833031
 30
0.0
 10
2.045022
 20
7.833031
 30
0.0
 10
2.089306
 20
7.816924
 30
0.0
 10
2.121455
 20
7.784709
 30
0.0
  0
SPLINE
  5
27b
100
AcDbEntity
  8
Capa_1
 62
7
100
AcDbSpline
 70
8
 71
3
 72
8
 73
4
 74
0
 40
0
 40
0
 40
0
 40
0
 40
1
 40
1
 40
1
 40
1
 10
2.121455
 20
7.784709
 30
0.0
 10
2.153603
 20
7.752699
 30
0.0
 10
2.169678
 20
7.706815
 30
0.0
 10
2.169678
 20
7.647058
 30
0.0
  0
LWPOLYLINE
  5
27c
100
AcDbEntity
  8
Capa_1
 62
7
100
AcDbPolyline
 90
2
 70
0
 10
1.410245
 20
7.317325
 30
0.0
 10
1.410249
 20
7.317427
 30
0.0
  0
SPLINE
  5
27d
100
AcDbEntity
  8
Capa_1
 62
7
100
AcDbSpline
 70
8
 71
3
 72
8
 73
4
 74
0
 40
0
 40
0
 40
0
 40
0
 40
1
 40
1
 40
1
 40
1
 10
2.048641
 20
7.449755
 30
0.0
 10
2.066525
 20
7.475091
 30
0.0
 10
2.080044
 20
7.503322
 30
0.0
 10
2.089200
 20
7.534447
 30
0.0
  0
SPLINE
  5
27e
100
AcDbEntity
  8
Capa_1
 62
7
100
AcDbSpline
 70
8
 71
3
 72
8
 73
4
 74
0
 40
0
 40
0
 40
0
 40
0
 40
1
 40
1
 40
1
 40
1
 10
2.089200
 20
7.534447
 30
0.0
 10
2.098355
 20
7.565776
 30
0.0
 10
2.102932
 20
7.600218
 30
0.0
 10
2.102932
 20
7.637772
 30
0.0
  0
SPLINE
  5
27f
100
AcDbEntity
  8
Capa_1
 62
7
100
AcDbSpline
 70
8
 71
3
 72
8
 73
4
 74
0
 40
0
 40
0
 40
0
 40
0
 40
1
 40
1
 40
1
 40
1
 10
2.102932
 20
7.637772
 30
0.0
 10
2.102932
 20
7.683131
 30
0.0
 10
2.091968
 20
7.717907
 30
0.0
 10
2.070039
 20
7.742098
 30
0.0
  0
SPLINE
  5
280
100
AcDbEntity
  8
Capa_1
 62
7
100
AcDbSpline
 70
8
 71
3
 72
8
 73
4
 74
0
 40
0
 40
0
 40
0
 40
0
 40
1
 40
1
 40
1
 40
1
 10
2.070039
 20
7.742098
 30
0.0
 10
2.048323
 20
7.766549
 30
0.0
 10
2.017877
 20
7.778774
 30
0.0
 10
1.978703
 20
7.778774
 30
0.0
  0
SPLINE
  5
281
100
AcDbEntity
  8
Capa_1
 62
7
100
AcDbSpline
 70
8
 71
3
 72
8
 73
4
 74
0
 40
0
 40
0
 40
0
 40
0
 40
1
 40
1
 40
1
 40
1
 10
1.978703
 20
7.778774
 30
0.0
 10
1.948258
 20
7.778774
 30
0.0
 10
1.920793
 20
7.771452
 30
0.0
 10
1.896309
 20
7.756809
 30
0.0
  0
SPLINE
  5
282
100
AcDbEntity
  8
Capa_1
 62
7
100
AcDbSpline
 70
8
 71
3
 72
8
 73
4
 74
0
 40
0
 40
0
 40
0
 40
0
 40
1
 40
1
 40
1
 40
1
 10
1.896309
 20
7.756809
 30
0.0
 10
1.871826
 20
7.742371
 30
0.0
 10
1.850748
 20
7.722722
 30
0.0
 10
1.833077
 20
7.697863
 30
0.0
  0
SPLINE
  5
283
100
AcDbEntity
  8
Capa_1
 62
7
100
AcDbSpline
 70
8
 71
3
 72
8
 73
4
 74
0
 40
0
 40
0
 40
0
 40
0
 40
1
 40
1
 40
1
 40
1
 10
1.833077
 20
7.697863
 30
0.0
 10
1.816045
 20
7.673412
 30
0.0
 10
1.802951
 20
7.644978
 30
0.0
 10
1.793796
 20
7.612559
 30
0.0
  0
SPLINE
  5
284
100
AcDbEntity
  8
Capa_1
 62
7
100
AcDbSpline
 70
8
 71
3
 72
8
 73
4
 74
0
 40
0
 40
0
 40
0
 40
0
 40
1
 40
1
 40
1
 40
1
 10
1.793796
 20
7.612559
 30
0.0
 10
1.784641
 20
7.580344
 30
0.0
 10
1.780064
 20
7.547108
 30
0.0
 10
1.780064
 20
7.512850
 30
0.0
  0
SPLINE
  5
285
100
AcDbEntity
  8
Capa_1
 62
7
100
AcDbSpline
 70
8
 71
3
 72
8
 73
4
 74
0
 40
0
 40
0
 40
0
 40
0
 40
1
 40
1
 40
1
 40
1
 10
1.780064
 20
7.512850
 30
0.0
 10
1.780064
 20
7.467082
 30
0.0
 10
1.790922
 20
7.431860
 30
0.0
 10
1.812638
 20
7.407185
 30
0.0
  0
SPLINE
  5
286
100
AcDbEntity
  8
Capa_1
 62
7
100
AcDbSpline
 70
8
 71
3
 72
8
 73
4
 74
0
 40
0
 40
0
 40
0
 40
0
 40
1
 40
1
 40
1
 40
1
 10
1.812638
 20
7.407185
 30
0.0
 10
1.834567
 20
7.382735
 30
0.0
 10
1.865225
 20
7.370509
 30
0.0
 10
1.904613
 20
7.370509
 30
0.0
  0
SPLINE
  5
287
100
AcDbEntity
  8
Capa_1
 62
7
100
AcDbSpline
 70
8
 71
3
 72
8
 73
4
 74
0
 40
0
 40
0
 40
0
 40
0
 40
1
 40
1
 40
1
 40
1
 10
1.904613
 20
7.370509
 30
0.0
 10
1.934632
 20
7.370509
 30
0.0
 10
1.961884
 20
7.377729
 30
0.0
 10
1.986369
 20
7.392167
 30
0.0
  0
SPLINE
  5
288
100
AcDbEntity
  8
Capa_1
 62
7
100
AcDbSpline
 70
8
 71
3
 72
8
 73
4
 74
0
 40
0
 40
0
 40
0
 40
0
 40
1
 40
1
 40
1
 40
1
 10
1.986369
 20
7.392167
 30
0.0
 10
2.011066
 20
7.406606
 30
0.0
 10
2.031824
 20
7.425812
 30
0.0
 10
2.048643
 20
7.449786
 30
0.0
  0
LWPOLYLINE
  5
289
100
AcDbEntity
  8
Capa_1
 62
7
100
AcDbPolyline
 90
1
 70
1
 10
2.169678
 20
7.647058
 30
0.0
  0
SPLINE
  5
28a
100
AcDbEntity
  8
Capa_1
 62
7
100
AcDbSpline
 70
8
 71
3
 72
8
 73
4
 74
0
 40
0
 40
0
 40
0
 40
0
 40
1
 40
1
 40
1
 40
1
 10
0.798363
 20
5.610905
 30
0.0
 10
0.767492
 20
5.610905
 30
0.0
 10
0.738111
 20
5.614310
 30
0.0
 10
0.710221
 20
5.621121
 30
0.0
  0
SPLINE
  5
28b
100
AcDbEntity
  8
Capa_1
 62
7
100
AcDbSpline
 70
8
 71
3
 72
8
 73
4
 74
0
 40
0
 40
0
 40
0
 40
0
 40
1
 40
1
 40
1
 40
1
 10
0.710221
 20
5.621121
 30
0.0
 10
0.682330
 20
5.628000
 30
0.0
 10
0.654972
 20
5.638454
 30
0.0
 10
0.628146
 20
5.652484
 30
0.0
  0
LWPOLYLINE
  5
28c
100
AcDbEntity
  8
Capa_1
 62
7
100
AcDbPolyline
 90
1
 70
1
 10
2.048643
 20
7.449786
 30
0.0
  0
SPLINE
  5
28d
100
AcDbEntity
  8
Capa_1
 62
7
100
AcDbSpline
 70
8
 71
3
 72
8
 73
4
 74
0
 40
0
 40
0
 40
0
 40
0
 40
1
 40
1
 40
1
 40
1
 10
0.647947
 20
5.728185
 30
0.0
 10
0.668386
 20
5.707957
 30
0.0
 10
0.693402
 20
5.692395
 30
0.0
 10
0.722995
 20
5.681498
 30
0.0
  0
SPLINE
  5
28e
100
AcDbEntity
  8
Capa_1
 62
7
100
AcDbSpline
 70
8
 71
3
 72
8
 73
4
 74
0
 40
0
 40
0
 40
0
 40
0
 40
1
 40
1
 40
1
 40
1
 10
0.722995
 20
5.681498
 30
0.0
 10
0.752802
 20
5.670805
 30
0.0
 10
0.781544
 20
5.665459
 30
0.0
 10
0.809222
 20
5.665459
 30
0.0
  0
SPLINE
  5
28f
100
AcDbEntity
  8
Capa_1
 62
7
100
AcDbSpline
 70
8
 71
3
 72
8
 73
4
 74
0
 40
0
 40
0
 40
0
 40
0
 40
1
 40
1
 40
1
 40
1
 10
0.809222
 20
5.665459
 30
0.0
 10
0.854570
 20
5.665459
 30
0.0
 10
0.889273
 20
5.674789
 30
0.0
 10
0.913332
 20
5.693451
 30
0.0
  0
SPLINE
  5
290
100
AcDbEntity
  8
Capa_1
 62
7
100
AcDbSpline
 70
8
 71
3
 72
8
 73
4
 74
0
 40
0
 40
0
 40
0
 40
0
 40
1
 40
1
 40
1
 40
1
 10
0.913332
 20
5.693451
 30
0.0
 10
0.937603
 20
5.712316
 30
0.0
 10
0.949738
 20
5.736324
 30
0.0
 10
0.949738
 20
5.765474
 30
0.0
  0
SPLINE
  5
291
100
AcDbEntity
  8
Capa_1
 62
7
100
AcDbSpline
 70
8
 71
3
 72
8
 73
4
 74
0
 40
0
 40
0
 40
0
 40
0
 40
1
 40
1
 40
1
 40
1
 10
0.949738
 20
5.765474
 30
0.0
 10
0.949738
 20
5.780798
 30
0.0
 10
0.945374
 20
5.793568
 30
0.0
 10
0.936645
 20
5.803784
 30
0.0
  0
SPLINE
  5
292
100
AcDbEntity
  8
Capa_1
 62
7
100
AcDbSpline
 70
8
 71
3
 72
8
 73
4
 74
0
 40
0
 40
0
 40
0
 40
0
 40
1
 40
1
 40
1
 40
1
 10
0.936645
 20
5.803784
 30
0.0
 10
0.928128
 20
5.814000
 30
0.0
 10
0.915567
 20
5.821560
 30
0.0
 10
0.898961
 20
5.826464
 30
0.0
  0
SPLINE
  5
293
100
AcDbEntity
  8
Capa_1
 62
7
100
AcDbSpline
 70
8
 71
3
 72
8
 73
4
 74
0
 40
0
 40
0
 40
0
 40
0
 40
1
 40
1
 40
1
 40
1
 10
0.898961
 20
5.826464
 30
0.0
 10
0.885122
 20
5.830550
 30
0.0
 10
0.868622
 20
5.834330
 30
0.0
 10
0.849460
 20
5.837804
 30
0.0
  0
SPLINE
  5
294
100
AcDbEntity
  8
Capa_1
 62
7
100
AcDbSpline
 70
8
 71
3
 72
8
 73
4
 74
0
 40
0
 40
0
 40
0
 40
0
 40
1
 40
1
 40
1
 40
1
 10
0.849460
 20
5.837804
 30
0.0
 10
0.830512
 20
5.841890
 30
0.0
 10
0.812415
 20
5.845874
 30
0.0
 10
0.795170
 20
5.849756
 30
0.0
  0
SPLINE
  5
295
100
AcDbEntity
  8
Capa_1
 62
7
100
AcDbSpline
 70
8
 71
3
 72
8
 73
4
 74
0
 40
0
 40
0
 40
0
 40
0
 40
1
 40
1
 40
1
 40
1
 10
0.795170
 20
5.849756
 30
0.0
 10
0.761744
 20
5.857521
 30
0.0
 10
0.735876
 20
5.870870
 30
0.0
 10
0.717566
 20
5.889803
 30
0.0
  0
SPLINE
  5
296
100
AcDbEntity
  8
Capa_1
 62
7
100
AcDbSpline
 70
8
 71
3
 72
8
 73
4
 74
0
 40
0
 40
0
 40
0
 40
0
 40
1
 40
1
 40
1
 40
1
 10
0.717566
 20
5.889803
 30
0.0
 10
0.699257
 20
5.908669
 30
0.0
 10
0.690102
 20
5.932098
 30
0.0
 10
0.690102
 20
5.960090
 30
0.0
  0
SPLINE
  5
297
100
AcDbEntity
  8
Capa_1
 62
7
100
AcDbSpline
 70
8
 71
3
 72
8
 73
4
 74
0
 40
0
 40
0
 40
0
 40
0
 40
1
 40
1
 40
1
 40
1
 10
0.690102
 20
5.960090
 30
0.0
 10
0.690102
 20
6.007424
 30
0.0
 10
0.709263
 20
6.046756
 30
0.0
 10
0.747586
 20
6.078085
 30
0.0
  0
SPLINE
  5
298
100
AcDbEntity
  8
Capa_1
 62
7
100
AcDbSpline
 70
8
 71
3
 72
8
 73
4
 74
0
 40
0
 40
0
 40
0
 40
0
 40
1
 40
1
 40
1
 40
1
 10
0.747586
 20
6.078085
 30
0.0
 10
0.786121
 20
6.109619
 30
0.0
 10
0.835835
 20
6.125386
 30
0.0
 10
0.896725
 20
6.125386
 30
0.0
  0
SPLINE
  5
299
100
AcDbEntity
  8
Capa_1
 62
7
100
AcDbSpline
 70
8
 71
3
 72
8
 73
4
 74
0
 40
0
 40
0
 40
0
 40
0
 40
1
 40
1
 40
1
 40
1
 10
0.896725
 20
6.125386
 30
0.0
 10
0.929938
 20
6.125386
 30
0.0
 10
0.960064
 20
6.121708
 30
0.0
 10
0.987103
 20
6.114352
 30
0.0
  0
SPLINE
  5
29a
100
AcDbEntity
  8
Capa_1
 62
7
100
AcDbSpline
 70
8
 71
3
 72
8
 73
4
 74
0
 40
0
 40
0
 40
0
 40
0
 40
1
 40
1
 40
1
 40
1
 10
0.987103
 20
6.114352
 30
0.0
 10
1.014355
 20
6.107269
 30
0.0
 10
1.037774
 20
6.098824
 30
0.0
 10
1.057361
 20
6.089017
 30
0.0
  0
LWPOLYLINE
  5
29b
100
AcDbEntity
  8
Capa_1
 62
7
100
AcDbPolyline
 90
3
 70
0
 10
0.628146
 20
5.652484
 30
0.0
 10
0.643476
 20
5.728185
 30
0.0
 10
0.647947
 20
5.728185
 30
0.0
  0
SPLINE
  5
29c
100
AcDbEntity
  8
Capa_1
 62
7
100
AcDbSpline
 70
8
 71
3
 72
8
 73
4
 74
0
 40
0
 40
0
 40
0
 40
0
 40
1
 40
1
 40
1
 40
1
 10
1.038516
 20
6.018015
 30
0.0
 10
1.023400
 20
6.032454
 30
0.0
 10
1.001790
 20
6.044883
 30
0.0
 10
0.973687
 20
6.055304
 30
0.0
  0
SPLINE
  5
29d
100
AcDbEntity
  8
Capa_1
 62
7
100
AcDbSpline
 70
8
 71
3
 72
8
 73
4
 74
0
 40
0
 40
0
 40
0
 40
0
 40
1
 40
1
 40
1
 40
1
 10
0.973687
 20
6.055304
 30
0.0
 10
0.945796
 20
6.065724
 30
0.0
 10
0.916416
 20
6.070934
 30
0.0
 10
0.885545
 20
6.070934
 30
0.0
  0
SPLINE
  5
29e
100
AcDbEntity
  8
Capa_1
 62
7
100
AcDbSpline
 70
8
 71
3
 72
8
 73
4
 74
0
 40
0
 40
0
 40
0
 40
0
 40
1
 40
1
 40
1
 40
1
 10
0.885545
 20
6.070934
 30
0.0
 10
0.846796
 20
6.070934
 30
0.0
 10
0.815818
 20
6.062046
 30
0.0
 10
0.792612
 20
6.044270
 30
0.0
  0
SPLINE
  5
29f
100
AcDbEntity
  8
Capa_1
 62
7
100
AcDbSpline
 70
8
 71
3
 72
8
 73
4
 74
0
 40
0
 40
0
 40
0
 40
0
 40
1
 40
1
 40
1
 40
1
 10
0.792612
 20
6.044270
 30
0.0
 10
0.769618
 20
6.026494
 30
0.0
 10
0.758122
 20
6.003951
 30
0.0
 10
0.758122
 20
5.976640
 30
0.0
  0
SPLINE
  5
2a0
100
AcDbEntity
  8
Capa_1
 62
7
100
AcDbSpline
 70
8
 71
3
 72
8
 73
4
 74
0
 40
0
 40
0
 40
0
 40
0
 40
1
 40
1
 40
1
 40
1
 10
0.758122
 20
5.976640
 30
0.0
 10
0.758122
 20
5.961997
 30
0.0
 10
0.762273
 20
5.949125
 30
0.0
 10
0.770576
 20
5.938023
 30
0.0
  0
SPLINE
  5
2a1
100
AcDbEntity
  8
Capa_1
 62
7
100
AcDbSpline
 70
8
 71
3
 72
8
 73
4
 74
0
 40
0
 40
0
 40
0
 40
0
 40
1
 40
1
 40
1
 40
1
 10
0.770576
 20
5.938023
 30
0.0
 10
0.778880
 20
5.926922
 30
0.0
 10
0.793677
 20
5.918579
 30
0.0
 10
0.814967
 20
5.912994
 30
0.0
  0
SPLINE
  5
2a2
100
AcDbEntity
  8
Capa_1
 62
7
100
AcDbSpline
 70
8
 71
3
 72
8
 73
4
 74
0
 40
0
 40
0
 40
0
 40
0
 40
1
 40
1
 40
1
 40
1
 10
0.814967
 20
5.912994
 30
0.0
 10
0.828593
 20
5.909588
 30
0.0
 10
0.846690
 20
5.905468
 30
0.0
 10
0.869257
 20
5.900632
 30
0.0
  0
SPLINE
  5
2a3
100
AcDbEntity
  8
Capa_1
 62
7
100
AcDbSpline
 70
8
 71
3
 72
8
 73
4
 74
0
 40
0
 40
0
 40
0
 40
0
 40
1
 40
1
 40
1
 40
1
 10
0.869257
 20
5.900632
 30
0.0
 10
0.891825
 20
5.895865
 30
0.0
 10
0.910774
 20
5.891404
 30
0.0
 10
0.926103
 20
5.887249
 30
0.0
  0
SPLINE
  5
2a4
100
AcDbEntity
  8
Capa_1
 62
7
100
AcDbSpline
 70
8
 71
3
 72
8
 73
4
 74
0
 40
0
 40
0
 40
0
 40
0
 40
1
 40
1
 40
1
 40
1
 10
0.926103
 20
5.887249
 30
0.0
 10
0.956335
 20
5.878600
 30
0.0
 10
0.979222
 20
5.865727
 30
0.0
 10
0.994764
 20
5.848633
 30
0.0
  0
SPLINE
  5
2a5
100
AcDbEntity
  8
Capa_1
 62
7
100
AcDbSpline
 70
8
 71
3
 72
8
 73
4
 74
0
 40
0
 40
0
 40
0
 40
0
 40
1
 40
1
 40
1
 40
1
 10
0.994764
 20
5.848633
 30
0.0
 10
1.010519
 20
5.831538
 30
0.0
 10
1.018397
 20
5.809982
 30
0.0
 10
1.018397
 20
5.783965
 30
0.0
  0
SPLINE
  5
2a6
100
AcDbEntity
  8
Capa_1
 62
7
100
AcDbSpline
 70
8
 71
3
 72
8
 73
4
 74
0
 40
0
 40
0
 40
0
 40
0
 40
1
 40
1
 40
1
 40
1
 10
1.018397
 20
5.783965
 30
0.0
 10
1.018397
 20
5.762171
 30
0.0
 10
1.013287
 20
5.740513
 30
0.0
 10
1.003068
 20
5.718991
 30
0.0
  0
SPLINE
  5
2a7
100
AcDbEntity
  8
Capa_1
 62
7
100
AcDbSpline
 70
8
 71
3
 72
8
 73
4
 74
0
 40
0
 40
0
 40
0
 40
0
 40
1
 40
1
 40
1
 40
1
 10
1.003068
 20
5.718991
 30
0.0
 10
0.992849
 20
5.697469
 30
0.0
 10
0.978584
 20
5.679012
 30
0.0
 10
0.960274
 20
5.663620
 30
0.0
  0
SPLINE
  5
2a8
100
AcDbEntity
  8
Capa_1
 62
7
100
AcDbSpline
 70
8
 71
3
 72
8
 73
4
 74
0
 40
0
 40
0
 40
0
 40
0
 40
1
 40
1
 40
1
 40
1
 10
0.960274
 20
5.663620
 30
0.0
 10
0.940687
 20
5.647206
 30
0.0
 10
0.917693
 20
5.634334
 30
0.0
 10
0.891293
 20
5.625003
 30
0.0
  0
SPLINE
  5
2a9
100
AcDbEntity
  8
Capa_1
 62
7
100
AcDbSpline
 70
8
 71
3
 72
8
 73
4
 74
0
 40
0
 40
0
 40
0
 40
0
 40
1
 40
1
 40
1
 40
1
 10
0.891293
 20
5.625003
 30
0.0
 10
0.865106
 20
5.615672
 30
0.0
 10
0.834129
 20
5.611007
 30
0.0
 10
0.798361
 20
5.611007
 30
0.0
  0
LWPOLYLINE
  5
2aa
100
AcDbEntity
  8
Capa_1
 62
7
100
AcDbPolyline
 90
3
 70
0
 10
1.057361
 20
6.089017
 30
0.0
 10
1.042989
 20
6.018015
 30
0.0
 10
1.038516
 20
6.018015
 30
0.0
  0
SPLINE
  5
2ab
100
AcDbEntity
  8
Capa_1
 62
7
100
AcDbSpline
 70
8
 71
3
 72
8
 73
4
 74
0
 40
0
 40
0
 40
0
 40
0
 40
1
 40
1
 40
1
 40
1
 10
1.294323
 20
5.610905
 30
0.0
 10
1.234070
 20
5.610905
 30
0.0
 10
1.186806
 20
5.627114
 30
0.0
 10
1.152529
 20
5.659533
 30
0.0
  0
SPLINE
  5
2ac
100
AcDbEntity
  8
Capa_1
 62
7
100
AcDbSpline
 70
8
 71
3
 72
8
 73
4
 74
0
 40
0
 40
0
 40
0
 40
0
 40
1
 40
1
 40
1
 40
1
 10
1.152529
 20
5.659533
 30
0.0
 10
1.118251
 20
5.692225
 30
0.0
 10
1.101113
 20
5.738445
 30
0.0
 10
1.101113
 20
5.798196
 30
0.0
  0
SPLINE
  5
2ad
100
AcDbEntity
  8
Capa_1
 62
7
100
AcDbSpline
 70
8
 71
3
 72
8
 73
4
 74
0
 40
0
 40
0
 40
0
 40
0
 40
1
 40
1
 40
1
 40
1
 10
1.101113
 20
5.798196
 30
0.0
 10
1.101113
 20
5.843964
 30
0.0
 10
1.107713
 20
5.886626
 30
0.0
 10
1.120913
 20
5.926183
 30
0.0
  0
SPLINE
  5
2ae
100
AcDbEntity
  8
Capa_1
 62
7
100
AcDbSpline
 70
8
 71
3
 72
8
 73
4
 74
0
 40
0
 40
0
 40
0
 40
0
 40
1
 40
1
 40
1
 40
1
 10
1.120913
 20
5.926183
 30
0.0
 10
1.134113
 20
5.965753
 30
0.0
 10
1.153061
 20
6.000416
 30
0.0
 10
1.177758
 20
6.030172
 30
0.0
  0
SPLINE
  5
2af
100
AcDbEntity
  8
Capa_1
 62
7
100
AcDbSpline
 70
8
 71
3
 72
8
 73
4
 74
0
 40
0
 40
0
 40
0
 40
0
 40
1
 40
1
 40
1
 40
1
 10
1.177758
 20
6.030172
 30
0.0
 10
1.202241
 20
6.059526
 30
0.0
 10
1.232367
 20
6.082649
 30
0.0
 10
1.268136
 20
6.099539
 30
0.0
  0
SPLINE
  5
2b0
100
AcDbEntity
  8
Capa_1
 62
7
100
AcDbSpline
 70
8
 71
3
 72
8
 73
4
 74
0
 40
0
 40
0
 40
0
 40
0
 40
1
 40
1
 40
1
 40
1
 10
1.268136
 20
6.099539
 30
0.0
 10
1.303904
 20
6.116634
 30
0.0
 10
1.343823
 20
6.125181
 30
0.0
 10
1.387894
 20
6.125181
 30
0.0
  0
SPLINE
  5
2b1
100
AcDbEntity
  8
Capa_1
 62
7
100
AcDbSpline
 70
8
 71
3
 72
8
 73
4
 74
0
 40
0
 40
0
 40
0
 40
0
 40
1
 40
1
 40
1
 40
1
 10
1.387894
 20
6.125181
 30
0.0
 10
1.415359
 20
6.125181
 30
0.0
 10
1.441333
 20
6.121640
 30
0.0
 10
1.465817
 20
6.114557
 30
0.0
  0
SPLINE
  5
2b2
100
AcDbEntity
  8
Capa_1
 62
7
100
AcDbSpline
 70
8
 71
3
 72
8
 73
4
 74
0
 40
0
 40
0
 40
0
 40
0
 40
1
 40
1
 40
1
 40
1
 10
1.465817
 20
6.114557
 30
0.0
 10
1.490300
 20
6.107678
 30
0.0
 10
1.515423
 20
6.096679
 30
0.0
 10
1.541184
 20
6.081559
 30
0.0
  0
LWPOLYLINE
  5
2b3
100
AcDbEntity
  8
Capa_1
 62
7
100
AcDbPolyline
 90
2
 70
0
 10
0.798361
 20
5.611007
 30
0.0
 10
0.798363
 20
5.610905
 30
0.0
  0
SPLINE
  5
2b4
100
AcDbEntity
  8
Capa_1
 62
7
100
AcDbSpline
 70
8
 71
3
 72
8
 73
4
 74
0
 40
0
 40
0
 40
0
 40
0
 40
1
 40
1
 40
1
 40
1
 10
1.522026
 20
6.006879
 30
0.0
 10
1.515001
 20
6.014235
 30
0.0
 10
1.507868
 20
6.021012
 30
0.0
 10
1.500629
 20
6.027209
 30
0.0
  0
SPLINE
  5
2b5
100
AcDbEntity
  8
Capa_1
 62
7
100
AcDbSpline
 70
8
 71
3
 72
8
 73
4
 74
0
 40
0
 40
0
 40
0
 40
0
 40
1
 40
1
 40
1
 40
1
 10
1.500629
 20
6.027209
 30
0.0
 10
1.493604
 20
6.033339
 30
0.0
 10
1.482959
 20
6.040354
 30
0.0
 10
1.468693
 20
6.048254
 30
0.0
  0
SPLINE
  5
2b6
100
AcDbEntity
  8
Capa_1
 62
7
100
AcDbSpline
 70
8
 71
3
 72
8
 73
4
 74
0
 40
0
 40
0
 40
0
 40
0
 40
1
 40
1
 40
1
 40
1
 10
1.468693
 20
6.048254
 30
0.0
 10
1.456984
 20
6.054384
 30
0.0
 10
1.443039
 20
6.059730
 30
0.0
 10
1.426858
 20
6.064294
 30
0.0
  0
SPLINE
  5
2b7
100
AcDbEntity
  8
Capa_1
 62
7
100
AcDbSpline
 70
8
 71
3
 72
8
 73
4
 74
0
 40
0
 40
0
 40
0
 40
0
 40
1
 40
1
 40
1
 40
1
 10
1.426858
 20
6.064294
 30
0.0
 10
1.410678
 20
6.069061
 30
0.0
 10
1.392794
 20
6.071445
 30
0.0
 10
1.373207
 20
6.071445
 30
0.0
  0
SPLINE
  5
2b8
100
AcDbEntity
  8
Capa_1
 62
7
100
AcDbSpline
 70
8
 71
3
 72
8
 73
4
 74
0
 40
0
 40
0
 40
0
 40
0
 40
1
 40
1
 40
1
 40
1
 10
1.373207
 20
6.071445
 30
0.0
 10
1.343400
 20
6.071445
 30
0.0
 10
1.316042
 20
6.064907
 30
0.0
 10
1.291132
 20
6.051830
 30
0.0
  0
SPLINE
  5
2b9
100
AcDbEntity
  8
Capa_1
 62
7
100
AcDbSpline
 70
8
 71
3
 72
8
 73
4
 74
0
 40
0
 40
0
 40
0
 40
0
 40
1
 40
1
 40
1
 40
1
 10
1.291132
 20
6.051830
 30
0.0
 10
1.266222
 20
6.038958
 30
0.0
 10
1.244612
 20
6.020841
 30
0.0
 10
1.226303
 20
5.997481
 30
0.0
  0
SPLINE
  5
2ba
100
AcDbEntity
  8
Capa_1
 62
7
100
AcDbSpline
 70
8
 71
3
 72
8
 73
4
 74
0
 40
0
 40
0
 40
0
 40
0
 40
1
 40
1
 40
1
 40
1
 10
1.226303
 20
5.997481
 30
0.0
 10
1.208419
 20
5.974801
 30
0.0
 10
1.194367
 20
5.947252
 30
0.0
 10
1.184147
 20
5.914833
 30
0.0
  0
SPLINE
  5
2bb
100
AcDbEntity
  8
Capa_1
 62
7
100
AcDbSpline
 70
8
 71
3
 72
8
 73
4
 74
0
 40
0
 40
0
 40
0
 40
0
 40
1
 40
1
 40
1
 40
1
 10
1.184147
 20
5.914833
 30
0.0
 10
1.173928
 20
5.882414
 30
0.0
 10
1.168819
 20
5.847863
 30
0.0
 10
1.168819
 20
5.811180
 30
0.0
  0
SPLINE
  5
2bc
100
AcDbEntity
  8
Capa_1
 62
7
100
AcDbSpline
 70
8
 71
3
 72
8
 73
4
 74
0
 40
0
 40
0
 40
0
 40
0
 40
1
 40
1
 40
1
 40
1
 10
1.168819
 20
5.811180
 30
0.0
 10
1.168819
 20
5.765412
 30
0.0
 10
1.180209
 20
5.729748
 30
0.0
 10
1.202989
 20
5.704188
 30
0.0
  0
SPLINE
  5
2bd
100
AcDbEntity
  8
Capa_1
 62
7
100
AcDbSpline
 70
8
 71
3
 72
8
 73
4
 74
0
 40
0
 40
0
 40
0
 40
0
 40
1
 40
1
 40
1
 40
1
 10
1.202989
 20
5.704188
 30
0.0
 10
1.225770
 20
5.678852
 30
0.0
 10
1.258663
 20
5.666184
 30
0.0
 10
1.301670
 20
5.666184
 30
0.0
  0
SPLINE
  5
2be
100
AcDbEntity
  8
Capa_1
 62
7
100
AcDbSpline
 70
8
 71
3
 72
8
 73
4
 74
0
 40
0
 40
0
 40
0
 40
0
 40
1
 40
1
 40
1
 40
1
 10
1.301670
 20
5.666184
 30
0.0
 10
1.321896
 20
5.666184
 30
0.0
 10
1.341057
 20
5.668568
 30
0.0
 10
1.359154
 20
5.673335
 30
0.0
  0
SPLINE
  5
2bf
100
AcDbEntity
  8
Capa_1
 62
7
100
AcDbSpline
 70
8
 71
3
 72
8
 73
4
 74
0
 40
0
 40
0
 40
0
 40
0
 40
1
 40
1
 40
1
 40
1
 10
1.359154
 20
5.673335
 30
0.0
 10
1.377464
 20
5.678103
 30
0.0
 10
1.394071
 20
5.684198
 30
0.0
 10
1.408974
 20
5.691622
 30
0.0
  0
SPLINE
  5
2c0
100
AcDbEntity
  8
Capa_1
 62
7
100
AcDbSpline
 70
8
 71
3
 72
8
 73
4
 74
0
 40
0
 40
0
 40
0
 40
0
 40
1
 40
1
 40
1
 40
1
 10
1.408974
 20
5.691622
 30
0.0
 10
1.422813
 20
5.698501
 30
0.0
 10
1.435268
 20
5.705720
 30
0.0
 10
1.446339
 20
5.713280
 30
0.0
  0
SPLINE
  5
2c1
100
AcDbEntity
  8
Capa_1
 62
7
100
AcDbSpline
 70
8
 71
3
 72
8
 73
4
 74
0
 40
0
 40
0
 40
0
 40
0
 40
1
 40
1
 40
1
 40
1
 10
1.446339
 20
5.713280
 30
0.0
 10
1.457409
 20
5.720840
 30
0.0
 10
1.466884
 20
5.727855
 30
0.0
 10
1.474761
 20
5.734325
 30
0.0
  0
LWPOLYLINE
  5
2c2
100
AcDbEntity
  8
Capa_1
 62
7
100
AcDbPolyline
 90
3
 70
0
 10
1.541184
 20
6.081559
 30
0.0
 10
1.526813
 20
6.006879
 30
0.0
 10
1.522026
 20
6.006879
 30
0.0
  0
SPLINE
  5
2c3
100
AcDbEntity
  8
Capa_1
 62
7
100
AcDbSpline
 70
8
 71
3
 72
8
 73
4
 74
0
 40
0
 40
0
 40
0
 40
0
 40
1
 40
1
 40
1
 40
1
 10
1.464225
 20
5.657705
 30
0.0
 10
1.441870
 20
5.645922
 30
0.0
 10
1.416109
 20
5.635263
 30
0.0
 10
1.386941
 20
5.625728
 30
0.0
  0
SPLINE
  5
2c4
100
AcDbEntity
  8
Capa_1
 62
7
100
AcDbSpline
 70
8
 71
3
 72
8
 73
4
 74
0
 40
0
 40
0
 40
0
 40
0
 40
1
 40
1
 40
1
 40
1
 10
1.386941
 20
5.625728
 30
0.0
 10
1.357986
 20
5.616398
 30
0.0
 10
1.327115
 20
5.611732
 30
0.0
 10
1.294328
 20
5.611732
 30
0.0
  0
LWPOLYLINE
  5
2c5
100
AcDbEntity
  8
Capa_1
 62
7
100
AcDbPolyline
 90
3
 70
0
 10
1.474761
 20
5.734325
 30
0.0
 10
1.479235
 20
5.734325
 30
0.0
 10
1.464225
 20
5.657705
 30
0.0
  0
LWPOLYLINE
  5
2c6
100
AcDbEntity
  8
Capa_1
 62
7
100
AcDbPolyline
 90
2
 70
0
 10
1.294328
 20
5.611732
 30
0.0
 10
1.294323
 20
5.610905
 30
0.0
  0
SPLINE
  5
2c7
100
AcDbEntity
  8
Capa_1
 62
7
100
AcDbSpline
 70
8
 71
3
 72
8
 73
4
 74
0
 40
0
 40
0
 40
0
 40
0
 40
1
 40
1
 40
1
 40
1
 10
1.030215
 20
3.904383
 30
0.0
 10
0.999344
 20
3.904383
 30
0.0
 10
0.969964
 20
3.907788
 30
0.0
 10
0.942073
 20
3.914599
 30
0.0
  0
SPLINE
  5
2c8
100
AcDbEntity
  8
Capa_1
 62
7
100
AcDbSpline
 70
8
 71
3
 72
8
 73
4
 74
0
 40
0
 40
0
 40
0
 40
0
 40
1
 40
1
 40
1
 40
1
 10
0.942073
 20
3.914599
 30
0.0
 10
0.914183
 20
3.921478
 30
0.0
 10
0.886825
 20
3.931932
 30
0.0
 10
0.859999
 20
3.945962
 30
0.0
  0
LWPOLYLINE
  5
2c9
100
AcDbEntity
  8
Capa_1
 62
7
100
AcDbPolyline
 90
12
 70
1
 10
1.926328
 20
5.619905
 30
0.0
 10
1.851598
 20
5.619905
 30
0.0
 10
1.705014
 20
5.841553
 30
0.0
 10
1.639866
 20
5.783934
 30
0.0
 10
1.603779
 20
5.619946
 30
0.0
 10
1.539908
 20
5.619946
 30
0.0
 10
1.649766
 20
6.116242
 30
0.0
 10
1.713637
 20
6.116242
 30
0.0
 10
1.656153
 20
5.858593
 30
0.0
 10
1.935589
 20
6.116242
 30
0.0
 10
2.016066
 20
6.116242
 30
0.0
 10
1.755153
 20
5.878586
 30
0.0
  0
SPLINE
  5
2ca
100
AcDbEntity
  8
Capa_1
 62
7
100
AcDbSpline
 70
8
 71
3
 72
8
 73
4
 74
0
 40
0
 40
0
 40
0
 40
0
 40
1
 40
1
 40
1
 40
1
 10
0.879799
 20
4.021663
 30
0.0
 10
0.900238
 20
4.001435
 30
0.0
 10
0.925254
 20
3.985873
 30
0.0
 10
0.954848
 20
3.974976
 30
0.0
  0
SPLINE
  5
2cb
100
AcDbEntity
  8
Capa_1
 62
7
100
AcDbSpline
 70
8
 71
3
 72
8
 73
4
 74
0
 40
0
 40
0
 40
0
 40
0
 40
1
 40
1
 40
1
 40
1
 10
0.954848
 20
3.974976
 30
0.0
 10
0.984654
 20
3.964283
 30
0.0
 10
1.013396
 20
3.958937
 30
0.0
 10
1.041074
 20
3.958937
 30
0.0
  0
SPLINE
  5
2cc
100
AcDbEntity
  8
Capa_1
 62
7
100
AcDbSpline
 70
8
 71
3
 72
8
 73
4
 74
0
 40
0
 40
0
 40
0
 40
0
 40
1
 40
1
 40
1
 40
1
 10
1.041074
 20
3.958937
 30
0.0
 10
1.086422
 20
3.958937
 30
0.0
 10
1.121125
 20
3.968267
 30
0.0
 10
1.145184
 20
3.986929
 30
0.0
  0
SPLINE
  5
2cd
100
AcDbEntity
  8
Capa_1
 62
7
100
AcDbSpline
 70
8
 71
3
 72
8
 73
4
 74
0
 40
0
 40
0
 40
0
 40
0
 40
1
 40
1
 40
1
 40
1
 10
1.145184
 20
3.986929
 30
0.0
 10
1.169455
 20
4.005794
 30
0.0
 10
1.181590
 20
4.029802
 30
0.0
 10
1.181590
 20
4.058952
 30
0.0
  0
SPLINE
  5
2ce
100
AcDbEntity
  8
Capa_1
 62
7
100
AcDbSpline
 70
8
 71
3
 72
8
 73
4
 74
0
 40
0
 40
0
 40
0
 40
0
 40
1
 40
1
 40
1
 40
1
 10
1.181590
 20
4.058952
 30
0.0
 10
1.181590
 20
4.074276
 30
0.0
 10
1.177226
 20
4.087046
 30
0.0
 10
1.168497
 20
4.097262
 30
0.0
  0
SPLINE
  5
2cf
100
AcDbEntity
  8
Capa_1
 62
7
100
AcDbSpline
 70
8
 71
3
 72
8
 73
4
 74
0
 40
0
 40
0
 40
0
 40
0
 40
1
 40
1
 40
1
 40
1
 10
1.168497
 20
4.097262
 30
0.0
 10
1.159981
 20
4.107478
 30
0.0
 10
1.147420
 20
4.115038
 30
0.0
 10
1.130813
 20
4.119942
 30
0.0
  0
SPLINE
  5
2d0
100
AcDbEntity
  8
Capa_1
 62
7
100
AcDbSpline
 70
8
 71
3
 72
8
 73
4
 74
0
 40
0
 40
0
 40
0
 40
0
 40
1
 40
1
 40
1
 40
1
 10
1.130813
 20
4.119942
 30
0.0
 10
1.116974
 20
4.124028
 30
0.0
 10
1.100474
 20
4.127808
 30
0.0
 10
1.081313
 20
4.131282
 30
0.0
  0
SPLINE
  5
2d1
100
AcDbEntity
  8
Capa_1
 62
7
100
AcDbSpline
 70
8
 71
3
 72
8
 73
4
 74
0
 40
0
 40
0
 40
0
 40
0
 40
1
 40
1
 40
1
 40
1
 10
1.081313
 20
4.131282
 30
0.0
 10
1.062364
 20
4.135368
 30
0.0
 10
1.044267
 20
4.139386
 30
0.0
 10
1.027022
 20
4.143337
 30
0.0
  0
SPLINE
  5
2d2
100
AcDbEntity
  8
Capa_1
 62
7
100
AcDbSpline
 70
8
 71
3
 72
8
 73
4
 74
0
 40
0
 40
0
 40
0
 40
0
 40
1
 40
1
 40
1
 40
1
 10
1.027022
 20
4.143337
 30
0.0
 10
0.993596
 20
4.151101
 30
0.0
 10
0.967728
 20
4.164450
 30
0.0
 10
0.949418
 20
4.183383
 30
0.0
  0
SPLINE
  5
2d3
100
AcDbEntity
  8
Capa_1
 62
7
100
AcDbSpline
 70
8
 71
3
 72
8
 73
4
 74
0
 40
0
 40
0
 40
0
 40
0
 40
1
 40
1
 40
1
 40
1
 10
0.949418
 20
4.183383
 30
0.0
 10
0.931109
 20
4.202249
 30
0.0
 10
0.921954
 20
4.225678
 30
0.0
 10
0.921954
 20
4.253670
 30
0.0
  0
SPLINE
  5
2d4
100
AcDbEntity
  8
Capa_1
 62
7
100
AcDbSpline
 70
8
 71
3
 72
8
 73
4
 74
0
 40
0
 40
0
 40
0
 40
0
 40
1
 40
1
 40
1
 40
1
 10
0.921954
 20
4.253670
 30
0.0
 10
0.921954
 20
4.301004
 30
0.0
 10
0.941115
 20
4.340336
 30
0.0
 10
0.979438
 20
4.371666
 30
0.0
  0
SPLINE
  5
2d5
100
AcDbEntity
  8
Capa_1
 62
7
100
AcDbSpline
 70
8
 71
3
 72
8
 73
4
 74
0
 40
0
 40
0
 40
0
 40
0
 40
1
 40
1
 40
1
 40
1
 10
0.979438
 20
4.371666
 30
0.0
 10
1.017973
 20
4.403199
 30
0.0
 10
1.067686
 20
4.418966
 30
0.0
 10
1.128577
 20
4.418966
 30
0.0
  0
SPLINE
  5
2d6
100
AcDbEntity
  8
Capa_1
 62
7
100
AcDbSpline
 70
8
 71
3
 72
8
 73
4
 74
0
 40
0
 40
0
 40
0
 40
0
 40
1
 40
1
 40
1
 40
1
 10
1.128577
 20
4.418966
 30
0.0
 10
1.161790
 20
4.418966
 30
0.0
 10
1.191916
 20
4.415288
 30
0.0
 10
1.218955
 20
4.407933
 30
0.0
  0
SPLINE
  5
2d7
100
AcDbEntity
  8
Capa_1
 62
7
100
AcDbSpline
 70
8
 71
3
 72
8
 73
4
 74
0
 40
0
 40
0
 40
0
 40
0
 40
1
 40
1
 40
1
 40
1
 10
1.218955
 20
4.407933
 30
0.0
 10
1.246207
 20
4.400849
 30
0.0
 10
1.269626
 20
4.392404
 30
0.0
 10
1.289213
 20
4.382597
 30
0.0
  0
LWPOLYLINE
  5
2d8
100
AcDbEntity
  8
Capa_1
 62
7
100
AcDbPolyline
 90
3
 70
0
 10
0.859999
 20
3.945962
 30
0.0
 10
0.875328
 20
4.021663
 30
0.0
 10
0.879799
 20
4.021663
 30
0.0
  0
SPLINE
  5
2d9
100
AcDbEntity
  8
Capa_1
 62
7
100
AcDbSpline
 70
8
 71
3
 72
8
 73
4
 74
0
 40
0
 40
0
 40
0
 40
0
 40
1
 40
1
 40
1
 40
1
 10
1.270368
 20
4.311595
 30
0.0
 10
1.255252
 20
4.326034
 30
0.0
 10
1.233643
 20
4.338463
 30
0.0
 10
1.205539
 20
4.348884
 30
0.0
  0
SPLINE
  5
2da
100
AcDbEntity
  8
Capa_1
 62
7
100
AcDbSpline
 70
8
 71
3
 72
8
 73
4
 74
0
 40
0
 40
0
 40
0
 40
0
 40
1
 40
1
 40
1
 40
1
 10
1.205539
 20
4.348884
 30
0.0
 10
1.177648
 20
4.359304
 30
0.0
 10
1.148268
 20
4.364514
 30
0.0
 10
1.117397
 20
4.364514
 30
0.0
  0
SPLINE
  5
2db
100
AcDbEntity
  8
Capa_1
 62
7
100
AcDbSpline
 70
8
 71
3
 72
8
 73
4
 74
0
 40
0
 40
0
 40
0
 40
0
 40
1
 40
1
 40
1
 40
1
 10
1.117397
 20
4.364514
 30
0.0
 10
1.078648
 20
4.364514
 30
0.0
 10
1.047670
 20
4.355626
 30
0.0
 10
1.024465
 20
4.337850
 30
0.0
  0
SPLINE
  5
2dc
100
AcDbEntity
  8
Capa_1
 62
7
100
AcDbSpline
 70
8
 71
3
 72
8
 73
4
 74
0
 40
0
 40
0
 40
0
 40
0
 40
1
 40
1
 40
1
 40
1
 10
1.024465
 20
4.337850
 30
0.0
 10
1.001471
 20
4.320074
 30
0.0
 10
0.989974
 20
4.297531
 30
0.0
 10
0.989974
 20
4.270220
 30
0.0
  0
SPLINE
  5
2dd
100
AcDbEntity
  8
Capa_1
 62
7
100
AcDbSpline
 70
8
 71
3
 72
8
 73
4
 74
0
 40
0
 40
0
 40
0
 40
0
 40
1
 40
1
 40
1
 40
1
 10
0.989974
 20
4.270220
 30
0.0
 10
0.989974
 20
4.255577
 30
0.0
 10
0.994125
 20
4.242705
 30
0.0
 10
1.002429
 20
4.231603
 30
0.0
  0
SPLINE
  5
2de
100
AcDbEntity
  8
Capa_1
 62
7
100
AcDbSpline
 70
8
 71
3
 72
8
 73
4
 74
0
 40
0
 40
0
 40
0
 40
0
 40
1
 40
1
 40
1
 40
1
 10
1.002429
 20
4.231603
 30
0.0
 10
1.010732
 20
4.220502
 30
0.0
 10
1.025529
 20
4.212159
 30
0.0
 10
1.046820
 20
4.206574
 30
0.0
  0
SPLINE
  5
2df
100
AcDbEntity
  8
Capa_1
 62
7
100
AcDbSpline
 70
8
 71
3
 72
8
 73
4
 74
0
 40
0
 40
0
 40
0
 40
0
 40
1
 40
1
 40
1
 40
1
 10
1.046820
 20
4.206574
 30
0.0
 10
1.060445
 20
4.203169
 30
0.0
 10
1.078542
 20
4.199048
 30
0.0
 10
1.101109
 20
4.194213
 30
0.0
  0
SPLINE
  5
2e0
100
AcDbEntity
  8
Capa_1
 62
7
100
AcDbSpline
 70
8
 71
3
 72
8
 73
4
 74
0
 40
0
 40
0
 40
0
 40
0
 40
1
 40
1
 40
1
 40
1
 10
1.101109
 20
4.194213
 30
0.0
 10
1.123677
 20
4.189445
 30
0.0
 10
1.142626
 20
4.184984
 30
0.0
 10
1.157955
 20
4.180829
 30
0.0
  0
SPLINE
  5
2e1
100
AcDbEntity
  8
Capa_1
 62
7
100
AcDbSpline
 70
8
 71
3
 72
8
 73
4
 74
0
 40
0
 40
0
 40
0
 40
0
 40
1
 40
1
 40
1
 40
1
 10
1.157955
 20
4.180829
 30
0.0
 10
1.188187
 20
4.172180
 30
0.0
 10
1.211075
 20
4.159308
 30
0.0
 10
1.226617
 20
4.142213
 30
0.0
  0
SPLINE
  5
2e2
100
AcDbEntity
  8
Capa_1
 62
7
100
AcDbSpline
 70
8
 71
3
 72
8
 73
4
 74
0
 40
0
 40
0
 40
0
 40
0
 40
1
 40
1
 40
1
 40
1
 10
1.226617
 20
4.142213
 30
0.0
 10
1.242372
 20
4.125118
 30
0.0
 10
1.250249
 20
4.103562
 30
0.0
 10
1.250249
 20
4.077545
 30
0.0
  0
SPLINE
  5
2e3
100
AcDbEntity
  8
Capa_1
 62
7
100
AcDbSpline
 70
8
 71
3
 72
8
 73
4
 74
0
 40
0
 40
0
 40
0
 40
0
 40
1
 40
1
 40
1
 40
1
 10
1.250249
 20
4.077545
 30
0.0
 10
1.250249
 20
4.055751
 30
0.0
 10
1.245140
 20
4.034093
 30
0.0
 10
1.234920
 20
4.012571
 30
0.0
  0
SPLINE
  5
2e4
100
AcDbEntity
  8
Capa_1
 62
7
100
AcDbSpline
 70
8
 71
3
 72
8
 73
4
 74
0
 40
0
 40
0
 40
0
 40
0
 40
1
 40
1
 40
1
 40
1
 10
1.234920
 20
4.012571
 30
0.0
 10
1.224701
 20
3.990981
 30
0.0
 10
1.210437
 20
3.972524
 30
0.0
 10
1.192127
 20
3.957200
 30
0.0
  0
SPLINE
  5
2e5
100
AcDbEntity
  8
Capa_1
 62
7
100
AcDbSpline
 70
8
 71
3
 72
8
 73
4
 74
0
 40
0
 40
0
 40
0
 40
0
 40
1
 40
1
 40
1
 40
1
 10
1.192127
 20
3.957200
 30
0.0
 10
1.172539
 20
3.940786
 30
0.0
 10
1.149546
 20
3.927914
 30
0.0
 10
1.123146
 20
3.918583
 30
0.0
  0
SPLINE
  5
2e6
100
AcDbEntity
  8
Capa_1
 62
7
100
AcDbSpline
 70
8
 71
3
 72
8
 73
4
 74
0
 40
0
 40
0
 40
0
 40
0
 40
1
 40
1
 40
1
 40
1
 10
1.123146
 20
3.918583
 30
0.0
 10
1.096959
 20
3.909252
 30
0.0
 10
1.065982
 20
3.904587
 30
0.0
 10
1.030214
 20
3.904587
 30
0.0
  0
LWPOLYLINE
  5
2e7
100
AcDbEntity
  8
Capa_1
 62
7
100
AcDbPolyline
 90
3
 70
0
 10
1.289213
 20
4.382597
 30
0.0
 10
1.274842
 20
4.311595
 30
0.0
 10
1.270368
 20
4.311595
 30
0.0
  0
SPLINE
  5
2e8
100
AcDbEntity
  8
Capa_1
 62
7
100
AcDbSpline
 70
8
 71
3
 72
8
 73
4
 74
0
 40
0
 40
0
 40
0
 40
0
 40
1
 40
1
 40
1
 40
1
 10
1.477313
 20
3.904383
 30
0.0
 10
1.446442
 20
3.904383
 30
0.0
 10
1.417062
 20
3.907788
 30
0.0
 10
1.389171
 20
3.914599
 30
0.0
  0
SPLINE
  5
2e9
100
AcDbEntity
  8
Capa_1
 62
7
100
AcDbSpline
 70
8
 71
3
 72
8
 73
4
 74
0
 40
0
 40
0
 40
0
 40
0
 40
1
 40
1
 40
1
 40
1
 10
1.389171
 20
3.914599
 30
0.0
 10
1.361281
 20
3.921478
 30
0.0
 10
1.333923
 20
3.931932
 30
0.0
 10
1.307096
 20
3.945962
 30
0.0
  0
LWPOLYLINE
  5
2ea
100
AcDbEntity
  8
Capa_1
 62
7
100
AcDbPolyline
 90
2
 70
0
 10
1.030214
 20
3.904587
 30
0.0
 10
1.030215
 20
3.904383
 30
0.0
  0
SPLINE
  5
2eb
100
AcDbEntity
  8
Capa_1
 62
7
100
AcDbSpline
 70
8
 71
3
 72
8
 73
4
 74
0
 40
0
 40
0
 40
0
 40
0
 40
1
 40
1
 40
1
 40
1
 10
1.326898
 20
4.021663
 30
0.0
 10
1.347337
 20
4.001435
 30
0.0
 10
1.372353
 20
3.985873
 30
0.0
 10
1.401947
 20
3.974976
 30
0.0
  0
SPLINE
  5
2ec
100
AcDbEntity
  8
Capa_1
 62
7
100
AcDbSpline
 70
8
 71
3
 72
8
 73
4
 74
0
 40
0
 40
0
 40
0
 40
0
 40
1
 40
1
 40
1
 40
1
 10
1.401947
 20
3.974976
 30
0.0
 10
1.431754
 20
3.964283
 30
0.0
 10
1.460496
 20
3.958937
 30
0.0
 10
1.488173
 20
3.958937
 30
0.0
  0
SPLINE
  5
2ed
100
AcDbEntity
  8
Capa_1
 62
7
100
AcDbSpline
 70
8
 71
3
 72
8
 73
4
 74
0
 40
0
 40
0
 40
0
 40
0
 40
1
 40
1
 40
1
 40
1
 10
1.488173
 20
3.958937
 30
0.0
 10
1.533521
 20
3.958937
 30
0.0
 10
1.568224
 20
3.968267
 30
0.0
 10
1.592283
 20
3.986929
 30
0.0
  0
SPLINE
  5
2ee
100
AcDbEntity
  8
Capa_1
 62
7
100
AcDbSpline
 70
8
 71
3
 72
8
 73
4
 74
0
 40
0
 40
0
 40
0
 40
0
 40
1
 40
1
 40
1
 40
1
 10
1.592283
 20
3.986929
 30
0.0
 10
1.616554
 20
4.005794
 30
0.0
 10
1.628689
 20
4.029802
 30
0.0
 10
1.628689
 20
4.058952
 30
0.0
  0
SPLINE
  5
2ef
100
AcDbEntity
  8
Capa_1
 62
7
100
AcDbSpline
 70
8
 71
3
 72
8
 73
4
 74
0
 40
0
 40
0
 40
0
 40
0
 40
1
 40
1
 40
1
 40
1
 10
1.628689
 20
4.058952
 30
0.0
 10
1.628689
 20
4.074276
 30
0.0
 10
1.624325
 20
4.087046
 30
0.0
 10
1.615596
 20
4.097262
 30
0.0
  0
SPLINE
  5
2f0
100
AcDbEntity
  8
Capa_1
 62
7
100
AcDbSpline
 70
8
 71
3
 72
8
 73
4
 74
0
 40
0
 40
0
 40
0
 40
0
 40
1
 40
1
 40
1
 40
1
 10
1.615596
 20
4.097262
 30
0.0
 10
1.607080
 20
4.107478
 30
0.0
 10
1.594519
 20
4.115038
 30
0.0
 10
1.577912
 20
4.119942
 30
0.0
  0
SPLINE
  5
2f1
100
AcDbEntity
  8
Capa_1
 62
7
100
AcDbSpline
 70
8
 71
3
 72
8
 73
4
 74
0
 40
0
 40
0
 40
0
 40
0
 40
1
 40
1
 40
1
 40
1
 10
1.577912
 20
4.119942
 30
0.0
 10
1.564073
 20
4.124028
 30
0.0
 10
1.547573
 20
4.127808
 30
0.0
 10
1.528412
 20
4.131282
 30
0.0
  0
SPLINE
  5
2f2
100
AcDbEntity
  8
Capa_1
 62
7
100
AcDbSpline
 70
8
 71
3
 72
8
 73
4
 74
0
 40
0
 40
0
 40
0
 40
0
 40
1
 40
1
 40
1
 40
1
 10
1.528412
 20
4.131282
 30
0.0
 10
1.509463
 20
4.135368
 30
0.0
 10
1.491367
 20
4.139386
 30
0.0
 10
1.474122
 20
4.143337
 30
0.0
  0
SPLINE
  5
2f3
100
AcDbEntity
  8
Capa_1
 62
7
100
AcDbSpline
 70
8
 71
3
 72
8
 73
4
 74
0
 40
0
 40
0
 40
0
 40
0
 40
1
 40
1
 40
1
 40
1
 10
1.474122
 20
4.143337
 30
0.0
 10
1.440696
 20
4.151101
 30
0.0
 10
1.414828
 20
4.164450
 30
0.0
 10
1.396519
 20
4.183383
 30
0.0
  0
SPLINE
  5
2f4
100
AcDbEntity
  8
Capa_1
 62
7
100
AcDbSpline
 70
8
 71
3
 72
8
 73
4
 74
0
 40
0
 40
0
 40
0
 40
0
 40
1
 40
1
 40
1
 40
1
 10
1.396519
 20
4.183383
 30
0.0
 10
1.378209
 20
4.202249
 30
0.0
 10
1.369054
 20
4.225678
 30
0.0
 10
1.369054
 20
4.253670
 30
0.0
  0
SPLINE
  5
2f5
100
AcDbEntity
  8
Capa_1
 62
7
100
AcDbSpline
 70
8
 71
3
 72
8
 73
4
 74
0
 40
0
 40
0
 40
0
 40
0
 40
1
 40
1
 40
1
 40
1
 10
1.369054
 20
4.253670
 30
0.0
 10
1.369054
 20
4.301004
 30
0.0
 10
1.388215
 20
4.340336
 30
0.0
 10
1.426538
 20
4.371666
 30
0.0
  0
SPLINE
  5
2f6
100
AcDbEntity
  8
Capa_1
 62
7
100
AcDbSpline
 70
8
 71
3
 72
8
 73
4
 74
0
 40
0
 40
0
 40
0
 40
0
 40
1
 40
1
 40
1
 40
1
 10
1.426538
 20
4.371666
 30
0.0
 10
1.465073
 20
4.403199
 30
0.0
 10
1.514787
 20
4.418966
 30
0.0
 10
1.575677
 20
4.418966
 30
0.0
  0
SPLINE
  5
2f7
100
AcDbEntity
  8
Capa_1
 62
7
100
AcDbSpline
 70
8
 71
3
 72
8
 73
4
 74
0
 40
0
 40
0
 40
0
 40
0
 40
1
 40
1
 40
1
 40
1
 10
1.575677
 20
4.418966
 30
0.0
 10
1.608890
 20
4.418966
 30
0.0
 10
1.639016
 20
4.415288
 30
0.0
 10
1.666055
 20
4.407933
 30
0.0
  0
SPLINE
  5
2f8
100
AcDbEntity
  8
Capa_1
 62
7
100
AcDbSpline
 70
8
 71
3
 72
8
 73
4
 74
0
 40
0
 40
0
 40
0
 40
0
 40
1
 40
1
 40
1
 40
1
 10
1.666055
 20
4.407933
 30
0.0
 10
1.693306
 20
4.400849
 30
0.0
 10
1.716726
 20
4.392404
 30
0.0
 10
1.736313
 20
4.382597
 30
0.0
  0
LWPOLYLINE
  5
2f9
100
AcDbEntity
  8
Capa_1
 62
7
100
AcDbPolyline
 90
3
 70
0
 10
1.307096
 20
3.945962
 30
0.0
 10
1.322425
 20
4.021663
 30
0.0
 10
1.326898
 20
4.021663
 30
0.0
  0
SPLINE
  5
2fa
100
AcDbEntity
  8
Capa_1
 62
7
100
AcDbSpline
 70
8
 71
3
 72
8
 73
4
 74
0
 40
0
 40
0
 40
0
 40
0
 40
1
 40
1
 40
1
 40
1
 10
1.717468
 20
4.311595
 30
0.0
 10
1.702352
 20
4.326034
 30
0.0
 10
1.680742
 20
4.338463
 30
0.0
 10
1.652638
 20
4.348884
 30
0.0
  0
SPLINE
  5
2fb
100
AcDbEntity
  8
Capa_1
 62
7
100
AcDbSpline
 70
8
 71
3
 72
8
 73
4
 74
0
 40
0
 40
0
 40
0
 40
0
 40
1
 40
1
 40
1
 40
1
 10
1.652638
 20
4.348884
 30
0.0
 10
1.624748
 20
4.359304
 30
0.0
 10
1.595367
 20
4.364514
 30
0.0
 10
1.564496
 20
4.364514
 30
0.0
  0
SPLINE
  5
2fc
100
AcDbEntity
  8
Capa_1
 62
7
100
AcDbSpline
 70
8
 71
3
 72
8
 73
4
 74
0
 40
0
 40
0
 40
0
 40
0
 40
1
 40
1
 40
1
 40
1
 10
1.564496
 20
4.364514
 30
0.0
 10
1.525747
 20
4.364514
 30
0.0
 10
1.494769
 20
4.355626
 30
0.0
 10
1.471563
 20
4.337850
 30
0.0
  0
SPLINE
  5
2fd
100
AcDbEntity
  8
Capa_1
 62
7
100
AcDbSpline
 70
8
 71
3
 72
8
 73
4
 74
0
 40
0
 40
0
 40
0
 40
0
 40
1
 40
1
 40
1
 40
1
 10
1.471563
 20
4.337850
 30
0.0
 10
1.448569
 20
4.320074
 30
0.0
 10
1.437072
 20
4.297531
 30
0.0
 10
1.437072
 20
4.270220
 30
0.0
  0
SPLINE
  5
2fe
100
AcDbEntity
  8
Capa_1
 62
7
100
AcDbSpline
 70
8
 71
3
 72
8
 73
4
 74
0
 40
0
 40
0
 40
0
 40
0
 40
1
 40
1
 40
1
 40
1
 10
1.437072
 20
4.270220
 30
0.0
 10
1.437072
 20
4.255577
 30
0.0
 10
1.441224
 20
4.242705
 30
0.0
 10
1.449527
 20
4.231603
 30
0.0
  0
SPLINE
  5
2ff
100
AcDbEntity
  8
Capa_1
 62
7
100
AcDbSpline
 70
8
 71
3
 72
8
 73
4
 74
0
 40
0
 40
0
 40
0
 40
0
 40
1
 40
1
 40
1
 40
1
 10
1.449527
 20
4.231603
 30
0.0
 10
1.457830
 20
4.220502
 30
0.0
 10
1.472627
 20
4.212159
 30
0.0
 10
1.493918
 20
4.206574
 30
0.0
  0
SPLINE
  5
300
100
AcDbEntity
  8
Capa_1
 62
7
100
AcDbSpline
 70
8
 71
3
 72
8
 73
4
 74
0
 40
0
 40
0
 40
0
 40
0
 40
1
 40
1
 40
1
 40
1
 10
1.493918
 20
4.206574
 30
0.0
 10
1.507543
 20
4.203169
 30
0.0
 10
1.525640
 20
4.199048
 30
0.0
 10
1.548208
 20
4.194213
 30
0.0
  0
SPLINE
  5
301
100
AcDbEntity
  8
Capa_1
 62
7
100
AcDbSpline
 70
8
 71
3
 72
8
 73
4
 74
0
 40
0
 40
0
 40
0
 40
0
 40
1
 40
1
 40
1
 40
1
 10
1.548208
 20
4.194213
 30
0.0
 10
1.570776
 20
4.189445
 30
0.0
 10
1.589724
 20
4.184984
 30
0.0
 10
1.605054
 20
4.180829
 30
0.0
  0
SPLINE
  5
302
100
AcDbEntity
  8
Capa_1
 62
7
100
AcDbSpline
 70
8
 71
3
 72
8
 73
4
 74
0
 40
0
 40
0
 40
0
 40
0
 40
1
 40
1
 40
1
 40
1
 10
1.605054
 20
4.180829
 30
0.0
 10
1.635286
 20
4.172180
 30
0.0
 10
1.658173
 20
4.159308
 30
0.0
 10
1.673715
 20
4.142213
 30
0.0
  0
SPLINE
  5
303
100
AcDbEntity
  8
Capa_1
 62
7
100
AcDbSpline
 70
8
 71
3
 72
8
 73
4
 74
0
 40
0
 40
0
 40
0
 40
0
 40
1
 40
1
 40
1
 40
1
 10
1.673715
 20
4.142213
 30
0.0
 10
1.689470
 20
4.125118
 30
0.0
 10
1.697347
 20
4.103562
 30
0.0
 10
1.697347
 20
4.077545
 30
0.0
  0
SPLINE
  5
304
100
AcDbEntity
  8
Capa_1
 62
7
100
AcDbSpline
 70
8
 71
3
 72
8
 73
4
 74
0
 40
0
 40
0
 40
0
 40
0
 40
1
 40
1
 40
1
 40
1
 10
1.697347
 20
4.077545
 30
0.0
 10
1.697347
 20
4.055751
 30
0.0
 10
1.692238
 20
4.034093
 30
0.0
 10
1.682019
 20
4.012571
 30
0.0
  0
SPLINE
  5
305
100
AcDbEntity
  8
Capa_1
 62
7
100
AcDbSpline
 70
8
 71
3
 72
8
 73
4
 74
0
 40
0
 40
0
 40
0
 40
0
 40
1
 40
1
 40
1
 40
1
 10
1.682019
 20
4.012571
 30
0.0
 10
1.671799
 20
3.990981
 30
0.0
 10
1.657535
 20
3.972524
 30
0.0
 10
1.639225
 20
3.957200
 30
0.0
  0
SPLINE
  5
306
100
AcDbEntity
  8
Capa_1
 62
7
100
AcDbSpline
 70
8
 71
3
 72
8
 73
4
 74
0
 40
0
 40
0
 40
0
 40
0
 40
1
 40
1
 40
1
 40
1
 10
1.639225
 20
3.957200
 30
0.0
 10
1.619638
 20
3.940786
 30
0.0
 10
1.596644
 20
3.927914
 30
0.0
 10
1.570245
 20
3.918583
 30
0.0
  0
SPLINE
  5
307
100
AcDbEntity
  8
Capa_1
 62
7
100
AcDbSpline
 70
8
 71
3
 72
8
 73
4
 74
0
 40
0
 40
0
 40
0
 40
0
 40
1
 40
1
 40
1
 40
1
 10
1.570245
 20
3.918583
 30
0.0
 10
1.544057
 20
3.909252
 30
0.0
 10
1.513079
 20
3.904587
 30
0.0
 10
1.477312
 20
3.904587
 30
0.0
  0
LWPOLYLINE
  5
308
100
AcDbEntity
  8
Capa_1
 62
7
100
AcDbPolyline
 90
3
 70
0
 10
1.736313
 20
4.382597
 30
0.0
 10
1.721941
 20
4.311595
 30
0.0
 10
1.717468
 20
4.311595
 30
0.0
  0
SPLINE
  5
309
100
AcDbEntity
  8
Capa_1
 62
7
100
AcDbSpline
 70
8
 71
3
 72
8
 73
4
 74
0
 40
0
 40
0
 40
0
 40
0
 40
1
 40
1
 40
1
 40
1
 10
0.843073
 20
2.197861
 30
0.0
 10
0.812202
 20
2.197861
 30
0.0
 10
0.782821
 20
2.201266
 30
0.0
 10
0.754931
 20
2.208077
 30
0.0
  0
SPLINE
  5
30a
100
AcDbEntity
  8
Capa_1
 62
7
100
AcDbSpline
 70
8
 71
3
 72
8
 73
4
 74
0
 40
0
 40
0
 40
0
 40
0
 40
1
 40
1
 40
1
 40
1
 10
0.754931
 20
2.208077
 30
0.0
 10
0.727040
 20
2.214956
 30
0.0
 10
0.699682
 20
2.225410
 30
0.0
 10
0.672856
 20
2.239440
 30
0.0
  0
LWPOLYLINE
  5
30b
100
AcDbEntity
  8
Capa_1
 62
7
100
AcDbPolyline
 90
2
 70
0
 10
1.477312
 20
3.904587
 30
0.0
 10
1.477313
 20
3.904383
 30
0.0
  0
SPLINE
  5
30c
100
AcDbEntity
  8
Capa_1
 62
7
100
AcDbSpline
 70
8
 71
3
 72
8
 73
4
 74
0
 40
0
 40
0
 40
0
 40
0
 40
1
 40
1
 40
1
 40
1
 10
0.692657
 20
2.315141
 30
0.0
 10
0.713095
 20
2.294913
 30
0.0
 10
0.738112
 20
2.279351
 30
0.0
 10
0.767705
 20
2.268454
 30
0.0
  0
SPLINE
  5
30d
100
AcDbEntity
  8
Capa_1
 62
7
100
AcDbSpline
 70
8
 71
3
 72
8
 73
4
 74
0
 40
0
 40
0
 40
0
 40
0
 40
1
 40
1
 40
1
 40
1
 10
0.767705
 20
2.268454
 30
0.0
 10
0.797512
 20
2.257761
 30
0.0
 10
0.826254
 20
2.252415
 30
0.0
 10
0.853931
 20
2.252415
 30
0.0
  0
SPLINE
  5
30e
100
AcDbEntity
  8
Capa_1
 62
7
100
AcDbSpline
 70
8
 71
3
 72
8
 73
4
 74
0
 40
0
 40
0
 40
0
 40
0
 40
1
 40
1
 40
1
 40
1
 10
0.853931
 20
2.252415
 30
0.0
 10
0.899280
 20
2.252415
 30
0.0
 10
0.933983
 20
2.261745
 30
0.0
 10
0.958041
 20
2.280407
 30
0.0
  0
SPLINE
  5
30f
100
AcDbEntity
  8
Capa_1
 62
7
100
AcDbSpline
 70
8
 71
3
 72
8
 73
4
 74
0
 40
0
 40
0
 40
0
 40
0
 40
1
 40
1
 40
1
 40
1
 10
0.958041
 20
2.280407
 30
0.0
 10
0.982312
 20
2.299272
 30
0.0
 10
0.994448
 20
2.323280
 30
0.0
 10
0.994448
 20
2.352430
 30
0.0
  0
SPLINE
  5
310
100
AcDbEntity
  8
Capa_1
 62
7
100
AcDbSpline
 70
8
 71
3
 72
8
 73
4
 74
0
 40
0
 40
0
 40
0
 40
0
 40
1
 40
1
 40
1
 40
1
 10
0.994448
 20
2.352430
 30
0.0
 10
0.994448
 20
2.367754
 30
0.0
 10
0.990083
 20
2.380524
 30
0.0
 10
0.981354
 20
2.390740
 30
0.0
  0
SPLINE
  5
311
100
AcDbEntity
  8
Capa_1
 62
7
100
AcDbSpline
 70
8
 71
3
 72
8
 73
4
 74
0
 40
0
 40
0
 40
0
 40
0
 40
1
 40
1
 40
1
 40
1
 10
0.981354
 20
2.390740
 30
0.0
 10
0.972838
 20
2.400956
 30
0.0
 10
0.960276
 20
2.408516
 30
0.0
 10
0.943670
 20
2.413420
 30
0.0
  0
SPLINE
  5
312
100
AcDbEntity
  8
Capa_1
 62
7
100
AcDbSpline
 70
8
 71
3
 72
8
 73
4
 74
0
 40
0
 40
0
 40
0
 40
0
 40
1
 40
1
 40
1
 40
1
 10
0.943670
 20
2.413420
 30
0.0
 10
0.929831
 20
2.417506
 30
0.0
 10
0.913331
 20
2.421286
 30
0.0
 10
0.894170
 20
2.424760
 30
0.0
  0
SPLINE
  5
313
100
AcDbEntity
  8
Capa_1
 62
7
100
AcDbSpline
 70
8
 71
3
 72
8
 73
4
 74
0
 40
0
 40
0
 40
0
 40
0
 40
1
 40
1
 40
1
 40
1
 10
0.894170
 20
2.424760
 30
0.0
 10
0.875221
 20
2.428846
 30
0.0
 10
0.857124
 20
2.432864
 30
0.0
 10
0.839879
 20
2.436815
 30
0.0
  0
SPLINE
  5
314
100
AcDbEntity
  8
Capa_1
 62
7
100
AcDbSpline
 70
8
 71
3
 72
8
 73
4
 74
0
 40
0
 40
0
 40
0
 40
0
 40
1
 40
1
 40
1
 40
1
 10
0.839879
 20
2.436815
 30
0.0
 10
0.806453
 20
2.444579
 30
0.0
 10
0.780585
 20
2.457928
 30
0.0
 10
0.762276
 20
2.476861
 30
0.0
  0
SPLINE
  5
315
100
AcDbEntity
  8
Capa_1
 62
7
100
AcDbSpline
 70
8
 71
3
 72
8
 73
4
 74
0
 40
0
 40
0
 40
0
 40
0
 40
1
 40
1
 40
1
 40
1
 10
0.762276
 20
2.476861
 30
0.0
 10
0.743966
 20
2.495727
 30
0.0
 10
0.734811
 20
2.519156
 30
0.0
 10
0.734811
 20
2.547148
 30
0.0
  0
SPLINE
  5
316
100
AcDbEntity
  8
Capa_1
 62
7
100
AcDbSpline
 70
8
 71
3
 72
8
 73
4
 74
0
 40
0
 40
0
 40
0
 40
0
 40
1
 40
1
 40
1
 40
1
 10
0.734811
 20
2.547148
 30
0.0
 10
0.734811
 20
2.594482
 30
0.0
 10
0.753972
 20
2.633811
 30
0.0
 10
0.792295
 20
2.665133
 30
0.0
  0
SPLINE
  5
317
100
AcDbEntity
  8
Capa_1
 62
7
100
AcDbSpline
 70
8
 71
3
 72
8
 73
4
 74
0
 40
0
 40
0
 40
0
 40
0
 40
1
 40
1
 40
1
 40
1
 10
0.792295
 20
2.665133
 30
0.0
 10
0.830831
 20
2.696667
 30
0.0
 10
0.880544
 20
2.712434
 30
0.0
 10
0.941434
 20
2.712434
 30
0.0
  0
SPLINE
  5
318
100
AcDbEntity
  8
Capa_1
 62
7
100
AcDbSpline
 70
8
 71
3
 72
8
 73
4
 74
0
 40
0
 40
0
 40
0
 40
0
 40
1
 40
1
 40
1
 40
1
 10
0.941434
 20
2.712434
 30
0.0
 10
0.974647
 20
2.712434
 30
0.0
 10
1.004773
 20
2.708756
 30
0.0
 10
1.031812
 20
2.701400
 30
0.0
  0
SPLINE
  5
319
100
AcDbEntity
  8
Capa_1
 62
7
100
AcDbSpline
 70
8
 71
3
 72
8
 73
4
 74
0
 40
0
 40
0
 40
0
 40
0
 40
1
 40
1
 40
1
 40
1
 10
1.031812
 20
2.701400
 30
0.0
 10
1.059064
 20
2.694317
 30
0.0
 10
1.082483
 20
2.685872
 30
0.0
 10
1.102070
 20
2.676065
 30
0.0
  0
LWPOLYLINE
  5
31a
100
AcDbEntity
  8
Capa_1
 62
7
100
AcDbPolyline
 90
3
 70
0
 10
0.672856
 20
2.239440
 30
0.0
 10
0.688185
 20
2.315141
 30
0.0
 10
0.692657
 20
2.315141
 30
0.0
  0
SPLINE
  5
31b
100
AcDbEntity
  8
Capa_1
 62
7
100
AcDbSpline
 70
8
 71
3
 72
8
 73
4
 74
0
 40
0
 40
0
 40
0
 40
0
 40
1
 40
1
 40
1
 40
1
 10
1.083225
 20
2.605063
 30
0.0
 10
1.068109
 20
2.619502
 30
0.0
 10
1.046499
 20
2.631931
 30
0.0
 10
1.018396
 20
2.642352
 30
0.0
  0
SPLINE
  5
31c
100
AcDbEntity
  8
Capa_1
 62
7
100
AcDbSpline
 70
8
 71
3
 72
8
 73
4
 74
0
 40
0
 40
0
 40
0
 40
0
 40
1
 40
1
 40
1
 40
1
 10
1.018396
 20
2.642352
 30
0.0
 10
0.990505
 20
2.652772
 30
0.0
 10
0.961125
 20
2.657982
 30
0.0
 10
0.930254
 20
2.657982
 30
0.0
  0
SPLINE
  5
31d
100
AcDbEntity
  8
Capa_1
 62
7
100
AcDbSpline
 70
8
 71
3
 72
8
 73
4
 74
0
 40
0
 40
0
 40
0
 40
0
 40
1
 40
1
 40
1
 40
1
 10
0.930254
 20
2.657982
 30
0.0
 10
0.891505
 20
2.657982
 30
0.0
 10
0.860528
 20
2.649094
 30
0.0
 10
0.837321
 20
2.631318
 30
0.0
  0
SPLINE
  5
31e
100
AcDbEntity
  8
Capa_1
 62
7
100
AcDbSpline
 70
8
 71
3
 72
8
 73
4
 74
0
 40
0
 40
0
 40
0
 40
0
 40
1
 40
1
 40
1
 40
1
 10
0.837321
 20
2.631318
 30
0.0
 10
0.814328
 20
2.613542
 30
0.0
 10
0.802831
 20
2.590999
 30
0.0
 10
0.802831
 20
2.563688
 30
0.0
  0
SPLINE
  5
31f
100
AcDbEntity
  8
Capa_1
 62
7
100
AcDbSpline
 70
8
 71
3
 72
8
 73
4
 74
0
 40
0
 40
0
 40
0
 40
0
 40
1
 40
1
 40
1
 40
1
 10
0.802831
 20
2.563688
 30
0.0
 10
0.802831
 20
2.549045
 30
0.0
 10
0.806982
 20
2.536173
 30
0.0
 10
0.815286
 20
2.525071
 30
0.0
  0
SPLINE
  5
320
100
AcDbEntity
  8
Capa_1
 62
7
100
AcDbSpline
 70
8
 71
3
 72
8
 73
4
 74
0
 40
0
 40
0
 40
0
 40
0
 40
1
 40
1
 40
1
 40
1
 10
0.815286
 20
2.525071
 30
0.0
 10
0.823589
 20
2.513970
 30
0.0
 10
0.838386
 20
2.505627
 30
0.0
 10
0.859676
 20
2.500042
 30
0.0
  0
SPLINE
  5
321
100
AcDbEntity
  8
Capa_1
 62
7
100
AcDbSpline
 70
8
 71
3
 72
8
 73
4
 74
0
 40
0
 40
0
 40
0
 40
0
 40
1
 40
1
 40
1
 40
1
 10
0.859676
 20
2.500042
 30
0.0
 10
0.873302
 20
2.496636
 30
0.0
 10
0.891399
 20
2.492516
 30
0.0
 10
0.913967
 20
2.487680
 30
0.0
  0
SPLINE
  5
322
100
AcDbEntity
  8
Capa_1
 62
7
100
AcDbSpline
 70
8
 71
3
 72
8
 73
4
 74
0
 40
0
 40
0
 40
0
 40
0
 40
1
 40
1
 40
1
 40
1
 10
0.913967
 20
2.487680
 30
0.0
 10
0.936534
 20
2.482913
 30
0.0
 10
0.955483
 20
2.478486
 30
0.0
 10
0.970812
 20
2.474399
 30
0.0
  0
SPLINE
  5
323
100
AcDbEntity
  8
Capa_1
 62
7
100
AcDbSpline
 70
8
 71
3
 72
8
 73
4
 74
0
 40
0
 40
0
 40
0
 40
0
 40
1
 40
1
 40
1
 40
1
 10
0.970812
 20
2.474399
 30
0.0
 10
1.001044
 20
2.465750
 30
0.0
 10
1.023931
 20
2.452878
 30
0.0
 10
1.039473
 20
2.435783
 30
0.0
  0
SPLINE
  5
324
100
AcDbEntity
  8
Capa_1
 62
7
100
AcDbSpline
 70
8
 71
3
 72
8
 73
4
 74
0
 40
0
 40
0
 40
0
 40
0
 40
1
 40
1
 40
1
 40
1
 10
1.039473
 20
2.435783
 30
0.0
 10
1.055228
 20
2.418688
 30
0.0
 10
1.063106
 20
2.397132
 30
0.0
 10
1.063106
 20
2.371115
 30
0.0
  0
SPLINE
  5
325
100
AcDbEntity
  8
Capa_1
 62
7
100
AcDbSpline
 70
8
 71
3
 72
8
 73
4
 74
0
 40
0
 40
0
 40
0
 40
0
 40
1
 40
1
 40
1
 40
1
 10
1.063106
 20
2.371115
 30
0.0
 10
1.063106
 20
2.349321
 30
0.0
 10
1.057996
 20
2.327663
 30
0.0
 10
1.047777
 20
2.306141
 30
0.0
  0
SPLINE
  5
326
100
AcDbEntity
  8
Capa_1
 62
7
100
AcDbSpline
 70
8
 71
3
 72
8
 73
4
 74
0
 40
0
 40
0
 40
0
 40
0
 40
1
 40
1
 40
1
 40
1
 10
1.047777
 20
2.306141
 30
0.0
 10
1.037558
 20
2.284551
 30
0.0
 10
1.023293
 20
2.266094
 30
0.0
 10
1.004984
 20
2.250770
 30
0.0
  0
SPLINE
  5
327
100
AcDbEntity
  8
Capa_1
 62
7
100
AcDbSpline
 70
8
 71
3
 72
8
 73
4
 74
0
 40
0
 40
0
 40
0
 40
0
 40
1
 40
1
 40
1
 40
1
 10
1.004984
 20
2.250770
 30
0.0
 10
0.985396
 20
2.234356
 30
0.0
 10
0.962403
 20
2.221484
 30
0.0
 10
0.936003
 20
2.212153
 30
0.0
  0
SPLINE
  5
328
100
AcDbEntity
  8
Capa_1
 62
7
100
AcDbSpline
 70
8
 71
3
 72
8
 73
4
 74
0
 40
0
 40
0
 40
0
 40
0
 40
1
 40
1
 40
1
 40
1
 10
0.936003
 20
2.212153
 30
0.0
 10
0.909816
 20
2.202822
 30
0.0
 10
0.878838
 20
2.198157
 30
0.0
 10
0.843070
 20
2.198157
 30
0.0
  0
LWPOLYLINE
  5
329
100
AcDbEntity
  8
Capa_1
 62
7
100
AcDbPolyline
 90
3
 70
0
 10
1.102070
 20
2.676065
 30
0.0
 10
1.087698
 20
2.605063
 30
0.0
 10
1.083225
 20
2.605063
 30
0.0
  0
SPLINE
  5
32a
100
AcDbEntity
  8
Capa_1
 62
7
100
AcDbSpline
 70
8
 71
3
 72
8
 73
4
 74
0
 40
0
 40
0
 40
0
 40
0
 40
1
 40
1
 40
1
 40
1
 10
1.339032
 20
2.197861
 30
0.0
 10
1.278781
 20
2.197861
 30
0.0
 10
1.231516
 20
2.214070
 30
0.0
 10
1.197238
 20
2.246489
 30
0.0
  0
SPLINE
  5
32b
100
AcDbEntity
  8
Capa_1
 62
7
100
AcDbSpline
 70
8
 71
3
 72
8
 73
4
 74
0
 40
0
 40
0
 40
0
 40
0
 40
1
 40
1
 40
1
 40
1
 10
1.197238
 20
2.246489
 30
0.0
 10
1.162961
 20
2.279181
 30
0.0
 10
1.145822
 20
2.325402
 30
0.0
 10
1.145822
 20
2.385152
 30
0.0
  0
SPLINE
  5
32c
100
AcDbEntity
  8
Capa_1
 62
7
100
AcDbSpline
 70
8
 71
3
 72
8
 73
4
 74
0
 40
0
 40
0
 40
0
 40
0
 40
1
 40
1
 40
1
 40
1
 10
1.145822
 20
2.385152
 30
0.0
 10
1.145822
 20
2.430920
 30
0.0
 10
1.152422
 20
2.473582
 30
0.0
 10
1.165623
 20
2.513139
 30
0.0
  0
SPLINE
  5
32d
100
AcDbEntity
  8
Capa_1
 62
7
100
AcDbSpline
 70
8
 71
3
 72
8
 73
4
 74
0
 40
0
 40
0
 40
0
 40
0
 40
1
 40
1
 40
1
 40
1
 10
1.165623
 20
2.513139
 30
0.0
 10
1.178823
 20
2.552709
 30
0.0
 10
1.197771
 20
2.587372
 30
0.0
 10
1.222468
 20
2.617128
 30
0.0
  0
SPLINE
  5
32e
100
AcDbEntity
  8
Capa_1
 62
7
100
AcDbSpline
 70
8
 71
3
 72
8
 73
4
 74
0
 40
0
 40
0
 40
0
 40
0
 40
1
 40
1
 40
1
 40
1
 10
1.222468
 20
2.617128
 30
0.0
 10
1.246952
 20
2.646482
 30
0.0
 10
1.277078
 20
2.669605
 30
0.0
 10
1.312846
 20
2.686495
 30
0.0
  0
SPLINE
  5
32f
100
AcDbEntity
  8
Capa_1
 62
7
100
AcDbSpline
 70
8
 71
3
 72
8
 73
4
 74
0
 40
0
 40
0
 40
0
 40
0
 40
1
 40
1
 40
1
 40
1
 10
1.312846
 20
2.686495
 30
0.0
 10
1.348613
 20
2.703590
 30
0.0
 10
1.388533
 20
2.712137
 30
0.0
 10
1.432604
 20
2.712137
 30
0.0
  0
SPLINE
  5
330
100
AcDbEntity
  8
Capa_1
 62
7
100
AcDbSpline
 70
8
 71
3
 72
8
 73
4
 74
0
 40
0
 40
0
 40
0
 40
0
 40
1
 40
1
 40
1
 40
1
 10
1.432604
 20
2.712137
 30
0.0
 10
1.460069
 20
2.712137
 30
0.0
 10
1.486043
 20
2.708596
 30
0.0
 10
1.510526
 20
2.701513
 30
0.0
  0
SPLINE
  5
331
100
AcDbEntity
  8
Capa_1
 62
7
100
AcDbSpline
 70
8
 71
3
 72
8
 73
4
 74
0
 40
0
 40
0
 40
0
 40
0
 40
1
 40
1
 40
1
 40
1
 10
1.510526
 20
2.701513
 30
0.0
 10
1.535011
 20
2.694634
 30
0.0
 10
1.560133
 20
2.683635
 30
0.0
 10
1.585894
 20
2.668515
 30
0.0
  0
LWPOLYLINE
  5
332
100
AcDbEntity
  8
Capa_1
 62
7
100
AcDbPolyline
 90
2
 70
0
 10
0.843070
 20
2.198157
 30
0.0
 10
0.843073
 20
2.197861
 30
0.0
  0
SPLINE
  5
333
100
AcDbEntity
  8
Capa_1
 62
7
100
AcDbSpline
 70
8
 71
3
 72
8
 73
4
 74
0
 40
0
 40
0
 40
0
 40
0
 40
1
 40
1
 40
1
 40
1
 10
1.566736
 20
2.593835
 30
0.0
 10
1.559710
 20
2.601191
 30
0.0
 10
1.552578
 20
2.607968
 30
0.0
 10
1.545339
 20
2.614165
 30
0.0
  0
SPLINE
  5
334
100
AcDbEntity
  8
Capa_1
 62
7
100
AcDbSpline
 70
8
 71
3
 72
8
 73
4
 74
0
 40
0
 40
0
 40
0
 40
0
 40
1
 40
1
 40
1
 40
1
 10
1.545339
 20
2.614165
 30
0.0
 10
1.538314
 20
2.620295
 30
0.0
 10
1.527668
 20
2.627310
 30
0.0
 10
1.513403
 20
2.635210
 30
0.0
  0
SPLINE
  5
335
100
AcDbEntity
  8
Capa_1
 62
7
100
AcDbSpline
 70
8
 71
3
 72
8
 73
4
 74
0
 40
0
 40
0
 40
0
 40
0
 40
1
 40
1
 40
1
 40
1
 10
1.513403
 20
2.635210
 30
0.0
 10
1.501694
 20
2.641340
 30
0.0
 10
1.487749
 20
2.646687
 30
0.0
 10
1.471568
 20
2.651250
 30
0.0
  0
SPLINE
  5
336
100
AcDbEntity
  8
Capa_1
 62
7
100
AcDbSpline
 70
8
 71
3
 72
8
 73
4
 74
0
 40
0
 40
0
 40
0
 40
0
 40
1
 40
1
 40
1
 40
1
 10
1.471568
 20
2.651250
 30
0.0
 10
1.455388
 20
2.656017
 30
0.0
 10
1.437504
 20
2.658401
 30
0.0
 10
1.417916
 20
2.658401
 30
0.0
  0
SPLINE
  5
337
100
AcDbEntity
  8
Capa_1
 62
7
100
AcDbSpline
 70
8
 71
3
 72
8
 73
4
 74
0
 40
0
 40
0
 40
0
 40
0
 40
1
 40
1
 40
1
 40
1
 10
1.417916
 20
2.658401
 30
0.0
 10
1.388110
 20
2.658401
 30
0.0
 10
1.360752
 20
2.651863
 30
0.0
 10
1.335842
 20
2.638786
 30
0.0
  0
SPLINE
  5
338
100
AcDbEntity
  8
Capa_1
 62
7
100
AcDbSpline
 70
8
 71
3
 72
8
 73
4
 74
0
 40
0
 40
0
 40
0
 40
0
 40
1
 40
1
 40
1
 40
1
 10
1.335842
 20
2.638786
 30
0.0
 10
1.310932
 20
2.625914
 30
0.0
 10
1.289322
 20
2.607797
 30
0.0
 10
1.271013
 20
2.584437
 30
0.0
  0
SPLINE
  5
339
100
AcDbEntity
  8
Capa_1
 62
7
100
AcDbSpline
 70
8
 71
3
 72
8
 73
4
 74
0
 40
0
 40
0
 40
0
 40
0
 40
1
 40
1
 40
1
 40
1
 10
1.271013
 20
2.584437
 30
0.0
 10
1.253129
 20
2.561757
 30
0.0
 10
1.239077
 20
2.534208
 30
0.0
 10
1.228857
 20
2.501789
 30
0.0
  0
SPLINE
  5
33a
100
AcDbEntity
  8
Capa_1
 62
7
100
AcDbSpline
 70
8
 71
3
 72
8
 73
4
 74
0
 40
0
 40
0
 40
0
 40
0
 40
1
 40
1
 40
1
 40
1
 10
1.228857
 20
2.501789
 30
0.0
 10
1.218638
 20
2.469370
 30
0.0
 10
1.213529
 20
2.434819
 30
0.0
 10
1.213529
 20
2.398137
 30
0.0
  0
SPLINE
  5
33b
100
AcDbEntity
  8
Capa_1
 62
7
100
AcDbSpline
 70
8
 71
3
 72
8
 73
4
 74
0
 40
0
 40
0
 40
0
 40
0
 40
1
 40
1
 40
1
 40
1
 10
1.213529
 20
2.398137
 30
0.0
 10
1.213529
 20
2.352369
 30
0.0
 10
1.224919
 20
2.316704
 30
0.0
 10
1.247699
 20
2.291144
 30
0.0
  0
SPLINE
  5
33c
100
AcDbEntity
  8
Capa_1
 62
7
100
AcDbSpline
 70
8
 71
3
 72
8
 73
4
 74
0
 40
0
 40
0
 40
0
 40
0
 40
1
 40
1
 40
1
 40
1
 10
1.247699
 20
2.291144
 30
0.0
 10
1.270480
 20
2.265808
 30
0.0
 10
1.303373
 20
2.253140
 30
0.0
 10
1.346380
 20
2.253140
 30
0.0
  0
SPLINE
  5
33d
100
AcDbEntity
  8
Capa_1
 62
7
100
AcDbSpline
 70
8
 71
3
 72
8
 73
4
 74
0
 40
0
 40
0
 40
0
 40
0
 40
1
 40
1
 40
1
 40
1
 10
1.346380
 20
2.253140
 30
0.0
 10
1.366606
 20
2.253140
 30
0.0
 10
1.385767
 20
2.255524
 30
0.0
 10
1.403864
 20
2.260291
 30
0.0
  0
SPLINE
  5
33e
100
AcDbEntity
  8
Capa_1
 62
7
100
AcDbSpline
 70
8
 71
3
 72
8
 73
4
 74
0
 40
0
 40
0
 40
0
 40
0
 40
1
 40
1
 40
1
 40
1
 10
1.403864
 20
2.260291
 30
0.0
 10
1.422174
 20
2.265059
 30
0.0
 10
1.438780
 20
2.271154
 30
0.0
 10
1.453684
 20
2.278578
 30
0.0
  0
SPLINE
  5
33f
100
AcDbEntity
  8
Capa_1
 62
7
100
AcDbSpline
 70
8
 71
3
 72
8
 73
4
 74
0
 40
0
 40
0
 40
0
 40
0
 40
1
 40
1
 40
1
 40
1
 10
1.453684
 20
2.278578
 30
0.0
 10
1.467523
 20
2.285457
 30
0.0
 10
1.479978
 20
2.292676
 30
0.0
 10
1.491048
 20
2.300236
 30
0.0
  0
SPLINE
  5
340
100
AcDbEntity
  8
Capa_1
 62
7
100
AcDbSpline
 70
8
 71
3
 72
8
 73
4
 74
0
 40
0
 40
0
 40
0
 40
0
 40
1
 40
1
 40
1
 40
1
 10
1.491048
 20
2.300236
 30
0.0
 10
1.502119
 20
2.307796
 30
0.0
 10
1.511594
 20
2.314811
 30
0.0
 10
1.519471
 20
2.321281
 30
0.0
  0
LWPOLYLINE
  5
341
100
AcDbEntity
  8
Capa_1
 62
7
100
AcDbPolyline
 90
3
 70
0
 10
1.585894
 20
2.668515
 30
0.0
 10
1.571523
 20
2.593835
 30
0.0
 10
1.566736
 20
2.593835
 30
0.0
  0
SPLINE
  5
342
100
AcDbEntity
  8
Capa_1
 62
7
100
AcDbSpline
 70
8
 71
3
 72
8
 73
4
 74
0
 40
0
 40
0
 40
0
 40
0
 40
1
 40
1
 40
1
 40
1
 10
1.508935
 20
2.244661
 30
0.0
 10
1.486580
 20
2.232878
 30
0.0
 10
1.460819
 20
2.222219
 30
0.0
 10
1.431651
 20
2.212684
 30
0.0
  0
SPLINE
  5
343
100
AcDbEntity
  8
Capa_1
 62
7
100
AcDbSpline
 70
8
 71
3
 72
8
 73
4
 74
0
 40
0
 40
0
 40
0
 40
0
 40
1
 40
1
 40
1
 40
1
 10
1.431651
 20
2.212684
 30
0.0
 10
1.402696
 20
2.203354
 30
0.0
 10
1.371825
 20
2.198688
 30
0.0
 10
1.339038
 20
2.198688
 30
0.0
  0
LWPOLYLINE
  5
344
100
AcDbEntity
  8
Capa_1
 62
7
100
AcDbPolyline
 90
3
 70
0
 10
1.519471
 20
2.321281
 30
0.0
 10
1.523945
 20
2.321281
 30
0.0
 10
1.508935
 20
2.244661
 30
0.0
  0
LWPOLYLINE
  5
345
100
AcDbEntity
  8
Capa_1
 62
7
100
AcDbPolyline
 90
2
 70
0
 10
1.339038
 20
2.198688
 30
0.0
 10
1.339032
 20
2.197861
 30
0.0
  0
SPLINE
  5
346
100
AcDbEntity
  8
Capa_1
 62
7
100
AcDbSpline
 70
8
 71
3
 72
8
 73
4
 74
0
 40
0
 40
0
 40
0
 40
0
 40
1
 40
1
 40
1
 40
1
 10
0.779840
 20
0.491339
 30
0.0
 10
0.748969
 20
0.491339
 30
0.0
 10
0.719589
 20
0.494744
 30
0.0
 10
0.691698
 20
0.501555
 30
0.0
  0
SPLINE
  5
347
100
AcDbEntity
  8
Capa_1
 62
7
100
AcDbSpline
 70
8
 71
3
 72
8
 73
4
 74
0
 40
0
 40
0
 40
0
 40
0
 40
1
 40
1
 40
1
 40
1
 10
0.691698
 20
0.501555
 30
0.0
 10
0.663808
 20
0.508434
 30
0.0
 10
0.636450
 20
0.518888
 30
0.0
 10
0.609624
 20
0.532918
 30
0.0
  0
LWPOLYLINE
  5
348
100
AcDbEntity
  8
Capa_1
 62
7
100
AcDbPolyline
 90
6
 70
1
 10
1.884173
 20
2.206861
 30
0.0
 10
1.583020
 20
2.206861
 30
0.0
 10
1.692879
 20
2.703147
 30
0.0
 10
1.756750
 20
2.703147
 30
0.0
 10
1.659346
 20
2.263193
 30
0.0
 10
1.896628
 20
2.263193
 30
0.0
  0
SPLINE
  5
349
100
AcDbEntity
  8
Capa_1
 62
7
100
AcDbSpline
 70
8
 71
3
 72
8
 73
4
 74
0
 40
0
 40
0
 40
0
 40
0
 40
1
 40
1
 40
1
 40
1
 10
0.629424
 20
0.608619
 30
0.0
 10
0.649863
 20
0.588391
 30
0.0
 10
0.674879
 20
0.572829
 30
0.0
 10
0.704473
 20
0.561932
 30
0.0
  0
SPLINE
  5
34a
100
AcDbEntity
  8
Capa_1
 62
7
100
AcDbSpline
 70
8
 71
3
 72
8
 73
4
 74
0
 40
0
 40
0
 40
0
 40
0
 40
1
 40
1
 40
1
 40
1
 10
0.704473
 20
0.561932
 30
0.0
 10
0.734279
 20
0.551239
 30
0.0
 10
0.763021
 20
0.545893
 30
0.0
 10
0.790699
 20
0.545893
 30
0.0
  0
SPLINE
  5
34b
100
AcDbEntity
  8
Capa_1
 62
7
100
AcDbSpline
 70
8
 71
3
 72
8
 73
4
 74
0
 40
0
 40
0
 40
0
 40
0
 40
1
 40
1
 40
1
 40
1
 10
0.790699
 20
0.545893
 30
0.0
 10
0.836047
 20
0.545893
 30
0.0
 10
0.870751
 20
0.555223
 30
0.0
 10
0.894809
 20
0.573885
 30
0.0
  0
SPLINE
  5
34c
100
AcDbEntity
  8
Capa_1
 62
7
100
AcDbSpline
 70
8
 71
3
 72
8
 73
4
 74
0
 40
0
 40
0
 40
0
 40
0
 40
1
 40
1
 40
1
 40
1
 10
0.894809
 20
0.573885
 30
0.0
 10
0.919080
 20
0.592750
 30
0.0
 10
0.931215
 20
0.616758
 30
0.0
 10
0.931215
 20
0.645908
 30
0.0
  0
SPLINE
  5
34d
100
AcDbEntity
  8
Capa_1
 62
7
100
AcDbSpline
 70
8
 71
3
 72
8
 73
4
 74
0
 40
0
 40
0
 40
0
 40
0
 40
1
 40
1
 40
1
 40
1
 10
0.931215
 20
0.645908
 30
0.0
 10
0.931215
 20
0.661232
 30
0.0
 10
0.926851
 20
0.674002
 30
0.0
 10
0.918122
 20
0.684218
 30
0.0
  0
SPLINE
  5
34e
100
AcDbEntity
  8
Capa_1
 62
7
100
AcDbSpline
 70
8
 71
3
 72
8
 73
4
 74
0
 40
0
 40
0
 40
0
 40
0
 40
1
 40
1
 40
1
 40
1
 10
0.918122
 20
0.684218
 30
0.0
 10
0.909606
 20
0.694434
 30
0.0
 10
0.897044
 20
0.701994
 30
0.0
 10
0.880438
 20
0.706898
 30
0.0
  0
SPLINE
  5
34f
100
AcDbEntity
  8
Capa_1
 62
7
100
AcDbSpline
 70
8
 71
3
 72
8
 73
4
 74
0
 40
0
 40
0
 40
0
 40
0
 40
1
 40
1
 40
1
 40
1
 10
0.880438
 20
0.706898
 30
0.0
 10
0.866599
 20
0.710984
 30
0.0
 10
0.850099
 20
0.714764
 30
0.0
 10
0.830938
 20
0.718238
 30
0.0
  0
SPLINE
  5
350
100
AcDbEntity
  8
Capa_1
 62
7
100
AcDbSpline
 70
8
 71
3
 72
8
 73
4
 74
0
 40
0
 40
0
 40
0
 40
0
 40
1
 40
1
 40
1
 40
1
 10
0.830938
 20
0.718238
 30
0.0
 10
0.811989
 20
0.722324
 30
0.0
 10
0.793892
 20
0.726342
 30
0.0
 10
0.776647
 20
0.730293
 30
0.0
  0
SPLINE
  5
351
100
AcDbEntity
  8
Capa_1
 62
7
100
AcDbSpline
 70
8
 71
3
 72
8
 73
4
 74
0
 40
0
 40
0
 40
0
 40
0
 40
1
 40
1
 40
1
 40
1
 10
0.776647
 20
0.730293
 30
0.0
 10
0.743221
 20
0.738057
 30
0.0
 10
0.717353
 20
0.751406
 30
0.0
 10
0.699044
 20
0.770340
 30
0.0
  0
SPLINE
  5
352
100
AcDbEntity
  8
Capa_1
 62
7
100
AcDbSpline
 70
8
 71
3
 72
8
 73
4
 74
0
 40
0
 40
0
 40
0
 40
0
 40
1
 40
1
 40
1
 40
1
 10
0.699044
 20
0.770340
 30
0.0
 10
0.680734
 20
0.789205
 30
0.0
 10
0.671579
 20
0.812634
 30
0.0
 10
0.671579
 20
0.840626
 30
0.0
  0
SPLINE
  5
353
100
AcDbEntity
  8
Capa_1
 62
7
100
AcDbSpline
 70
8
 71
3
 72
8
 73
4
 74
0
 40
0
 40
0
 40
0
 40
0
 40
1
 40
1
 40
1
 40
1
 10
0.671579
 20
0.840626
 30
0.0
 10
0.671579
 20
0.887960
 30
0.0
 10
0.690741
 20
0.927289
 30
0.0
 10
0.729063
 20
0.958611
 30
0.0
  0
SPLINE
  5
354
100
AcDbEntity
  8
Capa_1
 62
7
100
AcDbSpline
 70
8
 71
3
 72
8
 73
4
 74
0
 40
0
 40
0
 40
0
 40
0
 40
1
 40
1
 40
1
 40
1
 10
0.729063
 20
0.958611
 30
0.0
 10
0.767599
 20
0.990145
 30
0.0
 10
0.817312
 20
1.005912
 30
0.0
 10
0.878202
 20
1.005912
 30
0.0
  0
SPLINE
  5
355
100
AcDbEntity
  8
Capa_1
 62
7
100
AcDbSpline
 70
8
 71
3
 72
8
 73
4
 74
0
 40
0
 40
0
 40
0
 40
0
 40
1
 40
1
 40
1
 40
1
 10
0.878202
 20
1.005912
 30
0.0
 10
0.911415
 20
1.005912
 30
0.0
 10
0.941541
 20
1.002234
 30
0.0
 10
0.968580
 20
0.994878
 30
0.0
  0
SPLINE
  5
356
100
AcDbEntity
  8
Capa_1
 62
7
100
AcDbSpline
 70
8
 71
3
 72
8
 73
4
 74
0
 40
0
 40
0
 40
0
 40
0
 40
1
 40
1
 40
1
 40
1
 10
0.968580
 20
0.994878
 30
0.0
 10
0.995832
 20
0.987795
 30
0.0
 10
1.019251
 20
0.979350
 30
0.0
 10
1.038838
 20
0.969543
 30
0.0
  0
LWPOLYLINE
  5
357
100
AcDbEntity
  8
Capa_1
 62
7
100
AcDbPolyline
 90
3
 70
0
 10
0.609624
 20
0.532918
 30
0.0
 10
0.624953
 20
0.608619
 30
0.0
 10
0.629424
 20
0.608619
 30
0.0
  0
SPLINE
  5
358
100
AcDbEntity
  8
Capa_1
 62
7
100
AcDbSpline
 70
8
 71
3
 72
8
 73
4
 74
0
 40
0
 40
0
 40
0
 40
0
 40
1
 40
1
 40
1
 40
1
 10
1.019994
 20
0.898541
 30
0.0
 10
1.004877
 20
0.912980
 30
0.0
 10
0.983268
 20
0.925409
 30
0.0
 10
0.955164
 20
0.935830
 30
0.0
  0
SPLINE
  5
359
100
AcDbEntity
  8
Capa_1
 62
7
100
AcDbSpline
 70
8
 71
3
 72
8
 73
4
 74
0
 40
0
 40
0
 40
0
 40
0
 40
1
 40
1
 40
1
 40
1
 10
0.955164
 20
0.935830
 30
0.0
 10
0.927274
 20
0.946250
 30
0.0
 10
0.897893
 20
0.951460
 30
0.0
 10
0.867022
 20
0.951460
 30
0.0
  0
SPLINE
  5
35a
100
AcDbEntity
  8
Capa_1
 62
7
100
AcDbSpline
 70
8
 71
3
 72
8
 73
4
 74
0
 40
0
 40
0
 40
0
 40
0
 40
1
 40
1
 40
1
 40
1
 10
0.867022
 20
0.951460
 30
0.0
 10
0.828274
 20
0.951460
 30
0.0
 10
0.797296
 20
0.942572
 30
0.0
 10
0.774090
 20
0.924796
 30
0.0
  0
SPLINE
  5
35b
100
AcDbEntity
  8
Capa_1
 62
7
100
AcDbSpline
 70
8
 71
3
 72
8
 73
4
 74
0
 40
0
 40
0
 40
0
 40
0
 40
1
 40
1
 40
1
 40
1
 10
0.774090
 20
0.924796
 30
0.0
 10
0.751096
 20
0.907020
 30
0.0
 10
0.739599
 20
0.884477
 30
0.0
 10
0.739599
 20
0.857166
 30
0.0
  0
SPLINE
  5
35c
100
AcDbEntity
  8
Capa_1
 62
7
100
AcDbSpline
 70
8
 71
3
 72
8
 73
4
 74
0
 40
0
 40
0
 40
0
 40
0
 40
1
 40
1
 40
1
 40
1
 10
0.739599
 20
0.857166
 30
0.0
 10
0.739599
 20
0.842523
 30
0.0
 10
0.743751
 20
0.829651
 30
0.0
 10
0.752054
 20
0.818549
 30
0.0
  0
SPLINE
  5
35d
100
AcDbEntity
  8
Capa_1
 62
7
100
AcDbSpline
 70
8
 71
3
 72
8
 73
4
 74
0
 40
0
 40
0
 40
0
 40
0
 40
1
 40
1
 40
1
 40
1
 10
0.752054
 20
0.818549
 30
0.0
 10
0.760357
 20
0.807448
 30
0.0
 10
0.775154
 20
0.799105
 30
0.0
 10
0.796444
 20
0.793520
 30
0.0
  0
SPLINE
  5
35e
100
AcDbEntity
  8
Capa_1
 62
7
100
AcDbSpline
 70
8
 71
3
 72
8
 73
4
 74
0
 40
0
 40
0
 40
0
 40
0
 40
1
 40
1
 40
1
 40
1
 10
0.796444
 20
0.793520
 30
0.0
 10
0.810070
 20
0.790114
 30
0.0
 10
0.828167
 20
0.785994
 30
0.0
 10
0.850735
 20
0.781158
 30
0.0
  0
SPLINE
  5
35f
100
AcDbEntity
  8
Capa_1
 62
7
100
AcDbSpline
 70
8
 71
3
 72
8
 73
4
 74
0
 40
0
 40
0
 40
0
 40
0
 40
1
 40
1
 40
1
 40
1
 10
0.850735
 20
0.781158
 30
0.0
 10
0.873303
 20
0.776391
 30
0.0
 10
0.892251
 20
0.771964
 30
0.0
 10
0.907580
 20
0.767877
 30
0.0
  0
SPLINE
  5
360
100
AcDbEntity
  8
Capa_1
 62
7
100
AcDbSpline
 70
8
 71
3
 72
8
 73
4
 74
0
 40
0
 40
0
 40
0
 40
0
 40
1
 40
1
 40
1
 40
1
 10
0.907580
 20
0.767877
 30
0.0
 10
0.937813
 20
0.759228
 30
0.0
 10
0.960700
 20
0.746356
 30
0.0
 10
0.976242
 20
0.729261
 30
0.0
  0
SPLINE
  5
361
100
AcDbEntity
  8
Capa_1
 62
7
100
AcDbSpline
 70
8
 71
3
 72
8
 73
4
 74
0
 40
0
 40
0
 40
0
 40
0
 40
1
 40
1
 40
1
 40
1
 10
0.976242
 20
0.729261
 30
0.0
 10
0.991997
 20
0.712166
 30
0.0
 10
0.999874
 20
0.690610
 30
0.0
 10
0.999874
 20
0.664593
 30
0.0
  0
SPLINE
  5
362
100
AcDbEntity
  8
Capa_1
 62
7
100
AcDbSpline
 70
8
 71
3
 72
8
 73
4
 74
0
 40
0
 40
0
 40
0
 40
0
 40
1
 40
1
 40
1
 40
1
 10
0.999874
 20
0.664593
 30
0.0
 10
0.999874
 20
0.642799
 30
0.0
 10
0.994765
 20
0.621141
 30
0.0
 10
0.984545
 20
0.599619
 30
0.0
  0
SPLINE
  5
363
100
AcDbEntity
  8
Capa_1
 62
7
100
AcDbSpline
 70
8
 71
3
 72
8
 73
4
 74
0
 40
0
 40
0
 40
0
 40
0
 40
1
 40
1
 40
1
 40
1
 10
0.984545
 20
0.599619
 30
0.0
 10
0.974326
 20
0.578029
 30
0.0
 10
0.960061
 20
0.559572
 30
0.0
 10
0.941752
 20
0.544248
 30
0.0
  0
SPLINE
  5
364
100
AcDbEntity
  8
Capa_1
 62
7
100
AcDbSpline
 70
8
 71
3
 72
8
 73
4
 74
0
 40
0
 40
0
 40
0
 40
0
 40
1
 40
1
 40
1
 40
1
 10
0.941752
 20
0.544248
 30
0.0
 10
0.922164
 20
0.527834
 30
0.0
 10
0.899171
 20
0.514962
 30
0.0
 10
0.872771
 20
0.505631
 30
0.0
  0
SPLINE
  5
365
100
AcDbEntity
  8
Capa_1
 62
7
100
AcDbSpline
 70
8
 71
3
 72
8
 73
4
 74
0
 40
0
 40
0
 40
0
 40
0
 40
1
 40
1
 40
1
 40
1
 10
0.872771
 20
0.505631
 30
0.0
 10
0.846584
 20
0.496300
 30
0.0
 10
0.815606
 20
0.491635
 30
0.0
 10
0.779838
 20
0.491635
 30
0.0
  0
LWPOLYLINE
  5
366
100
AcDbEntity
  8
Capa_1
 62
7
100
AcDbPolyline
 90
3
 70
0
 10
1.038838
 20
0.969543
 30
0.0
 10
1.024467
 20
0.898541
 30
0.0
 10
1.019994
 20
0.898541
 30
0.0
  0
SPLINE
  5
367
100
AcDbEntity
  8
Capa_1
 62
7
100
AcDbSpline
 70
8
 71
3
 72
8
 73
4
 74
0
 40
0
 40
0
 40
0
 40
0
 40
1
 40
1
 40
1
 40
1
 10
1.525217
 20
0.806310
 30
0.0
 10
1.525217
 20
0.752097
 30
0.0
 10
1.512017
 20
0.700768
 30
0.0
 10
1.485616
 20
0.652324
 30
0.0
  0
SPLINE
  5
368
100
AcDbEntity
  8
Capa_1
 62
7
100
AcDbSpline
 70
8
 71
3
 72
8
 73
4
 74
0
 40
0
 40
0
 40
0
 40
0
 40
1
 40
1
 40
1
 40
1
 10
1.485616
 20
0.652324
 30
0.0
 10
1.459216
 20
0.603899
 30
0.0
 10
1.423129
 20
0.566458
 30
0.0
 10
1.377355
 20
0.539998
 30
0.0
  0
SPLINE
  5
369
100
AcDbEntity
  8
Capa_1
 62
7
100
AcDbSpline
 70
8
 71
3
 72
8
 73
4
 74
0
 40
0
 40
0
 40
0
 40
0
 40
1
 40
1
 40
1
 40
1
 10
1.377355
 20
0.539998
 30
0.0
 10
1.349251
 20
0.524197
 30
0.0
 10
1.320509
 20
0.513640
 30
0.0
 10
1.291129
 20
0.508328
 30
0.0
  0
SPLINE
  5
36a
100
AcDbEntity
  8
Capa_1
 62
7
100
AcDbSpline
 70
8
 71
3
 72
8
 73
4
 74
0
 40
0
 40
0
 40
0
 40
0
 40
1
 40
1
 40
1
 40
1
 10
1.291129
 20
0.508328
 30
0.0
 10
1.261748
 20
0.502880
 30
0.0
 10
1.228429
 20
0.500155
 30
0.0
 10
1.191171
 20
0.500155
 30
0.0
  0
LWPOLYLINE
  5
36b
100
AcDbEntity
  8
Capa_1
 62
7
100
AcDbPolyline
 90
2
 70
0
 10
0.779838
 20
0.491635
 30
0.0
 10
0.779840
 20
0.491339
 30
0.0
  0
SPLINE
  5
36c
100
AcDbEntity
  8
Capa_1
 62
7
100
AcDbSpline
 70
8
 71
3
 72
8
 73
4
 74
0
 40
0
 40
0
 40
0
 40
0
 40
1
 40
1
 40
1
 40
1
 10
1.283145
 20
0.996441
 30
0.0
 10
1.317635
 20
0.996441
 30
0.0
 10
1.349038
 20
0.994058
 30
0.0
 10
1.377355
 20
0.989290
 30
0.0
  0
SPLINE
  5
36d
100
AcDbEntity
  8
Capa_1
 62
7
100
AcDbSpline
 70
8
 71
3
 72
8
 73
4
 74
0
 40
0
 40
0
 40
0
 40
0
 40
1
 40
1
 40
1
 40
1
 10
1.377355
 20
0.989290
 30
0.0
 10
1.405884
 20
0.984523
 30
0.0
 10
1.431964
 20
0.973864
 30
0.0
 10
1.455597
 20
0.957314
 30
0.0
  0
SPLINE
  5
36e
100
AcDbEntity
  8
Capa_1
 62
7
100
AcDbSpline
 70
8
 71
3
 72
8
 73
4
 74
0
 40
0
 40
0
 40
0
 40
0
 40
1
 40
1
 40
1
 40
1
 10
1.455597
 20
0.957314
 30
0.0
 10
1.478165
 20
0.941513
 30
0.0
 10
1.495410
 20
0.920843
 30
0.0
 10
1.507332
 20
0.895302
 30
0.0
  0
SPLINE
  5
36f
100
AcDbEntity
  8
Capa_1
 62
7
100
AcDbSpline
 70
8
 71
3
 72
8
 73
4
 74
0
 40
0
 40
0
 40
0
 40
0
 40
1
 40
1
 40
1
 40
1
 10
1.507332
 20
0.895302
 30
0.0
 10
1.519255
 20
0.869967
 30
0.0
 10
1.525216
 20
0.840408
 30
0.0
 10
1.525216
 20
0.806627
 30
0.0
  0
LWPOLYLINE
  5
370
100
AcDbEntity
  8
Capa_1
 62
7
100
AcDbPolyline
 90
4
 70
0
 10
1.191171
 20
0.500155
 30
0.0
 10
1.062790
 20
0.500155
 30
0.0
 10
1.172648
 20
0.996441
 30
0.0
 10
1.283145
 20
0.996441
 30
0.0
  0
SPLINE
  5
371
100
AcDbEntity
  8
Capa_1
 62
7
100
AcDbSpline
 70
8
 71
3
 72
8
 73
4
 74
0
 40
0
 40
0
 40
0
 40
0
 40
1
 40
1
 40
1
 40
1
 10
1.458472
 20
0.800181
 30
0.0
 10
1.458472
 20
0.825516
 30
0.0
 10
1.454107
 20
0.847277
 30
0.0
 10
1.445378
 20
0.865461
 30
0.0
  0
SPLINE
  5
372
100
AcDbEntity
  8
Capa_1
 62
7
100
AcDbSpline
 70
8
 71
3
 72
8
 73
4
 74
0
 40
0
 40
0
 40
0
 40
0
 40
1
 40
1
 40
1
 40
1
 10
1.445378
 20
0.865461
 30
0.0
 10
1.436862
 20
0.883918
 30
0.0
 10
1.423875
 20
0.899242
 30
0.0
 10
1.406417
 20
0.911434
 30
0.0
  0
SPLINE
  5
373
100
AcDbEntity
  8
Capa_1
 62
7
100
AcDbSpline
 70
8
 71
3
 72
8
 73
4
 74
0
 40
0
 40
0
 40
0
 40
0
 40
1
 40
1
 40
1
 40
1
 10
1.406417
 20
0.911434
 30
0.0
 10
1.389171
 20
0.923420
 30
0.0
 10
1.370755
 20
0.931423
 30
0.0
 10
1.351168
 20
0.935441
 30
0.0
  0
SPLINE
  5
374
100
AcDbEntity
  8
Capa_1
 62
7
100
AcDbSpline
 70
8
 71
3
 72
8
 73
4
 74
0
 40
0
 40
0
 40
0
 40
0
 40
1
 40
1
 40
1
 40
1
 10
1.351168
 20
0.935441
 30
0.0
 10
1.331582
 20
0.939528
 30
0.0
 10
1.306778
 20
0.941571
 30
0.0
 10
1.276758
 20
0.941571
 30
0.0
  0
LWPOLYLINE
  5
375
100
AcDbEntity
  8
Capa_1
 62
7
100
AcDbPolyline
 90
2
 70
0
 10
1.525216
 20
0.806627
 30
0.0
 10
1.525217
 20
0.806310
 30
0.0
  0
SPLINE
  5
376
100
AcDbEntity
  8
Capa_1
 62
7
100
AcDbSpline
 70
8
 71
3
 72
8
 73
4
 74
0
 40
0
 40
0
 40
0
 40
0
 40
1
 40
1
 40
1
 40
1
 10
1.203945
 20
0.553943
 30
0.0
 10
1.234391
 20
0.553943
 30
0.0
 10
1.261536
 20
0.556327
 30
0.0
 10
1.285381
 20
0.561094
 30
0.0
  0
SPLINE
  5
377
100
AcDbEntity
  8
Capa_1
 62
7
100
AcDbSpline
 70
8
 71
3
 72
8
 73
4
 74
0
 40
0
 40
0
 40
0
 40
0
 40
1
 40
1
 40
1
 40
1
 10
1.285381
 20
0.561094
 30
0.0
 10
1.309439
 20
0.566543
 30
0.0
 10
1.332113
 20
0.575533
 30
0.0
 10
1.353403
 20
0.588065
 30
0.0
  0
SPLINE
  5
378
100
AcDbEntity
  8
Capa_1
 62
7
100
AcDbSpline
 70
8
 71
3
 72
8
 73
4
 74
0
 40
0
 40
0
 40
0
 40
0
 40
1
 40
1
 40
1
 40
1
 10
1.353403
 20
0.588065
 30
0.0
 10
1.387680
 20
0.608497
 30
0.0
 10
1.413761
 20
0.637953
 30
0.0
 10
1.431645
 20
0.676433
 30
0.0
  0
SPLINE
  5
379
100
AcDbEntity
  8
Capa_1
 62
7
100
AcDbSpline
 70
8
 71
3
 72
8
 73
4
 74
0
 40
0
 40
0
 40
0
 40
0
 40
1
 40
1
 40
1
 40
1
 10
1.431645
 20
0.676433
 30
0.0
 10
1.449529
 20
0.715118
 30
0.0
 10
1.458471
 20
0.756115
 30
0.0
 10
1.458471
 20
0.799425
 30
0.0
  0
LWPOLYLINE
  5
37a
100
AcDbEntity
  8
Capa_1
 62
7
100
AcDbPolyline
 90
4
 70
0
 10
1.276758
 20
0.941571
 30
0.0
 10
1.224064
 20
0.941571
 30
0.0
 10
1.137838
 20
0.553943
 30
0.0
 10
1.203945
 20
0.553943
 30
0.0
  0
LWPOLYLINE
  5
37b
100
AcDbEntity
  8
Capa_1
 62
7
100
AcDbPolyline
 90
2
 70
0
 10
1.458471
 20
0.799425
 30
0.0
 10
1.458472
 20
0.800181
 30
0.0
  0
LWPOLYLINE
  5
37c
100
AcDbEntity
  8
Capa_1
 62
7
100
AcDbPolyline
 90
8
 70
1
 10
1.943573
 20
0.500339
 30
0.0
 10
1.879383
 20
0.500339
 30
0.0
 10
1.863415
 20
0.639993
 30
0.0
 10
1.658388
 20
0.639993
 30
0.0
 10
1.580466
 20
0.500339
 30
0.0
 10
1.513720
 20
0.500339
 30
0.0
 10
1.796669
 20
0.996625
 30
0.0
 10
1.880340
 20
0.996625
 30
0.0
  0
LWPOLYLINE
  5
37d
100
AcDbEntity
  8
Capa_1
 62
7
100
AcDbPolyline
 90
3
 70
1
 10
1.856389
 20
0.693985
 30
0.0
 10
1.826688
 20
0.938966
 30
0.0
 10
1.688727
 20
0.693985
 30
0.0
  0
ENDSEC
  0
SECTION
  2
OBJECTS
  0
DICTIONARY
  5
C
330
0
100
AcDbDictionary
  3
ACAD_GROUP
350
D
  3
ACAD_MLINESTYLE
350
17
  0
DICTIONARY
  5
D
330
C
100
AcDbDictionary
  0
DICTIONARY
  5
1A
330
C
100
AcDbDictionary
  0
DICTIONARY
  5
17
330
C
100
AcDbDictionary
  3
STANDARD
350
18
  0
DICTIONARY
  5
19
330
C
100
AcDbDictionary
  0
ENDSEC
  0
EOF
