  0
SECTION
  2
HEADER
  9
$ACADVER
  1
AC1014
  9
$HANDSEED
  5
FFFF
  9
$MEASUREMENT
 70
     1
  0
ENDSEC
  0
SECTION
  2
TABLES
  0
TABLE
  2
VPORT
  5
8
330
0
100
AcDbSymbolTable
 70
     4
  0
VPORT
  5
2E
330
8
100
AcDbSymbolTableRecord
100
AcDbViewportTableRecord
  2
*ACTIVE
 70
     0
 10
0.0
 20
0.0
 11
1.0
 21
1.0
 12
210.0
 22
148.5
 13
0.0
 23
0.0
 14
10.0
 24
10.0
 15
10.0
 25
10.0
 16
0.0
 26
0.0
 36
1.0
 17
0.0
 27
0.0
 37
0.0
 40
341.0
 41
1.24
 42
50.0
 43
0.0
 44
0.0
 50
0.0
 51
0.0
 71
     0
 72
   100
 73
     1
 74
     3
 75
     0
 76
     0
 77
     0
 78
     0
  0
ENDTAB
  0
TABLE
  2
LTYPE
  5
5
330
0
100
AcDbSymbolTable
 70
     1
  0
LTYPE
  5
14
330
5
100
AcDbSymbolTableRecord
100
AcDbLinetypeTableRecord
  2
BYBLOCK
 70
     0
  3

 72
    65
 73
     0
 40
0.0
  0
LTYPE
  5
15
330
5
100
AcDbSymbolTableRecord
100
AcDbLinetypeTableRecord
  2
BYLAYER
 70
     0
  3

 72
    65
 73
     0
 40
0.0
  0
LTYPE
  5
16
330
5
100
AcDbSymbolTableRecord
100
AcDbLinetypeTableRecord
  2
CONTINUOUS
 70
     0
  3
Solid line
 72
    65
 73
     0
 40
0.0
  0
ENDTAB
  0
TABLE
  2
LAYER
  5
2
100
AcDbSymbolTable
 70
2
  0
LAYER
  5
50
100
AcDbSymbolTableRecord
100
AcDbLayerTableRecord
  2
0
 70
0
  6
CONTINUOUS
  0
LAYER
  5
51
100
AcDbSymbolTableRecord
100
AcDbLayerTableRecord
  2
Capa_1
 70
0
  6
CONTINUOUS
  0
ENDTAB
  0
TABLE
  2
STYLE
  5
3
330
0
100
AcDbSymbolTable
 70
     1
  0
STYLE
  5
11
330
3
100
AcDbSymbolTableRecord
100
AcDbTextStyleTableRecord
  2
STANDARD
 70
     0
 40
0.0
 41
1.0
 50
0.0
 71
     0
 42
2.5
  3
txt
  4

  0
ENDTAB
  0
TABLE
  2
VIEW
  5
6
330
0
100
AcDbSymbolTable
 70
     0
  0
ENDTAB
  0
TABLE
  2
UCS
  5
7
330
0
100
AcDbSymbolTable
 70
     0
  0
ENDTAB
  0
TABLE
  2
APPID
  5
9
330
0
100
AcDbSymbolTable
 70
     2
  0
APPID
  5
12
330
9
100
AcDbSymbolTableRecord
100
AcDbRegAppTableRecord
  2
ACAD
 70
     0
  0
ENDTAB
  0
TABLE
  2
DIMSTYLE
  5
A
330
0
100
AcDbSymbolTable
 70
     1
  0
DIMSTYLE
105
27
330
A
100
AcDbSymbolTableRecord
100
AcDbDimStyleTableRecord
  2
ISO-25
 70
     0
  3

  4

  5

  6

  7

 40
1.0
 41
2.5
 42
0.625
 43
3.75
 44
1.25
 45
0.0
 46
0.0
 47
0.0
 48
0.0
140
2.5
141
2.5
142
0.0
143
0.03937007874016
144
1.0
145
0.0
146
1.0
147
0.625
 71
     0
 72
     0
 73
     0
 74
     0
 75
     0
 76
     0
 77
     1
 78
     8
170
     0
171
     3
172
     1
173
     0
174
     0
175
     0
176
     0
177
     0
178
     0
270
     2
271
     2
272
     2
273
     2
274
     3
340
11
275
     0
280
     0
281
     0
282
     0
283
     0
284
     8
285
     0
286
     0
287
     3
288
     0
  0
ENDTAB
  0
TABLE
  2
BLOCK_RECORD
  5
1
330
0
100
AcDbSymbolTable
 70
     1
  0
BLOCK_RECORD
  5
1F
330
1
100
AcDbSymbolTableRecord
100
AcDbBlockTableRecord
  2
*MODEL_SPACE
  0
BLOCK_RECORD
  5
1B
330
1
100
AcDbSymbolTableRecord
100
AcDbBlockTableRecord
  2
*PAPER_SPACE
  0
ENDTAB
  0
ENDSEC
  0
SECTION
  2
BLOCKS
  0
BLOCK
  5
20
330
1F
100
AcDbEntity
  8
0
100
AcDbBlockBegin
  2
*MODEL_SPACE
 70
     0
 10
0.0
 20
0.0
 30
0.0
  3
*MODEL_SPACE
  1

  0
ENDBLK
  5
21
330
1F
100
AcDbEntity
  8
0
100
AcDbBlockEnd
  0
BLOCK
  5
1C
330
1B
100
AcDbEntity
 67
     1
  8
0
100
AcDbBlockBegin
  2
*PAPER_SPACE
  1

  0
ENDBLK
  5
1D
330
1B
100
AcDbEntity
 67
     1
  8
0
100
AcDbBlockEnd
  0
ENDSEC
  0
SECTION
  2
ENTITIES
  0
LWPOLYLINE
  5
100
100
AcDbEntity
  8
Capa_1
 62
7
100
AcDbPolyline
 90
4
 70
1
 10
0.062123
 20
9.937900
 30
0.0
 10
1.937877
 20
9.937900
 30
0.0
 10
1.937877
 20
0.062146
 30
0.0
 10
0.062123
 20
0.062146
 30
0.0
  0
SPLINE
  5
101
100
AcDbEntity
  8
Capa_1
 62
7
100
AcDbSpline
 70
8
 71
3
 72
8
 73
4
 74
0
 40
0
 40
0
 40
0
 40
0
 40
1
 40
1
 40
1
 40
1
 10
0.870373
 20
9.342271
 30
0.0
 10
0.870373
 20
9.299159
 30
0.0
 10
0.876653
 20
9.257607
 30
0.0
 10
0.889215
 20
9.217615
 30
0.0
  0
SPLINE
  5
102
100
AcDbEntity
  8
Capa_1
 62
7
100
AcDbSpline
 70
8
 71
3
 72
8
 73
4
 74
0
 40
0
 40
0
 40
0
 40
0
 40
1
 40
1
 40
1
 40
1
 10
0.889215
 20
9.217615
 30
0.0
 10
0.901563
 20
9.177636
 30
0.0
 10
0.919554
 20
9.142418
 30
0.0
 10
0.943186
 20
9.111960
 30
0.0
  0
SPLINE
  5
103
100
AcDbEntity
  8
Capa_1
 62
7
100
AcDbSpline
 70
8
 71
3
 72
8
 73
4
 74
0
 40
0
 40
0
 40
0
 40
0
 40
1
 40
1
 40
1
 40
1
 10
0.943186
 20
9.111960
 30
0.0
 10
0.967457
 20
9.080631
 30
0.0
 10
0.996624
 20
9.055976
 30
0.0
 10
1.030689
 20
9.037996
 30
0.0
  0
SPLINE
  5
104
100
AcDbEntity
  8
Capa_1
 62
7
100
AcDbSpline
 70
8
 71
3
 72
8
 73
4
 74
0
 40
0
 40
0
 40
0
 40
0
 40
1
 40
1
 40
1
 40
1
 10
1.030689
 20
9.037996
 30
0.0
 10
1.064754
 20
9.020220
 30
0.0
 10
1.103183
 20
9.011332
 30
0.0
 10
1.145976
 20
9.011332
 30
0.0
  0
SPLINE
  5
105
100
AcDbEntity
  8
Capa_1
 62
7
100
AcDbSpline
 70
8
 71
3
 72
8
 73
4
 74
0
 40
0
 40
0
 40
0
 40
0
 40
1
 40
1
 40
1
 40
1
 10
1.145976
 20
9.011332
 30
0.0
 10
1.202609
 20
9.011332
 30
0.0
 10
1.246893
 20
9.027439
 30
0.0
 10
1.278829
 20
9.059654
 30
0.0
  0
SPLINE
  5
106
100
AcDbEntity
  8
Capa_1
 62
7
100
AcDbSpline
 70
8
 71
3
 72
8
 73
4
 74
0
 40
0
 40
0
 40
0
 40
0
 40
1
 40
1
 40
1
 40
1
 10
1.278829
 20
9.059654
 30
0.0
 10
1.310764
 20
9.092073
 30
0.0
 10
1.326732
 20
9.138069
 30
0.0
 10
1.326732
 20
9.197642
 30
0.0
  0
SPLINE
  5
107
100
AcDbEntity
  8
Capa_1
 62
7
100
AcDbSpline
 70
8
 71
3
 72
8
 73
4
 74
0
 40
0
 40
0
 40
0
 40
0
 40
1
 40
1
 40
1
 40
1
 10
1.326732
 20
9.197642
 30
0.0
 10
1.326732
 20
9.243002
 30
0.0
 10
1.320345
 20
9.285330
 30
0.0
 10
1.307571
 20
9.324628
 30
0.0
  0
SPLINE
  5
108
100
AcDbEntity
  8
Capa_1
 62
7
100
AcDbSpline
 70
8
 71
3
 72
8
 73
4
 74
0
 40
0
 40
0
 40
0
 40
0
 40
1
 40
1
 40
1
 40
1
 10
1.307571
 20
9.324628
 30
0.0
 10
1.294796
 20
9.363926
 30
0.0
 10
1.276380
 20
9.399035
 30
0.0
 10
1.252322
 20
9.429956
 30
0.0
  0
SPLINE
  5
109
100
AcDbEntity
  8
Capa_1
 62
7
100
AcDbSpline
 70
8
 71
3
 72
8
 73
4
 74
0
 40
0
 40
0
 40
0
 40
0
 40
1
 40
1
 40
1
 40
1
 10
1.252322
 20
9.429956
 30
0.0
 10
1.228902
 20
9.459718
 30
0.0
 10
1.199948
 20
9.483488
 30
0.0
 10
1.165457
 20
9.501264
 30
0.0
  0
SPLINE
  5
10a
100
AcDbEntity
  8
Capa_1
 62
7
100
AcDbSpline
 70
8
 71
3
 72
8
 73
4
 74
0
 40
0
 40
0
 40
0
 40
0
 40
1
 40
1
 40
1
 40
1
 10
1.165457
 20
9.501264
 30
0.0
 10
1.130754
 20
9.519244
 30
0.0
 10
1.092751
 20
9.528234
 30
0.0
 10
1.051447
 20
9.528234
 30
0.0
  0
SPLINE
  5
10b
100
AcDbEntity
  8
Capa_1
 62
7
100
AcDbSpline
 70
8
 71
3
 72
8
 73
4
 74
0
 40
0
 40
0
 40
0
 40
0
 40
1
 40
1
 40
1
 40
1
 10
1.051447
 20
9.528234
 30
0.0
 10
0.995028
 20
9.528234
 30
0.0
 10
0.950744
 20
9.512127
 30
0.0
 10
0.918595
 20
9.479912
 30
0.0
  0
SPLINE
  5
10c
100
AcDbEntity
  8
Capa_1
 62
7
100
AcDbSpline
 70
8
 71
3
 72
8
 73
4
 74
0
 40
0
 40
0
 40
0
 40
0
 40
1
 40
1
 40
1
 40
1
 10
0.918595
 20
9.479912
 30
0.0
 10
0.886446
 20
9.447902
 30
0.0
 10
0.870372
 20
9.402015
 30
0.0
 10
0.870372
 20
9.342251
 30
0.0
  0
LWPOLYLINE
  5
10d
100
AcDbEntity
  8
Capa_1
 62
7
100
AcDbPolyline
 90
12
 70
1
 10
1.454794
 20
9.021630
 30
0.0
 10
1.643214
 20
9.021630
 30
0.0
 10
1.632675
 20
9.069952
 30
0.0
 10
1.570401
 20
9.069952
 30
0.0
 10
1.481620
 20
9.469584
 30
0.0
 10
1.543894
 20
9.469584
 30
0.0
 10
1.533356
 20
9.517906
 30
0.0
 10
1.344936
 20
9.517906
 30
0.0
 10
1.355474
 20
9.469584
 30
0.0
 10
1.417749
 20
9.469584
 30
0.0
 10
1.506530
 20
9.069952
 30
0.0
 10
1.444255
 20
9.069952
 30
0.0
  0
SPLINE
  5
10e
100
AcDbEntity
  8
Capa_1
 62
7
100
AcDbSpline
 70
8
 71
3
 72
8
 73
4
 74
0
 40
0
 40
0
 40
0
 40
0
 40
1
 40
1
 40
1
 40
1
 10
0.991409
 20
9.144958
 30
0.0
 10
0.973525
 20
9.170294
 30
0.0
 10
0.960005
 20
9.198524
 30
0.0
 10
0.950850
 20
9.229649
 30
0.0
  0
SPLINE
  5
10f
100
AcDbEntity
  8
Capa_1
 62
7
100
AcDbSpline
 70
8
 71
3
 72
8
 73
4
 74
0
 40
0
 40
0
 40
0
 40
0
 40
1
 40
1
 40
1
 40
1
 10
0.950850
 20
9.229649
 30
0.0
 10
0.941696
 20
9.260978
 30
0.0
 10
0.937118
 20
9.295420
 30
0.0
 10
0.937118
 20
9.332974
 30
0.0
  0
SPLINE
  5
110
100
AcDbEntity
  8
Capa_1
 62
7
100
AcDbSpline
 70
8
 71
3
 72
8
 73
4
 74
0
 40
0
 40
0
 40
0
 40
0
 40
1
 40
1
 40
1
 40
1
 10
0.937118
 20
9.332974
 30
0.0
 10
0.937118
 20
9.378334
 30
0.0
 10
0.948083
 20
9.413106
 30
0.0
 10
0.970011
 20
9.437291
 30
0.0
  0
SPLINE
  5
111
100
AcDbEntity
  8
Capa_1
 62
7
100
AcDbSpline
 70
8
 71
3
 72
8
 73
4
 74
0
 40
0
 40
0
 40
0
 40
0
 40
1
 40
1
 40
1
 40
1
 10
0.970011
 20
9.437291
 30
0.0
 10
0.991728
 20
9.461741
 30
0.0
 10
1.022173
 20
9.473966
 30
0.0
 10
1.061347
 20
9.473966
 30
0.0
  0
SPLINE
  5
112
100
AcDbEntity
  8
Capa_1
 62
7
100
AcDbSpline
 70
8
 71
3
 72
8
 73
4
 74
0
 40
0
 40
0
 40
0
 40
0
 40
1
 40
1
 40
1
 40
1
 10
1.061347
 20
9.473966
 30
0.0
 10
1.091793
 20
9.473966
 30
0.0
 10
1.119257
 20
9.466645
 30
0.0
 10
1.143741
 20
9.452002
 30
0.0
  0
SPLINE
  5
113
100
AcDbEntity
  8
Capa_1
 62
7
100
AcDbSpline
 70
8
 71
3
 72
8
 73
4
 74
0
 40
0
 40
0
 40
0
 40
0
 40
1
 40
1
 40
1
 40
1
 10
1.143741
 20
9.452002
 30
0.0
 10
1.168225
 20
9.437563
 30
0.0
 10
1.189302
 20
9.417914
 30
0.0
 10
1.206973
 20
9.393055
 30
0.0
  0
SPLINE
  5
114
100
AcDbEntity
  8
Capa_1
 62
7
100
AcDbSpline
 70
8
 71
3
 72
8
 73
4
 74
0
 40
0
 40
0
 40
0
 40
0
 40
1
 40
1
 40
1
 40
1
 10
1.206973
 20
9.393055
 30
0.0
 10
1.224006
 20
9.368605
 30
0.0
 10
1.237099
 20
9.340170
 30
0.0
 10
1.246254
 20
9.307751
 30
0.0
  0
SPLINE
  5
115
100
AcDbEntity
  8
Capa_1
 62
7
100
AcDbSpline
 70
8
 71
3
 72
8
 73
4
 74
0
 40
0
 40
0
 40
0
 40
0
 40
1
 40
1
 40
1
 40
1
 10
1.246254
 20
9.307751
 30
0.0
 10
1.255409
 20
9.275536
 30
0.0
 10
1.259987
 20
9.242334
 30
0.0
 10
1.259987
 20
9.208144
 30
0.0
  0
SPLINE
  5
116
100
AcDbEntity
  8
Capa_1
 62
7
100
AcDbSpline
 70
8
 71
3
 72
8
 73
4
 74
0
 40
0
 40
0
 40
0
 40
0
 40
1
 40
1
 40
1
 40
1
 10
1.259987
 20
9.208144
 30
0.0
 10
1.259987
 20
9.162376
 30
0.0
 10
1.249128
 20
9.127158
 30
0.0
 10
1.227412
 20
9.102490
 30
0.0
  0
SPLINE
  5
117
100
AcDbEntity
  8
Capa_1
 62
7
100
AcDbSpline
 70
8
 71
3
 72
8
 73
4
 74
0
 40
0
 40
0
 40
0
 40
0
 40
1
 40
1
 40
1
 40
1
 10
1.227412
 20
9.102490
 30
0.0
 10
1.205483
 20
9.078039
 30
0.0
 10
1.174825
 20
9.065814
 30
0.0
 10
1.135438
 20
9.065814
 30
0.0
  0
SPLINE
  5
118
100
AcDbEntity
  8
Capa_1
 62
7
100
AcDbSpline
 70
8
 71
3
 72
8
 73
4
 74
0
 40
0
 40
0
 40
0
 40
0
 40
1
 40
1
 40
1
 40
1
 10
1.135438
 20
9.065814
 30
0.0
 10
1.105418
 20
9.065814
 30
0.0
 10
1.078167
 20
9.073033
 30
0.0
 10
1.053683
 20
9.087472
 30
0.0
  0
SPLINE
  5
119
100
AcDbEntity
  8
Capa_1
 62
7
100
AcDbSpline
 70
8
 71
3
 72
8
 73
4
 74
0
 40
0
 40
0
 40
0
 40
0
 40
1
 40
1
 40
1
 40
1
 10
1.053683
 20
9.087472
 30
0.0
 10
1.028986
 20
9.101911
 30
0.0
 10
1.008228
 20
9.121117
 30
0.0
 10
0.991408
 20
9.145091
 30
0.0
  0
LWPOLYLINE
  5
11a
100
AcDbEntity
  8
Capa_1
 62
7
100
AcDbPolyline
 90
1
 70
1
 10
0.870372
 20
9.342251
 30
0.0
  0
SPLINE
  5
11b
100
AcDbEntity
  8
Capa_1
 62
7
100
AcDbSpline
 70
8
 71
3
 72
8
 73
4
 74
0
 40
0
 40
0
 40
0
 40
0
 40
1
 40
1
 40
1
 40
1
 10
0.664708
 20
9.011301
 30
0.0
 10
0.711334
 20
9.011301
 30
0.0
 10
0.747527
 20
9.026285
 30
0.0
 10
0.773289
 20
9.056252
 30
0.0
  0
SPLINE
  5
11c
100
AcDbEntity
  8
Capa_1
 62
7
100
AcDbSpline
 70
8
 71
3
 72
8
 73
4
 74
0
 40
0
 40
0
 40
0
 40
0
 40
1
 40
1
 40
1
 40
1
 10
0.773289
 20
9.056252
 30
0.0
 10
0.799050
 20
9.086491
 30
0.0
 10
0.811931
 20
9.127710
 30
0.0
 10
0.811931
 20
9.179907
 30
0.0
  0
SPLINE
  5
11d
100
AcDbEntity
  8
Capa_1
 62
7
100
AcDbSpline
 70
8
 71
3
 72
8
 73
4
 74
0
 40
0
 40
0
 40
0
 40
0
 40
1
 40
1
 40
1
 40
1
 10
0.811931
 20
9.179907
 30
0.0
 10
0.811931
 20
9.227923
 30
0.0
 10
0.805437
 20
9.272587
 30
0.0
 10
0.792450
 20
9.313901
 30
0.0
  0
SPLINE
  5
11e
100
AcDbEntity
  8
Capa_1
 62
7
100
AcDbSpline
 70
8
 71
3
 72
8
 73
4
 74
0
 40
0
 40
0
 40
0
 40
0
 40
1
 40
1
 40
1
 40
1
 10
0.792450
 20
9.313901
 30
0.0
 10
0.779462
 20
9.355446
 30
0.0
 10
0.760407
 20
9.392333
 30
0.0
 10
0.735285
 20
9.424561
 30
0.0
  0
SPLINE
  5
11f
100
AcDbEntity
  8
Capa_1
 62
7
100
AcDbSpline
 70
8
 71
3
 72
8
 73
4
 74
0
 40
0
 40
0
 40
0
 40
0
 40
1
 40
1
 40
1
 40
1
 10
0.735285
 20
9.424561
 30
0.0
 10
0.710588
 20
9.455891
 30
0.0
 10
0.679929
 20
9.480784
 30
0.0
 10
0.643310
 20
9.499241
 30
0.0
  0
SPLINE
  5
120
100
AcDbEntity
  8
Capa_1
 62
7
100
AcDbSpline
 70
8
 71
3
 72
8
 73
4
 74
0
 40
0
 40
0
 40
0
 40
0
 40
1
 40
1
 40
1
 40
1
 10
0.643310
 20
9.499241
 30
0.0
 10
0.606478
 20
9.517902
 30
0.0
 10
0.565281
 20
9.527233
 30
0.0
 10
0.519719
 20
9.527233
 30
0.0
  0
SPLINE
  5
121
100
AcDbEntity
  8
Capa_1
 62
7
100
AcDbSpline
 70
8
 71
3
 72
8
 73
4
 74
0
 40
0
 40
0
 40
0
 40
0
 40
1
 40
1
 40
1
 40
1
 10
0.519719
 20
9.527233
 30
0.0
 10
0.506307
 20
9.527233
 30
0.0
 10
0.495129
 20
9.526552
 30
0.0
 10
0.486187
 20
9.525190
 30
0.0
  0
SPLINE
  5
122
100
AcDbEntity
  8
Capa_1
 62
7
100
AcDbSpline
 70
8
 71
3
 72
8
 73
4
 74
0
 40
0
 40
0
 40
0
 40
0
 40
1
 40
1
 40
1
 40
1
 10
0.486187
 20
9.525190
 30
0.0
 10
0.477245
 20
9.523828
 30
0.0
 10
0.469793
 20
9.522125
 30
0.0
 10
0.463832
 20
9.520082
 30
0.0
  0
LWPOLYLINE
  5
123
100
AcDbEntity
  8
Capa_1
 62
7
100
AcDbPolyline
 90
2
 70
0
 10
0.991408
 20
9.145091
 30
0.0
 10
0.991409
 20
9.144958
 30
0.0
  0
SPLINE
  5
124
100
AcDbEntity
  8
Capa_1
 62
7
100
AcDbSpline
 70
8
 71
3
 72
8
 73
4
 74
0
 40
0
 40
0
 40
0
 40
0
 40
1
 40
1
 40
1
 40
1
 10
0.478200
 20
9.461135
 30
0.0
 10
0.483095
 20
9.463859
 30
0.0
 10
0.491504
 20
9.466584
 30
0.0
 10
0.503429
 20
9.469308
 30
0.0
  0
SPLINE
  5
125
100
AcDbEntity
  8
Capa_1
 62
7
100
AcDbSpline
 70
8
 71
3
 72
8
 73
4
 74
0
 40
0
 40
0
 40
0
 40
0
 40
1
 40
1
 40
1
 40
1
 10
0.503429
 20
9.469308
 30
0.0
 10
0.515139
 20
9.472032
 30
0.0
 10
0.527274
 20
9.473394
 30
0.0
 10
0.539836
 20
9.473394
 30
0.0
  0
SPLINE
  5
126
100
AcDbEntity
  8
Capa_1
 62
7
100
AcDbSpline
 70
8
 71
3
 72
8
 73
4
 74
0
 40
0
 40
0
 40
0
 40
0
 40
1
 40
1
 40
1
 40
1
 10
0.539836
 20
9.473394
 30
0.0
 10
0.585397
 20
9.473394
 30
0.0
 10
0.625955
 20
9.457832
 30
0.0
 10
0.661510
 20
9.426707
 30
0.0
  0
SPLINE
  5
127
100
AcDbEntity
  8
Capa_1
 62
7
100
AcDbSpline
 70
8
 71
3
 72
8
 73
4
 74
0
 40
0
 40
0
 40
0
 40
0
 40
1
 40
1
 40
1
 40
1
 10
0.661510
 20
9.426707
 30
0.0
 10
0.697065
 20
9.395854
 30
0.0
 10
0.721017
 20
9.355634
 30
0.0
 10
0.733366
 20
9.306045
 30
0.0
  0
SPLINE
  5
128
100
AcDbEntity
  8
Capa_1
 62
7
100
AcDbSpline
 70
8
 71
3
 72
8
 73
4
 74
0
 40
0
 40
0
 40
0
 40
0
 40
1
 40
1
 40
1
 40
1
 10
0.733366
 20
9.306045
 30
0.0
 10
0.714843
 20
9.316942
 30
0.0
 10
0.695043
 20
9.325489
 30
0.0
 10
0.673965
 20
9.331687
 30
0.0
  0
SPLINE
  5
129
100
AcDbEntity
  8
Capa_1
 62
7
100
AcDbSpline
 70
8
 71
3
 72
8
 73
4
 74
0
 40
0
 40
0
 40
0
 40
0
 40
1
 40
1
 40
1
 40
1
 10
0.673965
 20
9.331687
 30
0.0
 10
0.652888
 20
9.337817
 30
0.0
 10
0.631917
 20
9.340882
 30
0.0
 10
0.611052
 20
9.340882
 30
0.0
  0
SPLINE
  5
12a
100
AcDbEntity
  8
Capa_1
 62
7
100
AcDbSpline
 70
8
 71
3
 72
8
 73
4
 74
0
 40
0
 40
0
 40
0
 40
0
 40
1
 40
1
 40
1
 40
1
 10
0.611052
 20
9.340882
 30
0.0
 10
0.591465
 20
9.340882
 30
0.0
 10
0.573687
 20
9.338157
 30
0.0
 10
0.557720
 20
9.332709
 30
0.0
  0
SPLINE
  5
12b
100
AcDbEntity
  8
Capa_1
 62
7
100
AcDbSpline
 70
8
 71
3
 72
8
 73
4
 74
0
 40
0
 40
0
 40
0
 40
0
 40
1
 40
1
 40
1
 40
1
 10
0.557720
 20
9.332709
 30
0.0
 10
0.541539
 20
9.327941
 30
0.0
 10
0.527062
 20
9.319837
 30
0.0
 10
0.514287
 20
9.308395
 30
0.0
  0
SPLINE
  5
12c
100
AcDbEntity
  8
Capa_1
 62
7
100
AcDbSpline
 70
8
 71
3
 72
8
 73
4
 74
0
 40
0
 40
0
 40
0
 40
0
 40
1
 40
1
 40
1
 40
1
 10
0.514287
 20
9.308395
 30
0.0
 10
0.500662
 20
9.296408
 30
0.0
 10
0.490549
 20
9.282173
 30
0.0
 10
0.483949
 20
9.265691
 30
0.0
  0
SPLINE
  5
12d
100
AcDbEntity
  8
Capa_1
 62
7
100
AcDbSpline
 70
8
 71
3
 72
8
 73
4
 74
0
 40
0
 40
0
 40
0
 40
0
 40
1
 40
1
 40
1
 40
1
 10
0.483949
 20
9.265691
 30
0.0
 10
0.477349
 20
9.249210
 30
0.0
 10
0.474049
 20
9.230310
 30
0.0
 10
0.474049
 20
9.208992
 30
0.0
  0
SPLINE
  5
12e
100
AcDbEntity
  8
Capa_1
 62
7
100
AcDbSpline
 70
8
 71
3
 72
8
 73
4
 74
0
 40
0
 40
0
 40
0
 40
0
 40
1
 40
1
 40
1
 40
1
 10
0.474049
 20
9.208992
 30
0.0
 10
0.474049
 20
9.154302
 30
0.0
 10
0.492145
 20
9.107751
 30
0.0
 10
0.528339
 20
9.069339
 30
0.0
  0
SPLINE
  5
12f
100
AcDbEntity
  8
Capa_1
 62
7
100
AcDbSpline
 70
8
 71
3
 72
8
 73
4
 74
0
 40
0
 40
0
 40
0
 40
0
 40
1
 40
1
 40
1
 40
1
 10
0.528339
 20
9.069339
 30
0.0
 10
0.564319
 20
9.030926
 30
0.0
 10
0.609774
 20
9.011720
 30
0.0
 10
0.664704
 20
9.011720
 30
0.0
  0
LWPOLYLINE
  5
130
100
AcDbEntity
  8
Capa_1
 62
7
100
AcDbPolyline
 90
3
 70
0
 10
0.463832
 20
9.520082
 30
0.0
 10
0.475009
 20
9.461135
 30
0.0
 10
0.478200
 20
9.461135
 30
0.0
  0
SPLINE
  5
131
100
AcDbEntity
  8
Capa_1
 62
7
100
AcDbSpline
 70
8
 71
3
 72
8
 73
4
 74
0
 40
0
 40
0
 40
0
 40
0
 40
1
 40
1
 40
1
 40
1
 10
0.540478
 20
9.201289
 30
0.0
 10
0.540478
 20
9.229281
 30
0.0
 10
0.548356
 20
9.250599
 30
0.0
 10
0.564111
 20
9.265242
 30
0.0
  0
SPLINE
  5
132
100
AcDbEntity
  8
Capa_1
 62
7
100
AcDbSpline
 70
8
 71
3
 72
8
 73
4
 74
0
 40
0
 40
0
 40
0
 40
0
 40
1
 40
1
 40
1
 40
1
 10
0.564111
 20
9.265242
 30
0.0
 10
0.579866
 20
9.280157
 30
0.0
 10
0.603392
 20
9.287615
 30
0.0
 10
0.634689
 20
9.287615
 30
0.0
  0
SPLINE
  5
133
100
AcDbEntity
  8
Capa_1
 62
7
100
AcDbSpline
 70
8
 71
3
 72
8
 73
4
 74
0
 40
0
 40
0
 40
0
 40
0
 40
1
 40
1
 40
1
 40
1
 10
0.634689
 20
9.287615
 30
0.0
 10
0.650869
 20
9.287615
 30
0.0
 10
0.668221
 20
9.284891
 30
0.0
 10
0.686744
 20
9.279442
 30
0.0
  0
SPLINE
  5
134
100
AcDbEntity
  8
Capa_1
 62
7
100
AcDbSpline
 70
8
 71
3
 72
8
 73
4
 74
0
 40
0
 40
0
 40
0
 40
0
 40
1
 40
1
 40
1
 40
1
 10
0.686744
 20
9.279442
 30
0.0
 10
0.705054
 20
9.273994
 30
0.0
 10
0.723151
 20
9.266536
 30
0.0
 10
0.741035
 20
9.257069
 30
0.0
  0
SPLINE
  5
135
100
AcDbEntity
  8
Capa_1
 62
7
100
AcDbSpline
 70
8
 71
3
 72
8
 73
4
 74
0
 40
0
 40
0
 40
0
 40
0
 40
1
 40
1
 40
1
 40
1
 10
0.741035
 20
9.257069
 30
0.0
 10
0.743162
 20
9.247534
 30
0.0
 10
0.744973
 20
9.235309
 30
0.0
 10
0.746468
 20
9.220393
 30
0.0
  0
SPLINE
  5
136
100
AcDbEntity
  8
Capa_1
 62
7
100
AcDbSpline
 70
8
 71
3
 72
8
 73
4
 74
0
 40
0
 40
0
 40
0
 40
0
 40
1
 40
1
 40
1
 40
1
 10
0.746468
 20
9.220393
 30
0.0
 10
0.747747
 20
9.205750
 30
0.0
 10
0.748386
 20
9.191414
 30
0.0
 10
0.748386
 20
9.177384
 30
0.0
  0
SPLINE
  5
137
100
AcDbEntity
  8
Capa_1
 62
7
100
AcDbSpline
 70
8
 71
3
 72
8
 73
4
 74
0
 40
0
 40
0
 40
0
 40
0
 40
1
 40
1
 40
1
 40
1
 10
0.748386
 20
9.177384
 30
0.0
 10
0.748386
 20
9.155862
 30
0.0
 10
0.745724
 20
9.137745
 30
0.0
 10
0.740399
 20
9.123034
 30
0.0
  0
SPLINE
  5
138
100
AcDbEntity
  8
Capa_1
 62
7
100
AcDbSpline
 70
8
 71
3
 72
8
 73
4
 74
0
 40
0
 40
0
 40
0
 40
0
 40
1
 40
1
 40
1
 40
1
 10
0.740399
 20
9.123034
 30
0.0
 10
0.734865
 20
9.108391
 30
0.0
 10
0.728158
 20
9.096847
 30
0.0
 10
0.720279
 20
9.088402
 30
0.0
  0
SPLINE
  5
139
100
AcDbEntity
  8
Capa_1
 62
7
100
AcDbSpline
 70
8
 71
3
 72
8
 73
4
 74
0
 40
0
 40
0
 40
0
 40
0
 40
1
 40
1
 40
1
 40
1
 10
0.720279
 20
9.088402
 30
0.0
 10
0.711763
 20
9.079275
 30
0.0
 10
0.702076
 20
9.072737
 30
0.0
 10
0.691218
 20
9.068787
 30
0.0
  0
SPLINE
  5
13a
100
AcDbEntity
  8
Capa_1
 62
7
100
AcDbSpline
 70
8
 71
3
 72
8
 73
4
 74
0
 40
0
 40
0
 40
0
 40
0
 40
1
 40
1
 40
1
 40
1
 10
0.691218
 20
9.068787
 30
0.0
 10
0.680147
 20
9.064701
 30
0.0
 10
0.668757
 20
9.062657
 30
0.0
 10
0.657048
 20
9.062657
 30
0.0
  0
SPLINE
  5
13b
100
AcDbEntity
  8
Capa_1
 62
7
100
AcDbSpline
 70
8
 71
3
 72
8
 73
4
 74
0
 40
0
 40
0
 40
0
 40
0
 40
1
 40
1
 40
1
 40
1
 10
0.657048
 20
9.062657
 30
0.0
 10
0.622557
 20
9.062657
 30
0.0
 10
0.594560
 20
9.075325
 30
0.0
 10
0.573057
 20
9.100661
 30
0.0
  0
SPLINE
  5
13c
100
AcDbEntity
  8
Capa_1
 62
7
100
AcDbSpline
 70
8
 71
3
 72
8
 73
4
 74
0
 40
0
 40
0
 40
0
 40
0
 40
1
 40
1
 40
1
 40
1
 10
0.573057
 20
9.100661
 30
0.0
 10
0.551341
 20
9.125997
 30
0.0
 10
0.540483
 20
9.159335
 30
0.0
 10
0.540483
 20
9.200676
 30
0.0
  0
LWPOLYLINE
  5
13d
100
AcDbEntity
  8
Capa_1
 62
7
100
AcDbPolyline
 90
2
 70
0
 10
0.664704
 20
9.011720
 30
0.0
 10
0.664708
 20
9.011301
 30
0.0
  0
LWPOLYLINE
  5
13e
100
AcDbEntity
  8
Capa_1
 62
7
100
AcDbPolyline
 90
2
 70
0
 10
0.540483
 20
9.200676
 30
0.0
 10
0.540478
 20
9.201289
 30
0.0
  0
SPLINE
  5
13f
100
AcDbEntity
  8
Capa_1
 62
7
100
AcDbSpline
 70
8
 71
3
 72
8
 73
4
 74
0
 40
0
 40
0
 40
0
 40
0
 40
1
 40
1
 40
1
 40
1
 10
0.870373
 20
7.635749
 30
0.0
 10
0.870373
 20
7.592637
 30
0.0
 10
0.876653
 20
7.551085
 30
0.0
 10
0.889215
 20
7.511093
 30
0.0
  0
SPLINE
  5
140
100
AcDbEntity
  8
Capa_1
 62
7
100
AcDbSpline
 70
8
 71
3
 72
8
 73
4
 74
0
 40
0
 40
0
 40
0
 40
0
 40
1
 40
1
 40
1
 40
1
 10
0.889215
 20
7.511093
 30
0.0
 10
0.901563
 20
7.471114
 30
0.0
 10
0.919554
 20
7.435896
 30
0.0
 10
0.943186
 20
7.405438
 30
0.0
  0
SPLINE
  5
141
100
AcDbEntity
  8
Capa_1
 62
7
100
AcDbSpline
 70
8
 71
3
 72
8
 73
4
 74
0
 40
0
 40
0
 40
0
 40
0
 40
1
 40
1
 40
1
 40
1
 10
0.943186
 20
7.405438
 30
0.0
 10
0.967457
 20
7.374109
 30
0.0
 10
0.996624
 20
7.349454
 30
0.0
 10
1.030689
 20
7.331474
 30
0.0
  0
SPLINE
  5
142
100
AcDbEntity
  8
Capa_1
 62
7
100
AcDbSpline
 70
8
 71
3
 72
8
 73
4
 74
0
 40
0
 40
0
 40
0
 40
0
 40
1
 40
1
 40
1
 40
1
 10
1.030689
 20
7.331474
 30
0.0
 10
1.064754
 20
7.313698
 30
0.0
 10
1.103183
 20
7.304810
 30
0.0
 10
1.145976
 20
7.304810
 30
0.0
  0
SPLINE
  5
143
100
AcDbEntity
  8
Capa_1
 62
7
100
AcDbSpline
 70
8
 71
3
 72
8
 73
4
 74
0
 40
0
 40
0
 40
0
 40
0
 40
1
 40
1
 40
1
 40
1
 10
1.145976
 20
7.304810
 30
0.0
 10
1.202609
 20
7.304810
 30
0.0
 10
1.246893
 20
7.320917
 30
0.0
 10
1.278829
 20
7.353132
 30
0.0
  0
SPLINE
  5
144
100
AcDbEntity
  8
Capa_1
 62
7
100
AcDbSpline
 70
8
 71
3
 72
8
 73
4
 74
0
 40
0
 40
0
 40
0
 40
0
 40
1
 40
1
 40
1
 40
1
 10
1.278829
 20
7.353132
 30
0.0
 10
1.310764
 20
7.385551
 30
0.0
 10
1.326732
 20
7.431547
 30
0.0
 10
1.326732
 20
7.491120
 30
0.0
  0
SPLINE
  5
145
100
AcDbEntity
  8
Capa_1
 62
7
100
AcDbSpline
 70
8
 71
3
 72
8
 73
4
 74
0
 40
0
 40
0
 40
0
 40
0
 40
1
 40
1
 40
1
 40
1
 10
1.326732
 20
7.491120
 30
0.0
 10
1.326732
 20
7.536480
 30
0.0
 10
1.320345
 20
7.578808
 30
0.0
 10
1.307571
 20
7.618106
 30
0.0
  0
SPLINE
  5
146
100
AcDbEntity
  8
Capa_1
 62
7
100
AcDbSpline
 70
8
 71
3
 72
8
 73
4
 74
0
 40
0
 40
0
 40
0
 40
0
 40
1
 40
1
 40
1
 40
1
 10
1.307571
 20
7.618106
 30
0.0
 10
1.294796
 20
7.657404
 30
0.0
 10
1.276380
 20
7.692513
 30
0.0
 10
1.252322
 20
7.723434
 30
0.0
  0
SPLINE
  5
147
100
AcDbEntity
  8
Capa_1
 62
7
100
AcDbSpline
 70
8
 71
3
 72
8
 73
4
 74
0
 40
0
 40
0
 40
0
 40
0
 40
1
 40
1
 40
1
 40
1
 10
1.252322
 20
7.723434
 30
0.0
 10
1.228902
 20
7.753196
 30
0.0
 10
1.199948
 20
7.776966
 30
0.0
 10
1.165457
 20
7.794742
 30
0.0
  0
SPLINE
  5
148
100
AcDbEntity
  8
Capa_1
 62
7
100
AcDbSpline
 70
8
 71
3
 72
8
 73
4
 74
0
 40
0
 40
0
 40
0
 40
0
 40
1
 40
1
 40
1
 40
1
 10
1.165457
 20
7.794742
 30
0.0
 10
1.130754
 20
7.812722
 30
0.0
 10
1.092751
 20
7.821712
 30
0.0
 10
1.051447
 20
7.821712
 30
0.0
  0
SPLINE
  5
149
100
AcDbEntity
  8
Capa_1
 62
7
100
AcDbSpline
 70
8
 71
3
 72
8
 73
4
 74
0
 40
0
 40
0
 40
0
 40
0
 40
1
 40
1
 40
1
 40
1
 10
1.051447
 20
7.821712
 30
0.0
 10
0.995028
 20
7.821712
 30
0.0
 10
0.950744
 20
7.805605
 30
0.0
 10
0.918595
 20
7.773390
 30
0.0
  0
SPLINE
  5
14a
100
AcDbEntity
  8
Capa_1
 62
7
100
AcDbSpline
 70
8
 71
3
 72
8
 73
4
 74
0
 40
0
 40
0
 40
0
 40
0
 40
1
 40
1
 40
1
 40
1
 10
0.918595
 20
7.773390
 30
0.0
 10
0.886446
 20
7.741380
 30
0.0
 10
0.870372
 20
7.695496
 30
0.0
 10
0.870372
 20
7.635739
 30
0.0
  0
LWPOLYLINE
  5
14b
100
AcDbEntity
  8
Capa_1
 62
7
100
AcDbPolyline
 90
12
 70
1
 10
1.454794
 20
7.315108
 30
0.0
 10
1.643214
 20
7.315108
 30
0.0
 10
1.632675
 20
7.363430
 30
0.0
 10
1.570401
 20
7.363430
 30
0.0
 10
1.481620
 20
7.763062
 30
0.0
 10
1.543894
 20
7.763062
 30
0.0
 10
1.533356
 20
7.811384
 30
0.0
 10
1.344936
 20
7.811384
 30
0.0
 10
1.355474
 20
7.763062
 30
0.0
 10
1.417749
 20
7.763062
 30
0.0
 10
1.506530
 20
7.363430
 30
0.0
 10
1.444255
 20
7.363430
 30
0.0
  0
SPLINE
  5
14c
100
AcDbEntity
  8
Capa_1
 62
7
100
AcDbSpline
 70
8
 71
3
 72
8
 73
4
 74
0
 40
0
 40
0
 40
0
 40
0
 40
1
 40
1
 40
1
 40
1
 10
0.991409
 20
7.438436
 30
0.0
 10
0.973525
 20
7.463772
 30
0.0
 10
0.960005
 20
7.492002
 30
0.0
 10
0.950850
 20
7.523127
 30
0.0
  0
SPLINE
  5
14d
100
AcDbEntity
  8
Capa_1
 62
7
100
AcDbSpline
 70
8
 71
3
 72
8
 73
4
 74
0
 40
0
 40
0
 40
0
 40
0
 40
1
 40
1
 40
1
 40
1
 10
0.950850
 20
7.523127
 30
0.0
 10
0.941696
 20
7.554456
 30
0.0
 10
0.937118
 20
7.588898
 30
0.0
 10
0.937118
 20
7.626452
 30
0.0
  0
SPLINE
  5
14e
100
AcDbEntity
  8
Capa_1
 62
7
100
AcDbSpline
 70
8
 71
3
 72
8
 73
4
 74
0
 40
0
 40
0
 40
0
 40
0
 40
1
 40
1
 40
1
 40
1
 10
0.937118
 20
7.626452
 30
0.0
 10
0.937118
 20
7.671812
 30
0.0
 10
0.948083
 20
7.706584
 30
0.0
 10
0.970011
 20
7.730769
 30
0.0
  0
SPLINE
  5
14f
100
AcDbEntity
  8
Capa_1
 62
7
100
AcDbSpline
 70
8
 71
3
 72
8
 73
4
 74
0
 40
0
 40
0
 40
0
 40
0
 40
1
 40
1
 40
1
 40
1
 10
0.970011
 20
7.730769
 30
0.0
 10
0.991728
 20
7.755219
 30
0.0
 10
1.022173
 20
7.767444
 30
0.0
 10
1.061347
 20
7.767444
 30
0.0
  0
SPLINE
  5
150
100
AcDbEntity
  8
Capa_1
 62
7
100
AcDbSpline
 70
8
 71
3
 72
8
 73
4
 74
0
 40
0
 40
0
 40
0
 40
0
 40
1
 40
1
 40
1
 40
1
 10
1.061347
 20
7.767444
 30
0.0
 10
1.091793
 20
7.767444
 30
0.0
 10
1.119257
 20
7.760123
 30
0.0
 10
1.143741
 20
7.745480
 30
0.0
  0
SPLINE
  5
151
100
AcDbEntity
  8
Capa_1
 62
7
100
AcDbSpline
 70
8
 71
3
 72
8
 73
4
 74
0
 40
0
 40
0
 40
0
 40
0
 40
1
 40
1
 40
1
 40
1
 10
1.143741
 20
7.745480
 30
0.0
 10
1.168225
 20
7.731041
 30
0.0
 10
1.189302
 20
7.711392
 30
0.0
 10
1.206973
 20
7.686533
 30
0.0
  0
SPLINE
  5
152
100
AcDbEntity
  8
Capa_1
 62
7
100
AcDbSpline
 70
8
 71
3
 72
8
 73
4
 74
0
 40
0
 40
0
 40
0
 40
0
 40
1
 40
1
 40
1
 40
1
 10
1.206973
 20
7.686533
 30
0.0
 10
1.224006
 20
7.662083
 30
0.0
 10
1.237099
 20
7.633648
 30
0.0
 10
1.246254
 20
7.601229
 30
0.0
  0
SPLINE
  5
153
100
AcDbEntity
  8
Capa_1
 62
7
100
AcDbSpline
 70
8
 71
3
 72
8
 73
4
 74
0
 40
0
 40
0
 40
0
 40
0
 40
1
 40
1
 40
1
 40
1
 10
1.246254
 20
7.601229
 30
0.0
 10
1.255409
 20
7.569014
 30
0.0
 10
1.259987
 20
7.535812
 30
0.0
 10
1.259987
 20
7.501622
 30
0.0
  0
SPLINE
  5
154
100
AcDbEntity
  8
Capa_1
 62
7
100
AcDbSpline
 70
8
 71
3
 72
8
 73
4
 74
0
 40
0
 40
0
 40
0
 40
0
 40
1
 40
1
 40
1
 40
1
 10
1.259987
 20
7.501622
 30
0.0
 10
1.259987
 20
7.455854
 30
0.0
 10
1.249128
 20
7.420636
 30
0.0
 10
1.227412
 20
7.395968
 30
0.0
  0
SPLINE
  5
155
100
AcDbEntity
  8
Capa_1
 62
7
100
AcDbSpline
 70
8
 71
3
 72
8
 73
4
 74
0
 40
0
 40
0
 40
0
 40
0
 40
1
 40
1
 40
1
 40
1
 10
1.227412
 20
7.395968
 30
0.0
 10
1.205483
 20
7.371517
 30
0.0
 10
1.174825
 20
7.359292
 30
0.0
 10
1.135438
 20
7.359292
 30
0.0
  0
SPLINE
  5
156
100
AcDbEntity
  8
Capa_1
 62
7
100
AcDbSpline
 70
8
 71
3
 72
8
 73
4
 74
0
 40
0
 40
0
 40
0
 40
0
 40
1
 40
1
 40
1
 40
1
 10
1.135438
 20
7.359292
 30
0.0
 10
1.105418
 20
7.359292
 30
0.0
 10
1.078167
 20
7.366512
 30
0.0
 10
1.053683
 20
7.380950
 30
0.0
  0
SPLINE
  5
157
100
AcDbEntity
  8
Capa_1
 62
7
100
AcDbSpline
 70
8
 71
3
 72
8
 73
4
 74
0
 40
0
 40
0
 40
0
 40
0
 40
1
 40
1
 40
1
 40
1
 10
1.053683
 20
7.380950
 30
0.0
 10
1.028986
 20
7.395389
 30
0.0
 10
1.008228
 20
7.414595
 30
0.0
 10
0.991408
 20
7.438569
 30
0.0
  0
LWPOLYLINE
  5
158
100
AcDbEntity
  8
Capa_1
 62
7
100
AcDbPolyline
 90
1
 70
1
 10
0.870372
 20
7.635739
 30
0.0
  0
LWPOLYLINE
  5
159
100
AcDbEntity
  8
Capa_1
 62
7
100
AcDbPolyline
 90
2
 70
0
 10
0.991408
 20
7.438569
 30
0.0
 10
0.991409
 20
7.438436
 30
0.0
  0
LWPOLYLINE
  5
15a
100
AcDbEntity
  8
Capa_1
 62
7
100
AcDbPolyline
 90
7
 70
1
 10
0.429023
 20
7.737072
 30
0.0
 10
0.734327
 20
7.315108
 30
0.0
 10
0.806821
 20
7.315108
 30
0.0
 10
0.482036
 20
7.755410
 30
0.0
 10
0.752850
 20
7.755410
 30
0.0
 10
0.740714
 20
7.811394
 30
0.0
 10
0.412736
 20
7.811394
 30
0.0
  0
LWPOLYLINE
  5
15b
100
AcDbEntity
  8
Capa_1
 62
7
100
AcDbPolyline
 90
8
 70
1
 10
1.242742
 20
5.608586
 30
0.0
 10
1.306932
 20
5.608586
 30
0.0
 10
1.322900
 20
5.748239
 30
0.0
 10
1.527926
 20
5.748239
 30
0.0
 10
1.605849
 20
5.608586
 30
0.0
 10
1.672595
 20
5.608586
 30
0.0
 10
1.389645
 20
6.104882
 30
0.0
 10
1.305974
 20
6.104882
 30
0.0
  0
SPLINE
  5
15c
100
AcDbEntity
  8
Capa_1
 62
7
100
AcDbSpline
 70
8
 71
3
 72
8
 73
4
 74
0
 40
0
 40
0
 40
0
 40
0
 40
1
 40
1
 40
1
 40
1
 10
0.713250
 20
5.914567
 30
0.0
 10
0.713250
 20
5.860354
 30
0.0
 10
0.726450
 20
5.809021
 30
0.0
 10
0.752850
 20
5.760570
 30
0.0
  0
SPLINE
  5
15d
100
AcDbEntity
  8
Capa_1
 62
7
100
AcDbSpline
 70
8
 71
3
 72
8
 73
4
 74
0
 40
0
 40
0
 40
0
 40
0
 40
1
 40
1
 40
1
 40
1
 10
0.752850
 20
5.760570
 30
0.0
 10
0.779250
 20
5.712146
 30
0.0
 10
0.815338
 20
5.674707
 30
0.0
 10
0.861112
 20
5.648255
 30
0.0
  0
SPLINE
  5
15e
100
AcDbEntity
  8
Capa_1
 62
7
100
AcDbSpline
 70
8
 71
3
 72
8
 73
4
 74
0
 40
0
 40
0
 40
0
 40
0
 40
1
 40
1
 40
1
 40
1
 10
0.861112
 20
5.648255
 30
0.0
 10
0.889215
 20
5.632454
 30
0.0
 10
0.917957
 20
5.621897
 30
0.0
 10
0.947338
 20
5.616585
 30
0.0
  0
SPLINE
  5
15f
100
AcDbEntity
  8
Capa_1
 62
7
100
AcDbSpline
 70
8
 71
3
 72
8
 73
4
 74
0
 40
0
 40
0
 40
0
 40
0
 40
1
 40
1
 40
1
 40
1
 10
0.947338
 20
5.616585
 30
0.0
 10
0.976718
 20
5.611136
 30
0.0
 10
1.010038
 20
5.608412
 30
0.0
 10
1.047296
 20
5.608412
 30
0.0
  0
LWPOLYLINE
  5
160
100
AcDbEntity
  8
Capa_1
 62
7
100
AcDbPolyline
 90
3
 70
1
 10
1.329926
 20
5.802241
 30
0.0
 10
1.359626
 20
6.047223
 30
0.0
 10
1.497588
 20
5.802241
 30
0.0
  0
SPLINE
  5
161
100
AcDbEntity
  8
Capa_1
 62
7
100
AcDbSpline
 70
8
 71
3
 72
8
 73
4
 74
0
 40
0
 40
0
 40
0
 40
0
 40
1
 40
1
 40
1
 40
1
 10
0.955321
 20
6.104708
 30
0.0
 10
0.920831
 20
6.104708
 30
0.0
 10
0.889427
 20
6.101984
 30
0.0
 10
0.861111
 20
6.096536
 30
0.0
  0
SPLINE
  5
162
100
AcDbEntity
  8
Capa_1
 62
7
100
AcDbSpline
 70
8
 71
3
 72
8
 73
4
 74
0
 40
0
 40
0
 40
0
 40
0
 40
1
 40
1
 40
1
 40
1
 10
0.861111
 20
6.096536
 30
0.0
 10
0.832582
 20
6.091768
 30
0.0
 10
0.806501
 20
6.081109
 30
0.0
 10
0.782869
 20
6.064559
 30
0.0
  0
SPLINE
  5
163
100
AcDbEntity
  8
Capa_1
 62
7
100
AcDbSpline
 70
8
 71
3
 72
8
 73
4
 74
0
 40
0
 40
0
 40
0
 40
0
 40
1
 40
1
 40
1
 40
1
 10
0.782869
 20
6.064559
 30
0.0
 10
0.760301
 20
6.048758
 30
0.0
 10
0.743055
 20
6.028088
 30
0.0
 10
0.731132
 20
6.002548
 30
0.0
  0
SPLINE
  5
164
100
AcDbEntity
  8
Capa_1
 62
7
100
AcDbSpline
 70
8
 71
3
 72
8
 73
4
 74
0
 40
0
 40
0
 40
0
 40
0
 40
1
 40
1
 40
1
 40
1
 10
0.731132
 20
6.002548
 30
0.0
 10
0.719210
 20
5.977212
 30
0.0
 10
0.713249
 20
5.947653
 30
0.0
 10
0.713249
 20
5.913872
 30
0.0
  0
LWPOLYLINE
  5
165
100
AcDbEntity
  8
Capa_1
 62
7
100
AcDbPolyline
 90
4
 70
0
 10
1.047296
 20
5.608412
 30
0.0
 10
1.175677
 20
5.608412
 30
0.0
 10
1.065819
 20
6.104708
 30
0.0
 10
0.955321
 20
6.104708
 30
0.0
  0
SPLINE
  5
166
100
AcDbEntity
  8
Capa_1
 62
7
100
AcDbSpline
 70
8
 71
3
 72
8
 73
4
 74
0
 40
0
 40
0
 40
0
 40
0
 40
1
 40
1
 40
1
 40
1
 10
0.779996
 20
5.908437
 30
0.0
 10
0.779996
 20
5.933773
 30
0.0
 10
0.784360
 20
5.955533
 30
0.0
 10
0.793089
 20
5.973718
 30
0.0
  0
SPLINE
  5
167
100
AcDbEntity
  8
Capa_1
 62
7
100
AcDbSpline
 70
8
 71
3
 72
8
 73
4
 74
0
 40
0
 40
0
 40
0
 40
0
 40
1
 40
1
 40
1
 40
1
 10
0.793089
 20
5.973718
 30
0.0
 10
0.801605
 20
5.992175
 30
0.0
 10
0.814592
 20
6.007499
 30
0.0
 10
0.832050
 20
6.019690
 30
0.0
  0
SPLINE
  5
168
100
AcDbEntity
  8
Capa_1
 62
7
100
AcDbSpline
 70
8
 71
3
 72
8
 73
4
 74
0
 40
0
 40
0
 40
0
 40
0
 40
1
 40
1
 40
1
 40
1
 10
0.832050
 20
6.019690
 30
0.0
 10
0.849295
 20
6.031677
 30
0.0
 10
0.867711
 20
6.039680
 30
0.0
 10
0.887298
 20
6.043698
 30
0.0
  0
SPLINE
  5
169
100
AcDbEntity
  8
Capa_1
 62
7
100
AcDbSpline
 70
8
 71
3
 72
8
 73
4
 74
0
 40
0
 40
0
 40
0
 40
0
 40
1
 40
1
 40
1
 40
1
 10
0.887298
 20
6.043698
 30
0.0
 10
0.906886
 20
6.047785
 30
0.0
 10
0.931689
 20
6.049828
 30
0.0
 10
0.961708
 20
6.049828
 30
0.0
  0
LWPOLYLINE
  5
16a
100
AcDbEntity
  8
Capa_1
 62
7
100
AcDbPolyline
 90
2
 70
0
 10
0.713249
 20
5.913872
 30
0.0
 10
0.713250
 20
5.914567
 30
0.0
  0
SPLINE
  5
16b
100
AcDbEntity
  8
Capa_1
 62
7
100
AcDbSpline
 70
8
 71
3
 72
8
 73
4
 74
0
 40
0
 40
0
 40
0
 40
0
 40
1
 40
1
 40
1
 40
1
 10
1.034522
 20
5.662189
 30
0.0
 10
1.004076
 20
5.662189
 30
0.0
 10
0.976931
 20
5.664914
 30
0.0
 10
0.953086
 20
5.670362
 30
0.0
  0
SPLINE
  5
16c
100
AcDbEntity
  8
Capa_1
 62
7
100
AcDbSpline
 70
8
 71
3
 72
8
 73
4
 74
0
 40
0
 40
0
 40
0
 40
0
 40
1
 40
1
 40
1
 40
1
 10
0.953086
 20
5.670362
 30
0.0
 10
0.929028
 20
5.675811
 30
0.0
 10
0.906353
 20
5.684801
 30
0.0
 10
0.885063
 20
5.697333
 30
0.0
  0
SPLINE
  5
16d
100
AcDbEntity
  8
Capa_1
 62
7
100
AcDbSpline
 70
8
 71
3
 72
8
 73
4
 74
0
 40
0
 40
0
 40
0
 40
0
 40
1
 40
1
 40
1
 40
1
 10
0.885063
 20
5.697333
 30
0.0
 10
0.850786
 20
5.717765
 30
0.0
 10
0.824705
 20
5.747221
 30
0.0
 10
0.806821
 20
5.785702
 30
0.0
  0
SPLINE
  5
16e
100
AcDbEntity
  8
Capa_1
 62
7
100
AcDbSpline
 70
8
 71
3
 72
8
 73
4
 74
0
 40
0
 40
0
 40
0
 40
0
 40
1
 40
1
 40
1
 40
1
 10
0.806821
 20
5.785702
 30
0.0
 10
0.788937
 20
5.824386
 30
0.0
 10
0.779996
 20
5.865383
 30
0.0
 10
0.779996
 20
5.908693
 30
0.0
  0
LWPOLYLINE
  5
16f
100
AcDbEntity
  8
Capa_1
 62
7
100
AcDbPolyline
 90
4
 70
0
 10
0.961708
 20
6.049828
 30
0.0
 10
1.014402
 20
6.049828
 30
0.0
 10
1.100628
 20
5.662189
 30
0.0
 10
1.034522
 20
5.662189
 30
0.0
  0
SPLINE
  5
170
100
AcDbEntity
  8
Capa_1
 62
7
100
AcDbSpline
 70
8
 71
3
 72
8
 73
4
 74
0
 40
0
 40
0
 40
0
 40
0
 40
1
 40
1
 40
1
 40
1
 10
0.296490
 20
5.969223
 30
0.0
 10
0.296490
 20
5.925226
 30
0.0
 10
0.304368
 20
5.873454
 30
0.0
 10
0.320123
 20
5.813908
 30
0.0
  0
SPLINE
  5
171
100
AcDbEntity
  8
Capa_1
 62
7
100
AcDbSpline
 70
8
 71
3
 72
8
 73
4
 74
0
 40
0
 40
0
 40
0
 40
0
 40
1
 40
1
 40
1
 40
1
 10
0.320123
 20
5.813908
 30
0.0
 10
0.335665
 20
5.754383
 30
0.0
 10
0.355039
 20
5.708608
 30
0.0
 10
0.378246
 20
5.676584
 30
0.0
  0
SPLINE
  5
172
100
AcDbEntity
  8
Capa_1
 62
7
100
AcDbSpline
 70
8
 71
3
 72
8
 73
4
 74
0
 40
0
 40
0
 40
0
 40
0
 40
1
 40
1
 40
1
 40
1
 10
0.378246
 20
5.676584
 30
0.0
 10
0.398046
 20
5.649682
 30
0.0
 10
0.419975
 20
5.629896
 30
0.0
 10
0.444034
 20
5.617228
 30
0.0
  0
SPLINE
  5
173
100
AcDbEntity
  8
Capa_1
 62
7
100
AcDbSpline
 70
8
 71
3
 72
8
 73
4
 74
0
 40
0
 40
0
 40
0
 40
0
 40
1
 40
1
 40
1
 40
1
 10
0.444034
 20
5.617228
 30
0.0
 10
0.467879
 20
5.604561
 30
0.0
 10
0.495557
 20
5.598227
 30
0.0
 10
0.527067
 20
5.598227
 30
0.0
  0
SPLINE
  5
174
100
AcDbEntity
  8
Capa_1
 62
7
100
AcDbSpline
 70
8
 71
3
 72
8
 73
4
 74
0
 40
0
 40
0
 40
0
 40
0
 40
1
 40
1
 40
1
 40
1
 10
0.527067
 20
5.598227
 30
0.0
 10
0.570286
 20
5.598227
 30
0.0
 10
0.602434
 20
5.610213
 30
0.0
 10
0.623512
 20
5.634187
 30
0.0
  0
SPLINE
  5
175
100
AcDbEntity
  8
Capa_1
 62
7
100
AcDbSpline
 70
8
 71
3
 72
8
 73
4
 74
0
 40
0
 40
0
 40
0
 40
0
 40
1
 40
1
 40
1
 40
1
 10
0.623512
 20
5.634187
 30
0.0
 10
0.644589
 20
5.658161
 30
0.0
 10
0.655128
 20
5.694714
 30
0.0
 10
0.655128
 20
5.743846
 30
0.0
  0
SPLINE
  5
176
100
AcDbEntity
  8
Capa_1
 62
7
100
AcDbSpline
 70
8
 71
3
 72
8
 73
4
 74
0
 40
0
 40
0
 40
0
 40
0
 40
1
 40
1
 40
1
 40
1
 10
0.655128
 20
5.743846
 30
0.0
 10
0.655128
 20
5.783621
 30
0.0
 10
0.647782
 20
5.833727
 30
0.0
 10
0.633092
 20
5.894166
 30
0.0
  0
SPLINE
  5
177
100
AcDbEntity
  8
Capa_1
 62
7
100
AcDbSpline
 70
8
 71
3
 72
8
 73
4
 74
0
 40
0
 40
0
 40
0
 40
0
 40
1
 40
1
 40
1
 40
1
 10
0.633092
 20
5.894166
 30
0.0
 10
0.618188
 20
5.954645
 30
0.0
 10
0.598282
 20
6.002085
 30
0.0
 10
0.573372
 20
6.036486
 30
0.0
  0
SPLINE
  5
178
100
AcDbEntity
  8
Capa_1
 62
7
100
AcDbSpline
 70
8
 71
3
 72
8
 73
4
 74
0
 40
0
 40
0
 40
0
 40
0
 40
1
 40
1
 40
1
 40
1
 10
0.573372
 20
6.036486
 30
0.0
 10
0.554211
 20
6.063184
 30
0.0
 10
0.532388
 20
6.082832
 30
0.0
 10
0.507904
 20
6.095432
 30
0.0
  0
SPLINE
  5
179
100
AcDbEntity
  8
Capa_1
 62
7
100
AcDbSpline
 70
8
 71
3
 72
8
 73
4
 74
0
 40
0
 40
0
 40
0
 40
0
 40
1
 40
1
 40
1
 40
1
 10
0.507904
 20
6.095432
 30
0.0
 10
0.483207
 20
6.108304
 30
0.0
 10
0.455316
 20
6.114741
 30
0.0
 10
0.424232
 20
6.114741
 30
0.0
  0
SPLINE
  5
17a
100
AcDbEntity
  8
Capa_1
 62
7
100
AcDbSpline
 70
8
 71
3
 72
8
 73
4
 74
0
 40
0
 40
0
 40
0
 40
0
 40
1
 40
1
 40
1
 40
1
 10
0.424232
 20
6.114741
 30
0.0
 10
0.381226
 20
6.114741
 30
0.0
 10
0.349184
 20
6.102618
 30
0.0
 10
0.328106
 20
6.078371
 30
0.0
  0
SPLINE
  5
17b
100
AcDbEntity
  8
Capa_1
 62
7
100
AcDbSpline
 70
8
 71
3
 72
8
 73
4
 74
0
 40
0
 40
0
 40
0
 40
0
 40
1
 40
1
 40
1
 40
1
 10
0.328106
 20
6.078371
 30
0.0
 10
0.307029
 20
6.054398
 30
0.0
 10
0.296490
 20
6.017957
 30
0.0
 10
0.296490
 20
5.969049
 30
0.0
  0
LWPOLYLINE
  5
17c
100
AcDbEntity
  8
Capa_1
 62
7
100
AcDbPolyline
 90
2
 70
0
 10
0.779996
 20
5.908693
 30
0.0
 10
0.779996
 20
5.908437
 30
0.0
  0
SPLINE
  5
17d
100
AcDbEntity
  8
Capa_1
 62
7
100
AcDbSpline
 70
8
 71
3
 72
8
 73
4
 74
0
 40
0
 40
0
 40
0
 40
0
 40
1
 40
1
 40
1
 40
1
 10
0.361001
 20
5.970224
 30
0.0
 10
0.361001
 20
5.999987
 30
0.0
 10
0.366430
 20
6.022769
 30
0.0
 10
0.377288
 20
6.038570
 30
0.0
  0
SPLINE
  5
17e
100
AcDbEntity
  8
Capa_1
 62
7
100
AcDbSpline
 70
8
 71
3
 72
8
 73
4
 74
0
 40
0
 40
0
 40
0
 40
0
 40
1
 40
1
 40
1
 40
1
 10
0.377288
 20
6.038570
 30
0.0
 10
0.387933
 20
6.054370
 30
0.0
 10
0.407094
 20
6.062271
 30
0.0
 10
0.434772
 20
6.062271
 30
0.0
  0
SPLINE
  5
17f
100
AcDbEntity
  8
Capa_1
 62
7
100
AcDbSpline
 70
8
 71
3
 72
8
 73
4
 74
0
 40
0
 40
0
 40
0
 40
0
 40
1
 40
1
 40
1
 40
1
 10
0.434772
 20
6.062271
 30
0.0
 10
0.455211
 20
6.062271
 30
0.0
 10
0.473308
 20
6.057606
 30
0.0
 10
0.489063
 20
6.048275
 30
0.0
  0
SPLINE
  5
180
100
AcDbEntity
  8
Capa_1
 62
7
100
AcDbSpline
 70
8
 71
3
 72
8
 73
4
 74
0
 40
0
 40
0
 40
0
 40
0
 40
1
 40
1
 40
1
 40
1
 10
0.489063
 20
6.048275
 30
0.0
 10
0.504605
 20
6.038944
 30
0.0
 10
0.518869
 20
6.022496
 30
0.0
 10
0.531856
 20
5.998931
 30
0.0
  0
SPLINE
  5
181
100
AcDbEntity
  8
Capa_1
 62
7
100
AcDbSpline
 70
8
 71
3
 72
8
 73
4
 74
0
 40
0
 40
0
 40
0
 40
0
 40
1
 40
1
 40
1
 40
1
 10
0.531856
 20
5.998931
 30
0.0
 10
0.546759
 20
5.971620
 30
0.0
 10
0.560279
 20
5.930845
 30
0.0
 10
0.572415
 20
5.876604
 30
0.0
  0
SPLINE
  5
182
100
AcDbEntity
  8
Capa_1
 62
7
100
AcDbSpline
 70
8
 71
3
 72
8
 73
4
 74
0
 40
0
 40
0
 40
0
 40
0
 40
1
 40
1
 40
1
 40
1
 10
0.572415
 20
5.876604
 30
0.0
 10
0.584550
 20
5.822595
 30
0.0
 10
0.590618
 20
5.778043
 30
0.0
 10
0.590618
 20
5.742947
 30
0.0
  0
SPLINE
  5
183
100
AcDbEntity
  8
Capa_1
 62
7
100
AcDbSpline
 70
8
 71
3
 72
8
 73
4
 74
0
 40
0
 40
0
 40
0
 40
0
 40
1
 40
1
 40
1
 40
1
 10
0.590618
 20
5.742947
 30
0.0
 10
0.590618
 20
5.713185
 30
0.0
 10
0.585296
 20
5.690403
 30
0.0
 10
0.574650
 20
5.674602
 30
0.0
  0
SPLINE
  5
184
100
AcDbEntity
  8
Capa_1
 62
7
100
AcDbSpline
 70
8
 71
3
 72
8
 73
4
 74
0
 40
0
 40
0
 40
0
 40
0
 40
1
 40
1
 40
1
 40
1
 10
0.574650
 20
5.674602
 30
0.0
 10
0.563792
 20
5.658801
 30
0.0
 10
0.544525
 20
5.650901
 30
0.0
 10
0.516847
 20
5.650901
 30
0.0
  0
SPLINE
  5
185
100
AcDbEntity
  8
Capa_1
 62
7
100
AcDbSpline
 70
8
 71
3
 72
8
 73
4
 74
0
 40
0
 40
0
 40
0
 40
0
 40
1
 40
1
 40
1
 40
1
 10
0.516847
 20
5.650901
 30
0.0
 10
0.497473
 20
5.650901
 30
0.0
 10
0.479483
 20
5.655770
 30
0.0
 10
0.462876
 20
5.665510
 30
0.0
  0
SPLINE
  5
186
100
AcDbEntity
  8
Capa_1
 62
7
100
AcDbSpline
 70
8
 71
3
 72
8
 73
4
 74
0
 40
0
 40
0
 40
0
 40
0
 40
1
 40
1
 40
1
 40
1
 10
0.462876
 20
5.665510
 30
0.0
 10
0.446270
 20
5.675317
 30
0.0
 10
0.431899
 20
5.691527
 30
0.0
 10
0.419763
 20
5.714138
 30
0.0
  0
SPLINE
  5
187
100
AcDbEntity
  8
Capa_1
 62
7
100
AcDbSpline
 70
8
 71
3
 72
8
 73
4
 74
0
 40
0
 40
0
 40
0
 40
0
 40
1
 40
1
 40
1
 40
1
 10
0.419763
 20
5.714138
 30
0.0
 10
0.404860
 20
5.741926
 30
0.0
 10
0.391340
 20
5.782810
 30
0.0
 10
0.379204
 20
5.836792
 30
0.0
  0
SPLINE
  5
188
100
AcDbEntity
  8
Capa_1
 62
7
100
AcDbSpline
 70
8
 71
3
 72
8
 73
4
 74
0
 40
0
 40
0
 40
0
 40
0
 40
1
 40
1
 40
1
 40
1
 10
0.379204
 20
5.836792
 30
0.0
 10
0.367069
 20
5.891005
 30
0.0
 10
0.361001
 20
5.935445
 30
0.0
 10
0.361001
 20
5.970112
 30
0.0
  0
LWPOLYLINE
  5
189
100
AcDbEntity
  8
Capa_1
 62
7
100
AcDbPolyline
 90
2
 70
0
 10
0.296490
 20
5.969049
 30
0.0
 10
0.296490
 20
5.969223
 30
0.0
  0
LWPOLYLINE
  5
18a
100
AcDbEntity
  8
Capa_1
 62
7
100
AcDbPolyline
 90
2
 70
0
 10
0.361001
 20
5.970112
 30
0.0
 10
0.361001
 20
5.970224
 30
0.0
  0
LWPOLYLINE
  5
18b
100
AcDbEntity
  8
Capa_1
 62
7
100
AcDbPolyline
 90
8
 70
1
 10
1.242742
 20
3.902064
 30
0.0
 10
1.306932
 20
3.902064
 30
0.0
 10
1.322900
 20
4.041717
 30
0.0
 10
1.527926
 20
4.041717
 30
0.0
 10
1.605849
 20
3.902064
 30
0.0
 10
1.672595
 20
3.902064
 30
0.0
 10
1.389645
 20
4.398360
 30
0.0
 10
1.305974
 20
4.398360
 30
0.0
  0
SPLINE
  5
18c
100
AcDbEntity
  8
Capa_1
 62
7
100
AcDbSpline
 70
8
 71
3
 72
8
 73
4
 74
0
 40
0
 40
0
 40
0
 40
0
 40
1
 40
1
 40
1
 40
1
 10
0.713250
 20
4.208035
 30
0.0
 10
0.713250
 20
4.153822
 30
0.0
 10
0.726450
 20
4.102493
 30
0.0
 10
0.752850
 20
4.054048
 30
0.0
  0
SPLINE
  5
18d
100
AcDbEntity
  8
Capa_1
 62
7
100
AcDbSpline
 70
8
 71
3
 72
8
 73
4
 74
0
 40
0
 40
0
 40
0
 40
0
 40
1
 40
1
 40
1
 40
1
 10
0.752850
 20
4.054048
 30
0.0
 10
0.779250
 20
4.005624
 30
0.0
 10
0.815338
 20
3.968185
 30
0.0
 10
0.861112
 20
3.941733
 30
0.0
  0
SPLINE
  5
18e
100
AcDbEntity
  8
Capa_1
 62
7
100
AcDbSpline
 70
8
 71
3
 72
8
 73
4
 74
0
 40
0
 40
0
 40
0
 40
0
 40
1
 40
1
 40
1
 40
1
 10
0.861112
 20
3.941733
 30
0.0
 10
0.889215
 20
3.925932
 30
0.0
 10
0.917957
 20
3.915375
 30
0.0
 10
0.947338
 20
3.910063
 30
0.0
  0
SPLINE
  5
18f
100
AcDbEntity
  8
Capa_1
 62
7
100
AcDbSpline
 70
8
 71
3
 72
8
 73
4
 74
0
 40
0
 40
0
 40
0
 40
0
 40
1
 40
1
 40
1
 40
1
 10
0.947338
 20
3.910063
 30
0.0
 10
0.976718
 20
3.904614
 30
0.0
 10
1.010038
 20
3.901890
 30
0.0
 10
1.047296
 20
3.901890
 30
0.0
  0
LWPOLYLINE
  5
190
100
AcDbEntity
  8
Capa_1
 62
7
100
AcDbPolyline
 90
3
 70
1
 10
1.329926
 20
4.095719
 30
0.0
 10
1.359626
 20
4.340690
 30
0.0
 10
1.497588
 20
4.095719
 30
0.0
  0
SPLINE
  5
191
100
AcDbEntity
  8
Capa_1
 62
7
100
AcDbSpline
 70
8
 71
3
 72
8
 73
4
 74
0
 40
0
 40
0
 40
0
 40
0
 40
1
 40
1
 40
1
 40
1
 10
0.955321
 20
4.398186
 30
0.0
 10
0.920831
 20
4.398186
 30
0.0
 10
0.889427
 20
4.395462
 30
0.0
 10
0.861111
 20
4.390014
 30
0.0
  0
SPLINE
  5
192
100
AcDbEntity
  8
Capa_1
 62
7
100
AcDbSpline
 70
8
 71
3
 72
8
 73
4
 74
0
 40
0
 40
0
 40
0
 40
0
 40
1
 40
1
 40
1
 40
1
 10
0.861111
 20
4.390014
 30
0.0
 10
0.832582
 20
4.385246
 30
0.0
 10
0.806501
 20
4.374587
 30
0.0
 10
0.782869
 20
4.358037
 30
0.0
  0
SPLINE
  5
193
100
AcDbEntity
  8
Capa_1
 62
7
100
AcDbSpline
 70
8
 71
3
 72
8
 73
4
 74
0
 40
0
 40
0
 40
0
 40
0
 40
1
 40
1
 40
1
 40
1
 10
0.782869
 20
4.358037
 30
0.0
 10
0.760301
 20
4.342236
 30
0.0
 10
0.743055
 20
4.321566
 30
0.0
 10
0.731132
 20
4.296026
 30
0.0
  0
SPLINE
  5
194
100
AcDbEntity
  8
Capa_1
 62
7
100
AcDbSpline
 70
8
 71
3
 72
8
 73
4
 74
0
 40
0
 40
0
 40
0
 40
0
 40
1
 40
1
 40
1
 40
1
 10
0.731132
 20
4.296026
 30
0.0
 10
0.719210
 20
4.270690
 30
0.0
 10
0.713249
 20
4.241131
 30
0.0
 10
0.713249
 20
4.207350
 30
0.0
  0
LWPOLYLINE
  5
195
100
AcDbEntity
  8
Capa_1
 62
7
100
AcDbPolyline
 90
4
 70
0
 10
1.047296
 20
3.901890
 30
0.0
 10
1.175677
 20
3.901890
 30
0.0
 10
1.065819
 20
4.398186
 30
0.0
 10
0.955321
 20
4.398186
 30
0.0
  0
SPLINE
  5
196
100
AcDbEntity
  8
Capa_1
 62
7
100
AcDbSpline
 70
8
 71
3
 72
8
 73
4
 74
0
 40
0
 40
0
 40
0
 40
0
 40
1
 40
1
 40
1
 40
1
 10
0.779996
 20
4.201905
 30
0.0
 10
0.779996
 20
4.227241
 30
0.0
 10
0.784360
 20
4.249001
 30
0.0
 10
0.793089
 20
4.267186
 30
0.0
  0
SPLINE
  5
197
100
AcDbEntity
  8
Capa_1
 62
7
100
AcDbSpline
 70
8
 71
3
 72
8
 73
4
 74
0
 40
0
 40
0
 40
0
 40
0
 40
1
 40
1
 40
1
 40
1
 10
0.793089
 20
4.267186
 30
0.0
 10
0.801605
 20
4.285643
 30
0.0
 10
0.814592
 20
4.300967
 30
0.0
 10
0.832050
 20
4.313158
 30
0.0
  0
SPLINE
  5
198
100
AcDbEntity
  8
Capa_1
 62
7
100
AcDbSpline
 70
8
 71
3
 72
8
 73
4
 74
0
 40
0
 40
0
 40
0
 40
0
 40
1
 40
1
 40
1
 40
1
 10
0.832050
 20
4.313158
 30
0.0
 10
0.849295
 20
4.325145
 30
0.0
 10
0.867711
 20
4.333148
 30
0.0
 10
0.887298
 20
4.337166
 30
0.0
  0
SPLINE
  5
199
100
AcDbEntity
  8
Capa_1
 62
7
100
AcDbSpline
 70
8
 71
3
 72
8
 73
4
 74
0
 40
0
 40
0
 40
0
 40
0
 40
1
 40
1
 40
1
 40
1
 10
0.887298
 20
4.337166
 30
0.0
 10
0.906886
 20
4.341252
 30
0.0
 10
0.931689
 20
4.343296
 30
0.0
 10
0.961708
 20
4.343296
 30
0.0
  0
LWPOLYLINE
  5
19a
100
AcDbEntity
  8
Capa_1
 62
7
100
AcDbPolyline
 90
2
 70
0
 10
0.713249
 20
4.207350
 30
0.0
 10
0.713250
 20
4.208035
 30
0.0
  0
SPLINE
  5
19b
100
AcDbEntity
  8
Capa_1
 62
7
100
AcDbSpline
 70
8
 71
3
 72
8
 73
4
 74
0
 40
0
 40
0
 40
0
 40
0
 40
1
 40
1
 40
1
 40
1
 10
1.034522
 20
3.955657
 30
0.0
 10
1.004076
 20
3.955657
 30
0.0
 10
0.976931
 20
3.958381
 30
0.0
 10
0.953086
 20
3.963830
 30
0.0
  0
SPLINE
  5
19c
100
AcDbEntity
  8
Capa_1
 62
7
100
AcDbSpline
 70
8
 71
3
 72
8
 73
4
 74
0
 40
0
 40
0
 40
0
 40
0
 40
1
 40
1
 40
1
 40
1
 10
0.953086
 20
3.963830
 30
0.0
 10
0.929028
 20
3.969279
 30
0.0
 10
0.906353
 20
3.978269
 30
0.0
 10
0.885063
 20
3.990800
 30
0.0
  0
SPLINE
  5
19d
100
AcDbEntity
  8
Capa_1
 62
7
100
AcDbSpline
 70
8
 71
3
 72
8
 73
4
 74
0
 40
0
 40
0
 40
0
 40
0
 40
1
 40
1
 40
1
 40
1
 10
0.885063
 20
3.990800
 30
0.0
 10
0.850786
 20
4.011233
 30
0.0
 10
0.824705
 20
4.040689
 30
0.0
 10
0.806821
 20
4.079169
 30
0.0
  0
SPLINE
  5
19e
100
AcDbEntity
  8
Capa_1
 62
7
100
AcDbSpline
 70
8
 71
3
 72
8
 73
4
 74
0
 40
0
 40
0
 40
0
 40
0
 40
1
 40
1
 40
1
 40
1
 10
0.806821
 20
4.079169
 30
0.0
 10
0.788937
 20
4.117854
 30
0.0
 10
0.779996
 20
4.158851
 30
0.0
 10
0.779996
 20
4.202161
 30
0.0
  0
LWPOLYLINE
  5
19f
100
AcDbEntity
  8
Capa_1
 62
7
100
AcDbPolyline
 90
4
 70
0
 10
0.961708
 20
4.343296
 30
0.0
 10
1.014402
 20
4.343296
 30
0.0
 10
1.100628
 20
3.955657
 30
0.0
 10
1.034522
 20
3.955657
 30
0.0
  0
LWPOLYLINE
  5
1a0
100
AcDbEntity
  8
Capa_1
 62
7
100
AcDbPolyline
 90
2
 70
0
 10
0.779996
 20
4.202161
 30
0.0
 10
0.779996
 20
4.201905
 30
0.0
  0
SPLINE
  5
1a1
100
AcDbEntity
  8
Capa_1
 62
7
100
AcDbSpline
 70
8
 71
3
 72
8
 73
4
 74
0
 40
0
 40
0
 40
0
 40
0
 40
1
 40
1
 40
1
 40
1
 10
0.554531
 20
4.330699
 30
0.0
 10
0.517699
 20
4.330699
 30
0.0
 10
0.489170
 20
4.336046
 30
0.0
 10
0.468944
 20
4.346738
 30
0.0
  0
SPLINE
  5
1a2
100
AcDbEntity
  8
Capa_1
 62
7
100
AcDbSpline
 70
8
 71
3
 72
8
 73
4
 74
0
 40
0
 40
0
 40
0
 40
0
 40
1
 40
1
 40
1
 40
1
 10
0.468944
 20
4.346738
 30
0.0
 10
0.448504
 20
4.357635
 30
0.0
 10
0.434879
 20
4.375411
 30
0.0
 10
0.428066
 20
4.400066
 30
0.0
  0
LWPOLYLINE
  5
1a3
100
AcDbEntity
  8
Capa_1
 62
7
100
AcDbPolyline
 90
7
 70
0
 10
0.390062
 20
3.902064
 30
0.0
 10
0.648101
 20
3.902064
 30
0.0
 10
0.637243
 20
3.950386
 30
0.0
 10
0.539520
 20
3.950386
 30
0.0
 10
0.464791
 20
4.287689
 30
0.0
 10
0.563791
 20
4.287689
 30
0.0
 10
0.554531
 20
4.330699
 30
0.0
  0
LWPOLYLINE
  5
1a4
100
AcDbEntity
  8
Capa_1
 62
7
100
AcDbPolyline
 90
5
 70
0
 10
0.428066
 20
4.400066
 30
0.0
 10
0.378246
 20
4.400066
 30
0.0
 10
0.477566
 20
3.950437
 30
0.0
 10
0.379204
 20
3.950437
 30
0.0
 10
0.390062
 20
3.902064
 30
0.0
  0
LWPOLYLINE
  5
1a5
100
AcDbEntity
  8
Capa_1
 62
7
100
AcDbPolyline
 90
8
 70
1
 10
1.242742
 20
2.195542
 30
0.0
 10
1.306932
 20
2.195542
 30
0.0
 10
1.322900
 20
2.335195
 30
0.0
 10
1.527926
 20
2.335195
 30
0.0
 10
1.605849
 20
2.195542
 30
0.0
 10
1.672595
 20
2.195542
 30
0.0
 10
1.389645
 20
2.691838
 30
0.0
 10
1.305974
 20
2.691838
 30
0.0
  0
SPLINE
  5
1a6
100
AcDbEntity
  8
Capa_1
 62
7
100
AcDbSpline
 70
8
 71
3
 72
8
 73
4
 74
0
 40
0
 40
0
 40
0
 40
0
 40
1
 40
1
 40
1
 40
1
 10
0.713250
 20
2.501513
 30
0.0
 10
0.713250
 20
2.447300
 30
0.0
 10
0.726450
 20
2.395971
 30
0.0
 10
0.752850
 20
2.347526
 30
0.0
  0
SPLINE
  5
1a7
100
AcDbEntity
  8
Capa_1
 62
7
100
AcDbSpline
 70
8
 71
3
 72
8
 73
4
 74
0
 40
0
 40
0
 40
0
 40
0
 40
1
 40
1
 40
1
 40
1
 10
0.752850
 20
2.347526
 30
0.0
 10
0.779250
 20
2.299102
 30
0.0
 10
0.815338
 20
2.261664
 30
0.0
 10
0.861112
 20
2.235211
 30
0.0
  0
SPLINE
  5
1a8
100
AcDbEntity
  8
Capa_1
 62
7
100
AcDbSpline
 70
8
 71
3
 72
8
 73
4
 74
0
 40
0
 40
0
 40
0
 40
0
 40
1
 40
1
 40
1
 40
1
 10
0.861112
 20
2.235211
 30
0.0
 10
0.889215
 20
2.219410
 30
0.0
 10
0.917957
 20
2.208853
 30
0.0
 10
0.947338
 20
2.203541
 30
0.0
  0
SPLINE
  5
1a9
100
AcDbEntity
  8
Capa_1
 62
7
100
AcDbSpline
 70
8
 71
3
 72
8
 73
4
 74
0
 40
0
 40
0
 40
0
 40
0
 40
1
 40
1
 40
1
 40
1
 10
0.947338
 20
2.203541
 30
0.0
 10
0.976718
 20
2.198092
 30
0.0
 10
1.010038
 20
2.195368
 30
0.0
 10
1.047296
 20
2.195368
 30
0.0
  0
LWPOLYLINE
  5
1aa
100
AcDbEntity
  8
Capa_1
 62
7
100
AcDbPolyline
 90
3
 70
1
 10
1.329926
 20
2.389197
 30
0.0
 10
1.359626
 20
2.634168
 30
0.0
 10
1.497588
 20
2.389197
 30
0.0
  0
SPLINE
  5
1ab
100
AcDbEntity
  8
Capa_1
 62
7
100
AcDbSpline
 70
8
 71
3
 72
8
 73
4
 74
0
 40
0
 40
0
 40
0
 40
0
 40
1
 40
1
 40
1
 40
1
 10
0.955321
 20
2.691664
 30
0.0
 10
0.920831
 20
2.691664
 30
0.0
 10
0.889427
 20
2.688940
 30
0.0
 10
0.861111
 20
2.683492
 30
0.0
  0
SPLINE
  5
1ac
100
AcDbEntity
  8
Capa_1
 62
7
100
AcDbSpline
 70
8
 71
3
 72
8
 73
4
 74
0
 40
0
 40
0
 40
0
 40
0
 40
1
 40
1
 40
1
 40
1
 10
0.861111
 20
2.683492
 30
0.0
 10
0.832582
 20
2.678724
 30
0.0
 10
0.806501
 20
2.668065
 30
0.0
 10
0.782869
 20
2.651515
 30
0.0
  0
SPLINE
  5
1ad
100
AcDbEntity
  8
Capa_1
 62
7
100
AcDbSpline
 70
8
 71
3
 72
8
 73
4
 74
0
 40
0
 40
0
 40
0
 40
0
 40
1
 40
1
 40
1
 40
1
 10
0.782869
 20
2.651515
 30
0.0
 10
0.760301
 20
2.635714
 30
0.0
 10
0.743055
 20
2.615044
 30
0.0
 10
0.731132
 20
2.589504
 30
0.0
  0
SPLINE
  5
1ae
100
AcDbEntity
  8
Capa_1
 62
7
100
AcDbSpline
 70
8
 71
3
 72
8
 73
4
 74
0
 40
0
 40
0
 40
0
 40
0
 40
1
 40
1
 40
1
 40
1
 10
0.731132
 20
2.589504
 30
0.0
 10
0.719210
 20
2.564168
 30
0.0
 10
0.713249
 20
2.534609
 30
0.0
 10
0.713249
 20
2.500828
 30
0.0
  0
LWPOLYLINE
  5
1af
100
AcDbEntity
  8
Capa_1
 62
7
100
AcDbPolyline
 90
4
 70
0
 10
1.047296
 20
2.195368
 30
0.0
 10
1.175677
 20
2.195368
 30
0.0
 10
1.065819
 20
2.691664
 30
0.0
 10
0.955321
 20
2.691664
 30
0.0
  0
SPLINE
  5
1b0
100
AcDbEntity
  8
Capa_1
 62
7
100
AcDbSpline
 70
8
 71
3
 72
8
 73
4
 74
0
 40
0
 40
0
 40
0
 40
0
 40
1
 40
1
 40
1
 40
1
 10
0.779996
 20
2.495383
 30
0.0
 10
0.779996
 20
2.520719
 30
0.0
 10
0.784360
 20
2.542479
 30
0.0
 10
0.793089
 20
2.560664
 30
0.0
  0
SPLINE
  5
1b1
100
AcDbEntity
  8
Capa_1
 62
7
100
AcDbSpline
 70
8
 71
3
 72
8
 73
4
 74
0
 40
0
 40
0
 40
0
 40
0
 40
1
 40
1
 40
1
 40
1
 10
0.793089
 20
2.560664
 30
0.0
 10
0.801605
 20
2.579121
 30
0.0
 10
0.814592
 20
2.594445
 30
0.0
 10
0.832050
 20
2.606636
 30
0.0
  0
SPLINE
  5
1b2
100
AcDbEntity
  8
Capa_1
 62
7
100
AcDbSpline
 70
8
 71
3
 72
8
 73
4
 74
0
 40
0
 40
0
 40
0
 40
0
 40
1
 40
1
 40
1
 40
1
 10
0.832050
 20
2.606636
 30
0.0
 10
0.849295
 20
2.618623
 30
0.0
 10
0.867711
 20
2.626626
 30
0.0
 10
0.887298
 20
2.630644
 30
0.0
  0
SPLINE
  5
1b3
100
AcDbEntity
  8
Capa_1
 62
7
100
AcDbSpline
 70
8
 71
3
 72
8
 73
4
 74
0
 40
0
 40
0
 40
0
 40
0
 40
1
 40
1
 40
1
 40
1
 10
0.887298
 20
2.630644
 30
0.0
 10
0.906886
 20
2.634730
 30
0.0
 10
0.931689
 20
2.636774
 30
0.0
 10
0.961708
 20
2.636774
 30
0.0
  0
LWPOLYLINE
  5
1b4
100
AcDbEntity
  8
Capa_1
 62
7
100
AcDbPolyline
 90
2
 70
0
 10
0.713249
 20
2.500828
 30
0.0
 10
0.713250
 20
2.501513
 30
0.0
  0
SPLINE
  5
1b5
100
AcDbEntity
  8
Capa_1
 62
7
100
AcDbSpline
 70
8
 71
3
 72
8
 73
4
 74
0
 40
0
 40
0
 40
0
 40
0
 40
1
 40
1
 40
1
 40
1
 10
1.034522
 20
2.249135
 30
0.0
 10
1.004076
 20
2.249135
 30
0.0
 10
0.976931
 20
2.251519
 30
0.0
 10
0.953086
 20
2.256286
 30
0.0
  0
SPLINE
  5
1b6
100
AcDbEntity
  8
Capa_1
 62
7
100
AcDbSpline
 70
8
 71
3
 72
8
 73
4
 74
0
 40
0
 40
0
 40
0
 40
0
 40
1
 40
1
 40
1
 40
1
 10
0.953086
 20
2.256286
 30
0.0
 10
0.929028
 20
2.261735
 30
0.0
 10
0.906353
 20
2.270725
 30
0.0
 10
0.885063
 20
2.283257
 30
0.0
  0
SPLINE
  5
1b7
100
AcDbEntity
  8
Capa_1
 62
7
100
AcDbSpline
 70
8
 71
3
 72
8
 73
4
 74
0
 40
0
 40
0
 40
0
 40
0
 40
1
 40
1
 40
1
 40
1
 10
0.885063
 20
2.283257
 30
0.0
 10
0.850786
 20
2.303689
 30
0.0
 10
0.824705
 20
2.333145
 30
0.0
 10
0.806821
 20
2.371626
 30
0.0
  0
SPLINE
  5
1b8
100
AcDbEntity
  8
Capa_1
 62
7
100
AcDbSpline
 70
8
 71
3
 72
8
 73
4
 74
0
 40
0
 40
0
 40
0
 40
0
 40
1
 40
1
 40
1
 40
1
 10
0.806821
 20
2.371626
 30
0.0
 10
0.788937
 20
2.410311
 30
0.0
 10
0.779996
 20
2.451308
 30
0.0
 10
0.779996
 20
2.494617
 30
0.0
  0
LWPOLYLINE
  5
1b9
100
AcDbEntity
  8
Capa_1
 62
7
100
AcDbPolyline
 90
4
 70
0
 10
0.961708
 20
2.636774
 30
0.0
 10
1.014402
 20
2.636774
 30
0.0
 10
1.100628
 20
2.249135
 30
0.0
 10
1.034522
 20
2.249135
 30
0.0
  0
LWPOLYLINE
  5
1ba
100
AcDbEntity
  8
Capa_1
 62
7
100
AcDbPolyline
 90
2
 70
0
 10
0.779996
 20
2.494617
 30
0.0
 10
0.779996
 20
2.495383
 30
0.0
  0
SPLINE
  5
1bb
100
AcDbEntity
  8
Capa_1
 62
7
100
AcDbSpline
 70
8
 71
3
 72
8
 73
4
 74
0
 40
0
 40
0
 40
0
 40
0
 40
1
 40
1
 40
1
 40
1
 10
0.671734
 20
2.265215
 30
0.0
 10
0.641714
 20
2.288099
 30
0.0
 10
0.616272
 20
2.307544
 30
0.0
 10
0.595408
 20
2.323549
 30
0.0
  0
SPLINE
  5
1bc
100
AcDbEntity
  8
Capa_1
 62
7
100
AcDbSpline
 70
8
 71
3
 72
8
 73
4
 74
0
 40
0
 40
0
 40
0
 40
0
 40
1
 40
1
 40
1
 40
1
 10
0.595408
 20
2.323549
 30
0.0
 10
0.574330
 20
2.339759
 30
0.0
 10
0.548995
 20
2.360191
 30
0.0
 10
0.519401
 20
2.384845
 30
0.0
  0
SPLINE
  5
1bd
100
AcDbEntity
  8
Capa_1
 62
7
100
AcDbSpline
 70
8
 71
3
 72
8
 73
4
 74
0
 40
0
 40
0
 40
0
 40
0
 40
1
 40
1
 40
1
 40
1
 10
0.519401
 20
2.384845
 30
0.0
 10
0.467453
 20
2.428162
 30
0.0
 10
0.430833
 20
2.464606
 30
0.0
 10
0.409543
 20
2.494178
 30
0.0
  0
SPLINE
  5
1be
100
AcDbEntity
  8
Capa_1
 62
7
100
AcDbSpline
 70
8
 71
3
 72
8
 73
4
 74
0
 40
0
 40
0
 40
0
 40
0
 40
1
 40
1
 40
1
 40
1
 10
0.409543
 20
2.494178
 30
0.0
 10
0.388039
 20
2.523941
 30
0.0
 10
0.377288
 20
2.552818
 30
0.0
 10
0.377288
 20
2.580810
 30
0.0
  0
SPLINE
  5
1bf
100
AcDbEntity
  8
Capa_1
 62
7
100
AcDbSpline
 70
8
 71
3
 72
8
 73
4
 74
0
 40
0
 40
0
 40
0
 40
0
 40
1
 40
1
 40
1
 40
1
 10
0.377288
 20
2.580810
 30
0.0
 10
0.377288
 20
2.602604
 30
0.0
 10
0.384739
 20
2.619052
 30
0.0
 10
0.399642
 20
2.630154
 30
0.0
  0
SPLINE
  5
1c0
100
AcDbEntity
  8
Capa_1
 62
7
100
AcDbSpline
 70
8
 71
3
 72
8
 73
4
 74
0
 40
0
 40
0
 40
0
 40
0
 40
1
 40
1
 40
1
 40
1
 10
0.399642
 20
2.630154
 30
0.0
 10
0.414333
 20
2.641255
 30
0.0
 10
0.433282
 20
2.646806
 30
0.0
 10
0.456488
 20
2.646806
 30
0.0
  0
SPLINE
  5
1c1
100
AcDbEntity
  8
Capa_1
 62
7
100
AcDbSpline
 70
8
 71
3
 72
8
 73
4
 74
0
 40
0
 40
0
 40
0
 40
0
 40
1
 40
1
 40
1
 40
1
 10
0.456488
 20
2.646806
 30
0.0
 10
0.475437
 20
2.646806
 30
0.0
 10
0.497153
 20
2.643026
 30
0.0
 10
0.521637
 20
2.635466
 30
0.0
  0
SPLINE
  5
1c2
100
AcDbEntity
  8
Capa_1
 62
7
100
AcDbSpline
 70
8
 71
3
 72
8
 73
4
 74
0
 40
0
 40
0
 40
0
 40
0
 40
1
 40
1
 40
1
 40
1
 10
0.521637
 20
2.635466
 30
0.0
 10
0.545908
 20
2.628110
 30
0.0
 10
0.569753
 20
2.617452
 30
0.0
 10
0.593172
 20
2.603490
 30
0.0
  0
LWPOLYLINE
  5
1c3
100
AcDbEntity
  8
Capa_1
 62
7
100
AcDbPolyline
 90
3
 70
0
 10
0.364513
 20
2.195542
 30
0.0
 10
0.686743
 20
2.195542
 30
0.0
 10
0.671734
 20
2.265215
 30
0.0
  0
SPLINE
  5
1c4
100
AcDbEntity
  8
Capa_1
 62
7
100
AcDbSpline
 70
8
 71
3
 72
8
 73
4
 74
0
 40
0
 40
0
 40
0
 40
0
 40
1
 40
1
 40
1
 40
1
 10
0.583589
 20
2.671120
 30
0.0
 10
0.566770
 20
2.679088
 30
0.0
 10
0.545266
 20
2.686206
 30
0.0
 10
0.519079
 20
2.692472
 30
0.0
  0
SPLINE
  5
1c5
100
AcDbEntity
  8
Capa_1
 62
7
100
AcDbSpline
 70
8
 71
3
 72
8
 73
4
 74
0
 40
0
 40
0
 40
0
 40
0
 40
1
 40
1
 40
1
 40
1
 10
0.519079
 20
2.692472
 30
0.0
 10
0.492892
 20
2.698601
 30
0.0
 10
0.467770
 20
2.701666
 30
0.0
 10
0.443711
 20
2.701666
 30
0.0
  0
SPLINE
  5
1c6
100
AcDbEntity
  8
Capa_1
 62
7
100
AcDbSpline
 70
8
 71
3
 72
8
 73
4
 74
0
 40
0
 40
0
 40
0
 40
0
 40
1
 40
1
 40
1
 40
1
 10
0.443711
 20
2.701666
 30
0.0
 10
0.400918
 20
2.701666
 30
0.0
 10
0.367918
 20
2.691893
 30
0.0
 10
0.344711
 20
2.672346
 30
0.0
  0
SPLINE
  5
1c7
100
AcDbEntity
  8
Capa_1
 62
7
100
AcDbSpline
 70
8
 71
3
 72
8
 73
4
 74
0
 40
0
 40
0
 40
0
 40
0
 40
1
 40
1
 40
1
 40
1
 10
0.344711
 20
2.672346
 30
0.0
 10
0.321504
 20
2.653003
 30
0.0
 10
0.309901
 20
2.626782
 30
0.0
 10
0.309901
 20
2.593682
 30
0.0
  0
SPLINE
  5
1c8
100
AcDbEntity
  8
Capa_1
 62
7
100
AcDbSpline
 70
8
 71
3
 72
8
 73
4
 74
0
 40
0
 40
0
 40
0
 40
0
 40
1
 40
1
 40
1
 40
1
 10
0.309901
 20
2.593682
 30
0.0
 10
0.309901
 20
2.557926
 30
0.0
 10
0.319695
 20
2.524043
 30
0.0
 10
0.339282
 20
2.492032
 30
0.0
  0
SPLINE
  5
1c9
100
AcDbEntity
  8
Capa_1
 62
7
100
AcDbSpline
 70
8
 71
3
 72
8
 73
4
 74
0
 40
0
 40
0
 40
0
 40
0
 40
1
 40
1
 40
1
 40
1
 10
0.339282
 20
2.492032
 30
0.0
 10
0.358869
 20
2.460226
 30
0.0
 10
0.393147
 20
2.423118
 30
0.0
 10
0.442115
 20
2.380708
 30
0.0
  0
SPLINE
  5
1ca
100
AcDbEntity
  8
Capa_1
 62
7
100
AcDbSpline
 70
8
 71
3
 72
8
 73
4
 74
0
 40
0
 40
0
 40
0
 40
0
 40
1
 40
1
 40
1
 40
1
 10
0.442115
 20
2.380708
 30
0.0
 10
0.471283
 20
2.355576
 30
0.0
 10
0.501302
 20
2.331126
 30
0.0
 10
0.532173
 20
2.307357
 30
0.0
  0
SPLINE
  5
1cb
100
AcDbEntity
  8
Capa_1
 62
7
100
AcDbSpline
 70
8
 71
3
 72
8
 73
4
 74
0
 40
0
 40
0
 40
0
 40
0
 40
1
 40
1
 40
1
 40
1
 10
0.532173
 20
2.307357
 30
0.0
 10
0.562831
 20
2.283792
 30
0.0
 10
0.588167
 20
2.264585
 30
0.0
 10
0.608180
 20
2.249738
 30
0.0
  0
LWPOLYLINE
  5
1cc
100
AcDbEntity
  8
Capa_1
 62
7
100
AcDbPolyline
 90
3
 70
0
 10
0.593172
 20
2.603490
 30
0.0
 10
0.596363
 20
2.603490
 30
0.0
 10
0.583589
 20
2.671120
 30
0.0
  0
LWPOLYLINE
  5
1cd
100
AcDbEntity
  8
Capa_1
 62
7
100
AcDbPolyline
 90
3
 70
0
 10
0.608180
 20
2.249738
 30
0.0
 10
0.352695
 20
2.249738
 30
0.0
 10
0.364513
 20
2.195542
 30
0.0
  0
LWPOLYLINE
  5
1ce
100
AcDbEntity
  8
Capa_1
 62
7
100
AcDbPolyline
 90
8
 70
1
 10
1.242742
 20
0.489020
 30
0.0
 10
1.306932
 20
0.489020
 30
0.0
 10
1.322900
 20
0.628673
 30
0.0
 10
1.527926
 20
0.628673
 30
0.0
 10
1.605849
 20
0.489020
 30
0.0
 10
1.672595
 20
0.489020
 30
0.0
 10
1.389645
 20
0.985316
 30
0.0
 10
1.305974
 20
0.985316
 30
0.0
  0
SPLINE
  5
1cf
100
AcDbEntity
  8
Capa_1
 62
7
100
AcDbSpline
 70
8
 71
3
 72
8
 73
4
 74
0
 40
0
 40
0
 40
0
 40
0
 40
1
 40
1
 40
1
 40
1
 10
0.713250
 20
0.794991
 30
0.0
 10
0.713250
 20
0.740778
 30
0.0
 10
0.726450
 20
0.689449
 30
0.0
 10
0.752850
 20
0.641004
 30
0.0
  0
SPLINE
  5
1d0
100
AcDbEntity
  8
Capa_1
 62
7
100
AcDbSpline
 70
8
 71
3
 72
8
 73
4
 74
0
 40
0
 40
0
 40
0
 40
0
 40
1
 40
1
 40
1
 40
1
 10
0.752850
 20
0.641004
 30
0.0
 10
0.779250
 20
0.592580
 30
0.0
 10
0.815338
 20
0.555142
 30
0.0
 10
0.861112
 20
0.528689
 30
0.0
  0
SPLINE
  5
1d1
100
AcDbEntity
  8
Capa_1
 62
7
100
AcDbSpline
 70
8
 71
3
 72
8
 73
4
 74
0
 40
0
 40
0
 40
0
 40
0
 40
1
 40
1
 40
1
 40
1
 10
0.861112
 20
0.528689
 30
0.0
 10
0.889215
 20
0.512888
 30
0.0
 10
0.917957
 20
0.502331
 30
0.0
 10
0.947338
 20
0.497019
 30
0.0
  0
SPLINE
  5
1d2
100
AcDbEntity
  8
Capa_1
 62
7
100
AcDbSpline
 70
8
 71
3
 72
8
 73
4
 74
0
 40
0
 40
0
 40
0
 40
0
 40
1
 40
1
 40
1
 40
1
 10
0.947338
 20
0.497019
 30
0.0
 10
0.976718
 20
0.491570
 30
0.0
 10
1.010038
 20
0.488846
 30
0.0
 10
1.047296
 20
0.488846
 30
0.0
  0
LWPOLYLINE
  5
1d3
100
AcDbEntity
  8
Capa_1
 62
7
100
AcDbPolyline
 90
3
 70
1
 10
1.329926
 20
0.682675
 30
0.0
 10
1.359626
 20
0.927646
 30
0.0
 10
1.497588
 20
0.682675
 30
0.0
  0
SPLINE
  5
1d4
100
AcDbEntity
  8
Capa_1
 62
7
100
AcDbSpline
 70
8
 71
3
 72
8
 73
4
 74
0
 40
0
 40
0
 40
0
 40
0
 40
1
 40
1
 40
1
 40
1
 10
0.955321
 20
0.985142
 30
0.0
 10
0.920831
 20
0.985142
 30
0.0
 10
0.889427
 20
0.982418
 30
0.0
 10
0.861111
 20
0.976970
 30
0.0
  0
SPLINE
  5
1d5
100
AcDbEntity
  8
Capa_1
 62
7
100
AcDbSpline
 70
8
 71
3
 72
8
 73
4
 74
0
 40
0
 40
0
 40
0
 40
0
 40
1
 40
1
 40
1
 40
1
 10
0.861111
 20
0.976970
 30
0.0
 10
0.832582
 20
0.972202
 30
0.0
 10
0.806501
 20
0.961543
 30
0.0
 10
0.782869
 20
0.944993
 30
0.0
  0
SPLINE
  5
1d6
100
AcDbEntity
  8
Capa_1
 62
7
100
AcDbSpline
 70
8
 71
3
 72
8
 73
4
 74
0
 40
0
 40
0
 40
0
 40
0
 40
1
 40
1
 40
1
 40
1
 10
0.782869
 20
0.944993
 30
0.0
 10
0.760301
 20
0.929192
 30
0.0
 10
0.743055
 20
0.908522
 30
0.0
 10
0.731132
 20
0.882982
 30
0.0
  0
SPLINE
  5
1d7
100
AcDbEntity
  8
Capa_1
 62
7
100
AcDbSpline
 70
8
 71
3
 72
8
 73
4
 74
0
 40
0
 40
0
 40
0
 40
0
 40
1
 40
1
 40
1
 40
1
 10
0.731132
 20
0.882982
 30
0.0
 10
0.719210
 20
0.857646
 30
0.0
 10
0.713249
 20
0.828088
 30
0.0
 10
0.713249
 20
0.794306
 30
0.0
  0
LWPOLYLINE
  5
1d8
100
AcDbEntity
  8
Capa_1
 62
7
100
AcDbPolyline
 90
4
 70
0
 10
1.047296
 20
0.488846
 30
0.0
 10
1.175677
 20
0.488846
 30
0.0
 10
1.065819
 20
0.985142
 30
0.0
 10
0.955321
 20
0.985142
 30
0.0
  0
SPLINE
  5
1d9
100
AcDbEntity
  8
Capa_1
 62
7
100
AcDbSpline
 70
8
 71
3
 72
8
 73
4
 74
0
 40
0
 40
0
 40
0
 40
0
 40
1
 40
1
 40
1
 40
1
 10
0.779996
 20
0.788861
 30
0.0
 10
0.779996
 20
0.814197
 30
0.0
 10
0.784360
 20
0.835957
 30
0.0
 10
0.793089
 20
0.854142
 30
0.0
  0
SPLINE
  5
1da
100
AcDbEntity
  8
Capa_1
 62
7
100
AcDbSpline
 70
8
 71
3
 72
8
 73
4
 74
0
 40
0
 40
0
 40
0
 40
0
 40
1
 40
1
 40
1
 40
1
 10
0.793089
 20
0.854142
 30
0.0
 10
0.801605
 20
0.872599
 30
0.0
 10
0.814592
 20
0.887923
 30
0.0
 10
0.832050
 20
0.900114
 30
0.0
  0
SPLINE
  5
1db
100
AcDbEntity
  8
Capa_1
 62
7
100
AcDbSpline
 70
8
 71
3
 72
8
 73
4
 74
0
 40
0
 40
0
 40
0
 40
0
 40
1
 40
1
 40
1
 40
1
 10
0.832050
 20
0.900114
 30
0.0
 10
0.849295
 20
0.912101
 30
0.0
 10
0.867711
 20
0.920104
 30
0.0
 10
0.887298
 20
0.924122
 30
0.0
  0
SPLINE
  5
1dc
100
AcDbEntity
  8
Capa_1
 62
7
100
AcDbSpline
 70
8
 71
3
 72
8
 73
4
 74
0
 40
0
 40
0
 40
0
 40
0
 40
1
 40
1
 40
1
 40
1
 10
0.887298
 20
0.924122
 30
0.0
 10
0.906886
 20
0.928208
 30
0.0
 10
0.931689
 20
0.930252
 30
0.0
 10
0.961708
 20
0.930252
 30
0.0
  0
LWPOLYLINE
  5
1dd
100
AcDbEntity
  8
Capa_1
 62
7
100
AcDbPolyline
 90
2
 70
0
 10
0.713249
 20
0.794306
 30
0.0
 10
0.713250
 20
0.794991
 30
0.0
  0
SPLINE
  5
1de
100
AcDbEntity
  8
Capa_1
 62
7
100
AcDbSpline
 70
8
 71
3
 72
8
 73
4
 74
0
 40
0
 40
0
 40
0
 40
0
 40
1
 40
1
 40
1
 40
1
 10
1.034522
 20
0.542613
 30
0.0
 10
1.004076
 20
0.542613
 30
0.0
 10
0.976931
 20
0.544997
 30
0.0
 10
0.953086
 20
0.549764
 30
0.0
  0
SPLINE
  5
1df
100
AcDbEntity
  8
Capa_1
 62
7
100
AcDbSpline
 70
8
 71
3
 72
8
 73
4
 74
0
 40
0
 40
0
 40
0
 40
0
 40
1
 40
1
 40
1
 40
1
 10
0.953086
 20
0.549764
 30
0.0
 10
0.929028
 20
0.555213
 30
0.0
 10
0.906353
 20
0.564203
 30
0.0
 10
0.885063
 20
0.576735
 30
0.0
  0
SPLINE
  5
1e0
100
AcDbEntity
  8
Capa_1
 62
7
100
AcDbSpline
 70
8
 71
3
 72
8
 73
4
 74
0
 40
0
 40
0
 40
0
 40
0
 40
1
 40
1
 40
1
 40
1
 10
0.885063
 20
0.576735
 30
0.0
 10
0.850786
 20
0.597167
 30
0.0
 10
0.824705
 20
0.626623
 30
0.0
 10
0.806821
 20
0.665104
 30
0.0
  0
SPLINE
  5
1e1
100
AcDbEntity
  8
Capa_1
 62
7
100
AcDbSpline
 70
8
 71
3
 72
8
 73
4
 74
0
 40
0
 40
0
 40
0
 40
0
 40
1
 40
1
 40
1
 40
1
 10
0.806821
 20
0.665104
 30
0.0
 10
0.788937
 20
0.703789
 30
0.0
 10
0.779996
 20
0.744786
 30
0.0
 10
0.779996
 20
0.788095
 30
0.0
  0
LWPOLYLINE
  5
1e2
100
AcDbEntity
  8
Capa_1
 62
7
100
AcDbPolyline
 90
4
 70
0
 10
0.961708
 20
0.930252
 30
0.0
 10
1.014402
 20
0.930252
 30
0.0
 10
1.100628
 20
0.542613
 30
0.0
 10
1.034522
 20
0.542613
 30
0.0
  0
SPLINE
  5
1e3
100
AcDbEntity
  8
Capa_1
 62
7
100
AcDbSpline
 70
8
 71
3
 72
8
 73
4
 74
0
 40
0
 40
0
 40
0
 40
0
 40
1
 40
1
 40
1
 40
1
 10
0.393575
 20
0.532683
 30
0.0
 10
0.412310
 20
0.515588
 30
0.0
 10
0.433920
 20
0.502239
 30
0.0
 10
0.458404
 20
0.492636
 30
0.0
  0
SPLINE
  5
1e4
100
AcDbEntity
  8
Capa_1
 62
7
100
AcDbSpline
 70
8
 71
3
 72
8
 73
4
 74
0
 40
0
 40
0
 40
0
 40
0
 40
1
 40
1
 40
1
 40
1
 10
0.458404
 20
0.492636
 30
0.0
 10
0.482675
 20
0.483306
 30
0.0
 10
0.510885
 20
0.478640
 30
0.0
 10
0.543033
 20
0.478640
 30
0.0
  0
SPLINE
  5
1e5
100
AcDbEntity
  8
Capa_1
 62
7
100
AcDbSpline
 70
8
 71
3
 72
8
 73
4
 74
0
 40
0
 40
0
 40
0
 40
0
 40
1
 40
1
 40
1
 40
1
 10
0.543033
 20
0.478640
 30
0.0
 10
0.568795
 20
0.478640
 30
0.0
 10
0.593811
 20
0.482080
 30
0.0
 10
0.618082
 20
0.488958
 30
0.0
  0
SPLINE
  5
1e6
100
AcDbEntity
  8
Capa_1
 62
7
100
AcDbSpline
 70
8
 71
3
 72
8
 73
4
 74
0
 40
0
 40
0
 40
0
 40
0
 40
1
 40
1
 40
1
 40
1
 10
0.618082
 20
0.488958
 30
0.0
 10
0.642140
 20
0.495769
 30
0.0
 10
0.662472
 20
0.503772
 30
0.0
 10
0.679079
 20
0.512966
 30
0.0
  0
LWPOLYLINE
  5
1e7
100
AcDbEntity
  8
Capa_1
 62
7
100
AcDbPolyline
 90
2
 70
0
 10
0.779996
 20
0.788095
 30
0.0
 10
0.779996
 20
0.788861
 30
0.0
  0
SPLINE
  5
1e8
100
AcDbEntity
  8
Capa_1
 62
7
100
AcDbSpline
 70
8
 71
3
 72
8
 73
4
 74
0
 40
0
 40
0
 40
0
 40
0
 40
1
 40
1
 40
1
 40
1
 10
0.659283
 20
0.576919
 30
0.0
 10
0.644592
 20
0.565341
 30
0.0
 10
0.626176
 20
0.555227
 30
0.0
 10
0.604034
 20
0.546577
 30
0.0
  0
SPLINE
  5
1e9
100
AcDbEntity
  8
Capa_1
 62
7
100
AcDbSpline
 70
8
 71
3
 72
8
 73
4
 74
0
 40
0
 40
0
 40
0
 40
0
 40
1
 40
1
 40
1
 40
1
 10
0.604034
 20
0.546577
 30
0.0
 10
0.581892
 20
0.538132
 30
0.0
 10
0.558473
 20
0.533909
 30
0.0
 10
0.533776
 20
0.533909
 30
0.0
  0
SPLINE
  5
1ea
100
AcDbEntity
  8
Capa_1
 62
7
100
AcDbSpline
 70
8
 71
3
 72
8
 73
4
 74
0
 40
0
 40
0
 40
0
 40
0
 40
1
 40
1
 40
1
 40
1
 10
0.533776
 20
0.533909
 30
0.0
 10
0.495454
 20
0.533909
 30
0.0
 10
0.464050
 20
0.545794
 30
0.0
 10
0.439566
 20
0.569563
 30
0.0
  0
SPLINE
  5
1eb
100
AcDbEntity
  8
Capa_1
 62
7
100
AcDbSpline
 70
8
 71
3
 72
8
 73
4
 74
0
 40
0
 40
0
 40
0
 40
0
 40
1
 40
1
 40
1
 40
1
 10
0.439566
 20
0.569563
 30
0.0
 10
0.415082
 20
0.593333
 30
0.0
 10
0.402840
 20
0.624219
 30
0.0
 10
0.402840
 20
0.662223
 30
0.0
  0
SPLINE
  5
1ec
100
AcDbEntity
  8
Capa_1
 62
7
100
AcDbSpline
 70
8
 71
3
 72
8
 73
4
 74
0
 40
0
 40
0
 40
0
 40
0
 40
1
 40
1
 40
1
 40
1
 10
0.402840
 20
0.662223
 30
0.0
 10
0.402840
 20
0.685584
 30
0.0
 10
0.410611
 20
0.703019
 30
0.0
 10
0.426154
 20
0.714529
 30
0.0
  0
SPLINE
  5
1ed
100
AcDbEntity
  8
Capa_1
 62
7
100
AcDbSpline
 70
8
 71
3
 72
8
 73
4
 74
0
 40
0
 40
0
 40
0
 40
0
 40
1
 40
1
 40
1
 40
1
 10
0.426154
 20
0.714529
 30
0.0
 10
0.441696
 20
0.726107
 30
0.0
 10
0.465860
 20
0.731896
 30
0.0
 10
0.498647
 20
0.731896
 30
0.0
  0
LWPOLYLINE
  5
1ee
100
AcDbEntity
  8
Capa_1
 62
7
100
AcDbPolyline
 90
3
 70
0
 10
0.679079
 20
0.512966
 30
0.0
 10
0.664069
 20
0.576919
 30
0.0
 10
0.659283
 20
0.576919
 30
0.0
  0
SPLINE
  5
1ef
100
AcDbEntity
  8
Capa_1
 62
7
100
AcDbSpline
 70
8
 71
3
 72
8
 73
4
 74
0
 40
0
 40
0
 40
0
 40
0
 40
1
 40
1
 40
1
 40
1
 10
0.486192
 20
0.784918
 30
0.0
 10
0.450212
 20
0.784918
 30
0.0
 10
0.420725
 20
0.793465
 30
0.0
 10
0.397731
 20
0.810560
 30
0.0
  0
SPLINE
  5
1f0
100
AcDbEntity
  8
Capa_1
 62
7
100
AcDbSpline
 70
8
 71
3
 72
8
 73
4
 74
0
 40
0
 40
0
 40
0
 40
0
 40
1
 40
1
 40
1
 40
1
 10
0.397731
 20
0.810560
 30
0.0
 10
0.374737
 20
0.827859
 30
0.0
 10
0.363240
 20
0.851288
 30
0.0
 10
0.363240
 20
0.880847
 30
0.0
  0
SPLINE
  5
1f1
100
AcDbEntity
  8
Capa_1
 62
7
100
AcDbSpline
 70
8
 71
3
 72
8
 73
4
 74
0
 40
0
 40
0
 40
0
 40
0
 40
1
 40
1
 40
1
 40
1
 10
0.363240
 20
0.880847
 30
0.0
 10
0.363240
 20
0.899508
 30
0.0
 10
0.370160
 20
0.914049
 30
0.0
 10
0.383999
 20
0.924469
 30
0.0
  0
SPLINE
  5
1f2
100
AcDbEntity
  8
Capa_1
 62
7
100
AcDbSpline
 70
8
 71
3
 72
8
 73
4
 74
0
 40
0
 40
0
 40
0
 40
0
 40
1
 40
1
 40
1
 40
1
 10
0.383999
 20
0.924469
 30
0.0
 10
0.397624
 20
0.934890
 30
0.0
 10
0.417850
 20
0.940100
 30
0.0
 10
0.444676
 20
0.940100
 30
0.0
  0
SPLINE
  5
1f3
100
AcDbEntity
  8
Capa_1
 62
7
100
AcDbSpline
 70
8
 71
3
 72
8
 73
4
 74
0
 40
0
 40
0
 40
0
 40
0
 40
1
 40
1
 40
1
 40
1
 10
0.444676
 20
0.940100
 30
0.0
 10
0.466819
 20
0.940100
 30
0.0
 10
0.490451
 20
0.935877
 30
0.0
 10
0.515574
 20
0.927432
 30
0.0
  0
SPLINE
  5
1f4
100
AcDbEntity
  8
Capa_1
 62
7
100
AcDbSpline
 70
8
 71
3
 72
8
 73
4
 74
0
 40
0
 40
0
 40
0
 40
0
 40
1
 40
1
 40
1
 40
1
 10
0.515574
 20
0.927432
 30
0.0
 10
0.540696
 20
0.918987
 30
0.0
 10
0.562945
 20
0.908771
 30
0.0
 10
0.582320
 20
0.896784
 30
0.0
  0
LWPOLYLINE
  5
1f5
100
AcDbEntity
  8
Capa_1
 62
7
100
AcDbPolyline
 90
4
 70
0
 10
0.498647
 20
0.731896
 30
0.0
 10
0.528986
 20
0.731896
 30
0.0
 10
0.516531
 20
0.784918
 30
0.0
 10
0.486192
 20
0.784918
 30
0.0
  0
SPLINE
  5
1f6
100
AcDbEntity
  8
Capa_1
 62
7
100
AcDbSpline
 70
8
 71
3
 72
8
 73
4
 74
0
 40
0
 40
0
 40
0
 40
0
 40
1
 40
1
 40
1
 40
1
 10
0.571778
 20
0.964108
 30
0.0
 10
0.554746
 20
0.971872
 30
0.0
 10
0.533136
 20
0.978989
 30
0.0
 10
0.506949
 20
0.985459
 30
0.0
  0
SPLINE
  5
1f7
100
AcDbEntity
  8
Capa_1
 62
7
100
AcDbSpline
 70
8
 71
3
 72
8
 73
4
 74
0
 40
0
 40
0
 40
0
 40
0
 40
1
 40
1
 40
1
 40
1
 10
0.506949
 20
0.985459
 30
0.0
 10
0.480549
 20
0.992270
 30
0.0
 10
0.455533
 20
0.995675
 30
0.0
 10
0.431901
 20
0.995675
 30
0.0
  0
SPLINE
  5
1f8
100
AcDbEntity
  8
Capa_1
 62
7
100
AcDbSpline
 70
8
 71
3
 72
8
 73
4
 74
0
 40
0
 40
0
 40
0
 40
0
 40
1
 40
1
 40
1
 40
1
 10
0.431901
 20
0.995675
 30
0.0
 10
0.389959
 20
0.995675
 30
0.0
 10
0.356959
 20
0.986889
 30
0.0
 10
0.332900
 20
0.969318
 30
0.0
  0
SPLINE
  5
1f9
100
AcDbEntity
  8
Capa_1
 62
7
100
AcDbSpline
 70
8
 71
3
 72
8
 73
4
 74
0
 40
0
 40
0
 40
0
 40
0
 40
1
 40
1
 40
1
 40
1
 10
0.332900
 20
0.969318
 30
0.0
 10
0.308629
 20
0.951950
 30
0.0
 10
0.296494
 20
0.928181
 30
0.0
 10
0.296494
 20
0.898010
 30
0.0
  0
SPLINE
  5
1fa
100
AcDbEntity
  8
Capa_1
 62
7
100
AcDbSpline
 70
8
 71
3
 72
8
 73
4
 74
0
 40
0
 40
0
 40
0
 40
0
 40
1
 40
1
 40
1
 40
1
 10
0.296494
 20
0.898010
 30
0.0
 10
0.296494
 20
0.865114
 30
0.0
 10
0.308204
 20
0.835896
 30
0.0
 10
0.331623
 20
0.810356
 30
0.0
  0
SPLINE
  5
1fb
100
AcDbEntity
  8
Capa_1
 62
7
100
AcDbSpline
 70
8
 71
3
 72
8
 73
4
 74
0
 40
0
 40
0
 40
0
 40
0
 40
1
 40
1
 40
1
 40
1
 10
0.331623
 20
0.810356
 30
0.0
 10
0.354829
 20
0.785020
 30
0.0
 10
0.384210
 20
0.768913
 30
0.0
 10
0.419765
 20
0.762034
 30
0.0
  0
LWPOLYLINE
  5
1fc
100
AcDbEntity
  8
Capa_1
 62
7
100
AcDbPolyline
 90
3
 70
0
 10
0.582320
 20
0.896784
 30
0.0
 10
0.585511
 20
0.896784
 30
0.0
 10
0.571778
 20
0.964108
 30
0.0
  0
SPLINE
  5
1fd
100
AcDbEntity
  8
Capa_1
 62
7
100
AcDbSpline
 70
8
 71
3
 72
8
 73
4
 74
0
 40
0
 40
0
 40
0
 40
0
 40
1
 40
1
 40
1
 40
1
 10
0.419765
 20
0.758969
 30
0.0
 10
0.411462
 20
0.756926
 30
0.0
 10
0.402307
 20
0.753520
 30
0.0
 10
0.392301
 20
0.748753
 30
0.0
  0
SPLINE
  5
1fe
100
AcDbEntity
  8
Capa_1
 62
7
100
AcDbSpline
 70
8
 71
3
 72
8
 73
4
 74
0
 40
0
 40
0
 40
0
 40
0
 40
1
 40
1
 40
1
 40
1
 10
0.392301
 20
0.748753
 30
0.0
 10
0.382082
 20
0.743985
 30
0.0
 10
0.373140
 20
0.737992
 30
0.0
 10
0.365475
 20
0.730773
 30
0.0
  0
SPLINE
  5
1ff
100
AcDbEntity
  8
Capa_1
 62
7
100
AcDbSpline
 70
8
 71
3
 72
8
 73
4
 74
0
 40
0
 40
0
 40
0
 40
0
 40
1
 40
1
 40
1
 40
1
 10
0.365475
 20
0.730773
 30
0.0
 10
0.357385
 20
0.723213
 30
0.0
 10
0.350678
 20
0.713644
 30
0.0
 10
0.345356
 20
0.702066
 30
0.0
  0
SPLINE
  5
200
100
AcDbEntity
  8
Capa_1
 62
7
100
AcDbSpline
 70
8
 71
3
 72
8
 73
4
 74
0
 40
0
 40
0
 40
0
 40
0
 40
1
 40
1
 40
1
 40
1
 10
0.345356
 20
0.702066
 30
0.0
 10
0.339822
 20
0.690487
 30
0.0
 10
0.337055
 20
0.676832
 30
0.0
 10
0.337055
 20
0.661099
 30
0.0
  0
SPLINE
  5
201
100
AcDbEntity
  8
Capa_1
 62
7
100
AcDbSpline
 70
8
 71
3
 72
8
 73
4
 74
0
 40
0
 40
0
 40
0
 40
0
 40
1
 40
1
 40
1
 40
1
 10
0.337055
 20
0.661099
 30
0.0
 10
0.337055
 20
0.636853
 30
0.0
 10
0.342059
 20
0.613424
 30
0.0
 10
0.352065
 20
0.590813
 30
0.0
  0
SPLINE
  5
202
100
AcDbEntity
  8
Capa_1
 62
7
100
AcDbSpline
 70
8
 71
3
 72
8
 73
4
 74
0
 40
0
 40
0
 40
0
 40
0
 40
1
 40
1
 40
1
 40
1
 10
0.352065
 20
0.590813
 30
0.0
 10
0.362072
 20
0.568337
 30
0.0
 10
0.375910
 20
0.548995
 30
0.0
 10
0.393581
 20
0.532785
 30
0.0
  0
LWPOLYLINE
  5
203
100
AcDbEntity
  8
Capa_1
 62
7
100
AcDbPolyline
 90
2
 70
0
 10
0.419765
 20
0.762034
 30
0.0
 10
0.419765
 20
0.758969
 30
0.0
  0
LWPOLYLINE
  5
204
100
AcDbEntity
  8
Capa_1
 62
7
100
AcDbPolyline
 90
2
 70
0
 10
0.393581
 20
0.532785
 30
0.0
 10
0.393575
 20
0.532683
 30
0.0
  0
LWPOLYLINE
  5
205
100
AcDbEntity
  8
Capa_1
 62
7
100
AcDbPolyline
 90
4
 70
1
 10
3.844433
 20
10.918030
 30
0.0
 10
1.968679
 20
10.918030
 30
0.0
 10
1.968679
 20
1.042276
 30
0.0
 10
3.844433
 20
1.042276
 30
0.0
  0
SPLINE
  5
206
100
AcDbEntity
  8
Capa_1
 62
7
100
AcDbSpline
 70
8
 71
3
 72
8
 73
4
 74
0
 40
0
 40
0
 40
0
 40
0
 40
1
 40
1
 40
1
 40
1
 10
2.680164
 20
10.322410
 30
0.0
 10
2.680164
 20
10.279299
 30
0.0
 10
2.686445
 20
10.237747
 30
0.0
 10
2.699006
 20
10.197754
 30
0.0
  0
SPLINE
  5
207
100
AcDbEntity
  8
Capa_1
 62
7
100
AcDbSpline
 70
8
 71
3
 72
8
 73
4
 74
0
 40
0
 40
0
 40
0
 40
0
 40
1
 40
1
 40
1
 40
1
 10
2.699006
 20
10.197754
 30
0.0
 10
2.711354
 20
10.157775
 30
0.0
 10
2.729345
 20
10.122557
 30
0.0
 10
2.752977
 20
10.092099
 30
0.0
  0
SPLINE
  5
208
100
AcDbEntity
  8
Capa_1
 62
7
100
AcDbSpline
 70
8
 71
3
 72
8
 73
4
 74
0
 40
0
 40
0
 40
0
 40
0
 40
1
 40
1
 40
1
 40
1
 10
2.752977
 20
10.092099
 30
0.0
 10
2.777248
 20
10.060770
 30
0.0
 10
2.806415
 20
10.036115
 30
0.0
 10
2.840480
 20
10.018135
 30
0.0
  0
SPLINE
  5
209
100
AcDbEntity
  8
Capa_1
 62
7
100
AcDbSpline
 70
8
 71
3
 72
8
 73
4
 74
0
 40
0
 40
0
 40
0
 40
0
 40
1
 40
1
 40
1
 40
1
 10
2.840480
 20
10.018135
 30
0.0
 10
2.874545
 20
10.000359
 30
0.0
 10
2.912974
 20
9.991471
 30
0.0
 10
2.955768
 20
9.991471
 30
0.0
  0
SPLINE
  5
20a
100
AcDbEntity
  8
Capa_1
 62
7
100
AcDbSpline
 70
8
 71
3
 72
8
 73
4
 74
0
 40
0
 40
0
 40
0
 40
0
 40
1
 40
1
 40
1
 40
1
 10
2.955768
 20
9.991471
 30
0.0
 10
3.012400
 20
9.991471
 30
0.0
 10
3.056684
 20
10.007579
 30
0.0
 10
3.088620
 20
10.039793
 30
0.0
  0
SPLINE
  5
20b
100
AcDbEntity
  8
Capa_1
 62
7
100
AcDbSpline
 70
8
 71
3
 72
8
 73
4
 74
0
 40
0
 40
0
 40
0
 40
0
 40
1
 40
1
 40
1
 40
1
 10
3.088620
 20
10.039793
 30
0.0
 10
3.120555
 20
10.072212
 30
0.0
 10
3.136523
 20
10.118208
 30
0.0
 10
3.136523
 20
10.177782
 30
0.0
  0
SPLINE
  5
20c
100
AcDbEntity
  8
Capa_1
 62
7
100
AcDbSpline
 70
8
 71
3
 72
8
 73
4
 74
0
 40
0
 40
0
 40
0
 40
0
 40
1
 40
1
 40
1
 40
1
 10
3.136523
 20
10.177782
 30
0.0
 10
3.136523
 20
10.223141
 30
0.0
 10
3.130136
 20
10.265469
 30
0.0
 10
3.117362
 20
10.304767
 30
0.0
  0
SPLINE
  5
20d
100
AcDbEntity
  8
Capa_1
 62
7
100
AcDbSpline
 70
8
 71
3
 72
8
 73
4
 74
0
 40
0
 40
0
 40
0
 40
0
 40
1
 40
1
 40
1
 40
1
 10
3.117362
 20
10.304767
 30
0.0
 10
3.104588
 20
10.344065
 30
0.0
 10
3.086171
 20
10.379174
 30
0.0
 10
3.062113
 20
10.410095
 30
0.0
  0
SPLINE
  5
20e
100
AcDbEntity
  8
Capa_1
 62
7
100
AcDbSpline
 70
8
 71
3
 72
8
 73
4
 74
0
 40
0
 40
0
 40
0
 40
0
 40
1
 40
1
 40
1
 40
1
 10
3.062113
 20
10.410095
 30
0.0
 10
3.038694
 20
10.439858
 30
0.0
 10
3.009739
 20
10.463627
 30
0.0
 10
2.975248
 20
10.481403
 30
0.0
  0
SPLINE
  5
20f
100
AcDbEntity
  8
Capa_1
 62
7
100
AcDbSpline
 70
8
 71
3
 72
8
 73
4
 74
0
 40
0
 40
0
 40
0
 40
0
 40
1
 40
1
 40
1
 40
1
 10
2.975248
 20
10.481403
 30
0.0
 10
2.940545
 20
10.499383
 30
0.0
 10
2.902541
 20
10.508373
 30
0.0
 10
2.861238
 20
10.508373
 30
0.0
  0
SPLINE
  5
210
100
AcDbEntity
  8
Capa_1
 62
7
100
AcDbSpline
 70
8
 71
3
 72
8
 73
4
 74
0
 40
0
 40
0
 40
0
 40
0
 40
1
 40
1
 40
1
 40
1
 10
2.861238
 20
10.508373
 30
0.0
 10
2.804818
 20
10.508373
 30
0.0
 10
2.760534
 20
10.492266
 30
0.0
 10
2.728386
 20
10.460051
 30
0.0
  0
SPLINE
  5
211
100
AcDbEntity
  8
Capa_1
 62
7
100
AcDbSpline
 70
8
 71
3
 72
8
 73
4
 74
0
 40
0
 40
0
 40
0
 40
0
 40
1
 40
1
 40
1
 40
1
 10
2.728386
 20
10.460051
 30
0.0
 10
2.696237
 20
10.428041
 30
0.0
 10
2.680163
 20
10.382154
 30
0.0
 10
2.680163
 20
10.322390
 30
0.0
  0
LWPOLYLINE
  5
212
100
AcDbEntity
  8
Capa_1
 62
7
100
AcDbPolyline
 90
12
 70
1
 10
3.264585
 20
10.001769
 30
0.0
 10
3.453005
 20
10.001769
 30
0.0
 10
3.442467
 20
10.050091
 30
0.0
 10
3.380192
 20
10.050091
 30
0.0
 10
3.291411
 20
10.449723
 30
0.0
 10
3.353686
 20
10.449723
 30
0.0
 10
3.343148
 20
10.498045
 30
0.0
 10
3.154728
 20
10.498045
 30
0.0
 10
3.165267
 20
10.449723
 30
0.0
 10
3.227541
 20
10.449723
 30
0.0
 10
3.316322
 20
10.050091
 30
0.0
 10
3.254048
 20
10.050091
 30
0.0
  0
SPLINE
  5
213
100
AcDbEntity
  8
Capa_1
 62
7
100
AcDbSpline
 70
8
 71
3
 72
8
 73
4
 74
0
 40
0
 40
0
 40
0
 40
0
 40
1
 40
1
 40
1
 40
1
 10
2.801200
 20
10.125097
 30
0.0
 10
2.783316
 20
10.150433
 30
0.0
 10
2.769797
 20
10.178664
 30
0.0
 10
2.760641
 20
10.209789
 30
0.0
  0
SPLINE
  5
214
100
AcDbEntity
  8
Capa_1
 62
7
100
AcDbSpline
 70
8
 71
3
 72
8
 73
4
 74
0
 40
0
 40
0
 40
0
 40
0
 40
1
 40
1
 40
1
 40
1
 10
2.760641
 20
10.209789
 30
0.0
 10
2.751486
 20
10.241118
 30
0.0
 10
2.746909
 20
10.275560
 30
0.0
 10
2.746909
 20
10.313114
 30
0.0
  0
SPLINE
  5
215
100
AcDbEntity
  8
Capa_1
 62
7
100
AcDbSpline
 70
8
 71
3
 72
8
 73
4
 74
0
 40
0
 40
0
 40
0
 40
0
 40
1
 40
1
 40
1
 40
1
 10
2.746909
 20
10.313114
 30
0.0
 10
2.746909
 20
10.358473
 30
0.0
 10
2.757873
 20
10.393249
 30
0.0
 10
2.779802
 20
10.417440
 30
0.0
  0
SPLINE
  5
216
100
AcDbEntity
  8
Capa_1
 62
7
100
AcDbSpline
 70
8
 71
3
 72
8
 73
4
 74
0
 40
0
 40
0
 40
0
 40
0
 40
1
 40
1
 40
1
 40
1
 10
2.779802
 20
10.417440
 30
0.0
 10
2.801518
 20
10.441891
 30
0.0
 10
2.831963
 20
10.454116
 30
0.0
 10
2.871138
 20
10.454116
 30
0.0
  0
SPLINE
  5
217
100
AcDbEntity
  8
Capa_1
 62
7
100
AcDbSpline
 70
8
 71
3
 72
8
 73
4
 74
0
 40
0
 40
0
 40
0
 40
0
 40
1
 40
1
 40
1
 40
1
 10
2.871138
 20
10.454116
 30
0.0
 10
2.901583
 20
10.454116
 30
0.0
 10
2.929048
 20
10.446794
 30
0.0
 10
2.953531
 20
10.432151
 30
0.0
  0
SPLINE
  5
218
100
AcDbEntity
  8
Capa_1
 62
7
100
AcDbSpline
 70
8
 71
3
 72
8
 73
4
 74
0
 40
0
 40
0
 40
0
 40
0
 40
1
 40
1
 40
1
 40
1
 10
2.953531
 20
10.432151
 30
0.0
 10
2.978015
 20
10.417713
 30
0.0
 10
2.999093
 20
10.398064
 30
0.0
 10
3.016764
 20
10.373205
 30
0.0
  0
SPLINE
  5
219
100
AcDbEntity
  8
Capa_1
 62
7
100
AcDbSpline
 70
8
 71
3
 72
8
 73
4
 74
0
 40
0
 40
0
 40
0
 40
0
 40
1
 40
1
 40
1
 40
1
 10
3.016764
 20
10.373205
 30
0.0
 10
3.033796
 20
10.348754
 30
0.0
 10
3.046890
 20
10.320320
 30
0.0
 10
3.056044
 20
10.287901
 30
0.0
  0
SPLINE
  5
21a
100
AcDbEntity
  8
Capa_1
 62
7
100
AcDbSpline
 70
8
 71
3
 72
8
 73
4
 74
0
 40
0
 40
0
 40
0
 40
0
 40
1
 40
1
 40
1
 40
1
 10
3.056044
 20
10.287901
 30
0.0
 10
3.065199
 20
10.255686
 30
0.0
 10
3.069777
 20
10.222484
 30
0.0
 10
3.069777
 20
10.188294
 30
0.0
  0
SPLINE
  5
21b
100
AcDbEntity
  8
Capa_1
 62
7
100
AcDbSpline
 70
8
 71
3
 72
8
 73
4
 74
0
 40
0
 40
0
 40
0
 40
0
 40
1
 40
1
 40
1
 40
1
 10
3.069777
 20
10.188294
 30
0.0
 10
3.069777
 20
10.142526
 30
0.0
 10
3.058919
 20
10.107308
 30
0.0
 10
3.037203
 20
10.082639
 30
0.0
  0
SPLINE
  5
21c
100
AcDbEntity
  8
Capa_1
 62
7
100
AcDbSpline
 70
8
 71
3
 72
8
 73
4
 74
0
 40
0
 40
0
 40
0
 40
0
 40
1
 40
1
 40
1
 40
1
 10
3.037203
 20
10.082639
 30
0.0
 10
3.015274
 20
10.058189
 30
0.0
 10
2.984615
 20
10.045964
 30
0.0
 10
2.945228
 20
10.045964
 30
0.0
  0
SPLINE
  5
21d
100
AcDbEntity
  8
Capa_1
 62
7
100
AcDbSpline
 70
8
 71
3
 72
8
 73
4
 74
0
 40
0
 40
0
 40
0
 40
0
 40
1
 40
1
 40
1
 40
1
 10
2.945228
 20
10.045964
 30
0.0
 10
2.915208
 20
10.045964
 30
0.0
 10
2.887957
 20
10.053183
 30
0.0
 10
2.863473
 20
10.067622
 30
0.0
  0
SPLINE
  5
21e
100
AcDbEntity
  8
Capa_1
 62
7
100
AcDbSpline
 70
8
 71
3
 72
8
 73
4
 74
0
 40
0
 40
0
 40
0
 40
0
 40
1
 40
1
 40
1
 40
1
 10
2.863473
 20
10.067622
 30
0.0
 10
2.838776
 20
10.082061
 30
0.0
 10
2.818018
 20
10.101267
 30
0.0
 10
2.801199
 20
10.125240
 30
0.0
  0
LWPOLYLINE
  5
21f
100
AcDbEntity
  8
Capa_1
 62
7
100
AcDbPolyline
 90
1
 70
1
 10
2.680163
 20
10.322390
 30
0.0
  0
SPLINE
  5
220
100
AcDbEntity
  8
Capa_1
 62
7
100
AcDbSpline
 70
8
 71
3
 72
8
 73
4
 74
0
 40
0
 40
0
 40
0
 40
0
 40
1
 40
1
 40
1
 40
1
 10
2.263405
 20
10.362406
 30
0.0
 10
2.263405
 20
10.318409
 30
0.0
 10
2.271282
 20
10.266638
 30
0.0
 10
2.287037
 20
10.207092
 30
0.0
  0
SPLINE
  5
221
100
AcDbEntity
  8
Capa_1
 62
7
100
AcDbSpline
 70
8
 71
3
 72
8
 73
4
 74
0
 40
0
 40
0
 40
0
 40
0
 40
1
 40
1
 40
1
 40
1
 10
2.287037
 20
10.207092
 30
0.0
 10
2.302579
 20
10.147566
 30
0.0
 10
2.321954
 20
10.101791
 30
0.0
 10
2.345160
 20
10.069767
 30
0.0
  0
SPLINE
  5
222
100
AcDbEntity
  8
Capa_1
 62
7
100
AcDbSpline
 70
8
 71
3
 72
8
 73
4
 74
0
 40
0
 40
0
 40
0
 40
0
 40
1
 40
1
 40
1
 40
1
 10
2.345160
 20
10.069767
 30
0.0
 10
2.364960
 20
10.042865
 30
0.0
 10
2.386890
 20
10.023080
 30
0.0
 10
2.410948
 20
10.010412
 30
0.0
  0
SPLINE
  5
223
100
AcDbEntity
  8
Capa_1
 62
7
100
AcDbSpline
 70
8
 71
3
 72
8
 73
4
 74
0
 40
0
 40
0
 40
0
 40
0
 40
1
 40
1
 40
1
 40
1
 10
2.410948
 20
10.010412
 30
0.0
 10
2.434793
 20
9.997744
 30
0.0
 10
2.462470
 20
9.991410
 30
0.0
 10
2.493980
 20
9.991410
 30
0.0
  0
SPLINE
  5
224
100
AcDbEntity
  8
Capa_1
 62
7
100
AcDbSpline
 70
8
 71
3
 72
8
 73
4
 74
0
 40
0
 40
0
 40
0
 40
0
 40
1
 40
1
 40
1
 40
1
 10
2.493980
 20
9.991410
 30
0.0
 10
2.537199
 20
9.991410
 30
0.0
 10
2.569348
 20
10.003397
 30
0.0
 10
2.590425
 20
10.027371
 30
0.0
  0
SPLINE
  5
225
100
AcDbEntity
  8
Capa_1
 62
7
100
AcDbSpline
 70
8
 71
3
 72
8
 73
4
 74
0
 40
0
 40
0
 40
0
 40
0
 40
1
 40
1
 40
1
 40
1
 10
2.590425
 20
10.027371
 30
0.0
 10
2.611502
 20
10.051344
 30
0.0
 10
2.622041
 20
10.087894
 30
0.0
 10
2.622041
 20
10.137020
 30
0.0
  0
SPLINE
  5
226
100
AcDbEntity
  8
Capa_1
 62
7
100
AcDbSpline
 70
8
 71
3
 72
8
 73
4
 74
0
 40
0
 40
0
 40
0
 40
0
 40
1
 40
1
 40
1
 40
1
 10
2.622041
 20
10.137020
 30
0.0
 10
2.622041
 20
10.176794
 30
0.0
 10
2.614695
 20
10.226904
 30
0.0
 10
2.600005
 20
10.287349
 30
0.0
  0
SPLINE
  5
227
100
AcDbEntity
  8
Capa_1
 62
7
100
AcDbSpline
 70
8
 71
3
 72
8
 73
4
 74
0
 40
0
 40
0
 40
0
 40
0
 40
1
 40
1
 40
1
 40
1
 10
2.600005
 20
10.287349
 30
0.0
 10
2.585102
 20
10.347760
 30
0.0
 10
2.565195
 20
10.395200
 30
0.0
 10
2.540285
 20
10.429669
 30
0.0
  0
SPLINE
  5
228
100
AcDbEntity
  8
Capa_1
 62
7
100
AcDbSpline
 70
8
 71
3
 72
8
 73
4
 74
0
 40
0
 40
0
 40
0
 40
0
 40
1
 40
1
 40
1
 40
1
 10
2.540285
 20
10.429669
 30
0.0
 10
2.521124
 20
10.456367
 30
0.0
 10
2.499301
 20
10.476016
 30
0.0
 10
2.474817
 20
10.488616
 30
0.0
  0
SPLINE
  5
229
100
AcDbEntity
  8
Capa_1
 62
7
100
AcDbSpline
 70
8
 71
3
 72
8
 73
4
 74
0
 40
0
 40
0
 40
0
 40
0
 40
1
 40
1
 40
1
 40
1
 10
2.474817
 20
10.488616
 30
0.0
 10
2.450120
 20
10.501488
 30
0.0
 10
2.422229
 20
10.507924
 30
0.0
 10
2.391146
 20
10.507924
 30
0.0
  0
SPLINE
  5
22a
100
AcDbEntity
  8
Capa_1
 62
7
100
AcDbSpline
 70
8
 71
3
 72
8
 73
4
 74
0
 40
0
 40
0
 40
0
 40
0
 40
1
 40
1
 40
1
 40
1
 10
2.391146
 20
10.507924
 30
0.0
 10
2.348139
 20
10.507924
 30
0.0
 10
2.316097
 20
10.495801
 30
0.0
 10
2.295019
 20
10.471555
 30
0.0
  0
SPLINE
  5
22b
100
AcDbEntity
  8
Capa_1
 62
7
100
AcDbSpline
 70
8
 71
3
 72
8
 73
4
 74
0
 40
0
 40
0
 40
0
 40
0
 40
1
 40
1
 40
1
 40
1
 10
2.295019
 20
10.471555
 30
0.0
 10
2.273942
 20
10.447581
 30
0.0
 10
2.263404
 20
10.411137
 30
0.0
 10
2.263404
 20
10.362222
 30
0.0
  0
LWPOLYLINE
  5
22c
100
AcDbEntity
  8
Capa_1
 62
7
100
AcDbPolyline
 90
2
 70
0
 10
2.801199
 20
10.125240
 30
0.0
 10
2.801200
 20
10.125097
 30
0.0
  0
SPLINE
  5
22d
100
AcDbEntity
  8
Capa_1
 62
7
100
AcDbSpline
 70
8
 71
3
 72
8
 73
4
 74
0
 40
0
 40
0
 40
0
 40
0
 40
1
 40
1
 40
1
 40
1
 10
2.327915
 20
10.363408
 30
0.0
 10
2.327915
 20
10.393170
 30
0.0
 10
2.333344
 20
10.415952
 30
0.0
 10
2.344202
 20
10.431753
 30
0.0
  0
SPLINE
  5
22e
100
AcDbEntity
  8
Capa_1
 62
7
100
AcDbSpline
 70
8
 71
3
 72
8
 73
4
 74
0
 40
0
 40
0
 40
0
 40
0
 40
1
 40
1
 40
1
 40
1
 10
2.344202
 20
10.431753
 30
0.0
 10
2.354847
 20
10.447554
 30
0.0
 10
2.374008
 20
10.455454
 30
0.0
 10
2.401686
 20
10.455454
 30
0.0
  0
SPLINE
  5
22f
100
AcDbEntity
  8
Capa_1
 62
7
100
AcDbSpline
 70
8
 71
3
 72
8
 73
4
 74
0
 40
0
 40
0
 40
0
 40
0
 40
1
 40
1
 40
1
 40
1
 10
2.401686
 20
10.455454
 30
0.0
 10
2.422125
 20
10.455454
 30
0.0
 10
2.440222
 20
10.450789
 30
0.0
 10
2.455977
 20
10.441458
 30
0.0
  0
SPLINE
  5
230
100
AcDbEntity
  8
Capa_1
 62
7
100
AcDbSpline
 70
8
 71
3
 72
8
 73
4
 74
0
 40
0
 40
0
 40
0
 40
0
 40
1
 40
1
 40
1
 40
1
 10
2.455977
 20
10.441458
 30
0.0
 10
2.471519
 20
10.432128
 30
0.0
 10
2.485783
 20
10.415680
 30
0.0
 10
2.498770
 20
10.392115
 30
0.0
  0
SPLINE
  5
231
100
AcDbEntity
  8
Capa_1
 62
7
100
AcDbSpline
 70
8
 71
3
 72
8
 73
4
 74
0
 40
0
 40
0
 40
0
 40
0
 40
1
 40
1
 40
1
 40
1
 10
2.498770
 20
10.392115
 30
0.0
 10
2.513673
 20
10.364804
 30
0.0
 10
2.527193
 20
10.324028
 30
0.0
 10
2.539329
 20
10.269787
 30
0.0
  0
SPLINE
  5
232
100
AcDbEntity
  8
Capa_1
 62
7
100
AcDbSpline
 70
8
 71
3
 72
8
 73
4
 74
0
 40
0
 40
0
 40
0
 40
0
 40
1
 40
1
 40
1
 40
1
 10
2.539329
 20
10.269787
 30
0.0
 10
2.551465
 20
10.215779
 30
0.0
 10
2.557533
 20
10.171230
 30
0.0
 10
2.557533
 20
10.136141
 30
0.0
  0
SPLINE
  5
233
100
AcDbEntity
  8
Capa_1
 62
7
100
AcDbSpline
 70
8
 71
3
 72
8
 73
4
 74
0
 40
0
 40
0
 40
0
 40
0
 40
1
 40
1
 40
1
 40
1
 10
2.557533
 20
10.136141
 30
0.0
 10
2.557533
 20
10.106378
 30
0.0
 10
2.552210
 20
10.083596
 30
0.0
 10
2.541565
 20
10.067795
 30
0.0
  0
SPLINE
  5
234
100
AcDbEntity
  8
Capa_1
 62
7
100
AcDbSpline
 70
8
 71
3
 72
8
 73
4
 74
0
 40
0
 40
0
 40
0
 40
0
 40
1
 40
1
 40
1
 40
1
 10
2.541565
 20
10.067795
 30
0.0
 10
2.530706
 20
10.051995
 30
0.0
 10
2.511439
 20
10.044094
 30
0.0
 10
2.483761
 20
10.044094
 30
0.0
  0
SPLINE
  5
235
100
AcDbEntity
  8
Capa_1
 62
7
100
AcDbSpline
 70
8
 71
3
 72
8
 73
4
 74
0
 40
0
 40
0
 40
0
 40
0
 40
1
 40
1
 40
1
 40
1
 10
2.483761
 20
10.044094
 30
0.0
 10
2.464387
 20
10.044094
 30
0.0
 10
2.446397
 20
10.048964
 30
0.0
 10
2.429791
 20
10.058703
 30
0.0
  0
SPLINE
  5
236
100
AcDbEntity
  8
Capa_1
 62
7
100
AcDbSpline
 70
8
 71
3
 72
8
 73
4
 74
0
 40
0
 40
0
 40
0
 40
0
 40
1
 40
1
 40
1
 40
1
 10
2.429791
 20
10.058703
 30
0.0
 10
2.413184
 20
10.068511
 30
0.0
 10
2.398813
 20
10.084720
 30
0.0
 10
2.386677
 20
10.107332
 30
0.0
  0
SPLINE
  5
237
100
AcDbEntity
  8
Capa_1
 62
7
100
AcDbSpline
 70
8
 71
3
 72
8
 73
4
 74
0
 40
0
 40
0
 40
0
 40
0
 40
1
 40
1
 40
1
 40
1
 10
2.386677
 20
10.107332
 30
0.0
 10
2.371774
 20
10.135119
 30
0.0
 10
2.358255
 20
10.176004
 30
0.0
 10
2.346119
 20
10.229986
 30
0.0
  0
SPLINE
  5
238
100
AcDbEntity
  8
Capa_1
 62
7
100
AcDbSpline
 70
8
 71
3
 72
8
 73
4
 74
0
 40
0
 40
0
 40
0
 40
0
 40
1
 40
1
 40
1
 40
1
 10
2.346119
 20
10.229986
 30
0.0
 10
2.333984
 20
10.284199
 30
0.0
 10
2.327916
 20
10.328639
 30
0.0
 10
2.327916
 20
10.363305
 30
0.0
  0
LWPOLYLINE
  5
239
100
AcDbEntity
  8
Capa_1
 62
7
100
AcDbPolyline
 90
2
 70
0
 10
2.263404
 20
10.362222
 30
0.0
 10
2.263405
 20
10.362406
 30
0.0
  0
LWPOLYLINE
  5
23a
100
AcDbEntity
  8
Capa_1
 62
7
100
AcDbPolyline
 90
2
 70
0
 10
2.327916
 20
10.363305
 30
0.0
 10
2.327915
 20
10.363408
 30
0.0
  0
SPLINE
  5
23b
100
AcDbEntity
  8
Capa_1
 62
7
100
AcDbSpline
 70
8
 71
3
 72
8
 73
4
 74
0
 40
0
 40
0
 40
0
 40
0
 40
1
 40
1
 40
1
 40
1
 10
2.680164
 20
8.615888
 30
0.0
 10
2.680164
 20
8.572777
 30
0.0
 10
2.686445
 20
8.531225
 30
0.0
 10
2.699006
 20
8.491232
 30
0.0
  0
SPLINE
  5
23c
100
AcDbEntity
  8
Capa_1
 62
7
100
AcDbSpline
 70
8
 71
3
 72
8
 73
4
 74
0
 40
0
 40
0
 40
0
 40
0
 40
1
 40
1
 40
1
 40
1
 10
2.699006
 20
8.491232
 30
0.0
 10
2.711354
 20
8.451253
 30
0.0
 10
2.729345
 20
8.416035
 30
0.0
 10
2.752977
 20
8.385578
 30
0.0
  0
SPLINE
  5
23d
100
AcDbEntity
  8
Capa_1
 62
7
100
AcDbSpline
 70
8
 71
3
 72
8
 73
4
 74
0
 40
0
 40
0
 40
0
 40
0
 40
1
 40
1
 40
1
 40
1
 10
2.752977
 20
8.385578
 30
0.0
 10
2.777248
 20
8.354248
 30
0.0
 10
2.806415
 20
8.329593
 30
0.0
 10
2.840480
 20
8.311613
 30
0.0
  0
SPLINE
  5
23e
100
AcDbEntity
  8
Capa_1
 62
7
100
AcDbSpline
 70
8
 71
3
 72
8
 73
4
 74
0
 40
0
 40
0
 40
0
 40
0
 40
1
 40
1
 40
1
 40
1
 10
2.840480
 20
8.311613
 30
0.0
 10
2.874545
 20
8.293837
 30
0.0
 10
2.912974
 20
8.284949
 30
0.0
 10
2.955768
 20
8.284949
 30
0.0
  0
SPLINE
  5
23f
100
AcDbEntity
  8
Capa_1
 62
7
100
AcDbSpline
 70
8
 71
3
 72
8
 73
4
 74
0
 40
0
 40
0
 40
0
 40
0
 40
1
 40
1
 40
1
 40
1
 10
2.955768
 20
8.284949
 30
0.0
 10
3.012400
 20
8.284949
 30
0.0
 10
3.056684
 20
8.301057
 30
0.0
 10
3.088620
 20
8.333271
 30
0.0
  0
SPLINE
  5
240
100
AcDbEntity
  8
Capa_1
 62
7
100
AcDbSpline
 70
8
 71
3
 72
8
 73
4
 74
0
 40
0
 40
0
 40
0
 40
0
 40
1
 40
1
 40
1
 40
1
 10
3.088620
 20
8.333271
 30
0.0
 10
3.120555
 20
8.365690
 30
0.0
 10
3.136523
 20
8.411686
 30
0.0
 10
3.136523
 20
8.471260
 30
0.0
  0
SPLINE
  5
241
100
AcDbEntity
  8
Capa_1
 62
7
100
AcDbSpline
 70
8
 71
3
 72
8
 73
4
 74
0
 40
0
 40
0
 40
0
 40
0
 40
1
 40
1
 40
1
 40
1
 10
3.136523
 20
8.471260
 30
0.0
 10
3.136523
 20
8.516619
 30
0.0
 10
3.130136
 20
8.558948
 30
0.0
 10
3.117362
 20
8.598245
 30
0.0
  0
SPLINE
  5
242
100
AcDbEntity
  8
Capa_1
 62
7
100
AcDbSpline
 70
8
 71
3
 72
8
 73
4
 74
0
 40
0
 40
0
 40
0
 40
0
 40
1
 40
1
 40
1
 40
1
 10
3.117362
 20
8.598245
 30
0.0
 10
3.104588
 20
8.637543
 30
0.0
 10
3.086171
 20
8.672652
 30
0.0
 10
3.062113
 20
8.703573
 30
0.0
  0
SPLINE
  5
243
100
AcDbEntity
  8
Capa_1
 62
7
100
AcDbSpline
 70
8
 71
3
 72
8
 73
4
 74
0
 40
0
 40
0
 40
0
 40
0
 40
1
 40
1
 40
1
 40
1
 10
3.062113
 20
8.703573
 30
0.0
 10
3.038694
 20
8.733336
 30
0.0
 10
3.009739
 20
8.757105
 30
0.0
 10
2.975248
 20
8.774881
 30
0.0
  0
SPLINE
  5
244
100
AcDbEntity
  8
Capa_1
 62
7
100
AcDbSpline
 70
8
 71
3
 72
8
 73
4
 74
0
 40
0
 40
0
 40
0
 40
0
 40
1
 40
1
 40
1
 40
1
 10
2.975248
 20
8.774881
 30
0.0
 10
2.940545
 20
8.792861
 30
0.0
 10
2.902541
 20
8.801851
 30
0.0
 10
2.861238
 20
8.801851
 30
0.0
  0
SPLINE
  5
245
100
AcDbEntity
  8
Capa_1
 62
7
100
AcDbSpline
 70
8
 71
3
 72
8
 73
4
 74
0
 40
0
 40
0
 40
0
 40
0
 40
1
 40
1
 40
1
 40
1
 10
2.861238
 20
8.801851
 30
0.0
 10
2.804818
 20
8.801851
 30
0.0
 10
2.760534
 20
8.785744
 30
0.0
 10
2.728386
 20
8.753529
 30
0.0
  0
SPLINE
  5
246
100
AcDbEntity
  8
Capa_1
 62
7
100
AcDbSpline
 70
8
 71
3
 72
8
 73
4
 74
0
 40
0
 40
0
 40
0
 40
0
 40
1
 40
1
 40
1
 40
1
 10
2.728386
 20
8.753529
 30
0.0
 10
2.696237
 20
8.721519
 30
0.0
 10
2.680163
 20
8.675632
 30
0.0
 10
2.680163
 20
8.615868
 30
0.0
  0
LWPOLYLINE
  5
247
100
AcDbEntity
  8
Capa_1
 62
7
100
AcDbPolyline
 90
12
 70
1
 10
3.264585
 20
8.295247
 30
0.0
 10
3.453005
 20
8.295247
 30
0.0
 10
3.442467
 20
8.343569
 30
0.0
 10
3.380192
 20
8.343569
 30
0.0
 10
3.291411
 20
8.743201
 30
0.0
 10
3.353686
 20
8.743201
 30
0.0
 10
3.343148
 20
8.791523
 30
0.0
 10
3.154728
 20
8.791523
 30
0.0
 10
3.165267
 20
8.743201
 30
0.0
 10
3.227541
 20
8.743201
 30
0.0
 10
3.316322
 20
8.343569
 30
0.0
 10
3.254048
 20
8.343569
 30
0.0
  0
SPLINE
  5
248
100
AcDbEntity
  8
Capa_1
 62
7
100
AcDbSpline
 70
8
 71
3
 72
8
 73
4
 74
0
 40
0
 40
0
 40
0
 40
0
 40
1
 40
1
 40
1
 40
1
 10
2.801200
 20
8.418575
 30
0.0
 10
2.783316
 20
8.443911
 30
0.0
 10
2.769797
 20
8.472142
 30
0.0
 10
2.760641
 20
8.503267
 30
0.0
  0
SPLINE
  5
249
100
AcDbEntity
  8
Capa_1
 62
7
100
AcDbSpline
 70
8
 71
3
 72
8
 73
4
 74
0
 40
0
 40
0
 40
0
 40
0
 40
1
 40
1
 40
1
 40
1
 10
2.760641
 20
8.503267
 30
0.0
 10
2.751486
 20
8.534596
 30
0.0
 10
2.746909
 20
8.569038
 30
0.0
 10
2.746909
 20
8.606592
 30
0.0
  0
SPLINE
  5
24a
100
AcDbEntity
  8
Capa_1
 62
7
100
AcDbSpline
 70
8
 71
3
 72
8
 73
4
 74
0
 40
0
 40
0
 40
0
 40
0
 40
1
 40
1
 40
1
 40
1
 10
2.746909
 20
8.606592
 30
0.0
 10
2.746909
 20
8.651951
 30
0.0
 10
2.757873
 20
8.686727
 30
0.0
 10
2.779802
 20
8.710918
 30
0.0
  0
SPLINE
  5
24b
100
AcDbEntity
  8
Capa_1
 62
7
100
AcDbSpline
 70
8
 71
3
 72
8
 73
4
 74
0
 40
0
 40
0
 40
0
 40
0
 40
1
 40
1
 40
1
 40
1
 10
2.779802
 20
8.710918
 30
0.0
 10
2.801518
 20
8.735369
 30
0.0
 10
2.831963
 20
8.747594
 30
0.0
 10
2.871138
 20
8.747594
 30
0.0
  0
SPLINE
  5
24c
100
AcDbEntity
  8
Capa_1
 62
7
100
AcDbSpline
 70
8
 71
3
 72
8
 73
4
 74
0
 40
0
 40
0
 40
0
 40
0
 40
1
 40
1
 40
1
 40
1
 10
2.871138
 20
8.747594
 30
0.0
 10
2.901583
 20
8.747594
 30
0.0
 10
2.929048
 20
8.740272
 30
0.0
 10
2.953531
 20
8.725629
 30
0.0
  0
SPLINE
  5
24d
100
AcDbEntity
  8
Capa_1
 62
7
100
AcDbSpline
 70
8
 71
3
 72
8
 73
4
 74
0
 40
0
 40
0
 40
0
 40
0
 40
1
 40
1
 40
1
 40
1
 10
2.953531
 20
8.725629
 30
0.0
 10
2.978015
 20
8.711191
 30
0.0
 10
2.999093
 20
8.691542
 30
0.0
 10
3.016764
 20
8.666683
 30
0.0
  0
SPLINE
  5
24e
100
AcDbEntity
  8
Capa_1
 62
7
100
AcDbSpline
 70
8
 71
3
 72
8
 73
4
 74
0
 40
0
 40
0
 40
0
 40
0
 40
1
 40
1
 40
1
 40
1
 10
3.016764
 20
8.666683
 30
0.0
 10
3.033796
 20
8.642232
 30
0.0
 10
3.046890
 20
8.613798
 30
0.0
 10
3.056044
 20
8.581379
 30
0.0
  0
SPLINE
  5
24f
100
AcDbEntity
  8
Capa_1
 62
7
100
AcDbSpline
 70
8
 71
3
 72
8
 73
4
 74
0
 40
0
 40
0
 40
0
 40
0
 40
1
 40
1
 40
1
 40
1
 10
3.056044
 20
8.581379
 30
0.0
 10
3.065199
 20
8.549164
 30
0.0
 10
3.069777
 20
8.515928
 30
0.0
 10
3.069777
 20
8.481670
 30
0.0
  0
SPLINE
  5
250
100
AcDbEntity
  8
Capa_1
 62
7
100
AcDbSpline
 70
8
 71
3
 72
8
 73
4
 74
0
 40
0
 40
0
 40
0
 40
0
 40
1
 40
1
 40
1
 40
1
 10
3.069777
 20
8.481670
 30
0.0
 10
3.069777
 20
8.435902
 30
0.0
 10
3.058919
 20
8.400684
 30
0.0
 10
3.037203
 20
8.376015
 30
0.0
  0
SPLINE
  5
251
100
AcDbEntity
  8
Capa_1
 62
7
100
AcDbSpline
 70
8
 71
3
 72
8
 73
4
 74
0
 40
0
 40
0
 40
0
 40
0
 40
1
 40
1
 40
1
 40
1
 10
3.037203
 20
8.376015
 30
0.0
 10
3.015274
 20
8.351565
 30
0.0
 10
2.984615
 20
8.339340
 30
0.0
 10
2.945228
 20
8.339340
 30
0.0
  0
SPLINE
  5
252
100
AcDbEntity
  8
Capa_1
 62
7
100
AcDbSpline
 70
8
 71
3
 72
8
 73
4
 74
0
 40
0
 40
0
 40
0
 40
0
 40
1
 40
1
 40
1
 40
1
 10
2.945228
 20
8.339340
 30
0.0
 10
2.915208
 20
8.339340
 30
0.0
 10
2.887957
 20
8.346559
 30
0.0
 10
2.863473
 20
8.360998
 30
0.0
  0
SPLINE
  5
253
100
AcDbEntity
  8
Capa_1
 62
7
100
AcDbSpline
 70
8
 71
3
 72
8
 73
4
 74
0
 40
0
 40
0
 40
0
 40
0
 40
1
 40
1
 40
1
 40
1
 10
2.863473
 20
8.360998
 30
0.0
 10
2.838776
 20
8.375436
 30
0.0
 10
2.818018
 20
8.394643
 30
0.0
 10
2.801199
 20
8.418616
 30
0.0
  0
LWPOLYLINE
  5
254
100
AcDbEntity
  8
Capa_1
 62
7
100
AcDbPolyline
 90
1
 70
1
 10
2.680163
 20
8.615868
 30
0.0
  0
LWPOLYLINE
  5
255
100
AcDbEntity
  8
Capa_1
 62
7
100
AcDbPolyline
 90
1
 70
1
 10
2.801199
 20
8.418616
 30
0.0
  0
SPLINE
  5
256
100
AcDbEntity
  8
Capa_1
 62
7
100
AcDbSpline
 70
8
 71
3
 72
8
 73
4
 74
0
 40
0
 40
0
 40
0
 40
0
 40
1
 40
1
 40
1
 40
1
 10
2.521445
 20
8.723882
 30
0.0
 10
2.484613
 20
8.723882
 30
0.0
 10
2.456084
 20
8.729229
 30
0.0
 10
2.435858
 20
8.739922
 30
0.0
  0
SPLINE
  5
257
100
AcDbEntity
  8
Capa_1
 62
7
100
AcDbSpline
 70
8
 71
3
 72
8
 73
4
 74
0
 40
0
 40
0
 40
0
 40
0
 40
1
 40
1
 40
1
 40
1
 10
2.435858
 20
8.739922
 30
0.0
 10
2.415419
 20
8.750819
 30
0.0
 10
2.401793
 20
8.768595
 30
0.0
 10
2.394980
 20
8.793250
 30
0.0
  0
LWPOLYLINE
  5
258
100
AcDbEntity
  8
Capa_1
 62
7
100
AcDbPolyline
 90
7
 70
0
 10
2.356976
 20
8.295247
 30
0.0
 10
2.615015
 20
8.295247
 30
0.0
 10
2.604157
 20
8.343569
 30
0.0
 10
2.506434
 20
8.343569
 30
0.0
 10
2.431705
 20
8.680873
 30
0.0
 10
2.530705
 20
8.680873
 30
0.0
 10
2.521445
 20
8.723882
 30
0.0
  0
LWPOLYLINE
  5
259
100
AcDbEntity
  8
Capa_1
 62
7
100
AcDbPolyline
 90
5
 70
0
 10
2.394980
 20
8.793250
 30
0.0
 10
2.345160
 20
8.793250
 30
0.0
 10
2.444480
 20
8.343620
 30
0.0
 10
2.346118
 20
8.343620
 30
0.0
 10
2.356976
 20
8.295247
 30
0.0
  0
SPLINE
  5
25a
100
AcDbEntity
  8
Capa_1
 62
7
100
AcDbSpline
 70
8
 71
3
 72
8
 73
4
 74
0
 40
0
 40
0
 40
0
 40
0
 40
1
 40
1
 40
1
 40
1
 10
2.680164
 20
6.909366
 30
0.0
 10
2.680164
 20
6.866255
 30
0.0
 10
2.686445
 20
6.824703
 30
0.0
 10
2.699006
 20
6.784710
 30
0.0
  0
SPLINE
  5
25b
100
AcDbEntity
  8
Capa_1
 62
7
100
AcDbSpline
 70
8
 71
3
 72
8
 73
4
 74
0
 40
0
 40
0
 40
0
 40
0
 40
1
 40
1
 40
1
 40
1
 10
2.699006
 20
6.784710
 30
0.0
 10
2.711354
 20
6.744731
 30
0.0
 10
2.729345
 20
6.709513
 30
0.0
 10
2.752977
 20
6.679056
 30
0.0
  0
SPLINE
  5
25c
100
AcDbEntity
  8
Capa_1
 62
7
100
AcDbSpline
 70
8
 71
3
 72
8
 73
4
 74
0
 40
0
 40
0
 40
0
 40
0
 40
1
 40
1
 40
1
 40
1
 10
2.752977
 20
6.679056
 30
0.0
 10
2.777248
 20
6.647726
 30
0.0
 10
2.806415
 20
6.623072
 30
0.0
 10
2.840480
 20
6.605091
 30
0.0
  0
SPLINE
  5
25d
100
AcDbEntity
  8
Capa_1
 62
7
100
AcDbSpline
 70
8
 71
3
 72
8
 73
4
 74
0
 40
0
 40
0
 40
0
 40
0
 40
1
 40
1
 40
1
 40
1
 10
2.840480
 20
6.605091
 30
0.0
 10
2.874545
 20
6.587315
 30
0.0
 10
2.912974
 20
6.578427
 30
0.0
 10
2.955768
 20
6.578427
 30
0.0
  0
SPLINE
  5
25e
100
AcDbEntity
  8
Capa_1
 62
7
100
AcDbSpline
 70
8
 71
3
 72
8
 73
4
 74
0
 40
0
 40
0
 40
0
 40
0
 40
1
 40
1
 40
1
 40
1
 10
2.955768
 20
6.578427
 30
0.0
 10
3.012400
 20
6.578427
 30
0.0
 10
3.056684
 20
6.594535
 30
0.0
 10
3.088620
 20
6.626749
 30
0.0
  0
SPLINE
  5
25f
100
AcDbEntity
  8
Capa_1
 62
7
100
AcDbSpline
 70
8
 71
3
 72
8
 73
4
 74
0
 40
0
 40
0
 40
0
 40
0
 40
1
 40
1
 40
1
 40
1
 10
3.088620
 20
6.626749
 30
0.0
 10
3.120555
 20
6.659168
 30
0.0
 10
3.136523
 20
6.705164
 30
0.0
 10
3.136523
 20
6.764738
 30
0.0
  0
SPLINE
  5
260
100
AcDbEntity
  8
Capa_1
 62
7
100
AcDbSpline
 70
8
 71
3
 72
8
 73
4
 74
0
 40
0
 40
0
 40
0
 40
0
 40
1
 40
1
 40
1
 40
1
 10
3.136523
 20
6.764738
 30
0.0
 10
3.136523
 20
6.810097
 30
0.0
 10
3.130136
 20
6.852426
 30
0.0
 10
3.117362
 20
6.891723
 30
0.0
  0
SPLINE
  5
261
100
AcDbEntity
  8
Capa_1
 62
7
100
AcDbSpline
 70
8
 71
3
 72
8
 73
4
 74
0
 40
0
 40
0
 40
0
 40
0
 40
1
 40
1
 40
1
 40
1
 10
3.117362
 20
6.891723
 30
0.0
 10
3.104588
 20
6.931021
 30
0.0
 10
3.086171
 20
6.966130
 30
0.0
 10
3.062113
 20
6.997051
 30
0.0
  0
SPLINE
  5
262
100
AcDbEntity
  8
Capa_1
 62
7
100
AcDbSpline
 70
8
 71
3
 72
8
 73
4
 74
0
 40
0
 40
0
 40
0
 40
0
 40
1
 40
1
 40
1
 40
1
 10
3.062113
 20
6.997051
 30
0.0
 10
3.038694
 20
7.026814
 30
0.0
 10
3.009739
 20
7.050583
 30
0.0
 10
2.975248
 20
7.068359
 30
0.0
  0
SPLINE
  5
263
100
AcDbEntity
  8
Capa_1
 62
7
100
AcDbSpline
 70
8
 71
3
 72
8
 73
4
 74
0
 40
0
 40
0
 40
0
 40
0
 40
1
 40
1
 40
1
 40
1
 10
2.975248
 20
7.068359
 30
0.0
 10
2.940545
 20
7.086339
 30
0.0
 10
2.902541
 20
7.095329
 30
0.0
 10
2.861238
 20
7.095329
 30
0.0
  0
SPLINE
  5
264
100
AcDbEntity
  8
Capa_1
 62
7
100
AcDbSpline
 70
8
 71
3
 72
8
 73
4
 74
0
 40
0
 40
0
 40
0
 40
0
 40
1
 40
1
 40
1
 40
1
 10
2.861238
 20
7.095329
 30
0.0
 10
2.804818
 20
7.095329
 30
0.0
 10
2.760534
 20
7.079222
 30
0.0
 10
2.728386
 20
7.047008
 30
0.0
  0
SPLINE
  5
265
100
AcDbEntity
  8
Capa_1
 62
7
100
AcDbSpline
 70
8
 71
3
 72
8
 73
4
 74
0
 40
0
 40
0
 40
0
 40
0
 40
1
 40
1
 40
1
 40
1
 10
2.728386
 20
7.047008
 30
0.0
 10
2.696237
 20
7.014997
 30
0.0
 10
2.680163
 20
6.969110
 30
0.0
 10
2.680163
 20
6.909346
 30
0.0
  0
LWPOLYLINE
  5
266
100
AcDbEntity
  8
Capa_1
 62
7
100
AcDbPolyline
 90
12
 70
1
 10
3.264585
 20
6.588725
 30
0.0
 10
3.453005
 20
6.588725
 30
0.0
 10
3.442467
 20
6.637047
 30
0.0
 10
3.380192
 20
6.637047
 30
0.0
 10
3.291411
 20
7.036679
 30
0.0
 10
3.353686
 20
7.036679
 30
0.0
 10
3.343148
 20
7.085001
 30
0.0
 10
3.154728
 20
7.085001
 30
0.0
 10
3.165267
 20
7.036679
 30
0.0
 10
3.227541
 20
7.036679
 30
0.0
 10
3.316322
 20
6.637047
 30
0.0
 10
3.254048
 20
6.637047
 30
0.0
  0
SPLINE
  5
267
100
AcDbEntity
  8
Capa_1
 62
7
100
AcDbSpline
 70
8
 71
3
 72
8
 73
4
 74
0
 40
0
 40
0
 40
0
 40
0
 40
1
 40
1
 40
1
 40
1
 10
2.801200
 20
6.712053
 30
0.0
 10
2.783316
 20
6.737389
 30
0.0
 10
2.769797
 20
6.765620
 30
0.0
 10
2.760641
 20
6.796745
 30
0.0
  0
SPLINE
  5
268
100
AcDbEntity
  8
Capa_1
 62
7
100
AcDbSpline
 70
8
 71
3
 72
8
 73
4
 74
0
 40
0
 40
0
 40
0
 40
0
 40
1
 40
1
 40
1
 40
1
 10
2.760641
 20
6.796745
 30
0.0
 10
2.751486
 20
6.828074
 30
0.0
 10
2.746909
 20
6.862516
 30
0.0
 10
2.746909
 20
6.900070
 30
0.0
  0
SPLINE
  5
269
100
AcDbEntity
  8
Capa_1
 62
7
100
AcDbSpline
 70
8
 71
3
 72
8
 73
4
 74
0
 40
0
 40
0
 40
0
 40
0
 40
1
 40
1
 40
1
 40
1
 10
2.746909
 20
6.900070
 30
0.0
 10
2.746909
 20
6.945429
 30
0.0
 10
2.757873
 20
6.980205
 30
0.0
 10
2.779802
 20
7.004396
 30
0.0
  0
SPLINE
  5
26a
100
AcDbEntity
  8
Capa_1
 62
7
100
AcDbSpline
 70
8
 71
3
 72
8
 73
4
 74
0
 40
0
 40
0
 40
0
 40
0
 40
1
 40
1
 40
1
 40
1
 10
2.779802
 20
7.004396
 30
0.0
 10
2.801518
 20
7.028847
 30
0.0
 10
2.831963
 20
7.041072
 30
0.0
 10
2.871138
 20
7.041072
 30
0.0
  0
SPLINE
  5
26b
100
AcDbEntity
  8
Capa_1
 62
7
100
AcDbSpline
 70
8
 71
3
 72
8
 73
4
 74
0
 40
0
 40
0
 40
0
 40
0
 40
1
 40
1
 40
1
 40
1
 10
2.871138
 20
7.041072
 30
0.0
 10
2.901583
 20
7.041072
 30
0.0
 10
2.929048
 20
7.033750
 30
0.0
 10
2.953531
 20
7.019107
 30
0.0
  0
SPLINE
  5
26c
100
AcDbEntity
  8
Capa_1
 62
7
100
AcDbSpline
 70
8
 71
3
 72
8
 73
4
 74
0
 40
0
 40
0
 40
0
 40
0
 40
1
 40
1
 40
1
 40
1
 10
2.953531
 20
7.019107
 30
0.0
 10
2.978015
 20
7.004669
 30
0.0
 10
2.999093
 20
6.985020
 30
0.0
 10
3.016764
 20
6.960161
 30
0.0
  0
SPLINE
  5
26d
100
AcDbEntity
  8
Capa_1
 62
7
100
AcDbSpline
 70
8
 71
3
 72
8
 73
4
 74
0
 40
0
 40
0
 40
0
 40
0
 40
1
 40
1
 40
1
 40
1
 10
3.016764
 20
6.960161
 30
0.0
 10
3.033796
 20
6.935710
 30
0.0
 10
3.046890
 20
6.907276
 30
0.0
 10
3.056044
 20
6.874857
 30
0.0
  0
SPLINE
  5
26e
100
AcDbEntity
  8
Capa_1
 62
7
100
AcDbSpline
 70
8
 71
3
 72
8
 73
4
 74
0
 40
0
 40
0
 40
0
 40
0
 40
1
 40
1
 40
1
 40
1
 10
3.056044
 20
6.874857
 30
0.0
 10
3.065199
 20
6.842642
 30
0.0
 10
3.069777
 20
6.809406
 30
0.0
 10
3.069777
 20
6.775148
 30
0.0
  0
SPLINE
  5
26f
100
AcDbEntity
  8
Capa_1
 62
7
100
AcDbSpline
 70
8
 71
3
 72
8
 73
4
 74
0
 40
0
 40
0
 40
0
 40
0
 40
1
 40
1
 40
1
 40
1
 10
3.069777
 20
6.775148
 30
0.0
 10
3.069777
 20
6.729380
 30
0.0
 10
3.058919
 20
6.694162
 30
0.0
 10
3.037203
 20
6.669493
 30
0.0
  0
SPLINE
  5
270
100
AcDbEntity
  8
Capa_1
 62
7
100
AcDbSpline
 70
8
 71
3
 72
8
 73
4
 74
0
 40
0
 40
0
 40
0
 40
0
 40
1
 40
1
 40
1
 40
1
 10
3.037203
 20
6.669493
 30
0.0
 10
3.015274
 20
6.645043
 30
0.0
 10
2.984615
 20
6.632818
 30
0.0
 10
2.945228
 20
6.632818
 30
0.0
  0
SPLINE
  5
271
100
AcDbEntity
  8
Capa_1
 62
7
100
AcDbSpline
 70
8
 71
3
 72
8
 73
4
 74
0
 40
0
 40
0
 40
0
 40
0
 40
1
 40
1
 40
1
 40
1
 10
2.945228
 20
6.632818
 30
0.0
 10
2.915208
 20
6.632818
 30
0.0
 10
2.887957
 20
6.640037
 30
0.0
 10
2.863473
 20
6.654476
 30
0.0
  0
SPLINE
  5
272
100
AcDbEntity
  8
Capa_1
 62
7
100
AcDbSpline
 70
8
 71
3
 72
8
 73
4
 74
0
 40
0
 40
0
 40
0
 40
0
 40
1
 40
1
 40
1
 40
1
 10
2.863473
 20
6.654476
 30
0.0
 10
2.838776
 20
6.668914
 30
0.0
 10
2.818018
 20
6.688121
 30
0.0
 10
2.801199
 20
6.712094
 30
0.0
  0
LWPOLYLINE
  5
273
100
AcDbEntity
  8
Capa_1
 62
7
100
AcDbPolyline
 90
1
 70
1
 10
2.680163
 20
6.909346
 30
0.0
  0
LWPOLYLINE
  5
274
100
AcDbEntity
  8
Capa_1
 62
7
100
AcDbPolyline
 90
1
 70
1
 10
2.801199
 20
6.712094
 30
0.0
  0
SPLINE
  5
275
100
AcDbEntity
  8
Capa_1
 62
7
100
AcDbSpline
 70
8
 71
3
 72
8
 73
4
 74
0
 40
0
 40
0
 40
0
 40
0
 40
1
 40
1
 40
1
 40
1
 10
2.638648
 20
6.658399
 30
0.0
 10
2.608628
 20
6.681283
 30
0.0
 10
2.583186
 20
6.700727
 30
0.0
 10
2.562322
 20
6.716732
 30
0.0
  0
SPLINE
  5
276
100
AcDbEntity
  8
Capa_1
 62
7
100
AcDbSpline
 70
8
 71
3
 72
8
 73
4
 74
0
 40
0
 40
0
 40
0
 40
0
 40
1
 40
1
 40
1
 40
1
 10
2.562322
 20
6.716732
 30
0.0
 10
2.541245
 20
6.732942
 30
0.0
 10
2.515909
 20
6.753374
 30
0.0
 10
2.486315
 20
6.778029
 30
0.0
  0
SPLINE
  5
277
100
AcDbEntity
  8
Capa_1
 62
7
100
AcDbSpline
 70
8
 71
3
 72
8
 73
4
 74
0
 40
0
 40
0
 40
0
 40
0
 40
1
 40
1
 40
1
 40
1
 10
2.486315
 20
6.778029
 30
0.0
 10
2.434366
 20
6.821345
 30
0.0
 10
2.397747
 20
6.857786
 30
0.0
 10
2.376457
 20
6.887351
 30
0.0
  0
SPLINE
  5
278
100
AcDbEntity
  8
Capa_1
 62
7
100
AcDbSpline
 70
8
 71
3
 72
8
 73
4
 74
0
 40
0
 40
0
 40
0
 40
0
 40
1
 40
1
 40
1
 40
1
 10
2.376457
 20
6.887351
 30
0.0
 10
2.354953
 20
6.917114
 30
0.0
 10
2.344202
 20
6.945991
 30
0.0
 10
2.344202
 20
6.973983
 30
0.0
  0
SPLINE
  5
279
100
AcDbEntity
  8
Capa_1
 62
7
100
AcDbSpline
 70
8
 71
3
 72
8
 73
4
 74
0
 40
0
 40
0
 40
0
 40
0
 40
1
 40
1
 40
1
 40
1
 10
2.344202
 20
6.973983
 30
0.0
 10
2.344202
 20
6.995777
 30
0.0
 10
2.351653
 20
7.012225
 30
0.0
 10
2.366557
 20
7.023327
 30
0.0
  0
SPLINE
  5
27a
100
AcDbEntity
  8
Capa_1
 62
7
100
AcDbSpline
 70
8
 71
3
 72
8
 73
4
 74
0
 40
0
 40
0
 40
0
 40
0
 40
1
 40
1
 40
1
 40
1
 10
2.366557
 20
7.023327
 30
0.0
 10
2.381247
 20
7.034428
 30
0.0
 10
2.400196
 20
7.039979
 30
0.0
 10
2.423402
 20
7.039979
 30
0.0
  0
SPLINE
  5
27b
100
AcDbEntity
  8
Capa_1
 62
7
100
AcDbSpline
 70
8
 71
3
 72
8
 73
4
 74
0
 40
0
 40
0
 40
0
 40
0
 40
1
 40
1
 40
1
 40
1
 10
2.423402
 20
7.039979
 30
0.0
 10
2.442351
 20
7.039979
 30
0.0
 10
2.464067
 20
7.036199
 30
0.0
 10
2.488551
 20
7.028639
 30
0.0
  0
SPLINE
  5
27c
100
AcDbEntity
  8
Capa_1
 62
7
100
AcDbSpline
 70
8
 71
3
 72
8
 73
4
 74
0
 40
0
 40
0
 40
0
 40
0
 40
1
 40
1
 40
1
 40
1
 10
2.488551
 20
7.028639
 30
0.0
 10
2.512822
 20
7.021283
 30
0.0
 10
2.536667
 20
7.010625
 30
0.0
 10
2.560086
 20
6.996663
 30
0.0
  0
LWPOLYLINE
  5
27d
100
AcDbEntity
  8
Capa_1
 62
7
100
AcDbPolyline
 90
3
 70
0
 10
2.331427
 20
6.588725
 30
0.0
 10
2.653657
 20
6.588725
 30
0.0
 10
2.638648
 20
6.658399
 30
0.0
  0
SPLINE
  5
27e
100
AcDbEntity
  8
Capa_1
 62
7
100
AcDbSpline
 70
8
 71
3
 72
8
 73
4
 74
0
 40
0
 40
0
 40
0
 40
0
 40
1
 40
1
 40
1
 40
1
 10
2.550503
 20
7.064293
 30
0.0
 10
2.533684
 20
7.072330
 30
0.0
 10
2.512180
 20
7.079447
 30
0.0
 10
2.485993
 20
7.085645
 30
0.0
  0
SPLINE
  5
27f
100
AcDbEntity
  8
Capa_1
 62
7
100
AcDbSpline
 70
8
 71
3
 72
8
 73
4
 74
0
 40
0
 40
0
 40
0
 40
0
 40
1
 40
1
 40
1
 40
1
 10
2.485993
 20
7.085645
 30
0.0
 10
2.459806
 20
7.091774
 30
0.0
 10
2.434684
 20
7.094839
 30
0.0
 10
2.410625
 20
7.094839
 30
0.0
  0
SPLINE
  5
280
100
AcDbEntity
  8
Capa_1
 62
7
100
AcDbSpline
 70
8
 71
3
 72
8
 73
4
 74
0
 40
0
 40
0
 40
0
 40
0
 40
1
 40
1
 40
1
 40
1
 10
2.410625
 20
7.094839
 30
0.0
 10
2.367832
 20
7.094839
 30
0.0
 10
2.334832
 20
7.085066
 30
0.0
 10
2.311625
 20
7.065519
 30
0.0
  0
SPLINE
  5
281
100
AcDbEntity
  8
Capa_1
 62
7
100
AcDbSpline
 70
8
 71
3
 72
8
 73
4
 74
0
 40
0
 40
0
 40
0
 40
0
 40
1
 40
1
 40
1
 40
1
 10
2.311625
 20
7.065519
 30
0.0
 10
2.288419
 20
7.046177
 30
0.0
 10
2.276815
 20
7.019955
 30
0.0
 10
2.276815
 20
6.986855
 30
0.0
  0
SPLINE
  5
282
100
AcDbEntity
  8
Capa_1
 62
7
100
AcDbSpline
 70
8
 71
3
 72
8
 73
4
 74
0
 40
0
 40
0
 40
0
 40
0
 40
1
 40
1
 40
1
 40
1
 10
2.276815
 20
6.986855
 30
0.0
 10
2.276815
 20
6.951099
 30
0.0
 10
2.286609
 20
6.917216
 30
0.0
 10
2.306196
 20
6.885205
 30
0.0
  0
SPLINE
  5
283
100
AcDbEntity
  8
Capa_1
 62
7
100
AcDbSpline
 70
8
 71
3
 72
8
 73
4
 74
0
 40
0
 40
0
 40
0
 40
0
 40
1
 40
1
 40
1
 40
1
 10
2.306196
 20
6.885205
 30
0.0
 10
2.325784
 20
6.853399
 30
0.0
 10
2.360061
 20
6.816291
 30
0.0
 10
2.409029
 20
6.773881
 30
0.0
  0
SPLINE
  5
284
100
AcDbEntity
  8
Capa_1
 62
7
100
AcDbSpline
 70
8
 71
3
 72
8
 73
4
 74
0
 40
0
 40
0
 40
0
 40
0
 40
1
 40
1
 40
1
 40
1
 10
2.409029
 20
6.773881
 30
0.0
 10
2.438197
 20
6.748750
 30
0.0
 10
2.468216
 20
6.724299
 30
0.0
 10
2.499087
 20
6.700530
 30
0.0
  0
SPLINE
  5
285
100
AcDbEntity
  8
Capa_1
 62
7
100
AcDbSpline
 70
8
 71
3
 72
8
 73
4
 74
0
 40
0
 40
0
 40
0
 40
0
 40
1
 40
1
 40
1
 40
1
 10
2.499087
 20
6.700530
 30
0.0
 10
2.529745
 20
6.676965
 30
0.0
 10
2.555081
 20
6.657758
 30
0.0
 10
2.575094
 20
6.642911
 30
0.0
  0
LWPOLYLINE
  5
286
100
AcDbEntity
  8
Capa_1
 62
7
100
AcDbPolyline
 90
3
 70
0
 10
2.560086
 20
6.996663
 30
0.0
 10
2.563277
 20
6.996663
 30
0.0
 10
2.550503
 20
7.064293
 30
0.0
  0
LWPOLYLINE
  5
287
100
AcDbEntity
  8
Capa_1
 62
7
100
AcDbPolyline
 90
3
 70
0
 10
2.575094
 20
6.642911
 30
0.0
 10
2.319609
 20
6.642911
 30
0.0
 10
2.331427
 20
6.588725
 30
0.0
  0
SPLINE
  5
288
100
AcDbEntity
  8
Capa_1
 62
7
100
AcDbSpline
 70
8
 71
3
 72
8
 73
4
 74
0
 40
0
 40
0
 40
0
 40
0
 40
1
 40
1
 40
1
 40
1
 10
2.680164
 20
5.202844
 30
0.0
 10
2.680164
 20
5.159733
 30
0.0
 10
2.686445
 20
5.118181
 30
0.0
 10
2.699006
 20
5.078188
 30
0.0
  0
SPLINE
  5
289
100
AcDbEntity
  8
Capa_1
 62
7
100
AcDbSpline
 70
8
 71
3
 72
8
 73
4
 74
0
 40
0
 40
0
 40
0
 40
0
 40
1
 40
1
 40
1
 40
1
 10
2.699006
 20
5.078188
 30
0.0
 10
2.711354
 20
5.038209
 30
0.0
 10
2.729345
 20
5.002991
 30
0.0
 10
2.752977
 20
4.972534
 30
0.0
  0
SPLINE
  5
28a
100
AcDbEntity
  8
Capa_1
 62
7
100
AcDbSpline
 70
8
 71
3
 72
8
 73
4
 74
0
 40
0
 40
0
 40
0
 40
0
 40
1
 40
1
 40
1
 40
1
 10
2.752977
 20
4.972534
 30
0.0
 10
2.777248
 20
4.941204
 30
0.0
 10
2.806415
 20
4.916550
 30
0.0
 10
2.840480
 20
4.898569
 30
0.0
  0
SPLINE
  5
28b
100
AcDbEntity
  8
Capa_1
 62
7
100
AcDbSpline
 70
8
 71
3
 72
8
 73
4
 74
0
 40
0
 40
0
 40
0
 40
0
 40
1
 40
1
 40
1
 40
1
 10
2.840480
 20
4.898569
 30
0.0
 10
2.874545
 20
4.880793
 30
0.0
 10
2.912974
 20
4.871905
 30
0.0
 10
2.955768
 20
4.871905
 30
0.0
  0
SPLINE
  5
28c
100
AcDbEntity
  8
Capa_1
 62
7
100
AcDbSpline
 70
8
 71
3
 72
8
 73
4
 74
0
 40
0
 40
0
 40
0
 40
0
 40
1
 40
1
 40
1
 40
1
 10
2.955768
 20
4.871905
 30
0.0
 10
3.012400
 20
4.871905
 30
0.0
 10
3.056684
 20
4.888013
 30
0.0
 10
3.088620
 20
4.920227
 30
0.0
  0
SPLINE
  5
28d
100
AcDbEntity
  8
Capa_1
 62
7
100
AcDbSpline
 70
8
 71
3
 72
8
 73
4
 74
0
 40
0
 40
0
 40
0
 40
0
 40
1
 40
1
 40
1
 40
1
 10
3.088620
 20
4.920227
 30
0.0
 10
3.120555
 20
4.952646
 30
0.0
 10
3.136523
 20
4.998642
 30
0.0
 10
3.136523
 20
5.058216
 30
0.0
  0
SPLINE
  5
28e
100
AcDbEntity
  8
Capa_1
 62
7
100
AcDbSpline
 70
8
 71
3
 72
8
 73
4
 74
0
 40
0
 40
0
 40
0
 40
0
 40
1
 40
1
 40
1
 40
1
 10
3.136523
 20
5.058216
 30
0.0
 10
3.136523
 20
5.103575
 30
0.0
 10
3.130136
 20
5.145904
 30
0.0
 10
3.117362
 20
5.185201
 30
0.0
  0
SPLINE
  5
28f
100
AcDbEntity
  8
Capa_1
 62
7
100
AcDbSpline
 70
8
 71
3
 72
8
 73
4
 74
0
 40
0
 40
0
 40
0
 40
0
 40
1
 40
1
 40
1
 40
1
 10
3.117362
 20
5.185201
 30
0.0
 10
3.104588
 20
5.224499
 30
0.0
 10
3.086171
 20
5.259608
 30
0.0
 10
3.062113
 20
5.290529
 30
0.0
  0
SPLINE
  5
290
100
AcDbEntity
  8
Capa_1
 62
7
100
AcDbSpline
 70
8
 71
3
 72
8
 73
4
 74
0
 40
0
 40
0
 40
0
 40
0
 40
1
 40
1
 40
1
 40
1
 10
3.062113
 20
5.290529
 30
0.0
 10
3.038694
 20
5.320292
 30
0.0
 10
3.009739
 20
5.344061
 30
0.0
 10
2.975248
 20
5.361837
 30
0.0
  0
SPLINE
  5
291
100
AcDbEntity
  8
Capa_1
 62
7
100
AcDbSpline
 70
8
 71
3
 72
8
 73
4
 74
0
 40
0
 40
0
 40
0
 40
0
 40
1
 40
1
 40
1
 40
1
 10
2.975248
 20
5.361837
 30
0.0
 10
2.940545
 20
5.379817
 30
0.0
 10
2.902541
 20
5.388808
 30
0.0
 10
2.861238
 20
5.388808
 30
0.0
  0
SPLINE
  5
292
100
AcDbEntity
  8
Capa_1
 62
7
100
AcDbSpline
 70
8
 71
3
 72
8
 73
4
 74
0
 40
0
 40
0
 40
0
 40
0
 40
1
 40
1
 40
1
 40
1
 10
2.861238
 20
5.388808
 30
0.0
 10
2.804818
 20
5.388808
 30
0.0
 10
2.760534
 20
5.372700
 30
0.0
 10
2.728386
 20
5.340486
 30
0.0
  0
SPLINE
  5
293
100
AcDbEntity
  8
Capa_1
 62
7
100
AcDbSpline
 70
8
 71
3
 72
8
 73
4
 74
0
 40
0
 40
0
 40
0
 40
0
 40
1
 40
1
 40
1
 40
1
 10
2.728386
 20
5.340486
 30
0.0
 10
2.696237
 20
5.308475
 30
0.0
 10
2.680163
 20
5.262588
 30
0.0
 10
2.680163
 20
5.202824
 30
0.0
  0
LWPOLYLINE
  5
294
100
AcDbEntity
  8
Capa_1
 62
7
100
AcDbPolyline
 90
12
 70
1
 10
3.264585
 20
4.882203
 30
0.0
 10
3.453005
 20
4.882203
 30
0.0
 10
3.442467
 20
4.930525
 30
0.0
 10
3.380192
 20
4.930525
 30
0.0
 10
3.291411
 20
5.330157
 30
0.0
 10
3.353686
 20
5.330157
 30
0.0
 10
3.343148
 20
5.378479
 30
0.0
 10
3.154728
 20
5.378479
 30
0.0
 10
3.165267
 20
5.330157
 30
0.0
 10
3.227541
 20
5.330157
 30
0.0
 10
3.316322
 20
4.930525
 30
0.0
 10
3.254048
 20
4.930525
 30
0.0
  0
SPLINE
  5
295
100
AcDbEntity
  8
Capa_1
 62
7
100
AcDbSpline
 70
8
 71
3
 72
8
 73
4
 74
0
 40
0
 40
0
 40
0
 40
0
 40
1
 40
1
 40
1
 40
1
 10
2.801200
 20
5.005531
 30
0.0
 10
2.783316
 20
5.030867
 30
0.0
 10
2.769797
 20
5.059098
 30
0.0
 10
2.760641
 20
5.090223
 30
0.0
  0
SPLINE
  5
296
100
AcDbEntity
  8
Capa_1
 62
7
100
AcDbSpline
 70
8
 71
3
 72
8
 73
4
 74
0
 40
0
 40
0
 40
0
 40
0
 40
1
 40
1
 40
1
 40
1
 10
2.760641
 20
5.090223
 30
0.0
 10
2.751486
 20
5.121552
 30
0.0
 10
2.746909
 20
5.155994
 30
0.0
 10
2.746909
 20
5.193548
 30
0.0
  0
SPLINE
  5
297
100
AcDbEntity
  8
Capa_1
 62
7
100
AcDbSpline
 70
8
 71
3
 72
8
 73
4
 74
0
 40
0
 40
0
 40
0
 40
0
 40
1
 40
1
 40
1
 40
1
 10
2.746909
 20
5.193548
 30
0.0
 10
2.746909
 20
5.238839
 30
0.0
 10
2.757873
 20
5.273611
 30
0.0
 10
2.779802
 20
5.297864
 30
0.0
  0
SPLINE
  5
298
100
AcDbEntity
  8
Capa_1
 62
7
100
AcDbSpline
 70
8
 71
3
 72
8
 73
4
 74
0
 40
0
 40
0
 40
0
 40
0
 40
1
 40
1
 40
1
 40
1
 10
2.779802
 20
5.297864
 30
0.0
 10
2.801518
 20
5.322315
 30
0.0
 10
2.831963
 20
5.334540
 30
0.0
 10
2.871138
 20
5.334540
 30
0.0
  0
SPLINE
  5
299
100
AcDbEntity
  8
Capa_1
 62
7
100
AcDbSpline
 70
8
 71
3
 72
8
 73
4
 74
0
 40
0
 40
0
 40
0
 40
0
 40
1
 40
1
 40
1
 40
1
 10
2.871138
 20
5.334540
 30
0.0
 10
2.901583
 20
5.334540
 30
0.0
 10
2.929048
 20
5.327218
 30
0.0
 10
2.953531
 20
5.312575
 30
0.0
  0
SPLINE
  5
29a
100
AcDbEntity
  8
Capa_1
 62
7
100
AcDbSpline
 70
8
 71
3
 72
8
 73
4
 74
0
 40
0
 40
0
 40
0
 40
0
 40
1
 40
1
 40
1
 40
1
 10
2.953531
 20
5.312575
 30
0.0
 10
2.978015
 20
5.298137
 30
0.0
 10
2.999093
 20
5.278488
 30
0.0
 10
3.016764
 20
5.253629
 30
0.0
  0
SPLINE
  5
29b
100
AcDbEntity
  8
Capa_1
 62
7
100
AcDbSpline
 70
8
 71
3
 72
8
 73
4
 74
0
 40
0
 40
0
 40
0
 40
0
 40
1
 40
1
 40
1
 40
1
 10
3.016764
 20
5.253629
 30
0.0
 10
3.033796
 20
5.229178
 30
0.0
 10
3.046890
 20
5.200743
 30
0.0
 10
3.056044
 20
5.168324
 30
0.0
  0
SPLINE
  5
29c
100
AcDbEntity
  8
Capa_1
 62
7
100
AcDbSpline
 70
8
 71
3
 72
8
 73
4
 74
0
 40
0
 40
0
 40
0
 40
0
 40
1
 40
1
 40
1
 40
1
 10
3.056044
 20
5.168324
 30
0.0
 10
3.065199
 20
5.136110
 30
0.0
 10
3.069777
 20
5.102874
 30
0.0
 10
3.069777
 20
5.068616
 30
0.0
  0
SPLINE
  5
29d
100
AcDbEntity
  8
Capa_1
 62
7
100
AcDbSpline
 70
8
 71
3
 72
8
 73
4
 74
0
 40
0
 40
0
 40
0
 40
0
 40
1
 40
1
 40
1
 40
1
 10
3.069777
 20
5.068616
 30
0.0
 10
3.069777
 20
5.022848
 30
0.0
 10
3.058919
 20
4.987629
 30
0.0
 10
3.037203
 20
4.962961
 30
0.0
  0
SPLINE
  5
29e
100
AcDbEntity
  8
Capa_1
 62
7
100
AcDbSpline
 70
8
 71
3
 72
8
 73
4
 74
0
 40
0
 40
0
 40
0
 40
0
 40
1
 40
1
 40
1
 40
1
 10
3.037203
 20
4.962961
 30
0.0
 10
3.015274
 20
4.938511
 30
0.0
 10
2.984615
 20
4.926285
 30
0.0
 10
2.945228
 20
4.926285
 30
0.0
  0
SPLINE
  5
29f
100
AcDbEntity
  8
Capa_1
 62
7
100
AcDbSpline
 70
8
 71
3
 72
8
 73
4
 74
0
 40
0
 40
0
 40
0
 40
0
 40
1
 40
1
 40
1
 40
1
 10
2.945228
 20
4.926285
 30
0.0
 10
2.915208
 20
4.926285
 30
0.0
 10
2.887957
 20
4.933505
 30
0.0
 10
2.863473
 20
4.947943
 30
0.0
  0
SPLINE
  5
2a0
100
AcDbEntity
  8
Capa_1
 62
7
100
AcDbSpline
 70
8
 71
3
 72
8
 73
4
 74
0
 40
0
 40
0
 40
0
 40
0
 40
1
 40
1
 40
1
 40
1
 10
2.863473
 20
4.947943
 30
0.0
 10
2.838776
 20
4.962382
 30
0.0
 10
2.818018
 20
4.981588
 30
0.0
 10
2.801199
 20
5.005562
 30
0.0
  0
LWPOLYLINE
  5
2a1
100
AcDbEntity
  8
Capa_1
 62
7
100
AcDbPolyline
 90
1
 70
1
 10
2.680163
 20
5.202824
 30
0.0
  0
SPLINE
  5
2a2
100
AcDbEntity
  8
Capa_1
 62
7
100
AcDbSpline
 70
8
 71
3
 72
8
 73
4
 74
0
 40
0
 40
0
 40
0
 40
0
 40
1
 40
1
 40
1
 40
1
 10
2.360489
 20
4.925867
 30
0.0
 10
2.379224
 20
4.908772
 30
0.0
 10
2.400834
 20
4.895423
 30
0.0
 10
2.425318
 20
4.885820
 30
0.0
  0
SPLINE
  5
2a3
100
AcDbEntity
  8
Capa_1
 62
7
100
AcDbSpline
 70
8
 71
3
 72
8
 73
4
 74
0
 40
0
 40
0
 40
0
 40
0
 40
1
 40
1
 40
1
 40
1
 10
2.425318
 20
4.885820
 30
0.0
 10
2.449589
 20
4.876489
 30
0.0
 10
2.477799
 20
4.871824
 30
0.0
 10
2.509947
 20
4.871824
 30
0.0
  0
SPLINE
  5
2a4
100
AcDbEntity
  8
Capa_1
 62
7
100
AcDbSpline
 70
8
 71
3
 72
8
 73
4
 74
0
 40
0
 40
0
 40
0
 40
0
 40
1
 40
1
 40
1
 40
1
 10
2.509947
 20
4.871824
 30
0.0
 10
2.535709
 20
4.871824
 30
0.0
 10
2.560725
 20
4.875263
 30
0.0
 10
2.584996
 20
4.882142
 30
0.0
  0
SPLINE
  5
2a5
100
AcDbEntity
  8
Capa_1
 62
7
100
AcDbSpline
 70
8
 71
3
 72
8
 73
4
 74
0
 40
0
 40
0
 40
0
 40
0
 40
1
 40
1
 40
1
 40
1
 10
2.584996
 20
4.882142
 30
0.0
 10
2.609054
 20
4.888953
 30
0.0
 10
2.629386
 20
4.896955
 30
0.0
 10
2.645993
 20
4.906150
 30
0.0
  0
LWPOLYLINE
  5
2a6
100
AcDbEntity
  8
Capa_1
 62
7
100
AcDbPolyline
 90
1
 70
1
 10
2.801199
 20
5.005562
 30
0.0
  0
SPLINE
  5
2a7
100
AcDbEntity
  8
Capa_1
 62
7
100
AcDbSpline
 70
8
 71
3
 72
8
 73
4
 74
0
 40
0
 40
0
 40
0
 40
0
 40
1
 40
1
 40
1
 40
1
 10
2.626197
 20
4.970102
 30
0.0
 10
2.611506
 20
4.958524
 30
0.0
 10
2.593090
 20
4.948410
 30
0.0
 10
2.570948
 20
4.939760
 30
0.0
  0
SPLINE
  5
2a8
100
AcDbEntity
  8
Capa_1
 62
7
100
AcDbSpline
 70
8
 71
3
 72
8
 73
4
 74
0
 40
0
 40
0
 40
0
 40
0
 40
1
 40
1
 40
1
 40
1
 10
2.570948
 20
4.939760
 30
0.0
 10
2.548806
 20
4.931315
 30
0.0
 10
2.525387
 20
4.927092
 30
0.0
 10
2.500690
 20
4.927092
 30
0.0
  0
SPLINE
  5
2a9
100
AcDbEntity
  8
Capa_1
 62
7
100
AcDbSpline
 70
8
 71
3
 72
8
 73
4
 74
0
 40
0
 40
0
 40
0
 40
0
 40
1
 40
1
 40
1
 40
1
 10
2.500690
 20
4.927092
 30
0.0
 10
2.462368
 20
4.927092
 30
0.0
 10
2.430964
 20
4.938977
 30
0.0
 10
2.406480
 20
4.962747
 30
0.0
  0
SPLINE
  5
2aa
100
AcDbEntity
  8
Capa_1
 62
7
100
AcDbSpline
 70
8
 71
3
 72
8
 73
4
 74
0
 40
0
 40
0
 40
0
 40
0
 40
1
 40
1
 40
1
 40
1
 10
2.406480
 20
4.962747
 30
0.0
 10
2.381996
 20
4.986516
 30
0.0
 10
2.369754
 20
5.017403
 30
0.0
 10
2.369754
 20
5.055406
 30
0.0
  0
SPLINE
  5
2ab
100
AcDbEntity
  8
Capa_1
 62
7
100
AcDbSpline
 70
8
 71
3
 72
8
 73
4
 74
0
 40
0
 40
0
 40
0
 40
0
 40
1
 40
1
 40
1
 40
1
 10
2.369754
 20
5.055406
 30
0.0
 10
2.369754
 20
5.078699
 30
0.0
 10
2.377525
 20
5.096134
 30
0.0
 10
2.393067
 20
5.107713
 30
0.0
  0
SPLINE
  5
2ac
100
AcDbEntity
  8
Capa_1
 62
7
100
AcDbSpline
 70
8
 71
3
 72
8
 73
4
 74
0
 40
0
 40
0
 40
0
 40
0
 40
1
 40
1
 40
1
 40
1
 10
2.393067
 20
5.107713
 30
0.0
 10
2.408609
 20
5.119291
 30
0.0
 10
2.432774
 20
5.125080
 30
0.0
 10
2.465561
 20
5.125080
 30
0.0
  0
LWPOLYLINE
  5
2ad
100
AcDbEntity
  8
Capa_1
 62
7
100
AcDbPolyline
 90
3
 70
0
 10
2.645993
 20
4.906150
 30
0.0
 10
2.630983
 20
4.970102
 30
0.0
 10
2.626197
 20
4.970102
 30
0.0
  0
SPLINE
  5
2ae
100
AcDbEntity
  8
Capa_1
 62
7
100
AcDbSpline
 70
8
 71
3
 72
8
 73
4
 74
0
 40
0
 40
0
 40
0
 40
0
 40
1
 40
1
 40
1
 40
1
 10
2.453106
 20
5.178101
 30
0.0
 10
2.417125
 20
5.178101
 30
0.0
 10
2.387638
 20
5.186649
 30
0.0
 10
2.364644
 20
5.203744
 30
0.0
  0
SPLINE
  5
2af
100
AcDbEntity
  8
Capa_1
 62
7
100
AcDbSpline
 70
8
 71
3
 72
8
 73
4
 74
0
 40
0
 40
0
 40
0
 40
0
 40
1
 40
1
 40
1
 40
1
 10
2.364644
 20
5.203744
 30
0.0
 10
2.341650
 20
5.221043
 30
0.0
 10
2.330153
 20
5.244472
 30
0.0
 10
2.330153
 20
5.274030
 30
0.0
  0
SPLINE
  5
2b0
100
AcDbEntity
  8
Capa_1
 62
7
100
AcDbSpline
 70
8
 71
3
 72
8
 73
4
 74
0
 40
0
 40
0
 40
0
 40
0
 40
1
 40
1
 40
1
 40
1
 10
2.330153
 20
5.274030
 30
0.0
 10
2.330153
 20
5.292691
 30
0.0
 10
2.337073
 20
5.307232
 30
0.0
 10
2.350912
 20
5.317653
 30
0.0
  0
SPLINE
  5
2b1
100
AcDbEntity
  8
Capa_1
 62
7
100
AcDbSpline
 70
8
 71
3
 72
8
 73
4
 74
0
 40
0
 40
0
 40
0
 40
0
 40
1
 40
1
 40
1
 40
1
 10
2.350912
 20
5.317653
 30
0.0
 10
2.364537
 20
5.328073
 30
0.0
 10
2.384763
 20
5.333283
 30
0.0
 10
2.411590
 20
5.333283
 30
0.0
  0
SPLINE
  5
2b2
100
AcDbEntity
  8
Capa_1
 62
7
100
AcDbSpline
 70
8
 71
3
 72
8
 73
4
 74
0
 40
0
 40
0
 40
0
 40
0
 40
1
 40
1
 40
1
 40
1
 10
2.411590
 20
5.333283
 30
0.0
 10
2.433732
 20
5.333283
 30
0.0
 10
2.457364
 20
5.329061
 30
0.0
 10
2.482487
 20
5.320615
 30
0.0
  0
SPLINE
  5
2b3
100
AcDbEntity
  8
Capa_1
 62
7
100
AcDbSpline
 70
8
 71
3
 72
8
 73
4
 74
0
 40
0
 40
0
 40
0
 40
0
 40
1
 40
1
 40
1
 40
1
 10
2.482487
 20
5.320615
 30
0.0
 10
2.507609
 20
5.312170
 30
0.0
 10
2.529858
 20
5.301954
 30
0.0
 10
2.549233
 20
5.289967
 30
0.0
  0
LWPOLYLINE
  5
2b4
100
AcDbEntity
  8
Capa_1
 62
7
100
AcDbPolyline
 90
4
 70
0
 10
2.465561
 20
5.125080
 30
0.0
 10
2.495899
 20
5.125080
 30
0.0
 10
2.483444
 20
5.178101
 30
0.0
 10
2.453106
 20
5.178101
 30
0.0
  0
SPLINE
  5
2b5
100
AcDbEntity
  8
Capa_1
 62
7
100
AcDbSpline
 70
8
 71
3
 72
8
 73
4
 74
0
 40
0
 40
0
 40
0
 40
0
 40
1
 40
1
 40
1
 40
1
 10
2.538691
 20
5.357291
 30
0.0
 10
2.521659
 20
5.365055
 30
0.0
 10
2.500050
 20
5.372172
 30
0.0
 10
2.473862
 20
5.378643
 30
0.0
  0
SPLINE
  5
2b6
100
AcDbEntity
  8
Capa_1
 62
7
100
AcDbSpline
 70
8
 71
3
 72
8
 73
4
 74
0
 40
0
 40
0
 40
0
 40
0
 40
1
 40
1
 40
1
 40
1
 10
2.473862
 20
5.378643
 30
0.0
 10
2.447462
 20
5.385453
 30
0.0
 10
2.422446
 20
5.388859
 30
0.0
 10
2.398814
 20
5.388859
 30
0.0
  0
SPLINE
  5
2b7
100
AcDbEntity
  8
Capa_1
 62
7
100
AcDbSpline
 70
8
 71
3
 72
8
 73
4
 74
0
 40
0
 40
0
 40
0
 40
0
 40
1
 40
1
 40
1
 40
1
 10
2.398814
 20
5.388859
 30
0.0
 10
2.356872
 20
5.388859
 30
0.0
 10
2.323872
 20
5.380073
 30
0.0
 10
2.299813
 20
5.362501
 30
0.0
  0
SPLINE
  5
2b8
100
AcDbEntity
  8
Capa_1
 62
7
100
AcDbSpline
 70
8
 71
3
 72
8
 73
4
 74
0
 40
0
 40
0
 40
0
 40
0
 40
1
 40
1
 40
1
 40
1
 10
2.299813
 20
5.362501
 30
0.0
 10
2.275542
 20
5.345202
 30
0.0
 10
2.263407
 20
5.321433
 30
0.0
 10
2.263407
 20
5.291193
 30
0.0
  0
SPLINE
  5
2b9
100
AcDbEntity
  8
Capa_1
 62
7
100
AcDbSpline
 70
8
 71
3
 72
8
 73
4
 74
0
 40
0
 40
0
 40
0
 40
0
 40
1
 40
1
 40
1
 40
1
 10
2.263407
 20
5.291193
 30
0.0
 10
2.263407
 20
5.258297
 30
0.0
 10
2.275117
 20
5.229079
 30
0.0
 10
2.298536
 20
5.203539
 30
0.0
  0
SPLINE
  5
2ba
100
AcDbEntity
  8
Capa_1
 62
7
100
AcDbSpline
 70
8
 71
3
 72
8
 73
4
 74
0
 40
0
 40
0
 40
0
 40
0
 40
1
 40
1
 40
1
 40
1
 10
2.298536
 20
5.203539
 30
0.0
 10
2.321743
 20
5.178203
 30
0.0
 10
2.351123
 20
5.162096
 30
0.0
 10
2.386679
 20
5.155217
 30
0.0
  0
LWPOLYLINE
  5
2bb
100
AcDbEntity
  8
Capa_1
 62
7
100
AcDbPolyline
 90
3
 70
0
 10
2.549233
 20
5.289967
 30
0.0
 10
2.552424
 20
5.289967
 30
0.0
 10
2.538691
 20
5.357291
 30
0.0
  0
SPLINE
  5
2bc
100
AcDbEntity
  8
Capa_1
 62
7
100
AcDbSpline
 70
8
 71
3
 72
8
 73
4
 74
0
 40
0
 40
0
 40
0
 40
0
 40
1
 40
1
 40
1
 40
1
 10
2.386679
 20
5.152152
 30
0.0
 10
2.378375
 20
5.150109
 30
0.0
 10
2.369220
 20
5.146704
 30
0.0
 10
2.359214
 20
5.141936
 30
0.0
  0
SPLINE
  5
2bd
100
AcDbEntity
  8
Capa_1
 62
7
100
AcDbSpline
 70
8
 71
3
 72
8
 73
4
 74
0
 40
0
 40
0
 40
0
 40
0
 40
1
 40
1
 40
1
 40
1
 10
2.359214
 20
5.141936
 30
0.0
 10
2.348995
 20
5.137169
 30
0.0
 10
2.340053
 20
5.131175
 30
0.0
 10
2.332388
 20
5.123956
 30
0.0
  0
SPLINE
  5
2be
100
AcDbEntity
  8
Capa_1
 62
7
100
AcDbSpline
 70
8
 71
3
 72
8
 73
4
 74
0
 40
0
 40
0
 40
0
 40
0
 40
1
 40
1
 40
1
 40
1
 10
2.332388
 20
5.123956
 30
0.0
 10
2.324297
 20
5.116396
 30
0.0
 10
2.317591
 20
5.106827
 30
0.0
 10
2.312268
 20
5.095249
 30
0.0
  0
SPLINE
  5
2bf
100
AcDbEntity
  8
Capa_1
 62
7
100
AcDbSpline
 70
8
 71
3
 72
8
 73
4
 74
0
 40
0
 40
0
 40
0
 40
0
 40
1
 40
1
 40
1
 40
1
 10
2.312268
 20
5.095249
 30
0.0
 10
2.306735
 20
5.083671
 30
0.0
 10
2.303968
 20
5.070015
 30
0.0
 10
2.303968
 20
5.054282
 30
0.0
  0
SPLINE
  5
2c0
100
AcDbEntity
  8
Capa_1
 62
7
100
AcDbSpline
 70
8
 71
3
 72
8
 73
4
 74
0
 40
0
 40
0
 40
0
 40
0
 40
1
 40
1
 40
1
 40
1
 10
2.303968
 20
5.054282
 30
0.0
 10
2.303968
 20
5.030036
 30
0.0
 10
2.308971
 20
5.006608
 30
0.0
 10
2.318977
 20
4.983996
 30
0.0
  0
SPLINE
  5
2c1
100
AcDbEntity
  8
Capa_1
 62
7
100
AcDbSpline
 70
8
 71
3
 72
8
 73
4
 74
0
 40
0
 40
0
 40
0
 40
0
 40
1
 40
1
 40
1
 40
1
 10
2.318977
 20
4.983996
 30
0.0
 10
2.328984
 20
4.961589
 30
0.0
 10
2.342822
 20
4.942246
 30
0.0
 10
2.360493
 20
4.925969
 30
0.0
  0
LWPOLYLINE
  5
2c2
100
AcDbEntity
  8
Capa_1
 62
7
100
AcDbPolyline
 90
2
 70
0
 10
2.386679
 20
5.155217
 30
0.0
 10
2.386679
 20
5.152152
 30
0.0
  0
LWPOLYLINE
  5
2c3
100
AcDbEntity
  8
Capa_1
 62
7
100
AcDbPolyline
 90
2
 70
0
 10
2.360493
 20
4.925969
 30
0.0
 10
2.360489
 20
4.925867
 30
0.0
  0
SPLINE
  5
2c4
100
AcDbEntity
  8
Capa_1
 62
7
100
AcDbSpline
 70
8
 71
3
 72
8
 73
4
 74
0
 40
0
 40
0
 40
0
 40
0
 40
1
 40
1
 40
1
 40
1
 10
2.680164
 20
3.496323
 30
0.0
 10
2.680164
 20
3.453211
 30
0.0
 10
2.686445
 20
3.411659
 30
0.0
 10
2.699006
 20
3.371666
 30
0.0
  0
SPLINE
  5
2c5
100
AcDbEntity
  8
Capa_1
 62
7
100
AcDbSpline
 70
8
 71
3
 72
8
 73
4
 74
0
 40
0
 40
0
 40
0
 40
0
 40
1
 40
1
 40
1
 40
1
 10
2.699006
 20
3.371666
 30
0.0
 10
2.711354
 20
3.331687
 30
0.0
 10
2.729345
 20
3.296469
 30
0.0
 10
2.752977
 20
3.266012
 30
0.0
  0
SPLINE
  5
2c6
100
AcDbEntity
  8
Capa_1
 62
7
100
AcDbSpline
 70
8
 71
3
 72
8
 73
4
 74
0
 40
0
 40
0
 40
0
 40
0
 40
1
 40
1
 40
1
 40
1
 10
2.752977
 20
3.266012
 30
0.0
 10
2.777248
 20
3.234682
 30
0.0
 10
2.806415
 20
3.210028
 30
0.0
 10
2.840480
 20
3.192047
 30
0.0
  0
SPLINE
  5
2c7
100
AcDbEntity
  8
Capa_1
 62
7
100
AcDbSpline
 70
8
 71
3
 72
8
 73
4
 74
0
 40
0
 40
0
 40
0
 40
0
 40
1
 40
1
 40
1
 40
1
 10
2.840480
 20
3.192047
 30
0.0
 10
2.874545
 20
3.174271
 30
0.0
 10
2.912974
 20
3.165383
 30
0.0
 10
2.955768
 20
3.165383
 30
0.0
  0
SPLINE
  5
2c8
100
AcDbEntity
  8
Capa_1
 62
7
100
AcDbSpline
 70
8
 71
3
 72
8
 73
4
 74
0
 40
0
 40
0
 40
0
 40
0
 40
1
 40
1
 40
1
 40
1
 10
2.955768
 20
3.165383
 30
0.0
 10
3.012400
 20
3.165383
 30
0.0
 10
3.056684
 20
3.181491
 30
0.0
 10
3.088620
 20
3.213705
 30
0.0
  0
SPLINE
  5
2c9
100
AcDbEntity
  8
Capa_1
 62
7
100
AcDbSpline
 70
8
 71
3
 72
8
 73
4
 74
0
 40
0
 40
0
 40
0
 40
0
 40
1
 40
1
 40
1
 40
1
 10
3.088620
 20
3.213705
 30
0.0
 10
3.120555
 20
3.246124
 30
0.0
 10
3.136523
 20
3.292120
 30
0.0
 10
3.136523
 20
3.351694
 30
0.0
  0
SPLINE
  5
2ca
100
AcDbEntity
  8
Capa_1
 62
7
100
AcDbSpline
 70
8
 71
3
 72
8
 73
4
 74
0
 40
0
 40
0
 40
0
 40
0
 40
1
 40
1
 40
1
 40
1
 10
3.136523
 20
3.351694
 30
0.0
 10
3.136523
 20
3.397053
 30
0.0
 10
3.130136
 20
3.439382
 30
0.0
 10
3.117362
 20
3.478679
 30
0.0
  0
SPLINE
  5
2cb
100
AcDbEntity
  8
Capa_1
 62
7
100
AcDbSpline
 70
8
 71
3
 72
8
 73
4
 74
0
 40
0
 40
0
 40
0
 40
0
 40
1
 40
1
 40
1
 40
1
 10
3.117362
 20
3.478679
 30
0.0
 10
3.104588
 20
3.517977
 30
0.0
 10
3.086171
 20
3.553086
 30
0.0
 10
3.062113
 20
3.584007
 30
0.0
  0
SPLINE
  5
2cc
100
AcDbEntity
  8
Capa_1
 62
7
100
AcDbSpline
 70
8
 71
3
 72
8
 73
4
 74
0
 40
0
 40
0
 40
0
 40
0
 40
1
 40
1
 40
1
 40
1
 10
3.062113
 20
3.584007
 30
0.0
 10
3.038694
 20
3.613770
 30
0.0
 10
3.009739
 20
3.637539
 30
0.0
 10
2.975248
 20
3.655315
 30
0.0
  0
SPLINE
  5
2cd
100
AcDbEntity
  8
Capa_1
 62
7
100
AcDbSpline
 70
8
 71
3
 72
8
 73
4
 74
0
 40
0
 40
0
 40
0
 40
0
 40
1
 40
1
 40
1
 40
1
 10
2.975248
 20
3.655315
 30
0.0
 10
2.940545
 20
3.673295
 30
0.0
 10
2.902541
 20
3.682286
 30
0.0
 10
2.861238
 20
3.682286
 30
0.0
  0
SPLINE
  5
2ce
100
AcDbEntity
  8
Capa_1
 62
7
100
AcDbSpline
 70
8
 71
3
 72
8
 73
4
 74
0
 40
0
 40
0
 40
0
 40
0
 40
1
 40
1
 40
1
 40
1
 10
2.861238
 20
3.682286
 30
0.0
 10
2.804818
 20
3.682286
 30
0.0
 10
2.760534
 20
3.666178
 30
0.0
 10
2.728386
 20
3.633964
 30
0.0
  0
SPLINE
  5
2cf
100
AcDbEntity
  8
Capa_1
 62
7
100
AcDbSpline
 70
8
 71
3
 72
8
 73
4
 74
0
 40
0
 40
0
 40
0
 40
0
 40
1
 40
1
 40
1
 40
1
 10
2.728386
 20
3.633964
 30
0.0
 10
2.696237
 20
3.601953
 30
0.0
 10
2.680163
 20
3.556069
 30
0.0
 10
2.680163
 20
3.496312
 30
0.0
  0
LWPOLYLINE
  5
2d0
100
AcDbEntity
  8
Capa_1
 62
7
100
AcDbPolyline
 90
12
 70
1
 10
3.264585
 20
3.175681
 30
0.0
 10
3.453005
 20
3.175681
 30
0.0
 10
3.442467
 20
3.224003
 30
0.0
 10
3.380192
 20
3.224003
 30
0.0
 10
3.291411
 20
3.623635
 30
0.0
 10
3.353686
 20
3.623635
 30
0.0
 10
3.343148
 20
3.671957
 30
0.0
 10
3.154728
 20
3.671957
 30
0.0
 10
3.165267
 20
3.623635
 30
0.0
 10
3.227541
 20
3.623635
 30
0.0
 10
3.316322
 20
3.224003
 30
0.0
 10
3.254048
 20
3.224003
 30
0.0
  0
SPLINE
  5
2d1
100
AcDbEntity
  8
Capa_1
 62
7
100
AcDbSpline
 70
8
 71
3
 72
8
 73
4
 74
0
 40
0
 40
0
 40
0
 40
0
 40
1
 40
1
 40
1
 40
1
 10
2.801200
 20
3.299009
 30
0.0
 10
2.783316
 20
3.324345
 30
0.0
 10
2.769797
 20
3.352576
 30
0.0
 10
2.760641
 20
3.383701
 30
0.0
  0
SPLINE
  5
2d2
100
AcDbEntity
  8
Capa_1
 62
7
100
AcDbSpline
 70
8
 71
3
 72
8
 73
4
 74
0
 40
0
 40
0
 40
0
 40
0
 40
1
 40
1
 40
1
 40
1
 10
2.760641
 20
3.383701
 30
0.0
 10
2.751486
 20
3.415030
 30
0.0
 10
2.746909
 20
3.449472
 30
0.0
 10
2.746909
 20
3.487026
 30
0.0
  0
SPLINE
  5
2d3
100
AcDbEntity
  8
Capa_1
 62
7
100
AcDbSpline
 70
8
 71
3
 72
8
 73
4
 74
0
 40
0
 40
0
 40
0
 40
0
 40
1
 40
1
 40
1
 40
1
 10
2.746909
 20
3.487026
 30
0.0
 10
2.746909
 20
3.532385
 30
0.0
 10
2.757873
 20
3.567157
 30
0.0
 10
2.779802
 20
3.591342
 30
0.0
  0
SPLINE
  5
2d4
100
AcDbEntity
  8
Capa_1
 62
7
100
AcDbSpline
 70
8
 71
3
 72
8
 73
4
 74
0
 40
0
 40
0
 40
0
 40
0
 40
1
 40
1
 40
1
 40
1
 10
2.779802
 20
3.591342
 30
0.0
 10
2.801518
 20
3.615793
 30
0.0
 10
2.831963
 20
3.628018
 30
0.0
 10
2.871138
 20
3.628018
 30
0.0
  0
SPLINE
  5
2d5
100
AcDbEntity
  8
Capa_1
 62
7
100
AcDbSpline
 70
8
 71
3
 72
8
 73
4
 74
0
 40
0
 40
0
 40
0
 40
0
 40
1
 40
1
 40
1
 40
1
 10
2.871138
 20
3.628018
 30
0.0
 10
2.901583
 20
3.628018
 30
0.0
 10
2.929048
 20
3.620696
 30
0.0
 10
2.953531
 20
3.606053
 30
0.0
  0
SPLINE
  5
2d6
100
AcDbEntity
  8
Capa_1
 62
7
100
AcDbSpline
 70
8
 71
3
 72
8
 73
4
 74
0
 40
0
 40
0
 40
0
 40
0
 40
1
 40
1
 40
1
 40
1
 10
2.953531
 20
3.606053
 30
0.0
 10
2.978015
 20
3.591615
 30
0.0
 10
2.999093
 20
3.571966
 30
0.0
 10
3.016764
 20
3.547107
 30
0.0
  0
SPLINE
  5
2d7
100
AcDbEntity
  8
Capa_1
 62
7
100
AcDbSpline
 70
8
 71
3
 72
8
 73
4
 74
0
 40
0
 40
0
 40
0
 40
0
 40
1
 40
1
 40
1
 40
1
 10
3.016764
 20
3.547107
 30
0.0
 10
3.033796
 20
3.522656
 30
0.0
 10
3.046890
 20
3.494221
 30
0.0
 10
3.056044
 20
3.461802
 30
0.0
  0
SPLINE
  5
2d8
100
AcDbEntity
  8
Capa_1
 62
7
100
AcDbSpline
 70
8
 71
3
 72
8
 73
4
 74
0
 40
0
 40
0
 40
0
 40
0
 40
1
 40
1
 40
1
 40
1
 10
3.056044
 20
3.461802
 30
0.0
 10
3.065199
 20
3.429588
 30
0.0
 10
3.069777
 20
3.396352
 30
0.0
 10
3.069777
 20
3.362094
 30
0.0
  0
SPLINE
  5
2d9
100
AcDbEntity
  8
Capa_1
 62
7
100
AcDbSpline
 70
8
 71
3
 72
8
 73
4
 74
0
 40
0
 40
0
 40
0
 40
0
 40
1
 40
1
 40
1
 40
1
 10
3.069777
 20
3.362094
 30
0.0
 10
3.069777
 20
3.316326
 30
0.0
 10
3.058919
 20
3.281108
 30
0.0
 10
3.037203
 20
3.256439
 30
0.0
  0
SPLINE
  5
2da
100
AcDbEntity
  8
Capa_1
 62
7
100
AcDbSpline
 70
8
 71
3
 72
8
 73
4
 74
0
 40
0
 40
0
 40
0
 40
0
 40
1
 40
1
 40
1
 40
1
 10
3.037203
 20
3.256439
 30
0.0
 10
3.015274
 20
3.231989
 30
0.0
 10
2.984615
 20
3.219763
 30
0.0
 10
2.945228
 20
3.219763
 30
0.0
  0
SPLINE
  5
2db
100
AcDbEntity
  8
Capa_1
 62
7
100
AcDbSpline
 70
8
 71
3
 72
8
 73
4
 74
0
 40
0
 40
0
 40
0
 40
0
 40
1
 40
1
 40
1
 40
1
 10
2.945228
 20
3.219763
 30
0.0
 10
2.915208
 20
3.219763
 30
0.0
 10
2.887957
 20
3.226983
 30
0.0
 10
2.863473
 20
3.241422
 30
0.0
  0
SPLINE
  5
2dc
100
AcDbEntity
  8
Capa_1
 62
7
100
AcDbSpline
 70
8
 71
3
 72
8
 73
4
 74
0
 40
0
 40
0
 40
0
 40
0
 40
1
 40
1
 40
1
 40
1
 10
2.863473
 20
3.241422
 30
0.0
 10
2.838776
 20
3.255860
 30
0.0
 10
2.818018
 20
3.275066
 30
0.0
 10
2.801199
 20
3.299040
 30
0.0
  0
LWPOLYLINE
  5
2dd
100
AcDbEntity
  8
Capa_1
 62
7
100
AcDbPolyline
 90
1
 70
1
 10
2.680163
 20
3.496312
 30
0.0
  0
LWPOLYLINE
  5
2de
100
AcDbEntity
  8
Capa_1
 62
7
100
AcDbPolyline
 90
1
 70
1
 10
2.801199
 20
3.299040
 30
0.0
  0
LWPOLYLINE
  5
2df
100
AcDbEntity
  8
Capa_1
 62
7
100
AcDbPolyline
 90
11
 70
1
 10
2.289272
 20
3.316336
 30
0.0
 10
2.359850
 20
3.316336
 30
0.0
 10
2.391147
 20
3.175681
 30
0.0
 10
2.453103
 20
3.175681
 30
0.0
 10
2.421806
 20
3.316336
 30
0.0
 10
2.649186
 20
3.316336
 30
0.0
 10
2.632580
 20
3.392037
 30
0.0
 10
2.340689
 20
3.672018
 30
0.0
 10
2.281288
 20
3.672018
 30
0.0
 10
2.348672
 20
3.367038
 30
0.0
 10
2.278095
 20
3.367038
 30
0.0
  0
LWPOLYLINE
  5
2e0
100
AcDbEntity
  8
Capa_1
 62
7
100
AcDbPolyline
 90
3
 70
1
 10
2.410628
 20
3.367008
 30
0.0
 10
2.360808
 20
3.591322
 30
0.0
 10
2.593938
 20
3.367008
 30
0.0
  0
SPLINE
  5
2e1
100
AcDbEntity
  8
Capa_1
 62
7
100
AcDbSpline
 70
8
 71
3
 72
8
 73
4
 74
0
 40
0
 40
0
 40
0
 40
0
 40
1
 40
1
 40
1
 40
1
 10
2.680164
 20
1.789801
 30
0.0
 10
2.680164
 20
1.746689
 30
0.0
 10
2.686445
 20
1.705137
 30
0.0
 10
2.699006
 20
1.665144
 30
0.0
  0
SPLINE
  5
2e2
100
AcDbEntity
  8
Capa_1
 62
7
100
AcDbSpline
 70
8
 71
3
 72
8
 73
4
 74
0
 40
0
 40
0
 40
0
 40
0
 40
1
 40
1
 40
1
 40
1
 10
2.699006
 20
1.665144
 30
0.0
 10
2.711354
 20
1.625165
 30
0.0
 10
2.729345
 20
1.589947
 30
0.0
 10
2.752977
 20
1.559490
 30
0.0
  0
SPLINE
  5
2e3
100
AcDbEntity
  8
Capa_1
 62
7
100
AcDbSpline
 70
8
 71
3
 72
8
 73
4
 74
0
 40
0
 40
0
 40
0
 40
0
 40
1
 40
1
 40
1
 40
1
 10
2.752977
 20
1.559490
 30
0.0
 10
2.777248
 20
1.528160
 30
0.0
 10
2.806415
 20
1.503506
 30
0.0
 10
2.840480
 20
1.485525
 30
0.0
  0
SPLINE
  5
2e4
100
AcDbEntity
  8
Capa_1
 62
7
100
AcDbSpline
 70
8
 71
3
 72
8
 73
4
 74
0
 40
0
 40
0
 40
0
 40
0
 40
1
 40
1
 40
1
 40
1
 10
2.840480
 20
1.485525
 30
0.0
 10
2.874545
 20
1.467749
 30
0.0
 10
2.912974
 20
1.458861
 30
0.0
 10
2.955768
 20
1.458861
 30
0.0
  0
SPLINE
  5
2e5
100
AcDbEntity
  8
Capa_1
 62
7
100
AcDbSpline
 70
8
 71
3
 72
8
 73
4
 74
0
 40
0
 40
0
 40
0
 40
0
 40
1
 40
1
 40
1
 40
1
 10
2.955768
 20
1.458861
 30
0.0
 10
3.012400
 20
1.458861
 30
0.0
 10
3.056684
 20
1.474969
 30
0.0
 10
3.088620
 20
1.507183
 30
0.0
  0
SPLINE
  5
2e6
100
AcDbEntity
  8
Capa_1
 62
7
100
AcDbSpline
 70
8
 71
3
 72
8
 73
4
 74
0
 40
0
 40
0
 40
0
 40
0
 40
1
 40
1
 40
1
 40
1
 10
3.088620
 20
1.507183
 30
0.0
 10
3.120555
 20
1.539602
 30
0.0
 10
3.136523
 20
1.585598
 30
0.0
 10
3.136523
 20
1.645172
 30
0.0
  0
SPLINE
  5
2e7
100
AcDbEntity
  8
Capa_1
 62
7
100
AcDbSpline
 70
8
 71
3
 72
8
 73
4
 74
0
 40
0
 40
0
 40
0
 40
0
 40
1
 40
1
 40
1
 40
1
 10
3.136523
 20
1.645172
 30
0.0
 10
3.136523
 20
1.690463
 30
0.0
 10
3.130136
 20
1.732791
 30
0.0
 10
3.117362
 20
1.772157
 30
0.0
  0
SPLINE
  5
2e8
100
AcDbEntity
  8
Capa_1
 62
7
100
AcDbSpline
 70
8
 71
3
 72
8
 73
4
 74
0
 40
0
 40
0
 40
0
 40
0
 40
1
 40
1
 40
1
 40
1
 10
3.117362
 20
1.772157
 30
0.0
 10
3.104588
 20
1.811455
 30
0.0
 10
3.086171
 20
1.846564
 30
0.0
 10
3.062113
 20
1.877485
 30
0.0
  0
SPLINE
  5
2e9
100
AcDbEntity
  8
Capa_1
 62
7
100
AcDbSpline
 70
8
 71
3
 72
8
 73
4
 74
0
 40
0
 40
0
 40
0
 40
0
 40
1
 40
1
 40
1
 40
1
 10
3.062113
 20
1.877485
 30
0.0
 10
3.038694
 20
1.907248
 30
0.0
 10
3.009739
 20
1.931017
 30
0.0
 10
2.975248
 20
1.948793
 30
0.0
  0
SPLINE
  5
2ea
100
AcDbEntity
  8
Capa_1
 62
7
100
AcDbSpline
 70
8
 71
3
 72
8
 73
4
 74
0
 40
0
 40
0
 40
0
 40
0
 40
1
 40
1
 40
1
 40
1
 10
2.975248
 20
1.948793
 30
0.0
 10
2.940545
 20
1.966773
 30
0.0
 10
2.902541
 20
1.975764
 30
0.0
 10
2.861238
 20
1.975764
 30
0.0
  0
SPLINE
  5
2eb
100
AcDbEntity
  8
Capa_1
 62
7
100
AcDbSpline
 70
8
 71
3
 72
8
 73
4
 74
0
 40
0
 40
0
 40
0
 40
0
 40
1
 40
1
 40
1
 40
1
 10
2.861238
 20
1.975764
 30
0.0
 10
2.804818
 20
1.975764
 30
0.0
 10
2.760534
 20
1.959656
 30
0.0
 10
2.728386
 20
1.927442
 30
0.0
  0
SPLINE
  5
2ec
100
AcDbEntity
  8
Capa_1
 62
7
100
AcDbSpline
 70
8
 71
3
 72
8
 73
4
 74
0
 40
0
 40
0
 40
0
 40
0
 40
1
 40
1
 40
1
 40
1
 10
2.728386
 20
1.927442
 30
0.0
 10
2.696237
 20
1.895431
 30
0.0
 10
2.680163
 20
1.849547
 30
0.0
 10
2.680163
 20
1.789790
 30
0.0
  0
LWPOLYLINE
  5
2ed
100
AcDbEntity
  8
Capa_1
 62
7
100
AcDbPolyline
 90
12
 70
1
 10
3.264585
 20
1.469159
 30
0.0
 10
3.453005
 20
1.469159
 30
0.0
 10
3.442467
 20
1.517481
 30
0.0
 10
3.380192
 20
1.517481
 30
0.0
 10
3.291411
 20
1.917113
 30
0.0
 10
3.353686
 20
1.917113
 30
0.0
 10
3.343148
 20
1.965435
 30
0.0
 10
3.154728
 20
1.965435
 30
0.0
 10
3.165267
 20
1.917113
 30
0.0
 10
3.227541
 20
1.917113
 30
0.0
 10
3.316322
 20
1.517481
 30
0.0
 10
3.254048
 20
1.517481
 30
0.0
  0
SPLINE
  5
2ee
100
AcDbEntity
  8
Capa_1
 62
7
100
AcDbSpline
 70
8
 71
3
 72
8
 73
4
 74
0
 40
0
 40
0
 40
0
 40
0
 40
1
 40
1
 40
1
 40
1
 10
2.801200
 20
1.592487
 30
0.0
 10
2.783316
 20
1.617823
 30
0.0
 10
2.769797
 20
1.646054
 30
0.0
 10
2.760641
 20
1.677179
 30
0.0
  0
SPLINE
  5
2ef
100
AcDbEntity
  8
Capa_1
 62
7
100
AcDbSpline
 70
8
 71
3
 72
8
 73
4
 74
0
 40
0
 40
0
 40
0
 40
0
 40
1
 40
1
 40
1
 40
1
 10
2.760641
 20
1.677179
 30
0.0
 10
2.751486
 20
1.708508
 30
0.0
 10
2.746909
 20
1.742950
 30
0.0
 10
2.746909
 20
1.780504
 30
0.0
  0
SPLINE
  5
2f0
100
AcDbEntity
  8
Capa_1
 62
7
100
AcDbSpline
 70
8
 71
3
 72
8
 73
4
 74
0
 40
0
 40
0
 40
0
 40
0
 40
1
 40
1
 40
1
 40
1
 10
2.746909
 20
1.780504
 30
0.0
 10
2.746909
 20
1.825863
 30
0.0
 10
2.757873
 20
1.860635
 30
0.0
 10
2.779802
 20
1.884820
 30
0.0
  0
SPLINE
  5
2f1
100
AcDbEntity
  8
Capa_1
 62
7
100
AcDbSpline
 70
8
 71
3
 72
8
 73
4
 74
0
 40
0
 40
0
 40
0
 40
0
 40
1
 40
1
 40
1
 40
1
 10
2.779802
 20
1.884820
 30
0.0
 10
2.801518
 20
1.909271
 30
0.0
 10
2.831963
 20
1.921496
 30
0.0
 10
2.871138
 20
1.921496
 30
0.0
  0
SPLINE
  5
2f2
100
AcDbEntity
  8
Capa_1
 62
7
100
AcDbSpline
 70
8
 71
3
 72
8
 73
4
 74
0
 40
0
 40
0
 40
0
 40
0
 40
1
 40
1
 40
1
 40
1
 10
2.871138
 20
1.921496
 30
0.0
 10
2.901583
 20
1.921496
 30
0.0
 10
2.929048
 20
1.914174
 30
0.0
 10
2.953531
 20
1.899531
 30
0.0
  0
SPLINE
  5
2f3
100
AcDbEntity
  8
Capa_1
 62
7
100
AcDbSpline
 70
8
 71
3
 72
8
 73
4
 74
0
 40
0
 40
0
 40
0
 40
0
 40
1
 40
1
 40
1
 40
1
 10
2.953531
 20
1.899531
 30
0.0
 10
2.978015
 20
1.885093
 30
0.0
 10
2.999093
 20
1.865444
 30
0.0
 10
3.016764
 20
1.840585
 30
0.0
  0
SPLINE
  5
2f4
100
AcDbEntity
  8
Capa_1
 62
7
100
AcDbSpline
 70
8
 71
3
 72
8
 73
4
 74
0
 40
0
 40
0
 40
0
 40
0
 40
1
 40
1
 40
1
 40
1
 10
3.016764
 20
1.840585
 30
0.0
 10
3.033796
 20
1.816134
 30
0.0
 10
3.046890
 20
1.787699
 30
0.0
 10
3.056044
 20
1.755280
 30
0.0
  0
SPLINE
  5
2f5
100
AcDbEntity
  8
Capa_1
 62
7
100
AcDbSpline
 70
8
 71
3
 72
8
 73
4
 74
0
 40
0
 40
0
 40
0
 40
0
 40
1
 40
1
 40
1
 40
1
 10
3.056044
 20
1.755280
 30
0.0
 10
3.065199
 20
1.723066
 30
0.0
 10
3.069777
 20
1.689864
 30
0.0
 10
3.069777
 20
1.655674
 30
0.0
  0
SPLINE
  5
2f6
100
AcDbEntity
  8
Capa_1
 62
7
100
AcDbSpline
 70
8
 71
3
 72
8
 73
4
 74
0
 40
0
 40
0
 40
0
 40
0
 40
1
 40
1
 40
1
 40
1
 10
3.069777
 20
1.655674
 30
0.0
 10
3.069777
 20
1.609906
 30
0.0
 10
3.058919
 20
1.574688
 30
0.0
 10
3.037203
 20
1.550019
 30
0.0
  0
SPLINE
  5
2f7
100
AcDbEntity
  8
Capa_1
 62
7
100
AcDbSpline
 70
8
 71
3
 72
8
 73
4
 74
0
 40
0
 40
0
 40
0
 40
0
 40
1
 40
1
 40
1
 40
1
 10
3.037203
 20
1.550019
 30
0.0
 10
3.015274
 20
1.525569
 30
0.0
 10
2.984615
 20
1.513344
 30
0.0
 10
2.945228
 20
1.513344
 30
0.0
  0
SPLINE
  5
2f8
100
AcDbEntity
  8
Capa_1
 62
7
100
AcDbSpline
 70
8
 71
3
 72
8
 73
4
 74
0
 40
0
 40
0
 40
0
 40
0
 40
1
 40
1
 40
1
 40
1
 10
2.945228
 20
1.513344
 30
0.0
 10
2.915208
 20
1.513344
 30
0.0
 10
2.887957
 20
1.520563
 30
0.0
 10
2.863473
 20
1.535002
 30
0.0
  0
SPLINE
  5
2f9
100
AcDbEntity
  8
Capa_1
 62
7
100
AcDbSpline
 70
8
 71
3
 72
8
 73
4
 74
0
 40
0
 40
0
 40
0
 40
0
 40
1
 40
1
 40
1
 40
1
 10
2.863473
 20
1.535002
 30
0.0
 10
2.838776
 20
1.549440
 30
0.0
 10
2.818018
 20
1.568647
 30
0.0
 10
2.801199
 20
1.592620
 30
0.0
  0
LWPOLYLINE
  5
2fa
100
AcDbEntity
  8
Capa_1
 62
7
100
AcDbPolyline
 90
1
 70
1
 10
2.680163
 20
1.789790
 30
0.0
  0
SPLINE
  5
2fb
100
AcDbEntity
  8
Capa_1
 62
7
100
AcDbSpline
 70
8
 71
3
 72
8
 73
4
 74
0
 40
0
 40
0
 40
0
 40
0
 40
1
 40
1
 40
1
 40
1
 10
2.351866
 20
1.517491
 30
0.0
 10
2.370601
 20
1.499034
 30
0.0
 10
2.392424
 20
1.484596
 30
0.0
 10
2.417334
 20
1.474175
 30
0.0
  0
SPLINE
  5
2fc
100
AcDbEntity
  8
Capa_1
 62
7
100
AcDbSpline
 70
8
 71
3
 72
8
 73
4
 74
0
 40
0
 40
0
 40
0
 40
0
 40
1
 40
1
 40
1
 40
1
 10
2.417334
 20
1.474175
 30
0.0
 10
2.442243
 20
1.463959
 30
0.0
 10
2.471518
 20
1.458851
 30
0.0
 10
2.505156
 20
1.458851
 30
0.0
  0
SPLINE
  5
2fd
100
AcDbEntity
  8
Capa_1
 62
7
100
AcDbSpline
 70
8
 71
3
 72
8
 73
4
 74
0
 40
0
 40
0
 40
0
 40
0
 40
1
 40
1
 40
1
 40
1
 10
2.505156
 20
1.458851
 30
0.0
 10
2.531130
 20
1.458851
 30
0.0
 10
2.555614
 20
1.462257
 30
0.0
 10
2.578608
 20
1.469067
 30
0.0
  0
SPLINE
  5
2fe
100
AcDbEntity
  8
Capa_1
 62
7
100
AcDbSpline
 70
8
 71
3
 72
8
 73
4
 74
0
 40
0
 40
0
 40
0
 40
0
 40
1
 40
1
 40
1
 40
1
 10
2.578608
 20
1.469067
 30
0.0
 10
2.601602
 20
1.475878
 30
0.0
 10
2.620657
 20
1.483199
 30
0.0
 10
2.635773
 20
1.491032
 30
0.0
  0
LWPOLYLINE
  5
2ff
100
AcDbEntity
  8
Capa_1
 62
7
100
AcDbPolyline
 90
2
 70
0
 10
2.801199
 20
1.592620
 30
0.0
 10
2.801200
 20
1.592487
 30
0.0
  0
SPLINE
  5
300
100
AcDbEntity
  8
Capa_1
 62
7
100
AcDbSpline
 70
8
 71
3
 72
8
 73
4
 74
0
 40
0
 40
0
 40
0
 40
0
 40
1
 40
1
 40
1
 40
1
 10
2.618526
 20
1.555699
 30
0.0
 10
2.605325
 20
1.545279
 30
0.0
 10
2.587548
 20
1.535710
 30
0.0
 10
2.565193
 20
1.526992
 30
0.0
  0
SPLINE
  5
301
100
AcDbEntity
  8
Capa_1
 62
7
100
AcDbSpline
 70
8
 71
3
 72
8
 73
4
 74
0
 40
0
 40
0
 40
0
 40
0
 40
1
 40
1
 40
1
 40
1
 10
2.565193
 20
1.526992
 30
0.0
 10
2.542838
 20
1.518547
 30
0.0
 10
2.519631
 20
1.514324
 30
0.0
 10
2.495573
 20
1.514324
 30
0.0
  0
SPLINE
  5
302
100
AcDbEntity
  8
Capa_1
 62
7
100
AcDbSpline
 70
8
 71
3
 72
8
 73
4
 74
0
 40
0
 40
0
 40
0
 40
0
 40
1
 40
1
 40
1
 40
1
 10
2.495573
 20
1.514324
 30
0.0
 10
2.455973
 20
1.514324
 30
0.0
 10
2.424037
 20
1.526311
 30
0.0
 10
2.399766
 20
1.550285
 30
0.0
  0
SPLINE
  5
303
100
AcDbEntity
  8
Capa_1
 62
7
100
AcDbSpline
 70
8
 71
3
 72
8
 73
4
 74
0
 40
0
 40
0
 40
0
 40
0
 40
1
 40
1
 40
1
 40
1
 10
2.399766
 20
1.550285
 30
0.0
 10
2.375495
 20
1.574259
 30
0.0
 10
2.363360
 20
1.605690
 30
0.0
 10
2.363360
 20
1.644579
 30
0.0
  0
SPLINE
  5
304
100
AcDbEntity
  8
Capa_1
 62
7
100
AcDbSpline
 70
8
 71
3
 72
8
 73
4
 74
0
 40
0
 40
0
 40
0
 40
0
 40
1
 40
1
 40
1
 40
1
 10
2.363360
 20
1.644579
 30
0.0
 10
2.363360
 20
1.659699
 30
0.0
 10
2.366127
 20
1.672265
 30
0.0
 10
2.371660
 20
1.682276
 30
0.0
  0
SPLINE
  5
305
100
AcDbEntity
  8
Capa_1
 62
7
100
AcDbSpline
 70
8
 71
3
 72
8
 73
4
 74
0
 40
0
 40
0
 40
0
 40
0
 40
1
 40
1
 40
1
 40
1
 10
2.371660
 20
1.682276
 30
0.0
 10
2.377194
 20
1.692288
 30
0.0
 10
2.384646
 20
1.700393
 30
0.0
 10
2.394015
 20
1.706591
 30
0.0
  0
SPLINE
  5
306
100
AcDbEntity
  8
Capa_1
 62
7
100
AcDbSpline
 70
8
 71
3
 72
8
 73
4
 74
0
 40
0
 40
0
 40
0
 40
0
 40
1
 40
1
 40
1
 40
1
 10
2.394015
 20
1.706591
 30
0.0
 10
2.403596
 20
1.712720
 30
0.0
 10
2.414987
 20
1.717147
 30
0.0
 10
2.428186
 20
1.719872
 30
0.0
  0
SPLINE
  5
307
100
AcDbEntity
  8
Capa_1
 62
7
100
AcDbSpline
 70
8
 71
3
 72
8
 73
4
 74
0
 40
0
 40
0
 40
0
 40
0
 40
1
 40
1
 40
1
 40
1
 10
2.428186
 20
1.719872
 30
0.0
 10
2.441174
 20
1.722596
 30
0.0
 10
2.454906
 20
1.723958
 30
0.0
 10
2.469383
 20
1.723958
 30
0.0
  0
SPLINE
  5
308
100
AcDbEntity
  8
Capa_1
 62
7
100
AcDbSpline
 70
8
 71
3
 72
8
 73
4
 74
0
 40
0
 40
0
 40
0
 40
0
 40
1
 40
1
 40
1
 40
1
 10
2.469383
 20
1.723958
 30
0.0
 10
2.488118
 20
1.723958
 30
0.0
 10
2.506960
 20
1.722596
 30
0.0
 10
2.525909
 20
1.719872
 30
0.0
  0
SPLINE
  5
309
100
AcDbEntity
  8
Capa_1
 62
7
100
AcDbSpline
 70
8
 71
3
 72
8
 73
4
 74
0
 40
0
 40
0
 40
0
 40
0
 40
1
 40
1
 40
1
 40
1
 10
2.525909
 20
1.719872
 30
0.0
 10
2.544644
 20
1.717147
 30
0.0
 10
2.560612
 20
1.714423
 30
0.0
 10
2.573812
 20
1.711699
 30
0.0
  0
LWPOLYLINE
  5
30a
100
AcDbEntity
  8
Capa_1
 62
7
100
AcDbPolyline
 90
3
 70
0
 10
2.635773
 20
1.491032
 30
0.0
 10
2.622999
 20
1.555699
 30
0.0
 10
2.618526
 20
1.555699
 30
0.0
  0
SPLINE
  5
30b
100
AcDbEntity
  8
Capa_1
 62
7
100
AcDbSpline
 70
8
 71
3
 72
8
 73
4
 74
0
 40
0
 40
0
 40
0
 40
0
 40
1
 40
1
 40
1
 40
1
 10
2.498131
 20
1.773373
 30
0.0
 10
2.489402
 20
1.774735
 30
0.0
 10
2.480886
 20
1.775757
 30
0.0
 10
2.472583
 20
1.776438
 30
0.0
  0
SPLINE
  5
30c
100
AcDbEntity
  8
Capa_1
 62
7
100
AcDbSpline
 70
8
 71
3
 72
8
 73
4
 74
0
 40
0
 40
0
 40
0
 40
0
 40
1
 40
1
 40
1
 40
1
 10
2.472583
 20
1.776438
 30
0.0
 10
2.464280
 20
1.777105
 30
0.0
 10
2.455870
 20
1.777439
 30
0.0
 10
2.447354
 20
1.777439
 30
0.0
  0
SPLINE
  5
30d
100
AcDbEntity
  8
Capa_1
 62
7
100
AcDbSpline
 70
8
 71
3
 72
8
 73
4
 74
0
 40
0
 40
0
 40
0
 40
0
 40
1
 40
1
 40
1
 40
1
 10
2.447354
 20
1.777439
 30
0.0
 10
2.399451
 20
1.777439
 30
0.0
 10
2.362192
 20
1.766678
 30
0.0
 10
2.335580
 20
1.745156
 30
0.0
  0
SPLINE
  5
30e
100
AcDbEntity
  8
Capa_1
 62
7
100
AcDbSpline
 70
8
 71
3
 72
8
 73
4
 74
0
 40
0
 40
0
 40
0
 40
0
 40
1
 40
1
 40
1
 40
1
 10
2.335580
 20
1.745156
 30
0.0
 10
2.308754
 20
1.723566
 30
0.0
 10
2.295341
 20
1.694246
 30
0.0
 10
2.295341
 20
1.657196
 30
0.0
  0
SPLINE
  5
30f
100
AcDbEntity
  8
Capa_1
 62
7
100
AcDbSpline
 70
8
 71
3
 72
8
 73
4
 74
0
 40
0
 40
0
 40
0
 40
0
 40
1
 40
1
 40
1
 40
1
 10
2.295341
 20
1.657196
 30
0.0
 10
2.295341
 20
1.630498
 30
0.0
 10
2.300238
 20
1.605162
 30
0.0
 10
2.310032
 20
1.581189
 30
0.0
  0
SPLINE
  5
310
100
AcDbEntity
  8
Capa_1
 62
7
100
AcDbSpline
 70
8
 71
3
 72
8
 73
4
 74
0
 40
0
 40
0
 40
0
 40
0
 40
1
 40
1
 40
1
 40
1
 10
2.310032
 20
1.581189
 30
0.0
 10
2.319825
 20
1.557215
 30
0.0
 10
2.333771
 20
1.536204
 30
0.0
 10
2.351868
 20
1.518155
 30
0.0
  0
LWPOLYLINE
  5
311
100
AcDbEntity
  8
Capa_1
 62
7
100
AcDbPolyline
 90
6
 70
0
 10
2.573812
 20
1.711699
 30
0.0
 10
2.517605
 20
1.966017
 30
0.0
 10
2.232427
 20
1.966017
 30
0.0
 10
2.244882
 20
1.910033
 30
0.0
 10
2.468112
 20
1.910033
 30
0.0
 10
2.498131
 20
1.773373
 30
0.0
  0
LWPOLYLINE
  5
312
100
AcDbEntity
  8
Capa_1
 62
7
100
AcDbPolyline
 90
2
 70
0
 10
2.351868
 20
1.518155
 30
0.0
 10
2.351866
 20
1.517491
 30
0.0
  0
ENDSEC
  0
SECTION
  2
OBJECTS
  0
DICTIONARY
  5
C
330
0
100
AcDbDictionary
  3
ACAD_GROUP
350
D
  3
ACAD_MLINESTYLE
350
17
  0
DICTIONARY
  5
D
330
C
100
AcDbDictionary
  0
DICTIONARY
  5
1A
330
C
100
AcDbDictionary
  0
DICTIONARY
  5
17
330
C
100
AcDbDictionary
  3
STANDARD
350
18
  0
DICTIONARY
  5
19
330
C
100
AcDbDictionary
  0
ENDSEC
  0
EOF
