  0
SECTION
  2
HEADER
  9
$ACADVER
  1
AC1014
  9
$HANDSEED
  5
FFFF
  9
$MEASUREMENT
 70
     1
  0
ENDSEC
  0
SECTION
  2
TABLES
  0
TABLE
  2
VPORT
  5
8
330
0
100
AcDbSymbolTable
 70
     4
  0
VPORT
  5
2E
330
8
100
AcDbSymbolTableRecord
100
AcDbViewportTableRecord
  2
*ACTIVE
 70
     0
 10
0.0
 20
0.0
 11
1.0
 21
1.0
 12
210.0
 22
148.5
 13
0.0
 23
0.0
 14
10.0
 24
10.0
 15
10.0
 25
10.0
 16
0.0
 26
0.0
 36
1.0
 17
0.0
 27
0.0
 37
0.0
 40
341.0
 41
1.24
 42
50.0
 43
0.0
 44
0.0
 50
0.0
 51
0.0
 71
     0
 72
   100
 73
     1
 74
     3
 75
     0
 76
     0
 77
     0
 78
     0
  0
ENDTAB
  0
TABLE
  2
LTYPE
  5
5
330
0
100
AcDbSymbolTable
 70
     1
  0
LTYPE
  5
14
330
5
100
AcDbSymbolTableRecord
100
AcDbLinetypeTableRecord
  2
BYBLOCK
 70
     0
  3

 72
    65
 73
     0
 40
0.0
  0
LTYPE
  5
15
330
5
100
AcDbSymbolTableRecord
100
AcDbLinetypeTableRecord
  2
BYLAYER
 70
     0
  3

 72
    65
 73
     0
 40
0.0
  0
LTYPE
  5
16
330
5
100
AcDbSymbolTableRecord
100
AcDbLinetypeTableRecord
  2
CONTINUOUS
 70
     0
  3
Solid line
 72
    65
 73
     0
 40
0.0
  0
ENDTAB
  0
TABLE
  2
LAYER
  5
2
100
AcDbSymbolTable
 70
2
  0
LAYER
  5
50
100
AcDbSymbolTableRecord
100
AcDbLayerTableRecord
  2
0
 70
0
  6
CONTINUOUS
  0
LAYER
  5
51
100
AcDbSymbolTableRecord
100
AcDbLayerTableRecord
  2
Capa_1
 70
0
  6
CONTINUOUS
  0
ENDTAB
  0
TABLE
  2
STYLE
  5
3
330
0
100
AcDbSymbolTable
 70
     1
  0
STYLE
  5
11
330
3
100
AcDbSymbolTableRecord
100
AcDbTextStyleTableRecord
  2
STANDARD
 70
     0
 40
0.0
 41
1.0
 50
0.0
 71
     0
 42
2.5
  3
txt
  4

  0
ENDTAB
  0
TABLE
  2
VIEW
  5
6
330
0
100
AcDbSymbolTable
 70
     0
  0
ENDTAB
  0
TABLE
  2
UCS
  5
7
330
0
100
AcDbSymbolTable
 70
     0
  0
ENDTAB
  0
TABLE
  2
APPID
  5
9
330
0
100
AcDbSymbolTable
 70
     2
  0
APPID
  5
12
330
9
100
AcDbSymbolTableRecord
100
AcDbRegAppTableRecord
  2
ACAD
 70
     0
  0
ENDTAB
  0
TABLE
  2
DIMSTYLE
  5
A
330
0
100
AcDbSymbolTable
 70
     1
  0
DIMSTYLE
105
27
330
A
100
AcDbSymbolTableRecord
100
AcDbDimStyleTableRecord
  2
ISO-25
 70
     0
  3

  4

  5

  6

  7

 40
1.0
 41
2.5
 42
0.625
 43
3.75
 44
1.25
 45
0.0
 46
0.0
 47
0.0
 48
0.0
140
2.5
141
2.5
142
0.0
143
0.03937007874016
144
1.0
145
0.0
146
1.0
147
0.625
 71
     0
 72
     0
 73
     0
 74
     0
 75
     0
 76
     0
 77
     1
 78
     8
170
     0
171
     3
172
     1
173
     0
174
     0
175
     0
176
     0
177
     0
178
     0
270
     2
271
     2
272
     2
273
     2
274
     3
340
11
275
     0
280
     0
281
     0
282
     0
283
     0
284
     8
285
     0
286
     0
287
     3
288
     0
  0
ENDTAB
  0
TABLE
  2
BLOCK_RECORD
  5
1
330
0
100
AcDbSymbolTable
 70
     1
  0
BLOCK_RECORD
  5
1F
330
1
100
AcDbSymbolTableRecord
100
AcDbBlockTableRecord
  2
*MODEL_SPACE
  0
BLOCK_RECORD
  5
1B
330
1
100
AcDbSymbolTableRecord
100
AcDbBlockTableRecord
  2
*PAPER_SPACE
  0
ENDTAB
  0
ENDSEC
  0
SECTION
  2
BLOCKS
  0
BLOCK
  5
20
330
1F
100
AcDbEntity
  8
0
100
AcDbBlockBegin
  2
*MODEL_SPACE
 70
     0
 10
0.0
 20
0.0
 30
0.0
  3
*MODEL_SPACE
  1

  0
ENDBLK
  5
21
330
1F
100
AcDbEntity
  8
0
100
AcDbBlockEnd
  0
BLOCK
  5
1C
330
1B
100
AcDbEntity
 67
     1
  8
0
100
AcDbBlockBegin
  2
*PAPER_SPACE
  1

  0
ENDBLK
  5
1D
330
1B
100
AcDbEntity
 67
     1
  8
0
100
AcDbBlockEnd
  0
ENDSEC
  0
SECTION
  2
ENTITIES
  0
LWPOLYLINE
  5
100
100
AcDbEntity
  8
Capa_1
 62
7
100
AcDbPolyline
 90
4
 70
1
 10
0.073810
 20
9.926210
 30
0.0
 10
2.727999
 20
9.926210
 30
0.0
 10
2.727999
 20
0.073830
 30
0.0
 10
0.073810
 20
0.073830
 30
0.0
  0
SPLINE
  5
101
100
AcDbEntity
  8
Capa_1
 62
7
100
AcDbSpline
 70
8
 71
3
 72
8
 73
4
 74
0
 40
0
 40
0
 40
0
 40
0
 40
1
 40
1
 40
1
 40
1
 10
4.381393
 20
8.293245
 30
0.0
 10
4.402045
 20
8.278806
 30
0.0
 10
4.423655
 20
8.268488
 30
0.0
 10
4.446223
 20
8.262290
 30
0.0
  0
SPLINE
  5
102
100
AcDbEntity
  8
Capa_1
 62
7
100
AcDbSpline
 70
8
 71
3
 72
8
 73
4
 74
0
 40
0
 40
0
 40
0
 40
0
 40
1
 40
1
 40
1
 40
1
 10
4.446223
 20
8.262290
 30
0.0
 10
4.468790
 20
8.256160
 30
0.0
 10
4.496574
 20
8.253096
 30
0.0
 10
4.529575
 20
8.253096
 30
0.0
  0
LWPOLYLINE
  5
103
100
AcDbEntity
  8
Capa_1
 62
7
100
AcDbPolyline
 90
12
 70
1
 10
4.779949
 20
8.443901
 30
0.0
 10
4.953998
 20
8.443901
 30
0.0
 10
4.953998
 20
8.262249
 30
0.0
 10
5.007011
 20
8.262249
 30
0.0
 10
5.007011
 20
8.443901
 30
0.0
 10
5.181060
 20
8.443901
 30
0.0
 10
5.181060
 20
8.497229
 30
0.0
 10
5.007011
 20
8.497229
 30
0.0
 10
5.007011
 20
8.678881
 30
0.0
 10
4.953998
 20
8.678881
 30
0.0
 10
4.953998
 20
8.497229
 30
0.0
 10
4.779949
 20
8.497229
 30
0.0
  0
SPLINE
  5
104
100
AcDbEntity
  8
Capa_1
 62
7
100
AcDbSpline
 70
8
 71
3
 72
8
 73
4
 74
0
 40
0
 40
0
 40
0
 40
0
 40
1
 40
1
 40
1
 40
1
 10
4.458039
 20
8.749382
 30
0.0
 10
4.423335
 20
8.749382
 30
0.0
 10
4.397574
 20
8.748020
 30
0.0
 10
4.380755
 20
8.745295
 30
0.0
  0
SPLINE
  5
105
100
AcDbEntity
  8
Capa_1
 62
7
100
AcDbSpline
 70
8
 71
3
 72
8
 73
4
 74
0
 40
0
 40
0
 40
0
 40
0
 40
1
 40
1
 40
1
 40
1
 10
4.380755
 20
8.745295
 30
0.0
 10
4.363722
 20
8.742571
 30
0.0
 10
4.348180
 20
8.736918
 30
0.0
 10
4.334129
 20
8.728337
 30
0.0
  0
SPLINE
  5
106
100
AcDbEntity
  8
Capa_1
 62
7
100
AcDbSpline
 70
8
 71
3
 72
8
 73
4
 74
0
 40
0
 40
0
 40
0
 40
0
 40
1
 40
1
 40
1
 40
1
 10
4.334129
 20
8.728337
 30
0.0
 10
4.322419
 20
8.720777
 30
0.0
 10
4.313690
 20
8.711106
 30
0.0
 10
4.307942
 20
8.699323
 30
0.0
  0
SPLINE
  5
107
100
AcDbEntity
  8
Capa_1
 62
7
100
AcDbSpline
 70
8
 71
3
 72
8
 73
4
 74
0
 40
0
 40
0
 40
0
 40
0
 40
1
 40
1
 40
1
 40
1
 10
4.307942
 20
8.699323
 30
0.0
 10
4.301977
 20
8.687745
 30
0.0
 10
4.298995
 20
8.674873
 30
0.0
 10
4.298995
 20
8.660706
 30
0.0
  0
SPLINE
  5
108
100
AcDbEntity
  8
Capa_1
 62
7
100
AcDbSpline
 70
8
 71
3
 72
8
 73
4
 74
0
 40
0
 40
0
 40
0
 40
0
 40
1
 40
1
 40
1
 40
1
 10
4.298995
 20
8.660706
 30
0.0
 10
4.298995
 20
8.632033
 30
0.0
 10
4.306766
 20
8.606697
 30
0.0
 10
4.322308
 20
8.584699
 30
0.0
  0
SPLINE
  5
109
100
AcDbEntity
  8
Capa_1
 62
7
100
AcDbSpline
 70
8
 71
3
 72
8
 73
4
 74
0
 40
0
 40
0
 40
0
 40
0
 40
1
 40
1
 40
1
 40
1
 10
4.322308
 20
8.584699
 30
0.0
 10
4.337851
 20
8.562700
 30
0.0
 10
4.359354
 20
8.545708
 30
0.0
 10
4.386819
 20
8.533721
 30
0.0
  0
LWPOLYLINE
  5
10a
100
AcDbEntity
  8
Capa_1
 62
7
100
AcDbPolyline
 90
4
 70
0
 10
4.529575
 20
8.253096
 30
0.0
 10
4.704262
 20
8.253096
 30
0.0
 10
4.594723
 20
8.749382
 30
0.0
 10
4.458039
 20
8.749382
 30
0.0
  0
SPLINE
  5
10b
100
AcDbEntity
  8
Capa_1
 62
7
100
AcDbSpline
 70
8
 71
3
 72
8
 73
4
 74
0
 40
0
 40
0
 40
0
 40
0
 40
1
 40
1
 40
1
 40
1
 10
4.386819
 20
8.530656
 30
0.0
 10
4.361270
 20
8.524526
 30
0.0
 10
4.341789
 20
8.513323
 30
0.0
 10
4.328376
 20
8.497045
 30
0.0
  0
SPLINE
  5
10c
100
AcDbEntity
  8
Capa_1
 62
7
100
AcDbSpline
 70
8
 71
3
 72
8
 73
4
 74
0
 40
0
 40
0
 40
0
 40
0
 40
1
 40
1
 40
1
 40
1
 10
4.328376
 20
8.497045
 30
0.0
 10
4.314751
 20
8.480631
 30
0.0
 10
4.307938
 20
8.459518
 30
0.0
 10
4.307938
 20
8.433705
 30
0.0
  0
SPLINE
  5
10d
100
AcDbEntity
  8
Capa_1
 62
7
100
AcDbSpline
 70
8
 71
3
 72
8
 73
4
 74
0
 40
0
 40
0
 40
0
 40
0
 40
1
 40
1
 40
1
 40
1
 10
4.307938
 20
8.433705
 30
0.0
 10
4.307938
 20
8.405509
 30
0.0
 10
4.314751
 20
8.378743
 30
0.0
 10
4.328376
 20
8.353407
 30
0.0
  0
SPLINE
  5
10e
100
AcDbEntity
  8
Capa_1
 62
7
100
AcDbSpline
 70
8
 71
3
 72
8
 73
4
 74
0
 40
0
 40
0
 40
0
 40
0
 40
1
 40
1
 40
1
 40
1
 10
4.328376
 20
8.353407
 30
0.0
 10
4.341789
 20
8.328276
 30
0.0
 10
4.359460
 20
8.307946
 30
0.0
 10
4.381389
 20
8.292417
 30
0.0
  0
LWPOLYLINE
  5
10f
100
AcDbEntity
  8
Capa_1
 62
7
100
AcDbPolyline
 90
2
 70
0
 10
4.386819
 20
8.533721
 30
0.0
 10
4.386819
 20
8.530656
 30
0.0
  0
SPLINE
  5
110
100
AcDbEntity
  8
Capa_1
 62
7
100
AcDbSpline
 70
8
 71
3
 72
8
 73
4
 74
0
 40
0
 40
0
 40
0
 40
0
 40
1
 40
1
 40
1
 40
1
 10
4.367661
 20
8.642879
 30
0.0
 10
4.367661
 20
8.652210
 30
0.0
 10
4.369152
 20
8.659872
 30
0.0
 10
4.372134
 20
8.665865
 30
0.0
  0
SPLINE
  5
111
100
AcDbEntity
  8
Capa_1
 62
7
100
AcDbSpline
 70
8
 71
3
 72
8
 73
4
 74
0
 40
0
 40
0
 40
0
 40
0
 40
1
 40
1
 40
1
 40
1
 10
4.372134
 20
8.665865
 30
0.0
 10
4.375117
 20
8.671995
 30
0.0
 10
4.379375
 20
8.677103
 30
0.0
 10
4.384908
 20
8.681190
 30
0.0
  0
SPLINE
  5
112
100
AcDbEntity
  8
Capa_1
 62
7
100
AcDbSpline
 70
8
 71
3
 72
8
 73
4
 74
0
 40
0
 40
0
 40
0
 40
0
 40
1
 40
1
 40
1
 40
1
 10
4.384908
 20
8.681190
 30
0.0
 10
4.393851
 20
8.687319
 30
0.0
 10
4.405028
 20
8.691201
 30
0.0
 10
4.418441
 20
8.692836
 30
0.0
  0
SPLINE
  5
113
100
AcDbEntity
  8
Capa_1
 62
7
100
AcDbSpline
 70
8
 71
3
 72
8
 73
4
 74
0
 40
0
 40
0
 40
0
 40
0
 40
1
 40
1
 40
1
 40
1
 10
4.418441
 20
8.692836
 30
0.0
 10
4.431854
 20
8.694879
 30
0.0
 10
4.449206
 20
8.695901
 30
0.0
 10
4.470496
 20
8.695901
 30
0.0
  0
LWPOLYLINE
  5
114
100
AcDbEntity
  8
Capa_1
 62
7
100
AcDbPolyline
 90
2
 70
0
 10
4.381389
 20
8.292417
 30
0.0
 10
4.381393
 20
8.293245
 30
0.0
  0
SPLINE
  5
115
100
AcDbEntity
  8
Capa_1
 62
7
100
AcDbSpline
 70
8
 71
3
 72
8
 73
4
 74
0
 40
0
 40
0
 40
0
 40
0
 40
1
 40
1
 40
1
 40
1
 10
4.492212
 20
8.548575
 30
0.0
 10
4.473902
 20
8.548575
 30
0.0
 10
4.457935
 20
8.549937
 30
0.0
 10
4.444309
 20
8.552661
 30
0.0
  0
SPLINE
  5
116
100
AcDbEntity
  8
Capa_1
 62
7
100
AcDbSpline
 70
8
 71
3
 72
8
 73
4
 74
0
 40
0
 40
0
 40
0
 40
0
 40
1
 40
1
 40
1
 40
1
 10
4.444309
 20
8.552661
 30
0.0
 10
4.430683
 20
8.555386
 30
0.0
 10
4.418761
 20
8.559812
 30
0.0
 10
4.408541
 20
8.565942
 30
0.0
  0
SPLINE
  5
117
100
AcDbEntity
  8
Capa_1
 62
7
100
AcDbSpline
 70
8
 71
3
 72
8
 73
4
 74
0
 40
0
 40
0
 40
0
 40
0
 40
1
 40
1
 40
1
 40
1
 10
4.408541
 20
8.565942
 30
0.0
 10
4.395341
 20
8.573911
 30
0.0
 10
4.385228
 20
8.585250
 30
0.0
 10
4.378202
 20
8.599962
 30
0.0
  0
SPLINE
  5
118
100
AcDbEntity
  8
Capa_1
 62
7
100
AcDbSpline
 70
8
 71
3
 72
8
 73
4
 74
0
 40
0
 40
0
 40
0
 40
0
 40
1
 40
1
 40
1
 40
1
 10
4.378202
 20
8.599962
 30
0.0
 10
4.371177
 20
8.614877
 30
0.0
 10
4.367664
 20
8.629316
 30
0.0
 10
4.367664
 20
8.643278
 30
0.0
  0
LWPOLYLINE
  5
119
100
AcDbEntity
  8
Capa_1
 62
7
100
AcDbPolyline
 90
4
 70
0
 10
4.470496
 20
8.695901
 30
0.0
 10
4.542671
 20
8.695901
 30
0.0
 10
4.575245
 20
8.548575
 30
0.0
 10
4.492212
 20
8.548575
 30
0.0
  0
SPLINE
  5
11a
100
AcDbEntity
  8
Capa_1
 62
7
100
AcDbSpline
 70
8
 71
3
 72
8
 73
4
 74
0
 40
0
 40
0
 40
0
 40
0
 40
1
 40
1
 40
1
 40
1
 10
4.374689
 20
8.429895
 30
0.0
 10
4.374689
 20
8.442358
 30
0.0
 10
4.376712
 20
8.452370
 30
0.0
 10
4.380758
 20
8.459930
 30
0.0
  0
SPLINE
  5
11b
100
AcDbEntity
  8
Capa_1
 62
7
100
AcDbSpline
 70
8
 71
3
 72
8
 73
4
 74
0
 40
0
 40
0
 40
0
 40
0
 40
1
 40
1
 40
1
 40
1
 10
4.380758
 20
8.459930
 30
0.0
 10
4.384804
 20
8.467694
 30
0.0
 10
4.392043
 20
8.474914
 30
0.0
 10
4.402474
 20
8.481588
 30
0.0
  0
SPLINE
  5
11c
100
AcDbEntity
  8
Capa_1
 62
7
100
AcDbSpline
 70
8
 71
3
 72
8
 73
4
 74
0
 40
0
 40
0
 40
0
 40
0
 40
1
 40
1
 40
1
 40
1
 10
4.402474
 20
8.481588
 30
0.0
 10
4.410990
 20
8.487037
 30
0.0
 10
4.421954
 20
8.490714
 30
0.0
 10
4.435367
 20
8.492621
 30
0.0
  0
SPLINE
  5
11d
100
AcDbEntity
  8
Capa_1
 62
7
100
AcDbSpline
 70
8
 71
3
 72
8
 73
4
 74
0
 40
0
 40
0
 40
0
 40
0
 40
1
 40
1
 40
1
 40
1
 10
4.435367
 20
8.492621
 30
0.0
 10
4.448567
 20
8.494665
 30
0.0
 10
4.466983
 20
8.495686
 30
0.0
 10
4.490615
 20
8.495686
 30
0.0
  0
LWPOLYLINE
  5
11e
100
AcDbEntity
  8
Capa_1
 62
7
100
AcDbPolyline
 90
2
 70
0
 10
4.367664
 20
8.643278
 30
0.0
 10
4.367661
 20
8.642879
 30
0.0
  0
SPLINE
  5
11f
100
AcDbEntity
  8
Capa_1
 62
7
100
AcDbSpline
 70
8
 71
3
 72
8
 73
4
 74
0
 40
0
 40
0
 40
0
 40
0
 40
1
 40
1
 40
1
 40
1
 10
4.541393
 20
8.307700
 30
0.0
 10
4.513077
 20
8.307700
 30
0.0
 10
4.490084
 20
8.309403
 30
0.0
 10
4.472413
 20
8.312808
 30
0.0
  0
SPLINE
  5
120
100
AcDbEntity
  8
Capa_1
 62
7
100
AcDbSpline
 70
8
 71
3
 72
8
 73
4
 74
0
 40
0
 40
0
 40
0
 40
0
 40
1
 40
1
 40
1
 40
1
 10
4.472413
 20
8.312808
 30
0.0
 10
4.454529
 20
8.316214
 30
0.0
 10
4.439094
 20
8.322003
 30
0.0
 10
4.426106
 20
8.330176
 30
0.0
  0
SPLINE
  5
121
100
AcDbEntity
  8
Capa_1
 62
7
100
AcDbSpline
 70
8
 71
3
 72
8
 73
4
 74
0
 40
0
 40
0
 40
0
 40
0
 40
1
 40
1
 40
1
 40
1
 10
4.426106
 20
8.330176
 30
0.0
 10
4.409287
 20
8.340596
 30
0.0
 10
4.396513
 20
8.354831
 30
0.0
 10
4.387783
 20
8.372879
 30
0.0
  0
SPLINE
  5
122
100
AcDbEntity
  8
Capa_1
 62
7
100
AcDbSpline
 70
8
 71
3
 72
8
 73
4
 74
0
 40
0
 40
0
 40
0
 40
0
 40
1
 40
1
 40
1
 40
1
 10
4.387783
 20
8.372879
 30
0.0
 10
4.379054
 20
8.391132
 30
0.0
 10
4.374689
 20
8.410474
 30
0.0
 10
4.374689
 20
8.430906
 30
0.0
  0
LWPOLYLINE
  5
123
100
AcDbEntity
  8
Capa_1
 62
7
100
AcDbPolyline
 90
4
 70
0
 10
4.490615
 20
8.495686
 30
0.0
 10
4.586742
 20
8.495686
 30
0.0
 10
4.628578
 20
8.307700
 30
0.0
 10
4.541393
 20
8.307700
 30
0.0
  0
LWPOLYLINE
  5
124
100
AcDbEntity
  8
Capa_1
 62
7
100
AcDbPolyline
 90
2
 70
0
 10
4.374689
 20
8.430906
 30
0.0
 10
4.374689
 20
8.429895
 30
0.0
  0
LWPOLYLINE
  5
125
100
AcDbEntity
  8
Capa_1
 62
7
100
AcDbPolyline
 90
8
 70
1
 10
3.875534
 20
8.253249
 30
0.0
 10
3.939724
 20
8.253249
 30
0.0
 10
3.955692
 20
8.392902
 30
0.0
 10
4.160719
 20
8.392902
 30
0.0
 10
4.238641
 20
8.253249
 30
0.0
 10
4.305386
 20
8.253249
 30
0.0
 10
4.022437
 20
8.749535
 30
0.0
 10
3.938765
 20
8.749535
 30
0.0
  0
LWPOLYLINE
  5
126
100
AcDbEntity
  8
Capa_1
 62
7
100
AcDbPolyline
 90
3
 70
1
 10
3.962718
 20
8.446894
 30
0.0
 10
3.992418
 20
8.691876
 30
0.0
 10
4.130380
 20
8.446894
 30
0.0
  0
LWPOLYLINE
  5
127
100
AcDbEntity
  8
Capa_1
 62
7
100
AcDbPolyline
 90
8
 70
1
 10
3.371910
 20
8.693204
 30
0.0
 10
3.541488
 20
8.693204
 30
0.0
 10
3.638891
 20
8.253249
 30
0.0
 10
3.702762
 20
8.253249
 30
0.0
 10
3.605359
 20
8.693204
 30
0.0
 10
3.774937
 20
8.693204
 30
0.0
 10
3.762801
 20
8.749494
 30
0.0
 10
3.359774
 20
8.749494
 30
0.0
  0
LWPOLYLINE
  5
128
100
AcDbEntity
  8
Capa_1
 62
7
100
AcDbPolyline
 90
8
 70
1
 10
2.968244
 20
8.693204
 30
0.0
 10
3.137822
 20
8.693204
 30
0.0
 10
3.235225
 20
8.253249
 30
0.0
 10
3.299096
 20
8.253249
 30
0.0
 10
3.201693
 20
8.693204
 30
0.0
 10
3.371271
 20
8.693204
 30
0.0
 10
3.359135
 20
8.749494
 30
0.0
 10
2.956108
 20
8.749494
 30
0.0
  0
SPLINE
  5
129
100
AcDbEntity
  8
Capa_1
 62
7
100
AcDbSpline
 70
8
 71
3
 72
8
 73
4
 74
0
 40
0
 40
0
 40
0
 40
0
 40
1
 40
1
 40
1
 40
1
 10
4.211177
 20
6.590390
 30
0.0
 10
4.229913
 20
6.573295
 30
0.0
 10
4.251522
 20
6.559946
 30
0.0
 10
4.276006
 20
6.550343
 30
0.0
  0
SPLINE
  5
12a
100
AcDbEntity
  8
Capa_1
 62
7
100
AcDbSpline
 70
8
 71
3
 72
8
 73
4
 74
0
 40
0
 40
0
 40
0
 40
0
 40
1
 40
1
 40
1
 40
1
 10
4.276006
 20
6.550343
 30
0.0
 10
4.300277
 20
6.541013
 30
0.0
 10
4.328487
 20
6.536347
 30
0.0
 10
4.360635
 20
6.536347
 30
0.0
  0
SPLINE
  5
12b
100
AcDbEntity
  8
Capa_1
 62
7
100
AcDbSpline
 70
8
 71
3
 72
8
 73
4
 74
0
 40
0
 40
0
 40
0
 40
0
 40
1
 40
1
 40
1
 40
1
 10
4.360635
 20
6.536347
 30
0.0
 10
4.386397
 20
6.536347
 30
0.0
 10
4.411413
 20
6.539787
 30
0.0
 10
4.435684
 20
6.546666
 30
0.0
  0
SPLINE
  5
12c
100
AcDbEntity
  8
Capa_1
 62
7
100
AcDbSpline
 70
8
 71
3
 72
8
 73
4
 74
0
 40
0
 40
0
 40
0
 40
0
 40
1
 40
1
 40
1
 40
1
 10
4.435684
 20
6.546666
 30
0.0
 10
4.459742
 20
6.553476
 30
0.0
 10
4.480074
 20
6.561479
 30
0.0
 10
4.496681
 20
6.570673
 30
0.0
  0
LWPOLYLINE
  5
12d
100
AcDbEntity
  8
Capa_1
 62
7
100
AcDbPolyline
 90
12
 70
1
 10
4.568536
 20
6.737369
 30
0.0
 10
4.742585
 20
6.737369
 30
0.0
 10
4.742585
 20
6.555727
 30
0.0
 10
4.795598
 20
6.555727
 30
0.0
 10
4.795598
 20
6.737369
 30
0.0
 10
4.969647
 20
6.737369
 30
0.0
 10
4.969647
 20
6.790697
 30
0.0
 10
4.795598
 20
6.790697
 30
0.0
 10
4.795598
 20
6.972349
 30
0.0
 10
4.742584
 20
6.972349
 30
0.0
 10
4.742584
 20
6.790697
 30
0.0
 10
4.568535
 20
6.790697
 30
0.0
  0
SPLINE
  5
12e
100
AcDbEntity
  8
Capa_1
 62
7
100
AcDbSpline
 70
8
 71
3
 72
8
 73
4
 74
0
 40
0
 40
0
 40
0
 40
0
 40
1
 40
1
 40
1
 40
1
 10
4.476885
 20
6.634626
 30
0.0
 10
4.462194
 20
6.623048
 30
0.0
 10
4.443778
 20
6.612934
 30
0.0
 10
4.421636
 20
6.604284
 30
0.0
  0
SPLINE
  5
12f
100
AcDbEntity
  8
Capa_1
 62
7
100
AcDbSpline
 70
8
 71
3
 72
8
 73
4
 74
0
 40
0
 40
0
 40
0
 40
0
 40
1
 40
1
 40
1
 40
1
 10
4.421636
 20
6.604284
 30
0.0
 10
4.399494
 20
6.595839
 30
0.0
 10
4.376075
 20
6.591616
 30
0.0
 10
4.351378
 20
6.591616
 30
0.0
  0
SPLINE
  5
130
100
AcDbEntity
  8
Capa_1
 62
7
100
AcDbSpline
 70
8
 71
3
 72
8
 73
4
 74
0
 40
0
 40
0
 40
0
 40
0
 40
1
 40
1
 40
1
 40
1
 10
4.351378
 20
6.591616
 30
0.0
 10
4.313056
 20
6.591616
 30
0.0
 10
4.281653
 20
6.603501
 30
0.0
 10
4.257169
 20
6.627270
 30
0.0
  0
SPLINE
  5
131
100
AcDbEntity
  8
Capa_1
 62
7
100
AcDbSpline
 70
8
 71
3
 72
8
 73
4
 74
0
 40
0
 40
0
 40
0
 40
0
 40
1
 40
1
 40
1
 40
1
 10
4.257169
 20
6.627270
 30
0.0
 10
4.232685
 20
6.651040
 30
0.0
 10
4.220443
 20
6.681926
 30
0.0
 10
4.220443
 20
6.719930
 30
0.0
  0
SPLINE
  5
132
100
AcDbEntity
  8
Capa_1
 62
7
100
AcDbSpline
 70
8
 71
3
 72
8
 73
4
 74
0
 40
0
 40
0
 40
0
 40
0
 40
1
 40
1
 40
1
 40
1
 10
4.220443
 20
6.719930
 30
0.0
 10
4.220443
 20
6.743291
 30
0.0
 10
4.228214
 20
6.760726
 30
0.0
 10
4.243756
 20
6.772236
 30
0.0
  0
SPLINE
  5
133
100
AcDbEntity
  8
Capa_1
 62
7
100
AcDbSpline
 70
8
 71
3
 72
8
 73
4
 74
0
 40
0
 40
0
 40
0
 40
0
 40
1
 40
1
 40
1
 40
1
 10
4.243756
 20
6.772236
 30
0.0
 10
4.259298
 20
6.783814
 30
0.0
 10
4.283463
 20
6.789604
 30
0.0
 10
4.316249
 20
6.789604
 30
0.0
  0
LWPOLYLINE
  5
134
100
AcDbEntity
  8
Capa_1
 62
7
100
AcDbPolyline
 90
3
 70
0
 10
4.496681
 20
6.570673
 30
0.0
 10
4.481671
 20
6.634626
 30
0.0
 10
4.476885
 20
6.634626
 30
0.0
  0
SPLINE
  5
135
100
AcDbEntity
  8
Capa_1
 62
7
100
AcDbSpline
 70
8
 71
3
 72
8
 73
4
 74
0
 40
0
 40
0
 40
0
 40
0
 40
1
 40
1
 40
1
 40
1
 10
4.303795
 20
6.842625
 30
0.0
 10
4.267814
 20
6.842625
 30
0.0
 10
4.238327
 20
6.851172
 30
0.0
 10
4.215333
 20
6.868267
 30
0.0
  0
SPLINE
  5
136
100
AcDbEntity
  8
Capa_1
 62
7
100
AcDbSpline
 70
8
 71
3
 72
8
 73
4
 74
0
 40
0
 40
0
 40
0
 40
0
 40
1
 40
1
 40
1
 40
1
 10
4.215333
 20
6.868267
 30
0.0
 10
4.192339
 20
6.885566
 30
0.0
 10
4.180842
 20
6.908995
 30
0.0
 10
4.180842
 20
6.938554
 30
0.0
  0
SPLINE
  5
137
100
AcDbEntity
  8
Capa_1
 62
7
100
AcDbSpline
 70
8
 71
3
 72
8
 73
4
 74
0
 40
0
 40
0
 40
0
 40
0
 40
1
 40
1
 40
1
 40
1
 10
4.180842
 20
6.938554
 30
0.0
 10
4.180842
 20
6.957215
 30
0.0
 10
4.187762
 20
6.971756
 30
0.0
 10
4.201601
 20
6.982176
 30
0.0
  0
SPLINE
  5
138
100
AcDbEntity
  8
Capa_1
 62
7
100
AcDbSpline
 70
8
 71
3
 72
8
 73
4
 74
0
 40
0
 40
0
 40
0
 40
0
 40
1
 40
1
 40
1
 40
1
 10
4.201601
 20
6.982176
 30
0.0
 10
4.215226
 20
6.992597
 30
0.0
 10
4.235452
 20
6.997807
 30
0.0
 10
4.262279
 20
6.997807
 30
0.0
  0
SPLINE
  5
139
100
AcDbEntity
  8
Capa_1
 62
7
100
AcDbSpline
 70
8
 71
3
 72
8
 73
4
 74
0
 40
0
 40
0
 40
0
 40
0
 40
1
 40
1
 40
1
 40
1
 10
4.262279
 20
6.997807
 30
0.0
 10
4.284421
 20
6.997807
 30
0.0
 10
4.308053
 20
6.993584
 30
0.0
 10
4.333176
 20
6.985139
 30
0.0
  0
SPLINE
  5
13a
100
AcDbEntity
  8
Capa_1
 62
7
100
AcDbSpline
 70
8
 71
3
 72
8
 73
4
 74
0
 40
0
 40
0
 40
0
 40
0
 40
1
 40
1
 40
1
 40
1
 10
4.333176
 20
6.985139
 30
0.0
 10
4.358298
 20
6.976694
 30
0.0
 10
4.380547
 20
6.966478
 30
0.0
 10
4.399922
 20
6.954491
 30
0.0
  0
LWPOLYLINE
  5
13b
100
AcDbEntity
  8
Capa_1
 62
7
100
AcDbPolyline
 90
4
 70
0
 10
4.316249
 20
6.789604
 30
0.0
 10
4.346588
 20
6.789604
 30
0.0
 10
4.334133
 20
6.842625
 30
0.0
 10
4.303795
 20
6.842625
 30
0.0
  0
SPLINE
  5
13c
100
AcDbEntity
  8
Capa_1
 62
7
100
AcDbSpline
 70
8
 71
3
 72
8
 73
4
 74
0
 40
0
 40
0
 40
0
 40
0
 40
1
 40
1
 40
1
 40
1
 10
4.389380
 20
7.021815
 30
0.0
 10
4.372348
 20
7.029579
 30
0.0
 10
4.350738
 20
7.036696
 30
0.0
 10
4.324551
 20
7.043166
 30
0.0
  0
SPLINE
  5
13d
100
AcDbEntity
  8
Capa_1
 62
7
100
AcDbSpline
 70
8
 71
3
 72
8
 73
4
 74
0
 40
0
 40
0
 40
0
 40
0
 40
1
 40
1
 40
1
 40
1
 10
4.324551
 20
7.043166
 30
0.0
 10
4.298151
 20
7.049977
 30
0.0
 10
4.273135
 20
7.053382
 30
0.0
 10
4.249503
 20
7.053382
 30
0.0
  0
SPLINE
  5
13e
100
AcDbEntity
  8
Capa_1
 62
7
100
AcDbSpline
 70
8
 71
3
 72
8
 73
4
 74
0
 40
0
 40
0
 40
0
 40
0
 40
1
 40
1
 40
1
 40
1
 10
4.249503
 20
7.053382
 30
0.0
 10
4.207561
 20
7.053382
 30
0.0
 10
4.174561
 20
7.044597
 30
0.0
 10
4.150502
 20
7.027025
 30
0.0
  0
SPLINE
  5
13f
100
AcDbEntity
  8
Capa_1
 62
7
100
AcDbSpline
 70
8
 71
3
 72
8
 73
4
 74
0
 40
0
 40
0
 40
0
 40
0
 40
1
 40
1
 40
1
 40
1
 10
4.150502
 20
7.027025
 30
0.0
 10
4.126231
 20
7.009658
 30
0.0
 10
4.114096
 20
6.985888
 30
0.0
 10
4.114096
 20
6.955717
 30
0.0
  0
SPLINE
  5
140
100
AcDbEntity
  8
Capa_1
 62
7
100
AcDbSpline
 70
8
 71
3
 72
8
 73
4
 74
0
 40
0
 40
0
 40
0
 40
0
 40
1
 40
1
 40
1
 40
1
 10
4.114096
 20
6.955717
 30
0.0
 10
4.114096
 20
6.922821
 30
0.0
 10
4.125806
 20
6.893603
 30
0.0
 10
4.149225
 20
6.868063
 30
0.0
  0
SPLINE
  5
141
100
AcDbEntity
  8
Capa_1
 62
7
100
AcDbSpline
 70
8
 71
3
 72
8
 73
4
 74
0
 40
0
 40
0
 40
0
 40
0
 40
1
 40
1
 40
1
 40
1
 10
4.149225
 20
6.868063
 30
0.0
 10
4.172432
 20
6.842727
 30
0.0
 10
4.201812
 20
6.826620
 30
0.0
 10
4.237368
 20
6.819741
 30
0.0
  0
LWPOLYLINE
  5
142
100
AcDbEntity
  8
Capa_1
 62
7
100
AcDbPolyline
 90
3
 70
0
 10
4.399922
 20
6.954491
 30
0.0
 10
4.403113
 20
6.954491
 30
0.0
 10
4.389380
 20
7.021815
 30
0.0
  0
SPLINE
  5
143
100
AcDbEntity
  8
Capa_1
 62
7
100
AcDbSpline
 70
8
 71
3
 72
8
 73
4
 74
0
 40
0
 40
0
 40
0
 40
0
 40
1
 40
1
 40
1
 40
1
 10
4.237368
 20
6.816676
 30
0.0
 10
4.229064
 20
6.814633
 30
0.0
 10
4.219909
 20
6.811228
 30
0.0
 10
4.209903
 20
6.806460
 30
0.0
  0
SPLINE
  5
144
100
AcDbEntity
  8
Capa_1
 62
7
100
AcDbSpline
 70
8
 71
3
 72
8
 73
4
 74
0
 40
0
 40
0
 40
0
 40
0
 40
1
 40
1
 40
1
 40
1
 10
4.209903
 20
6.806460
 30
0.0
 10
4.199684
 20
6.801693
 30
0.0
 10
4.190742
 20
6.795699
 30
0.0
 10
4.183077
 20
6.788480
 30
0.0
  0
SPLINE
  5
145
100
AcDbEntity
  8
Capa_1
 62
7
100
AcDbSpline
 70
8
 71
3
 72
8
 73
4
 74
0
 40
0
 40
0
 40
0
 40
0
 40
1
 40
1
 40
1
 40
1
 10
4.183077
 20
6.788480
 30
0.0
 10
4.174986
 20
6.780920
 30
0.0
 10
4.168280
 20
6.771351
 30
0.0
 10
4.162957
 20
6.759773
 30
0.0
  0
SPLINE
  5
146
100
AcDbEntity
  8
Capa_1
 62
7
100
AcDbSpline
 70
8
 71
3
 72
8
 73
4
 74
0
 40
0
 40
0
 40
0
 40
0
 40
1
 40
1
 40
1
 40
1
 10
4.162957
 20
6.759773
 30
0.0
 10
4.157423
 20
6.748194
 30
0.0
 10
4.154657
 20
6.734539
 30
0.0
 10
4.154657
 20
6.718806
 30
0.0
  0
SPLINE
  5
147
100
AcDbEntity
  8
Capa_1
 62
7
100
AcDbSpline
 70
8
 71
3
 72
8
 73
4
 74
0
 40
0
 40
0
 40
0
 40
0
 40
1
 40
1
 40
1
 40
1
 10
4.154657
 20
6.718806
 30
0.0
 10
4.154657
 20
6.694560
 30
0.0
 10
4.159660
 20
6.671131
 30
0.0
 10
4.169666
 20
6.648520
 30
0.0
  0
SPLINE
  5
148
100
AcDbEntity
  8
Capa_1
 62
7
100
AcDbSpline
 70
8
 71
3
 72
8
 73
4
 74
0
 40
0
 40
0
 40
0
 40
0
 40
1
 40
1
 40
1
 40
1
 10
4.169666
 20
6.648520
 30
0.0
 10
4.179673
 20
6.626044
 30
0.0
 10
4.193511
 20
6.606702
 30
0.0
 10
4.211182
 20
6.590492
 30
0.0
  0
LWPOLYLINE
  5
149
100
AcDbEntity
  8
Capa_1
 62
7
100
AcDbPolyline
 90
2
 70
0
 10
4.237368
 20
6.819741
 30
0.0
 10
4.237368
 20
6.816676
 30
0.0
  0
LWPOLYLINE
  5
14a
100
AcDbEntity
  8
Capa_1
 62
7
100
AcDbPolyline
 90
2
 70
0
 10
4.211182
 20
6.590492
 30
0.0
 10
4.211177
 20
6.590390
 30
0.0
  0
SPLINE
  5
14b
100
AcDbEntity
  8
Capa_1
 62
7
100
AcDbSpline
 70
8
 71
3
 72
8
 73
4
 74
0
 40
0
 40
0
 40
0
 40
0
 40
1
 40
1
 40
1
 40
1
 10
3.347639
 20
6.590390
 30
0.0
 10
3.366374
 20
6.573295
 30
0.0
 10
3.387984
 20
6.559946
 30
0.0
 10
3.412468
 20
6.550343
 30
0.0
  0
SPLINE
  5
14c
100
AcDbEntity
  8
Capa_1
 62
7
100
AcDbSpline
 70
8
 71
3
 72
8
 73
4
 74
0
 40
0
 40
0
 40
0
 40
0
 40
1
 40
1
 40
1
 40
1
 10
3.412468
 20
6.550343
 30
0.0
 10
3.436739
 20
6.541013
 30
0.0
 10
3.464949
 20
6.536347
 30
0.0
 10
3.497097
 20
6.536347
 30
0.0
  0
SPLINE
  5
14d
100
AcDbEntity
  8
Capa_1
 62
7
100
AcDbSpline
 70
8
 71
3
 72
8
 73
4
 74
0
 40
0
 40
0
 40
0
 40
0
 40
1
 40
1
 40
1
 40
1
 10
3.497097
 20
6.536347
 30
0.0
 10
3.522859
 20
6.536347
 30
0.0
 10
3.547875
 20
6.539787
 30
0.0
 10
3.572146
 20
6.546666
 30
0.0
  0
SPLINE
  5
14e
100
AcDbEntity
  8
Capa_1
 62
7
100
AcDbSpline
 70
8
 71
3
 72
8
 73
4
 74
0
 40
0
 40
0
 40
0
 40
0
 40
1
 40
1
 40
1
 40
1
 10
3.572146
 20
6.546666
 30
0.0
 10
3.596204
 20
6.553476
 30
0.0
 10
3.616536
 20
6.561479
 30
0.0
 10
3.633143
 20
6.570673
 30
0.0
  0
LWPOLYLINE
  5
14f
100
AcDbEntity
  8
Capa_1
 62
7
100
AcDbPolyline
 90
7
 70
1
 10
3.597055
 20
7.043013
 30
0.0
 10
3.880005
 20
6.546727
 30
0.0
 10
3.964315
 20
6.546727
 30
0.0
 10
4.027547
 20
7.043013
 30
0.0
 10
3.961760
 20
7.043013
 30
0.0
 10
3.909705
 20
6.607053
 30
0.0
 10
3.664439
 20
7.043013
 30
0.0
  0
SPLINE
  5
150
100
AcDbEntity
  8
Capa_1
 62
7
100
AcDbSpline
 70
8
 71
3
 72
8
 73
4
 74
0
 40
0
 40
0
 40
0
 40
0
 40
1
 40
1
 40
1
 40
1
 10
3.613347
 20
6.634626
 30
0.0
 10
3.598656
 20
6.623048
 30
0.0
 10
3.580240
 20
6.612934
 30
0.0
 10
3.558098
 20
6.604284
 30
0.0
  0
SPLINE
  5
151
100
AcDbEntity
  8
Capa_1
 62
7
100
AcDbSpline
 70
8
 71
3
 72
8
 73
4
 74
0
 40
0
 40
0
 40
0
 40
0
 40
1
 40
1
 40
1
 40
1
 10
3.558098
 20
6.604284
 30
0.0
 10
3.535956
 20
6.595839
 30
0.0
 10
3.512537
 20
6.591616
 30
0.0
 10
3.487840
 20
6.591616
 30
0.0
  0
SPLINE
  5
152
100
AcDbEntity
  8
Capa_1
 62
7
100
AcDbSpline
 70
8
 71
3
 72
8
 73
4
 74
0
 40
0
 40
0
 40
0
 40
0
 40
1
 40
1
 40
1
 40
1
 10
3.487840
 20
6.591616
 30
0.0
 10
3.449518
 20
6.591616
 30
0.0
 10
3.418114
 20
6.603501
 30
0.0
 10
3.393630
 20
6.627270
 30
0.0
  0
SPLINE
  5
153
100
AcDbEntity
  8
Capa_1
 62
7
100
AcDbSpline
 70
8
 71
3
 72
8
 73
4
 74
0
 40
0
 40
0
 40
0
 40
0
 40
1
 40
1
 40
1
 40
1
 10
3.393630
 20
6.627270
 30
0.0
 10
3.369146
 20
6.651040
 30
0.0
 10
3.356904
 20
6.681926
 30
0.0
 10
3.356904
 20
6.719930
 30
0.0
  0
SPLINE
  5
154
100
AcDbEntity
  8
Capa_1
 62
7
100
AcDbSpline
 70
8
 71
3
 72
8
 73
4
 74
0
 40
0
 40
0
 40
0
 40
0
 40
1
 40
1
 40
1
 40
1
 10
3.356904
 20
6.719930
 30
0.0
 10
3.356904
 20
6.743291
 30
0.0
 10
3.364675
 20
6.760726
 30
0.0
 10
3.380218
 20
6.772236
 30
0.0
  0
SPLINE
  5
155
100
AcDbEntity
  8
Capa_1
 62
7
100
AcDbSpline
 70
8
 71
3
 72
8
 73
4
 74
0
 40
0
 40
0
 40
0
 40
0
 40
1
 40
1
 40
1
 40
1
 10
3.380218
 20
6.772236
 30
0.0
 10
3.395760
 20
6.783814
 30
0.0
 10
3.419924
 20
6.789604
 30
0.0
 10
3.452711
 20
6.789604
 30
0.0
  0
LWPOLYLINE
  5
156
100
AcDbEntity
  8
Capa_1
 62
7
100
AcDbPolyline
 90
3
 70
0
 10
3.633143
 20
6.570673
 30
0.0
 10
3.618133
 20
6.634626
 30
0.0
 10
3.613347
 20
6.634626
 30
0.0
  0
SPLINE
  5
157
100
AcDbEntity
  8
Capa_1
 62
7
100
AcDbSpline
 70
8
 71
3
 72
8
 73
4
 74
0
 40
0
 40
0
 40
0
 40
0
 40
1
 40
1
 40
1
 40
1
 10
3.440256
 20
6.842625
 30
0.0
 10
3.404276
 20
6.842625
 30
0.0
 10
3.374789
 20
6.851172
 30
0.0
 10
3.351795
 20
6.868267
 30
0.0
  0
SPLINE
  5
158
100
AcDbEntity
  8
Capa_1
 62
7
100
AcDbSpline
 70
8
 71
3
 72
8
 73
4
 74
0
 40
0
 40
0
 40
0
 40
0
 40
1
 40
1
 40
1
 40
1
 10
3.351795
 20
6.868267
 30
0.0
 10
3.328801
 20
6.885566
 30
0.0
 10
3.317304
 20
6.908995
 30
0.0
 10
3.317304
 20
6.938554
 30
0.0
  0
SPLINE
  5
159
100
AcDbEntity
  8
Capa_1
 62
7
100
AcDbSpline
 70
8
 71
3
 72
8
 73
4
 74
0
 40
0
 40
0
 40
0
 40
0
 40
1
 40
1
 40
1
 40
1
 10
3.317304
 20
6.938554
 30
0.0
 10
3.317304
 20
6.957215
 30
0.0
 10
3.324223
 20
6.971756
 30
0.0
 10
3.338062
 20
6.982176
 30
0.0
  0
SPLINE
  5
15a
100
AcDbEntity
  8
Capa_1
 62
7
100
AcDbSpline
 70
8
 71
3
 72
8
 73
4
 74
0
 40
0
 40
0
 40
0
 40
0
 40
1
 40
1
 40
1
 40
1
 10
3.338062
 20
6.982176
 30
0.0
 10
3.351688
 20
6.992597
 30
0.0
 10
3.371914
 20
6.997807
 30
0.0
 10
3.398740
 20
6.997807
 30
0.0
  0
SPLINE
  5
15b
100
AcDbEntity
  8
Capa_1
 62
7
100
AcDbSpline
 70
8
 71
3
 72
8
 73
4
 74
0
 40
0
 40
0
 40
0
 40
0
 40
1
 40
1
 40
1
 40
1
 10
3.398740
 20
6.997807
 30
0.0
 10
3.420883
 20
6.997807
 30
0.0
 10
3.444515
 20
6.993584
 30
0.0
 10
3.469638
 20
6.985139
 30
0.0
  0
SPLINE
  5
15c
100
AcDbEntity
  8
Capa_1
 62
7
100
AcDbSpline
 70
8
 71
3
 72
8
 73
4
 74
0
 40
0
 40
0
 40
0
 40
0
 40
1
 40
1
 40
1
 40
1
 10
3.469638
 20
6.985139
 30
0.0
 10
3.494760
 20
6.976694
 30
0.0
 10
3.517009
 20
6.966478
 30
0.0
 10
3.536383
 20
6.954491
 30
0.0
  0
LWPOLYLINE
  5
15d
100
AcDbEntity
  8
Capa_1
 62
7
100
AcDbPolyline
 90
4
 70
0
 10
3.452711
 20
6.789604
 30
0.0
 10
3.483050
 20
6.789604
 30
0.0
 10
3.470595
 20
6.842625
 30
0.0
 10
3.440256
 20
6.842625
 30
0.0
  0
SPLINE
  5
15e
100
AcDbEntity
  8
Capa_1
 62
7
100
AcDbSpline
 70
8
 71
3
 72
8
 73
4
 74
0
 40
0
 40
0
 40
0
 40
0
 40
1
 40
1
 40
1
 40
1
 10
3.525842
 20
7.021815
 30
0.0
 10
3.508810
 20
7.029579
 30
0.0
 10
3.487200
 20
7.036696
 30
0.0
 10
3.461013
 20
7.043166
 30
0.0
  0
SPLINE
  5
15f
100
AcDbEntity
  8
Capa_1
 62
7
100
AcDbSpline
 70
8
 71
3
 72
8
 73
4
 74
0
 40
0
 40
0
 40
0
 40
0
 40
1
 40
1
 40
1
 40
1
 10
3.461013
 20
7.043166
 30
0.0
 10
3.434613
 20
7.049977
 30
0.0
 10
3.409597
 20
7.053382
 30
0.0
 10
3.385964
 20
7.053382
 30
0.0
  0
SPLINE
  5
160
100
AcDbEntity
  8
Capa_1
 62
7
100
AcDbSpline
 70
8
 71
3
 72
8
 73
4
 74
0
 40
0
 40
0
 40
0
 40
0
 40
1
 40
1
 40
1
 40
1
 10
3.385964
 20
7.053382
 30
0.0
 10
3.344023
 20
7.053382
 30
0.0
 10
3.311023
 20
7.044597
 30
0.0
 10
3.286964
 20
7.027025
 30
0.0
  0
SPLINE
  5
161
100
AcDbEntity
  8
Capa_1
 62
7
100
AcDbSpline
 70
8
 71
3
 72
8
 73
4
 74
0
 40
0
 40
0
 40
0
 40
0
 40
1
 40
1
 40
1
 40
1
 10
3.286964
 20
7.027025
 30
0.0
 10
3.262693
 20
7.009658
 30
0.0
 10
3.250558
 20
6.985888
 30
0.0
 10
3.250558
 20
6.955717
 30
0.0
  0
SPLINE
  5
162
100
AcDbEntity
  8
Capa_1
 62
7
100
AcDbSpline
 70
8
 71
3
 72
8
 73
4
 74
0
 40
0
 40
0
 40
0
 40
0
 40
1
 40
1
 40
1
 40
1
 10
3.250558
 20
6.955717
 30
0.0
 10
3.250558
 20
6.922821
 30
0.0
 10
3.262267
 20
6.893603
 30
0.0
 10
3.285687
 20
6.868063
 30
0.0
  0
SPLINE
  5
163
100
AcDbEntity
  8
Capa_1
 62
7
100
AcDbSpline
 70
8
 71
3
 72
8
 73
4
 74
0
 40
0
 40
0
 40
0
 40
0
 40
1
 40
1
 40
1
 40
1
 10
3.285687
 20
6.868063
 30
0.0
 10
3.308893
 20
6.842727
 30
0.0
 10
3.338274
 20
6.826620
 30
0.0
 10
3.373829
 20
6.819741
 30
0.0
  0
LWPOLYLINE
  5
164
100
AcDbEntity
  8
Capa_1
 62
7
100
AcDbPolyline
 90
3
 70
0
 10
3.536383
 20
6.954491
 30
0.0
 10
3.539575
 20
6.954491
 30
0.0
 10
3.525842
 20
7.021815
 30
0.0
  0
SPLINE
  5
165
100
AcDbEntity
  8
Capa_1
 62
7
100
AcDbSpline
 70
8
 71
3
 72
8
 73
4
 74
0
 40
0
 40
0
 40
0
 40
0
 40
1
 40
1
 40
1
 40
1
 10
3.373829
 20
6.816676
 30
0.0
 10
3.365526
 20
6.814633
 30
0.0
 10
3.356371
 20
6.811228
 30
0.0
 10
3.346365
 20
6.806460
 30
0.0
  0
SPLINE
  5
166
100
AcDbEntity
  8
Capa_1
 62
7
100
AcDbSpline
 70
8
 71
3
 72
8
 73
4
 74
0
 40
0
 40
0
 40
0
 40
0
 40
1
 40
1
 40
1
 40
1
 10
3.346365
 20
6.806460
 30
0.0
 10
3.336145
 20
6.801693
 30
0.0
 10
3.327203
 20
6.795699
 30
0.0
 10
3.319538
 20
6.788480
 30
0.0
  0
SPLINE
  5
167
100
AcDbEntity
  8
Capa_1
 62
7
100
AcDbSpline
 70
8
 71
3
 72
8
 73
4
 74
0
 40
0
 40
0
 40
0
 40
0
 40
1
 40
1
 40
1
 40
1
 10
3.319538
 20
6.788480
 30
0.0
 10
3.311448
 20
6.780920
 30
0.0
 10
3.304741
 20
6.771351
 30
0.0
 10
3.299419
 20
6.759773
 30
0.0
  0
SPLINE
  5
168
100
AcDbEntity
  8
Capa_1
 62
7
100
AcDbSpline
 70
8
 71
3
 72
8
 73
4
 74
0
 40
0
 40
0
 40
0
 40
0
 40
1
 40
1
 40
1
 40
1
 10
3.299419
 20
6.759773
 30
0.0
 10
3.293885
 20
6.748194
 30
0.0
 10
3.291118
 20
6.734539
 30
0.0
 10
3.291118
 20
6.718806
 30
0.0
  0
SPLINE
  5
169
100
AcDbEntity
  8
Capa_1
 62
7
100
AcDbSpline
 70
8
 71
3
 72
8
 73
4
 74
0
 40
0
 40
0
 40
0
 40
0
 40
1
 40
1
 40
1
 40
1
 10
3.291118
 20
6.718806
 30
0.0
 10
3.291118
 20
6.694560
 30
0.0
 10
3.296122
 20
6.671131
 30
0.0
 10
3.306128
 20
6.648520
 30
0.0
  0
SPLINE
  5
16a
100
AcDbEntity
  8
Capa_1
 62
7
100
AcDbSpline
 70
8
 71
3
 72
8
 73
4
 74
0
 40
0
 40
0
 40
0
 40
0
 40
1
 40
1
 40
1
 40
1
 10
3.306128
 20
6.648520
 30
0.0
 10
3.316135
 20
6.626044
 30
0.0
 10
3.329973
 20
6.606702
 30
0.0
 10
3.347644
 20
6.590492
 30
0.0
  0
LWPOLYLINE
  5
16b
100
AcDbEntity
  8
Capa_1
 62
7
100
AcDbPolyline
 90
2
 70
0
 10
3.373829
 20
6.819741
 30
0.0
 10
3.373829
 20
6.816676
 30
0.0
  0
LWPOLYLINE
  5
16c
100
AcDbEntity
  8
Capa_1
 62
7
100
AcDbPolyline
 90
2
 70
0
 10
3.347644
 20
6.590492
 30
0.0
 10
3.347639
 20
6.590390
 30
0.0
  0
SPLINE
  5
16d
100
AcDbEntity
  8
Capa_1
 62
7
100
AcDbSpline
 70
8
 71
3
 72
8
 73
4
 74
0
 40
0
 40
0
 40
0
 40
0
 40
1
 40
1
 40
1
 40
1
 10
3.994334
 20
4.888527
 30
0.0
 10
4.013069
 20
4.870070
 30
0.0
 10
4.034892
 20
4.855631
 30
0.0
 10
4.059802
 20
4.845211
 30
0.0
  0
SPLINE
  5
16e
100
AcDbEntity
  8
Capa_1
 62
7
100
AcDbSpline
 70
8
 71
3
 72
8
 73
4
 74
0
 40
0
 40
0
 40
0
 40
0
 40
1
 40
1
 40
1
 40
1
 10
4.059802
 20
4.845211
 30
0.0
 10
4.084711
 20
4.834995
 30
0.0
 10
4.113986
 20
4.829887
 30
0.0
 10
4.147624
 20
4.829887
 30
0.0
  0
SPLINE
  5
16f
100
AcDbEntity
  8
Capa_1
 62
7
100
AcDbSpline
 70
8
 71
3
 72
8
 73
4
 74
0
 40
0
 40
0
 40
0
 40
0
 40
1
 40
1
 40
1
 40
1
 10
4.147624
 20
4.829887
 30
0.0
 10
4.173598
 20
4.829887
 30
0.0
 10
4.198082
 20
4.833292
 30
0.0
 10
4.221076
 20
4.840103
 30
0.0
  0
SPLINE
  5
170
100
AcDbEntity
  8
Capa_1
 62
7
100
AcDbSpline
 70
8
 71
3
 72
8
 73
4
 74
0
 40
0
 40
0
 40
0
 40
0
 40
1
 40
1
 40
1
 40
1
 10
4.221076
 20
4.840103
 30
0.0
 10
4.244070
 20
4.846913
 30
0.0
 10
4.263125
 20
4.854235
 30
0.0
 10
4.278241
 20
4.862067
 30
0.0
  0
LWPOLYLINE
  5
171
100
AcDbEntity
  8
Capa_1
 62
7
100
AcDbPolyline
 90
12
 70
1
 10
4.360316
 20
5.030847
 30
0.0
 10
4.534365
 20
5.030847
 30
0.0
 10
4.534365
 20
4.849195
 30
0.0
 10
4.587378
 20
4.849195
 30
0.0
 10
4.587378
 20
5.030847
 30
0.0
 10
4.761427
 20
5.030847
 30
0.0
 10
4.761427
 20
5.084175
 30
0.0
 10
4.587378
 20
5.084175
 30
0.0
 10
4.587378
 20
5.265816
 30
0.0
 10
4.534364
 20
5.265816
 30
0.0
 10
4.534364
 20
5.084175
 30
0.0
 10
4.360315
 20
5.084175
 30
0.0
  0
SPLINE
  5
172
100
AcDbEntity
  8
Capa_1
 62
7
100
AcDbSpline
 70
8
 71
3
 72
8
 73
4
 74
0
 40
0
 40
0
 40
0
 40
0
 40
1
 40
1
 40
1
 40
1
 10
4.260994
 20
4.926735
 30
0.0
 10
4.247793
 20
4.916315
 30
0.0
 10
4.230016
 20
4.906746
 30
0.0
 10
4.207661
 20
4.898028
 30
0.0
  0
SPLINE
  5
173
100
AcDbEntity
  8
Capa_1
 62
7
100
AcDbSpline
 70
8
 71
3
 72
8
 73
4
 74
0
 40
0
 40
0
 40
0
 40
0
 40
1
 40
1
 40
1
 40
1
 10
4.207661
 20
4.898028
 30
0.0
 10
4.185306
 20
4.889583
 30
0.0
 10
4.162099
 20
4.885360
 30
0.0
 10
4.138041
 20
4.885360
 30
0.0
  0
SPLINE
  5
174
100
AcDbEntity
  8
Capa_1
 62
7
100
AcDbSpline
 70
8
 71
3
 72
8
 73
4
 74
0
 40
0
 40
0
 40
0
 40
0
 40
1
 40
1
 40
1
 40
1
 10
4.138041
 20
4.885360
 30
0.0
 10
4.098441
 20
4.885360
 30
0.0
 10
4.066505
 20
4.897347
 30
0.0
 10
4.042234
 20
4.921320
 30
0.0
  0
SPLINE
  5
175
100
AcDbEntity
  8
Capa_1
 62
7
100
AcDbSpline
 70
8
 71
3
 72
8
 73
4
 74
0
 40
0
 40
0
 40
0
 40
0
 40
1
 40
1
 40
1
 40
1
 10
4.042234
 20
4.921320
 30
0.0
 10
4.017963
 20
4.945294
 30
0.0
 10
4.005828
 20
4.976726
 30
0.0
 10
4.005828
 20
5.015615
 30
0.0
  0
SPLINE
  5
176
100
AcDbEntity
  8
Capa_1
 62
7
100
AcDbSpline
 70
8
 71
3
 72
8
 73
4
 74
0
 40
0
 40
0
 40
0
 40
0
 40
1
 40
1
 40
1
 40
1
 10
4.005828
 20
5.015615
 30
0.0
 10
4.005828
 20
5.030734
 30
0.0
 10
4.008595
 20
5.043300
 30
0.0
 10
4.014128
 20
5.053312
 30
0.0
  0
SPLINE
  5
177
100
AcDbEntity
  8
Capa_1
 62
7
100
AcDbSpline
 70
8
 71
3
 72
8
 73
4
 74
0
 40
0
 40
0
 40
0
 40
0
 40
1
 40
1
 40
1
 40
1
 10
4.014128
 20
5.053312
 30
0.0
 10
4.019662
 20
5.063324
 30
0.0
 10
4.027114
 20
5.071428
 30
0.0
 10
4.036483
 20
5.077626
 30
0.0
  0
SPLINE
  5
178
100
AcDbEntity
  8
Capa_1
 62
7
100
AcDbSpline
 70
8
 71
3
 72
8
 73
4
 74
0
 40
0
 40
0
 40
0
 40
0
 40
1
 40
1
 40
1
 40
1
 10
4.036483
 20
5.077626
 30
0.0
 10
4.046064
 20
5.083756
 30
0.0
 10
4.057455
 20
5.088217
 30
0.0
 10
4.070654
 20
5.091009
 30
0.0
  0
SPLINE
  5
179
100
AcDbEntity
  8
Capa_1
 62
7
100
AcDbSpline
 70
8
 71
3
 72
8
 73
4
 74
0
 40
0
 40
0
 40
0
 40
0
 40
1
 40
1
 40
1
 40
1
 10
4.070654
 20
5.091009
 30
0.0
 10
4.083641
 20
5.093734
 30
0.0
 10
4.097374
 20
5.095096
 30
0.0
 10
4.111851
 20
5.095096
 30
0.0
  0
SPLINE
  5
17a
100
AcDbEntity
  8
Capa_1
 62
7
100
AcDbSpline
 70
8
 71
3
 72
8
 73
4
 74
0
 40
0
 40
0
 40
0
 40
0
 40
1
 40
1
 40
1
 40
1
 10
4.111851
 20
5.095096
 30
0.0
 10
4.130586
 20
5.095096
 30
0.0
 10
4.149428
 20
5.093734
 30
0.0
 10
4.168377
 20
5.091009
 30
0.0
  0
SPLINE
  5
17b
100
AcDbEntity
  8
Capa_1
 62
7
100
AcDbSpline
 70
8
 71
3
 72
8
 73
4
 74
0
 40
0
 40
0
 40
0
 40
0
 40
1
 40
1
 40
1
 40
1
 10
4.168377
 20
5.091009
 30
0.0
 10
4.187112
 20
5.088285
 30
0.0
 10
4.203080
 20
5.085561
 30
0.0
 10
4.216280
 20
5.082836
 30
0.0
  0
LWPOLYLINE
  5
17c
100
AcDbEntity
  8
Capa_1
 62
7
100
AcDbPolyline
 90
3
 70
0
 10
4.278241
 20
4.862067
 30
0.0
 10
4.265467
 20
4.926735
 30
0.0
 10
4.260994
 20
4.926735
 30
0.0
  0
SPLINE
  5
17d
100
AcDbEntity
  8
Capa_1
 62
7
100
AcDbSpline
 70
8
 71
3
 72
8
 73
4
 74
0
 40
0
 40
0
 40
0
 40
0
 40
1
 40
1
 40
1
 40
1
 10
4.140599
 20
5.144511
 30
0.0
 10
4.131870
 20
5.145873
 30
0.0
 10
4.123354
 20
5.146895
 30
0.0
 10
4.115051
 20
5.147576
 30
0.0
  0
SPLINE
  5
17e
100
AcDbEntity
  8
Capa_1
 62
7
100
AcDbSpline
 70
8
 71
3
 72
8
 73
4
 74
0
 40
0
 40
0
 40
0
 40
0
 40
1
 40
1
 40
1
 40
1
 10
4.115051
 20
5.147576
 30
0.0
 10
4.106748
 20
5.148243
 30
0.0
 10
4.098338
 20
5.148577
 30
0.0
 10
4.089822
 20
5.148577
 30
0.0
  0
SPLINE
  5
17f
100
AcDbEntity
  8
Capa_1
 62
7
100
AcDbSpline
 70
8
 71
3
 72
8
 73
4
 74
0
 40
0
 40
0
 40
0
 40
0
 40
1
 40
1
 40
1
 40
1
 10
4.089822
 20
5.148577
 30
0.0
 10
4.041919
 20
5.148577
 30
0.0
 10
4.004660
 20
5.137782
 30
0.0
 10
3.978048
 20
5.116192
 30
0.0
  0
SPLINE
  5
180
100
AcDbEntity
  8
Capa_1
 62
7
100
AcDbSpline
 70
8
 71
3
 72
8
 73
4
 74
0
 40
0
 40
0
 40
0
 40
0
 40
1
 40
1
 40
1
 40
1
 10
3.978048
 20
5.116192
 30
0.0
 10
3.951222
 20
5.094670
 30
0.0
 10
3.937809
 20
5.065350
 30
0.0
 10
3.937809
 20
5.028232
 30
0.0
  0
SPLINE
  5
181
100
AcDbEntity
  8
Capa_1
 62
7
100
AcDbSpline
 70
8
 71
3
 72
8
 73
4
 74
0
 40
0
 40
0
 40
0
 40
0
 40
1
 40
1
 40
1
 40
1
 10
3.937809
 20
5.028232
 30
0.0
 10
3.937809
 20
5.001534
 30
0.0
 10
3.942706
 20
4.976198
 30
0.0
 10
3.952500
 20
4.952224
 30
0.0
  0
SPLINE
  5
182
100
AcDbEntity
  8
Capa_1
 62
7
100
AcDbSpline
 70
8
 71
3
 72
8
 73
4
 74
0
 40
0
 40
0
 40
0
 40
0
 40
1
 40
1
 40
1
 40
1
 10
3.952500
 20
4.952224
 30
0.0
 10
3.962293
 20
4.928250
 30
0.0
 10
3.976239
 20
4.907239
 30
0.0
 10
3.994336
 20
4.889191
 30
0.0
  0
LWPOLYLINE
  5
183
100
AcDbEntity
  8
Capa_1
 62
7
100
AcDbPolyline
 90
6
 70
0
 10
4.216280
 20
5.082836
 30
0.0
 10
4.160073
 20
5.337145
 30
0.0
 10
3.874888
 20
5.337145
 30
0.0
 10
3.887343
 20
5.281161
 30
0.0
 10
4.110580
 20
5.281161
 30
0.0
 10
4.140599
 20
5.144511
 30
0.0
  0
LWPOLYLINE
  5
184
100
AcDbEntity
  8
Capa_1
 62
7
100
AcDbPolyline
 90
2
 70
0
 10
3.994336
 20
4.889191
 30
0.0
 10
3.994334
 20
4.888527
 30
0.0
  0
SPLINE
  5
185
100
AcDbEntity
  8
Capa_1
 62
7
100
AcDbSpline
 70
8
 71
3
 72
8
 73
4
 74
0
 40
0
 40
0
 40
0
 40
0
 40
1
 40
1
 40
1
 40
1
 10
4.640072
 20
3.124008
 30
0.0
 10
4.705646
 20
3.124008
 30
0.0
 10
4.756849
 20
3.140899
 30
0.0
 10
4.793682
 20
3.174680
 30
0.0
  0
SPLINE
  5
186
100
AcDbEntity
  8
Capa_1
 62
7
100
AcDbSpline
 70
8
 71
3
 72
8
 73
4
 74
0
 40
0
 40
0
 40
0
 40
0
 40
1
 40
1
 40
1
 40
1
 10
4.793682
 20
3.174680
 30
0.0
 10
4.830514
 20
3.208461
 30
0.0
 10
4.848930
 20
3.256456
 30
0.0
 10
4.848930
 20
3.318665
 30
0.0
  0
SPLINE
  5
187
100
AcDbEntity
  8
Capa_1
 62
7
100
AcDbSpline
 70
8
 71
3
 72
8
 73
4
 74
0
 40
0
 40
0
 40
0
 40
0
 40
1
 40
1
 40
1
 40
1
 10
4.848930
 20
3.318665
 30
0.0
 10
4.848930
 20
3.364433
 30
0.0
 10
4.842224
 20
3.406762
 30
0.0
 10
4.828811
 20
3.445651
 30
0.0
  0
SPLINE
  5
188
100
AcDbEntity
  8
Capa_1
 62
7
100
AcDbSpline
 70
8
 71
3
 72
8
 73
4
 74
0
 40
0
 40
0
 40
0
 40
0
 40
1
 40
1
 40
1
 40
1
 10
4.828811
 20
3.445651
 30
0.0
 10
4.815185
 20
3.484540
 30
0.0
 10
4.795492
 20
3.518423
 30
0.0
 10
4.769730
 20
3.547301
 30
0.0
  0
SPLINE
  5
189
100
AcDbEntity
  8
Capa_1
 62
7
100
AcDbSpline
 70
8
 71
3
 72
8
 73
4
 74
0
 40
0
 40
0
 40
0
 40
0
 40
1
 40
1
 40
1
 40
1
 10
4.769730
 20
3.547301
 30
0.0
 10
4.744182
 20
3.575974
 30
0.0
 10
4.712885
 20
3.598415
 30
0.0
 10
4.675840
 20
3.614625
 30
0.0
  0
SPLINE
  5
18a
100
AcDbEntity
  8
Capa_1
 62
7
100
AcDbSpline
 70
8
 71
3
 72
8
 73
4
 74
0
 40
0
 40
0
 40
0
 40
0
 40
1
 40
1
 40
1
 40
1
 10
4.675840
 20
3.614625
 30
0.0
 10
4.638582
 20
3.630834
 30
0.0
 10
4.596746
 20
3.638939
 30
0.0
 10
4.550333
 20
3.638939
 30
0.0
  0
SPLINE
  5
18b
100
AcDbEntity
  8
Capa_1
 62
7
100
AcDbSpline
 70
8
 71
3
 72
8
 73
4
 74
0
 40
0
 40
0
 40
0
 40
0
 40
1
 40
1
 40
1
 40
1
 10
4.550333
 20
3.638939
 30
0.0
 10
4.522442
 20
3.638939
 30
0.0
 10
4.494658
 20
3.635397
 30
0.0
 10
4.466981
 20
3.628314
 30
0.0
  0
SPLINE
  5
18c
100
AcDbEntity
  8
Capa_1
 62
7
100
AcDbSpline
 70
8
 71
3
 72
8
 73
4
 74
0
 40
0
 40
0
 40
0
 40
0
 40
1
 40
1
 40
1
 40
1
 10
4.466981
 20
3.628314
 30
0.0
 10
4.439090
 20
3.621435
 30
0.0
 10
4.410668
 20
3.610095
 30
0.0
 10
4.381713
 20
3.594295
 30
0.0
  0
LWPOLYLINE
  5
18d
100
AcDbEntity
  8
Capa_1
 62
7
100
AcDbPolyline
 90
7
 70
1
 10
3.388835
 20
5.336491
 30
0.0
 10
3.671785
 20
4.840205
 30
0.0
 10
3.756095
 20
4.840205
 30
0.0
 10
3.819328
 20
5.336491
 30
0.0
 10
3.753540
 20
5.336491
 30
0.0
 10
3.701485
 20
4.900531
 30
0.0
 10
3.456220
 20
5.336491
 30
0.0
  0
SPLINE
  5
18e
100
AcDbEntity
  8
Capa_1
 62
7
100
AcDbSpline
 70
8
 71
3
 72
8
 73
4
 74
0
 40
0
 40
0
 40
0
 40
0
 40
1
 40
1
 40
1
 40
1
 10
4.401831
 20
3.519002
 30
0.0
 10
4.425463
 20
3.542090
 30
0.0
 10
4.451224
 20
3.558743
 30
0.0
 10
4.479115
 20
3.568959
 30
0.0
  0
SPLINE
  5
18f
100
AcDbEntity
  8
Capa_1
 62
7
100
AcDbSpline
 70
8
 71
3
 72
8
 73
4
 74
0
 40
0
 40
0
 40
0
 40
0
 40
1
 40
1
 40
1
 40
1
 10
4.479115
 20
3.568959
 30
0.0
 10
4.506792
 20
3.579379
 30
0.0
 10
4.536599
 20
3.584589
 30
0.0
 10
4.568535
 20
3.584589
 30
0.0
  0
SPLINE
  5
190
100
AcDbEntity
  8
Capa_1
 62
7
100
AcDbSpline
 70
8
 71
3
 72
8
 73
4
 74
0
 40
0
 40
0
 40
0
 40
0
 40
1
 40
1
 40
1
 40
1
 10
4.568535
 20
3.584589
 30
0.0
 10
4.603664
 20
3.584589
 30
0.0
 10
4.634428
 20
3.577370
 30
0.0
 10
4.660829
 20
3.562931
 30
0.0
  0
SPLINE
  5
191
100
AcDbEntity
  8
Capa_1
 62
7
100
AcDbSpline
 70
8
 71
3
 72
8
 73
4
 74
0
 40
0
 40
0
 40
0
 40
0
 40
1
 40
1
 40
1
 40
1
 10
4.660829
 20
3.562931
 30
0.0
 10
4.687229
 20
3.548493
 30
0.0
 10
4.709477
 20
3.529286
 30
0.0
 10
4.727574
 20
3.505313
 30
0.0
  0
SPLINE
  5
192
100
AcDbEntity
  8
Capa_1
 62
7
100
AcDbSpline
 70
8
 71
3
 72
8
 73
4
 74
0
 40
0
 40
0
 40
0
 40
0
 40
1
 40
1
 40
1
 40
1
 10
4.727574
 20
3.505313
 30
0.0
 10
4.745245
 20
3.481748
 30
0.0
 10
4.758658
 20
3.454300
 30
0.0
 10
4.767813
 20
3.422971
 30
0.0
  0
SPLINE
  5
193
100
AcDbEntity
  8
Capa_1
 62
7
100
AcDbSpline
 70
8
 71
3
 72
8
 73
4
 74
0
 40
0
 40
0
 40
0
 40
0
 40
1
 40
1
 40
1
 40
1
 10
4.767813
 20
3.422971
 30
0.0
 10
4.776755
 20
3.391642
 30
0.0
 10
4.781226
 20
3.360074
 30
0.0
 10
4.781226
 20
3.328268
 30
0.0
  0
SPLINE
  5
194
100
AcDbEntity
  8
Capa_1
 62
7
100
AcDbSpline
 70
8
 71
3
 72
8
 73
4
 74
0
 40
0
 40
0
 40
0
 40
0
 40
1
 40
1
 40
1
 40
1
 10
4.781226
 20
3.328268
 30
0.0
 10
4.781226
 20
3.280525
 30
0.0
 10
4.768771
 20
3.243638
 30
0.0
 10
4.743862
 20
3.217608
 30
0.0
  0
SPLINE
  5
195
100
AcDbEntity
  8
Capa_1
 62
7
100
AcDbSpline
 70
8
 71
3
 72
8
 73
4
 74
0
 40
0
 40
0
 40
0
 40
0
 40
1
 40
1
 40
1
 40
1
 10
4.743862
 20
3.217608
 30
0.0
 10
4.718739
 20
3.191591
 30
0.0
 10
4.681694
 20
3.178582
 30
0.0
 10
4.632726
 20
3.178582
 30
0.0
  0
SPLINE
  5
196
100
AcDbEntity
  8
Capa_1
 62
7
100
AcDbSpline
 70
8
 71
3
 72
8
 73
4
 74
0
 40
0
 40
0
 40
0
 40
0
 40
1
 40
1
 40
1
 40
1
 10
4.632726
 20
3.178582
 30
0.0
 10
4.611222
 20
3.178582
 30
0.0
 10
4.591103
 20
3.180626
 30
0.0
 10
4.572368
 20
3.184712
 30
0.0
  0
SPLINE
  5
197
100
AcDbEntity
  8
Capa_1
 62
7
100
AcDbSpline
 70
8
 71
3
 72
8
 73
4
 74
0
 40
0
 40
0
 40
0
 40
0
 40
1
 40
1
 40
1
 40
1
 10
4.572368
 20
3.184712
 30
0.0
 10
4.553419
 20
3.188799
 30
0.0
 10
4.535642
 20
3.194145
 30
0.0
 10
4.519035
 20
3.200751
 30
0.0
  0
LWPOLYLINE
  5
198
100
AcDbEntity
  8
Capa_1
 62
7
100
AcDbPolyline
 90
3
 70
0
 10
4.381713
 20
3.594295
 30
0.0
 10
4.396085
 20
3.519002
 30
0.0
 10
4.401831
 20
3.519002
 30
0.0
  0
SPLINE
  5
199
100
AcDbEntity
  8
Capa_1
 62
7
100
AcDbSpline
 70
8
 71
3
 72
8
 73
4
 74
0
 40
0
 40
0
 40
0
 40
0
 40
1
 40
1
 40
1
 40
1
 10
4.463787
 20
3.170440
 30
0.0
 10
4.477839
 20
3.164311
 30
0.0
 10
4.490507
 20
3.158862
 30
0.0
 10
4.501791
 20
3.154095
 30
0.0
  0
SPLINE
  5
19a
100
AcDbEntity
  8
Capa_1
 62
7
100
AcDbSpline
 70
8
 71
3
 72
8
 73
4
 74
0
 40
0
 40
0
 40
0
 40
0
 40
1
 40
1
 40
1
 40
1
 10
4.501791
 20
3.154095
 30
0.0
 10
4.513075
 20
3.149327
 30
0.0
 10
4.527233
 20
3.144423
 30
0.0
 10
4.544265
 20
3.139383
 30
0.0
  0
SPLINE
  5
19b
100
AcDbEntity
  8
Capa_1
 62
7
100
AcDbSpline
 70
8
 71
3
 72
8
 73
4
 74
0
 40
0
 40
0
 40
0
 40
0
 40
1
 40
1
 40
1
 40
1
 10
4.544265
 20
3.139383
 30
0.0
 10
4.558956
 20
3.134616
 30
0.0
 10
4.574179
 20
3.130938
 30
0.0
 10
4.589933
 20
3.128350
 30
0.0
  0
SPLINE
  5
19c
100
AcDbEntity
  8
Capa_1
 62
7
100
AcDbSpline
 70
8
 71
3
 72
8
 73
4
 74
0
 40
0
 40
0
 40
0
 40
0
 40
1
 40
1
 40
1
 40
1
 10
4.589933
 20
3.128350
 30
0.0
 10
4.605476
 20
3.125626
 30
0.0
 10
4.622189
 20
3.124264
 30
0.0
 10
4.640072
 20
3.124264
 30
0.0
  0
LWPOLYLINE
  5
19d
100
AcDbEntity
  8
Capa_1
 62
7
100
AcDbPolyline
 90
6
 70
0
 10
4.519035
 20
3.200751
 30
0.0
 10
4.492210
 20
3.327747
 30
0.0
 10
4.618994
 20
3.327747
 30
0.0
 10
4.606858
 20
3.383425
 30
0.0
 10
4.416522
 20
3.383425
 30
0.0
 10
4.463787
 20
3.170440
 30
0.0
  0
LWPOLYLINE
  5
19e
100
AcDbEntity
  8
Capa_1
 62
7
100
AcDbPolyline
 90
2
 70
0
 10
4.640072
 20
3.124264
 30
0.0
 10
4.640072
 20
3.124008
 30
0.0
  0
SPLINE
  5
19f
100
AcDbEntity
  8
Capa_1
 62
7
100
AcDbSpline
 70
8
 71
3
 72
8
 73
4
 74
0
 40
0
 40
0
 40
0
 40
0
 40
1
 40
1
 40
1
 40
1
 10
3.409913
 20
3.439654
 30
0.0
 10
3.409913
 20
3.385441
 30
0.0
 10
3.423113
 20
3.334112
 30
0.0
 10
3.449513
 20
3.285667
 30
0.0
  0
SPLINE
  5
1a0
100
AcDbEntity
  8
Capa_1
 62
7
100
AcDbSpline
 70
8
 71
3
 72
8
 73
4
 74
0
 40
0
 40
0
 40
0
 40
0
 40
1
 40
1
 40
1
 40
1
 10
3.449513
 20
3.285667
 30
0.0
 10
3.475914
 20
3.237243
 30
0.0
 10
3.512001
 20
3.199801
 30
0.0
 10
3.557775
 20
3.173342
 30
0.0
  0
SPLINE
  5
1a1
100
AcDbEntity
  8
Capa_1
 62
7
100
AcDbSpline
 70
8
 71
3
 72
8
 73
4
 74
0
 40
0
 40
0
 40
0
 40
0
 40
1
 40
1
 40
1
 40
1
 10
3.557775
 20
3.173342
 30
0.0
 10
3.585878
 20
3.157541
 30
0.0
 10
3.614620
 20
3.146984
 30
0.0
 10
3.644001
 20
3.141672
 30
0.0
  0
SPLINE
  5
1a2
100
AcDbEntity
  8
Capa_1
 62
7
100
AcDbSpline
 70
8
 71
3
 72
8
 73
4
 74
0
 40
0
 40
0
 40
0
 40
0
 40
1
 40
1
 40
1
 40
1
 10
3.644001
 20
3.141672
 30
0.0
 10
3.673381
 20
3.136223
 30
0.0
 10
3.706701
 20
3.133499
 30
0.0
 10
3.743959
 20
3.133499
 30
0.0
  0
LWPOLYLINE
  5
1a3
100
AcDbEntity
  8
Capa_1
 62
7
100
AcDbPolyline
 90
10
 70
1
 10
3.998486
 20
3.133683
 30
0.0
 10
4.073853
 20
3.133683
 30
0.0
 10
4.203831
 20
3.577642
 30
0.0
 10
4.302193
 20
3.133683
 30
0.0
 10
4.361912
 20
3.133683
 30
0.0
 10
4.252054
 20
3.629969
 30
0.0
 10
4.156886
 20
3.629969
 30
0.0
 10
4.038086
 20
3.224667
 30
0.0
 10
3.948347
 20
3.629969
 30
0.0
 10
3.888627
 20
3.629969
 30
0.0
  0
SPLINE
  5
1a4
100
AcDbEntity
  8
Capa_1
 62
7
100
AcDbSpline
 70
8
 71
3
 72
8
 73
4
 74
0
 40
0
 40
0
 40
0
 40
0
 40
1
 40
1
 40
1
 40
1
 10
3.651985
 20
3.629785
 30
0.0
 10
3.617494
 20
3.629785
 30
0.0
 10
3.586090
 20
3.627401
 30
0.0
 10
3.557774
 20
3.622634
 30
0.0
  0
SPLINE
  5
1a5
100
AcDbEntity
  8
Capa_1
 62
7
100
AcDbSpline
 70
8
 71
3
 72
8
 73
4
 74
0
 40
0
 40
0
 40
0
 40
0
 40
1
 40
1
 40
1
 40
1
 10
3.557774
 20
3.622634
 30
0.0
 10
3.529245
 20
3.617866
 30
0.0
 10
3.503164
 20
3.607208
 30
0.0
 10
3.479532
 20
3.590658
 30
0.0
  0
SPLINE
  5
1a6
100
AcDbEntity
  8
Capa_1
 62
7
100
AcDbSpline
 70
8
 71
3
 72
8
 73
4
 74
0
 40
0
 40
0
 40
0
 40
0
 40
1
 40
1
 40
1
 40
1
 10
3.479532
 20
3.590658
 30
0.0
 10
3.456964
 20
3.574857
 30
0.0
 10
3.439719
 20
3.554186
 30
0.0
 10
3.427797
 20
3.528646
 30
0.0
  0
SPLINE
  5
1a7
100
AcDbEntity
  8
Capa_1
 62
7
100
AcDbSpline
 70
8
 71
3
 72
8
 73
4
 74
0
 40
0
 40
0
 40
0
 40
0
 40
1
 40
1
 40
1
 40
1
 10
3.427797
 20
3.528646
 30
0.0
 10
3.415874
 20
3.503310
 30
0.0
 10
3.409913
 20
3.473752
 30
0.0
 10
3.409913
 20
3.439971
 30
0.0
  0
LWPOLYLINE
  5
1a8
100
AcDbEntity
  8
Capa_1
 62
7
100
AcDbPolyline
 90
4
 70
0
 10
3.743959
 20
3.133499
 30
0.0
 10
3.872340
 20
3.133499
 30
0.0
 10
3.762482
 20
3.629785
 30
0.0
 10
3.651985
 20
3.629785
 30
0.0
  0
SPLINE
  5
1a9
100
AcDbEntity
  8
Capa_1
 62
7
100
AcDbSpline
 70
8
 71
3
 72
8
 73
4
 74
0
 40
0
 40
0
 40
0
 40
0
 40
1
 40
1
 40
1
 40
1
 10
3.476658
 20
3.433524
 30
0.0
 10
3.476658
 20
3.458860
 30
0.0
 10
3.481023
 20
3.480620
 30
0.0
 10
3.489752
 20
3.498805
 30
0.0
  0
SPLINE
  5
1aa
100
AcDbEntity
  8
Capa_1
 62
7
100
AcDbSpline
 70
8
 71
3
 72
8
 73
4
 74
0
 40
0
 40
0
 40
0
 40
0
 40
1
 40
1
 40
1
 40
1
 10
3.489752
 20
3.498805
 30
0.0
 10
3.498268
 20
3.517262
 30
0.0
 10
3.511255
 20
3.532586
 30
0.0
 10
3.528713
 20
3.544777
 30
0.0
  0
SPLINE
  5
1ab
100
AcDbEntity
  8
Capa_1
 62
7
100
AcDbSpline
 70
8
 71
3
 72
8
 73
4
 74
0
 40
0
 40
0
 40
0
 40
0
 40
1
 40
1
 40
1
 40
1
 10
3.528713
 20
3.544777
 30
0.0
 10
3.545958
 20
3.556764
 30
0.0
 10
3.564375
 20
3.564767
 30
0.0
 10
3.583961
 20
3.568785
 30
0.0
  0
SPLINE
  5
1ac
100
AcDbEntity
  8
Capa_1
 62
7
100
AcDbSpline
 70
8
 71
3
 72
8
 73
4
 74
0
 40
0
 40
0
 40
0
 40
0
 40
1
 40
1
 40
1
 40
1
 10
3.583961
 20
3.568785
 30
0.0
 10
3.603548
 20
3.572871
 30
0.0
 10
3.628352
 20
3.574915
 30
0.0
 10
3.658372
 20
3.574915
 30
0.0
  0
LWPOLYLINE
  5
1ad
100
AcDbEntity
  8
Capa_1
 62
7
100
AcDbPolyline
 90
2
 70
0
 10
3.409913
 20
3.439971
 30
0.0
 10
3.409913
 20
3.439654
 30
0.0
  0
SPLINE
  5
1ae
100
AcDbEntity
  8
Capa_1
 62
7
100
AcDbSpline
 70
8
 71
3
 72
8
 73
4
 74
0
 40
0
 40
0
 40
0
 40
0
 40
1
 40
1
 40
1
 40
1
 10
3.731185
 20
3.187287
 30
0.0
 10
3.700739
 20
3.187287
 30
0.0
 10
3.673594
 20
3.189670
 30
0.0
 10
3.649749
 20
3.194438
 30
0.0
  0
SPLINE
  5
1af
100
AcDbEntity
  8
Capa_1
 62
7
100
AcDbSpline
 70
8
 71
3
 72
8
 73
4
 74
0
 40
0
 40
0
 40
0
 40
0
 40
1
 40
1
 40
1
 40
1
 10
3.649749
 20
3.194438
 30
0.0
 10
3.625691
 20
3.199886
 30
0.0
 10
3.603017
 20
3.208877
 30
0.0
 10
3.581727
 20
3.221408
 30
0.0
  0
SPLINE
  5
1b0
100
AcDbEntity
  8
Capa_1
 62
7
100
AcDbSpline
 70
8
 71
3
 72
8
 73
4
 74
0
 40
0
 40
0
 40
0
 40
0
 40
1
 40
1
 40
1
 40
1
 10
3.581727
 20
3.221408
 30
0.0
 10
3.547450
 20
3.241840
 30
0.0
 10
3.521369
 20
3.271297
 30
0.0
 10
3.503485
 20
3.309777
 30
0.0
  0
SPLINE
  5
1b1
100
AcDbEntity
  8
Capa_1
 62
7
100
AcDbSpline
 70
8
 71
3
 72
8
 73
4
 74
0
 40
0
 40
0
 40
0
 40
0
 40
1
 40
1
 40
1
 40
1
 10
3.503485
 20
3.309777
 30
0.0
 10
3.485600
 20
3.348462
 30
0.0
 10
3.476658
 20
3.389459
 30
0.0
 10
3.476658
 20
3.432768
 30
0.0
  0
LWPOLYLINE
  5
1b2
100
AcDbEntity
  8
Capa_1
 62
7
100
AcDbPolyline
 90
4
 70
0
 10
3.658372
 20
3.574915
 30
0.0
 10
3.711066
 20
3.574915
 30
0.0
 10
3.797291
 20
3.187287
 30
0.0
 10
3.731185
 20
3.187287
 30
0.0
  0
SPLINE
  5
1b3
100
AcDbEntity
  8
Capa_1
 62
7
100
AcDbSpline
 70
8
 71
3
 72
8
 73
4
 74
0
 40
0
 40
0
 40
0
 40
0
 40
1
 40
1
 40
1
 40
1
 10
4.640072
 20
1.417486
 30
0.0
 10
4.705646
 20
1.417486
 30
0.0
 10
4.756849
 20
1.434377
 30
0.0
 10
4.793682
 20
1.468158
 30
0.0
  0
SPLINE
  5
1b4
100
AcDbEntity
  8
Capa_1
 62
7
100
AcDbSpline
 70
8
 71
3
 72
8
 73
4
 74
0
 40
0
 40
0
 40
0
 40
0
 40
1
 40
1
 40
1
 40
1
 10
4.793682
 20
1.468158
 30
0.0
 10
4.830514
 20
1.501939
 30
0.0
 10
4.848930
 20
1.549938
 30
0.0
 10
4.848930
 20
1.612153
 30
0.0
  0
SPLINE
  5
1b5
100
AcDbEntity
  8
Capa_1
 62
7
100
AcDbSpline
 70
8
 71
3
 72
8
 73
4
 74
0
 40
0
 40
0
 40
0
 40
0
 40
1
 40
1
 40
1
 40
1
 10
4.848930
 20
1.612153
 30
0.0
 10
4.848930
 20
1.657921
 30
0.0
 10
4.842224
 20
1.700250
 30
0.0
 10
4.828811
 20
1.739139
 30
0.0
  0
SPLINE
  5
1b6
100
AcDbEntity
  8
Capa_1
 62
7
100
AcDbSpline
 70
8
 71
3
 72
8
 73
4
 74
0
 40
0
 40
0
 40
0
 40
0
 40
1
 40
1
 40
1
 40
1
 10
4.828811
 20
1.739139
 30
0.0
 10
4.815185
 20
1.778028
 30
0.0
 10
4.795492
 20
1.811912
 30
0.0
 10
4.769730
 20
1.840789
 30
0.0
  0
SPLINE
  5
1b7
100
AcDbEntity
  8
Capa_1
 62
7
100
AcDbSpline
 70
8
 71
3
 72
8
 73
4
 74
0
 40
0
 40
0
 40
0
 40
0
 40
1
 40
1
 40
1
 40
1
 10
4.769730
 20
1.840789
 30
0.0
 10
4.744182
 20
1.869462
 30
0.0
 10
4.712885
 20
1.891903
 30
0.0
 10
4.675840
 20
1.908113
 30
0.0
  0
SPLINE
  5
1b8
100
AcDbEntity
  8
Capa_1
 62
7
100
AcDbSpline
 70
8
 71
3
 72
8
 73
4
 74
0
 40
0
 40
0
 40
0
 40
0
 40
1
 40
1
 40
1
 40
1
 10
4.675840
 20
1.908113
 30
0.0
 10
4.638582
 20
1.924322
 30
0.0
 10
4.596746
 20
1.932427
 30
0.0
 10
4.550333
 20
1.932427
 30
0.0
  0
SPLINE
  5
1b9
100
AcDbEntity
  8
Capa_1
 62
7
100
AcDbSpline
 70
8
 71
3
 72
8
 73
4
 74
0
 40
0
 40
0
 40
0
 40
0
 40
1
 40
1
 40
1
 40
1
 10
4.550333
 20
1.932427
 30
0.0
 10
4.522442
 20
1.932427
 30
0.0
 10
4.494658
 20
1.928885
 30
0.0
 10
4.466981
 20
1.921802
 30
0.0
  0
SPLINE
  5
1ba
100
AcDbEntity
  8
Capa_1
 62
7
100
AcDbSpline
 70
8
 71
3
 72
8
 73
4
 74
0
 40
0
 40
0
 40
0
 40
0
 40
1
 40
1
 40
1
 40
1
 10
4.466981
 20
1.921802
 30
0.0
 10
4.439090
 20
1.914923
 30
0.0
 10
4.410668
 20
1.903584
 30
0.0
 10
4.381713
 20
1.887783
 30
0.0
  0
LWPOLYLINE
  5
1bb
100
AcDbEntity
  8
Capa_1
 62
7
100
AcDbPolyline
 90
2
 70
0
 10
3.476658
 20
3.432768
 30
0.0
 10
3.476658
 20
3.433524
 30
0.0
  0
SPLINE
  5
1bc
100
AcDbEntity
  8
Capa_1
 62
7
100
AcDbSpline
 70
8
 71
3
 72
8
 73
4
 74
0
 40
0
 40
0
 40
0
 40
0
 40
1
 40
1
 40
1
 40
1
 10
4.401831
 20
1.812490
 30
0.0
 10
4.425463
 20
1.835579
 30
0.0
 10
4.451224
 20
1.852231
 30
0.0
 10
4.479115
 20
1.862447
 30
0.0
  0
SPLINE
  5
1bd
100
AcDbEntity
  8
Capa_1
 62
7
100
AcDbSpline
 70
8
 71
3
 72
8
 73
4
 74
0
 40
0
 40
0
 40
0
 40
0
 40
1
 40
1
 40
1
 40
1
 10
4.479115
 20
1.862447
 30
0.0
 10
4.506792
 20
1.872867
 30
0.0
 10
4.536599
 20
1.878078
 30
0.0
 10
4.568535
 20
1.878078
 30
0.0
  0
SPLINE
  5
1be
100
AcDbEntity
  8
Capa_1
 62
7
100
AcDbSpline
 70
8
 71
3
 72
8
 73
4
 74
0
 40
0
 40
0
 40
0
 40
0
 40
1
 40
1
 40
1
 40
1
 10
4.568535
 20
1.878078
 30
0.0
 10
4.603664
 20
1.878078
 30
0.0
 10
4.634428
 20
1.870858
 30
0.0
 10
4.660829
 20
1.856419
 30
0.0
  0
SPLINE
  5
1bf
100
AcDbEntity
  8
Capa_1
 62
7
100
AcDbSpline
 70
8
 71
3
 72
8
 73
4
 74
0
 40
0
 40
0
 40
0
 40
0
 40
1
 40
1
 40
1
 40
1
 10
4.660829
 20
1.856419
 30
0.0
 10
4.687229
 20
1.841981
 30
0.0
 10
4.709477
 20
1.822775
 30
0.0
 10
4.727574
 20
1.798801
 30
0.0
  0
SPLINE
  5
1c0
100
AcDbEntity
  8
Capa_1
 62
7
100
AcDbSpline
 70
8
 71
3
 72
8
 73
4
 74
0
 40
0
 40
0
 40
0
 40
0
 40
1
 40
1
 40
1
 40
1
 10
4.727574
 20
1.798801
 30
0.0
 10
4.745245
 20
1.775236
 30
0.0
 10
4.758658
 20
1.747789
 30
0.0
 10
4.767813
 20
1.716459
 30
0.0
  0
SPLINE
  5
1c1
100
AcDbEntity
  8
Capa_1
 62
7
100
AcDbSpline
 70
8
 71
3
 72
8
 73
4
 74
0
 40
0
 40
0
 40
0
 40
0
 40
1
 40
1
 40
1
 40
1
 10
4.767813
 20
1.716459
 30
0.0
 10
4.776755
 20
1.685130
 30
0.0
 10
4.781226
 20
1.653563
 30
0.0
 10
4.781226
 20
1.621757
 30
0.0
  0
SPLINE
  5
1c2
100
AcDbEntity
  8
Capa_1
 62
7
100
AcDbSpline
 70
8
 71
3
 72
8
 73
4
 74
0
 40
0
 40
0
 40
0
 40
0
 40
1
 40
1
 40
1
 40
1
 10
4.781226
 20
1.621757
 30
0.0
 10
4.781226
 20
1.573945
 30
0.0
 10
4.768771
 20
1.537059
 30
0.0
 10
4.743862
 20
1.511096
 30
0.0
  0
SPLINE
  5
1c3
100
AcDbEntity
  8
Capa_1
 62
7
100
AcDbSpline
 70
8
 71
3
 72
8
 73
4
 74
0
 40
0
 40
0
 40
0
 40
0
 40
1
 40
1
 40
1
 40
1
 10
4.743862
 20
1.511096
 30
0.0
 10
4.718739
 20
1.485079
 30
0.0
 10
4.681694
 20
1.472071
 30
0.0
 10
4.632726
 20
1.472071
 30
0.0
  0
SPLINE
  5
1c4
100
AcDbEntity
  8
Capa_1
 62
7
100
AcDbSpline
 70
8
 71
3
 72
8
 73
4
 74
0
 40
0
 40
0
 40
0
 40
0
 40
1
 40
1
 40
1
 40
1
 10
4.632726
 20
1.472071
 30
0.0
 10
4.611222
 20
1.472071
 30
0.0
 10
4.591103
 20
1.474114
 30
0.0
 10
4.572368
 20
1.478200
 30
0.0
  0
SPLINE
  5
1c5
100
AcDbEntity
  8
Capa_1
 62
7
100
AcDbSpline
 70
8
 71
3
 72
8
 73
4
 74
0
 40
0
 40
0
 40
0
 40
0
 40
1
 40
1
 40
1
 40
1
 10
4.572368
 20
1.478200
 30
0.0
 10
4.553419
 20
1.482287
 30
0.0
 10
4.535642
 20
1.487633
 30
0.0
 10
4.519035
 20
1.494240
 30
0.0
  0
LWPOLYLINE
  5
1c6
100
AcDbEntity
  8
Capa_1
 62
7
100
AcDbPolyline
 90
3
 70
0
 10
4.381713
 20
1.887783
 30
0.0
 10
4.396085
 20
1.812490
 30
0.0
 10
4.401831
 20
1.812490
 30
0.0
  0
SPLINE
  5
1c7
100
AcDbEntity
  8
Capa_1
 62
7
100
AcDbSpline
 70
8
 71
3
 72
8
 73
4
 74
0
 40
0
 40
0
 40
0
 40
0
 40
1
 40
1
 40
1
 40
1
 10
4.463787
 20
1.463929
 30
0.0
 10
4.477839
 20
1.457799
 30
0.0
 10
4.490507
 20
1.452350
 30
0.0
 10
4.501791
 20
1.447583
 30
0.0
  0
SPLINE
  5
1c8
100
AcDbEntity
  8
Capa_1
 62
7
100
AcDbSpline
 70
8
 71
3
 72
8
 73
4
 74
0
 40
0
 40
0
 40
0
 40
0
 40
1
 40
1
 40
1
 40
1
 10
4.501791
 20
1.447583
 30
0.0
 10
4.513075
 20
1.442815
 30
0.0
 10
4.527233
 20
1.437912
 30
0.0
 10
4.544265
 20
1.432872
 30
0.0
  0
SPLINE
  5
1c9
100
AcDbEntity
  8
Capa_1
 62
7
100
AcDbSpline
 70
8
 71
3
 72
8
 73
4
 74
0
 40
0
 40
0
 40
0
 40
0
 40
1
 40
1
 40
1
 40
1
 10
4.544265
 20
1.432872
 30
0.0
 10
4.558956
 20
1.428104
 30
0.0
 10
4.574179
 20
1.424426
 30
0.0
 10
4.589933
 20
1.421838
 30
0.0
  0
SPLINE
  5
1ca
100
AcDbEntity
  8
Capa_1
 62
7
100
AcDbSpline
 70
8
 71
3
 72
8
 73
4
 74
0
 40
0
 40
0
 40
0
 40
0
 40
1
 40
1
 40
1
 40
1
 10
4.589933
 20
1.421838
 30
0.0
 10
4.605476
 20
1.419114
 30
0.0
 10
4.622189
 20
1.417752
 30
0.0
 10
4.640072
 20
1.417752
 30
0.0
  0
LWPOLYLINE
  5
1cb
100
AcDbEntity
  8
Capa_1
 62
7
100
AcDbPolyline
 90
6
 70
0
 10
4.519035
 20
1.494240
 30
0.0
 10
4.492210
 20
1.621235
 30
0.0
 10
4.618994
 20
1.621235
 30
0.0
 10
4.606858
 20
1.676913
 30
0.0
 10
4.416522
 20
1.676913
 30
0.0
 10
4.463787
 20
1.463929
 30
0.0
  0
LWPOLYLINE
  5
1cc
100
AcDbEntity
  8
Capa_1
 62
7
100
AcDbPolyline
 90
2
 70
0
 10
4.640072
 20
1.417752
 30
0.0
 10
4.640072
 20
1.417486
 30
0.0
  0
SPLINE
  5
1cd
100
AcDbEntity
  8
Capa_1
 62
7
100
AcDbSpline
 70
8
 71
3
 72
8
 73
4
 74
0
 40
0
 40
0
 40
0
 40
0
 40
1
 40
1
 40
1
 40
1
 10
3.409913
 20
1.733132
 30
0.0
 10
3.409913
 20
1.678919
 30
0.0
 10
3.423113
 20
1.627590
 30
0.0
 10
3.449513
 20
1.579145
 30
0.0
  0
SPLINE
  5
1ce
100
AcDbEntity
  8
Capa_1
 62
7
100
AcDbSpline
 70
8
 71
3
 72
8
 73
4
 74
0
 40
0
 40
0
 40
0
 40
0
 40
1
 40
1
 40
1
 40
1
 10
3.449513
 20
1.579145
 30
0.0
 10
3.475914
 20
1.530721
 30
0.0
 10
3.512001
 20
1.493279
 30
0.0
 10
3.557775
 20
1.466820
 30
0.0
  0
SPLINE
  5
1cf
100
AcDbEntity
  8
Capa_1
 62
7
100
AcDbSpline
 70
8
 71
3
 72
8
 73
4
 74
0
 40
0
 40
0
 40
0
 40
0
 40
1
 40
1
 40
1
 40
1
 10
3.557775
 20
1.466820
 30
0.0
 10
3.585878
 20
1.451019
 30
0.0
 10
3.614620
 20
1.440462
 30
0.0
 10
3.644001
 20
1.435150
 30
0.0
  0
SPLINE
  5
1d0
100
AcDbEntity
  8
Capa_1
 62
7
100
AcDbSpline
 70
8
 71
3
 72
8
 73
4
 74
0
 40
0
 40
0
 40
0
 40
0
 40
1
 40
1
 40
1
 40
1
 10
3.644001
 20
1.435150
 30
0.0
 10
3.673381
 20
1.429701
 30
0.0
 10
3.706701
 20
1.426977
 30
0.0
 10
3.743959
 20
1.426977
 30
0.0
  0
LWPOLYLINE
  5
1d1
100
AcDbEntity
  8
Capa_1
 62
7
100
AcDbPolyline
 90
10
 70
1
 10
3.998486
 20
1.427161
 30
0.0
 10
4.073853
 20
1.427161
 30
0.0
 10
4.203831
 20
1.871120
 30
0.0
 10
4.302193
 20
1.427161
 30
0.0
 10
4.361912
 20
1.427161
 30
0.0
 10
4.252054
 20
1.923447
 30
0.0
 10
4.156886
 20
1.923447
 30
0.0
 10
4.038086
 20
1.518145
 30
0.0
 10
3.948347
 20
1.923447
 30
0.0
 10
3.888627
 20
1.923447
 30
0.0
  0
SPLINE
  5
1d2
100
AcDbEntity
  8
Capa_1
 62
7
100
AcDbSpline
 70
8
 71
3
 72
8
 73
4
 74
0
 40
0
 40
0
 40
0
 40
0
 40
1
 40
1
 40
1
 40
1
 10
3.651985
 20
1.923263
 30
0.0
 10
3.617494
 20
1.923263
 30
0.0
 10
3.586090
 20
1.920879
 30
0.0
 10
3.557774
 20
1.916112
 30
0.0
  0
SPLINE
  5
1d3
100
AcDbEntity
  8
Capa_1
 62
7
100
AcDbSpline
 70
8
 71
3
 72
8
 73
4
 74
0
 40
0
 40
0
 40
0
 40
0
 40
1
 40
1
 40
1
 40
1
 10
3.557774
 20
1.916112
 30
0.0
 10
3.529245
 20
1.911344
 30
0.0
 10
3.503164
 20
1.900686
 30
0.0
 10
3.479532
 20
1.884136
 30
0.0
  0
SPLINE
  5
1d4
100
AcDbEntity
  8
Capa_1
 62
7
100
AcDbSpline
 70
8
 71
3
 72
8
 73
4
 74
0
 40
0
 40
0
 40
0
 40
0
 40
1
 40
1
 40
1
 40
1
 10
3.479532
 20
1.884136
 30
0.0
 10
3.456964
 20
1.868335
 30
0.0
 10
3.439719
 20
1.847664
 30
0.0
 10
3.427797
 20
1.822124
 30
0.0
  0
SPLINE
  5
1d5
100
AcDbEntity
  8
Capa_1
 62
7
100
AcDbSpline
 70
8
 71
3
 72
8
 73
4
 74
0
 40
0
 40
0
 40
0
 40
0
 40
1
 40
1
 40
1
 40
1
 10
3.427797
 20
1.822124
 30
0.0
 10
3.415874
 20
1.796788
 30
0.0
 10
3.409913
 20
1.767230
 30
0.0
 10
3.409913
 20
1.733449
 30
0.0
  0
LWPOLYLINE
  5
1d6
100
AcDbEntity
  8
Capa_1
 62
7
100
AcDbPolyline
 90
4
 70
0
 10
3.743959
 20
1.426977
 30
0.0
 10
3.872340
 20
1.426977
 30
0.0
 10
3.762482
 20
1.923263
 30
0.0
 10
3.651985
 20
1.923263
 30
0.0
  0
SPLINE
  5
1d7
100
AcDbEntity
  8
Capa_1
 62
7
100
AcDbSpline
 70
8
 71
3
 72
8
 73
4
 74
0
 40
0
 40
0
 40
0
 40
0
 40
1
 40
1
 40
1
 40
1
 10
3.476658
 20
1.727002
 30
0.0
 10
3.476658
 20
1.752338
 30
0.0
 10
3.481023
 20
1.774133
 30
0.0
 10
3.489752
 20
1.792385
 30
0.0
  0
SPLINE
  5
1d8
100
AcDbEntity
  8
Capa_1
 62
7
100
AcDbSpline
 70
8
 71
3
 72
8
 73
4
 74
0
 40
0
 40
0
 40
0
 40
0
 40
1
 40
1
 40
1
 40
1
 10
3.489752
 20
1.792385
 30
0.0
 10
3.498268
 20
1.810842
 30
0.0
 10
3.511255
 20
1.826166
 30
0.0
 10
3.528713
 20
1.838357
 30
0.0
  0
SPLINE
  5
1d9
100
AcDbEntity
  8
Capa_1
 62
7
100
AcDbSpline
 70
8
 71
3
 72
8
 73
4
 74
0
 40
0
 40
0
 40
0
 40
0
 40
1
 40
1
 40
1
 40
1
 10
3.528713
 20
1.838357
 30
0.0
 10
3.545958
 20
1.850344
 30
0.0
 10
3.564375
 20
1.858347
 30
0.0
 10
3.583961
 20
1.862365
 30
0.0
  0
SPLINE
  5
1da
100
AcDbEntity
  8
Capa_1
 62
7
100
AcDbSpline
 70
8
 71
3
 72
8
 73
4
 74
0
 40
0
 40
0
 40
0
 40
0
 40
1
 40
1
 40
1
 40
1
 10
3.583961
 20
1.862365
 30
0.0
 10
3.603548
 20
1.866452
 30
0.0
 10
3.628352
 20
1.868495
 30
0.0
 10
3.658372
 20
1.868495
 30
0.0
  0
LWPOLYLINE
  5
1db
100
AcDbEntity
  8
Capa_1
 62
7
100
AcDbPolyline
 90
2
 70
0
 10
3.409913
 20
1.733449
 30
0.0
 10
3.409913
 20
1.733132
 30
0.0
  0
SPLINE
  5
1dc
100
AcDbEntity
  8
Capa_1
 62
7
100
AcDbSpline
 70
8
 71
3
 72
8
 73
4
 74
0
 40
0
 40
0
 40
0
 40
0
 40
1
 40
1
 40
1
 40
1
 10
3.731185
 20
1.480857
 30
0.0
 10
3.700739
 20
1.480857
 30
0.0
 10
3.673594
 20
1.483581
 30
0.0
 10
3.649749
 20
1.489029
 30
0.0
  0
SPLINE
  5
1dd
100
AcDbEntity
  8
Capa_1
 62
7
100
AcDbSpline
 70
8
 71
3
 72
8
 73
4
 74
0
 40
0
 40
0
 40
0
 40
0
 40
1
 40
1
 40
1
 40
1
 10
3.649749
 20
1.489029
 30
0.0
 10
3.625691
 20
1.494478
 30
0.0
 10
3.603017
 20
1.503468
 30
0.0
 10
3.581727
 20
1.516000
 30
0.0
  0
SPLINE
  5
1de
100
AcDbEntity
  8
Capa_1
 62
7
100
AcDbSpline
 70
8
 71
3
 72
8
 73
4
 74
0
 40
0
 40
0
 40
0
 40
0
 40
1
 40
1
 40
1
 40
1
 10
3.581727
 20
1.516000
 30
0.0
 10
3.547450
 20
1.536432
 30
0.0
 10
3.521369
 20
1.565888
 30
0.0
 10
3.503485
 20
1.604369
 30
0.0
  0
SPLINE
  5
1df
100
AcDbEntity
  8
Capa_1
 62
7
100
AcDbSpline
 70
8
 71
3
 72
8
 73
4
 74
0
 40
0
 40
0
 40
0
 40
0
 40
1
 40
1
 40
1
 40
1
 10
3.503485
 20
1.604369
 30
0.0
 10
3.485600
 20
1.643054
 30
0.0
 10
3.476658
 20
1.684051
 30
0.0
 10
3.476658
 20
1.727360
 30
0.0
  0
LWPOLYLINE
  5
1e0
100
AcDbEntity
  8
Capa_1
 62
7
100
AcDbPolyline
 90
4
 70
0
 10
3.658372
 20
1.868495
 30
0.0
 10
3.711066
 20
1.868495
 30
0.0
 10
3.797291
 20
1.480857
 30
0.0
 10
3.731185
 20
1.480857
 30
0.0
  0
SPLINE
  5
1e1
100
AcDbEntity
  8
Capa_1
 62
7
100
AcDbSpline
 70
8
 71
3
 72
8
 73
4
 74
0
 40
0
 40
0
 40
0
 40
0
 40
1
 40
1
 40
1
 40
1
 10
4.640072
 20
-0.289036
 30
0.0
 10
4.705646
 20
-0.289036
 30
0.0
 10
4.756849
 20
-0.272145
 30
0.0
 10
4.793682
 20
-0.238364
 30
0.0
  0
SPLINE
  5
1e2
100
AcDbEntity
  8
Capa_1
 62
7
100
AcDbSpline
 70
8
 71
3
 72
8
 73
4
 74
0
 40
0
 40
0
 40
0
 40
0
 40
1
 40
1
 40
1
 40
1
 10
4.793682
 20
-0.238364
 30
0.0
 10
4.830514
 20
-0.204583
 30
0.0
 10
4.848930
 20
-0.156584
 30
0.0
 10
4.848930
 20
-0.094369
 30
0.0
  0
SPLINE
  5
1e3
100
AcDbEntity
  8
Capa_1
 62
7
100
AcDbSpline
 70
8
 71
3
 72
8
 73
4
 74
0
 40
0
 40
0
 40
0
 40
0
 40
1
 40
1
 40
1
 40
1
 10
4.848930
 20
-0.094369
 30
0.0
 10
4.848930
 20
-0.048601
 30
0.0
 10
4.842224
 20
-0.006272
 30
0.0
 10
4.828811
 20
0.032617
 30
0.0
  0
SPLINE
  5
1e4
100
AcDbEntity
  8
Capa_1
 62
7
100
AcDbSpline
 70
8
 71
3
 72
8
 73
4
 74
0
 40
0
 40
0
 40
0
 40
0
 40
1
 40
1
 40
1
 40
1
 10
4.828811
 20
0.032617
 30
0.0
 10
4.815185
 20
0.071506
 30
0.0
 10
4.795492
 20
0.105390
 30
0.0
 10
4.769730
 20
0.134267
 30
0.0
  0
SPLINE
  5
1e5
100
AcDbEntity
  8
Capa_1
 62
7
100
AcDbSpline
 70
8
 71
3
 72
8
 73
4
 74
0
 40
0
 40
0
 40
0
 40
0
 40
1
 40
1
 40
1
 40
1
 10
4.769730
 20
0.134267
 30
0.0
 10
4.744182
 20
0.162940
 30
0.0
 10
4.712885
 20
0.185381
 30
0.0
 10
4.675840
 20
0.201591
 30
0.0
  0
SPLINE
  5
1e6
100
AcDbEntity
  8
Capa_1
 62
7
100
AcDbSpline
 70
8
 71
3
 72
8
 73
4
 74
0
 40
0
 40
0
 40
0
 40
0
 40
1
 40
1
 40
1
 40
1
 10
4.675840
 20
0.201591
 30
0.0
 10
4.638582
 20
0.217800
 30
0.0
 10
4.596746
 20
0.225905
 30
0.0
 10
4.550333
 20
0.225905
 30
0.0
  0
SPLINE
  5
1e7
100
AcDbEntity
  8
Capa_1
 62
7
100
AcDbSpline
 70
8
 71
3
 72
8
 73
4
 74
0
 40
0
 40
0
 40
0
 40
0
 40
1
 40
1
 40
1
 40
1
 10
4.550333
 20
0.225905
 30
0.0
 10
4.522442
 20
0.225905
 30
0.0
 10
4.494658
 20
0.222363
 30
0.0
 10
4.466981
 20
0.215280
 30
0.0
  0
SPLINE
  5
1e8
100
AcDbEntity
  8
Capa_1
 62
7
100
AcDbSpline
 70
8
 71
3
 72
8
 73
4
 74
0
 40
0
 40
0
 40
0
 40
0
 40
1
 40
1
 40
1
 40
1
 10
4.466981
 20
0.215280
 30
0.0
 10
4.439090
 20
0.208402
 30
0.0
 10
4.410668
 20
0.197062
 30
0.0
 10
4.381713
 20
0.181261
 30
0.0
  0
LWPOLYLINE
  5
1e9
100
AcDbEntity
  8
Capa_1
 62
7
100
AcDbPolyline
 90
2
 70
0
 10
3.476658
 20
1.727360
 30
0.0
 10
3.476658
 20
1.727002
 30
0.0
  0
SPLINE
  5
1ea
100
AcDbEntity
  8
Capa_1
 62
7
100
AcDbSpline
 70
8
 71
3
 72
8
 73
4
 74
0
 40
0
 40
0
 40
0
 40
0
 40
1
 40
1
 40
1
 40
1
 10
4.401831
 20
0.105968
 30
0.0
 10
4.425463
 20
0.129057
 30
0.0
 10
4.451224
 20
0.145709
 30
0.0
 10
4.479115
 20
0.155925
 30
0.0
  0
SPLINE
  5
1eb
100
AcDbEntity
  8
Capa_1
 62
7
100
AcDbSpline
 70
8
 71
3
 72
8
 73
4
 74
0
 40
0
 40
0
 40
0
 40
0
 40
1
 40
1
 40
1
 40
1
 10
4.479115
 20
0.155925
 30
0.0
 10
4.506792
 20
0.166345
 30
0.0
 10
4.536599
 20
0.171556
 30
0.0
 10
4.568535
 20
0.171556
 30
0.0
  0
SPLINE
  5
1ec
100
AcDbEntity
  8
Capa_1
 62
7
100
AcDbSpline
 70
8
 71
3
 72
8
 73
4
 74
0
 40
0
 40
0
 40
0
 40
0
 40
1
 40
1
 40
1
 40
1
 10
4.568535
 20
0.171556
 30
0.0
 10
4.603664
 20
0.171556
 30
0.0
 10
4.634428
 20
0.164336
 30
0.0
 10
4.660829
 20
0.149898
 30
0.0
  0
SPLINE
  5
1ed
100
AcDbEntity
  8
Capa_1
 62
7
100
AcDbSpline
 70
8
 71
3
 72
8
 73
4
 74
0
 40
0
 40
0
 40
0
 40
0
 40
1
 40
1
 40
1
 40
1
 10
4.660829
 20
0.149898
 30
0.0
 10
4.687229
 20
0.135459
 30
0.0
 10
4.709477
 20
0.116253
 30
0.0
 10
4.727574
 20
0.092279
 30
0.0
  0
SPLINE
  5
1ee
100
AcDbEntity
  8
Capa_1
 62
7
100
AcDbSpline
 70
8
 71
3
 72
8
 73
4
 74
0
 40
0
 40
0
 40
0
 40
0
 40
1
 40
1
 40
1
 40
1
 10
4.727574
 20
0.092279
 30
0.0
 10
4.745245
 20
0.068714
 30
0.0
 10
4.758658
 20
0.041267
 30
0.0
 10
4.767813
 20
0.009937
 30
0.0
  0
SPLINE
  5
1ef
100
AcDbEntity
  8
Capa_1
 62
7
100
AcDbSpline
 70
8
 71
3
 72
8
 73
4
 74
0
 40
0
 40
0
 40
0
 40
0
 40
1
 40
1
 40
1
 40
1
 10
4.767813
 20
0.009937
 30
0.0
 10
4.776755
 20
-0.021392
 30
0.0
 10
4.781226
 20
-0.052925
 30
0.0
 10
4.781226
 20
-0.084663
 30
0.0
  0
SPLINE
  5
1f0
100
AcDbEntity
  8
Capa_1
 62
7
100
AcDbSpline
 70
8
 71
3
 72
8
 73
4
 74
0
 40
0
 40
0
 40
0
 40
0
 40
1
 40
1
 40
1
 40
1
 10
4.781226
 20
-0.084663
 30
0.0
 10
4.781226
 20
-0.132474
 30
0.0
 10
4.768771
 20
-0.169361
 30
0.0
 10
4.743862
 20
-0.195324
 30
0.0
  0
SPLINE
  5
1f1
100
AcDbEntity
  8
Capa_1
 62
7
100
AcDbSpline
 70
8
 71
3
 72
8
 73
4
 74
0
 40
0
 40
0
 40
0
 40
0
 40
1
 40
1
 40
1
 40
1
 10
4.743862
 20
-0.195324
 30
0.0
 10
4.718739
 20
-0.221341
 30
0.0
 10
4.681694
 20
-0.234349
 30
0.0
 10
4.632726
 20
-0.234349
 30
0.0
  0
SPLINE
  5
1f2
100
AcDbEntity
  8
Capa_1
 62
7
100
AcDbSpline
 70
8
 71
3
 72
8
 73
4
 74
0
 40
0
 40
0
 40
0
 40
0
 40
1
 40
1
 40
1
 40
1
 10
4.632726
 20
-0.234349
 30
0.0
 10
4.611222
 20
-0.234349
 30
0.0
 10
4.591103
 20
-0.232306
 30
0.0
 10
4.572368
 20
-0.228219
 30
0.0
  0
SPLINE
  5
1f3
100
AcDbEntity
  8
Capa_1
 62
7
100
AcDbSpline
 70
8
 71
3
 72
8
 73
4
 74
0
 40
0
 40
0
 40
0
 40
0
 40
1
 40
1
 40
1
 40
1
 10
4.572368
 20
-0.228219
 30
0.0
 10
4.553419
 20
-0.224133
 30
0.0
 10
4.535642
 20
-0.218787
 30
0.0
 10
4.519035
 20
-0.212180
 30
0.0
  0
LWPOLYLINE
  5
1f4
100
AcDbEntity
  8
Capa_1
 62
7
100
AcDbPolyline
 90
3
 70
0
 10
4.381713
 20
0.181261
 30
0.0
 10
4.396085
 20
0.105968
 30
0.0
 10
4.401831
 20
0.105968
 30
0.0
  0
SPLINE
  5
1f5
100
AcDbEntity
  8
Capa_1
 62
7
100
AcDbSpline
 70
8
 71
3
 72
8
 73
4
 74
0
 40
0
 40
0
 40
0
 40
0
 40
1
 40
1
 40
1
 40
1
 10
4.463787
 20
-0.242491
 30
0.0
 10
4.477839
 20
-0.248621
 30
0.0
 10
4.490507
 20
-0.254069
 30
0.0
 10
4.501791
 20
-0.258837
 30
0.0
  0
SPLINE
  5
1f6
100
AcDbEntity
  8
Capa_1
 62
7
100
AcDbSpline
 70
8
 71
3
 72
8
 73
4
 74
0
 40
0
 40
0
 40
0
 40
0
 40
1
 40
1
 40
1
 40
1
 10
4.501791
 20
-0.258837
 30
0.0
 10
4.513075
 20
-0.263604
 30
0.0
 10
4.527233
 20
-0.268508
 30
0.0
 10
4.544265
 20
-0.273548
 30
0.0
  0
SPLINE
  5
1f7
100
AcDbEntity
  8
Capa_1
 62
7
100
AcDbSpline
 70
8
 71
3
 72
8
 73
4
 74
0
 40
0
 40
0
 40
0
 40
0
 40
1
 40
1
 40
1
 40
1
 10
4.544265
 20
-0.273548
 30
0.0
 10
4.558956
 20
-0.278316
 30
0.0
 10
4.574179
 20
-0.281993
 30
0.0
 10
4.589933
 20
-0.284581
 30
0.0
  0
SPLINE
  5
1f8
100
AcDbEntity
  8
Capa_1
 62
7
100
AcDbSpline
 70
8
 71
3
 72
8
 73
4
 74
0
 40
0
 40
0
 40
0
 40
0
 40
1
 40
1
 40
1
 40
1
 10
4.589933
 20
-0.284581
 30
0.0
 10
4.605476
 20
-0.287306
 30
0.0
 10
4.622189
 20
-0.288668
 30
0.0
 10
4.640072
 20
-0.288668
 30
0.0
  0
LWPOLYLINE
  5
1f9
100
AcDbEntity
  8
Capa_1
 62
7
100
AcDbPolyline
 90
6
 70
0
 10
4.519035
 20
-0.212180
 30
0.0
 10
4.492210
 20
-0.085184
 30
0.0
 10
4.618994
 20
-0.085184
 30
0.0
 10
4.606858
 20
-0.029507
 30
0.0
 10
4.416522
 20
-0.029507
 30
0.0
 10
4.463787
 20
-0.242491
 30
0.0
  0
LWPOLYLINE
  5
1fa
100
AcDbEntity
  8
Capa_1
 62
7
100
AcDbPolyline
 90
2
 70
0
 10
4.640072
 20
-0.288668
 30
0.0
 10
4.640072
 20
-0.289036
 30
0.0
  0
SPLINE
  5
1fb
100
AcDbEntity
  8
Capa_1
 62
7
100
AcDbSpline
 70
8
 71
3
 72
8
 73
4
 74
0
 40
0
 40
0
 40
0
 40
0
 40
1
 40
1
 40
1
 40
1
 10
3.409913
 20
0.026610
 30
0.0
 10
3.409913
 20
-0.027603
 30
0.0
 10
3.423113
 20
-0.078932
 30
0.0
 10
3.449513
 20
-0.127377
 30
0.0
  0
SPLINE
  5
1fc
100
AcDbEntity
  8
Capa_1
 62
7
100
AcDbSpline
 70
8
 71
3
 72
8
 73
4
 74
0
 40
0
 40
0
 40
0
 40
0
 40
1
 40
1
 40
1
 40
1
 10
3.449513
 20
-0.127377
 30
0.0
 10
3.475914
 20
-0.175801
 30
0.0
 10
3.512001
 20
-0.213243
 30
0.0
 10
3.557775
 20
-0.239702
 30
0.0
  0
SPLINE
  5
1fd
100
AcDbEntity
  8
Capa_1
 62
7
100
AcDbSpline
 70
8
 71
3
 72
8
 73
4
 74
0
 40
0
 40
0
 40
0
 40
0
 40
1
 40
1
 40
1
 40
1
 10
3.557775
 20
-0.239702
 30
0.0
 10
3.585878
 20
-0.255503
 30
0.0
 10
3.614620
 20
-0.266060
 30
0.0
 10
3.644001
 20
-0.271372
 30
0.0
  0
SPLINE
  5
1fe
100
AcDbEntity
  8
Capa_1
 62
7
100
AcDbSpline
 70
8
 71
3
 72
8
 73
4
 74
0
 40
0
 40
0
 40
0
 40
0
 40
1
 40
1
 40
1
 40
1
 10
3.644001
 20
-0.271372
 30
0.0
 10
3.673381
 20
-0.276821
 30
0.0
 10
3.706701
 20
-0.279545
 30
0.0
 10
3.743959
 20
-0.279545
 30
0.0
  0
LWPOLYLINE
  5
1ff
100
AcDbEntity
  8
Capa_1
 62
7
100
AcDbPolyline
 90
10
 70
1
 10
3.998486
 20
-0.279371
 30
0.0
 10
4.073853
 20
-0.279371
 30
0.0
 10
4.203831
 20
0.164598
 30
0.0
 10
4.302193
 20
-0.279371
 30
0.0
 10
4.361912
 20
-0.279371
 30
0.0
 10
4.252054
 20
0.216925
 30
0.0
 10
4.156886
 20
0.216925
 30
0.0
 10
4.038086
 20
-0.188377
 30
0.0
 10
3.948347
 20
0.216925
 30
0.0
 10
3.888627
 20
0.216925
 30
0.0
  0
SPLINE
  5
200
100
AcDbEntity
  8
Capa_1
 62
7
100
AcDbSpline
 70
8
 71
3
 72
8
 73
4
 74
0
 40
0
 40
0
 40
0
 40
0
 40
1
 40
1
 40
1
 40
1
 10
3.651985
 20
0.216751
 30
0.0
 10
3.617494
 20
0.216751
 30
0.0
 10
3.586090
 20
0.214368
 30
0.0
 10
3.557774
 20
0.209600
 30
0.0
  0
SPLINE
  5
201
100
AcDbEntity
  8
Capa_1
 62
7
100
AcDbSpline
 70
8
 71
3
 72
8
 73
4
 74
0
 40
0
 40
0
 40
0
 40
0
 40
1
 40
1
 40
1
 40
1
 10
3.557774
 20
0.209600
 30
0.0
 10
3.529245
 20
0.204833
 30
0.0
 10
3.503164
 20
0.194174
 30
0.0
 10
3.479532
 20
0.177624
 30
0.0
  0
SPLINE
  5
202
100
AcDbEntity
  8
Capa_1
 62
7
100
AcDbSpline
 70
8
 71
3
 72
8
 73
4
 74
0
 40
0
 40
0
 40
0
 40
0
 40
1
 40
1
 40
1
 40
1
 10
3.479532
 20
0.177624
 30
0.0
 10
3.456964
 20
0.161823
 30
0.0
 10
3.439719
 20
0.141153
 30
0.0
 10
3.427797
 20
0.115612
 30
0.0
  0
SPLINE
  5
203
100
AcDbEntity
  8
Capa_1
 62
7
100
AcDbSpline
 70
8
 71
3
 72
8
 73
4
 74
0
 40
0
 40
0
 40
0
 40
0
 40
1
 40
1
 40
1
 40
1
 10
3.427797
 20
0.115612
 30
0.0
 10
3.415874
 20
0.090277
 30
0.0
 10
3.409913
 20
0.060718
 30
0.0
 10
3.409913
 20
0.026937
 30
0.0
  0
LWPOLYLINE
  5
204
100
AcDbEntity
  8
Capa_1
 62
7
100
AcDbPolyline
 90
4
 70
0
 10
3.743959
 20
-0.279545
 30
0.0
 10
3.872340
 20
-0.279545
 30
0.0
 10
3.762482
 20
0.216751
 30
0.0
 10
3.651985
 20
0.216751
 30
0.0
  0
SPLINE
  5
205
100
AcDbEntity
  8
Capa_1
 62
7
100
AcDbSpline
 70
8
 71
3
 72
8
 73
4
 74
0
 40
0
 40
0
 40
0
 40
0
 40
1
 40
1
 40
1
 40
1
 10
3.476658
 20
0.020480
 30
0.0
 10
3.476658
 20
0.045816
 30
0.0
 10
3.481023
 20
0.067611
 30
0.0
 10
3.489752
 20
0.085863
 30
0.0
  0
SPLINE
  5
206
100
AcDbEntity
  8
Capa_1
 62
7
100
AcDbSpline
 70
8
 71
3
 72
8
 73
4
 74
0
 40
0
 40
0
 40
0
 40
0
 40
1
 40
1
 40
1
 40
1
 10
3.489752
 20
0.085863
 30
0.0
 10
3.498268
 20
0.104320
 30
0.0
 10
3.511255
 20
0.119644
 30
0.0
 10
3.528713
 20
0.131836
 30
0.0
  0
SPLINE
  5
207
100
AcDbEntity
  8
Capa_1
 62
7
100
AcDbSpline
 70
8
 71
3
 72
8
 73
4
 74
0
 40
0
 40
0
 40
0
 40
0
 40
1
 40
1
 40
1
 40
1
 10
3.528713
 20
0.131836
 30
0.0
 10
3.545958
 20
0.143822
 30
0.0
 10
3.564375
 20
0.151825
 30
0.0
 10
3.583961
 20
0.155843
 30
0.0
  0
SPLINE
  5
208
100
AcDbEntity
  8
Capa_1
 62
7
100
AcDbSpline
 70
8
 71
3
 72
8
 73
4
 74
0
 40
0
 40
0
 40
0
 40
0
 40
1
 40
1
 40
1
 40
1
 10
3.583961
 20
0.155843
 30
0.0
 10
3.603548
 20
0.159930
 30
0.0
 10
3.628352
 20
0.161973
 30
0.0
 10
3.658372
 20
0.161973
 30
0.0
  0
LWPOLYLINE
  5
209
100
AcDbEntity
  8
Capa_1
 62
7
100
AcDbPolyline
 90
2
 70
0
 10
3.409913
 20
0.026937
 30
0.0
 10
3.409913
 20
0.026610
 30
0.0
  0
SPLINE
  5
20a
100
AcDbEntity
  8
Capa_1
 62
7
100
AcDbSpline
 70
8
 71
3
 72
8
 73
4
 74
0
 40
0
 40
0
 40
0
 40
0
 40
1
 40
1
 40
1
 40
1
 10
3.731185
 20
-0.225665
 30
0.0
 10
3.700739
 20
-0.225665
 30
0.0
 10
3.673594
 20
-0.222941
 30
0.0
 10
3.649749
 20
-0.217493
 30
0.0
  0
SPLINE
  5
20b
100
AcDbEntity
  8
Capa_1
 62
7
100
AcDbSpline
 70
8
 71
3
 72
8
 73
4
 74
0
 40
0
 40
0
 40
0
 40
0
 40
1
 40
1
 40
1
 40
1
 10
3.649749
 20
-0.217493
 30
0.0
 10
3.625691
 20
-0.212044
 30
0.0
 10
3.603017
 20
-0.203054
 30
0.0
 10
3.581727
 20
-0.190522
 30
0.0
  0
SPLINE
  5
20c
100
AcDbEntity
  8
Capa_1
 62
7
100
AcDbSpline
 70
8
 71
3
 72
8
 73
4
 74
0
 40
0
 40
0
 40
0
 40
0
 40
1
 40
1
 40
1
 40
1
 10
3.581727
 20
-0.190522
 30
0.0
 10
3.547450
 20
-0.170090
 30
0.0
 10
3.521369
 20
-0.140634
 30
0.0
 10
3.503485
 20
-0.102153
 30
0.0
  0
SPLINE
  5
20d
100
AcDbEntity
  8
Capa_1
 62
7
100
AcDbSpline
 70
8
 71
3
 72
8
 73
4
 74
0
 40
0
 40
0
 40
0
 40
0
 40
1
 40
1
 40
1
 40
1
 10
3.503485
 20
-0.102153
 30
0.0
 10
3.485600
 20
-0.063468
 30
0.0
 10
3.476658
 20
-0.022471
 30
0.0
 10
3.476658
 20
0.020838
 30
0.0
  0
LWPOLYLINE
  5
20e
100
AcDbEntity
  8
Capa_1
 62
7
100
AcDbPolyline
 90
4
 70
0
 10
3.658372
 20
0.161973
 30
0.0
 10
3.711066
 20
0.161973
 30
0.0
 10
3.797291
 20
-0.225665
 30
0.0
 10
3.731185
 20
-0.225665
 30
0.0
  0
LWPOLYLINE
  5
20f
100
AcDbEntity
  8
Capa_1
 62
7
100
AcDbPolyline
 90
2
 70
0
 10
3.476658
 20
0.020838
 30
0.0
 10
3.476658
 20
0.020480
 30
0.0
  0
LWPOLYLINE
  5
210
100
AcDbEntity
  8
Capa_1
 62
7
100
AcDbPolyline
 90
4
 70
1
 10
2.715358
 20
9.102260
 30
0.0
 10
5.369546
 20
9.102260
 30
0.0
 10
5.369546
 20
-0.750121
 30
0.0
 10
2.715358
 20
-0.750121
 30
0.0
  0
SPLINE
  5
211
100
AcDbEntity
  8
Capa_1
 62
7
100
AcDbSpline
 70
8
 71
3
 72
8
 73
4
 74
0
 40
0
 40
0
 40
0
 40
0
 40
1
 40
1
 40
1
 40
1
 10
1.181270
 20
9.353590
 30
0.0
 10
1.181270
 20
9.310479
 30
0.0
 10
1.187550
 20
9.268927
 30
0.0
 10
1.200112
 20
9.228934
 30
0.0
  0
SPLINE
  5
212
100
AcDbEntity
  8
Capa_1
 62
7
100
AcDbSpline
 70
8
 71
3
 72
8
 73
4
 74
0
 40
0
 40
0
 40
0
 40
0
 40
1
 40
1
 40
1
 40
1
 10
1.200112
 20
9.228934
 30
0.0
 10
1.212460
 20
9.188955
 30
0.0
 10
1.230450
 20
9.153737
 30
0.0
 10
1.254082
 20
9.123279
 30
0.0
  0
SPLINE
  5
213
100
AcDbEntity
  8
Capa_1
 62
7
100
AcDbSpline
 70
8
 71
3
 72
8
 73
4
 74
0
 40
0
 40
0
 40
0
 40
0
 40
1
 40
1
 40
1
 40
1
 10
1.254082
 20
9.123279
 30
0.0
 10
1.278353
 20
9.091950
 30
0.0
 10
1.307521
 20
9.067295
 30
0.0
 10
1.341586
 20
9.049315
 30
0.0
  0
SPLINE
  5
214
100
AcDbEntity
  8
Capa_1
 62
7
100
AcDbSpline
 70
8
 71
3
 72
8
 73
4
 74
0
 40
0
 40
0
 40
0
 40
0
 40
1
 40
1
 40
1
 40
1
 10
1.341586
 20
9.049315
 30
0.0
 10
1.375651
 20
9.031539
 30
0.0
 10
1.414080
 20
9.022651
 30
0.0
 10
1.456873
 20
9.022651
 30
0.0
  0
SPLINE
  5
215
100
AcDbEntity
  8
Capa_1
 62
7
100
AcDbSpline
 70
8
 71
3
 72
8
 73
4
 74
0
 40
0
 40
0
 40
0
 40
0
 40
1
 40
1
 40
1
 40
1
 10
1.456873
 20
9.022651
 30
0.0
 10
1.513506
 20
9.022651
 30
0.0
 10
1.557790
 20
9.038759
 30
0.0
 10
1.589725
 20
9.070973
 30
0.0
  0
SPLINE
  5
216
100
AcDbEntity
  8
Capa_1
 62
7
100
AcDbSpline
 70
8
 71
3
 72
8
 73
4
 74
0
 40
0
 40
0
 40
0
 40
0
 40
1
 40
1
 40
1
 40
1
 10
1.589725
 20
9.070973
 30
0.0
 10
1.621661
 20
9.103392
 30
0.0
 10
1.637628
 20
9.149388
 30
0.0
 10
1.637628
 20
9.208962
 30
0.0
  0
SPLINE
  5
217
100
AcDbEntity
  8
Capa_1
 62
7
100
AcDbSpline
 70
8
 71
3
 72
8
 73
4
 74
0
 40
0
 40
0
 40
0
 40
0
 40
1
 40
1
 40
1
 40
1
 10
1.637628
 20
9.208962
 30
0.0
 10
1.637628
 20
9.254321
 30
0.0
 10
1.631241
 20
9.296653
 30
0.0
 10
1.618467
 20
9.335958
 30
0.0
  0
SPLINE
  5
218
100
AcDbEntity
  8
Capa_1
 62
7
100
AcDbSpline
 70
8
 71
3
 72
8
 73
4
 74
0
 40
0
 40
0
 40
0
 40
0
 40
1
 40
1
 40
1
 40
1
 10
1.618467
 20
9.335958
 30
0.0
 10
1.605693
 20
9.375255
 30
0.0
 10
1.587277
 20
9.410361
 30
0.0
 10
1.563219
 20
9.441275
 30
0.0
  0
SPLINE
  5
219
100
AcDbEntity
  8
Capa_1
 62
7
100
AcDbSpline
 70
8
 71
3
 72
8
 73
4
 74
0
 40
0
 40
0
 40
0
 40
0
 40
1
 40
1
 40
1
 40
1
 10
1.563219
 20
9.441275
 30
0.0
 10
1.539800
 20
9.471038
 30
0.0
 10
1.510845
 20
9.494807
 30
0.0
 10
1.476354
 20
9.512583
 30
0.0
  0
SPLINE
  5
21a
100
AcDbEntity
  8
Capa_1
 62
7
100
AcDbSpline
 70
8
 71
3
 72
8
 73
4
 74
0
 40
0
 40
0
 40
0
 40
0
 40
1
 40
1
 40
1
 40
1
 10
1.476354
 20
9.512583
 30
0.0
 10
1.441650
 20
9.530563
 30
0.0
 10
1.403647
 20
9.539553
 30
0.0
 10
1.362344
 20
9.539553
 30
0.0
  0
SPLINE
  5
21b
100
AcDbEntity
  8
Capa_1
 62
7
100
AcDbSpline
 70
8
 71
3
 72
8
 73
4
 74
0
 40
0
 40
0
 40
0
 40
0
 40
1
 40
1
 40
1
 40
1
 10
1.362344
 20
9.539553
 30
0.0
 10
1.305924
 20
9.539553
 30
0.0
 10
1.261640
 20
9.523446
 30
0.0
 10
1.229492
 20
9.491231
 30
0.0
  0
SPLINE
  5
21c
100
AcDbEntity
  8
Capa_1
 62
7
100
AcDbSpline
 70
8
 71
3
 72
8
 73
4
 74
0
 40
0
 40
0
 40
0
 40
0
 40
1
 40
1
 40
1
 40
1
 10
1.229492
 20
9.491231
 30
0.0
 10
1.197343
 20
9.459221
 30
0.0
 10
1.181269
 20
9.413337
 30
0.0
 10
1.181269
 20
9.353580
 30
0.0
  0
LWPOLYLINE
  5
21d
100
AcDbEntity
  8
Capa_1
 62
7
100
AcDbPolyline
 90
13
 70
1
 10
1.785810
 20
9.032949
 30
0.0
 10
1.849681
 20
9.032949
 30
0.0
 10
1.755791
 20
9.454576
 30
0.0
 10
1.949001
 20
9.169609
 30
0.0
 10
1.986685
 20
9.169609
 30
0.0
 10
2.053750
 20
9.467581
 30
0.0
 10
2.150195
 20
9.032949
 30
0.0
 10
2.209915
 20
9.032949
 30
0.0
 10
2.100056
 20
9.529245
 30
0.0
 10
2.013192
 20
9.529245
 30
0.0
 10
1.949001
 20
9.252932
 30
0.0
 10
1.763775
 20
9.529245
 30
0.0
 10
1.675952
 20
9.529245
 30
0.0
  0
SPLINE
  5
21e
100
AcDbEntity
  8
Capa_1
 62
7
100
AcDbSpline
 70
8
 71
3
 72
8
 73
4
 74
0
 40
0
 40
0
 40
0
 40
0
 40
1
 40
1
 40
1
 40
1
 10
1.302306
 20
9.156277
 30
0.0
 10
1.284422
 20
9.181613
 30
0.0
 10
1.270902
 20
9.209844
 30
0.0
 10
1.261747
 20
9.240969
 30
0.0
  0
SPLINE
  5
21f
100
AcDbEntity
  8
Capa_1
 62
7
100
AcDbSpline
 70
8
 71
3
 72
8
 73
4
 74
0
 40
0
 40
0
 40
0
 40
0
 40
1
 40
1
 40
1
 40
1
 10
1.261747
 20
9.240969
 30
0.0
 10
1.252592
 20
9.272298
 30
0.0
 10
1.248015
 20
9.306740
 30
0.0
 10
1.248015
 20
9.344294
 30
0.0
  0
SPLINE
  5
220
100
AcDbEntity
  8
Capa_1
 62
7
100
AcDbSpline
 70
8
 71
3
 72
8
 73
4
 74
0
 40
0
 40
0
 40
0
 40
0
 40
1
 40
1
 40
1
 40
1
 10
1.248015
 20
9.344294
 30
0.0
 10
1.248015
 20
9.389653
 30
0.0
 10
1.258979
 20
9.424429
 30
0.0
 10
1.280908
 20
9.448620
 30
0.0
  0
SPLINE
  5
221
100
AcDbEntity
  8
Capa_1
 62
7
100
AcDbSpline
 70
8
 71
3
 72
8
 73
4
 74
0
 40
0
 40
0
 40
0
 40
0
 40
1
 40
1
 40
1
 40
1
 10
1.280908
 20
9.448620
 30
0.0
 10
1.302624
 20
9.473071
 30
0.0
 10
1.333069
 20
9.485296
 30
0.0
 10
1.372243
 20
9.485296
 30
0.0
  0
SPLINE
  5
222
100
AcDbEntity
  8
Capa_1
 62
7
100
AcDbSpline
 70
8
 71
3
 72
8
 73
4
 74
0
 40
0
 40
0
 40
0
 40
0
 40
1
 40
1
 40
1
 40
1
 10
1.372243
 20
9.485296
 30
0.0
 10
1.402689
 20
9.485296
 30
0.0
 10
1.430154
 20
9.477974
 30
0.0
 10
1.454637
 20
9.463331
 30
0.0
  0
SPLINE
  5
223
100
AcDbEntity
  8
Capa_1
 62
7
100
AcDbSpline
 70
8
 71
3
 72
8
 73
4
 74
0
 40
0
 40
0
 40
0
 40
0
 40
1
 40
1
 40
1
 40
1
 10
1.454637
 20
9.463331
 30
0.0
 10
1.479121
 20
9.448893
 30
0.0
 10
1.500198
 20
9.429244
 30
0.0
 10
1.517870
 20
9.404385
 30
0.0
  0
SPLINE
  5
224
100
AcDbEntity
  8
Capa_1
 62
7
100
AcDbSpline
 70
8
 71
3
 72
8
 73
4
 74
0
 40
0
 40
0
 40
0
 40
0
 40
1
 40
1
 40
1
 40
1
 10
1.517870
 20
9.404385
 30
0.0
 10
1.534903
 20
9.379934
 30
0.0
 10
1.547996
 20
9.351500
 30
0.0
 10
1.557150
 20
9.319081
 30
0.0
  0
SPLINE
  5
225
100
AcDbEntity
  8
Capa_1
 62
7
100
AcDbSpline
 70
8
 71
3
 72
8
 73
4
 74
0
 40
0
 40
0
 40
0
 40
0
 40
1
 40
1
 40
1
 40
1
 10
1.557150
 20
9.319081
 30
0.0
 10
1.566305
 20
9.286866
 30
0.0
 10
1.570883
 20
9.253664
 30
0.0
 10
1.570883
 20
9.219474
 30
0.0
  0
SPLINE
  5
226
100
AcDbEntity
  8
Capa_1
 62
7
100
AcDbSpline
 70
8
 71
3
 72
8
 73
4
 74
0
 40
0
 40
0
 40
0
 40
0
 40
1
 40
1
 40
1
 40
1
 10
1.570883
 20
9.219474
 30
0.0
 10
1.570883
 20
9.173706
 30
0.0
 10
1.560025
 20
9.138484
 30
0.0
 10
1.538308
 20
9.113809
 30
0.0
  0
SPLINE
  5
227
100
AcDbEntity
  8
Capa_1
 62
7
100
AcDbSpline
 70
8
 71
3
 72
8
 73
4
 74
0
 40
0
 40
0
 40
0
 40
0
 40
1
 40
1
 40
1
 40
1
 10
1.538308
 20
9.113809
 30
0.0
 10
1.516380
 20
9.089359
 30
0.0
 10
1.485721
 20
9.077134
 30
0.0
 10
1.446334
 20
9.077134
 30
0.0
  0
SPLINE
  5
228
100
AcDbEntity
  8
Capa_1
 62
7
100
AcDbSpline
 70
8
 71
3
 72
8
 73
4
 74
0
 40
0
 40
0
 40
0
 40
0
 40
1
 40
1
 40
1
 40
1
 10
1.446334
 20
9.077134
 30
0.0
 10
1.416314
 20
9.077134
 30
0.0
 10
1.389062
 20
9.084353
 30
0.0
 10
1.364578
 20
9.098792
 30
0.0
  0
SPLINE
  5
229
100
AcDbEntity
  8
Capa_1
 62
7
100
AcDbSpline
 70
8
 71
3
 72
8
 73
4
 74
0
 40
0
 40
0
 40
0
 40
0
 40
1
 40
1
 40
1
 40
1
 10
1.364578
 20
9.098792
 30
0.0
 10
1.339881
 20
9.113230
 30
0.0
 10
1.319123
 20
9.132436
 30
0.0
 10
1.302304
 20
9.156410
 30
0.0
  0
LWPOLYLINE
  5
22a
100
AcDbEntity
  8
Capa_1
 62
7
100
AcDbPolyline
 90
1
 70
1
 10
1.181269
 20
9.353580
 30
0.0
  0
SPLINE
  5
22b
100
AcDbEntity
  8
Capa_1
 62
7
100
AcDbSpline
 70
8
 71
3
 72
8
 73
4
 74
0
 40
0
 40
0
 40
0
 40
0
 40
1
 40
1
 40
1
 40
1
 10
0.978798
 20
9.023949
 30
0.0
 10
1.009669
 20
9.023949
 30
0.0
 10
1.039050
 20
9.027354
 30
0.0
 10
1.066941
 20
9.034165
 30
0.0
  0
SPLINE
  5
22c
100
AcDbEntity
  8
Capa_1
 62
7
100
AcDbSpline
 70
8
 71
3
 72
8
 73
4
 74
0
 40
0
 40
0
 40
0
 40
0
 40
1
 40
1
 40
1
 40
1
 10
1.066941
 20
9.034165
 30
0.0
 10
1.094831
 20
9.041044
 30
0.0
 10
1.122189
 20
9.051498
 30
0.0
 10
1.149015
 20
9.065528
 30
0.0
  0
LWPOLYLINE
  5
22d
100
AcDbEntity
  8
Capa_1
 62
7
100
AcDbPolyline
 90
2
 70
0
 10
1.302304
 20
9.156410
 30
0.0
 10
1.302306
 20
9.156277
 30
0.0
  0
SPLINE
  5
22e
100
AcDbEntity
  8
Capa_1
 62
7
100
AcDbSpline
 70
8
 71
3
 72
8
 73
4
 74
0
 40
0
 40
0
 40
0
 40
0
 40
1
 40
1
 40
1
 40
1
 10
1.129213
 20
9.141229
 30
0.0
 10
1.108774
 20
9.121001
 30
0.0
 10
1.083758
 20
9.105439
 30
0.0
 10
1.054165
 20
9.094542
 30
0.0
  0
SPLINE
  5
22f
100
AcDbEntity
  8
Capa_1
 62
7
100
AcDbSpline
 70
8
 71
3
 72
8
 73
4
 74
0
 40
0
 40
0
 40
0
 40
0
 40
1
 40
1
 40
1
 40
1
 10
1.054165
 20
9.094542
 30
0.0
 10
1.024358
 20
9.083849
 30
0.0
 10
0.995616
 20
9.078502
 30
0.0
 10
0.967939
 20
9.078502
 30
0.0
  0
SPLINE
  5
230
100
AcDbEntity
  8
Capa_1
 62
7
100
AcDbSpline
 70
8
 71
3
 72
8
 73
4
 74
0
 40
0
 40
0
 40
0
 40
0
 40
1
 40
1
 40
1
 40
1
 10
0.967939
 20
9.078502
 30
0.0
 10
0.922591
 20
9.078502
 30
0.0
 10
0.887887
 20
9.087833
 30
0.0
 10
0.863829
 20
9.106494
 30
0.0
  0
SPLINE
  5
231
100
AcDbEntity
  8
Capa_1
 62
7
100
AcDbSpline
 70
8
 71
3
 72
8
 73
4
 74
0
 40
0
 40
0
 40
0
 40
0
 40
1
 40
1
 40
1
 40
1
 10
0.863829
 20
9.106494
 30
0.0
 10
0.839558
 20
9.125360
 30
0.0
 10
0.827422
 20
9.149368
 30
0.0
 10
0.827422
 20
9.178518
 30
0.0
  0
SPLINE
  5
232
100
AcDbEntity
  8
Capa_1
 62
7
100
AcDbSpline
 70
8
 71
3
 72
8
 73
4
 74
0
 40
0
 40
0
 40
0
 40
0
 40
1
 40
1
 40
1
 40
1
 10
0.827422
 20
9.178518
 30
0.0
 10
0.827422
 20
9.193842
 30
0.0
 10
0.831787
 20
9.206612
 30
0.0
 10
0.840515
 20
9.216828
 30
0.0
  0
SPLINE
  5
233
100
AcDbEntity
  8
Capa_1
 62
7
100
AcDbSpline
 70
8
 71
3
 72
8
 73
4
 74
0
 40
0
 40
0
 40
0
 40
0
 40
1
 40
1
 40
1
 40
1
 10
0.840515
 20
9.216828
 30
0.0
 10
0.849031
 20
9.227044
 30
0.0
 10
0.861593
 20
9.234604
 30
0.0
 10
0.878199
 20
9.239508
 30
0.0
  0
SPLINE
  5
234
100
AcDbEntity
  8
Capa_1
 62
7
100
AcDbSpline
 70
8
 71
3
 72
8
 73
4
 74
0
 40
0
 40
0
 40
0
 40
0
 40
1
 40
1
 40
1
 40
1
 10
0.878199
 20
9.239508
 30
0.0
 10
0.892038
 20
9.243594
 30
0.0
 10
0.908538
 20
9.247374
 30
0.0
 10
0.927700
 20
9.250847
 30
0.0
  0
SPLINE
  5
235
100
AcDbEntity
  8
Capa_1
 62
7
100
AcDbSpline
 70
8
 71
3
 72
8
 73
4
 74
0
 40
0
 40
0
 40
0
 40
0
 40
1
 40
1
 40
1
 40
1
 10
0.927700
 20
9.250847
 30
0.0
 10
0.946648
 20
9.254934
 30
0.0
 10
0.964745
 20
9.258918
 30
0.0
 10
0.981991
 20
9.262800
 30
0.0
  0
SPLINE
  5
236
100
AcDbEntity
  8
Capa_1
 62
7
100
AcDbSpline
 70
8
 71
3
 72
8
 73
4
 74
0
 40
0
 40
0
 40
0
 40
0
 40
1
 40
1
 40
1
 40
1
 10
0.981991
 20
9.262800
 30
0.0
 10
1.015416
 20
9.270564
 30
0.0
 10
1.041284
 20
9.283913
 30
0.0
 10
1.059594
 20
9.302847
 30
0.0
  0
SPLINE
  5
237
100
AcDbEntity
  8
Capa_1
 62
7
100
AcDbSpline
 70
8
 71
3
 72
8
 73
4
 74
0
 40
0
 40
0
 40
0
 40
0
 40
1
 40
1
 40
1
 40
1
 10
1.059594
 20
9.302847
 30
0.0
 10
1.077904
 20
9.321713
 30
0.0
 10
1.087059
 20
9.345142
 30
0.0
 10
1.087059
 20
9.373134
 30
0.0
  0
SPLINE
  5
238
100
AcDbEntity
  8
Capa_1
 62
7
100
AcDbSpline
 70
8
 71
3
 72
8
 73
4
 74
0
 40
0
 40
0
 40
0
 40
0
 40
1
 40
1
 40
1
 40
1
 10
1.087059
 20
9.373134
 30
0.0
 10
1.087059
 20
9.420468
 30
0.0
 10
1.067897
 20
9.459800
 30
0.0
 10
1.029575
 20
9.491129
 30
0.0
  0
SPLINE
  5
239
100
AcDbEntity
  8
Capa_1
 62
7
100
AcDbSpline
 70
8
 71
3
 72
8
 73
4
 74
0
 40
0
 40
0
 40
0
 40
0
 40
1
 40
1
 40
1
 40
1
 10
1.029575
 20
9.491129
 30
0.0
 10
0.991039
 20
9.522663
 30
0.0
 10
0.941326
 20
9.538430
 30
0.0
 10
0.880435
 20
9.538430
 30
0.0
  0
SPLINE
  5
23a
100
AcDbEntity
  8
Capa_1
 62
7
100
AcDbSpline
 70
8
 71
3
 72
8
 73
4
 74
0
 40
0
 40
0
 40
0
 40
0
 40
1
 40
1
 40
1
 40
1
 10
0.880435
 20
9.538430
 30
0.0
 10
0.847222
 20
9.538430
 30
0.0
 10
0.817097
 20
9.534752
 30
0.0
 10
0.790058
 20
9.527396
 30
0.0
  0
SPLINE
  5
23b
100
AcDbEntity
  8
Capa_1
 62
7
100
AcDbSpline
 70
8
 71
3
 72
8
 73
4
 74
0
 40
0
 40
0
 40
0
 40
0
 40
1
 40
1
 40
1
 40
1
 10
0.790058
 20
9.527396
 30
0.0
 10
0.762806
 20
9.520313
 30
0.0
 10
0.739387
 20
9.511868
 30
0.0
 10
0.719800
 20
9.502060
 30
0.0
  0
LWPOLYLINE
  5
23c
100
AcDbEntity
  8
Capa_1
 62
7
100
AcDbPolyline
 90
3
 70
0
 10
1.149015
 20
9.065528
 30
0.0
 10
1.133687
 20
9.141229
 30
0.0
 10
1.129213
 20
9.141229
 30
0.0
  0
SPLINE
  5
23d
100
AcDbEntity
  8
Capa_1
 62
7
100
AcDbSpline
 70
8
 71
3
 72
8
 73
4
 74
0
 40
0
 40
0
 40
0
 40
0
 40
1
 40
1
 40
1
 40
1
 10
0.738645
 20
9.431059
 30
0.0
 10
0.753761
 20
9.445498
 30
0.0
 10
0.775371
 20
9.457927
 30
0.0
 10
0.803474
 20
9.468347
 30
0.0
  0
SPLINE
  5
23e
100
AcDbEntity
  8
Capa_1
 62
7
100
AcDbSpline
 70
8
 71
3
 72
8
 73
4
 74
0
 40
0
 40
0
 40
0
 40
0
 40
1
 40
1
 40
1
 40
1
 10
0.803474
 20
9.468347
 30
0.0
 10
0.831364
 20
9.478768
 30
0.0
 10
0.860745
 20
9.483978
 30
0.0
 10
0.891617
 20
9.483978
 30
0.0
  0
SPLINE
  5
23f
100
AcDbEntity
  8
Capa_1
 62
7
100
AcDbSpline
 70
8
 71
3
 72
8
 73
4
 74
0
 40
0
 40
0
 40
0
 40
0
 40
1
 40
1
 40
1
 40
1
 10
0.891617
 20
9.483978
 30
0.0
 10
0.930366
 20
9.483978
 30
0.0
 10
0.961343
 20
9.475090
 30
0.0
 10
0.984549
 20
9.457314
 30
0.0
  0
SPLINE
  5
240
100
AcDbEntity
  8
Capa_1
 62
7
100
AcDbSpline
 70
8
 71
3
 72
8
 73
4
 74
0
 40
0
 40
0
 40
0
 40
0
 40
1
 40
1
 40
1
 40
1
 10
0.984549
 20
9.457314
 30
0.0
 10
1.007543
 20
9.439538
 30
0.0
 10
1.019040
 20
9.416995
 30
0.0
 10
1.019040
 20
9.389684
 30
0.0
  0
SPLINE
  5
241
100
AcDbEntity
  8
Capa_1
 62
7
100
AcDbSpline
 70
8
 71
3
 72
8
 73
4
 74
0
 40
0
 40
0
 40
0
 40
0
 40
1
 40
1
 40
1
 40
1
 10
1.019040
 20
9.389684
 30
0.0
 10
1.019040
 20
9.375041
 30
0.0
 10
1.014888
 20
9.362169
 30
0.0
 10
1.006585
 20
9.351067
 30
0.0
  0
SPLINE
  5
242
100
AcDbEntity
  8
Capa_1
 62
7
100
AcDbSpline
 70
8
 71
3
 72
8
 73
4
 74
0
 40
0
 40
0
 40
0
 40
0
 40
1
 40
1
 40
1
 40
1
 10
1.006585
 20
9.351067
 30
0.0
 10
0.998281
 20
9.339966
 30
0.0
 10
0.983485
 20
9.331622
 30
0.0
 10
0.962195
 20
9.326038
 30
0.0
  0
SPLINE
  5
243
100
AcDbEntity
  8
Capa_1
 62
7
100
AcDbSpline
 70
8
 71
3
 72
8
 73
4
 74
0
 40
0
 40
0
 40
0
 40
0
 40
1
 40
1
 40
1
 40
1
 10
0.962195
 20
9.326038
 30
0.0
 10
0.948569
 20
9.322632
 30
0.0
 10
0.930472
 20
9.318512
 30
0.0
 10
0.907904
 20
9.313676
 30
0.0
  0
SPLINE
  5
244
100
AcDbEntity
  8
Capa_1
 62
7
100
AcDbSpline
 70
8
 71
3
 72
8
 73
4
 74
0
 40
0
 40
0
 40
0
 40
0
 40
1
 40
1
 40
1
 40
1
 10
0.907904
 20
9.313676
 30
0.0
 10
0.885336
 20
9.308909
 30
0.0
 10
0.866388
 20
9.304448
 30
0.0
 10
0.851058
 20
9.300293
 30
0.0
  0
SPLINE
  5
245
100
AcDbEntity
  8
Capa_1
 62
7
100
AcDbSpline
 70
8
 71
3
 72
8
 73
4
 74
0
 40
0
 40
0
 40
0
 40
0
 40
1
 40
1
 40
1
 40
1
 10
0.851058
 20
9.300293
 30
0.0
 10
0.820826
 20
9.291644
 30
0.0
 10
0.797939
 20
9.278771
 30
0.0
 10
0.782397
 20
9.261677
 30
0.0
  0
SPLINE
  5
246
100
AcDbEntity
  8
Capa_1
 62
7
100
AcDbSpline
 70
8
 71
3
 72
8
 73
4
 74
0
 40
0
 40
0
 40
0
 40
0
 40
1
 40
1
 40
1
 40
1
 10
0.782397
 20
9.261677
 30
0.0
 10
0.766642
 20
9.244582
 30
0.0
 10
0.758764
 20
9.223026
 30
0.0
 10
0.758764
 20
9.197009
 30
0.0
  0
SPLINE
  5
247
100
AcDbEntity
  8
Capa_1
 62
7
100
AcDbSpline
 70
8
 71
3
 72
8
 73
4
 74
0
 40
0
 40
0
 40
0
 40
0
 40
1
 40
1
 40
1
 40
1
 10
0.758764
 20
9.197009
 30
0.0
 10
0.758764
 20
9.175215
 30
0.0
 10
0.763874
 20
9.153556
 30
0.0
 10
0.774093
 20
9.132035
 30
0.0
  0
SPLINE
  5
248
100
AcDbEntity
  8
Capa_1
 62
7
100
AcDbSpline
 70
8
 71
3
 72
8
 73
4
 74
0
 40
0
 40
0
 40
0
 40
0
 40
1
 40
1
 40
1
 40
1
 10
0.774093
 20
9.132035
 30
0.0
 10
0.784312
 20
9.110445
 30
0.0
 10
0.798577
 20
9.091988
 30
0.0
 10
0.816886
 20
9.076664
 30
0.0
  0
SPLINE
  5
249
100
AcDbEntity
  8
Capa_1
 62
7
100
AcDbSpline
 70
8
 71
3
 72
8
 73
4
 74
0
 40
0
 40
0
 40
0
 40
0
 40
1
 40
1
 40
1
 40
1
 10
0.816886
 20
9.076664
 30
0.0
 10
0.836474
 20
9.060250
 30
0.0
 10
0.859467
 20
9.047378
 30
0.0
 10
0.885867
 20
9.038047
 30
0.0
  0
SPLINE
  5
24a
100
AcDbEntity
  8
Capa_1
 62
7
100
AcDbSpline
 70
8
 71
3
 72
8
 73
4
 74
0
 40
0
 40
0
 40
0
 40
0
 40
1
 40
1
 40
1
 40
1
 10
0.885867
 20
9.038047
 30
0.0
 10
0.912054
 20
9.028716
 30
0.0
 10
0.943031
 20
9.024051
 30
0.0
 10
0.978799
 20
9.024051
 30
0.0
  0
LWPOLYLINE
  5
24b
100
AcDbEntity
  8
Capa_1
 62
7
100
AcDbPolyline
 90
3
 70
0
 10
0.719800
 20
9.502060
 30
0.0
 10
0.734172
 20
9.431059
 30
0.0
 10
0.738645
 20
9.431059
 30
0.0
  0
LWPOLYLINE
  5
24c
100
AcDbEntity
  8
Capa_1
 62
7
100
AcDbPolyline
 90
2
 70
0
 10
0.978799
 20
9.024051
 30
0.0
 10
0.978798
 20
9.023949
 30
0.0
  0
LWPOLYLINE
  5
24d
100
AcDbEntity
  8
Capa_1
 62
7
100
AcDbPolyline
 90
12
 70
1
 10
0.527868
 20
9.032949
 30
0.0
 10
0.716288
 20
9.032949
 30
0.0
 10
0.705749
 20
9.081271
 30
0.0
 10
0.643475
 20
9.081271
 30
0.0
 10
0.554694
 20
9.480903
 30
0.0
 10
0.616969
 20
9.480903
 30
0.0
 10
0.606430
 20
9.529225
 30
0.0
 10
0.418010
 20
9.529225
 30
0.0
 10
0.428549
 20
9.480903
 30
0.0
 10
0.490823
 20
9.480903
 30
0.0
 10
0.579604
 20
9.081271
 30
0.0
 10
0.517329
 20
9.081271
 30
0.0
  0
LWPOLYLINE
  5
24e
100
AcDbEntity
  8
Capa_1
 62
7
100
AcDbPolyline
 90
13
 70
1
 10
1.785810
 20
7.326427
 30
0.0
 10
1.849681
 20
7.326427
 30
0.0
 10
1.755791
 20
7.748054
 30
0.0
 10
1.949001
 20
7.463087
 30
0.0
 10
1.986685
 20
7.463087
 30
0.0
 10
2.053750
 20
7.761059
 30
0.0
 10
2.150195
 20
7.326427
 30
0.0
 10
2.209915
 20
7.326427
 30
0.0
 10
2.100056
 20
7.822723
 30
0.0
 10
2.013192
 20
7.822723
 30
0.0
 10
1.949001
 20
7.546410
 30
0.0
 10
1.763775
 20
7.822723
 30
0.0
 10
1.675952
 20
7.822723
 30
0.0
  0
SPLINE
  5
24f
100
AcDbEntity
  8
Capa_1
 62
7
100
AcDbSpline
 70
8
 71
3
 72
8
 73
4
 74
0
 40
0
 40
0
 40
0
 40
0
 40
1
 40
1
 40
1
 40
1
 10
1.217676
 20
7.317427
 30
0.0
 10
1.248547
 20
7.317427
 30
0.0
 10
1.277928
 20
7.320832
 30
0.0
 10
1.305819
 20
7.327643
 30
0.0
  0
SPLINE
  5
250
100
AcDbEntity
  8
Capa_1
 62
7
100
AcDbSpline
 70
8
 71
3
 72
8
 73
4
 74
0
 40
0
 40
0
 40
0
 40
0
 40
1
 40
1
 40
1
 40
1
 10
1.305819
 20
7.327643
 30
0.0
 10
1.333710
 20
7.334522
 30
0.0
 10
1.361068
 20
7.344976
 30
0.0
 10
1.387894
 20
7.359006
 30
0.0
  0
LWPOLYLINE
  5
251
100
AcDbEntity
  8
Capa_1
 62
7
100
AcDbPolyline
 90
12
 70
1
 10
1.489767
 20
7.326427
 30
0.0
 10
1.678187
 20
7.326427
 30
0.0
 10
1.667649
 20
7.374749
 30
0.0
 10
1.605374
 20
7.374749
 30
0.0
 10
1.516594
 20
7.774381
 30
0.0
 10
1.578868
 20
7.774381
 30
0.0
 10
1.568329
 20
7.822703
 30
0.0
 10
1.379909
 20
7.822703
 30
0.0
 10
1.390448
 20
7.774381
 30
0.0
 10
1.452723
 20
7.774381
 30
0.0
 10
1.541503
 20
7.374749
 30
0.0
 10
1.479229
 20
7.374749
 30
0.0
  0
SPLINE
  5
252
100
AcDbEntity
  8
Capa_1
 62
7
100
AcDbSpline
 70
8
 71
3
 72
8
 73
4
 74
0
 40
0
 40
0
 40
0
 40
0
 40
1
 40
1
 40
1
 40
1
 10
1.368091
 20
7.434707
 30
0.0
 10
1.347653
 20
7.414479
 30
0.0
 10
1.322637
 20
7.398917
 30
0.0
 10
1.293043
 20
7.388020
 30
0.0
  0
SPLINE
  5
253
100
AcDbEntity
  8
Capa_1
 62
7
100
AcDbSpline
 70
8
 71
3
 72
8
 73
4
 74
0
 40
0
 40
0
 40
0
 40
0
 40
1
 40
1
 40
1
 40
1
 10
1.293043
 20
7.388020
 30
0.0
 10
1.263236
 20
7.377327
 30
0.0
 10
1.234494
 20
7.371981
 30
0.0
 10
1.206817
 20
7.371981
 30
0.0
  0
SPLINE
  5
254
100
AcDbEntity
  8
Capa_1
 62
7
100
AcDbSpline
 70
8
 71
3
 72
8
 73
4
 74
0
 40
0
 40
0
 40
0
 40
0
 40
1
 40
1
 40
1
 40
1
 10
1.206817
 20
7.371981
 30
0.0
 10
1.161469
 20
7.371981
 30
0.0
 10
1.126765
 20
7.381311
 30
0.0
 10
1.102707
 20
7.399973
 30
0.0
  0
SPLINE
  5
255
100
AcDbEntity
  8
Capa_1
 62
7
100
AcDbSpline
 70
8
 71
3
 72
8
 73
4
 74
0
 40
0
 40
0
 40
0
 40
0
 40
1
 40
1
 40
1
 40
1
 10
1.102707
 20
7.399973
 30
0.0
 10
1.078436
 20
7.418838
 30
0.0
 10
1.066301
 20
7.442846
 30
0.0
 10
1.066301
 20
7.471996
 30
0.0
  0
SPLINE
  5
256
100
AcDbEntity
  8
Capa_1
 62
7
100
AcDbSpline
 70
8
 71
3
 72
8
 73
4
 74
0
 40
0
 40
0
 40
0
 40
0
 40
1
 40
1
 40
1
 40
1
 10
1.066301
 20
7.471996
 30
0.0
 10
1.066301
 20
7.487320
 30
0.0
 10
1.070665
 20
7.500090
 30
0.0
 10
1.079395
 20
7.510306
 30
0.0
  0
SPLINE
  5
257
100
AcDbEntity
  8
Capa_1
 62
7
100
AcDbSpline
 70
8
 71
3
 72
8
 73
4
 74
0
 40
0
 40
0
 40
0
 40
0
 40
1
 40
1
 40
1
 40
1
 10
1.079395
 20
7.510306
 30
0.0
 10
1.087911
 20
7.520522
 30
0.0
 10
1.100472
 20
7.528082
 30
0.0
 10
1.117078
 20
7.532986
 30
0.0
  0
SPLINE
  5
258
100
AcDbEntity
  8
Capa_1
 62
7
100
AcDbSpline
 70
8
 71
3
 72
8
 73
4
 74
0
 40
0
 40
0
 40
0
 40
0
 40
1
 40
1
 40
1
 40
1
 10
1.117078
 20
7.532986
 30
0.0
 10
1.130917
 20
7.537072
 30
0.0
 10
1.147418
 20
7.540852
 30
0.0
 10
1.166579
 20
7.544326
 30
0.0
  0
SPLINE
  5
259
100
AcDbEntity
  8
Capa_1
 62
7
100
AcDbSpline
 70
8
 71
3
 72
8
 73
4
 74
0
 40
0
 40
0
 40
0
 40
0
 40
1
 40
1
 40
1
 40
1
 10
1.166579
 20
7.544326
 30
0.0
 10
1.185528
 20
7.548412
 30
0.0
 10
1.203624
 20
7.552396
 30
0.0
 10
1.220870
 20
7.556278
 30
0.0
  0
SPLINE
  5
25a
100
AcDbEntity
  8
Capa_1
 62
7
100
AcDbSpline
 70
8
 71
3
 72
8
 73
4
 74
0
 40
0
 40
0
 40
0
 40
0
 40
1
 40
1
 40
1
 40
1
 10
1.220870
 20
7.556278
 30
0.0
 10
1.254296
 20
7.564043
 30
0.0
 10
1.280163
 20
7.577357
 30
0.0
 10
1.298473
 20
7.596223
 30
0.0
  0
SPLINE
  5
25b
100
AcDbEntity
  8
Capa_1
 62
7
100
AcDbSpline
 70
8
 71
3
 72
8
 73
4
 74
0
 40
0
 40
0
 40
0
 40
0
 40
1
 40
1
 40
1
 40
1
 10
1.298473
 20
7.596223
 30
0.0
 10
1.316783
 20
7.615089
 30
0.0
 10
1.325938
 20
7.638518
 30
0.0
 10
1.325938
 20
7.666510
 30
0.0
  0
SPLINE
  5
25c
100
AcDbEntity
  8
Capa_1
 62
7
100
AcDbSpline
 70
8
 71
3
 72
8
 73
4
 74
0
 40
0
 40
0
 40
0
 40
0
 40
1
 40
1
 40
1
 40
1
 10
1.325938
 20
7.666510
 30
0.0
 10
1.325938
 20
7.713844
 30
0.0
 10
1.306776
 20
7.753176
 30
0.0
 10
1.268454
 20
7.784505
 30
0.0
  0
SPLINE
  5
25d
100
AcDbEntity
  8
Capa_1
 62
7
100
AcDbSpline
 70
8
 71
3
 72
8
 73
4
 74
0
 40
0
 40
0
 40
0
 40
0
 40
1
 40
1
 40
1
 40
1
 10
1.268454
 20
7.784505
 30
0.0
 10
1.229918
 20
7.816039
 30
0.0
 10
1.180205
 20
7.831806
 30
0.0
 10
1.119315
 20
7.831806
 30
0.0
  0
SPLINE
  5
25e
100
AcDbEntity
  8
Capa_1
 62
7
100
AcDbSpline
 70
8
 71
3
 72
8
 73
4
 74
0
 40
0
 40
0
 40
0
 40
0
 40
1
 40
1
 40
1
 40
1
 10
1.119315
 20
7.831806
 30
0.0
 10
1.086102
 20
7.831806
 30
0.0
 10
1.055976
 20
7.828128
 30
0.0
 10
1.028937
 20
7.820772
 30
0.0
  0
SPLINE
  5
25f
100
AcDbEntity
  8
Capa_1
 62
7
100
AcDbSpline
 70
8
 71
3
 72
8
 73
4
 74
0
 40
0
 40
0
 40
0
 40
0
 40
1
 40
1
 40
1
 40
1
 10
1.028937
 20
7.820772
 30
0.0
 10
1.001686
 20
7.813689
 30
0.0
 10
0.978266
 20
7.805244
 30
0.0
 10
0.958679
 20
7.795436
 30
0.0
  0
LWPOLYLINE
  5
260
100
AcDbEntity
  8
Capa_1
 62
7
100
AcDbPolyline
 90
3
 70
0
 10
1.387894
 20
7.359006
 30
0.0
 10
1.372565
 20
7.434707
 30
0.0
 10
1.368091
 20
7.434707
 30
0.0
  0
SPLINE
  5
261
100
AcDbEntity
  8
Capa_1
 62
7
100
AcDbSpline
 70
8
 71
3
 72
8
 73
4
 74
0
 40
0
 40
0
 40
0
 40
0
 40
1
 40
1
 40
1
 40
1
 10
0.977524
 20
7.724435
 30
0.0
 10
0.992640
 20
7.738873
 30
0.0
 10
1.014250
 20
7.751303
 30
0.0
 10
1.042353
 20
7.761723
 30
0.0
  0
SPLINE
  5
262
100
AcDbEntity
  8
Capa_1
 62
7
100
AcDbSpline
 70
8
 71
3
 72
8
 73
4
 74
0
 40
0
 40
0
 40
0
 40
0
 40
1
 40
1
 40
1
 40
1
 10
1.042353
 20
7.761723
 30
0.0
 10
1.070244
 20
7.772144
 30
0.0
 10
1.099625
 20
7.777354
 30
0.0
 10
1.130496
 20
7.777354
 30
0.0
  0
SPLINE
  5
263
100
AcDbEntity
  8
Capa_1
 62
7
100
AcDbSpline
 70
8
 71
3
 72
8
 73
4
 74
0
 40
0
 40
0
 40
0
 40
0
 40
1
 40
1
 40
1
 40
1
 10
1.130496
 20
7.777354
 30
0.0
 10
1.169245
 20
7.777354
 30
0.0
 10
1.200223
 20
7.768466
 30
0.0
 10
1.223429
 20
7.750690
 30
0.0
  0
SPLINE
  5
264
100
AcDbEntity
  8
Capa_1
 62
7
100
AcDbSpline
 70
8
 71
3
 72
8
 73
4
 74
0
 40
0
 40
0
 40
0
 40
0
 40
1
 40
1
 40
1
 40
1
 10
1.223429
 20
7.750690
 30
0.0
 10
1.246423
 20
7.732914
 30
0.0
 10
1.257920
 20
7.710371
 30
0.0
 10
1.257920
 20
7.683060
 30
0.0
  0
SPLINE
  5
265
100
AcDbEntity
  8
Capa_1
 62
7
100
AcDbSpline
 70
8
 71
3
 72
8
 73
4
 74
0
 40
0
 40
0
 40
0
 40
0
 40
1
 40
1
 40
1
 40
1
 10
1.257920
 20
7.683060
 30
0.0
 10
1.257920
 20
7.668417
 30
0.0
 10
1.253768
 20
7.655544
 30
0.0
 10
1.245465
 20
7.644443
 30
0.0
  0
SPLINE
  5
266
100
AcDbEntity
  8
Capa_1
 62
7
100
AcDbSpline
 70
8
 71
3
 72
8
 73
4
 74
0
 40
0
 40
0
 40
0
 40
0
 40
1
 40
1
 40
1
 40
1
 10
1.245465
 20
7.644443
 30
0.0
 10
1.237162
 20
7.633341
 30
0.0
 10
1.222365
 20
7.624998
 30
0.0
 10
1.201074
 20
7.619414
 30
0.0
  0
SPLINE
  5
267
100
AcDbEntity
  8
Capa_1
 62
7
100
AcDbSpline
 70
8
 71
3
 72
8
 73
4
 74
0
 40
0
 40
0
 40
0
 40
0
 40
1
 40
1
 40
1
 40
1
 10
1.201074
 20
7.619414
 30
0.0
 10
1.187449
 20
7.616008
 30
0.0
 10
1.169352
 20
7.611888
 30
0.0
 10
1.146784
 20
7.607052
 30
0.0
  0
SPLINE
  5
268
100
AcDbEntity
  8
Capa_1
 62
7
100
AcDbSpline
 70
8
 71
3
 72
8
 73
4
 74
0
 40
0
 40
0
 40
0
 40
0
 40
1
 40
1
 40
1
 40
1
 10
1.146784
 20
7.607052
 30
0.0
 10
1.124216
 20
7.602285
 30
0.0
 10
1.105268
 20
7.597824
 30
0.0
 10
1.089938
 20
7.593669
 30
0.0
  0
SPLINE
  5
269
100
AcDbEntity
  8
Capa_1
 62
7
100
AcDbSpline
 70
8
 71
3
 72
8
 73
4
 74
0
 40
0
 40
0
 40
0
 40
0
 40
1
 40
1
 40
1
 40
1
 10
1.089938
 20
7.593669
 30
0.0
 10
1.059706
 20
7.585019
 30
0.0
 10
1.036819
 20
7.572147
 30
0.0
 10
1.021277
 20
7.555052
 30
0.0
  0
SPLINE
  5
26a
100
AcDbEntity
  8
Capa_1
 62
7
100
AcDbSpline
 70
8
 71
3
 72
8
 73
4
 74
0
 40
0
 40
0
 40
0
 40
0
 40
1
 40
1
 40
1
 40
1
 10
1.021277
 20
7.555052
 30
0.0
 10
1.005522
 20
7.537957
 30
0.0
 10
0.997644
 20
7.516402
 30
0.0
 10
0.997644
 20
7.490385
 30
0.0
  0
SPLINE
  5
26b
100
AcDbEntity
  8
Capa_1
 62
7
100
AcDbSpline
 70
8
 71
3
 72
8
 73
4
 74
0
 40
0
 40
0
 40
0
 40
0
 40
1
 40
1
 40
1
 40
1
 10
0.997644
 20
7.490385
 30
0.0
 10
0.997644
 20
7.468590
 30
0.0
 10
1.002754
 20
7.446932
 30
0.0
 10
1.012973
 20
7.425411
 30
0.0
  0
SPLINE
  5
26c
100
AcDbEntity
  8
Capa_1
 62
7
100
AcDbSpline
 70
8
 71
3
 72
8
 73
4
 74
0
 40
0
 40
0
 40
0
 40
0
 40
1
 40
1
 40
1
 40
1
 10
1.012973
 20
7.425411
 30
0.0
 10
1.023192
 20
7.403821
 30
0.0
 10
1.037457
 20
7.385364
 30
0.0
 10
1.055767
 20
7.370039
 30
0.0
  0
SPLINE
  5
26d
100
AcDbEntity
  8
Capa_1
 62
7
100
AcDbSpline
 70
8
 71
3
 72
8
 73
4
 74
0
 40
0
 40
0
 40
0
 40
0
 40
1
 40
1
 40
1
 40
1
 10
1.055767
 20
7.370039
 30
0.0
 10
1.075354
 20
7.353626
 30
0.0
 10
1.098348
 20
7.340719
 30
0.0
 10
1.124747
 20
7.331321
 30
0.0
  0
SPLINE
  5
26e
100
AcDbEntity
  8
Capa_1
 62
7
100
AcDbSpline
 70
8
 71
3
 72
8
 73
4
 74
0
 40
0
 40
0
 40
0
 40
0
 40
1
 40
1
 40
1
 40
1
 10
1.124747
 20
7.331321
 30
0.0
 10
1.150935
 20
7.321990
 30
0.0
 10
1.181912
 20
7.317325
 30
0.0
 10
1.217680
 20
7.317325
 30
0.0
  0
LWPOLYLINE
  5
26f
100
AcDbEntity
  8
Capa_1
 62
7
100
AcDbPolyline
 90
3
 70
0
 10
0.958679
 20
7.795436
 30
0.0
 10
0.973051
 20
7.724435
 30
0.0
 10
0.977524
 20
7.724435
 30
0.0
  0
SPLINE
  5
270
100
AcDbEntity
  8
Capa_1
 62
7
100
AcDbSpline
 70
8
 71
3
 72
8
 73
4
 74
0
 40
0
 40
0
 40
0
 40
0
 40
1
 40
1
 40
1
 40
1
 10
0.458248
 20
7.647068
 30
0.0
 10
0.458248
 20
7.603957
 30
0.0
 10
0.464529
 20
7.562405
 30
0.0
 10
0.477090
 20
7.522412
 30
0.0
  0
SPLINE
  5
271
100
AcDbEntity
  8
Capa_1
 62
7
100
AcDbSpline
 70
8
 71
3
 72
8
 73
4
 74
0
 40
0
 40
0
 40
0
 40
0
 40
1
 40
1
 40
1
 40
1
 10
0.477090
 20
7.522412
 30
0.0
 10
0.489439
 20
7.482433
 30
0.0
 10
0.507429
 20
7.447215
 30
0.0
 10
0.531061
 20
7.416758
 30
0.0
  0
SPLINE
  5
272
100
AcDbEntity
  8
Capa_1
 62
7
100
AcDbSpline
 70
8
 71
3
 72
8
 73
4
 74
0
 40
0
 40
0
 40
0
 40
0
 40
1
 40
1
 40
1
 40
1
 10
0.531061
 20
7.416758
 30
0.0
 10
0.555332
 20
7.385428
 30
0.0
 10
0.584500
 20
7.360773
 30
0.0
 10
0.618564
 20
7.342793
 30
0.0
  0
SPLINE
  5
273
100
AcDbEntity
  8
Capa_1
 62
7
100
AcDbSpline
 70
8
 71
3
 72
8
 73
4
 74
0
 40
0
 40
0
 40
0
 40
0
 40
1
 40
1
 40
1
 40
1
 10
0.618564
 20
7.342793
 30
0.0
 10
0.652629
 20
7.325017
 30
0.0
 10
0.691058
 20
7.316129
 30
0.0
 10
0.733852
 20
7.316129
 30
0.0
  0
SPLINE
  5
274
100
AcDbEntity
  8
Capa_1
 62
7
100
AcDbSpline
 70
8
 71
3
 72
8
 73
4
 74
0
 40
0
 40
0
 40
0
 40
0
 40
1
 40
1
 40
1
 40
1
 10
0.733852
 20
7.316129
 30
0.0
 10
0.790484
 20
7.316129
 30
0.0
 10
0.834768
 20
7.332237
 30
0.0
 10
0.866704
 20
7.364451
 30
0.0
  0
SPLINE
  5
275
100
AcDbEntity
  8
Capa_1
 62
7
100
AcDbSpline
 70
8
 71
3
 72
8
 73
4
 74
0
 40
0
 40
0
 40
0
 40
0
 40
1
 40
1
 40
1
 40
1
 10
0.866704
 20
7.364451
 30
0.0
 10
0.898639
 20
7.396870
 30
0.0
 10
0.914607
 20
7.442866
 30
0.0
 10
0.914607
 20
7.502440
 30
0.0
  0
SPLINE
  5
276
100
AcDbEntity
  8
Capa_1
 62
7
100
AcDbSpline
 70
8
 71
3
 72
8
 73
4
 74
0
 40
0
 40
0
 40
0
 40
0
 40
1
 40
1
 40
1
 40
1
 10
0.914607
 20
7.502440
 30
0.0
 10
0.914607
 20
7.547799
 30
0.0
 10
0.908220
 20
7.590131
 30
0.0
 10
0.895446
 20
7.629436
 30
0.0
  0
SPLINE
  5
277
100
AcDbEntity
  8
Capa_1
 62
7
100
AcDbSpline
 70
8
 71
3
 72
8
 73
4
 74
0
 40
0
 40
0
 40
0
 40
0
 40
1
 40
1
 40
1
 40
1
 10
0.895446
 20
7.629436
 30
0.0
 10
0.882672
 20
7.668733
 30
0.0
 10
0.864256
 20
7.703839
 30
0.0
 10
0.840198
 20
7.734753
 30
0.0
  0
SPLINE
  5
278
100
AcDbEntity
  8
Capa_1
 62
7
100
AcDbSpline
 70
8
 71
3
 72
8
 73
4
 74
0
 40
0
 40
0
 40
0
 40
0
 40
1
 40
1
 40
1
 40
1
 10
0.840198
 20
7.734753
 30
0.0
 10
0.816778
 20
7.764516
 30
0.0
 10
0.787823
 20
7.788285
 30
0.0
 10
0.753332
 20
7.806061
 30
0.0
  0
SPLINE
  5
279
100
AcDbEntity
  8
Capa_1
 62
7
100
AcDbSpline
 70
8
 71
3
 72
8
 73
4
 74
0
 40
0
 40
0
 40
0
 40
0
 40
1
 40
1
 40
1
 40
1
 10
0.753332
 20
7.806061
 30
0.0
 10
0.718629
 20
7.824041
 30
0.0
 10
0.680626
 20
7.833031
 30
0.0
 10
0.639322
 20
7.833031
 30
0.0
  0
SPLINE
  5
27a
100
AcDbEntity
  8
Capa_1
 62
7
100
AcDbSpline
 70
8
 71
3
 72
8
 73
4
 74
0
 40
0
 40
0
 40
0
 40
0
 40
1
 40
1
 40
1
 40
1
 10
0.639322
 20
7.833031
 30
0.0
 10
0.582903
 20
7.833031
 30
0.0
 10
0.538619
 20
7.816924
 30
0.0
 10
0.506470
 20
7.784709
 30
0.0
  0
SPLINE
  5
27b
100
AcDbEntity
  8
Capa_1
 62
7
100
AcDbSpline
 70
8
 71
3
 72
8
 73
4
 74
0
 40
0
 40
0
 40
0
 40
0
 40
1
 40
1
 40
1
 40
1
 10
0.506470
 20
7.784709
 30
0.0
 10
0.474322
 20
7.752699
 30
0.0
 10
0.458247
 20
7.706815
 30
0.0
 10
0.458247
 20
7.647058
 30
0.0
  0
LWPOLYLINE
  5
27c
100
AcDbEntity
  8
Capa_1
 62
7
100
AcDbPolyline
 90
2
 70
0
 10
1.217680
 20
7.317325
 30
0.0
 10
1.217676
 20
7.317427
 30
0.0
  0
SPLINE
  5
27d
100
AcDbEntity
  8
Capa_1
 62
7
100
AcDbSpline
 70
8
 71
3
 72
8
 73
4
 74
0
 40
0
 40
0
 40
0
 40
0
 40
1
 40
1
 40
1
 40
1
 10
0.579284
 20
7.449755
 30
0.0
 10
0.561400
 20
7.475091
 30
0.0
 10
0.547881
 20
7.503322
 30
0.0
 10
0.538725
 20
7.534447
 30
0.0
  0
SPLINE
  5
27e
100
AcDbEntity
  8
Capa_1
 62
7
100
AcDbSpline
 70
8
 71
3
 72
8
 73
4
 74
0
 40
0
 40
0
 40
0
 40
0
 40
1
 40
1
 40
1
 40
1
 10
0.538725
 20
7.534447
 30
0.0
 10
0.529571
 20
7.565776
 30
0.0
 10
0.524993
 20
7.600218
 30
0.0
 10
0.524993
 20
7.637772
 30
0.0
  0
SPLINE
  5
27f
100
AcDbEntity
  8
Capa_1
 62
7
100
AcDbSpline
 70
8
 71
3
 72
8
 73
4
 74
0
 40
0
 40
0
 40
0
 40
0
 40
1
 40
1
 40
1
 40
1
 10
0.524993
 20
7.637772
 30
0.0
 10
0.524993
 20
7.683131
 30
0.0
 10
0.535958
 20
7.717907
 30
0.0
 10
0.557886
 20
7.742098
 30
0.0
  0
SPLINE
  5
280
100
AcDbEntity
  8
Capa_1
 62
7
100
AcDbSpline
 70
8
 71
3
 72
8
 73
4
 74
0
 40
0
 40
0
 40
0
 40
0
 40
1
 40
1
 40
1
 40
1
 10
0.557886
 20
7.742098
 30
0.0
 10
0.579602
 20
7.766549
 30
0.0
 10
0.610048
 20
7.778774
 30
0.0
 10
0.649222
 20
7.778774
 30
0.0
  0
SPLINE
  5
281
100
AcDbEntity
  8
Capa_1
 62
7
100
AcDbSpline
 70
8
 71
3
 72
8
 73
4
 74
0
 40
0
 40
0
 40
0
 40
0
 40
1
 40
1
 40
1
 40
1
 10
0.649222
 20
7.778774
 30
0.0
 10
0.679667
 20
7.778774
 30
0.0
 10
0.707132
 20
7.771452
 30
0.0
 10
0.731616
 20
7.756809
 30
0.0
  0
SPLINE
  5
282
100
AcDbEntity
  8
Capa_1
 62
7
100
AcDbSpline
 70
8
 71
3
 72
8
 73
4
 74
0
 40
0
 40
0
 40
0
 40
0
 40
1
 40
1
 40
1
 40
1
 10
0.731616
 20
7.756809
 30
0.0
 10
0.756099
 20
7.742371
 30
0.0
 10
0.777177
 20
7.722722
 30
0.0
 10
0.794848
 20
7.697863
 30
0.0
  0
SPLINE
  5
283
100
AcDbEntity
  8
Capa_1
 62
7
100
AcDbSpline
 70
8
 71
3
 72
8
 73
4
 74
0
 40
0
 40
0
 40
0
 40
0
 40
1
 40
1
 40
1
 40
1
 10
0.794848
 20
7.697863
 30
0.0
 10
0.811880
 20
7.673412
 30
0.0
 10
0.824974
 20
7.644978
 30
0.0
 10
0.834129
 20
7.612559
 30
0.0
  0
SPLINE
  5
284
100
AcDbEntity
  8
Capa_1
 62
7
100
AcDbSpline
 70
8
 71
3
 72
8
 73
4
 74
0
 40
0
 40
0
 40
0
 40
0
 40
1
 40
1
 40
1
 40
1
 10
0.834129
 20
7.612559
 30
0.0
 10
0.843284
 20
7.580344
 30
0.0
 10
0.847861
 20
7.547108
 30
0.0
 10
0.847861
 20
7.512850
 30
0.0
  0
SPLINE
  5
285
100
AcDbEntity
  8
Capa_1
 62
7
100
AcDbSpline
 70
8
 71
3
 72
8
 73
4
 74
0
 40
0
 40
0
 40
0
 40
0
 40
1
 40
1
 40
1
 40
1
 10
0.847861
 20
7.512850
 30
0.0
 10
0.847861
 20
7.467082
 30
0.0
 10
0.837003
 20
7.431860
 30
0.0
 10
0.815287
 20
7.407185
 30
0.0
  0
SPLINE
  5
286
100
AcDbEntity
  8
Capa_1
 62
7
100
AcDbSpline
 70
8
 71
3
 72
8
 73
4
 74
0
 40
0
 40
0
 40
0
 40
0
 40
1
 40
1
 40
1
 40
1
 10
0.815287
 20
7.407185
 30
0.0
 10
0.793358
 20
7.382735
 30
0.0
 10
0.762700
 20
7.370509
 30
0.0
 10
0.723312
 20
7.370509
 30
0.0
  0
SPLINE
  5
287
100
AcDbEntity
  8
Capa_1
 62
7
100
AcDbSpline
 70
8
 71
3
 72
8
 73
4
 74
0
 40
0
 40
0
 40
0
 40
0
 40
1
 40
1
 40
1
 40
1
 10
0.723312
 20
7.370509
 30
0.0
 10
0.693293
 20
7.370509
 30
0.0
 10
0.666041
 20
7.377729
 30
0.0
 10
0.641557
 20
7.392167
 30
0.0
  0
SPLINE
  5
288
100
AcDbEntity
  8
Capa_1
 62
7
100
AcDbSpline
 70
8
 71
3
 72
8
 73
4
 74
0
 40
0
 40
0
 40
0
 40
0
 40
1
 40
1
 40
1
 40
1
 10
0.641557
 20
7.392167
 30
0.0
 10
0.616860
 20
7.406606
 30
0.0
 10
0.596101
 20
7.425812
 30
0.0
 10
0.579282
 20
7.449786
 30
0.0
  0
LWPOLYLINE
  5
289
100
AcDbEntity
  8
Capa_1
 62
7
100
AcDbPolyline
 90
1
 70
1
 10
0.458247
 20
7.647058
 30
0.0
  0
SPLINE
  5
28a
100
AcDbEntity
  8
Capa_1
 62
7
100
AcDbSpline
 70
8
 71
3
 72
8
 73
4
 74
0
 40
0
 40
0
 40
0
 40
0
 40
1
 40
1
 40
1
 40
1
 10
1.829562
 20
5.610905
 30
0.0
 10
1.860433
 20
5.610905
 30
0.0
 10
1.889814
 20
5.614310
 30
0.0
 10
1.917704
 20
5.621121
 30
0.0
  0
SPLINE
  5
28b
100
AcDbEntity
  8
Capa_1
 62
7
100
AcDbSpline
 70
8
 71
3
 72
8
 73
4
 74
0
 40
0
 40
0
 40
0
 40
0
 40
1
 40
1
 40
1
 40
1
 10
1.917704
 20
5.621121
 30
0.0
 10
1.945595
 20
5.628000
 30
0.0
 10
1.972953
 20
5.638454
 30
0.0
 10
1.999779
 20
5.652484
 30
0.0
  0
LWPOLYLINE
  5
28c
100
AcDbEntity
  8
Capa_1
 62
7
100
AcDbPolyline
 90
1
 70
1
 10
0.579282
 20
7.449786
 30
0.0
  0
SPLINE
  5
28d
100
AcDbEntity
  8
Capa_1
 62
7
100
AcDbSpline
 70
8
 71
3
 72
8
 73
4
 74
0
 40
0
 40
0
 40
0
 40
0
 40
1
 40
1
 40
1
 40
1
 10
1.979978
 20
5.728185
 30
0.0
 10
1.959539
 20
5.707957
 30
0.0
 10
1.934523
 20
5.692395
 30
0.0
 10
1.904930
 20
5.681498
 30
0.0
  0
SPLINE
  5
28e
100
AcDbEntity
  8
Capa_1
 62
7
100
AcDbSpline
 70
8
 71
3
 72
8
 73
4
 74
0
 40
0
 40
0
 40
0
 40
0
 40
1
 40
1
 40
1
 40
1
 10
1.904930
 20
5.681498
 30
0.0
 10
1.875123
 20
5.670805
 30
0.0
 10
1.846381
 20
5.665459
 30
0.0
 10
1.818704
 20
5.665459
 30
0.0
  0
SPLINE
  5
28f
100
AcDbEntity
  8
Capa_1
 62
7
100
AcDbSpline
 70
8
 71
3
 72
8
 73
4
 74
0
 40
0
 40
0
 40
0
 40
0
 40
1
 40
1
 40
1
 40
1
 10
1.818704
 20
5.665459
 30
0.0
 10
1.773355
 20
5.665459
 30
0.0
 10
1.738652
 20
5.674789
 30
0.0
 10
1.714594
 20
5.693451
 30
0.0
  0
SPLINE
  5
290
100
AcDbEntity
  8
Capa_1
 62
7
100
AcDbSpline
 70
8
 71
3
 72
8
 73
4
 74
0
 40
0
 40
0
 40
0
 40
0
 40
1
 40
1
 40
1
 40
1
 10
1.714594
 20
5.693451
 30
0.0
 10
1.690323
 20
5.712316
 30
0.0
 10
1.678187
 20
5.736324
 30
0.0
 10
1.678187
 20
5.765474
 30
0.0
  0
SPLINE
  5
291
100
AcDbEntity
  8
Capa_1
 62
7
100
AcDbSpline
 70
8
 71
3
 72
8
 73
4
 74
0
 40
0
 40
0
 40
0
 40
0
 40
1
 40
1
 40
1
 40
1
 10
1.678187
 20
5.765474
 30
0.0
 10
1.678187
 20
5.780798
 30
0.0
 10
1.682552
 20
5.793568
 30
0.0
 10
1.691281
 20
5.803784
 30
0.0
  0
SPLINE
  5
292
100
AcDbEntity
  8
Capa_1
 62
7
100
AcDbSpline
 70
8
 71
3
 72
8
 73
4
 74
0
 40
0
 40
0
 40
0
 40
0
 40
1
 40
1
 40
1
 40
1
 10
1.691281
 20
5.803784
 30
0.0
 10
1.699797
 20
5.814000
 30
0.0
 10
1.712358
 20
5.821560
 30
0.0
 10
1.728965
 20
5.826464
 30
0.0
  0
SPLINE
  5
293
100
AcDbEntity
  8
Capa_1
 62
7
100
AcDbSpline
 70
8
 71
3
 72
8
 73
4
 74
0
 40
0
 40
0
 40
0
 40
0
 40
1
 40
1
 40
1
 40
1
 10
1.728965
 20
5.826464
 30
0.0
 10
1.742803
 20
5.830550
 30
0.0
 10
1.759303
 20
5.834330
 30
0.0
 10
1.778465
 20
5.837804
 30
0.0
  0
SPLINE
  5
294
100
AcDbEntity
  8
Capa_1
 62
7
100
AcDbSpline
 70
8
 71
3
 72
8
 73
4
 74
0
 40
0
 40
0
 40
0
 40
0
 40
1
 40
1
 40
1
 40
1
 10
1.778465
 20
5.837804
 30
0.0
 10
1.797413
 20
5.841890
 30
0.0
 10
1.815510
 20
5.845874
 30
0.0
 10
1.832755
 20
5.849756
 30
0.0
  0
SPLINE
  5
295
100
AcDbEntity
  8
Capa_1
 62
7
100
AcDbSpline
 70
8
 71
3
 72
8
 73
4
 74
0
 40
0
 40
0
 40
0
 40
0
 40
1
 40
1
 40
1
 40
1
 10
1.832755
 20
5.849756
 30
0.0
 10
1.866181
 20
5.857521
 30
0.0
 10
1.892049
 20
5.870870
 30
0.0
 10
1.910359
 20
5.889803
 30
0.0
  0
SPLINE
  5
296
100
AcDbEntity
  8
Capa_1
 62
7
100
AcDbSpline
 70
8
 71
3
 72
8
 73
4
 74
0
 40
0
 40
0
 40
0
 40
0
 40
1
 40
1
 40
1
 40
1
 10
1.910359
 20
5.889803
 30
0.0
 10
1.928668
 20
5.908669
 30
0.0
 10
1.937823
 20
5.932098
 30
0.0
 10
1.937823
 20
5.960090
 30
0.0
  0
SPLINE
  5
297
100
AcDbEntity
  8
Capa_1
 62
7
100
AcDbSpline
 70
8
 71
3
 72
8
 73
4
 74
0
 40
0
 40
0
 40
0
 40
0
 40
1
 40
1
 40
1
 40
1
 10
1.937823
 20
5.960090
 30
0.0
 10
1.937823
 20
6.007424
 30
0.0
 10
1.918662
 20
6.046756
 30
0.0
 10
1.880339
 20
6.078085
 30
0.0
  0
SPLINE
  5
298
100
AcDbEntity
  8
Capa_1
 62
7
100
AcDbSpline
 70
8
 71
3
 72
8
 73
4
 74
0
 40
0
 40
0
 40
0
 40
0
 40
1
 40
1
 40
1
 40
1
 10
1.880339
 20
6.078085
 30
0.0
 10
1.841804
 20
6.109619
 30
0.0
 10
1.792091
 20
6.125386
 30
0.0
 10
1.731200
 20
6.125386
 30
0.0
  0
SPLINE
  5
299
100
AcDbEntity
  8
Capa_1
 62
7
100
AcDbSpline
 70
8
 71
3
 72
8
 73
4
 74
0
 40
0
 40
0
 40
0
 40
0
 40
1
 40
1
 40
1
 40
1
 10
1.731200
 20
6.125386
 30
0.0
 10
1.697987
 20
6.125386
 30
0.0
 10
1.667861
 20
6.121708
 30
0.0
 10
1.640822
 20
6.114352
 30
0.0
  0
SPLINE
  5
29a
100
AcDbEntity
  8
Capa_1
 62
7
100
AcDbSpline
 70
8
 71
3
 72
8
 73
4
 74
0
 40
0
 40
0
 40
0
 40
0
 40
1
 40
1
 40
1
 40
1
 10
1.640822
 20
6.114352
 30
0.0
 10
1.613570
 20
6.107269
 30
0.0
 10
1.590151
 20
6.098824
 30
0.0
 10
1.570564
 20
6.089017
 30
0.0
  0
LWPOLYLINE
  5
29b
100
AcDbEntity
  8
Capa_1
 62
7
100
AcDbPolyline
 90
3
 70
0
 10
1.999779
 20
5.652484
 30
0.0
 10
1.984450
 20
5.728185
 30
0.0
 10
1.979978
 20
5.728185
 30
0.0
  0
SPLINE
  5
29c
100
AcDbEntity
  8
Capa_1
 62
7
100
AcDbSpline
 70
8
 71
3
 72
8
 73
4
 74
0
 40
0
 40
0
 40
0
 40
0
 40
1
 40
1
 40
1
 40
1
 10
1.589409
 20
6.018015
 30
0.0
 10
1.604525
 20
6.032454
 30
0.0
 10
1.626135
 20
6.044883
 30
0.0
 10
1.654238
 20
6.055304
 30
0.0
  0
SPLINE
  5
29d
100
AcDbEntity
  8
Capa_1
 62
7
100
AcDbSpline
 70
8
 71
3
 72
8
 73
4
 74
0
 40
0
 40
0
 40
0
 40
0
 40
1
 40
1
 40
1
 40
1
 10
1.654238
 20
6.055304
 30
0.0
 10
1.682129
 20
6.065724
 30
0.0
 10
1.711510
 20
6.070934
 30
0.0
 10
1.742381
 20
6.070934
 30
0.0
  0
SPLINE
  5
29e
100
AcDbEntity
  8
Capa_1
 62
7
100
AcDbSpline
 70
8
 71
3
 72
8
 73
4
 74
0
 40
0
 40
0
 40
0
 40
0
 40
1
 40
1
 40
1
 40
1
 10
1.742381
 20
6.070934
 30
0.0
 10
1.781129
 20
6.070934
 30
0.0
 10
1.812107
 20
6.062046
 30
0.0
 10
1.835313
 20
6.044270
 30
0.0
  0
SPLINE
  5
29f
100
AcDbEntity
  8
Capa_1
 62
7
100
AcDbSpline
 70
8
 71
3
 72
8
 73
4
 74
0
 40
0
 40
0
 40
0
 40
0
 40
1
 40
1
 40
1
 40
1
 10
1.835313
 20
6.044270
 30
0.0
 10
1.858307
 20
6.026494
 30
0.0
 10
1.869804
 20
6.003951
 30
0.0
 10
1.869804
 20
5.976640
 30
0.0
  0
SPLINE
  5
2a0
100
AcDbEntity
  8
Capa_1
 62
7
100
AcDbSpline
 70
8
 71
3
 72
8
 73
4
 74
0
 40
0
 40
0
 40
0
 40
0
 40
1
 40
1
 40
1
 40
1
 10
1.869804
 20
5.976640
 30
0.0
 10
1.869804
 20
5.961997
 30
0.0
 10
1.865652
 20
5.949125
 30
0.0
 10
1.857349
 20
5.938023
 30
0.0
  0
SPLINE
  5
2a1
100
AcDbEntity
  8
Capa_1
 62
7
100
AcDbSpline
 70
8
 71
3
 72
8
 73
4
 74
0
 40
0
 40
0
 40
0
 40
0
 40
1
 40
1
 40
1
 40
1
 10
1.857349
 20
5.938023
 30
0.0
 10
1.849045
 20
5.926922
 30
0.0
 10
1.834249
 20
5.918579
 30
0.0
 10
1.812958
 20
5.912994
 30
0.0
  0
SPLINE
  5
2a2
100
AcDbEntity
  8
Capa_1
 62
7
100
AcDbSpline
 70
8
 71
3
 72
8
 73
4
 74
0
 40
0
 40
0
 40
0
 40
0
 40
1
 40
1
 40
1
 40
1
 10
1.812958
 20
5.912994
 30
0.0
 10
1.799332
 20
5.909588
 30
0.0
 10
1.781235
 20
5.905468
 30
0.0
 10
1.758668
 20
5.900632
 30
0.0
  0
SPLINE
  5
2a3
100
AcDbEntity
  8
Capa_1
 62
7
100
AcDbSpline
 70
8
 71
3
 72
8
 73
4
 74
0
 40
0
 40
0
 40
0
 40
0
 40
1
 40
1
 40
1
 40
1
 10
1.758668
 20
5.900632
 30
0.0
 10
1.736100
 20
5.895865
 30
0.0
 10
1.717151
 20
5.891404
 30
0.0
 10
1.701822
 20
5.887249
 30
0.0
  0
SPLINE
  5
2a4
100
AcDbEntity
  8
Capa_1
 62
7
100
AcDbSpline
 70
8
 71
3
 72
8
 73
4
 74
0
 40
0
 40
0
 40
0
 40
0
 40
1
 40
1
 40
1
 40
1
 10
1.701822
 20
5.887249
 30
0.0
 10
1.671590
 20
5.878600
 30
0.0
 10
1.648703
 20
5.865727
 30
0.0
 10
1.633161
 20
5.848633
 30
0.0
  0
SPLINE
  5
2a5
100
AcDbEntity
  8
Capa_1
 62
7
100
AcDbSpline
 70
8
 71
3
 72
8
 73
4
 74
0
 40
0
 40
0
 40
0
 40
0
 40
1
 40
1
 40
1
 40
1
 10
1.633161
 20
5.848633
 30
0.0
 10
1.617406
 20
5.831538
 30
0.0
 10
1.609528
 20
5.809982
 30
0.0
 10
1.609528
 20
5.783965
 30
0.0
  0
SPLINE
  5
2a6
100
AcDbEntity
  8
Capa_1
 62
7
100
AcDbSpline
 70
8
 71
3
 72
8
 73
4
 74
0
 40
0
 40
0
 40
0
 40
0
 40
1
 40
1
 40
1
 40
1
 10
1.609528
 20
5.783965
 30
0.0
 10
1.609528
 20
5.762171
 30
0.0
 10
1.614638
 20
5.740513
 30
0.0
 10
1.624857
 20
5.718991
 30
0.0
  0
SPLINE
  5
2a7
100
AcDbEntity
  8
Capa_1
 62
7
100
AcDbSpline
 70
8
 71
3
 72
8
 73
4
 74
0
 40
0
 40
0
 40
0
 40
0
 40
1
 40
1
 40
1
 40
1
 10
1.624857
 20
5.718991
 30
0.0
 10
1.635076
 20
5.697469
 30
0.0
 10
1.649341
 20
5.679012
 30
0.0
 10
1.667651
 20
5.663620
 30
0.0
  0
SPLINE
  5
2a8
100
AcDbEntity
  8
Capa_1
 62
7
100
AcDbSpline
 70
8
 71
3
 72
8
 73
4
 74
0
 40
0
 40
0
 40
0
 40
0
 40
1
 40
1
 40
1
 40
1
 10
1.667651
 20
5.663620
 30
0.0
 10
1.687238
 20
5.647206
 30
0.0
 10
1.710232
 20
5.634334
 30
0.0
 10
1.736632
 20
5.625003
 30
0.0
  0
SPLINE
  5
2a9
100
AcDbEntity
  8
Capa_1
 62
7
100
AcDbSpline
 70
8
 71
3
 72
8
 73
4
 74
0
 40
0
 40
0
 40
0
 40
0
 40
1
 40
1
 40
1
 40
1
 10
1.736632
 20
5.625003
 30
0.0
 10
1.762819
 20
5.615672
 30
0.0
 10
1.793796
 20
5.611007
 30
0.0
 10
1.829564
 20
5.611007
 30
0.0
  0
LWPOLYLINE
  5
2aa
100
AcDbEntity
  8
Capa_1
 62
7
100
AcDbPolyline
 90
3
 70
0
 10
1.570564
 20
6.089017
 30
0.0
 10
1.584936
 20
6.018015
 30
0.0
 10
1.589409
 20
6.018015
 30
0.0
  0
SPLINE
  5
2ab
100
AcDbEntity
  8
Capa_1
 62
7
100
AcDbSpline
 70
8
 71
3
 72
8
 73
4
 74
0
 40
0
 40
0
 40
0
 40
0
 40
1
 40
1
 40
1
 40
1
 10
1.333602
 20
5.610905
 30
0.0
 10
1.393855
 20
5.610905
 30
0.0
 10
1.441119
 20
5.627114
 30
0.0
 10
1.475396
 20
5.659533
 30
0.0
  0
SPLINE
  5
2ac
100
AcDbEntity
  8
Capa_1
 62
7
100
AcDbSpline
 70
8
 71
3
 72
8
 73
4
 74
0
 40
0
 40
0
 40
0
 40
0
 40
1
 40
1
 40
1
 40
1
 10
1.475396
 20
5.659533
 30
0.0
 10
1.509674
 20
5.692225
 30
0.0
 10
1.526813
 20
5.738445
 30
0.0
 10
1.526813
 20
5.798196
 30
0.0
  0
SPLINE
  5
2ad
100
AcDbEntity
  8
Capa_1
 62
7
100
AcDbSpline
 70
8
 71
3
 72
8
 73
4
 74
0
 40
0
 40
0
 40
0
 40
0
 40
1
 40
1
 40
1
 40
1
 10
1.526813
 20
5.798196
 30
0.0
 10
1.526813
 20
5.843964
 30
0.0
 10
1.520213
 20
5.886626
 30
0.0
 10
1.507012
 20
5.926183
 30
0.0
  0
SPLINE
  5
2ae
100
AcDbEntity
  8
Capa_1
 62
7
100
AcDbSpline
 70
8
 71
3
 72
8
 73
4
 74
0
 40
0
 40
0
 40
0
 40
0
 40
1
 40
1
 40
1
 40
1
 10
1.507012
 20
5.926183
 30
0.0
 10
1.493812
 20
5.965753
 30
0.0
 10
1.474864
 20
6.000416
 30
0.0
 10
1.450168
 20
6.030172
 30
0.0
  0
SPLINE
  5
2af
100
AcDbEntity
  8
Capa_1
 62
7
100
AcDbSpline
 70
8
 71
3
 72
8
 73
4
 74
0
 40
0
 40
0
 40
0
 40
0
 40
1
 40
1
 40
1
 40
1
 10
1.450168
 20
6.030172
 30
0.0
 10
1.425684
 20
6.059526
 30
0.0
 10
1.395558
 20
6.082649
 30
0.0
 10
1.359789
 20
6.099539
 30
0.0
  0
SPLINE
  5
2b0
100
AcDbEntity
  8
Capa_1
 62
7
100
AcDbSpline
 70
8
 71
3
 72
8
 73
4
 74
0
 40
0
 40
0
 40
0
 40
0
 40
1
 40
1
 40
1
 40
1
 10
1.359789
 20
6.099539
 30
0.0
 10
1.324021
 20
6.116634
 30
0.0
 10
1.284102
 20
6.125181
 30
0.0
 10
1.240031
 20
6.125181
 30
0.0
  0
SPLINE
  5
2b1
100
AcDbEntity
  8
Capa_1
 62
7
100
AcDbSpline
 70
8
 71
3
 72
8
 73
4
 74
0
 40
0
 40
0
 40
0
 40
0
 40
1
 40
1
 40
1
 40
1
 10
1.240031
 20
6.125181
 30
0.0
 10
1.212566
 20
6.125181
 30
0.0
 10
1.186592
 20
6.121640
 30
0.0
 10
1.162109
 20
6.114557
 30
0.0
  0
SPLINE
  5
2b2
100
AcDbEntity
  8
Capa_1
 62
7
100
AcDbSpline
 70
8
 71
3
 72
8
 73
4
 74
0
 40
0
 40
0
 40
0
 40
0
 40
1
 40
1
 40
1
 40
1
 10
1.162109
 20
6.114557
 30
0.0
 10
1.137625
 20
6.107678
 30
0.0
 10
1.112502
 20
6.096679
 30
0.0
 10
1.086741
 20
6.081559
 30
0.0
  0
LWPOLYLINE
  5
2b3
100
AcDbEntity
  8
Capa_1
 62
7
100
AcDbPolyline
 90
2
 70
0
 10
1.829564
 20
5.611007
 30
0.0
 10
1.829562
 20
5.610905
 30
0.0
  0
SPLINE
  5
2b4
100
AcDbEntity
  8
Capa_1
 62
7
100
AcDbSpline
 70
8
 71
3
 72
8
 73
4
 74
0
 40
0
 40
0
 40
0
 40
0
 40
1
 40
1
 40
1
 40
1
 10
1.105899
 20
6.006879
 30
0.0
 10
1.112925
 20
6.014235
 30
0.0
 10
1.120057
 20
6.021012
 30
0.0
 10
1.127296
 20
6.027209
 30
0.0
  0
SPLINE
  5
2b5
100
AcDbEntity
  8
Capa_1
 62
7
100
AcDbSpline
 70
8
 71
3
 72
8
 73
4
 74
0
 40
0
 40
0
 40
0
 40
0
 40
1
 40
1
 40
1
 40
1
 10
1.127296
 20
6.027209
 30
0.0
 10
1.134321
 20
6.033339
 30
0.0
 10
1.144967
 20
6.040354
 30
0.0
 10
1.159232
 20
6.048254
 30
0.0
  0
SPLINE
  5
2b6
100
AcDbEntity
  8
Capa_1
 62
7
100
AcDbSpline
 70
8
 71
3
 72
8
 73
4
 74
0
 40
0
 40
0
 40
0
 40
0
 40
1
 40
1
 40
1
 40
1
 10
1.159232
 20
6.048254
 30
0.0
 10
1.170941
 20
6.054384
 30
0.0
 10
1.184886
 20
6.059730
 30
0.0
 10
1.201067
 20
6.064294
 30
0.0
  0
SPLINE
  5
2b7
100
AcDbEntity
  8
Capa_1
 62
7
100
AcDbSpline
 70
8
 71
3
 72
8
 73
4
 74
0
 40
0
 40
0
 40
0
 40
0
 40
1
 40
1
 40
1
 40
1
 10
1.201067
 20
6.064294
 30
0.0
 10
1.217247
 20
6.069061
 30
0.0
 10
1.235131
 20
6.071445
 30
0.0
 10
1.254719
 20
6.071445
 30
0.0
  0
SPLINE
  5
2b8
100
AcDbEntity
  8
Capa_1
 62
7
100
AcDbSpline
 70
8
 71
3
 72
8
 73
4
 74
0
 40
0
 40
0
 40
0
 40
0
 40
1
 40
1
 40
1
 40
1
 10
1.254719
 20
6.071445
 30
0.0
 10
1.284525
 20
6.071445
 30
0.0
 10
1.311883
 20
6.064907
 30
0.0
 10
1.336793
 20
6.051830
 30
0.0
  0
SPLINE
  5
2b9
100
AcDbEntity
  8
Capa_1
 62
7
100
AcDbSpline
 70
8
 71
3
 72
8
 73
4
 74
0
 40
0
 40
0
 40
0
 40
0
 40
1
 40
1
 40
1
 40
1
 10
1.336793
 20
6.051830
 30
0.0
 10
1.361703
 20
6.038958
 30
0.0
 10
1.383313
 20
6.020841
 30
0.0
 10
1.401622
 20
5.997481
 30
0.0
  0
SPLINE
  5
2ba
100
AcDbEntity
  8
Capa_1
 62
7
100
AcDbSpline
 70
8
 71
3
 72
8
 73
4
 74
0
 40
0
 40
0
 40
0
 40
0
 40
1
 40
1
 40
1
 40
1
 10
1.401622
 20
5.997481
 30
0.0
 10
1.419506
 20
5.974801
 30
0.0
 10
1.433558
 20
5.947252
 30
0.0
 10
1.443778
 20
5.914833
 30
0.0
  0
SPLINE
  5
2bb
100
AcDbEntity
  8
Capa_1
 62
7
100
AcDbSpline
 70
8
 71
3
 72
8
 73
4
 74
0
 40
0
 40
0
 40
0
 40
0
 40
1
 40
1
 40
1
 40
1
 10
1.443778
 20
5.914833
 30
0.0
 10
1.453997
 20
5.882414
 30
0.0
 10
1.459106
 20
5.847863
 30
0.0
 10
1.459106
 20
5.811180
 30
0.0
  0
SPLINE
  5
2bc
100
AcDbEntity
  8
Capa_1
 62
7
100
AcDbSpline
 70
8
 71
3
 72
8
 73
4
 74
0
 40
0
 40
0
 40
0
 40
0
 40
1
 40
1
 40
1
 40
1
 10
1.459106
 20
5.811180
 30
0.0
 10
1.459106
 20
5.765412
 30
0.0
 10
1.447716
 20
5.729748
 30
0.0
 10
1.424936
 20
5.704188
 30
0.0
  0
SPLINE
  5
2bd
100
AcDbEntity
  8
Capa_1
 62
7
100
AcDbSpline
 70
8
 71
3
 72
8
 73
4
 74
0
 40
0
 40
0
 40
0
 40
0
 40
1
 40
1
 40
1
 40
1
 10
1.424936
 20
5.704188
 30
0.0
 10
1.402155
 20
5.678852
 30
0.0
 10
1.369262
 20
5.666184
 30
0.0
 10
1.326255
 20
5.666184
 30
0.0
  0
SPLINE
  5
2be
100
AcDbEntity
  8
Capa_1
 62
7
100
AcDbSpline
 70
8
 71
3
 72
8
 73
4
 74
0
 40
0
 40
0
 40
0
 40
0
 40
1
 40
1
 40
1
 40
1
 10
1.326255
 20
5.666184
 30
0.0
 10
1.306029
 20
5.666184
 30
0.0
 10
1.286868
 20
5.668568
 30
0.0
 10
1.268771
 20
5.673335
 30
0.0
  0
SPLINE
  5
2bf
100
AcDbEntity
  8
Capa_1
 62
7
100
AcDbSpline
 70
8
 71
3
 72
8
 73
4
 74
0
 40
0
 40
0
 40
0
 40
0
 40
1
 40
1
 40
1
 40
1
 10
1.268771
 20
5.673335
 30
0.0
 10
1.250461
 20
5.678103
 30
0.0
 10
1.233855
 20
5.684198
 30
0.0
 10
1.218951
 20
5.691622
 30
0.0
  0
SPLINE
  5
2c0
100
AcDbEntity
  8
Capa_1
 62
7
100
AcDbSpline
 70
8
 71
3
 72
8
 73
4
 74
0
 40
0
 40
0
 40
0
 40
0
 40
1
 40
1
 40
1
 40
1
 10
1.218951
 20
5.691622
 30
0.0
 10
1.205112
 20
5.698501
 30
0.0
 10
1.192657
 20
5.705720
 30
0.0
 10
1.181587
 20
5.713280
 30
0.0
  0
SPLINE
  5
2c1
100
AcDbEntity
  8
Capa_1
 62
7
100
AcDbSpline
 70
8
 71
3
 72
8
 73
4
 74
0
 40
0
 40
0
 40
0
 40
0
 40
1
 40
1
 40
1
 40
1
 10
1.181587
 20
5.713280
 30
0.0
 10
1.170516
 20
5.720840
 30
0.0
 10
1.161041
 20
5.727855
 30
0.0
 10
1.153164
 20
5.734325
 30
0.0
  0
LWPOLYLINE
  5
2c2
100
AcDbEntity
  8
Capa_1
 62
7
100
AcDbPolyline
 90
3
 70
0
 10
1.086741
 20
6.081559
 30
0.0
 10
1.101112
 20
6.006879
 30
0.0
 10
1.105899
 20
6.006879
 30
0.0
  0
SPLINE
  5
2c3
100
AcDbEntity
  8
Capa_1
 62
7
100
AcDbSpline
 70
8
 71
3
 72
8
 73
4
 74
0
 40
0
 40
0
 40
0
 40
0
 40
1
 40
1
 40
1
 40
1
 10
1.163700
 20
5.657705
 30
0.0
 10
1.186055
 20
5.645922
 30
0.0
 10
1.211816
 20
5.635263
 30
0.0
 10
1.240984
 20
5.625728
 30
0.0
  0
SPLINE
  5
2c4
100
AcDbEntity
  8
Capa_1
 62
7
100
AcDbSpline
 70
8
 71
3
 72
8
 73
4
 74
0
 40
0
 40
0
 40
0
 40
0
 40
1
 40
1
 40
1
 40
1
 10
1.240984
 20
5.625728
 30
0.0
 10
1.269939
 20
5.616398
 30
0.0
 10
1.300810
 20
5.611732
 30
0.0
 10
1.333597
 20
5.611732
 30
0.0
  0
LWPOLYLINE
  5
2c5
100
AcDbEntity
  8
Capa_1
 62
7
100
AcDbPolyline
 90
3
 70
0
 10
1.153164
 20
5.734325
 30
0.0
 10
1.148690
 20
5.734325
 30
0.0
 10
1.163700
 20
5.657705
 30
0.0
  0
LWPOLYLINE
  5
2c6
100
AcDbEntity
  8
Capa_1
 62
7
100
AcDbPolyline
 90
2
 70
0
 10
1.333597
 20
5.611732
 30
0.0
 10
1.333602
 20
5.610905
 30
0.0
  0
SPLINE
  5
2c7
100
AcDbEntity
  8
Capa_1
 62
7
100
AcDbSpline
 70
8
 71
3
 72
8
 73
4
 74
0
 40
0
 40
0
 40
0
 40
0
 40
1
 40
1
 40
1
 40
1
 10
1.597710
 20
3.904383
 30
0.0
 10
1.628581
 20
3.904383
 30
0.0
 10
1.657961
 20
3.907788
 30
0.0
 10
1.685852
 20
3.914599
 30
0.0
  0
SPLINE
  5
2c8
100
AcDbEntity
  8
Capa_1
 62
7
100
AcDbSpline
 70
8
 71
3
 72
8
 73
4
 74
0
 40
0
 40
0
 40
0
 40
0
 40
1
 40
1
 40
1
 40
1
 10
1.685852
 20
3.914599
 30
0.0
 10
1.713742
 20
3.921478
 30
0.0
 10
1.741100
 20
3.931932
 30
0.0
 10
1.767926
 20
3.945962
 30
0.0
  0
LWPOLYLINE
  5
2c9
100
AcDbEntity
  8
Capa_1
 62
7
100
AcDbPolyline
 90
12
 70
1
 10
0.701597
 20
5.619905
 30
0.0
 10
0.776327
 20
5.619905
 30
0.0
 10
0.922911
 20
5.841553
 30
0.0
 10
0.988059
 20
5.783934
 30
0.0
 10
1.024147
 20
5.619946
 30
0.0
 10
1.088018
 20
5.619946
 30
0.0
 10
0.978159
 20
6.116242
 30
0.0
 10
0.914288
 20
6.116242
 30
0.0
 10
0.971772
 20
5.858593
 30
0.0
 10
0.692336
 20
6.116242
 30
0.0
 10
0.611859
 20
6.116242
 30
0.0
 10
0.872772
 20
5.878586
 30
0.0
  0
SPLINE
  5
2ca
100
AcDbEntity
  8
Capa_1
 62
7
100
AcDbSpline
 70
8
 71
3
 72
8
 73
4
 74
0
 40
0
 40
0
 40
0
 40
0
 40
1
 40
1
 40
1
 40
1
 10
1.748126
 20
4.021663
 30
0.0
 10
1.727687
 20
4.001435
 30
0.0
 10
1.702671
 20
3.985873
 30
0.0
 10
1.673077
 20
3.974976
 30
0.0
  0
SPLINE
  5
2cb
100
AcDbEntity
  8
Capa_1
 62
7
100
AcDbSpline
 70
8
 71
3
 72
8
 73
4
 74
0
 40
0
 40
0
 40
0
 40
0
 40
1
 40
1
 40
1
 40
1
 10
1.673077
 20
3.974976
 30
0.0
 10
1.643271
 20
3.964283
 30
0.0
 10
1.614529
 20
3.958937
 30
0.0
 10
1.586851
 20
3.958937
 30
0.0
  0
SPLINE
  5
2cc
100
AcDbEntity
  8
Capa_1
 62
7
100
AcDbSpline
 70
8
 71
3
 72
8
 73
4
 74
0
 40
0
 40
0
 40
0
 40
0
 40
1
 40
1
 40
1
 40
1
 10
1.586851
 20
3.958937
 30
0.0
 10
1.541503
 20
3.958937
 30
0.0
 10
1.506800
 20
3.968267
 30
0.0
 10
1.482741
 20
3.986929
 30
0.0
  0
SPLINE
  5
2cd
100
AcDbEntity
  8
Capa_1
 62
7
100
AcDbSpline
 70
8
 71
3
 72
8
 73
4
 74
0
 40
0
 40
0
 40
0
 40
0
 40
1
 40
1
 40
1
 40
1
 10
1.482741
 20
3.986929
 30
0.0
 10
1.458470
 20
4.005794
 30
0.0
 10
1.446335
 20
4.029802
 30
0.0
 10
1.446335
 20
4.058952
 30
0.0
  0
SPLINE
  5
2ce
100
AcDbEntity
  8
Capa_1
 62
7
100
AcDbSpline
 70
8
 71
3
 72
8
 73
4
 74
0
 40
0
 40
0
 40
0
 40
0
 40
1
 40
1
 40
1
 40
1
 10
1.446335
 20
4.058952
 30
0.0
 10
1.446335
 20
4.074276
 30
0.0
 10
1.450699
 20
4.087046
 30
0.0
 10
1.459428
 20
4.097262
 30
0.0
  0
SPLINE
  5
2cf
100
AcDbEntity
  8
Capa_1
 62
7
100
AcDbSpline
 70
8
 71
3
 72
8
 73
4
 74
0
 40
0
 40
0
 40
0
 40
0
 40
1
 40
1
 40
1
 40
1
 10
1.459428
 20
4.097262
 30
0.0
 10
1.467944
 20
4.107478
 30
0.0
 10
1.480505
 20
4.115038
 30
0.0
 10
1.497112
 20
4.119942
 30
0.0
  0
SPLINE
  5
2d0
100
AcDbEntity
  8
Capa_1
 62
7
100
AcDbSpline
 70
8
 71
3
 72
8
 73
4
 74
0
 40
0
 40
0
 40
0
 40
0
 40
1
 40
1
 40
1
 40
1
 10
1.497112
 20
4.119942
 30
0.0
 10
1.510951
 20
4.124028
 30
0.0
 10
1.527451
 20
4.127808
 30
0.0
 10
1.546612
 20
4.131282
 30
0.0
  0
SPLINE
  5
2d1
100
AcDbEntity
  8
Capa_1
 62
7
100
AcDbSpline
 70
8
 71
3
 72
8
 73
4
 74
0
 40
0
 40
0
 40
0
 40
0
 40
1
 40
1
 40
1
 40
1
 10
1.546612
 20
4.131282
 30
0.0
 10
1.565561
 20
4.135368
 30
0.0
 10
1.583658
 20
4.139386
 30
0.0
 10
1.600903
 20
4.143337
 30
0.0
  0
SPLINE
  5
2d2
100
AcDbEntity
  8
Capa_1
 62
7
100
AcDbSpline
 70
8
 71
3
 72
8
 73
4
 74
0
 40
0
 40
0
 40
0
 40
0
 40
1
 40
1
 40
1
 40
1
 10
1.600903
 20
4.143337
 30
0.0
 10
1.634329
 20
4.151101
 30
0.0
 10
1.660197
 20
4.164450
 30
0.0
 10
1.678507
 20
4.183383
 30
0.0
  0
SPLINE
  5
2d3
100
AcDbEntity
  8
Capa_1
 62
7
100
AcDbSpline
 70
8
 71
3
 72
8
 73
4
 74
0
 40
0
 40
0
 40
0
 40
0
 40
1
 40
1
 40
1
 40
1
 10
1.678507
 20
4.183383
 30
0.0
 10
1.696816
 20
4.202249
 30
0.0
 10
1.705971
 20
4.225678
 30
0.0
 10
1.705971
 20
4.253670
 30
0.0
  0
SPLINE
  5
2d4
100
AcDbEntity
  8
Capa_1
 62
7
100
AcDbSpline
 70
8
 71
3
 72
8
 73
4
 74
0
 40
0
 40
0
 40
0
 40
0
 40
1
 40
1
 40
1
 40
1
 10
1.705971
 20
4.253670
 30
0.0
 10
1.705971
 20
4.301004
 30
0.0
 10
1.686810
 20
4.340336
 30
0.0
 10
1.648487
 20
4.371666
 30
0.0
  0
SPLINE
  5
2d5
100
AcDbEntity
  8
Capa_1
 62
7
100
AcDbSpline
 70
8
 71
3
 72
8
 73
4
 74
0
 40
0
 40
0
 40
0
 40
0
 40
1
 40
1
 40
1
 40
1
 10
1.648487
 20
4.371666
 30
0.0
 10
1.609952
 20
4.403199
 30
0.0
 10
1.560239
 20
4.418966
 30
0.0
 10
1.499348
 20
4.418966
 30
0.0
  0
SPLINE
  5
2d6
100
AcDbEntity
  8
Capa_1
 62
7
100
AcDbSpline
 70
8
 71
3
 72
8
 73
4
 74
0
 40
0
 40
0
 40
0
 40
0
 40
1
 40
1
 40
1
 40
1
 10
1.499348
 20
4.418966
 30
0.0
 10
1.466135
 20
4.418966
 30
0.0
 10
1.436009
 20
4.415288
 30
0.0
 10
1.408970
 20
4.407933
 30
0.0
  0
SPLINE
  5
2d7
100
AcDbEntity
  8
Capa_1
 62
7
100
AcDbSpline
 70
8
 71
3
 72
8
 73
4
 74
0
 40
0
 40
0
 40
0
 40
0
 40
1
 40
1
 40
1
 40
1
 10
1.408970
 20
4.407933
 30
0.0
 10
1.381718
 20
4.400849
 30
0.0
 10
1.358299
 20
4.392404
 30
0.0
 10
1.338712
 20
4.382597
 30
0.0
  0
LWPOLYLINE
  5
2d8
100
AcDbEntity
  8
Capa_1
 62
7
100
AcDbPolyline
 90
3
 70
0
 10
1.767926
 20
3.945962
 30
0.0
 10
1.752597
 20
4.021663
 30
0.0
 10
1.748126
 20
4.021663
 30
0.0
  0
SPLINE
  5
2d9
100
AcDbEntity
  8
Capa_1
 62
7
100
AcDbSpline
 70
8
 71
3
 72
8
 73
4
 74
0
 40
0
 40
0
 40
0
 40
0
 40
1
 40
1
 40
1
 40
1
 10
1.357557
 20
4.311595
 30
0.0
 10
1.372673
 20
4.326034
 30
0.0
 10
1.394283
 20
4.338463
 30
0.0
 10
1.422386
 20
4.348884
 30
0.0
  0
SPLINE
  5
2da
100
AcDbEntity
  8
Capa_1
 62
7
100
AcDbSpline
 70
8
 71
3
 72
8
 73
4
 74
0
 40
0
 40
0
 40
0
 40
0
 40
1
 40
1
 40
1
 40
1
 10
1.422386
 20
4.348884
 30
0.0
 10
1.450277
 20
4.359304
 30
0.0
 10
1.479658
 20
4.364514
 30
0.0
 10
1.510529
 20
4.364514
 30
0.0
  0
SPLINE
  5
2db
100
AcDbEntity
  8
Capa_1
 62
7
100
AcDbSpline
 70
8
 71
3
 72
8
 73
4
 74
0
 40
0
 40
0
 40
0
 40
0
 40
1
 40
1
 40
1
 40
1
 10
1.510529
 20
4.364514
 30
0.0
 10
1.549277
 20
4.364514
 30
0.0
 10
1.580255
 20
4.355626
 30
0.0
 10
1.603461
 20
4.337850
 30
0.0
  0
SPLINE
  5
2dc
100
AcDbEntity
  8
Capa_1
 62
7
100
AcDbSpline
 70
8
 71
3
 72
8
 73
4
 74
0
 40
0
 40
0
 40
0
 40
0
 40
1
 40
1
 40
1
 40
1
 10
1.603461
 20
4.337850
 30
0.0
 10
1.626454
 20
4.320074
 30
0.0
 10
1.637951
 20
4.297531
 30
0.0
 10
1.637951
 20
4.270220
 30
0.0
  0
SPLINE
  5
2dd
100
AcDbEntity
  8
Capa_1
 62
7
100
AcDbSpline
 70
8
 71
3
 72
8
 73
4
 74
0
 40
0
 40
0
 40
0
 40
0
 40
1
 40
1
 40
1
 40
1
 10
1.637951
 20
4.270220
 30
0.0
 10
1.637951
 20
4.255577
 30
0.0
 10
1.633800
 20
4.242705
 30
0.0
 10
1.625496
 20
4.231603
 30
0.0
  0
SPLINE
  5
2de
100
AcDbEntity
  8
Capa_1
 62
7
100
AcDbSpline
 70
8
 71
3
 72
8
 73
4
 74
0
 40
0
 40
0
 40
0
 40
0
 40
1
 40
1
 40
1
 40
1
 10
1.625496
 20
4.231603
 30
0.0
 10
1.617193
 20
4.220502
 30
0.0
 10
1.602396
 20
4.212159
 30
0.0
 10
1.581106
 20
4.206574
 30
0.0
  0
SPLINE
  5
2df
100
AcDbEntity
  8
Capa_1
 62
7
100
AcDbSpline
 70
8
 71
3
 72
8
 73
4
 74
0
 40
0
 40
0
 40
0
 40
0
 40
1
 40
1
 40
1
 40
1
 10
1.581106
 20
4.206574
 30
0.0
 10
1.567480
 20
4.203169
 30
0.0
 10
1.549383
 20
4.199048
 30
0.0
 10
1.526816
 20
4.194213
 30
0.0
  0
SPLINE
  5
2e0
100
AcDbEntity
  8
Capa_1
 62
7
100
AcDbSpline
 70
8
 71
3
 72
8
 73
4
 74
0
 40
0
 40
0
 40
0
 40
0
 40
1
 40
1
 40
1
 40
1
 10
1.526816
 20
4.194213
 30
0.0
 10
1.504248
 20
4.189445
 30
0.0
 10
1.485299
 20
4.184984
 30
0.0
 10
1.469970
 20
4.180829
 30
0.0
  0
SPLINE
  5
2e1
100
AcDbEntity
  8
Capa_1
 62
7
100
AcDbSpline
 70
8
 71
3
 72
8
 73
4
 74
0
 40
0
 40
0
 40
0
 40
0
 40
1
 40
1
 40
1
 40
1
 10
1.469970
 20
4.180829
 30
0.0
 10
1.439738
 20
4.172180
 30
0.0
 10
1.416851
 20
4.159308
 30
0.0
 10
1.401308
 20
4.142213
 30
0.0
  0
SPLINE
  5
2e2
100
AcDbEntity
  8
Capa_1
 62
7
100
AcDbSpline
 70
8
 71
3
 72
8
 73
4
 74
0
 40
0
 40
0
 40
0
 40
0
 40
1
 40
1
 40
1
 40
1
 10
1.401308
 20
4.142213
 30
0.0
 10
1.385553
 20
4.125118
 30
0.0
 10
1.377676
 20
4.103562
 30
0.0
 10
1.377676
 20
4.077545
 30
0.0
  0
SPLINE
  5
2e3
100
AcDbEntity
  8
Capa_1
 62
7
100
AcDbSpline
 70
8
 71
3
 72
8
 73
4
 74
0
 40
0
 40
0
 40
0
 40
0
 40
1
 40
1
 40
1
 40
1
 10
1.377676
 20
4.077545
 30
0.0
 10
1.377676
 20
4.055751
 30
0.0
 10
1.382786
 20
4.034093
 30
0.0
 10
1.393005
 20
4.012571
 30
0.0
  0
SPLINE
  5
2e4
100
AcDbEntity
  8
Capa_1
 62
7
100
AcDbSpline
 70
8
 71
3
 72
8
 73
4
 74
0
 40
0
 40
0
 40
0
 40
0
 40
1
 40
1
 40
1
 40
1
 10
1.393005
 20
4.012571
 30
0.0
 10
1.403224
 20
3.990981
 30
0.0
 10
1.417488
 20
3.972524
 30
0.0
 10
1.435798
 20
3.957200
 30
0.0
  0
SPLINE
  5
2e5
100
AcDbEntity
  8
Capa_1
 62
7
100
AcDbSpline
 70
8
 71
3
 72
8
 73
4
 74
0
 40
0
 40
0
 40
0
 40
0
 40
1
 40
1
 40
1
 40
1
 10
1.435798
 20
3.957200
 30
0.0
 10
1.455386
 20
3.940786
 30
0.0
 10
1.478379
 20
3.927914
 30
0.0
 10
1.504779
 20
3.918583
 30
0.0
  0
SPLINE
  5
2e6
100
AcDbEntity
  8
Capa_1
 62
7
100
AcDbSpline
 70
8
 71
3
 72
8
 73
4
 74
0
 40
0
 40
0
 40
0
 40
0
 40
1
 40
1
 40
1
 40
1
 10
1.504779
 20
3.918583
 30
0.0
 10
1.530966
 20
3.909252
 30
0.0
 10
1.561943
 20
3.904587
 30
0.0
 10
1.597711
 20
3.904587
 30
0.0
  0
LWPOLYLINE
  5
2e7
100
AcDbEntity
  8
Capa_1
 62
7
100
AcDbPolyline
 90
3
 70
0
 10
1.338712
 20
4.382597
 30
0.0
 10
1.353083
 20
4.311595
 30
0.0
 10
1.357557
 20
4.311595
 30
0.0
  0
SPLINE
  5
2e8
100
AcDbEntity
  8
Capa_1
 62
7
100
AcDbSpline
 70
8
 71
3
 72
8
 73
4
 74
0
 40
0
 40
0
 40
0
 40
0
 40
1
 40
1
 40
1
 40
1
 10
1.150612
 20
3.904383
 30
0.0
 10
1.181483
 20
3.904383
 30
0.0
 10
1.210863
 20
3.907788
 30
0.0
 10
1.238754
 20
3.914599
 30
0.0
  0
SPLINE
  5
2e9
100
AcDbEntity
  8
Capa_1
 62
7
100
AcDbSpline
 70
8
 71
3
 72
8
 73
4
 74
0
 40
0
 40
0
 40
0
 40
0
 40
1
 40
1
 40
1
 40
1
 10
1.238754
 20
3.914599
 30
0.0
 10
1.266644
 20
3.921478
 30
0.0
 10
1.294002
 20
3.931932
 30
0.0
 10
1.320829
 20
3.945962
 30
0.0
  0
LWPOLYLINE
  5
2ea
100
AcDbEntity
  8
Capa_1
 62
7
100
AcDbPolyline
 90
2
 70
0
 10
1.597711
 20
3.904587
 30
0.0
 10
1.597710
 20
3.904383
 30
0.0
  0
SPLINE
  5
2eb
100
AcDbEntity
  8
Capa_1
 62
7
100
AcDbSpline
 70
8
 71
3
 72
8
 73
4
 74
0
 40
0
 40
0
 40
0
 40
0
 40
1
 40
1
 40
1
 40
1
 10
1.301027
 20
4.021663
 30
0.0
 10
1.280588
 20
4.001435
 30
0.0
 10
1.255572
 20
3.985873
 30
0.0
 10
1.225978
 20
3.974976
 30
0.0
  0
SPLINE
  5
2ec
100
AcDbEntity
  8
Capa_1
 62
7
100
AcDbSpline
 70
8
 71
3
 72
8
 73
4
 74
0
 40
0
 40
0
 40
0
 40
0
 40
1
 40
1
 40
1
 40
1
 10
1.225978
 20
3.974976
 30
0.0
 10
1.196172
 20
3.964283
 30
0.0
 10
1.167430
 20
3.958937
 30
0.0
 10
1.139752
 20
3.958937
 30
0.0
  0
SPLINE
  5
2ed
100
AcDbEntity
  8
Capa_1
 62
7
100
AcDbSpline
 70
8
 71
3
 72
8
 73
4
 74
0
 40
0
 40
0
 40
0
 40
0
 40
1
 40
1
 40
1
 40
1
 10
1.139752
 20
3.958937
 30
0.0
 10
1.094404
 20
3.958937
 30
0.0
 10
1.059701
 20
3.968267
 30
0.0
 10
1.035642
 20
3.986929
 30
0.0
  0
SPLINE
  5
2ee
100
AcDbEntity
  8
Capa_1
 62
7
100
AcDbSpline
 70
8
 71
3
 72
8
 73
4
 74
0
 40
0
 40
0
 40
0
 40
0
 40
1
 40
1
 40
1
 40
1
 10
1.035642
 20
3.986929
 30
0.0
 10
1.011371
 20
4.005794
 30
0.0
 10
0.999236
 20
4.029802
 30
0.0
 10
0.999236
 20
4.058952
 30
0.0
  0
SPLINE
  5
2ef
100
AcDbEntity
  8
Capa_1
 62
7
100
AcDbSpline
 70
8
 71
3
 72
8
 73
4
 74
0
 40
0
 40
0
 40
0
 40
0
 40
1
 40
1
 40
1
 40
1
 10
0.999236
 20
4.058952
 30
0.0
 10
0.999236
 20
4.074276
 30
0.0
 10
1.003600
 20
4.087046
 30
0.0
 10
1.012329
 20
4.097262
 30
0.0
  0
SPLINE
  5
2f0
100
AcDbEntity
  8
Capa_1
 62
7
100
AcDbSpline
 70
8
 71
3
 72
8
 73
4
 74
0
 40
0
 40
0
 40
0
 40
0
 40
1
 40
1
 40
1
 40
1
 10
1.012329
 20
4.097262
 30
0.0
 10
1.020845
 20
4.107478
 30
0.0
 10
1.033406
 20
4.115038
 30
0.0
 10
1.050013
 20
4.119942
 30
0.0
  0
SPLINE
  5
2f1
100
AcDbEntity
  8
Capa_1
 62
7
100
AcDbSpline
 70
8
 71
3
 72
8
 73
4
 74
0
 40
0
 40
0
 40
0
 40
0
 40
1
 40
1
 40
1
 40
1
 10
1.050013
 20
4.119942
 30
0.0
 10
1.063852
 20
4.124028
 30
0.0
 10
1.080352
 20
4.127808
 30
0.0
 10
1.099513
 20
4.131282
 30
0.0
  0
SPLINE
  5
2f2
100
AcDbEntity
  8
Capa_1
 62
7
100
AcDbSpline
 70
8
 71
3
 72
8
 73
4
 74
0
 40
0
 40
0
 40
0
 40
0
 40
1
 40
1
 40
1
 40
1
 10
1.099513
 20
4.131282
 30
0.0
 10
1.118462
 20
4.135368
 30
0.0
 10
1.136558
 20
4.139386
 30
0.0
 10
1.153803
 20
4.143337
 30
0.0
  0
SPLINE
  5
2f3
100
AcDbEntity
  8
Capa_1
 62
7
100
AcDbSpline
 70
8
 71
3
 72
8
 73
4
 74
0
 40
0
 40
0
 40
0
 40
0
 40
1
 40
1
 40
1
 40
1
 10
1.153803
 20
4.143337
 30
0.0
 10
1.187229
 20
4.151101
 30
0.0
 10
1.213097
 20
4.164450
 30
0.0
 10
1.231406
 20
4.183383
 30
0.0
  0
SPLINE
  5
2f4
100
AcDbEntity
  8
Capa_1
 62
7
100
AcDbSpline
 70
8
 71
3
 72
8
 73
4
 74
0
 40
0
 40
0
 40
0
 40
0
 40
1
 40
1
 40
1
 40
1
 10
1.231406
 20
4.183383
 30
0.0
 10
1.249716
 20
4.202249
 30
0.0
 10
1.258871
 20
4.225678
 30
0.0
 10
1.258871
 20
4.253670
 30
0.0
  0
SPLINE
  5
2f5
100
AcDbEntity
  8
Capa_1
 62
7
100
AcDbSpline
 70
8
 71
3
 72
8
 73
4
 74
0
 40
0
 40
0
 40
0
 40
0
 40
1
 40
1
 40
1
 40
1
 10
1.258871
 20
4.253670
 30
0.0
 10
1.258871
 20
4.301004
 30
0.0
 10
1.239710
 20
4.340336
 30
0.0
 10
1.201387
 20
4.371666
 30
0.0
  0
SPLINE
  5
2f6
100
AcDbEntity
  8
Capa_1
 62
7
100
AcDbSpline
 70
8
 71
3
 72
8
 73
4
 74
0
 40
0
 40
0
 40
0
 40
0
 40
1
 40
1
 40
1
 40
1
 10
1.201387
 20
4.371666
 30
0.0
 10
1.162852
 20
4.403199
 30
0.0
 10
1.113139
 20
4.418966
 30
0.0
 10
1.052248
 20
4.418966
 30
0.0
  0
SPLINE
  5
2f7
100
AcDbEntity
  8
Capa_1
 62
7
100
AcDbSpline
 70
8
 71
3
 72
8
 73
4
 74
0
 40
0
 40
0
 40
0
 40
0
 40
1
 40
1
 40
1
 40
1
 10
1.052248
 20
4.418966
 30
0.0
 10
1.019035
 20
4.418966
 30
0.0
 10
0.988909
 20
4.415288
 30
0.0
 10
0.961871
 20
4.407933
 30
0.0
  0
SPLINE
  5
2f8
100
AcDbEntity
  8
Capa_1
 62
7
100
AcDbSpline
 70
8
 71
3
 72
8
 73
4
 74
0
 40
0
 40
0
 40
0
 40
0
 40
1
 40
1
 40
1
 40
1
 10
0.961871
 20
4.407933
 30
0.0
 10
0.934619
 20
4.400849
 30
0.0
 10
0.911199
 20
4.392404
 30
0.0
 10
0.891613
 20
4.382597
 30
0.0
  0
LWPOLYLINE
  5
2f9
100
AcDbEntity
  8
Capa_1
 62
7
100
AcDbPolyline
 90
3
 70
0
 10
1.320829
 20
3.945962
 30
0.0
 10
1.305500
 20
4.021663
 30
0.0
 10
1.301027
 20
4.021663
 30
0.0
  0
SPLINE
  5
2fa
100
AcDbEntity
  8
Capa_1
 62
7
100
AcDbSpline
 70
8
 71
3
 72
8
 73
4
 74
0
 40
0
 40
0
 40
0
 40
0
 40
1
 40
1
 40
1
 40
1
 10
0.910457
 20
4.311595
 30
0.0
 10
0.925573
 20
4.326034
 30
0.0
 10
0.947183
 20
4.338463
 30
0.0
 10
0.975287
 20
4.348884
 30
0.0
  0
SPLINE
  5
2fb
100
AcDbEntity
  8
Capa_1
 62
7
100
AcDbSpline
 70
8
 71
3
 72
8
 73
4
 74
0
 40
0
 40
0
 40
0
 40
0
 40
1
 40
1
 40
1
 40
1
 10
0.975287
 20
4.348884
 30
0.0
 10
1.003177
 20
4.359304
 30
0.0
 10
1.032558
 20
4.364514
 30
0.0
 10
1.063429
 20
4.364514
 30
0.0
  0
SPLINE
  5
2fc
100
AcDbEntity
  8
Capa_1
 62
7
100
AcDbSpline
 70
8
 71
3
 72
8
 73
4
 74
0
 40
0
 40
0
 40
0
 40
0
 40
1
 40
1
 40
1
 40
1
 10
1.063429
 20
4.364514
 30
0.0
 10
1.102178
 20
4.364514
 30
0.0
 10
1.133156
 20
4.355626
 30
0.0
 10
1.156362
 20
4.337850
 30
0.0
  0
SPLINE
  5
2fd
100
AcDbEntity
  8
Capa_1
 62
7
100
AcDbSpline
 70
8
 71
3
 72
8
 73
4
 74
0
 40
0
 40
0
 40
0
 40
0
 40
1
 40
1
 40
1
 40
1
 10
1.156362
 20
4.337850
 30
0.0
 10
1.179356
 20
4.320074
 30
0.0
 10
1.190853
 20
4.297531
 30
0.0
 10
1.190853
 20
4.270220
 30
0.0
  0
SPLINE
  5
2fe
100
AcDbEntity
  8
Capa_1
 62
7
100
AcDbSpline
 70
8
 71
3
 72
8
 73
4
 74
0
 40
0
 40
0
 40
0
 40
0
 40
1
 40
1
 40
1
 40
1
 10
1.190853
 20
4.270220
 30
0.0
 10
1.190853
 20
4.255577
 30
0.0
 10
1.186701
 20
4.242705
 30
0.0
 10
1.178398
 20
4.231603
 30
0.0
  0
SPLINE
  5
2ff
100
AcDbEntity
  8
Capa_1
 62
7
100
AcDbSpline
 70
8
 71
3
 72
8
 73
4
 74
0
 40
0
 40
0
 40
0
 40
0
 40
1
 40
1
 40
1
 40
1
 10
1.178398
 20
4.231603
 30
0.0
 10
1.170095
 20
4.220502
 30
0.0
 10
1.155298
 20
4.212159
 30
0.0
 10
1.134007
 20
4.206574
 30
0.0
  0
SPLINE
  5
300
100
AcDbEntity
  8
Capa_1
 62
7
100
AcDbSpline
 70
8
 71
3
 72
8
 73
4
 74
0
 40
0
 40
0
 40
0
 40
0
 40
1
 40
1
 40
1
 40
1
 10
1.134007
 20
4.206574
 30
0.0
 10
1.120382
 20
4.203169
 30
0.0
 10
1.102285
 20
4.199048
 30
0.0
 10
1.079717
 20
4.194213
 30
0.0
  0
SPLINE
  5
301
100
AcDbEntity
  8
Capa_1
 62
7
100
AcDbSpline
 70
8
 71
3
 72
8
 73
4
 74
0
 40
0
 40
0
 40
0
 40
0
 40
1
 40
1
 40
1
 40
1
 10
1.079717
 20
4.194213
 30
0.0
 10
1.057150
 20
4.189445
 30
0.0
 10
1.038201
 20
4.184984
 30
0.0
 10
1.022872
 20
4.180829
 30
0.0
  0
SPLINE
  5
302
100
AcDbEntity
  8
Capa_1
 62
7
100
AcDbSpline
 70
8
 71
3
 72
8
 73
4
 74
0
 40
0
 40
0
 40
0
 40
0
 40
1
 40
1
 40
1
 40
1
 10
1.022872
 20
4.180829
 30
0.0
 10
0.992639
 20
4.172180
 30
0.0
 10
0.969752
 20
4.159308
 30
0.0
 10
0.954210
 20
4.142213
 30
0.0
  0
SPLINE
  5
303
100
AcDbEntity
  8
Capa_1
 62
7
100
AcDbSpline
 70
8
 71
3
 72
8
 73
4
 74
0
 40
0
 40
0
 40
0
 40
0
 40
1
 40
1
 40
1
 40
1
 10
0.954210
 20
4.142213
 30
0.0
 10
0.938455
 20
4.125118
 30
0.0
 10
0.930578
 20
4.103562
 30
0.0
 10
0.930578
 20
4.077545
 30
0.0
  0
SPLINE
  5
304
100
AcDbEntity
  8
Capa_1
 62
7
100
AcDbSpline
 70
8
 71
3
 72
8
 73
4
 74
0
 40
0
 40
0
 40
0
 40
0
 40
1
 40
1
 40
1
 40
1
 10
0.930578
 20
4.077545
 30
0.0
 10
0.930578
 20
4.055751
 30
0.0
 10
0.935687
 20
4.034093
 30
0.0
 10
0.945906
 20
4.012571
 30
0.0
  0
SPLINE
  5
305
100
AcDbEntity
  8
Capa_1
 62
7
100
AcDbSpline
 70
8
 71
3
 72
8
 73
4
 74
0
 40
0
 40
0
 40
0
 40
0
 40
1
 40
1
 40
1
 40
1
 10
0.945906
 20
4.012571
 30
0.0
 10
0.956126
 20
3.990981
 30
0.0
 10
0.970390
 20
3.972524
 30
0.0
 10
0.988700
 20
3.957200
 30
0.0
  0
SPLINE
  5
306
100
AcDbEntity
  8
Capa_1
 62
7
100
AcDbSpline
 70
8
 71
3
 72
8
 73
4
 74
0
 40
0
 40
0
 40
0
 40
0
 40
1
 40
1
 40
1
 40
1
 10
0.988700
 20
3.957200
 30
0.0
 10
1.008287
 20
3.940786
 30
0.0
 10
1.031281
 20
3.927914
 30
0.0
 10
1.057680
 20
3.918583
 30
0.0
  0
SPLINE
  5
307
100
AcDbEntity
  8
Capa_1
 62
7
100
AcDbSpline
 70
8
 71
3
 72
8
 73
4
 74
0
 40
0
 40
0
 40
0
 40
0
 40
1
 40
1
 40
1
 40
1
 10
1.057680
 20
3.918583
 30
0.0
 10
1.083868
 20
3.909252
 30
0.0
 10
1.114846
 20
3.904587
 30
0.0
 10
1.150613
 20
3.904587
 30
0.0
  0
LWPOLYLINE
  5
308
100
AcDbEntity
  8
Capa_1
 62
7
100
AcDbPolyline
 90
3
 70
0
 10
0.891613
 20
4.382597
 30
0.0
 10
0.905984
 20
4.311595
 30
0.0
 10
0.910457
 20
4.311595
 30
0.0
  0
SPLINE
  5
309
100
AcDbEntity
  8
Capa_1
 62
7
100
AcDbSpline
 70
8
 71
3
 72
8
 73
4
 74
0
 40
0
 40
0
 40
0
 40
0
 40
1
 40
1
 40
1
 40
1
 10
1.784852
 20
2.197861
 30
0.0
 10
1.815723
 20
2.197861
 30
0.0
 10
1.845104
 20
2.201266
 30
0.0
 10
1.872994
 20
2.208077
 30
0.0
  0
SPLINE
  5
30a
100
AcDbEntity
  8
Capa_1
 62
7
100
AcDbSpline
 70
8
 71
3
 72
8
 73
4
 74
0
 40
0
 40
0
 40
0
 40
0
 40
1
 40
1
 40
1
 40
1
 10
1.872994
 20
2.208077
 30
0.0
 10
1.900885
 20
2.214956
 30
0.0
 10
1.928243
 20
2.225410
 30
0.0
 10
1.955069
 20
2.239440
 30
0.0
  0
LWPOLYLINE
  5
30b
100
AcDbEntity
  8
Capa_1
 62
7
100
AcDbPolyline
 90
2
 70
0
 10
1.150613
 20
3.904587
 30
0.0
 10
1.150612
 20
3.904383
 30
0.0
  0
SPLINE
  5
30c
100
AcDbEntity
  8
Capa_1
 62
7
100
AcDbSpline
 70
8
 71
3
 72
8
 73
4
 74
0
 40
0
 40
0
 40
0
 40
0
 40
1
 40
1
 40
1
 40
1
 10
1.935268
 20
2.315141
 30
0.0
 10
1.914830
 20
2.294913
 30
0.0
 10
1.889813
 20
2.279351
 30
0.0
 10
1.860220
 20
2.268454
 30
0.0
  0
SPLINE
  5
30d
100
AcDbEntity
  8
Capa_1
 62
7
100
AcDbSpline
 70
8
 71
3
 72
8
 73
4
 74
0
 40
0
 40
0
 40
0
 40
0
 40
1
 40
1
 40
1
 40
1
 10
1.860220
 20
2.268454
 30
0.0
 10
1.830413
 20
2.257761
 30
0.0
 10
1.801671
 20
2.252415
 30
0.0
 10
1.773994
 20
2.252415
 30
0.0
  0
SPLINE
  5
30e
100
AcDbEntity
  8
Capa_1
 62
7
100
AcDbSpline
 70
8
 71
3
 72
8
 73
4
 74
0
 40
0
 40
0
 40
0
 40
0
 40
1
 40
1
 40
1
 40
1
 10
1.773994
 20
2.252415
 30
0.0
 10
1.728645
 20
2.252415
 30
0.0
 10
1.693942
 20
2.261745
 30
0.0
 10
1.669884
 20
2.280407
 30
0.0
  0
SPLINE
  5
30f
100
AcDbEntity
  8
Capa_1
 62
7
100
AcDbSpline
 70
8
 71
3
 72
8
 73
4
 74
0
 40
0
 40
0
 40
0
 40
0
 40
1
 40
1
 40
1
 40
1
 10
1.669884
 20
2.280407
 30
0.0
 10
1.645613
 20
2.299272
 30
0.0
 10
1.633477
 20
2.323280
 30
0.0
 10
1.633477
 20
2.352430
 30
0.0
  0
SPLINE
  5
310
100
AcDbEntity
  8
Capa_1
 62
7
100
AcDbSpline
 70
8
 71
3
 72
8
 73
4
 74
0
 40
0
 40
0
 40
0
 40
0
 40
1
 40
1
 40
1
 40
1
 10
1.633477
 20
2.352430
 30
0.0
 10
1.633477
 20
2.367754
 30
0.0
 10
1.637842
 20
2.380524
 30
0.0
 10
1.646571
 20
2.390740
 30
0.0
  0
SPLINE
  5
311
100
AcDbEntity
  8
Capa_1
 62
7
100
AcDbSpline
 70
8
 71
3
 72
8
 73
4
 74
0
 40
0
 40
0
 40
0
 40
0
 40
1
 40
1
 40
1
 40
1
 10
1.646571
 20
2.390740
 30
0.0
 10
1.655087
 20
2.400956
 30
0.0
 10
1.667649
 20
2.408516
 30
0.0
 10
1.684255
 20
2.413420
 30
0.0
  0
SPLINE
  5
312
100
AcDbEntity
  8
Capa_1
 62
7
100
AcDbSpline
 70
8
 71
3
 72
8
 73
4
 74
0
 40
0
 40
0
 40
0
 40
0
 40
1
 40
1
 40
1
 40
1
 10
1.684255
 20
2.413420
 30
0.0
 10
1.698094
 20
2.417506
 30
0.0
 10
1.714594
 20
2.421286
 30
0.0
 10
1.733756
 20
2.424760
 30
0.0
  0
SPLINE
  5
313
100
AcDbEntity
  8
Capa_1
 62
7
100
AcDbSpline
 70
8
 71
3
 72
8
 73
4
 74
0
 40
0
 40
0
 40
0
 40
0
 40
1
 40
1
 40
1
 40
1
 10
1.733756
 20
2.424760
 30
0.0
 10
1.752704
 20
2.428846
 30
0.0
 10
1.770801
 20
2.432864
 30
0.0
 10
1.788046
 20
2.436815
 30
0.0
  0
SPLINE
  5
314
100
AcDbEntity
  8
Capa_1
 62
7
100
AcDbSpline
 70
8
 71
3
 72
8
 73
4
 74
0
 40
0
 40
0
 40
0
 40
0
 40
1
 40
1
 40
1
 40
1
 10
1.788046
 20
2.436815
 30
0.0
 10
1.821472
 20
2.444579
 30
0.0
 10
1.847340
 20
2.457928
 30
0.0
 10
1.865649
 20
2.476861
 30
0.0
  0
SPLINE
  5
315
100
AcDbEntity
  8
Capa_1
 62
7
100
AcDbSpline
 70
8
 71
3
 72
8
 73
4
 74
0
 40
0
 40
0
 40
0
 40
0
 40
1
 40
1
 40
1
 40
1
 10
1.865649
 20
2.476861
 30
0.0
 10
1.883959
 20
2.495727
 30
0.0
 10
1.893114
 20
2.519156
 30
0.0
 10
1.893114
 20
2.547148
 30
0.0
  0
SPLINE
  5
316
100
AcDbEntity
  8
Capa_1
 62
7
100
AcDbSpline
 70
8
 71
3
 72
8
 73
4
 74
0
 40
0
 40
0
 40
0
 40
0
 40
1
 40
1
 40
1
 40
1
 10
1.893114
 20
2.547148
 30
0.0
 10
1.893114
 20
2.594482
 30
0.0
 10
1.873953
 20
2.633811
 30
0.0
 10
1.835630
 20
2.665133
 30
0.0
  0
SPLINE
  5
317
100
AcDbEntity
  8
Capa_1
 62
7
100
AcDbSpline
 70
8
 71
3
 72
8
 73
4
 74
0
 40
0
 40
0
 40
0
 40
0
 40
1
 40
1
 40
1
 40
1
 10
1.835630
 20
2.665133
 30
0.0
 10
1.797094
 20
2.696667
 30
0.0
 10
1.747381
 20
2.712434
 30
0.0
 10
1.686491
 20
2.712434
 30
0.0
  0
SPLINE
  5
318
100
AcDbEntity
  8
Capa_1
 62
7
100
AcDbSpline
 70
8
 71
3
 72
8
 73
4
 74
0
 40
0
 40
0
 40
0
 40
0
 40
1
 40
1
 40
1
 40
1
 10
1.686491
 20
2.712434
 30
0.0
 10
1.653278
 20
2.712434
 30
0.0
 10
1.623152
 20
2.708756
 30
0.0
 10
1.596113
 20
2.701400
 30
0.0
  0
SPLINE
  5
319
100
AcDbEntity
  8
Capa_1
 62
7
100
AcDbSpline
 70
8
 71
3
 72
8
 73
4
 74
0
 40
0
 40
0
 40
0
 40
0
 40
1
 40
1
 40
1
 40
1
 10
1.596113
 20
2.701400
 30
0.0
 10
1.568861
 20
2.694317
 30
0.0
 10
1.545442
 20
2.685872
 30
0.0
 10
1.525855
 20
2.676065
 30
0.0
  0
LWPOLYLINE
  5
31a
100
AcDbEntity
  8
Capa_1
 62
7
100
AcDbPolyline
 90
3
 70
0
 10
1.955069
 20
2.239440
 30
0.0
 10
1.939740
 20
2.315141
 30
0.0
 10
1.935268
 20
2.315141
 30
0.0
  0
SPLINE
  5
31b
100
AcDbEntity
  8
Capa_1
 62
7
100
AcDbSpline
 70
8
 71
3
 72
8
 73
4
 74
0
 40
0
 40
0
 40
0
 40
0
 40
1
 40
1
 40
1
 40
1
 10
1.544700
 20
2.605063
 30
0.0
 10
1.559816
 20
2.619502
 30
0.0
 10
1.581426
 20
2.631931
 30
0.0
 10
1.609529
 20
2.642352
 30
0.0
  0
SPLINE
  5
31c
100
AcDbEntity
  8
Capa_1
 62
7
100
AcDbSpline
 70
8
 71
3
 72
8
 73
4
 74
0
 40
0
 40
0
 40
0
 40
0
 40
1
 40
1
 40
1
 40
1
 10
1.609529
 20
2.642352
 30
0.0
 10
1.637420
 20
2.652772
 30
0.0
 10
1.666800
 20
2.657982
 30
0.0
 10
1.697671
 20
2.657982
 30
0.0
  0
SPLINE
  5
31d
100
AcDbEntity
  8
Capa_1
 62
7
100
AcDbSpline
 70
8
 71
3
 72
8
 73
4
 74
0
 40
0
 40
0
 40
0
 40
0
 40
1
 40
1
 40
1
 40
1
 10
1.697671
 20
2.657982
 30
0.0
 10
1.736420
 20
2.657982
 30
0.0
 10
1.767397
 20
2.649094
 30
0.0
 10
1.790604
 20
2.631318
 30
0.0
  0
SPLINE
  5
31e
100
AcDbEntity
  8
Capa_1
 62
7
100
AcDbSpline
 70
8
 71
3
 72
8
 73
4
 74
0
 40
0
 40
0
 40
0
 40
0
 40
1
 40
1
 40
1
 40
1
 10
1.790604
 20
2.631318
 30
0.0
 10
1.813598
 20
2.613542
 30
0.0
 10
1.825094
 20
2.590999
 30
0.0
 10
1.825094
 20
2.563688
 30
0.0
  0
SPLINE
  5
31f
100
AcDbEntity
  8
Capa_1
 62
7
100
AcDbSpline
 70
8
 71
3
 72
8
 73
4
 74
0
 40
0
 40
0
 40
0
 40
0
 40
1
 40
1
 40
1
 40
1
 10
1.825094
 20
2.563688
 30
0.0
 10
1.825094
 20
2.549045
 30
0.0
 10
1.820943
 20
2.536173
 30
0.0
 10
1.812640
 20
2.525071
 30
0.0
  0
SPLINE
  5
320
100
AcDbEntity
  8
Capa_1
 62
7
100
AcDbSpline
 70
8
 71
3
 72
8
 73
4
 74
0
 40
0
 40
0
 40
0
 40
0
 40
1
 40
1
 40
1
 40
1
 10
1.812640
 20
2.525071
 30
0.0
 10
1.804336
 20
2.513970
 30
0.0
 10
1.789539
 20
2.505627
 30
0.0
 10
1.768249
 20
2.500042
 30
0.0
  0
SPLINE
  5
321
100
AcDbEntity
  8
Capa_1
 62
7
100
AcDbSpline
 70
8
 71
3
 72
8
 73
4
 74
0
 40
0
 40
0
 40
0
 40
0
 40
1
 40
1
 40
1
 40
1
 10
1.768249
 20
2.500042
 30
0.0
 10
1.754623
 20
2.496636
 30
0.0
 10
1.736526
 20
2.492516
 30
0.0
 10
1.713959
 20
2.487680
 30
0.0
  0
SPLINE
  5
322
100
AcDbEntity
  8
Capa_1
 62
7
100
AcDbSpline
 70
8
 71
3
 72
8
 73
4
 74
0
 40
0
 40
0
 40
0
 40
0
 40
1
 40
1
 40
1
 40
1
 10
1.713959
 20
2.487680
 30
0.0
 10
1.691391
 20
2.482913
 30
0.0
 10
1.672442
 20
2.478486
 30
0.0
 10
1.657113
 20
2.474399
 30
0.0
  0
SPLINE
  5
323
100
AcDbEntity
  8
Capa_1
 62
7
100
AcDbSpline
 70
8
 71
3
 72
8
 73
4
 74
0
 40
0
 40
0
 40
0
 40
0
 40
1
 40
1
 40
1
 40
1
 10
1.657113
 20
2.474399
 30
0.0
 10
1.626881
 20
2.465750
 30
0.0
 10
1.603994
 20
2.452878
 30
0.0
 10
1.588452
 20
2.435783
 30
0.0
  0
SPLINE
  5
324
100
AcDbEntity
  8
Capa_1
 62
7
100
AcDbSpline
 70
8
 71
3
 72
8
 73
4
 74
0
 40
0
 40
0
 40
0
 40
0
 40
1
 40
1
 40
1
 40
1
 10
1.588452
 20
2.435783
 30
0.0
 10
1.572697
 20
2.418688
 30
0.0
 10
1.564819
 20
2.397132
 30
0.0
 10
1.564819
 20
2.371115
 30
0.0
  0
SPLINE
  5
325
100
AcDbEntity
  8
Capa_1
 62
7
100
AcDbSpline
 70
8
 71
3
 72
8
 73
4
 74
0
 40
0
 40
0
 40
0
 40
0
 40
1
 40
1
 40
1
 40
1
 10
1.564819
 20
2.371115
 30
0.0
 10
1.564819
 20
2.349321
 30
0.0
 10
1.569929
 20
2.327663
 30
0.0
 10
1.580148
 20
2.306141
 30
0.0
  0
SPLINE
  5
326
100
AcDbEntity
  8
Capa_1
 62
7
100
AcDbSpline
 70
8
 71
3
 72
8
 73
4
 74
0
 40
0
 40
0
 40
0
 40
0
 40
1
 40
1
 40
1
 40
1
 10
1.580148
 20
2.306141
 30
0.0
 10
1.590367
 20
2.284551
 30
0.0
 10
1.604632
 20
2.266094
 30
0.0
 10
1.622941
 20
2.250770
 30
0.0
  0
SPLINE
  5
327
100
AcDbEntity
  8
Capa_1
 62
7
100
AcDbSpline
 70
8
 71
3
 72
8
 73
4
 74
0
 40
0
 40
0
 40
0
 40
0
 40
1
 40
1
 40
1
 40
1
 10
1.622941
 20
2.250770
 30
0.0
 10
1.642529
 20
2.234356
 30
0.0
 10
1.665522
 20
2.221484
 30
0.0
 10
1.691922
 20
2.212153
 30
0.0
  0
SPLINE
  5
328
100
AcDbEntity
  8
Capa_1
 62
7
100
AcDbSpline
 70
8
 71
3
 72
8
 73
4
 74
0
 40
0
 40
0
 40
0
 40
0
 40
1
 40
1
 40
1
 40
1
 10
1.691922
 20
2.212153
 30
0.0
 10
1.718110
 20
2.202822
 30
0.0
 10
1.749087
 20
2.198157
 30
0.0
 10
1.784855
 20
2.198157
 30
0.0
  0
LWPOLYLINE
  5
329
100
AcDbEntity
  8
Capa_1
 62
7
100
AcDbPolyline
 90
3
 70
0
 10
1.525855
 20
2.676065
 30
0.0
 10
1.540227
 20
2.605063
 30
0.0
 10
1.544700
 20
2.605063
 30
0.0
  0
SPLINE
  5
32a
100
AcDbEntity
  8
Capa_1
 62
7
100
AcDbSpline
 70
8
 71
3
 72
8
 73
4
 74
0
 40
0
 40
0
 40
0
 40
0
 40
1
 40
1
 40
1
 40
1
 10
1.288893
 20
2.197861
 30
0.0
 10
1.349144
 20
2.197861
 30
0.0
 10
1.396409
 20
2.214070
 30
0.0
 10
1.430687
 20
2.246489
 30
0.0
  0
SPLINE
  5
32b
100
AcDbEntity
  8
Capa_1
 62
7
100
AcDbSpline
 70
8
 71
3
 72
8
 73
4
 74
0
 40
0
 40
0
 40
0
 40
0
 40
1
 40
1
 40
1
 40
1
 10
1.430687
 20
2.246489
 30
0.0
 10
1.464964
 20
2.279181
 30
0.0
 10
1.482103
 20
2.325402
 30
0.0
 10
1.482103
 20
2.385152
 30
0.0
  0
SPLINE
  5
32c
100
AcDbEntity
  8
Capa_1
 62
7
100
AcDbSpline
 70
8
 71
3
 72
8
 73
4
 74
0
 40
0
 40
0
 40
0
 40
0
 40
1
 40
1
 40
1
 40
1
 10
1.482103
 20
2.385152
 30
0.0
 10
1.482103
 20
2.430920
 30
0.0
 10
1.475503
 20
2.473582
 30
0.0
 10
1.462302
 20
2.513139
 30
0.0
  0
SPLINE
  5
32d
100
AcDbEntity
  8
Capa_1
 62
7
100
AcDbSpline
 70
8
 71
3
 72
8
 73
4
 74
0
 40
0
 40
0
 40
0
 40
0
 40
1
 40
1
 40
1
 40
1
 10
1.462302
 20
2.513139
 30
0.0
 10
1.449102
 20
2.552709
 30
0.0
 10
1.430154
 20
2.587372
 30
0.0
 10
1.405457
 20
2.617128
 30
0.0
  0
SPLINE
  5
32e
100
AcDbEntity
  8
Capa_1
 62
7
100
AcDbSpline
 70
8
 71
3
 72
8
 73
4
 74
0
 40
0
 40
0
 40
0
 40
0
 40
1
 40
1
 40
1
 40
1
 10
1.405457
 20
2.617128
 30
0.0
 10
1.380973
 20
2.646482
 30
0.0
 10
1.350847
 20
2.669605
 30
0.0
 10
1.315079
 20
2.686495
 30
0.0
  0
SPLINE
  5
32f
100
AcDbEntity
  8
Capa_1
 62
7
100
AcDbSpline
 70
8
 71
3
 72
8
 73
4
 74
0
 40
0
 40
0
 40
0
 40
0
 40
1
 40
1
 40
1
 40
1
 10
1.315079
 20
2.686495
 30
0.0
 10
1.279312
 20
2.703590
 30
0.0
 10
1.239392
 20
2.712137
 30
0.0
 10
1.195321
 20
2.712137
 30
0.0
  0
SPLINE
  5
330
100
AcDbEntity
  8
Capa_1
 62
7
100
AcDbSpline
 70
8
 71
3
 72
8
 73
4
 74
0
 40
0
 40
0
 40
0
 40
0
 40
1
 40
1
 40
1
 40
1
 10
1.195321
 20
2.712137
 30
0.0
 10
1.167856
 20
2.712137
 30
0.0
 10
1.141882
 20
2.708596
 30
0.0
 10
1.117399
 20
2.701513
 30
0.0
  0
SPLINE
  5
331
100
AcDbEntity
  8
Capa_1
 62
7
100
AcDbSpline
 70
8
 71
3
 72
8
 73
4
 74
0
 40
0
 40
0
 40
0
 40
0
 40
1
 40
1
 40
1
 40
1
 10
1.117399
 20
2.701513
 30
0.0
 10
1.092914
 20
2.694634
 30
0.0
 10
1.067792
 20
2.683635
 30
0.0
 10
1.042031
 20
2.668515
 30
0.0
  0
LWPOLYLINE
  5
332
100
AcDbEntity
  8
Capa_1
 62
7
100
AcDbPolyline
 90
2
 70
0
 10
1.784855
 20
2.198157
 30
0.0
 10
1.784852
 20
2.197861
 30
0.0
  0
SPLINE
  5
333
100
AcDbEntity
  8
Capa_1
 62
7
100
AcDbSpline
 70
8
 71
3
 72
8
 73
4
 74
0
 40
0
 40
0
 40
0
 40
0
 40
1
 40
1
 40
1
 40
1
 10
1.061189
 20
2.593835
 30
0.0
 10
1.068215
 20
2.601191
 30
0.0
 10
1.075347
 20
2.607968
 30
0.0
 10
1.082586
 20
2.614165
 30
0.0
  0
SPLINE
  5
334
100
AcDbEntity
  8
Capa_1
 62
7
100
AcDbSpline
 70
8
 71
3
 72
8
 73
4
 74
0
 40
0
 40
0
 40
0
 40
0
 40
1
 40
1
 40
1
 40
1
 10
1.082586
 20
2.614165
 30
0.0
 10
1.089611
 20
2.620295
 30
0.0
 10
1.100257
 20
2.627310
 30
0.0
 10
1.114522
 20
2.635210
 30
0.0
  0
SPLINE
  5
335
100
AcDbEntity
  8
Capa_1
 62
7
100
AcDbSpline
 70
8
 71
3
 72
8
 73
4
 74
0
 40
0
 40
0
 40
0
 40
0
 40
1
 40
1
 40
1
 40
1
 10
1.114522
 20
2.635210
 30
0.0
 10
1.126231
 20
2.641340
 30
0.0
 10
1.140176
 20
2.646687
 30
0.0
 10
1.156357
 20
2.651250
 30
0.0
  0
SPLINE
  5
336
100
AcDbEntity
  8
Capa_1
 62
7
100
AcDbSpline
 70
8
 71
3
 72
8
 73
4
 74
0
 40
0
 40
0
 40
0
 40
0
 40
1
 40
1
 40
1
 40
1
 10
1.156357
 20
2.651250
 30
0.0
 10
1.172537
 20
2.656017
 30
0.0
 10
1.190421
 20
2.658401
 30
0.0
 10
1.210009
 20
2.658401
 30
0.0
  0
SPLINE
  5
337
100
AcDbEntity
  8
Capa_1
 62
7
100
AcDbSpline
 70
8
 71
3
 72
8
 73
4
 74
0
 40
0
 40
0
 40
0
 40
0
 40
1
 40
1
 40
1
 40
1
 10
1.210009
 20
2.658401
 30
0.0
 10
1.239815
 20
2.658401
 30
0.0
 10
1.267174
 20
2.651863
 30
0.0
 10
1.292083
 20
2.638786
 30
0.0
  0
SPLINE
  5
338
100
AcDbEntity
  8
Capa_1
 62
7
100
AcDbSpline
 70
8
 71
3
 72
8
 73
4
 74
0
 40
0
 40
0
 40
0
 40
0
 40
1
 40
1
 40
1
 40
1
 10
1.292083
 20
2.638786
 30
0.0
 10
1.316993
 20
2.625914
 30
0.0
 10
1.338603
 20
2.607797
 30
0.0
 10
1.356913
 20
2.584437
 30
0.0
  0
SPLINE
  5
339
100
AcDbEntity
  8
Capa_1
 62
7
100
AcDbSpline
 70
8
 71
3
 72
8
 73
4
 74
0
 40
0
 40
0
 40
0
 40
0
 40
1
 40
1
 40
1
 40
1
 10
1.356913
 20
2.584437
 30
0.0
 10
1.374796
 20
2.561757
 30
0.0
 10
1.388848
 20
2.534208
 30
0.0
 10
1.399068
 20
2.501789
 30
0.0
  0
SPLINE
  5
33a
100
AcDbEntity
  8
Capa_1
 62
7
100
AcDbSpline
 70
8
 71
3
 72
8
 73
4
 74
0
 40
0
 40
0
 40
0
 40
0
 40
1
 40
1
 40
1
 40
1
 10
1.399068
 20
2.501789
 30
0.0
 10
1.409287
 20
2.469370
 30
0.0
 10
1.414397
 20
2.434819
 30
0.0
 10
1.414397
 20
2.398137
 30
0.0
  0
SPLINE
  5
33b
100
AcDbEntity
  8
Capa_1
 62
7
100
AcDbSpline
 70
8
 71
3
 72
8
 73
4
 74
0
 40
0
 40
0
 40
0
 40
0
 40
1
 40
1
 40
1
 40
1
 10
1.414397
 20
2.398137
 30
0.0
 10
1.414397
 20
2.352369
 30
0.0
 10
1.403006
 20
2.316704
 30
0.0
 10
1.380226
 20
2.291144
 30
0.0
  0
SPLINE
  5
33c
100
AcDbEntity
  8
Capa_1
 62
7
100
AcDbSpline
 70
8
 71
3
 72
8
 73
4
 74
0
 40
0
 40
0
 40
0
 40
0
 40
1
 40
1
 40
1
 40
1
 10
1.380226
 20
2.291144
 30
0.0
 10
1.357445
 20
2.265808
 30
0.0
 10
1.324552
 20
2.253140
 30
0.0
 10
1.281545
 20
2.253140
 30
0.0
  0
SPLINE
  5
33d
100
AcDbEntity
  8
Capa_1
 62
7
100
AcDbSpline
 70
8
 71
3
 72
8
 73
4
 74
0
 40
0
 40
0
 40
0
 40
0
 40
1
 40
1
 40
1
 40
1
 10
1.281545
 20
2.253140
 30
0.0
 10
1.261319
 20
2.253140
 30
0.0
 10
1.242158
 20
2.255524
 30
0.0
 10
1.224061
 20
2.260291
 30
0.0
  0
SPLINE
  5
33e
100
AcDbEntity
  8
Capa_1
 62
7
100
AcDbSpline
 70
8
 71
3
 72
8
 73
4
 74
0
 40
0
 40
0
 40
0
 40
0
 40
1
 40
1
 40
1
 40
1
 10
1.224061
 20
2.260291
 30
0.0
 10
1.205751
 20
2.265059
 30
0.0
 10
1.189145
 20
2.271154
 30
0.0
 10
1.174241
 20
2.278578
 30
0.0
  0
SPLINE
  5
33f
100
AcDbEntity
  8
Capa_1
 62
7
100
AcDbSpline
 70
8
 71
3
 72
8
 73
4
 74
0
 40
0
 40
0
 40
0
 40
0
 40
1
 40
1
 40
1
 40
1
 10
1.174241
 20
2.278578
 30
0.0
 10
1.160402
 20
2.285457
 30
0.0
 10
1.147947
 20
2.292676
 30
0.0
 10
1.136877
 20
2.300236
 30
0.0
  0
SPLINE
  5
340
100
AcDbEntity
  8
Capa_1
 62
7
100
AcDbSpline
 70
8
 71
3
 72
8
 73
4
 74
0
 40
0
 40
0
 40
0
 40
0
 40
1
 40
1
 40
1
 40
1
 10
1.136877
 20
2.300236
 30
0.0
 10
1.125806
 20
2.307796
 30
0.0
 10
1.116332
 20
2.314811
 30
0.0
 10
1.108454
 20
2.321281
 30
0.0
  0
LWPOLYLINE
  5
341
100
AcDbEntity
  8
Capa_1
 62
7
100
AcDbPolyline
 90
3
 70
0
 10
1.042031
 20
2.668515
 30
0.0
 10
1.056403
 20
2.593835
 30
0.0
 10
1.061189
 20
2.593835
 30
0.0
  0
SPLINE
  5
342
100
AcDbEntity
  8
Capa_1
 62
7
100
AcDbSpline
 70
8
 71
3
 72
8
 73
4
 74
0
 40
0
 40
0
 40
0
 40
0
 40
1
 40
1
 40
1
 40
1
 10
1.118990
 20
2.244661
 30
0.0
 10
1.141345
 20
2.232878
 30
0.0
 10
1.167107
 20
2.222219
 30
0.0
 10
1.196274
 20
2.212684
 30
0.0
  0
SPLINE
  5
343
100
AcDbEntity
  8
Capa_1
 62
7
100
AcDbSpline
 70
8
 71
3
 72
8
 73
4
 74
0
 40
0
 40
0
 40
0
 40
0
 40
1
 40
1
 40
1
 40
1
 10
1.196274
 20
2.212684
 30
0.0
 10
1.225229
 20
2.203354
 30
0.0
 10
1.256100
 20
2.198688
 30
0.0
 10
1.288887
 20
2.198688
 30
0.0
  0
LWPOLYLINE
  5
344
100
AcDbEntity
  8
Capa_1
 62
7
100
AcDbPolyline
 90
3
 70
0
 10
1.108454
 20
2.321281
 30
0.0
 10
1.103980
 20
2.321281
 30
0.0
 10
1.118990
 20
2.244661
 30
0.0
  0
LWPOLYLINE
  5
345
100
AcDbEntity
  8
Capa_1
 62
7
100
AcDbPolyline
 90
2
 70
0
 10
1.288887
 20
2.198688
 30
0.0
 10
1.288893
 20
2.197861
 30
0.0
  0
SPLINE
  5
346
100
AcDbEntity
  8
Capa_1
 62
7
100
AcDbSpline
 70
8
 71
3
 72
8
 73
4
 74
0
 40
0
 40
0
 40
0
 40
0
 40
1
 40
1
 40
1
 40
1
 10
1.848085
 20
0.491339
 30
0.0
 10
1.878956
 20
0.491339
 30
0.0
 10
1.908336
 20
0.494744
 30
0.0
 10
1.936227
 20
0.501555
 30
0.0
  0
SPLINE
  5
347
100
AcDbEntity
  8
Capa_1
 62
7
100
AcDbSpline
 70
8
 71
3
 72
8
 73
4
 74
0
 40
0
 40
0
 40
0
 40
0
 40
1
 40
1
 40
1
 40
1
 10
1.936227
 20
0.501555
 30
0.0
 10
1.964117
 20
0.508434
 30
0.0
 10
1.991475
 20
0.518888
 30
0.0
 10
2.018301
 20
0.532918
 30
0.0
  0
LWPOLYLINE
  5
348
100
AcDbEntity
  8
Capa_1
 62
7
100
AcDbPolyline
 90
6
 70
1
 10
0.743752
 20
2.206861
 30
0.0
 10
1.044905
 20
2.206861
 30
0.0
 10
0.935046
 20
2.703147
 30
0.0
 10
0.871175
 20
2.703147
 30
0.0
 10
0.968579
 20
2.263193
 30
0.0
 10
0.731297
 20
2.263193
 30
0.0
  0
SPLINE
  5
349
100
AcDbEntity
  8
Capa_1
 62
7
100
AcDbSpline
 70
8
 71
3
 72
8
 73
4
 74
0
 40
0
 40
0
 40
0
 40
0
 40
1
 40
1
 40
1
 40
1
 10
1.998501
 20
0.608619
 30
0.0
 10
1.978062
 20
0.588391
 30
0.0
 10
1.953046
 20
0.572829
 30
0.0
 10
1.923452
 20
0.561932
 30
0.0
  0
SPLINE
  5
34a
100
AcDbEntity
  8
Capa_1
 62
7
100
AcDbSpline
 70
8
 71
3
 72
8
 73
4
 74
0
 40
0
 40
0
 40
0
 40
0
 40
1
 40
1
 40
1
 40
1
 10
1.923452
 20
0.561932
 30
0.0
 10
1.893646
 20
0.551239
 30
0.0
 10
1.864904
 20
0.545893
 30
0.0
 10
1.837226
 20
0.545893
 30
0.0
  0
SPLINE
  5
34b
100
AcDbEntity
  8
Capa_1
 62
7
100
AcDbSpline
 70
8
 71
3
 72
8
 73
4
 74
0
 40
0
 40
0
 40
0
 40
0
 40
1
 40
1
 40
1
 40
1
 10
1.837226
 20
0.545893
 30
0.0
 10
1.791878
 20
0.545893
 30
0.0
 10
1.757174
 20
0.555223
 30
0.0
 10
1.733116
 20
0.573885
 30
0.0
  0
SPLINE
  5
34c
100
AcDbEntity
  8
Capa_1
 62
7
100
AcDbSpline
 70
8
 71
3
 72
8
 73
4
 74
0
 40
0
 40
0
 40
0
 40
0
 40
1
 40
1
 40
1
 40
1
 10
1.733116
 20
0.573885
 30
0.0
 10
1.708845
 20
0.592750
 30
0.0
 10
1.696710
 20
0.616758
 30
0.0
 10
1.696710
 20
0.645908
 30
0.0
  0
SPLINE
  5
34d
100
AcDbEntity
  8
Capa_1
 62
7
100
AcDbSpline
 70
8
 71
3
 72
8
 73
4
 74
0
 40
0
 40
0
 40
0
 40
0
 40
1
 40
1
 40
1
 40
1
 10
1.696710
 20
0.645908
 30
0.0
 10
1.696710
 20
0.661232
 30
0.0
 10
1.701074
 20
0.674002
 30
0.0
 10
1.709803
 20
0.684218
 30
0.0
  0
SPLINE
  5
34e
100
AcDbEntity
  8
Capa_1
 62
7
100
AcDbSpline
 70
8
 71
3
 72
8
 73
4
 74
0
 40
0
 40
0
 40
0
 40
0
 40
1
 40
1
 40
1
 40
1
 10
1.709803
 20
0.684218
 30
0.0
 10
1.718319
 20
0.694434
 30
0.0
 10
1.730881
 20
0.701994
 30
0.0
 10
1.747487
 20
0.706898
 30
0.0
  0
SPLINE
  5
34f
100
AcDbEntity
  8
Capa_1
 62
7
100
AcDbSpline
 70
8
 71
3
 72
8
 73
4
 74
0
 40
0
 40
0
 40
0
 40
0
 40
1
 40
1
 40
1
 40
1
 10
1.747487
 20
0.706898
 30
0.0
 10
1.761326
 20
0.710984
 30
0.0
 10
1.777826
 20
0.714764
 30
0.0
 10
1.796987
 20
0.718238
 30
0.0
  0
SPLINE
  5
350
100
AcDbEntity
  8
Capa_1
 62
7
100
AcDbSpline
 70
8
 71
3
 72
8
 73
4
 74
0
 40
0
 40
0
 40
0
 40
0
 40
1
 40
1
 40
1
 40
1
 10
1.796987
 20
0.718238
 30
0.0
 10
1.815936
 20
0.722324
 30
0.0
 10
1.834033
 20
0.726342
 30
0.0
 10
1.851278
 20
0.730293
 30
0.0
  0
SPLINE
  5
351
100
AcDbEntity
  8
Capa_1
 62
7
100
AcDbSpline
 70
8
 71
3
 72
8
 73
4
 74
0
 40
0
 40
0
 40
0
 40
0
 40
1
 40
1
 40
1
 40
1
 10
1.851278
 20
0.730293
 30
0.0
 10
1.884704
 20
0.738057
 30
0.0
 10
1.910572
 20
0.751406
 30
0.0
 10
1.928881
 20
0.770340
 30
0.0
  0
SPLINE
  5
352
100
AcDbEntity
  8
Capa_1
 62
7
100
AcDbSpline
 70
8
 71
3
 72
8
 73
4
 74
0
 40
0
 40
0
 40
0
 40
0
 40
1
 40
1
 40
1
 40
1
 10
1.928881
 20
0.770340
 30
0.0
 10
1.947191
 20
0.789205
 30
0.0
 10
1.956346
 20
0.812634
 30
0.0
 10
1.956346
 20
0.840626
 30
0.0
  0
SPLINE
  5
353
100
AcDbEntity
  8
Capa_1
 62
7
100
AcDbSpline
 70
8
 71
3
 72
8
 73
4
 74
0
 40
0
 40
0
 40
0
 40
0
 40
1
 40
1
 40
1
 40
1
 10
1.956346
 20
0.840626
 30
0.0
 10
1.956346
 20
0.887960
 30
0.0
 10
1.937185
 20
0.927289
 30
0.0
 10
1.898862
 20
0.958611
 30
0.0
  0
SPLINE
  5
354
100
AcDbEntity
  8
Capa_1
 62
7
100
AcDbSpline
 70
8
 71
3
 72
8
 73
4
 74
0
 40
0
 40
0
 40
0
 40
0
 40
1
 40
1
 40
1
 40
1
 10
1.898862
 20
0.958611
 30
0.0
 10
1.860326
 20
0.990145
 30
0.0
 10
1.810613
 20
1.005912
 30
0.0
 10
1.749723
 20
1.005912
 30
0.0
  0
SPLINE
  5
355
100
AcDbEntity
  8
Capa_1
 62
7
100
AcDbSpline
 70
8
 71
3
 72
8
 73
4
 74
0
 40
0
 40
0
 40
0
 40
0
 40
1
 40
1
 40
1
 40
1
 10
1.749723
 20
1.005912
 30
0.0
 10
1.716510
 20
1.005912
 30
0.0
 10
1.686384
 20
1.002234
 30
0.0
 10
1.659345
 20
0.994878
 30
0.0
  0
SPLINE
  5
356
100
AcDbEntity
  8
Capa_1
 62
7
100
AcDbSpline
 70
8
 71
3
 72
8
 73
4
 74
0
 40
0
 40
0
 40
0
 40
0
 40
1
 40
1
 40
1
 40
1
 10
1.659345
 20
0.994878
 30
0.0
 10
1.632093
 20
0.987795
 30
0.0
 10
1.608674
 20
0.979350
 30
0.0
 10
1.589087
 20
0.969543
 30
0.0
  0
LWPOLYLINE
  5
357
100
AcDbEntity
  8
Capa_1
 62
7
100
AcDbPolyline
 90
3
 70
0
 10
2.018301
 20
0.532918
 30
0.0
 10
2.002972
 20
0.608619
 30
0.0
 10
1.998501
 20
0.608619
 30
0.0
  0
SPLINE
  5
358
100
AcDbEntity
  8
Capa_1
 62
7
100
AcDbSpline
 70
8
 71
3
 72
8
 73
4
 74
0
 40
0
 40
0
 40
0
 40
0
 40
1
 40
1
 40
1
 40
1
 10
1.607932
 20
0.898541
 30
0.0
 10
1.623048
 20
0.912980
 30
0.0
 10
1.644657
 20
0.925409
 30
0.0
 10
1.672761
 20
0.935830
 30
0.0
  0
SPLINE
  5
359
100
AcDbEntity
  8
Capa_1
 62
7
100
AcDbSpline
 70
8
 71
3
 72
8
 73
4
 74
0
 40
0
 40
0
 40
0
 40
0
 40
1
 40
1
 40
1
 40
1
 10
1.672761
 20
0.935830
 30
0.0
 10
1.700651
 20
0.946250
 30
0.0
 10
1.730032
 20
0.951460
 30
0.0
 10
1.760903
 20
0.951460
 30
0.0
  0
SPLINE
  5
35a
100
AcDbEntity
  8
Capa_1
 62
7
100
AcDbSpline
 70
8
 71
3
 72
8
 73
4
 74
0
 40
0
 40
0
 40
0
 40
0
 40
1
 40
1
 40
1
 40
1
 10
1.760903
 20
0.951460
 30
0.0
 10
1.799651
 20
0.951460
 30
0.0
 10
1.830629
 20
0.942572
 30
0.0
 10
1.853835
 20
0.924796
 30
0.0
  0
SPLINE
  5
35b
100
AcDbEntity
  8
Capa_1
 62
7
100
AcDbSpline
 70
8
 71
3
 72
8
 73
4
 74
0
 40
0
 40
0
 40
0
 40
0
 40
1
 40
1
 40
1
 40
1
 10
1.853835
 20
0.924796
 30
0.0
 10
1.876829
 20
0.907020
 30
0.0
 10
1.888326
 20
0.884477
 30
0.0
 10
1.888326
 20
0.857166
 30
0.0
  0
SPLINE
  5
35c
100
AcDbEntity
  8
Capa_1
 62
7
100
AcDbSpline
 70
8
 71
3
 72
8
 73
4
 74
0
 40
0
 40
0
 40
0
 40
0
 40
1
 40
1
 40
1
 40
1
 10
1.888326
 20
0.857166
 30
0.0
 10
1.888326
 20
0.842523
 30
0.0
 10
1.884174
 20
0.829651
 30
0.0
 10
1.875871
 20
0.818549
 30
0.0
  0
SPLINE
  5
35d
100
AcDbEntity
  8
Capa_1
 62
7
100
AcDbSpline
 70
8
 71
3
 72
8
 73
4
 74
0
 40
0
 40
0
 40
0
 40
0
 40
1
 40
1
 40
1
 40
1
 10
1.875871
 20
0.818549
 30
0.0
 10
1.867568
 20
0.807448
 30
0.0
 10
1.852771
 20
0.799105
 30
0.0
 10
1.831481
 20
0.793520
 30
0.0
  0
SPLINE
  5
35e
100
AcDbEntity
  8
Capa_1
 62
7
100
AcDbSpline
 70
8
 71
3
 72
8
 73
4
 74
0
 40
0
 40
0
 40
0
 40
0
 40
1
 40
1
 40
1
 40
1
 10
1.831481
 20
0.793520
 30
0.0
 10
1.817855
 20
0.790114
 30
0.0
 10
1.799758
 20
0.785994
 30
0.0
 10
1.777190
 20
0.781158
 30
0.0
  0
SPLINE
  5
35f
100
AcDbEntity
  8
Capa_1
 62
7
100
AcDbSpline
 70
8
 71
3
 72
8
 73
4
 74
0
 40
0
 40
0
 40
0
 40
0
 40
1
 40
1
 40
1
 40
1
 10
1.777190
 20
0.781158
 30
0.0
 10
1.754622
 20
0.776391
 30
0.0
 10
1.735674
 20
0.771964
 30
0.0
 10
1.720345
 20
0.767877
 30
0.0
  0
SPLINE
  5
360
100
AcDbEntity
  8
Capa_1
 62
7
100
AcDbSpline
 70
8
 71
3
 72
8
 73
4
 74
0
 40
0
 40
0
 40
0
 40
0
 40
1
 40
1
 40
1
 40
1
 10
1.720345
 20
0.767877
 30
0.0
 10
1.690112
 20
0.759228
 30
0.0
 10
1.667225
 20
0.746356
 30
0.0
 10
1.651683
 20
0.729261
 30
0.0
  0
SPLINE
  5
361
100
AcDbEntity
  8
Capa_1
 62
7
100
AcDbSpline
 70
8
 71
3
 72
8
 73
4
 74
0
 40
0
 40
0
 40
0
 40
0
 40
1
 40
1
 40
1
 40
1
 10
1.651683
 20
0.729261
 30
0.0
 10
1.635928
 20
0.712166
 30
0.0
 10
1.628051
 20
0.690610
 30
0.0
 10
1.628051
 20
0.664593
 30
0.0
  0
SPLINE
  5
362
100
AcDbEntity
  8
Capa_1
 62
7
100
AcDbSpline
 70
8
 71
3
 72
8
 73
4
 74
0
 40
0
 40
0
 40
0
 40
0
 40
1
 40
1
 40
1
 40
1
 10
1.628051
 20
0.664593
 30
0.0
 10
1.628051
 20
0.642799
 30
0.0
 10
1.633161
 20
0.621141
 30
0.0
 10
1.643380
 20
0.599619
 30
0.0
  0
SPLINE
  5
363
100
AcDbEntity
  8
Capa_1
 62
7
100
AcDbSpline
 70
8
 71
3
 72
8
 73
4
 74
0
 40
0
 40
0
 40
0
 40
0
 40
1
 40
1
 40
1
 40
1
 10
1.643380
 20
0.599619
 30
0.0
 10
1.653599
 20
0.578029
 30
0.0
 10
1.667864
 20
0.559572
 30
0.0
 10
1.686173
 20
0.544248
 30
0.0
  0
SPLINE
  5
364
100
AcDbEntity
  8
Capa_1
 62
7
100
AcDbSpline
 70
8
 71
3
 72
8
 73
4
 74
0
 40
0
 40
0
 40
0
 40
0
 40
1
 40
1
 40
1
 40
1
 10
1.686173
 20
0.544248
 30
0.0
 10
1.705761
 20
0.527834
 30
0.0
 10
1.728754
 20
0.514962
 30
0.0
 10
1.755154
 20
0.505631
 30
0.0
  0
SPLINE
  5
365
100
AcDbEntity
  8
Capa_1
 62
7
100
AcDbSpline
 70
8
 71
3
 72
8
 73
4
 74
0
 40
0
 40
0
 40
0
 40
0
 40
1
 40
1
 40
1
 40
1
 10
1.755154
 20
0.505631
 30
0.0
 10
1.781342
 20
0.496300
 30
0.0
 10
1.812319
 20
0.491635
 30
0.0
 10
1.848087
 20
0.491635
 30
0.0
  0
LWPOLYLINE
  5
366
100
AcDbEntity
  8
Capa_1
 62
7
100
AcDbPolyline
 90
3
 70
0
 10
1.589087
 20
0.969543
 30
0.0
 10
1.603458
 20
0.898541
 30
0.0
 10
1.607932
 20
0.898541
 30
0.0
  0
SPLINE
  5
367
100
AcDbEntity
  8
Capa_1
 62
7
100
AcDbSpline
 70
8
 71
3
 72
8
 73
4
 74
0
 40
0
 40
0
 40
0
 40
0
 40
1
 40
1
 40
1
 40
1
 10
1.102708
 20
0.806310
 30
0.0
 10
1.102708
 20
0.752097
 30
0.0
 10
1.115908
 20
0.700768
 30
0.0
 10
1.142309
 20
0.652324
 30
0.0
  0
SPLINE
  5
368
100
AcDbEntity
  8
Capa_1
 62
7
100
AcDbSpline
 70
8
 71
3
 72
8
 73
4
 74
0
 40
0
 40
0
 40
0
 40
0
 40
1
 40
1
 40
1
 40
1
 10
1.142309
 20
0.652324
 30
0.0
 10
1.168709
 20
0.603899
 30
0.0
 10
1.204796
 20
0.566458
 30
0.0
 10
1.250570
 20
0.539998
 30
0.0
  0
SPLINE
  5
369
100
AcDbEntity
  8
Capa_1
 62
7
100
AcDbSpline
 70
8
 71
3
 72
8
 73
4
 74
0
 40
0
 40
0
 40
0
 40
0
 40
1
 40
1
 40
1
 40
1
 10
1.250570
 20
0.539998
 30
0.0
 10
1.278674
 20
0.524197
 30
0.0
 10
1.307416
 20
0.513640
 30
0.0
 10
1.336796
 20
0.508328
 30
0.0
  0
SPLINE
  5
36a
100
AcDbEntity
  8
Capa_1
 62
7
100
AcDbSpline
 70
8
 71
3
 72
8
 73
4
 74
0
 40
0
 40
0
 40
0
 40
0
 40
1
 40
1
 40
1
 40
1
 10
1.336796
 20
0.508328
 30
0.0
 10
1.366177
 20
0.502880
 30
0.0
 10
1.399496
 20
0.500155
 30
0.0
 10
1.436755
 20
0.500155
 30
0.0
  0
LWPOLYLINE
  5
36b
100
AcDbEntity
  8
Capa_1
 62
7
100
AcDbPolyline
 90
2
 70
0
 10
1.848087
 20
0.491635
 30
0.0
 10
1.848085
 20
0.491339
 30
0.0
  0
SPLINE
  5
36c
100
AcDbEntity
  8
Capa_1
 62
7
100
AcDbSpline
 70
8
 71
3
 72
8
 73
4
 74
0
 40
0
 40
0
 40
0
 40
0
 40
1
 40
1
 40
1
 40
1
 10
1.344780
 20
0.996441
 30
0.0
 10
1.310290
 20
0.996441
 30
0.0
 10
1.278887
 20
0.994058
 30
0.0
 10
1.250570
 20
0.989290
 30
0.0
  0
SPLINE
  5
36d
100
AcDbEntity
  8
Capa_1
 62
7
100
AcDbSpline
 70
8
 71
3
 72
8
 73
4
 74
0
 40
0
 40
0
 40
0
 40
0
 40
1
 40
1
 40
1
 40
1
 10
1.250570
 20
0.989290
 30
0.0
 10
1.222042
 20
0.984523
 30
0.0
 10
1.195961
 20
0.973864
 30
0.0
 10
1.172328
 20
0.957314
 30
0.0
  0
SPLINE
  5
36e
100
AcDbEntity
  8
Capa_1
 62
7
100
AcDbSpline
 70
8
 71
3
 72
8
 73
4
 74
0
 40
0
 40
0
 40
0
 40
0
 40
1
 40
1
 40
1
 40
1
 10
1.172328
 20
0.957314
 30
0.0
 10
1.149760
 20
0.941513
 30
0.0
 10
1.132515
 20
0.920843
 30
0.0
 10
1.120593
 20
0.895302
 30
0.0
  0
SPLINE
  5
36f
100
AcDbEntity
  8
Capa_1
 62
7
100
AcDbSpline
 70
8
 71
3
 72
8
 73
4
 74
0
 40
0
 40
0
 40
0
 40
0
 40
1
 40
1
 40
1
 40
1
 10
1.120593
 20
0.895302
 30
0.0
 10
1.108670
 20
0.869967
 30
0.0
 10
1.102709
 20
0.840408
 30
0.0
 10
1.102709
 20
0.806627
 30
0.0
  0
LWPOLYLINE
  5
370
100
AcDbEntity
  8
Capa_1
 62
7
100
AcDbPolyline
 90
4
 70
0
 10
1.436755
 20
0.500155
 30
0.0
 10
1.565135
 20
0.500155
 30
0.0
 10
1.455277
 20
0.996441
 30
0.0
 10
1.344780
 20
0.996441
 30
0.0
  0
SPLINE
  5
371
100
AcDbEntity
  8
Capa_1
 62
7
100
AcDbSpline
 70
8
 71
3
 72
8
 73
4
 74
0
 40
0
 40
0
 40
0
 40
0
 40
1
 40
1
 40
1
 40
1
 10
1.169453
 20
0.800181
 30
0.0
 10
1.169453
 20
0.825516
 30
0.0
 10
1.173818
 20
0.847277
 30
0.0
 10
1.182547
 20
0.865461
 30
0.0
  0
SPLINE
  5
372
100
AcDbEntity
  8
Capa_1
 62
7
100
AcDbSpline
 70
8
 71
3
 72
8
 73
4
 74
0
 40
0
 40
0
 40
0
 40
0
 40
1
 40
1
 40
1
 40
1
 10
1.182547
 20
0.865461
 30
0.0
 10
1.191063
 20
0.883918
 30
0.0
 10
1.204050
 20
0.899242
 30
0.0
 10
1.221508
 20
0.911434
 30
0.0
  0
SPLINE
  5
373
100
AcDbEntity
  8
Capa_1
 62
7
100
AcDbSpline
 70
8
 71
3
 72
8
 73
4
 74
0
 40
0
 40
0
 40
0
 40
0
 40
1
 40
1
 40
1
 40
1
 10
1.221508
 20
0.911434
 30
0.0
 10
1.238754
 20
0.923420
 30
0.0
 10
1.257170
 20
0.931423
 30
0.0
 10
1.276757
 20
0.935441
 30
0.0
  0
SPLINE
  5
374
100
AcDbEntity
  8
Capa_1
 62
7
100
AcDbSpline
 70
8
 71
3
 72
8
 73
4
 74
0
 40
0
 40
0
 40
0
 40
0
 40
1
 40
1
 40
1
 40
1
 10
1.276757
 20
0.935441
 30
0.0
 10
1.296343
 20
0.939528
 30
0.0
 10
1.321147
 20
0.941571
 30
0.0
 10
1.351167
 20
0.941571
 30
0.0
  0
LWPOLYLINE
  5
375
100
AcDbEntity
  8
Capa_1
 62
7
100
AcDbPolyline
 90
2
 70
0
 10
1.102709
 20
0.806627
 30
0.0
 10
1.102708
 20
0.806310
 30
0.0
  0
SPLINE
  5
376
100
AcDbEntity
  8
Capa_1
 62
7
100
AcDbSpline
 70
8
 71
3
 72
8
 73
4
 74
0
 40
0
 40
0
 40
0
 40
0
 40
1
 40
1
 40
1
 40
1
 10
1.423980
 20
0.553943
 30
0.0
 10
1.393534
 20
0.553943
 30
0.0
 10
1.366389
 20
0.556327
 30
0.0
 10
1.342545
 20
0.561094
 30
0.0
  0
SPLINE
  5
377
100
AcDbEntity
  8
Capa_1
 62
7
100
AcDbSpline
 70
8
 71
3
 72
8
 73
4
 74
0
 40
0
 40
0
 40
0
 40
0
 40
1
 40
1
 40
1
 40
1
 10
1.342545
 20
0.561094
 30
0.0
 10
1.318486
 20
0.566543
 30
0.0
 10
1.295812
 20
0.575533
 30
0.0
 10
1.274522
 20
0.588065
 30
0.0
  0
SPLINE
  5
378
100
AcDbEntity
  8
Capa_1
 62
7
100
AcDbSpline
 70
8
 71
3
 72
8
 73
4
 74
0
 40
0
 40
0
 40
0
 40
0
 40
1
 40
1
 40
1
 40
1
 10
1.274522
 20
0.588065
 30
0.0
 10
1.240245
 20
0.608497
 30
0.0
 10
1.214164
 20
0.637953
 30
0.0
 10
1.196280
 20
0.676433
 30
0.0
  0
SPLINE
  5
379
100
AcDbEntity
  8
Capa_1
 62
7
100
AcDbSpline
 70
8
 71
3
 72
8
 73
4
 74
0
 40
0
 40
0
 40
0
 40
0
 40
1
 40
1
 40
1
 40
1
 10
1.196280
 20
0.676433
 30
0.0
 10
1.178396
 20
0.715118
 30
0.0
 10
1.169454
 20
0.756115
 30
0.0
 10
1.169454
 20
0.799425
 30
0.0
  0
LWPOLYLINE
  5
37a
100
AcDbEntity
  8
Capa_1
 62
7
100
AcDbPolyline
 90
4
 70
0
 10
1.351167
 20
0.941571
 30
0.0
 10
1.403861
 20
0.941571
 30
0.0
 10
1.490087
 20
0.553943
 30
0.0
 10
1.423980
 20
0.553943
 30
0.0
  0
LWPOLYLINE
  5
37b
100
AcDbEntity
  8
Capa_1
 62
7
100
AcDbPolyline
 90
2
 70
0
 10
1.169454
 20
0.799425
 30
0.0
 10
1.169453
 20
0.800181
 30
0.0
  0
LWPOLYLINE
  5
37c
100
AcDbEntity
  8
Capa_1
 62
7
100
AcDbPolyline
 90
8
 70
1
 10
0.684352
 20
0.500339
 30
0.0
 10
0.748542
 20
0.500339
 30
0.0
 10
0.764510
 20
0.639993
 30
0.0
 10
0.969537
 20
0.639993
 30
0.0
 10
1.047459
 20
0.500339
 30
0.0
 10
1.114205
 20
0.500339
 30
0.0
 10
0.831256
 20
0.996625
 30
0.0
 10
0.747585
 20
0.996625
 30
0.0
  0
LWPOLYLINE
  5
37d
100
AcDbEntity
  8
Capa_1
 62
7
100
AcDbPolyline
 90
3
 70
1
 10
0.771536
 20
0.693985
 30
0.0
 10
0.801237
 20
0.938966
 30
0.0
 10
0.939198
 20
0.693985
 30
0.0
  0
ENDSEC
  0
SECTION
  2
OBJECTS
  0
DICTIONARY
  5
C
330
0
100
AcDbDictionary
  3
ACAD_GROUP
350
D
  3
ACAD_MLINESTYLE
350
17
  0
DICTIONARY
  5
D
330
C
100
AcDbDictionary
  0
DICTIONARY
  5
1A
330
C
100
AcDbDictionary
  0
DICTIONARY
  5
17
330
C
100
AcDbDictionary
  3
STANDARD
350
18
  0
DICTIONARY
  5
19
330
C
100
AcDbDictionary
  0
ENDSEC
  0
EOF
